<?xml version="1.0" encoding="utf-8" standalone="no"?>
<!DOCTYPE svg PUBLIC "-//W3C//DTD SVG 1.1//EN"
  "http://www.w3.org/Graphics/SVG/1.1/DTD/svg11.dtd">
<svg xmlns:xlink="http://www.w3.org/1999/xlink" width="460.8pt" height="507.6325pt" viewBox="0 0 460.8 507.6325" xmlns="http://www.w3.org/2000/svg" version="1.1">
 <metadata>
  <rdf:RDF xmlns:dc="http://purl.org/dc/elements/1.1/" xmlns:cc="http://creativecommons.org/ns#" xmlns:rdf="http://www.w3.org/1999/02/22-rdf-syntax-ns#">
   <cc:Work>
    <dc:type rdf:resource="http://purl.org/dc/dcmitype/StillImage"/>
    <dc:date>2024-07-10T11:49:48.509259</dc:date>
    <dc:format>image/svg+xml</dc:format>
    <dc:creator>
     <cc:Agent>
      <dc:title>Matplotlib v3.8.0, https://matplotlib.org/</dc:title>
     </cc:Agent>
    </dc:creator>
   </cc:Work>
  </rdf:RDF>
 </metadata>
 <defs>
  <style type="text/css">*{stroke-linejoin: round; stroke-linecap: butt}</style>
 </defs>
 <g id="figure_1">
  <g id="patch_1">
   <path d="M 0 507.6325 
L 460.8 507.6325 
L 460.8 0 
L 0 0 
z
" style="fill: #ffffff"/>
  </g>
  <g id="axes_1">
   <g id="patch_2">
    <path d="M 7.2 450.72 
L 453.6 450.72 
L 453.6 7.2 
L 7.2 7.2 
z
" style="fill: #ffffff"/>
   </g>
   <g id="patch_3">
    <path d="M 44.4 450.72 
L 51.81768 450.72 
L 51.81768 28.32 
L 44.4 28.32 
z
" clip-path="url(#p936ab93897)" style="fill: #b22222; opacity: 0.8"/>
   </g>
   <g id="patch_4">
    <path d="M 51.81768 450.72 
L 59.23536 450.72 
L 59.23536 185.825085 
L 51.81768 185.825085 
z
" clip-path="url(#p936ab93897)" style="fill: #b22222; opacity: 0.8"/>
   </g>
   <g id="patch_5">
    <path d="M 59.23536 450.72 
L 66.65304 450.72 
L 66.65304 228.781017 
L 59.23536 228.781017 
z
" clip-path="url(#p936ab93897)" style="fill: #b22222; opacity: 0.8"/>
   </g>
   <g id="patch_6">
    <path d="M 66.65304 450.72 
L 74.070721 450.72 
L 74.070721 250.258983 
L 66.65304 250.258983 
z
" clip-path="url(#p936ab93897)" style="fill: #b22222; opacity: 0.8"/>
   </g>
   <g id="patch_7">
    <path d="M 74.070721 450.72 
L 81.488399 450.72 
L 81.488399 364.808136 
L 74.070721 364.808136 
z
" clip-path="url(#p936ab93897)" style="fill: #b22222; opacity: 0.8"/>
   </g>
   <g id="patch_8">
    <path d="M 81.488399 450.72 
L 88.90608 450.72 
L 88.90608 250.258983 
L 81.488399 250.258983 
z
" clip-path="url(#p936ab93897)" style="fill: #b22222; opacity: 0.8"/>
   </g>
   <g id="patch_9">
    <path d="M 88.90608 450.72 
L 96.323761 450.72 
L 96.323761 321.852203 
L 88.90608 321.852203 
z
" clip-path="url(#p936ab93897)" style="fill: #b22222; opacity: 0.8"/>
   </g>
   <g id="patch_10">
    <path d="M 96.323761 450.72 
L 103.741442 450.72 
L 103.741442 307.533559 
L 96.323761 307.533559 
z
" clip-path="url(#p936ab93897)" style="fill: #b22222; opacity: 0.8"/>
   </g>
   <g id="patch_11">
    <path d="M 103.741442 450.72 
L 111.159122 450.72 
L 111.159122 264.577627 
L 103.741442 264.577627 
z
" clip-path="url(#p936ab93897)" style="fill: #b22222; opacity: 0.8"/>
   </g>
   <g id="patch_12">
    <path d="M 111.159122 450.72 
L 118.576798 450.72 
L 118.576798 307.533559 
L 111.159122 307.533559 
z
" clip-path="url(#p936ab93897)" style="fill: #b22222; opacity: 0.8"/>
   </g>
   <g id="patch_13">
    <path d="M 118.576798 450.72 
L 125.994479 450.72 
L 125.994479 357.648814 
L 118.576798 357.648814 
z
" clip-path="url(#p936ab93897)" style="fill: #b22222; opacity: 0.8"/>
   </g>
   <g id="patch_14">
    <path d="M 125.994479 450.72 
L 133.41216 450.72 
L 133.41216 314.692881 
L 125.994479 314.692881 
z
" clip-path="url(#p936ab93897)" style="fill: #b22222; opacity: 0.8"/>
   </g>
   <g id="patch_15">
    <path d="M 133.41216 450.72 
L 140.82984 450.72 
L 140.82984 185.825085 
L 133.41216 185.825085 
z
" clip-path="url(#p936ab93897)" style="fill: #b22222; opacity: 0.8"/>
   </g>
   <g id="patch_16">
    <path d="M 140.82984 450.72 
L 148.247521 450.72 
L 148.247521 286.055593 
L 140.82984 286.055593 
z
" clip-path="url(#p936ab93897)" style="fill: #b22222; opacity: 0.8"/>
   </g>
   <g id="patch_17">
    <path d="M 148.247521 450.72 
L 155.665202 450.72 
L 155.665202 364.808136 
L 148.247521 364.808136 
z
" clip-path="url(#p936ab93897)" style="fill: #b22222; opacity: 0.8"/>
   </g>
   <g id="patch_18">
    <path d="M 155.665202 450.72 
L 163.082883 450.72 
L 163.082883 336.170847 
L 155.665202 336.170847 
z
" clip-path="url(#p936ab93897)" style="fill: #b22222; opacity: 0.8"/>
   </g>
   <g id="patch_19">
    <path d="M 163.082883 450.72 
L 170.500564 450.72 
L 170.500564 307.533559 
L 163.082883 307.533559 
z
" clip-path="url(#p936ab93897)" style="fill: #b22222; opacity: 0.8"/>
   </g>
   <g id="patch_20">
    <path d="M 170.500564 450.72 
L 177.918245 450.72 
L 177.918245 307.533559 
L 170.500564 307.533559 
z
" clip-path="url(#p936ab93897)" style="fill: #b22222; opacity: 0.8"/>
   </g>
   <g id="patch_21">
    <path d="M 177.918245 450.72 
L 185.335915 450.72 
L 185.335915 293.214915 
L 177.918245 293.214915 
z
" clip-path="url(#p936ab93897)" style="fill: #b22222; opacity: 0.8"/>
   </g>
   <g id="patch_22">
    <path d="M 185.335915 450.72 
L 192.753595 450.72 
L 192.753595 278.896271 
L 185.335915 278.896271 
z
" clip-path="url(#p936ab93897)" style="fill: #b22222; opacity: 0.8"/>
   </g>
   <g id="patch_23">
    <path d="M 192.753595 450.72 
L 200.171276 450.72 
L 200.171276 278.896271 
L 192.753595 278.896271 
z
" clip-path="url(#p936ab93897)" style="fill: #b22222; opacity: 0.8"/>
   </g>
   <g id="patch_24">
    <path d="M 200.171276 450.72 
L 207.588957 450.72 
L 207.588957 300.374237 
L 200.171276 300.374237 
z
" clip-path="url(#p936ab93897)" style="fill: #b22222; opacity: 0.8"/>
   </g>
   <g id="patch_25">
    <path d="M 207.588957 450.72 
L 215.006638 450.72 
L 215.006638 329.011525 
L 207.588957 329.011525 
z
" clip-path="url(#p936ab93897)" style="fill: #b22222; opacity: 0.8"/>
   </g>
   <g id="patch_26">
    <path d="M 215.006638 450.72 
L 222.424319 450.72 
L 222.424319 321.852203 
L 215.006638 321.852203 
z
" clip-path="url(#p936ab93897)" style="fill: #b22222; opacity: 0.8"/>
   </g>
   <g id="patch_27">
    <path d="M 222.424319 450.72 
L 229.842 450.72 
L 229.842 235.940339 
L 222.424319 235.940339 
z
" clip-path="url(#p936ab93897)" style="fill: #b22222; opacity: 0.8"/>
   </g>
   <g id="patch_28">
    <path d="M 229.842 450.72 
L 237.259681 450.72 
L 237.259681 329.011525 
L 229.842 329.011525 
z
" clip-path="url(#p936ab93897)" style="fill: #b22222; opacity: 0.8"/>
   </g>
   <g id="patch_29">
    <path d="M 237.259681 450.72 
L 244.677362 450.72 
L 244.677362 357.648814 
L 237.259681 357.648814 
z
" clip-path="url(#p936ab93897)" style="fill: #b22222; opacity: 0.8"/>
   </g>
   <g id="patch_30">
    <path d="M 244.677362 450.72 
L 252.095043 450.72 
L 252.095043 336.170847 
L 244.677362 336.170847 
z
" clip-path="url(#p936ab93897)" style="fill: #b22222; opacity: 0.8"/>
   </g>
   <g id="patch_31">
    <path d="M 252.095043 450.72 
L 259.512724 450.72 
L 259.512724 293.214915 
L 252.095043 293.214915 
z
" clip-path="url(#p936ab93897)" style="fill: #b22222; opacity: 0.8"/>
   </g>
   <g id="patch_32">
    <path d="M 259.512724 450.72 
L 266.930405 450.72 
L 266.930405 314.692881 
L 259.512724 314.692881 
z
" clip-path="url(#p936ab93897)" style="fill: #b22222; opacity: 0.8"/>
   </g>
   <g id="patch_33">
    <path d="M 266.930405 450.72 
L 274.348085 450.72 
L 274.348085 343.330169 
L 266.930405 343.330169 
z
" clip-path="url(#p936ab93897)" style="fill: #b22222; opacity: 0.8"/>
   </g>
   <g id="patch_34">
    <path d="M 274.348085 450.72 
L 281.765766 450.72 
L 281.765766 386.286102 
L 274.348085 386.286102 
z
" clip-path="url(#p936ab93897)" style="fill: #b22222; opacity: 0.8"/>
   </g>
   <g id="patch_35">
    <path d="M 281.765766 450.72 
L 289.183447 450.72 
L 289.183447 329.011525 
L 281.765766 329.011525 
z
" clip-path="url(#p936ab93897)" style="fill: #b22222; opacity: 0.8"/>
   </g>
   <g id="patch_36">
    <path d="M 289.183447 450.72 
L 296.601128 450.72 
L 296.601128 307.533559 
L 289.183447 307.533559 
z
" clip-path="url(#p936ab93897)" style="fill: #b22222; opacity: 0.8"/>
   </g>
   <g id="patch_37">
    <path d="M 296.601128 450.72 
L 304.018809 450.72 
L 304.018809 400.604746 
L 296.601128 400.604746 
z
" clip-path="url(#p936ab93897)" style="fill: #b22222; opacity: 0.8"/>
   </g>
   <g id="patch_38">
    <path d="M 304.018809 450.72 
L 311.43649 450.72 
L 311.43649 271.736949 
L 304.018809 271.736949 
z
" clip-path="url(#p936ab93897)" style="fill: #b22222; opacity: 0.8"/>
   </g>
   <g id="patch_39">
    <path d="M 311.43649 450.72 
L 318.854171 450.72 
L 318.854171 314.692881 
L 311.43649 314.692881 
z
" clip-path="url(#p936ab93897)" style="fill: #b22222; opacity: 0.8"/>
   </g>
   <g id="patch_40">
    <path d="M 318.854171 450.72 
L 326.271829 450.72 
L 326.271829 350.489492 
L 318.854171 350.489492 
z
" clip-path="url(#p936ab93897)" style="fill: #b22222; opacity: 0.8"/>
   </g>
   <g id="patch_41">
    <path d="M 326.271829 450.72 
L 333.68951 450.72 
L 333.68951 364.808136 
L 326.271829 364.808136 
z
" clip-path="url(#p936ab93897)" style="fill: #b22222; opacity: 0.8"/>
   </g>
   <g id="patch_42">
    <path d="M 333.68951 450.72 
L 341.107191 450.72 
L 341.107191 336.170847 
L 333.68951 336.170847 
z
" clip-path="url(#p936ab93897)" style="fill: #b22222; opacity: 0.8"/>
   </g>
   <g id="patch_43">
    <path d="M 341.107191 450.72 
L 348.524872 450.72 
L 348.524872 293.214915 
L 341.107191 293.214915 
z
" clip-path="url(#p936ab93897)" style="fill: #b22222; opacity: 0.8"/>
   </g>
   <g id="patch_44">
    <path d="M 348.524872 450.72 
L 355.942553 450.72 
L 355.942553 293.214915 
L 348.524872 293.214915 
z
" clip-path="url(#p936ab93897)" style="fill: #b22222; opacity: 0.8"/>
   </g>
   <g id="patch_45">
    <path d="M 355.942553 450.72 
L 363.360234 450.72 
L 363.360234 379.12678 
L 355.942553 379.12678 
z
" clip-path="url(#p936ab93897)" style="fill: #b22222; opacity: 0.8"/>
   </g>
   <g id="patch_46">
    <path d="M 363.360234 450.72 
L 370.777915 450.72 
L 370.777915 350.489492 
L 363.360234 350.489492 
z
" clip-path="url(#p936ab93897)" style="fill: #b22222; opacity: 0.8"/>
   </g>
   <g id="patch_47">
    <path d="M 370.777915 450.72 
L 378.195595 450.72 
L 378.195595 321.852203 
L 370.777915 321.852203 
z
" clip-path="url(#p936ab93897)" style="fill: #b22222; opacity: 0.8"/>
   </g>
   <g id="patch_48">
    <path d="M 378.195595 450.72 
L 385.613276 450.72 
L 385.613276 371.967458 
L 378.195595 371.967458 
z
" clip-path="url(#p936ab93897)" style="fill: #b22222; opacity: 0.8"/>
   </g>
   <g id="patch_49">
    <path d="M 385.613276 450.72 
L 393.030957 450.72 
L 393.030957 300.374237 
L 385.613276 300.374237 
z
" clip-path="url(#p936ab93897)" style="fill: #b22222; opacity: 0.8"/>
   </g>
   <g id="patch_50">
    <path d="M 393.030957 450.72 
L 400.448638 450.72 
L 400.448638 364.808136 
L 393.030957 364.808136 
z
" clip-path="url(#p936ab93897)" style="fill: #b22222; opacity: 0.8"/>
   </g>
   <g id="patch_51">
    <path d="M 400.448638 450.72 
L 407.866319 450.72 
L 407.866319 314.692881 
L 400.448638 314.692881 
z
" clip-path="url(#p936ab93897)" style="fill: #b22222; opacity: 0.8"/>
   </g>
   <g id="patch_52">
    <path d="M 407.866319 450.72 
L 415.284 450.72 
L 415.284 343.330169 
L 407.866319 343.330169 
z
" clip-path="url(#p936ab93897)" style="fill: #b22222; opacity: 0.8"/>
   </g>
   <g id="PolyCollection_1">
    <defs>
     <path id="m3d707e6027" d="M 44.4 -286.010805 
L 44.4 -121.346398 
L 51.991837 -121.346398 
L 59.583673 -121.346398 
L 67.17551 -121.346398 
L 74.767347 -121.346398 
L 82.359184 -121.346398 
L 89.95102 -121.346398 
L 97.542857 -121.346398 
L 105.134694 -121.346398 
L 112.726531 -121.346398 
L 120.318367 -121.346398 
L 127.910204 -121.346398 
L 135.502041 -121.346398 
L 143.093878 -121.346398 
L 150.685714 -121.346398 
L 158.277551 -121.346398 
L 165.869388 -121.346398 
L 173.461224 -121.346398 
L 181.053061 -121.346398 
L 188.644898 -121.346398 
L 196.236735 -121.346398 
L 203.828571 -121.346398 
L 211.420408 -121.346398 
L 219.012245 -121.346398 
L 226.604082 -121.346398 
L 234.195918 -121.346398 
L 241.787755 -121.346398 
L 249.379592 -121.346398 
L 256.971429 -121.346398 
L 264.563265 -121.346398 
L 272.155102 -121.346398 
L 279.746939 -121.346398 
L 287.338776 -121.346398 
L 294.930612 -121.346398 
L 302.522449 -121.346398 
L 310.114286 -121.346398 
L 317.706122 -121.346398 
L 325.297959 -121.346398 
L 332.889796 -121.346398 
L 340.481633 -121.346398 
L 348.073469 -121.346398 
L 355.665306 -121.346398 
L 363.257143 -121.346398 
L 370.84898 -121.346398 
L 378.440816 -121.346398 
L 386.032653 -121.346398 
L 393.62449 -121.346398 
L 401.216327 -121.346398 
L 408.808163 -121.346398 
L 416.4 -121.346398 
L 416.4 -286.010805 
L 416.4 -286.010805 
L 408.808163 -286.010805 
L 401.216327 -286.010805 
L 393.62449 -286.010805 
L 386.032653 -286.010805 
L 378.440816 -286.010805 
L 370.84898 -286.010805 
L 363.257143 -286.010805 
L 355.665306 -286.010805 
L 348.073469 -286.010805 
L 340.481633 -286.010805 
L 332.889796 -286.010805 
L 325.297959 -286.010805 
L 317.706122 -286.010805 
L 310.114286 -286.010805 
L 302.522449 -286.010805 
L 294.930612 -286.010805 
L 287.338776 -286.010805 
L 279.746939 -286.010805 
L 272.155102 -286.010805 
L 264.563265 -286.010805 
L 256.971429 -286.010805 
L 249.379592 -286.010805 
L 241.787755 -286.010805 
L 234.195918 -286.010805 
L 226.604082 -286.010805 
L 219.012245 -286.010805 
L 211.420408 -286.010805 
L 203.828571 -286.010805 
L 196.236735 -286.010805 
L 188.644898 -286.010805 
L 181.053061 -286.010805 
L 173.461224 -286.010805 
L 165.869388 -286.010805 
L 158.277551 -286.010805 
L 150.685714 -286.010805 
L 143.093878 -286.010805 
L 135.502041 -286.010805 
L 127.910204 -286.010805 
L 120.318367 -286.010805 
L 112.726531 -286.010805 
L 105.134694 -286.010805 
L 97.542857 -286.010805 
L 89.95102 -286.010805 
L 82.359184 -286.010805 
L 74.767347 -286.010805 
L 67.17551 -286.010805 
L 59.583673 -286.010805 
L 51.991837 -286.010805 
L 44.4 -286.010805 
z
" style="stroke: #808080; stroke-opacity: 0.3"/>
    </defs>
    <g clip-path="url(#p936ab93897)">
     <use xlink:href="#m3d707e6027" x="0" y="507.6325" style="fill: #808080; fill-opacity: 0.3; stroke: #808080; stroke-opacity: 0.3"/>
    </g>
   </g>
   <g id="matplotlib.axis_1">
    <g id="xtick_1">
     <g id="line2d_1">
      <defs>
       <path id="m0f46f3e0d3" d="M 0 0 
L 0 3.5 
" style="stroke: #000000; stroke-width: 1.5"/>
      </defs>
      <g>
       <use xlink:href="#m0f46f3e0d3" x="44.4" y="450.72" style="stroke: #000000; stroke-width: 1.5"/>
      </g>
     </g>
     <g id="text_1">
      <!-- 0 -->
      <g transform="translate(38.0375 472.916875) scale(0.2 -0.2)">
       <defs>
        <path id="DejaVuSans-30" d="M 2034 4250 
Q 1547 4250 1301 3770 
Q 1056 3291 1056 2328 
Q 1056 1369 1301 889 
Q 1547 409 2034 409 
Q 2525 409 2770 889 
Q 3016 1369 3016 2328 
Q 3016 3291 2770 3770 
Q 2525 4250 2034 4250 
z
M 2034 4750 
Q 2819 4750 3233 4129 
Q 3647 3509 3647 2328 
Q 3647 1150 3233 529 
Q 2819 -91 2034 -91 
Q 1250 -91 836 529 
Q 422 1150 422 2328 
Q 422 3509 836 4129 
Q 1250 4750 2034 4750 
z
" transform="scale(0.015625)"/>
       </defs>
       <use xlink:href="#DejaVuSans-30"/>
      </g>
     </g>
    </g>
    <g id="xtick_2">
     <g id="line2d_2">
      <g>
       <use xlink:href="#m0f46f3e0d3" x="230.4" y="450.72" style="stroke: #000000; stroke-width: 1.5"/>
      </g>
     </g>
     <g id="text_2">
      <!-- 500 -->
      <g transform="translate(211.3125 472.916875) scale(0.2 -0.2)">
       <defs>
        <path id="DejaVuSans-35" d="M 691 4666 
L 3169 4666 
L 3169 4134 
L 1269 4134 
L 1269 2991 
Q 1406 3038 1543 3061 
Q 1681 3084 1819 3084 
Q 2600 3084 3056 2656 
Q 3513 2228 3513 1497 
Q 3513 744 3044 326 
Q 2575 -91 1722 -91 
Q 1428 -91 1123 -41 
Q 819 9 494 109 
L 494 744 
Q 775 591 1075 516 
Q 1375 441 1709 441 
Q 2250 441 2565 725 
Q 2881 1009 2881 1497 
Q 2881 1984 2565 2268 
Q 2250 2553 1709 2553 
Q 1456 2553 1204 2497 
Q 953 2441 691 2322 
L 691 4666 
z
" transform="scale(0.015625)"/>
       </defs>
       <use xlink:href="#DejaVuSans-35"/>
       <use xlink:href="#DejaVuSans-30" x="63.623047"/>
       <use xlink:href="#DejaVuSans-30" x="127.246094"/>
      </g>
     </g>
    </g>
    <g id="xtick_3">
     <g id="line2d_3">
      <g>
       <use xlink:href="#m0f46f3e0d3" x="416.4" y="450.72" style="stroke: #000000; stroke-width: 1.5"/>
      </g>
     </g>
     <g id="text_3">
      <!-- 1000 -->
      <g transform="translate(390.95 472.916875) scale(0.2 -0.2)">
       <defs>
        <path id="DejaVuSans-31" d="M 794 531 
L 1825 531 
L 1825 4091 
L 703 3866 
L 703 4441 
L 1819 4666 
L 2450 4666 
L 2450 531 
L 3481 531 
L 3481 0 
L 794 0 
L 794 531 
z
" transform="scale(0.015625)"/>
       </defs>
       <use xlink:href="#DejaVuSans-31"/>
       <use xlink:href="#DejaVuSans-30" x="63.623047"/>
       <use xlink:href="#DejaVuSans-30" x="127.246094"/>
       <use xlink:href="#DejaVuSans-30" x="190.869141"/>
      </g>
     </g>
    </g>
    <g id="text_4">
     <!-- posterior rank  -->
     <g transform="translate(146.285937 496.273125) scale(0.2 -0.2)">
      <defs>
       <path id="DejaVuSans-Bold-70" d="M 1656 506 
L 1656 -1331 
L 538 -1331 
L 538 3500 
L 1656 3500 
L 1656 2988 
Q 1888 3294 2169 3439 
Q 2450 3584 2816 3584 
Q 3463 3584 3878 3070 
Q 4294 2556 4294 1747 
Q 4294 938 3878 423 
Q 3463 -91 2816 -91 
Q 2450 -91 2169 54 
Q 1888 200 1656 506 
z
M 2400 2772 
Q 2041 2772 1848 2508 
Q 1656 2244 1656 1747 
Q 1656 1250 1848 986 
Q 2041 722 2400 722 
Q 2759 722 2948 984 
Q 3138 1247 3138 1747 
Q 3138 2247 2948 2509 
Q 2759 2772 2400 2772 
z
" transform="scale(0.015625)"/>
       <path id="DejaVuSans-Bold-6f" d="M 2203 2784 
Q 1831 2784 1636 2517 
Q 1441 2250 1441 1747 
Q 1441 1244 1636 976 
Q 1831 709 2203 709 
Q 2569 709 2762 976 
Q 2956 1244 2956 1747 
Q 2956 2250 2762 2517 
Q 2569 2784 2203 2784 
z
M 2203 3584 
Q 3106 3584 3614 3096 
Q 4122 2609 4122 1747 
Q 4122 884 3614 396 
Q 3106 -91 2203 -91 
Q 1297 -91 786 396 
Q 275 884 275 1747 
Q 275 2609 786 3096 
Q 1297 3584 2203 3584 
z
" transform="scale(0.015625)"/>
       <path id="DejaVuSans-Bold-73" d="M 3272 3391 
L 3272 2541 
Q 2913 2691 2578 2766 
Q 2244 2841 1947 2841 
Q 1628 2841 1473 2761 
Q 1319 2681 1319 2516 
Q 1319 2381 1436 2309 
Q 1553 2238 1856 2203 
L 2053 2175 
Q 2913 2066 3209 1816 
Q 3506 1566 3506 1031 
Q 3506 472 3093 190 
Q 2681 -91 1863 -91 
Q 1516 -91 1145 -36 
Q 775 19 384 128 
L 384 978 
Q 719 816 1070 734 
Q 1422 653 1784 653 
Q 2113 653 2278 743 
Q 2444 834 2444 1013 
Q 2444 1163 2330 1236 
Q 2216 1309 1875 1350 
L 1678 1375 
Q 931 1469 631 1722 
Q 331 1975 331 2491 
Q 331 3047 712 3315 
Q 1094 3584 1881 3584 
Q 2191 3584 2531 3537 
Q 2872 3491 3272 3391 
z
" transform="scale(0.015625)"/>
       <path id="DejaVuSans-Bold-74" d="M 1759 4494 
L 1759 3500 
L 2913 3500 
L 2913 2700 
L 1759 2700 
L 1759 1216 
Q 1759 972 1856 886 
Q 1953 800 2241 800 
L 2816 800 
L 2816 0 
L 1856 0 
Q 1194 0 917 276 
Q 641 553 641 1216 
L 641 2700 
L 84 2700 
L 84 3500 
L 641 3500 
L 641 4494 
L 1759 4494 
z
" transform="scale(0.015625)"/>
       <path id="DejaVuSans-Bold-65" d="M 4031 1759 
L 4031 1441 
L 1416 1441 
Q 1456 1047 1700 850 
Q 1944 653 2381 653 
Q 2734 653 3104 758 
Q 3475 863 3866 1075 
L 3866 213 
Q 3469 63 3072 -14 
Q 2675 -91 2278 -91 
Q 1328 -91 801 392 
Q 275 875 275 1747 
Q 275 2603 792 3093 
Q 1309 3584 2216 3584 
Q 3041 3584 3536 3087 
Q 4031 2591 4031 1759 
z
M 2881 2131 
Q 2881 2450 2695 2645 
Q 2509 2841 2209 2841 
Q 1884 2841 1681 2658 
Q 1478 2475 1428 2131 
L 2881 2131 
z
" transform="scale(0.015625)"/>
       <path id="DejaVuSans-Bold-72" d="M 3138 2547 
Q 2991 2616 2845 2648 
Q 2700 2681 2553 2681 
Q 2122 2681 1889 2404 
Q 1656 2128 1656 1613 
L 1656 0 
L 538 0 
L 538 3500 
L 1656 3500 
L 1656 2925 
Q 1872 3269 2151 3426 
Q 2431 3584 2822 3584 
Q 2878 3584 2943 3579 
Q 3009 3575 3134 3559 
L 3138 2547 
z
" transform="scale(0.015625)"/>
       <path id="DejaVuSans-Bold-69" d="M 538 3500 
L 1656 3500 
L 1656 0 
L 538 0 
L 538 3500 
z
M 538 4863 
L 1656 4863 
L 1656 3950 
L 538 3950 
L 538 4863 
z
" transform="scale(0.015625)"/>
       <path id="DejaVuSans-Bold-20" transform="scale(0.015625)"/>
       <path id="DejaVuSans-Bold-61" d="M 2106 1575 
Q 1756 1575 1579 1456 
Q 1403 1338 1403 1106 
Q 1403 894 1545 773 
Q 1688 653 1941 653 
Q 2256 653 2472 879 
Q 2688 1106 2688 1447 
L 2688 1575 
L 2106 1575 
z
M 3816 1997 
L 3816 0 
L 2688 0 
L 2688 519 
Q 2463 200 2181 54 
Q 1900 -91 1497 -91 
Q 953 -91 614 226 
Q 275 544 275 1050 
Q 275 1666 698 1953 
Q 1122 2241 2028 2241 
L 2688 2241 
L 2688 2328 
Q 2688 2594 2478 2717 
Q 2269 2841 1825 2841 
Q 1466 2841 1156 2769 
Q 847 2697 581 2553 
L 581 3406 
Q 941 3494 1303 3539 
Q 1666 3584 2028 3584 
Q 2975 3584 3395 3211 
Q 3816 2838 3816 1997 
z
" transform="scale(0.015625)"/>
       <path id="DejaVuSans-Bold-6e" d="M 4056 2131 
L 4056 0 
L 2931 0 
L 2931 347 
L 2931 1631 
Q 2931 2084 2911 2256 
Q 2891 2428 2841 2509 
Q 2775 2619 2662 2680 
Q 2550 2741 2406 2741 
Q 2056 2741 1856 2470 
Q 1656 2200 1656 1722 
L 1656 0 
L 538 0 
L 538 3500 
L 1656 3500 
L 1656 2988 
Q 1909 3294 2193 3439 
Q 2478 3584 2822 3584 
Q 3428 3584 3742 3212 
Q 4056 2841 4056 2131 
z
" transform="scale(0.015625)"/>
       <path id="DejaVuSans-Bold-6b" d="M 538 4863 
L 1656 4863 
L 1656 2216 
L 2944 3500 
L 4244 3500 
L 2534 1894 
L 4378 0 
L 3022 0 
L 1656 1459 
L 1656 0 
L 538 0 
L 538 4863 
z
" transform="scale(0.015625)"/>
      </defs>
      <use xlink:href="#DejaVuSans-Bold-70"/>
      <use xlink:href="#DejaVuSans-Bold-6f" x="71.582031"/>
      <use xlink:href="#DejaVuSans-Bold-73" x="140.283203"/>
      <use xlink:href="#DejaVuSans-Bold-74" x="199.804688"/>
      <use xlink:href="#DejaVuSans-Bold-65" x="247.607422"/>
      <use xlink:href="#DejaVuSans-Bold-72" x="315.429688"/>
      <use xlink:href="#DejaVuSans-Bold-69" x="364.746094"/>
      <use xlink:href="#DejaVuSans-Bold-6f" x="399.023438"/>
      <use xlink:href="#DejaVuSans-Bold-72" x="467.724609"/>
      <use xlink:href="#DejaVuSans-Bold-20" x="517.041016"/>
      <use xlink:href="#DejaVuSans-Bold-72" x="551.855469"/>
      <use xlink:href="#DejaVuSans-Bold-61" x="601.171875"/>
      <use xlink:href="#DejaVuSans-Bold-6e" x="668.652344"/>
      <use xlink:href="#DejaVuSans-Bold-6b" x="739.84375"/>
      <use xlink:href="#DejaVuSans-Bold-20" x="806.347656"/>
     </g>
    </g>
   </g>
   <g id="matplotlib.axis_2"/>
   <g id="patch_53">
    <path d="M 7.2 450.72 
L 7.2 7.2 
" style="fill: none; stroke: #000000; stroke-width: 2; stroke-linejoin: miter; stroke-linecap: square"/>
   </g>
   <g id="patch_54">
    <path d="M 7.2 450.72 
L 453.6 450.72 
" style="fill: none; stroke: #000000; stroke-width: 2; stroke-linejoin: miter; stroke-linecap: square"/>
   </g>
   <g id="legend_1">
    <g id="patch_55">
     <path d="M 302.8625 40.396875 
L 318.8625 40.396875 
L 318.8625 26.396875 
L 302.8625 26.396875 
z
" style="fill: #b22222; opacity: 0.8"/>
    </g>
    <g id="text_5">
     <!-- rank set 1 -->
     <g transform="translate(334.8625 40.396875) scale(0.2 -0.2)">
      <defs>
       <path id="DejaVuSans-72" d="M 2631 2963 
Q 2534 3019 2420 3045 
Q 2306 3072 2169 3072 
Q 1681 3072 1420 2755 
Q 1159 2438 1159 1844 
L 1159 0 
L 581 0 
L 581 3500 
L 1159 3500 
L 1159 2956 
Q 1341 3275 1631 3429 
Q 1922 3584 2338 3584 
Q 2397 3584 2469 3576 
Q 2541 3569 2628 3553 
L 2631 2963 
z
" transform="scale(0.015625)"/>
       <path id="DejaVuSans-61" d="M 2194 1759 
Q 1497 1759 1228 1600 
Q 959 1441 959 1056 
Q 959 750 1161 570 
Q 1363 391 1709 391 
Q 2188 391 2477 730 
Q 2766 1069 2766 1631 
L 2766 1759 
L 2194 1759 
z
M 3341 1997 
L 3341 0 
L 2766 0 
L 2766 531 
Q 2569 213 2275 61 
Q 1981 -91 1556 -91 
Q 1019 -91 701 211 
Q 384 513 384 1019 
Q 384 1609 779 1909 
Q 1175 2209 1959 2209 
L 2766 2209 
L 2766 2266 
Q 2766 2663 2505 2880 
Q 2244 3097 1772 3097 
Q 1472 3097 1187 3025 
Q 903 2953 641 2809 
L 641 3341 
Q 956 3463 1253 3523 
Q 1550 3584 1831 3584 
Q 2591 3584 2966 3190 
Q 3341 2797 3341 1997 
z
" transform="scale(0.015625)"/>
       <path id="DejaVuSans-6e" d="M 3513 2113 
L 3513 0 
L 2938 0 
L 2938 2094 
Q 2938 2591 2744 2837 
Q 2550 3084 2163 3084 
Q 1697 3084 1428 2787 
Q 1159 2491 1159 1978 
L 1159 0 
L 581 0 
L 581 3500 
L 1159 3500 
L 1159 2956 
Q 1366 3272 1645 3428 
Q 1925 3584 2291 3584 
Q 2894 3584 3203 3211 
Q 3513 2838 3513 2113 
z
" transform="scale(0.015625)"/>
       <path id="DejaVuSans-6b" d="M 581 4863 
L 1159 4863 
L 1159 1991 
L 2875 3500 
L 3609 3500 
L 1753 1863 
L 3688 0 
L 2938 0 
L 1159 1709 
L 1159 0 
L 581 0 
L 581 4863 
z
" transform="scale(0.015625)"/>
       <path id="DejaVuSans-20" transform="scale(0.015625)"/>
       <path id="DejaVuSans-73" d="M 2834 3397 
L 2834 2853 
Q 2591 2978 2328 3040 
Q 2066 3103 1784 3103 
Q 1356 3103 1142 2972 
Q 928 2841 928 2578 
Q 928 2378 1081 2264 
Q 1234 2150 1697 2047 
L 1894 2003 
Q 2506 1872 2764 1633 
Q 3022 1394 3022 966 
Q 3022 478 2636 193 
Q 2250 -91 1575 -91 
Q 1294 -91 989 -36 
Q 684 19 347 128 
L 347 722 
Q 666 556 975 473 
Q 1284 391 1588 391 
Q 1994 391 2212 530 
Q 2431 669 2431 922 
Q 2431 1156 2273 1281 
Q 2116 1406 1581 1522 
L 1381 1569 
Q 847 1681 609 1914 
Q 372 2147 372 2553 
Q 372 3047 722 3315 
Q 1072 3584 1716 3584 
Q 2034 3584 2315 3537 
Q 2597 3491 2834 3397 
z
" transform="scale(0.015625)"/>
       <path id="DejaVuSans-65" d="M 3597 1894 
L 3597 1613 
L 953 1613 
Q 991 1019 1311 708 
Q 1631 397 2203 397 
Q 2534 397 2845 478 
Q 3156 559 3463 722 
L 3463 178 
Q 3153 47 2828 -22 
Q 2503 -91 2169 -91 
Q 1331 -91 842 396 
Q 353 884 353 1716 
Q 353 2575 817 3079 
Q 1281 3584 2069 3584 
Q 2775 3584 3186 3129 
Q 3597 2675 3597 1894 
z
M 3022 2063 
Q 3016 2534 2758 2815 
Q 2500 3097 2075 3097 
Q 1594 3097 1305 2825 
Q 1016 2553 972 2059 
L 3022 2063 
z
" transform="scale(0.015625)"/>
       <path id="DejaVuSans-74" d="M 1172 4494 
L 1172 3500 
L 2356 3500 
L 2356 3053 
L 1172 3053 
L 1172 1153 
Q 1172 725 1289 603 
Q 1406 481 1766 481 
L 2356 481 
L 2356 0 
L 1766 0 
Q 1100 0 847 248 
Q 594 497 594 1153 
L 594 3053 
L 172 3053 
L 172 3500 
L 594 3500 
L 594 4494 
L 1172 4494 
z
" transform="scale(0.015625)"/>
      </defs>
      <use xlink:href="#DejaVuSans-72"/>
      <use xlink:href="#DejaVuSans-61" x="41.113281"/>
      <use xlink:href="#DejaVuSans-6e" x="102.392578"/>
      <use xlink:href="#DejaVuSans-6b" x="165.771484"/>
      <use xlink:href="#DejaVuSans-20" x="223.681641"/>
      <use xlink:href="#DejaVuSans-73" x="255.46875"/>
      <use xlink:href="#DejaVuSans-65" x="307.568359"/>
      <use xlink:href="#DejaVuSans-74" x="369.091797"/>
      <use xlink:href="#DejaVuSans-20" x="408.300781"/>
      <use xlink:href="#DejaVuSans-31" x="440.087891"/>
     </g>
    </g>
   </g>
  </g>
 </g>
 <defs>
  <clipPath id="p936ab93897">
   <rect x="7.2" y="7.2" width="446.4" height="443.52"/>
  </clipPath>
 </defs>
</svg>
