<?xml version="1.0" encoding="utf-8" standalone="no"?>
<!DOCTYPE svg PUBLIC "-//W3C//DTD SVG 1.1//EN"
  "http://www.w3.org/Graphics/SVG/1.1/DTD/svg11.dtd">
<svg xmlns:xlink="http://www.w3.org/1999/xlink" width="295.757691pt" height="544.35625pt" viewBox="0 0 295.757691 544.35625" xmlns="http://www.w3.org/2000/svg" version="1.1">
 <metadata>
  <rdf:RDF xmlns:dc="http://purl.org/dc/elements/1.1/" xmlns:cc="http://creativecommons.org/ns#" xmlns:rdf="http://www.w3.org/1999/02/22-rdf-syntax-ns#">
   <cc:Work>
    <dc:type rdf:resource="http://purl.org/dc/dcmitype/StillImage"/>
    <dc:date>2024-07-06T15:09:47.696537</dc:date>
    <dc:format>image/svg+xml</dc:format>
    <dc:creator>
     <cc:Agent>
      <dc:title>Matplotlib v3.8.0, https://matplotlib.org/</dc:title>
     </cc:Agent>
    </dc:creator>
   </cc:Work>
  </rdf:RDF>
 </metadata>
 <defs>
  <style type="text/css">*{stroke-linejoin: round; stroke-linecap: butt}</style>
 </defs>
 <g id="figure_1">
  <g id="patch_1">
   <path d="M 0 544.35625 
L 295.757691 544.35625 
L 295.757691 0 
L 0 0 
z
" style="fill: #ffffff"/>
  </g>
  <g id="axes_1">
   <g id="patch_2">
    <path d="M 18.557691 466.2 
L 288.557691 466.2 
L 288.557691 7.2 
L 18.557691 7.2 
z
" style="fill: #ffffff"/>
   </g>
   <g id="matplotlib.axis_1">
    <g id="xtick_1">
     <g id="line2d_1">
      <defs>
       <path id="mbfad05010a" d="M 0 0 
L 0 3.5 
" style="stroke: #000000; stroke-width: 1.5"/>
      </defs>
      <g>
       <use xlink:href="#mbfad05010a" x="26.2875" y="476.2" style="stroke: #000000; stroke-width: 1.5"/>
      </g>
     </g>
     <g id="text_1">
      <!-- 100 -->
      <g transform="translate(7.2 498.396875) scale(0.2 -0.2)">
       <defs>
        <path id="DejaVuSans-31" d="M 794 531 
L 1825 531 
L 1825 4091 
L 703 3866 
L 703 4441 
L 1819 4666 
L 2450 4666 
L 2450 531 
L 3481 531 
L 3481 0 
L 794 0 
L 794 531 
z
" transform="scale(0.015625)"/>
        <path id="DejaVuSans-30" d="M 2034 4250 
Q 1547 4250 1301 3770 
Q 1056 3291 1056 2328 
Q 1056 1369 1301 889 
Q 1547 409 2034 409 
Q 2525 409 2770 889 
Q 3016 1369 3016 2328 
Q 3016 3291 2770 3770 
Q 2525 4250 2034 4250 
z
M 2034 4750 
Q 2819 4750 3233 4129 
Q 3647 3509 3647 2328 
Q 3647 1150 3233 529 
Q 2819 -91 2034 -91 
Q 1250 -91 836 529 
Q 422 1150 422 2328 
Q 422 3509 836 4129 
Q 1250 4750 2034 4750 
z
" transform="scale(0.015625)"/>
       </defs>
       <use xlink:href="#DejaVuSans-31"/>
       <use xlink:href="#DejaVuSans-30" x="63.623047"/>
       <use xlink:href="#DejaVuSans-30" x="127.246094"/>
      </g>
     </g>
    </g>
    <g id="xtick_2">
     <g id="line2d_2">
      <g>
       <use xlink:href="#mbfad05010a" x="120.784234" y="476.2" style="stroke: #000000; stroke-width: 1.5"/>
      </g>
     </g>
     <g id="text_2">
      <!-- 200 -->
      <g transform="translate(101.696734 498.396875) scale(0.2 -0.2)">
       <defs>
        <path id="DejaVuSans-32" d="M 1228 531 
L 3431 531 
L 3431 0 
L 469 0 
L 469 531 
Q 828 903 1448 1529 
Q 2069 2156 2228 2338 
Q 2531 2678 2651 2914 
Q 2772 3150 2772 3378 
Q 2772 3750 2511 3984 
Q 2250 4219 1831 4219 
Q 1534 4219 1204 4116 
Q 875 4013 500 3803 
L 500 4441 
Q 881 4594 1212 4672 
Q 1544 4750 1819 4750 
Q 2544 4750 2975 4387 
Q 3406 4025 3406 3419 
Q 3406 3131 3298 2873 
Q 3191 2616 2906 2266 
Q 2828 2175 2409 1742 
Q 1991 1309 1228 531 
z
" transform="scale(0.015625)"/>
       </defs>
       <use xlink:href="#DejaVuSans-32"/>
       <use xlink:href="#DejaVuSans-30" x="63.623047"/>
       <use xlink:href="#DejaVuSans-30" x="127.246094"/>
      </g>
     </g>
    </g>
    <g id="xtick_3">
     <g id="line2d_3">
      <g>
       <use xlink:href="#mbfad05010a" x="215.280969" y="476.2" style="stroke: #000000; stroke-width: 1.5"/>
      </g>
     </g>
     <g id="text_3">
      <!-- 300 -->
      <g transform="translate(196.193469 498.396875) scale(0.2 -0.2)">
       <defs>
        <path id="DejaVuSans-33" d="M 2597 2516 
Q 3050 2419 3304 2112 
Q 3559 1806 3559 1356 
Q 3559 666 3084 287 
Q 2609 -91 1734 -91 
Q 1441 -91 1130 -33 
Q 819 25 488 141 
L 488 750 
Q 750 597 1062 519 
Q 1375 441 1716 441 
Q 2309 441 2620 675 
Q 2931 909 2931 1356 
Q 2931 1769 2642 2001 
Q 2353 2234 1838 2234 
L 1294 2234 
L 1294 2753 
L 1863 2753 
Q 2328 2753 2575 2939 
Q 2822 3125 2822 3475 
Q 2822 3834 2567 4026 
Q 2313 4219 1838 4219 
Q 1578 4219 1281 4162 
Q 984 4106 628 3988 
L 628 4550 
Q 988 4650 1302 4700 
Q 1616 4750 1894 4750 
Q 2613 4750 3031 4423 
Q 3450 4097 3450 3541 
Q 3450 3153 3228 2886 
Q 3006 2619 2597 2516 
z
" transform="scale(0.015625)"/>
       </defs>
       <use xlink:href="#DejaVuSans-33"/>
       <use xlink:href="#DejaVuSans-30" x="63.623047"/>
       <use xlink:href="#DejaVuSans-30" x="127.246094"/>
      </g>
     </g>
    </g>
    <g id="text_4">
     <!-- Apparent Resistivity [$\Omega m$] -->
     <g transform="translate(6.757691 532.75625) scale(0.2 -0.2)">
      <defs>
       <path id="DejaVuSans-Bold-41" d="M 3419 850 
L 1538 850 
L 1241 0 
L 31 0 
L 1759 4666 
L 3194 4666 
L 4922 0 
L 3713 0 
L 3419 850 
z
M 1838 1716 
L 3116 1716 
L 2478 3572 
L 1838 1716 
z
" transform="scale(0.015625)"/>
       <path id="DejaVuSans-Bold-70" d="M 1656 506 
L 1656 -1331 
L 538 -1331 
L 538 3500 
L 1656 3500 
L 1656 2988 
Q 1888 3294 2169 3439 
Q 2450 3584 2816 3584 
Q 3463 3584 3878 3070 
Q 4294 2556 4294 1747 
Q 4294 938 3878 423 
Q 3463 -91 2816 -91 
Q 2450 -91 2169 54 
Q 1888 200 1656 506 
z
M 2400 2772 
Q 2041 2772 1848 2508 
Q 1656 2244 1656 1747 
Q 1656 1250 1848 986 
Q 2041 722 2400 722 
Q 2759 722 2948 984 
Q 3138 1247 3138 1747 
Q 3138 2247 2948 2509 
Q 2759 2772 2400 2772 
z
" transform="scale(0.015625)"/>
       <path id="DejaVuSans-Bold-61" d="M 2106 1575 
Q 1756 1575 1579 1456 
Q 1403 1338 1403 1106 
Q 1403 894 1545 773 
Q 1688 653 1941 653 
Q 2256 653 2472 879 
Q 2688 1106 2688 1447 
L 2688 1575 
L 2106 1575 
z
M 3816 1997 
L 3816 0 
L 2688 0 
L 2688 519 
Q 2463 200 2181 54 
Q 1900 -91 1497 -91 
Q 953 -91 614 226 
Q 275 544 275 1050 
Q 275 1666 698 1953 
Q 1122 2241 2028 2241 
L 2688 2241 
L 2688 2328 
Q 2688 2594 2478 2717 
Q 2269 2841 1825 2841 
Q 1466 2841 1156 2769 
Q 847 2697 581 2553 
L 581 3406 
Q 941 3494 1303 3539 
Q 1666 3584 2028 3584 
Q 2975 3584 3395 3211 
Q 3816 2838 3816 1997 
z
" transform="scale(0.015625)"/>
       <path id="DejaVuSans-Bold-72" d="M 3138 2547 
Q 2991 2616 2845 2648 
Q 2700 2681 2553 2681 
Q 2122 2681 1889 2404 
Q 1656 2128 1656 1613 
L 1656 0 
L 538 0 
L 538 3500 
L 1656 3500 
L 1656 2925 
Q 1872 3269 2151 3426 
Q 2431 3584 2822 3584 
Q 2878 3584 2943 3579 
Q 3009 3575 3134 3559 
L 3138 2547 
z
" transform="scale(0.015625)"/>
       <path id="DejaVuSans-Bold-65" d="M 4031 1759 
L 4031 1441 
L 1416 1441 
Q 1456 1047 1700 850 
Q 1944 653 2381 653 
Q 2734 653 3104 758 
Q 3475 863 3866 1075 
L 3866 213 
Q 3469 63 3072 -14 
Q 2675 -91 2278 -91 
Q 1328 -91 801 392 
Q 275 875 275 1747 
Q 275 2603 792 3093 
Q 1309 3584 2216 3584 
Q 3041 3584 3536 3087 
Q 4031 2591 4031 1759 
z
M 2881 2131 
Q 2881 2450 2695 2645 
Q 2509 2841 2209 2841 
Q 1884 2841 1681 2658 
Q 1478 2475 1428 2131 
L 2881 2131 
z
" transform="scale(0.015625)"/>
       <path id="DejaVuSans-Bold-6e" d="M 4056 2131 
L 4056 0 
L 2931 0 
L 2931 347 
L 2931 1631 
Q 2931 2084 2911 2256 
Q 2891 2428 2841 2509 
Q 2775 2619 2662 2680 
Q 2550 2741 2406 2741 
Q 2056 2741 1856 2470 
Q 1656 2200 1656 1722 
L 1656 0 
L 538 0 
L 538 3500 
L 1656 3500 
L 1656 2988 
Q 1909 3294 2193 3439 
Q 2478 3584 2822 3584 
Q 3428 3584 3742 3212 
Q 4056 2841 4056 2131 
z
" transform="scale(0.015625)"/>
       <path id="DejaVuSans-Bold-74" d="M 1759 4494 
L 1759 3500 
L 2913 3500 
L 2913 2700 
L 1759 2700 
L 1759 1216 
Q 1759 972 1856 886 
Q 1953 800 2241 800 
L 2816 800 
L 2816 0 
L 1856 0 
Q 1194 0 917 276 
Q 641 553 641 1216 
L 641 2700 
L 84 2700 
L 84 3500 
L 641 3500 
L 641 4494 
L 1759 4494 
z
" transform="scale(0.015625)"/>
       <path id="DejaVuSans-Bold-20" transform="scale(0.015625)"/>
       <path id="DejaVuSans-Bold-52" d="M 2297 2597 
Q 2675 2597 2839 2737 
Q 3003 2878 3003 3200 
Q 3003 3519 2839 3656 
Q 2675 3794 2297 3794 
L 1791 3794 
L 1791 2597 
L 2297 2597 
z
M 1791 1766 
L 1791 0 
L 588 0 
L 588 4666 
L 2425 4666 
Q 3347 4666 3776 4356 
Q 4206 4047 4206 3378 
Q 4206 2916 3982 2619 
Q 3759 2322 3309 2181 
Q 3556 2125 3751 1926 
Q 3947 1728 4147 1325 
L 4800 0 
L 3519 0 
L 2950 1159 
Q 2778 1509 2601 1637 
Q 2425 1766 2131 1766 
L 1791 1766 
z
" transform="scale(0.015625)"/>
       <path id="DejaVuSans-Bold-73" d="M 3272 3391 
L 3272 2541 
Q 2913 2691 2578 2766 
Q 2244 2841 1947 2841 
Q 1628 2841 1473 2761 
Q 1319 2681 1319 2516 
Q 1319 2381 1436 2309 
Q 1553 2238 1856 2203 
L 2053 2175 
Q 2913 2066 3209 1816 
Q 3506 1566 3506 1031 
Q 3506 472 3093 190 
Q 2681 -91 1863 -91 
Q 1516 -91 1145 -36 
Q 775 19 384 128 
L 384 978 
Q 719 816 1070 734 
Q 1422 653 1784 653 
Q 2113 653 2278 743 
Q 2444 834 2444 1013 
Q 2444 1163 2330 1236 
Q 2216 1309 1875 1350 
L 1678 1375 
Q 931 1469 631 1722 
Q 331 1975 331 2491 
Q 331 3047 712 3315 
Q 1094 3584 1881 3584 
Q 2191 3584 2531 3537 
Q 2872 3491 3272 3391 
z
" transform="scale(0.015625)"/>
       <path id="DejaVuSans-Bold-69" d="M 538 3500 
L 1656 3500 
L 1656 0 
L 538 0 
L 538 3500 
z
M 538 4863 
L 1656 4863 
L 1656 3950 
L 538 3950 
L 538 4863 
z
" transform="scale(0.015625)"/>
       <path id="DejaVuSans-Bold-76" d="M 97 3500 
L 1216 3500 
L 2088 1081 
L 2956 3500 
L 4078 3500 
L 2700 0 
L 1472 0 
L 97 3500 
z
" transform="scale(0.015625)"/>
       <path id="DejaVuSans-Bold-79" d="M 78 3500 
L 1197 3500 
L 2138 1125 
L 2938 3500 
L 4056 3500 
L 2584 -331 
Q 2363 -916 2067 -1148 
Q 1772 -1381 1288 -1381 
L 641 -1381 
L 641 -647 
L 991 -647 
Q 1275 -647 1404 -556 
Q 1534 -466 1606 -231 
L 1638 -134 
L 78 3500 
z
" transform="scale(0.015625)"/>
       <path id="DejaVuSans-Bold-5b" d="M 550 4863 
L 2491 4863 
L 2491 4159 
L 1613 4159 
L 1613 -141 
L 2491 -141 
L 2491 -844 
L 550 -844 
L 550 4863 
z
" transform="scale(0.015625)"/>
       <path id="DejaVuSans-Bold-3a9" d="M 2719 4750 
Q 3841 4750 4480 4106 
Q 5119 3463 5119 2494 
Q 5119 1406 4306 909 
L 5266 909 
L 5266 0 
L 3125 0 
L 3125 975 
Q 3244 1041 3334 1131 
Q 3875 1678 3875 2466 
Q 3875 3066 3572 3472 
Q 3269 3878 2719 3878 
Q 2169 3878 1866 3472 
Q 1563 3066 1563 2466 
Q 1563 1678 2103 1131 
Q 2194 1041 2313 975 
L 2313 0 
L 172 0 
L 172 909 
L 1131 909 
Q 319 1406 319 2494 
Q 319 3463 958 4106 
Q 1597 4750 2719 4750 
z
" transform="scale(0.015625)"/>
       <path id="DejaVuSans-Bold-6d" d="M 3781 2919 
Q 3994 3244 4286 3414 
Q 4578 3584 4928 3584 
Q 5531 3584 5847 3212 
Q 6163 2841 6163 2131 
L 6163 0 
L 5038 0 
L 5038 1825 
Q 5041 1866 5042 1909 
Q 5044 1953 5044 2034 
Q 5044 2406 4934 2573 
Q 4825 2741 4581 2741 
Q 4263 2741 4089 2478 
Q 3916 2216 3909 1719 
L 3909 0 
L 2784 0 
L 2784 1825 
Q 2784 2406 2684 2573 
Q 2584 2741 2328 2741 
Q 2006 2741 1831 2477 
Q 1656 2213 1656 1722 
L 1656 0 
L 531 0 
L 531 3500 
L 1656 3500 
L 1656 2988 
Q 1863 3284 2130 3434 
Q 2397 3584 2719 3584 
Q 3081 3584 3359 3409 
Q 3638 3234 3781 2919 
z
" transform="scale(0.015625)"/>
       <path id="DejaVuSans-Bold-5d" d="M 2375 -844 
L 434 -844 
L 434 -141 
L 1313 -141 
L 1313 4159 
L 434 4159 
L 434 4863 
L 2375 4863 
L 2375 -844 
z
" transform="scale(0.015625)"/>
      </defs>
      <use xlink:href="#DejaVuSans-Bold-41" transform="translate(0 0.015625)"/>
      <use xlink:href="#DejaVuSans-Bold-70" transform="translate(77.392578 0.015625)"/>
      <use xlink:href="#DejaVuSans-Bold-70" transform="translate(148.974609 0.015625)"/>
      <use xlink:href="#DejaVuSans-Bold-61" transform="translate(220.556641 0.015625)"/>
      <use xlink:href="#DejaVuSans-Bold-72" transform="translate(288.037109 0.015625)"/>
      <use xlink:href="#DejaVuSans-Bold-65" transform="translate(337.353516 0.015625)"/>
      <use xlink:href="#DejaVuSans-Bold-6e" transform="translate(405.175781 0.015625)"/>
      <use xlink:href="#DejaVuSans-Bold-74" transform="translate(476.367188 0.015625)"/>
      <use xlink:href="#DejaVuSans-Bold-20" transform="translate(524.169922 0.015625)"/>
      <use xlink:href="#DejaVuSans-Bold-52" transform="translate(558.984375 0.015625)"/>
      <use xlink:href="#DejaVuSans-Bold-65" transform="translate(635.986328 0.015625)"/>
      <use xlink:href="#DejaVuSans-Bold-73" transform="translate(703.808594 0.015625)"/>
      <use xlink:href="#DejaVuSans-Bold-69" transform="translate(763.330078 0.015625)"/>
      <use xlink:href="#DejaVuSans-Bold-73" transform="translate(797.607422 0.015625)"/>
      <use xlink:href="#DejaVuSans-Bold-74" transform="translate(857.128906 0.015625)"/>
      <use xlink:href="#DejaVuSans-Bold-69" transform="translate(904.931641 0.015625)"/>
      <use xlink:href="#DejaVuSans-Bold-76" transform="translate(939.208984 0.015625)"/>
      <use xlink:href="#DejaVuSans-Bold-69" transform="translate(1004.394531 0.015625)"/>
      <use xlink:href="#DejaVuSans-Bold-74" transform="translate(1038.671875 0.015625)"/>
      <use xlink:href="#DejaVuSans-Bold-79" transform="translate(1086.474609 0.015625)"/>
      <use xlink:href="#DejaVuSans-Bold-20" transform="translate(1151.660156 0.015625)"/>
      <use xlink:href="#DejaVuSans-Bold-5b" transform="translate(1186.474609 0.015625)"/>
      <use xlink:href="#DejaVuSans-Bold-3a9" transform="translate(1232.177734 0.015625)"/>
      <use xlink:href="#DejaVuSans-Bold-6d" transform="translate(1317.1875 0.015625)"/>
      <use xlink:href="#DejaVuSans-Bold-5d" transform="translate(1421.386719 0.015625)"/>
     </g>
    </g>
   </g>
   <g id="line2d_4">
    <path d="M 261.921811 28.063636 
L 268.040345 47.030579 
L 272.390308 65.997521 
L 275.098596 84.964463 
L 276.284964 103.931405 
L 275.913097 122.898347 
L 273.733211 141.865289 
L 269.264311 160.832231 
L 261.822153 179.799174 
L 250.632939 198.766116 
L 235.071331 217.733058 
L 215.002068 236.7 
L 191.089526 255.666942 
L 164.855138 274.633884 
L 138.346166 293.600826 
L 113.54 312.567769 
L 91.822668 331.534711 
L 73.816071 350.501653 
L 59.541159 369.468595 
L 48.683926 388.435537 
L 40.769562 407.402479 
L 35.237154 426.369421 
L 31.501014 445.336364 
" clip-path="url(#pb4b4aa79fd)" style="fill: none; stroke: #2f4f4f; stroke-width: 3; stroke-linecap: square"/>
   </g>
   <g id="line2d_5">
    <path d="M 266.727767 28.063636 
L 267.106101 47.030579 
L 268.540207 65.997521 
L 270.738538 84.964463 
L 273.114942 103.931405 
L 274.814372 122.898347 
L 274.787397 141.865289 
L 271.899968 160.832231 
L 265.064635 179.799174 
L 253.424639 198.766116 
L 236.619118 217.733058 
L 215.059173 236.7 
L 190.028969 255.666942 
L 163.446082 274.633884 
L 137.329428 293.600826 
L 113.263643 312.567769 
L 92.163005 331.534711 
L 74.387974 350.501653 
L 59.99454 369.468595 
L 48.869368 388.435537 
L 40.717905 407.402479 
L 35.051022 426.369421 
L 31.269597 445.336364 
" clip-path="url(#pb4b4aa79fd)" style="fill: none; stroke: #2f4f4f; stroke-opacity: 0.8; stroke-width: 3; stroke-linecap: square"/>
   </g>
   <g id="line2d_6">
    <path d="M 268.143022 28.063636 
L 266.490978 47.030579 
L 267.190508 65.997521 
L 269.626344 84.964463 
L 272.79239 103.931405 
L 275.407235 122.898347 
L 276.034487 141.865289 
L 273.267936 160.832231 
L 265.969496 179.799174 
L 253.50719 198.766116 
L 235.92693 217.733058 
L 213.997305 236.7 
L 189.092275 255.666942 
L 162.92616 274.633884 
L 137.216308 293.600826 
L 113.385865 312.567769 
L 92.396736 331.534711 
L 74.729315 350.501653 
L 60.459314 369.468595 
L 49.370027 388.435537 
L 41.062954 407.402479 
L 35.050984 426.369421 
L 30.830418 445.336364 
" clip-path="url(#pb4b4aa79fd)" style="fill: none; stroke: #2f4f4f; stroke-opacity: 0.6; stroke-width: 3; stroke-linecap: square"/>
   </g>
   <g id="line2d_7">
    <path d="M 265.844712 28.063636 
L 267.414607 47.030579 
L 269.389584 65.997521 
L 271.596332 84.964463 
L 273.63316 103.931405 
L 274.835091 122.898347 
L 274.303904 141.865289 
L 271.004268 160.832231 
L 263.920363 179.799174 
L 252.274027 198.766116 
L 235.782532 217.733058 
L 214.863417 236.7 
L 190.644185 255.666942 
L 164.715164 274.633884 
L 138.747529 293.600826 
L 114.19838 312.567769 
L 92.211313 331.534711 
L 73.614295 350.501653 
L 58.865268 369.468595 
L 47.953211 388.435537 
L 40.400586 407.402479 
L 35.44158 426.369421 
L 32.278398 445.336364 
" clip-path="url(#pb4b4aa79fd)" style="fill: none; stroke: #e40000; stroke-opacity: 0.8; stroke-width: 3; stroke-linecap: square"/>
    <defs>
     <path id="m13c30265a5" d="M -4 4 
L 4 -4 
M -4 -4 
L 4 4 
" style="stroke: #e40000; stroke-opacity: 0.8"/>
    </defs>
    <g clip-path="url(#pb4b4aa79fd)">
     <use xlink:href="#m13c30265a5" x="265.844712" y="28.063636" style="fill: #e40000; fill-opacity: 0.8; stroke: #e40000; stroke-opacity: 0.8"/>
     <use xlink:href="#m13c30265a5" x="267.414607" y="47.030579" style="fill: #e40000; fill-opacity: 0.8; stroke: #e40000; stroke-opacity: 0.8"/>
     <use xlink:href="#m13c30265a5" x="269.389584" y="65.997521" style="fill: #e40000; fill-opacity: 0.8; stroke: #e40000; stroke-opacity: 0.8"/>
     <use xlink:href="#m13c30265a5" x="271.596332" y="84.964463" style="fill: #e40000; fill-opacity: 0.8; stroke: #e40000; stroke-opacity: 0.8"/>
     <use xlink:href="#m13c30265a5" x="273.63316" y="103.931405" style="fill: #e40000; fill-opacity: 0.8; stroke: #e40000; stroke-opacity: 0.8"/>
     <use xlink:href="#m13c30265a5" x="274.835091" y="122.898347" style="fill: #e40000; fill-opacity: 0.8; stroke: #e40000; stroke-opacity: 0.8"/>
     <use xlink:href="#m13c30265a5" x="274.303904" y="141.865289" style="fill: #e40000; fill-opacity: 0.8; stroke: #e40000; stroke-opacity: 0.8"/>
     <use xlink:href="#m13c30265a5" x="271.004268" y="160.832231" style="fill: #e40000; fill-opacity: 0.8; stroke: #e40000; stroke-opacity: 0.8"/>
     <use xlink:href="#m13c30265a5" x="263.920363" y="179.799174" style="fill: #e40000; fill-opacity: 0.8; stroke: #e40000; stroke-opacity: 0.8"/>
     <use xlink:href="#m13c30265a5" x="252.274027" y="198.766116" style="fill: #e40000; fill-opacity: 0.8; stroke: #e40000; stroke-opacity: 0.8"/>
     <use xlink:href="#m13c30265a5" x="235.782532" y="217.733058" style="fill: #e40000; fill-opacity: 0.8; stroke: #e40000; stroke-opacity: 0.8"/>
     <use xlink:href="#m13c30265a5" x="214.863417" y="236.7" style="fill: #e40000; fill-opacity: 0.8; stroke: #e40000; stroke-opacity: 0.8"/>
     <use xlink:href="#m13c30265a5" x="190.644185" y="255.666942" style="fill: #e40000; fill-opacity: 0.8; stroke: #e40000; stroke-opacity: 0.8"/>
     <use xlink:href="#m13c30265a5" x="164.715164" y="274.633884" style="fill: #e40000; fill-opacity: 0.8; stroke: #e40000; stroke-opacity: 0.8"/>
     <use xlink:href="#m13c30265a5" x="138.747529" y="293.600826" style="fill: #e40000; fill-opacity: 0.8; stroke: #e40000; stroke-opacity: 0.8"/>
     <use xlink:href="#m13c30265a5" x="114.19838" y="312.567769" style="fill: #e40000; fill-opacity: 0.8; stroke: #e40000; stroke-opacity: 0.8"/>
     <use xlink:href="#m13c30265a5" x="92.211313" y="331.534711" style="fill: #e40000; fill-opacity: 0.8; stroke: #e40000; stroke-opacity: 0.8"/>
     <use xlink:href="#m13c30265a5" x="73.614295" y="350.501653" style="fill: #e40000; fill-opacity: 0.8; stroke: #e40000; stroke-opacity: 0.8"/>
     <use xlink:href="#m13c30265a5" x="58.865268" y="369.468595" style="fill: #e40000; fill-opacity: 0.8; stroke: #e40000; stroke-opacity: 0.8"/>
     <use xlink:href="#m13c30265a5" x="47.953211" y="388.435537" style="fill: #e40000; fill-opacity: 0.8; stroke: #e40000; stroke-opacity: 0.8"/>
     <use xlink:href="#m13c30265a5" x="40.400586" y="407.402479" style="fill: #e40000; fill-opacity: 0.8; stroke: #e40000; stroke-opacity: 0.8"/>
     <use xlink:href="#m13c30265a5" x="35.44158" y="426.369421" style="fill: #e40000; fill-opacity: 0.8; stroke: #e40000; stroke-opacity: 0.8"/>
     <use xlink:href="#m13c30265a5" x="32.278398" y="445.336364" style="fill: #e40000; fill-opacity: 0.8; stroke: #e40000; stroke-opacity: 0.8"/>
    </g>
   </g>
   <g id="patch_3">
    <path d="M 18.557691 476.2 
L 288.557691 476.2 
" style="fill: none; stroke: #000000; stroke-width: 2; stroke-linejoin: miter; stroke-linecap: square"/>
   </g>
  </g>
 </g>
 <defs>
  <clipPath id="pb4b4aa79fd">
   <rect x="18.557691" y="7.2" width="270" height="459"/>
  </clipPath>
 </defs>
</svg>
