<?xml version="1.0" encoding="utf-8" standalone="no"?>
<!DOCTYPE svg PUBLIC "-//W3C//DTD SVG 1.1//EN"
  "http://www.w3.org/Graphics/SVG/1.1/DTD/svg11.dtd">
<svg xmlns:xlink="http://www.w3.org/1999/xlink" width="326.85pt" height="544.35625pt" viewBox="0 0 326.85 544.35625" xmlns="http://www.w3.org/2000/svg" version="1.1">
 <metadata>
  <rdf:RDF xmlns:dc="http://purl.org/dc/elements/1.1/" xmlns:cc="http://creativecommons.org/ns#" xmlns:rdf="http://www.w3.org/1999/02/22-rdf-syntax-ns#">
   <cc:Work>
    <dc:type rdf:resource="http://purl.org/dc/dcmitype/StillImage"/>
    <dc:date>2024-07-06T15:09:45.462898</dc:date>
    <dc:format>image/svg+xml</dc:format>
    <dc:creator>
     <cc:Agent>
      <dc:title>Matplotlib v3.8.0, https://matplotlib.org/</dc:title>
     </cc:Agent>
    </dc:creator>
   </cc:Work>
  </rdf:RDF>
 </metadata>
 <defs>
  <style type="text/css">*{stroke-linejoin: round; stroke-linecap: butt}</style>
 </defs>
 <g id="figure_1">
  <g id="patch_1">
   <path d="M 0 544.35625 
L 326.85 544.35625 
L 326.85 0 
L 0 0 
z
" style="fill: #ffffff"/>
  </g>
  <g id="axes_1">
   <g id="patch_2">
    <path d="M 49.65 466.2 
L 319.65 466.2 
L 319.65 7.2 
L 49.65 7.2 
z
" style="fill: #ffffff"/>
   </g>
   <g id="matplotlib.axis_1">
    <g id="xtick_1">
     <g id="line2d_1">
      <defs>
       <path id="mbea88023e3" d="M 0 0 
L 0 3.5 
" style="stroke: #000000; stroke-width: 1.5"/>
      </defs>
      <g>
       <use xlink:href="#mbea88023e3" x="65.295849" y="476.2" style="stroke: #000000; stroke-width: 1.5"/>
      </g>
     </g>
     <g id="text_1">
      <!-- 100 -->
      <g transform="translate(46.208349 498.396875) scale(0.2 -0.2)">
       <defs>
        <path id="DejaVuSans-31" d="M 794 531 
L 1825 531 
L 1825 4091 
L 703 3866 
L 703 4441 
L 1819 4666 
L 2450 4666 
L 2450 531 
L 3481 531 
L 3481 0 
L 794 0 
L 794 531 
z
" transform="scale(0.015625)"/>
        <path id="DejaVuSans-30" d="M 2034 4250 
Q 1547 4250 1301 3770 
Q 1056 3291 1056 2328 
Q 1056 1369 1301 889 
Q 1547 409 2034 409 
Q 2525 409 2770 889 
Q 3016 1369 3016 2328 
Q 3016 3291 2770 3770 
Q 2525 4250 2034 4250 
z
M 2034 4750 
Q 2819 4750 3233 4129 
Q 3647 3509 3647 2328 
Q 3647 1150 3233 529 
Q 2819 -91 2034 -91 
Q 1250 -91 836 529 
Q 422 1150 422 2328 
Q 422 3509 836 4129 
Q 1250 4750 2034 4750 
z
" transform="scale(0.015625)"/>
       </defs>
       <use xlink:href="#DejaVuSans-31"/>
       <use xlink:href="#DejaVuSans-30" x="63.623047"/>
       <use xlink:href="#DejaVuSans-30" x="127.246094"/>
      </g>
     </g>
    </g>
    <g id="xtick_2">
     <g id="line2d_2">
      <g>
       <use xlink:href="#mbea88023e3" x="136.136776" y="476.2" style="stroke: #000000; stroke-width: 1.5"/>
      </g>
     </g>
     <g id="text_2">
      <!-- 200 -->
      <g transform="translate(117.049276 498.396875) scale(0.2 -0.2)">
       <defs>
        <path id="DejaVuSans-32" d="M 1228 531 
L 3431 531 
L 3431 0 
L 469 0 
L 469 531 
Q 828 903 1448 1529 
Q 2069 2156 2228 2338 
Q 2531 2678 2651 2914 
Q 2772 3150 2772 3378 
Q 2772 3750 2511 3984 
Q 2250 4219 1831 4219 
Q 1534 4219 1204 4116 
Q 875 4013 500 3803 
L 500 4441 
Q 881 4594 1212 4672 
Q 1544 4750 1819 4750 
Q 2544 4750 2975 4387 
Q 3406 4025 3406 3419 
Q 3406 3131 3298 2873 
Q 3191 2616 2906 2266 
Q 2828 2175 2409 1742 
Q 1991 1309 1228 531 
z
" transform="scale(0.015625)"/>
       </defs>
       <use xlink:href="#DejaVuSans-32"/>
       <use xlink:href="#DejaVuSans-30" x="63.623047"/>
       <use xlink:href="#DejaVuSans-30" x="127.246094"/>
      </g>
     </g>
    </g>
    <g id="xtick_3">
     <g id="line2d_3">
      <g>
       <use xlink:href="#mbea88023e3" x="206.977704" y="476.2" style="stroke: #000000; stroke-width: 1.5"/>
      </g>
     </g>
     <g id="text_3">
      <!-- 300 -->
      <g transform="translate(187.890204 498.396875) scale(0.2 -0.2)">
       <defs>
        <path id="DejaVuSans-33" d="M 2597 2516 
Q 3050 2419 3304 2112 
Q 3559 1806 3559 1356 
Q 3559 666 3084 287 
Q 2609 -91 1734 -91 
Q 1441 -91 1130 -33 
Q 819 25 488 141 
L 488 750 
Q 750 597 1062 519 
Q 1375 441 1716 441 
Q 2309 441 2620 675 
Q 2931 909 2931 1356 
Q 2931 1769 2642 2001 
Q 2353 2234 1838 2234 
L 1294 2234 
L 1294 2753 
L 1863 2753 
Q 2328 2753 2575 2939 
Q 2822 3125 2822 3475 
Q 2822 3834 2567 4026 
Q 2313 4219 1838 4219 
Q 1578 4219 1281 4162 
Q 984 4106 628 3988 
L 628 4550 
Q 988 4650 1302 4700 
Q 1616 4750 1894 4750 
Q 2613 4750 3031 4423 
Q 3450 4097 3450 3541 
Q 3450 3153 3228 2886 
Q 3006 2619 2597 2516 
z
" transform="scale(0.015625)"/>
       </defs>
       <use xlink:href="#DejaVuSans-33"/>
       <use xlink:href="#DejaVuSans-30" x="63.623047"/>
       <use xlink:href="#DejaVuSans-30" x="127.246094"/>
      </g>
     </g>
    </g>
    <g id="xtick_4">
     <g id="line2d_4">
      <g>
       <use xlink:href="#mbea88023e3" x="277.818632" y="476.2" style="stroke: #000000; stroke-width: 1.5"/>
      </g>
     </g>
     <g id="text_4">
      <!-- 400 -->
      <g transform="translate(258.731132 498.396875) scale(0.2 -0.2)">
       <defs>
        <path id="DejaVuSans-34" d="M 2419 4116 
L 825 1625 
L 2419 1625 
L 2419 4116 
z
M 2253 4666 
L 3047 4666 
L 3047 1625 
L 3713 1625 
L 3713 1100 
L 3047 1100 
L 3047 0 
L 2419 0 
L 2419 1100 
L 313 1100 
L 313 1709 
L 2253 4666 
z
" transform="scale(0.015625)"/>
       </defs>
       <use xlink:href="#DejaVuSans-34"/>
       <use xlink:href="#DejaVuSans-30" x="63.623047"/>
       <use xlink:href="#DejaVuSans-30" x="127.246094"/>
      </g>
     </g>
    </g>
    <g id="text_5">
     <!-- Resistivity  [$\Omega m$] -->
     <g transform="translate(90.35 532.75625) scale(0.2 -0.2)">
      <defs>
       <path id="DejaVuSans-Bold-52" d="M 2297 2597 
Q 2675 2597 2839 2737 
Q 3003 2878 3003 3200 
Q 3003 3519 2839 3656 
Q 2675 3794 2297 3794 
L 1791 3794 
L 1791 2597 
L 2297 2597 
z
M 1791 1766 
L 1791 0 
L 588 0 
L 588 4666 
L 2425 4666 
Q 3347 4666 3776 4356 
Q 4206 4047 4206 3378 
Q 4206 2916 3982 2619 
Q 3759 2322 3309 2181 
Q 3556 2125 3751 1926 
Q 3947 1728 4147 1325 
L 4800 0 
L 3519 0 
L 2950 1159 
Q 2778 1509 2601 1637 
Q 2425 1766 2131 1766 
L 1791 1766 
z
" transform="scale(0.015625)"/>
       <path id="DejaVuSans-Bold-65" d="M 4031 1759 
L 4031 1441 
L 1416 1441 
Q 1456 1047 1700 850 
Q 1944 653 2381 653 
Q 2734 653 3104 758 
Q 3475 863 3866 1075 
L 3866 213 
Q 3469 63 3072 -14 
Q 2675 -91 2278 -91 
Q 1328 -91 801 392 
Q 275 875 275 1747 
Q 275 2603 792 3093 
Q 1309 3584 2216 3584 
Q 3041 3584 3536 3087 
Q 4031 2591 4031 1759 
z
M 2881 2131 
Q 2881 2450 2695 2645 
Q 2509 2841 2209 2841 
Q 1884 2841 1681 2658 
Q 1478 2475 1428 2131 
L 2881 2131 
z
" transform="scale(0.015625)"/>
       <path id="DejaVuSans-Bold-73" d="M 3272 3391 
L 3272 2541 
Q 2913 2691 2578 2766 
Q 2244 2841 1947 2841 
Q 1628 2841 1473 2761 
Q 1319 2681 1319 2516 
Q 1319 2381 1436 2309 
Q 1553 2238 1856 2203 
L 2053 2175 
Q 2913 2066 3209 1816 
Q 3506 1566 3506 1031 
Q 3506 472 3093 190 
Q 2681 -91 1863 -91 
Q 1516 -91 1145 -36 
Q 775 19 384 128 
L 384 978 
Q 719 816 1070 734 
Q 1422 653 1784 653 
Q 2113 653 2278 743 
Q 2444 834 2444 1013 
Q 2444 1163 2330 1236 
Q 2216 1309 1875 1350 
L 1678 1375 
Q 931 1469 631 1722 
Q 331 1975 331 2491 
Q 331 3047 712 3315 
Q 1094 3584 1881 3584 
Q 2191 3584 2531 3537 
Q 2872 3491 3272 3391 
z
" transform="scale(0.015625)"/>
       <path id="DejaVuSans-Bold-69" d="M 538 3500 
L 1656 3500 
L 1656 0 
L 538 0 
L 538 3500 
z
M 538 4863 
L 1656 4863 
L 1656 3950 
L 538 3950 
L 538 4863 
z
" transform="scale(0.015625)"/>
       <path id="DejaVuSans-Bold-74" d="M 1759 4494 
L 1759 3500 
L 2913 3500 
L 2913 2700 
L 1759 2700 
L 1759 1216 
Q 1759 972 1856 886 
Q 1953 800 2241 800 
L 2816 800 
L 2816 0 
L 1856 0 
Q 1194 0 917 276 
Q 641 553 641 1216 
L 641 2700 
L 84 2700 
L 84 3500 
L 641 3500 
L 641 4494 
L 1759 4494 
z
" transform="scale(0.015625)"/>
       <path id="DejaVuSans-Bold-76" d="M 97 3500 
L 1216 3500 
L 2088 1081 
L 2956 3500 
L 4078 3500 
L 2700 0 
L 1472 0 
L 97 3500 
z
" transform="scale(0.015625)"/>
       <path id="DejaVuSans-Bold-79" d="M 78 3500 
L 1197 3500 
L 2138 1125 
L 2938 3500 
L 4056 3500 
L 2584 -331 
Q 2363 -916 2067 -1148 
Q 1772 -1381 1288 -1381 
L 641 -1381 
L 641 -647 
L 991 -647 
Q 1275 -647 1404 -556 
Q 1534 -466 1606 -231 
L 1638 -134 
L 78 3500 
z
" transform="scale(0.015625)"/>
       <path id="DejaVuSans-Bold-20" transform="scale(0.015625)"/>
       <path id="DejaVuSans-Bold-5b" d="M 550 4863 
L 2491 4863 
L 2491 4159 
L 1613 4159 
L 1613 -141 
L 2491 -141 
L 2491 -844 
L 550 -844 
L 550 4863 
z
" transform="scale(0.015625)"/>
       <path id="DejaVuSans-Bold-3a9" d="M 2719 4750 
Q 3841 4750 4480 4106 
Q 5119 3463 5119 2494 
Q 5119 1406 4306 909 
L 5266 909 
L 5266 0 
L 3125 0 
L 3125 975 
Q 3244 1041 3334 1131 
Q 3875 1678 3875 2466 
Q 3875 3066 3572 3472 
Q 3269 3878 2719 3878 
Q 2169 3878 1866 3472 
Q 1563 3066 1563 2466 
Q 1563 1678 2103 1131 
Q 2194 1041 2313 975 
L 2313 0 
L 172 0 
L 172 909 
L 1131 909 
Q 319 1406 319 2494 
Q 319 3463 958 4106 
Q 1597 4750 2719 4750 
z
" transform="scale(0.015625)"/>
       <path id="DejaVuSans-Bold-6d" d="M 3781 2919 
Q 3994 3244 4286 3414 
Q 4578 3584 4928 3584 
Q 5531 3584 5847 3212 
Q 6163 2841 6163 2131 
L 6163 0 
L 5038 0 
L 5038 1825 
Q 5041 1866 5042 1909 
Q 5044 1953 5044 2034 
Q 5044 2406 4934 2573 
Q 4825 2741 4581 2741 
Q 4263 2741 4089 2478 
Q 3916 2216 3909 1719 
L 3909 0 
L 2784 0 
L 2784 1825 
Q 2784 2406 2684 2573 
Q 2584 2741 2328 2741 
Q 2006 2741 1831 2477 
Q 1656 2213 1656 1722 
L 1656 0 
L 531 0 
L 531 3500 
L 1656 3500 
L 1656 2988 
Q 1863 3284 2130 3434 
Q 2397 3584 2719 3584 
Q 3081 3584 3359 3409 
Q 3638 3234 3781 2919 
z
" transform="scale(0.015625)"/>
       <path id="DejaVuSans-Bold-5d" d="M 2375 -844 
L 434 -844 
L 434 -141 
L 1313 -141 
L 1313 4159 
L 434 4159 
L 434 4863 
L 2375 4863 
L 2375 -844 
z
" transform="scale(0.015625)"/>
      </defs>
      <use xlink:href="#DejaVuSans-Bold-52" transform="translate(0 0.015625)"/>
      <use xlink:href="#DejaVuSans-Bold-65" transform="translate(77.001953 0.015625)"/>
      <use xlink:href="#DejaVuSans-Bold-73" transform="translate(144.824219 0.015625)"/>
      <use xlink:href="#DejaVuSans-Bold-69" transform="translate(204.345703 0.015625)"/>
      <use xlink:href="#DejaVuSans-Bold-73" transform="translate(238.623047 0.015625)"/>
      <use xlink:href="#DejaVuSans-Bold-74" transform="translate(298.144531 0.015625)"/>
      <use xlink:href="#DejaVuSans-Bold-69" transform="translate(345.947266 0.015625)"/>
      <use xlink:href="#DejaVuSans-Bold-76" transform="translate(380.224609 0.015625)"/>
      <use xlink:href="#DejaVuSans-Bold-69" transform="translate(445.410156 0.015625)"/>
      <use xlink:href="#DejaVuSans-Bold-74" transform="translate(479.6875 0.015625)"/>
      <use xlink:href="#DejaVuSans-Bold-79" transform="translate(527.490234 0.015625)"/>
      <use xlink:href="#DejaVuSans-Bold-20" transform="translate(592.675781 0.015625)"/>
      <use xlink:href="#DejaVuSans-Bold-20" transform="translate(627.490234 0.015625)"/>
      <use xlink:href="#DejaVuSans-Bold-5b" transform="translate(662.304688 0.015625)"/>
      <use xlink:href="#DejaVuSans-Bold-3a9" transform="translate(708.007812 0.015625)"/>
      <use xlink:href="#DejaVuSans-Bold-6d" transform="translate(793.017578 0.015625)"/>
      <use xlink:href="#DejaVuSans-Bold-5d" transform="translate(897.216797 0.015625)"/>
     </g>
    </g>
   </g>
   <g id="matplotlib.axis_2">
    <g id="ytick_1">
     <g id="line2d_5">
      <defs>
       <path id="m3f29eab980" d="M 0 0 
L -3.5 0 
" style="stroke: #000000; stroke-width: 1.5"/>
      </defs>
      <g>
       <use xlink:href="#m3f29eab980" x="39.65" y="28.063636" style="stroke: #000000; stroke-width: 1.5"/>
      </g>
     </g>
     <g id="text_6">
      <!-- 0 -->
      <g transform="translate(19.925 35.662074) scale(0.2 -0.2)">
       <use xlink:href="#DejaVuSans-30"/>
      </g>
     </g>
    </g>
    <g id="ytick_2">
     <g id="line2d_6">
      <g>
       <use xlink:href="#m3f29eab980" x="39.65" y="114.995455" style="stroke: #000000; stroke-width: 1.5"/>
      </g>
     </g>
     <g id="text_7">
      <!-- 5 -->
      <g transform="translate(19.925 122.593892) scale(0.2 -0.2)">
       <defs>
        <path id="DejaVuSans-35" d="M 691 4666 
L 3169 4666 
L 3169 4134 
L 1269 4134 
L 1269 2991 
Q 1406 3038 1543 3061 
Q 1681 3084 1819 3084 
Q 2600 3084 3056 2656 
Q 3513 2228 3513 1497 
Q 3513 744 3044 326 
Q 2575 -91 1722 -91 
Q 1428 -91 1123 -41 
Q 819 9 494 109 
L 494 744 
Q 775 591 1075 516 
Q 1375 441 1709 441 
Q 2250 441 2565 725 
Q 2881 1009 2881 1497 
Q 2881 1984 2565 2268 
Q 2250 2553 1709 2553 
Q 1456 2553 1204 2497 
Q 953 2441 691 2322 
L 691 4666 
z
" transform="scale(0.015625)"/>
       </defs>
       <use xlink:href="#DejaVuSans-35"/>
      </g>
     </g>
    </g>
    <g id="ytick_3">
     <g id="line2d_7">
      <g>
       <use xlink:href="#m3f29eab980" x="39.65" y="201.927273" style="stroke: #000000; stroke-width: 1.5"/>
      </g>
     </g>
     <g id="text_8">
      <!-- 10 -->
      <g transform="translate(7.2 209.52571) scale(0.2 -0.2)">
       <use xlink:href="#DejaVuSans-31"/>
       <use xlink:href="#DejaVuSans-30" x="63.623047"/>
      </g>
     </g>
    </g>
    <g id="ytick_4">
     <g id="line2d_8">
      <g>
       <use xlink:href="#m3f29eab980" x="39.65" y="288.859091" style="stroke: #000000; stroke-width: 1.5"/>
      </g>
     </g>
     <g id="text_9">
      <!-- 15 -->
      <g transform="translate(7.2 296.457528) scale(0.2 -0.2)">
       <use xlink:href="#DejaVuSans-31"/>
       <use xlink:href="#DejaVuSans-35" x="63.623047"/>
      </g>
     </g>
    </g>
    <g id="ytick_5">
     <g id="line2d_9">
      <g>
       <use xlink:href="#m3f29eab980" x="39.65" y="375.790909" style="stroke: #000000; stroke-width: 1.5"/>
      </g>
     </g>
     <g id="text_10">
      <!-- 20 -->
      <g transform="translate(7.2 383.389347) scale(0.2 -0.2)">
       <use xlink:href="#DejaVuSans-32"/>
       <use xlink:href="#DejaVuSans-30" x="63.623047"/>
      </g>
     </g>
    </g>
    <g id="ytick_6">
     <g id="line2d_10">
      <g>
       <use xlink:href="#m3f29eab980" x="39.65" y="462.722727" style="stroke: #000000; stroke-width: 1.5"/>
      </g>
     </g>
     <g id="text_11">
      <!-- 25 -->
      <g transform="translate(7.2 470.321165) scale(0.2 -0.2)">
       <use xlink:href="#DejaVuSans-32"/>
       <use xlink:href="#DejaVuSans-35" x="63.623047"/>
      </g>
     </g>
    </g>
   </g>
   <g id="line2d_11">
    <path d="M 220.201207 28.063636 
L 220.201207 36.941779 
L 259.526505 36.941779 
L 259.526505 45.819923 
L 259.526505 45.819923 
L 259.526505 54.698066 
L 259.526505 54.698066 
L 259.526505 63.576209 
L 259.526505 63.576209 
L 259.526505 72.454352 
L 259.526505 72.454352 
L 259.526505 81.332495 
L 259.526505 81.332495 
L 259.526505 90.210638 
L 259.526505 90.210638 
L 259.526505 99.088781 
L 259.526505 99.088781 
L 259.526505 107.966925 
L 259.526505 107.966925 
L 259.526505 116.845068 
L 259.526505 116.845068 
L 259.526505 125.723211 
L 259.526505 125.723211 
L 259.526505 134.601354 
L 259.526505 134.601354 
L 259.526505 143.479497 
L 259.526505 143.479497 
L 259.526505 152.35764 
L 259.526505 152.35764 
L 259.526505 161.235783 
L 259.526505 161.235783 
L 259.526505 170.113926 
L 259.526505 170.113926 
L 259.526505 178.99207 
L 103.962082 178.99207 
L 103.962082 187.870213 
L 103.962082 187.870213 
L 103.962082 196.748356 
L 103.962082 196.748356 
L 103.962082 205.626499 
L 103.962082 205.626499 
L 103.962082 214.504642 
L 103.962082 214.504642 
L 103.962082 223.382785 
L 103.962082 223.382785 
L 103.962082 232.260928 
L 103.962082 232.260928 
L 103.962082 241.139072 
L 103.962082 241.139072 
L 103.962082 250.017215 
L 103.962082 250.017215 
L 103.962082 258.895358 
L 103.962082 258.895358 
L 103.962082 267.773501 
L 103.962082 267.773501 
L 103.962082 276.651644 
L 103.962082 276.651644 
L 103.962082 285.529787 
L 103.962082 285.529787 
L 103.962082 294.40793 
L 103.962082 294.40793 
L 103.962082 303.286074 
L 103.962082 303.286074 
L 103.962082 312.164217 
L 103.962082 312.164217 
L 103.962082 321.04236 
L 103.962082 321.04236 
L 103.962082 329.920503 
L 103.962082 329.920503 
L 103.962082 338.798646 
L 103.962082 338.798646 
L 103.962082 347.676789 
L 103.962082 347.676789 
L 103.962082 356.554932 
L 103.962082 356.554932 
L 103.962082 365.433075 
L 103.962082 365.433075 
L 103.962082 374.311219 
L 103.962082 374.311219 
L 103.962082 383.189362 
L 103.962082 383.189362 
L 103.962082 392.067505 
L 103.962082 392.067505 
L 103.962082 400.945648 
L 103.962082 400.945648 
L 103.962082 409.823791 
L 63.579565 409.823791 
L 63.579565 418.701934 
L 63.579565 418.701934 
L 63.579565 427.580077 
L 63.579565 427.580077 
L 63.579565 436.458221 
L 63.579565 436.458221 
L 63.579565 445.336364 
L 63.579565 445.336364 
" clip-path="url(#p016b7347e9)" style="fill: none; stroke: #2f4f4f; stroke-width: 3; stroke-linecap: square"/>
   </g>
   <g id="line2d_12">
    <path d="M 249.095801 28.063636 
L 249.095801 36.941779 
L 238.987046 36.941779 
L 238.987046 45.819923 
L 276.874403 45.819923 
L 276.874403 54.698066 
L 276.874403 54.698066 
L 276.874403 63.576209 
L 276.874403 63.576209 
L 276.874403 72.454352 
L 276.874403 72.454352 
L 276.874403 81.332495 
L 276.874403 81.332495 
L 276.874403 90.210638 
L 276.874403 90.210638 
L 276.874403 99.088781 
L 276.874403 99.088781 
L 276.874403 107.966925 
L 276.874403 107.966925 
L 276.874403 116.845068 
L 276.874403 116.845068 
L 276.874403 125.723211 
L 276.874403 125.723211 
L 276.874403 134.601354 
L 276.874403 134.601354 
L 276.874403 143.479497 
L 276.874403 143.479497 
L 276.874403 152.35764 
L 117.317893 152.35764 
L 117.317893 161.235783 
L 117.317893 161.235783 
L 117.317893 170.113926 
L 117.317893 170.113926 
L 117.317893 178.99207 
L 117.317893 178.99207 
L 117.317893 187.870213 
L 117.317893 187.870213 
L 117.317893 196.748356 
L 117.317893 196.748356 
L 117.317893 205.626499 
L 117.317893 205.626499 
L 117.317893 214.504642 
L 117.317893 214.504642 
L 117.317893 223.382785 
L 117.317893 223.382785 
L 117.317893 232.260928 
L 117.317893 232.260928 
L 117.317893 241.139072 
L 117.317893 241.139072 
L 117.317893 250.017215 
L 117.317893 250.017215 
L 117.317893 258.895358 
L 117.317893 258.895358 
L 117.317893 267.773501 
L 117.317893 267.773501 
L 117.317893 276.651644 
L 117.317893 276.651644 
L 117.317893 285.529787 
L 117.317893 285.529787 
L 117.317893 294.40793 
L 117.317893 294.40793 
L 117.317893 303.286074 
L 117.317893 303.286074 
L 117.317893 312.164217 
L 117.317893 312.164217 
L 117.317893 321.04236 
L 117.317893 321.04236 
L 117.317893 329.920503 
L 117.317893 329.920503 
L 117.317893 338.798646 
L 117.317893 338.798646 
L 117.317893 347.676789 
L 117.317893 347.676789 
L 117.317893 356.554932 
L 117.317893 356.554932 
L 117.317893 365.433075 
L 117.317893 365.433075 
L 117.317893 374.311219 
L 117.317893 374.311219 
L 117.317893 383.189362 
L 63.485793 383.189362 
L 63.485793 392.067505 
L 63.485793 392.067505 
L 63.485793 400.945648 
L 63.485793 400.945648 
L 63.485793 409.823791 
L 63.485793 409.823791 
L 63.485793 418.701934 
L 63.485793 418.701934 
L 63.485793 427.580077 
L 63.485793 427.580077 
L 63.485793 436.458221 
L 63.485793 436.458221 
L 63.485793 445.336364 
L 63.485793 445.336364 
" clip-path="url(#p016b7347e9)" style="fill: none; stroke: #2f4f4f; stroke-opacity: 0.8; stroke-width: 3; stroke-linecap: square"/>
   </g>
   <g id="line2d_13">
    <path d="M 260.969482 28.063636 
L 260.969482 36.941779 
L 230.156165 36.941779 
L 230.156165 45.819923 
L 231.968242 45.819923 
L 231.968242 54.698066 
L 248.283729 54.698066 
L 248.283729 63.576209 
L 275.345037 63.576209 
L 275.345037 72.454352 
L 297.707426 72.454352 
L 297.707426 81.332495 
L 307.377273 81.332495 
L 307.377273 90.210638 
L 303.892689 90.210638 
L 303.892689 99.088781 
L 290.832626 99.088781 
L 290.832626 107.966925 
L 272.547979 107.966925 
L 272.547979 116.845068 
L 252.486406 116.845068 
L 252.486406 125.723211 
L 232.830795 125.723211 
L 232.830795 134.601354 
L 214.733368 134.601354 
L 214.733368 143.479497 
L 198.669266 143.479497 
L 198.669266 152.35764 
L 184.723972 152.35764 
L 184.723972 161.235783 
L 172.78311 161.235783 
L 172.78311 170.113926 
L 162.644229 170.113926 
L 162.644229 178.99207 
L 154.077758 178.99207 
L 154.077758 187.870213 
L 146.857661 187.870213 
L 146.857661 196.748356 
L 140.775335 196.748356 
L 140.775335 205.626499 
L 135.644675 205.626499 
L 135.644675 214.504642 
L 131.302707 214.504642 
L 131.302707 223.382785 
L 127.608366 223.382785 
L 127.608366 232.260928 
L 124.440576 232.260928 
L 124.440576 241.139072 
L 121.696279 241.139072 
L 121.696279 250.017215 
L 119.288718 250.017215 
L 119.288718 258.895358 
L 117.146077 258.895358 
L 117.146077 267.773501 
L 115.210382 267.773501 
L 115.210382 276.651644 
L 113.436667 276.651644 
L 113.436667 285.529787 
L 111.792288 285.529787 
L 111.792288 294.40793 
L 110.256262 294.40793 
L 110.256262 303.286074 
L 108.81856 303.286074 
L 108.81856 312.164217 
L 107.292014 312.164217 
L 107.292014 321.04236 
L 101.258926 321.04236 
L 101.258926 329.920503 
L 95.74105 329.920503 
L 95.74105 338.798646 
L 90.786444 338.798646 
L 90.786444 347.676789 
L 86.44013 347.676789 
L 86.44013 356.554932 
L 82.744973 356.554932 
L 82.744973 365.433075 
L 79.741983 365.433075 
L 79.741983 374.311219 
L 77.469823 374.311219 
L 77.469823 383.189362 
L 75.962907 383.189362 
L 75.962907 392.067505 
L 75.247936 392.067505 
L 75.247936 400.945648 
L 75.338363 400.945648 
L 75.338363 409.823791 
L 76.226788 409.823791 
L 76.226788 418.701934 
L 77.875107 418.701934 
L 77.875107 427.580077 
L 80.202737 427.580077 
L 80.202737 436.458221 
L 83.073261 436.458221 
L 83.073261 445.336364 
L 61.922727 445.336364 
" clip-path="url(#p016b7347e9)" style="fill: none; stroke: #2f4f4f; stroke-opacity: 0.6; stroke-width: 3; stroke-linecap: square"/>
   </g>
   <g id="line2d_14">
    <path d="M 242.398168 28.063636 
L 242.398168 36.756818 
L 242.398168 36.756818 
L 242.398168 45.45 
L 242.398168 45.45 
L 242.398168 54.143182 
L 242.398168 54.143182 
L 242.398168 62.836364 
L 277.818632 62.836364 
L 277.818632 71.529545 
L 277.818632 71.529545 
L 277.818632 80.222727 
L 277.818632 80.222727 
L 277.818632 88.915909 
L 277.818632 88.915909 
L 277.818632 97.609091 
L 277.818632 97.609091 
L 277.818632 106.302273 
L 277.818632 106.302273 
L 277.818632 114.995455 
L 277.818632 114.995455 
L 277.818632 123.688636 
L 277.818632 123.688636 
L 277.818632 132.381818 
L 277.818632 132.381818 
L 277.818632 141.075 
L 277.818632 141.075 
L 277.818632 149.768182 
L 136.136776 149.768182 
L 136.136776 158.461364 
L 136.136776 158.461364 
L 136.136776 167.154545 
L 136.136776 167.154545 
L 136.136776 175.847727 
L 136.136776 175.847727 
L 136.136776 184.540909 
L 136.136776 184.540909 
L 136.136776 193.234091 
L 136.136776 193.234091 
L 136.136776 201.927273 
L 136.136776 201.927273 
L 136.136776 210.620455 
L 136.136776 210.620455 
L 136.136776 219.313636 
L 136.136776 219.313636 
L 136.136776 228.006818 
L 136.136776 228.006818 
L 136.136776 236.7 
L 136.136776 236.7 
L 136.136776 245.393182 
L 136.136776 245.393182 
L 136.136776 254.086364 
L 136.136776 254.086364 
L 136.136776 262.779545 
L 136.136776 262.779545 
L 136.136776 271.472727 
L 136.136776 271.472727 
L 136.136776 280.165909 
L 136.136776 280.165909 
L 136.136776 288.859091 
L 136.136776 288.859091 
L 136.136776 297.552273 
L 136.136776 297.552273 
L 136.136776 306.245455 
L 136.136776 306.245455 
L 136.136776 314.938636 
L 136.136776 314.938636 
L 136.136776 323.631818 
L 65.295849 323.631818 
L 65.295849 332.325 
L 65.295849 332.325 
L 65.295849 341.018182 
L 65.295849 341.018182 
L 65.295849 349.711364 
L 65.295849 349.711364 
L 65.295849 358.404545 
L 65.295849 358.404545 
L 65.295849 367.097727 
L 65.295849 367.097727 
L 65.295849 375.790909 
L 65.295849 375.790909 
L 65.295849 384.484091 
L 65.295849 384.484091 
L 65.295849 393.177273 
L 65.295849 393.177273 
L 65.295849 401.870455 
L 65.295849 401.870455 
L 65.295849 410.563636 
L 65.295849 410.563636 
L 65.295849 419.256818 
L 65.295849 419.256818 
L 65.295849 427.95 
L 65.295849 427.95 
L 65.295849 436.643182 
L 65.295849 436.643182 
" clip-path="url(#p016b7347e9)" style="fill: none; stroke: #e40000; stroke-opacity: 0.8; stroke-width: 3; stroke-linecap: square"/>
   </g>
   <g id="patch_3">
    <path d="M 39.65 466.2 
L 39.65 7.2 
" style="fill: none; stroke: #000000; stroke-width: 2; stroke-linejoin: miter; stroke-linecap: square"/>
   </g>
   <g id="patch_4">
    <path d="M 49.65 476.2 
L 319.65 476.2 
" style="fill: none; stroke: #000000; stroke-width: 2; stroke-linejoin: miter; stroke-linecap: square"/>
   </g>
  </g>
 </g>
 <defs>
  <clipPath id="p016b7347e9">
   <rect x="49.65" y="7.2" width="270" height="459"/>
  </clipPath>
 </defs>
</svg>
