<?xml version="1.0" encoding="utf-8" standalone="no"?>
<!DOCTYPE svg PUBLIC "-//W3C//DTD SVG 1.1//EN"
  "http://www.w3.org/Graphics/SVG/1.1/DTD/svg11.dtd">
<svg xmlns:xlink="http://www.w3.org/1999/xlink" width="329.461455pt" height="544.35625pt" viewBox="0 0 329.461455 544.35625" xmlns="http://www.w3.org/2000/svg" version="1.1">
 <metadata>
  <rdf:RDF xmlns:dc="http://purl.org/dc/elements/1.1/" xmlns:cc="http://creativecommons.org/ns#" xmlns:rdf="http://www.w3.org/1999/02/22-rdf-syntax-ns#">
   <cc:Work>
    <dc:type rdf:resource="http://purl.org/dc/dcmitype/StillImage"/>
    <dc:date>2024-07-07T10:05:22.714982</dc:date>
    <dc:format>image/svg+xml</dc:format>
    <dc:creator>
     <cc:Agent>
      <dc:title>Matplotlib v3.8.0, https://matplotlib.org/</dc:title>
     </cc:Agent>
    </dc:creator>
   </cc:Work>
  </rdf:RDF>
 </metadata>
 <defs>
  <style type="text/css">*{stroke-linejoin: round; stroke-linecap: butt}</style>
 </defs>
 <g id="figure_1">
  <g id="patch_1">
   <path d="M 0 544.35625 
L 329.461455 544.35625 
L 329.461455 0 
L 0 0 
z
" style="fill: #ffffff"/>
  </g>
  <g id="axes_1">
   <g id="patch_2">
    <path d="M 49.65 466.2 
L 319.65 466.2 
L 319.65 7.2 
L 49.65 7.2 
z
" style="fill: #ffffff"/>
   </g>
   <g id="matplotlib.axis_1">
    <g id="xtick_1">
     <g id="line2d_1">
      <defs>
       <path id="m62bc2decb6" d="M 0 0 
L 0 3.5 
" style="stroke: #000000; stroke-width: 1.5"/>
      </defs>
      <g>
       <use xlink:href="#m62bc2decb6" x="61.240995" y="476.2" style="stroke: #000000; stroke-width: 1.5"/>
      </g>
     </g>
     <g id="text_1">
      <!-- 250 -->
      <g transform="translate(42.153495 498.396875) scale(0.2 -0.2)">
       <defs>
        <path id="DejaVuSans-32" d="M 1228 531 
L 3431 531 
L 3431 0 
L 469 0 
L 469 531 
Q 828 903 1448 1529 
Q 2069 2156 2228 2338 
Q 2531 2678 2651 2914 
Q 2772 3150 2772 3378 
Q 2772 3750 2511 3984 
Q 2250 4219 1831 4219 
Q 1534 4219 1204 4116 
Q 875 4013 500 3803 
L 500 4441 
Q 881 4594 1212 4672 
Q 1544 4750 1819 4750 
Q 2544 4750 2975 4387 
Q 3406 4025 3406 3419 
Q 3406 3131 3298 2873 
Q 3191 2616 2906 2266 
Q 2828 2175 2409 1742 
Q 1991 1309 1228 531 
z
" transform="scale(0.015625)"/>
        <path id="DejaVuSans-35" d="M 691 4666 
L 3169 4666 
L 3169 4134 
L 1269 4134 
L 1269 2991 
Q 1406 3038 1543 3061 
Q 1681 3084 1819 3084 
Q 2600 3084 3056 2656 
Q 3513 2228 3513 1497 
Q 3513 744 3044 326 
Q 2575 -91 1722 -91 
Q 1428 -91 1123 -41 
Q 819 9 494 109 
L 494 744 
Q 775 591 1075 516 
Q 1375 441 1709 441 
Q 2250 441 2565 725 
Q 2881 1009 2881 1497 
Q 2881 1984 2565 2268 
Q 2250 2553 1709 2553 
Q 1456 2553 1204 2497 
Q 953 2441 691 2322 
L 691 4666 
z
" transform="scale(0.015625)"/>
        <path id="DejaVuSans-30" d="M 2034 4250 
Q 1547 4250 1301 3770 
Q 1056 3291 1056 2328 
Q 1056 1369 1301 889 
Q 1547 409 2034 409 
Q 2525 409 2770 889 
Q 3016 1369 3016 2328 
Q 3016 3291 2770 3770 
Q 2525 4250 2034 4250 
z
M 2034 4750 
Q 2819 4750 3233 4129 
Q 3647 3509 3647 2328 
Q 3647 1150 3233 529 
Q 2819 -91 2034 -91 
Q 1250 -91 836 529 
Q 422 1150 422 2328 
Q 422 3509 836 4129 
Q 1250 4750 2034 4750 
z
" transform="scale(0.015625)"/>
       </defs>
       <use xlink:href="#DejaVuSans-32"/>
       <use xlink:href="#DejaVuSans-35" x="63.623047"/>
       <use xlink:href="#DejaVuSans-30" x="127.246094"/>
      </g>
     </g>
    </g>
    <g id="xtick_2">
     <g id="line2d_2">
      <g>
       <use xlink:href="#m62bc2decb6" x="139.764482" y="476.2" style="stroke: #000000; stroke-width: 1.5"/>
      </g>
     </g>
     <g id="text_2">
      <!-- 500 -->
      <g transform="translate(120.676982 498.396875) scale(0.2 -0.2)">
       <use xlink:href="#DejaVuSans-35"/>
       <use xlink:href="#DejaVuSans-30" x="63.623047"/>
       <use xlink:href="#DejaVuSans-30" x="127.246094"/>
      </g>
     </g>
    </g>
    <g id="xtick_3">
     <g id="line2d_3">
      <g>
       <use xlink:href="#m62bc2decb6" x="218.287968" y="476.2" style="stroke: #000000; stroke-width: 1.5"/>
      </g>
     </g>
     <g id="text_3">
      <!-- 750 -->
      <g transform="translate(199.200468 498.396875) scale(0.2 -0.2)">
       <defs>
        <path id="DejaVuSans-37" d="M 525 4666 
L 3525 4666 
L 3525 4397 
L 1831 0 
L 1172 0 
L 2766 4134 
L 525 4134 
L 525 4666 
z
" transform="scale(0.015625)"/>
       </defs>
       <use xlink:href="#DejaVuSans-37"/>
       <use xlink:href="#DejaVuSans-35" x="63.623047"/>
       <use xlink:href="#DejaVuSans-30" x="127.246094"/>
      </g>
     </g>
    </g>
    <g id="xtick_4">
     <g id="line2d_4">
      <g>
       <use xlink:href="#m62bc2decb6" x="296.811455" y="476.2" style="stroke: #000000; stroke-width: 1.5"/>
      </g>
     </g>
     <g id="text_4">
      <!-- 1000 -->
      <g transform="translate(271.361455 498.396875) scale(0.2 -0.2)">
       <defs>
        <path id="DejaVuSans-31" d="M 794 531 
L 1825 531 
L 1825 4091 
L 703 3866 
L 703 4441 
L 1819 4666 
L 2450 4666 
L 2450 531 
L 3481 531 
L 3481 0 
L 794 0 
L 794 531 
z
" transform="scale(0.015625)"/>
       </defs>
       <use xlink:href="#DejaVuSans-31"/>
       <use xlink:href="#DejaVuSans-30" x="63.623047"/>
       <use xlink:href="#DejaVuSans-30" x="127.246094"/>
       <use xlink:href="#DejaVuSans-30" x="190.869141"/>
      </g>
     </g>
    </g>
    <g id="text_5">
     <!-- Resistivity  [$\Omega m$] -->
     <g transform="translate(90.35 532.75625) scale(0.2 -0.2)">
      <defs>
       <path id="DejaVuSans-Bold-52" d="M 2297 2597 
Q 2675 2597 2839 2737 
Q 3003 2878 3003 3200 
Q 3003 3519 2839 3656 
Q 2675 3794 2297 3794 
L 1791 3794 
L 1791 2597 
L 2297 2597 
z
M 1791 1766 
L 1791 0 
L 588 0 
L 588 4666 
L 2425 4666 
Q 3347 4666 3776 4356 
Q 4206 4047 4206 3378 
Q 4206 2916 3982 2619 
Q 3759 2322 3309 2181 
Q 3556 2125 3751 1926 
Q 3947 1728 4147 1325 
L 4800 0 
L 3519 0 
L 2950 1159 
Q 2778 1509 2601 1637 
Q 2425 1766 2131 1766 
L 1791 1766 
z
" transform="scale(0.015625)"/>
       <path id="DejaVuSans-Bold-65" d="M 4031 1759 
L 4031 1441 
L 1416 1441 
Q 1456 1047 1700 850 
Q 1944 653 2381 653 
Q 2734 653 3104 758 
Q 3475 863 3866 1075 
L 3866 213 
Q 3469 63 3072 -14 
Q 2675 -91 2278 -91 
Q 1328 -91 801 392 
Q 275 875 275 1747 
Q 275 2603 792 3093 
Q 1309 3584 2216 3584 
Q 3041 3584 3536 3087 
Q 4031 2591 4031 1759 
z
M 2881 2131 
Q 2881 2450 2695 2645 
Q 2509 2841 2209 2841 
Q 1884 2841 1681 2658 
Q 1478 2475 1428 2131 
L 2881 2131 
z
" transform="scale(0.015625)"/>
       <path id="DejaVuSans-Bold-73" d="M 3272 3391 
L 3272 2541 
Q 2913 2691 2578 2766 
Q 2244 2841 1947 2841 
Q 1628 2841 1473 2761 
Q 1319 2681 1319 2516 
Q 1319 2381 1436 2309 
Q 1553 2238 1856 2203 
L 2053 2175 
Q 2913 2066 3209 1816 
Q 3506 1566 3506 1031 
Q 3506 472 3093 190 
Q 2681 -91 1863 -91 
Q 1516 -91 1145 -36 
Q 775 19 384 128 
L 384 978 
Q 719 816 1070 734 
Q 1422 653 1784 653 
Q 2113 653 2278 743 
Q 2444 834 2444 1013 
Q 2444 1163 2330 1236 
Q 2216 1309 1875 1350 
L 1678 1375 
Q 931 1469 631 1722 
Q 331 1975 331 2491 
Q 331 3047 712 3315 
Q 1094 3584 1881 3584 
Q 2191 3584 2531 3537 
Q 2872 3491 3272 3391 
z
" transform="scale(0.015625)"/>
       <path id="DejaVuSans-Bold-69" d="M 538 3500 
L 1656 3500 
L 1656 0 
L 538 0 
L 538 3500 
z
M 538 4863 
L 1656 4863 
L 1656 3950 
L 538 3950 
L 538 4863 
z
" transform="scale(0.015625)"/>
       <path id="DejaVuSans-Bold-74" d="M 1759 4494 
L 1759 3500 
L 2913 3500 
L 2913 2700 
L 1759 2700 
L 1759 1216 
Q 1759 972 1856 886 
Q 1953 800 2241 800 
L 2816 800 
L 2816 0 
L 1856 0 
Q 1194 0 917 276 
Q 641 553 641 1216 
L 641 2700 
L 84 2700 
L 84 3500 
L 641 3500 
L 641 4494 
L 1759 4494 
z
" transform="scale(0.015625)"/>
       <path id="DejaVuSans-Bold-76" d="M 97 3500 
L 1216 3500 
L 2088 1081 
L 2956 3500 
L 4078 3500 
L 2700 0 
L 1472 0 
L 97 3500 
z
" transform="scale(0.015625)"/>
       <path id="DejaVuSans-Bold-79" d="M 78 3500 
L 1197 3500 
L 2138 1125 
L 2938 3500 
L 4056 3500 
L 2584 -331 
Q 2363 -916 2067 -1148 
Q 1772 -1381 1288 -1381 
L 641 -1381 
L 641 -647 
L 991 -647 
Q 1275 -647 1404 -556 
Q 1534 -466 1606 -231 
L 1638 -134 
L 78 3500 
z
" transform="scale(0.015625)"/>
       <path id="DejaVuSans-Bold-20" transform="scale(0.015625)"/>
       <path id="DejaVuSans-Bold-5b" d="M 550 4863 
L 2491 4863 
L 2491 4159 
L 1613 4159 
L 1613 -141 
L 2491 -141 
L 2491 -844 
L 550 -844 
L 550 4863 
z
" transform="scale(0.015625)"/>
       <path id="DejaVuSans-Bold-3a9" d="M 2719 4750 
Q 3841 4750 4480 4106 
Q 5119 3463 5119 2494 
Q 5119 1406 4306 909 
L 5266 909 
L 5266 0 
L 3125 0 
L 3125 975 
Q 3244 1041 3334 1131 
Q 3875 1678 3875 2466 
Q 3875 3066 3572 3472 
Q 3269 3878 2719 3878 
Q 2169 3878 1866 3472 
Q 1563 3066 1563 2466 
Q 1563 1678 2103 1131 
Q 2194 1041 2313 975 
L 2313 0 
L 172 0 
L 172 909 
L 1131 909 
Q 319 1406 319 2494 
Q 319 3463 958 4106 
Q 1597 4750 2719 4750 
z
" transform="scale(0.015625)"/>
       <path id="DejaVuSans-Bold-6d" d="M 3781 2919 
Q 3994 3244 4286 3414 
Q 4578 3584 4928 3584 
Q 5531 3584 5847 3212 
Q 6163 2841 6163 2131 
L 6163 0 
L 5038 0 
L 5038 1825 
Q 5041 1866 5042 1909 
Q 5044 1953 5044 2034 
Q 5044 2406 4934 2573 
Q 4825 2741 4581 2741 
Q 4263 2741 4089 2478 
Q 3916 2216 3909 1719 
L 3909 0 
L 2784 0 
L 2784 1825 
Q 2784 2406 2684 2573 
Q 2584 2741 2328 2741 
Q 2006 2741 1831 2477 
Q 1656 2213 1656 1722 
L 1656 0 
L 531 0 
L 531 3500 
L 1656 3500 
L 1656 2988 
Q 1863 3284 2130 3434 
Q 2397 3584 2719 3584 
Q 3081 3584 3359 3409 
Q 3638 3234 3781 2919 
z
" transform="scale(0.015625)"/>
       <path id="DejaVuSans-Bold-5d" d="M 2375 -844 
L 434 -844 
L 434 -141 
L 1313 -141 
L 1313 4159 
L 434 4159 
L 434 4863 
L 2375 4863 
L 2375 -844 
z
" transform="scale(0.015625)"/>
      </defs>
      <use xlink:href="#DejaVuSans-Bold-52" transform="translate(0 0.015625)"/>
      <use xlink:href="#DejaVuSans-Bold-65" transform="translate(77.001953 0.015625)"/>
      <use xlink:href="#DejaVuSans-Bold-73" transform="translate(144.824219 0.015625)"/>
      <use xlink:href="#DejaVuSans-Bold-69" transform="translate(204.345703 0.015625)"/>
      <use xlink:href="#DejaVuSans-Bold-73" transform="translate(238.623047 0.015625)"/>
      <use xlink:href="#DejaVuSans-Bold-74" transform="translate(298.144531 0.015625)"/>
      <use xlink:href="#DejaVuSans-Bold-69" transform="translate(345.947266 0.015625)"/>
      <use xlink:href="#DejaVuSans-Bold-76" transform="translate(380.224609 0.015625)"/>
      <use xlink:href="#DejaVuSans-Bold-69" transform="translate(445.410156 0.015625)"/>
      <use xlink:href="#DejaVuSans-Bold-74" transform="translate(479.6875 0.015625)"/>
      <use xlink:href="#DejaVuSans-Bold-79" transform="translate(527.490234 0.015625)"/>
      <use xlink:href="#DejaVuSans-Bold-20" transform="translate(592.675781 0.015625)"/>
      <use xlink:href="#DejaVuSans-Bold-20" transform="translate(627.490234 0.015625)"/>
      <use xlink:href="#DejaVuSans-Bold-5b" transform="translate(662.304688 0.015625)"/>
      <use xlink:href="#DejaVuSans-Bold-3a9" transform="translate(708.007812 0.015625)"/>
      <use xlink:href="#DejaVuSans-Bold-6d" transform="translate(793.017578 0.015625)"/>
      <use xlink:href="#DejaVuSans-Bold-5d" transform="translate(897.216797 0.015625)"/>
     </g>
    </g>
   </g>
   <g id="matplotlib.axis_2">
    <g id="ytick_1">
     <g id="line2d_5">
      <defs>
       <path id="m68f2fed271" d="M 0 0 
L -3.5 0 
" style="stroke: #000000; stroke-width: 1.5"/>
      </defs>
      <g>
       <use xlink:href="#m68f2fed271" x="39.65" y="28.063636" style="stroke: #000000; stroke-width: 1.5"/>
      </g>
     </g>
     <g id="text_6">
      <!-- 0 -->
      <g transform="translate(19.925 35.662074) scale(0.2 -0.2)">
       <use xlink:href="#DejaVuSans-30"/>
      </g>
     </g>
    </g>
    <g id="ytick_2">
     <g id="line2d_6">
      <g>
       <use xlink:href="#m68f2fed271" x="39.65" y="106.79434" style="stroke: #000000; stroke-width: 1.5"/>
      </g>
     </g>
     <g id="text_7">
      <!-- 5 -->
      <g transform="translate(19.925 114.392777) scale(0.2 -0.2)">
       <use xlink:href="#DejaVuSans-35"/>
      </g>
     </g>
    </g>
    <g id="ytick_3">
     <g id="line2d_7">
      <g>
       <use xlink:href="#m68f2fed271" x="39.65" y="185.525043" style="stroke: #000000; stroke-width: 1.5"/>
      </g>
     </g>
     <g id="text_8">
      <!-- 10 -->
      <g transform="translate(7.2 193.12348) scale(0.2 -0.2)">
       <use xlink:href="#DejaVuSans-31"/>
       <use xlink:href="#DejaVuSans-30" x="63.623047"/>
      </g>
     </g>
    </g>
    <g id="ytick_4">
     <g id="line2d_8">
      <g>
       <use xlink:href="#m68f2fed271" x="39.65" y="264.255746" style="stroke: #000000; stroke-width: 1.5"/>
      </g>
     </g>
     <g id="text_9">
      <!-- 15 -->
      <g transform="translate(7.2 271.854184) scale(0.2 -0.2)">
       <use xlink:href="#DejaVuSans-31"/>
       <use xlink:href="#DejaVuSans-35" x="63.623047"/>
      </g>
     </g>
    </g>
    <g id="ytick_5">
     <g id="line2d_9">
      <g>
       <use xlink:href="#m68f2fed271" x="39.65" y="342.986449" style="stroke: #000000; stroke-width: 1.5"/>
      </g>
     </g>
     <g id="text_10">
      <!-- 20 -->
      <g transform="translate(7.2 350.584887) scale(0.2 -0.2)">
       <use xlink:href="#DejaVuSans-32"/>
       <use xlink:href="#DejaVuSans-30" x="63.623047"/>
      </g>
     </g>
    </g>
    <g id="ytick_6">
     <g id="line2d_10">
      <g>
       <use xlink:href="#m68f2fed271" x="39.65" y="421.717153" style="stroke: #000000; stroke-width: 1.5"/>
      </g>
     </g>
     <g id="text_11">
      <!-- 25 -->
      <g transform="translate(7.2 429.31559) scale(0.2 -0.2)">
       <use xlink:href="#DejaVuSans-32"/>
       <use xlink:href="#DejaVuSans-35" x="63.623047"/>
      </g>
     </g>
    </g>
   </g>
   <g id="line2d_11">
    <path d="M 307.377273 28.063636 
L 307.377273 36.088112 
L 117.236686 36.088112 
L 117.236686 44.112587 
L 117.236686 44.112587 
L 117.236686 52.137063 
L 117.236686 52.137063 
L 117.236686 60.161538 
L 117.236686 60.161538 
L 117.236686 68.186014 
L 117.236686 68.186014 
L 117.236686 76.21049 
L 117.236686 76.21049 
L 117.236686 84.234965 
L 117.236686 84.234965 
L 117.236686 92.259441 
L 117.236686 92.259441 
L 117.236686 100.283916 
L 117.236686 100.283916 
L 117.236686 108.308392 
L 117.236686 108.308392 
L 117.236686 116.332867 
L 117.236686 116.332867 
L 117.236686 124.357343 
L 117.236686 124.357343 
L 117.236686 132.381818 
L 117.236686 132.381818 
L 117.236686 140.406294 
L 117.236686 140.406294 
L 117.236686 148.430769 
L 117.236686 148.430769 
L 117.236686 156.455245 
L 117.236686 156.455245 
L 117.236686 164.47972 
L 161.363866 164.47972 
L 161.363866 172.504196 
L 161.363866 172.504196 
L 161.363866 180.528671 
L 161.363866 180.528671 
L 161.363866 188.553147 
L 161.363866 188.553147 
L 161.363866 196.577622 
L 161.363866 196.577622 
L 161.363866 204.602098 
L 161.363866 204.602098 
L 161.363866 212.626573 
L 161.363866 212.626573 
L 161.363866 220.651049 
L 161.363866 220.651049 
L 161.363866 228.675524 
L 161.363866 228.675524 
L 161.363866 236.7 
L 161.363866 236.7 
L 161.363866 244.724476 
L 161.363866 244.724476 
L 161.363866 252.748951 
L 161.363866 252.748951 
L 161.363866 260.773427 
L 161.363866 260.773427 
L 161.363866 268.797902 
L 161.363866 268.797902 
L 161.363866 276.822378 
L 161.363866 276.822378 
L 161.363866 284.846853 
L 161.363866 284.846853 
L 161.363866 292.871329 
L 161.363866 292.871329 
L 161.363866 300.895804 
L 161.363866 300.895804 
L 161.363866 308.92028 
L 161.363866 308.92028 
L 161.363866 316.944755 
L 161.363866 316.944755 
L 161.363866 324.969231 
L 161.363866 324.969231 
L 161.363866 332.993706 
L 161.363866 332.993706 
L 161.363866 341.018182 
L 161.363866 341.018182 
L 161.363866 349.042657 
L 161.363866 349.042657 
L 161.363866 357.067133 
L 161.363866 357.067133 
L 161.363866 365.091608 
L 161.363866 365.091608 
L 161.363866 373.116084 
L 161.363866 373.116084 
L 161.363866 381.140559 
L 161.363866 381.140559 
L 161.363866 389.165035 
L 161.363866 389.165035 
L 161.363866 397.18951 
L 161.363866 397.18951 
L 161.363866 405.213986 
L 161.363866 405.213986 
L 161.363866 413.238462 
L 161.363866 413.238462 
L 161.363866 421.262937 
L 161.363866 421.262937 
L 161.363866 429.287413 
L 161.363866 429.287413 
L 161.363866 437.311888 
L 66.819786 437.311888 
L 66.819786 445.336364 
L 66.819786 445.336364 
" clip-path="url(#pdac89036c2)" style="fill: none; stroke: #2f4f4f; stroke-width: 3; stroke-linecap: square"/>
   </g>
   <g id="line2d_12">
    <path d="M 193.551364 28.063636 
L 193.551364 36.104219 
L 158.183339 36.104219 
L 158.183339 44.144801 
L 92.109956 44.144801 
L 92.109956 52.185384 
L 92.109956 52.185384 
L 92.109956 60.225966 
L 92.109956 60.225966 
L 92.109956 68.266549 
L 92.109956 68.266549 
L 92.109956 76.307131 
L 92.109956 76.307131 
L 92.109956 84.347714 
L 92.109956 84.347714 
L 92.109956 92.388296 
L 92.109956 92.388296 
L 92.109956 100.428879 
L 92.109956 100.428879 
L 92.109956 108.469461 
L 92.109956 108.469461 
L 92.109956 116.510043 
L 92.109956 116.510043 
L 92.109956 124.550626 
L 181.743318 124.550626 
L 181.743318 132.591208 
L 181.743318 132.591208 
L 181.743318 140.631791 
L 181.743318 140.631791 
L 181.743318 148.672373 
L 181.743318 148.672373 
L 181.743318 156.712956 
L 181.743318 156.712956 
L 181.743318 164.753538 
L 181.743318 164.753538 
L 181.743318 172.794121 
L 181.743318 172.794121 
L 181.743318 180.834703 
L 181.743318 180.834703 
L 181.743318 188.875286 
L 181.743318 188.875286 
L 181.743318 196.915868 
L 181.743318 196.915868 
L 181.743318 204.95645 
L 181.743318 204.95645 
L 181.743318 212.997033 
L 181.743318 212.997033 
L 181.743318 221.037615 
L 181.743318 221.037615 
L 181.743318 229.078198 
L 181.743318 229.078198 
L 181.743318 237.11878 
L 181.743318 237.11878 
L 181.743318 245.159363 
L 181.743318 245.159363 
L 181.743318 253.199945 
L 181.743318 253.199945 
L 181.743318 261.240528 
L 181.743318 261.240528 
L 181.743318 269.28111 
L 181.743318 269.28111 
L 181.743318 277.321693 
L 181.743318 277.321693 
L 181.743318 285.362275 
L 181.743318 285.362275 
L 181.743318 293.402858 
L 181.743318 293.402858 
L 181.743318 301.44344 
L 181.743318 301.44344 
L 181.743318 309.484022 
L 181.743318 309.484022 
L 181.743318 317.524605 
L 181.743318 317.524605 
L 181.743318 325.565187 
L 181.743318 325.565187 
L 181.743318 333.60577 
L 181.743318 333.60577 
L 181.743318 341.646352 
L 181.743318 341.646352 
L 181.743318 349.686935 
L 72.50115 349.686935 
L 72.50115 357.727517 
L 72.50115 357.727517 
L 72.50115 365.7681 
L 72.50115 365.7681 
L 72.50115 373.808682 
L 72.50115 373.808682 
L 72.50115 381.849265 
L 72.50115 381.849265 
L 72.50115 389.889847 
L 72.50115 389.889847 
L 72.50115 397.93043 
L 72.50115 397.93043 
L 72.50115 405.971012 
L 72.50115 405.971012 
" clip-path="url(#pdac89036c2)" style="fill: none; stroke: #2f4f4f; stroke-opacity: 0.8; stroke-width: 3; stroke-linecap: square"/>
   </g>
   <g id="line2d_13">
    <path d="M 178.747367 28.063636 
L 178.747367 36.091081 
L 177.303501 36.091081 
L 177.303501 44.118525 
L 157.539009 44.118525 
L 157.539009 52.145969 
L 111.493055 52.145969 
L 111.493055 60.173413 
L 87.998324 60.173413 
L 87.998324 68.200858 
L 81.34921 68.200858 
L 81.34921 76.228302 
L 84.347566 76.228302 
L 84.347566 84.255746 
L 92.754286 84.255746 
L 92.754286 92.28319 
L 103.946519 92.28319 
L 103.946519 100.310635 
L 116.10817 100.310635 
L 116.10817 108.338079 
L 127.921852 108.338079 
L 127.921852 116.365523 
L 138.469228 116.365523 
L 138.469228 124.392967 
L 147.188977 124.392967 
L 147.188977 132.420412 
L 153.831995 132.420412 
L 153.831995 140.447856 
L 158.399662 140.447856 
L 158.399662 148.4753 
L 161.071588 148.4753 
L 161.071588 156.502744 
L 162.134588 156.502744 
L 162.134588 164.530189 
L 161.922809 164.530189 
L 161.922809 172.557633 
L 160.773406 172.557633 
L 160.773406 180.585077 
L 158.99779 180.585077 
L 158.99779 188.612521 
L 156.866096 188.612521 
L 156.866096 196.639966 
L 154.60128 196.639966 
L 154.60128 204.66741 
L 152.379253 204.66741 
L 152.379253 212.694854 
L 150.332543 212.694854 
L 150.332543 220.722298 
L 148.555336 220.722298 
L 148.555336 228.749743 
L 147.108882 228.749743 
L 147.108882 236.777187 
L 146.026423 236.777187 
L 146.026423 244.804631 
L 145.317469 244.804631 
L 145.317469 252.832075 
L 144.97136 252.832075 
L 144.97136 260.85952 
L 144.960145 260.85952 
L 144.960145 268.886964 
L 145.241131 268.886964 
L 145.241131 276.914408 
L 145.759144 276.914408 
L 145.759144 284.941852 
L 146.502798 284.941852 
L 146.502798 292.969297 
L 148.629642 292.969297 
L 148.629642 300.996741 
L 150.454047 300.996741 
L 150.454047 309.024185 
L 151.87232 309.024185 
L 151.87232 317.05163 
L 152.792038 317.05163 
L 152.792038 325.079074 
L 153.139566 325.079074 
L 153.139566 333.106518 
L 152.867034 333.106518 
L 152.867034 341.133962 
L 151.957726 341.133962 
L 151.957726 349.161407 
L 150.428934 349.161407 
L 150.428934 357.188851 
L 148.332054 357.188851 
L 148.332054 365.216295 
L 145.74931 365.216295 
L 145.74931 373.243739 
L 142.788144 373.243739 
L 142.788144 381.271184 
L 139.57379 381.271184 
L 139.57379 389.298628 
L 136.241469 389.298628 
L 136.241469 397.326072 
L 132.92943 397.326072 
L 132.92943 405.353516 
L 132.92943 405.353516 
L 132.92943 413.380961 
L 132.92943 413.380961 
L 132.92943 421.408405 
L 132.92943 421.408405 
L 132.92943 429.435849 
L 61.922727 429.435849 
L 61.922727 437.463293 
L 61.922727 437.463293 
" clip-path="url(#pdac89036c2)" style="fill: none; stroke: #2f4f4f; stroke-opacity: 0.6; stroke-width: 3; stroke-linecap: square"/>
   </g>
   <g id="line2d_14">
    <path d="M 211.719868 28.063636 
L 175.212329 35.936707 
L 146.076877 43.809777 
L 123.5924 51.682847 
L 107.067509 59.555918 
L 95.840539 67.428988 
L 89.279545 75.302058 
L 86.782309 83.175129 
L 87.776333 91.048199 
L 91.718842 98.921269 
L 98.096786 106.79434 
L 106.426834 114.66741 
L 116.255382 122.54048 
L 127.158547 130.413551 
L 138.742168 138.286621 
L 150.641808 146.159691 
L 162.522752 154.032762 
L 174.08001 161.905832 
L 185.038313 169.778902 
L 195.152114 177.651973 
L 204.205591 185.525043 
L 212.012644 193.398113 
L 218.416895 201.271184 
L 223.29169 209.144254 
L 226.540098 217.017324 
L 228.09491 224.890395 
L 227.91864 232.763465 
L 226.003525 240.636535 
L 222.371526 248.509605 
L 217.074324 256.382676 
L 210.193326 264.255746 
L 201.83966 272.128816 
L 192.154177 280.001887 
L 181.307453 287.874957 
L 169.499783 295.748027 
L 156.961188 303.621098 
L 143.95141 311.494168 
L 130.759916 319.367238 
L 117.705893 327.240309 
L 105.138254 335.113379 
L 93.435632 342.986449 
L 83.006385 350.85952 
L 74.288592 358.73259 
L 67.750057 366.60566 
L 63.888304 374.478731 
L 63.230583 382.351801 
L 66.333866 390.224871 
L 73.784845 398.097942 
" clip-path="url(#pdac89036c2)" style="fill: none; stroke: #e40000; stroke-opacity: 0.8; stroke-width: 3; stroke-linecap: square"/>
    <defs>
     <path id="m899d759b20" d="M 5 0 
L -5 -0 
" style="stroke: #e40000; stroke-opacity: 0.8"/>
    </defs>
    <g clip-path="url(#pdac89036c2)">
     <use xlink:href="#m899d759b20" x="211.719868" y="28.063636" style="fill: #e40000; fill-opacity: 0.8; stroke: #e40000; stroke-opacity: 0.8"/>
     <use xlink:href="#m899d759b20" x="175.212329" y="35.936707" style="fill: #e40000; fill-opacity: 0.8; stroke: #e40000; stroke-opacity: 0.8"/>
     <use xlink:href="#m899d759b20" x="146.076877" y="43.809777" style="fill: #e40000; fill-opacity: 0.8; stroke: #e40000; stroke-opacity: 0.8"/>
     <use xlink:href="#m899d759b20" x="123.5924" y="51.682847" style="fill: #e40000; fill-opacity: 0.8; stroke: #e40000; stroke-opacity: 0.8"/>
     <use xlink:href="#m899d759b20" x="107.067509" y="59.555918" style="fill: #e40000; fill-opacity: 0.8; stroke: #e40000; stroke-opacity: 0.8"/>
     <use xlink:href="#m899d759b20" x="95.840539" y="67.428988" style="fill: #e40000; fill-opacity: 0.8; stroke: #e40000; stroke-opacity: 0.8"/>
     <use xlink:href="#m899d759b20" x="89.279545" y="75.302058" style="fill: #e40000; fill-opacity: 0.8; stroke: #e40000; stroke-opacity: 0.8"/>
     <use xlink:href="#m899d759b20" x="86.782309" y="83.175129" style="fill: #e40000; fill-opacity: 0.8; stroke: #e40000; stroke-opacity: 0.8"/>
     <use xlink:href="#m899d759b20" x="87.776333" y="91.048199" style="fill: #e40000; fill-opacity: 0.8; stroke: #e40000; stroke-opacity: 0.8"/>
     <use xlink:href="#m899d759b20" x="91.718842" y="98.921269" style="fill: #e40000; fill-opacity: 0.8; stroke: #e40000; stroke-opacity: 0.8"/>
     <use xlink:href="#m899d759b20" x="98.096786" y="106.79434" style="fill: #e40000; fill-opacity: 0.8; stroke: #e40000; stroke-opacity: 0.8"/>
     <use xlink:href="#m899d759b20" x="106.426834" y="114.66741" style="fill: #e40000; fill-opacity: 0.8; stroke: #e40000; stroke-opacity: 0.8"/>
     <use xlink:href="#m899d759b20" x="116.255382" y="122.54048" style="fill: #e40000; fill-opacity: 0.8; stroke: #e40000; stroke-opacity: 0.8"/>
     <use xlink:href="#m899d759b20" x="127.158547" y="130.413551" style="fill: #e40000; fill-opacity: 0.8; stroke: #e40000; stroke-opacity: 0.8"/>
     <use xlink:href="#m899d759b20" x="138.742168" y="138.286621" style="fill: #e40000; fill-opacity: 0.8; stroke: #e40000; stroke-opacity: 0.8"/>
     <use xlink:href="#m899d759b20" x="150.641808" y="146.159691" style="fill: #e40000; fill-opacity: 0.8; stroke: #e40000; stroke-opacity: 0.8"/>
     <use xlink:href="#m899d759b20" x="162.522752" y="154.032762" style="fill: #e40000; fill-opacity: 0.8; stroke: #e40000; stroke-opacity: 0.8"/>
     <use xlink:href="#m899d759b20" x="174.08001" y="161.905832" style="fill: #e40000; fill-opacity: 0.8; stroke: #e40000; stroke-opacity: 0.8"/>
     <use xlink:href="#m899d759b20" x="185.038313" y="169.778902" style="fill: #e40000; fill-opacity: 0.8; stroke: #e40000; stroke-opacity: 0.8"/>
     <use xlink:href="#m899d759b20" x="195.152114" y="177.651973" style="fill: #e40000; fill-opacity: 0.8; stroke: #e40000; stroke-opacity: 0.8"/>
     <use xlink:href="#m899d759b20" x="204.205591" y="185.525043" style="fill: #e40000; fill-opacity: 0.8; stroke: #e40000; stroke-opacity: 0.8"/>
     <use xlink:href="#m899d759b20" x="212.012644" y="193.398113" style="fill: #e40000; fill-opacity: 0.8; stroke: #e40000; stroke-opacity: 0.8"/>
     <use xlink:href="#m899d759b20" x="218.416895" y="201.271184" style="fill: #e40000; fill-opacity: 0.8; stroke: #e40000; stroke-opacity: 0.8"/>
     <use xlink:href="#m899d759b20" x="223.29169" y="209.144254" style="fill: #e40000; fill-opacity: 0.8; stroke: #e40000; stroke-opacity: 0.8"/>
     <use xlink:href="#m899d759b20" x="226.540098" y="217.017324" style="fill: #e40000; fill-opacity: 0.8; stroke: #e40000; stroke-opacity: 0.8"/>
     <use xlink:href="#m899d759b20" x="228.09491" y="224.890395" style="fill: #e40000; fill-opacity: 0.8; stroke: #e40000; stroke-opacity: 0.8"/>
     <use xlink:href="#m899d759b20" x="227.91864" y="232.763465" style="fill: #e40000; fill-opacity: 0.8; stroke: #e40000; stroke-opacity: 0.8"/>
     <use xlink:href="#m899d759b20" x="226.003525" y="240.636535" style="fill: #e40000; fill-opacity: 0.8; stroke: #e40000; stroke-opacity: 0.8"/>
     <use xlink:href="#m899d759b20" x="222.371526" y="248.509605" style="fill: #e40000; fill-opacity: 0.8; stroke: #e40000; stroke-opacity: 0.8"/>
     <use xlink:href="#m899d759b20" x="217.074324" y="256.382676" style="fill: #e40000; fill-opacity: 0.8; stroke: #e40000; stroke-opacity: 0.8"/>
     <use xlink:href="#m899d759b20" x="210.193326" y="264.255746" style="fill: #e40000; fill-opacity: 0.8; stroke: #e40000; stroke-opacity: 0.8"/>
     <use xlink:href="#m899d759b20" x="201.83966" y="272.128816" style="fill: #e40000; fill-opacity: 0.8; stroke: #e40000; stroke-opacity: 0.8"/>
     <use xlink:href="#m899d759b20" x="192.154177" y="280.001887" style="fill: #e40000; fill-opacity: 0.8; stroke: #e40000; stroke-opacity: 0.8"/>
     <use xlink:href="#m899d759b20" x="181.307453" y="287.874957" style="fill: #e40000; fill-opacity: 0.8; stroke: #e40000; stroke-opacity: 0.8"/>
     <use xlink:href="#m899d759b20" x="169.499783" y="295.748027" style="fill: #e40000; fill-opacity: 0.8; stroke: #e40000; stroke-opacity: 0.8"/>
     <use xlink:href="#m899d759b20" x="156.961188" y="303.621098" style="fill: #e40000; fill-opacity: 0.8; stroke: #e40000; stroke-opacity: 0.8"/>
     <use xlink:href="#m899d759b20" x="143.95141" y="311.494168" style="fill: #e40000; fill-opacity: 0.8; stroke: #e40000; stroke-opacity: 0.8"/>
     <use xlink:href="#m899d759b20" x="130.759916" y="319.367238" style="fill: #e40000; fill-opacity: 0.8; stroke: #e40000; stroke-opacity: 0.8"/>
     <use xlink:href="#m899d759b20" x="117.705893" y="327.240309" style="fill: #e40000; fill-opacity: 0.8; stroke: #e40000; stroke-opacity: 0.8"/>
     <use xlink:href="#m899d759b20" x="105.138254" y="335.113379" style="fill: #e40000; fill-opacity: 0.8; stroke: #e40000; stroke-opacity: 0.8"/>
     <use xlink:href="#m899d759b20" x="93.435632" y="342.986449" style="fill: #e40000; fill-opacity: 0.8; stroke: #e40000; stroke-opacity: 0.8"/>
     <use xlink:href="#m899d759b20" x="83.006385" y="350.85952" style="fill: #e40000; fill-opacity: 0.8; stroke: #e40000; stroke-opacity: 0.8"/>
     <use xlink:href="#m899d759b20" x="74.288592" y="358.73259" style="fill: #e40000; fill-opacity: 0.8; stroke: #e40000; stroke-opacity: 0.8"/>
     <use xlink:href="#m899d759b20" x="67.750057" y="366.60566" style="fill: #e40000; fill-opacity: 0.8; stroke: #e40000; stroke-opacity: 0.8"/>
     <use xlink:href="#m899d759b20" x="63.888304" y="374.478731" style="fill: #e40000; fill-opacity: 0.8; stroke: #e40000; stroke-opacity: 0.8"/>
     <use xlink:href="#m899d759b20" x="63.230583" y="382.351801" style="fill: #e40000; fill-opacity: 0.8; stroke: #e40000; stroke-opacity: 0.8"/>
     <use xlink:href="#m899d759b20" x="66.333866" y="390.224871" style="fill: #e40000; fill-opacity: 0.8; stroke: #e40000; stroke-opacity: 0.8"/>
     <use xlink:href="#m899d759b20" x="73.784845" y="398.097942" style="fill: #e40000; fill-opacity: 0.8; stroke: #e40000; stroke-opacity: 0.8"/>
    </g>
   </g>
   <g id="patch_3">
    <path d="M 39.65 466.2 
L 39.65 7.2 
" style="fill: none; stroke: #000000; stroke-width: 2; stroke-linejoin: miter; stroke-linecap: square"/>
   </g>
   <g id="patch_4">
    <path d="M 49.65 476.2 
L 319.65 476.2 
" style="fill: none; stroke: #000000; stroke-width: 2; stroke-linejoin: miter; stroke-linecap: square"/>
   </g>
  </g>
 </g>
 <defs>
  <clipPath id="pdac89036c2">
   <rect x="49.65" y="7.2" width="270" height="459"/>
  </clipPath>
 </defs>
</svg>
