<?xml version="1.0" encoding="utf-8" standalone="no"?>
<!DOCTYPE svg PUBLIC "-//W3C//DTD SVG 1.1//EN"
  "http://www.w3.org/Graphics/SVG/1.1/DTD/svg11.dtd">
<svg xmlns:xlink="http://www.w3.org/1999/xlink" width="284.636759pt" height="544.35625pt" viewBox="0 0 284.636759 544.35625" xmlns="http://www.w3.org/2000/svg" version="1.1">
 <metadata>
  <rdf:RDF xmlns:dc="http://purl.org/dc/elements/1.1/" xmlns:cc="http://creativecommons.org/ns#" xmlns:rdf="http://www.w3.org/1999/02/22-rdf-syntax-ns#">
   <cc:Work>
    <dc:type rdf:resource="http://purl.org/dc/dcmitype/StillImage"/>
    <dc:date>2024-07-07T10:05:22.867647</dc:date>
    <dc:format>image/svg+xml</dc:format>
    <dc:creator>
     <cc:Agent>
      <dc:title>Matplotlib v3.8.0, https://matplotlib.org/</dc:title>
     </cc:Agent>
    </dc:creator>
   </cc:Work>
  </rdf:RDF>
 </metadata>
 <defs>
  <style type="text/css">*{stroke-linejoin: round; stroke-linecap: butt}</style>
 </defs>
 <g id="figure_1">
  <g id="patch_1">
   <path d="M 0 544.35625 
L 284.636759 544.35625 
L 284.636759 0 
L 0 0 
z
" style="fill: #ffffff"/>
  </g>
  <g id="axes_1">
   <g id="patch_2">
    <path d="M 7.2 466.2 
L 277.2 466.2 
L 277.2 7.2 
L 7.2 7.2 
z
" style="fill: #ffffff"/>
   </g>
   <g id="matplotlib.axis_1">
    <g id="xtick_1">
     <g id="line2d_1">
      <defs>
       <path id="m2ad1e6c65c" d="M 0 0 
L 0 3.5 
" style="stroke: #000000; stroke-width: 1.5"/>
      </defs>
      <g>
       <use xlink:href="#m2ad1e6c65c" x="85.347469" y="476.2" style="stroke: #000000; stroke-width: 1.5"/>
      </g>
     </g>
     <g id="text_1">
      <!-- 400 -->
      <g transform="translate(66.259969 498.396875) scale(0.2 -0.2)">
       <defs>
        <path id="DejaVuSans-34" d="M 2419 4116 
L 825 1625 
L 2419 1625 
L 2419 4116 
z
M 2253 4666 
L 3047 4666 
L 3047 1625 
L 3713 1625 
L 3713 1100 
L 3047 1100 
L 3047 0 
L 2419 0 
L 2419 1100 
L 313 1100 
L 313 1709 
L 2253 4666 
z
" transform="scale(0.015625)"/>
        <path id="DejaVuSans-30" d="M 2034 4250 
Q 1547 4250 1301 3770 
Q 1056 3291 1056 2328 
Q 1056 1369 1301 889 
Q 1547 409 2034 409 
Q 2525 409 2770 889 
Q 3016 1369 3016 2328 
Q 3016 3291 2770 3770 
Q 2525 4250 2034 4250 
z
M 2034 4750 
Q 2819 4750 3233 4129 
Q 3647 3509 3647 2328 
Q 3647 1150 3233 529 
Q 2819 -91 2034 -91 
Q 1250 -91 836 529 
Q 422 1150 422 2328 
Q 422 3509 836 4129 
Q 1250 4750 2034 4750 
z
" transform="scale(0.015625)"/>
       </defs>
       <use xlink:href="#DejaVuSans-34"/>
       <use xlink:href="#DejaVuSans-30" x="63.623047"/>
       <use xlink:href="#DejaVuSans-30" x="127.246094"/>
      </g>
     </g>
    </g>
    <g id="xtick_2">
     <g id="line2d_2">
      <g>
       <use xlink:href="#m2ad1e6c65c" x="171.848364" y="476.2" style="stroke: #000000; stroke-width: 1.5"/>
      </g>
     </g>
     <g id="text_2">
      <!-- 500 -->
      <g transform="translate(152.760864 498.396875) scale(0.2 -0.2)">
       <defs>
        <path id="DejaVuSans-35" d="M 691 4666 
L 3169 4666 
L 3169 4134 
L 1269 4134 
L 1269 2991 
Q 1406 3038 1543 3061 
Q 1681 3084 1819 3084 
Q 2600 3084 3056 2656 
Q 3513 2228 3513 1497 
Q 3513 744 3044 326 
Q 2575 -91 1722 -91 
Q 1428 -91 1123 -41 
Q 819 9 494 109 
L 494 744 
Q 775 591 1075 516 
Q 1375 441 1709 441 
Q 2250 441 2565 725 
Q 2881 1009 2881 1497 
Q 2881 1984 2565 2268 
Q 2250 2553 1709 2553 
Q 1456 2553 1204 2497 
Q 953 2441 691 2322 
L 691 4666 
z
" transform="scale(0.015625)"/>
       </defs>
       <use xlink:href="#DejaVuSans-35"/>
       <use xlink:href="#DejaVuSans-30" x="63.623047"/>
       <use xlink:href="#DejaVuSans-30" x="127.246094"/>
      </g>
     </g>
    </g>
    <g id="xtick_3">
     <g id="line2d_3">
      <g>
       <use xlink:href="#m2ad1e6c65c" x="258.349259" y="476.2" style="stroke: #000000; stroke-width: 1.5"/>
      </g>
     </g>
     <g id="text_3">
      <!-- 600 -->
      <g transform="translate(239.261759 498.396875) scale(0.2 -0.2)">
       <defs>
        <path id="DejaVuSans-36" d="M 2113 2584 
Q 1688 2584 1439 2293 
Q 1191 2003 1191 1497 
Q 1191 994 1439 701 
Q 1688 409 2113 409 
Q 2538 409 2786 701 
Q 3034 994 3034 1497 
Q 3034 2003 2786 2293 
Q 2538 2584 2113 2584 
z
M 3366 4563 
L 3366 3988 
Q 3128 4100 2886 4159 
Q 2644 4219 2406 4219 
Q 1781 4219 1451 3797 
Q 1122 3375 1075 2522 
Q 1259 2794 1537 2939 
Q 1816 3084 2150 3084 
Q 2853 3084 3261 2657 
Q 3669 2231 3669 1497 
Q 3669 778 3244 343 
Q 2819 -91 2113 -91 
Q 1303 -91 875 529 
Q 447 1150 447 2328 
Q 447 3434 972 4092 
Q 1497 4750 2381 4750 
Q 2619 4750 2861 4703 
Q 3103 4656 3366 4563 
z
" transform="scale(0.015625)"/>
       </defs>
       <use xlink:href="#DejaVuSans-36"/>
       <use xlink:href="#DejaVuSans-30" x="63.623047"/>
       <use xlink:href="#DejaVuSans-30" x="127.246094"/>
      </g>
     </g>
    </g>
    <g id="text_4">
     <!-- Apparent Resistivity [$\Omega m$] -->
     <g transform="translate(-4.6 532.75625) scale(0.2 -0.2)">
      <defs>
       <path id="DejaVuSans-Bold-41" d="M 3419 850 
L 1538 850 
L 1241 0 
L 31 0 
L 1759 4666 
L 3194 4666 
L 4922 0 
L 3713 0 
L 3419 850 
z
M 1838 1716 
L 3116 1716 
L 2478 3572 
L 1838 1716 
z
" transform="scale(0.015625)"/>
       <path id="DejaVuSans-Bold-70" d="M 1656 506 
L 1656 -1331 
L 538 -1331 
L 538 3500 
L 1656 3500 
L 1656 2988 
Q 1888 3294 2169 3439 
Q 2450 3584 2816 3584 
Q 3463 3584 3878 3070 
Q 4294 2556 4294 1747 
Q 4294 938 3878 423 
Q 3463 -91 2816 -91 
Q 2450 -91 2169 54 
Q 1888 200 1656 506 
z
M 2400 2772 
Q 2041 2772 1848 2508 
Q 1656 2244 1656 1747 
Q 1656 1250 1848 986 
Q 2041 722 2400 722 
Q 2759 722 2948 984 
Q 3138 1247 3138 1747 
Q 3138 2247 2948 2509 
Q 2759 2772 2400 2772 
z
" transform="scale(0.015625)"/>
       <path id="DejaVuSans-Bold-61" d="M 2106 1575 
Q 1756 1575 1579 1456 
Q 1403 1338 1403 1106 
Q 1403 894 1545 773 
Q 1688 653 1941 653 
Q 2256 653 2472 879 
Q 2688 1106 2688 1447 
L 2688 1575 
L 2106 1575 
z
M 3816 1997 
L 3816 0 
L 2688 0 
L 2688 519 
Q 2463 200 2181 54 
Q 1900 -91 1497 -91 
Q 953 -91 614 226 
Q 275 544 275 1050 
Q 275 1666 698 1953 
Q 1122 2241 2028 2241 
L 2688 2241 
L 2688 2328 
Q 2688 2594 2478 2717 
Q 2269 2841 1825 2841 
Q 1466 2841 1156 2769 
Q 847 2697 581 2553 
L 581 3406 
Q 941 3494 1303 3539 
Q 1666 3584 2028 3584 
Q 2975 3584 3395 3211 
Q 3816 2838 3816 1997 
z
" transform="scale(0.015625)"/>
       <path id="DejaVuSans-Bold-72" d="M 3138 2547 
Q 2991 2616 2845 2648 
Q 2700 2681 2553 2681 
Q 2122 2681 1889 2404 
Q 1656 2128 1656 1613 
L 1656 0 
L 538 0 
L 538 3500 
L 1656 3500 
L 1656 2925 
Q 1872 3269 2151 3426 
Q 2431 3584 2822 3584 
Q 2878 3584 2943 3579 
Q 3009 3575 3134 3559 
L 3138 2547 
z
" transform="scale(0.015625)"/>
       <path id="DejaVuSans-Bold-65" d="M 4031 1759 
L 4031 1441 
L 1416 1441 
Q 1456 1047 1700 850 
Q 1944 653 2381 653 
Q 2734 653 3104 758 
Q 3475 863 3866 1075 
L 3866 213 
Q 3469 63 3072 -14 
Q 2675 -91 2278 -91 
Q 1328 -91 801 392 
Q 275 875 275 1747 
Q 275 2603 792 3093 
Q 1309 3584 2216 3584 
Q 3041 3584 3536 3087 
Q 4031 2591 4031 1759 
z
M 2881 2131 
Q 2881 2450 2695 2645 
Q 2509 2841 2209 2841 
Q 1884 2841 1681 2658 
Q 1478 2475 1428 2131 
L 2881 2131 
z
" transform="scale(0.015625)"/>
       <path id="DejaVuSans-Bold-6e" d="M 4056 2131 
L 4056 0 
L 2931 0 
L 2931 347 
L 2931 1631 
Q 2931 2084 2911 2256 
Q 2891 2428 2841 2509 
Q 2775 2619 2662 2680 
Q 2550 2741 2406 2741 
Q 2056 2741 1856 2470 
Q 1656 2200 1656 1722 
L 1656 0 
L 538 0 
L 538 3500 
L 1656 3500 
L 1656 2988 
Q 1909 3294 2193 3439 
Q 2478 3584 2822 3584 
Q 3428 3584 3742 3212 
Q 4056 2841 4056 2131 
z
" transform="scale(0.015625)"/>
       <path id="DejaVuSans-Bold-74" d="M 1759 4494 
L 1759 3500 
L 2913 3500 
L 2913 2700 
L 1759 2700 
L 1759 1216 
Q 1759 972 1856 886 
Q 1953 800 2241 800 
L 2816 800 
L 2816 0 
L 1856 0 
Q 1194 0 917 276 
Q 641 553 641 1216 
L 641 2700 
L 84 2700 
L 84 3500 
L 641 3500 
L 641 4494 
L 1759 4494 
z
" transform="scale(0.015625)"/>
       <path id="DejaVuSans-Bold-20" transform="scale(0.015625)"/>
       <path id="DejaVuSans-Bold-52" d="M 2297 2597 
Q 2675 2597 2839 2737 
Q 3003 2878 3003 3200 
Q 3003 3519 2839 3656 
Q 2675 3794 2297 3794 
L 1791 3794 
L 1791 2597 
L 2297 2597 
z
M 1791 1766 
L 1791 0 
L 588 0 
L 588 4666 
L 2425 4666 
Q 3347 4666 3776 4356 
Q 4206 4047 4206 3378 
Q 4206 2916 3982 2619 
Q 3759 2322 3309 2181 
Q 3556 2125 3751 1926 
Q 3947 1728 4147 1325 
L 4800 0 
L 3519 0 
L 2950 1159 
Q 2778 1509 2601 1637 
Q 2425 1766 2131 1766 
L 1791 1766 
z
" transform="scale(0.015625)"/>
       <path id="DejaVuSans-Bold-73" d="M 3272 3391 
L 3272 2541 
Q 2913 2691 2578 2766 
Q 2244 2841 1947 2841 
Q 1628 2841 1473 2761 
Q 1319 2681 1319 2516 
Q 1319 2381 1436 2309 
Q 1553 2238 1856 2203 
L 2053 2175 
Q 2913 2066 3209 1816 
Q 3506 1566 3506 1031 
Q 3506 472 3093 190 
Q 2681 -91 1863 -91 
Q 1516 -91 1145 -36 
Q 775 19 384 128 
L 384 978 
Q 719 816 1070 734 
Q 1422 653 1784 653 
Q 2113 653 2278 743 
Q 2444 834 2444 1013 
Q 2444 1163 2330 1236 
Q 2216 1309 1875 1350 
L 1678 1375 
Q 931 1469 631 1722 
Q 331 1975 331 2491 
Q 331 3047 712 3315 
Q 1094 3584 1881 3584 
Q 2191 3584 2531 3537 
Q 2872 3491 3272 3391 
z
" transform="scale(0.015625)"/>
       <path id="DejaVuSans-Bold-69" d="M 538 3500 
L 1656 3500 
L 1656 0 
L 538 0 
L 538 3500 
z
M 538 4863 
L 1656 4863 
L 1656 3950 
L 538 3950 
L 538 4863 
z
" transform="scale(0.015625)"/>
       <path id="DejaVuSans-Bold-76" d="M 97 3500 
L 1216 3500 
L 2088 1081 
L 2956 3500 
L 4078 3500 
L 2700 0 
L 1472 0 
L 97 3500 
z
" transform="scale(0.015625)"/>
       <path id="DejaVuSans-Bold-79" d="M 78 3500 
L 1197 3500 
L 2138 1125 
L 2938 3500 
L 4056 3500 
L 2584 -331 
Q 2363 -916 2067 -1148 
Q 1772 -1381 1288 -1381 
L 641 -1381 
L 641 -647 
L 991 -647 
Q 1275 -647 1404 -556 
Q 1534 -466 1606 -231 
L 1638 -134 
L 78 3500 
z
" transform="scale(0.015625)"/>
       <path id="DejaVuSans-Bold-5b" d="M 550 4863 
L 2491 4863 
L 2491 4159 
L 1613 4159 
L 1613 -141 
L 2491 -141 
L 2491 -844 
L 550 -844 
L 550 4863 
z
" transform="scale(0.015625)"/>
       <path id="DejaVuSans-Bold-3a9" d="M 2719 4750 
Q 3841 4750 4480 4106 
Q 5119 3463 5119 2494 
Q 5119 1406 4306 909 
L 5266 909 
L 5266 0 
L 3125 0 
L 3125 975 
Q 3244 1041 3334 1131 
Q 3875 1678 3875 2466 
Q 3875 3066 3572 3472 
Q 3269 3878 2719 3878 
Q 2169 3878 1866 3472 
Q 1563 3066 1563 2466 
Q 1563 1678 2103 1131 
Q 2194 1041 2313 975 
L 2313 0 
L 172 0 
L 172 909 
L 1131 909 
Q 319 1406 319 2494 
Q 319 3463 958 4106 
Q 1597 4750 2719 4750 
z
" transform="scale(0.015625)"/>
       <path id="DejaVuSans-Bold-6d" d="M 3781 2919 
Q 3994 3244 4286 3414 
Q 4578 3584 4928 3584 
Q 5531 3584 5847 3212 
Q 6163 2841 6163 2131 
L 6163 0 
L 5038 0 
L 5038 1825 
Q 5041 1866 5042 1909 
Q 5044 1953 5044 2034 
Q 5044 2406 4934 2573 
Q 4825 2741 4581 2741 
Q 4263 2741 4089 2478 
Q 3916 2216 3909 1719 
L 3909 0 
L 2784 0 
L 2784 1825 
Q 2784 2406 2684 2573 
Q 2584 2741 2328 2741 
Q 2006 2741 1831 2477 
Q 1656 2213 1656 1722 
L 1656 0 
L 531 0 
L 531 3500 
L 1656 3500 
L 1656 2988 
Q 1863 3284 2130 3434 
Q 2397 3584 2719 3584 
Q 3081 3584 3359 3409 
Q 3638 3234 3781 2919 
z
" transform="scale(0.015625)"/>
       <path id="DejaVuSans-Bold-5d" d="M 2375 -844 
L 434 -844 
L 434 -141 
L 1313 -141 
L 1313 4159 
L 434 4159 
L 434 4863 
L 2375 4863 
L 2375 -844 
z
" transform="scale(0.015625)"/>
      </defs>
      <use xlink:href="#DejaVuSans-Bold-41" transform="translate(0 0.015625)"/>
      <use xlink:href="#DejaVuSans-Bold-70" transform="translate(77.392578 0.015625)"/>
      <use xlink:href="#DejaVuSans-Bold-70" transform="translate(148.974609 0.015625)"/>
      <use xlink:href="#DejaVuSans-Bold-61" transform="translate(220.556641 0.015625)"/>
      <use xlink:href="#DejaVuSans-Bold-72" transform="translate(288.037109 0.015625)"/>
      <use xlink:href="#DejaVuSans-Bold-65" transform="translate(337.353516 0.015625)"/>
      <use xlink:href="#DejaVuSans-Bold-6e" transform="translate(405.175781 0.015625)"/>
      <use xlink:href="#DejaVuSans-Bold-74" transform="translate(476.367188 0.015625)"/>
      <use xlink:href="#DejaVuSans-Bold-20" transform="translate(524.169922 0.015625)"/>
      <use xlink:href="#DejaVuSans-Bold-52" transform="translate(558.984375 0.015625)"/>
      <use xlink:href="#DejaVuSans-Bold-65" transform="translate(635.986328 0.015625)"/>
      <use xlink:href="#DejaVuSans-Bold-73" transform="translate(703.808594 0.015625)"/>
      <use xlink:href="#DejaVuSans-Bold-69" transform="translate(763.330078 0.015625)"/>
      <use xlink:href="#DejaVuSans-Bold-73" transform="translate(797.607422 0.015625)"/>
      <use xlink:href="#DejaVuSans-Bold-74" transform="translate(857.128906 0.015625)"/>
      <use xlink:href="#DejaVuSans-Bold-69" transform="translate(904.931641 0.015625)"/>
      <use xlink:href="#DejaVuSans-Bold-76" transform="translate(939.208984 0.015625)"/>
      <use xlink:href="#DejaVuSans-Bold-69" transform="translate(1004.394531 0.015625)"/>
      <use xlink:href="#DejaVuSans-Bold-74" transform="translate(1038.671875 0.015625)"/>
      <use xlink:href="#DejaVuSans-Bold-79" transform="translate(1086.474609 0.015625)"/>
      <use xlink:href="#DejaVuSans-Bold-20" transform="translate(1151.660156 0.015625)"/>
      <use xlink:href="#DejaVuSans-Bold-5b" transform="translate(1186.474609 0.015625)"/>
      <use xlink:href="#DejaVuSans-Bold-3a9" transform="translate(1232.177734 0.015625)"/>
      <use xlink:href="#DejaVuSans-Bold-6d" transform="translate(1317.1875 0.015625)"/>
      <use xlink:href="#DejaVuSans-Bold-5d" transform="translate(1421.386719 0.015625)"/>
     </g>
    </g>
   </g>
   <g id="line2d_4">
    <path d="M 264.927273 28.063636 
L 201.741057 47.030579 
L 163.074603 65.997521 
L 141.430298 84.964463 
L 129.839327 103.931405 
L 123.828091 122.898347 
L 121.081942 141.865289 
L 120.579493 160.832231 
L 121.942225 179.799174 
L 125.043939 198.766116 
L 129.741159 217.733058 
L 135.644645 236.7 
L 141.949367 255.666942 
L 147.391714 274.633884 
L 150.377736 293.600826 
L 149.259108 312.567769 
L 142.698205 331.534711 
L 130.065333 350.501653 
L 111.77533 369.468595 
L 89.393145 388.435537 
L 65.348136 407.402479 
L 42.284327 426.369421 
L 22.317057 445.336364 
" clip-path="url(#p63ee101ca4)" style="fill: none; stroke: #2f4f4f; stroke-width: 3; stroke-linecap: square"/>
   </g>
   <g id="line2d_5">
    <path d="M 240.515052 28.063636 
L 216.45991 47.030579 
L 192.430669 65.997521 
L 168.534212 84.964463 
L 145.818268 103.931405 
L 126.174173 122.898347 
L 111.631242 141.865289 
L 103.622255 160.832231 
L 102.58751 179.799174 
L 107.914514 198.766116 
L 118.055767 217.733058 
L 130.751536 236.7 
L 143.36097 255.666942 
L 153.249228 274.633884 
L 158.131174 293.600826 
L 156.355264 312.567769 
L 147.190055 331.534711 
L 131.090455 350.501653 
L 109.766312 369.468595 
L 85.870941 388.435537 
L 62.326434 407.402479 
L 41.543993 426.369421 
L 24.884349 445.336364 
" clip-path="url(#p63ee101ca4)" style="fill: none; stroke: #2f4f4f; stroke-opacity: 0.8; stroke-width: 3; stroke-linecap: square"/>
   </g>
   <g id="line2d_6">
    <path d="M 238.976282 28.063636 
L 218.30812 47.030579 
L 194.15322 65.997521 
L 168.518036 84.964463 
L 144.178952 103.931405 
L 124.050764 122.898347 
L 110.40513 141.865289 
L 104.257179 160.832231 
L 105.176021 179.799174 
L 111.562215 198.766116 
L 121.208388 217.733058 
L 131.859638 236.7 
L 141.565426 255.666942 
L 148.78029 274.633884 
L 152.299311 293.600826 
L 151.156388 312.567769 
L 144.601445 331.534711 
L 132.231775 350.501653 
L 114.264221 369.468595 
L 91.800574 388.435537 
L 66.848741 407.402479 
L 41.944374 426.369421 
L 19.472727 445.336364 
" clip-path="url(#p63ee101ca4)" style="fill: none; stroke: #2f4f4f; stroke-opacity: 0.6; stroke-width: 3; stroke-linecap: square"/>
   </g>
   <g id="line2d_7">
    <path d="M 241.098811 28.063636 
L 216.658882 47.030579 
L 191.817383 65.997521 
L 167.641213 84.964463 
L 145.434775 103.931405 
L 126.638763 122.898347 
L 112.64544 141.865289 
L 104.549741 160.832231 
L 102.882146 179.799174 
L 107.391189 198.766116 
L 116.942039 217.733058 
L 129.568479 236.7 
L 142.679098 255.666942 
L 153.397677 274.633884 
L 159.014538 293.600826 
L 157.510794 312.567769 
L 148.056675 331.534711 
L 131.310775 350.501653 
L 109.342785 369.468595 
L 85.121386 388.435537 
L 61.706935 407.402479 
L 41.453429 426.369421 
L 25.539406 445.336364 
" clip-path="url(#p63ee101ca4)" style="fill: none; stroke: #e40000; stroke-opacity: 0.8; stroke-width: 3; stroke-linecap: square"/>
    <defs>
     <path id="mb99f07c93c" d="M -4 4 
L 4 -4 
M -4 -4 
L 4 4 
" style="stroke: #e40000; stroke-opacity: 0.8"/>
    </defs>
    <g clip-path="url(#p63ee101ca4)">
     <use xlink:href="#mb99f07c93c" x="241.098811" y="28.063636" style="fill: #e40000; fill-opacity: 0.8; stroke: #e40000; stroke-opacity: 0.8"/>
     <use xlink:href="#mb99f07c93c" x="216.658882" y="47.030579" style="fill: #e40000; fill-opacity: 0.8; stroke: #e40000; stroke-opacity: 0.8"/>
     <use xlink:href="#mb99f07c93c" x="191.817383" y="65.997521" style="fill: #e40000; fill-opacity: 0.8; stroke: #e40000; stroke-opacity: 0.8"/>
     <use xlink:href="#mb99f07c93c" x="167.641213" y="84.964463" style="fill: #e40000; fill-opacity: 0.8; stroke: #e40000; stroke-opacity: 0.8"/>
     <use xlink:href="#mb99f07c93c" x="145.434775" y="103.931405" style="fill: #e40000; fill-opacity: 0.8; stroke: #e40000; stroke-opacity: 0.8"/>
     <use xlink:href="#mb99f07c93c" x="126.638763" y="122.898347" style="fill: #e40000; fill-opacity: 0.8; stroke: #e40000; stroke-opacity: 0.8"/>
     <use xlink:href="#mb99f07c93c" x="112.64544" y="141.865289" style="fill: #e40000; fill-opacity: 0.8; stroke: #e40000; stroke-opacity: 0.8"/>
     <use xlink:href="#mb99f07c93c" x="104.549741" y="160.832231" style="fill: #e40000; fill-opacity: 0.8; stroke: #e40000; stroke-opacity: 0.8"/>
     <use xlink:href="#mb99f07c93c" x="102.882146" y="179.799174" style="fill: #e40000; fill-opacity: 0.8; stroke: #e40000; stroke-opacity: 0.8"/>
     <use xlink:href="#mb99f07c93c" x="107.391189" y="198.766116" style="fill: #e40000; fill-opacity: 0.8; stroke: #e40000; stroke-opacity: 0.8"/>
     <use xlink:href="#mb99f07c93c" x="116.942039" y="217.733058" style="fill: #e40000; fill-opacity: 0.8; stroke: #e40000; stroke-opacity: 0.8"/>
     <use xlink:href="#mb99f07c93c" x="129.568479" y="236.7" style="fill: #e40000; fill-opacity: 0.8; stroke: #e40000; stroke-opacity: 0.8"/>
     <use xlink:href="#mb99f07c93c" x="142.679098" y="255.666942" style="fill: #e40000; fill-opacity: 0.8; stroke: #e40000; stroke-opacity: 0.8"/>
     <use xlink:href="#mb99f07c93c" x="153.397677" y="274.633884" style="fill: #e40000; fill-opacity: 0.8; stroke: #e40000; stroke-opacity: 0.8"/>
     <use xlink:href="#mb99f07c93c" x="159.014538" y="293.600826" style="fill: #e40000; fill-opacity: 0.8; stroke: #e40000; stroke-opacity: 0.8"/>
     <use xlink:href="#mb99f07c93c" x="157.510794" y="312.567769" style="fill: #e40000; fill-opacity: 0.8; stroke: #e40000; stroke-opacity: 0.8"/>
     <use xlink:href="#mb99f07c93c" x="148.056675" y="331.534711" style="fill: #e40000; fill-opacity: 0.8; stroke: #e40000; stroke-opacity: 0.8"/>
     <use xlink:href="#mb99f07c93c" x="131.310775" y="350.501653" style="fill: #e40000; fill-opacity: 0.8; stroke: #e40000; stroke-opacity: 0.8"/>
     <use xlink:href="#mb99f07c93c" x="109.342785" y="369.468595" style="fill: #e40000; fill-opacity: 0.8; stroke: #e40000; stroke-opacity: 0.8"/>
     <use xlink:href="#mb99f07c93c" x="85.121386" y="388.435537" style="fill: #e40000; fill-opacity: 0.8; stroke: #e40000; stroke-opacity: 0.8"/>
     <use xlink:href="#mb99f07c93c" x="61.706935" y="407.402479" style="fill: #e40000; fill-opacity: 0.8; stroke: #e40000; stroke-opacity: 0.8"/>
     <use xlink:href="#mb99f07c93c" x="41.453429" y="426.369421" style="fill: #e40000; fill-opacity: 0.8; stroke: #e40000; stroke-opacity: 0.8"/>
     <use xlink:href="#mb99f07c93c" x="25.539406" y="445.336364" style="fill: #e40000; fill-opacity: 0.8; stroke: #e40000; stroke-opacity: 0.8"/>
    </g>
   </g>
   <g id="patch_3">
    <path d="M 7.2 476.2 
L 277.2 476.2 
" style="fill: none; stroke: #000000; stroke-width: 2; stroke-linejoin: miter; stroke-linecap: square"/>
   </g>
  </g>
 </g>
 <defs>
  <clipPath id="p63ee101ca4">
   <rect x="7.2" y="7.2" width="270" height="459"/>
  </clipPath>
 </defs>
</svg>
