<?xml version="1.0" encoding="utf-8" standalone="no"?>
<!DOCTYPE svg PUBLIC "-//W3C//DTD SVG 1.1//EN"
  "http://www.w3.org/Graphics/SVG/1.1/DTD/svg11.dtd">
<svg xmlns:xlink="http://www.w3.org/1999/xlink" width="326.85pt" height="544.35625pt" viewBox="0 0 326.85 544.35625" xmlns="http://www.w3.org/2000/svg" version="1.1">
 <metadata>
  <rdf:RDF xmlns:dc="http://purl.org/dc/elements/1.1/" xmlns:cc="http://creativecommons.org/ns#" xmlns:rdf="http://www.w3.org/1999/02/22-rdf-syntax-ns#">
   <cc:Work>
    <dc:type rdf:resource="http://purl.org/dc/dcmitype/StillImage"/>
    <dc:date>2024-07-07T10:04:22.181095</dc:date>
    <dc:format>image/svg+xml</dc:format>
    <dc:creator>
     <cc:Agent>
      <dc:title>Matplotlib v3.8.0, https://matplotlib.org/</dc:title>
     </cc:Agent>
    </dc:creator>
   </cc:Work>
  </rdf:RDF>
 </metadata>
 <defs>
  <style type="text/css">*{stroke-linejoin: round; stroke-linecap: butt}</style>
 </defs>
 <g id="figure_1">
  <g id="patch_1">
   <path d="M 0 544.35625 
L 326.85 544.35625 
L 326.85 0 
L 0 0 
z
" style="fill: #ffffff"/>
  </g>
  <g id="axes_1">
   <g id="patch_2">
    <path d="M 49.65 466.2 
L 319.65 466.2 
L 319.65 7.2 
L 49.65 7.2 
z
" style="fill: #ffffff"/>
   </g>
   <g id="matplotlib.axis_1">
    <g id="xtick_1">
     <g id="line2d_1">
      <defs>
       <path id="mecc175ee96" d="M 0 0 
L 0 3.5 
" style="stroke: #000000; stroke-width: 1.5"/>
      </defs>
      <g>
       <use xlink:href="#mecc175ee96" x="83.945266" y="476.2" style="stroke: #000000; stroke-width: 1.5"/>
      </g>
     </g>
     <g id="text_1">
      <!-- 400 -->
      <g transform="translate(64.857766 498.396875) scale(0.2 -0.2)">
       <defs>
        <path id="DejaVuSans-34" d="M 2419 4116 
L 825 1625 
L 2419 1625 
L 2419 4116 
z
M 2253 4666 
L 3047 4666 
L 3047 1625 
L 3713 1625 
L 3713 1100 
L 3047 1100 
L 3047 0 
L 2419 0 
L 2419 1100 
L 313 1100 
L 313 1709 
L 2253 4666 
z
" transform="scale(0.015625)"/>
        <path id="DejaVuSans-30" d="M 2034 4250 
Q 1547 4250 1301 3770 
Q 1056 3291 1056 2328 
Q 1056 1369 1301 889 
Q 1547 409 2034 409 
Q 2525 409 2770 889 
Q 3016 1369 3016 2328 
Q 3016 3291 2770 3770 
Q 2525 4250 2034 4250 
z
M 2034 4750 
Q 2819 4750 3233 4129 
Q 3647 3509 3647 2328 
Q 3647 1150 3233 529 
Q 2819 -91 2034 -91 
Q 1250 -91 836 529 
Q 422 1150 422 2328 
Q 422 3509 836 4129 
Q 1250 4750 2034 4750 
z
" transform="scale(0.015625)"/>
       </defs>
       <use xlink:href="#DejaVuSans-34"/>
       <use xlink:href="#DejaVuSans-30" x="63.623047"/>
       <use xlink:href="#DejaVuSans-30" x="127.246094"/>
      </g>
     </g>
    </g>
    <g id="xtick_2">
     <g id="line2d_2">
      <g>
       <use xlink:href="#mecc175ee96" x="187.073706" y="476.2" style="stroke: #000000; stroke-width: 1.5"/>
      </g>
     </g>
     <g id="text_2">
      <!-- 600 -->
      <g transform="translate(167.986206 498.396875) scale(0.2 -0.2)">
       <defs>
        <path id="DejaVuSans-36" d="M 2113 2584 
Q 1688 2584 1439 2293 
Q 1191 2003 1191 1497 
Q 1191 994 1439 701 
Q 1688 409 2113 409 
Q 2538 409 2786 701 
Q 3034 994 3034 1497 
Q 3034 2003 2786 2293 
Q 2538 2584 2113 2584 
z
M 3366 4563 
L 3366 3988 
Q 3128 4100 2886 4159 
Q 2644 4219 2406 4219 
Q 1781 4219 1451 3797 
Q 1122 3375 1075 2522 
Q 1259 2794 1537 2939 
Q 1816 3084 2150 3084 
Q 2853 3084 3261 2657 
Q 3669 2231 3669 1497 
Q 3669 778 3244 343 
Q 2819 -91 2113 -91 
Q 1303 -91 875 529 
Q 447 1150 447 2328 
Q 447 3434 972 4092 
Q 1497 4750 2381 4750 
Q 2619 4750 2861 4703 
Q 3103 4656 3366 4563 
z
" transform="scale(0.015625)"/>
       </defs>
       <use xlink:href="#DejaVuSans-36"/>
       <use xlink:href="#DejaVuSans-30" x="63.623047"/>
       <use xlink:href="#DejaVuSans-30" x="127.246094"/>
      </g>
     </g>
    </g>
    <g id="xtick_3">
     <g id="line2d_3">
      <g>
       <use xlink:href="#mecc175ee96" x="290.202145" y="476.2" style="stroke: #000000; stroke-width: 1.5"/>
      </g>
     </g>
     <g id="text_3">
      <!-- 800 -->
      <g transform="translate(271.114645 498.396875) scale(0.2 -0.2)">
       <defs>
        <path id="DejaVuSans-38" d="M 2034 2216 
Q 1584 2216 1326 1975 
Q 1069 1734 1069 1313 
Q 1069 891 1326 650 
Q 1584 409 2034 409 
Q 2484 409 2743 651 
Q 3003 894 3003 1313 
Q 3003 1734 2745 1975 
Q 2488 2216 2034 2216 
z
M 1403 2484 
Q 997 2584 770 2862 
Q 544 3141 544 3541 
Q 544 4100 942 4425 
Q 1341 4750 2034 4750 
Q 2731 4750 3128 4425 
Q 3525 4100 3525 3541 
Q 3525 3141 3298 2862 
Q 3072 2584 2669 2484 
Q 3125 2378 3379 2068 
Q 3634 1759 3634 1313 
Q 3634 634 3220 271 
Q 2806 -91 2034 -91 
Q 1263 -91 848 271 
Q 434 634 434 1313 
Q 434 1759 690 2068 
Q 947 2378 1403 2484 
z
M 1172 3481 
Q 1172 3119 1398 2916 
Q 1625 2713 2034 2713 
Q 2441 2713 2670 2916 
Q 2900 3119 2900 3481 
Q 2900 3844 2670 4047 
Q 2441 4250 2034 4250 
Q 1625 4250 1398 4047 
Q 1172 3844 1172 3481 
z
" transform="scale(0.015625)"/>
       </defs>
       <use xlink:href="#DejaVuSans-38"/>
       <use xlink:href="#DejaVuSans-30" x="63.623047"/>
       <use xlink:href="#DejaVuSans-30" x="127.246094"/>
      </g>
     </g>
    </g>
    <g id="text_4">
     <!-- Resistivity  [$\Omega m$] -->
     <g transform="translate(90.35 532.75625) scale(0.2 -0.2)">
      <defs>
       <path id="DejaVuSans-Bold-52" d="M 2297 2597 
Q 2675 2597 2839 2737 
Q 3003 2878 3003 3200 
Q 3003 3519 2839 3656 
Q 2675 3794 2297 3794 
L 1791 3794 
L 1791 2597 
L 2297 2597 
z
M 1791 1766 
L 1791 0 
L 588 0 
L 588 4666 
L 2425 4666 
Q 3347 4666 3776 4356 
Q 4206 4047 4206 3378 
Q 4206 2916 3982 2619 
Q 3759 2322 3309 2181 
Q 3556 2125 3751 1926 
Q 3947 1728 4147 1325 
L 4800 0 
L 3519 0 
L 2950 1159 
Q 2778 1509 2601 1637 
Q 2425 1766 2131 1766 
L 1791 1766 
z
" transform="scale(0.015625)"/>
       <path id="DejaVuSans-Bold-65" d="M 4031 1759 
L 4031 1441 
L 1416 1441 
Q 1456 1047 1700 850 
Q 1944 653 2381 653 
Q 2734 653 3104 758 
Q 3475 863 3866 1075 
L 3866 213 
Q 3469 63 3072 -14 
Q 2675 -91 2278 -91 
Q 1328 -91 801 392 
Q 275 875 275 1747 
Q 275 2603 792 3093 
Q 1309 3584 2216 3584 
Q 3041 3584 3536 3087 
Q 4031 2591 4031 1759 
z
M 2881 2131 
Q 2881 2450 2695 2645 
Q 2509 2841 2209 2841 
Q 1884 2841 1681 2658 
Q 1478 2475 1428 2131 
L 2881 2131 
z
" transform="scale(0.015625)"/>
       <path id="DejaVuSans-Bold-73" d="M 3272 3391 
L 3272 2541 
Q 2913 2691 2578 2766 
Q 2244 2841 1947 2841 
Q 1628 2841 1473 2761 
Q 1319 2681 1319 2516 
Q 1319 2381 1436 2309 
Q 1553 2238 1856 2203 
L 2053 2175 
Q 2913 2066 3209 1816 
Q 3506 1566 3506 1031 
Q 3506 472 3093 190 
Q 2681 -91 1863 -91 
Q 1516 -91 1145 -36 
Q 775 19 384 128 
L 384 978 
Q 719 816 1070 734 
Q 1422 653 1784 653 
Q 2113 653 2278 743 
Q 2444 834 2444 1013 
Q 2444 1163 2330 1236 
Q 2216 1309 1875 1350 
L 1678 1375 
Q 931 1469 631 1722 
Q 331 1975 331 2491 
Q 331 3047 712 3315 
Q 1094 3584 1881 3584 
Q 2191 3584 2531 3537 
Q 2872 3491 3272 3391 
z
" transform="scale(0.015625)"/>
       <path id="DejaVuSans-Bold-69" d="M 538 3500 
L 1656 3500 
L 1656 0 
L 538 0 
L 538 3500 
z
M 538 4863 
L 1656 4863 
L 1656 3950 
L 538 3950 
L 538 4863 
z
" transform="scale(0.015625)"/>
       <path id="DejaVuSans-Bold-74" d="M 1759 4494 
L 1759 3500 
L 2913 3500 
L 2913 2700 
L 1759 2700 
L 1759 1216 
Q 1759 972 1856 886 
Q 1953 800 2241 800 
L 2816 800 
L 2816 0 
L 1856 0 
Q 1194 0 917 276 
Q 641 553 641 1216 
L 641 2700 
L 84 2700 
L 84 3500 
L 641 3500 
L 641 4494 
L 1759 4494 
z
" transform="scale(0.015625)"/>
       <path id="DejaVuSans-Bold-76" d="M 97 3500 
L 1216 3500 
L 2088 1081 
L 2956 3500 
L 4078 3500 
L 2700 0 
L 1472 0 
L 97 3500 
z
" transform="scale(0.015625)"/>
       <path id="DejaVuSans-Bold-79" d="M 78 3500 
L 1197 3500 
L 2138 1125 
L 2938 3500 
L 4056 3500 
L 2584 -331 
Q 2363 -916 2067 -1148 
Q 1772 -1381 1288 -1381 
L 641 -1381 
L 641 -647 
L 991 -647 
Q 1275 -647 1404 -556 
Q 1534 -466 1606 -231 
L 1638 -134 
L 78 3500 
z
" transform="scale(0.015625)"/>
       <path id="DejaVuSans-Bold-20" transform="scale(0.015625)"/>
       <path id="DejaVuSans-Bold-5b" d="M 550 4863 
L 2491 4863 
L 2491 4159 
L 1613 4159 
L 1613 -141 
L 2491 -141 
L 2491 -844 
L 550 -844 
L 550 4863 
z
" transform="scale(0.015625)"/>
       <path id="DejaVuSans-Bold-3a9" d="M 2719 4750 
Q 3841 4750 4480 4106 
Q 5119 3463 5119 2494 
Q 5119 1406 4306 909 
L 5266 909 
L 5266 0 
L 3125 0 
L 3125 975 
Q 3244 1041 3334 1131 
Q 3875 1678 3875 2466 
Q 3875 3066 3572 3472 
Q 3269 3878 2719 3878 
Q 2169 3878 1866 3472 
Q 1563 3066 1563 2466 
Q 1563 1678 2103 1131 
Q 2194 1041 2313 975 
L 2313 0 
L 172 0 
L 172 909 
L 1131 909 
Q 319 1406 319 2494 
Q 319 3463 958 4106 
Q 1597 4750 2719 4750 
z
" transform="scale(0.015625)"/>
       <path id="DejaVuSans-Bold-6d" d="M 3781 2919 
Q 3994 3244 4286 3414 
Q 4578 3584 4928 3584 
Q 5531 3584 5847 3212 
Q 6163 2841 6163 2131 
L 6163 0 
L 5038 0 
L 5038 1825 
Q 5041 1866 5042 1909 
Q 5044 1953 5044 2034 
Q 5044 2406 4934 2573 
Q 4825 2741 4581 2741 
Q 4263 2741 4089 2478 
Q 3916 2216 3909 1719 
L 3909 0 
L 2784 0 
L 2784 1825 
Q 2784 2406 2684 2573 
Q 2584 2741 2328 2741 
Q 2006 2741 1831 2477 
Q 1656 2213 1656 1722 
L 1656 0 
L 531 0 
L 531 3500 
L 1656 3500 
L 1656 2988 
Q 1863 3284 2130 3434 
Q 2397 3584 2719 3584 
Q 3081 3584 3359 3409 
Q 3638 3234 3781 2919 
z
" transform="scale(0.015625)"/>
       <path id="DejaVuSans-Bold-5d" d="M 2375 -844 
L 434 -844 
L 434 -141 
L 1313 -141 
L 1313 4159 
L 434 4159 
L 434 4863 
L 2375 4863 
L 2375 -844 
z
" transform="scale(0.015625)"/>
      </defs>
      <use xlink:href="#DejaVuSans-Bold-52" transform="translate(0 0.015625)"/>
      <use xlink:href="#DejaVuSans-Bold-65" transform="translate(77.001953 0.015625)"/>
      <use xlink:href="#DejaVuSans-Bold-73" transform="translate(144.824219 0.015625)"/>
      <use xlink:href="#DejaVuSans-Bold-69" transform="translate(204.345703 0.015625)"/>
      <use xlink:href="#DejaVuSans-Bold-73" transform="translate(238.623047 0.015625)"/>
      <use xlink:href="#DejaVuSans-Bold-74" transform="translate(298.144531 0.015625)"/>
      <use xlink:href="#DejaVuSans-Bold-69" transform="translate(345.947266 0.015625)"/>
      <use xlink:href="#DejaVuSans-Bold-76" transform="translate(380.224609 0.015625)"/>
      <use xlink:href="#DejaVuSans-Bold-69" transform="translate(445.410156 0.015625)"/>
      <use xlink:href="#DejaVuSans-Bold-74" transform="translate(479.6875 0.015625)"/>
      <use xlink:href="#DejaVuSans-Bold-79" transform="translate(527.490234 0.015625)"/>
      <use xlink:href="#DejaVuSans-Bold-20" transform="translate(592.675781 0.015625)"/>
      <use xlink:href="#DejaVuSans-Bold-20" transform="translate(627.490234 0.015625)"/>
      <use xlink:href="#DejaVuSans-Bold-5b" transform="translate(662.304688 0.015625)"/>
      <use xlink:href="#DejaVuSans-Bold-3a9" transform="translate(708.007812 0.015625)"/>
      <use xlink:href="#DejaVuSans-Bold-6d" transform="translate(793.017578 0.015625)"/>
      <use xlink:href="#DejaVuSans-Bold-5d" transform="translate(897.216797 0.015625)"/>
     </g>
    </g>
   </g>
   <g id="matplotlib.axis_2">
    <g id="ytick_1">
     <g id="line2d_4">
      <defs>
       <path id="m1405e4335c" d="M 0 0 
L -3.5 0 
" style="stroke: #000000; stroke-width: 1.5"/>
      </defs>
      <g>
       <use xlink:href="#m1405e4335c" x="39.65" y="28.063636" style="stroke: #000000; stroke-width: 1.5"/>
      </g>
     </g>
     <g id="text_5">
      <!-- 0 -->
      <g transform="translate(19.925 35.662074) scale(0.2 -0.2)">
       <use xlink:href="#DejaVuSans-30"/>
      </g>
     </g>
    </g>
    <g id="ytick_2">
     <g id="line2d_5">
      <g>
       <use xlink:href="#m1405e4335c" x="39.65" y="108.308392" style="stroke: #000000; stroke-width: 1.5"/>
      </g>
     </g>
     <g id="text_6">
      <!-- 5 -->
      <g transform="translate(19.925 115.906829) scale(0.2 -0.2)">
       <defs>
        <path id="DejaVuSans-35" d="M 691 4666 
L 3169 4666 
L 3169 4134 
L 1269 4134 
L 1269 2991 
Q 1406 3038 1543 3061 
Q 1681 3084 1819 3084 
Q 2600 3084 3056 2656 
Q 3513 2228 3513 1497 
Q 3513 744 3044 326 
Q 2575 -91 1722 -91 
Q 1428 -91 1123 -41 
Q 819 9 494 109 
L 494 744 
Q 775 591 1075 516 
Q 1375 441 1709 441 
Q 2250 441 2565 725 
Q 2881 1009 2881 1497 
Q 2881 1984 2565 2268 
Q 2250 2553 1709 2553 
Q 1456 2553 1204 2497 
Q 953 2441 691 2322 
L 691 4666 
z
" transform="scale(0.015625)"/>
       </defs>
       <use xlink:href="#DejaVuSans-35"/>
      </g>
     </g>
    </g>
    <g id="ytick_3">
     <g id="line2d_6">
      <g>
       <use xlink:href="#m1405e4335c" x="39.65" y="188.553147" style="stroke: #000000; stroke-width: 1.5"/>
      </g>
     </g>
     <g id="text_7">
      <!-- 10 -->
      <g transform="translate(7.2 196.151584) scale(0.2 -0.2)">
       <defs>
        <path id="DejaVuSans-31" d="M 794 531 
L 1825 531 
L 1825 4091 
L 703 3866 
L 703 4441 
L 1819 4666 
L 2450 4666 
L 2450 531 
L 3481 531 
L 3481 0 
L 794 0 
L 794 531 
z
" transform="scale(0.015625)"/>
       </defs>
       <use xlink:href="#DejaVuSans-31"/>
       <use xlink:href="#DejaVuSans-30" x="63.623047"/>
      </g>
     </g>
    </g>
    <g id="ytick_4">
     <g id="line2d_7">
      <g>
       <use xlink:href="#m1405e4335c" x="39.65" y="268.797902" style="stroke: #000000; stroke-width: 1.5"/>
      </g>
     </g>
     <g id="text_8">
      <!-- 15 -->
      <g transform="translate(7.2 276.39634) scale(0.2 -0.2)">
       <use xlink:href="#DejaVuSans-31"/>
       <use xlink:href="#DejaVuSans-35" x="63.623047"/>
      </g>
     </g>
    </g>
    <g id="ytick_5">
     <g id="line2d_8">
      <g>
       <use xlink:href="#m1405e4335c" x="39.65" y="349.042657" style="stroke: #000000; stroke-width: 1.5"/>
      </g>
     </g>
     <g id="text_9">
      <!-- 20 -->
      <g transform="translate(7.2 356.641095) scale(0.2 -0.2)">
       <defs>
        <path id="DejaVuSans-32" d="M 1228 531 
L 3431 531 
L 3431 0 
L 469 0 
L 469 531 
Q 828 903 1448 1529 
Q 2069 2156 2228 2338 
Q 2531 2678 2651 2914 
Q 2772 3150 2772 3378 
Q 2772 3750 2511 3984 
Q 2250 4219 1831 4219 
Q 1534 4219 1204 4116 
Q 875 4013 500 3803 
L 500 4441 
Q 881 4594 1212 4672 
Q 1544 4750 1819 4750 
Q 2544 4750 2975 4387 
Q 3406 4025 3406 3419 
Q 3406 3131 3298 2873 
Q 3191 2616 2906 2266 
Q 2828 2175 2409 1742 
Q 1991 1309 1228 531 
z
" transform="scale(0.015625)"/>
       </defs>
       <use xlink:href="#DejaVuSans-32"/>
       <use xlink:href="#DejaVuSans-30" x="63.623047"/>
      </g>
     </g>
    </g>
    <g id="ytick_6">
     <g id="line2d_9">
      <g>
       <use xlink:href="#m1405e4335c" x="39.65" y="429.287413" style="stroke: #000000; stroke-width: 1.5"/>
      </g>
     </g>
     <g id="text_10">
      <!-- 25 -->
      <g transform="translate(7.2 436.88585) scale(0.2 -0.2)">
       <use xlink:href="#DejaVuSans-32"/>
       <use xlink:href="#DejaVuSans-35" x="63.623047"/>
      </g>
     </g>
    </g>
   </g>
   <g id="line2d_10">
    <path d="M 130.184309 28.063636 
L 130.184309 36.258845 
L 150.259956 36.258845 
L 150.259956 44.454054 
L 150.259956 44.454054 
L 150.259956 52.649264 
L 150.259956 52.649264 
L 150.259956 60.844473 
L 150.259956 60.844473 
L 150.259956 69.039682 
L 150.259956 69.039682 
L 150.259956 77.234891 
L 150.259956 77.234891 
L 150.259956 85.4301 
L 217.78913 85.4301 
L 217.78913 93.625309 
L 217.78913 93.625309 
L 217.78913 101.820518 
L 217.78913 101.820518 
L 217.78913 110.015727 
L 217.78913 110.015727 
L 217.78913 118.210936 
L 217.78913 118.210936 
L 217.78913 126.406145 
L 217.78913 126.406145 
L 217.78913 134.601354 
L 217.78913 134.601354 
L 217.78913 142.796563 
L 217.78913 142.796563 
L 217.78913 150.991772 
L 217.78913 150.991772 
L 217.78913 159.186981 
L 217.78913 159.186981 
L 217.78913 167.38219 
L 217.78913 167.38219 
L 217.78913 175.577399 
L 217.78913 175.577399 
L 217.78913 183.772608 
L 217.78913 183.772608 
L 217.78913 191.967817 
L 217.78913 191.967817 
L 217.78913 200.163026 
L 217.78913 200.163026 
L 217.78913 208.358235 
L 217.78913 208.358235 
L 217.78913 216.553444 
L 217.78913 216.553444 
L 217.78913 224.748653 
L 217.78913 224.748653 
L 217.78913 232.943863 
L 217.78913 232.943863 
L 217.78913 241.139072 
L 217.78913 241.139072 
L 217.78913 249.334281 
L 217.78913 249.334281 
L 217.78913 257.52949 
L 217.78913 257.52949 
L 217.78913 265.724699 
L 217.78913 265.724699 
L 217.78913 273.919908 
L 217.78913 273.919908 
L 217.78913 282.115117 
L 217.78913 282.115117 
L 217.78913 290.310326 
L 217.78913 290.310326 
L 217.78913 298.505535 
L 217.78913 298.505535 
L 217.78913 306.700744 
L 217.78913 306.700744 
L 217.78913 314.895953 
L 217.78913 314.895953 
L 217.78913 323.091162 
L 217.78913 323.091162 
L 217.78913 331.286371 
L 217.78913 331.286371 
L 217.78913 339.48158 
L 217.78913 339.48158 
L 217.78913 347.676789 
L 217.78913 347.676789 
L 217.78913 355.871998 
L 217.78913 355.871998 
L 217.78913 364.067207 
L 76.454433 364.067207 
L 76.454433 372.262416 
L 76.454433 372.262416 
L 76.454433 380.457625 
L 76.454433 380.457625 
L 76.454433 388.652834 
L 76.454433 388.652834 
L 76.454433 396.848043 
L 76.454433 396.848043 
L 76.454433 405.043252 
L 76.454433 405.043252 
L 76.454433 413.238462 
L 76.454433 413.238462 
" clip-path="url(#pa86d99fe0f)" style="fill: none; stroke: #2f4f4f; stroke-width: 3; stroke-linecap: square"/>
   </g>
   <g id="line2d_11">
    <path d="M 137.74575 28.063636 
L 137.74575 36.258845 
L 140.655616 36.258845 
L 140.655616 44.454054 
L 180.074612 44.454054 
L 180.074612 52.649264 
L 180.074612 52.649264 
L 180.074612 60.844473 
L 180.074612 60.844473 
L 180.074612 69.039682 
L 180.074612 69.039682 
L 180.074612 77.234891 
L 180.074612 77.234891 
L 180.074612 85.4301 
L 180.074612 85.4301 
L 180.074612 93.625309 
L 180.074612 93.625309 
L 180.074612 101.820518 
L 180.074612 101.820518 
L 180.074612 110.015727 
L 229.039062 110.015727 
L 229.039062 118.210936 
L 229.039062 118.210936 
L 229.039062 126.406145 
L 229.039062 126.406145 
L 229.039062 134.601354 
L 229.039062 134.601354 
L 229.039062 142.796563 
L 229.039062 142.796563 
L 229.039062 150.991772 
L 229.039062 150.991772 
L 229.039062 159.186981 
L 229.039062 159.186981 
L 229.039062 167.38219 
L 229.039062 167.38219 
L 229.039062 175.577399 
L 229.039062 175.577399 
L 229.039062 183.772608 
L 229.039062 183.772608 
L 229.039062 191.967817 
L 229.039062 191.967817 
L 229.039062 200.163026 
L 229.039062 200.163026 
L 229.039062 208.358235 
L 229.039062 208.358235 
L 229.039062 216.553444 
L 229.039062 216.553444 
L 229.039062 224.748653 
L 229.039062 224.748653 
L 229.039062 232.943863 
L 229.039062 232.943863 
L 229.039062 241.139072 
L 229.039062 241.139072 
L 229.039062 249.334281 
L 229.039062 249.334281 
L 229.039062 257.52949 
L 229.039062 257.52949 
L 229.039062 265.724699 
L 229.039062 265.724699 
L 229.039062 273.919908 
L 229.039062 273.919908 
L 229.039062 282.115117 
L 229.039062 282.115117 
L 229.039062 290.310326 
L 229.039062 290.310326 
L 229.039062 298.505535 
L 229.039062 298.505535 
L 229.039062 306.700744 
L 229.039062 306.700744 
L 229.039062 314.895953 
L 229.039062 314.895953 
L 229.039062 323.091162 
L 229.039062 323.091162 
L 229.039062 331.286371 
L 229.039062 331.286371 
L 229.039062 339.48158 
L 75.908609 339.48158 
L 75.908609 347.676789 
L 75.908609 347.676789 
L 75.908609 355.871998 
L 75.908609 355.871998 
L 75.908609 364.067207 
L 75.908609 364.067207 
L 75.908609 372.262416 
L 75.908609 372.262416 
L 75.908609 380.457625 
L 75.908609 380.457625 
L 75.908609 388.652834 
L 75.908609 388.652834 
L 75.908609 396.848043 
L 75.908609 396.848043 
L 75.908609 405.043252 
L 75.908609 405.043252 
L 75.908609 413.238462 
L 75.908609 413.238462 
" clip-path="url(#pa86d99fe0f)" style="fill: none; stroke: #2f4f4f; stroke-opacity: 0.8; stroke-width: 3; stroke-linecap: square"/>
   </g>
   <g id="line2d_12">
    <path d="M 129.022383 28.063636 
L 129.022383 36.245455 
L 154.567098 36.245455 
L 154.567098 44.427273 
L 144.613101 44.427273 
L 144.613101 52.609091 
L 143.454857 52.609091 
L 143.454857 60.790909 
L 153.495088 60.790909 
L 153.495088 68.972727 
L 169.55531 68.972727 
L 169.55531 77.154545 
L 186.973435 77.154545 
L 186.973435 85.336364 
L 202.757864 85.336364 
L 202.757864 93.518182 
L 215.324975 93.518182 
L 215.324975 101.7 
L 224.116605 101.7 
L 224.116605 109.881818 
L 229.24722 109.881818 
L 229.24722 118.063636 
L 231.210431 118.063636 
L 231.210431 126.245455 
L 230.660295 126.245455 
L 230.660295 134.427273 
L 228.26777 134.427273 
L 228.26777 142.609091 
L 224.639738 142.609091 
L 224.639738 150.790909 
L 220.283153 150.790909 
L 220.283153 158.972727 
L 215.597368 158.972727 
L 215.597368 167.154545 
L 210.88181 167.154545 
L 210.88181 175.336364 
L 206.350428 175.336364 
L 206.350428 183.518182 
L 202.147742 183.518182 
L 202.147742 191.7 
L 198.363607 191.7 
L 198.363607 199.881818 
L 195.046143 199.881818 
L 195.046143 208.063636 
L 192.211842 208.063636 
L 192.211842 216.245455 
L 189.853591 216.245455 
L 189.853591 224.427273 
L 187.94681 224.427273 
L 187.94681 232.609091 
L 186.453638 232.609091 
L 186.453638 240.790909 
L 185.326521 240.790909 
L 185.326521 248.972727 
L 184.510475 248.972727 
L 184.510475 257.154545 
L 183.945013 257.154545 
L 183.945013 265.336364 
L 183.565771 265.336364 
L 183.565771 273.518182 
L 183.305999 273.518182 
L 183.305999 281.7 
L 183.098156 281.7 
L 183.098156 289.881818 
L 182.833505 289.881818 
L 182.833505 298.063636 
L 181.257435 298.063636 
L 181.257435 306.245455 
L 179.159271 306.245455 
L 179.159271 314.427273 
L 176.561736 314.427273 
L 176.561736 322.609091 
L 173.509395 322.609091 
L 173.509395 330.790909 
L 170.068686 330.790909 
L 170.068686 338.972727 
L 166.326251 338.972727 
L 166.326251 347.154545 
L 162.386108 347.154545 
L 162.386108 355.336364 
L 158.365238 355.336364 
L 158.365238 363.518182 
L 154.388241 363.518182 
L 154.388241 371.7 
L 150.581225 371.7 
L 150.581225 379.881818 
L 147.065486 379.881818 
L 147.065486 388.063636 
L 143.951081 388.063636 
L 143.951081 396.245455 
L 141.330886 396.245455 
L 141.330886 404.427273 
L 139.27554 404.427273 
L 139.27554 412.609091 
L 139.27554 412.609091 
L 139.27554 420.790909 
L 139.27554 420.790909 
L 139.27554 428.972727 
L 139.27554 428.972727 
L 139.27554 437.154545 
L 61.922727 437.154545 
L 61.922727 445.336364 
L 61.922727 445.336364 
" clip-path="url(#pa86d99fe0f)" style="fill: none; stroke: #2f4f4f; stroke-opacity: 0.6; stroke-width: 3; stroke-linecap: square"/>
   </g>
   <g id="line2d_13">
    <path d="M 133.838983 28.063636 
L 133.838983 36.088112 
L 139.181957 36.088112 
L 139.181957 44.112587 
L 146.139728 44.112587 
L 146.139728 52.137063 
L 160.339118 52.137063 
L 160.339118 60.161538 
L 167.309666 60.161538 
L 167.309666 68.186014 
L 183.997099 68.186014 
L 183.997099 76.21049 
L 190.416914 76.21049 
L 190.416914 84.234965 
L 181.76971 84.234965 
L 181.76971 92.259441 
L 193.535441 92.259441 
L 193.535441 100.283916 
L 177.4096 100.283916 
L 177.4096 108.308392 
L 189.111569 108.308392 
L 189.111569 116.332867 
L 153.687699 116.332867 
L 153.687699 124.357343 
L 227.100337 124.357343 
L 227.100337 132.381818 
L 208.221613 132.381818 
L 208.221613 140.406294 
L 218.10272 140.406294 
L 218.10272 148.430769 
L 246.462286 148.430769 
L 246.462286 156.455245 
L 244.201473 156.455245 
L 244.201473 164.47972 
L 254.910333 164.47972 
L 254.910333 172.504196 
L 271.476881 172.504196 
L 271.476881 180.528671 
L 215.062024 180.528671 
L 215.062024 188.553147 
L 238.059999 188.553147 
L 238.059999 196.577622 
L 257.281645 196.577622 
L 257.281645 204.602098 
L 250.938056 204.602098 
L 250.938056 212.626573 
L 272.882906 212.626573 
L 272.882906 220.651049 
L 263.854446 220.651049 
L 263.854446 228.675524 
L 307.377273 228.675524 
L 307.377273 236.7 
L 251.75363 236.7 
L 251.75363 244.724476 
L 215.84581 244.724476 
L 215.84581 252.748951 
L 206.536775 252.748951 
L 206.536775 260.773427 
L 254.851354 260.773427 
L 254.851354 268.797902 
L 219.178884 268.797902 
L 219.178884 276.822378 
L 205.501116 276.822378 
L 205.501116 284.846853 
L 194.381102 284.846853 
L 194.381102 292.871329 
L 135.449138 292.871329 
L 135.449138 300.895804 
L 137.252674 300.895804 
L 137.252674 308.92028 
L 154.458613 308.92028 
L 154.458613 316.944755 
L 127.636642 316.944755 
L 127.636642 324.969231 
L 115.210921 324.969231 
L 115.210921 332.993706 
L 144.326829 332.993706 
L 144.326829 341.018182 
L 114.356637 341.018182 
L 114.356637 349.042657 
L 110.25065 349.042657 
L 110.25065 357.067133 
L 106.822876 357.067133 
L 106.822876 365.091608 
L 105.613804 365.091608 
L 105.613804 373.116084 
L 98.390565 373.116084 
L 98.390565 381.140559 
L 112.315139 381.140559 
L 112.315139 389.165035 
L 108.541846 389.165035 
L 108.541846 397.18951 
L 104.483713 397.18951 
L 104.483713 405.213986 
L 78.212209 405.213986 
" clip-path="url(#pa86d99fe0f)" style="fill: none; stroke: #e40000; stroke-opacity: 0.8; stroke-width: 3; stroke-linecap: square"/>
   </g>
   <g id="patch_3">
    <path d="M 39.65 466.2 
L 39.65 7.2 
" style="fill: none; stroke: #000000; stroke-width: 2; stroke-linejoin: miter; stroke-linecap: square"/>
   </g>
   <g id="patch_4">
    <path d="M 49.65 476.2 
L 319.65 476.2 
" style="fill: none; stroke: #000000; stroke-width: 2; stroke-linejoin: miter; stroke-linecap: square"/>
   </g>
  </g>
 </g>
 <defs>
  <clipPath id="pa86d99fe0f">
   <rect x="49.65" y="7.2" width="270" height="459"/>
  </clipPath>
 </defs>
</svg>
