<?xml version="1.0" encoding="utf-8" standalone="no"?>
<!DOCTYPE svg PUBLIC "-//W3C//DTD SVG 1.1//EN"
  "http://www.w3.org/Graphics/SVG/1.1/DTD/svg11.dtd">
<svg xmlns:xlink="http://www.w3.org/1999/xlink" width="293.343687pt" height="544.35625pt" viewBox="0 0 293.343687 544.35625" xmlns="http://www.w3.org/2000/svg" version="1.1">
 <metadata>
  <rdf:RDF xmlns:dc="http://purl.org/dc/elements/1.1/" xmlns:cc="http://creativecommons.org/ns#" xmlns:rdf="http://www.w3.org/1999/02/22-rdf-syntax-ns#">
   <cc:Work>
    <dc:type rdf:resource="http://purl.org/dc/dcmitype/StillImage"/>
    <dc:date>2024-07-31T17:25:48.153843</dc:date>
    <dc:format>image/svg+xml</dc:format>
    <dc:creator>
     <cc:Agent>
      <dc:title>Matplotlib v3.8.0, https://matplotlib.org/</dc:title>
     </cc:Agent>
    </dc:creator>
   </cc:Work>
  </rdf:RDF>
 </metadata>
 <defs>
  <style type="text/css">*{stroke-linejoin: round; stroke-linecap: butt}</style>
 </defs>
 <g id="figure_1">
  <g id="patch_1">
   <path d="M 0 544.35625 
L 293.343687 544.35625 
L 293.343687 0 
L 0 0 
z
" style="fill: #ffffff"/>
  </g>
  <g id="axes_1">
   <g id="patch_2">
    <path d="M 7.2 466.2 
L 277.2 466.2 
L 277.2 7.2 
L 7.2 7.2 
z
" style="fill: #ffffff"/>
   </g>
   <g id="PolyCollection_1">
    <defs>
     <path id="m14a6be3db7" d="M 231.767962 -516.292614 
L 239.842042 -516.292614 
L 186.897962 -507.414471 
L 145.161341 -498.536327 
L 113.801895 -489.658184 
L 91.078951 -480.780041 
L 75.608373 -471.901898 
L 66.435653 -463.023755 
L 62.826009 -454.145612 
L 64.052873 -445.267469 
L 69.553481 -436.389325 
L 78.716501 -427.511182 
L 90.87125 -418.633039 
L 105.335552 -409.754896 
L 121.331135 -400.876753 
L 138.262886 -391.99861 
L 155.616589 -383.120467 
L 172.819385 -374.242324 
L 189.463915 -365.36418 
L 205.150757 -356.486037 
L 219.52875 -347.607894 
L 232.280334 -338.729751 
L 243.133339 -329.851608 
L 251.893882 -320.973465 
L 258.363328 -312.095322 
L 262.495373 -303.217178 
L 264.146331 -294.339035 
L 263.421591 -285.460892 
L 260.31974 -276.582749 
L 255.117462 -267.704606 
L 247.955458 -258.826463 
L 238.961854 -249.94832 
L 228.206764 -241.070176 
L 215.700824 -232.192033 
L 201.610747 -223.31389 
L 186.251931 -214.435747 
L 169.758234 -205.557604 
L 152.464536 -196.679461 
L 134.775394 -187.801318 
L 117.115118 -178.923175 
L 99.779494 -170.045031 
L 83.301441 -161.166888 
L 68.193455 -152.288745 
L 55.013505 -143.410602 
L 44.457715 -134.532459 
L 37.080754 -125.654316 
L 33.600938 -116.776173 
L 34.734547 -107.898029 
L 45.097955 -99.019886 
L 39.413963 -99.019886 
L 39.413963 -99.019886 
L 28.808667 -107.898029 
L 21.354174 -116.776173 
L 19.744659 -125.654316 
L 23.169319 -134.532459 
L 31.006835 -143.410602 
L 42.422921 -152.288745 
L 56.687419 -161.166888 
L 73.083134 -170.045031 
L 91.089258 -178.923175 
L 109.990587 -187.801318 
L 129.345846 -196.679461 
L 148.593897 -205.557604 
L 167.320532 -214.435747 
L 185.035944 -223.31389 
L 201.451317 -232.192033 
L 216.106322 -241.070176 
L 228.685262 -249.94832 
L 238.987615 -258.826463 
L 246.730932 -267.704606 
L 251.858145 -276.582749 
L 254.294804 -285.460892 
L 254.106053 -294.339035 
L 251.483992 -303.217178 
L 246.541222 -312.095322 
L 239.41274 -320.973465 
L 230.231987 -329.851608 
L 219.244694 -338.729751 
L 206.618369 -347.607894 
L 192.673294 -356.486037 
L 177.622839 -365.36418 
L 161.87044 -374.242324 
L 145.732598 -383.120467 
L 129.695686 -391.99861 
L 114.104391 -400.876753 
L 99.485395 -409.754896 
L 86.315378 -418.633039 
L 75.052524 -427.511182 
L 66.300825 -436.389325 
L 60.71815 -445.267469 
L 59.107461 -454.145612 
L 62.433173 -463.023755 
L 71.588045 -471.901898 
L 87.498769 -480.780041 
L 110.986185 -489.658184 
L 142.592936 -498.536327 
L 182.477629 -507.414471 
L 231.767962 -516.292614 
z
" style="stroke: #fecc5c; stroke-opacity: 0.5"/>
    </defs>
    <g clip-path="url(#p49eb3989bb)">
     <use xlink:href="#m14a6be3db7" x="0" y="544.35625" style="fill: #fecc5c; fill-opacity: 0.5; stroke: #fecc5c; stroke-opacity: 0.5"/>
    </g>
   </g>
   <g id="matplotlib.axis_1">
    <g id="xtick_1">
     <g id="line2d_1">
      <defs>
       <path id="m1c1ed1f3de" d="M 0 0 
L 0 3.5 
" style="stroke: #000000; stroke-width: 1.5"/>
      </defs>
      <g>
       <use xlink:href="#m1c1ed1f3de" x="90.979844" y="476.2" style="stroke: #000000; stroke-width: 1.5"/>
      </g>
     </g>
     <g id="text_1">
      <!-- 400 -->
      <g transform="translate(71.892344 498.396875) scale(0.2 -0.2)">
       <defs>
        <path id="DejaVuSans-34" d="M 2419 4116 
L 825 1625 
L 2419 1625 
L 2419 4116 
z
M 2253 4666 
L 3047 4666 
L 3047 1625 
L 3713 1625 
L 3713 1100 
L 3047 1100 
L 3047 0 
L 2419 0 
L 2419 1100 
L 313 1100 
L 313 1709 
L 2253 4666 
z
" transform="scale(0.015625)"/>
        <path id="DejaVuSans-30" d="M 2034 4250 
Q 1547 4250 1301 3770 
Q 1056 3291 1056 2328 
Q 1056 1369 1301 889 
Q 1547 409 2034 409 
Q 2525 409 2770 889 
Q 3016 1369 3016 2328 
Q 3016 3291 2770 3770 
Q 2525 4250 2034 4250 
z
M 2034 4750 
Q 2819 4750 3233 4129 
Q 3647 3509 3647 2328 
Q 3647 1150 3233 529 
Q 2819 -91 2034 -91 
Q 1250 -91 836 529 
Q 422 1150 422 2328 
Q 422 3509 836 4129 
Q 1250 4750 2034 4750 
z
" transform="scale(0.015625)"/>
       </defs>
       <use xlink:href="#DejaVuSans-34"/>
       <use xlink:href="#DejaVuSans-30" x="63.623047"/>
       <use xlink:href="#DejaVuSans-30" x="127.246094"/>
      </g>
     </g>
    </g>
    <g id="xtick_2">
     <g id="line2d_2">
      <g>
       <use xlink:href="#m1c1ed1f3de" x="179.018015" y="476.2" style="stroke: #000000; stroke-width: 1.5"/>
      </g>
     </g>
     <g id="text_2">
      <!-- 600 -->
      <g transform="translate(159.930515 498.396875) scale(0.2 -0.2)">
       <defs>
        <path id="DejaVuSans-36" d="M 2113 2584 
Q 1688 2584 1439 2293 
Q 1191 2003 1191 1497 
Q 1191 994 1439 701 
Q 1688 409 2113 409 
Q 2538 409 2786 701 
Q 3034 994 3034 1497 
Q 3034 2003 2786 2293 
Q 2538 2584 2113 2584 
z
M 3366 4563 
L 3366 3988 
Q 3128 4100 2886 4159 
Q 2644 4219 2406 4219 
Q 1781 4219 1451 3797 
Q 1122 3375 1075 2522 
Q 1259 2794 1537 2939 
Q 1816 3084 2150 3084 
Q 2853 3084 3261 2657 
Q 3669 2231 3669 1497 
Q 3669 778 3244 343 
Q 2819 -91 2113 -91 
Q 1303 -91 875 529 
Q 447 1150 447 2328 
Q 447 3434 972 4092 
Q 1497 4750 2381 4750 
Q 2619 4750 2861 4703 
Q 3103 4656 3366 4563 
z
" transform="scale(0.015625)"/>
       </defs>
       <use xlink:href="#DejaVuSans-36"/>
       <use xlink:href="#DejaVuSans-30" x="63.623047"/>
       <use xlink:href="#DejaVuSans-30" x="127.246094"/>
      </g>
     </g>
    </g>
    <g id="xtick_3">
     <g id="line2d_3">
      <g>
       <use xlink:href="#m1c1ed1f3de" x="267.056187" y="476.2" style="stroke: #000000; stroke-width: 1.5"/>
      </g>
     </g>
     <g id="text_3">
      <!-- 800 -->
      <g transform="translate(247.968687 498.396875) scale(0.2 -0.2)">
       <defs>
        <path id="DejaVuSans-38" d="M 2034 2216 
Q 1584 2216 1326 1975 
Q 1069 1734 1069 1313 
Q 1069 891 1326 650 
Q 1584 409 2034 409 
Q 2484 409 2743 651 
Q 3003 894 3003 1313 
Q 3003 1734 2745 1975 
Q 2488 2216 2034 2216 
z
M 1403 2484 
Q 997 2584 770 2862 
Q 544 3141 544 3541 
Q 544 4100 942 4425 
Q 1341 4750 2034 4750 
Q 2731 4750 3128 4425 
Q 3525 4100 3525 3541 
Q 3525 3141 3298 2862 
Q 3072 2584 2669 2484 
Q 3125 2378 3379 2068 
Q 3634 1759 3634 1313 
Q 3634 634 3220 271 
Q 2806 -91 2034 -91 
Q 1263 -91 848 271 
Q 434 634 434 1313 
Q 434 1759 690 2068 
Q 947 2378 1403 2484 
z
M 1172 3481 
Q 1172 3119 1398 2916 
Q 1625 2713 2034 2713 
Q 2441 2713 2670 2916 
Q 2900 3119 2900 3481 
Q 2900 3844 2670 4047 
Q 2441 4250 2034 4250 
Q 1625 4250 1398 4047 
Q 1172 3844 1172 3481 
z
" transform="scale(0.015625)"/>
       </defs>
       <use xlink:href="#DejaVuSans-38"/>
       <use xlink:href="#DejaVuSans-30" x="63.623047"/>
       <use xlink:href="#DejaVuSans-30" x="127.246094"/>
      </g>
     </g>
    </g>
    <g id="text_4">
     <!-- Resistivity  [$\Omega m$] -->
     <g transform="translate(47.9 532.75625) scale(0.2 -0.2)">
      <defs>
       <path id="DejaVuSans-Bold-52" d="M 2297 2597 
Q 2675 2597 2839 2737 
Q 3003 2878 3003 3200 
Q 3003 3519 2839 3656 
Q 2675 3794 2297 3794 
L 1791 3794 
L 1791 2597 
L 2297 2597 
z
M 1791 1766 
L 1791 0 
L 588 0 
L 588 4666 
L 2425 4666 
Q 3347 4666 3776 4356 
Q 4206 4047 4206 3378 
Q 4206 2916 3982 2619 
Q 3759 2322 3309 2181 
Q 3556 2125 3751 1926 
Q 3947 1728 4147 1325 
L 4800 0 
L 3519 0 
L 2950 1159 
Q 2778 1509 2601 1637 
Q 2425 1766 2131 1766 
L 1791 1766 
z
" transform="scale(0.015625)"/>
       <path id="DejaVuSans-Bold-65" d="M 4031 1759 
L 4031 1441 
L 1416 1441 
Q 1456 1047 1700 850 
Q 1944 653 2381 653 
Q 2734 653 3104 758 
Q 3475 863 3866 1075 
L 3866 213 
Q 3469 63 3072 -14 
Q 2675 -91 2278 -91 
Q 1328 -91 801 392 
Q 275 875 275 1747 
Q 275 2603 792 3093 
Q 1309 3584 2216 3584 
Q 3041 3584 3536 3087 
Q 4031 2591 4031 1759 
z
M 2881 2131 
Q 2881 2450 2695 2645 
Q 2509 2841 2209 2841 
Q 1884 2841 1681 2658 
Q 1478 2475 1428 2131 
L 2881 2131 
z
" transform="scale(0.015625)"/>
       <path id="DejaVuSans-Bold-73" d="M 3272 3391 
L 3272 2541 
Q 2913 2691 2578 2766 
Q 2244 2841 1947 2841 
Q 1628 2841 1473 2761 
Q 1319 2681 1319 2516 
Q 1319 2381 1436 2309 
Q 1553 2238 1856 2203 
L 2053 2175 
Q 2913 2066 3209 1816 
Q 3506 1566 3506 1031 
Q 3506 472 3093 190 
Q 2681 -91 1863 -91 
Q 1516 -91 1145 -36 
Q 775 19 384 128 
L 384 978 
Q 719 816 1070 734 
Q 1422 653 1784 653 
Q 2113 653 2278 743 
Q 2444 834 2444 1013 
Q 2444 1163 2330 1236 
Q 2216 1309 1875 1350 
L 1678 1375 
Q 931 1469 631 1722 
Q 331 1975 331 2491 
Q 331 3047 712 3315 
Q 1094 3584 1881 3584 
Q 2191 3584 2531 3537 
Q 2872 3491 3272 3391 
z
" transform="scale(0.015625)"/>
       <path id="DejaVuSans-Bold-69" d="M 538 3500 
L 1656 3500 
L 1656 0 
L 538 0 
L 538 3500 
z
M 538 4863 
L 1656 4863 
L 1656 3950 
L 538 3950 
L 538 4863 
z
" transform="scale(0.015625)"/>
       <path id="DejaVuSans-Bold-74" d="M 1759 4494 
L 1759 3500 
L 2913 3500 
L 2913 2700 
L 1759 2700 
L 1759 1216 
Q 1759 972 1856 886 
Q 1953 800 2241 800 
L 2816 800 
L 2816 0 
L 1856 0 
Q 1194 0 917 276 
Q 641 553 641 1216 
L 641 2700 
L 84 2700 
L 84 3500 
L 641 3500 
L 641 4494 
L 1759 4494 
z
" transform="scale(0.015625)"/>
       <path id="DejaVuSans-Bold-76" d="M 97 3500 
L 1216 3500 
L 2088 1081 
L 2956 3500 
L 4078 3500 
L 2700 0 
L 1472 0 
L 97 3500 
z
" transform="scale(0.015625)"/>
       <path id="DejaVuSans-Bold-79" d="M 78 3500 
L 1197 3500 
L 2138 1125 
L 2938 3500 
L 4056 3500 
L 2584 -331 
Q 2363 -916 2067 -1148 
Q 1772 -1381 1288 -1381 
L 641 -1381 
L 641 -647 
L 991 -647 
Q 1275 -647 1404 -556 
Q 1534 -466 1606 -231 
L 1638 -134 
L 78 3500 
z
" transform="scale(0.015625)"/>
       <path id="DejaVuSans-Bold-20" transform="scale(0.015625)"/>
       <path id="DejaVuSans-Bold-5b" d="M 550 4863 
L 2491 4863 
L 2491 4159 
L 1613 4159 
L 1613 -141 
L 2491 -141 
L 2491 -844 
L 550 -844 
L 550 4863 
z
" transform="scale(0.015625)"/>
       <path id="DejaVuSans-Bold-3a9" d="M 2719 4750 
Q 3841 4750 4480 4106 
Q 5119 3463 5119 2494 
Q 5119 1406 4306 909 
L 5266 909 
L 5266 0 
L 3125 0 
L 3125 975 
Q 3244 1041 3334 1131 
Q 3875 1678 3875 2466 
Q 3875 3066 3572 3472 
Q 3269 3878 2719 3878 
Q 2169 3878 1866 3472 
Q 1563 3066 1563 2466 
Q 1563 1678 2103 1131 
Q 2194 1041 2313 975 
L 2313 0 
L 172 0 
L 172 909 
L 1131 909 
Q 319 1406 319 2494 
Q 319 3463 958 4106 
Q 1597 4750 2719 4750 
z
" transform="scale(0.015625)"/>
       <path id="DejaVuSans-Bold-6d" d="M 3781 2919 
Q 3994 3244 4286 3414 
Q 4578 3584 4928 3584 
Q 5531 3584 5847 3212 
Q 6163 2841 6163 2131 
L 6163 0 
L 5038 0 
L 5038 1825 
Q 5041 1866 5042 1909 
Q 5044 1953 5044 2034 
Q 5044 2406 4934 2573 
Q 4825 2741 4581 2741 
Q 4263 2741 4089 2478 
Q 3916 2216 3909 1719 
L 3909 0 
L 2784 0 
L 2784 1825 
Q 2784 2406 2684 2573 
Q 2584 2741 2328 2741 
Q 2006 2741 1831 2477 
Q 1656 2213 1656 1722 
L 1656 0 
L 531 0 
L 531 3500 
L 1656 3500 
L 1656 2988 
Q 1863 3284 2130 3434 
Q 2397 3584 2719 3584 
Q 3081 3584 3359 3409 
Q 3638 3234 3781 2919 
z
" transform="scale(0.015625)"/>
       <path id="DejaVuSans-Bold-5d" d="M 2375 -844 
L 434 -844 
L 434 -141 
L 1313 -141 
L 1313 4159 
L 434 4159 
L 434 4863 
L 2375 4863 
L 2375 -844 
z
" transform="scale(0.015625)"/>
      </defs>
      <use xlink:href="#DejaVuSans-Bold-52" transform="translate(0 0.015625)"/>
      <use xlink:href="#DejaVuSans-Bold-65" transform="translate(77.001953 0.015625)"/>
      <use xlink:href="#DejaVuSans-Bold-73" transform="translate(144.824219 0.015625)"/>
      <use xlink:href="#DejaVuSans-Bold-69" transform="translate(204.345703 0.015625)"/>
      <use xlink:href="#DejaVuSans-Bold-73" transform="translate(238.623047 0.015625)"/>
      <use xlink:href="#DejaVuSans-Bold-74" transform="translate(298.144531 0.015625)"/>
      <use xlink:href="#DejaVuSans-Bold-69" transform="translate(345.947266 0.015625)"/>
      <use xlink:href="#DejaVuSans-Bold-76" transform="translate(380.224609 0.015625)"/>
      <use xlink:href="#DejaVuSans-Bold-69" transform="translate(445.410156 0.015625)"/>
      <use xlink:href="#DejaVuSans-Bold-74" transform="translate(479.6875 0.015625)"/>
      <use xlink:href="#DejaVuSans-Bold-79" transform="translate(527.490234 0.015625)"/>
      <use xlink:href="#DejaVuSans-Bold-20" transform="translate(592.675781 0.015625)"/>
      <use xlink:href="#DejaVuSans-Bold-20" transform="translate(627.490234 0.015625)"/>
      <use xlink:href="#DejaVuSans-Bold-5b" transform="translate(662.304688 0.015625)"/>
      <use xlink:href="#DejaVuSans-Bold-3a9" transform="translate(708.007812 0.015625)"/>
      <use xlink:href="#DejaVuSans-Bold-6d" transform="translate(793.017578 0.015625)"/>
      <use xlink:href="#DejaVuSans-Bold-5d" transform="translate(897.216797 0.015625)"/>
     </g>
    </g>
   </g>
   <g id="line2d_4">
    <path d="M 237.250495 28.063636 
L 185.864824 36.941779 
L 144.748136 45.819923 
L 112.904831 54.698066 
L 89.380021 63.576209 
L 73.259521 72.454352 
L 63.669857 81.332495 
L 59.778263 90.210638 
L 60.792678 99.088781 
L 65.961753 107.966925 
L 74.574844 116.845068 
L 85.962015 125.723211 
L 99.49404 134.601354 
L 114.582399 143.479497 
L 130.679282 152.35764 
L 147.277583 161.235783 
L 163.910908 170.113926 
L 180.15357 178.99207 
L 195.620588 187.870213 
L 209.967691 196.748356 
L 222.891315 205.626499 
L 234.128605 214.504642 
L 243.457411 223.382785 
L 250.696295 232.260928 
L 255.704524 241.139072 
L 258.382074 250.017215 
L 258.669628 258.895358 
L 256.548579 267.773501 
L 252.041026 276.651644 
L 245.209777 285.529787 
L 236.158346 294.40793 
L 225.030959 303.286074 
L 212.012545 312.164217 
L 197.328744 321.04236 
L 181.245904 329.920503 
L 164.071079 338.798646 
L 146.152033 347.676789 
L 127.877236 356.554932 
L 109.675868 365.433075 
L 92.017816 374.311219 
L 75.413673 383.189362 
L 60.414744 392.067505 
L 47.613038 400.945648 
L 37.641274 409.823791 
L 31.172879 418.701934 
L 28.921987 427.580077 
L 31.64344 436.458221 
L 40.13279 445.336364 
" clip-path="url(#p49eb3989bb)" style="fill: none; stroke: #fecc5c; stroke-opacity: 0.3; stroke-width: 2; stroke-linecap: square"/>
   </g>
   <g id="line2d_5">
    <path d="M 232.453364 28.063636 
L 183.154065 36.941779 
L 143.763101 45.819923 
L 113.314893 54.698066 
L 90.883522 63.576209 
L 75.582725 72.454352 
L 66.5659 81.332495 
L 63.026102 90.210638 
L 64.196044 99.088781 
L 69.348098 107.966925 
L 77.794294 116.845068 
L 88.88632 125.723211 
L 102.015523 134.601354 
L 116.612908 143.479497 
L 132.149138 152.35764 
L 148.134535 161.235783 
L 164.119079 170.113926 
L 179.692408 178.99207 
L 194.483819 187.870213 
L 208.162267 196.748356 
L 220.436365 205.626499 
L 231.054385 214.504642 
L 239.804256 223.382785 
L 246.513567 232.260928 
L 251.049564 241.139072 
L 253.319153 250.017215 
L 253.268897 258.895358 
L 250.885016 267.773501 
L 246.193392 276.651644 
L 239.259561 285.529787 
L 230.188722 294.40793 
L 219.125727 303.286074 
L 206.255092 312.164217 
L 191.800987 321.04236 
L 176.027241 329.920503 
L 159.237344 338.798646 
L 141.774442 347.676789 
L 124.021338 356.554932 
L 106.400498 365.433075 
L 89.374041 374.311219 
L 73.443748 383.189362 
L 59.151056 392.067505 
L 47.077063 400.945648 
L 37.842523 409.823791 
L 32.107848 418.701934 
L 30.573111 427.580077 
L 33.978041 436.458221 
L 43.102026 445.336364 
" clip-path="url(#p49eb3989bb)" style="fill: none; stroke: #fecc5c; stroke-opacity: 0.3; stroke-width: 2; stroke-linecap: square"/>
   </g>
   <g id="line2d_6">
    <path d="M 233.998794 28.063636 
L 184.622053 36.941779 
L 144.998441 45.819923 
L 114.193615 54.698066 
L 91.310986 63.576209 
L 75.491714 72.454352 
L 65.91471 81.332495 
L 61.796639 90.210638 
L 62.391915 99.088781 
L 66.992704 107.966925 
L 74.928924 116.845068 
L 85.568244 125.723211 
L 98.316084 134.601354 
L 112.615615 143.479497 
L 127.947762 152.35764 
L 143.831198 161.235783 
L 159.822348 170.113926 
L 175.515391 178.99207 
L 190.542254 187.870213 
L 204.572618 196.748356 
L 217.313914 205.626499 
L 228.511324 214.504642 
L 237.947783 223.382785 
L 245.443975 232.260928 
L 250.858338 241.139072 
L 254.087059 250.017215 
L 255.064079 258.895358 
L 253.761087 267.773501 
L 250.187527 276.651644 
L 244.390592 285.529787 
L 236.455226 294.40793 
L 226.504126 303.286074 
L 214.69774 312.164217 
L 201.234267 321.04236 
L 186.349657 329.920503 
L 170.317613 338.798646 
L 153.449587 347.676789 
L 136.094783 356.554932 
L 118.640159 365.433075 
L 101.51042 374.311219 
L 85.168026 383.189362 
L 70.113187 392.067505 
L 56.883865 400.945648 
L 46.055771 409.823791 
L 38.24237 418.701934 
L 34.094878 427.580077 
L 34.302262 436.458221 
L 39.591239 445.336364 
" clip-path="url(#p49eb3989bb)" style="fill: none; stroke: #fecc5c; stroke-opacity: 0.3; stroke-width: 2; stroke-linecap: square"/>
   </g>
   <g id="line2d_7">
    <path d="M 233.424602 28.063636 
L 183.128423 36.941779 
L 143.053167 45.819923 
L 112.195163 54.698066 
L 89.592221 63.576209 
L 74.323628 72.454352 
L 65.510156 81.332495 
L 62.314054 90.210638 
L 63.939051 99.088781 
L 69.630358 107.966925 
L 78.674666 116.845068 
L 90.400145 125.723211 
L 104.176447 134.601354 
L 119.414702 143.479497 
L 135.567523 152.35764 
L 152.129 161.235783 
L 168.634707 170.113926 
L 184.661695 178.99207 
L 199.828497 187.870213 
L 213.795126 196.748356 
L 226.263075 205.626499 
L 236.975317 214.504642 
L 245.716305 223.382785 
L 252.311974 232.260928 
L 256.629737 241.139072 
L 258.57849 250.017215 
L 258.108605 258.895358 
L 255.211939 267.773501 
L 249.921826 276.651644 
L 242.313081 285.529787 
L 232.502 294.40793 
L 220.64636 303.286074 
L 206.945415 312.164217 
L 191.639902 321.04236 
L 175.012038 329.920503 
L 157.38552 338.798646 
L 139.125524 347.676789 
L 120.638709 356.554932 
L 102.37321 365.433075 
L 84.818647 374.311219 
L 68.506118 383.189362 
L 54.0082 392.067505 
L 41.938952 400.945648 
L 32.953913 409.823791 
L 27.750103 418.701934 
L 27.06602 427.580077 
L 31.681643 436.458221 
L 42.418434 445.336364 
" clip-path="url(#p49eb3989bb)" style="fill: none; stroke: #fecc5c; stroke-opacity: 0.3; stroke-width: 2; stroke-linecap: square"/>
   </g>
   <g id="line2d_8">
    <path d="M 238.599626 28.063636 
L 186.288984 36.941779 
L 144.552936 45.819923 
L 112.356579 54.698066 
L 88.707688 63.576209 
L 72.656713 72.454352 
L 63.296785 81.332495 
L 59.763711 90.210638 
L 61.235973 99.088781 
L 66.934734 107.966925 
L 76.123832 116.845068 
L 88.109785 125.723211 
L 102.241787 134.601354 
L 117.911707 143.479497 
L 134.554097 152.35764 
L 151.646181 161.235783 
L 168.707863 170.113926 
L 185.301725 178.99207 
L 201.033026 187.870213 
L 215.549702 196.748356 
L 228.542366 205.626499 
L 239.744309 214.504642 
L 248.9315 223.382785 
L 255.922585 232.260928 
L 260.578887 241.139072 
L 262.804408 250.017215 
L 262.545825 258.895358 
L 259.792495 267.773501 
L 254.57645 276.651644 
L 246.972402 285.529787 
L 237.097738 294.40793 
L 225.112525 303.286074 
L 211.219505 312.164217 
L 195.664099 321.04236 
L 178.734405 329.920503 
L 160.761199 338.798646 
L 142.117933 347.676789 
L 123.220738 356.554932 
L 104.528421 365.433075 
L 86.542469 374.311219 
L 69.807044 383.189362 
L 54.908986 392.067505 
L 42.477812 400.945648 
L 33.185718 409.823791 
L 27.747577 418.701934 
L 26.920939 427.580077 
L 31.506031 436.458221 
L 42.345758 445.336364 
" clip-path="url(#p49eb3989bb)" style="fill: none; stroke: #fecc5c; stroke-opacity: 0.3; stroke-width: 2; stroke-linecap: square"/>
   </g>
   <g id="line2d_9">
    <path d="M 234.51712 28.063636 
L 184.35799 36.941779 
L 144.223795 45.819923 
L 113.144944 54.698066 
L 90.191362 63.576209 
L 74.472492 72.454352 
L 65.137295 81.332495 
L 61.374249 90.210638 
L 62.411351 99.088781 
L 67.516114 107.966925 
L 75.995569 116.845068 
L 87.196265 125.723211 
L 100.504268 134.601354 
L 115.345164 143.479497 
L 131.184052 152.35764 
L 147.525554 161.235783 
L 163.913805 170.113926 
L 179.93246 178.99207 
L 195.204691 187.870213 
L 209.393188 196.748356 
L 222.200159 205.626499 
L 233.367327 214.504642 
L 242.675937 223.382785 
L 249.946747 232.260928 
L 255.040036 241.139072 
L 257.8556 250.017215 
L 258.332751 258.895358 
L 256.450319 267.773501 
L 252.226653 276.651644 
L 245.71962 285.529787 
L 237.026601 294.40793 
L 226.284499 303.286074 
L 213.669732 312.164217 
L 199.398237 321.04236 
L 183.725466 329.920503 
L 166.946392 338.798646 
L 149.395504 347.676789 
L 131.446809 356.554932 
L 113.51383 365.433075 
L 96.04961 374.311219 
L 79.546709 383.189362 
L 64.537203 392.067505 
L 51.592687 400.945648 
L 41.324274 409.823791 
L 34.382594 418.701934 
L 31.457793 427.580077 
L 33.279538 436.458221 
L 40.617012 445.336364 
" clip-path="url(#p49eb3989bb)" style="fill: none; stroke: #fecc5c; stroke-opacity: 0.3; stroke-width: 2; stroke-linecap: square"/>
   </g>
   <g id="line2d_10">
    <path d="M 237.925206 28.063636 
L 186.138435 36.941779 
L 144.760315 45.819923 
L 112.777567 54.698066 
L 89.218476 63.576209 
L 73.152897 72.454352 
L 63.692252 81.332495 
L 59.98953 90.210638 
L 61.239288 99.088781 
L 66.677651 107.966925 
L 75.582311 116.845068 
L 87.272528 125.723211 
L 101.109129 134.601354 
L 116.494509 143.479497 
L 132.87263 152.35764 
L 149.729023 161.235783 
L 166.590785 170.113926 
L 183.026581 178.99207 
L 198.646644 187.870213 
L 213.102774 196.748356 
L 226.08834 205.626499 
L 237.338276 214.504642 
L 246.629086 223.382785 
L 253.77884 232.260928 
L 258.647177 241.139072 
L 261.135303 250.017215 
L 261.185989 258.895358 
L 258.783579 267.773501 
L 253.953979 276.651644 
L 246.764667 285.529787 
L 237.324685 294.40793 
L 225.784646 303.286074 
L 212.336727 312.164217 
L 197.214675 321.04236 
L 180.693805 329.920503 
L 163.090997 338.798646 
L 144.7647 347.676789 
L 126.114932 356.554932 
L 107.583277 365.433075 
L 89.652886 374.311219 
L 72.848479 383.189362 
L 57.736342 392.067505 
L 44.924331 400.945648 
L 35.061867 409.823791 
L 28.839939 418.701934 
L 26.991107 427.580077 
L 30.289493 436.458221 
L 39.55079 445.336364 
" clip-path="url(#p49eb3989bb)" style="fill: none; stroke: #fecc5c; stroke-opacity: 0.3; stroke-width: 2; stroke-linecap: square"/>
   </g>
   <g id="line2d_11">
    <path d="M 239.079881 28.063636 
L 186.697197 36.941779 
L 144.929946 45.819923 
L 112.735613 54.698066 
L 89.114824 63.576209 
L 73.111349 72.454352 
L 63.812096 81.332495 
L 60.347116 90.210638 
L 61.889601 99.088781 
L 67.655885 107.966925 
L 76.905441 116.845068 
L 88.940886 125.723211 
L 103.107977 134.601354 
L 118.795612 143.479497 
L 135.435831 152.35764 
L 152.503815 161.235783 
L 169.517886 170.113926 
L 186.039508 178.99207 
L 201.673285 187.870213 
L 216.066963 196.748356 
L 228.91143 205.626499 
L 239.940714 214.504642 
L 248.931986 223.382785 
L 255.705555 232.260928 
L 260.124876 241.139072 
L 262.096541 250.017215 
L 261.570286 258.895358 
L 258.538987 267.773501 
L 253.038661 276.651644 
L 245.148467 285.529787 
L 234.990706 294.40793 
L 222.730819 303.286074 
L 208.577388 312.164217 
L 192.782137 321.04236 
L 175.639932 329.920503 
L 157.488779 338.798646 
L 138.709827 347.676789 
L 119.727363 356.554932 
L 101.008818 365.433075 
L 83.064765 374.311219 
L 66.448915 383.189362 
L 51.758124 392.067505 
L 39.632386 400.945648 
L 30.754839 409.823791 
L 25.851759 418.701934 
L 25.692568 427.580077 
L 31.089824 436.458221 
L 42.899231 445.336364 
" clip-path="url(#p49eb3989bb)" style="fill: none; stroke: #fecc5c; stroke-opacity: 0.3; stroke-width: 2; stroke-linecap: square"/>
   </g>
   <g id="line2d_12">
    <path d="M 240.781919 28.063636 
L 187.6706 36.941779 
L 145.288329 45.819923 
L 112.583841 54.698066 
L 88.549308 63.576209 
L 72.220339 72.454352 
L 62.675976 81.332495 
L 59.038699 90.210638 
L 60.474423 99.088781 
L 66.192498 107.966925 
L 75.445712 116.845068 
L 87.530284 125.723211 
L 101.785875 134.601354 
L 117.595577 143.479497 
L 134.38592 152.35764 
L 151.626868 161.235783 
L 168.831823 170.113926 
L 185.557621 178.99207 
L 201.404534 187.870213 
L 216.01627 196.748356 
L 229.079973 205.626499 
L 240.326223 214.504642 
L 249.529035 223.382785 
L 256.50586 232.260928 
L 261.117583 241.139072 
L 263.268529 250.017215 
L 262.906455 258.895358 
L 260.022554 267.773501 
L 254.651457 276.651644 
L 246.871229 285.529787 
L 236.803371 294.40793 
L 224.612819 303.286074 
L 210.507948 312.164217 
L 194.740563 321.04236 
L 177.605911 329.920503 
L 159.44267 338.798646 
L 140.632957 347.676789 
L 121.602322 356.554932 
L 102.819752 365.433075 
L 84.79767 374.311219 
L 68.091935 383.189362 
L 53.301841 392.067505 
L 41.070117 400.945648 
L 32.08293 409.823791 
L 27.069881 418.701934 
L 26.804007 427.580077 
L 32.10178 436.458221 
L 43.823111 445.336364 
" clip-path="url(#p49eb3989bb)" style="fill: none; stroke: #fecc5c; stroke-opacity: 0.3; stroke-width: 2; stroke-linecap: square"/>
   </g>
   <g id="line2d_13">
    <path d="M 237.594928 28.063636 
L 185.193095 36.941779 
L 143.513839 45.819923 
L 111.49606 54.698066 
L 88.122851 63.576209 
L 72.421503 72.454352 
L 63.463503 81.332495 
L 60.364532 90.210638 
L 62.284469 99.088781 
L 68.427388 107.966925 
L 78.041559 116.845068 
L 90.419448 125.723211 
L 104.897716 134.601354 
L 120.857223 143.479497 
L 137.723021 152.35764 
L 154.96436 161.235783 
L 172.094686 170.113926 
L 188.67164 178.99207 
L 204.297061 187.870213 
L 218.616981 196.748356 
L 231.32163 205.626499 
L 242.145434 214.504642 
L 250.867013 223.382785 
L 257.309184 232.260928 
L 261.338962 241.139072 
L 262.867554 250.017215 
L 261.850366 258.895358 
L 258.286999 267.773501 
L 252.22125 276.651644 
L 243.741112 285.529787 
L 232.978773 294.40793 
L 220.110617 303.286074 
L 205.357227 312.164217 
L 188.983377 321.04236 
L 171.298041 329.920503 
L 152.654388 338.798646 
L 133.44978 347.676789 
L 114.12578 356.554932 
L 95.168142 365.433075 
L 77.106819 374.311219 
L 60.51596 383.189362 
L 46.013907 392.067505 
L 34.263202 400.945648 
L 25.97058 409.823791 
L 21.886972 418.701934 
L 22.807508 427.580077 
L 29.571509 436.458221 
L 43.062497 445.336364 
" clip-path="url(#p49eb3989bb)" style="fill: none; stroke: #fecc5c; stroke-opacity: 0.3; stroke-width: 2; stroke-linecap: square"/>
   </g>
   <g id="line2d_14">
    <path d="M 238.864033 28.063636 
L 185.663121 36.941779 
L 143.277535 45.819923 
L 110.644017 54.698066 
L 86.743338 63.576209 
L 70.600301 72.454352 
L 61.283736 81.332495 
L 57.906507 90.210638 
L 59.625507 99.088781 
L 65.641659 107.966925 
L 75.199915 116.845068 
L 87.58926 125.723211 
L 102.142708 134.601354 
L 118.237302 143.479497 
L 135.294117 152.35764 
L 152.778257 161.235783 
L 170.198859 170.113926 
L 187.109087 178.99207 
L 203.106136 187.870213 
L 217.831233 196.748356 
L 230.969633 205.626499 
L 242.250623 214.504642 
L 251.44752 223.382785 
L 258.377671 232.260928 
L 262.902453 241.139072 
L 264.927273 250.017215 
L 264.401569 258.895358 
L 261.31881 267.773501 
L 255.716493 276.651644 
L 247.676148 285.529787 
L 237.323333 294.40793 
L 224.827637 303.286074 
L 210.402681 312.164217 
L 194.306113 321.04236 
L 176.839614 329.920503 
L 158.348895 338.798646 
L 139.223694 347.676789 
L 119.897785 356.554932 
L 100.848967 365.433075 
L 82.599073 374.311219 
L 65.713964 383.189362 
L 50.803531 392.067505 
L 38.521698 400.945648 
L 29.566417 409.823791 
L 24.67967 418.701934 
L 24.647472 427.580077 
L 30.299864 436.458221 
L 42.510921 445.336364 
" clip-path="url(#p49eb3989bb)" style="fill: none; stroke: #fecc5c; stroke-opacity: 0.3; stroke-width: 2; stroke-linecap: square"/>
   </g>
   <g id="line2d_15">
    <path d="M 234.072578 28.063636 
L 183.755893 36.941779 
L 143.528574 45.819923 
L 112.412549 54.698066 
L 89.469686 63.576209 
L 73.801799 72.454352 
L 64.550646 81.332495 
L 60.897927 90.210638 
L 62.065285 99.088781 
L 67.314309 107.966925 
L 75.946531 116.845068 
L 87.303424 125.723211 
L 100.766409 134.601354 
L 115.756846 143.479497 
L 131.736043 152.35764 
L 148.205247 161.235783 
L 164.705653 170.113926 
L 180.818397 178.99207 
L 196.164559 187.870213 
L 210.405163 196.748356 
L 223.241177 205.626499 
L 234.413511 214.504642 
L 243.70302 223.382785 
L 250.930503 232.260928 
L 255.956701 241.139072 
L 258.6823 250.017215 
L 259.047928 258.895358 
L 257.03416 267.773501 
L 252.661509 276.651644 
L 245.990438 285.529787 
L 237.121349 294.40793 
L 226.194589 303.286074 
L 213.390449 312.164217 
L 198.929163 321.04236 
L 183.07091 329.920503 
L 166.11581 338.798646 
L 148.403929 347.676789 
L 130.315275 356.554932 
L 112.269801 365.433075 
L 94.727403 374.311219 
L 78.18792 383.189362 
L 63.191136 392.067505 
L 50.316777 400.945648 
L 40.184513 409.823791 
L 33.453959 418.701934 
L 30.824671 427.580077 
L 33.036152 436.458221 
L 40.867846 445.336364 
" clip-path="url(#p49eb3989bb)" style="fill: none; stroke: #fecc5c; stroke-opacity: 0.3; stroke-width: 2; stroke-linecap: square"/>
   </g>
   <g id="line2d_16">
    <path d="M 232.420844 28.063636 
L 182.818356 36.941779 
L 143.144043 45.819923 
L 112.438136 54.698066 
L 89.779932 63.576209 
L 74.287803 72.454352 
L 65.11919 81.332495 
L 61.470609 90.210638 
L 62.577643 99.088781 
L 67.714951 107.966925 
L 76.196259 116.845068 
L 87.374367 125.723211 
L 100.641148 134.601354 
L 115.427542 143.479497 
L 131.203565 152.35764 
L 147.478301 161.235783 
L 163.799908 170.113926 
L 179.755615 178.99207 
L 194.97172 187.870213 
L 209.113595 196.748356 
L 221.885684 205.626499 
L 233.0315 214.504642 
L 242.333629 223.382785 
L 249.613728 232.260928 
L 254.732526 241.139072 
L 257.589824 250.017215 
L 258.124492 258.895358 
L 256.314474 267.773501 
L 252.176784 276.651644 
L 245.767508 285.529787 
L 237.181803 294.40793 
L 226.5539 303.286074 
L 214.057097 312.164217 
L 199.903767 321.04236 
L 184.345353 329.920503 
L 167.67237 338.798646 
L 150.214403 347.676789 
L 132.340111 356.554932 
L 114.457224 365.433075 
L 97.01254 374.311219 
L 80.491933 383.189362 
L 65.420346 392.067505 
L 52.361794 400.945648 
L 41.919363 409.823791 
L 34.735211 418.701934 
L 31.490569 427.580077 
L 32.905736 436.458221 
L 39.740084 445.336364 
" clip-path="url(#p49eb3989bb)" style="fill: none; stroke: #fecc5c; stroke-opacity: 0.3; stroke-width: 2; stroke-linecap: square"/>
   </g>
   <g id="line2d_17">
    <path d="M 236.183555 28.063636 
L 184.114625 36.941779 
L 142.744421 45.819923 
L 111.009186 54.698066 
L 87.889669 63.576209 
L 72.411123 72.454352 
L 63.643309 81.332495 
L 60.700494 90.210638 
L 62.741451 99.088781 
L 68.969456 107.966925 
L 78.632296 116.845068 
L 91.022259 125.723211 
L 105.476143 134.601354 
L 121.37525 143.479497 
L 138.145388 152.35764 
L 155.256871 161.235783 
L 172.22452 170.113926 
L 188.607661 178.99207 
L 204.010126 187.870213 
L 218.080252 196.748356 
L 230.510886 205.626499 
L 241.039375 214.504642 
L 249.447578 223.382785 
L 255.561855 232.260928 
L 259.253074 241.139072 
L 260.436611 250.017215 
L 259.072344 258.895358 
L 255.164661 267.773501 
L 248.762452 276.651644 
L 239.959116 285.529787 
L 228.892556 294.40793 
L 215.745184 303.286074 
L 200.743914 312.164217 
L 184.160168 321.04236 
L 166.309875 329.920503 
L 147.553468 338.798646 
L 128.295887 347.676789 
L 108.986578 356.554932 
L 90.119492 365.433075 
L 72.233088 374.311219 
L 55.910329 383.189362 
L 41.778684 392.067505 
L 30.510131 400.945648 
L 22.821149 409.823791 
L 19.472727 418.701934 
L 21.270359 427.580077 
L 29.064044 436.458221 
L 43.748287 445.336364 
" clip-path="url(#p49eb3989bb)" style="fill: none; stroke: #fecc5c; stroke-opacity: 0.3; stroke-width: 2; stroke-linecap: square"/>
   </g>
   <g id="line2d_18">
    <path d="M 233.301338 28.063636 
L 183.172038 36.941779 
L 143.148019 45.819923 
L 112.24466 54.698066 
L 89.517729 63.576209 
L 74.063375 72.454352 
L 65.018135 81.332495 
L 61.558932 90.210638 
L 62.903074 99.088781 
L 68.308254 107.966925 
L 77.072552 116.845068 
L 88.534433 125.723211 
L 102.072749 134.601354 
L 117.106734 143.479497 
L 133.096012 152.35764 
L 149.54059 161.235783 
L 165.980861 170.113926 
L 181.997606 178.99207 
L 197.211988 187.870213 
L 211.285558 196.748356 
L 223.920252 205.626499 
L 234.858393 214.504642 
L 243.882687 223.382785 
L 250.816227 232.260928 
L 255.522494 241.139072 
L 257.90535 250.017215 
L 257.909047 258.895358 
L 255.51822 267.773501 
L 250.757891 276.651644 
L 243.693466 285.529787 
L 234.430739 294.40793 
L 223.115889 303.286074 
L 209.935479 312.164217 
L 195.11646 321.04236 
L 178.926166 329.920503 
L 161.67232 338.798646 
L 143.703029 347.676789 
L 125.406784 356.554932 
L 107.212464 365.433075 
L 89.589333 374.311219 
L 73.04704 383.189362 
L 58.135622 392.067505 
L 45.445498 400.945648 
L 35.607476 409.823791 
L 29.292748 418.701934 
L 27.212891 427.580077 
L 30.11987 436.458221 
L 38.806033 445.336364 
" clip-path="url(#p49eb3989bb)" style="fill: none; stroke: #fecc5c; stroke-opacity: 0.3; stroke-width: 2; stroke-linecap: square"/>
   </g>
   <g id="line2d_19">
    <path d="M 233.681868 28.063636 
L 184.416172 36.941779 
L 144.870375 45.819923 
L 114.115159 54.698066 
L 91.258687 63.576209 
L 75.4466 72.454352 
L 65.862019 81.332495 
L 61.725545 90.210638 
L 62.295258 99.088781 
L 66.866716 107.966925 
L 74.772957 116.845068 
L 85.3845 125.723211 
L 98.109341 134.601354 
L 112.392956 143.479497 
L 127.718302 152.35764 
L 143.605812 161.235783 
L 159.613401 170.113926 
L 175.336463 178.99207 
L 190.40787 187.870213 
L 204.497975 196.748356 
L 217.314609 205.626499 
L 228.603084 214.504642 
L 238.146188 223.382785 
L 245.764193 232.260928 
L 251.314846 241.139072 
L 254.693375 250.017215 
L 255.832489 258.895358 
L 254.702374 267.773501 
L 251.310696 276.651644 
L 245.7026 285.529787 
L 237.960712 294.40793 
L 228.205135 303.286074 
L 216.593453 312.164217 
L 203.320728 321.04236 
L 188.619503 329.920503 
L 172.759798 338.798646 
L 156.049116 347.676789 
L 138.832434 356.554932 
L 121.492214 365.433075 
L 104.448394 374.311219 
L 88.158391 383.189362 
L 73.117104 392.067505 
L 59.856908 400.945648 
L 48.947659 409.823791 
L 40.996694 418.701934 
L 36.648826 427.580077 
L 36.586349 436.458221 
L 41.529037 445.336364 
" clip-path="url(#p49eb3989bb)" style="fill: none; stroke: #fecc5c; stroke-opacity: 0.3; stroke-width: 2; stroke-linecap: square"/>
   </g>
   <g id="line2d_20">
    <path d="M 232.190973 28.063636 
L 182.679995 36.941779 
L 143.066055 45.819923 
L 112.395541 54.698066 
L 89.753507 63.576209 
L 74.26368 72.454352 
L 65.088451 81.332495 
L 61.428883 90.210638 
L 62.524706 99.088781 
L 67.654319 107.966925 
L 76.13479 116.845068 
L 87.321855 125.723211 
L 100.60992 134.601354 
L 115.432059 143.479497 
L 131.260013 152.35764 
L 147.604195 161.235783 
L 164.013685 170.113926 
L 180.07623 178.99207 
L 195.418249 187.870213 
L 209.704826 196.748356 
L 222.639718 205.626499 
L 233.965347 214.504642 
L 243.462805 223.382785 
L 250.951853 232.260928 
L 256.29092 241.139072 
L 259.377105 250.017215 
L 260.146174 258.895358 
L 258.572563 267.773501 
L 254.669376 276.651644 
L 248.488385 285.529787 
L 240.120033 294.40793 
L 229.693429 303.286074 
L 217.376352 312.164217 
L 203.37525 321.04236 
L 187.935239 329.920503 
L 171.340104 338.798646 
L 153.912299 347.676789 
L 136.012946 356.554932 
L 118.041835 365.433075 
L 100.437428 374.311219 
L 83.676851 383.189362 
L 68.275902 392.067505 
L 54.789047 400.945648 
L 43.80942 409.823791 
L 35.968824 418.701934 
L 31.937731 427.580077 
L 32.425281 436.458221 
L 38.179284 445.336364 
" clip-path="url(#p49eb3989bb)" style="fill: none; stroke: #fecc5c; stroke-opacity: 0.3; stroke-width: 2; stroke-linecap: square"/>
   </g>
   <g id="line2d_21">
    <path d="M 234.511431 28.063636 
L 184.504309 36.941779 
L 144.406993 45.819923 
L 113.269058 54.698066 
L 90.178504 63.576209 
L 74.261758 72.454352 
L 64.683673 81.332495 
L 60.647528 90.210638 
L 61.39503 99.088781 
L 66.20631 107.966925 
L 74.399927 116.845068 
L 85.332866 125.723211 
L 98.400538 134.601354 
L 113.03678 143.479497 
L 128.713856 152.35764 
L 144.942457 161.235783 
L 161.271699 170.113926 
L 177.289124 178.99207 
L 192.620703 187.870213 
L 206.93083 196.748356 
L 219.922327 205.626499 
L 231.336443 214.504642 
L 240.952852 223.382785 
L 248.589655 232.260928 
L 254.103379 241.139072 
L 257.388977 250.017215 
L 258.379831 258.895358 
L 257.047745 267.773501 
L 253.402953 276.651644 
L 247.494113 285.529787 
L 239.408311 294.40793 
L 229.271058 303.286074 
L 217.246292 312.164217 
L 203.536378 321.04236 
L 188.382106 329.920503 
L 172.062692 338.798646 
L 154.895781 347.676789 
L 137.237442 356.554932 
L 119.48217 365.433075 
L 102.062889 374.311219 
L 85.450946 383.189362 
L 70.156117 392.067505 
L 56.726603 400.945648 
L 45.749031 409.823791 
L 37.848457 418.701934 
L 33.688359 427.580077 
L 33.970645 436.458221 
L 39.435647 445.336364 
" clip-path="url(#p49eb3989bb)" style="fill: none; stroke: #fecc5c; stroke-opacity: 0.3; stroke-width: 2; stroke-linecap: square"/>
   </g>
   <g id="line2d_22">
    <path d="M 232.765212 28.063636 
L 183.380466 36.941779 
L 143.894195 45.819923 
L 113.347505 54.698066 
L 90.820626 63.576209 
L 75.432907 72.454352 
L 66.342821 81.332495 
L 62.74796 90.210638 
L 63.885039 99.088781 
L 69.029895 107.966925 
L 77.497485 116.845068 
L 88.641888 125.723211 
L 101.856305 134.601354 
L 116.573058 143.479497 
L 132.263591 152.35764 
L 148.438469 161.235783 
L 164.647378 170.113926 
L 180.479127 178.99207 
L 195.561646 187.870213 
L 209.561985 196.748356 
L 222.186317 205.626499 
L 233.179936 214.504642 
L 242.327258 223.382785 
L 249.45182 232.260928 
L 254.416281 241.139072 
L 257.12242 250.017215 
L 257.511139 258.895358 
L 255.562461 267.773501 
L 251.295532 276.651644 
L 244.768616 285.529787 
L 236.079101 294.40793 
L 225.363497 303.286074 
L 212.797434 312.164217 
L 198.595664 321.04236 
L 183.01206 329.920503 
L 166.339618 338.798646 
L 148.910454 347.676789 
L 131.095806 356.554932 
L 113.306033 365.433075 
L 95.990617 374.311219 
L 79.63816 383.189362 
L 64.776386 392.067505 
L 51.97214 400.945648 
L 41.83139 409.823791 
L 34.999224 418.701934 
L 32.159851 427.580077 
L 34.036604 436.458221 
L 41.391935 445.336364 
" clip-path="url(#p49eb3989bb)" style="fill: none; stroke: #fecc5c; stroke-opacity: 0.3; stroke-width: 2; stroke-linecap: square"/>
   </g>
   <g id="line2d_23">
    <path d="M 236.989865 28.063636 
L 185.001438 36.941779 
L 143.561825 45.819923 
L 111.636608 54.698066 
L 88.23408 63.576209 
L 72.405247 72.454352 
L 63.243831 81.332495 
L 59.886262 90.210638 
L 61.511689 99.088781 
L 67.341969 107.966925 
L 76.641674 116.845068 
L 88.718089 125.723211 
L 102.921213 134.601354 
L 118.643757 143.479497 
L 135.321144 152.35764 
L 152.431511 161.235783 
L 169.49571 170.113926 
L 186.077302 178.99207 
L 201.782565 187.870213 
L 216.260488 196.748356 
L 229.202772 205.626499 
L 240.343834 214.504642 
L 249.460802 223.382785 
L 256.373516 232.260928 
L 260.944532 241.139072 
L 263.079117 250.017215 
L 262.725252 258.895358 
L 259.87363 267.773501 
L 254.557657 276.651644 
L 246.853454 285.529787 
L 236.879853 294.40793 
L 224.7984 303.286074 
L 210.813353 312.164217 
L 195.171684 321.04236 
L 178.163078 329.920503 
L 160.119934 338.798646 
L 141.417361 347.676789 
L 122.473183 356.554932 
L 103.747939 365.433075 
L 85.744877 374.311219 
L 69.009961 383.189362 
L 54.131866 392.067505 
L 41.741982 400.945648 
L 32.514411 409.823791 
L 27.165969 418.701934 
L 26.456182 427.580077 
L 31.187293 436.458221 
L 42.204256 445.336364 
" clip-path="url(#p49eb3989bb)" style="fill: none; stroke: #fecc5c; stroke-opacity: 0.3; stroke-width: 2; stroke-linecap: square"/>
   </g>
   <g id="line2d_24"/>
   <g id="line2d_25">
    <path d="M 235.745678 28.063636 
L 184.637259 36.941779 
L 143.856973 45.819923 
L 112.394184 54.698066 
L 89.279922 63.576209 
L 73.586878 72.454352 
L 64.429408 81.332495 
L 60.963532 90.210638 
L 62.386933 99.088781 
L 67.938958 107.966925 
L 76.900617 116.845068 
L 88.594584 125.723211 
L 102.385196 134.601354 
L 117.678454 143.479497 
L 133.922024 152.35764 
L 150.605234 161.235783 
L 167.259074 170.113926 
L 183.456202 178.99207 
L 198.810936 187.870213 
L 212.979258 196.748356 
L 225.658815 205.626499 
L 236.588918 214.504642 
L 245.550539 223.382785 
L 252.366315 232.260928 
L 256.900548 241.139072 
L 259.059202 250.017215 
L 258.789904 258.895358 
L 256.081946 267.773501 
L 250.966283 276.651644 
L 243.515535 285.529787 
L 233.843982 294.40793 
L 222.107572 303.286074 
L 208.503913 312.164217 
L 193.272279 321.04236 
L 176.693607 329.920503 
L 159.090496 338.798646 
L 140.827212 347.676789 
L 122.30968 356.554932 
L 103.985494 365.433075 
L 86.343906 374.311219 
L 69.915836 383.189362 
L 55.273865 392.067505 
L 43.032239 400.945648 
L 33.846868 409.823791 
L 28.415323 418.701934 
L 27.476842 427.580077 
L 31.812323 436.458221 
L 42.244331 445.336364 
" clip-path="url(#p49eb3989bb)" style="fill: none; stroke: #6b3914; stroke-width: 3; stroke-linecap: square"/>
    <defs>
     <path id="m7fcff0c286" d="M 5 0 
L -5 -0 
" style="stroke: #6b3914"/>
    </defs>
    <g clip-path="url(#p49eb3989bb)">
     <use xlink:href="#m7fcff0c286" x="235.745678" y="28.063636" style="fill: #6b3914; stroke: #6b3914"/>
     <use xlink:href="#m7fcff0c286" x="184.637259" y="36.941779" style="fill: #6b3914; stroke: #6b3914"/>
     <use xlink:href="#m7fcff0c286" x="143.856973" y="45.819923" style="fill: #6b3914; stroke: #6b3914"/>
     <use xlink:href="#m7fcff0c286" x="112.394184" y="54.698066" style="fill: #6b3914; stroke: #6b3914"/>
     <use xlink:href="#m7fcff0c286" x="89.279922" y="63.576209" style="fill: #6b3914; stroke: #6b3914"/>
     <use xlink:href="#m7fcff0c286" x="73.586878" y="72.454352" style="fill: #6b3914; stroke: #6b3914"/>
     <use xlink:href="#m7fcff0c286" x="64.429408" y="81.332495" style="fill: #6b3914; stroke: #6b3914"/>
     <use xlink:href="#m7fcff0c286" x="60.963532" y="90.210638" style="fill: #6b3914; stroke: #6b3914"/>
     <use xlink:href="#m7fcff0c286" x="62.386933" y="99.088781" style="fill: #6b3914; stroke: #6b3914"/>
     <use xlink:href="#m7fcff0c286" x="67.938958" y="107.966925" style="fill: #6b3914; stroke: #6b3914"/>
     <use xlink:href="#m7fcff0c286" x="76.900617" y="116.845068" style="fill: #6b3914; stroke: #6b3914"/>
     <use xlink:href="#m7fcff0c286" x="88.594584" y="125.723211" style="fill: #6b3914; stroke: #6b3914"/>
     <use xlink:href="#m7fcff0c286" x="102.385196" y="134.601354" style="fill: #6b3914; stroke: #6b3914"/>
     <use xlink:href="#m7fcff0c286" x="117.678454" y="143.479497" style="fill: #6b3914; stroke: #6b3914"/>
     <use xlink:href="#m7fcff0c286" x="133.922024" y="152.35764" style="fill: #6b3914; stroke: #6b3914"/>
     <use xlink:href="#m7fcff0c286" x="150.605234" y="161.235783" style="fill: #6b3914; stroke: #6b3914"/>
     <use xlink:href="#m7fcff0c286" x="167.259074" y="170.113926" style="fill: #6b3914; stroke: #6b3914"/>
     <use xlink:href="#m7fcff0c286" x="183.456202" y="178.99207" style="fill: #6b3914; stroke: #6b3914"/>
     <use xlink:href="#m7fcff0c286" x="198.810936" y="187.870213" style="fill: #6b3914; stroke: #6b3914"/>
     <use xlink:href="#m7fcff0c286" x="212.979258" y="196.748356" style="fill: #6b3914; stroke: #6b3914"/>
     <use xlink:href="#m7fcff0c286" x="225.658815" y="205.626499" style="fill: #6b3914; stroke: #6b3914"/>
     <use xlink:href="#m7fcff0c286" x="236.588918" y="214.504642" style="fill: #6b3914; stroke: #6b3914"/>
     <use xlink:href="#m7fcff0c286" x="245.550539" y="223.382785" style="fill: #6b3914; stroke: #6b3914"/>
     <use xlink:href="#m7fcff0c286" x="252.366315" y="232.260928" style="fill: #6b3914; stroke: #6b3914"/>
     <use xlink:href="#m7fcff0c286" x="256.900548" y="241.139072" style="fill: #6b3914; stroke: #6b3914"/>
     <use xlink:href="#m7fcff0c286" x="259.059202" y="250.017215" style="fill: #6b3914; stroke: #6b3914"/>
     <use xlink:href="#m7fcff0c286" x="258.789904" y="258.895358" style="fill: #6b3914; stroke: #6b3914"/>
     <use xlink:href="#m7fcff0c286" x="256.081946" y="267.773501" style="fill: #6b3914; stroke: #6b3914"/>
     <use xlink:href="#m7fcff0c286" x="250.966283" y="276.651644" style="fill: #6b3914; stroke: #6b3914"/>
     <use xlink:href="#m7fcff0c286" x="243.515535" y="285.529787" style="fill: #6b3914; stroke: #6b3914"/>
     <use xlink:href="#m7fcff0c286" x="233.843982" y="294.40793" style="fill: #6b3914; stroke: #6b3914"/>
     <use xlink:href="#m7fcff0c286" x="222.107572" y="303.286074" style="fill: #6b3914; stroke: #6b3914"/>
     <use xlink:href="#m7fcff0c286" x="208.503913" y="312.164217" style="fill: #6b3914; stroke: #6b3914"/>
     <use xlink:href="#m7fcff0c286" x="193.272279" y="321.04236" style="fill: #6b3914; stroke: #6b3914"/>
     <use xlink:href="#m7fcff0c286" x="176.693607" y="329.920503" style="fill: #6b3914; stroke: #6b3914"/>
     <use xlink:href="#m7fcff0c286" x="159.090496" y="338.798646" style="fill: #6b3914; stroke: #6b3914"/>
     <use xlink:href="#m7fcff0c286" x="140.827212" y="347.676789" style="fill: #6b3914; stroke: #6b3914"/>
     <use xlink:href="#m7fcff0c286" x="122.30968" y="356.554932" style="fill: #6b3914; stroke: #6b3914"/>
     <use xlink:href="#m7fcff0c286" x="103.985494" y="365.433075" style="fill: #6b3914; stroke: #6b3914"/>
     <use xlink:href="#m7fcff0c286" x="86.343906" y="374.311219" style="fill: #6b3914; stroke: #6b3914"/>
     <use xlink:href="#m7fcff0c286" x="69.915836" y="383.189362" style="fill: #6b3914; stroke: #6b3914"/>
     <use xlink:href="#m7fcff0c286" x="55.273865" y="392.067505" style="fill: #6b3914; stroke: #6b3914"/>
     <use xlink:href="#m7fcff0c286" x="43.032239" y="400.945648" style="fill: #6b3914; stroke: #6b3914"/>
     <use xlink:href="#m7fcff0c286" x="33.846868" y="409.823791" style="fill: #6b3914; stroke: #6b3914"/>
     <use xlink:href="#m7fcff0c286" x="28.415323" y="418.701934" style="fill: #6b3914; stroke: #6b3914"/>
     <use xlink:href="#m7fcff0c286" x="27.476842" y="427.580077" style="fill: #6b3914; stroke: #6b3914"/>
     <use xlink:href="#m7fcff0c286" x="31.812323" y="436.458221" style="fill: #6b3914; stroke: #6b3914"/>
     <use xlink:href="#m7fcff0c286" x="42.244331" y="445.336364" style="fill: #6b3914; stroke: #6b3914"/>
    </g>
   </g>
   <g id="line2d_26">
    <path d="M 235.841698 28.063636 
L 184.677755 36.941779 
L 143.845515 45.819923 
L 112.334365 54.698066 
L 89.175352 63.576209 
L 73.441175 72.454352 
L 64.246189 81.332495 
L 60.746407 90.210638 
L 62.139494 99.088781 
L 67.664773 107.966925 
L 76.60322 116.845068 
L 88.27747 125.723211 
L 102.051811 134.601354 
L 117.332186 143.479497 
L 133.566195 152.35764 
L 150.243093 161.235783 
L 166.893791 170.113926 
L 183.090853 178.99207 
L 198.448502 187.870213 
L 212.622614 196.748356 
L 225.310722 205.626499 
L 236.252013 214.504642 
L 245.22733 223.382785 
L 252.059172 232.260928 
L 256.611694 241.139072 
L 258.790704 250.017215 
L 258.543668 258.895358 
L 255.859707 267.773501 
L 250.769596 276.651644 
L 243.345767 285.529787 
L 233.702307 294.40793 
L 221.994958 303.286074 
L 208.421119 312.164217 
L 193.219842 321.04236 
L 176.671836 329.920503 
L 159.099467 338.798646 
L 140.866753 347.676789 
L 122.379369 356.554932 
L 104.084648 365.433075 
L 86.471574 374.311219 
L 70.070789 383.189362 
L 55.454591 392.067505 
L 43.236932 400.945648 
L 34.07342 409.823791 
L 28.66132 418.701934 
L 27.739549 427.580077 
L 32.088682 436.458221 
L 42.53095 445.336364 
" clip-path="url(#p49eb3989bb)" style="fill: none; stroke: #e40000; stroke-opacity: 0.8; stroke-width: 3; stroke-linecap: square"/>
    <defs>
     <path id="mc200da98d4" d="M 5 0 
L -5 -0 
" style="stroke: #e40000; stroke-opacity: 0.8"/>
    </defs>
    <g clip-path="url(#p49eb3989bb)">
     <use xlink:href="#mc200da98d4" x="235.841698" y="28.063636" style="fill: #e40000; fill-opacity: 0.8; stroke: #e40000; stroke-opacity: 0.8"/>
     <use xlink:href="#mc200da98d4" x="184.677755" y="36.941779" style="fill: #e40000; fill-opacity: 0.8; stroke: #e40000; stroke-opacity: 0.8"/>
     <use xlink:href="#mc200da98d4" x="143.845515" y="45.819923" style="fill: #e40000; fill-opacity: 0.8; stroke: #e40000; stroke-opacity: 0.8"/>
     <use xlink:href="#mc200da98d4" x="112.334365" y="54.698066" style="fill: #e40000; fill-opacity: 0.8; stroke: #e40000; stroke-opacity: 0.8"/>
     <use xlink:href="#mc200da98d4" x="89.175352" y="63.576209" style="fill: #e40000; fill-opacity: 0.8; stroke: #e40000; stroke-opacity: 0.8"/>
     <use xlink:href="#mc200da98d4" x="73.441175" y="72.454352" style="fill: #e40000; fill-opacity: 0.8; stroke: #e40000; stroke-opacity: 0.8"/>
     <use xlink:href="#mc200da98d4" x="64.246189" y="81.332495" style="fill: #e40000; fill-opacity: 0.8; stroke: #e40000; stroke-opacity: 0.8"/>
     <use xlink:href="#mc200da98d4" x="60.746407" y="90.210638" style="fill: #e40000; fill-opacity: 0.8; stroke: #e40000; stroke-opacity: 0.8"/>
     <use xlink:href="#mc200da98d4" x="62.139494" y="99.088781" style="fill: #e40000; fill-opacity: 0.8; stroke: #e40000; stroke-opacity: 0.8"/>
     <use xlink:href="#mc200da98d4" x="67.664773" y="107.966925" style="fill: #e40000; fill-opacity: 0.8; stroke: #e40000; stroke-opacity: 0.8"/>
     <use xlink:href="#mc200da98d4" x="76.60322" y="116.845068" style="fill: #e40000; fill-opacity: 0.8; stroke: #e40000; stroke-opacity: 0.8"/>
     <use xlink:href="#mc200da98d4" x="88.27747" y="125.723211" style="fill: #e40000; fill-opacity: 0.8; stroke: #e40000; stroke-opacity: 0.8"/>
     <use xlink:href="#mc200da98d4" x="102.051811" y="134.601354" style="fill: #e40000; fill-opacity: 0.8; stroke: #e40000; stroke-opacity: 0.8"/>
     <use xlink:href="#mc200da98d4" x="117.332186" y="143.479497" style="fill: #e40000; fill-opacity: 0.8; stroke: #e40000; stroke-opacity: 0.8"/>
     <use xlink:href="#mc200da98d4" x="133.566195" y="152.35764" style="fill: #e40000; fill-opacity: 0.8; stroke: #e40000; stroke-opacity: 0.8"/>
     <use xlink:href="#mc200da98d4" x="150.243093" y="161.235783" style="fill: #e40000; fill-opacity: 0.8; stroke: #e40000; stroke-opacity: 0.8"/>
     <use xlink:href="#mc200da98d4" x="166.893791" y="170.113926" style="fill: #e40000; fill-opacity: 0.8; stroke: #e40000; stroke-opacity: 0.8"/>
     <use xlink:href="#mc200da98d4" x="183.090853" y="178.99207" style="fill: #e40000; fill-opacity: 0.8; stroke: #e40000; stroke-opacity: 0.8"/>
     <use xlink:href="#mc200da98d4" x="198.448502" y="187.870213" style="fill: #e40000; fill-opacity: 0.8; stroke: #e40000; stroke-opacity: 0.8"/>
     <use xlink:href="#mc200da98d4" x="212.622614" y="196.748356" style="fill: #e40000; fill-opacity: 0.8; stroke: #e40000; stroke-opacity: 0.8"/>
     <use xlink:href="#mc200da98d4" x="225.310722" y="205.626499" style="fill: #e40000; fill-opacity: 0.8; stroke: #e40000; stroke-opacity: 0.8"/>
     <use xlink:href="#mc200da98d4" x="236.252013" y="214.504642" style="fill: #e40000; fill-opacity: 0.8; stroke: #e40000; stroke-opacity: 0.8"/>
     <use xlink:href="#mc200da98d4" x="245.22733" y="223.382785" style="fill: #e40000; fill-opacity: 0.8; stroke: #e40000; stroke-opacity: 0.8"/>
     <use xlink:href="#mc200da98d4" x="252.059172" y="232.260928" style="fill: #e40000; fill-opacity: 0.8; stroke: #e40000; stroke-opacity: 0.8"/>
     <use xlink:href="#mc200da98d4" x="256.611694" y="241.139072" style="fill: #e40000; fill-opacity: 0.8; stroke: #e40000; stroke-opacity: 0.8"/>
     <use xlink:href="#mc200da98d4" x="258.790704" y="250.017215" style="fill: #e40000; fill-opacity: 0.8; stroke: #e40000; stroke-opacity: 0.8"/>
     <use xlink:href="#mc200da98d4" x="258.543668" y="258.895358" style="fill: #e40000; fill-opacity: 0.8; stroke: #e40000; stroke-opacity: 0.8"/>
     <use xlink:href="#mc200da98d4" x="255.859707" y="267.773501" style="fill: #e40000; fill-opacity: 0.8; stroke: #e40000; stroke-opacity: 0.8"/>
     <use xlink:href="#mc200da98d4" x="250.769596" y="276.651644" style="fill: #e40000; fill-opacity: 0.8; stroke: #e40000; stroke-opacity: 0.8"/>
     <use xlink:href="#mc200da98d4" x="243.345767" y="285.529787" style="fill: #e40000; fill-opacity: 0.8; stroke: #e40000; stroke-opacity: 0.8"/>
     <use xlink:href="#mc200da98d4" x="233.702307" y="294.40793" style="fill: #e40000; fill-opacity: 0.8; stroke: #e40000; stroke-opacity: 0.8"/>
     <use xlink:href="#mc200da98d4" x="221.994958" y="303.286074" style="fill: #e40000; fill-opacity: 0.8; stroke: #e40000; stroke-opacity: 0.8"/>
     <use xlink:href="#mc200da98d4" x="208.421119" y="312.164217" style="fill: #e40000; fill-opacity: 0.8; stroke: #e40000; stroke-opacity: 0.8"/>
     <use xlink:href="#mc200da98d4" x="193.219842" y="321.04236" style="fill: #e40000; fill-opacity: 0.8; stroke: #e40000; stroke-opacity: 0.8"/>
     <use xlink:href="#mc200da98d4" x="176.671836" y="329.920503" style="fill: #e40000; fill-opacity: 0.8; stroke: #e40000; stroke-opacity: 0.8"/>
     <use xlink:href="#mc200da98d4" x="159.099467" y="338.798646" style="fill: #e40000; fill-opacity: 0.8; stroke: #e40000; stroke-opacity: 0.8"/>
     <use xlink:href="#mc200da98d4" x="140.866753" y="347.676789" style="fill: #e40000; fill-opacity: 0.8; stroke: #e40000; stroke-opacity: 0.8"/>
     <use xlink:href="#mc200da98d4" x="122.379369" y="356.554932" style="fill: #e40000; fill-opacity: 0.8; stroke: #e40000; stroke-opacity: 0.8"/>
     <use xlink:href="#mc200da98d4" x="104.084648" y="365.433075" style="fill: #e40000; fill-opacity: 0.8; stroke: #e40000; stroke-opacity: 0.8"/>
     <use xlink:href="#mc200da98d4" x="86.471574" y="374.311219" style="fill: #e40000; fill-opacity: 0.8; stroke: #e40000; stroke-opacity: 0.8"/>
     <use xlink:href="#mc200da98d4" x="70.070789" y="383.189362" style="fill: #e40000; fill-opacity: 0.8; stroke: #e40000; stroke-opacity: 0.8"/>
     <use xlink:href="#mc200da98d4" x="55.454591" y="392.067505" style="fill: #e40000; fill-opacity: 0.8; stroke: #e40000; stroke-opacity: 0.8"/>
     <use xlink:href="#mc200da98d4" x="43.236932" y="400.945648" style="fill: #e40000; fill-opacity: 0.8; stroke: #e40000; stroke-opacity: 0.8"/>
     <use xlink:href="#mc200da98d4" x="34.07342" y="409.823791" style="fill: #e40000; fill-opacity: 0.8; stroke: #e40000; stroke-opacity: 0.8"/>
     <use xlink:href="#mc200da98d4" x="28.66132" y="418.701934" style="fill: #e40000; fill-opacity: 0.8; stroke: #e40000; stroke-opacity: 0.8"/>
     <use xlink:href="#mc200da98d4" x="27.739549" y="427.580077" style="fill: #e40000; fill-opacity: 0.8; stroke: #e40000; stroke-opacity: 0.8"/>
     <use xlink:href="#mc200da98d4" x="32.088682" y="436.458221" style="fill: #e40000; fill-opacity: 0.8; stroke: #e40000; stroke-opacity: 0.8"/>
     <use xlink:href="#mc200da98d4" x="42.53095" y="445.336364" style="fill: #e40000; fill-opacity: 0.8; stroke: #e40000; stroke-opacity: 0.8"/>
    </g>
   </g>
   <g id="patch_3">
    <path d="M 7.2 476.2 
L 277.2 476.2 
" style="fill: none; stroke: #000000; stroke-width: 2; stroke-linejoin: miter; stroke-linecap: square"/>
   </g>
  </g>
 </g>
 <defs>
  <clipPath id="p49eb3989bb">
   <rect x="7.2" y="7.2" width="270" height="459"/>
  </clipPath>
 </defs>
</svg>
