<?xml version="1.0" encoding="utf-8" standalone="no"?>
<!DOCTYPE svg PUBLIC "-//W3C//DTD SVG 1.1//EN"
  "http://www.w3.org/Graphics/SVG/1.1/DTD/svg11.dtd">
<svg xmlns:xlink="http://www.w3.org/1999/xlink" width="284.4pt" height="544.35625pt" viewBox="0 0 284.4 544.35625" xmlns="http://www.w3.org/2000/svg" version="1.1">
 <metadata>
  <rdf:RDF xmlns:dc="http://purl.org/dc/elements/1.1/" xmlns:cc="http://creativecommons.org/ns#" xmlns:rdf="http://www.w3.org/1999/02/22-rdf-syntax-ns#">
   <cc:Work>
    <dc:type rdf:resource="http://purl.org/dc/dcmitype/StillImage"/>
    <dc:date>2024-07-06T13:31:32.080735</dc:date>
    <dc:format>image/svg+xml</dc:format>
    <dc:creator>
     <cc:Agent>
      <dc:title>Matplotlib v3.8.0, https://matplotlib.org/</dc:title>
     </cc:Agent>
    </dc:creator>
   </cc:Work>
  </rdf:RDF>
 </metadata>
 <defs>
  <style type="text/css">*{stroke-linejoin: round; stroke-linecap: butt}</style>
 </defs>
 <g id="figure_1">
  <g id="patch_1">
   <path d="M 0 544.35625 
L 284.4 544.35625 
L 284.4 0 
L 0 0 
z
" style="fill: #ffffff"/>
  </g>
  <g id="axes_1">
   <g id="patch_2">
    <path d="M 7.2 466.2 
L 277.2 466.2 
L 277.2 7.2 
L 7.2 7.2 
z
" style="fill: #ffffff"/>
   </g>
   <g id="PolyCollection_1">
    <defs>
     <path id="md940807ece" d="M 238.122585 -516.292614 
L 249.017808 -516.292614 
L 248.911381 -497.325671 
L 250.909927 -478.358729 
L 252.96323 -459.391787 
L 255.196157 -440.424845 
L 257.238748 -421.457903 
L 259.153346 -402.490961 
L 259.815795 -383.524019 
L 259.494789 -364.557076 
L 258.39072 -345.590134 
L 255.069363 -326.623192 
L 251.7331 -307.65625 
L 247.136898 -288.689308 
L 243.754419 -269.722366 
L 237.76327 -250.755424 
L 229.514104 -231.788481 
L 221.53808 -212.821539 
L 207.84338 -193.854597 
L 194.626203 -174.887655 
L 177.682138 -155.920713 
L 171.352443 -136.953771 
L 158.448132 -117.986829 
L 148.966675 -99.019886 
L 35.944257 -99.019886 
L 35.944257 -99.019886 
L 54.798482 -117.986829 
L 75.165442 -136.953771 
L 84.47656 -155.920713 
L 87.351352 -174.887655 
L 92.352486 -193.854597 
L 98.388323 -212.821539 
L 108.571013 -231.788481 
L 125.890921 -250.755424 
L 141.587835 -269.722366 
L 163.494274 -288.689308 
L 185.122032 -307.65625 
L 204.592941 -326.623192 
L 220.448885 -345.590134 
L 232.999891 -364.557076 
L 241.379192 -383.524019 
L 244.504765 -402.490961 
L 245.87246 -421.457903 
L 245.259544 -440.424845 
L 243.813382 -459.391787 
L 242.11763 -478.358729 
L 240.605598 -497.325671 
L 238.122585 -516.292614 
z
" style="stroke: #756bb1; stroke-opacity: 0.5"/>
    </defs>
    <g clip-path="url(#p963dc1d8aa)">
     <use xlink:href="#md940807ece" x="0" y="544.35625" style="fill: #756bb1; fill-opacity: 0.5; stroke: #756bb1; stroke-opacity: 0.5"/>
    </g>
   </g>
   <g id="matplotlib.axis_1">
    <g id="xtick_1">
     <g id="line2d_1">
      <defs>
       <path id="m32e8f5b7fb" d="M 0 0 
L 0 3.5 
" style="stroke: #000000; stroke-width: 1.5"/>
      </defs>
      <g>
       <use xlink:href="#m32e8f5b7fb" x="52.583183" y="476.2" style="stroke: #000000; stroke-width: 1.5"/>
      </g>
     </g>
     <g id="text_1">
      <!-- 100 -->
      <g transform="translate(33.495683 498.396875) scale(0.2 -0.2)">
       <defs>
        <path id="DejaVuSans-31" d="M 794 531 
L 1825 531 
L 1825 4091 
L 703 3866 
L 703 4441 
L 1819 4666 
L 2450 4666 
L 2450 531 
L 3481 531 
L 3481 0 
L 794 0 
L 794 531 
z
" transform="scale(0.015625)"/>
        <path id="DejaVuSans-30" d="M 2034 4250 
Q 1547 4250 1301 3770 
Q 1056 3291 1056 2328 
Q 1056 1369 1301 889 
Q 1547 409 2034 409 
Q 2525 409 2770 889 
Q 3016 1369 3016 2328 
Q 3016 3291 2770 3770 
Q 2525 4250 2034 4250 
z
M 2034 4750 
Q 2819 4750 3233 4129 
Q 3647 3509 3647 2328 
Q 3647 1150 3233 529 
Q 2819 -91 2034 -91 
Q 1250 -91 836 529 
Q 422 1150 422 2328 
Q 422 3509 836 4129 
Q 1250 4750 2034 4750 
z
" transform="scale(0.015625)"/>
       </defs>
       <use xlink:href="#DejaVuSans-31"/>
       <use xlink:href="#DejaVuSans-30" x="63.623047"/>
       <use xlink:href="#DejaVuSans-30" x="127.246094"/>
      </g>
     </g>
    </g>
    <g id="xtick_2">
     <g id="line2d_2">
      <g>
       <use xlink:href="#m32e8f5b7fb" x="127.728363" y="476.2" style="stroke: #000000; stroke-width: 1.5"/>
      </g>
     </g>
     <g id="text_2">
      <!-- 200 -->
      <g transform="translate(108.640863 498.396875) scale(0.2 -0.2)">
       <defs>
        <path id="DejaVuSans-32" d="M 1228 531 
L 3431 531 
L 3431 0 
L 469 0 
L 469 531 
Q 828 903 1448 1529 
Q 2069 2156 2228 2338 
Q 2531 2678 2651 2914 
Q 2772 3150 2772 3378 
Q 2772 3750 2511 3984 
Q 2250 4219 1831 4219 
Q 1534 4219 1204 4116 
Q 875 4013 500 3803 
L 500 4441 
Q 881 4594 1212 4672 
Q 1544 4750 1819 4750 
Q 2544 4750 2975 4387 
Q 3406 4025 3406 3419 
Q 3406 3131 3298 2873 
Q 3191 2616 2906 2266 
Q 2828 2175 2409 1742 
Q 1991 1309 1228 531 
z
" transform="scale(0.015625)"/>
       </defs>
       <use xlink:href="#DejaVuSans-32"/>
       <use xlink:href="#DejaVuSans-30" x="63.623047"/>
       <use xlink:href="#DejaVuSans-30" x="127.246094"/>
      </g>
     </g>
    </g>
    <g id="xtick_3">
     <g id="line2d_3">
      <g>
       <use xlink:href="#m32e8f5b7fb" x="202.873544" y="476.2" style="stroke: #000000; stroke-width: 1.5"/>
      </g>
     </g>
     <g id="text_3">
      <!-- 300 -->
      <g transform="translate(183.786044 498.396875) scale(0.2 -0.2)">
       <defs>
        <path id="DejaVuSans-33" d="M 2597 2516 
Q 3050 2419 3304 2112 
Q 3559 1806 3559 1356 
Q 3559 666 3084 287 
Q 2609 -91 1734 -91 
Q 1441 -91 1130 -33 
Q 819 25 488 141 
L 488 750 
Q 750 597 1062 519 
Q 1375 441 1716 441 
Q 2309 441 2620 675 
Q 2931 909 2931 1356 
Q 2931 1769 2642 2001 
Q 2353 2234 1838 2234 
L 1294 2234 
L 1294 2753 
L 1863 2753 
Q 2328 2753 2575 2939 
Q 2822 3125 2822 3475 
Q 2822 3834 2567 4026 
Q 2313 4219 1838 4219 
Q 1578 4219 1281 4162 
Q 984 4106 628 3988 
L 628 4550 
Q 988 4650 1302 4700 
Q 1616 4750 1894 4750 
Q 2613 4750 3031 4423 
Q 3450 4097 3450 3541 
Q 3450 3153 3228 2886 
Q 3006 2619 2597 2516 
z
" transform="scale(0.015625)"/>
       </defs>
       <use xlink:href="#DejaVuSans-33"/>
       <use xlink:href="#DejaVuSans-30" x="63.623047"/>
       <use xlink:href="#DejaVuSans-30" x="127.246094"/>
      </g>
     </g>
    </g>
    <g id="text_4">
     <!-- Apparent Resistivity [$\Omega m$] -->
     <g transform="translate(-4.6 532.75625) scale(0.2 -0.2)">
      <defs>
       <path id="DejaVuSans-Bold-41" d="M 3419 850 
L 1538 850 
L 1241 0 
L 31 0 
L 1759 4666 
L 3194 4666 
L 4922 0 
L 3713 0 
L 3419 850 
z
M 1838 1716 
L 3116 1716 
L 2478 3572 
L 1838 1716 
z
" transform="scale(0.015625)"/>
       <path id="DejaVuSans-Bold-70" d="M 1656 506 
L 1656 -1331 
L 538 -1331 
L 538 3500 
L 1656 3500 
L 1656 2988 
Q 1888 3294 2169 3439 
Q 2450 3584 2816 3584 
Q 3463 3584 3878 3070 
Q 4294 2556 4294 1747 
Q 4294 938 3878 423 
Q 3463 -91 2816 -91 
Q 2450 -91 2169 54 
Q 1888 200 1656 506 
z
M 2400 2772 
Q 2041 2772 1848 2508 
Q 1656 2244 1656 1747 
Q 1656 1250 1848 986 
Q 2041 722 2400 722 
Q 2759 722 2948 984 
Q 3138 1247 3138 1747 
Q 3138 2247 2948 2509 
Q 2759 2772 2400 2772 
z
" transform="scale(0.015625)"/>
       <path id="DejaVuSans-Bold-61" d="M 2106 1575 
Q 1756 1575 1579 1456 
Q 1403 1338 1403 1106 
Q 1403 894 1545 773 
Q 1688 653 1941 653 
Q 2256 653 2472 879 
Q 2688 1106 2688 1447 
L 2688 1575 
L 2106 1575 
z
M 3816 1997 
L 3816 0 
L 2688 0 
L 2688 519 
Q 2463 200 2181 54 
Q 1900 -91 1497 -91 
Q 953 -91 614 226 
Q 275 544 275 1050 
Q 275 1666 698 1953 
Q 1122 2241 2028 2241 
L 2688 2241 
L 2688 2328 
Q 2688 2594 2478 2717 
Q 2269 2841 1825 2841 
Q 1466 2841 1156 2769 
Q 847 2697 581 2553 
L 581 3406 
Q 941 3494 1303 3539 
Q 1666 3584 2028 3584 
Q 2975 3584 3395 3211 
Q 3816 2838 3816 1997 
z
" transform="scale(0.015625)"/>
       <path id="DejaVuSans-Bold-72" d="M 3138 2547 
Q 2991 2616 2845 2648 
Q 2700 2681 2553 2681 
Q 2122 2681 1889 2404 
Q 1656 2128 1656 1613 
L 1656 0 
L 538 0 
L 538 3500 
L 1656 3500 
L 1656 2925 
Q 1872 3269 2151 3426 
Q 2431 3584 2822 3584 
Q 2878 3584 2943 3579 
Q 3009 3575 3134 3559 
L 3138 2547 
z
" transform="scale(0.015625)"/>
       <path id="DejaVuSans-Bold-65" d="M 4031 1759 
L 4031 1441 
L 1416 1441 
Q 1456 1047 1700 850 
Q 1944 653 2381 653 
Q 2734 653 3104 758 
Q 3475 863 3866 1075 
L 3866 213 
Q 3469 63 3072 -14 
Q 2675 -91 2278 -91 
Q 1328 -91 801 392 
Q 275 875 275 1747 
Q 275 2603 792 3093 
Q 1309 3584 2216 3584 
Q 3041 3584 3536 3087 
Q 4031 2591 4031 1759 
z
M 2881 2131 
Q 2881 2450 2695 2645 
Q 2509 2841 2209 2841 
Q 1884 2841 1681 2658 
Q 1478 2475 1428 2131 
L 2881 2131 
z
" transform="scale(0.015625)"/>
       <path id="DejaVuSans-Bold-6e" d="M 4056 2131 
L 4056 0 
L 2931 0 
L 2931 347 
L 2931 1631 
Q 2931 2084 2911 2256 
Q 2891 2428 2841 2509 
Q 2775 2619 2662 2680 
Q 2550 2741 2406 2741 
Q 2056 2741 1856 2470 
Q 1656 2200 1656 1722 
L 1656 0 
L 538 0 
L 538 3500 
L 1656 3500 
L 1656 2988 
Q 1909 3294 2193 3439 
Q 2478 3584 2822 3584 
Q 3428 3584 3742 3212 
Q 4056 2841 4056 2131 
z
" transform="scale(0.015625)"/>
       <path id="DejaVuSans-Bold-74" d="M 1759 4494 
L 1759 3500 
L 2913 3500 
L 2913 2700 
L 1759 2700 
L 1759 1216 
Q 1759 972 1856 886 
Q 1953 800 2241 800 
L 2816 800 
L 2816 0 
L 1856 0 
Q 1194 0 917 276 
Q 641 553 641 1216 
L 641 2700 
L 84 2700 
L 84 3500 
L 641 3500 
L 641 4494 
L 1759 4494 
z
" transform="scale(0.015625)"/>
       <path id="DejaVuSans-Bold-20" transform="scale(0.015625)"/>
       <path id="DejaVuSans-Bold-52" d="M 2297 2597 
Q 2675 2597 2839 2737 
Q 3003 2878 3003 3200 
Q 3003 3519 2839 3656 
Q 2675 3794 2297 3794 
L 1791 3794 
L 1791 2597 
L 2297 2597 
z
M 1791 1766 
L 1791 0 
L 588 0 
L 588 4666 
L 2425 4666 
Q 3347 4666 3776 4356 
Q 4206 4047 4206 3378 
Q 4206 2916 3982 2619 
Q 3759 2322 3309 2181 
Q 3556 2125 3751 1926 
Q 3947 1728 4147 1325 
L 4800 0 
L 3519 0 
L 2950 1159 
Q 2778 1509 2601 1637 
Q 2425 1766 2131 1766 
L 1791 1766 
z
" transform="scale(0.015625)"/>
       <path id="DejaVuSans-Bold-73" d="M 3272 3391 
L 3272 2541 
Q 2913 2691 2578 2766 
Q 2244 2841 1947 2841 
Q 1628 2841 1473 2761 
Q 1319 2681 1319 2516 
Q 1319 2381 1436 2309 
Q 1553 2238 1856 2203 
L 2053 2175 
Q 2913 2066 3209 1816 
Q 3506 1566 3506 1031 
Q 3506 472 3093 190 
Q 2681 -91 1863 -91 
Q 1516 -91 1145 -36 
Q 775 19 384 128 
L 384 978 
Q 719 816 1070 734 
Q 1422 653 1784 653 
Q 2113 653 2278 743 
Q 2444 834 2444 1013 
Q 2444 1163 2330 1236 
Q 2216 1309 1875 1350 
L 1678 1375 
Q 931 1469 631 1722 
Q 331 1975 331 2491 
Q 331 3047 712 3315 
Q 1094 3584 1881 3584 
Q 2191 3584 2531 3537 
Q 2872 3491 3272 3391 
z
" transform="scale(0.015625)"/>
       <path id="DejaVuSans-Bold-69" d="M 538 3500 
L 1656 3500 
L 1656 0 
L 538 0 
L 538 3500 
z
M 538 4863 
L 1656 4863 
L 1656 3950 
L 538 3950 
L 538 4863 
z
" transform="scale(0.015625)"/>
       <path id="DejaVuSans-Bold-76" d="M 97 3500 
L 1216 3500 
L 2088 1081 
L 2956 3500 
L 4078 3500 
L 2700 0 
L 1472 0 
L 97 3500 
z
" transform="scale(0.015625)"/>
       <path id="DejaVuSans-Bold-79" d="M 78 3500 
L 1197 3500 
L 2138 1125 
L 2938 3500 
L 4056 3500 
L 2584 -331 
Q 2363 -916 2067 -1148 
Q 1772 -1381 1288 -1381 
L 641 -1381 
L 641 -647 
L 991 -647 
Q 1275 -647 1404 -556 
Q 1534 -466 1606 -231 
L 1638 -134 
L 78 3500 
z
" transform="scale(0.015625)"/>
       <path id="DejaVuSans-Bold-5b" d="M 550 4863 
L 2491 4863 
L 2491 4159 
L 1613 4159 
L 1613 -141 
L 2491 -141 
L 2491 -844 
L 550 -844 
L 550 4863 
z
" transform="scale(0.015625)"/>
       <path id="DejaVuSans-Bold-3a9" d="M 2719 4750 
Q 3841 4750 4480 4106 
Q 5119 3463 5119 2494 
Q 5119 1406 4306 909 
L 5266 909 
L 5266 0 
L 3125 0 
L 3125 975 
Q 3244 1041 3334 1131 
Q 3875 1678 3875 2466 
Q 3875 3066 3572 3472 
Q 3269 3878 2719 3878 
Q 2169 3878 1866 3472 
Q 1563 3066 1563 2466 
Q 1563 1678 2103 1131 
Q 2194 1041 2313 975 
L 2313 0 
L 172 0 
L 172 909 
L 1131 909 
Q 319 1406 319 2494 
Q 319 3463 958 4106 
Q 1597 4750 2719 4750 
z
" transform="scale(0.015625)"/>
       <path id="DejaVuSans-Bold-6d" d="M 3781 2919 
Q 3994 3244 4286 3414 
Q 4578 3584 4928 3584 
Q 5531 3584 5847 3212 
Q 6163 2841 6163 2131 
L 6163 0 
L 5038 0 
L 5038 1825 
Q 5041 1866 5042 1909 
Q 5044 1953 5044 2034 
Q 5044 2406 4934 2573 
Q 4825 2741 4581 2741 
Q 4263 2741 4089 2478 
Q 3916 2216 3909 1719 
L 3909 0 
L 2784 0 
L 2784 1825 
Q 2784 2406 2684 2573 
Q 2584 2741 2328 2741 
Q 2006 2741 1831 2477 
Q 1656 2213 1656 1722 
L 1656 0 
L 531 0 
L 531 3500 
L 1656 3500 
L 1656 2988 
Q 1863 3284 2130 3434 
Q 2397 3584 2719 3584 
Q 3081 3584 3359 3409 
Q 3638 3234 3781 2919 
z
" transform="scale(0.015625)"/>
       <path id="DejaVuSans-Bold-5d" d="M 2375 -844 
L 434 -844 
L 434 -141 
L 1313 -141 
L 1313 4159 
L 434 4159 
L 434 4863 
L 2375 4863 
L 2375 -844 
z
" transform="scale(0.015625)"/>
      </defs>
      <use xlink:href="#DejaVuSans-Bold-41" transform="translate(0 0.015625)"/>
      <use xlink:href="#DejaVuSans-Bold-70" transform="translate(77.392578 0.015625)"/>
      <use xlink:href="#DejaVuSans-Bold-70" transform="translate(148.974609 0.015625)"/>
      <use xlink:href="#DejaVuSans-Bold-61" transform="translate(220.556641 0.015625)"/>
      <use xlink:href="#DejaVuSans-Bold-72" transform="translate(288.037109 0.015625)"/>
      <use xlink:href="#DejaVuSans-Bold-65" transform="translate(337.353516 0.015625)"/>
      <use xlink:href="#DejaVuSans-Bold-6e" transform="translate(405.175781 0.015625)"/>
      <use xlink:href="#DejaVuSans-Bold-74" transform="translate(476.367188 0.015625)"/>
      <use xlink:href="#DejaVuSans-Bold-20" transform="translate(524.169922 0.015625)"/>
      <use xlink:href="#DejaVuSans-Bold-52" transform="translate(558.984375 0.015625)"/>
      <use xlink:href="#DejaVuSans-Bold-65" transform="translate(635.986328 0.015625)"/>
      <use xlink:href="#DejaVuSans-Bold-73" transform="translate(703.808594 0.015625)"/>
      <use xlink:href="#DejaVuSans-Bold-69" transform="translate(763.330078 0.015625)"/>
      <use xlink:href="#DejaVuSans-Bold-73" transform="translate(797.607422 0.015625)"/>
      <use xlink:href="#DejaVuSans-Bold-74" transform="translate(857.128906 0.015625)"/>
      <use xlink:href="#DejaVuSans-Bold-69" transform="translate(904.931641 0.015625)"/>
      <use xlink:href="#DejaVuSans-Bold-76" transform="translate(939.208984 0.015625)"/>
      <use xlink:href="#DejaVuSans-Bold-69" transform="translate(1004.394531 0.015625)"/>
      <use xlink:href="#DejaVuSans-Bold-74" transform="translate(1038.671875 0.015625)"/>
      <use xlink:href="#DejaVuSans-Bold-79" transform="translate(1086.474609 0.015625)"/>
      <use xlink:href="#DejaVuSans-Bold-20" transform="translate(1151.660156 0.015625)"/>
      <use xlink:href="#DejaVuSans-Bold-5b" transform="translate(1186.474609 0.015625)"/>
      <use xlink:href="#DejaVuSans-Bold-3a9" transform="translate(1232.177734 0.015625)"/>
      <use xlink:href="#DejaVuSans-Bold-6d" transform="translate(1317.1875 0.015625)"/>
      <use xlink:href="#DejaVuSans-Bold-5d" transform="translate(1421.386719 0.015625)"/>
     </g>
    </g>
   </g>
   <g id="line2d_4">
    <path d="M 243.169174 28.063636 
L 246.330583 47.030579 
L 247.033303 65.997521 
L 253.762374 84.964463 
L 251.477737 103.931405 
L 257.601785 122.898347 
L 255.075315 141.865289 
L 253.578964 160.832231 
L 249.98365 179.799174 
L 244.922163 198.766116 
L 234.763274 217.733058 
L 222.199396 236.7 
L 216.576401 255.666942 
L 208.333113 274.633884 
L 198.937885 293.600826 
L 194.945847 312.567769 
L 185.919834 331.534711 
L 169.88082 350.501653 
L 149.00149 369.468595 
L 134.800155 388.435537 
L 109.588919 407.402479 
L 84.350906 426.369421 
L 64.60217 445.336364 
" clip-path="url(#p963dc1d8aa)" style="fill: none; stroke: #756bb1; stroke-opacity: 0.2; stroke-width: 2; stroke-linecap: square"/>
   </g>
   <g id="line2d_5">
    <path d="M 244.134194 28.063636 
L 244.299833 47.030579 
L 242.507704 65.997521 
L 243.857044 84.964463 
L 249.967909 103.931405 
L 243.999951 122.898347 
L 245.818011 141.865289 
L 246.890233 160.832231 
L 238.98696 179.799174 
L 229.413388 198.766116 
L 215.15965 217.733058 
L 198.418328 236.7 
L 183.090176 255.666942 
L 171.689654 274.633884 
L 153.987157 293.600826 
L 146.112844 312.567769 
L 141.11415 331.534711 
L 135.255066 350.501653 
L 127.99867 369.468595 
L 114.928778 388.435537 
L 101.31347 407.402479 
L 87.45313 426.369421 
L 71.13037 445.336364 
" clip-path="url(#p963dc1d8aa)" style="fill: none; stroke: #756bb1; stroke-opacity: 0.2; stroke-width: 2; stroke-linecap: square"/>
   </g>
   <g id="line2d_6">
    <path d="M 247.832448 28.063636 
L 248.242285 47.030579 
L 243.808977 65.997521 
L 250.289303 84.964463 
L 246.986684 103.931405 
L 248.349937 122.898347 
L 248.361849 141.865289 
L 248.508049 160.832231 
L 248.429324 179.799174 
L 238.7882 198.766116 
L 227.977823 217.733058 
L 220.564266 236.7 
L 203.447011 255.666942 
L 189.643125 274.633884 
L 175.789769 293.600826 
L 156.783082 312.567769 
L 144.267385 331.534711 
L 130.610852 350.501653 
L 111.255143 369.468595 
L 101.74725 388.435537 
L 89.727615 407.402479 
L 85.060892 426.369421 
L 72.144943 445.336364 
" clip-path="url(#p963dc1d8aa)" style="fill: none; stroke: #756bb1; stroke-opacity: 0.2; stroke-width: 2; stroke-linecap: square"/>
   </g>
   <g id="line2d_7">
    <path d="M 240.61463 28.063636 
L 241.289715 47.030579 
L 244.874609 65.997521 
L 248.607809 84.964463 
L 250.913805 103.931405 
L 252.426155 122.898347 
L 254.075671 141.865289 
L 251.421045 160.832231 
L 250.230122 179.799174 
L 250.779266 198.766116 
L 243.32407 217.733058 
L 234.964991 236.7 
L 232.007015 255.666942 
L 228.309553 274.633884 
L 224.680827 293.600826 
L 217.38627 312.567769 
L 206.615314 331.534711 
L 193.475067 350.501653 
L 167.121985 369.468595 
L 131.718783 388.435537 
L 102.975812 407.402479 
L 72.113947 426.369421 
L 47.056701 445.336364 
" clip-path="url(#p963dc1d8aa)" style="fill: none; stroke: #756bb1; stroke-opacity: 0.2; stroke-width: 2; stroke-linecap: square"/>
   </g>
   <g id="line2d_8">
    <path d="M 242.743163 28.063636 
L 246.981641 47.030579 
L 242.54405 65.997521 
L 249.048516 84.964463 
L 246.275736 103.931405 
L 246.0159 122.898347 
L 244.094109 141.865289 
L 242.746614 160.832231 
L 238.148112 179.799174 
L 224.354071 198.766116 
L 214.719833 217.733058 
L 192.073188 236.7 
L 175.700867 255.666942 
L 153.492733 274.633884 
L 130.883993 293.600826 
L 121.142233 312.567769 
L 116.327393 331.534711 
L 107.150685 350.501653 
L 111.368525 369.468595 
L 110.65626 388.435537 
L 115.563863 407.402479 
L 114.92652 426.369421 
L 111.440519 445.336364 
" clip-path="url(#p963dc1d8aa)" style="fill: none; stroke: #756bb1; stroke-opacity: 0.2; stroke-width: 2; stroke-linecap: square"/>
   </g>
   <g id="line2d_9">
    <path d="M 245.154799 28.063636 
L 243.619761 47.030579 
L 250.496238 65.997521 
L 253.359595 84.964463 
L 249.510142 103.931405 
L 257.645605 122.898347 
L 255.439207 141.865289 
L 257.977056 160.832231 
L 259.216458 179.799174 
L 259.210226 198.766116 
L 255.312035 217.733058 
L 245.967463 236.7 
L 245.123608 255.666942 
L 237.693316 274.633884 
L 225.25405 293.600826 
L 215.52822 312.567769 
L 205.722504 331.534711 
L 190.336612 350.501653 
L 167.799598 369.468595 
L 149.310502 388.435537 
L 126.239278 407.402479 
L 100.201161 426.369421 
L 84.23135 445.336364 
" clip-path="url(#p963dc1d8aa)" style="fill: none; stroke: #756bb1; stroke-opacity: 0.2; stroke-width: 2; stroke-linecap: square"/>
   </g>
   <g id="line2d_10">
    <path d="M 238.220369 28.063636 
L 241.964772 47.030579 
L 244.304611 65.997521 
L 248.91676 84.964463 
L 250.540509 103.931405 
L 251.942076 122.898347 
L 256.388749 141.865289 
L 256.112846 160.832231 
L 256.215319 179.799174 
L 252.650429 198.766116 
L 246.883453 217.733058 
L 237.802149 236.7 
L 235.942557 255.666942 
L 220.996158 274.633884 
L 209.895417 293.600826 
L 197.513585 312.567769 
L 182.264439 331.534711 
L 165.940773 350.501653 
L 145.605367 369.468595 
L 118.551201 388.435537 
L 94.474957 407.402479 
L 75.046383 426.369421 
L 54.565673 445.336364 
" clip-path="url(#p963dc1d8aa)" style="fill: none; stroke: #756bb1; stroke-opacity: 0.2; stroke-width: 2; stroke-linecap: square"/>
   </g>
   <g id="line2d_11">
    <path d="M 241.542169 28.063636 
L 247.904959 47.030579 
L 252.312334 65.997521 
L 246.239142 84.964463 
L 253.042891 103.931405 
L 247.409907 122.898347 
L 247.294423 141.865289 
L 250.503795 160.832231 
L 245.679159 179.799174 
L 242.008505 198.766116 
L 235.984868 217.733058 
L 233.609594 236.7 
L 230.967213 255.666942 
L 220.216757 274.633884 
L 217.289531 293.600826 
L 208.943356 312.567769 
L 195.848668 331.534711 
L 182.023781 350.501653 
L 160.283259 369.468595 
L 143.638838 388.435537 
L 115.109951 407.402479 
L 87.630986 426.369421 
L 70.952912 445.336364 
" clip-path="url(#p963dc1d8aa)" style="fill: none; stroke: #756bb1; stroke-opacity: 0.2; stroke-width: 2; stroke-linecap: square"/>
   </g>
   <g id="line2d_12">
    <path d="M 245.085059 28.063636 
L 249.59534 47.030579 
L 244.93836 65.997521 
L 246.14011 84.964463 
L 251.19607 103.931405 
L 246.967399 122.898347 
L 246.252189 141.865289 
L 234.65934 160.832231 
L 225.472522 179.799174 
L 212.906902 198.766116 
L 190.784864 217.733058 
L 172.104858 236.7 
L 157.564334 255.666942 
L 147.788567 274.633884 
L 143.431494 293.600826 
L 135.760259 312.567769 
L 138.619604 331.534711 
L 131.237878 350.501653 
L 129.784807 369.468595 
L 120.559916 388.435537 
L 102.645323 407.402479 
L 88.610964 426.369421 
L 71.521489 445.336364 
" clip-path="url(#p963dc1d8aa)" style="fill: none; stroke: #756bb1; stroke-opacity: 0.2; stroke-width: 2; stroke-linecap: square"/>
   </g>
   <g id="line2d_13">
    <path d="M 245.947562 28.063636 
L 249.683851 47.030579 
L 246.561052 65.997521 
L 248.592243 84.964463 
L 253.479189 103.931405 
L 253.738886 122.898347 
L 251.626435 141.865289 
L 248.65487 160.832231 
L 247.855575 179.799174 
L 243.185569 198.766116 
L 238.045274 217.733058 
L 229.756603 236.7 
L 216.516151 255.666942 
L 207.451064 274.633884 
L 192.29728 293.600826 
L 182.040566 312.567769 
L 165.886186 331.534711 
L 147.174923 350.501653 
L 134.913834 369.468595 
L 115.455187 388.435537 
L 100.463094 407.402479 
L 83.018144 426.369421 
L 68.085016 445.336364 
" clip-path="url(#p963dc1d8aa)" style="fill: none; stroke: #756bb1; stroke-opacity: 0.2; stroke-width: 2; stroke-linecap: square"/>
   </g>
   <g id="line2d_14">
    <path d="M 244.543455 28.063636 
L 245.401407 47.030579 
L 246.13991 65.997521 
L 249.762546 84.964463 
L 249.580874 103.931405 
L 253.524975 122.898347 
L 255.24208 141.865289 
L 250.562527 160.832231 
L 243.575328 179.799174 
L 235.888465 198.766116 
L 226.414881 217.733058 
L 210.463316 236.7 
L 199.046706 255.666942 
L 184.292413 274.633884 
L 174.752659 293.600826 
L 161.352612 312.567769 
L 155.327689 331.534711 
L 146.398004 350.501653 
L 136.21482 369.468595 
L 120.694792 388.435537 
L 107.360889 407.402479 
L 91.369407 426.369421 
L 76.326802 445.336364 
" clip-path="url(#p963dc1d8aa)" style="fill: none; stroke: #756bb1; stroke-opacity: 0.2; stroke-width: 2; stroke-linecap: square"/>
   </g>
   <g id="line2d_15">
    <path d="M 247.67996 28.063636 
L 248.513879 47.030579 
L 244.759188 65.997521 
L 247.593592 84.964463 
L 252.994522 103.931405 
L 257.598009 122.898347 
L 258.163125 141.865289 
L 253.835287 160.832231 
L 252.901227 179.799174 
L 253.431454 198.766116 
L 243.046188 217.733058 
L 231.820178 236.7 
L 224.569075 255.666942 
L 212.690775 274.633884 
L 194.028747 293.600826 
L 185.559935 312.567769 
L 166.273755 331.534711 
L 153.914903 350.501653 
L 138.221693 369.468595 
L 115.075239 388.435537 
L 104.283214 407.402479 
L 88.524259 426.369421 
L 70.27691 445.336364 
" clip-path="url(#p963dc1d8aa)" style="fill: none; stroke: #756bb1; stroke-opacity: 0.2; stroke-width: 2; stroke-linecap: square"/>
   </g>
   <g id="line2d_16">
    <path d="M 241.153808 28.063636 
L 248.074891 47.030579 
L 250.572624 65.997521 
L 250.071324 84.964463 
L 251.028732 103.931405 
L 251.649203 122.898347 
L 249.836072 141.865289 
L 252.15182 160.832231 
L 246.876435 179.799174 
L 240.967384 198.766116 
L 228.945439 217.733058 
L 224.268669 236.7 
L 214.509182 255.666942 
L 215.281659 274.633884 
L 204.334353 293.600826 
L 195.772011 312.567769 
L 189.272936 331.534711 
L 168.908077 350.501653 
L 149.697376 369.468595 
L 117.127342 388.435537 
L 88.340249 407.402479 
L 58.231971 426.369421 
L 29.735996 445.336364 
" clip-path="url(#p963dc1d8aa)" style="fill: none; stroke: #756bb1; stroke-opacity: 0.2; stroke-width: 2; stroke-linecap: square"/>
   </g>
   <g id="line2d_17">
    <path d="M 246.052468 28.063636 
L 241.438778 47.030579 
L 241.03959 65.997521 
L 246.902848 84.964463 
L 244.695731 103.931405 
L 246.943769 122.898347 
L 248.110895 141.865289 
L 246.203909 160.832231 
L 241.953272 179.799174 
L 243.240606 198.766116 
L 230.870272 217.733058 
L 221.040446 236.7 
L 203.520416 255.666942 
L 184.027775 274.633884 
L 168.574996 293.600826 
L 158.246649 312.567769 
L 151.002749 331.534711 
L 140.378111 350.501653 
L 125.007464 369.468595 
L 116.671699 388.435537 
L 97.969255 407.402479 
L 79.36103 426.369421 
L 58.271477 445.336364 
" clip-path="url(#p963dc1d8aa)" style="fill: none; stroke: #756bb1; stroke-opacity: 0.2; stroke-width: 2; stroke-linecap: square"/>
   </g>
   <g id="line2d_18">
    <path d="M 244.308895 28.063636 
L 242.363308 47.030579 
L 247.13048 65.997521 
L 245.656799 84.964463 
L 252.366313 103.931405 
L 248.51845 122.898347 
L 256.824278 141.865289 
L 250.213945 160.832231 
L 255.122773 179.799174 
L 244.795963 198.766116 
L 245.02005 217.733058 
L 232.77104 236.7 
L 226.829083 255.666942 
L 223.780975 274.633884 
L 216.222687 293.600826 
L 208.191905 312.567769 
L 194.585149 331.534711 
L 171.350269 350.501653 
L 148.364374 369.468595 
L 115.191618 388.435537 
L 81.376598 407.402479 
L 43.728961 426.369421 
L 19.472727 445.336364 
" clip-path="url(#p963dc1d8aa)" style="fill: none; stroke: #756bb1; stroke-opacity: 0.2; stroke-width: 2; stroke-linecap: square"/>
   </g>
   <g id="line2d_19">
    <path d="M 243.308278 28.063636 
L 244.600502 47.030579 
L 240.66466 65.997521 
L 250.071284 84.964463 
L 251.376113 103.931405 
L 249.2383 122.898347 
L 254.138159 141.865289 
L 254.68922 160.832231 
L 249.986411 179.799174 
L 245.333157 198.766116 
L 234.459812 217.733058 
L 228.91385 236.7 
L 219.617268 255.666942 
L 208.724293 274.633884 
L 200.05869 293.600826 
L 201.058273 312.567769 
L 201.956411 331.534711 
L 199.914685 350.501653 
L 209.852197 369.468595 
L 214.268591 388.435537 
L 217.073616 407.402479 
L 213.133199 426.369421 
L 214.163625 445.336364 
" clip-path="url(#p963dc1d8aa)" style="fill: none; stroke: #756bb1; stroke-opacity: 0.2; stroke-width: 2; stroke-linecap: square"/>
   </g>
   <g id="line2d_20">
    <path d="M 239.925183 28.063636 
L 242.767226 47.030579 
L 247.412054 65.997521 
L 249.515851 84.964463 
L 243.734522 103.931405 
L 250.523101 122.898347 
L 247.510607 141.865289 
L 246.587104 160.832231 
L 241.427689 179.799174 
L 229.833631 198.766116 
L 221.880661 217.733058 
L 200.593274 236.7 
L 190.994487 255.666942 
L 172.578097 274.633884 
L 165.978473 293.600826 
L 155.059601 312.567769 
L 149.518648 331.534711 
L 136.272027 350.501653 
L 126.968977 369.468595 
L 113.456274 388.435537 
L 96.154312 407.402479 
L 79.816421 426.369421 
L 68.53432 445.336364 
" clip-path="url(#p963dc1d8aa)" style="fill: none; stroke: #756bb1; stroke-opacity: 0.2; stroke-width: 2; stroke-linecap: square"/>
   </g>
   <g id="line2d_21">
    <path d="M 236.707988 28.063636 
L 243.580582 47.030579 
L 250.093428 65.997521 
L 251.86584 84.964463 
L 250.442727 103.931405 
L 258.337621 122.898347 
L 260.933367 141.865289 
L 263.199679 160.832231 
L 259.314538 179.799174 
L 258.368943 198.766116 
L 259.145823 217.733058 
L 263.062677 236.7 
L 263.220416 255.666942 
L 257.275447 274.633884 
L 259.39947 293.600826 
L 249.890906 312.567769 
L 237.970516 331.534711 
L 218.757316 350.501653 
L 184.21913 369.468595 
L 153.132 388.435537 
L 115.133568 407.402479 
L 80.598294 426.369421 
L 56.17549 445.336364 
" clip-path="url(#p963dc1d8aa)" style="fill: none; stroke: #756bb1; stroke-opacity: 0.2; stroke-width: 2; stroke-linecap: square"/>
   </g>
   <g id="line2d_22">
    <path d="M 246.43236 28.063636 
L 242.659522 47.030579 
L 245.845621 65.997521 
L 247.126534 84.964463 
L 251.388943 103.931405 
L 255.560418 122.898347 
L 255.806596 141.865289 
L 252.56521 160.832231 
L 249.074867 179.799174 
L 244.846703 198.766116 
L 237.496984 217.733058 
L 225.339257 236.7 
L 216.579251 255.666942 
L 201.390033 274.633884 
L 192.401447 293.600826 
L 186.10717 312.567769 
L 187.429161 331.534711 
L 184.740841 350.501653 
L 177.990951 369.468595 
L 164.404828 388.435537 
L 157.17276 407.402479 
L 143.556229 426.369421 
L 130.912542 445.336364 
" clip-path="url(#p963dc1d8aa)" style="fill: none; stroke: #756bb1; stroke-opacity: 0.2; stroke-width: 2; stroke-linecap: square"/>
   </g>
   <g id="line2d_23">
    <path d="M 238.618494 28.063636 
L 244.386015 47.030579 
L 244.137615 65.997521 
L 248.267734 84.964463 
L 250.23486 103.931405 
L 257.88383 122.898347 
L 258.662681 141.865289 
L 263.238721 160.832231 
L 260.004349 179.799174 
L 259.479114 198.766116 
L 250.477745 217.733058 
L 246.252124 236.7 
L 242.950608 255.666942 
L 231.155753 274.633884 
L 221.99369 293.600826 
L 216.894289 312.567769 
L 205.723904 331.534711 
L 185.295389 350.501653 
L 160.106209 369.468595 
L 131.398082 388.435537 
L 103.870299 407.402479 
L 77.160739 426.369421 
L 54.299677 445.336364 
" clip-path="url(#p963dc1d8aa)" style="fill: none; stroke: #756bb1; stroke-opacity: 0.2; stroke-width: 2; stroke-linecap: square"/>
   </g>
   <g id="line2d_24">
    <path d="M 238.934196 28.063636 
L 243.694186 47.030579 
L 245.653298 65.997521 
L 245.778188 84.964463 
L 250.537882 103.931405 
L 248.908626 122.898347 
L 240.684219 141.865289 
L 235.470682 160.832231 
L 231.602518 179.799174 
L 213.576476 198.766116 
L 198.374232 217.733058 
L 185.124751 236.7 
L 173.097563 255.666942 
L 165.021699 274.633884 
L 165.605364 293.600826 
L 163.728598 312.567769 
L 162.906533 331.534711 
L 164.289111 350.501653 
L 158.625874 369.468595 
L 148.126475 388.435537 
L 133.867992 407.402479 
L 110.326511 426.369421 
L 96.045254 445.336364 
" clip-path="url(#p963dc1d8aa)" style="fill: none; stroke: #756bb1; stroke-opacity: 0.2; stroke-width: 2; stroke-linecap: square"/>
   </g>
   <g id="line2d_25">
    <path d="M 240.821326 28.063636 
L 246.536479 47.030579 
L 246.25855 65.997521 
L 248.890758 84.964463 
L 249.599409 103.931405 
L 253.558012 122.898347 
L 252.014879 141.865289 
L 248.491929 160.832231 
L 248.284908 179.799174 
L 243.314468 198.766116 
L 235.467713 217.733058 
L 232.234156 236.7 
L 219.928664 255.666942 
L 210.627387 274.633884 
L 194.67382 293.600826 
L 184.668233 312.567769 
L 167.368519 331.534711 
L 150.008868 350.501653 
L 129.854813 369.468595 
L 119.229436 388.435537 
L 103.444244 407.402479 
L 92.199482 426.369421 
L 80.696969 445.336364 
" clip-path="url(#p963dc1d8aa)" style="fill: none; stroke: #756bb1; stroke-opacity: 0.2; stroke-width: 2; stroke-linecap: square"/>
   </g>
   <g id="line2d_26">
    <path d="M 244.420759 28.063636 
L 248.329204 47.030579 
L 245.999329 65.997521 
L 247.206779 84.964463 
L 250.703783 103.931405 
L 253.745218 122.898347 
L 250.655937 141.865289 
L 252.445462 160.832231 
L 248.043446 179.799174 
L 241.115195 198.766116 
L 232.094601 217.733058 
L 223.08477 236.7 
L 208.882289 255.666942 
L 199.16413 274.633884 
L 184.618748 293.600826 
L 165.675202 312.567769 
L 156.188131 331.534711 
L 145.010983 350.501653 
L 127.290294 369.468595 
L 108.318428 388.435537 
L 85.588281 407.402479 
L 62.584057 426.369421 
L 37.854248 445.336364 
" clip-path="url(#p963dc1d8aa)" style="fill: none; stroke: #756bb1; stroke-opacity: 0.2; stroke-width: 2; stroke-linecap: square"/>
   </g>
   <g id="line2d_27">
    <path d="M 240.735156 28.063636 
L 248.470804 47.030579 
L 246.599804 65.997521 
L 250.563064 84.964463 
L 251.252328 103.931405 
L 252.43999 122.898347 
L 258.921611 141.865289 
L 252.646437 160.832231 
L 253.040968 179.799174 
L 251.437495 198.766116 
L 243.065149 217.733058 
L 236.472612 236.7 
L 236.028124 255.666942 
L 223.621079 274.633884 
L 213.461503 293.600826 
L 208.237998 312.567769 
L 195.969865 331.534711 
L 179.514198 350.501653 
L 161.142059 369.468595 
L 141.783437 388.435537 
L 117.276936 407.402479 
L 94.420108 426.369421 
L 80.701931 445.336364 
" clip-path="url(#p963dc1d8aa)" style="fill: none; stroke: #756bb1; stroke-opacity: 0.2; stroke-width: 2; stroke-linecap: square"/>
   </g>
   <g id="line2d_28">
    <path d="M 244.434957 28.063636 
L 239.89971 47.030579 
L 242.071826 65.997521 
L 246.587562 84.964463 
L 251.802938 103.931405 
L 252.588249 122.898347 
L 249.879969 141.865289 
L 250.162088 160.832231 
L 253.776313 179.799174 
L 246.074358 198.766116 
L 246.748712 217.733058 
L 241.263771 236.7 
L 233.258774 255.666942 
L 229.797402 274.633884 
L 222.548718 293.600826 
L 215.249677 312.567769 
L 210.483072 331.534711 
L 191.308566 350.501653 
L 167.500248 369.468595 
L 145.069604 388.435537 
L 114.615624 407.402479 
L 93.425463 426.369421 
L 70.697796 445.336364 
" clip-path="url(#p963dc1d8aa)" style="fill: none; stroke: #756bb1; stroke-opacity: 0.2; stroke-width: 2; stroke-linecap: square"/>
   </g>
   <g id="line2d_29">
    <path d="M 244.896445 28.063636 
L 243.381446 47.030579 
L 247.703842 65.997521 
L 248.569545 84.964463 
L 251.706669 103.931405 
L 251.053679 122.898347 
L 253.426969 141.865289 
L 250.437307 160.832231 
L 250.224205 179.799174 
L 245.388693 198.766116 
L 237.631692 217.733058 
L 231.017352 236.7 
L 225.566779 255.666942 
L 214.768772 274.633884 
L 206.456618 293.600826 
L 194.394627 312.567769 
L 181.451384 331.534711 
L 164.697953 350.501653 
L 145.682248 369.468595 
L 124.371734 388.435537 
L 99.723886 407.402479 
L 77.80615 426.369421 
L 59.727558 445.336364 
" clip-path="url(#p963dc1d8aa)" style="fill: none; stroke: #756bb1; stroke-opacity: 0.2; stroke-width: 2; stroke-linecap: square"/>
   </g>
   <g id="line2d_30">
    <path d="M 240.174336 28.063636 
L 244.745127 47.030579 
L 247.628378 65.997521 
L 246.137289 84.964463 
L 253.1038 103.931405 
L 253.298549 122.898347 
L 252.515339 141.865289 
L 255.203703 160.832231 
L 251.053977 179.799174 
L 244.528937 198.766116 
L 234.401599 217.733058 
L 224.34967 236.7 
L 214.705859 255.666942 
L 207.051292 274.633884 
L 208.510898 293.600826 
L 199.016519 312.567769 
L 201.770169 331.534711 
L 196.104775 350.501653 
L 185.56132 369.468595 
L 165.877912 388.435537 
L 146.132596 407.402479 
L 125.164624 426.369421 
L 108.621561 445.336364 
" clip-path="url(#p963dc1d8aa)" style="fill: none; stroke: #756bb1; stroke-opacity: 0.2; stroke-width: 2; stroke-linecap: square"/>
   </g>
   <g id="line2d_31">
    <path d="M 248.487236 28.063636 
L 243.009551 47.030579 
L 246.804635 65.997521 
L 247.001092 84.964463 
L 245.03215 103.931405 
L 251.317324 122.898347 
L 252.600898 141.865289 
L 248.820197 160.832231 
L 236.481179 179.799174 
L 230.740813 198.766116 
L 214.376686 217.733058 
L 197.613398 236.7 
L 172.666093 255.666942 
L 150.814103 274.633884 
L 134.759283 293.600826 
L 115.572596 312.567769 
L 99.525962 331.534711 
L 98.156956 350.501653 
L 93.622793 369.468595 
L 94.685895 388.435537 
L 88.876317 407.402479 
L 86.591711 426.369421 
L 81.281907 445.336364 
" clip-path="url(#p963dc1d8aa)" style="fill: none; stroke: #756bb1; stroke-opacity: 0.2; stroke-width: 2; stroke-linecap: square"/>
   </g>
   <g id="line2d_32">
    <path d="M 241.167761 28.063636 
L 240.431075 47.030579 
L 245.382579 65.997521 
L 244.38403 84.964463 
L 251.402315 103.931405 
L 253.454182 122.898347 
L 252.917025 141.865289 
L 245.876101 160.832231 
L 245.452012 179.799174 
L 238.344818 198.766116 
L 229.361824 217.733058 
L 217.396433 236.7 
L 199.967976 255.666942 
L 182.174978 274.633884 
L 157.756319 293.600826 
L 135.786228 312.567769 
L 107.098452 331.534711 
L 85.283989 350.501653 
L 63.600823 369.468595 
L 50.194649 388.435537 
L 42.954812 407.402479 
L 43.776357 426.369421 
L 38.895349 445.336364 
" clip-path="url(#p963dc1d8aa)" style="fill: none; stroke: #756bb1; stroke-opacity: 0.2; stroke-width: 2; stroke-linecap: square"/>
   </g>
   <g id="line2d_33">
    <path d="M 244.202809 28.063636 
L 242.814801 47.030579 
L 249.940131 65.997521 
L 248.597901 84.964463 
L 247.983848 103.931405 
L 252.134282 122.898347 
L 256.258136 141.865289 
L 247.956055 160.832231 
L 243.675753 179.799174 
L 227.75428 198.766116 
L 215.56863 217.733058 
L 193.938902 236.7 
L 173.404469 255.666942 
L 155.121586 274.633884 
L 139.679513 293.600826 
L 125.867201 312.567769 
L 123.543884 331.534711 
L 112.372927 350.501653 
L 107.826025 369.468595 
L 94.965252 388.435537 
L 84.603866 407.402479 
L 67.555024 426.369421 
L 48.256157 445.336364 
" clip-path="url(#p963dc1d8aa)" style="fill: none; stroke: #756bb1; stroke-opacity: 0.2; stroke-width: 2; stroke-linecap: square"/>
   </g>
   <g id="line2d_34">
    <path d="M 245.813535 28.063636 
L 243.252443 47.030579 
L 245.597013 65.997521 
L 253.871787 84.964463 
L 260.00272 103.931405 
L 257.275814 122.898347 
L 262.932663 141.865289 
L 264.927273 160.832231 
L 264.240865 179.799174 
L 259.395616 198.766116 
L 256.48513 217.733058 
L 255.755213 236.7 
L 247.122091 255.666942 
L 243.946161 274.633884 
L 242.38296 293.600826 
L 236.140243 312.567769 
L 224.547204 331.534711 
L 206.764049 350.501653 
L 185.255973 369.468595 
L 155.177862 388.435537 
L 123.802827 407.402479 
L 93.958089 426.369421 
L 67.606254 445.336364 
" clip-path="url(#p963dc1d8aa)" style="fill: none; stroke: #756bb1; stroke-opacity: 0.2; stroke-width: 2; stroke-linecap: square"/>
   </g>
   <g id="line2d_35">
    <path d="M 245.615829 28.063636 
L 247.676743 47.030579 
L 248.662337 65.997521 
L 247.667328 84.964463 
L 251.2084 103.931405 
L 252.398465 122.898347 
L 251.34531 141.865289 
L 247.615052 160.832231 
L 248.987111 179.799174 
L 238.510405 198.766116 
L 232.595596 217.733058 
L 225.868802 236.7 
L 212.465009 255.666942 
L 202.299643 274.633884 
L 195.021257 293.600826 
L 184.897457 312.567769 
L 176.377947 331.534711 
L 169.688354 350.501653 
L 152.172362 369.468595 
L 132.824318 388.435537 
L 112.311411 407.402479 
L 95.31125 426.369421 
L 77.926299 445.336364 
" clip-path="url(#p963dc1d8aa)" style="fill: none; stroke: #756bb1; stroke-opacity: 0.2; stroke-width: 2; stroke-linecap: square"/>
   </g>
   <g id="line2d_36">
    <path d="M 243.030602 28.063636 
L 243.730976 47.030579 
L 249.378686 65.997521 
L 244.236419 84.964463 
L 248.310953 103.931405 
L 249.625737 122.898347 
L 243.106772 141.865289 
L 245.414645 160.832231 
L 232.000221 179.799174 
L 221.758802 198.766116 
L 207.880611 217.733058 
L 188.505755 236.7 
L 170.270103 255.666942 
L 150.571623 274.633884 
L 135.261687 293.600826 
L 133.218266 312.567769 
L 124.300429 331.534711 
L 127.602795 350.501653 
L 129.111962 369.468595 
L 131.602026 388.435537 
L 127.026169 407.402479 
L 117.124772 426.369421 
L 114.713929 445.336364 
" clip-path="url(#p963dc1d8aa)" style="fill: none; stroke: #756bb1; stroke-opacity: 0.2; stroke-width: 2; stroke-linecap: square"/>
   </g>
   <g id="line2d_37">
    <path d="M 240.716967 28.063636 
L 246.443859 47.030579 
L 245.42875 65.997521 
L 245.173908 84.964463 
L 250.652005 103.931405 
L 249.021167 122.898347 
L 248.117291 141.865289 
L 243.979227 160.832231 
L 234.011837 179.799174 
L 220.4721 198.766116 
L 204.823483 217.733058 
L 188.716561 236.7 
L 172.006129 255.666942 
L 167.685063 274.633884 
L 163.661847 293.600826 
L 162.822896 312.567769 
L 159.207315 331.534711 
L 160.100784 350.501653 
L 155.993445 369.468595 
L 144.561175 388.435537 
L 124.505136 407.402479 
L 111.079568 426.369421 
L 97.280656 445.336364 
" clip-path="url(#p963dc1d8aa)" style="fill: none; stroke: #756bb1; stroke-opacity: 0.2; stroke-width: 2; stroke-linecap: square"/>
   </g>
   <g id="line2d_38">
    <path d="M 241.956085 28.063636 
L 240.501041 47.030579 
L 242.787552 65.997521 
L 248.30418 84.964463 
L 244.832042 103.931405 
L 246.486072 122.898347 
L 250.792751 141.865289 
L 246.814509 160.832231 
L 243.3845 179.799174 
L 232.39456 198.766116 
L 225.801655 217.733058 
L 209.72692 236.7 
L 202.212394 255.666942 
L 188.283965 274.633884 
L 179.563539 293.600826 
L 176.999382 312.567769 
L 171.507958 331.534711 
L 167.250682 350.501653 
L 156.33595 369.468595 
L 143.172869 388.435537 
L 134.229269 407.402479 
L 115.961373 426.369421 
L 98.219197 445.336364 
" clip-path="url(#p963dc1d8aa)" style="fill: none; stroke: #756bb1; stroke-opacity: 0.2; stroke-width: 2; stroke-linecap: square"/>
   </g>
   <g id="line2d_39">
    <path d="M 238.976042 28.063636 
L 243.559936 47.030579 
L 246.535286 65.997521 
L 250.75574 84.964463 
L 249.829538 103.931405 
L 253.111522 122.898347 
L 251.808072 141.865289 
L 249.000531 160.832231 
L 242.842446 179.799174 
L 238.395687 198.766116 
L 223.58996 217.733058 
L 211.031884 236.7 
L 191.703046 255.666942 
L 168.133504 274.633884 
L 145.940739 293.600826 
L 122.977409 312.567769 
L 109.763324 331.534711 
L 95.098751 350.501653 
L 88.711008 369.468595 
L 87.572185 388.435537 
L 93.830048 407.402479 
L 96.305248 426.369421 
L 101.800634 445.336364 
" clip-path="url(#p963dc1d8aa)" style="fill: none; stroke: #756bb1; stroke-opacity: 0.2; stroke-width: 2; stroke-linecap: square"/>
   </g>
   <g id="line2d_40">
    <path d="M 248.45773 28.063636 
L 242.065824 47.030579 
L 248.039268 65.997521 
L 248.485625 84.964463 
L 250.124777 103.931405 
L 252.304555 122.898347 
L 248.790449 141.865289 
L 248.637301 160.832231 
L 245.521366 179.799174 
L 237.643586 198.766116 
L 227.661161 217.733058 
L 209.771726 236.7 
L 198.925433 255.666942 
L 180.272709 274.633884 
L 167.661068 293.600826 
L 159.982584 312.567769 
L 148.126925 331.534711 
L 135.692149 350.501653 
L 129.442805 369.468595 
L 115.826197 388.435537 
L 97.506759 407.402479 
L 78.948531 426.369421 
L 61.59756 445.336364 
" clip-path="url(#p963dc1d8aa)" style="fill: none; stroke: #756bb1; stroke-opacity: 0.2; stroke-width: 2; stroke-linecap: square"/>
   </g>
   <g id="line2d_41">
    <path d="M 243.327461 28.063636 
L 246.132775 47.030579 
L 245.56484 65.997521 
L 251.009571 84.964463 
L 250.602789 103.931405 
L 256.61364 122.898347 
L 251.782302 141.865289 
L 252.782084 160.832231 
L 240.066372 179.799174 
L 235.111089 198.766116 
L 218.99259 217.733058 
L 200.923654 236.7 
L 188.546296 255.666942 
L 174.417946 274.633884 
L 169.492201 293.600826 
L 162.154038 312.567769 
L 146.590313 331.534711 
L 143.643785 350.501653 
L 133.667851 369.468595 
L 125.071114 388.435537 
L 108.450489 407.402479 
L 97.800475 426.369421 
L 89.902828 445.336364 
" clip-path="url(#p963dc1d8aa)" style="fill: none; stroke: #756bb1; stroke-opacity: 0.2; stroke-width: 2; stroke-linecap: square"/>
   </g>
   <g id="line2d_42">
    <path d="M 242.569962 28.063636 
L 240.36581 47.030579 
L 241.996968 65.997521 
L 249.03801 84.964463 
L 250.351805 103.931405 
L 253.975455 122.898347 
L 247.975023 141.865289 
L 249.610264 160.832231 
L 244.600118 179.799174 
L 238.143018 198.766116 
L 232.287151 217.733058 
L 228.526784 236.7 
L 222.815394 255.666942 
L 211.129932 274.633884 
L 202.769031 293.600826 
L 197.176457 312.567769 
L 187.016281 331.534711 
L 180.394157 350.501653 
L 162.395209 369.468595 
L 146.720967 388.435537 
L 124.62556 407.402479 
L 104.729865 426.369421 
L 86.962932 445.336364 
" clip-path="url(#p963dc1d8aa)" style="fill: none; stroke: #756bb1; stroke-opacity: 0.2; stroke-width: 2; stroke-linecap: square"/>
   </g>
   <g id="line2d_43">
    <path d="M 241.981161 28.063636 
L 242.410286 47.030579 
L 247.338423 65.997521 
L 246.580694 84.964463 
L 248.554129 103.931405 
L 254.382029 122.898347 
L 254.3725 141.865289 
L 258.759099 160.832231 
L 260.745357 179.799174 
L 257.227044 198.766116 
L 250.751615 217.733058 
L 240.935046 236.7 
L 231.880752 255.666942 
L 221.218661 274.633884 
L 214.851525 293.600826 
L 202.733991 312.567769 
L 190.712085 331.534711 
L 171.415591 350.501653 
L 152.847199 369.468595 
L 124.262832 388.435537 
L 96.375724 407.402479 
L 72.520356 426.369421 
L 47.94817 445.336364 
" clip-path="url(#p963dc1d8aa)" style="fill: none; stroke: #756bb1; stroke-opacity: 0.2; stroke-width: 2; stroke-linecap: square"/>
   </g>
   <g id="line2d_44"/>
   <g id="line2d_45">
    <path d="M 243.44518 28.063636 
L 244.84586 47.030579 
L 246.552918 65.997521 
L 248.490652 84.964463 
L 250.299842 103.931405 
L 251.812737 122.898347 
L 252.260781 141.865289 
L 251.026375 160.832231 
L 247.345851 179.799174 
L 241.210287 198.766116 
L 232.376907 217.733058 
L 221.800724 236.7 
L 210.578187 255.666942 
L 199.192745 274.633884 
L 189.13 293.600826 
L 179.735929 312.567769 
L 170.403682 331.534711 
L 159.542776 350.501653 
L 146.749891 369.468595 
L 131.510201 388.435537 
L 114.888816 407.402479 
L 97.98645 426.369421 
L 82.603057 445.336364 
" clip-path="url(#p963dc1d8aa)" style="fill: none; stroke: #39146b; stroke-width: 4; stroke-linecap: square"/>
   </g>
   <g id="line2d_46">
    <path d="M 243.08257 28.063636 
L 244.330973 47.030579 
L 245.901504 65.997521 
L 247.656342 84.964463 
L 249.276057 103.931405 
L 250.23185 122.898347 
L 249.809442 141.865289 
L 247.185524 160.832231 
L 241.552299 179.799174 
L 232.290963 198.766116 
L 219.176686 217.733058 
L 202.5415 236.7 
L 183.282014 255.666942 
L 162.662879 274.633884 
L 142.013037 293.600826 
L 122.491196 312.567769 
L 105.00676 331.534711 
L 90.21814 350.501653 
L 78.489499 369.468595 
L 69.812072 388.435537 
L 63.806115 407.402479 
L 59.862641 426.369421 
L 57.347233 445.336364 
" clip-path="url(#p963dc1d8aa)" style="fill: none; stroke: #e40000; stroke-width: 4; stroke-linecap: square"/>
    <defs>
     <path id="mf9dd3c3410" d="M -5 5 
L 5 -5 
M -5 -5 
L 5 5 
" style="stroke: #e40000"/>
    </defs>
    <g clip-path="url(#p963dc1d8aa)">
     <use xlink:href="#mf9dd3c3410" x="243.08257" y="28.063636" style="fill: #e40000; stroke: #e40000"/>
     <use xlink:href="#mf9dd3c3410" x="244.330973" y="47.030579" style="fill: #e40000; stroke: #e40000"/>
     <use xlink:href="#mf9dd3c3410" x="245.901504" y="65.997521" style="fill: #e40000; stroke: #e40000"/>
     <use xlink:href="#mf9dd3c3410" x="247.656342" y="84.964463" style="fill: #e40000; stroke: #e40000"/>
     <use xlink:href="#mf9dd3c3410" x="249.276057" y="103.931405" style="fill: #e40000; stroke: #e40000"/>
     <use xlink:href="#mf9dd3c3410" x="250.23185" y="122.898347" style="fill: #e40000; stroke: #e40000"/>
     <use xlink:href="#mf9dd3c3410" x="249.809442" y="141.865289" style="fill: #e40000; stroke: #e40000"/>
     <use xlink:href="#mf9dd3c3410" x="247.185524" y="160.832231" style="fill: #e40000; stroke: #e40000"/>
     <use xlink:href="#mf9dd3c3410" x="241.552299" y="179.799174" style="fill: #e40000; stroke: #e40000"/>
     <use xlink:href="#mf9dd3c3410" x="232.290963" y="198.766116" style="fill: #e40000; stroke: #e40000"/>
     <use xlink:href="#mf9dd3c3410" x="219.176686" y="217.733058" style="fill: #e40000; stroke: #e40000"/>
     <use xlink:href="#mf9dd3c3410" x="202.5415" y="236.7" style="fill: #e40000; stroke: #e40000"/>
     <use xlink:href="#mf9dd3c3410" x="183.282014" y="255.666942" style="fill: #e40000; stroke: #e40000"/>
     <use xlink:href="#mf9dd3c3410" x="162.662879" y="274.633884" style="fill: #e40000; stroke: #e40000"/>
     <use xlink:href="#mf9dd3c3410" x="142.013037" y="293.600826" style="fill: #e40000; stroke: #e40000"/>
     <use xlink:href="#mf9dd3c3410" x="122.491196" y="312.567769" style="fill: #e40000; stroke: #e40000"/>
     <use xlink:href="#mf9dd3c3410" x="105.00676" y="331.534711" style="fill: #e40000; stroke: #e40000"/>
     <use xlink:href="#mf9dd3c3410" x="90.21814" y="350.501653" style="fill: #e40000; stroke: #e40000"/>
     <use xlink:href="#mf9dd3c3410" x="78.489499" y="369.468595" style="fill: #e40000; stroke: #e40000"/>
     <use xlink:href="#mf9dd3c3410" x="69.812072" y="388.435537" style="fill: #e40000; stroke: #e40000"/>
     <use xlink:href="#mf9dd3c3410" x="63.806115" y="407.402479" style="fill: #e40000; stroke: #e40000"/>
     <use xlink:href="#mf9dd3c3410" x="59.862641" y="426.369421" style="fill: #e40000; stroke: #e40000"/>
     <use xlink:href="#mf9dd3c3410" x="57.347233" y="445.336364" style="fill: #e40000; stroke: #e40000"/>
    </g>
   </g>
   <g id="patch_3">
    <path d="M 7.2 476.2 
L 277.2 476.2 
" style="fill: none; stroke: #000000; stroke-width: 2; stroke-linejoin: miter; stroke-linecap: square"/>
   </g>
  </g>
 </g>
 <defs>
  <clipPath id="p963dc1d8aa">
   <rect x="7.2" y="7.2" width="270" height="459"/>
  </clipPath>
 </defs>
</svg>
