<?xml version="1.0" encoding="utf-8" standalone="no"?>
<!DOCTYPE svg PUBLIC "-//W3C//DTD SVG 1.1//EN"
  "http://www.w3.org/Graphics/SVG/1.1/DTD/svg11.dtd">
<svg xmlns:xlink="http://www.w3.org/1999/xlink" width="343.766181pt" height="544.35625pt" viewBox="0 0 343.766181 544.35625" xmlns="http://www.w3.org/2000/svg" version="1.1">
 <metadata>
  <rdf:RDF xmlns:dc="http://purl.org/dc/elements/1.1/" xmlns:cc="http://creativecommons.org/ns#" xmlns:rdf="http://www.w3.org/1999/02/22-rdf-syntax-ns#">
   <cc:Work>
    <dc:type rdf:resource="http://purl.org/dc/dcmitype/StillImage"/>
    <dc:date>2024-07-06T14:15:29.544089</dc:date>
    <dc:format>image/svg+xml</dc:format>
    <dc:creator>
     <cc:Agent>
      <dc:title>Matplotlib v3.8.0, https://matplotlib.org/</dc:title>
     </cc:Agent>
    </dc:creator>
   </cc:Work>
  </rdf:RDF>
 </metadata>
 <defs>
  <style type="text/css">*{stroke-linejoin: round; stroke-linecap: butt}</style>
 </defs>
 <g id="figure_1">
  <g id="patch_1">
   <path d="M 0 544.35625 
L 343.766181 544.35625 
L 343.766181 0 
L 0 0 
z
" style="fill: #ffffff"/>
  </g>
  <g id="axes_1">
   <g id="patch_2">
    <path d="M 49.65 466.2 
L 319.65 466.2 
L 319.65 7.2 
L 49.65 7.2 
z
" style="fill: #ffffff"/>
   </g>
   <g id="PolyCollection_1">
    <defs>
     <path id="m48d46ee427" d="M 197.656773 -516.292614 
L 302.919312 -516.292614 
L 302.919312 -515.120499 
L 302.919312 -513.948385 
L 302.843411 -512.77627 
L 302.111799 -511.604156 
L 300.956641 -510.432042 
L 295.568934 -509.259927 
L 264.557349 -508.087813 
L 235.626993 -506.915698 
L 225.449401 -505.743584 
L 219.550521 -504.57147 
L 214.888837 -503.399355 
L 208.43353 -502.227241 
L 208.43353 -501.055126 
L 205.898551 -499.883012 
L 203.585734 -498.710898 
L 201.944709 -497.538783 
L 199.269122 -496.366669 
L 197.504958 -495.194554 
L 196.251412 -494.02244 
L 156.657349 -492.850326 
L 156.657349 -491.678211 
L 154.547823 -490.506097 
L 154.02364 -489.333982 
L 153.65134 -488.161868 
L 153.269426 -486.989754 
L 153.311649 -485.817639 
L 153.311649 -484.645525 
L 153.323113 -483.47341 
L 153.333223 -482.301296 
L 153.488559 -481.129182 
L 153.676416 -479.957067 
L 153.878784 -478.784953 
L 154.02364 -477.612838 
L 154.205407 -476.440724 
L 154.285485 -475.26861 
L 154.511429 -474.096495 
L 154.805272 -472.924381 
L 155.533066 -471.752266 
L 155.691171 -470.580152 
L 156.657349 -469.408038 
L 156.987386 -468.235923 
L 157.824912 -467.063809 
L 159.218467 -465.891694 
L 192.446836 -464.71958 
L 193.587066 -463.547466 
L 196.15353 -462.375351 
L 197.302664 -461.203237 
L 198.619855 -460.031122 
L 199.297339 -458.859008 
L 199.555915 -457.686894 
L 202.128738 -456.514779 
L 202.815149 -455.342665 
L 203.095483 -454.17055 
L 204.017135 -452.998436 
L 204.404094 -451.826322 
L 204.404094 -450.654207 
L 205.930864 -449.482093 
L 209.481529 -448.309978 
L 212.572871 -447.137864 
L 213.382222 -445.965749 
L 214.506694 -444.793635 
L 216.452093 -443.621521 
L 217.237552 -442.449406 
L 217.281789 -441.277292 
L 219.379844 -440.105177 
L 222.10366 -438.933063 
L 222.763763 -437.760949 
L 223.68529 -436.588834 
L 226.807135 -435.41672 
L 228.191852 -434.244605 
L 229.430595 -433.072491 
L 230.594196 -431.900377 
L 231.266576 -430.728262 
L 234.759581 -429.556148 
L 235.285511 -428.384033 
L 236.19654 -427.211919 
L 239.126263 -426.039805 
L 242.017723 -424.86769 
L 245.594805 -423.695576 
L 246.694139 -422.523461 
L 247.9876 -421.351347 
L 248.358319 -420.179233 
L 250.412195 -419.007118 
L 250.646284 -417.835004 
L 251.461892 -416.662889 
L 251.533171 -415.490775 
L 252.746746 -414.318661 
L 256.167007 -413.146546 
L 257.358562 -411.974432 
L 258.032721 -410.802317 
L 259.841292 -409.630203 
L 260.733148 -408.458089 
L 262.849245 -407.285974 
L 263.860095 -406.11386 
L 265.269482 -404.941745 
L 265.269482 -403.769631 
L 265.495693 -402.597517 
L 265.710609 -401.425402 
L 265.893368 -400.253288 
L 267.056434 -399.081173 
L 267.056434 -397.909059 
L 267.782033 -396.736945 
L 267.997622 -395.56483 
L 267.997622 -394.392716 
L 267.997622 -393.220601 
L 269.390628 -392.048487 
L 270.569766 -390.876373 
L 270.569766 -389.704258 
L 271.06177 -388.532144 
L 271.599689 -387.360029 
L 272.014987 -386.187915 
L 273.210389 -385.015801 
L 273.854019 -383.843686 
L 274.00389 -382.671572 
L 274.00389 -381.499457 
L 274.00389 -380.327343 
L 274.00389 -379.155229 
L 274.450819 -377.983114 
L 274.450819 -376.811 
L 275.000897 -375.638885 
L 275.000897 -374.466771 
L 275.935874 -373.294657 
L 276.35128 -372.122542 
L 276.35128 -370.950428 
L 277.019526 -369.778313 
L 278.037136 -368.606199 
L 278.062345 -367.434085 
L 278.062345 -366.26197 
L 278.062345 -365.089856 
L 278.062345 -363.917741 
L 278.062345 -362.745627 
L 278.062345 -361.573513 
L 278.12052 -360.401398 
L 278.12052 -359.229284 
L 278.12052 -358.057169 
L 278.196262 -356.885055 
L 278.12052 -355.712941 
L 278.12052 -354.540826 
L 278.473829 -353.368712 
L 278.473829 -352.196597 
L 278.473829 -351.024483 
L 278.473829 -349.852368 
L 278.473829 -348.680254 
L 278.473829 -347.50814 
L 278.473829 -346.336025 
L 278.348055 -345.163911 
L 278.348055 -343.991796 
L 278.12052 -342.819682 
L 278.062345 -341.647568 
L 278.037136 -340.475453 
L 276.862914 -339.303339 
L 276.36206 -338.131224 
L 276.325205 -336.95911 
L 275.935874 -335.786996 
L 275.809336 -334.614881 
L 275.871281 -333.442767 
L 275.549276 -332.270652 
L 274.450819 -331.098538 
L 274.450819 -329.926424 
L 273.831894 -328.754309 
L 272.937406 -327.582195 
L 272.848012 -326.41008 
L 272.119851 -325.237966 
L 271.599689 -324.065852 
L 271.072259 -322.893737 
L 271.072259 -321.721623 
L 270.63953 -320.549508 
L 270.63953 -319.377394 
L 270.100758 -318.20528 
L 269.899914 -317.033165 
L 269.899914 -315.861051 
L 269.899914 -314.688936 
L 269.398456 -313.516822 
L 269.398456 -312.344708 
L 269.899914 -311.172593 
L 268.897243 -310.000479 
L 268.242509 -308.828364 
L 266.735731 -307.65625 
L 266.619128 -306.484136 
L 266.619128 -305.312021 
L 266.500945 -304.139907 
L 266.178858 -302.967792 
L 266.11189 -301.795678 
L 264.358005 -300.623564 
L 262.51957 -299.451449 
L 261.900127 -298.279335 
L 261.823052 -297.10722 
L 261.631416 -295.935106 
L 260.600785 -294.762992 
L 259.949516 -293.590877 
L 258.682783 -292.418763 
L 257.658085 -291.246648 
L 256.261383 -290.074534 
L 255.812843 -288.90242 
L 255.812843 -287.730305 
L 253.703364 -286.558191 
L 252.895868 -285.386076 
L 252.07729 -284.213962 
L 251.651817 -283.041848 
L 250.650456 -281.869733 
L 248.532887 -280.697619 
L 248.294671 -279.525504 
L 247.660747 -278.35339 
L 247.559474 -277.181276 
L 245.4203 -276.009161 
L 243.879013 -274.837047 
L 242.039777 -273.664932 
L 240.745841 -272.492818 
L 240.578568 -271.320704 
L 239.721755 -270.148589 
L 239.592673 -268.976475 
L 238.628229 -267.80436 
L 238.45111 -266.632246 
L 238.152546 -265.460132 
L 237.585754 -264.288017 
L 237.189401 -263.115903 
L 235.484722 -261.943788 
L 234.917879 -260.771674 
L 233.143433 -259.599559 
L 232.750803 -258.427445 
L 232.144139 -257.255331 
L 229.076264 -256.083216 
L 226.747969 -254.911102 
L 226.685153 -253.738987 
L 224.499875 -252.566873 
L 223.571092 -251.394759 
L 223.270446 -250.222644 
L 222.696402 -249.05053 
L 222.273982 -247.878415 
L 220.395427 -246.706301 
L 217.802279 -245.534187 
L 216.856314 -244.362072 
L 216.24357 -243.189958 
L 215.657955 -242.017843 
L 214.823142 -240.845729 
L 214.538758 -239.673615 
L 212.35296 -238.5015 
L 211.606596 -237.329386 
L 210.996193 -236.157271 
L 210.294618 -234.985157 
L 209.594368 -233.813043 
L 208.918879 -232.640928 
L 207.811713 -231.468814 
L 207.136035 -230.296699 
L 206.399872 -229.124585 
L 205.516538 -227.952471 
L 204.289677 -226.780356 
L 204.289677 -225.608242 
L 203.003981 -224.436127 
L 202.310785 -223.264013 
L 201.913836 -222.091899 
L 201.577615 -220.919784 
L 201.202371 -219.74767 
L 199.794023 -218.575555 
L 199.392342 -217.403441 
L 198.07645 -216.231327 
L 197.652081 -215.059212 
L 196.973935 -213.887098 
L 196.329475 -212.714983 
L 196.109667 -211.542869 
L 195.137379 -210.370755 
L 194.172182 -209.19864 
L 192.298317 -208.026526 
L 189.283318 -206.854411 
L 188.423801 -205.682297 
L 187.981885 -204.510183 
L 187.2191 -203.338068 
L 187.123923 -202.165954 
L 186.972496 -200.993839 
L 185.987115 -199.821725 
L 184.990587 -198.649611 
L 184.21893 -197.477496 
L 183.920805 -196.305382 
L 183.325495 -195.133267 
L 182.572642 -193.961153 
L 182.219946 -192.789039 
L 181.916717 -191.616924 
L 180.53692 -190.44481 
L 179.603613 -189.272695 
L 176.985203 -188.100581 
L 173.237722 -186.928467 
L 171.231659 -185.756352 
L 168.861474 -184.584238 
L 112.341352 -183.412123 
L 107.340571 -182.240009 
L 107.217507 -181.067895 
L 107.04312 -179.89578 
L 106.945719 -178.723666 
L 106.945719 -177.551551 
L 106.909642 -176.379437 
L 106.799129 -175.207323 
L 106.694781 -174.035208 
L 106.694781 -172.863094 
L 106.694781 -171.690979 
L 106.58233 -170.518865 
L 106.55388 -169.346751 
L 106.522902 -168.174636 
L 106.502864 -167.002522 
L 106.440936 -165.830407 
L 106.411801 -164.658293 
L 106.411801 -163.486178 
L 106.411801 -162.314064 
L 106.387179 -161.14195 
L 106.387179 -159.969835 
L 106.387179 -158.797721 
L 106.370243 -157.625606 
L 106.370243 -156.453492 
L 106.370243 -155.281378 
L 106.358521 -154.109263 
L 106.34728 -152.937149 
L 106.34728 -151.765034 
L 106.342541 -150.59292 
L 106.332878 -149.420806 
L 106.271304 -148.248691 
L 106.271304 -147.076577 
L 106.271304 -145.904462 
L 106.26137 -144.732348 
L 106.26137 -143.560234 
L 106.259495 -142.388119 
L 106.259495 -141.216005 
L 106.259495 -140.04389 
L 106.259495 -138.871776 
L 106.259495 -137.699662 
L 106.259495 -136.527547 
L 106.259495 -135.355433 
L 106.259495 -134.183318 
L 106.228317 -133.011204 
L 106.228317 -131.83909 
L 106.201343 -130.666975 
L 106.201343 -129.494861 
L 106.201343 -128.322746 
L 106.201343 -127.150632 
L 106.201343 -125.978518 
L 106.201343 -124.806403 
L 106.201343 -123.634289 
L 106.201343 -122.462174 
L 106.201343 -121.29006 
L 106.201343 -120.117946 
L 106.201343 -118.945831 
L 106.201343 -117.773717 
L 106.193635 -116.601602 
L 106.193635 -115.429488 
L 106.193635 -114.257374 
L 106.168223 -113.085259 
L 106.168223 -111.913145 
L 106.168223 -110.74103 
L 106.160058 -109.568916 
L 106.160058 -108.396802 
L 106.160058 -107.224687 
L 106.160058 -106.052573 
L 106.160058 -104.880458 
L 106.160058 -103.708344 
L 106.160058 -102.53623 
L 106.160058 -101.364115 
L 106.160058 -100.192001 
L 106.160058 -99.019886 
L 96.408597 -99.019886 
L 96.408597 -99.019886 
L 96.408597 -100.192001 
L 96.408597 -101.364115 
L 96.408597 -102.53623 
L 96.408597 -103.708344 
L 96.408597 -104.880458 
L 96.408597 -106.052573 
L 96.408597 -107.224687 
L 96.408597 -108.396802 
L 96.408597 -109.568916 
L 96.433684 -110.74103 
L 96.433684 -111.913145 
L 96.433684 -113.085259 
L 96.524528 -114.257374 
L 96.524528 -115.429488 
L 96.524528 -116.601602 
L 96.536031 -117.773717 
L 96.536031 -118.945831 
L 96.536031 -120.117946 
L 96.536031 -121.29006 
L 96.536031 -122.462174 
L 96.536031 -123.634289 
L 96.536031 -124.806403 
L 96.536031 -125.978518 
L 96.536031 -127.150632 
L 96.536031 -128.322746 
L 96.536031 -129.494861 
L 96.536031 -130.666975 
L 96.559841 -131.83909 
L 96.559841 -133.011204 
L 96.595058 -134.183318 
L 96.595058 -135.355433 
L 96.595058 -136.527547 
L 96.595058 -137.699662 
L 96.595058 -138.871776 
L 96.595058 -140.04389 
L 96.595058 -141.216005 
L 96.595058 -142.388119 
L 96.636774 -143.560234 
L 96.636774 -144.732348 
L 96.640414 -145.904462 
L 96.640414 -147.076577 
L 96.640414 -148.248691 
L 96.649333 -149.420806 
L 96.656778 -150.59292 
L 96.672509 -151.765034 
L 96.672509 -152.937149 
L 96.823088 -154.109263 
L 96.823088 -155.281378 
L 96.823088 -156.453492 
L 96.823088 -157.625606 
L 96.823088 -158.797721 
L 96.823088 -159.969835 
L 96.823088 -161.14195 
L 96.837799 -162.314064 
L 96.837799 -163.486178 
L 96.837799 -164.658293 
L 96.956456 -165.830407 
L 96.991255 -167.002522 
L 96.994455 -168.174636 
L 97.016792 -169.346751 
L 97.075536 -170.518865 
L 97.13608 -171.690979 
L 97.13608 -172.863094 
L 97.13608 -174.035208 
L 97.141486 -175.207323 
L 97.18132 -176.379437 
L 97.193212 -177.551551 
L 97.193212 -178.723666 
L 97.193212 -179.89578 
L 97.278094 -181.067895 
L 97.295715 -182.240009 
L 97.330227 -183.412123 
L 97.330227 -184.584238 
L 97.333333 -185.756352 
L 97.354631 -186.928467 
L 97.429052 -188.100581 
L 97.487996 -189.272695 
L 97.566829 -190.44481 
L 97.581903 -191.616924 
L 97.63897 -192.789039 
L 97.737353 -193.961153 
L 97.770961 -195.133267 
L 97.788574 -196.305382 
L 97.788574 -197.477496 
L 97.795644 -198.649611 
L 97.871414 -199.821725 
L 98.080439 -200.993839 
L 98.107713 -202.165954 
L 98.107713 -203.338068 
L 98.220826 -204.510183 
L 98.389396 -205.682297 
L 98.511728 -206.854411 
L 98.723747 -208.026526 
L 98.738224 -209.19864 
L 98.791644 -210.370755 
L 98.911739 -211.542869 
L 98.946126 -212.714983 
L 98.95516 -213.887098 
L 98.996436 -215.059212 
L 99.117033 -216.231327 
L 99.234412 -217.403441 
L 99.305603 -218.575555 
L 99.333046 -219.74767 
L 99.37127 -220.919784 
L 99.403776 -222.091899 
L 99.421574 -223.264013 
L 99.487848 -224.436127 
L 99.595274 -225.608242 
L 99.627424 -226.780356 
L 99.698448 -227.952471 
L 99.720377 -229.124585 
L 99.768538 -230.296699 
L 99.788857 -231.468814 
L 99.885705 -232.640928 
L 99.96002 -233.813043 
L 100.02348 -234.985157 
L 100.122424 -236.157271 
L 100.189331 -237.329386 
L 100.227731 -238.5015 
L 100.276465 -239.673615 
L 100.277275 -240.845729 
L 100.349449 -242.017843 
L 100.436887 -243.189958 
L 100.446324 -244.362072 
L 100.503613 -245.534187 
L 100.588198 -246.706301 
L 100.682798 -247.878415 
L 100.726352 -249.05053 
L 100.814441 -250.222644 
L 100.844618 -251.394759 
L 100.906528 -252.566873 
L 101.008992 -253.738987 
L 101.054572 -254.911102 
L 101.096829 -256.083216 
L 101.18124 -257.255331 
L 101.219719 -258.427445 
L 101.262178 -259.599559 
L 101.328677 -260.771674 
L 101.382509 -261.943788 
L 101.597156 -263.115903 
L 101.613894 -264.288017 
L 101.825977 -265.460132 
L 101.838582 -266.632246 
L 101.858657 -267.80436 
L 101.882542 -268.976475 
L 101.984165 -270.148589 
L 102.061421 -271.320704 
L 102.061421 -272.492818 
L 102.153908 -273.664932 
L 102.391756 -274.837047 
L 102.512351 -276.009161 
L 102.689632 -277.181276 
L 102.782545 -278.35339 
L 102.876657 -279.525504 
L 103.010266 -280.697619 
L 103.137219 -281.869733 
L 103.253376 -283.041848 
L 103.308681 -284.213962 
L 103.389715 -285.386076 
L 103.39561 -286.558191 
L 103.480233 -287.730305 
L 103.480233 -288.90242 
L 103.581903 -290.074534 
L 103.662733 -291.246648 
L 103.676963 -292.418763 
L 103.822315 -293.590877 
L 103.832133 -294.762992 
L 103.850035 -295.935106 
L 104.012446 -297.10722 
L 104.039471 -298.279335 
L 104.135462 -299.451449 
L 104.270984 -300.623564 
L 104.441324 -301.795678 
L 104.474426 -302.967792 
L 104.577807 -304.139907 
L 104.723162 -305.312021 
L 105.019258 -306.484136 
L 105.099783 -307.65625 
L 105.146238 -308.828364 
L 105.332061 -310.000479 
L 105.465957 -311.172593 
L 105.570305 -312.344708 
L 105.653557 -313.516822 
L 105.789076 -314.688936 
L 105.892003 -315.861051 
L 106.000549 -317.033165 
L 106.255951 -318.20528 
L 106.365936 -319.377394 
L 106.369294 -320.549508 
L 106.4689 -321.721623 
L 106.58026 -322.893737 
L 106.902385 -324.065852 
L 108.142213 -325.237966 
L 151.759521 -326.41008 
L 152.115054 -327.582195 
L 152.35623 -328.754309 
L 152.655828 -329.926424 
L 152.658414 -331.098538 
L 152.915431 -332.270652 
L 152.945168 -333.442767 
L 152.994828 -334.614881 
L 152.969689 -335.786996 
L 152.969689 -336.95911 
L 152.717577 -338.131224 
L 152.640116 -339.303339 
L 152.600007 -340.475453 
L 152.640116 -341.647568 
L 152.640116 -342.819682 
L 152.658414 -343.991796 
L 152.590478 -345.163911 
L 152.401887 -346.336025 
L 152.365953 -347.50814 
L 152.145742 -348.680254 
L 152.121007 -349.852368 
L 152.095059 -351.024483 
L 151.82787 -352.196597 
L 151.603192 -353.368712 
L 151.244459 -354.540826 
L 151.177705 -355.712941 
L 150.891704 -356.885055 
L 150.861121 -358.057169 
L 150.585666 -359.229284 
L 150.282079 -360.401398 
L 150.170069 -361.573513 
L 150.005767 -362.745627 
L 149.706264 -363.917741 
L 149.494415 -365.089856 
L 149.153652 -366.26197 
L 149.115162 -367.434085 
L 148.632245 -368.606199 
L 148.380859 -369.778313 
L 148.193273 -370.950428 
L 148.03616 -372.122542 
L 147.997333 -373.294657 
L 147.851869 -374.466771 
L 147.470079 -375.638885 
L 147.173957 -376.811 
L 146.94569 -377.983114 
L 146.815861 -379.155229 
L 146.702254 -380.327343 
L 146.426968 -381.499457 
L 146.235986 -382.671572 
L 145.713026 -383.843686 
L 145.509779 -385.015801 
L 145.145435 -386.187915 
L 145.011962 -387.360029 
L 144.382555 -388.532144 
L 144.13584 -389.704258 
L 143.860851 -390.876373 
L 143.632035 -392.048487 
L 143.380986 -393.220601 
L 142.857258 -394.392716 
L 142.67219 -395.56483 
L 142.311314 -396.736945 
L 141.682952 -397.909059 
L 141.682952 -399.081173 
L 141.383482 -400.253288 
L 141.145599 -401.425402 
L 141.03481 -402.597517 
L 140.861741 -403.769631 
L 140.453684 -404.941745 
L 140.195111 -406.11386 
L 139.839092 -407.285974 
L 139.067322 -408.458089 
L 138.122704 -409.630203 
L 137.950264 -410.802317 
L 137.423816 -411.974432 
L 137.003492 -413.146546 
L 136.267803 -414.318661 
L 136.080072 -415.490775 
L 135.599387 -416.662889 
L 135.279637 -417.835004 
L 134.933777 -419.007118 
L 134.41414 -420.179233 
L 134.319643 -421.351347 
L 133.430907 -422.523461 
L 132.840387 -423.695576 
L 132.607656 -424.86769 
L 131.431005 -426.039805 
L 131.163584 -427.211919 
L 130.799503 -428.384033 
L 130.623179 -429.556148 
L 130.302419 -430.728262 
L 130.134271 -431.900377 
L 129.839651 -433.072491 
L 129.308006 -434.244605 
L 128.415668 -435.41672 
L 127.601242 -436.588834 
L 127.44612 -437.760949 
L 126.730296 -438.933063 
L 125.738303 -440.105177 
L 125.253289 -441.277292 
L 124.738705 -442.449406 
L 124.322559 -443.621521 
L 123.920561 -444.793635 
L 122.682616 -445.965749 
L 121.560289 -447.137864 
L 120.608879 -448.309978 
L 119.96406 -449.482093 
L 118.420156 -450.654207 
L 118.420156 -451.826322 
L 118.378734 -452.998436 
L 117.754791 -454.17055 
L 117.374671 -455.342665 
L 115.946012 -456.514779 
L 115.230389 -457.686894 
L 114.891953 -458.859008 
L 114.20796 -460.031122 
L 113.560212 -461.203237 
L 111.941558 -462.375351 
L 111.838104 -463.547466 
L 110.977242 -464.71958 
L 110.324217 -465.891694 
L 110.19993 -467.063809 
L 109.552691 -468.235923 
L 109.364857 -469.408038 
L 108.211611 -470.580152 
L 106.67402 -471.752266 
L 106.115109 -472.924381 
L 105.758112 -474.096495 
L 103.722526 -475.26861 
L 102.856589 -476.440724 
L 99.531638 -477.612838 
L 98.751611 -478.784953 
L 98.404462 -479.957067 
L 96.190133 -481.129182 
L 95.103377 -482.301296 
L 95.103377 -483.47341 
L 94.901001 -484.645525 
L 94.901001 -485.817639 
L 94.380509 -486.989754 
L 98.404462 -488.161868 
L 100.913726 -489.333982 
L 106.464208 -490.506097 
L 109.552691 -491.678211 
L 109.552691 -492.850326 
L 115.560923 -494.02244 
L 117.694278 -495.194554 
L 120.854496 -496.366669 
L 125.253289 -497.538783 
L 128.049133 -498.710898 
L 131.172728 -499.883012 
L 134.409348 -501.055126 
L 134.409348 -502.227241 
L 139.270698 -503.399355 
L 141.614541 -504.57147 
L 143.699212 -505.743584 
L 145.148924 -506.915698 
L 147.692029 -508.087813 
L 151.815743 -509.259927 
L 195.265015 -510.432042 
L 197.166646 -511.604156 
L 197.506257 -512.77627 
L 197.656773 -513.948385 
L 197.656773 -515.120499 
L 197.656773 -516.292614 
z
" style="stroke: #fecc5c; stroke-opacity: 0.5"/>
    </defs>
    <g clip-path="url(#pb7e96854ea)">
     <use xlink:href="#m48d46ee427" x="0" y="544.35625" style="fill: #fecc5c; fill-opacity: 0.5; stroke: #fecc5c; stroke-opacity: 0.5"/>
    </g>
   </g>
   <g id="matplotlib.axis_1">
    <g id="xtick_1">
     <g id="line2d_1">
      <defs>
       <path id="md433ec7887" d="M 0 0 
L 0 3.5 
" style="stroke: #000000; stroke-width: 1.5"/>
      </defs>
      <g>
       <use xlink:href="#md433ec7887" x="93.571438" y="476.2" style="stroke: #000000; stroke-width: 1.5"/>
      </g>
     </g>
     <g id="text_1">
      <!-- 250 -->
      <g transform="translate(74.483938 498.396875) scale(0.2 -0.2)">
       <defs>
        <path id="DejaVuSans-32" d="M 1228 531 
L 3431 531 
L 3431 0 
L 469 0 
L 469 531 
Q 828 903 1448 1529 
Q 2069 2156 2228 2338 
Q 2531 2678 2651 2914 
Q 2772 3150 2772 3378 
Q 2772 3750 2511 3984 
Q 2250 4219 1831 4219 
Q 1534 4219 1204 4116 
Q 875 4013 500 3803 
L 500 4441 
Q 881 4594 1212 4672 
Q 1544 4750 1819 4750 
Q 2544 4750 2975 4387 
Q 3406 4025 3406 3419 
Q 3406 3131 3298 2873 
Q 3191 2616 2906 2266 
Q 2828 2175 2409 1742 
Q 1991 1309 1228 531 
z
" transform="scale(0.015625)"/>
        <path id="DejaVuSans-35" d="M 691 4666 
L 3169 4666 
L 3169 4134 
L 1269 4134 
L 1269 2991 
Q 1406 3038 1543 3061 
Q 1681 3084 1819 3084 
Q 2600 3084 3056 2656 
Q 3513 2228 3513 1497 
Q 3513 744 3044 326 
Q 2575 -91 1722 -91 
Q 1428 -91 1123 -41 
Q 819 9 494 109 
L 494 744 
Q 775 591 1075 516 
Q 1375 441 1709 441 
Q 2250 441 2565 725 
Q 2881 1009 2881 1497 
Q 2881 1984 2565 2268 
Q 2250 2553 1709 2553 
Q 1456 2553 1204 2497 
Q 953 2441 691 2322 
L 691 4666 
z
" transform="scale(0.015625)"/>
        <path id="DejaVuSans-30" d="M 2034 4250 
Q 1547 4250 1301 3770 
Q 1056 3291 1056 2328 
Q 1056 1369 1301 889 
Q 1547 409 2034 409 
Q 2525 409 2770 889 
Q 3016 1369 3016 2328 
Q 3016 3291 2770 3770 
Q 2525 4250 2034 4250 
z
M 2034 4750 
Q 2819 4750 3233 4129 
Q 3647 3509 3647 2328 
Q 3647 1150 3233 529 
Q 2819 -91 2034 -91 
Q 1250 -91 836 529 
Q 422 1150 422 2328 
Q 422 3509 836 4129 
Q 1250 4750 2034 4750 
z
" transform="scale(0.015625)"/>
       </defs>
       <use xlink:href="#DejaVuSans-32"/>
       <use xlink:href="#DejaVuSans-35" x="63.623047"/>
       <use xlink:href="#DejaVuSans-30" x="127.246094"/>
      </g>
     </g>
    </g>
    <g id="xtick_2">
     <g id="line2d_2">
      <g>
       <use xlink:href="#md433ec7887" x="166.086352" y="476.2" style="stroke: #000000; stroke-width: 1.5"/>
      </g>
     </g>
     <g id="text_2">
      <!-- 500 -->
      <g transform="translate(146.998852 498.396875) scale(0.2 -0.2)">
       <use xlink:href="#DejaVuSans-35"/>
       <use xlink:href="#DejaVuSans-30" x="63.623047"/>
       <use xlink:href="#DejaVuSans-30" x="127.246094"/>
      </g>
     </g>
    </g>
    <g id="xtick_3">
     <g id="line2d_3">
      <g>
       <use xlink:href="#md433ec7887" x="238.601267" y="476.2" style="stroke: #000000; stroke-width: 1.5"/>
      </g>
     </g>
     <g id="text_3">
      <!-- 750 -->
      <g transform="translate(219.513767 498.396875) scale(0.2 -0.2)">
       <defs>
        <path id="DejaVuSans-37" d="M 525 4666 
L 3525 4666 
L 3525 4397 
L 1831 0 
L 1172 0 
L 2766 4134 
L 525 4134 
L 525 4666 
z
" transform="scale(0.015625)"/>
       </defs>
       <use xlink:href="#DejaVuSans-37"/>
       <use xlink:href="#DejaVuSans-35" x="63.623047"/>
       <use xlink:href="#DejaVuSans-30" x="127.246094"/>
      </g>
     </g>
    </g>
    <g id="xtick_4">
     <g id="line2d_4">
      <g>
       <use xlink:href="#md433ec7887" x="311.116181" y="476.2" style="stroke: #000000; stroke-width: 1.5"/>
      </g>
     </g>
     <g id="text_4">
      <!-- 1000 -->
      <g transform="translate(285.666181 498.396875) scale(0.2 -0.2)">
       <defs>
        <path id="DejaVuSans-31" d="M 794 531 
L 1825 531 
L 1825 4091 
L 703 3866 
L 703 4441 
L 1819 4666 
L 2450 4666 
L 2450 531 
L 3481 531 
L 3481 0 
L 794 0 
L 794 531 
z
" transform="scale(0.015625)"/>
       </defs>
       <use xlink:href="#DejaVuSans-31"/>
       <use xlink:href="#DejaVuSans-30" x="63.623047"/>
       <use xlink:href="#DejaVuSans-30" x="127.246094"/>
       <use xlink:href="#DejaVuSans-30" x="190.869141"/>
      </g>
     </g>
    </g>
    <g id="text_5">
     <!-- Resistivity  [$\Omega m$] -->
     <g transform="translate(90.35 532.75625) scale(0.2 -0.2)">
      <defs>
       <path id="DejaVuSans-Bold-52" d="M 2297 2597 
Q 2675 2597 2839 2737 
Q 3003 2878 3003 3200 
Q 3003 3519 2839 3656 
Q 2675 3794 2297 3794 
L 1791 3794 
L 1791 2597 
L 2297 2597 
z
M 1791 1766 
L 1791 0 
L 588 0 
L 588 4666 
L 2425 4666 
Q 3347 4666 3776 4356 
Q 4206 4047 4206 3378 
Q 4206 2916 3982 2619 
Q 3759 2322 3309 2181 
Q 3556 2125 3751 1926 
Q 3947 1728 4147 1325 
L 4800 0 
L 3519 0 
L 2950 1159 
Q 2778 1509 2601 1637 
Q 2425 1766 2131 1766 
L 1791 1766 
z
" transform="scale(0.015625)"/>
       <path id="DejaVuSans-Bold-65" d="M 4031 1759 
L 4031 1441 
L 1416 1441 
Q 1456 1047 1700 850 
Q 1944 653 2381 653 
Q 2734 653 3104 758 
Q 3475 863 3866 1075 
L 3866 213 
Q 3469 63 3072 -14 
Q 2675 -91 2278 -91 
Q 1328 -91 801 392 
Q 275 875 275 1747 
Q 275 2603 792 3093 
Q 1309 3584 2216 3584 
Q 3041 3584 3536 3087 
Q 4031 2591 4031 1759 
z
M 2881 2131 
Q 2881 2450 2695 2645 
Q 2509 2841 2209 2841 
Q 1884 2841 1681 2658 
Q 1478 2475 1428 2131 
L 2881 2131 
z
" transform="scale(0.015625)"/>
       <path id="DejaVuSans-Bold-73" d="M 3272 3391 
L 3272 2541 
Q 2913 2691 2578 2766 
Q 2244 2841 1947 2841 
Q 1628 2841 1473 2761 
Q 1319 2681 1319 2516 
Q 1319 2381 1436 2309 
Q 1553 2238 1856 2203 
L 2053 2175 
Q 2913 2066 3209 1816 
Q 3506 1566 3506 1031 
Q 3506 472 3093 190 
Q 2681 -91 1863 -91 
Q 1516 -91 1145 -36 
Q 775 19 384 128 
L 384 978 
Q 719 816 1070 734 
Q 1422 653 1784 653 
Q 2113 653 2278 743 
Q 2444 834 2444 1013 
Q 2444 1163 2330 1236 
Q 2216 1309 1875 1350 
L 1678 1375 
Q 931 1469 631 1722 
Q 331 1975 331 2491 
Q 331 3047 712 3315 
Q 1094 3584 1881 3584 
Q 2191 3584 2531 3537 
Q 2872 3491 3272 3391 
z
" transform="scale(0.015625)"/>
       <path id="DejaVuSans-Bold-69" d="M 538 3500 
L 1656 3500 
L 1656 0 
L 538 0 
L 538 3500 
z
M 538 4863 
L 1656 4863 
L 1656 3950 
L 538 3950 
L 538 4863 
z
" transform="scale(0.015625)"/>
       <path id="DejaVuSans-Bold-74" d="M 1759 4494 
L 1759 3500 
L 2913 3500 
L 2913 2700 
L 1759 2700 
L 1759 1216 
Q 1759 972 1856 886 
Q 1953 800 2241 800 
L 2816 800 
L 2816 0 
L 1856 0 
Q 1194 0 917 276 
Q 641 553 641 1216 
L 641 2700 
L 84 2700 
L 84 3500 
L 641 3500 
L 641 4494 
L 1759 4494 
z
" transform="scale(0.015625)"/>
       <path id="DejaVuSans-Bold-76" d="M 97 3500 
L 1216 3500 
L 2088 1081 
L 2956 3500 
L 4078 3500 
L 2700 0 
L 1472 0 
L 97 3500 
z
" transform="scale(0.015625)"/>
       <path id="DejaVuSans-Bold-79" d="M 78 3500 
L 1197 3500 
L 2138 1125 
L 2938 3500 
L 4056 3500 
L 2584 -331 
Q 2363 -916 2067 -1148 
Q 1772 -1381 1288 -1381 
L 641 -1381 
L 641 -647 
L 991 -647 
Q 1275 -647 1404 -556 
Q 1534 -466 1606 -231 
L 1638 -134 
L 78 3500 
z
" transform="scale(0.015625)"/>
       <path id="DejaVuSans-Bold-20" transform="scale(0.015625)"/>
       <path id="DejaVuSans-Bold-5b" d="M 550 4863 
L 2491 4863 
L 2491 4159 
L 1613 4159 
L 1613 -141 
L 2491 -141 
L 2491 -844 
L 550 -844 
L 550 4863 
z
" transform="scale(0.015625)"/>
       <path id="DejaVuSans-Bold-3a9" d="M 2719 4750 
Q 3841 4750 4480 4106 
Q 5119 3463 5119 2494 
Q 5119 1406 4306 909 
L 5266 909 
L 5266 0 
L 3125 0 
L 3125 975 
Q 3244 1041 3334 1131 
Q 3875 1678 3875 2466 
Q 3875 3066 3572 3472 
Q 3269 3878 2719 3878 
Q 2169 3878 1866 3472 
Q 1563 3066 1563 2466 
Q 1563 1678 2103 1131 
Q 2194 1041 2313 975 
L 2313 0 
L 172 0 
L 172 909 
L 1131 909 
Q 319 1406 319 2494 
Q 319 3463 958 4106 
Q 1597 4750 2719 4750 
z
" transform="scale(0.015625)"/>
       <path id="DejaVuSans-Bold-6d" d="M 3781 2919 
Q 3994 3244 4286 3414 
Q 4578 3584 4928 3584 
Q 5531 3584 5847 3212 
Q 6163 2841 6163 2131 
L 6163 0 
L 5038 0 
L 5038 1825 
Q 5041 1866 5042 1909 
Q 5044 1953 5044 2034 
Q 5044 2406 4934 2573 
Q 4825 2741 4581 2741 
Q 4263 2741 4089 2478 
Q 3916 2216 3909 1719 
L 3909 0 
L 2784 0 
L 2784 1825 
Q 2784 2406 2684 2573 
Q 2584 2741 2328 2741 
Q 2006 2741 1831 2477 
Q 1656 2213 1656 1722 
L 1656 0 
L 531 0 
L 531 3500 
L 1656 3500 
L 1656 2988 
Q 1863 3284 2130 3434 
Q 2397 3584 2719 3584 
Q 3081 3584 3359 3409 
Q 3638 3234 3781 2919 
z
" transform="scale(0.015625)"/>
       <path id="DejaVuSans-Bold-5d" d="M 2375 -844 
L 434 -844 
L 434 -141 
L 1313 -141 
L 1313 4159 
L 434 4159 
L 434 4863 
L 2375 4863 
L 2375 -844 
z
" transform="scale(0.015625)"/>
      </defs>
      <use xlink:href="#DejaVuSans-Bold-52" transform="translate(0 0.015625)"/>
      <use xlink:href="#DejaVuSans-Bold-65" transform="translate(77.001953 0.015625)"/>
      <use xlink:href="#DejaVuSans-Bold-73" transform="translate(144.824219 0.015625)"/>
      <use xlink:href="#DejaVuSans-Bold-69" transform="translate(204.345703 0.015625)"/>
      <use xlink:href="#DejaVuSans-Bold-73" transform="translate(238.623047 0.015625)"/>
      <use xlink:href="#DejaVuSans-Bold-74" transform="translate(298.144531 0.015625)"/>
      <use xlink:href="#DejaVuSans-Bold-69" transform="translate(345.947266 0.015625)"/>
      <use xlink:href="#DejaVuSans-Bold-76" transform="translate(380.224609 0.015625)"/>
      <use xlink:href="#DejaVuSans-Bold-69" transform="translate(445.410156 0.015625)"/>
      <use xlink:href="#DejaVuSans-Bold-74" transform="translate(479.6875 0.015625)"/>
      <use xlink:href="#DejaVuSans-Bold-79" transform="translate(527.490234 0.015625)"/>
      <use xlink:href="#DejaVuSans-Bold-20" transform="translate(592.675781 0.015625)"/>
      <use xlink:href="#DejaVuSans-Bold-20" transform="translate(627.490234 0.015625)"/>
      <use xlink:href="#DejaVuSans-Bold-5b" transform="translate(662.304688 0.015625)"/>
      <use xlink:href="#DejaVuSans-Bold-3a9" transform="translate(708.007812 0.015625)"/>
      <use xlink:href="#DejaVuSans-Bold-6d" transform="translate(793.017578 0.015625)"/>
      <use xlink:href="#DejaVuSans-Bold-5d" transform="translate(897.216797 0.015625)"/>
     </g>
    </g>
   </g>
   <g id="matplotlib.axis_2">
    <g id="ytick_1">
     <g id="line2d_5">
      <defs>
       <path id="m4486d23f3e" d="M 0 0 
L -3.5 0 
" style="stroke: #000000; stroke-width: 1.5"/>
      </defs>
      <g>
       <use xlink:href="#m4486d23f3e" x="39.65" y="28.063636" style="stroke: #000000; stroke-width: 1.5"/>
      </g>
     </g>
     <g id="text_6">
      <!-- 0 -->
      <g transform="translate(19.925 35.662074) scale(0.2 -0.2)">
       <use xlink:href="#DejaVuSans-30"/>
      </g>
     </g>
    </g>
    <g id="ytick_2">
     <g id="line2d_6">
      <g>
       <use xlink:href="#m4486d23f3e" x="39.65" y="86.669356" style="stroke: #000000; stroke-width: 1.5"/>
      </g>
     </g>
     <g id="text_7">
      <!-- 5 -->
      <g transform="translate(19.925 94.267794) scale(0.2 -0.2)">
       <use xlink:href="#DejaVuSans-35"/>
      </g>
     </g>
    </g>
    <g id="ytick_3">
     <g id="line2d_7">
      <g>
       <use xlink:href="#m4486d23f3e" x="39.65" y="145.275077" style="stroke: #000000; stroke-width: 1.5"/>
      </g>
     </g>
     <g id="text_8">
      <!-- 10 -->
      <g transform="translate(7.2 152.873514) scale(0.2 -0.2)">
       <use xlink:href="#DejaVuSans-31"/>
       <use xlink:href="#DejaVuSans-30" x="63.623047"/>
      </g>
     </g>
    </g>
    <g id="ytick_4">
     <g id="line2d_8">
      <g>
       <use xlink:href="#m4486d23f3e" x="39.65" y="203.880797" style="stroke: #000000; stroke-width: 1.5"/>
      </g>
     </g>
     <g id="text_9">
      <!-- 15 -->
      <g transform="translate(7.2 211.479234) scale(0.2 -0.2)">
       <use xlink:href="#DejaVuSans-31"/>
       <use xlink:href="#DejaVuSans-35" x="63.623047"/>
      </g>
     </g>
    </g>
    <g id="ytick_5">
     <g id="line2d_9">
      <g>
       <use xlink:href="#m4486d23f3e" x="39.65" y="262.486517" style="stroke: #000000; stroke-width: 1.5"/>
      </g>
     </g>
     <g id="text_10">
      <!-- 20 -->
      <g transform="translate(7.2 270.084954) scale(0.2 -0.2)">
       <use xlink:href="#DejaVuSans-32"/>
       <use xlink:href="#DejaVuSans-30" x="63.623047"/>
      </g>
     </g>
    </g>
    <g id="ytick_6">
     <g id="line2d_10">
      <g>
       <use xlink:href="#m4486d23f3e" x="39.65" y="321.092237" style="stroke: #000000; stroke-width: 1.5"/>
      </g>
     </g>
     <g id="text_11">
      <!-- 25 -->
      <g transform="translate(7.2 328.690674) scale(0.2 -0.2)">
       <use xlink:href="#DejaVuSans-32"/>
       <use xlink:href="#DejaVuSans-35" x="63.623047"/>
      </g>
     </g>
    </g>
    <g id="ytick_7">
     <g id="line2d_11">
      <g>
       <use xlink:href="#m4486d23f3e" x="39.65" y="379.697957" style="stroke: #000000; stroke-width: 1.5"/>
      </g>
     </g>
     <g id="text_12">
      <!-- 30 -->
      <g transform="translate(7.2 387.296395) scale(0.2 -0.2)">
       <defs>
        <path id="DejaVuSans-33" d="M 2597 2516 
Q 3050 2419 3304 2112 
Q 3559 1806 3559 1356 
Q 3559 666 3084 287 
Q 2609 -91 1734 -91 
Q 1441 -91 1130 -33 
Q 819 25 488 141 
L 488 750 
Q 750 597 1062 519 
Q 1375 441 1716 441 
Q 2309 441 2620 675 
Q 2931 909 2931 1356 
Q 2931 1769 2642 2001 
Q 2353 2234 1838 2234 
L 1294 2234 
L 1294 2753 
L 1863 2753 
Q 2328 2753 2575 2939 
Q 2822 3125 2822 3475 
Q 2822 3834 2567 4026 
Q 2313 4219 1838 4219 
Q 1578 4219 1281 4162 
Q 984 4106 628 3988 
L 628 4550 
Q 988 4650 1302 4700 
Q 1616 4750 1894 4750 
Q 2613 4750 3031 4423 
Q 3450 4097 3450 3541 
Q 3450 3153 3228 2886 
Q 3006 2619 2597 2516 
z
" transform="scale(0.015625)"/>
       </defs>
       <use xlink:href="#DejaVuSans-33"/>
       <use xlink:href="#DejaVuSans-30" x="63.623047"/>
      </g>
     </g>
    </g>
    <g id="ytick_8">
     <g id="line2d_12">
      <g>
       <use xlink:href="#m4486d23f3e" x="39.65" y="438.303677" style="stroke: #000000; stroke-width: 1.5"/>
      </g>
     </g>
     <g id="text_13">
      <!-- 35 -->
      <g transform="translate(7.2 445.902115) scale(0.2 -0.2)">
       <use xlink:href="#DejaVuSans-33"/>
       <use xlink:href="#DejaVuSans-35" x="63.623047"/>
      </g>
     </g>
    </g>
   </g>
   <g id="line2d_13">
    <path d="M 255.03981 28.063636 
L 255.03981 37.440552 
L 147.7797 37.440552 
L 147.7797 161.684678 
L 205.807565 161.684678 
L 205.807565 319.920123 
L 98.447207 319.920123 
L 98.447207 445.336364 
L 98.447207 445.336364 
" clip-path="url(#pb7e96854ea)" style="fill: none; stroke: #fecc5c; stroke-opacity: 0.3; stroke-width: 2; stroke-linecap: square"/>
   </g>
   <g id="line2d_14">
    <path d="M 197.020815 28.063636 
L 197.020815 51.505924 
L 117.558357 51.505924 
L 117.558357 85.497242 
L 196.507244 85.497242 
L 196.507244 281.240347 
L 104.506752 281.240347 
L 104.506752 445.336364 
L 104.506752 445.336364 
" clip-path="url(#pb7e96854ea)" style="fill: none; stroke: #fecc5c; stroke-opacity: 0.3; stroke-width: 2; stroke-linecap: square"/>
   </g>
   <g id="line2d_15">
    <path d="M 296.918979 28.063636 
L 296.918979 36.268437 
L 146.199624 36.268437 
L 146.199624 186.299081 
L 235.643505 186.299081 
L 235.643505 299.994178 
L 98.936329 299.994178 
L 98.936329 445.336364 
L 98.936329 445.336364 
" clip-path="url(#pb7e96854ea)" style="fill: none; stroke: #fecc5c; stroke-opacity: 0.3; stroke-width: 2; stroke-linecap: square"/>
   </g>
   <g id="line2d_16">
    <path d="M 252.456342 28.063636 
L 252.456342 37.440552 
L 147.141388 37.440552 
L 147.141388 164.028907 
L 208.683429 164.028907 
L 208.683429 302.338407 
L 101.020415 302.338407 
L 101.020415 445.336364 
L 101.020415 445.336364 
" clip-path="url(#pb7e96854ea)" style="fill: none; stroke: #fecc5c; stroke-opacity: 0.3; stroke-width: 2; stroke-linecap: square"/>
   </g>
   <g id="line2d_17">
    <path d="M 219.027038 28.063636 
L 219.027038 42.129009 
L 133.142912 42.129009 
L 133.142912 115.972217 
L 208.787139 115.972217 
L 208.787139 262.486517 
L 104.229599 262.486517 
L 104.229599 445.336364 
L 104.229599 445.336364 
" clip-path="url(#pb7e96854ea)" style="fill: none; stroke: #fecc5c; stroke-opacity: 0.3; stroke-width: 2; stroke-linecap: square"/>
   </g>
   <g id="line2d_18">
    <path d="M 301.464085 28.063636 
L 301.464085 35.096323 
L 152.182644 35.096323 
L 152.182644 213.257712 
L 271.55386 213.257712 
L 271.55386 289.445148 
L 100.925089 289.445148 
L 100.925089 445.336364 
L 100.925089 445.336364 
" clip-path="url(#pb7e96854ea)" style="fill: none; stroke: #fecc5c; stroke-opacity: 0.3; stroke-width: 2; stroke-linecap: square"/>
   </g>
   <g id="line2d_19">
    <path d="M 197.496552 28.063636 
L 197.496552 50.33381 
L 124.28046 50.33381 
L 124.28046 121.832789 
L 229.49714 121.832789 
L 229.49714 260.142288 
L 103.472689 260.142288 
L 103.472689 445.336364 
L 103.472689 445.336364 
" clip-path="url(#pb7e96854ea)" style="fill: none; stroke: #fecc5c; stroke-opacity: 0.3; stroke-width: 2; stroke-linecap: square"/>
   </g>
   <g id="line2d_20">
    <path d="M 272.183072 28.063636 
L 272.183072 36.268437 
L 145.35716 36.268437 
L 145.35716 161.684678 
L 211.619451 161.684678 
L 211.619451 304.682635 
L 100.803641 304.682635 
L 100.803641 445.336364 
L 100.803641 445.336364 
" clip-path="url(#pb7e96854ea)" style="fill: none; stroke: #fecc5c; stroke-opacity: 0.3; stroke-width: 2; stroke-linecap: square"/>
   </g>
   <g id="line2d_21">
    <path d="M 224.005268 28.063636 
L 224.005268 38.612666 
L 147.317232 38.612666 
L 147.317232 171.061593 
L 198.60545 171.061593 
L 198.60545 331.641267 
L 98.505152 331.641267 
L 98.505152 445.336364 
L 98.505152 445.336364 
" clip-path="url(#pb7e96854ea)" style="fill: none; stroke: #fecc5c; stroke-opacity: 0.3; stroke-width: 2; stroke-linecap: square"/>
   </g>
   <g id="line2d_22">
    <path d="M 307.377273 28.063636 
L 307.377273 36.268437 
L 150.371675 36.268437 
L 150.371675 186.299081 
L 193.789528 186.299081 
L 193.789528 338.673953 
L 99.28574 338.673953 
L 99.28574 445.336364 
L 99.28574 445.336364 
" clip-path="url(#pb7e96854ea)" style="fill: none; stroke: #fecc5c; stroke-opacity: 0.3; stroke-width: 2; stroke-linecap: square"/>
   </g>
   <g id="line2d_23">
    <path d="M 197.955542 28.063636 
L 197.955542 44.473238 
L 138.890807 44.473238 
L 138.890807 101.906844 
L 182.406156 101.906844 
L 182.406156 315.231665 
L 102.501359 315.231665 
L 102.501359 445.336364 
L 102.501359 445.336364 
" clip-path="url(#pb7e96854ea)" style="fill: none; stroke: #fecc5c; stroke-opacity: 0.3; stroke-width: 2; stroke-linecap: square"/>
   </g>
   <g id="line2d_24">
    <path d="M 213.839495 28.063636 
L 213.839495 42.129009 
L 134.781207 42.129009 
L 134.781207 126.521246 
L 225.773509 126.521246 
L 225.773509 267.174974 
L 101.545936 267.174974 
L 101.545936 445.336364 
L 101.545936 445.336364 
" clip-path="url(#pb7e96854ea)" style="fill: none; stroke: #fecc5c; stroke-opacity: 0.3; stroke-width: 2; stroke-linecap: square"/>
   </g>
   <g id="line2d_25">
    <path d="M 204.719558 28.063636 
L 204.719558 46.817467 
L 123.459063 46.817467 
L 123.459063 117.144331 
L 266.132716 117.144331 
L 266.132716 220.290398 
L 105.469637 220.290398 
L 105.469637 445.336364 
L 105.469637 445.336364 
" clip-path="url(#pb7e96854ea)" style="fill: none; stroke: #fecc5c; stroke-opacity: 0.3; stroke-width: 2; stroke-linecap: square"/>
   </g>
   <g id="line2d_26">
    <path d="M 251.807284 28.063636 
L 251.807284 38.612666 
L 148.329041 38.612666 
L 148.329041 141.758733 
L 188.268357 141.758733 
L 188.268357 315.231665 
L 102.293826 315.231665 
L 102.293826 445.336364 
L 102.293826 445.336364 
" clip-path="url(#pb7e96854ea)" style="fill: none; stroke: #fecc5c; stroke-opacity: 0.3; stroke-width: 2; stroke-linecap: square"/>
   </g>
   <g id="line2d_27">
    <path d="M 212.927765 28.063636 
L 212.927765 42.129009 
L 137.035251 42.129009 
L 137.035251 153.479877 
L 259.917394 153.479877 
L 259.917394 261.314402 
L 101.262268 261.314402 
L 101.262268 445.336364 
L 101.262268 445.336364 
" clip-path="url(#pb7e96854ea)" style="fill: none; stroke: #fecc5c; stroke-opacity: 0.3; stroke-width: 2; stroke-linecap: square"/>
   </g>
   <g id="line2d_28">
    <path d="M 289.950784 28.063636 
L 289.950784 36.268437 
L 154.509539 36.268437 
L 154.509539 255.45383 
L 226.717832 255.45383 
L 226.717832 352.739326 
L 96.649799 352.739326 
L 96.649799 445.336364 
L 96.649799 445.336364 
" clip-path="url(#pb7e96854ea)" style="fill: none; stroke: #fecc5c; stroke-opacity: 0.3; stroke-width: 2; stroke-linecap: square"/>
   </g>
   <g id="line2d_29">
    <path d="M 199.825687 28.063636 
L 199.825687 53.850153 
L 61.922727 53.850153 
L 61.922727 62.054954 
L 196.152601 62.054954 
L 196.152601 269.519203 
L 103.708699 269.519203 
L 103.708699 445.336364 
L 103.708699 445.336364 
" clip-path="url(#pb7e96854ea)" style="fill: none; stroke: #fecc5c; stroke-opacity: 0.3; stroke-width: 2; stroke-linecap: square"/>
   </g>
   <g id="line2d_30">
    <path d="M 203.365445 28.063636 
L 203.365445 46.817467 
L 124.282194 46.817467 
L 124.282194 121.832789 
L 274.95521 121.832789 
L 274.95521 223.806742 
L 105.477693 223.806742 
L 105.477693 445.336364 
L 105.477693 445.336364 
" clip-path="url(#pb7e96854ea)" style="fill: none; stroke: #fecc5c; stroke-opacity: 0.3; stroke-width: 2; stroke-linecap: square"/>
   </g>
   <g id="line2d_31">
    <path d="M 240.754337 28.063636 
L 240.754337 37.440552 
L 147.057145 37.440552 
L 147.057145 162.856793 
L 243.701795 162.856793 
L 243.701795 271.863432 
L 102.060463 271.863432 
L 102.060463 445.336364 
L 102.060463 445.336364 
" clip-path="url(#pb7e96854ea)" style="fill: none; stroke: #fecc5c; stroke-opacity: 0.3; stroke-width: 2; stroke-linecap: square"/>
   </g>
   <g id="line2d_32">
    <path d="M 226.094091 28.063636 
L 226.094091 38.612666 
L 149.410622 38.612666 
L 149.410622 167.54525 
L 196.810352 167.54525 
L 196.810352 341.018182 
L 97.639284 341.018182 
L 97.639284 445.336364 
L 97.639284 445.336364 
" clip-path="url(#pb7e96854ea)" style="fill: none; stroke: #fecc5c; stroke-opacity: 0.3; stroke-width: 2; stroke-linecap: square"/>
   </g>
   <g id="line2d_33"/>
   <g id="line2d_34">
    <path d="M 238.557166 28.063636 
L 238.557166 31.57998 
L 238.399382 31.57998 
L 238.399382 32.752094 
L 237.271485 32.752094 
L 237.271485 33.924208 
L 234.711991 33.924208 
L 234.711991 35.096323 
L 224.908518 35.096323 
L 224.908518 36.268437 
L 203.270171 36.268437 
L 203.270171 37.440552 
L 187.521671 37.440552 
L 187.521671 38.612666 
L 180.041158 38.612666 
L 180.041158 39.78478 
L 174.104846 39.78478 
L 174.104846 40.956895 
L 168.660403 40.956895 
L 168.660403 42.129009 
L 160.801094 42.129009 
L 160.801094 44.473238 
L 156.638026 44.473238 
L 156.638026 45.645352 
L 153.731671 45.645352 
L 153.731671 46.817467 
L 150.905238 46.817467 
L 150.905238 47.989581 
L 148.205257 47.989581 
L 148.205257 49.161696 
L 146.275982 49.161696 
L 146.275982 50.33381 
L 144.452873 50.33381 
L 144.452873 51.505924 
L 141.315826 51.505924 
L 141.315826 53.850153 
L 140.216872 53.850153 
L 140.216872 55.022268 
L 138.827747 55.022268 
L 138.827747 56.194382 
L 137.894707 56.194382 
L 137.894707 57.366496 
L 136.70123 57.366496 
L 136.810123 60.88284 
L 136.913076 60.88284 
L 136.913076 62.054954 
L 137.057839 62.054954 
L 137.057839 63.227068 
L 137.403275 63.227068 
L 137.403275 64.399183 
L 138.17603 64.399183 
L 138.17603 65.571297 
L 138.600079 65.571297 
L 138.600079 66.743412 
L 138.927118 66.743412 
L 138.927118 67.915526 
L 139.81324 67.915526 
L 139.81324 69.08764 
L 140.020572 69.08764 
L 140.020572 70.259755 
L 140.429291 70.259755 
L 140.429291 71.431869 
L 140.706889 71.431869 
L 140.706889 72.603984 
L 141.207683 72.603984 
L 141.317539 74.948212 
L 141.926239 74.948212 
L 141.926239 76.120327 
L 142.279869 76.120327 
L 142.279869 77.292441 
L 142.419758 77.292441 
L 142.419758 78.464556 
L 142.549735 78.464556 
L 142.549735 79.63667 
L 143.397824 79.63667 
L 143.397824 80.808784 
L 143.967681 80.808784 
L 143.967681 81.980899 
L 144.236177 81.980899 
L 144.236177 83.153013 
L 145.019096 83.153013 
L 145.019096 84.325128 
L 145.225238 84.325128 
L 145.225238 85.497242 
L 145.586541 85.497242 
L 145.586541 86.669356 
L 145.94565 86.669356 
L 145.94565 87.841471 
L 146.464941 87.841471 
L 146.464941 89.013585 
L 147.162526 89.013585 
L 147.162526 90.1857 
L 147.440719 90.1857 
L 147.440719 91.357814 
L 147.631111 91.357814 
L 147.631111 92.529928 
L 147.905309 92.529928 
L 147.905309 94.874157 
L 148.812494 94.874157 
L 148.812494 96.046272 
L 149.700391 96.046272 
L 149.700391 97.218386 
L 150.493464 97.218386 
L 150.493464 98.390501 
L 151.123503 98.390501 
L 151.123503 99.562615 
L 151.89757 99.562615 
L 151.89757 100.734729 
L 152.412523 100.734729 
L 152.412523 101.906844 
L 152.999015 101.906844 
L 152.999015 103.078958 
L 153.367138 103.078958 
L 153.367138 104.251073 
L 154.218068 104.251073 
L 154.218068 105.423187 
L 155.350226 105.423187 
L 155.350226 106.595301 
L 155.973568 106.595301 
L 155.973568 107.767416 
L 156.389315 107.767416 
L 156.389315 108.93953 
L 157.101685 108.93953 
L 157.101685 110.111645 
L 157.852714 110.111645 
L 157.852714 111.283759 
L 158.810428 111.283759 
L 158.810428 112.455873 
L 159.521794 112.455873 
L 159.521794 113.627988 
L 159.989338 113.627988 
L 159.989338 114.800102 
L 160.538426 114.800102 
L 160.538426 115.972217 
L 161.064483 115.972217 
L 161.064483 117.144331 
L 161.670672 117.144331 
L 161.670672 118.316445 
L 162.574298 118.316445 
L 162.574298 119.48856 
L 163.493591 119.48856 
L 163.493591 120.660674 
L 164.032463 120.660674 
L 164.032463 121.832789 
L 165.321987 121.832789 
L 165.321987 123.004903 
L 166.043749 123.004903 
L 166.043749 124.177017 
L 166.540464 124.177017 
L 166.540464 125.349132 
L 167.378113 125.349132 
L 167.378113 126.521246 
L 168.116177 126.521246 
L 168.116177 127.693361 
L 168.653431 127.693361 
L 168.653431 128.865475 
L 169.562057 128.865475 
L 169.562057 130.037589 
L 170.296582 130.037589 
L 170.296582 131.209704 
L 171.741905 131.209704 
L 171.741905 132.381818 
L 172.672122 132.381818 
L 172.672122 133.553933 
L 173.535157 133.553933 
L 173.535157 134.726047 
L 174.095027 134.726047 
L 174.095027 135.898161 
L 175.411862 135.898161 
L 175.411862 137.070276 
L 176.579311 137.070276 
L 176.579311 138.24239 
L 177.756751 138.24239 
L 177.756751 139.414505 
L 179.219217 139.414505 
L 179.219217 140.586619 
L 179.94521 140.586619 
L 179.94521 141.758733 
L 180.88055 141.758733 
L 180.88055 142.930848 
L 181.577447 142.930848 
L 181.577447 144.102962 
L 182.133453 144.102962 
L 182.133453 145.275077 
L 182.929 145.275077 
L 182.929 146.447191 
L 183.068099 146.447191 
L 183.068099 147.619305 
L 184.406787 147.619305 
L 184.406787 148.79142 
L 185.31691 148.79142 
L 185.31691 149.963534 
L 186.190576 149.963534 
L 186.190576 151.135649 
L 187.377869 151.135649 
L 187.377869 152.307763 
L 188.377526 152.307763 
L 188.377526 153.479877 
L 189.121855 153.479877 
L 189.121855 154.651992 
L 190.088413 154.651992 
L 190.088413 155.824106 
L 191.307683 155.824106 
L 191.307683 156.996221 
L 192.414387 156.996221 
L 192.414387 158.168335 
L 193.463629 158.168335 
L 193.463629 159.340449 
L 194.521443 159.340449 
L 194.521443 160.512564 
L 195.594674 160.512564 
L 195.594674 161.684678 
L 196.528931 161.684678 
L 196.528931 162.856793 
L 197.881736 162.856793 
L 197.881736 164.028907 
L 198.858793 164.028907 
L 198.858793 165.201021 
L 199.465258 165.201021 
L 199.465258 166.373136 
L 200.320105 166.373136 
L 200.320105 167.54525 
L 201.079762 167.54525 
L 201.079762 168.717365 
L 202.167401 168.717365 
L 202.167401 169.889479 
L 203.226089 169.889479 
L 203.226089 171.061593 
L 203.885221 171.061593 
L 203.885221 172.233708 
L 204.190623 172.233708 
L 204.190623 173.405822 
L 204.902554 173.405822 
L 204.902554 174.577937 
L 206.211496 174.577937 
L 206.211496 175.750051 
L 206.869771 175.750051 
L 206.869771 176.922165 
L 207.606792 176.922165 
L 207.606792 178.09428 
L 207.836374 178.09428 
L 207.836374 179.266394 
L 208.743719 179.266394 
L 208.743719 180.438509 
L 209.390899 180.438509 
L 209.390899 181.610623 
L 210.279402 181.610623 
L 210.279402 182.782737 
L 210.794059 182.782737 
L 210.794059 183.954852 
L 211.468128 183.954852 
L 211.468128 185.126966 
L 212.160014 185.126966 
L 212.160014 186.299081 
L 213.010365 186.299081 
L 213.010365 187.471195 
L 213.414568 187.471195 
L 213.414568 188.643309 
L 213.71465 188.643309 
L 213.71465 189.815424 
L 214.074844 189.815424 
L 214.074844 190.987538 
L 214.690718 190.987538 
L 214.690718 192.159653 
L 215.15173 192.159653 
L 215.15173 193.331767 
L 215.536205 193.331767 
L 215.536205 194.503882 
L 215.698591 194.503882 
L 215.698591 195.675996 
L 215.979109 195.675996 
L 215.979109 196.84811 
L 216.364117 196.84811 
L 216.364117 198.020225 
L 216.525542 198.020225 
L 216.525542 199.192339 
L 216.774092 199.192339 
L 216.876182 201.536568 
L 216.648903 201.536568 
L 216.648903 202.708682 
L 216.447016 202.708682 
L 216.447016 203.880797 
L 216.223675 203.880797 
L 216.223675 205.052911 
L 216.021544 205.052911 
L 216.104695 207.39714 
L 216.18132 207.39714 
L 216.18132 208.569254 
L 215.923551 208.569254 
L 216.010593 210.913483 
L 215.678884 210.913483 
L 215.678884 212.085598 
L 215.374501 212.085598 
L 215.374501 213.257712 
L 214.930708 213.257712 
L 214.930708 214.429826 
L 214.617608 214.429826 
L 214.617608 215.601941 
L 213.918779 215.601941 
L 213.918779 216.774055 
L 213.719854 216.774055 
L 213.719854 217.94617 
L 213.533222 217.94617 
L 213.533222 219.118284 
L 213.139106 219.118284 
L 213.139106 220.290398 
L 212.356515 220.290398 
L 212.356515 221.462513 
L 211.522602 221.462513 
L 211.522602 222.634627 
L 211.02873 222.634627 
L 211.02873 223.806742 
L 210.365289 223.806742 
L 210.365289 224.978856 
L 210.092213 224.978856 
L 210.092213 226.15097 
L 209.537995 226.15097 
L 209.537995 227.323085 
L 208.72699 227.323085 
L 208.72699 228.495199 
L 208.149256 228.495199 
L 208.149256 229.667314 
L 207.432521 229.667314 
L 207.432521 230.839428 
L 206.575317 230.839428 
L 206.575317 232.011542 
L 205.953236 232.011542 
L 205.953236 233.183657 
L 204.94774 233.183657 
L 204.94774 234.355771 
L 204.263237 234.355771 
L 204.263237 235.527886 
L 203.232913 235.527886 
L 203.232913 236.7 
L 202.306095 236.7 
L 202.306095 237.872114 
L 202.003395 237.872114 
L 202.003395 239.044229 
L 201.365252 239.044229 
L 201.365252 240.216343 
L 200.500073 240.216343 
L 200.500073 241.388458 
L 199.280741 241.388458 
L 199.280741 242.560572 
L 198.667257 242.560572 
L 198.667257 243.732686 
L 197.369469 243.732686 
L 197.369469 244.904801 
L 195.567915 244.904801 
L 195.567915 246.076915 
L 194.484083 246.076915 
L 194.484083 247.24903 
L 193.396906 247.24903 
L 193.396906 248.421144 
L 192.473016 248.421144 
L 192.473016 249.593258 
L 191.682588 249.593258 
L 191.682588 250.765373 
L 190.655206 250.765373 
L 190.655206 251.937487 
L 189.399682 251.937487 
L 189.399682 253.109602 
L 188.097195 253.109602 
L 188.097195 254.281716 
L 186.827801 254.281716 
L 186.827801 255.45383 
L 184.781889 255.45383 
L 184.781889 256.625945 
L 184.351066 256.625945 
L 184.351066 257.798059 
L 182.764131 257.798059 
L 182.764131 258.970174 
L 181.96595 258.970174 
L 181.96595 260.142288 
L 180.905901 260.142288 
L 180.905901 261.314402 
L 179.852138 261.314402 
L 179.852138 262.486517 
L 178.358511 262.486517 
L 178.358511 263.658631 
L 177.07394 263.658631 
L 177.07394 264.830746 
L 176.249313 264.830746 
L 176.249313 266.00286 
L 174.925624 266.00286 
L 174.925624 267.174974 
L 173.670302 267.174974 
L 173.670302 268.347089 
L 171.626243 268.347089 
L 171.626243 269.519203 
L 169.019247 269.519203 
L 169.019247 270.691318 
L 167.561783 270.691318 
L 167.561783 271.863432 
L 165.955952 271.863432 
L 165.955952 273.035546 
L 165.20452 273.035546 
L 165.20452 274.207661 
L 163.941858 274.207661 
L 163.941858 275.379775 
L 162.838989 275.379775 
L 162.838989 276.55189 
L 161.37578 276.55189 
L 161.37578 277.724004 
L 159.997314 277.724004 
L 159.997314 278.896118 
L 159.214878 278.896118 
L 159.214878 280.068233 
L 157.903858 280.068233 
L 157.903858 281.240347 
L 157.041009 281.240347 
L 157.041009 282.412462 
L 154.649695 282.412462 
L 154.649695 283.584576 
L 153.753039 283.584576 
L 153.753039 284.756691 
L 152.15321 284.756691 
L 152.15321 285.928805 
L 151.020918 285.928805 
L 151.020918 287.100919 
L 149.786054 287.100919 
L 149.786054 288.273034 
L 148.121389 288.273034 
L 148.121389 289.445148 
L 146.9121 289.445148 
L 146.9121 290.617263 
L 145.523861 290.617263 
L 145.523861 291.789377 
L 144.288783 291.789377 
L 144.288783 292.961491 
L 142.460828 292.961491 
L 142.460828 294.133606 
L 142.127419 294.133606 
L 142.127419 295.30572 
L 141.004493 295.30572 
L 141.004493 296.477835 
L 140.077048 296.477835 
L 140.077048 297.649949 
L 138.603506 297.649949 
L 138.603506 298.822063 
L 137.206639 298.822063 
L 137.206639 299.994178 
L 136.222016 299.994178 
L 136.222016 301.166292 
L 135.254336 301.166292 
L 135.254336 302.338407 
L 133.977305 302.338407 
L 133.977305 303.510521 
L 132.658779 303.510521 
L 132.658779 304.682635 
L 131.690564 304.682635 
L 131.690564 305.85475 
L 130.941566 305.85475 
L 130.941566 307.026864 
L 130.103982 307.026864 
L 130.103982 308.198979 
L 129.402169 308.198979 
L 129.402169 309.371093 
L 128.694661 309.371093 
L 128.694661 310.543207 
L 127.855514 310.543207 
L 127.855514 311.715322 
L 126.929971 311.715322 
L 126.929971 312.887436 
L 126.162637 312.887436 
L 126.162637 314.059551 
L 125.76614 314.059551 
L 125.76614 315.231665 
L 124.85825 315.231665 
L 124.85825 316.403779 
L 124.209945 316.403779 
L 124.209945 317.575894 
L 123.410797 317.575894 
L 123.310319 319.920123 
L 122.684164 319.920123 
L 122.684164 321.092237 
L 122.151985 321.092237 
L 122.151985 322.264351 
L 121.636161 322.264351 
L 121.636161 323.436466 
L 121.14031 323.436466 
L 121.14031 324.60858 
L 120.527282 324.60858 
L 120.527282 325.780695 
L 119.91328 325.780695 
L 119.91328 326.952809 
L 119.431616 326.952809 
L 119.431616 328.124923 
L 118.730032 328.124923 
L 118.730032 329.297038 
L 118.371921 329.297038 
L 118.371921 330.469152 
L 117.667836 330.469152 
L 117.667836 331.641267 
L 117.367434 331.641267 
L 117.367434 332.813381 
L 116.879716 332.813381 
L 116.879716 333.985495 
L 115.976983 333.985495 
L 115.976983 335.15761 
L 115.536561 335.15761 
L 115.536561 336.329724 
L 114.855238 336.329724 
L 114.855238 337.501839 
L 114.05177 337.501839 
L 114.05177 338.673953 
L 113.263969 338.673953 
L 113.263969 339.846067 
L 112.5364 339.846067 
L 112.5364 341.018182 
L 112.045186 341.018182 
L 111.936675 343.362411 
L 111.521598 343.362411 
L 111.521598 344.534525 
L 111.045914 344.534525 
L 111.045914 345.706639 
L 110.049883 345.706639 
L 110.049883 346.878754 
L 109.520694 346.878754 
L 109.520694 348.050868 
L 109.263514 348.050868 
L 109.263514 349.222983 
L 109.066526 349.222983 
L 109.066526 350.395097 
L 108.598276 350.395097 
L 108.598276 351.567211 
L 108.410122 351.567211 
L 108.410122 352.739326 
L 108.090287 352.739326 
L 108.090287 353.91144 
L 107.802449 353.91144 
L 107.802449 355.083555 
L 107.600714 355.083555 
L 107.600714 356.255669 
L 107.146428 356.255669 
L 107.146428 357.427783 
L 106.793049 357.427783 
L 106.703046 359.772012 
L 106.524786 359.772012 
L 106.524786 360.944127 
L 106.264258 360.944127 
L 106.264258 362.116241 
L 105.798293 362.116241 
L 105.798293 363.288355 
L 105.423886 363.288355 
L 105.423886 364.46047 
L 104.962357 364.46047 
L 104.962357 365.632584 
L 104.807575 365.632584 
L 104.71392 369.148927 
L 104.486648 369.148927 
L 104.486648 370.321042 
L 104.295931 370.321042 
L 104.295931 373.837385 
L 103.939263 373.837385 
L 103.939263 375.009499 
L 103.652021 375.009499 
L 103.568796 377.353728 
L 103.477141 377.353728 
L 103.477141 378.525843 
L 103.303663 378.525843 
L 103.303663 379.697957 
L 103.002384 379.697957 
L 102.914839 386.730644 
L 102.836527 386.730644 
L 102.836527 390.246987 
L 102.68518 390.246987 
L 102.599683 393.76333 
L 102.515591 393.76333 
L 102.422376 396.107559 
L 102.339734 396.107559 
L 102.252591 401.968131 
L 102.17809 401.968131 
L 102.098578 413.689275 
L 102.00852 413.689275 
L 101.934989 431.270991 
L 101.85604 431.270991 
L 101.786461 445.336364 
L 101.786461 445.336364 
" clip-path="url(#pb7e96854ea)" style="fill: none; stroke: #6b3914; stroke-width: 3; stroke-linecap: square"/>
   </g>
   <g id="line2d_35">
    <path d="M 232.535753 28.063636 
L 198.821751 33.924208 
L 171.915727 39.78478 
L 151.151749 45.645352 
L 135.891333 51.505924 
L 125.523444 57.366496 
L 119.464494 63.227068 
L 117.158345 69.08764 
L 118.076307 74.948212 
L 121.717137 80.808784 
L 127.607044 86.669356 
L 135.299682 92.529928 
L 144.376155 98.390501 
L 154.445016 104.251073 
L 165.142265 110.111645 
L 176.131351 115.972217 
L 187.103173 121.832789 
L 197.776076 127.693361 
L 207.895856 133.553933 
L 217.235755 139.414505 
L 225.596465 145.275077 
L 232.806127 151.135649 
L 238.720328 156.996221 
L 243.222107 162.856793 
L 246.221949 168.717365 
L 247.657787 174.577937 
L 247.495005 180.438509 
L 245.726434 186.299081 
L 242.372353 192.159653 
L 237.48049 198.020225 
L 231.126022 203.880797 
L 223.411574 209.741369 
L 214.467219 215.601941 
L 204.450479 221.462513 
L 193.546325 227.323085 
L 181.967176 233.183657 
L 169.952899 239.044229 
L 157.77081 244.904801 
L 145.715674 250.765373 
L 134.109703 256.625945 
L 123.302559 262.486517 
L 113.671352 268.347089 
L 105.62064 274.207661 
L 99.582429 280.068233 
L 96.016176 285.928805 
L 95.408783 291.789377 
L 98.274604 297.649949 
L 105.155439 303.510521 
" clip-path="url(#pb7e96854ea)" style="fill: none; stroke: #e40000; stroke-opacity: 0.8; stroke-width: 3; stroke-linecap: square"/>
    <defs>
     <path id="mf80a4b23e5" d="M 5 0 
L -5 -0 
" style="stroke: #e40000; stroke-opacity: 0.8"/>
    </defs>
    <g clip-path="url(#pb7e96854ea)">
     <use xlink:href="#mf80a4b23e5" x="232.535753" y="28.063636" style="fill: #e40000; fill-opacity: 0.8; stroke: #e40000; stroke-opacity: 0.8"/>
     <use xlink:href="#mf80a4b23e5" x="198.821751" y="33.924208" style="fill: #e40000; fill-opacity: 0.8; stroke: #e40000; stroke-opacity: 0.8"/>
     <use xlink:href="#mf80a4b23e5" x="171.915727" y="39.78478" style="fill: #e40000; fill-opacity: 0.8; stroke: #e40000; stroke-opacity: 0.8"/>
     <use xlink:href="#mf80a4b23e5" x="151.151749" y="45.645352" style="fill: #e40000; fill-opacity: 0.8; stroke: #e40000; stroke-opacity: 0.8"/>
     <use xlink:href="#mf80a4b23e5" x="135.891333" y="51.505924" style="fill: #e40000; fill-opacity: 0.8; stroke: #e40000; stroke-opacity: 0.8"/>
     <use xlink:href="#mf80a4b23e5" x="125.523444" y="57.366496" style="fill: #e40000; fill-opacity: 0.8; stroke: #e40000; stroke-opacity: 0.8"/>
     <use xlink:href="#mf80a4b23e5" x="119.464494" y="63.227068" style="fill: #e40000; fill-opacity: 0.8; stroke: #e40000; stroke-opacity: 0.8"/>
     <use xlink:href="#mf80a4b23e5" x="117.158345" y="69.08764" style="fill: #e40000; fill-opacity: 0.8; stroke: #e40000; stroke-opacity: 0.8"/>
     <use xlink:href="#mf80a4b23e5" x="118.076307" y="74.948212" style="fill: #e40000; fill-opacity: 0.8; stroke: #e40000; stroke-opacity: 0.8"/>
     <use xlink:href="#mf80a4b23e5" x="121.717137" y="80.808784" style="fill: #e40000; fill-opacity: 0.8; stroke: #e40000; stroke-opacity: 0.8"/>
     <use xlink:href="#mf80a4b23e5" x="127.607044" y="86.669356" style="fill: #e40000; fill-opacity: 0.8; stroke: #e40000; stroke-opacity: 0.8"/>
     <use xlink:href="#mf80a4b23e5" x="135.299682" y="92.529928" style="fill: #e40000; fill-opacity: 0.8; stroke: #e40000; stroke-opacity: 0.8"/>
     <use xlink:href="#mf80a4b23e5" x="144.376155" y="98.390501" style="fill: #e40000; fill-opacity: 0.8; stroke: #e40000; stroke-opacity: 0.8"/>
     <use xlink:href="#mf80a4b23e5" x="154.445016" y="104.251073" style="fill: #e40000; fill-opacity: 0.8; stroke: #e40000; stroke-opacity: 0.8"/>
     <use xlink:href="#mf80a4b23e5" x="165.142265" y="110.111645" style="fill: #e40000; fill-opacity: 0.8; stroke: #e40000; stroke-opacity: 0.8"/>
     <use xlink:href="#mf80a4b23e5" x="176.131351" y="115.972217" style="fill: #e40000; fill-opacity: 0.8; stroke: #e40000; stroke-opacity: 0.8"/>
     <use xlink:href="#mf80a4b23e5" x="187.103173" y="121.832789" style="fill: #e40000; fill-opacity: 0.8; stroke: #e40000; stroke-opacity: 0.8"/>
     <use xlink:href="#mf80a4b23e5" x="197.776076" y="127.693361" style="fill: #e40000; fill-opacity: 0.8; stroke: #e40000; stroke-opacity: 0.8"/>
     <use xlink:href="#mf80a4b23e5" x="207.895856" y="133.553933" style="fill: #e40000; fill-opacity: 0.8; stroke: #e40000; stroke-opacity: 0.8"/>
     <use xlink:href="#mf80a4b23e5" x="217.235755" y="139.414505" style="fill: #e40000; fill-opacity: 0.8; stroke: #e40000; stroke-opacity: 0.8"/>
     <use xlink:href="#mf80a4b23e5" x="225.596465" y="145.275077" style="fill: #e40000; fill-opacity: 0.8; stroke: #e40000; stroke-opacity: 0.8"/>
     <use xlink:href="#mf80a4b23e5" x="232.806127" y="151.135649" style="fill: #e40000; fill-opacity: 0.8; stroke: #e40000; stroke-opacity: 0.8"/>
     <use xlink:href="#mf80a4b23e5" x="238.720328" y="156.996221" style="fill: #e40000; fill-opacity: 0.8; stroke: #e40000; stroke-opacity: 0.8"/>
     <use xlink:href="#mf80a4b23e5" x="243.222107" y="162.856793" style="fill: #e40000; fill-opacity: 0.8; stroke: #e40000; stroke-opacity: 0.8"/>
     <use xlink:href="#mf80a4b23e5" x="246.221949" y="168.717365" style="fill: #e40000; fill-opacity: 0.8; stroke: #e40000; stroke-opacity: 0.8"/>
     <use xlink:href="#mf80a4b23e5" x="247.657787" y="174.577937" style="fill: #e40000; fill-opacity: 0.8; stroke: #e40000; stroke-opacity: 0.8"/>
     <use xlink:href="#mf80a4b23e5" x="247.495005" y="180.438509" style="fill: #e40000; fill-opacity: 0.8; stroke: #e40000; stroke-opacity: 0.8"/>
     <use xlink:href="#mf80a4b23e5" x="245.726434" y="186.299081" style="fill: #e40000; fill-opacity: 0.8; stroke: #e40000; stroke-opacity: 0.8"/>
     <use xlink:href="#mf80a4b23e5" x="242.372353" y="192.159653" style="fill: #e40000; fill-opacity: 0.8; stroke: #e40000; stroke-opacity: 0.8"/>
     <use xlink:href="#mf80a4b23e5" x="237.48049" y="198.020225" style="fill: #e40000; fill-opacity: 0.8; stroke: #e40000; stroke-opacity: 0.8"/>
     <use xlink:href="#mf80a4b23e5" x="231.126022" y="203.880797" style="fill: #e40000; fill-opacity: 0.8; stroke: #e40000; stroke-opacity: 0.8"/>
     <use xlink:href="#mf80a4b23e5" x="223.411574" y="209.741369" style="fill: #e40000; fill-opacity: 0.8; stroke: #e40000; stroke-opacity: 0.8"/>
     <use xlink:href="#mf80a4b23e5" x="214.467219" y="215.601941" style="fill: #e40000; fill-opacity: 0.8; stroke: #e40000; stroke-opacity: 0.8"/>
     <use xlink:href="#mf80a4b23e5" x="204.450479" y="221.462513" style="fill: #e40000; fill-opacity: 0.8; stroke: #e40000; stroke-opacity: 0.8"/>
     <use xlink:href="#mf80a4b23e5" x="193.546325" y="227.323085" style="fill: #e40000; fill-opacity: 0.8; stroke: #e40000; stroke-opacity: 0.8"/>
     <use xlink:href="#mf80a4b23e5" x="181.967176" y="233.183657" style="fill: #e40000; fill-opacity: 0.8; stroke: #e40000; stroke-opacity: 0.8"/>
     <use xlink:href="#mf80a4b23e5" x="169.952899" y="239.044229" style="fill: #e40000; fill-opacity: 0.8; stroke: #e40000; stroke-opacity: 0.8"/>
     <use xlink:href="#mf80a4b23e5" x="157.77081" y="244.904801" style="fill: #e40000; fill-opacity: 0.8; stroke: #e40000; stroke-opacity: 0.8"/>
     <use xlink:href="#mf80a4b23e5" x="145.715674" y="250.765373" style="fill: #e40000; fill-opacity: 0.8; stroke: #e40000; stroke-opacity: 0.8"/>
     <use xlink:href="#mf80a4b23e5" x="134.109703" y="256.625945" style="fill: #e40000; fill-opacity: 0.8; stroke: #e40000; stroke-opacity: 0.8"/>
     <use xlink:href="#mf80a4b23e5" x="123.302559" y="262.486517" style="fill: #e40000; fill-opacity: 0.8; stroke: #e40000; stroke-opacity: 0.8"/>
     <use xlink:href="#mf80a4b23e5" x="113.671352" y="268.347089" style="fill: #e40000; fill-opacity: 0.8; stroke: #e40000; stroke-opacity: 0.8"/>
     <use xlink:href="#mf80a4b23e5" x="105.62064" y="274.207661" style="fill: #e40000; fill-opacity: 0.8; stroke: #e40000; stroke-opacity: 0.8"/>
     <use xlink:href="#mf80a4b23e5" x="99.582429" y="280.068233" style="fill: #e40000; fill-opacity: 0.8; stroke: #e40000; stroke-opacity: 0.8"/>
     <use xlink:href="#mf80a4b23e5" x="96.016176" y="285.928805" style="fill: #e40000; fill-opacity: 0.8; stroke: #e40000; stroke-opacity: 0.8"/>
     <use xlink:href="#mf80a4b23e5" x="95.408783" y="291.789377" style="fill: #e40000; fill-opacity: 0.8; stroke: #e40000; stroke-opacity: 0.8"/>
     <use xlink:href="#mf80a4b23e5" x="98.274604" y="297.649949" style="fill: #e40000; fill-opacity: 0.8; stroke: #e40000; stroke-opacity: 0.8"/>
     <use xlink:href="#mf80a4b23e5" x="105.155439" y="303.510521" style="fill: #e40000; fill-opacity: 0.8; stroke: #e40000; stroke-opacity: 0.8"/>
    </g>
   </g>
   <g id="patch_3">
    <path d="M 39.65 466.2 
L 39.65 7.2 
" style="fill: none; stroke: #000000; stroke-width: 2; stroke-linejoin: miter; stroke-linecap: square"/>
   </g>
   <g id="patch_4">
    <path d="M 49.65 476.2 
L 319.65 476.2 
" style="fill: none; stroke: #000000; stroke-width: 2; stroke-linejoin: miter; stroke-linecap: square"/>
   </g>
  </g>
 </g>
 <defs>
  <clipPath id="pb7e96854ea">
   <rect x="49.65" y="7.2" width="270" height="459"/>
  </clipPath>
 </defs>
</svg>
