<?xml version="1.0" encoding="utf-8" standalone="no"?>
<!DOCTYPE svg PUBLIC "-//W3C//DTD SVG 1.1//EN"
  "http://www.w3.org/Graphics/SVG/1.1/DTD/svg11.dtd">
<svg xmlns:xlink="http://www.w3.org/1999/xlink" width="284.4pt" height="544.35625pt" viewBox="0 0 284.4 544.35625" xmlns="http://www.w3.org/2000/svg" version="1.1">
 <metadata>
  <rdf:RDF xmlns:dc="http://purl.org/dc/elements/1.1/" xmlns:cc="http://creativecommons.org/ns#" xmlns:rdf="http://www.w3.org/1999/02/22-rdf-syntax-ns#">
   <cc:Work>
    <dc:type rdf:resource="http://purl.org/dc/dcmitype/StillImage"/>
    <dc:date>2024-07-06T14:15:29.648978</dc:date>
    <dc:format>image/svg+xml</dc:format>
    <dc:creator>
     <cc:Agent>
      <dc:title>Matplotlib v3.8.0, https://matplotlib.org/</dc:title>
     </cc:Agent>
    </dc:creator>
   </cc:Work>
  </rdf:RDF>
 </metadata>
 <defs>
  <style type="text/css">*{stroke-linejoin: round; stroke-linecap: butt}</style>
 </defs>
 <g id="figure_1">
  <g id="patch_1">
   <path d="M 0 544.35625 
L 284.4 544.35625 
L 284.4 0 
L 0 0 
z
" style="fill: #ffffff"/>
  </g>
  <g id="axes_1">
   <g id="patch_2">
    <path d="M 7.2 466.2 
L 277.2 466.2 
L 277.2 7.2 
L 7.2 7.2 
z
" style="fill: #ffffff"/>
   </g>
   <g id="PolyCollection_1">
    <defs>
     <path id="mc0f6d3522d" d="M 198.256405 -516.292614 
L 254.734732 -516.292614 
L 220.859843 -497.325671 
L 196.04065 -478.358729 
L 175.278086 -459.391787 
L 156.168237 -440.424845 
L 142.138822 -421.457903 
L 134.931672 -402.490961 
L 132.29522 -383.524019 
L 130.431612 -364.557076 
L 130.653936 -345.590134 
L 132.438307 -326.623192 
L 138.327957 -307.65625 
L 149.426397 -288.689308 
L 157.527648 -269.722366 
L 160.862924 -250.755424 
L 156.933582 -231.788481 
L 145.045852 -212.821539 
L 128.152847 -193.854597 
L 108.990464 -174.887655 
L 89.306152 -155.920713 
L 68.247869 -136.953771 
L 48.083111 -117.986829 
L 31.246963 -99.019886 
L 19.472727 -99.019886 
L 19.472727 -99.019886 
L 34.988826 -117.986829 
L 53.495691 -136.953771 
L 74.587354 -155.920713 
L 95.746766 -174.887655 
L 111.916973 -193.854597 
L 121.324013 -212.821539 
L 125.379148 -231.788481 
L 126.256338 -250.755424 
L 124.588478 -269.722366 
L 119.360906 -288.689308 
L 110.048986 -307.65625 
L 99.782424 -326.623192 
L 90.313258 -345.590134 
L 85.579384 -364.557076 
L 86.95497 -383.524019 
L 95.750128 -402.490961 
L 108.427714 -421.457903 
L 123.99786 -440.424845 
L 138.476978 -459.391787 
L 154.708365 -478.358729 
L 175.643732 -497.325671 
L 198.256405 -516.292614 
z
" style="stroke: #756bb1; stroke-opacity: 0.5"/>
    </defs>
    <g clip-path="url(#pa5012a95e1)">
     <use xlink:href="#mc0f6d3522d" x="0" y="544.35625" style="fill: #756bb1; fill-opacity: 0.5; stroke: #756bb1; stroke-opacity: 0.5"/>
    </g>
   </g>
   <g id="matplotlib.axis_1">
    <g id="xtick_1">
     <g id="line2d_1">
      <defs>
       <path id="mae0888f077" d="M 0 0 
L 0 3.5 
" style="stroke: #000000; stroke-width: 1.5"/>
      </defs>
      <g>
       <use xlink:href="#mae0888f077" x="79.558763" y="476.2" style="stroke: #000000; stroke-width: 1.5"/>
      </g>
     </g>
     <g id="text_1">
      <!-- 400 -->
      <g transform="translate(60.471263 498.396875) scale(0.2 -0.2)">
       <defs>
        <path id="DejaVuSans-34" d="M 2419 4116 
L 825 1625 
L 2419 1625 
L 2419 4116 
z
M 2253 4666 
L 3047 4666 
L 3047 1625 
L 3713 1625 
L 3713 1100 
L 3047 1100 
L 3047 0 
L 2419 0 
L 2419 1100 
L 313 1100 
L 313 1709 
L 2253 4666 
z
" transform="scale(0.015625)"/>
        <path id="DejaVuSans-30" d="M 2034 4250 
Q 1547 4250 1301 3770 
Q 1056 3291 1056 2328 
Q 1056 1369 1301 889 
Q 1547 409 2034 409 
Q 2525 409 2770 889 
Q 3016 1369 3016 2328 
Q 3016 3291 2770 3770 
Q 2525 4250 2034 4250 
z
M 2034 4750 
Q 2819 4750 3233 4129 
Q 3647 3509 3647 2328 
Q 3647 1150 3233 529 
Q 2819 -91 2034 -91 
Q 1250 -91 836 529 
Q 422 1150 422 2328 
Q 422 3509 836 4129 
Q 1250 4750 2034 4750 
z
" transform="scale(0.015625)"/>
       </defs>
       <use xlink:href="#DejaVuSans-34"/>
       <use xlink:href="#DejaVuSans-30" x="63.623047"/>
       <use xlink:href="#DejaVuSans-30" x="127.246094"/>
      </g>
     </g>
    </g>
    <g id="xtick_2">
     <g id="line2d_2">
      <g>
       <use xlink:href="#mae0888f077" x="157.23559" y="476.2" style="stroke: #000000; stroke-width: 1.5"/>
      </g>
     </g>
     <g id="text_2">
      <!-- 500 -->
      <g transform="translate(138.14809 498.396875) scale(0.2 -0.2)">
       <defs>
        <path id="DejaVuSans-35" d="M 691 4666 
L 3169 4666 
L 3169 4134 
L 1269 4134 
L 1269 2991 
Q 1406 3038 1543 3061 
Q 1681 3084 1819 3084 
Q 2600 3084 3056 2656 
Q 3513 2228 3513 1497 
Q 3513 744 3044 326 
Q 2575 -91 1722 -91 
Q 1428 -91 1123 -41 
Q 819 9 494 109 
L 494 744 
Q 775 591 1075 516 
Q 1375 441 1709 441 
Q 2250 441 2565 725 
Q 2881 1009 2881 1497 
Q 2881 1984 2565 2268 
Q 2250 2553 1709 2553 
Q 1456 2553 1204 2497 
Q 953 2441 691 2322 
L 691 4666 
z
" transform="scale(0.015625)"/>
       </defs>
       <use xlink:href="#DejaVuSans-35"/>
       <use xlink:href="#DejaVuSans-30" x="63.623047"/>
       <use xlink:href="#DejaVuSans-30" x="127.246094"/>
      </g>
     </g>
    </g>
    <g id="xtick_3">
     <g id="line2d_3">
      <g>
       <use xlink:href="#mae0888f077" x="234.912417" y="476.2" style="stroke: #000000; stroke-width: 1.5"/>
      </g>
     </g>
     <g id="text_3">
      <!-- 600 -->
      <g transform="translate(215.824917 498.396875) scale(0.2 -0.2)">
       <defs>
        <path id="DejaVuSans-36" d="M 2113 2584 
Q 1688 2584 1439 2293 
Q 1191 2003 1191 1497 
Q 1191 994 1439 701 
Q 1688 409 2113 409 
Q 2538 409 2786 701 
Q 3034 994 3034 1497 
Q 3034 2003 2786 2293 
Q 2538 2584 2113 2584 
z
M 3366 4563 
L 3366 3988 
Q 3128 4100 2886 4159 
Q 2644 4219 2406 4219 
Q 1781 4219 1451 3797 
Q 1122 3375 1075 2522 
Q 1259 2794 1537 2939 
Q 1816 3084 2150 3084 
Q 2853 3084 3261 2657 
Q 3669 2231 3669 1497 
Q 3669 778 3244 343 
Q 2819 -91 2113 -91 
Q 1303 -91 875 529 
Q 447 1150 447 2328 
Q 447 3434 972 4092 
Q 1497 4750 2381 4750 
Q 2619 4750 2861 4703 
Q 3103 4656 3366 4563 
z
" transform="scale(0.015625)"/>
       </defs>
       <use xlink:href="#DejaVuSans-36"/>
       <use xlink:href="#DejaVuSans-30" x="63.623047"/>
       <use xlink:href="#DejaVuSans-30" x="127.246094"/>
      </g>
     </g>
    </g>
    <g id="text_4">
     <!-- Apparent Resistivity [$\Omega m$] -->
     <g transform="translate(-4.6 532.75625) scale(0.2 -0.2)">
      <defs>
       <path id="DejaVuSans-Bold-41" d="M 3419 850 
L 1538 850 
L 1241 0 
L 31 0 
L 1759 4666 
L 3194 4666 
L 4922 0 
L 3713 0 
L 3419 850 
z
M 1838 1716 
L 3116 1716 
L 2478 3572 
L 1838 1716 
z
" transform="scale(0.015625)"/>
       <path id="DejaVuSans-Bold-70" d="M 1656 506 
L 1656 -1331 
L 538 -1331 
L 538 3500 
L 1656 3500 
L 1656 2988 
Q 1888 3294 2169 3439 
Q 2450 3584 2816 3584 
Q 3463 3584 3878 3070 
Q 4294 2556 4294 1747 
Q 4294 938 3878 423 
Q 3463 -91 2816 -91 
Q 2450 -91 2169 54 
Q 1888 200 1656 506 
z
M 2400 2772 
Q 2041 2772 1848 2508 
Q 1656 2244 1656 1747 
Q 1656 1250 1848 986 
Q 2041 722 2400 722 
Q 2759 722 2948 984 
Q 3138 1247 3138 1747 
Q 3138 2247 2948 2509 
Q 2759 2772 2400 2772 
z
" transform="scale(0.015625)"/>
       <path id="DejaVuSans-Bold-61" d="M 2106 1575 
Q 1756 1575 1579 1456 
Q 1403 1338 1403 1106 
Q 1403 894 1545 773 
Q 1688 653 1941 653 
Q 2256 653 2472 879 
Q 2688 1106 2688 1447 
L 2688 1575 
L 2106 1575 
z
M 3816 1997 
L 3816 0 
L 2688 0 
L 2688 519 
Q 2463 200 2181 54 
Q 1900 -91 1497 -91 
Q 953 -91 614 226 
Q 275 544 275 1050 
Q 275 1666 698 1953 
Q 1122 2241 2028 2241 
L 2688 2241 
L 2688 2328 
Q 2688 2594 2478 2717 
Q 2269 2841 1825 2841 
Q 1466 2841 1156 2769 
Q 847 2697 581 2553 
L 581 3406 
Q 941 3494 1303 3539 
Q 1666 3584 2028 3584 
Q 2975 3584 3395 3211 
Q 3816 2838 3816 1997 
z
" transform="scale(0.015625)"/>
       <path id="DejaVuSans-Bold-72" d="M 3138 2547 
Q 2991 2616 2845 2648 
Q 2700 2681 2553 2681 
Q 2122 2681 1889 2404 
Q 1656 2128 1656 1613 
L 1656 0 
L 538 0 
L 538 3500 
L 1656 3500 
L 1656 2925 
Q 1872 3269 2151 3426 
Q 2431 3584 2822 3584 
Q 2878 3584 2943 3579 
Q 3009 3575 3134 3559 
L 3138 2547 
z
" transform="scale(0.015625)"/>
       <path id="DejaVuSans-Bold-65" d="M 4031 1759 
L 4031 1441 
L 1416 1441 
Q 1456 1047 1700 850 
Q 1944 653 2381 653 
Q 2734 653 3104 758 
Q 3475 863 3866 1075 
L 3866 213 
Q 3469 63 3072 -14 
Q 2675 -91 2278 -91 
Q 1328 -91 801 392 
Q 275 875 275 1747 
Q 275 2603 792 3093 
Q 1309 3584 2216 3584 
Q 3041 3584 3536 3087 
Q 4031 2591 4031 1759 
z
M 2881 2131 
Q 2881 2450 2695 2645 
Q 2509 2841 2209 2841 
Q 1884 2841 1681 2658 
Q 1478 2475 1428 2131 
L 2881 2131 
z
" transform="scale(0.015625)"/>
       <path id="DejaVuSans-Bold-6e" d="M 4056 2131 
L 4056 0 
L 2931 0 
L 2931 347 
L 2931 1631 
Q 2931 2084 2911 2256 
Q 2891 2428 2841 2509 
Q 2775 2619 2662 2680 
Q 2550 2741 2406 2741 
Q 2056 2741 1856 2470 
Q 1656 2200 1656 1722 
L 1656 0 
L 538 0 
L 538 3500 
L 1656 3500 
L 1656 2988 
Q 1909 3294 2193 3439 
Q 2478 3584 2822 3584 
Q 3428 3584 3742 3212 
Q 4056 2841 4056 2131 
z
" transform="scale(0.015625)"/>
       <path id="DejaVuSans-Bold-74" d="M 1759 4494 
L 1759 3500 
L 2913 3500 
L 2913 2700 
L 1759 2700 
L 1759 1216 
Q 1759 972 1856 886 
Q 1953 800 2241 800 
L 2816 800 
L 2816 0 
L 1856 0 
Q 1194 0 917 276 
Q 641 553 641 1216 
L 641 2700 
L 84 2700 
L 84 3500 
L 641 3500 
L 641 4494 
L 1759 4494 
z
" transform="scale(0.015625)"/>
       <path id="DejaVuSans-Bold-20" transform="scale(0.015625)"/>
       <path id="DejaVuSans-Bold-52" d="M 2297 2597 
Q 2675 2597 2839 2737 
Q 3003 2878 3003 3200 
Q 3003 3519 2839 3656 
Q 2675 3794 2297 3794 
L 1791 3794 
L 1791 2597 
L 2297 2597 
z
M 1791 1766 
L 1791 0 
L 588 0 
L 588 4666 
L 2425 4666 
Q 3347 4666 3776 4356 
Q 4206 4047 4206 3378 
Q 4206 2916 3982 2619 
Q 3759 2322 3309 2181 
Q 3556 2125 3751 1926 
Q 3947 1728 4147 1325 
L 4800 0 
L 3519 0 
L 2950 1159 
Q 2778 1509 2601 1637 
Q 2425 1766 2131 1766 
L 1791 1766 
z
" transform="scale(0.015625)"/>
       <path id="DejaVuSans-Bold-73" d="M 3272 3391 
L 3272 2541 
Q 2913 2691 2578 2766 
Q 2244 2841 1947 2841 
Q 1628 2841 1473 2761 
Q 1319 2681 1319 2516 
Q 1319 2381 1436 2309 
Q 1553 2238 1856 2203 
L 2053 2175 
Q 2913 2066 3209 1816 
Q 3506 1566 3506 1031 
Q 3506 472 3093 190 
Q 2681 -91 1863 -91 
Q 1516 -91 1145 -36 
Q 775 19 384 128 
L 384 978 
Q 719 816 1070 734 
Q 1422 653 1784 653 
Q 2113 653 2278 743 
Q 2444 834 2444 1013 
Q 2444 1163 2330 1236 
Q 2216 1309 1875 1350 
L 1678 1375 
Q 931 1469 631 1722 
Q 331 1975 331 2491 
Q 331 3047 712 3315 
Q 1094 3584 1881 3584 
Q 2191 3584 2531 3537 
Q 2872 3491 3272 3391 
z
" transform="scale(0.015625)"/>
       <path id="DejaVuSans-Bold-69" d="M 538 3500 
L 1656 3500 
L 1656 0 
L 538 0 
L 538 3500 
z
M 538 4863 
L 1656 4863 
L 1656 3950 
L 538 3950 
L 538 4863 
z
" transform="scale(0.015625)"/>
       <path id="DejaVuSans-Bold-76" d="M 97 3500 
L 1216 3500 
L 2088 1081 
L 2956 3500 
L 4078 3500 
L 2700 0 
L 1472 0 
L 97 3500 
z
" transform="scale(0.015625)"/>
       <path id="DejaVuSans-Bold-79" d="M 78 3500 
L 1197 3500 
L 2138 1125 
L 2938 3500 
L 4056 3500 
L 2584 -331 
Q 2363 -916 2067 -1148 
Q 1772 -1381 1288 -1381 
L 641 -1381 
L 641 -647 
L 991 -647 
Q 1275 -647 1404 -556 
Q 1534 -466 1606 -231 
L 1638 -134 
L 78 3500 
z
" transform="scale(0.015625)"/>
       <path id="DejaVuSans-Bold-5b" d="M 550 4863 
L 2491 4863 
L 2491 4159 
L 1613 4159 
L 1613 -141 
L 2491 -141 
L 2491 -844 
L 550 -844 
L 550 4863 
z
" transform="scale(0.015625)"/>
       <path id="DejaVuSans-Bold-3a9" d="M 2719 4750 
Q 3841 4750 4480 4106 
Q 5119 3463 5119 2494 
Q 5119 1406 4306 909 
L 5266 909 
L 5266 0 
L 3125 0 
L 3125 975 
Q 3244 1041 3334 1131 
Q 3875 1678 3875 2466 
Q 3875 3066 3572 3472 
Q 3269 3878 2719 3878 
Q 2169 3878 1866 3472 
Q 1563 3066 1563 2466 
Q 1563 1678 2103 1131 
Q 2194 1041 2313 975 
L 2313 0 
L 172 0 
L 172 909 
L 1131 909 
Q 319 1406 319 2494 
Q 319 3463 958 4106 
Q 1597 4750 2719 4750 
z
" transform="scale(0.015625)"/>
       <path id="DejaVuSans-Bold-6d" d="M 3781 2919 
Q 3994 3244 4286 3414 
Q 4578 3584 4928 3584 
Q 5531 3584 5847 3212 
Q 6163 2841 6163 2131 
L 6163 0 
L 5038 0 
L 5038 1825 
Q 5041 1866 5042 1909 
Q 5044 1953 5044 2034 
Q 5044 2406 4934 2573 
Q 4825 2741 4581 2741 
Q 4263 2741 4089 2478 
Q 3916 2216 3909 1719 
L 3909 0 
L 2784 0 
L 2784 1825 
Q 2784 2406 2684 2573 
Q 2584 2741 2328 2741 
Q 2006 2741 1831 2477 
Q 1656 2213 1656 1722 
L 1656 0 
L 531 0 
L 531 3500 
L 1656 3500 
L 1656 2988 
Q 1863 3284 2130 3434 
Q 2397 3584 2719 3584 
Q 3081 3584 3359 3409 
Q 3638 3234 3781 2919 
z
" transform="scale(0.015625)"/>
       <path id="DejaVuSans-Bold-5d" d="M 2375 -844 
L 434 -844 
L 434 -141 
L 1313 -141 
L 1313 4159 
L 434 4159 
L 434 4863 
L 2375 4863 
L 2375 -844 
z
" transform="scale(0.015625)"/>
      </defs>
      <use xlink:href="#DejaVuSans-Bold-41" transform="translate(0 0.015625)"/>
      <use xlink:href="#DejaVuSans-Bold-70" transform="translate(77.392578 0.015625)"/>
      <use xlink:href="#DejaVuSans-Bold-70" transform="translate(148.974609 0.015625)"/>
      <use xlink:href="#DejaVuSans-Bold-61" transform="translate(220.556641 0.015625)"/>
      <use xlink:href="#DejaVuSans-Bold-72" transform="translate(288.037109 0.015625)"/>
      <use xlink:href="#DejaVuSans-Bold-65" transform="translate(337.353516 0.015625)"/>
      <use xlink:href="#DejaVuSans-Bold-6e" transform="translate(405.175781 0.015625)"/>
      <use xlink:href="#DejaVuSans-Bold-74" transform="translate(476.367188 0.015625)"/>
      <use xlink:href="#DejaVuSans-Bold-20" transform="translate(524.169922 0.015625)"/>
      <use xlink:href="#DejaVuSans-Bold-52" transform="translate(558.984375 0.015625)"/>
      <use xlink:href="#DejaVuSans-Bold-65" transform="translate(635.986328 0.015625)"/>
      <use xlink:href="#DejaVuSans-Bold-73" transform="translate(703.808594 0.015625)"/>
      <use xlink:href="#DejaVuSans-Bold-69" transform="translate(763.330078 0.015625)"/>
      <use xlink:href="#DejaVuSans-Bold-73" transform="translate(797.607422 0.015625)"/>
      <use xlink:href="#DejaVuSans-Bold-74" transform="translate(857.128906 0.015625)"/>
      <use xlink:href="#DejaVuSans-Bold-69" transform="translate(904.931641 0.015625)"/>
      <use xlink:href="#DejaVuSans-Bold-76" transform="translate(939.208984 0.015625)"/>
      <use xlink:href="#DejaVuSans-Bold-69" transform="translate(1004.394531 0.015625)"/>
      <use xlink:href="#DejaVuSans-Bold-74" transform="translate(1038.671875 0.015625)"/>
      <use xlink:href="#DejaVuSans-Bold-79" transform="translate(1086.474609 0.015625)"/>
      <use xlink:href="#DejaVuSans-Bold-20" transform="translate(1151.660156 0.015625)"/>
      <use xlink:href="#DejaVuSans-Bold-5b" transform="translate(1186.474609 0.015625)"/>
      <use xlink:href="#DejaVuSans-Bold-3a9" transform="translate(1232.177734 0.015625)"/>
      <use xlink:href="#DejaVuSans-Bold-6d" transform="translate(1317.1875 0.015625)"/>
      <use xlink:href="#DejaVuSans-Bold-5d" transform="translate(1421.386719 0.015625)"/>
     </g>
    </g>
   </g>
   <g id="line2d_4">
    <path d="M 229.138579 28.063636 
L 200.889144 47.030579 
L 173.486456 65.997521 
L 150.580888 84.964463 
L 136.928284 103.931405 
L 129.046279 122.898347 
L 121.278033 141.865289 
L 117.030454 160.832231 
L 116.90017 179.799174 
L 120.581002 198.766116 
L 122.723047 217.733058 
L 120.727192 236.7 
L 129.810292 255.666942 
L 130.362687 274.633884 
L 140.146945 293.600826 
L 136.871835 312.567769 
L 132.767869 331.534711 
L 121.15811 350.501653 
L 102.981189 369.468595 
L 88.236557 388.435537 
L 65.971847 407.402479 
L 44.604479 426.369421 
L 27.931263 445.336364 
" clip-path="url(#pa5012a95e1)" style="fill: none; stroke: #756bb1; stroke-opacity: 0.2; stroke-width: 2; stroke-linecap: square"/>
   </g>
   <g id="line2d_5">
    <path d="M 218.96531 28.063636 
L 211.762662 47.030579 
L 191.778201 65.997521 
L 176.904632 84.964463 
L 163.381667 103.931405 
L 139.826317 122.898347 
L 132.53904 141.865289 
L 122.844119 160.832231 
L 117.025224 179.799174 
L 122.524049 198.766116 
L 132.786224 217.733058 
L 143.466998 236.7 
L 155.546697 255.666942 
L 157.041471 274.633884 
L 158.049641 293.600826 
L 156.931361 312.567769 
L 140.926255 331.534711 
L 131.195831 350.501653 
L 107.005082 369.468595 
L 87.781907 388.435537 
L 61.075829 407.402479 
L 41.7712 426.369421 
L 31.139811 445.336364 
" clip-path="url(#pa5012a95e1)" style="fill: none; stroke: #756bb1; stroke-opacity: 0.2; stroke-width: 2; stroke-linecap: square"/>
   </g>
   <g id="line2d_6">
    <path d="M 243.033564 28.063636 
L 207.192372 47.030579 
L 174.731105 65.997521 
L 146.968979 84.964463 
L 133.095666 103.931405 
L 127.636979 122.898347 
L 118.340204 141.865289 
L 114.408352 160.832231 
L 110.390479 179.799174 
L 114.609484 198.766116 
L 114.57016 217.733058 
L 118.454283 236.7 
L 120.915931 255.666942 
L 126.510854 274.633884 
L 125.129091 293.600826 
L 129.683611 312.567769 
L 126.737279 331.534711 
L 120.195994 350.501653 
L 102.505584 369.468595 
L 80.757135 388.435537 
L 65.341142 407.402479 
L 45.587334 426.369421 
L 26.39624 445.336364 
" clip-path="url(#pa5012a95e1)" style="fill: none; stroke: #756bb1; stroke-opacity: 0.2; stroke-width: 2; stroke-linecap: square"/>
   </g>
   <g id="line2d_7">
    <path d="M 236.092606 28.063636 
L 208.191502 47.030579 
L 177.678147 65.997521 
L 155.946465 84.964463 
L 139.901845 103.931405 
L 132.272023 122.898347 
L 127.657599 141.865289 
L 117.131853 160.832231 
L 114.468008 179.799174 
L 115.649824 198.766116 
L 120.292939 217.733058 
L 123.425499 236.7 
L 129.824784 255.666942 
L 132.251685 274.633884 
L 135.225658 293.600826 
L 129.250129 312.567769 
L 124.681387 331.534711 
L 116.250062 350.501653 
L 104.554856 369.468595 
L 87.463993 388.435537 
L 59.290992 407.402479 
L 45.805338 426.369421 
L 23.613564 445.336364 
" clip-path="url(#pa5012a95e1)" style="fill: none; stroke: #756bb1; stroke-opacity: 0.2; stroke-width: 2; stroke-linecap: square"/>
   </g>
   <g id="line2d_8">
    <path d="M 223.460257 28.063636 
L 200.47984 47.030579 
L 176.454443 65.997521 
L 152.197619 84.964463 
L 134.375471 103.931405 
L 120.523334 122.898347 
L 106.174626 141.865289 
L 102.864526 160.832231 
L 103.407993 179.799174 
L 102.325119 198.766116 
L 113.894774 217.733058 
L 117.251279 236.7 
L 132.859876 255.666942 
L 138.084267 274.633884 
L 141.965546 293.600826 
L 138.275459 312.567769 
L 132.021437 331.534711 
L 112.613622 350.501653 
L 94.05102 369.468595 
L 79.592122 388.435537 
L 58.786453 407.402479 
L 37.058688 426.369421 
L 23.569743 445.336364 
" clip-path="url(#pa5012a95e1)" style="fill: none; stroke: #756bb1; stroke-opacity: 0.2; stroke-width: 2; stroke-linecap: square"/>
   </g>
   <g id="line2d_9">
    <path d="M 239.230727 28.063636 
L 200.314099 47.030579 
L 178.17097 65.997521 
L 159.458391 84.964463 
L 147.039506 103.931405 
L 139.259301 122.898347 
L 133.038825 141.865289 
L 131.647706 160.832231 
L 128.402893 179.799174 
L 126.298762 198.766116 
L 125.098227 217.733058 
L 125.696999 236.7 
L 132.630476 255.666942 
L 131.871129 274.633884 
L 134.443571 293.600826 
L 132.351723 312.567769 
L 126.875995 331.534711 
L 119.803107 350.501653 
L 101.409833 369.468595 
L 86.874063 388.435537 
L 64.60871 407.402479 
L 46.902981 426.369421 
L 27.39038 445.336364 
" clip-path="url(#pa5012a95e1)" style="fill: none; stroke: #756bb1; stroke-opacity: 0.2; stroke-width: 2; stroke-linecap: square"/>
   </g>
   <g id="line2d_10">
    <path d="M 214.803896 28.063636 
L 203.96983 47.030579 
L 188.320913 65.997521 
L 169.99245 84.964463 
L 150.96979 103.931405 
L 132.948936 122.898347 
L 114.601184 141.865289 
L 101.971118 160.832231 
L 98.615213 179.799174 
L 95.819884 198.766116 
L 103.409407 217.733058 
L 108.955456 236.7 
L 121.128406 255.666942 
L 135.114717 274.633884 
L 138.349593 293.600826 
L 142.1027 312.567769 
L 138.786202 331.534711 
L 120.962286 350.501653 
L 106.251075 369.468595 
L 87.532742 388.435537 
L 65.994446 407.402479 
L 42.796162 426.369421 
L 23.621396 445.336364 
" clip-path="url(#pa5012a95e1)" style="fill: none; stroke: #756bb1; stroke-opacity: 0.2; stroke-width: 2; stroke-linecap: square"/>
   </g>
   <g id="line2d_11">
    <path d="M 221.65504 28.063636 
L 190.450931 47.030579 
L 160.013643 65.997521 
L 144.172873 84.964463 
L 134.261541 103.931405 
L 124.209557 122.898347 
L 114.199965 141.865289 
L 113.072828 160.832231 
L 114.550132 179.799174 
L 112.214428 198.766116 
L 119.003271 217.733058 
L 120.378758 236.7 
L 122.94148 255.666942 
L 130.871314 274.633884 
L 133.865595 293.600826 
L 136.850533 312.567769 
L 132.326979 331.534711 
L 122.396239 350.501653 
L 106.856988 369.468595 
L 86.5177 388.435537 
L 65.685516 407.402479 
L 42.315784 426.369421 
L 25.929085 445.336364 
" clip-path="url(#pa5012a95e1)" style="fill: none; stroke: #756bb1; stroke-opacity: 0.2; stroke-width: 2; stroke-linecap: square"/>
   </g>
   <g id="line2d_12">
    <path d="M 219.330181 28.063636 
L 196.780936 47.030579 
L 175.371548 65.997521 
L 157.365681 84.964463 
L 139.803265 103.931405 
L 130.815579 122.898347 
L 127.100788 141.865289 
L 123.703988 160.832231 
L 120.206233 179.799174 
L 119.201913 198.766116 
L 119.26476 217.733058 
L 120.21941 236.7 
L 121.244244 255.666942 
L 129.744784 274.633884 
L 132.615599 293.600826 
L 125.702714 312.567769 
L 123.711491 331.534711 
L 113.428202 350.501653 
L 103.949103 369.468595 
L 82.171012 388.435537 
L 64.840864 407.402479 
L 45.489587 426.369421 
L 29.035304 445.336364 
" clip-path="url(#pa5012a95e1)" style="fill: none; stroke: #756bb1; stroke-opacity: 0.2; stroke-width: 2; stroke-linecap: square"/>
   </g>
   <g id="line2d_13">
    <path d="M 264.927273 28.063636 
L 224.688323 47.030579 
L 190.45629 65.997521 
L 165.362759 84.964463 
L 151.14285 103.931405 
L 134.918025 122.898347 
L 132.218506 141.865289 
L 127.150957 160.832231 
L 125.865525 179.799174 
L 121.510191 198.766116 
L 125.590899 217.733058 
L 120.900023 236.7 
L 127.455126 255.666942 
L 128.611363 274.633884 
L 124.886229 293.600826 
L 124.021789 312.567769 
L 118.758013 331.534711 
L 113.700021 350.501653 
L 98.067393 369.468595 
L 85.451418 388.435537 
L 63.235961 407.402479 
L 46.685497 426.369421 
L 22.849915 445.336364 
" clip-path="url(#pa5012a95e1)" style="fill: none; stroke: #756bb1; stroke-opacity: 0.2; stroke-width: 2; stroke-linecap: square"/>
   </g>
   <g id="line2d_14">
    <path d="M 211.251854 28.063636 
L 195.888207 47.030579 
L 178.470721 65.997521 
L 161.985997 84.964463 
L 149.485901 103.931405 
L 134.301839 122.898347 
L 122.519622 141.865289 
L 120.457952 160.832231 
L 122.40418 179.799174 
L 124.582497 198.766116 
L 122.370147 217.733058 
L 130.781276 236.7 
L 140.420953 255.666942 
L 138.147853 274.633884 
L 143.519919 293.600826 
L 137.740808 312.567769 
L 135.526914 331.534711 
L 115.620283 350.501653 
L 98.191773 369.468595 
L 84.409524 388.435537 
L 62.394301 407.402479 
L 44.956879 426.369421 
L 24.253216 445.336364 
" clip-path="url(#pa5012a95e1)" style="fill: none; stroke: #756bb1; stroke-opacity: 0.2; stroke-width: 2; stroke-linecap: square"/>
   </g>
   <g id="line2d_15">
    <path d="M 215.084058 28.063636 
L 195.580911 47.030579 
L 171.920213 65.997521 
L 146.73754 84.964463 
L 128.411369 103.931405 
L 112.779762 122.898347 
L 104.419059 141.865289 
L 99.524943 160.832231 
L 104.9723 179.799174 
L 104.237051 198.766116 
L 111.944559 217.733058 
L 120.885108 236.7 
L 128.894177 255.666942 
L 139.633167 274.633884 
L 150.202538 293.600826 
L 146.497695 312.567769 
L 141.301244 331.534711 
L 122.556817 350.501653 
L 102.4395 369.468595 
L 82.255438 388.435537 
L 61.663419 407.402479 
L 41.732609 426.369421 
L 22.243123 445.336364 
" clip-path="url(#pa5012a95e1)" style="fill: none; stroke: #756bb1; stroke-opacity: 0.2; stroke-width: 2; stroke-linecap: square"/>
   </g>
   <g id="line2d_16">
    <path d="M 219.943632 28.063636 
L 206.570873 47.030579 
L 190.923592 65.997521 
L 167.29334 84.964463 
L 145.790248 103.931405 
L 124.328575 122.898347 
L 104.204464 141.865289 
L 100.601174 160.832231 
L 98.272142 179.799174 
L 99.321249 198.766116 
L 107.534271 217.733058 
L 119.656612 236.7 
L 132.509403 255.666942 
L 145.60151 274.633884 
L 152.526895 293.600826 
L 149.389334 312.567769 
L 141.036898 331.534711 
L 119.620797 350.501653 
L 100.85077 369.468595 
L 78.540298 388.435537 
L 59.682396 407.402479 
L 40.724469 426.369421 
L 26.071123 445.336364 
" clip-path="url(#pa5012a95e1)" style="fill: none; stroke: #756bb1; stroke-opacity: 0.2; stroke-width: 2; stroke-linecap: square"/>
   </g>
   <g id="line2d_17">
    <path d="M 243.424937 28.063636 
L 210.997782 47.030579 
L 184.52866 65.997521 
L 164.547868 84.964463 
L 144.488874 103.931405 
L 137.036447 122.898347 
L 130.180827 141.865289 
L 125.307962 160.832231 
L 126.285177 179.799174 
L 121.2331 198.766116 
L 128.018888 217.733058 
L 127.689126 236.7 
L 131.44463 255.666942 
L 138.676313 274.633884 
L 135.21845 293.600826 
L 131.79164 312.567769 
L 126.947032 331.534711 
L 118.217717 350.501653 
L 97.343967 369.468595 
L 84.835568 388.435537 
L 60.453736 407.402479 
L 41.053729 426.369421 
L 24.202983 445.336364 
" clip-path="url(#pa5012a95e1)" style="fill: none; stroke: #756bb1; stroke-opacity: 0.2; stroke-width: 2; stroke-linecap: square"/>
   </g>
   <g id="line2d_18">
    <path d="M 216.835832 28.063636 
L 200.759239 47.030579 
L 173.709863 65.997521 
L 155.456677 84.964463 
L 136.977509 103.931405 
L 120.489402 122.898347 
L 113.781256 141.865289 
L 106.621474 160.832231 
L 104.950684 179.799174 
L 98.867465 198.766116 
L 106.514953 217.733058 
L 111.728954 236.7 
L 119.857283 255.666942 
L 127.115568 274.633884 
L 139.473223 293.600826 
L 140.723989 312.567769 
L 136.629629 331.534711 
L 125.416146 350.501653 
L 108.513537 369.468595 
L 86.582158 388.435537 
L 58.716682 407.402479 
L 40.349554 426.369421 
L 25.166389 445.336364 
" clip-path="url(#pa5012a95e1)" style="fill: none; stroke: #756bb1; stroke-opacity: 0.2; stroke-width: 2; stroke-linecap: square"/>
   </g>
   <g id="line2d_19">
    <path d="M 259.82766 28.063636 
L 220.440536 47.030579 
L 189.568073 65.997521 
L 172.842684 84.964463 
L 156.849231 103.931405 
L 147.323464 122.898347 
L 141.42421 141.865289 
L 137.785321 160.832231 
L 132.412661 179.799174 
L 132.169704 198.766116 
L 128.755088 217.733058 
L 132.274633 236.7 
L 130.749874 255.666942 
L 128.097494 274.633884 
L 124.862853 293.600826 
L 125.085196 312.567769 
L 124.817167 331.534711 
L 115.77881 350.501653 
L 103.407311 369.468595 
L 83.184099 388.435537 
L 67.786804 407.402479 
L 44.753572 426.369421 
L 30.038629 445.336364 
" clip-path="url(#pa5012a95e1)" style="fill: none; stroke: #756bb1; stroke-opacity: 0.2; stroke-width: 2; stroke-linecap: square"/>
   </g>
   <g id="line2d_20">
    <path d="M 220.202557 28.063636 
L 211.008347 47.030579 
L 196.626141 65.997521 
L 175.767161 84.964463 
L 157.416834 103.931405 
L 146.999449 122.898347 
L 131.88227 141.865289 
L 133.24517 160.832231 
L 137.880827 179.799174 
L 145.713761 198.766116 
L 152.37569 217.733058 
L 164.513387 236.7 
L 174.857615 255.666942 
L 171.650927 274.633884 
L 173.733608 293.600826 
L 163.687751 312.567769 
L 145.413677 331.534711 
L 126.928772 350.501653 
L 107.644289 369.468595 
L 80.592875 388.435537 
L 55.658948 407.402479 
L 38.406443 426.369421 
L 21.934869 445.336364 
" clip-path="url(#pa5012a95e1)" style="fill: none; stroke: #756bb1; stroke-opacity: 0.2; stroke-width: 2; stroke-linecap: square"/>
   </g>
   <g id="line2d_21">
    <path d="M 220.582102 28.063636 
L 199.8897 47.030579 
L 185.519779 65.997521 
L 163.873134 84.964463 
L 135.305365 103.931405 
L 121.651139 122.898347 
L 108.233915 141.865289 
L 93.481358 160.832231 
L 96.738899 179.799174 
L 100.18838 198.766116 
L 103.586503 217.733058 
L 119.393019 236.7 
L 133.848007 255.666942 
L 140.272037 274.633884 
L 154.141221 293.600826 
L 150.668492 312.567769 
L 145.106281 331.534711 
L 127.455123 350.501653 
L 106.214566 369.468595 
L 85.945664 388.435537 
L 63.308434 407.402479 
L 44.587012 426.369421 
L 30.393228 445.336364 
" clip-path="url(#pa5012a95e1)" style="fill: none; stroke: #756bb1; stroke-opacity: 0.2; stroke-width: 2; stroke-linecap: square"/>
   </g>
   <g id="line2d_22">
    <path d="M 219.460189 28.063636 
L 187.652194 47.030579 
L 164.101306 65.997521 
L 153.611951 84.964463 
L 139.195282 103.931405 
L 131.73178 122.898347 
L 119.280412 141.865289 
L 120.410883 160.832231 
L 118.087252 179.799174 
L 120.53505 198.766116 
L 121.47382 217.733058 
L 126.980075 236.7 
L 129.919174 255.666942 
L 138.027783 274.633884 
L 140.264524 293.600826 
L 141.325849 312.567769 
L 134.595001 331.534711 
L 121.937847 350.501653 
L 110.477708 369.468595 
L 89.708396 388.435537 
L 65.330898 407.402479 
L 42.47229 426.369421 
L 26.096403 445.336364 
" clip-path="url(#pa5012a95e1)" style="fill: none; stroke: #756bb1; stroke-opacity: 0.2; stroke-width: 2; stroke-linecap: square"/>
   </g>
   <g id="line2d_23">
    <path d="M 221.28406 28.063636 
L 200.631614 47.030579 
L 177.699016 65.997521 
L 161.733228 84.964463 
L 144.42371 103.931405 
L 139.119435 122.898347 
L 132.108439 141.865289 
L 122.974899 160.832231 
L 124.102589 179.799174 
L 124.051791 198.766116 
L 125.491938 217.733058 
L 125.148476 236.7 
L 130.002609 255.666942 
L 135.614638 274.633884 
L 136.642052 293.600826 
L 132.87533 312.567769 
L 134.920145 331.534711 
L 123.231474 350.501653 
L 110.913138 369.468595 
L 90.151192 388.435537 
L 68.086391 407.402479 
L 45.909524 426.369421 
L 24.330355 445.336364 
" clip-path="url(#pa5012a95e1)" style="fill: none; stroke: #756bb1; stroke-opacity: 0.2; stroke-width: 2; stroke-linecap: square"/>
   </g>
   <g id="line2d_24">
    <path d="M 221.84253 28.063636 
L 196.065015 47.030579 
L 171.442538 65.997521 
L 157.177385 84.964463 
L 134.386114 103.931405 
L 124.426405 122.898347 
L 116.932743 141.865289 
L 113.377268 160.832231 
L 112.452895 179.799174 
L 115.418744 198.766116 
L 117.871279 217.733058 
L 123.676743 236.7 
L 129.406449 255.666942 
L 135.978988 274.633884 
L 141.47249 293.600826 
L 146.687812 312.567769 
L 139.976275 331.534711 
L 123.116132 350.501653 
L 105.250137 369.468595 
L 83.140914 388.435537 
L 65.156766 407.402479 
L 45.145271 426.369421 
L 25.587541 445.336364 
" clip-path="url(#pa5012a95e1)" style="fill: none; stroke: #756bb1; stroke-opacity: 0.2; stroke-width: 2; stroke-linecap: square"/>
   </g>
   <g id="line2d_25">
    <path d="M 225.565315 28.063636 
L 206.316487 47.030579 
L 182.942074 65.997521 
L 165.378376 84.964463 
L 142.727529 103.931405 
L 116.957074 122.898347 
L 105.228964 141.865289 
L 97.849747 160.832231 
L 91.224616 179.799174 
L 91.979658 198.766116 
L 98.817502 217.733058 
L 109.489949 236.7 
L 123.76931 255.666942 
L 134.005387 274.633884 
L 145.256718 293.600826 
L 147.956866 312.567769 
L 140.234816 331.534711 
L 126.046175 350.501653 
L 103.848558 369.468595 
L 81.854703 388.435537 
L 59.610652 407.402479 
L 41.403115 426.369421 
L 25.966309 445.336364 
" clip-path="url(#pa5012a95e1)" style="fill: none; stroke: #756bb1; stroke-opacity: 0.2; stroke-width: 2; stroke-linecap: square"/>
   </g>
   <g id="line2d_26">
    <path d="M 209.723434 28.063636 
L 183.270943 47.030579 
L 155.594782 65.997521 
L 139.306227 84.964463 
L 130.360227 103.931405 
L 116.854321 122.898347 
L 112.342994 141.865289 
L 113.263203 160.832231 
L 108.934599 179.799174 
L 115.406826 198.766116 
L 114.382676 217.733058 
L 123.674969 236.7 
L 130.111593 255.666942 
L 135.00475 274.633884 
L 139.876162 293.600826 
L 142.974464 312.567769 
L 136.030674 331.534711 
L 121.4346 350.501653 
L 106.16821 369.468595 
L 85.883584 388.435537 
L 65.515381 407.402479 
L 43.361645 426.369421 
L 26.051026 445.336364 
" clip-path="url(#pa5012a95e1)" style="fill: none; stroke: #756bb1; stroke-opacity: 0.2; stroke-width: 2; stroke-linecap: square"/>
   </g>
   <g id="line2d_27">
    <path d="M 231.552534 28.063636 
L 201.595176 47.030579 
L 171.935925 65.997521 
L 160.01854 84.964463 
L 142.29522 103.931405 
L 137.759808 122.898347 
L 125.754303 141.865289 
L 128.237698 160.832231 
L 126.226644 179.799174 
L 122.7885 198.766116 
L 124.333632 217.733058 
L 130.20321 236.7 
L 132.356649 255.666942 
L 139.252241 274.633884 
L 134.803544 293.600826 
L 135.785951 312.567769 
L 132.143852 331.534711 
L 124.346089 350.501653 
L 105.819 369.468595 
L 86.108028 388.435537 
L 64.781211 407.402479 
L 47.174992 426.369421 
L 30.577044 445.336364 
" clip-path="url(#pa5012a95e1)" style="fill: none; stroke: #756bb1; stroke-opacity: 0.2; stroke-width: 2; stroke-linecap: square"/>
   </g>
   <g id="line2d_28">
    <path d="M 211.853287 28.063636 
L 189.165148 47.030579 
L 166.339279 65.997521 
L 149.582989 84.964463 
L 128.189787 103.931405 
L 116.718557 122.898347 
L 109.578344 141.865289 
L 97.211573 160.832231 
L 102.577789 179.799174 
L 98.477224 198.766116 
L 101.069087 217.733058 
L 113.232177 236.7 
L 117.990403 255.666942 
L 125.160058 274.633884 
L 134.500759 293.600826 
L 132.212719 312.567769 
L 133.60258 331.534711 
L 121.658793 350.501653 
L 102.664771 369.468595 
L 87.452179 388.435537 
L 64.622714 407.402479 
L 46.940332 426.369421 
L 24.110912 445.336364 
" clip-path="url(#pa5012a95e1)" style="fill: none; stroke: #756bb1; stroke-opacity: 0.2; stroke-width: 2; stroke-linecap: square"/>
   </g>
   <g id="line2d_29">
    <path d="M 222.21045 28.063636 
L 206.862706 47.030579 
L 176.346349 65.997521 
L 159.732097 84.964463 
L 137.613856 103.931405 
L 118.676936 122.898347 
L 111.156347 141.865289 
L 106.092269 160.832231 
L 101.020062 179.799174 
L 102.041546 198.766116 
L 109.680034 217.733058 
L 114.784728 236.7 
L 123.990223 255.666942 
L 126.844302 274.633884 
L 132.194297 293.600826 
L 138.343249 312.567769 
L 128.55139 331.534711 
L 113.747859 350.501653 
L 100.134621 369.468595 
L 77.542759 388.435537 
L 60.18833 407.402479 
L 36.855436 426.369421 
L 24.173619 445.336364 
" clip-path="url(#pa5012a95e1)" style="fill: none; stroke: #756bb1; stroke-opacity: 0.2; stroke-width: 2; stroke-linecap: square"/>
   </g>
   <g id="line2d_30">
    <path d="M 227.110375 28.063636 
L 195.628979 47.030579 
L 165.321577 65.997521 
L 144.311033 84.964463 
L 132.359792 103.931405 
L 122.189137 122.898347 
L 119.12184 141.865289 
L 111.99959 160.832231 
L 117.234167 179.799174 
L 110.229403 198.766116 
L 113.402785 217.733058 
L 121.603337 236.7 
L 121.877544 255.666942 
L 121.929036 274.633884 
L 127.238377 293.600826 
L 131.16036 312.567769 
L 124.480102 331.534711 
L 115.11622 350.501653 
L 102.587942 369.468595 
L 86.237782 388.435537 
L 62.02624 407.402479 
L 42.696034 426.369421 
L 19.620333 445.336364 
" clip-path="url(#pa5012a95e1)" style="fill: none; stroke: #756bb1; stroke-opacity: 0.2; stroke-width: 2; stroke-linecap: square"/>
   </g>
   <g id="line2d_31">
    <path d="M 238.806076 28.063636 
L 207.797801 47.030579 
L 184.856442 65.997521 
L 164.463208 84.964463 
L 144.966485 103.931405 
L 137.166178 122.898347 
L 128.202075 141.865289 
L 119.164815 160.832231 
L 123.294978 179.799174 
L 118.135712 198.766116 
L 125.306246 217.733058 
L 125.401208 236.7 
L 128.284996 255.666942 
L 131.503066 274.633884 
L 138.33226 293.600826 
L 138.348475 312.567769 
L 134.050707 331.534711 
L 121.723655 350.501653 
L 98.687858 369.468595 
L 77.969712 388.435537 
L 56.753491 407.402479 
L 39.898754 426.369421 
L 21.003709 445.336364 
" clip-path="url(#pa5012a95e1)" style="fill: none; stroke: #756bb1; stroke-opacity: 0.2; stroke-width: 2; stroke-linecap: square"/>
   </g>
   <g id="line2d_32">
    <path d="M 221.440248 28.063636 
L 188.225073 47.030579 
L 165.378674 65.997521 
L 152.36931 84.964463 
L 137.790679 103.931405 
L 135.882744 122.898347 
L 126.6901 141.865289 
L 125.127284 160.832231 
L 125.262643 179.799174 
L 122.739741 198.766116 
L 119.784636 217.733058 
L 120.66652 236.7 
L 129.188139 255.666942 
L 125.687068 274.633884 
L 127.963606 293.600826 
L 126.686246 312.567769 
L 122.298316 331.534711 
L 118.154458 350.501653 
L 97.992282 369.468595 
L 83.125951 388.435537 
L 67.04464 407.402479 
L 40.45938 426.369421 
L 28.836039 445.336364 
" clip-path="url(#pa5012a95e1)" style="fill: none; stroke: #756bb1; stroke-opacity: 0.2; stroke-width: 2; stroke-linecap: square"/>
   </g>
   <g id="line2d_33">
    <path d="M 237.84978 28.063636 
L 213.340833 47.030579 
L 186.803276 65.997521 
L 168.643961 84.964463 
L 148.302446 103.931405 
L 131.498246 122.898347 
L 121.069229 141.865289 
L 107.936803 160.832231 
L 109.531985 179.799174 
L 106.911509 198.766116 
L 116.07847 217.733058 
L 123.534753 236.7 
L 132.898768 255.666942 
L 143.905633 274.633884 
L 148.47467 293.600826 
L 143.538838 312.567769 
L 139.619037 331.534711 
L 127.61873 350.501653 
L 110.448195 369.468595 
L 85.19234 388.435537 
L 62.990166 407.402479 
L 42.766949 426.369421 
L 20.858225 445.336364 
" clip-path="url(#pa5012a95e1)" style="fill: none; stroke: #756bb1; stroke-opacity: 0.2; stroke-width: 2; stroke-linecap: square"/>
   </g>
   <g id="line2d_34">
    <path d="M 234.459917 28.063636 
L 207.046276 47.030579 
L 181.007245 65.997521 
L 160.857456 84.964463 
L 144.952998 103.931405 
L 138.061167 122.898347 
L 130.199947 141.865289 
L 118.445175 160.832231 
L 121.539821 179.799174 
L 118.856634 198.766116 
L 115.581965 217.733058 
L 119.748177 236.7 
L 125.754506 255.666942 
L 128.064436 274.633884 
L 133.405992 293.600826 
L 133.03987 312.567769 
L 129.998637 331.534711 
L 125.975644 350.501653 
L 108.695755 369.468595 
L 86.452957 388.435537 
L 68.086361 407.402479 
L 49.02731 426.369421 
L 27.852004 445.336364 
" clip-path="url(#pa5012a95e1)" style="fill: none; stroke: #756bb1; stroke-opacity: 0.2; stroke-width: 2; stroke-linecap: square"/>
   </g>
   <g id="line2d_35">
    <path d="M 214.422527 28.063636 
L 191.093176 47.030579 
L 170.230872 65.997521 
L 150.131516 84.964463 
L 129.165387 103.931405 
L 111.775854 122.898347 
L 104.152491 141.865289 
L 96.338272 160.832231 
L 98.56349 179.799174 
L 104.977024 198.766116 
L 108.904741 217.733058 
L 123.703191 236.7 
L 133.009232 255.666942 
L 143.53693 274.633884 
L 145.219606 293.600826 
L 146.595297 312.567769 
L 134.180535 331.534711 
L 119.447916 350.501653 
L 97.566307 369.468595 
L 78.662104 388.435537 
L 50.644291 407.402479 
L 33.123037 426.369421 
L 24.122853 445.336364 
" clip-path="url(#pa5012a95e1)" style="fill: none; stroke: #756bb1; stroke-opacity: 0.2; stroke-width: 2; stroke-linecap: square"/>
   </g>
   <g id="line2d_36">
    <path d="M 207.281513 28.063636 
L 193.487903 47.030579 
L 181.677364 65.997521 
L 164.816594 84.964463 
L 139.859392 103.931405 
L 118.412545 122.898347 
L 105.558022 141.865289 
L 101.958937 160.832231 
L 99.954638 179.799174 
L 107.764647 198.766116 
L 117.812146 217.733058 
L 136.366416 236.7 
L 146.677092 255.666942 
L 157.286608 274.633884 
L 152.905641 293.600826 
L 155.473588 312.567769 
L 142.765705 331.534711 
L 121.958215 350.501653 
L 103.67024 369.468595 
L 80.103671 388.435537 
L 65.173874 407.402479 
L 43.614849 426.369421 
L 28.763466 445.336364 
" clip-path="url(#pa5012a95e1)" style="fill: none; stroke: #756bb1; stroke-opacity: 0.2; stroke-width: 2; stroke-linecap: square"/>
   </g>
   <g id="line2d_37">
    <path d="M 257.12826 28.063636 
L 217.332467 47.030579 
L 184.534568 65.997521 
L 164.744716 84.964463 
L 145.801085 103.931405 
L 135.991026 122.898347 
L 133.160854 141.865289 
L 128.694483 160.832231 
L 121.870474 179.799174 
L 124.211978 198.766116 
L 128.429942 217.733058 
L 130.015374 236.7 
L 129.904475 255.666942 
L 132.478716 274.633884 
L 131.684008 293.600826 
L 134.593135 312.567769 
L 126.595491 331.534711 
L 121.330275 350.501653 
L 100.012294 369.468595 
L 86.862359 388.435537 
L 63.530381 407.402479 
L 43.493895 426.369421 
L 27.955156 445.336364 
" clip-path="url(#pa5012a95e1)" style="fill: none; stroke: #756bb1; stroke-opacity: 0.2; stroke-width: 2; stroke-linecap: square"/>
   </g>
   <g id="line2d_38">
    <path d="M 211.836406 28.063636 
L 189.507258 47.030579 
L 170.724636 65.997521 
L 159.687199 84.964463 
L 145.950161 103.931405 
L 130.90174 122.898347 
L 127.77526 141.865289 
L 120.930874 160.832231 
L 116.628157 179.799174 
L 122.901383 198.766116 
L 123.789176 217.733058 
L 127.98185 236.7 
L 133.228669 255.666942 
L 131.870799 274.633884 
L 137.261314 293.600826 
L 131.637942 312.567769 
L 130.456632 331.534711 
L 118.716429 350.501653 
L 102.948476 369.468595 
L 86.081248 388.435537 
L 67.568505 407.402479 
L 51.528637 426.369421 
L 30.334971 445.336364 
" clip-path="url(#pa5012a95e1)" style="fill: none; stroke: #756bb1; stroke-opacity: 0.2; stroke-width: 2; stroke-linecap: square"/>
   </g>
   <g id="line2d_39">
    <path d="M 247.035338 28.063636 
L 210.81193 47.030579 
L 184.917798 65.997521 
L 159.744435 84.964463 
L 143.464373 103.931405 
L 138.148973 122.898347 
L 132.304318 141.865289 
L 126.738018 160.832231 
L 123.437366 179.799174 
L 120.523102 198.766116 
L 123.968171 217.733058 
L 127.961441 236.7 
L 124.030818 255.666942 
L 127.559409 274.633884 
L 128.810247 293.600826 
L 134.291329 312.567769 
L 124.33347 331.534711 
L 118.263025 350.501653 
L 103.992917 369.468595 
L 82.377834 388.435537 
L 64.890978 407.402479 
L 40.705106 426.369421 
L 25.502815 445.336364 
" clip-path="url(#pa5012a95e1)" style="fill: none; stroke: #756bb1; stroke-opacity: 0.2; stroke-width: 2; stroke-linecap: square"/>
   </g>
   <g id="line2d_40">
    <path d="M 239.886723 28.063636 
L 203.659161 47.030579 
L 175.063748 65.997521 
L 158.448891 84.964463 
L 145.929109 103.931405 
L 137.485894 122.898347 
L 137.815674 141.865289 
L 129.110473 160.832231 
L 127.467991 179.799174 
L 128.439106 198.766116 
L 133.604829 217.733058 
L 128.622133 236.7 
L 130.811656 255.666942 
L 130.415566 274.633884 
L 132.708672 293.600826 
L 136.425018 312.567769 
L 126.245813 331.534711 
L 116.498706 350.501653 
L 108.551569 369.468595 
L 88.504284 388.435537 
L 63.731472 407.402479 
L 42.512488 426.369421 
L 22.292319 445.336364 
" clip-path="url(#pa5012a95e1)" style="fill: none; stroke: #756bb1; stroke-opacity: 0.2; stroke-width: 2; stroke-linecap: square"/>
   </g>
   <g id="line2d_41">
    <path d="M 243.979105 28.063636 
L 208.813124 47.030579 
L 179.780183 65.997521 
L 158.582224 84.964463 
L 146.293692 103.931405 
L 136.439744 122.898347 
L 135.909813 141.865289 
L 131.120311 160.832231 
L 130.431586 179.799174 
L 126.034589 198.766116 
L 129.496846 217.733058 
L 131.007996 236.7 
L 130.401858 255.666942 
L 132.553763 274.633884 
L 134.230779 293.600826 
L 133.787128 312.567769 
L 128.736404 331.534711 
L 115.96345 350.501653 
L 107.573125 369.468595 
L 89.25699 388.435537 
L 65.596783 407.402479 
L 42.369917 426.369421 
L 23.681721 445.336364 
" clip-path="url(#pa5012a95e1)" style="fill: none; stroke: #756bb1; stroke-opacity: 0.2; stroke-width: 2; stroke-linecap: square"/>
   </g>
   <g id="line2d_42">
    <path d="M 215.978019 28.063636 
L 187.616298 47.030579 
L 166.644406 65.997521 
L 141.66026 84.964463 
L 128.735811 103.931405 
L 109.545267 122.898347 
L 105.162756 141.865289 
L 100.508546 160.832231 
L 107.240045 179.799174 
L 108.211191 198.766116 
L 115.811613 217.733058 
L 126.087859 236.7 
L 130.152974 255.666942 
L 136.886876 274.633884 
L 144.705415 293.600826 
L 139.968738 312.567769 
L 127.55035 331.534711 
L 118.132548 350.501653 
L 96.253106 369.468595 
L 78.733159 388.435537 
L 57.492848 407.402479 
L 34.835483 426.369421 
L 22.151339 445.336364 
" clip-path="url(#pa5012a95e1)" style="fill: none; stroke: #756bb1; stroke-opacity: 0.2; stroke-width: 2; stroke-linecap: square"/>
   </g>
   <g id="line2d_43">
    <path d="M 214.056065 28.063636 
L 197.684599 47.030579 
L 181.900552 65.997521 
L 162.149561 84.964463 
L 139.842129 103.931405 
L 115.332714 122.898347 
L 96.372727 141.865289 
L 86.755331 160.832231 
L 79.060242 179.799174 
L 81.96795 198.766116 
L 96.836567 217.733058 
L 107.711643 236.7 
L 119.518467 255.666942 
L 133.508439 274.633884 
L 134.020124 293.600826 
L 139.438745 312.567769 
L 133.6143 331.534711 
L 119.119666 350.501653 
L 105.056433 369.468595 
L 80.753947 388.435537 
L 60.936808 407.402479 
L 45.435227 426.369421 
L 28.788001 445.336364 
" clip-path="url(#pa5012a95e1)" style="fill: none; stroke: #756bb1; stroke-opacity: 0.2; stroke-width: 2; stroke-linecap: square"/>
   </g>
   <g id="line2d_44"/>
   <g id="line2d_45">
    <path d="M 223.737025 28.063636 
L 199.428163 47.030579 
L 176.660676 65.997521 
L 156.749454 84.964463 
L 140.051559 103.931405 
L 127.02459 122.898347 
L 118.061848 141.865289 
L 112.954554 160.832231 
L 111.587175 179.799174 
L 113.293027 198.766116 
L 117.717445 217.733058 
L 123.708028 236.7 
L 130.435782 255.666942 
L 135.992434 274.633884 
L 139.316297 293.600826 
L 138.16691 312.567769 
L 131.851576 331.534711 
L 119.692254 350.501653 
L 102.609134 369.468595 
L 82.310414 388.435537 
L 61.339998 407.402479 
L 41.832961 426.369421 
L 25.559778 445.336364 
" clip-path="url(#pa5012a95e1)" style="fill: none; stroke: #39146b; stroke-width: 4; stroke-linecap: square"/>
   </g>
   <g id="line2d_46">
    <path d="M 219.421709 28.063636 
L 197.47493 47.030579 
L 175.167543 65.997521 
L 153.457616 84.964463 
L 133.516485 103.931405 
L 116.637879 122.898347 
L 104.072032 141.865289 
L 96.802186 160.832231 
L 95.304705 179.799174 
L 99.353774 198.766116 
L 107.930329 217.733058 
L 119.26873 236.7 
L 131.041918 255.666942 
L 140.667082 274.633884 
L 145.710959 293.600826 
L 144.360614 312.567769 
L 135.870922 331.534711 
L 120.833292 350.501653 
L 101.106286 369.468595 
L 79.355742 388.435537 
L 58.32983 407.402479 
L 40.14241 426.369421 
L 25.851797 445.336364 
" clip-path="url(#pa5012a95e1)" style="fill: none; stroke: #e40000; stroke-width: 4; stroke-linecap: square"/>
    <defs>
     <path id="m759bd532f5" d="M -5 5 
L 5 -5 
M -5 -5 
L 5 5 
" style="stroke: #e40000"/>
    </defs>
    <g clip-path="url(#pa5012a95e1)">
     <use xlink:href="#m759bd532f5" x="219.421709" y="28.063636" style="fill: #e40000; stroke: #e40000"/>
     <use xlink:href="#m759bd532f5" x="197.47493" y="47.030579" style="fill: #e40000; stroke: #e40000"/>
     <use xlink:href="#m759bd532f5" x="175.167543" y="65.997521" style="fill: #e40000; stroke: #e40000"/>
     <use xlink:href="#m759bd532f5" x="153.457616" y="84.964463" style="fill: #e40000; stroke: #e40000"/>
     <use xlink:href="#m759bd532f5" x="133.516485" y="103.931405" style="fill: #e40000; stroke: #e40000"/>
     <use xlink:href="#m759bd532f5" x="116.637879" y="122.898347" style="fill: #e40000; stroke: #e40000"/>
     <use xlink:href="#m759bd532f5" x="104.072032" y="141.865289" style="fill: #e40000; stroke: #e40000"/>
     <use xlink:href="#m759bd532f5" x="96.802186" y="160.832231" style="fill: #e40000; stroke: #e40000"/>
     <use xlink:href="#m759bd532f5" x="95.304705" y="179.799174" style="fill: #e40000; stroke: #e40000"/>
     <use xlink:href="#m759bd532f5" x="99.353774" y="198.766116" style="fill: #e40000; stroke: #e40000"/>
     <use xlink:href="#m759bd532f5" x="107.930329" y="217.733058" style="fill: #e40000; stroke: #e40000"/>
     <use xlink:href="#m759bd532f5" x="119.26873" y="236.7" style="fill: #e40000; stroke: #e40000"/>
     <use xlink:href="#m759bd532f5" x="131.041918" y="255.666942" style="fill: #e40000; stroke: #e40000"/>
     <use xlink:href="#m759bd532f5" x="140.667082" y="274.633884" style="fill: #e40000; stroke: #e40000"/>
     <use xlink:href="#m759bd532f5" x="145.710959" y="293.600826" style="fill: #e40000; stroke: #e40000"/>
     <use xlink:href="#m759bd532f5" x="144.360614" y="312.567769" style="fill: #e40000; stroke: #e40000"/>
     <use xlink:href="#m759bd532f5" x="135.870922" y="331.534711" style="fill: #e40000; stroke: #e40000"/>
     <use xlink:href="#m759bd532f5" x="120.833292" y="350.501653" style="fill: #e40000; stroke: #e40000"/>
     <use xlink:href="#m759bd532f5" x="101.106286" y="369.468595" style="fill: #e40000; stroke: #e40000"/>
     <use xlink:href="#m759bd532f5" x="79.355742" y="388.435537" style="fill: #e40000; stroke: #e40000"/>
     <use xlink:href="#m759bd532f5" x="58.32983" y="407.402479" style="fill: #e40000; stroke: #e40000"/>
     <use xlink:href="#m759bd532f5" x="40.14241" y="426.369421" style="fill: #e40000; stroke: #e40000"/>
     <use xlink:href="#m759bd532f5" x="25.851797" y="445.336364" style="fill: #e40000; stroke: #e40000"/>
    </g>
   </g>
   <g id="patch_3">
    <path d="M 7.2 476.2 
L 277.2 476.2 
" style="fill: none; stroke: #000000; stroke-width: 2; stroke-linejoin: miter; stroke-linecap: square"/>
   </g>
  </g>
 </g>
 <defs>
  <clipPath id="pa5012a95e1">
   <rect x="7.2" y="7.2" width="270" height="459"/>
  </clipPath>
 </defs>
</svg>
