<?xml version="1.0" encoding="utf-8" standalone="no"?>
<!DOCTYPE svg PUBLIC "-//W3C//DTD SVG 1.1//EN"
  "http://www.w3.org/Graphics/SVG/1.1/DTD/svg11.dtd">
<svg xmlns:xlink="http://www.w3.org/1999/xlink" width="293.057723pt" height="544.35625pt" viewBox="0 0 293.057723 544.35625" xmlns="http://www.w3.org/2000/svg" version="1.1">
 <metadata>
  <rdf:RDF xmlns:dc="http://purl.org/dc/elements/1.1/" xmlns:cc="http://creativecommons.org/ns#" xmlns:rdf="http://www.w3.org/1999/02/22-rdf-syntax-ns#">
   <cc:Work>
    <dc:type rdf:resource="http://purl.org/dc/dcmitype/StillImage"/>
    <dc:date>2024-07-31T17:30:42.223020</dc:date>
    <dc:format>image/svg+xml</dc:format>
    <dc:creator>
     <cc:Agent>
      <dc:title>Matplotlib v3.8.0, https://matplotlib.org/</dc:title>
     </cc:Agent>
    </dc:creator>
   </cc:Work>
  </rdf:RDF>
 </metadata>
 <defs>
  <style type="text/css">*{stroke-linejoin: round; stroke-linecap: butt}</style>
 </defs>
 <g id="figure_1">
  <g id="patch_1">
   <path d="M 0 544.35625 
L 293.057723 544.35625 
L 293.057723 0 
L 0 0 
z
" style="fill: #ffffff"/>
  </g>
  <g id="axes_1">
   <g id="patch_2">
    <path d="M 9.04295 466.2 
L 279.04295 466.2 
L 279.04295 7.2 
L 9.04295 7.2 
z
" style="fill: #ffffff"/>
   </g>
   <g id="PolyCollection_1">
    <defs>
     <path id="m4e2704e29b" d="M 202.176242 -516.292614 
L 214.895648 -516.292614 
L 229.766261 -507.414471 
L 242.554339 -498.536327 
L 253.469647 -489.658184 
L 260.731375 -480.780041 
L 264.381028 -471.901898 
L 264.772747 -463.023755 
L 262.408606 -454.145612 
L 257.721343 -445.267469 
L 251.074937 -436.389325 
L 243.136655 -427.511182 
L 234.250924 -418.633039 
L 224.728286 -409.754896 
L 214.580521 -400.876753 
L 203.946607 -391.99861 
L 192.907251 -383.120467 
L 181.703639 -374.242324 
L 170.309684 -365.36418 
L 158.897849 -356.486037 
L 147.578675 -347.607894 
L 136.434553 -338.729751 
L 125.576233 -329.851608 
L 115.099827 -320.973465 
L 105.103069 -312.095322 
L 95.698989 -303.217178 
L 86.956158 -294.339035 
L 79.046947 -285.460892 
L 72.19356 -276.582749 
L 66.521833 -267.704606 
L 62.390808 -258.826463 
L 59.82261 -249.94832 
L 58.661849 -241.070176 
L 58.516455 -232.192033 
L 59.542861 -223.31389 
L 60.926021 -214.435747 
L 62.858719 -205.557604 
L 64.990078 -196.679461 
L 67.277332 -187.801318 
L 69.204489 -178.923175 
L 70.67124 -170.045031 
L 71.115284 -161.166888 
L 70.628379 -152.288745 
L 68.725156 -143.410602 
L 65.211608 -134.532459 
L 59.548744 -125.654316 
L 51.406684 -116.776173 
L 41.192905 -107.898029 
L 34.053497 -99.019886 
L 22.477824 -99.019886 
L 22.477824 -99.019886 
L 30.107713 -107.898029 
L 31.35317 -116.776173 
L 31.284386 -125.654316 
L 30.812001 -134.532459 
L 30.09636 -143.410602 
L 29.251069 -152.288745 
L 28.707723 -161.166888 
L 28.281707 -170.045031 
L 28.209138 -178.923175 
L 28.3823 -187.801318 
L 29.123152 -196.679461 
L 30.540074 -205.557604 
L 32.336594 -214.435747 
L 34.668486 -223.31389 
L 37.753307 -232.192033 
L 41.187658 -241.070176 
L 45.047845 -249.94832 
L 49.160613 -258.826463 
L 53.585897 -267.704606 
L 58.423808 -276.582749 
L 63.697036 -285.460892 
L 69.826349 -294.339035 
L 76.955384 -303.217178 
L 84.960571 -312.095322 
L 93.883404 -320.973465 
L 103.83029 -329.851608 
L 114.54158 -338.729751 
L 126.124963 -347.607894 
L 138.354332 -356.486037 
L 151.07567 -365.36418 
L 164.136465 -374.242324 
L 177.332045 -383.120467 
L 190.334807 -391.99861 
L 203.051887 -400.876753 
L 215.075305 -409.754896 
L 225.987947 -418.633039 
L 235.522681 -427.511182 
L 243.181238 -436.389325 
L 249.101199 -445.267469 
L 253.133188 -454.145612 
L 255.135174 -463.023755 
L 254.948915 -471.901898 
L 252.430209 -480.780041 
L 247.093891 -489.658184 
L 238.196411 -498.536327 
L 223.522595 -507.414471 
L 202.176242 -516.292614 
z
" style="stroke: #fecc5c; stroke-opacity: 0.5"/>
    </defs>
    <g clip-path="url(#p7fe91e55f9)">
     <use xlink:href="#m4e2704e29b" x="0" y="544.35625" style="fill: #fecc5c; fill-opacity: 0.5; stroke: #fecc5c; stroke-opacity: 0.5"/>
    </g>
   </g>
   <g id="matplotlib.axis_1">
    <g id="xtick_1">
     <g id="line2d_1">
      <defs>
       <path id="mf9fc7d584f" d="M 0 0 
L 0 3.5 
" style="stroke: #000000; stroke-width: 1.5"/>
      </defs>
      <g>
       <use xlink:href="#mf9fc7d584f" x="26.2875" y="476.2" style="stroke: #000000; stroke-width: 1.5"/>
      </g>
     </g>
     <g id="text_1">
      <!-- 100 -->
      <g transform="translate(7.2 498.396875) scale(0.2 -0.2)">
       <defs>
        <path id="DejaVuSans-31" d="M 794 531 
L 1825 531 
L 1825 4091 
L 703 3866 
L 703 4441 
L 1819 4666 
L 2450 4666 
L 2450 531 
L 3481 531 
L 3481 0 
L 794 0 
L 794 531 
z
" transform="scale(0.015625)"/>
        <path id="DejaVuSans-30" d="M 2034 4250 
Q 1547 4250 1301 3770 
Q 1056 3291 1056 2328 
Q 1056 1369 1301 889 
Q 1547 409 2034 409 
Q 2525 409 2770 889 
Q 3016 1369 3016 2328 
Q 3016 3291 2770 3770 
Q 2525 4250 2034 4250 
z
M 2034 4750 
Q 2819 4750 3233 4129 
Q 3647 3509 3647 2328 
Q 3647 1150 3233 529 
Q 2819 -91 2034 -91 
Q 1250 -91 836 529 
Q 422 1150 422 2328 
Q 422 3509 836 4129 
Q 1250 4750 2034 4750 
z
" transform="scale(0.015625)"/>
       </defs>
       <use xlink:href="#DejaVuSans-31"/>
       <use xlink:href="#DejaVuSans-30" x="63.623047"/>
       <use xlink:href="#DejaVuSans-30" x="127.246094"/>
      </g>
     </g>
    </g>
    <g id="xtick_2">
     <g id="line2d_2">
      <g>
       <use xlink:href="#mf9fc7d584f" x="106.448408" y="476.2" style="stroke: #000000; stroke-width: 1.5"/>
      </g>
     </g>
     <g id="text_2">
      <!-- 200 -->
      <g transform="translate(87.360908 498.396875) scale(0.2 -0.2)">
       <defs>
        <path id="DejaVuSans-32" d="M 1228 531 
L 3431 531 
L 3431 0 
L 469 0 
L 469 531 
Q 828 903 1448 1529 
Q 2069 2156 2228 2338 
Q 2531 2678 2651 2914 
Q 2772 3150 2772 3378 
Q 2772 3750 2511 3984 
Q 2250 4219 1831 4219 
Q 1534 4219 1204 4116 
Q 875 4013 500 3803 
L 500 4441 
Q 881 4594 1212 4672 
Q 1544 4750 1819 4750 
Q 2544 4750 2975 4387 
Q 3406 4025 3406 3419 
Q 3406 3131 3298 2873 
Q 3191 2616 2906 2266 
Q 2828 2175 2409 1742 
Q 1991 1309 1228 531 
z
" transform="scale(0.015625)"/>
       </defs>
       <use xlink:href="#DejaVuSans-32"/>
       <use xlink:href="#DejaVuSans-30" x="63.623047"/>
       <use xlink:href="#DejaVuSans-30" x="127.246094"/>
      </g>
     </g>
    </g>
    <g id="xtick_3">
     <g id="line2d_3">
      <g>
       <use xlink:href="#mf9fc7d584f" x="186.609315" y="476.2" style="stroke: #000000; stroke-width: 1.5"/>
      </g>
     </g>
     <g id="text_3">
      <!-- 300 -->
      <g transform="translate(167.521815 498.396875) scale(0.2 -0.2)">
       <defs>
        <path id="DejaVuSans-33" d="M 2597 2516 
Q 3050 2419 3304 2112 
Q 3559 1806 3559 1356 
Q 3559 666 3084 287 
Q 2609 -91 1734 -91 
Q 1441 -91 1130 -33 
Q 819 25 488 141 
L 488 750 
Q 750 597 1062 519 
Q 1375 441 1716 441 
Q 2309 441 2620 675 
Q 2931 909 2931 1356 
Q 2931 1769 2642 2001 
Q 2353 2234 1838 2234 
L 1294 2234 
L 1294 2753 
L 1863 2753 
Q 2328 2753 2575 2939 
Q 2822 3125 2822 3475 
Q 2822 3834 2567 4026 
Q 2313 4219 1838 4219 
Q 1578 4219 1281 4162 
Q 984 4106 628 3988 
L 628 4550 
Q 988 4650 1302 4700 
Q 1616 4750 1894 4750 
Q 2613 4750 3031 4423 
Q 3450 4097 3450 3541 
Q 3450 3153 3228 2886 
Q 3006 2619 2597 2516 
z
" transform="scale(0.015625)"/>
       </defs>
       <use xlink:href="#DejaVuSans-33"/>
       <use xlink:href="#DejaVuSans-30" x="63.623047"/>
       <use xlink:href="#DejaVuSans-30" x="127.246094"/>
      </g>
     </g>
    </g>
    <g id="xtick_4">
     <g id="line2d_4">
      <g>
       <use xlink:href="#mf9fc7d584f" x="266.770223" y="476.2" style="stroke: #000000; stroke-width: 1.5"/>
      </g>
     </g>
     <g id="text_4">
      <!-- 400 -->
      <g transform="translate(247.682723 498.396875) scale(0.2 -0.2)">
       <defs>
        <path id="DejaVuSans-34" d="M 2419 4116 
L 825 1625 
L 2419 1625 
L 2419 4116 
z
M 2253 4666 
L 3047 4666 
L 3047 1625 
L 3713 1625 
L 3713 1100 
L 3047 1100 
L 3047 0 
L 2419 0 
L 2419 1100 
L 313 1100 
L 313 1709 
L 2253 4666 
z
" transform="scale(0.015625)"/>
       </defs>
       <use xlink:href="#DejaVuSans-34"/>
       <use xlink:href="#DejaVuSans-30" x="63.623047"/>
       <use xlink:href="#DejaVuSans-30" x="127.246094"/>
      </g>
     </g>
    </g>
    <g id="text_5">
     <!-- Resistivity  [$\Omega m$] -->
     <g transform="translate(49.74295 532.75625) scale(0.2 -0.2)">
      <defs>
       <path id="DejaVuSans-Bold-52" d="M 2297 2597 
Q 2675 2597 2839 2737 
Q 3003 2878 3003 3200 
Q 3003 3519 2839 3656 
Q 2675 3794 2297 3794 
L 1791 3794 
L 1791 2597 
L 2297 2597 
z
M 1791 1766 
L 1791 0 
L 588 0 
L 588 4666 
L 2425 4666 
Q 3347 4666 3776 4356 
Q 4206 4047 4206 3378 
Q 4206 2916 3982 2619 
Q 3759 2322 3309 2181 
Q 3556 2125 3751 1926 
Q 3947 1728 4147 1325 
L 4800 0 
L 3519 0 
L 2950 1159 
Q 2778 1509 2601 1637 
Q 2425 1766 2131 1766 
L 1791 1766 
z
" transform="scale(0.015625)"/>
       <path id="DejaVuSans-Bold-65" d="M 4031 1759 
L 4031 1441 
L 1416 1441 
Q 1456 1047 1700 850 
Q 1944 653 2381 653 
Q 2734 653 3104 758 
Q 3475 863 3866 1075 
L 3866 213 
Q 3469 63 3072 -14 
Q 2675 -91 2278 -91 
Q 1328 -91 801 392 
Q 275 875 275 1747 
Q 275 2603 792 3093 
Q 1309 3584 2216 3584 
Q 3041 3584 3536 3087 
Q 4031 2591 4031 1759 
z
M 2881 2131 
Q 2881 2450 2695 2645 
Q 2509 2841 2209 2841 
Q 1884 2841 1681 2658 
Q 1478 2475 1428 2131 
L 2881 2131 
z
" transform="scale(0.015625)"/>
       <path id="DejaVuSans-Bold-73" d="M 3272 3391 
L 3272 2541 
Q 2913 2691 2578 2766 
Q 2244 2841 1947 2841 
Q 1628 2841 1473 2761 
Q 1319 2681 1319 2516 
Q 1319 2381 1436 2309 
Q 1553 2238 1856 2203 
L 2053 2175 
Q 2913 2066 3209 1816 
Q 3506 1566 3506 1031 
Q 3506 472 3093 190 
Q 2681 -91 1863 -91 
Q 1516 -91 1145 -36 
Q 775 19 384 128 
L 384 978 
Q 719 816 1070 734 
Q 1422 653 1784 653 
Q 2113 653 2278 743 
Q 2444 834 2444 1013 
Q 2444 1163 2330 1236 
Q 2216 1309 1875 1350 
L 1678 1375 
Q 931 1469 631 1722 
Q 331 1975 331 2491 
Q 331 3047 712 3315 
Q 1094 3584 1881 3584 
Q 2191 3584 2531 3537 
Q 2872 3491 3272 3391 
z
" transform="scale(0.015625)"/>
       <path id="DejaVuSans-Bold-69" d="M 538 3500 
L 1656 3500 
L 1656 0 
L 538 0 
L 538 3500 
z
M 538 4863 
L 1656 4863 
L 1656 3950 
L 538 3950 
L 538 4863 
z
" transform="scale(0.015625)"/>
       <path id="DejaVuSans-Bold-74" d="M 1759 4494 
L 1759 3500 
L 2913 3500 
L 2913 2700 
L 1759 2700 
L 1759 1216 
Q 1759 972 1856 886 
Q 1953 800 2241 800 
L 2816 800 
L 2816 0 
L 1856 0 
Q 1194 0 917 276 
Q 641 553 641 1216 
L 641 2700 
L 84 2700 
L 84 3500 
L 641 3500 
L 641 4494 
L 1759 4494 
z
" transform="scale(0.015625)"/>
       <path id="DejaVuSans-Bold-76" d="M 97 3500 
L 1216 3500 
L 2088 1081 
L 2956 3500 
L 4078 3500 
L 2700 0 
L 1472 0 
L 97 3500 
z
" transform="scale(0.015625)"/>
       <path id="DejaVuSans-Bold-79" d="M 78 3500 
L 1197 3500 
L 2138 1125 
L 2938 3500 
L 4056 3500 
L 2584 -331 
Q 2363 -916 2067 -1148 
Q 1772 -1381 1288 -1381 
L 641 -1381 
L 641 -647 
L 991 -647 
Q 1275 -647 1404 -556 
Q 1534 -466 1606 -231 
L 1638 -134 
L 78 3500 
z
" transform="scale(0.015625)"/>
       <path id="DejaVuSans-Bold-20" transform="scale(0.015625)"/>
       <path id="DejaVuSans-Bold-5b" d="M 550 4863 
L 2491 4863 
L 2491 4159 
L 1613 4159 
L 1613 -141 
L 2491 -141 
L 2491 -844 
L 550 -844 
L 550 4863 
z
" transform="scale(0.015625)"/>
       <path id="DejaVuSans-Bold-3a9" d="M 2719 4750 
Q 3841 4750 4480 4106 
Q 5119 3463 5119 2494 
Q 5119 1406 4306 909 
L 5266 909 
L 5266 0 
L 3125 0 
L 3125 975 
Q 3244 1041 3334 1131 
Q 3875 1678 3875 2466 
Q 3875 3066 3572 3472 
Q 3269 3878 2719 3878 
Q 2169 3878 1866 3472 
Q 1563 3066 1563 2466 
Q 1563 1678 2103 1131 
Q 2194 1041 2313 975 
L 2313 0 
L 172 0 
L 172 909 
L 1131 909 
Q 319 1406 319 2494 
Q 319 3463 958 4106 
Q 1597 4750 2719 4750 
z
" transform="scale(0.015625)"/>
       <path id="DejaVuSans-Bold-6d" d="M 3781 2919 
Q 3994 3244 4286 3414 
Q 4578 3584 4928 3584 
Q 5531 3584 5847 3212 
Q 6163 2841 6163 2131 
L 6163 0 
L 5038 0 
L 5038 1825 
Q 5041 1866 5042 1909 
Q 5044 1953 5044 2034 
Q 5044 2406 4934 2573 
Q 4825 2741 4581 2741 
Q 4263 2741 4089 2478 
Q 3916 2216 3909 1719 
L 3909 0 
L 2784 0 
L 2784 1825 
Q 2784 2406 2684 2573 
Q 2584 2741 2328 2741 
Q 2006 2741 1831 2477 
Q 1656 2213 1656 1722 
L 1656 0 
L 531 0 
L 531 3500 
L 1656 3500 
L 1656 2988 
Q 1863 3284 2130 3434 
Q 2397 3584 2719 3584 
Q 3081 3584 3359 3409 
Q 3638 3234 3781 2919 
z
" transform="scale(0.015625)"/>
       <path id="DejaVuSans-Bold-5d" d="M 2375 -844 
L 434 -844 
L 434 -141 
L 1313 -141 
L 1313 4159 
L 434 4159 
L 434 4863 
L 2375 4863 
L 2375 -844 
z
" transform="scale(0.015625)"/>
      </defs>
      <use xlink:href="#DejaVuSans-Bold-52" transform="translate(0 0.015625)"/>
      <use xlink:href="#DejaVuSans-Bold-65" transform="translate(77.001953 0.015625)"/>
      <use xlink:href="#DejaVuSans-Bold-73" transform="translate(144.824219 0.015625)"/>
      <use xlink:href="#DejaVuSans-Bold-69" transform="translate(204.345703 0.015625)"/>
      <use xlink:href="#DejaVuSans-Bold-73" transform="translate(238.623047 0.015625)"/>
      <use xlink:href="#DejaVuSans-Bold-74" transform="translate(298.144531 0.015625)"/>
      <use xlink:href="#DejaVuSans-Bold-69" transform="translate(345.947266 0.015625)"/>
      <use xlink:href="#DejaVuSans-Bold-76" transform="translate(380.224609 0.015625)"/>
      <use xlink:href="#DejaVuSans-Bold-69" transform="translate(445.410156 0.015625)"/>
      <use xlink:href="#DejaVuSans-Bold-74" transform="translate(479.6875 0.015625)"/>
      <use xlink:href="#DejaVuSans-Bold-79" transform="translate(527.490234 0.015625)"/>
      <use xlink:href="#DejaVuSans-Bold-20" transform="translate(592.675781 0.015625)"/>
      <use xlink:href="#DejaVuSans-Bold-20" transform="translate(627.490234 0.015625)"/>
      <use xlink:href="#DejaVuSans-Bold-5b" transform="translate(662.304688 0.015625)"/>
      <use xlink:href="#DejaVuSans-Bold-3a9" transform="translate(708.007812 0.015625)"/>
      <use xlink:href="#DejaVuSans-Bold-6d" transform="translate(793.017578 0.015625)"/>
      <use xlink:href="#DejaVuSans-Bold-5d" transform="translate(897.216797 0.015625)"/>
     </g>
    </g>
   </g>
   <g id="line2d_5">
    <path d="M 214.36182 28.063636 
L 230.251683 36.941779 
L 242.160221 45.819923 
L 250.457906 54.698066 
L 255.500417 63.576209 
L 257.628632 72.454352 
L 257.168635 81.332495 
L 254.431712 90.210638 
L 249.714353 99.088781 
L 243.298252 107.966925 
L 235.450305 116.845068 
L 226.422611 125.723211 
L 216.452474 134.601354 
L 205.7624 143.479497 
L 194.560098 152.35764 
L 183.038483 161.235783 
L 171.375671 170.113926 
L 159.73498 178.99207 
L 148.264934 187.870213 
L 137.09926 196.748356 
L 126.356887 205.626499 
L 116.141948 214.504642 
L 106.543779 223.382785 
L 97.63692 232.260928 
L 89.481114 241.139072 
L 82.121307 250.017215 
L 75.587649 258.895358 
L 69.895492 267.773501 
L 65.045393 276.651644 
L 61.023111 285.529787 
L 57.799609 294.40793 
L 55.331053 303.286074 
L 53.558813 312.164217 
L 52.409461 321.04236 
L 51.794773 329.920503 
L 51.611729 338.798646 
L 51.742512 347.676789 
L 52.054508 356.554932 
L 52.400305 365.433075 
L 52.617697 374.311219 
L 52.52968 383.189362 
L 51.944452 392.067505 
L 50.655417 400.945648 
L 48.441181 409.823791 
L 45.065552 418.701934 
L 40.277543 427.580077 
L 33.811371 436.458221 
L 25.386454 445.336364 
" clip-path="url(#p7fe91e55f9)" style="fill: none; stroke: #fecc5c; stroke-opacity: 0.3; stroke-width: 2; stroke-linecap: square"/>
   </g>
   <g id="line2d_6">
    <path d="M 202.271784 28.063636 
L 224.320107 36.941779 
L 241.067919 45.819923 
L 253.026227 54.698066 
L 260.684902 63.576209 
L 264.512674 72.454352 
L 264.957137 81.332495 
L 262.444744 90.210638 
L 257.380812 99.088781 
L 250.149517 107.966925 
L 241.113897 116.845068 
L 230.615855 125.723211 
L 218.97615 134.601354 
L 206.494406 143.479497 
L 193.449109 152.35764 
L 180.097603 161.235783 
L 166.676098 170.113926 
L 153.399662 178.99207 
L 140.462226 187.870213 
L 128.036583 196.748356 
L 116.274386 205.626499 
L 105.30615 214.504642 
L 95.241253 223.382785 
L 86.167933 232.260928 
L 78.153289 241.139072 
L 71.243284 250.017215 
L 65.462739 258.895358 
L 60.81534 267.773501 
L 57.283632 276.651644 
L 54.829022 285.529787 
L 53.39178 294.40793 
L 52.891036 303.286074 
L 53.224783 312.164217 
L 54.269872 321.04236 
L 55.882021 329.920503 
L 57.895804 338.798646 
L 60.12466 347.676789 
L 62.360888 356.554932 
L 64.37565 365.433075 
L 65.918968 374.311219 
L 66.719726 383.189362 
L 66.48567 392.067505 
L 64.903407 400.945648 
L 61.638405 409.823791 
L 56.334994 418.701934 
L 48.616366 427.580077 
L 38.084574 436.458221 
L 24.320534 445.336364 
" clip-path="url(#p7fe91e55f9)" style="fill: none; stroke: #fecc5c; stroke-opacity: 0.3; stroke-width: 2; stroke-linecap: square"/>
   </g>
   <g id="line2d_7">
    <path d="M 211.404353 28.063636 
L 227.547656 36.941779 
L 240.070241 45.819923 
L 249.267362 54.698066 
L 255.424136 63.576209 
L 258.815536 72.454352 
L 259.706393 81.332495 
L 258.351396 90.210638 
L 254.995094 99.088781 
L 249.871891 107.966925 
L 243.206052 116.845068 
L 235.211698 125.723211 
L 226.09281 134.601354 
L 216.043226 143.479497 
L 205.246641 152.35764 
L 193.876612 161.235783 
L 182.096549 170.113926 
L 170.059724 178.99207 
L 157.909266 187.870213 
L 145.778162 196.748356 
L 133.789255 205.626499 
L 122.055251 214.504642 
L 110.67871 223.382785 
L 99.752051 232.260928 
L 89.357552 241.139072 
L 79.567348 250.017215 
L 70.443435 258.895358 
L 62.037662 267.773501 
L 54.391741 276.651644 
L 47.537239 285.529787 
L 41.495583 294.40793 
L 36.278057 303.286074 
L 31.885804 312.164217 
L 28.309825 321.04236 
L 25.530977 329.920503 
L 23.519978 338.798646 
L 22.237404 347.676789 
L 21.633686 356.554932 
L 21.649117 365.433075 
L 22.213846 374.311219 
L 23.24788 383.189362 
L 24.661084 392.067505 
L 26.353184 400.945648 
L 28.213759 409.823791 
L 30.122252 418.701934 
L 31.947959 427.580077 
L 33.550036 436.458221 
L 34.777499 445.336364 
" clip-path="url(#p7fe91e55f9)" style="fill: none; stroke: #fecc5c; stroke-opacity: 0.3; stroke-width: 2; stroke-linecap: square"/>
   </g>
   <g id="line2d_8">
    <path d="M 204.737086 28.063636 
L 226.187336 36.941779 
L 242.2597 45.819923 
L 253.489439 54.698066 
L 260.389069 63.576209 
L 263.448356 72.454352 
L 263.134321 81.332495 
L 259.891236 90.210638 
L 254.140626 99.088781 
L 246.281267 107.966925 
L 236.689189 116.845068 
L 225.717674 125.723211 
L 213.697257 134.601354 
L 200.935724 143.479497 
L 187.718114 152.35764 
L 174.30672 161.235783 
L 160.941086 170.113926 
L 147.838008 178.99207 
L 135.191535 187.870213 
L 123.17297 196.748356 
L 111.930865 205.626499 
L 101.591027 214.504642 
L 92.256516 223.382785 
L 84.007642 232.260928 
L 76.901969 241.139072 
L 70.974313 250.017215 
L 66.236744 258.895358 
L 62.678582 267.773501 
L 60.2664 276.651644 
L 58.944025 285.529787 
L 58.632535 294.40793 
L 59.230261 303.286074 
L 60.612786 312.164217 
L 62.632945 321.04236 
L 65.120828 329.920503 
L 67.883775 338.798646 
L 70.706378 347.676789 
L 73.350484 356.554932 
L 75.55519 365.433075 
L 77.036847 374.311219 
L 77.489057 383.189362 
L 76.582676 392.067505 
L 73.965811 400.945648 
L 69.263823 409.823791 
L 62.079324 418.701934 
L 51.99218 427.580077 
L 38.559508 436.458221 
L 21.315677 445.336364 
" clip-path="url(#p7fe91e55f9)" style="fill: none; stroke: #fecc5c; stroke-opacity: 0.3; stroke-width: 2; stroke-linecap: square"/>
   </g>
   <g id="line2d_9">
    <path d="M 210.120657 28.063636 
L 227.726754 36.941779 
L 241.104125 45.819923 
L 250.639913 54.698066 
L 256.706032 63.576209 
L 259.659165 72.454352 
L 259.840765 81.332495 
L 257.577056 90.210638 
L 253.179033 99.088781 
L 246.942458 107.966925 
L 239.147867 116.845068 
L 230.060563 125.723211 
L 219.93062 134.601354 
L 208.992883 143.479497 
L 197.466968 152.35764 
L 185.557257 161.235783 
L 173.452908 170.113926 
L 161.327844 178.99207 
L 149.340761 187.870213 
L 137.635124 196.748356 
L 126.339168 205.626499 
L 115.565901 214.504642 
L 105.413096 223.382785 
L 95.9633 232.260928 
L 87.28383 241.139072 
L 79.426771 250.017215 
L 72.428979 258.895358 
L 66.312082 267.773501 
L 61.082476 276.651644 
L 56.731328 285.529787 
L 53.234574 294.40793 
L 50.552922 303.286074 
L 48.631849 312.164217 
L 47.401602 321.04236 
L 46.777199 329.920503 
L 46.658428 338.798646 
L 46.929846 347.676789 
L 47.460781 356.554932 
L 48.105331 365.433075 
L 48.702364 374.311219 
L 49.07552 383.189362 
L 49.033205 392.067505 
L 48.3686 400.945648 
L 46.859652 409.823791 
L 44.269081 418.701934 
L 40.344376 427.580077 
L 34.817795 436.458221 
L 27.406369 445.336364 
" clip-path="url(#p7fe91e55f9)" style="fill: none; stroke: #fecc5c; stroke-opacity: 0.3; stroke-width: 2; stroke-linecap: square"/>
   </g>
   <g id="line2d_10">
    <path d="M 213.860312 28.063636 
L 227.770519 36.941779 
L 238.518747 45.819923 
L 246.359116 54.698066 
L 251.53712 63.576209 
L 254.28962 72.454352 
L 254.844846 81.332495 
L 253.422401 90.210638 
L 250.233255 99.088781 
L 245.479748 107.966925 
L 239.35559 116.845068 
L 232.045861 125.723211 
L 223.72701 134.601354 
L 214.566857 143.479497 
L 204.724589 152.35764 
L 194.350766 161.235783 
L 183.587315 170.113926 
L 172.567534 178.99207 
L 161.416091 187.870213 
L 150.249022 196.748356 
L 139.173735 205.626499 
L 128.289005 214.504642 
L 117.68498 223.382785 
L 107.443174 232.260928 
L 97.636473 241.139072 
L 88.329132 250.017215 
L 79.576777 258.895358 
L 71.426401 267.773501 
L 63.916369 276.651644 
L 57.076414 285.529787 
L 50.92764 294.40793 
L 45.48252 303.286074 
L 40.744897 312.164217 
L 36.709984 321.04236 
L 33.364362 329.920503 
L 30.685984 338.798646 
L 28.644171 347.676789 
L 27.199614 356.554932 
L 26.304374 365.433075 
L 25.901882 374.311219 
L 25.926938 383.189362 
L 26.305712 392.067505 
L 26.955743 400.945648 
L 27.785941 409.823791 
L 28.696585 418.701934 
L 29.579322 427.580077 
L 30.317173 436.458221 
L 30.784523 445.336364 
" clip-path="url(#p7fe91e55f9)" style="fill: none; stroke: #fecc5c; stroke-opacity: 0.3; stroke-width: 2; stroke-linecap: square"/>
   </g>
   <g id="line2d_11">
    <path d="M 204.132487 28.063636 
L 226.369386 36.941779 
L 243.163799 45.819923 
L 255.049358 54.698066 
L 262.537322 63.576209 
L 266.11658 72.454352 
L 266.253645 81.332495 
L 263.392661 90.210638 
L 257.955399 99.088781 
L 250.341258 107.966925 
L 240.927263 116.845068 
L 230.06807 125.723211 
L 218.095961 134.601354 
L 205.320844 143.479497 
L 192.030259 152.35764 
L 178.489371 161.235783 
L 164.940973 170.113926 
L 151.605486 178.99207 
L 138.68096 187.870213 
L 126.343072 196.748356 
L 114.745126 205.626499 
L 104.018054 214.504642 
L 94.270418 223.382785 
L 85.588406 232.260928 
L 78.035832 241.139072 
L 71.654143 250.017215 
L 66.462408 258.895358 
L 62.457328 267.773501 
L 59.613229 276.651644 
L 57.882068 285.529787 
L 57.193427 294.40793 
L 57.454517 303.286074 
L 58.550177 312.164217 
L 60.342872 321.04236 
L 62.672698 329.920503 
L 65.357377 338.798646 
L 68.192258 347.676789 
L 70.950319 356.554932 
L 73.382166 365.433075 
L 75.216033 374.311219 
L 76.15778 383.189362 
L 75.890897 392.067505 
L 74.0765 400.945648 
L 70.353334 409.823791 
L 64.337773 418.701934 
L 55.623816 427.580077 
L 43.783091 436.458221 
L 28.364855 445.336364 
" clip-path="url(#p7fe91e55f9)" style="fill: none; stroke: #fecc5c; stroke-opacity: 0.3; stroke-width: 2; stroke-linecap: square"/>
   </g>
   <g id="line2d_12">
    <path d="M 209.838469 28.063636 
L 227.822431 36.941779 
L 241.391771 45.819923 
L 250.961249 54.698066 
L 256.928931 63.576209 
L 259.676185 72.454352 
L 259.567682 81.332495 
L 256.951396 90.210638 
L 252.158605 99.088781 
L 245.503889 107.966925 
L 237.285132 116.845068 
L 227.783521 125.723211 
L 217.263544 134.601354 
L 205.972995 143.479497 
L 194.14297 152.35764 
L 181.987868 161.235783 
L 169.70539 170.113926 
L 157.476541 178.99207 
L 145.465631 187.870213 
L 133.82027 196.748356 
L 122.671371 205.626499 
L 112.133154 214.504642 
L 102.303138 223.382785 
L 93.262147 232.260928 
L 85.074307 241.139072 
L 77.787048 250.017215 
L 71.431104 258.895358 
L 66.020509 267.773501 
L 61.552602 276.651644 
L 58.008027 285.529787 
L 55.350727 294.40793 
L 53.527951 303.286074 
L 52.470251 312.164217 
L 52.09148 321.04236 
L 52.288796 329.920503 
L 52.94266 338.798646 
L 53.916835 347.676789 
L 55.058387 356.554932 
L 56.197687 365.433075 
L 57.148407 374.311219 
L 57.707523 383.189362 
L 57.655315 392.067505 
L 56.755363 400.945648 
L 54.754554 409.823791 
L 51.383075 418.701934 
L 46.354418 427.580077 
L 39.365377 436.458221 
L 30.096049 445.336364 
" clip-path="url(#p7fe91e55f9)" style="fill: none; stroke: #fecc5c; stroke-opacity: 0.3; stroke-width: 2; stroke-linecap: square"/>
   </g>
   <g id="line2d_13">
    <path d="M 213.991689 28.063636 
L 228.606116 36.941779 
L 239.731755 45.819923 
L 247.669694 54.698066 
L 252.709884 63.576209 
L 255.131141 72.454352 
L 255.201151 81.332495 
L 253.176462 90.210638 
L 249.30249 99.088781 
L 243.813516 107.966925 
L 236.932686 116.845068 
L 228.872013 125.723211 
L 219.832377 134.601354 
L 210.003522 143.479497 
L 199.564058 152.35764 
L 188.681461 161.235783 
L 177.512075 170.113926 
L 166.201106 178.99207 
L 154.882629 187.870213 
L 143.679583 196.748356 
L 132.703775 205.626499 
L 122.055876 214.504642 
L 111.825422 223.382785 
L 102.090819 232.260928 
L 92.919333 241.139072 
L 84.367102 250.017215 
L 76.479125 258.895358 
L 69.289269 267.773501 
L 62.820267 276.651644 
L 57.083717 285.529787 
L 52.080084 294.40793 
L 47.798698 303.286074 
L 44.217755 312.164217 
L 41.304317 321.04236 
L 39.014312 329.920503 
L 37.292533 338.798646 
L 36.07264 347.676789 
L 35.277159 356.554932 
L 34.817481 365.433075 
L 34.593862 374.311219 
L 34.495427 383.189362 
L 34.400163 392.067505 
L 34.174926 400.945648 
L 33.675437 409.823791 
L 32.746281 418.701934 
L 31.220912 427.580077 
L 28.921647 436.458221 
L 25.65967 445.336364 
" clip-path="url(#p7fe91e55f9)" style="fill: none; stroke: #fecc5c; stroke-opacity: 0.3; stroke-width: 2; stroke-linecap: square"/>
   </g>
   <g id="line2d_14">
    <path d="M 213.562424 28.063636 
L 229.70472 36.941779 
L 241.885896 45.819923 
L 250.468442 54.698066 
L 255.800585 63.576209 
L 258.216295 72.454352 
L 258.035278 81.332495 
L 255.56298 90.210638 
L 251.090586 99.088781 
L 244.895019 107.966925 
L 237.238942 116.845068 
L 228.370758 125.723211 
L 218.524606 134.601354 
L 207.920366 143.479497 
L 196.763656 152.35764 
L 185.245836 161.235783 
L 173.544 170.113926 
L 161.820984 178.99207 
L 150.225363 187.870213 
L 138.89145 196.748356 
L 127.939297 205.626499 
L 117.474696 214.504642 
L 107.589177 223.382785 
L 98.360009 232.260928 
L 89.8502 241.139072 
L 82.108499 250.017215 
L 75.169389 258.895358 
L 69.053098 267.773501 
L 63.765588 276.651644 
L 59.298563 285.529787 
L 55.629464 294.40793 
L 52.721473 303.286074 
L 50.52351 312.164217 
L 48.970233 321.04236 
L 47.98204 329.920503 
L 47.465068 338.798646 
L 47.311192 347.676789 
L 47.398028 356.554932 
L 47.588929 365.433075 
L 47.732987 374.311219 
L 47.665035 383.189362 
L 47.205642 392.067505 
L 46.161118 400.945648 
L 44.323512 409.823791 
L 41.470611 418.701934 
L 37.365941 427.580077 
L 31.758768 436.458221 
L 24.384096 445.336364 
" clip-path="url(#p7fe91e55f9)" style="fill: none; stroke: #fecc5c; stroke-opacity: 0.3; stroke-width: 2; stroke-linecap: square"/>
   </g>
   <g id="line2d_15">
    <path d="M 212.885337 28.063636 
L 227.428612 36.941779 
L 238.545795 45.819923 
L 246.528121 54.698066 
L 251.656246 63.576209 
L 254.200243 72.454352 
L 254.419603 81.332495 
L 252.563236 90.210638 
L 248.869469 99.088781 
L 243.566049 107.966925 
L 236.870139 116.845068 
L 228.988323 125.723211 
L 220.1166 134.601354 
L 210.44039 143.479497 
L 200.13453 152.35764 
L 189.363275 161.235783 
L 178.280299 170.113926 
L 167.028694 178.99207 
L 155.74097 187.870213 
L 144.539056 196.748356 
L 133.534297 205.626499 
L 122.827459 214.504642 
L 112.508726 223.382785 
L 102.657697 232.260928 
L 93.343393 241.139072 
L 84.624251 250.017215 
L 76.548128 258.895358 
L 69.152298 267.773501 
L 62.463453 276.651644 
L 56.497704 285.529787 
L 51.26058 294.40793 
L 46.747028 303.286074 
L 42.941414 312.164217 
L 39.81752 321.04236 
L 37.33855 329.920503 
L 35.457124 338.798646 
L 34.115278 347.676789 
L 33.244472 356.554932 
L 32.765578 365.433075 
L 32.58889 374.311219 
L 32.61412 383.189362 
L 32.730398 392.067505 
L 32.81627 400.945648 
L 32.739703 409.823791 
L 32.358081 418.701934 
L 31.518207 427.580077 
L 30.056301 436.458221 
L 27.798003 445.336364 
" clip-path="url(#p7fe91e55f9)" style="fill: none; stroke: #fecc5c; stroke-opacity: 0.3; stroke-width: 2; stroke-linecap: square"/>
   </g>
   <g id="line2d_16">
    <path d="M 202.057924 28.063636 
L 224.222225 36.941779 
L 241.045652 45.819923 
L 253.041554 54.698066 
L 260.70217 63.576209 
L 264.498622 72.454352 
L 264.88092 81.332495 
L 262.277962 90.210638 
L 257.097531 99.088781 
L 249.726297 107.966925 
L 240.529817 116.845068 
L 229.852534 125.723211 
L 218.017779 134.601354 
L 205.327769 143.479497 
L 192.063606 152.35764 
L 178.485283 161.235783 
L 164.831674 170.113926 
L 151.320544 178.99207 
L 138.148543 187.870213 
L 125.491207 196.748356 
L 113.502961 205.626499 
L 102.317115 214.504642 
L 92.045865 223.382785 
L 82.780296 232.260928 
L 74.590376 241.139072 
L 67.524964 250.017215 
L 61.611802 258.895358 
L 56.857522 267.773501 
L 53.247639 276.651644 
L 50.746558 285.529787 
L 49.297569 294.40793 
L 48.822848 303.286074 
L 49.22346 312.164217 
L 50.379354 321.04236 
L 52.149367 329.920503 
L 54.371223 338.798646 
L 56.861533 347.676789 
L 59.415793 356.554932 
L 61.808387 365.433075 
L 63.792584 374.311219 
L 65.100543 383.189362 
L 65.443306 392.067505 
L 64.510805 400.945648 
L 61.971855 409.823791 
L 57.47416 418.701934 
L 50.644312 427.580077 
L 41.087786 436.458221 
L 28.388946 445.336364 
" clip-path="url(#p7fe91e55f9)" style="fill: none; stroke: #fecc5c; stroke-opacity: 0.3; stroke-width: 2; stroke-linecap: square"/>
   </g>
   <g id="line2d_17">
    <path d="M 211.257117 28.063636 
L 228.607661 36.941779 
L 241.807238 45.819923 
L 251.230265 54.698066 
L 257.236685 63.576209 
L 260.171973 72.454352 
L 260.36713 81.332495 
L 258.138689 90.210638 
L 253.78871 99.088781 
L 247.604782 107.966925 
L 239.860026 116.845068 
L 230.813088 125.723211 
L 220.708145 134.601354 
L 209.774904 143.479497 
L 198.228599 152.35764 
L 186.269996 161.235783 
L 174.085385 170.113926 
L 161.846591 178.99207 
L 149.710965 187.870213 
L 137.821386 196.748356 
L 126.306264 205.626499 
L 115.279538 214.504642 
L 104.840675 223.382785 
L 95.074672 232.260928 
L 86.052054 241.139072 
L 77.828877 250.017215 
L 70.446724 258.895358 
L 63.932707 267.773501 
L 58.299469 276.651644 
L 53.545181 285.529787 
L 49.653542 294.40793 
L 46.593783 303.286074 
L 44.32066 312.164217 
L 42.774462 321.04236 
L 41.881004 329.920503 
L 41.551632 338.798646 
L 41.68322 347.676789 
L 42.158172 356.554932 
L 42.84442 365.433075 
L 43.595426 374.311219 
L 44.25018 383.189362 
L 44.633202 392.067505 
L 44.554541 400.945648 
L 43.809775 409.823791 
L 42.180011 418.701934 
L 39.431884 427.580077 
L 35.31756 436.458221 
L 29.574732 445.336364 
" clip-path="url(#p7fe91e55f9)" style="fill: none; stroke: #fecc5c; stroke-opacity: 0.3; stroke-width: 2; stroke-linecap: square"/>
   </g>
   <g id="line2d_18">
    <path d="M 208.7271 28.063636 
L 225.746816 36.941779 
L 238.865387 45.819923 
L 248.419565 54.698066 
L 254.733662 63.576209 
L 258.119539 72.454352 
L 258.876613 81.332495 
L 257.291854 90.210638 
L 253.639788 99.088781 
L 248.182493 107.966925 
L 241.169601 116.845068 
L 232.8383 125.723211 
L 223.413328 134.601354 
L 213.106982 143.479497 
L 202.119109 152.35764 
L 190.637111 161.235783 
L 178.835945 170.113926 
L 166.87812 178.99207 
L 154.913702 187.870213 
L 143.080307 196.748356 
L 131.503109 205.626499 
L 120.294833 214.504642 
L 109.555758 223.382785 
L 99.37372 232.260928 
L 89.824105 241.139072 
L 80.969856 250.017215 
L 72.861467 258.895358 
L 65.53699 267.773501 
L 59.022027 276.651644 
L 53.329736 285.529787 
L 48.460828 294.40793 
L 44.40357 303.286074 
L 41.133779 312.164217 
L 38.614831 321.04236 
L 36.797652 329.920503 
L 35.620723 338.798646 
L 35.010079 347.676789 
L 34.87931 356.554932 
L 35.129559 365.433075 
L 35.649523 374.311219 
L 36.315453 383.189362 
L 36.991153 392.067505 
L 37.527983 400.945648 
L 37.764856 409.823791 
L 37.528238 418.701934 
L 36.63215 427.580077 
L 34.878167 436.458221 
L 32.055417 445.336364 
" clip-path="url(#p7fe91e55f9)" style="fill: none; stroke: #fecc5c; stroke-opacity: 0.3; stroke-width: 2; stroke-linecap: square"/>
   </g>
   <g id="line2d_19">
    <path d="M 216.73516 28.063636 
L 230.527408 36.941779 
L 240.952732 45.819923 
L 248.306747 54.698066 
L 252.873908 63.576209 
L 254.927504 72.454352 
L 254.729661 81.332495 
L 252.53134 90.210638 
L 248.572339 99.088781 
L 243.081294 107.966925 
L 236.275674 116.845068 
L 228.361786 125.723211 
L 219.534774 134.601354 
L 209.978616 143.479497 
L 199.866129 152.35764 
L 189.358963 161.235783 
L 178.607606 170.113926 
L 167.751384 178.99207 
L 156.918456 187.870213 
L 146.225818 196.748356 
L 135.779304 205.626499 
L 125.673582 214.504642 
L 115.992159 223.382785 
L 106.807374 232.260928 
L 98.180407 241.139072 
L 90.16127 250.017215 
L 82.788814 258.895358 
L 76.090726 267.773501 
L 70.083527 276.651644 
L 64.772577 285.529787 
L 60.152071 294.40793 
L 56.20504 303.286074 
L 52.903351 312.164217 
L 50.207709 321.04236 
L 48.067652 329.920503 
L 46.421558 338.798646 
L 45.196638 347.676789 
L 44.308941 356.554932 
L 43.663352 365.433075 
L 43.153591 374.311219 
L 42.662217 383.189362 
L 42.060623 392.067505 
L 41.209037 400.945648 
L 39.956527 409.823791 
L 38.140994 418.701934 
L 35.589177 427.580077 
L 32.11665 436.458221 
L 27.527824 445.336364 
" clip-path="url(#p7fe91e55f9)" style="fill: none; stroke: #fecc5c; stroke-opacity: 0.3; stroke-width: 2; stroke-linecap: square"/>
   </g>
   <g id="line2d_20">
    <path d="M 213.253435 28.063636 
L 230.356396 36.941779 
L 243.36827 45.819923 
L 252.65448 54.698066 
L 258.566471 63.576209 
L 261.441716 72.454352 
L 261.603712 81.332495 
L 259.361979 90.210638 
L 255.012062 99.088781 
L 248.835532 107.966925 
L 241.099983 116.845068 
L 232.059036 125.723211 
L 221.952333 134.601354 
L 211.005545 143.479497 
L 199.430364 152.35764 
L 187.424509 161.235783 
L 175.171722 170.113926 
L 162.841771 178.99207 
L 150.590447 187.870213 
L 138.559568 196.748356 
L 126.876974 205.626499 
L 115.656531 214.504642 
L 104.998131 223.382785 
L 94.987688 232.260928 
L 85.697142 241.139072 
L 77.184458 250.017215 
L 69.493625 258.895358 
L 62.654657 267.773501 
L 56.683592 276.651644 
L 51.582493 285.529787 
L 47.339449 294.40793 
L 43.928571 303.286074 
L 41.309997 312.164217 
L 39.429888 321.04236 
L 38.22043 329.920503 
L 37.599836 338.798646 
L 37.472339 347.676789 
L 37.728201 356.554932 
L 38.243707 365.433075 
L 38.881165 374.311219 
L 39.488911 383.189362 
L 39.901304 392.067505 
L 39.938725 400.945648 
L 39.407585 409.823791 
L 38.100316 418.701934 
L 35.795374 427.580077 
L 32.257243 436.458221 
L 27.236428 445.336364 
" clip-path="url(#p7fe91e55f9)" style="fill: none; stroke: #fecc5c; stroke-opacity: 0.3; stroke-width: 2; stroke-linecap: square"/>
   </g>
   <g id="line2d_21">
    <path d="M 208.102775 28.063636 
L 226.048223 36.941779 
L 239.800129 45.819923 
L 249.734044 54.698066 
L 256.211071 63.576209 
L 259.577864 72.454352 
L 260.166626 81.332495 
L 258.295111 90.210638 
L 254.266625 99.088781 
L 248.370023 107.966925 
L 240.879712 116.845068 
L 232.055649 125.723211 
L 222.143341 134.601354 
L 211.373846 143.479497 
L 199.963773 152.35764 
L 188.115282 161.235783 
L 176.016082 170.113926 
L 163.839434 178.99207 
L 151.74415 187.870213 
L 139.87459 196.748356 
L 128.360668 205.626499 
L 117.317846 214.504642 
L 106.847139 223.382785 
L 97.03511 232.260928 
L 87.953874 241.139072 
L 79.661096 250.017215 
L 72.199994 258.895358 
L 65.599333 267.773501 
L 59.873431 276.651644 
L 55.022156 285.529787 
L 51.030926 294.40793 
L 47.870711 303.286074 
L 45.49803 312.164217 
L 43.854953 321.04236 
L 42.869102 329.920503 
L 42.453648 338.798646 
L 42.507313 347.676789 
L 42.914371 356.554932 
L 43.544644 365.433075 
L 44.253507 374.311219 
L 44.881884 383.189362 
L 45.25625 392.067505 
L 45.188632 400.945648 
L 44.476606 409.823791 
L 42.903299 418.701934 
L 40.237389 427.580077 
L 36.233103 436.458221 
L 30.630222 445.336364 
" clip-path="url(#p7fe91e55f9)" style="fill: none; stroke: #fecc5c; stroke-opacity: 0.3; stroke-width: 2; stroke-linecap: square"/>
   </g>
   <g id="line2d_22">
    <path d="M 215.211113 28.063636 
L 230.419983 36.941779 
L 241.891536 45.819923 
L 249.963251 54.698066 
L 254.959505 63.576209 
L 257.191576 72.454352 
L 256.957644 81.332495 
L 254.54279 90.210638 
L 250.218996 99.088781 
L 244.245144 107.966925 
L 236.867019 116.845068 
L 228.317307 125.723211 
L 218.815592 134.601354 
L 208.568363 143.479497 
L 197.769009 152.35764 
L 186.597818 161.235783 
L 175.221981 170.113926 
L 163.795591 178.99207 
L 152.459639 187.870213 
L 141.34202 196.748356 
L 130.557529 205.626499 
L 120.207863 214.504642 
L 110.381617 223.382785 
L 101.154291 232.260928 
L 92.588285 241.139072 
L 84.732897 250.017215 
L 77.624331 258.895358 
L 71.285689 267.773501 
L 65.726974 276.651644 
L 60.945091 285.529787 
L 56.923848 294.40793 
L 53.633949 303.286074 
L 51.033005 312.164217 
L 49.065523 321.04236 
L 47.662915 329.920503 
L 46.743491 338.798646 
L 46.212465 347.676789 
L 45.961949 356.554932 
L 45.87096 365.433075 
L 45.805412 374.311219 
L 45.618122 383.189362 
L 45.148809 392.067505 
L 44.224091 400.945648 
L 42.65749 409.823791 
L 40.249425 418.701934 
L 36.78722 427.580077 
L 32.045097 436.458221 
L 25.784182 445.336364 
" clip-path="url(#p7fe91e55f9)" style="fill: none; stroke: #fecc5c; stroke-opacity: 0.3; stroke-width: 2; stroke-linecap: square"/>
   </g>
   <g id="line2d_23">
    <path d="M 204.476187 28.063636 
L 225.061305 36.941779 
L 240.77514 45.819923 
L 252.07249 54.698066 
L 259.389888 63.576209 
L 263.1456 72.454352 
L 263.739621 81.332495 
L 261.55368 90.210638 
L 256.951238 99.088781 
L 250.277488 107.966925 
L 241.859357 116.845068 
L 232.0055 125.723211 
L 221.006309 134.601354 
L 209.133904 143.479497 
L 196.642141 152.35764 
L 183.766604 161.235783 
L 170.724613 170.113926 
L 157.715218 178.99207 
L 144.919202 187.870213 
L 132.499079 196.748356 
L 120.599097 205.626499 
L 109.345235 214.504642 
L 98.845205 223.382785 
L 89.18845 232.260928 
L 80.446146 241.139072 
L 72.6712 250.017215 
L 65.898253 258.895358 
L 60.143678 267.773501 
L 55.405579 276.651644 
L 51.663791 285.529787 
L 48.879885 294.40793 
L 46.997162 303.286074 
L 45.940653 312.164217 
L 45.617126 321.04236 
L 45.915076 329.920503 
L 46.704735 338.798646 
L 47.838063 347.676789 
L 49.148756 356.554932 
L 50.452238 365.433075 
L 51.545669 374.311219 
L 52.207939 383.189362 
L 52.19967 392.067505 
L 51.263219 400.945648 
L 49.122671 409.823791 
L 45.483846 418.701934 
L 40.034296 427.580077 
L 32.443304 436.458221 
L 22.361885 445.336364 
" clip-path="url(#p7fe91e55f9)" style="fill: none; stroke: #fecc5c; stroke-opacity: 0.3; stroke-width: 2; stroke-linecap: square"/>
   </g>
   <g id="line2d_24">
    <path d="M 202.633165 28.063636 
L 224.823834 36.941779 
L 241.497938 45.819923 
L 253.20737 54.698066 
L 260.480438 63.576209 
L 263.821862 72.454352 
L 263.712777 81.332495 
L 260.610731 90.210638 
L 254.949686 99.088781 
L 247.140018 107.966925 
L 237.568515 116.845068 
L 226.598381 125.723211 
L 214.569232 134.601354 
L 201.7971 143.479497 
L 188.574427 152.35764 
L 175.170073 161.235783 
L 161.829308 170.113926 
L 148.773818 178.99207 
L 136.201702 187.870213 
L 124.287472 196.748356 
L 113.182055 205.626499 
L 103.012792 214.504642 
L 93.883435 223.382785 
L 85.874153 232.260928 
L 79.041527 241.139072 
L 73.418551 250.017215 
L 69.014635 258.895358 
L 65.815601 267.773501 
L 63.783685 276.651644 
L 62.857536 285.529787 
L 62.952219 294.40793 
L 63.95921 303.286074 
L 65.746401 312.164217 
L 68.158097 321.04236 
L 71.015014 329.920503 
L 74.114287 338.798646 
L 77.22946 347.676789 
L 80.110493 356.554932 
L 82.483759 365.433075 
L 84.052046 374.311219 
L 84.494553 383.189362 
L 83.466895 392.067505 
L 80.601101 400.945648 
L 75.505612 409.823791 
L 67.765283 418.701934 
L 56.941385 427.580077 
L 42.571598 436.458221 
L 24.170022 445.336364 
" clip-path="url(#p7fe91e55f9)" style="fill: none; stroke: #fecc5c; stroke-opacity: 0.3; stroke-width: 2; stroke-linecap: square"/>
   </g>
   <g id="line2d_25"/>
   <g id="line2d_26">
    <path d="M 208.609261 28.063636 
L 226.668749 36.941779 
L 240.412816 45.819923 
L 250.237166 54.698066 
L 256.52191 63.576209 
L 259.631573 72.454352 
L 259.915086 81.332495 
L 257.705793 90.210638 
L 253.321447 99.088781 
L 247.064212 107.966925 
L 239.22066 116.845068 
L 230.061776 125.723211 
L 219.842953 134.601354 
L 208.803995 143.479497 
L 197.169115 152.35764 
L 185.146937 161.235783 
L 172.930496 170.113926 
L 160.697235 178.99207 
L 148.60901 187.870213 
L 136.812083 196.748356 
L 125.43713 205.626499 
L 114.599235 214.504642 
L 104.397894 223.382785 
L 94.917009 232.260928 
L 86.224897 241.139072 
L 78.374283 250.017215 
L 71.402301 258.895358 
L 65.330497 267.773501 
L 60.164826 276.651644 
L 55.895653 285.529787 
L 52.497754 294.40793 
L 49.930315 303.286074 
L 48.136931 312.164217 
L 47.045608 321.04236 
L 46.568762 329.920503 
L 46.603218 338.798646 
L 47.030214 347.676789 
L 47.715395 356.554932 
L 48.508818 365.433075 
L 49.244949 374.311219 
L 49.742665 383.189362 
L 49.805251 392.067505 
L 49.220406 400.945648 
L 47.760236 409.823791 
L 45.181257 418.701934 
L 41.224398 427.580077 
L 35.614995 436.458221 
L 28.062795 445.336364 
" clip-path="url(#p7fe91e55f9)" style="fill: none; stroke: #6b3914; stroke-width: 3; stroke-linecap: square"/>
    <defs>
     <path id="mf3b5e4ab16" d="M 5 0 
L -5 -0 
" style="stroke: #6b3914"/>
    </defs>
    <g clip-path="url(#p7fe91e55f9)">
     <use xlink:href="#mf3b5e4ab16" x="208.609261" y="28.063636" style="fill: #6b3914; stroke: #6b3914"/>
     <use xlink:href="#mf3b5e4ab16" x="226.668749" y="36.941779" style="fill: #6b3914; stroke: #6b3914"/>
     <use xlink:href="#mf3b5e4ab16" x="240.412816" y="45.819923" style="fill: #6b3914; stroke: #6b3914"/>
     <use xlink:href="#mf3b5e4ab16" x="250.237166" y="54.698066" style="fill: #6b3914; stroke: #6b3914"/>
     <use xlink:href="#mf3b5e4ab16" x="256.52191" y="63.576209" style="fill: #6b3914; stroke: #6b3914"/>
     <use xlink:href="#mf3b5e4ab16" x="259.631573" y="72.454352" style="fill: #6b3914; stroke: #6b3914"/>
     <use xlink:href="#mf3b5e4ab16" x="259.915086" y="81.332495" style="fill: #6b3914; stroke: #6b3914"/>
     <use xlink:href="#mf3b5e4ab16" x="257.705793" y="90.210638" style="fill: #6b3914; stroke: #6b3914"/>
     <use xlink:href="#mf3b5e4ab16" x="253.321447" y="99.088781" style="fill: #6b3914; stroke: #6b3914"/>
     <use xlink:href="#mf3b5e4ab16" x="247.064212" y="107.966925" style="fill: #6b3914; stroke: #6b3914"/>
     <use xlink:href="#mf3b5e4ab16" x="239.22066" y="116.845068" style="fill: #6b3914; stroke: #6b3914"/>
     <use xlink:href="#mf3b5e4ab16" x="230.061776" y="125.723211" style="fill: #6b3914; stroke: #6b3914"/>
     <use xlink:href="#mf3b5e4ab16" x="219.842953" y="134.601354" style="fill: #6b3914; stroke: #6b3914"/>
     <use xlink:href="#mf3b5e4ab16" x="208.803995" y="143.479497" style="fill: #6b3914; stroke: #6b3914"/>
     <use xlink:href="#mf3b5e4ab16" x="197.169115" y="152.35764" style="fill: #6b3914; stroke: #6b3914"/>
     <use xlink:href="#mf3b5e4ab16" x="185.146937" y="161.235783" style="fill: #6b3914; stroke: #6b3914"/>
     <use xlink:href="#mf3b5e4ab16" x="172.930496" y="170.113926" style="fill: #6b3914; stroke: #6b3914"/>
     <use xlink:href="#mf3b5e4ab16" x="160.697235" y="178.99207" style="fill: #6b3914; stroke: #6b3914"/>
     <use xlink:href="#mf3b5e4ab16" x="148.60901" y="187.870213" style="fill: #6b3914; stroke: #6b3914"/>
     <use xlink:href="#mf3b5e4ab16" x="136.812083" y="196.748356" style="fill: #6b3914; stroke: #6b3914"/>
     <use xlink:href="#mf3b5e4ab16" x="125.43713" y="205.626499" style="fill: #6b3914; stroke: #6b3914"/>
     <use xlink:href="#mf3b5e4ab16" x="114.599235" y="214.504642" style="fill: #6b3914; stroke: #6b3914"/>
     <use xlink:href="#mf3b5e4ab16" x="104.397894" y="223.382785" style="fill: #6b3914; stroke: #6b3914"/>
     <use xlink:href="#mf3b5e4ab16" x="94.917009" y="232.260928" style="fill: #6b3914; stroke: #6b3914"/>
     <use xlink:href="#mf3b5e4ab16" x="86.224897" y="241.139072" style="fill: #6b3914; stroke: #6b3914"/>
     <use xlink:href="#mf3b5e4ab16" x="78.374283" y="250.017215" style="fill: #6b3914; stroke: #6b3914"/>
     <use xlink:href="#mf3b5e4ab16" x="71.402301" y="258.895358" style="fill: #6b3914; stroke: #6b3914"/>
     <use xlink:href="#mf3b5e4ab16" x="65.330497" y="267.773501" style="fill: #6b3914; stroke: #6b3914"/>
     <use xlink:href="#mf3b5e4ab16" x="60.164826" y="276.651644" style="fill: #6b3914; stroke: #6b3914"/>
     <use xlink:href="#mf3b5e4ab16" x="55.895653" y="285.529787" style="fill: #6b3914; stroke: #6b3914"/>
     <use xlink:href="#mf3b5e4ab16" x="52.497754" y="294.40793" style="fill: #6b3914; stroke: #6b3914"/>
     <use xlink:href="#mf3b5e4ab16" x="49.930315" y="303.286074" style="fill: #6b3914; stroke: #6b3914"/>
     <use xlink:href="#mf3b5e4ab16" x="48.136931" y="312.164217" style="fill: #6b3914; stroke: #6b3914"/>
     <use xlink:href="#mf3b5e4ab16" x="47.045608" y="321.04236" style="fill: #6b3914; stroke: #6b3914"/>
     <use xlink:href="#mf3b5e4ab16" x="46.568762" y="329.920503" style="fill: #6b3914; stroke: #6b3914"/>
     <use xlink:href="#mf3b5e4ab16" x="46.603218" y="338.798646" style="fill: #6b3914; stroke: #6b3914"/>
     <use xlink:href="#mf3b5e4ab16" x="47.030214" y="347.676789" style="fill: #6b3914; stroke: #6b3914"/>
     <use xlink:href="#mf3b5e4ab16" x="47.715395" y="356.554932" style="fill: #6b3914; stroke: #6b3914"/>
     <use xlink:href="#mf3b5e4ab16" x="48.508818" y="365.433075" style="fill: #6b3914; stroke: #6b3914"/>
     <use xlink:href="#mf3b5e4ab16" x="49.244949" y="374.311219" style="fill: #6b3914; stroke: #6b3914"/>
     <use xlink:href="#mf3b5e4ab16" x="49.742665" y="383.189362" style="fill: #6b3914; stroke: #6b3914"/>
     <use xlink:href="#mf3b5e4ab16" x="49.805251" y="392.067505" style="fill: #6b3914; stroke: #6b3914"/>
     <use xlink:href="#mf3b5e4ab16" x="49.220406" y="400.945648" style="fill: #6b3914; stroke: #6b3914"/>
     <use xlink:href="#mf3b5e4ab16" x="47.760236" y="409.823791" style="fill: #6b3914; stroke: #6b3914"/>
     <use xlink:href="#mf3b5e4ab16" x="45.181257" y="418.701934" style="fill: #6b3914; stroke: #6b3914"/>
     <use xlink:href="#mf3b5e4ab16" x="41.224398" y="427.580077" style="fill: #6b3914; stroke: #6b3914"/>
     <use xlink:href="#mf3b5e4ab16" x="35.614995" y="436.458221" style="fill: #6b3914; stroke: #6b3914"/>
     <use xlink:href="#mf3b5e4ab16" x="28.062795" y="445.336364" style="fill: #6b3914; stroke: #6b3914"/>
    </g>
   </g>
   <g id="line2d_27">
    <path d="M 226.689769 28.063636 
L 226.689769 36.941779 
L 226.689769 36.941779 
L 226.689769 45.819923 
L 226.689769 45.819923 
L 226.689769 54.698066 
L 226.689769 54.698066 
L 226.689769 63.576209 
L 266.770223 63.576209 
L 266.770223 72.454352 
L 266.770223 72.454352 
L 266.770223 81.332495 
L 266.770223 81.332495 
L 266.770223 90.210638 
L 266.770223 90.210638 
L 266.770223 99.088781 
L 266.770223 99.088781 
L 266.770223 107.966925 
L 266.770223 107.966925 
L 266.770223 116.845068 
L 266.770223 116.845068 
L 266.770223 125.723211 
L 266.770223 125.723211 
L 266.770223 134.601354 
L 266.770223 134.601354 
L 266.770223 143.479497 
L 266.770223 143.479497 
L 266.770223 152.35764 
L 106.448408 152.35764 
L 106.448408 161.235783 
L 106.448408 161.235783 
L 106.448408 170.113926 
L 106.448408 170.113926 
L 106.448408 178.99207 
L 106.448408 178.99207 
L 106.448408 187.870213 
L 106.448408 187.870213 
L 106.448408 196.748356 
L 106.448408 196.748356 
L 106.448408 205.626499 
L 106.448408 205.626499 
L 106.448408 214.504642 
L 106.448408 214.504642 
L 106.448408 223.382785 
L 106.448408 223.382785 
L 106.448408 232.260928 
L 106.448408 232.260928 
L 106.448408 241.139072 
L 106.448408 241.139072 
L 106.448408 250.017215 
L 106.448408 250.017215 
L 106.448408 258.895358 
L 106.448408 258.895358 
L 106.448408 267.773501 
L 106.448408 267.773501 
L 106.448408 276.651644 
L 106.448408 276.651644 
L 106.448408 285.529787 
L 106.448408 285.529787 
L 106.448408 294.40793 
L 106.448408 294.40793 
L 106.448408 303.286074 
L 106.448408 303.286074 
L 106.448408 312.164217 
L 106.448408 312.164217 
L 106.448408 321.04236 
L 106.448408 321.04236 
L 106.448408 329.920503 
L 26.2875 329.920503 
L 26.2875 338.798646 
L 26.2875 338.798646 
L 26.2875 347.676789 
L 26.2875 347.676789 
L 26.2875 356.554932 
L 26.2875 356.554932 
L 26.2875 365.433075 
L 26.2875 365.433075 
L 26.2875 374.311219 
L 26.2875 374.311219 
L 26.2875 383.189362 
L 26.2875 383.189362 
L 26.2875 392.067505 
L 26.2875 392.067505 
L 26.2875 400.945648 
L 26.2875 400.945648 
L 26.2875 409.823791 
L 26.2875 409.823791 
L 26.2875 418.701934 
L 26.2875 418.701934 
L 26.2875 427.580077 
L 26.2875 427.580077 
L 26.2875 436.458221 
L 26.2875 436.458221 
L 26.2875 445.336364 
L 26.2875 445.336364 
" clip-path="url(#p7fe91e55f9)" style="fill: none; stroke: #e40000; stroke-opacity: 0.8; stroke-width: 3; stroke-linecap: square"/>
   </g>
   <g id="patch_3">
    <path d="M 9.04295 476.2 
L 279.04295 476.2 
" style="fill: none; stroke: #000000; stroke-width: 2; stroke-linejoin: miter; stroke-linecap: square"/>
   </g>
  </g>
 </g>
 <defs>
  <clipPath id="p7fe91e55f9">
   <rect x="9.04295" y="7.2" width="270" height="459"/>
  </clipPath>
 </defs>
</svg>
