<?xml version="1.0" encoding="utf-8" standalone="no"?>
<!DOCTYPE svg PUBLIC "-//W3C//DTD SVG 1.1//EN"
  "http://www.w3.org/Graphics/SVG/1.1/DTD/svg11.dtd">
<svg xmlns:xlink="http://www.w3.org/1999/xlink" width="297.975126pt" height="544.35625pt" viewBox="0 0 297.975126 544.35625" xmlns="http://www.w3.org/2000/svg" version="1.1">
 <metadata>
  <rdf:RDF xmlns:dc="http://purl.org/dc/elements/1.1/" xmlns:cc="http://creativecommons.org/ns#" xmlns:rdf="http://www.w3.org/1999/02/22-rdf-syntax-ns#">
   <cc:Work>
    <dc:type rdf:resource="http://purl.org/dc/dcmitype/StillImage"/>
    <dc:date>2024-07-06T13:31:31.930630</dc:date>
    <dc:format>image/svg+xml</dc:format>
    <dc:creator>
     <cc:Agent>
      <dc:title>Matplotlib v3.8.0, https://matplotlib.org/</dc:title>
     </cc:Agent>
    </dc:creator>
   </cc:Work>
  </rdf:RDF>
 </metadata>
 <defs>
  <style type="text/css">*{stroke-linejoin: round; stroke-linecap: butt}</style>
 </defs>
 <g id="figure_1">
  <g id="patch_1">
   <path d="M 0 544.35625 
L 297.975126 544.35625 
L 297.975126 0 
L 0 0 
z
" style="fill: #ffffff"/>
  </g>
  <g id="axes_1">
   <g id="patch_2">
    <path d="M 7.2 466.2 
L 277.2 466.2 
L 277.2 7.2 
L 7.2 7.2 
z
" style="fill: #ffffff"/>
   </g>
   <g id="PolyCollection_1">
    <defs>
     <path id="m4cb17509aa" d="M 72.977501 -516.292614 
L 184.748379 -516.292614 
L 196.038733 -507.414471 
L 212.685381 -498.536327 
L 233.986389 -489.658184 
L 235.075309 -480.780041 
L 238.070894 -471.901898 
L 237.651481 -463.023755 
L 238.843013 -454.145612 
L 235.730567 -445.267469 
L 242.951907 -436.389325 
L 238.834465 -427.511182 
L 232.366112 -418.633039 
L 230.648562 -409.754896 
L 233.11137 -400.876753 
L 249.654527 -391.99861 
L 224.438557 -383.120467 
L 228.258911 -374.242324 
L 242.790264 -365.36418 
L 234.308078 -356.486037 
L 231.394704 -347.607894 
L 233.384469 -338.729751 
L 230.327471 -329.851608 
L 235.911026 -320.973465 
L 239.684664 -312.095322 
L 228.053068 -303.217178 
L 221.768806 -294.339035 
L 232.584741 -285.460892 
L 229.527171 -276.582749 
L 236.300376 -267.704606 
L 234.096304 -258.826463 
L 229.263937 -249.94832 
L 237.242475 -241.070176 
L 234.691683 -232.192033 
L 235.822366 -223.31389 
L 233.342542 -214.435747 
L 231.699484 -205.557604 
L 230.631217 -196.679461 
L 235.25994 -187.801318 
L 231.408168 -178.923175 
L 233.230052 -170.045031 
L 237.369653 -161.166888 
L 232.426002 -152.288745 
L 241.457291 -143.410602 
L 232.35006 -134.532459 
L 235.731566 -125.654316 
L 247.720963 -116.776173 
L 237.452687 -107.898029 
L 68.170071 -99.019886 
L 23.91942 -99.019886 
L 23.91942 -99.019886 
L 35.283264 -107.898029 
L 38.691243 -116.776173 
L 43.691911 -125.654316 
L 38.027045 -134.532459 
L 47.778226 -143.410602 
L 43.127862 -152.288745 
L 41.53372 -161.166888 
L 41.952577 -170.045031 
L 38.963461 -178.923175 
L 41.341996 -187.801318 
L 36.746452 -196.679461 
L 38.84406 -205.557604 
L 44.641134 -214.435747 
L 39.717955 -223.31389 
L 38.387977 -232.192033 
L 40.330177 -241.070176 
L 40.037447 -249.94832 
L 39.719638 -258.826463 
L 38.401242 -267.704606 
L 37.002907 -276.582749 
L 33.187522 -285.460892 
L 36.224599 -294.339035 
L 35.204419 -303.217178 
L 29.785268 -312.095322 
L 42.394618 -320.973465 
L 37.568013 -329.851608 
L 33.251458 -338.729751 
L 32.502477 -347.607894 
L 26.973912 -356.486037 
L 25.567363 -365.36418 
L 24.854815 -374.242324 
L 23.3936 -383.120467 
L 27.853799 -391.99861 
L 25.376334 -400.876753 
L 25.941701 -409.754896 
L 30.044154 -418.633039 
L 35.470916 -427.511182 
L 37.015063 -436.389325 
L 46.170317 -445.267469 
L 49.505963 -454.145612 
L 55.116445 -463.023755 
L 55.818764 -471.901898 
L 52.390727 -480.780041 
L 52.885414 -489.658184 
L 52.103111 -498.536327 
L 64.714987 -507.414471 
L 72.977501 -516.292614 
z
" style="stroke: #fecc5c; stroke-opacity: 0.5"/>
    </defs>
    <g clip-path="url(#pfdc340bd4a)">
     <use xlink:href="#m4cb17509aa" x="0" y="544.35625" style="fill: #fecc5c; fill-opacity: 0.5; stroke: #fecc5c; stroke-opacity: 0.5"/>
    </g>
   </g>
   <g id="matplotlib.axis_1">
    <g id="xtick_1">
     <g id="line2d_1">
      <defs>
       <path id="mb554b889c2" d="M 0 0 
L 0 3.5 
" style="stroke: #000000; stroke-width: 1.5"/>
      </defs>
      <g>
       <use xlink:href="#mb554b889c2" x="18.686153" y="476.2" style="stroke: #000000; stroke-width: 1.5"/>
      </g>
     </g>
     <g id="text_1">
      <!-- 0 -->
      <g transform="translate(12.323653 498.396875) scale(0.2 -0.2)">
       <defs>
        <path id="DejaVuSans-30" d="M 2034 4250 
Q 1547 4250 1301 3770 
Q 1056 3291 1056 2328 
Q 1056 1369 1301 889 
Q 1547 409 2034 409 
Q 2525 409 2770 889 
Q 3016 1369 3016 2328 
Q 3016 3291 2770 3770 
Q 2525 4250 2034 4250 
z
M 2034 4750 
Q 2819 4750 3233 4129 
Q 3647 3509 3647 2328 
Q 3647 1150 3233 529 
Q 2819 -91 2034 -91 
Q 1250 -91 836 529 
Q 422 1150 422 2328 
Q 422 3509 836 4129 
Q 1250 4750 2034 4750 
z
" transform="scale(0.015625)"/>
       </defs>
       <use xlink:href="#DejaVuSans-30"/>
      </g>
     </g>
    </g>
    <g id="xtick_2">
     <g id="line2d_2">
      <g>
       <use xlink:href="#mb554b889c2" x="142.005639" y="476.2" style="stroke: #000000; stroke-width: 1.5"/>
      </g>
     </g>
     <g id="text_2">
      <!-- 500 -->
      <g transform="translate(122.918139 498.396875) scale(0.2 -0.2)">
       <defs>
        <path id="DejaVuSans-35" d="M 691 4666 
L 3169 4666 
L 3169 4134 
L 1269 4134 
L 1269 2991 
Q 1406 3038 1543 3061 
Q 1681 3084 1819 3084 
Q 2600 3084 3056 2656 
Q 3513 2228 3513 1497 
Q 3513 744 3044 326 
Q 2575 -91 1722 -91 
Q 1428 -91 1123 -41 
Q 819 9 494 109 
L 494 744 
Q 775 591 1075 516 
Q 1375 441 1709 441 
Q 2250 441 2565 725 
Q 2881 1009 2881 1497 
Q 2881 1984 2565 2268 
Q 2250 2553 1709 2553 
Q 1456 2553 1204 2497 
Q 953 2441 691 2322 
L 691 4666 
z
" transform="scale(0.015625)"/>
       </defs>
       <use xlink:href="#DejaVuSans-35"/>
       <use xlink:href="#DejaVuSans-30" x="63.623047"/>
       <use xlink:href="#DejaVuSans-30" x="127.246094"/>
      </g>
     </g>
    </g>
    <g id="xtick_3">
     <g id="line2d_3">
      <g>
       <use xlink:href="#mb554b889c2" x="265.325126" y="476.2" style="stroke: #000000; stroke-width: 1.5"/>
      </g>
     </g>
     <g id="text_3">
      <!-- 1000 -->
      <g transform="translate(239.875126 498.396875) scale(0.2 -0.2)">
       <defs>
        <path id="DejaVuSans-31" d="M 794 531 
L 1825 531 
L 1825 4091 
L 703 3866 
L 703 4441 
L 1819 4666 
L 2450 4666 
L 2450 531 
L 3481 531 
L 3481 0 
L 794 0 
L 794 531 
z
" transform="scale(0.015625)"/>
       </defs>
       <use xlink:href="#DejaVuSans-31"/>
       <use xlink:href="#DejaVuSans-30" x="63.623047"/>
       <use xlink:href="#DejaVuSans-30" x="127.246094"/>
       <use xlink:href="#DejaVuSans-30" x="190.869141"/>
      </g>
     </g>
    </g>
    <g id="text_4">
     <!-- Resistivity  [$\Omega m$] -->
     <g transform="translate(47.9 532.75625) scale(0.2 -0.2)">
      <defs>
       <path id="DejaVuSans-Bold-52" d="M 2297 2597 
Q 2675 2597 2839 2737 
Q 3003 2878 3003 3200 
Q 3003 3519 2839 3656 
Q 2675 3794 2297 3794 
L 1791 3794 
L 1791 2597 
L 2297 2597 
z
M 1791 1766 
L 1791 0 
L 588 0 
L 588 4666 
L 2425 4666 
Q 3347 4666 3776 4356 
Q 4206 4047 4206 3378 
Q 4206 2916 3982 2619 
Q 3759 2322 3309 2181 
Q 3556 2125 3751 1926 
Q 3947 1728 4147 1325 
L 4800 0 
L 3519 0 
L 2950 1159 
Q 2778 1509 2601 1637 
Q 2425 1766 2131 1766 
L 1791 1766 
z
" transform="scale(0.015625)"/>
       <path id="DejaVuSans-Bold-65" d="M 4031 1759 
L 4031 1441 
L 1416 1441 
Q 1456 1047 1700 850 
Q 1944 653 2381 653 
Q 2734 653 3104 758 
Q 3475 863 3866 1075 
L 3866 213 
Q 3469 63 3072 -14 
Q 2675 -91 2278 -91 
Q 1328 -91 801 392 
Q 275 875 275 1747 
Q 275 2603 792 3093 
Q 1309 3584 2216 3584 
Q 3041 3584 3536 3087 
Q 4031 2591 4031 1759 
z
M 2881 2131 
Q 2881 2450 2695 2645 
Q 2509 2841 2209 2841 
Q 1884 2841 1681 2658 
Q 1478 2475 1428 2131 
L 2881 2131 
z
" transform="scale(0.015625)"/>
       <path id="DejaVuSans-Bold-73" d="M 3272 3391 
L 3272 2541 
Q 2913 2691 2578 2766 
Q 2244 2841 1947 2841 
Q 1628 2841 1473 2761 
Q 1319 2681 1319 2516 
Q 1319 2381 1436 2309 
Q 1553 2238 1856 2203 
L 2053 2175 
Q 2913 2066 3209 1816 
Q 3506 1566 3506 1031 
Q 3506 472 3093 190 
Q 2681 -91 1863 -91 
Q 1516 -91 1145 -36 
Q 775 19 384 128 
L 384 978 
Q 719 816 1070 734 
Q 1422 653 1784 653 
Q 2113 653 2278 743 
Q 2444 834 2444 1013 
Q 2444 1163 2330 1236 
Q 2216 1309 1875 1350 
L 1678 1375 
Q 931 1469 631 1722 
Q 331 1975 331 2491 
Q 331 3047 712 3315 
Q 1094 3584 1881 3584 
Q 2191 3584 2531 3537 
Q 2872 3491 3272 3391 
z
" transform="scale(0.015625)"/>
       <path id="DejaVuSans-Bold-69" d="M 538 3500 
L 1656 3500 
L 1656 0 
L 538 0 
L 538 3500 
z
M 538 4863 
L 1656 4863 
L 1656 3950 
L 538 3950 
L 538 4863 
z
" transform="scale(0.015625)"/>
       <path id="DejaVuSans-Bold-74" d="M 1759 4494 
L 1759 3500 
L 2913 3500 
L 2913 2700 
L 1759 2700 
L 1759 1216 
Q 1759 972 1856 886 
Q 1953 800 2241 800 
L 2816 800 
L 2816 0 
L 1856 0 
Q 1194 0 917 276 
Q 641 553 641 1216 
L 641 2700 
L 84 2700 
L 84 3500 
L 641 3500 
L 641 4494 
L 1759 4494 
z
" transform="scale(0.015625)"/>
       <path id="DejaVuSans-Bold-76" d="M 97 3500 
L 1216 3500 
L 2088 1081 
L 2956 3500 
L 4078 3500 
L 2700 0 
L 1472 0 
L 97 3500 
z
" transform="scale(0.015625)"/>
       <path id="DejaVuSans-Bold-79" d="M 78 3500 
L 1197 3500 
L 2138 1125 
L 2938 3500 
L 4056 3500 
L 2584 -331 
Q 2363 -916 2067 -1148 
Q 1772 -1381 1288 -1381 
L 641 -1381 
L 641 -647 
L 991 -647 
Q 1275 -647 1404 -556 
Q 1534 -466 1606 -231 
L 1638 -134 
L 78 3500 
z
" transform="scale(0.015625)"/>
       <path id="DejaVuSans-Bold-20" transform="scale(0.015625)"/>
       <path id="DejaVuSans-Bold-5b" d="M 550 4863 
L 2491 4863 
L 2491 4159 
L 1613 4159 
L 1613 -141 
L 2491 -141 
L 2491 -844 
L 550 -844 
L 550 4863 
z
" transform="scale(0.015625)"/>
       <path id="DejaVuSans-Bold-3a9" d="M 2719 4750 
Q 3841 4750 4480 4106 
Q 5119 3463 5119 2494 
Q 5119 1406 4306 909 
L 5266 909 
L 5266 0 
L 3125 0 
L 3125 975 
Q 3244 1041 3334 1131 
Q 3875 1678 3875 2466 
Q 3875 3066 3572 3472 
Q 3269 3878 2719 3878 
Q 2169 3878 1866 3472 
Q 1563 3066 1563 2466 
Q 1563 1678 2103 1131 
Q 2194 1041 2313 975 
L 2313 0 
L 172 0 
L 172 909 
L 1131 909 
Q 319 1406 319 2494 
Q 319 3463 958 4106 
Q 1597 4750 2719 4750 
z
" transform="scale(0.015625)"/>
       <path id="DejaVuSans-Bold-6d" d="M 3781 2919 
Q 3994 3244 4286 3414 
Q 4578 3584 4928 3584 
Q 5531 3584 5847 3212 
Q 6163 2841 6163 2131 
L 6163 0 
L 5038 0 
L 5038 1825 
Q 5041 1866 5042 1909 
Q 5044 1953 5044 2034 
Q 5044 2406 4934 2573 
Q 4825 2741 4581 2741 
Q 4263 2741 4089 2478 
Q 3916 2216 3909 1719 
L 3909 0 
L 2784 0 
L 2784 1825 
Q 2784 2406 2684 2573 
Q 2584 2741 2328 2741 
Q 2006 2741 1831 2477 
Q 1656 2213 1656 1722 
L 1656 0 
L 531 0 
L 531 3500 
L 1656 3500 
L 1656 2988 
Q 1863 3284 2130 3434 
Q 2397 3584 2719 3584 
Q 3081 3584 3359 3409 
Q 3638 3234 3781 2919 
z
" transform="scale(0.015625)"/>
       <path id="DejaVuSans-Bold-5d" d="M 2375 -844 
L 434 -844 
L 434 -141 
L 1313 -141 
L 1313 4159 
L 434 4159 
L 434 4863 
L 2375 4863 
L 2375 -844 
z
" transform="scale(0.015625)"/>
      </defs>
      <use xlink:href="#DejaVuSans-Bold-52" transform="translate(0 0.015625)"/>
      <use xlink:href="#DejaVuSans-Bold-65" transform="translate(77.001953 0.015625)"/>
      <use xlink:href="#DejaVuSans-Bold-73" transform="translate(144.824219 0.015625)"/>
      <use xlink:href="#DejaVuSans-Bold-69" transform="translate(204.345703 0.015625)"/>
      <use xlink:href="#DejaVuSans-Bold-73" transform="translate(238.623047 0.015625)"/>
      <use xlink:href="#DejaVuSans-Bold-74" transform="translate(298.144531 0.015625)"/>
      <use xlink:href="#DejaVuSans-Bold-69" transform="translate(345.947266 0.015625)"/>
      <use xlink:href="#DejaVuSans-Bold-76" transform="translate(380.224609 0.015625)"/>
      <use xlink:href="#DejaVuSans-Bold-69" transform="translate(445.410156 0.015625)"/>
      <use xlink:href="#DejaVuSans-Bold-74" transform="translate(479.6875 0.015625)"/>
      <use xlink:href="#DejaVuSans-Bold-79" transform="translate(527.490234 0.015625)"/>
      <use xlink:href="#DejaVuSans-Bold-20" transform="translate(592.675781 0.015625)"/>
      <use xlink:href="#DejaVuSans-Bold-20" transform="translate(627.490234 0.015625)"/>
      <use xlink:href="#DejaVuSans-Bold-5b" transform="translate(662.304688 0.015625)"/>
      <use xlink:href="#DejaVuSans-Bold-3a9" transform="translate(708.007812 0.015625)"/>
      <use xlink:href="#DejaVuSans-Bold-6d" transform="translate(793.017578 0.015625)"/>
      <use xlink:href="#DejaVuSans-Bold-5d" transform="translate(897.216797 0.015625)"/>
     </g>
    </g>
   </g>
   <g id="line2d_4">
    <path d="M 125.538498 28.063636 
L 125.538498 36.941779 
L 87.061426 36.941779 
L 87.061426 45.819923 
L 130.04943 45.819923 
L 130.04943 54.698066 
L 93.864539 54.698066 
L 93.864539 63.576209 
L 100.810525 63.576209 
L 100.810525 72.454352 
L 212.832121 72.454352 
L 212.832121 81.332495 
L 104.770478 81.332495 
L 104.770478 90.210638 
L 94.872335 90.210638 
L 94.872335 99.088781 
L 110.988455 99.088781 
L 110.988455 107.966925 
L 77.938452 107.966925 
L 77.938452 116.845068 
L 229.133596 116.845068 
L 229.133596 125.723211 
L 124.51972 125.723211 
L 124.51972 134.601354 
L 89.520327 134.601354 
L 89.520327 143.479497 
L 30.63421 143.479497 
L 30.63421 152.35764 
L 172.206584 152.35764 
L 172.206584 161.235783 
L 88.510543 161.235783 
L 88.510543 170.113926 
L 104.303611 170.113926 
L 104.303611 178.99207 
L 128.081925 178.99207 
L 128.081925 187.870213 
L 213.959157 187.870213 
L 213.959157 196.748356 
L 169.179281 196.748356 
L 169.179281 205.626499 
L 36.798847 205.626499 
L 36.798847 214.504642 
L 35.281385 214.504642 
L 35.281385 223.382785 
L 212.18099 223.382785 
L 212.18099 232.260928 
L 43.651849 232.260928 
L 43.651849 241.139072 
L 92.139842 241.139072 
L 92.139842 250.017215 
L 188.054267 250.017215 
L 188.054267 258.895358 
L 117.541474 258.895358 
L 117.541474 267.773501 
L 60.484703 267.773501 
L 60.484703 276.651644 
L 201.643873 276.651644 
L 201.643873 285.529787 
L 257.598013 285.529787 
L 257.598013 294.40793 
L 165.16926 294.40793 
L 165.16926 303.286074 
L 202.409788 303.286074 
L 202.409788 312.164217 
L 148.509432 312.164217 
L 148.509432 321.04236 
L 32.221136 321.04236 
L 32.221136 329.920503 
L 206.751711 329.920503 
L 206.751711 338.798646 
L 74.343901 338.798646 
L 74.343901 347.676789 
L 135.34595 347.676789 
L 135.34595 356.554932 
L 153.930718 356.554932 
L 153.930718 365.433075 
L 85.823791 365.433075 
L 85.823791 374.311219 
L 56.676341 374.311219 
L 56.676341 383.189362 
L 211.821208 383.189362 
L 211.821208 392.067505 
L 175.970358 392.067505 
L 175.970358 400.945648 
L 238.801772 400.945648 
L 238.801772 409.823791 
L 87.806793 409.823791 
L 87.806793 418.701934 
L 149.242274 418.701934 
L 149.242274 427.580077 
L 140.689732 427.580077 
L 140.689732 436.458221 
L 193.718458 436.458221 
L 193.718458 445.336364 
L 32.643077 445.336364 
" clip-path="url(#pfdc340bd4a)" style="fill: none; stroke: #fecc5c; stroke-opacity: 0.3; stroke-width: 2; stroke-linecap: square"/>
   </g>
   <g id="line2d_5">
    <path d="M 86.693041 28.063636 
L 86.693041 36.941779 
L 141.003548 36.941779 
L 141.003548 45.819923 
L 83.999492 45.819923 
L 83.999492 54.698066 
L 81.922623 54.698066 
L 81.922623 63.576209 
L 137.595379 63.576209 
L 137.595379 72.454352 
L 217.955781 72.454352 
L 217.955781 81.332495 
L 158.044248 81.332495 
L 158.044248 90.210638 
L 44.11413 90.210638 
L 44.11413 99.088781 
L 144.844313 99.088781 
L 144.844313 107.966925 
L 205.271411 107.966925 
L 205.271411 116.845068 
L 243.535226 116.845068 
L 243.535226 125.723211 
L 29.138288 125.723211 
L 29.138288 134.601354 
L 44.731344 134.601354 
L 44.731344 143.479497 
L 150.754985 143.479497 
L 150.754985 152.35764 
L 71.542823 152.35764 
L 71.542823 161.235783 
L 77.103953 161.235783 
L 77.103953 170.113926 
L 68.904261 170.113926 
L 68.904261 178.99207 
L 217.073396 178.99207 
L 217.073396 187.870213 
L 50.987902 187.870213 
L 50.987902 196.748356 
L 22.678089 196.748356 
L 22.678089 205.626499 
L 247.894687 205.626499 
L 247.894687 214.504642 
L 38.929559 214.504642 
L 38.929559 223.382785 
L 187.979601 223.382785 
L 187.979601 232.260928 
L 187.010899 232.260928 
L 187.010899 241.139072 
L 232.73896 241.139072 
L 232.73896 250.017215 
L 60.192839 250.017215 
L 60.192839 258.895358 
L 134.370639 258.895358 
L 134.370639 267.773501 
L 25.713543 267.773501 
L 25.713543 276.651644 
L 252.648313 276.651644 
L 252.648313 285.529787 
L 177.380583 285.529787 
L 177.380583 294.40793 
L 119.247225 294.40793 
L 119.247225 303.286074 
L 74.178138 303.286074 
L 74.178138 312.164217 
L 260.124316 312.164217 
L 260.124316 321.04236 
L 59.311317 321.04236 
L 59.311317 329.920503 
L 66.776707 329.920503 
L 66.776707 338.798646 
L 109.920752 338.798646 
L 109.920752 347.676789 
L 50.065759 347.676789 
L 50.065759 356.554932 
L 87.466159 356.554932 
L 87.466159 365.433075 
L 43.66997 365.433075 
L 43.66997 374.311219 
L 250.824428 374.311219 
L 250.824428 383.189362 
L 66.950494 383.189362 
L 66.950494 392.067505 
L 150.8138 392.067505 
L 150.8138 400.945648 
L 56.886494 400.945648 
L 56.886494 409.823791 
L 137.03092 409.823791 
L 137.03092 418.701934 
L 135.312087 418.701934 
L 135.312087 427.580077 
L 262.470036 427.580077 
L 262.470036 436.458221 
L 147.311945 436.458221 
L 147.311945 445.336364 
L 34.94828 445.336364 
" clip-path="url(#pfdc340bd4a)" style="fill: none; stroke: #fecc5c; stroke-opacity: 0.3; stroke-width: 2; stroke-linecap: square"/>
   </g>
   <g id="line2d_6">
    <path d="M 94.046236 28.063636 
L 94.046236 36.941779 
L 121.794792 36.941779 
L 121.794792 45.819923 
L 104.822902 45.819923 
L 104.822902 54.698066 
L 94.91919 54.698066 
L 94.91919 63.576209 
L 84.514853 63.576209 
L 84.514853 72.454352 
L 127.946329 72.454352 
L 127.946329 81.332495 
L 232.680401 81.332495 
L 232.680401 90.210638 
L 212.655526 90.210638 
L 212.655526 99.088781 
L 64.630324 99.088781 
L 64.630324 107.966925 
L 73.381055 107.966925 
L 73.381055 116.845068 
L 55.838331 116.845068 
L 55.838331 125.723211 
L 136.08744 125.723211 
L 136.08744 134.601354 
L 80.341662 134.601354 
L 80.341662 143.479497 
L 82.029217 143.479497 
L 82.029217 152.35764 
L 256.518109 152.35764 
L 256.518109 161.235783 
L 94.493126 161.235783 
L 94.493126 170.113926 
L 211.032096 170.113926 
L 211.032096 178.99207 
L 27.708511 178.99207 
L 27.708511 187.870213 
L 74.938934 187.870213 
L 74.938934 196.748356 
L 34.662081 196.748356 
L 34.662081 205.626499 
L 187.227521 205.626499 
L 187.227521 214.504642 
L 125.599007 214.504642 
L 125.599007 223.382785 
L 153.392113 223.382785 
L 153.392113 232.260928 
L 121.840389 232.260928 
L 121.840389 241.139072 
L 105.703292 241.139072 
L 105.703292 250.017215 
L 59.711047 250.017215 
L 59.711047 258.895358 
L 150.081485 258.895358 
L 150.081485 267.773501 
L 223.804273 267.773501 
L 223.804273 276.651644 
L 185.686298 276.651644 
L 185.686298 285.529787 
L 172.568715 285.529787 
L 172.568715 294.40793 
L 89.940986 294.40793 
L 89.940986 303.286074 
L 19.472727 303.286074 
L 19.472727 312.164217 
L 248.923047 312.164217 
L 248.923047 321.04236 
L 188.23467 321.04236 
L 188.23467 329.920503 
L 229.545088 329.920503 
L 229.545088 338.798646 
L 125.581567 338.798646 
L 125.581567 347.676789 
L 73.897816 347.676789 
L 73.897816 356.554932 
L 213.279034 356.554932 
L 213.279034 365.433075 
L 34.473933 365.433075 
L 34.473933 374.311219 
L 79.561247 374.311219 
L 79.561247 383.189362 
L 59.454616 383.189362 
L 59.454616 392.067505 
L 94.927725 392.067505 
L 94.927725 400.945648 
L 119.860721 400.945648 
L 119.860721 409.823791 
L 162.696216 409.823791 
L 162.696216 418.701934 
L 153.82483 418.701934 
L 153.82483 427.580077 
L 165.366026 427.580077 
L 165.366026 436.458221 
L 251.784234 436.458221 
L 251.784234 445.336364 
L 39.67549 445.336364 
" clip-path="url(#pfdc340bd4a)" style="fill: none; stroke: #fecc5c; stroke-opacity: 0.3; stroke-width: 2; stroke-linecap: square"/>
   </g>
   <g id="line2d_7">
    <path d="M 70.635235 28.063636 
L 70.635235 36.941779 
L 194.464246 36.941779 
L 194.464246 45.819923 
L 79.608463 45.819923 
L 79.608463 54.698066 
L 63.525743 54.698066 
L 63.525743 63.576209 
L 175.114242 63.576209 
L 175.114242 72.454352 
L 186.075962 72.454352 
L 186.075962 81.332495 
L 168.612977 81.332495 
L 168.612977 90.210638 
L 137.16918 90.210638 
L 137.16918 99.088781 
L 70.310536 99.088781 
L 70.310536 107.966925 
L 107.785031 107.966925 
L 107.785031 116.845068 
L 68.192894 116.845068 
L 68.192894 125.723211 
L 80.942028 125.723211 
L 80.942028 134.601354 
L 200.696366 134.601354 
L 200.696366 143.479497 
L 29.559574 143.479497 
L 29.559574 152.35764 
L 146.652505 152.35764 
L 146.652505 161.235783 
L 136.119414 161.235783 
L 136.119414 170.113926 
L 135.149289 170.113926 
L 135.149289 178.99207 
L 191.128523 178.99207 
L 191.128523 187.870213 
L 130.221636 187.870213 
L 130.221636 196.748356 
L 128.174513 196.748356 
L 128.174513 205.626499 
L 194.494007 205.626499 
L 194.494007 214.504642 
L 46.839871 214.504642 
L 46.839871 223.382785 
L 186.05582 223.382785 
L 186.05582 232.260928 
L 191.982713 232.260928 
L 191.982713 241.139072 
L 159.707224 241.139072 
L 159.707224 250.017215 
L 137.38514 250.017215 
L 137.38514 258.895358 
L 110.318289 258.895358 
L 110.318289 267.773501 
L 145.995127 267.773501 
L 145.995127 276.651644 
L 221.748035 276.651644 
L 221.748035 285.529787 
L 62.60729 285.529787 
L 62.60729 294.40793 
L 215.783991 294.40793 
L 215.783991 303.286074 
L 138.74103 303.286074 
L 138.74103 312.164217 
L 181.869401 312.164217 
L 181.869401 321.04236 
L 149.543332 321.04236 
L 149.543332 329.920503 
L 116.106078 329.920503 
L 116.106078 338.798646 
L 232.412491 338.798646 
L 232.412491 347.676789 
L 128.079246 347.676789 
L 128.079246 356.554932 
L 70.860927 356.554932 
L 70.860927 365.433075 
L 100.461627 365.433075 
L 100.461627 374.311219 
L 145.812616 374.311219 
L 145.812616 383.189362 
L 136.308819 383.189362 
L 136.308819 392.067505 
L 154.101682 392.067505 
L 154.101682 400.945648 
L 170.078736 400.945648 
L 170.078736 409.823791 
L 155.90395 409.823791 
L 155.90395 418.701934 
L 182.126081 418.701934 
L 182.126081 427.580077 
L 156.629747 427.580077 
L 156.629747 436.458221 
L 107.429321 436.458221 
L 107.429321 445.336364 
L 27.572237 445.336364 
" clip-path="url(#pfdc340bd4a)" style="fill: none; stroke: #fecc5c; stroke-opacity: 0.3; stroke-width: 2; stroke-linecap: square"/>
   </g>
   <g id="line2d_8">
    <path d="M 150.914509 28.063636 
L 150.914509 36.941779 
L 70.151851 36.941779 
L 70.151851 45.819923 
L 206.267059 45.819923 
L 206.267059 54.698066 
L 57.027693 54.698066 
L 57.027693 63.576209 
L 190.370467 63.576209 
L 190.370467 72.454352 
L 74.373075 72.454352 
L 74.373075 81.332495 
L 186.46689 81.332495 
L 186.46689 90.210638 
L 144.748045 90.210638 
L 144.748045 99.088781 
L 158.950733 99.088781 
L 158.950733 107.966925 
L 115.948768 107.966925 
L 115.948768 116.845068 
L 65.593832 116.845068 
L 65.593832 125.723211 
L 37.577715 125.723211 
L 37.577715 134.601354 
L 252.915485 134.601354 
L 252.915485 143.479497 
L 62.671178 143.479497 
L 62.671178 152.35764 
L 91.359514 152.35764 
L 91.359514 161.235783 
L 213.304474 161.235783 
L 213.304474 170.113926 
L 148.031464 170.113926 
L 148.031464 178.99207 
L 19.972728 178.99207 
L 19.972728 187.870213 
L 47.46971 187.870213 
L 47.46971 196.748356 
L 120.37183 196.748356 
L 120.37183 205.626499 
L 203.919729 205.626499 
L 203.919729 214.504642 
L 104.180826 214.504642 
L 104.180826 223.382785 
L 80.520522 223.382785 
L 80.520522 232.260928 
L 247.769922 232.260928 
L 247.769922 241.139072 
L 48.172546 241.139072 
L 48.172546 250.017215 
L 61.808084 250.017215 
L 61.808084 258.895358 
L 148.123442 258.895358 
L 148.123442 267.773501 
L 138.60797 267.773501 
L 138.60797 276.651644 
L 73.08557 276.651644 
L 73.08557 285.529787 
L 52.488743 285.529787 
L 52.488743 294.40793 
L 101.240668 294.40793 
L 101.240668 303.286074 
L 50.458413 303.286074 
L 50.458413 312.164217 
L 144.288299 312.164217 
L 144.288299 321.04236 
L 75.631684 321.04236 
L 75.631684 329.920503 
L 164.348414 329.920503 
L 164.348414 338.798646 
L 74.635738 338.798646 
L 74.635738 347.676789 
L 258.04911 347.676789 
L 258.04911 356.554932 
L 62.084421 356.554932 
L 62.084421 365.433075 
L 152.154959 365.433075 
L 152.154959 374.311219 
L 64.625465 374.311219 
L 64.625465 383.189362 
L 89.641132 383.189362 
L 89.641132 392.067505 
L 67.980724 392.067505 
L 67.980724 400.945648 
L 93.843426 400.945648 
L 93.843426 409.823791 
L 169.615475 409.823791 
L 169.615475 418.701934 
L 54.542705 418.701934 
L 54.542705 427.580077 
L 80.347352 427.580077 
L 80.347352 436.458221 
L 217.926832 436.458221 
L 217.926832 445.336364 
L 55.497509 445.336364 
" clip-path="url(#pfdc340bd4a)" style="fill: none; stroke: #fecc5c; stroke-opacity: 0.3; stroke-width: 2; stroke-linecap: square"/>
   </g>
   <g id="line2d_9">
    <path d="M 79.453967 28.063636 
L 79.453967 36.941779 
L 164.241323 36.941779 
L 164.241323 45.819923 
L 78.791475 45.819923 
L 78.791475 54.698066 
L 76.432139 54.698066 
L 76.432139 63.576209 
L 193.922842 63.576209 
L 193.922842 72.454352 
L 184.716693 72.454352 
L 184.716693 81.332495 
L 139.669674 81.332495 
L 139.669674 90.210638 
L 49.369671 90.210638 
L 49.369671 99.088781 
L 157.737665 99.088781 
L 157.737665 107.966925 
L 236.059494 107.966925 
L 236.059494 116.845068 
L 40.834651 116.845068 
L 40.834651 125.723211 
L 228.218078 125.723211 
L 228.218078 134.601354 
L 101.406288 134.601354 
L 101.406288 143.479497 
L 102.809033 143.479497 
L 102.809033 152.35764 
L 81.615664 152.35764 
L 81.615664 161.235783 
L 161.37425 161.235783 
L 161.37425 170.113926 
L 66.906966 170.113926 
L 66.906966 178.99207 
L 184.72994 178.99207 
L 184.72994 187.870213 
L 224.77713 187.870213 
L 224.77713 196.748356 
L 57.092183 196.748356 
L 57.092183 205.626499 
L 143.289535 205.626499 
L 143.289535 214.504642 
L 32.372052 214.504642 
L 32.372052 223.382785 
L 62.898089 223.382785 
L 62.898089 232.260928 
L 206.361807 232.260928 
L 206.361807 241.139072 
L 165.115232 241.139072 
L 165.115232 250.017215 
L 179.217836 250.017215 
L 179.217836 258.895358 
L 156.534306 258.895358 
L 156.534306 267.773501 
L 199.020082 267.773501 
L 199.020082 276.651644 
L 135.921376 276.651644 
L 135.921376 285.529787 
L 69.353963 285.529787 
L 69.353963 294.40793 
L 133.628811 294.40793 
L 133.628811 303.286074 
L 84.324214 303.286074 
L 84.324214 312.164217 
L 95.993727 312.164217 
L 95.993727 321.04236 
L 163.253593 321.04236 
L 163.253593 329.920503 
L 248.666548 329.920503 
L 248.666548 338.798646 
L 192.750705 338.798646 
L 192.750705 347.676789 
L 53.881014 347.676789 
L 53.881014 356.554932 
L 81.765767 356.554932 
L 81.765767 365.433075 
L 64.744321 365.433075 
L 64.744321 374.311219 
L 56.91283 374.311219 
L 56.91283 383.189362 
L 81.51763 383.189362 
L 81.51763 392.067505 
L 100.02328 392.067505 
L 100.02328 400.945648 
L 203.929995 400.945648 
L 203.929995 409.823791 
L 119.118276 409.823791 
L 119.118276 418.701934 
L 83.042275 418.701934 
L 83.042275 427.580077 
L 101.982768 427.580077 
L 101.982768 436.458221 
L 104.154196 436.458221 
L 104.154196 445.336364 
L 42.697606 445.336364 
" clip-path="url(#pfdc340bd4a)" style="fill: none; stroke: #fecc5c; stroke-opacity: 0.3; stroke-width: 2; stroke-linecap: square"/>
   </g>
   <g id="line2d_10">
    <path d="M 107.234075 28.063636 
L 107.234075 36.941779 
L 94.608151 36.941779 
L 94.608151 45.819923 
L 124.3296 45.819923 
L 124.3296 54.698066 
L 110.228577 54.698066 
L 110.228577 63.576209 
L 91.044238 63.576209 
L 91.044238 72.454352 
L 116.821262 72.454352 
L 116.821262 81.332495 
L 159.367328 81.332495 
L 159.367328 90.210638 
L 92.365421 90.210638 
L 92.365421 99.088781 
L 153.943077 99.088781 
L 153.943077 107.966925 
L 145.112065 107.966925 
L 145.112065 116.845068 
L 51.969246 116.845068 
L 51.969246 125.723211 
L 193.440749 125.723211 
L 193.440749 134.601354 
L 93.965631 134.601354 
L 93.965631 143.479497 
L 54.101761 143.479497 
L 54.101761 152.35764 
L 156.450021 152.35764 
L 156.450021 161.235783 
L 127.300483 161.235783 
L 127.300483 170.113926 
L 170.768088 170.113926 
L 170.768088 178.99207 
L 183.579299 178.99207 
L 183.579299 187.870213 
L 120.499899 187.870213 
L 120.499899 196.748356 
L 38.304936 196.748356 
L 38.304936 205.626499 
L 65.610309 205.626499 
L 65.610309 214.504642 
L 196.11944 214.504642 
L 196.11944 223.382785 
L 78.657787 223.382785 
L 78.657787 232.260928 
L 99.506669 232.260928 
L 99.506669 241.139072 
L 191.480493 241.139072 
L 191.480493 250.017215 
L 36.484811 250.017215 
L 36.484811 258.895358 
L 121.317335 258.895358 
L 121.317335 267.773501 
L 85.862531 267.773501 
L 85.862531 276.651644 
L 130.682496 276.651644 
L 130.682496 285.529787 
L 245.707557 285.529787 
L 245.707557 294.40793 
L 84.48942 294.40793 
L 84.48942 303.286074 
L 59.794185 303.286074 
L 59.794185 312.164217 
L 29.131589 312.164217 
L 29.131589 321.04236 
L 102.458591 321.04236 
L 102.458591 329.920503 
L 159.887642 329.920503 
L 159.887642 338.798646 
L 176.147328 338.798646 
L 176.147328 347.676789 
L 150.860767 347.676789 
L 150.860767 356.554932 
L 116.120131 356.554932 
L 116.120131 365.433075 
L 110.70081 365.433075 
L 110.70081 374.311219 
L 166.550101 374.311219 
L 166.550101 383.189362 
L 125.059092 383.189362 
L 125.059092 392.067505 
L 113.224825 392.067505 
L 113.224825 400.945648 
L 230.780857 400.945648 
L 230.780857 409.823791 
L 87.648443 409.823791 
L 87.648443 418.701934 
L 200.419831 418.701934 
L 200.419831 427.580077 
L 62.182567 427.580077 
L 62.182567 436.458221 
L 136.543784 436.458221 
L 136.543784 445.336364 
L 34.436852 445.336364 
" clip-path="url(#pfdc340bd4a)" style="fill: none; stroke: #fecc5c; stroke-opacity: 0.3; stroke-width: 2; stroke-linecap: square"/>
   </g>
   <g id="line2d_11">
    <path d="M 70.58759 28.063636 
L 70.58759 36.941779 
L 198.701141 36.941779 
L 198.701141 45.819923 
L 79.32133 45.819923 
L 79.32133 54.698066 
L 78.095391 54.698066 
L 78.095391 63.576209 
L 97.859995 63.576209 
L 97.859995 72.454352 
L 166.532066 72.454352 
L 166.532066 81.332495 
L 159.233862 81.332495 
L 159.233862 90.210638 
L 254.250488 90.210638 
L 254.250488 99.088781 
L 83.417992 99.088781 
L 83.417992 107.966925 
L 32.275747 107.966925 
L 32.275747 116.845068 
L 261.192101 116.845068 
L 261.192101 125.723211 
L 154.408114 125.723211 
L 154.408114 134.601354 
L 80.818099 134.601354 
L 80.818099 143.479497 
L 150.197037 143.479497 
L 150.197037 152.35764 
L 93.561351 152.35764 
L 93.561351 161.235783 
L 56.77737 161.235783 
L 56.77737 170.113926 
L 202.502202 170.113926 
L 202.502202 178.99207 
L 61.061901 178.99207 
L 61.061901 187.870213 
L 51.766684 187.870213 
L 51.766684 196.748356 
L 63.029112 196.748356 
L 63.029112 205.626499 
L 118.021414 205.626499 
L 118.021414 214.504642 
L 155.270086 214.504642 
L 155.270086 223.382785 
L 86.489154 223.382785 
L 86.489154 232.260928 
L 169.869024 232.260928 
L 169.869024 241.139072 
L 134.884518 241.139072 
L 134.884518 250.017215 
L 134.448745 250.017215 
L 134.448745 258.895358 
L 48.232441 258.895358 
L 48.232441 267.773501 
L 126.357567 267.773501 
L 126.357567 276.651644 
L 134.10154 276.651644 
L 134.10154 285.529787 
L 191.287851 285.529787 
L 191.287851 294.40793 
L 96.483798 294.40793 
L 96.483798 303.286074 
L 152.50872 303.286074 
L 152.50872 312.164217 
L 202.665278 312.164217 
L 202.665278 321.04236 
L 68.761176 321.04236 
L 68.761176 329.920503 
L 149.103224 329.920503 
L 149.103224 338.798646 
L 173.162416 338.798646 
L 173.162416 347.676789 
L 135.384074 347.676789 
L 135.384074 356.554932 
L 131.966978 356.554932 
L 131.966978 365.433075 
L 50.800014 365.433075 
L 50.800014 374.311219 
L 97.440269 374.311219 
L 97.440269 383.189362 
L 212.998599 383.189362 
L 212.998599 392.067505 
L 212.952294 392.067505 
L 212.952294 400.945648 
L 170.199632 400.945648 
L 170.199632 409.823791 
L 134.637526 409.823791 
L 134.637526 418.701934 
L 122.875358 418.701934 
L 122.875358 427.580077 
L 149.689955 427.580077 
L 149.689955 436.458221 
L 189.257129 436.458221 
L 189.257129 445.336364 
L 35.077907 445.336364 
" clip-path="url(#pfdc340bd4a)" style="fill: none; stroke: #fecc5c; stroke-opacity: 0.3; stroke-width: 2; stroke-linecap: square"/>
   </g>
   <g id="line2d_12">
    <path d="M 100.811624 28.063636 
L 100.811624 36.941779 
L 133.852199 36.941779 
L 133.852199 45.819923 
L 65.313842 45.819923 
L 65.313842 54.698066 
L 189.021675 54.698066 
L 189.021675 63.576209 
L 124.076435 63.576209 
L 124.076435 72.454352 
L 74.630116 72.454352 
L 74.630116 81.332495 
L 120.242459 81.332495 
L 120.242459 90.210638 
L 218.753729 90.210638 
L 218.753729 99.088781 
L 169.534216 99.088781 
L 169.534216 107.966925 
L 74.218997 107.966925 
L 74.218997 116.845068 
L 190.451501 116.845068 
L 190.451501 125.723211 
L 21.459811 125.723211 
L 21.459811 134.601354 
L 80.792387 134.601354 
L 80.792387 143.479497 
L 203.945726 143.479497 
L 203.945726 152.35764 
L 128.128042 152.35764 
L 128.128042 161.235783 
L 109.072931 161.235783 
L 109.072931 170.113926 
L 44.674402 170.113926 
L 44.674402 178.99207 
L 182.354821 178.99207 
L 182.354821 187.870213 
L 152.27015 187.870213 
L 152.27015 196.748356 
L 91.530184 196.748356 
L 91.530184 205.626499 
L 108.279288 205.626499 
L 108.279288 214.504642 
L 53.256446 214.504642 
L 53.256446 223.382785 
L 177.585509 223.382785 
L 177.585509 232.260928 
L 43.837163 232.260928 
L 43.837163 241.139072 
L 261.828494 241.139072 
L 261.828494 250.017215 
L 193.194908 250.017215 
L 193.194908 258.895358 
L 176.434221 258.895358 
L 176.434221 267.773501 
L 27.679713 267.773501 
L 27.679713 276.651644 
L 117.523274 276.651644 
L 117.523274 285.529787 
L 131.186191 285.529787 
L 131.186191 294.40793 
L 133.880003 294.40793 
L 133.880003 303.286074 
L 122.089075 303.286074 
L 122.089075 312.164217 
L 127.747418 312.164217 
L 127.747418 321.04236 
L 141.84516 321.04236 
L 141.84516 329.920503 
L 138.472089 329.920503 
L 138.472089 338.798646 
L 119.622776 338.798646 
L 119.622776 347.676789 
L 83.462701 347.676789 
L 83.462701 356.554932 
L 87.505117 356.554932 
L 87.505117 365.433075 
L 142.32647 365.433075 
L 142.32647 374.311219 
L 107.441695 374.311219 
L 107.441695 383.189362 
L 99.779501 383.189362 
L 99.779501 392.067505 
L 37.205051 392.067505 
L 37.205051 400.945648 
L 163.197066 400.945648 
L 163.197066 409.823791 
L 37.908017 409.823791 
L 37.908017 418.701934 
L 33.654364 418.701934 
L 33.654364 427.580077 
L 46.225963 427.580077 
L 46.225963 436.458221 
L 40.453079 436.458221 
L 40.453079 445.336364 
L 37.518201 445.336364 
" clip-path="url(#pfdc340bd4a)" style="fill: none; stroke: #fecc5c; stroke-opacity: 0.3; stroke-width: 2; stroke-linecap: square"/>
   </g>
   <g id="line2d_13">
    <path d="M 90.127553 28.063636 
L 90.127553 36.941779 
L 110.882861 36.941779 
L 110.882861 45.819923 
L 165.434129 45.819923 
L 165.434129 54.698066 
L 51.546893 54.698066 
L 51.546893 63.576209 
L 155.895098 63.576209 
L 155.895098 72.454352 
L 213.582003 72.454352 
L 213.582003 81.332495 
L 128.909695 81.332495 
L 128.909695 90.210638 
L 131.818805 90.210638 
L 131.818805 99.088781 
L 49.652884 99.088781 
L 49.652884 107.966925 
L 252.70779 107.966925 
L 252.70779 116.845068 
L 116.865384 116.845068 
L 116.865384 125.723211 
L 47.336015 125.723211 
L 47.336015 134.601354 
L 103.128576 134.601354 
L 103.128576 143.479497 
L 114.806587 143.479497 
L 114.806587 152.35764 
L 83.313271 152.35764 
L 83.313271 161.235783 
L 62.361502 161.235783 
L 62.361502 170.113926 
L 176.094023 170.113926 
L 176.094023 178.99207 
L 131.454123 178.99207 
L 131.454123 187.870213 
L 48.341379 187.870213 
L 48.341379 196.748356 
L 43.771012 196.748356 
L 43.771012 205.626499 
L 204.300119 205.626499 
L 204.300119 214.504642 
L 105.063625 214.504642 
L 105.063625 223.382785 
L 73.180649 223.382785 
L 73.180649 232.260928 
L 259.535237 232.260928 
L 259.535237 241.139072 
L 140.250324 241.139072 
L 140.250324 250.017215 
L 206.069661 250.017215 
L 206.069661 258.895358 
L 99.083631 258.895358 
L 99.083631 267.773501 
L 99.83681 267.773501 
L 99.83681 276.651644 
L 114.922478 276.651644 
L 114.922478 285.529787 
L 102.810064 285.529787 
L 102.810064 294.40793 
L 21.265269 294.40793 
L 21.265269 303.286074 
L 175.525748 303.286074 
L 175.525748 312.164217 
L 184.625046 312.164217 
L 184.625046 321.04236 
L 31.185568 321.04236 
L 31.185568 329.920503 
L 155.311288 329.920503 
L 155.311288 338.798646 
L 51.16619 338.798646 
L 51.16619 347.676789 
L 133.713533 347.676789 
L 133.713533 356.554932 
L 164.005808 356.554932 
L 164.005808 365.433075 
L 62.362134 365.433075 
L 62.362134 374.311219 
L 122.100494 374.311219 
L 122.100494 383.189362 
L 130.576699 383.189362 
L 130.576699 392.067505 
L 93.252292 392.067505 
L 93.252292 400.945648 
L 184.998633 400.945648 
L 184.998633 409.823791 
L 96.198976 409.823791 
L 96.198976 418.701934 
L 200.800131 418.701934 
L 200.800131 427.580077 
L 176.967466 427.580077 
L 176.967466 436.458221 
L 101.99189 436.458221 
L 101.99189 445.336364 
L 35.764379 445.336364 
" clip-path="url(#pfdc340bd4a)" style="fill: none; stroke: #fecc5c; stroke-opacity: 0.3; stroke-width: 2; stroke-linecap: square"/>
   </g>
   <g id="line2d_14">
    <path d="M 97.013837 28.063636 
L 97.013837 36.941779 
L 131.894811 36.941779 
L 131.894811 45.819923 
L 68.510217 45.819923 
L 68.510217 54.698066 
L 169.643129 54.698066 
L 169.643129 63.576209 
L 107.189208 63.576209 
L 107.189208 72.454352 
L 140.161349 72.454352 
L 140.161349 81.332495 
L 199.02088 81.332495 
L 199.02088 90.210638 
L 48.580939 90.210638 
L 48.580939 99.088781 
L 165.15392 99.088781 
L 165.15392 107.966925 
L 58.842395 107.966925 
L 58.842395 116.845068 
L 96.12309 116.845068 
L 96.12309 125.723211 
L 183.699111 125.723211 
L 183.699111 134.601354 
L 233.015947 134.601354 
L 233.015947 143.479497 
L 36.842196 143.479497 
L 36.842196 152.35764 
L 68.775752 152.35764 
L 68.775752 161.235783 
L 103.032173 161.235783 
L 103.032173 170.113926 
L 155.077189 170.113926 
L 155.077189 178.99207 
L 85.976404 178.99207 
L 85.976404 187.870213 
L 27.031009 187.870213 
L 27.031009 196.748356 
L 175.072167 196.748356 
L 175.072167 205.626499 
L 27.833939 205.626499 
L 27.833939 214.504642 
L 148.097113 214.504642 
L 148.097113 223.382785 
L 54.164523 223.382785 
L 54.164523 232.260928 
L 256.63759 232.260928 
L 256.63759 241.139072 
L 209.759099 241.139072 
L 209.759099 250.017215 
L 38.422091 250.017215 
L 38.422091 258.895358 
L 72.180707 258.895358 
L 72.180707 267.773501 
L 208.630663 267.773501 
L 208.630663 276.651644 
L 94.895556 276.651644 
L 94.895556 285.529787 
L 145.756963 285.529787 
L 145.756963 294.40793 
L 169.720926 294.40793 
L 169.720926 303.286074 
L 121.090732 303.286074 
L 121.090732 312.164217 
L 38.94421 312.164217 
L 38.94421 321.04236 
L 79.516722 321.04236 
L 79.516722 329.920503 
L 90.417005 329.920503 
L 90.417005 338.798646 
L 131.101251 338.798646 
L 131.101251 347.676789 
L 33.008659 347.676789 
L 33.008659 356.554932 
L 197.163396 356.554932 
L 197.163396 365.433075 
L 245.145484 365.433075 
L 245.145484 374.311219 
L 148.11876 374.311219 
L 148.11876 383.189362 
L 117.669603 383.189362 
L 117.669603 392.067505 
L 141.085131 392.067505 
L 141.085131 400.945648 
L 72.513347 400.945648 
L 72.513347 409.823791 
L 115.854088 409.823791 
L 115.854088 418.701934 
L 198.934141 418.701934 
L 198.934141 427.580077 
L 44.974361 427.580077 
L 44.974361 436.458221 
L 127.467684 436.458221 
L 127.467684 445.336364 
L 37.258311 445.336364 
" clip-path="url(#pfdc340bd4a)" style="fill: none; stroke: #fecc5c; stroke-opacity: 0.3; stroke-width: 2; stroke-linecap: square"/>
   </g>
   <g id="line2d_15">
    <path d="M 108.286167 28.063636 
L 108.286167 36.941779 
L 108.613185 36.941779 
L 108.613185 45.819923 
L 86.141114 45.819923 
L 86.141114 54.698066 
L 149.503199 54.698066 
L 149.503199 63.576209 
L 117.695962 63.576209 
L 117.695962 72.454352 
L 102.430509 72.454352 
L 102.430509 81.332495 
L 64.47964 81.332495 
L 64.47964 90.210638 
L 208.339781 90.210638 
L 208.339781 99.088781 
L 215.684456 99.088781 
L 215.684456 107.966925 
L 117.874107 107.966925 
L 117.874107 116.845068 
L 66.756678 116.845068 
L 66.756678 125.723211 
L 81.887886 125.723211 
L 81.887886 134.601354 
L 197.715744 134.601354 
L 197.715744 143.479497 
L 97.031902 143.479497 
L 97.031902 152.35764 
L 58.300125 152.35764 
L 58.300125 161.235783 
L 68.303914 161.235783 
L 68.303914 170.113926 
L 186.782776 170.113926 
L 186.782776 178.99207 
L 124.342177 178.99207 
L 124.342177 187.870213 
L 62.95961 187.870213 
L 62.95961 196.748356 
L 131.563367 196.748356 
L 131.563367 205.626499 
L 93.971615 205.626499 
L 93.971615 214.504642 
L 163.94028 214.504642 
L 163.94028 223.382785 
L 192.732189 223.382785 
L 192.732189 232.260928 
L 24.261465 232.260928 
L 24.261465 241.139072 
L 87.686627 241.139072 
L 87.686627 250.017215 
L 41.858969 250.017215 
L 41.858969 258.895358 
L 47.84031 258.895358 
L 47.84031 267.773501 
L 129.59782 267.773501 
L 129.59782 276.651644 
L 153.192005 276.651644 
L 153.192005 285.529787 
L 115.816566 285.529787 
L 115.816566 294.40793 
L 95.125003 294.40793 
L 95.125003 303.286074 
L 154.523425 303.286074 
L 154.523425 312.164217 
L 163.821356 312.164217 
L 163.821356 321.04236 
L 197.920444 321.04236 
L 197.920444 329.920503 
L 128.312916 329.920503 
L 128.312916 338.798646 
L 180.136485 338.798646 
L 180.136485 347.676789 
L 140.057562 347.676789 
L 140.057562 356.554932 
L 41.063884 356.554932 
L 41.063884 365.433075 
L 166.122953 365.433075 
L 166.122953 374.311219 
L 66.928233 374.311219 
L 66.928233 383.189362 
L 62.73385 383.189362 
L 62.73385 392.067505 
L 182.989482 392.067505 
L 182.989482 400.945648 
L 77.340755 400.945648 
L 77.340755 409.823791 
L 87.80902 409.823791 
L 87.80902 418.701934 
L 50.037573 418.701934 
L 50.037573 427.580077 
L 24.104583 427.580077 
L 24.104583 436.458221 
L 260.648905 436.458221 
L 260.648905 445.336364 
L 39.86329 445.336364 
" clip-path="url(#pfdc340bd4a)" style="fill: none; stroke: #fecc5c; stroke-opacity: 0.3; stroke-width: 2; stroke-linecap: square"/>
   </g>
   <g id="line2d_16">
    <path d="M 71.469768 28.063636 
L 71.469768 36.941779 
L 199.218459 36.941779 
L 199.218459 45.819923 
L 52.606647 45.819923 
L 52.606647 54.698066 
L 246.385724 54.698066 
L 246.385724 63.576209 
L 167.222713 63.576209 
L 167.222713 72.454352 
L 137.802939 72.454352 
L 137.802939 81.332495 
L 44.16092 81.332495 
L 44.16092 90.210638 
L 131.182736 90.210638 
L 131.182736 99.088781 
L 59.857026 99.088781 
L 59.857026 107.966925 
L 184.533294 107.966925 
L 184.533294 116.845068 
L 190.382435 116.845068 
L 190.382435 125.723211 
L 111.259202 125.723211 
L 111.259202 134.601354 
L 87.506856 134.601354 
L 87.506856 143.479497 
L 73.355113 143.479497 
L 73.355113 152.35764 
L 32.99633 152.35764 
L 32.99633 161.235783 
L 222.81284 161.235783 
L 222.81284 170.113926 
L 104.698424 170.113926 
L 104.698424 178.99207 
L 177.680226 178.99207 
L 177.680226 187.870213 
L 61.64254 187.870213 
L 61.64254 196.748356 
L 110.521062 196.748356 
L 110.521062 205.626499 
L 32.677901 205.626499 
L 32.677901 214.504642 
L 189.803471 214.504642 
L 189.803471 223.382785 
L 201.909766 223.382785 
L 201.909766 232.260928 
L 53.076667 232.260928 
L 53.076667 241.139072 
L 97.290741 241.139072 
L 97.290741 250.017215 
L 176.059972 250.017215 
L 176.059972 258.895358 
L 106.18263 258.895358 
L 106.18263 267.773501 
L 88.698443 267.773501 
L 88.698443 276.651644 
L 209.306014 276.651644 
L 209.306014 285.529787 
L 183.449763 285.529787 
L 183.449763 294.40793 
L 88.542013 294.40793 
L 88.542013 303.286074 
L 92.815713 303.286074 
L 92.815713 312.164217 
L 230.917995 312.164217 
L 230.917995 321.04236 
L 166.24683 321.04236 
L 166.24683 329.920503 
L 185.82148 329.920503 
L 185.82148 338.798646 
L 247.470746 338.798646 
L 247.470746 347.676789 
L 193.587145 347.676789 
L 193.587145 356.554932 
L 105.628543 356.554932 
L 105.628543 365.433075 
L 205.23894 365.433075 
L 205.23894 374.311219 
L 224.535384 374.311219 
L 224.535384 383.189362 
L 152.274786 383.189362 
L 152.274786 392.067505 
L 145.819917 392.067505 
L 145.819917 400.945648 
L 110.278758 400.945648 
L 110.278758 409.823791 
L 210.660993 409.823791 
L 210.660993 418.701934 
L 194.044882 418.701934 
L 194.044882 427.580077 
L 98.978323 427.580077 
L 98.978323 436.458221 
L 77.239278 436.458221 
L 77.239278 445.336364 
L 20.854151 445.336364 
" clip-path="url(#pfdc340bd4a)" style="fill: none; stroke: #fecc5c; stroke-opacity: 0.3; stroke-width: 2; stroke-linecap: square"/>
   </g>
   <g id="line2d_17">
    <path d="M 109.719124 28.063636 
L 109.719124 36.941779 
L 116.724542 36.941779 
L 116.724542 45.819923 
L 68.906222 45.819923 
L 68.906222 54.698066 
L 264.927273 54.698066 
L 264.927273 63.576209 
L 43.722233 63.576209 
L 43.722233 72.454352 
L 201.450343 72.454352 
L 201.450343 81.332495 
L 206.474107 81.332495 
L 206.474107 90.210638 
L 103.15541 90.210638 
L 103.15541 99.088781 
L 187.025019 99.088781 
L 187.025019 107.966925 
L 92.143259 107.966925 
L 92.143259 116.845068 
L 113.846774 116.845068 
L 113.846774 125.723211 
L 98.853235 125.723211 
L 98.853235 134.601354 
L 73.181063 134.601354 
L 73.181063 143.479497 
L 72.987082 143.479497 
L 72.987082 152.35764 
L 59.292164 152.35764 
L 59.292164 161.235783 
L 193.484043 161.235783 
L 193.484043 170.113926 
L 100.768511 170.113926 
L 100.768511 178.99207 
L 105.453695 178.99207 
L 105.453695 187.870213 
L 48.940723 187.870213 
L 48.940723 196.748356 
L 24.011513 196.748356 
L 24.011513 205.626499 
L 64.670987 205.626499 
L 64.670987 214.504642 
L 53.778657 214.504642 
L 53.778657 223.382785 
L 30.278394 223.382785 
L 30.278394 232.260928 
L 94.252893 232.260928 
L 94.252893 241.139072 
L 102.036291 241.139072 
L 102.036291 250.017215 
L 111.516785 250.017215 
L 111.516785 258.895358 
L 144.317292 258.895358 
L 144.317292 267.773501 
L 243.999345 267.773501 
L 243.999345 276.651644 
L 125.467829 276.651644 
L 125.467829 285.529787 
L 185.861598 285.529787 
L 185.861598 294.40793 
L 126.537353 294.40793 
L 126.537353 303.286074 
L 44.558004 303.286074 
L 44.558004 312.164217 
L 168.679168 312.164217 
L 168.679168 321.04236 
L 204.957091 321.04236 
L 204.957091 329.920503 
L 168.255107 329.920503 
L 168.255107 338.798646 
L 56.82728 338.798646 
L 56.82728 347.676789 
L 176.866155 347.676789 
L 176.866155 356.554932 
L 196.477326 356.554932 
L 196.477326 365.433075 
L 37.935209 365.433075 
L 37.935209 374.311219 
L 206.562592 374.311219 
L 206.562592 383.189362 
L 127.162975 383.189362 
L 127.162975 392.067505 
L 119.701115 392.067505 
L 119.701115 400.945648 
L 91.817386 400.945648 
L 91.817386 409.823791 
L 158.361985 409.823791 
L 158.361985 418.701934 
L 146.415771 418.701934 
L 146.415771 427.580077 
L 163.48855 427.580077 
L 163.48855 436.458221 
L 135.325967 436.458221 
L 135.325967 445.336364 
L 32.12323 445.336364 
" clip-path="url(#pfdc340bd4a)" style="fill: none; stroke: #fecc5c; stroke-opacity: 0.3; stroke-width: 2; stroke-linecap: square"/>
   </g>
   <g id="line2d_18">
    <path d="M 125.596621 28.063636 
L 125.596621 36.941779 
L 81.843817 36.941779 
L 81.843817 45.819923 
L 172.519791 45.819923 
L 172.519791 54.698066 
L 52.89106 54.698066 
L 52.89106 63.576209 
L 245.088898 63.576209 
L 245.088898 72.454352 
L 117.029025 72.454352 
L 117.029025 81.332495 
L 201.854865 81.332495 
L 201.854865 90.210638 
L 63.529469 90.210638 
L 63.529469 99.088781 
L 143.536979 99.088781 
L 143.536979 107.966925 
L 168.231924 107.966925 
L 168.231924 116.845068 
L 37.966958 116.845068 
L 37.966958 125.723211 
L 72.016193 125.723211 
L 72.016193 134.601354 
L 173.750201 134.601354 
L 173.750201 143.479497 
L 132.71242 143.479497 
L 132.71242 152.35764 
L 49.58131 152.35764 
L 49.58131 161.235783 
L 240.405738 161.235783 
L 240.405738 170.113926 
L 65.498648 170.113926 
L 65.498648 178.99207 
L 81.918806 178.99207 
L 81.918806 187.870213 
L 39.308618 187.870213 
L 39.308618 196.748356 
L 237.667569 196.748356 
L 237.667569 205.626499 
L 127.548605 205.626499 
L 127.548605 214.504642 
L 69.237545 214.504642 
L 69.237545 223.382785 
L 198.026 223.382785 
L 198.026 232.260928 
L 257.806415 232.260928 
L 257.806415 241.139072 
L 234.770284 241.139072 
L 234.770284 250.017215 
L 78.841811 250.017215 
L 78.841811 258.895358 
L 204.152759 258.895358 
L 204.152759 267.773501 
L 153.281981 267.773501 
L 153.281981 276.651644 
L 51.912599 276.651644 
L 51.912599 285.529787 
L 114.695822 285.529787 
L 114.695822 294.40793 
L 111.117871 294.40793 
L 111.117871 303.286074 
L 145.678022 303.286074 
L 145.678022 312.164217 
L 218.591496 312.164217 
L 218.591496 321.04236 
L 118.671942 321.04236 
L 118.671942 329.920503 
L 168.038199 329.920503 
L 168.038199 338.798646 
L 67.245029 338.798646 
L 67.245029 347.676789 
L 219.843011 347.676789 
L 219.843011 356.554932 
L 125.532025 356.554932 
L 125.532025 365.433075 
L 148.132338 365.433075 
L 148.132338 374.311219 
L 262.684008 374.311219 
L 262.684008 383.189362 
L 56.827299 383.189362 
L 56.827299 392.067505 
L 149.263033 392.067505 
L 149.263033 400.945648 
L 190.58051 400.945648 
L 190.58051 409.823791 
L 126.551037 409.823791 
L 126.551037 418.701934 
L 129.208578 418.701934 
L 129.208578 427.580077 
L 97.984 427.580077 
L 97.984 436.458221 
L 79.302418 436.458221 
L 79.302418 445.336364 
L 20.563033 445.336364 
" clip-path="url(#pfdc340bd4a)" style="fill: none; stroke: #fecc5c; stroke-opacity: 0.3; stroke-width: 2; stroke-linecap: square"/>
   </g>
   <g id="line2d_19">
    <path d="M 164.775682 28.063636 
L 164.775682 36.941779 
L 72.203479 36.941779 
L 72.203479 45.819923 
L 152.453594 45.819923 
L 152.453594 54.698066 
L 78.504805 54.698066 
L 78.504805 63.576209 
L 153.588849 63.576209 
L 153.588849 72.454352 
L 114.93017 72.454352 
L 114.93017 81.332495 
L 119.024378 81.332495 
L 119.024378 90.210638 
L 65.214593 90.210638 
L 65.214593 99.088781 
L 210.481238 99.088781 
L 210.481238 107.966925 
L 197.676981 107.966925 
L 197.676981 116.845068 
L 150.5811 116.845068 
L 150.5811 125.723211 
L 133.790013 125.723211 
L 133.790013 134.601354 
L 28.825652 134.601354 
L 28.825652 143.479497 
L 218.492247 143.479497 
L 218.492247 152.35764 
L 104.971173 152.35764 
L 104.971173 161.235783 
L 61.242079 161.235783 
L 61.242079 170.113926 
L 208.223251 170.113926 
L 208.223251 178.99207 
L 125.1081 178.99207 
L 125.1081 187.870213 
L 126.970281 187.870213 
L 126.970281 196.748356 
L 27.30281 196.748356 
L 27.30281 205.626499 
L 88.715551 205.626499 
L 88.715551 214.504642 
L 74.00423 214.504642 
L 74.00423 223.382785 
L 58.442145 223.382785 
L 58.442145 232.260928 
L 28.71338 232.260928 
L 28.71338 241.139072 
L 189.634991 241.139072 
L 189.634991 250.017215 
L 210.895409 250.017215 
L 210.895409 258.895358 
L 83.951832 258.895358 
L 83.951832 267.773501 
L 97.932667 267.773501 
L 97.932667 276.651644 
L 261.555105 276.651644 
L 261.555105 285.529787 
L 218.268836 285.529787 
L 218.268836 294.40793 
L 228.586682 294.40793 
L 228.586682 303.286074 
L 63.136942 303.286074 
L 63.136942 312.164217 
L 123.235591 312.164217 
L 123.235591 321.04236 
L 224.996854 321.04236 
L 224.996854 329.920503 
L 78.851599 329.920503 
L 78.851599 338.798646 
L 245.174237 338.798646 
L 245.174237 347.676789 
L 45.777757 347.676789 
L 45.777757 356.554932 
L 72.668953 356.554932 
L 72.668953 365.433075 
L 187.843456 365.433075 
L 187.843456 374.311219 
L 234.472583 374.311219 
L 234.472583 383.189362 
L 93.012946 383.189362 
L 93.012946 392.067505 
L 193.1662 392.067505 
L 193.1662 400.945648 
L 259.712779 400.945648 
L 259.712779 409.823791 
L 97.415386 409.823791 
L 97.415386 418.701934 
L 116.354222 418.701934 
L 116.354222 427.580077 
L 129.083181 427.580077 
L 129.083181 436.458221 
L 220.153041 436.458221 
L 220.153041 445.336364 
L 91.609126 445.336364 
" clip-path="url(#pfdc340bd4a)" style="fill: none; stroke: #fecc5c; stroke-opacity: 0.3; stroke-width: 2; stroke-linecap: square"/>
   </g>
   <g id="line2d_20">
    <path d="M 80.72912 28.063636 
L 80.72912 36.941779 
L 162.311144 36.941779 
L 162.311144 45.819923 
L 74.138882 45.819923 
L 74.138882 54.698066 
L 82.629655 54.698066 
L 82.629655 63.576209 
L 223.100244 63.576209 
L 223.100244 72.454352 
L 75.470478 72.454352 
L 75.470478 81.332495 
L 181.300237 81.332495 
L 181.300237 90.210638 
L 170.645536 90.210638 
L 170.645536 99.088781 
L 92.363713 99.088781 
L 92.363713 107.966925 
L 127.008841 107.966925 
L 127.008841 116.845068 
L 70.302354 116.845068 
L 70.302354 125.723211 
L 82.123604 125.723211 
L 82.123604 134.601354 
L 101.642254 134.601354 
L 101.642254 143.479497 
L 113.002016 143.479497 
L 113.002016 152.35764 
L 156.026953 152.35764 
L 156.026953 161.235783 
L 22.322239 161.235783 
L 22.322239 170.113926 
L 137.698745 170.113926 
L 137.698745 178.99207 
L 137.229244 178.99207 
L 137.229244 187.870213 
L 151.856867 187.870213 
L 151.856867 196.748356 
L 120.970311 196.748356 
L 120.970311 205.626499 
L 93.262054 205.626499 
L 93.262054 214.504642 
L 100.020081 214.504642 
L 100.020081 223.382785 
L 149.618841 223.382785 
L 149.618841 232.260928 
L 48.025865 232.260928 
L 48.025865 241.139072 
L 128.492559 241.139072 
L 128.492559 250.017215 
L 122.905043 250.017215 
L 122.905043 258.895358 
L 150.655571 258.895358 
L 150.655571 267.773501 
L 85.382809 267.773501 
L 85.382809 276.651644 
L 128.25666 276.651644 
L 128.25666 285.529787 
L 175.451037 285.529787 
L 175.451037 294.40793 
L 146.782689 294.40793 
L 146.782689 303.286074 
L 143.920117 303.286074 
L 143.920117 312.164217 
L 104.889326 312.164217 
L 104.889326 321.04236 
L 26.991592 321.04236 
L 26.991592 329.920503 
L 82.452804 329.920503 
L 82.452804 338.798646 
L 93.162339 338.798646 
L 93.162339 347.676789 
L 124.202547 347.676789 
L 124.202547 356.554932 
L 144.193348 356.554932 
L 144.193348 365.433075 
L 64.379631 365.433075 
L 64.379631 374.311219 
L 78.144654 374.311219 
L 78.144654 383.189362 
L 72.658653 383.189362 
L 72.658653 392.067505 
L 24.303159 392.067505 
L 24.303159 400.945648 
L 185.670929 400.945648 
L 185.670929 409.823791 
L 197.050358 409.823791 
L 197.050358 418.701934 
L 191.395154 418.701934 
L 191.395154 427.580077 
L 45.691594 427.580077 
L 45.691594 436.458221 
L 144.893328 436.458221 
L 144.893328 445.336364 
L 36.471193 445.336364 
" clip-path="url(#pfdc340bd4a)" style="fill: none; stroke: #fecc5c; stroke-opacity: 0.3; stroke-width: 2; stroke-linecap: square"/>
   </g>
   <g id="line2d_21">
    <path d="M 75.102605 28.063636 
L 75.102605 36.941779 
L 176.83653 36.941779 
L 176.83653 45.819923 
L 57.07279 45.819923 
L 57.07279 54.698066 
L 250.754323 54.698066 
L 250.754323 63.576209 
L 94.120865 63.576209 
L 94.120865 72.454352 
L 92.041158 72.454352 
L 92.041158 81.332495 
L 175.425506 81.332495 
L 175.425506 90.210638 
L 77.804087 90.210638 
L 77.804087 99.088781 
L 108.881569 99.088781 
L 108.881569 107.966925 
L 126.145574 107.966925 
L 126.145574 116.845068 
L 168.899403 116.845068 
L 168.899403 125.723211 
L 109.480215 125.723211 
L 109.480215 134.601354 
L 41.410099 134.601354 
L 41.410099 143.479497 
L 121.056809 143.479497 
L 121.056809 152.35764 
L 72.047136 152.35764 
L 72.047136 161.235783 
L 119.903519 161.235783 
L 119.903519 170.113926 
L 263.868459 170.113926 
L 263.868459 178.99207 
L 110.128839 178.99207 
L 110.128839 187.870213 
L 161.28301 187.870213 
L 161.28301 196.748356 
L 148.110646 196.748356 
L 148.110646 205.626499 
L 104.987077 205.626499 
L 104.987077 214.504642 
L 120.722151 214.504642 
L 120.722151 223.382785 
L 215.770397 223.382785 
L 215.770397 232.260928 
L 121.852665 232.260928 
L 121.852665 241.139072 
L 204.817002 241.139072 
L 204.817002 250.017215 
L 139.939752 250.017215 
L 139.939752 258.895358 
L 154.324777 258.895358 
L 154.324777 267.773501 
L 103.774897 267.773501 
L 103.774897 276.651644 
L 80.186034 276.651644 
L 80.186034 285.529787 
L 167.889589 285.529787 
L 167.889589 294.40793 
L 182.643053 294.40793 
L 182.643053 303.286074 
L 264.461498 303.286074 
L 264.461498 312.164217 
L 170.596235 312.164217 
L 170.596235 321.04236 
L 126.793852 321.04236 
L 126.793852 329.920503 
L 167.698303 329.920503 
L 167.698303 338.798646 
L 136.8961 338.798646 
L 136.8961 347.676789 
L 116.255448 347.676789 
L 116.255448 356.554932 
L 167.425922 356.554932 
L 167.425922 365.433075 
L 133.891106 365.433075 
L 133.891106 374.311219 
L 84.627861 374.311219 
L 84.627861 383.189362 
L 252.936921 383.189362 
L 252.936921 392.067505 
L 134.807745 392.067505 
L 134.807745 400.945648 
L 184.459983 400.945648 
L 184.459983 409.823791 
L 197.749509 409.823791 
L 197.749509 418.701934 
L 217.537379 418.701934 
L 217.537379 427.580077 
L 186.943233 427.580077 
L 186.943233 436.458221 
L 222.535687 436.458221 
L 222.535687 445.336364 
L 29.55403 445.336364 
" clip-path="url(#pfdc340bd4a)" style="fill: none; stroke: #fecc5c; stroke-opacity: 0.3; stroke-width: 2; stroke-linecap: square"/>
   </g>
   <g id="line2d_22">
    <path d="M 139.606088 28.063636 
L 139.606088 36.941779 
L 78.814887 36.941779 
L 78.814887 45.819923 
L 117.145277 45.819923 
L 117.145277 54.698066 
L 205.951595 54.698066 
L 205.951595 63.576209 
L 43.515601 63.576209 
L 43.515601 72.454352 
L 253.031007 72.454352 
L 253.031007 81.332495 
L 216.047776 81.332495 
L 216.047776 90.210638 
L 226.066189 90.210638 
L 226.066189 99.088781 
L 35.309612 99.088781 
L 35.309612 107.966925 
L 201.81687 107.966925 
L 201.81687 116.845068 
L 214.941965 116.845068 
L 214.941965 125.723211 
L 169.805527 125.723211 
L 169.805527 134.601354 
L 24.841819 134.601354 
L 24.841819 143.479497 
L 128.77577 143.479497 
L 128.77577 152.35764 
L 76.467775 152.35764 
L 76.467775 161.235783 
L 139.815898 161.235783 
L 139.815898 170.113926 
L 188.466632 170.113926 
L 188.466632 178.99207 
L 30.992098 178.99207 
L 30.992098 187.870213 
L 102.550622 187.870213 
L 102.550622 196.748356 
L 229.883524 196.748356 
L 229.883524 205.626499 
L 155.042385 205.626499 
L 155.042385 214.504642 
L 174.901127 214.504642 
L 174.901127 223.382785 
L 48.537714 223.382785 
L 48.537714 232.260928 
L 40.946918 232.260928 
L 40.946918 241.139072 
L 252.342062 241.139072 
L 252.342062 250.017215 
L 84.521334 250.017215 
L 84.521334 258.895358 
L 133.01767 258.895358 
L 133.01767 267.773501 
L 188.864349 267.773501 
L 188.864349 276.651644 
L 119.53259 276.651644 
L 119.53259 285.529787 
L 65.869333 285.529787 
L 65.869333 294.40793 
L 166.426571 294.40793 
L 166.426571 303.286074 
L 173.237428 303.286074 
L 173.237428 312.164217 
L 116.926321 312.164217 
L 116.926321 321.04236 
L 34.576936 321.04236 
L 34.576936 329.920503 
L 133.863949 329.920503 
L 133.863949 338.798646 
L 224.691535 338.798646 
L 224.691535 347.676789 
L 148.704919 347.676789 
L 148.704919 356.554932 
L 102.850468 356.554932 
L 102.850468 365.433075 
L 103.147055 365.433075 
L 103.147055 374.311219 
L 159.277909 374.311219 
L 159.277909 383.189362 
L 214.897767 383.189362 
L 214.897767 392.067505 
L 174.558461 392.067505 
L 174.558461 400.945648 
L 52.260959 400.945648 
L 52.260959 409.823791 
L 163.049164 409.823791 
L 163.049164 418.701934 
L 41.244071 418.701934 
L 41.244071 427.580077 
L 94.814943 427.580077 
L 94.814943 436.458221 
L 198.097595 436.458221 
L 198.097595 445.336364 
L 55.746323 445.336364 
" clip-path="url(#pfdc340bd4a)" style="fill: none; stroke: #fecc5c; stroke-opacity: 0.3; stroke-width: 2; stroke-linecap: square"/>
   </g>
   <g id="line2d_23">
    <path d="M 99.859594 28.063636 
L 99.859594 36.941779 
L 108.90068 36.941779 
L 108.90068 45.819923 
L 99.977487 45.819923 
L 99.977487 54.698066 
L 101.811427 54.698066 
L 101.811427 63.576209 
L 101.380509 63.576209 
L 101.380509 72.454352 
L 215.084914 72.454352 
L 215.084914 81.332495 
L 93.641858 81.332495 
L 93.641858 90.210638 
L 99.825384 90.210638 
L 99.825384 99.088781 
L 159.202791 99.088781 
L 159.202791 107.966925 
L 80.177675 107.966925 
L 80.177675 116.845068 
L 175.926988 116.845068 
L 175.926988 125.723211 
L 151.326572 125.723211 
L 151.326572 134.601354 
L 143.656911 134.601354 
L 143.656911 143.479497 
L 41.564055 143.479497 
L 41.564055 152.35764 
L 146.316718 152.35764 
L 146.316718 161.235783 
L 133.065669 161.235783 
L 133.065669 170.113926 
L 36.405907 170.113926 
L 36.405907 178.99207 
L 173.730435 178.99207 
L 173.730435 187.870213 
L 134.269343 187.870213 
L 134.269343 196.748356 
L 45.093556 196.748356 
L 45.093556 205.626499 
L 128.532654 205.626499 
L 128.532654 214.504642 
L 86.747121 214.504642 
L 86.747121 223.382785 
L 216.193841 223.382785 
L 216.193841 232.260928 
L 93.779403 232.260928 
L 93.779403 241.139072 
L 227.325397 241.139072 
L 227.325397 250.017215 
L 139.91462 250.017215 
L 139.91462 258.895358 
L 106.352789 258.895358 
L 106.352789 267.773501 
L 199.917596 267.773501 
L 199.917596 276.651644 
L 191.299292 276.651644 
L 191.299292 285.529787 
L 148.433878 285.529787 
L 148.433878 294.40793 
L 36.374024 294.40793 
L 36.374024 303.286074 
L 235.153249 303.286074 
L 235.153249 312.164217 
L 186.377472 312.164217 
L 186.377472 321.04236 
L 248.536439 321.04236 
L 248.536439 329.920503 
L 151.442756 329.920503 
L 151.442756 338.798646 
L 63.766308 338.798646 
L 63.766308 347.676789 
L 131.040464 347.676789 
L 131.040464 356.554932 
L 176.551925 356.554932 
L 176.551925 365.433075 
L 156.46798 365.433075 
L 156.46798 374.311219 
L 231.120783 374.311219 
L 231.120783 383.189362 
L 155.933229 383.189362 
L 155.933229 392.067505 
L 111.19603 392.067505 
L 111.19603 400.945648 
L 69.768559 400.945648 
L 69.768559 409.823791 
L 23.333858 409.823791 
L 23.333858 418.701934 
L 140.425894 418.701934 
L 140.425894 427.580077 
L 204.419194 427.580077 
L 204.419194 436.458221 
L 170.707361 436.458221 
L 170.707361 445.336364 
L 30.503558 445.336364 
" clip-path="url(#pfdc340bd4a)" style="fill: none; stroke: #fecc5c; stroke-opacity: 0.3; stroke-width: 2; stroke-linecap: square"/>
   </g>
   <g id="line2d_24"/>
   <g id="line2d_25">
    <path d="M 112.251321 28.063636 
L 112.251321 36.941779 
L 118.272938 36.941779 
L 118.272938 45.819923 
L 112.156874 45.819923 
L 112.156874 54.698066 
L 124.5007 54.698066 
L 124.5007 63.576209 
L 134.400385 63.576209 
L 134.400385 72.454352 
L 138.986683 72.454352 
L 138.986683 81.332495 
L 142.604774 81.332495 
L 142.604774 90.210638 
L 141.13751 90.210638 
L 141.13751 99.088781 
L 141.646331 99.088781 
L 141.646331 107.966925 
L 132.215484 107.966925 
L 132.215484 116.845068 
L 124.647082 116.845068 
L 124.647082 125.723211 
L 126.461882 125.723211 
L 126.461882 134.601354 
L 119.053342 134.601354 
L 119.053342 143.479497 
L 124.859745 143.479497 
L 124.859745 152.35764 
L 126.495331 152.35764 
L 126.495331 161.235783 
L 120.231538 161.235783 
L 120.231538 170.113926 
L 114.446045 170.113926 
L 114.446045 178.99207 
L 126.194943 178.99207 
L 126.194943 187.870213 
L 118.889844 187.870213 
L 118.889844 196.748356 
L 128.785156 196.748356 
L 128.785156 205.626499 
L 127.390775 205.626499 
L 127.390775 214.504642 
L 131.348687 214.504642 
L 131.348687 223.382785 
L 135.641423 223.382785 
L 135.641423 232.260928 
L 116.814382 232.260928 
L 116.814382 241.139072 
L 131.834484 241.139072 
L 131.834484 250.017215 
L 124.80997 250.017215 
L 124.80997 258.895358 
L 128.83521 258.895358 
L 128.83521 267.773501 
L 127.637007 267.773501 
L 127.637007 276.651644 
L 132.352133 276.651644 
L 132.352133 285.529787 
L 134.211184 285.529787 
L 134.211184 294.40793 
L 129.464874 294.40793 
L 129.464874 303.286074 
L 136.145721 303.286074 
L 136.145721 312.164217 
L 135.041061 312.164217 
L 135.041061 321.04236 
L 132.2753 321.04236 
L 132.2753 329.920503 
L 133.329808 329.920503 
L 133.329808 338.798646 
L 131.885515 338.798646 
L 131.885515 347.676789 
L 132.0664 347.676789 
L 132.0664 356.554932 
L 136.314946 356.554932 
L 136.314946 365.433075 
L 136.742282 365.433075 
L 136.742282 374.311219 
L 134.187053 374.311219 
L 134.187053 383.189362 
L 138.781095 383.189362 
L 138.781095 392.067505 
L 134.603497 392.067505 
L 134.603497 400.945648 
L 143.756695 400.945648 
L 143.756695 409.823791 
L 136.242455 409.823791 
L 136.242455 418.701934 
L 138.565918 418.701934 
L 138.565918 427.580077 
L 141.047128 427.580077 
L 141.047128 436.458221 
L 134.387409 436.458221 
L 134.387409 445.336364 
L 40.633753 445.336364 
" clip-path="url(#pfdc340bd4a)" style="fill: none; stroke: #6b3914; stroke-width: 3; stroke-linecap: square"/>
   </g>
   <g id="line2d_26">
    <path d="M 105.009793 28.063636 
L 105.009793 36.941779 
L 105.009793 36.941779 
L 105.009793 45.819923 
L 105.009793 45.819923 
L 105.009793 54.698066 
L 105.009793 54.698066 
L 105.009793 63.576209 
L 117.341742 63.576209 
L 117.341742 72.454352 
L 117.341742 72.454352 
L 117.341742 81.332495 
L 117.341742 81.332495 
L 117.341742 90.210638 
L 117.341742 90.210638 
L 117.341742 99.088781 
L 117.341742 99.088781 
L 117.341742 107.966925 
L 117.341742 107.966925 
L 117.341742 116.845068 
L 117.341742 116.845068 
L 117.341742 125.723211 
L 117.341742 125.723211 
L 117.341742 134.601354 
L 117.341742 134.601354 
L 117.341742 143.479497 
L 117.341742 143.479497 
L 117.341742 152.35764 
L 68.013947 152.35764 
L 68.013947 161.235783 
L 68.013947 161.235783 
L 68.013947 170.113926 
L 68.013947 170.113926 
L 68.013947 178.99207 
L 68.013947 178.99207 
L 68.013947 187.870213 
L 68.013947 187.870213 
L 68.013947 196.748356 
L 68.013947 196.748356 
L 68.013947 205.626499 
L 68.013947 205.626499 
L 68.013947 214.504642 
L 68.013947 214.504642 
L 68.013947 223.382785 
L 68.013947 223.382785 
L 68.013947 232.260928 
L 68.013947 232.260928 
L 68.013947 241.139072 
L 68.013947 241.139072 
L 68.013947 250.017215 
L 68.013947 250.017215 
L 68.013947 258.895358 
L 68.013947 258.895358 
L 68.013947 267.773501 
L 68.013947 267.773501 
L 68.013947 276.651644 
L 68.013947 276.651644 
L 68.013947 285.529787 
L 68.013947 285.529787 
L 68.013947 294.40793 
L 68.013947 294.40793 
L 68.013947 303.286074 
L 68.013947 303.286074 
L 68.013947 312.164217 
L 68.013947 312.164217 
L 68.013947 321.04236 
L 68.013947 321.04236 
L 68.013947 329.920503 
L 43.35005 329.920503 
L 43.35005 338.798646 
L 43.35005 338.798646 
L 43.35005 347.676789 
L 43.35005 347.676789 
L 43.35005 356.554932 
L 43.35005 356.554932 
L 43.35005 365.433075 
L 43.35005 365.433075 
L 43.35005 374.311219 
L 43.35005 374.311219 
L 43.35005 383.189362 
L 43.35005 383.189362 
L 43.35005 392.067505 
L 43.35005 392.067505 
L 43.35005 400.945648 
L 43.35005 400.945648 
L 43.35005 409.823791 
L 43.35005 409.823791 
L 43.35005 418.701934 
L 43.35005 418.701934 
L 43.35005 427.580077 
L 43.35005 427.580077 
L 43.35005 436.458221 
L 43.35005 436.458221 
L 43.35005 445.336364 
L 43.35005 445.336364 
" clip-path="url(#pfdc340bd4a)" style="fill: none; stroke: #e40000; stroke-opacity: 0.8; stroke-width: 3; stroke-linecap: square"/>
   </g>
   <g id="patch_3">
    <path d="M 7.2 476.2 
L 277.2 476.2 
" style="fill: none; stroke: #000000; stroke-width: 2; stroke-linejoin: miter; stroke-linecap: square"/>
   </g>
  </g>
 </g>
 <defs>
  <clipPath id="pfdc340bd4a">
   <rect x="7.2" y="7.2" width="270" height="459"/>
  </clipPath>
 </defs>
</svg>
