<?xml version="1.0" encoding="utf-8" standalone="no"?>
<!DOCTYPE svg PUBLIC "-//W3C//DTD SVG 1.1//EN"
  "http://www.w3.org/Graphics/SVG/1.1/DTD/svg11.dtd">
<svg xmlns:xlink="http://www.w3.org/1999/xlink" width="284.4pt" height="544.35625pt" viewBox="0 0 284.4 544.35625" xmlns="http://www.w3.org/2000/svg" version="1.1">
 <metadata>
  <rdf:RDF xmlns:dc="http://purl.org/dc/elements/1.1/" xmlns:cc="http://creativecommons.org/ns#" xmlns:rdf="http://www.w3.org/1999/02/22-rdf-syntax-ns#">
   <cc:Work>
    <dc:type rdf:resource="http://purl.org/dc/dcmitype/StillImage"/>
    <dc:date>2024-08-06T15:50:24.491908</dc:date>
    <dc:format>image/svg+xml</dc:format>
    <dc:creator>
     <cc:Agent>
      <dc:title>Matplotlib v3.8.0, https://matplotlib.org/</dc:title>
     </cc:Agent>
    </dc:creator>
   </cc:Work>
  </rdf:RDF>
 </metadata>
 <defs>
  <style type="text/css">*{stroke-linejoin: round; stroke-linecap: butt}</style>
 </defs>
 <g id="figure_1">
  <g id="patch_1">
   <path d="M 0 544.35625 
L 284.4 544.35625 
L 284.4 0 
L 0 0 
z
" style="fill: #ffffff"/>
  </g>
  <g id="axes_1">
   <g id="patch_2">
    <path d="M 7.2 466.2 
L 277.2 466.2 
L 277.2 7.2 
L 7.2 7.2 
z
" style="fill: #ffffff"/>
   </g>
   <g id="PolyCollection_1">
    <defs>
     <path id="m2bd8c07655" d="M 183.683631 -516.292614 
L 215.36601 -516.292614 
L 192.110158 -507.414471 
L 159.461474 -498.536327 
L 135.463589 -489.658184 
L 116.917779 -480.780041 
L 107.142337 -471.901898 
L 102.062869 -463.023755 
L 101.657025 -454.145612 
L 108.389098 -445.267469 
L 118.00753 -436.389325 
L 129.205496 -427.511182 
L 140.170163 -418.633039 
L 150.625742 -409.754896 
L 161.005129 -400.876753 
L 174.747107 -391.99861 
L 183.863771 -383.120467 
L 197.656956 -374.242324 
L 210.410125 -365.36418 
L 221.997323 -356.486037 
L 221.732917 -347.607894 
L 229.935827 -338.729751 
L 228.787923 -329.851608 
L 232.719601 -320.973465 
L 231.011602 -312.095322 
L 232.138472 -303.217178 
L 237.844264 -294.339035 
L 237.299706 -285.460892 
L 230.292329 -276.582749 
L 231.562879 -267.704606 
L 231.314084 -258.826463 
L 224.290037 -249.94832 
L 222.72681 -241.070176 
L 213.631542 -232.192033 
L 212.129608 -223.31389 
L 205.116324 -214.435747 
L 203.903815 -205.557604 
L 198.109854 -196.679461 
L 193.942368 -187.801318 
L 181.261366 -178.923175 
L 174.000117 -170.045031 
L 165.661779 -161.166888 
L 156.028565 -152.288745 
L 144.400226 -143.410602 
L 138.117334 -134.532459 
L 128.764402 -125.654316 
L 114.493801 -116.776173 
L 96.109665 -107.898029 
L 69.267697 -99.019886 
L 64.058908 -99.019886 
L 64.058908 -99.019886 
L 49.158875 -107.898029 
L 51.117129 -116.776173 
L 53.855342 -125.654316 
L 60.575864 -134.532459 
L 65.776621 -143.410602 
L 77.293811 -152.288745 
L 84.417679 -161.166888 
L 94.103176 -170.045031 
L 106.988122 -178.923175 
L 111.62533 -187.801318 
L 118.755061 -196.679461 
L 130.066714 -205.557604 
L 129.776727 -214.435747 
L 138.983228 -223.31389 
L 139.639941 -232.192033 
L 141.598181 -241.070176 
L 146.248279 -249.94832 
L 151.534434 -258.826463 
L 152.840491 -267.704606 
L 156.783856 -276.582749 
L 158.273372 -285.460892 
L 156.139127 -294.339035 
L 158.955381 -303.217178 
L 156.550515 -312.095322 
L 150.346776 -320.973465 
L 157.057669 -329.851608 
L 159.126985 -338.729751 
L 149.512753 -347.607894 
L 152.133604 -356.486037 
L 142.751347 -365.36418 
L 135.428792 -374.242324 
L 126.558673 -383.120467 
L 113.418538 -391.99861 
L 104.156808 -400.876753 
L 95.348293 -409.754896 
L 85.94403 -418.633039 
L 79.657836 -427.511182 
L 71.500361 -436.389325 
L 63.1863 -445.267469 
L 59.761732 -454.145612 
L 61.772967 -463.023755 
L 71.828158 -471.901898 
L 82.211535 -480.780041 
L 106.606001 -489.658184 
L 129.614007 -498.536327 
L 171.718992 -507.414471 
L 183.683631 -516.292614 
z
" style="stroke: #fecc5c; stroke-opacity: 0.5"/>
    </defs>
    <g clip-path="url(#p55d0104636)">
     <use xlink:href="#m2bd8c07655" x="0" y="544.35625" style="fill: #fecc5c; fill-opacity: 0.5; stroke: #fecc5c; stroke-opacity: 0.5"/>
    </g>
   </g>
   <g id="matplotlib.axis_1">
    <g id="xtick_1">
     <g id="line2d_1">
      <defs>
       <path id="m8ae2be759d" d="M 0 0 
L 0 3.5 
" style="stroke: #000000; stroke-width: 1.5"/>
      </defs>
      <g>
       <use xlink:href="#m8ae2be759d" x="54.747876" y="476.2" style="stroke: #000000; stroke-width: 1.5"/>
      </g>
     </g>
     <g id="text_1">
      <!-- 250 -->
      <g transform="translate(35.660376 498.396875) scale(0.2 -0.2)">
       <defs>
        <path id="DejaVuSans-32" d="M 1228 531 
L 3431 531 
L 3431 0 
L 469 0 
L 469 531 
Q 828 903 1448 1529 
Q 2069 2156 2228 2338 
Q 2531 2678 2651 2914 
Q 2772 3150 2772 3378 
Q 2772 3750 2511 3984 
Q 2250 4219 1831 4219 
Q 1534 4219 1204 4116 
Q 875 4013 500 3803 
L 500 4441 
Q 881 4594 1212 4672 
Q 1544 4750 1819 4750 
Q 2544 4750 2975 4387 
Q 3406 4025 3406 3419 
Q 3406 3131 3298 2873 
Q 3191 2616 2906 2266 
Q 2828 2175 2409 1742 
Q 1991 1309 1228 531 
z
" transform="scale(0.015625)"/>
        <path id="DejaVuSans-35" d="M 691 4666 
L 3169 4666 
L 3169 4134 
L 1269 4134 
L 1269 2991 
Q 1406 3038 1543 3061 
Q 1681 3084 1819 3084 
Q 2600 3084 3056 2656 
Q 3513 2228 3513 1497 
Q 3513 744 3044 326 
Q 2575 -91 1722 -91 
Q 1428 -91 1123 -41 
Q 819 9 494 109 
L 494 744 
Q 775 591 1075 516 
Q 1375 441 1709 441 
Q 2250 441 2565 725 
Q 2881 1009 2881 1497 
Q 2881 1984 2565 2268 
Q 2250 2553 1709 2553 
Q 1456 2553 1204 2497 
Q 953 2441 691 2322 
L 691 4666 
z
" transform="scale(0.015625)"/>
        <path id="DejaVuSans-30" d="M 2034 4250 
Q 1547 4250 1301 3770 
Q 1056 3291 1056 2328 
Q 1056 1369 1301 889 
Q 1547 409 2034 409 
Q 2525 409 2770 889 
Q 3016 1369 3016 2328 
Q 3016 3291 2770 3770 
Q 2525 4250 2034 4250 
z
M 2034 4750 
Q 2819 4750 3233 4129 
Q 3647 3509 3647 2328 
Q 3647 1150 3233 529 
Q 2819 -91 2034 -91 
Q 1250 -91 836 529 
Q 422 1150 422 2328 
Q 422 3509 836 4129 
Q 1250 4750 2034 4750 
z
" transform="scale(0.015625)"/>
       </defs>
       <use xlink:href="#DejaVuSans-32"/>
       <use xlink:href="#DejaVuSans-35" x="63.623047"/>
       <use xlink:href="#DejaVuSans-30" x="127.246094"/>
      </g>
     </g>
    </g>
    <g id="xtick_2">
     <g id="line2d_2">
      <g>
       <use xlink:href="#m8ae2be759d" x="137.46177" y="476.2" style="stroke: #000000; stroke-width: 1.5"/>
      </g>
     </g>
     <g id="text_2">
      <!-- 500 -->
      <g transform="translate(118.37427 498.396875) scale(0.2 -0.2)">
       <use xlink:href="#DejaVuSans-35"/>
       <use xlink:href="#DejaVuSans-30" x="63.623047"/>
       <use xlink:href="#DejaVuSans-30" x="127.246094"/>
      </g>
     </g>
    </g>
    <g id="xtick_3">
     <g id="line2d_3">
      <g>
       <use xlink:href="#m8ae2be759d" x="220.175664" y="476.2" style="stroke: #000000; stroke-width: 1.5"/>
      </g>
     </g>
     <g id="text_3">
      <!-- 750 -->
      <g transform="translate(201.088164 498.396875) scale(0.2 -0.2)">
       <defs>
        <path id="DejaVuSans-37" d="M 525 4666 
L 3525 4666 
L 3525 4397 
L 1831 0 
L 1172 0 
L 2766 4134 
L 525 4134 
L 525 4666 
z
" transform="scale(0.015625)"/>
       </defs>
       <use xlink:href="#DejaVuSans-37"/>
       <use xlink:href="#DejaVuSans-35" x="63.623047"/>
       <use xlink:href="#DejaVuSans-30" x="127.246094"/>
      </g>
     </g>
    </g>
    <g id="text_4">
     <!-- Resistivity  [$\Omega m$] -->
     <g transform="translate(47.9 532.75625) scale(0.2 -0.2)">
      <defs>
       <path id="DejaVuSans-Bold-52" d="M 2297 2597 
Q 2675 2597 2839 2737 
Q 3003 2878 3003 3200 
Q 3003 3519 2839 3656 
Q 2675 3794 2297 3794 
L 1791 3794 
L 1791 2597 
L 2297 2597 
z
M 1791 1766 
L 1791 0 
L 588 0 
L 588 4666 
L 2425 4666 
Q 3347 4666 3776 4356 
Q 4206 4047 4206 3378 
Q 4206 2916 3982 2619 
Q 3759 2322 3309 2181 
Q 3556 2125 3751 1926 
Q 3947 1728 4147 1325 
L 4800 0 
L 3519 0 
L 2950 1159 
Q 2778 1509 2601 1637 
Q 2425 1766 2131 1766 
L 1791 1766 
z
" transform="scale(0.015625)"/>
       <path id="DejaVuSans-Bold-65" d="M 4031 1759 
L 4031 1441 
L 1416 1441 
Q 1456 1047 1700 850 
Q 1944 653 2381 653 
Q 2734 653 3104 758 
Q 3475 863 3866 1075 
L 3866 213 
Q 3469 63 3072 -14 
Q 2675 -91 2278 -91 
Q 1328 -91 801 392 
Q 275 875 275 1747 
Q 275 2603 792 3093 
Q 1309 3584 2216 3584 
Q 3041 3584 3536 3087 
Q 4031 2591 4031 1759 
z
M 2881 2131 
Q 2881 2450 2695 2645 
Q 2509 2841 2209 2841 
Q 1884 2841 1681 2658 
Q 1478 2475 1428 2131 
L 2881 2131 
z
" transform="scale(0.015625)"/>
       <path id="DejaVuSans-Bold-73" d="M 3272 3391 
L 3272 2541 
Q 2913 2691 2578 2766 
Q 2244 2841 1947 2841 
Q 1628 2841 1473 2761 
Q 1319 2681 1319 2516 
Q 1319 2381 1436 2309 
Q 1553 2238 1856 2203 
L 2053 2175 
Q 2913 2066 3209 1816 
Q 3506 1566 3506 1031 
Q 3506 472 3093 190 
Q 2681 -91 1863 -91 
Q 1516 -91 1145 -36 
Q 775 19 384 128 
L 384 978 
Q 719 816 1070 734 
Q 1422 653 1784 653 
Q 2113 653 2278 743 
Q 2444 834 2444 1013 
Q 2444 1163 2330 1236 
Q 2216 1309 1875 1350 
L 1678 1375 
Q 931 1469 631 1722 
Q 331 1975 331 2491 
Q 331 3047 712 3315 
Q 1094 3584 1881 3584 
Q 2191 3584 2531 3537 
Q 2872 3491 3272 3391 
z
" transform="scale(0.015625)"/>
       <path id="DejaVuSans-Bold-69" d="M 538 3500 
L 1656 3500 
L 1656 0 
L 538 0 
L 538 3500 
z
M 538 4863 
L 1656 4863 
L 1656 3950 
L 538 3950 
L 538 4863 
z
" transform="scale(0.015625)"/>
       <path id="DejaVuSans-Bold-74" d="M 1759 4494 
L 1759 3500 
L 2913 3500 
L 2913 2700 
L 1759 2700 
L 1759 1216 
Q 1759 972 1856 886 
Q 1953 800 2241 800 
L 2816 800 
L 2816 0 
L 1856 0 
Q 1194 0 917 276 
Q 641 553 641 1216 
L 641 2700 
L 84 2700 
L 84 3500 
L 641 3500 
L 641 4494 
L 1759 4494 
z
" transform="scale(0.015625)"/>
       <path id="DejaVuSans-Bold-76" d="M 97 3500 
L 1216 3500 
L 2088 1081 
L 2956 3500 
L 4078 3500 
L 2700 0 
L 1472 0 
L 97 3500 
z
" transform="scale(0.015625)"/>
       <path id="DejaVuSans-Bold-79" d="M 78 3500 
L 1197 3500 
L 2138 1125 
L 2938 3500 
L 4056 3500 
L 2584 -331 
Q 2363 -916 2067 -1148 
Q 1772 -1381 1288 -1381 
L 641 -1381 
L 641 -647 
L 991 -647 
Q 1275 -647 1404 -556 
Q 1534 -466 1606 -231 
L 1638 -134 
L 78 3500 
z
" transform="scale(0.015625)"/>
       <path id="DejaVuSans-Bold-20" transform="scale(0.015625)"/>
       <path id="DejaVuSans-Bold-5b" d="M 550 4863 
L 2491 4863 
L 2491 4159 
L 1613 4159 
L 1613 -141 
L 2491 -141 
L 2491 -844 
L 550 -844 
L 550 4863 
z
" transform="scale(0.015625)"/>
       <path id="DejaVuSans-Bold-3a9" d="M 2719 4750 
Q 3841 4750 4480 4106 
Q 5119 3463 5119 2494 
Q 5119 1406 4306 909 
L 5266 909 
L 5266 0 
L 3125 0 
L 3125 975 
Q 3244 1041 3334 1131 
Q 3875 1678 3875 2466 
Q 3875 3066 3572 3472 
Q 3269 3878 2719 3878 
Q 2169 3878 1866 3472 
Q 1563 3066 1563 2466 
Q 1563 1678 2103 1131 
Q 2194 1041 2313 975 
L 2313 0 
L 172 0 
L 172 909 
L 1131 909 
Q 319 1406 319 2494 
Q 319 3463 958 4106 
Q 1597 4750 2719 4750 
z
" transform="scale(0.015625)"/>
       <path id="DejaVuSans-Bold-6d" d="M 3781 2919 
Q 3994 3244 4286 3414 
Q 4578 3584 4928 3584 
Q 5531 3584 5847 3212 
Q 6163 2841 6163 2131 
L 6163 0 
L 5038 0 
L 5038 1825 
Q 5041 1866 5042 1909 
Q 5044 1953 5044 2034 
Q 5044 2406 4934 2573 
Q 4825 2741 4581 2741 
Q 4263 2741 4089 2478 
Q 3916 2216 3909 1719 
L 3909 0 
L 2784 0 
L 2784 1825 
Q 2784 2406 2684 2573 
Q 2584 2741 2328 2741 
Q 2006 2741 1831 2477 
Q 1656 2213 1656 1722 
L 1656 0 
L 531 0 
L 531 3500 
L 1656 3500 
L 1656 2988 
Q 1863 3284 2130 3434 
Q 2397 3584 2719 3584 
Q 3081 3584 3359 3409 
Q 3638 3234 3781 2919 
z
" transform="scale(0.015625)"/>
       <path id="DejaVuSans-Bold-5d" d="M 2375 -844 
L 434 -844 
L 434 -141 
L 1313 -141 
L 1313 4159 
L 434 4159 
L 434 4863 
L 2375 4863 
L 2375 -844 
z
" transform="scale(0.015625)"/>
      </defs>
      <use xlink:href="#DejaVuSans-Bold-52" transform="translate(0 0.015625)"/>
      <use xlink:href="#DejaVuSans-Bold-65" transform="translate(77.001953 0.015625)"/>
      <use xlink:href="#DejaVuSans-Bold-73" transform="translate(144.824219 0.015625)"/>
      <use xlink:href="#DejaVuSans-Bold-69" transform="translate(204.345703 0.015625)"/>
      <use xlink:href="#DejaVuSans-Bold-73" transform="translate(238.623047 0.015625)"/>
      <use xlink:href="#DejaVuSans-Bold-74" transform="translate(298.144531 0.015625)"/>
      <use xlink:href="#DejaVuSans-Bold-69" transform="translate(345.947266 0.015625)"/>
      <use xlink:href="#DejaVuSans-Bold-76" transform="translate(380.224609 0.015625)"/>
      <use xlink:href="#DejaVuSans-Bold-69" transform="translate(445.410156 0.015625)"/>
      <use xlink:href="#DejaVuSans-Bold-74" transform="translate(479.6875 0.015625)"/>
      <use xlink:href="#DejaVuSans-Bold-79" transform="translate(527.490234 0.015625)"/>
      <use xlink:href="#DejaVuSans-Bold-20" transform="translate(592.675781 0.015625)"/>
      <use xlink:href="#DejaVuSans-Bold-20" transform="translate(627.490234 0.015625)"/>
      <use xlink:href="#DejaVuSans-Bold-5b" transform="translate(662.304688 0.015625)"/>
      <use xlink:href="#DejaVuSans-Bold-3a9" transform="translate(708.007812 0.015625)"/>
      <use xlink:href="#DejaVuSans-Bold-6d" transform="translate(793.017578 0.015625)"/>
      <use xlink:href="#DejaVuSans-Bold-5d" transform="translate(897.216797 0.015625)"/>
     </g>
    </g>
   </g>
   <g id="line2d_4">
    <path d="M 198.900967 28.063636 
L 198.900967 36.941779 
L 187.114904 36.941779 
L 187.114904 45.819923 
L 139.160938 45.819923 
L 139.160938 54.698066 
L 115.677987 54.698066 
L 115.677987 63.576209 
L 97.213474 63.576209 
L 97.213474 72.454352 
L 103.018925 72.454352 
L 103.018925 81.332495 
L 81.016777 81.332495 
L 81.016777 90.210638 
L 80.67956 90.210638 
L 80.67956 99.088781 
L 101.281872 99.088781 
L 101.281872 107.966925 
L 106.270998 107.966925 
L 106.270998 116.845068 
L 94.118467 116.845068 
L 94.118467 125.723211 
L 96.628115 125.723211 
L 96.628115 134.601354 
L 115.275726 134.601354 
L 115.275726 143.479497 
L 101.77653 143.479497 
L 101.77653 152.35764 
L 113.704364 152.35764 
L 113.704364 161.235783 
L 136.301301 161.235783 
L 136.301301 170.113926 
L 163.921835 170.113926 
L 163.921835 178.99207 
L 185.465957 178.99207 
L 185.465957 187.870213 
L 210.213567 187.870213 
L 210.213567 196.748356 
L 210.245029 196.748356 
L 210.245029 205.626499 
L 227.302689 205.626499 
L 227.302689 214.504642 
L 211.854698 214.504642 
L 211.854698 223.382785 
L 192.924343 223.382785 
L 192.924343 232.260928 
L 200.858597 232.260928 
L 200.858597 241.139072 
L 190.364534 241.139072 
L 190.364534 250.017215 
L 167.61573 250.017215 
L 167.61573 258.895358 
L 194.790959 258.895358 
L 194.790959 267.773501 
L 192.78024 267.773501 
L 192.78024 276.651644 
L 234.740962 276.651644 
L 234.740962 285.529787 
L 211.084567 285.529787 
L 211.084567 294.40793 
L 224.282057 294.40793 
L 224.282057 303.286074 
L 196.00382 303.286074 
L 196.00382 312.164217 
L 188.922877 312.164217 
L 188.922877 321.04236 
L 195.567856 321.04236 
L 195.567856 329.920503 
L 185.670541 329.920503 
L 185.670541 338.798646 
L 180.495955 338.798646 
L 180.495955 347.676789 
L 138.351146 347.676789 
L 138.351146 356.554932 
L 131.472858 356.554932 
L 131.472858 365.433075 
L 152.506288 365.433075 
L 152.506288 374.311219 
L 116.303885 374.311219 
L 116.303885 383.189362 
L 107.71732 383.189362 
L 107.71732 392.067505 
L 88.101749 392.067505 
L 88.101749 400.945648 
L 79.664366 400.945648 
L 79.664366 409.823791 
L 88.266762 409.823791 
L 88.266762 418.701934 
L 81.77249 418.701934 
L 81.77249 427.580077 
L 78.485743 427.580077 
L 78.485743 436.458221 
L 60.609637 436.458221 
L 60.609637 445.336364 
L 66.966501 445.336364 
" clip-path="url(#p55d0104636)" style="fill: none; stroke: #fecc5c; stroke-opacity: 0.3; stroke-width: 2; stroke-linecap: square"/>
   </g>
   <g id="line2d_5">
    <path d="M 180.103286 28.063636 
L 180.103286 36.941779 
L 187.089399 36.941779 
L 187.089399 45.819923 
L 155.807473 45.819923 
L 155.807473 54.698066 
L 114.511986 54.698066 
L 114.511986 63.576209 
L 84.424666 63.576209 
L 84.424666 72.454352 
L 98.569044 72.454352 
L 98.569044 81.332495 
L 82.369601 81.332495 
L 82.369601 90.210638 
L 80.061992 90.210638 
L 80.061992 99.088781 
L 73.982501 99.088781 
L 73.982501 107.966925 
L 100.87009 107.966925 
L 100.87009 116.845068 
L 105.93668 116.845068 
L 105.93668 125.723211 
L 111.651996 125.723211 
L 111.651996 134.601354 
L 125.858814 134.601354 
L 125.858814 143.479497 
L 148.936626 143.479497 
L 148.936626 152.35764 
L 142.029208 152.35764 
L 142.029208 161.235783 
L 145.464359 161.235783 
L 145.464359 170.113926 
L 143.883627 170.113926 
L 143.883627 178.99207 
L 177.614943 178.99207 
L 177.614943 187.870213 
L 213.956714 187.870213 
L 213.956714 196.748356 
L 208.175182 196.748356 
L 208.175182 205.626499 
L 215.027592 205.626499 
L 215.027592 214.504642 
L 162.111742 214.504642 
L 162.111742 223.382785 
L 129.450416 223.382785 
L 129.450416 232.260928 
L 155.305152 232.260928 
L 155.305152 241.139072 
L 167.002181 241.139072 
L 167.002181 250.017215 
L 167.273121 250.017215 
L 167.273121 258.895358 
L 174.25144 258.895358 
L 174.25144 267.773501 
L 198.395355 267.773501 
L 198.395355 276.651644 
L 199.723745 276.651644 
L 199.723745 285.529787 
L 179.977923 285.529787 
L 179.977923 294.40793 
L 162.068265 294.40793 
L 162.068265 303.286074 
L 183.489366 303.286074 
L 183.489366 312.164217 
L 209.614618 312.164217 
L 209.614618 321.04236 
L 211.383576 321.04236 
L 211.383576 329.920503 
L 192.194882 329.920503 
L 192.194882 338.798646 
L 211.989755 338.798646 
L 211.989755 347.676789 
L 229.012318 347.676789 
L 229.012318 356.554932 
L 202.785491 356.554932 
L 202.785491 365.433075 
L 139.043188 365.433075 
L 139.043188 374.311219 
L 129.363906 374.311219 
L 129.363906 383.189362 
L 128.601629 383.189362 
L 128.601629 392.067505 
L 131.408157 392.067505 
L 131.408157 400.945648 
L 124.952252 400.945648 
L 124.952252 409.823791 
L 96.029661 409.823791 
L 96.029661 418.701934 
L 97.701891 418.701934 
L 97.701891 427.580077 
L 72.470034 427.580077 
L 72.470034 436.458221 
L 56.368425 436.458221 
L 56.368425 445.336364 
L 66.369824 445.336364 
" clip-path="url(#p55d0104636)" style="fill: none; stroke: #fecc5c; stroke-opacity: 0.3; stroke-width: 2; stroke-linecap: square"/>
   </g>
   <g id="line2d_6">
    <path d="M 204.541486 28.063636 
L 204.541486 36.941779 
L 178.556379 36.941779 
L 178.556379 45.819923 
L 142.593141 45.819923 
L 142.593141 54.698066 
L 106.558245 54.698066 
L 106.558245 63.576209 
L 124.308181 63.576209 
L 124.308181 72.454352 
L 91.231922 72.454352 
L 91.231922 81.332495 
L 80.907922 81.332495 
L 80.907922 90.210638 
L 85.665546 90.210638 
L 85.665546 99.088781 
L 79.98775 99.088781 
L 79.98775 107.966925 
L 89.478008 107.966925 
L 89.478008 116.845068 
L 89.927846 116.845068 
L 89.927846 125.723211 
L 110.192871 125.723211 
L 110.192871 134.601354 
L 99.327504 134.601354 
L 99.327504 143.479497 
L 135.109916 143.479497 
L 135.109916 152.35764 
L 115.525019 152.35764 
L 115.525019 161.235783 
L 123.649044 161.235783 
L 123.649044 170.113926 
L 157.800866 170.113926 
L 157.800866 178.99207 
L 178.325119 178.99207 
L 178.325119 187.870213 
L 204.618707 187.870213 
L 204.618707 196.748356 
L 222.563623 196.748356 
L 222.563623 205.626499 
L 259.377768 205.626499 
L 259.377768 214.504642 
L 264.927273 214.504642 
L 264.927273 223.382785 
L 246.217192 223.382785 
L 246.217192 232.260928 
L 239.00931 232.260928 
L 239.00931 241.139072 
L 235.739426 241.139072 
L 235.739426 250.017215 
L 227.188614 250.017215 
L 227.188614 258.895358 
L 226.636374 258.895358 
L 226.636374 267.773501 
L 208.603533 267.773501 
L 208.603533 276.651644 
L 202.382079 276.651644 
L 202.382079 285.529787 
L 224.776119 285.529787 
L 224.776119 294.40793 
L 216.908747 294.40793 
L 216.908747 303.286074 
L 193.843061 303.286074 
L 193.843061 312.164217 
L 182.020043 312.164217 
L 182.020043 321.04236 
L 150.746659 321.04236 
L 150.746659 329.920503 
L 154.321935 329.920503 
L 154.321935 338.798646 
L 136.623393 338.798646 
L 136.623393 347.676789 
L 133.066726 347.676789 
L 133.066726 356.554932 
L 140.765842 356.554932 
L 140.765842 365.433075 
L 145.600122 365.433075 
L 145.600122 374.311219 
L 127.391898 374.311219 
L 127.391898 383.189362 
L 96.647764 383.189362 
L 96.647764 392.067505 
L 82.741006 392.067505 
L 82.741006 400.945648 
L 60.486001 400.945648 
L 60.486001 409.823791 
L 47.83917 409.823791 
L 47.83917 418.701934 
L 51.77588 418.701934 
L 51.77588 427.580077 
L 61.343925 427.580077 
L 61.343925 436.458221 
L 69.974229 436.458221 
L 69.974229 445.336364 
L 66.971428 445.336364 
" clip-path="url(#p55d0104636)" style="fill: none; stroke: #fecc5c; stroke-opacity: 0.3; stroke-width: 2; stroke-linecap: square"/>
   </g>
   <g id="line2d_7">
    <path d="M 193.440195 28.063636 
L 193.440195 36.941779 
L 180.839613 36.941779 
L 180.839613 45.819923 
L 155.465895 45.819923 
L 155.465895 54.698066 
L 130.371123 54.698066 
L 130.371123 63.576209 
L 68.84911 63.576209 
L 68.84911 72.454352 
L 62.078071 72.454352 
L 62.078071 81.332495 
L 93.250911 81.332495 
L 93.250911 90.210638 
L 98.958351 90.210638 
L 98.958351 99.088781 
L 123.767986 99.088781 
L 123.767986 107.966925 
L 126.127341 107.966925 
L 126.127341 116.845068 
L 129.667591 116.845068 
L 129.667591 125.723211 
L 101.786031 125.723211 
L 101.786031 134.601354 
L 115.897706 134.601354 
L 115.897706 143.479497 
L 109.57603 143.479497 
L 109.57603 152.35764 
L 112.317594 152.35764 
L 112.317594 161.235783 
L 120.650373 161.235783 
L 120.650373 170.113926 
L 138.023986 170.113926 
L 138.023986 178.99207 
L 155.94677 178.99207 
L 155.94677 187.870213 
L 175.441219 187.870213 
L 175.441219 196.748356 
L 196.841238 196.748356 
L 196.841238 205.626499 
L 187.717609 205.626499 
L 187.717609 214.504642 
L 179.580973 214.504642 
L 179.580973 223.382785 
L 182.264611 223.382785 
L 182.264611 232.260928 
L 196.506727 232.260928 
L 196.506727 241.139072 
L 174.413374 241.139072 
L 174.413374 250.017215 
L 168.994564 250.017215 
L 168.994564 258.895358 
L 207.271266 258.895358 
L 207.271266 267.773501 
L 229.103938 267.773501 
L 229.103938 276.651644 
L 240.501957 276.651644 
L 240.501957 285.529787 
L 228.889702 285.529787 
L 228.889702 294.40793 
L 214.903319 294.40793 
L 214.903319 303.286074 
L 207.14356 303.286074 
L 207.14356 312.164217 
L 193.671474 312.164217 
L 193.671474 321.04236 
L 203.82719 321.04236 
L 203.82719 329.920503 
L 185.300933 329.920503 
L 185.300933 338.798646 
L 184.372825 338.798646 
L 184.372825 347.676789 
L 166.601535 347.676789 
L 166.601535 356.554932 
L 141.246425 356.554932 
L 141.246425 365.433075 
L 141.86378 365.433075 
L 141.86378 374.311219 
L 139.11427 374.311219 
L 139.11427 383.189362 
L 115.814366 383.189362 
L 115.814366 392.067505 
L 114.010028 392.067505 
L 114.010028 400.945648 
L 74.587397 400.945648 
L 74.587397 409.823791 
L 110.140963 409.823791 
L 110.140963 418.701934 
L 116.798654 418.701934 
L 116.798654 427.580077 
L 87.857222 427.580077 
L 87.857222 436.458221 
L 65.040949 436.458221 
L 65.040949 445.336364 
L 64.272433 445.336364 
" clip-path="url(#p55d0104636)" style="fill: none; stroke: #fecc5c; stroke-opacity: 0.3; stroke-width: 2; stroke-linecap: square"/>
   </g>
   <g id="line2d_8">
    <path d="M 205.36087 28.063636 
L 205.36087 36.941779 
L 181.987693 36.941779 
L 181.987693 45.819923 
L 140.189329 45.819923 
L 140.189329 54.698066 
L 107.956213 54.698066 
L 107.956213 63.576209 
L 116.794857 63.576209 
L 116.794857 72.454352 
L 95.338164 72.454352 
L 95.338164 81.332495 
L 83.295266 81.332495 
L 83.295266 90.210638 
L 68.617003 90.210638 
L 68.617003 99.088781 
L 88.735188 99.088781 
L 88.735188 107.966925 
L 100.653279 107.966925 
L 100.653279 116.845068 
L 77.994791 116.845068 
L 77.994791 125.723211 
L 114.316348 125.723211 
L 114.316348 134.601354 
L 112.617573 134.601354 
L 112.617573 143.479497 
L 115.651725 143.479497 
L 115.651725 152.35764 
L 147.284186 152.35764 
L 147.284186 161.235783 
L 165.469146 161.235783 
L 165.469146 170.113926 
L 155.657574 170.113926 
L 155.657574 178.99207 
L 154.944207 178.99207 
L 154.944207 187.870213 
L 195.195139 187.870213 
L 195.195139 196.748356 
L 193.58351 196.748356 
L 193.58351 205.626499 
L 224.869475 205.626499 
L 224.869475 214.504642 
L 248.182576 214.504642 
L 248.182576 223.382785 
L 198.209329 223.382785 
L 198.209329 232.260928 
L 180.384626 232.260928 
L 180.384626 241.139072 
L 193.182077 241.139072 
L 193.182077 250.017215 
L 170.427053 250.017215 
L 170.427053 258.895358 
L 188.09281 258.895358 
L 188.09281 267.773501 
L 202.970325 267.773501 
L 202.970325 276.651644 
L 216.818885 276.651644 
L 216.818885 285.529787 
L 198.92411 285.529787 
L 198.92411 294.40793 
L 190.282406 294.40793 
L 190.282406 303.286074 
L 176.039946 303.286074 
L 176.039946 312.164217 
L 173.411276 312.164217 
L 173.411276 321.04236 
L 149.599367 321.04236 
L 149.599367 329.920503 
L 144.735402 329.920503 
L 144.735402 338.798646 
L 152.301603 338.798646 
L 152.301603 347.676789 
L 167.475766 347.676789 
L 167.475766 356.554932 
L 178.394949 356.554932 
L 178.394949 365.433075 
L 176.55719 365.433075 
L 176.55719 374.311219 
L 132.668786 374.311219 
L 132.668786 383.189362 
L 103.768943 383.189362 
L 103.768943 392.067505 
L 114.317156 392.067505 
L 114.317156 400.945648 
L 104.6344 400.945648 
L 104.6344 409.823791 
L 110.779693 409.823791 
L 110.779693 418.701934 
L 79.453149 418.701934 
L 79.453149 427.580077 
L 77.636593 427.580077 
L 77.636593 436.458221 
L 62.043479 436.458221 
L 62.043479 445.336364 
L 66.413493 445.336364 
" clip-path="url(#p55d0104636)" style="fill: none; stroke: #fecc5c; stroke-opacity: 0.3; stroke-width: 2; stroke-linecap: square"/>
   </g>
   <g id="line2d_9">
    <path d="M 184.894533 28.063636 
L 184.894533 36.941779 
L 191.274306 36.941779 
L 191.274306 45.819923 
L 148.47023 45.819923 
L 148.47023 54.698066 
L 116.277017 54.698066 
L 116.277017 63.576209 
L 84.637559 63.576209 
L 84.637559 72.454352 
L 96.972662 72.454352 
L 96.972662 81.332495 
L 82.304355 81.332495 
L 82.304355 90.210638 
L 72.685411 90.210638 
L 72.685411 99.088781 
L 97.134243 99.088781 
L 97.134243 107.966925 
L 106.54106 107.966925 
L 106.54106 116.845068 
L 108.367208 116.845068 
L 108.367208 125.723211 
L 85.913788 125.723211 
L 85.913788 134.601354 
L 122.957436 134.601354 
L 122.957436 143.479497 
L 142.826743 143.479497 
L 142.826743 152.35764 
L 153.767958 152.35764 
L 153.767958 161.235783 
L 171.444397 161.235783 
L 171.444397 170.113926 
L 155.682049 170.113926 
L 155.682049 178.99207 
L 156.132149 178.99207 
L 156.132149 187.870213 
L 177.342589 187.870213 
L 177.342589 196.748356 
L 188.827562 196.748356 
L 188.827562 205.626499 
L 154.386676 205.626499 
L 154.386676 214.504642 
L 161.932744 214.504642 
L 161.932744 223.382785 
L 184.481529 223.382785 
L 184.481529 232.260928 
L 183.345303 232.260928 
L 183.345303 241.139072 
L 193.007441 241.139072 
L 193.007441 250.017215 
L 202.608008 250.017215 
L 202.608008 258.895358 
L 203.261217 258.895358 
L 203.261217 267.773501 
L 207.500002 267.773501 
L 207.500002 276.651644 
L 230.494505 276.651644 
L 230.494505 285.529787 
L 238.774618 285.529787 
L 238.774618 294.40793 
L 235.58567 294.40793 
L 235.58567 303.286074 
L 239.132392 303.286074 
L 239.132392 312.164217 
L 215.242959 312.164217 
L 215.242959 321.04236 
L 206.596995 321.04236 
L 206.596995 329.920503 
L 196.557454 329.920503 
L 196.557454 338.798646 
L 186.358585 338.798646 
L 186.358585 347.676789 
L 170.088342 347.676789 
L 170.088342 356.554932 
L 137.785295 356.554932 
L 137.785295 365.433075 
L 121.226311 365.433075 
L 121.226311 374.311219 
L 113.965309 374.311219 
L 113.965309 383.189362 
L 97.864472 383.189362 
L 97.864472 392.067505 
L 107.480931 392.067505 
L 107.480931 400.945648 
L 74.656288 400.945648 
L 74.656288 409.823791 
L 69.736185 409.823791 
L 69.736185 418.701934 
L 63.527766 418.701934 
L 63.527766 427.580077 
L 71.363726 427.580077 
L 71.363726 436.458221 
L 66.257647 436.458221 
L 66.257647 445.336364 
L 65.133518 445.336364 
" clip-path="url(#p55d0104636)" style="fill: none; stroke: #fecc5c; stroke-opacity: 0.3; stroke-width: 2; stroke-linecap: square"/>
   </g>
   <g id="line2d_10">
    <path d="M 206.717309 28.063636 
L 206.717309 36.941779 
L 170.054537 36.941779 
L 170.054537 45.819923 
L 142.922139 45.819923 
L 142.922139 54.698066 
L 138.423743 54.698066 
L 138.423743 63.576209 
L 99.706825 63.576209 
L 99.706825 72.454352 
L 89.010723 72.454352 
L 89.010723 81.332495 
L 81.233971 81.332495 
L 81.233971 90.210638 
L 88.038512 90.210638 
L 88.038512 99.088781 
L 76.566149 99.088781 
L 76.566149 107.966925 
L 81.9298 107.966925 
L 81.9298 116.845068 
L 105.899674 116.845068 
L 105.899674 125.723211 
L 101.460729 125.723211 
L 101.460729 134.601354 
L 112.57142 134.601354 
L 112.57142 143.479497 
L 130.571749 143.479497 
L 130.571749 152.35764 
L 144.259252 152.35764 
L 144.259252 161.235783 
L 164.353741 161.235783 
L 164.353741 170.113926 
L 159.258193 170.113926 
L 159.258193 178.99207 
L 182.460289 178.99207 
L 182.460289 187.870213 
L 204.700007 187.870213 
L 204.700007 196.748356 
L 195.148491 196.748356 
L 195.148491 205.626499 
L 179.046301 205.626499 
L 179.046301 214.504642 
L 194.845806 214.504642 
L 194.845806 223.382785 
L 193.538135 223.382785 
L 193.538135 232.260928 
L 205.632416 232.260928 
L 205.632416 241.139072 
L 206.249519 241.139072 
L 206.249519 250.017215 
L 194.613173 250.017215 
L 194.613173 258.895358 
L 185.958525 258.895358 
L 185.958525 267.773501 
L 187.699515 267.773501 
L 187.699515 276.651644 
L 167.908964 276.651644 
L 167.908964 285.529787 
L 170.077478 285.529787 
L 170.077478 294.40793 
L 176.001073 294.40793 
L 176.001073 303.286074 
L 202.482099 303.286074 
L 202.482099 312.164217 
L 175.618743 312.164217 
L 175.618743 321.04236 
L 172.775029 321.04236 
L 172.775029 329.920503 
L 165.065815 329.920503 
L 165.065815 338.798646 
L 155.573305 338.798646 
L 155.573305 347.676789 
L 152.652451 347.676789 
L 152.652451 356.554932 
L 149.299873 356.554932 
L 149.299873 365.433075 
L 138.716321 365.433075 
L 138.716321 374.311219 
L 145.347134 374.311219 
L 145.347134 383.189362 
L 153.50356 383.189362 
L 153.50356 392.067505 
L 139.893308 392.067505 
L 139.893308 400.945648 
L 131.323605 400.945648 
L 131.323605 409.823791 
L 126.808024 409.823791 
L 126.808024 418.701934 
L 92.597035 418.701934 
L 92.597035 427.580077 
L 72.112018 427.580077 
L 72.112018 436.458221 
L 73.185794 436.458221 
L 73.185794 445.336364 
L 65.291837 445.336364 
" clip-path="url(#p55d0104636)" style="fill: none; stroke: #fecc5c; stroke-opacity: 0.3; stroke-width: 2; stroke-linecap: square"/>
   </g>
   <g id="line2d_11">
    <path d="M 198.748504 28.063636 
L 198.748504 36.941779 
L 188.228432 36.941779 
L 188.228432 45.819923 
L 134.732352 45.819923 
L 134.732352 54.698066 
L 114.347477 54.698066 
L 114.347477 63.576209 
L 110.145042 63.576209 
L 110.145042 72.454352 
L 97.234142 72.454352 
L 97.234142 81.332495 
L 79.085651 81.332495 
L 79.085651 90.210638 
L 93.384291 90.210638 
L 93.384291 99.088781 
L 69.776289 99.088781 
L 69.776289 107.966925 
L 104.128464 107.966925 
L 104.128464 116.845068 
L 90.019162 116.845068 
L 90.019162 125.723211 
L 91.363111 125.723211 
L 91.363111 134.601354 
L 119.700263 134.601354 
L 119.700263 143.479497 
L 122.679438 143.479497 
L 122.679438 152.35764 
L 161.759804 152.35764 
L 161.759804 161.235783 
L 180.687372 161.235783 
L 180.687372 170.113926 
L 174.016282 170.113926 
L 174.016282 178.99207 
L 186.861956 178.99207 
L 186.861956 187.870213 
L 190.929699 187.870213 
L 190.929699 196.748356 
L 162.409601 196.748356 
L 162.409601 205.626499 
L 192.801262 205.626499 
L 192.801262 214.504642 
L 188.869727 214.504642 
L 188.869727 223.382785 
L 204.8347 223.382785 
L 204.8347 232.260928 
L 219.650543 232.260928 
L 219.650543 241.139072 
L 210.596643 241.139072 
L 210.596643 250.017215 
L 215.16905 250.017215 
L 215.16905 258.895358 
L 222.210918 258.895358 
L 222.210918 267.773501 
L 194.915757 267.773501 
L 194.915757 276.651644 
L 197.883623 276.651644 
L 197.883623 285.529787 
L 207.390491 285.529787 
L 207.390491 294.40793 
L 189.322755 294.40793 
L 189.322755 303.286074 
L 186.440976 303.286074 
L 186.440976 312.164217 
L 174.204509 312.164217 
L 174.204509 321.04236 
L 174.243039 321.04236 
L 174.243039 329.920503 
L 184.609335 329.920503 
L 184.609335 338.798646 
L 180.163948 338.798646 
L 180.163948 347.676789 
L 164.084375 347.676789 
L 164.084375 356.554932 
L 176.958522 356.554932 
L 176.958522 365.433075 
L 131.047142 365.433075 
L 131.047142 374.311219 
L 128.060122 374.311219 
L 128.060122 383.189362 
L 88.680534 383.189362 
L 88.680534 392.067505 
L 75.064971 392.067505 
L 75.064971 400.945648 
L 46.789051 400.945648 
L 46.789051 409.823791 
L 70.558639 409.823791 
L 70.558639 418.701934 
L 69.816081 418.701934 
L 69.816081 427.580077 
L 103.167551 427.580077 
L 103.167551 436.458221 
L 79.93356 436.458221 
L 79.93356 445.336364 
L 66.668016 445.336364 
" clip-path="url(#p55d0104636)" style="fill: none; stroke: #fecc5c; stroke-opacity: 0.3; stroke-width: 2; stroke-linecap: square"/>
   </g>
   <g id="line2d_12">
    <path d="M 206.607839 28.063636 
L 206.607839 36.941779 
L 177.857228 36.941779 
L 177.857228 45.819923 
L 136.661953 45.819923 
L 136.661953 54.698066 
L 131.837861 54.698066 
L 131.837861 63.576209 
L 97.799024 63.576209 
L 97.799024 72.454352 
L 88.994952 72.454352 
L 88.994952 81.332495 
L 85.674704 81.332495 
L 85.674704 90.210638 
L 67.045933 90.210638 
L 67.045933 99.088781 
L 81.185213 99.088781 
L 81.185213 107.966925 
L 108.191411 107.966925 
L 108.191411 116.845068 
L 99.657602 116.845068 
L 99.657602 125.723211 
L 112.061678 125.723211 
L 112.061678 134.601354 
L 149.457102 134.601354 
L 149.457102 143.479497 
L 150.460533 143.479497 
L 150.460533 152.35764 
L 166.384431 152.35764 
L 166.384431 161.235783 
L 149.82471 161.235783 
L 149.82471 170.113926 
L 154.510767 170.113926 
L 154.510767 178.99207 
L 180.119502 178.99207 
L 180.119502 187.870213 
L 176.000366 187.870213 
L 176.000366 196.748356 
L 158.944038 196.748356 
L 158.944038 205.626499 
L 149.61114 205.626499 
L 149.61114 214.504642 
L 170.750073 214.504642 
L 170.750073 223.382785 
L 144.958665 223.382785 
L 144.958665 232.260928 
L 144.973831 232.260928 
L 144.973831 241.139072 
L 153.969855 241.139072 
L 153.969855 250.017215 
L 166.292792 250.017215 
L 166.292792 258.895358 
L 192.269902 258.895358 
L 192.269902 267.773501 
L 204.677168 267.773501 
L 204.677168 276.651644 
L 218.735662 276.651644 
L 218.735662 285.529787 
L 218.166782 285.529787 
L 218.166782 294.40793 
L 207.566217 294.40793 
L 207.566217 303.286074 
L 195.075773 303.286074 
L 195.075773 312.164217 
L 153.211275 312.164217 
L 153.211275 321.04236 
L 168.907872 321.04236 
L 168.907872 329.920503 
L 168.460619 329.920503 
L 168.460619 338.798646 
L 174.449157 338.798646 
L 174.449157 347.676789 
L 186.654727 347.676789 
L 186.654727 356.554932 
L 163.837324 356.554932 
L 163.837324 365.433075 
L 142.352047 365.433075 
L 142.352047 374.311219 
L 149.35066 374.311219 
L 149.35066 383.189362 
L 171.142257 383.189362 
L 171.142257 392.067505 
L 169.279498 392.067505 
L 169.279498 400.945648 
L 125.957269 400.945648 
L 125.957269 409.823791 
L 124.723265 409.823791 
L 124.723265 418.701934 
L 104.135845 418.701934 
L 104.135845 427.580077 
L 95.559388 427.580077 
L 95.559388 436.458221 
L 74.535761 436.458221 
L 74.535761 445.336364 
L 64.629531 445.336364 
" clip-path="url(#p55d0104636)" style="fill: none; stroke: #fecc5c; stroke-opacity: 0.3; stroke-width: 2; stroke-linecap: square"/>
   </g>
   <g id="line2d_13">
    <path d="M 205.68595 28.063636 
L 205.68595 36.941779 
L 177.355089 36.941779 
L 177.355089 45.819923 
L 141.215226 45.819923 
L 141.215226 54.698066 
L 130.949747 54.698066 
L 130.949747 63.576209 
L 103.387149 63.576209 
L 103.387149 72.454352 
L 101.051279 72.454352 
L 101.051279 81.332495 
L 77.046701 81.332495 
L 77.046701 90.210638 
L 47.687409 90.210638 
L 47.687409 99.088781 
L 65.904538 99.088781 
L 65.904538 107.966925 
L 88.027577 107.966925 
L 88.027577 116.845068 
L 100.275937 116.845068 
L 100.275937 125.723211 
L 151.730098 125.723211 
L 151.730098 134.601354 
L 171.235593 134.601354 
L 171.235593 143.479497 
L 153.859375 143.479497 
L 153.859375 152.35764 
L 147.969281 152.35764 
L 147.969281 161.235783 
L 147.128734 161.235783 
L 147.128734 170.113926 
L 163.652672 170.113926 
L 163.652672 178.99207 
L 159.792885 178.99207 
L 159.792885 187.870213 
L 194.917898 187.870213 
L 194.917898 196.748356 
L 204.971715 196.748356 
L 204.971715 205.626499 
L 176.156424 205.626499 
L 176.156424 214.504642 
L 156.905754 214.504642 
L 156.905754 223.382785 
L 152.03353 223.382785 
L 152.03353 232.260928 
L 179.837939 232.260928 
L 179.837939 241.139072 
L 199.074432 241.139072 
L 199.074432 250.017215 
L 173.461134 250.017215 
L 173.461134 258.895358 
L 169.684566 258.895358 
L 169.684566 267.773501 
L 185.852669 267.773501 
L 185.852669 276.651644 
L 170.876022 276.651644 
L 170.876022 285.529787 
L 154.153175 285.529787 
L 154.153175 294.40793 
L 159.717966 294.40793 
L 159.717966 303.286074 
L 176.194832 303.286074 
L 176.194832 312.164217 
L 177.63027 312.164217 
L 177.63027 321.04236 
L 186.706989 321.04236 
L 186.706989 329.920503 
L 199.288043 329.920503 
L 199.288043 338.798646 
L 187.42807 338.798646 
L 187.42807 347.676789 
L 188.48455 347.676789 
L 188.48455 356.554932 
L 157.885013 356.554932 
L 157.885013 365.433075 
L 177.734349 365.433075 
L 177.734349 374.311219 
L 152.869656 374.311219 
L 152.869656 383.189362 
L 145.315107 383.189362 
L 145.315107 392.067505 
L 125.913519 392.067505 
L 125.913519 400.945648 
L 118.754526 400.945648 
L 118.754526 409.823791 
L 93.404394 409.823791 
L 93.404394 418.701934 
L 107.973519 418.701934 
L 107.973519 427.580077 
L 99.188116 427.580077 
L 99.188116 436.458221 
L 83.286915 436.458221 
L 83.286915 445.336364 
L 67.20807 445.336364 
" clip-path="url(#p55d0104636)" style="fill: none; stroke: #fecc5c; stroke-opacity: 0.3; stroke-width: 2; stroke-linecap: square"/>
   </g>
   <g id="line2d_14">
    <path d="M 209.709832 28.063636 
L 209.709832 36.941779 
L 182.193003 36.941779 
L 182.193003 45.819923 
L 139.131132 45.819923 
L 139.131132 54.698066 
L 118.312554 54.698066 
L 118.312554 63.576209 
L 94.078777 63.576209 
L 94.078777 72.454352 
L 92.068169 72.454352 
L 92.068169 81.332495 
L 96.559234 81.332495 
L 96.559234 90.210638 
L 88.687511 90.210638 
L 88.687511 99.088781 
L 64.863385 99.088781 
L 64.863385 107.966925 
L 77.412957 107.966925 
L 77.412957 116.845068 
L 92.096793 116.845068 
L 92.096793 125.723211 
L 117.504306 125.723211 
L 117.504306 134.601354 
L 127.243766 134.601354 
L 127.243766 143.479497 
L 137.209508 143.479497 
L 137.209508 152.35764 
L 153.509214 152.35764 
L 153.509214 161.235783 
L 185.690008 161.235783 
L 185.690008 170.113926 
L 188.659247 170.113926 
L 188.659247 178.99207 
L 197.399032 178.99207 
L 197.399032 187.870213 
L 204.977672 187.870213 
L 204.977672 196.748356 
L 196.046409 196.748356 
L 196.046409 205.626499 
L 212.212331 205.626499 
L 212.212331 214.504642 
L 192.023537 214.504642 
L 192.023537 223.382785 
L 175.897297 223.382785 
L 175.897297 232.260928 
L 131.69917 232.260928 
L 131.69917 241.139072 
L 179.570008 241.139072 
L 179.570008 250.017215 
L 151.025374 250.017215 
L 151.025374 258.895358 
L 169.405124 258.895358 
L 169.405124 267.773501 
L 162.144617 267.773501 
L 162.144617 276.651644 
L 169.456073 276.651644 
L 169.456073 285.529787 
L 162.367476 285.529787 
L 162.367476 294.40793 
L 181.190501 294.40793 
L 181.190501 303.286074 
L 180.380648 303.286074 
L 180.380648 312.164217 
L 190.88396 312.164217 
L 190.88396 321.04236 
L 203.262328 321.04236 
L 203.262328 329.920503 
L 170.500134 329.920503 
L 170.500134 338.798646 
L 161.748899 338.798646 
L 161.748899 347.676789 
L 199.162417 347.676789 
L 199.162417 356.554932 
L 208.247193 356.554932 
L 208.247193 365.433075 
L 184.414728 365.433075 
L 184.414728 374.311219 
L 136.579158 374.311219 
L 136.579158 383.189362 
L 115.262701 383.189362 
L 115.262701 392.067505 
L 107.060486 392.067505 
L 107.060486 400.945648 
L 113.750507 400.945648 
L 113.750507 409.823791 
L 102.504174 409.823791 
L 102.504174 418.701934 
L 75.592282 418.701934 
L 75.592282 427.580077 
L 53.868844 427.580077 
L 53.868844 436.458221 
L 58.140832 436.458221 
L 58.140832 445.336364 
L 68.047597 445.336364 
" clip-path="url(#p55d0104636)" style="fill: none; stroke: #fecc5c; stroke-opacity: 0.3; stroke-width: 2; stroke-linecap: square"/>
   </g>
   <g id="line2d_15">
    <path d="M 196.334393 28.063636 
L 196.334393 36.941779 
L 172.044053 36.941779 
L 172.044053 45.819923 
L 158.587476 45.819923 
L 158.587476 54.698066 
L 116.847452 54.698066 
L 116.847452 63.576209 
L 98.152729 63.576209 
L 98.152729 72.454352 
L 86.145775 72.454352 
L 86.145775 81.332495 
L 74.803107 81.332495 
L 74.803107 90.210638 
L 99.865407 90.210638 
L 99.865407 99.088781 
L 79.95549 99.088781 
L 79.95549 107.966925 
L 120.001414 107.966925 
L 120.001414 116.845068 
L 131.416426 116.845068 
L 131.416426 125.723211 
L 89.534288 125.723211 
L 89.534288 134.601354 
L 84.883399 134.601354 
L 84.883399 143.479497 
L 110.12922 143.479497 
L 110.12922 152.35764 
L 118.291583 152.35764 
L 118.291583 161.235783 
L 160.858412 161.235783 
L 160.858412 170.113926 
L 183.985972 170.113926 
L 183.985972 178.99207 
L 184.131388 178.99207 
L 184.131388 187.870213 
L 190.241574 187.870213 
L 190.241574 196.748356 
L 168.996199 196.748356 
L 168.996199 205.626499 
L 175.325327 205.626499 
L 175.325327 214.504642 
L 194.466929 214.504642 
L 194.466929 223.382785 
L 187.320578 223.382785 
L 187.320578 232.260928 
L 200.956456 232.260928 
L 200.956456 241.139072 
L 205.911697 241.139072 
L 205.911697 250.017215 
L 212.156959 250.017215 
L 212.156959 258.895358 
L 215.84627 258.895358 
L 215.84627 267.773501 
L 189.797451 267.773501 
L 189.797451 276.651644 
L 196.736412 276.651644 
L 196.736412 285.529787 
L 178.000463 285.529787 
L 178.000463 294.40793 
L 177.880451 294.40793 
L 177.880451 303.286074 
L 156.908097 303.286074 
L 156.908097 312.164217 
L 162.706733 312.164217 
L 162.706733 321.04236 
L 171.824324 321.04236 
L 171.824324 329.920503 
L 161.034805 329.920503 
L 161.034805 338.798646 
L 179.415767 338.798646 
L 179.415767 347.676789 
L 198.751675 347.676789 
L 198.751675 356.554932 
L 182.314873 356.554932 
L 182.314873 365.433075 
L 149.747973 365.433075 
L 149.747973 374.311219 
L 123.444057 374.311219 
L 123.444057 383.189362 
L 100.135247 383.189362 
L 100.135247 392.067505 
L 106.935698 392.067505 
L 106.935698 400.945648 
L 92.114534 400.945648 
L 92.114534 409.823791 
L 93.948991 409.823791 
L 93.948991 418.701934 
L 101.748016 418.701934 
L 101.748016 427.580077 
L 72.907483 427.580077 
L 72.907483 436.458221 
L 63.192245 436.458221 
L 63.192245 445.336364 
L 65.913201 445.336364 
" clip-path="url(#p55d0104636)" style="fill: none; stroke: #fecc5c; stroke-opacity: 0.3; stroke-width: 2; stroke-linecap: square"/>
   </g>
   <g id="line2d_16">
    <path d="M 211.321359 28.063636 
L 211.321359 36.941779 
L 172.137671 36.941779 
L 172.137671 45.819923 
L 147.406762 45.819923 
L 147.406762 54.698066 
L 122.516766 54.698066 
L 122.516766 63.576209 
L 100.145849 63.576209 
L 100.145849 72.454352 
L 99.598293 72.454352 
L 99.598293 81.332495 
L 83.55409 81.332495 
L 83.55409 90.210638 
L 67.374002 90.210638 
L 67.374002 99.088781 
L 83.72911 99.088781 
L 83.72911 107.966925 
L 81.07448 107.966925 
L 81.07448 116.845068 
L 91.051369 116.845068 
L 91.051369 125.723211 
L 110.564629 125.723211 
L 110.564629 134.601354 
L 109.048164 134.601354 
L 109.048164 143.479497 
L 146.547717 143.479497 
L 146.547717 152.35764 
L 160.958978 152.35764 
L 160.958978 161.235783 
L 178.625825 161.235783 
L 178.625825 170.113926 
L 185.751599 170.113926 
L 185.751599 178.99207 
L 216.879305 178.99207 
L 216.879305 187.870213 
L 199.882811 187.870213 
L 199.882811 196.748356 
L 189.049593 196.748356 
L 189.049593 205.626499 
L 175.947054 205.626499 
L 175.947054 214.504642 
L 175.606001 214.504642 
L 175.606001 223.382785 
L 182.055302 223.382785 
L 182.055302 232.260928 
L 158.52859 232.260928 
L 158.52859 241.139072 
L 184.974945 241.139072 
L 184.974945 250.017215 
L 195.584092 250.017215 
L 195.584092 258.895358 
L 199.739375 258.895358 
L 199.739375 267.773501 
L 193.529835 267.773501 
L 193.529835 276.651644 
L 171.867357 276.651644 
L 171.867357 285.529787 
L 171.078647 285.529787 
L 171.078647 294.40793 
L 164.317452 294.40793 
L 164.317452 303.286074 
L 185.047763 303.286074 
L 185.047763 312.164217 
L 166.694144 312.164217 
L 166.694144 321.04236 
L 170.122449 321.04236 
L 170.122449 329.920503 
L 174.718018 329.920503 
L 174.718018 338.798646 
L 198.276736 338.798646 
L 198.276736 347.676789 
L 178.595777 347.676789 
L 178.595777 356.554932 
L 187.133018 356.554932 
L 187.133018 365.433075 
L 161.796961 365.433075 
L 161.796961 374.311219 
L 144.571671 374.311219 
L 144.571671 383.189362 
L 132.686799 383.189362 
L 132.686799 392.067505 
L 122.025703 392.067505 
L 122.025703 400.945648 
L 91.502055 400.945648 
L 91.502055 409.823791 
L 63.939376 409.823791 
L 63.939376 418.701934 
L 52.621032 418.701934 
L 52.621032 427.580077 
L 51.27052 427.580077 
L 51.27052 436.458221 
L 56.91234 436.458221 
L 56.91234 445.336364 
L 68.20102 445.336364 
" clip-path="url(#p55d0104636)" style="fill: none; stroke: #fecc5c; stroke-opacity: 0.3; stroke-width: 2; stroke-linecap: square"/>
   </g>
   <g id="line2d_17">
    <path d="M 208.379584 28.063636 
L 208.379584 36.941779 
L 182.96362 36.941779 
L 182.96362 45.819923 
L 135.038047 45.819923 
L 135.038047 54.698066 
L 128.077479 54.698066 
L 128.077479 63.576209 
L 101.087759 63.576209 
L 101.087759 72.454352 
L 78.71671 72.454352 
L 78.71671 81.332495 
L 66.365573 81.332495 
L 66.365573 90.210638 
L 83.264672 90.210638 
L 83.264672 99.088781 
L 107.439928 99.088781 
L 107.439928 107.966925 
L 92.133405 107.966925 
L 92.133405 116.845068 
L 118.038261 116.845068 
L 118.038261 125.723211 
L 115.954734 125.723211 
L 115.954734 134.601354 
L 116.01893 134.601354 
L 116.01893 143.479497 
L 121.498978 143.479497 
L 121.498978 152.35764 
L 133.679325 152.35764 
L 133.679325 161.235783 
L 138.82878 161.235783 
L 138.82878 170.113926 
L 142.292415 170.113926 
L 142.292415 178.99207 
L 176.384028 178.99207 
L 176.384028 187.870213 
L 195.776256 187.870213 
L 195.776256 196.748356 
L 202.108877 196.748356 
L 202.108877 205.626499 
L 195.82145 205.626499 
L 195.82145 214.504642 
L 205.309578 214.504642 
L 205.309578 223.382785 
L 192.469195 223.382785 
L 192.469195 232.260928 
L 181.162997 232.260928 
L 181.162997 241.139072 
L 186.215087 241.139072 
L 186.215087 250.017215 
L 190.364534 250.017215 
L 190.364534 258.895358 
L 203.417518 258.895358 
L 203.417518 267.773501 
L 183.041164 267.773501 
L 183.041164 276.651644 
L 193.569294 276.651644 
L 193.569294 285.529787 
L 198.805249 285.529787 
L 198.805249 294.40793 
L 191.98731 294.40793 
L 191.98731 303.286074 
L 194.843786 303.286074 
L 194.843786 312.164217 
L 209.289376 312.164217 
L 209.289376 321.04236 
L 188.695636 321.04236 
L 188.695636 329.920503 
L 164.717835 329.920503 
L 164.717835 338.798646 
L 144.653739 338.798646 
L 144.653739 347.676789 
L 153.45463 347.676789 
L 153.45463 356.554932 
L 138.906527 356.554932 
L 138.906527 365.433075 
L 132.279348 365.433075 
L 132.279348 374.311219 
L 120.319527 374.311219 
L 120.319527 383.189362 
L 110.75642 383.189362 
L 110.75642 392.067505 
L 99.244265 392.067505 
L 99.244265 400.945648 
L 105.738336 400.945648 
L 105.738336 409.823791 
L 111.006379 409.823791 
L 111.006379 418.701934 
L 77.881534 418.701934 
L 77.881534 427.580077 
L 87.863461 427.580077 
L 87.863461 436.458221 
L 65.064495 436.458221 
L 65.064495 445.336364 
L 66.555516 445.336364 
" clip-path="url(#p55d0104636)" style="fill: none; stroke: #fecc5c; stroke-opacity: 0.3; stroke-width: 2; stroke-linecap: square"/>
   </g>
   <g id="line2d_18">
    <path d="M 188.257592 28.063636 
L 188.257592 36.941779 
L 184.077612 36.941779 
L 184.077612 45.819923 
L 148.041495 45.819923 
L 148.041495 54.698066 
L 123.386211 54.698066 
L 123.386211 63.576209 
L 96.66825 63.576209 
L 96.66825 72.454352 
L 84.993102 72.454352 
L 84.993102 81.332495 
L 94.063308 81.332495 
L 94.063308 90.210638 
L 85.23778 90.210638 
L 85.23778 99.088781 
L 77.324952 99.088781 
L 77.324952 107.966925 
L 85.421594 107.966925 
L 85.421594 116.845068 
L 100.238922 116.845068 
L 100.238922 125.723211 
L 99.741942 125.723211 
L 99.741942 134.601354 
L 104.750606 134.601354 
L 104.750606 143.479497 
L 114.443135 143.479497 
L 114.443135 152.35764 
L 155.215875 152.35764 
L 155.215875 161.235783 
L 176.436896 161.235783 
L 176.436896 170.113926 
L 206.834555 170.113926 
L 206.834555 178.99207 
L 219.78877 178.99207 
L 219.78877 187.870213 
L 216.207436 187.870213 
L 216.207436 196.748356 
L 185.994207 196.748356 
L 185.994207 205.626499 
L 191.808069 205.626499 
L 191.808069 214.504642 
L 198.27815 214.504642 
L 198.27815 223.382785 
L 175.673307 223.382785 
L 175.673307 232.260928 
L 183.664689 232.260928 
L 183.664689 241.139072 
L 189.413264 241.139072 
L 189.413264 250.017215 
L 188.718253 250.017215 
L 188.718253 258.895358 
L 182.556351 258.895358 
L 182.556351 267.773501 
L 174.172926 267.773501 
L 174.172926 276.651644 
L 152.198978 276.651644 
L 152.198978 285.529787 
L 158.160235 285.529787 
L 158.160235 294.40793 
L 148.182165 294.40793 
L 148.182165 303.286074 
L 155.786673 303.286074 
L 155.786673 312.164217 
L 139.278376 312.164217 
L 139.278376 321.04236 
L 141.156936 321.04236 
L 141.156936 329.920503 
L 146.973908 329.920503 
L 146.973908 338.798646 
L 170.25169 338.798646 
L 170.25169 347.676789 
L 167.789598 347.676789 
L 167.789598 356.554932 
L 154.652427 356.554932 
L 154.652427 365.433075 
L 164.192715 365.433075 
L 164.192715 374.311219 
L 137.909133 374.311219 
L 137.909133 383.189362 
L 145.466459 383.189362 
L 145.466459 392.067505 
L 123.407112 392.067505 
L 123.407112 400.945648 
L 147.168677 400.945648 
L 147.168677 409.823791 
L 162.160348 409.823791 
L 162.160348 418.701934 
L 143.460021 418.701934 
L 143.460021 427.580077 
L 122.060447 427.580077 
L 122.060447 436.458221 
L 95.362326 436.458221 
L 95.362326 445.336364 
L 65.011921 445.336364 
" clip-path="url(#p55d0104636)" style="fill: none; stroke: #fecc5c; stroke-opacity: 0.3; stroke-width: 2; stroke-linecap: square"/>
   </g>
   <g id="line2d_19">
    <path d="M 199.712133 28.063636 
L 199.712133 36.941779 
L 183.734923 36.941779 
L 183.734923 45.819923 
L 140.672991 45.819923 
L 140.672991 54.698066 
L 107.423288 54.698066 
L 107.423288 63.576209 
L 114.583987 63.576209 
L 114.583987 72.454352 
L 96.729539 72.454352 
L 96.729539 81.332495 
L 93.021933 81.332495 
L 93.021933 90.210638 
L 74.377543 90.210638 
L 74.377543 99.088781 
L 73.631563 99.088781 
L 73.631563 107.966925 
L 87.710948 107.966925 
L 87.710948 116.845068 
L 80.504974 116.845068 
L 80.504974 125.723211 
L 121.886002 125.723211 
L 121.886002 134.601354 
L 116.393424 134.601354 
L 116.393424 143.479497 
L 137.623532 143.479497 
L 137.623532 152.35764 
L 172.379412 152.35764 
L 172.379412 161.235783 
L 157.192264 161.235783 
L 157.192264 170.113926 
L 152.754006 170.113926 
L 152.754006 178.99207 
L 191.429738 178.99207 
L 191.429738 187.870213 
L 203.941244 187.870213 
L 203.941244 196.748356 
L 214.996776 196.748356 
L 214.996776 205.626499 
L 191.717116 205.626499 
L 191.717116 214.504642 
L 206.929567 214.504642 
L 206.929567 223.382785 
L 217.33928 223.382785 
L 217.33928 232.260928 
L 234.959964 232.260928 
L 234.959964 241.139072 
L 208.879684 241.139072 
L 208.879684 250.017215 
L 196.558686 250.017215 
L 196.558686 258.895358 
L 186.613895 258.895358 
L 186.613895 267.773501 
L 195.485546 267.773501 
L 195.485546 276.651644 
L 180.516835 276.651644 
L 180.516835 285.529787 
L 148.731881 285.529787 
L 148.731881 294.40793 
L 168.788344 294.40793 
L 168.788344 303.286074 
L 149.783535 303.286074 
L 149.783535 312.164217 
L 147.385337 312.164217 
L 147.385337 321.04236 
L 134.15592 321.04236 
L 134.15592 329.920503 
L 133.446905 329.920503 
L 133.446905 338.798646 
L 134.167784 338.798646 
L 134.167784 347.676789 
L 141.103221 347.676789 
L 141.103221 356.554932 
L 152.168728 356.554932 
L 152.168728 365.433075 
L 144.110989 365.433075 
L 144.110989 374.311219 
L 138.809081 374.311219 
L 138.809081 383.189362 
L 120.216458 383.189362 
L 120.216458 392.067505 
L 120.73348 392.067505 
L 120.73348 400.945648 
L 122.780245 400.945648 
L 122.780245 409.823791 
L 123.048924 409.823791 
L 123.048924 418.701934 
L 113.582343 418.701934 
L 113.582343 427.580077 
L 90.645574 427.580077 
L 90.645574 436.458221 
L 87.566754 436.458221 
L 87.566754 445.336364 
L 67.890833 445.336364 
" clip-path="url(#p55d0104636)" style="fill: none; stroke: #fecc5c; stroke-opacity: 0.3; stroke-width: 2; stroke-linecap: square"/>
   </g>
   <g id="line2d_20">
    <path d="M 198.708036 28.063636 
L 198.708036 36.941779 
L 178.691172 36.941779 
L 178.691172 45.819923 
L 150.731857 45.819923 
L 150.731857 54.698066 
L 119.320519 54.698066 
L 119.320519 63.576209 
L 97.484172 63.576209 
L 97.484172 72.454352 
L 76.032436 72.454352 
L 76.032436 81.332495 
L 78.885823 81.332495 
L 78.885823 90.210638 
L 79.348323 90.210638 
L 79.348323 99.088781 
L 101.319413 99.088781 
L 101.319413 107.966925 
L 121.291759 107.966925 
L 121.291759 116.845068 
L 114.757078 116.845068 
L 114.757078 125.723211 
L 116.982286 125.723211 
L 116.982286 134.601354 
L 142.101442 134.601354 
L 142.101442 143.479497 
L 123.004831 143.479497 
L 123.004831 152.35764 
L 133.49541 152.35764 
L 133.49541 161.235783 
L 126.564184 161.235783 
L 126.564184 170.113926 
L 138.00256 170.113926 
L 138.00256 178.99207 
L 145.475042 178.99207 
L 145.475042 187.870213 
L 144.106607 187.870213 
L 144.106607 196.748356 
L 147.77223 196.748356 
L 147.77223 205.626499 
L 174.997924 205.626499 
L 174.997924 214.504642 
L 178.242748 214.504642 
L 178.242748 223.382785 
L 146.262702 223.382785 
L 146.262702 232.260928 
L 177.099637 232.260928 
L 177.099637 241.139072 
L 198.248061 241.139072 
L 198.248061 250.017215 
L 256.299987 250.017215 
L 256.299987 258.895358 
L 247.406487 258.895358 
L 247.406487 267.773501 
L 222.5466 267.773501 
L 222.5466 276.651644 
L 224.869071 276.651644 
L 224.869071 285.529787 
L 214.866183 285.529787 
L 214.866183 294.40793 
L 211.635515 294.40793 
L 211.635515 303.286074 
L 174.824783 303.286074 
L 174.824783 312.164217 
L 191.10902 312.164217 
L 191.10902 321.04236 
L 177.487116 321.04236 
L 177.487116 329.920503 
L 173.630278 329.920503 
L 173.630278 338.798646 
L 164.471572 338.798646 
L 164.471572 347.676789 
L 171.913944 347.676789 
L 171.913944 356.554932 
L 168.128329 356.554932 
L 168.128329 365.433075 
L 133.02346 365.433075 
L 133.02346 374.311219 
L 124.920982 374.311219 
L 124.920982 383.189362 
L 111.567757 383.189362 
L 111.567757 392.067505 
L 139.203729 392.067505 
L 139.203729 400.945648 
L 125.30001 400.945648 
L 125.30001 409.823791 
L 103.16534 409.823791 
L 103.16534 418.701934 
L 86.881406 418.701934 
L 86.881406 427.580077 
L 78.222325 427.580077 
L 78.222325 436.458221 
L 85.809376 436.458221 
L 85.809376 445.336364 
L 65.827923 445.336364 
" clip-path="url(#p55d0104636)" style="fill: none; stroke: #fecc5c; stroke-opacity: 0.3; stroke-width: 2; stroke-linecap: square"/>
   </g>
   <g id="line2d_21">
    <path d="M 186.014341 28.063636 
L 186.014341 36.941779 
L 186.085887 36.941779 
L 186.085887 45.819923 
L 154.533909 45.819923 
L 154.533909 54.698066 
L 117.080105 54.698066 
L 117.080105 63.576209 
L 101.729701 63.576209 
L 101.729701 72.454352 
L 86.764534 72.454352 
L 86.764534 81.332495 
L 58.876351 81.332495 
L 58.876351 90.210638 
L 75.696421 90.210638 
L 75.696421 99.088781 
L 71.332516 99.088781 
L 71.332516 107.966925 
L 90.889566 107.966925 
L 90.889566 116.845068 
L 121.236831 116.845068 
L 121.236831 125.723211 
L 128.790623 125.723211 
L 128.790623 134.601354 
L 164.500893 134.601354 
L 164.500893 143.479497 
L 172.011763 143.479497 
L 172.011763 152.35764 
L 162.373696 152.35764 
L 162.373696 161.235783 
L 163.797663 161.235783 
L 163.797663 170.113926 
L 172.746273 170.113926 
L 172.746273 178.99207 
L 185.48912 178.99207 
L 185.48912 187.870213 
L 156.798202 187.870213 
L 156.798202 196.748356 
L 133.938311 196.748356 
L 133.938311 205.626499 
L 148.910556 205.626499 
L 148.910556 214.504642 
L 139.790814 214.504642 
L 139.790814 223.382785 
L 165.141199 223.382785 
L 165.141199 232.260928 
L 182.07915 232.260928 
L 182.07915 241.139072 
L 166.789095 241.139072 
L 166.789095 250.017215 
L 177.655775 250.017215 
L 177.655775 258.895358 
L 179.189233 258.895358 
L 179.189233 267.773501 
L 154.588715 267.773501 
L 154.588715 276.651644 
L 196.995337 276.651644 
L 196.995337 285.529787 
L 204.246535 285.529787 
L 204.246535 294.40793 
L 191.269076 294.40793 
L 191.269076 303.286074 
L 189.634386 303.286074 
L 189.634386 312.164217 
L 198.802805 312.164217 
L 198.802805 321.04236 
L 178.846604 321.04236 
L 178.846604 329.920503 
L 187.606199 329.920503 
L 187.606199 338.798646 
L 189.527278 338.798646 
L 189.527278 347.676789 
L 164.110042 347.676789 
L 164.110042 356.554932 
L 174.716604 356.554932 
L 174.716604 365.433075 
L 176.252486 365.433075 
L 176.252486 374.311219 
L 162.927451 374.311219 
L 162.927451 383.189362 
L 131.148131 383.189362 
L 131.148131 392.067505 
L 134.770478 392.067505 
L 134.770478 400.945648 
L 148.916352 400.945648 
L 148.916352 409.823791 
L 131.143931 409.823791 
L 131.143931 418.701934 
L 112.144917 418.701934 
L 112.144917 427.580077 
L 81.23799 427.580077 
L 81.23799 436.458221 
L 65.898217 436.458221 
L 65.898217 445.336364 
L 64.358711 445.336364 
" clip-path="url(#p55d0104636)" style="fill: none; stroke: #fecc5c; stroke-opacity: 0.3; stroke-width: 2; stroke-linecap: square"/>
   </g>
   <g id="line2d_22">
    <path d="M 198.317467 28.063636 
L 198.317467 36.941779 
L 176.076254 36.941779 
L 176.076254 45.819923 
L 155.537179 45.819923 
L 155.537179 54.698066 
L 111.820866 54.698066 
L 111.820866 63.576209 
L 101.796583 63.576209 
L 101.796583 72.454352 
L 90.971331 72.454352 
L 90.971331 81.332495 
L 70.330479 81.332495 
L 70.330479 90.210638 
L 90.239568 90.210638 
L 90.239568 99.088781 
L 99.807188 99.088781 
L 99.807188 107.966925 
L 94.738711 107.966925 
L 94.738711 116.845068 
L 89.555007 116.845068 
L 89.555007 125.723211 
L 93.640177 125.723211 
L 93.640177 134.601354 
L 102.223813 134.601354 
L 102.223813 143.479497 
L 144.973023 143.479497 
L 144.973023 152.35764 
L 146.646162 152.35764 
L 146.646162 161.235783 
L 176.380716 161.235783 
L 176.380716 170.113926 
L 186.988349 170.113926 
L 186.988349 178.99207 
L 188.826068 178.99207 
L 188.826068 187.870213 
L 181.026467 187.870213 
L 181.026467 196.748356 
L 172.206512 196.748356 
L 172.206512 205.626499 
L 163.217939 205.626499 
L 163.217939 214.504642 
L 151.493103 214.504642 
L 151.493103 223.382785 
L 175.19851 223.382785 
L 175.19851 232.260928 
L 204.932216 232.260928 
L 204.932216 241.139072 
L 193.235227 241.139072 
L 193.235227 250.017215 
L 210.630266 250.017215 
L 210.630266 258.895358 
L 229.500019 258.895358 
L 229.500019 267.773501 
L 216.123107 267.773501 
L 216.123107 276.651644 
L 199.684205 276.651644 
L 199.684205 285.529787 
L 185.883828 285.529787 
L 185.883828 294.40793 
L 168.694948 294.40793 
L 168.694948 303.286074 
L 172.908914 303.286074 
L 172.908914 312.164217 
L 196.537745 312.164217 
L 196.537745 321.04236 
L 193.870464 321.04236 
L 193.870464 329.920503 
L 189.488869 329.920503 
L 189.488869 338.798646 
L 204.734135 338.798646 
L 204.734135 347.676789 
L 189.051067 347.676789 
L 189.051067 356.554932 
L 160.467601 356.554932 
L 160.467601 365.433075 
L 153.911818 365.433075 
L 153.911818 374.311219 
L 119.691974 374.311219 
L 119.691974 383.189362 
L 113.230688 383.189362 
L 113.230688 392.067505 
L 100.215972 392.067505 
L 100.215972 400.945648 
L 83.912621 400.945648 
L 83.912621 409.823791 
L 82.850365 409.823791 
L 82.850365 418.701934 
L 63.036824 418.701934 
L 63.036824 427.580077 
L 19.472727 427.580077 
L 19.472727 436.458221 
L 39.290818 436.458221 
L 39.290818 445.336364 
L 67.176749 445.336364 
" clip-path="url(#p55d0104636)" style="fill: none; stroke: #fecc5c; stroke-opacity: 0.3; stroke-width: 2; stroke-linecap: square"/>
   </g>
   <g id="line2d_23">
    <path d="M 197.691681 28.063636 
L 197.691681 36.941779 
L 186.171772 36.941779 
L 186.171772 45.819923 
L 141.123869 45.819923 
L 141.123869 54.698066 
L 116.822088 54.698066 
L 116.822088 63.576209 
L 111.711608 63.576209 
L 111.711608 72.454352 
L 103.072671 72.454352 
L 103.072671 81.332495 
L 89.723868 81.332495 
L 89.723868 90.210638 
L 71.97991 90.210638 
L 71.97991 99.088781 
L 72.02052 99.088781 
L 72.02052 107.966925 
L 82.911058 107.966925 
L 82.911058 116.845068 
L 101.888293 116.845068 
L 101.888293 125.723211 
L 99.219407 125.723211 
L 99.219407 134.601354 
L 108.567985 134.601354 
L 108.567985 143.479497 
L 104.9084 143.479497 
L 104.9084 152.35764 
L 166.350122 152.35764 
L 166.350122 161.235783 
L 171.560552 161.235783 
L 171.560552 170.113926 
L 179.047694 170.113926 
L 179.047694 178.99207 
L 187.746062 178.99207 
L 187.746062 187.870213 
L 209.685559 187.870213 
L 209.685559 196.748356 
L 230.331924 196.748356 
L 230.331924 205.626499 
L 222.271156 205.626499 
L 222.271156 214.504642 
L 190.26924 214.504642 
L 190.26924 223.382785 
L 205.261113 223.382785 
L 205.261113 232.260928 
L 209.697675 232.260928 
L 209.697675 241.139072 
L 216.641886 241.139072 
L 216.641886 250.017215 
L 208.662196 250.017215 
L 208.662196 258.895358 
L 190.266352 258.895358 
L 190.266352 267.773501 
L 188.655874 267.773501 
L 188.655874 276.651644 
L 215.139405 276.651644 
L 215.139405 285.529787 
L 167.609974 285.529787 
L 167.609974 294.40793 
L 151.409824 294.40793 
L 151.409824 303.286074 
L 158.664152 303.286074 
L 158.664152 312.164217 
L 167.133521 312.164217 
L 167.133521 321.04236 
L 148.184851 321.04236 
L 148.184851 329.920503 
L 140.826878 329.920503 
L 140.826878 338.798646 
L 157.978571 338.798646 
L 157.978571 347.676789 
L 161.469397 347.676789 
L 161.469397 356.554932 
L 130.346779 356.554932 
L 130.346779 365.433075 
L 139.286584 365.433075 
L 139.286584 374.311219 
L 113.009424 374.311219 
L 113.009424 383.189362 
L 110.307329 383.189362 
L 110.307329 392.067505 
L 104.291802 392.067505 
L 104.291802 400.945648 
L 102.695157 400.945648 
L 102.695157 409.823791 
L 97.749559 409.823791 
L 97.749559 418.701934 
L 116.603107 418.701934 
L 116.603107 427.580077 
L 93.415238 427.580077 
L 93.415238 436.458221 
L 95.403168 436.458221 
L 95.403168 445.336364 
L 66.438251 445.336364 
" clip-path="url(#p55d0104636)" style="fill: none; stroke: #fecc5c; stroke-opacity: 0.3; stroke-width: 2; stroke-linecap: square"/>
   </g>
   <g id="line2d_24"/>
   <g id="line2d_25">
    <path d="M 199.233176 28.063636 
L 199.233176 36.941779 
L 181.875556 36.941779 
L 181.875556 45.819923 
L 144.172237 45.819923 
L 144.172237 54.698066 
L 120.557935 54.698066 
L 120.557935 63.576209 
L 99.251575 63.576209 
L 99.251575 72.454352 
L 89.798494 72.454352 
L 89.798494 81.332495 
L 82.52681 81.332495 
L 82.52681 90.210638 
L 80.874652 90.210638 
L 80.874652 99.088781 
L 84.575958 99.088781 
L 84.575958 107.966925 
L 94.827594 107.966925 
L 94.827594 116.845068 
L 102.773469 116.845068 
L 102.773469 125.723211 
L 111.946987 125.723211 
L 111.946987 134.601354 
L 122.400531 134.601354 
L 122.400531 143.479497 
L 133.208234 143.479497 
L 133.208234 152.35764 
L 144.230779 152.35764 
L 144.230779 161.235783 
L 155.096873 161.235783 
L 155.096873 170.113926 
L 165.336352 170.113926 
L 165.336352 178.99207 
L 176.396609 178.99207 
L 176.396609 187.870213 
L 185.896873 187.870213 
L 185.896873 196.748356 
L 185.798085 196.748356 
L 185.798085 205.626499 
L 194.330883 205.626499 
L 194.330883 214.504642 
L 193.639265 214.504642 
L 193.639265 223.382785 
L 193.174626 223.382785 
L 193.174626 232.260928 
L 194.833427 232.260928 
L 194.833427 241.139072 
L 195.30574 241.139072 
L 195.30574 250.017215 
L 196.811816 250.017215 
L 196.811816 258.895358 
L 196.032758 258.895358 
L 196.032758 267.773501 
L 193.424787 267.773501 
L 193.424787 276.651644 
L 192.844416 276.651644 
L 192.844416 285.529787 
L 191.138321 285.529787 
L 191.138321 294.40793 
L 184.85677 294.40793 
L 184.85677 303.286074 
L 183.885104 303.286074 
L 183.885104 312.164217 
L 177.505492 312.164217 
L 177.505492 321.04236 
L 176.284998 321.04236 
L 176.284998 329.920503 
L 167.009975 329.920503 
L 167.009975 338.798646 
L 166.999919 338.798646 
L 166.999919 347.676789 
L 159.082063 347.676789 
L 159.082063 356.554932 
L 152.303441 356.554932 
L 152.303441 365.433075 
L 144.185383 365.433075 
L 144.185383 374.311219 
L 135.341115 374.311219 
L 135.341115 383.189362 
L 124.095146 383.189362 
L 124.095146 392.067505 
L 116.547978 392.067505 
L 116.547978 400.945648 
L 106.524512 400.945648 
L 106.524512 409.823791 
L 99.901281 409.823791 
L 99.901281 418.701934 
L 91.545229 418.701934 
L 91.545229 427.580077 
L 81.940311 427.580077 
L 81.940311 436.458221 
L 72.629293 436.458221 
L 72.629293 445.336364 
L 66.602386 445.336364 
" clip-path="url(#p55d0104636)" style="fill: none; stroke: #6b3914; stroke-width: 3; stroke-linecap: square"/>
   </g>
   <g id="line2d_26">
    <path d="M 213.257056 28.063636 
L 174.801292 36.941779 
L 144.111026 45.819923 
L 120.426664 54.698066 
L 103.019922 63.576209 
L 91.193824 72.454352 
L 84.282703 81.332495 
L 81.652202 90.210638 
L 82.699272 99.088781 
L 86.852174 107.966925 
L 93.570476 116.845068 
L 102.345058 125.723211 
L 112.698106 134.601354 
L 124.183119 143.479497 
L 136.3849 152.35764 
L 148.919564 161.235783 
L 161.434536 170.113926 
L 173.608547 178.99207 
L 185.15164 187.870213 
L 195.805164 196.748356 
L 205.34178 205.626499 
L 213.565456 214.504642 
L 220.311471 223.382785 
L 225.446409 232.260928 
L 228.868169 241.139072 
L 230.505953 250.017215 
L 230.320276 258.895358 
L 228.302961 267.773501 
L 224.47714 276.651644 
L 218.897253 285.529787 
L 211.64905 294.40793 
L 202.849591 303.286074 
L 192.647243 312.164217 
L 181.221682 321.04236 
L 168.783896 329.920503 
L 155.576178 338.798646 
L 141.872133 347.676789 
L 127.976675 356.554932 
L 114.226024 365.433075 
L 100.987712 374.311219 
L 88.66058 383.189362 
L 77.674776 392.067505 
L 68.491758 400.945648 
L 61.604293 409.823791 
L 57.536458 418.701934 
L 56.843638 427.580077 
L 60.112527 436.458221 
L 67.961128 445.336364 
" clip-path="url(#p55d0104636)" style="fill: none; stroke: #e40000; stroke-opacity: 0.8; stroke-width: 3; stroke-linecap: square"/>
    <defs>
     <path id="mba66798028" d="M 5 0 
L -5 -0 
" style="stroke: #e40000; stroke-opacity: 0.8"/>
    </defs>
    <g clip-path="url(#p55d0104636)">
     <use xlink:href="#mba66798028" x="213.257056" y="28.063636" style="fill: #e40000; fill-opacity: 0.8; stroke: #e40000; stroke-opacity: 0.8"/>
     <use xlink:href="#mba66798028" x="174.801292" y="36.941779" style="fill: #e40000; fill-opacity: 0.8; stroke: #e40000; stroke-opacity: 0.8"/>
     <use xlink:href="#mba66798028" x="144.111026" y="45.819923" style="fill: #e40000; fill-opacity: 0.8; stroke: #e40000; stroke-opacity: 0.8"/>
     <use xlink:href="#mba66798028" x="120.426664" y="54.698066" style="fill: #e40000; fill-opacity: 0.8; stroke: #e40000; stroke-opacity: 0.8"/>
     <use xlink:href="#mba66798028" x="103.019922" y="63.576209" style="fill: #e40000; fill-opacity: 0.8; stroke: #e40000; stroke-opacity: 0.8"/>
     <use xlink:href="#mba66798028" x="91.193824" y="72.454352" style="fill: #e40000; fill-opacity: 0.8; stroke: #e40000; stroke-opacity: 0.8"/>
     <use xlink:href="#mba66798028" x="84.282703" y="81.332495" style="fill: #e40000; fill-opacity: 0.8; stroke: #e40000; stroke-opacity: 0.8"/>
     <use xlink:href="#mba66798028" x="81.652202" y="90.210638" style="fill: #e40000; fill-opacity: 0.8; stroke: #e40000; stroke-opacity: 0.8"/>
     <use xlink:href="#mba66798028" x="82.699272" y="99.088781" style="fill: #e40000; fill-opacity: 0.8; stroke: #e40000; stroke-opacity: 0.8"/>
     <use xlink:href="#mba66798028" x="86.852174" y="107.966925" style="fill: #e40000; fill-opacity: 0.8; stroke: #e40000; stroke-opacity: 0.8"/>
     <use xlink:href="#mba66798028" x="93.570476" y="116.845068" style="fill: #e40000; fill-opacity: 0.8; stroke: #e40000; stroke-opacity: 0.8"/>
     <use xlink:href="#mba66798028" x="102.345058" y="125.723211" style="fill: #e40000; fill-opacity: 0.8; stroke: #e40000; stroke-opacity: 0.8"/>
     <use xlink:href="#mba66798028" x="112.698106" y="134.601354" style="fill: #e40000; fill-opacity: 0.8; stroke: #e40000; stroke-opacity: 0.8"/>
     <use xlink:href="#mba66798028" x="124.183119" y="143.479497" style="fill: #e40000; fill-opacity: 0.8; stroke: #e40000; stroke-opacity: 0.8"/>
     <use xlink:href="#mba66798028" x="136.3849" y="152.35764" style="fill: #e40000; fill-opacity: 0.8; stroke: #e40000; stroke-opacity: 0.8"/>
     <use xlink:href="#mba66798028" x="148.919564" y="161.235783" style="fill: #e40000; fill-opacity: 0.8; stroke: #e40000; stroke-opacity: 0.8"/>
     <use xlink:href="#mba66798028" x="161.434536" y="170.113926" style="fill: #e40000; fill-opacity: 0.8; stroke: #e40000; stroke-opacity: 0.8"/>
     <use xlink:href="#mba66798028" x="173.608547" y="178.99207" style="fill: #e40000; fill-opacity: 0.8; stroke: #e40000; stroke-opacity: 0.8"/>
     <use xlink:href="#mba66798028" x="185.15164" y="187.870213" style="fill: #e40000; fill-opacity: 0.8; stroke: #e40000; stroke-opacity: 0.8"/>
     <use xlink:href="#mba66798028" x="195.805164" y="196.748356" style="fill: #e40000; fill-opacity: 0.8; stroke: #e40000; stroke-opacity: 0.8"/>
     <use xlink:href="#mba66798028" x="205.34178" y="205.626499" style="fill: #e40000; fill-opacity: 0.8; stroke: #e40000; stroke-opacity: 0.8"/>
     <use xlink:href="#mba66798028" x="213.565456" y="214.504642" style="fill: #e40000; fill-opacity: 0.8; stroke: #e40000; stroke-opacity: 0.8"/>
     <use xlink:href="#mba66798028" x="220.311471" y="223.382785" style="fill: #e40000; fill-opacity: 0.8; stroke: #e40000; stroke-opacity: 0.8"/>
     <use xlink:href="#mba66798028" x="225.446409" y="232.260928" style="fill: #e40000; fill-opacity: 0.8; stroke: #e40000; stroke-opacity: 0.8"/>
     <use xlink:href="#mba66798028" x="228.868169" y="241.139072" style="fill: #e40000; fill-opacity: 0.8; stroke: #e40000; stroke-opacity: 0.8"/>
     <use xlink:href="#mba66798028" x="230.505953" y="250.017215" style="fill: #e40000; fill-opacity: 0.8; stroke: #e40000; stroke-opacity: 0.8"/>
     <use xlink:href="#mba66798028" x="230.320276" y="258.895358" style="fill: #e40000; fill-opacity: 0.8; stroke: #e40000; stroke-opacity: 0.8"/>
     <use xlink:href="#mba66798028" x="228.302961" y="267.773501" style="fill: #e40000; fill-opacity: 0.8; stroke: #e40000; stroke-opacity: 0.8"/>
     <use xlink:href="#mba66798028" x="224.47714" y="276.651644" style="fill: #e40000; fill-opacity: 0.8; stroke: #e40000; stroke-opacity: 0.8"/>
     <use xlink:href="#mba66798028" x="218.897253" y="285.529787" style="fill: #e40000; fill-opacity: 0.8; stroke: #e40000; stroke-opacity: 0.8"/>
     <use xlink:href="#mba66798028" x="211.64905" y="294.40793" style="fill: #e40000; fill-opacity: 0.8; stroke: #e40000; stroke-opacity: 0.8"/>
     <use xlink:href="#mba66798028" x="202.849591" y="303.286074" style="fill: #e40000; fill-opacity: 0.8; stroke: #e40000; stroke-opacity: 0.8"/>
     <use xlink:href="#mba66798028" x="192.647243" y="312.164217" style="fill: #e40000; fill-opacity: 0.8; stroke: #e40000; stroke-opacity: 0.8"/>
     <use xlink:href="#mba66798028" x="181.221682" y="321.04236" style="fill: #e40000; fill-opacity: 0.8; stroke: #e40000; stroke-opacity: 0.8"/>
     <use xlink:href="#mba66798028" x="168.783896" y="329.920503" style="fill: #e40000; fill-opacity: 0.8; stroke: #e40000; stroke-opacity: 0.8"/>
     <use xlink:href="#mba66798028" x="155.576178" y="338.798646" style="fill: #e40000; fill-opacity: 0.8; stroke: #e40000; stroke-opacity: 0.8"/>
     <use xlink:href="#mba66798028" x="141.872133" y="347.676789" style="fill: #e40000; fill-opacity: 0.8; stroke: #e40000; stroke-opacity: 0.8"/>
     <use xlink:href="#mba66798028" x="127.976675" y="356.554932" style="fill: #e40000; fill-opacity: 0.8; stroke: #e40000; stroke-opacity: 0.8"/>
     <use xlink:href="#mba66798028" x="114.226024" y="365.433075" style="fill: #e40000; fill-opacity: 0.8; stroke: #e40000; stroke-opacity: 0.8"/>
     <use xlink:href="#mba66798028" x="100.987712" y="374.311219" style="fill: #e40000; fill-opacity: 0.8; stroke: #e40000; stroke-opacity: 0.8"/>
     <use xlink:href="#mba66798028" x="88.66058" y="383.189362" style="fill: #e40000; fill-opacity: 0.8; stroke: #e40000; stroke-opacity: 0.8"/>
     <use xlink:href="#mba66798028" x="77.674776" y="392.067505" style="fill: #e40000; fill-opacity: 0.8; stroke: #e40000; stroke-opacity: 0.8"/>
     <use xlink:href="#mba66798028" x="68.491758" y="400.945648" style="fill: #e40000; fill-opacity: 0.8; stroke: #e40000; stroke-opacity: 0.8"/>
     <use xlink:href="#mba66798028" x="61.604293" y="409.823791" style="fill: #e40000; fill-opacity: 0.8; stroke: #e40000; stroke-opacity: 0.8"/>
     <use xlink:href="#mba66798028" x="57.536458" y="418.701934" style="fill: #e40000; fill-opacity: 0.8; stroke: #e40000; stroke-opacity: 0.8"/>
     <use xlink:href="#mba66798028" x="56.843638" y="427.580077" style="fill: #e40000; fill-opacity: 0.8; stroke: #e40000; stroke-opacity: 0.8"/>
     <use xlink:href="#mba66798028" x="60.112527" y="436.458221" style="fill: #e40000; fill-opacity: 0.8; stroke: #e40000; stroke-opacity: 0.8"/>
     <use xlink:href="#mba66798028" x="67.961128" y="445.336364" style="fill: #e40000; fill-opacity: 0.8; stroke: #e40000; stroke-opacity: 0.8"/>
    </g>
   </g>
   <g id="patch_3">
    <path d="M 7.2 476.2 
L 277.2 476.2 
" style="fill: none; stroke: #000000; stroke-width: 2; stroke-linejoin: miter; stroke-linecap: square"/>
   </g>
  </g>
 </g>
 <defs>
  <clipPath id="p55d0104636">
   <rect x="7.2" y="7.2" width="270" height="459"/>
  </clipPath>
 </defs>
</svg>
