<?xml version="1.0" encoding="utf-8" standalone="no"?>
<!DOCTYPE svg PUBLIC "-//W3C//DTD SVG 1.1//EN"
  "http://www.w3.org/Graphics/SVG/1.1/DTD/svg11.dtd">
<svg xmlns:xlink="http://www.w3.org/1999/xlink" width="286.061395pt" height="544.35625pt" viewBox="0 0 286.061395 544.35625" xmlns="http://www.w3.org/2000/svg" version="1.1">
 <metadata>
  <rdf:RDF xmlns:dc="http://purl.org/dc/elements/1.1/" xmlns:cc="http://creativecommons.org/ns#" xmlns:rdf="http://www.w3.org/1999/02/22-rdf-syntax-ns#">
   <cc:Work>
    <dc:type rdf:resource="http://purl.org/dc/dcmitype/StillImage"/>
    <dc:date>2024-08-06T18:28:15.857842</dc:date>
    <dc:format>image/svg+xml</dc:format>
    <dc:creator>
     <cc:Agent>
      <dc:title>Matplotlib v3.8.0, https://matplotlib.org/</dc:title>
     </cc:Agent>
    </dc:creator>
   </cc:Work>
  </rdf:RDF>
 </metadata>
 <defs>
  <style type="text/css">*{stroke-linejoin: round; stroke-linecap: butt}</style>
 </defs>
 <g id="figure_1">
  <g id="patch_1">
   <path d="M 0 544.35625 
L 286.061395 544.35625 
L 286.061395 0 
L 0 0 
z
" style="fill: #ffffff"/>
  </g>
  <g id="axes_1">
   <g id="patch_2">
    <path d="M 8.861395 466.2 
L 278.861395 466.2 
L 278.861395 7.2 
L 8.861395 7.2 
z
" style="fill: #ffffff"/>
   </g>
   <g id="PolyCollection_1">
    <defs>
     <path id="mea315aa22e" d="M 256.135247 -516.292614 
L 265.923995 -516.292614 
L 265.929549 -497.325671 
L 265.617416 -478.358729 
L 265.275744 -459.391787 
L 264.850996 -440.424845 
L 263.455922 -421.457903 
L 261.629699 -402.490961 
L 258.296693 -383.524019 
L 253.404803 -364.557076 
L 245.502432 -345.590134 
L 233.667673 -326.623192 
L 216.945808 -307.65625 
L 195.853295 -288.689308 
L 171.916349 -269.722366 
L 146.767976 -250.755424 
L 122.031801 -231.788481 
L 99.368493 -212.821539 
L 80.65352 -193.854597 
L 66.836379 -174.887655 
L 57.185378 -155.920713 
L 51.591893 -136.953771 
L 46.562958 -117.986829 
L 42.874599 -99.019886 
L 25.427284 -99.019886 
L 25.427284 -99.019886 
L 30.862857 -117.986829 
L 36.222731 -136.953771 
L 41.816353 -155.920713 
L 49.304934 -174.887655 
L 60.165565 -193.854597 
L 77.637618 -212.821539 
L 101.261237 -231.788481 
L 128.196506 -250.755424 
L 155.396168 -269.722366 
L 180.655039 -288.689308 
L 201.430941 -307.65625 
L 218.884536 -326.623192 
L 230.95078 -345.590134 
L 240.909986 -364.557076 
L 246.747136 -383.524019 
L 251.092331 -402.490961 
L 253.474624 -421.457903 
L 254.85335 -440.424845 
L 255.617728 -459.391787 
L 256.095044 -478.358729 
L 256.181139 -497.325671 
L 256.135247 -516.292614 
z
" style="stroke: #756bb1; stroke-opacity: 0.5"/>
    </defs>
    <g clip-path="url(#p81fd4d25fe)">
     <use xlink:href="#mea315aa22e" x="0" y="544.35625" style="fill: #756bb1; fill-opacity: 0.5; stroke: #756bb1; stroke-opacity: 0.5"/>
    </g>
   </g>
   <g id="matplotlib.axis_1">
    <g id="xtick_1">
     <g id="line2d_1">
      <defs>
       <path id="m7375544dc5" d="M 0 0 
L 0 3.5 
" style="stroke: #000000; stroke-width: 1.5"/>
      </defs>
      <g>
       <use xlink:href="#m7375544dc5" x="26.2875" y="476.2" style="stroke: #000000; stroke-width: 1.5"/>
      </g>
     </g>
     <g id="text_1">
      <!-- 100 -->
      <g transform="translate(7.2 498.396875) scale(0.2 -0.2)">
       <defs>
        <path id="DejaVuSans-31" d="M 794 531 
L 1825 531 
L 1825 4091 
L 703 3866 
L 703 4441 
L 1819 4666 
L 2450 4666 
L 2450 531 
L 3481 531 
L 3481 0 
L 794 0 
L 794 531 
z
" transform="scale(0.015625)"/>
        <path id="DejaVuSans-30" d="M 2034 4250 
Q 1547 4250 1301 3770 
Q 1056 3291 1056 2328 
Q 1056 1369 1301 889 
Q 1547 409 2034 409 
Q 2525 409 2770 889 
Q 3016 1369 3016 2328 
Q 3016 3291 2770 3770 
Q 2525 4250 2034 4250 
z
M 2034 4750 
Q 2819 4750 3233 4129 
Q 3647 3509 3647 2328 
Q 3647 1150 3233 529 
Q 2819 -91 2034 -91 
Q 1250 -91 836 529 
Q 422 1150 422 2328 
Q 422 3509 836 4129 
Q 1250 4750 2034 4750 
z
" transform="scale(0.015625)"/>
       </defs>
       <use xlink:href="#DejaVuSans-31"/>
       <use xlink:href="#DejaVuSans-30" x="63.623047"/>
       <use xlink:href="#DejaVuSans-30" x="127.246094"/>
      </g>
     </g>
    </g>
    <g id="xtick_2">
     <g id="line2d_2">
      <g>
       <use xlink:href="#m7375544dc5" x="116.489328" y="476.2" style="stroke: #000000; stroke-width: 1.5"/>
      </g>
     </g>
     <g id="text_2">
      <!-- 200 -->
      <g transform="translate(97.401828 498.396875) scale(0.2 -0.2)">
       <defs>
        <path id="DejaVuSans-32" d="M 1228 531 
L 3431 531 
L 3431 0 
L 469 0 
L 469 531 
Q 828 903 1448 1529 
Q 2069 2156 2228 2338 
Q 2531 2678 2651 2914 
Q 2772 3150 2772 3378 
Q 2772 3750 2511 3984 
Q 2250 4219 1831 4219 
Q 1534 4219 1204 4116 
Q 875 4013 500 3803 
L 500 4441 
Q 881 4594 1212 4672 
Q 1544 4750 1819 4750 
Q 2544 4750 2975 4387 
Q 3406 4025 3406 3419 
Q 3406 3131 3298 2873 
Q 3191 2616 2906 2266 
Q 2828 2175 2409 1742 
Q 1991 1309 1228 531 
z
" transform="scale(0.015625)"/>
       </defs>
       <use xlink:href="#DejaVuSans-32"/>
       <use xlink:href="#DejaVuSans-30" x="63.623047"/>
       <use xlink:href="#DejaVuSans-30" x="127.246094"/>
      </g>
     </g>
    </g>
    <g id="xtick_3">
     <g id="line2d_3">
      <g>
       <use xlink:href="#m7375544dc5" x="206.691156" y="476.2" style="stroke: #000000; stroke-width: 1.5"/>
      </g>
     </g>
     <g id="text_3">
      <!-- 300 -->
      <g transform="translate(187.603656 498.396875) scale(0.2 -0.2)">
       <defs>
        <path id="DejaVuSans-33" d="M 2597 2516 
Q 3050 2419 3304 2112 
Q 3559 1806 3559 1356 
Q 3559 666 3084 287 
Q 2609 -91 1734 -91 
Q 1441 -91 1130 -33 
Q 819 25 488 141 
L 488 750 
Q 750 597 1062 519 
Q 1375 441 1716 441 
Q 2309 441 2620 675 
Q 2931 909 2931 1356 
Q 2931 1769 2642 2001 
Q 2353 2234 1838 2234 
L 1294 2234 
L 1294 2753 
L 1863 2753 
Q 2328 2753 2575 2939 
Q 2822 3125 2822 3475 
Q 2822 3834 2567 4026 
Q 2313 4219 1838 4219 
Q 1578 4219 1281 4162 
Q 984 4106 628 3988 
L 628 4550 
Q 988 4650 1302 4700 
Q 1616 4750 1894 4750 
Q 2613 4750 3031 4423 
Q 3450 4097 3450 3541 
Q 3450 3153 3228 2886 
Q 3006 2619 2597 2516 
z
" transform="scale(0.015625)"/>
       </defs>
       <use xlink:href="#DejaVuSans-33"/>
       <use xlink:href="#DejaVuSans-30" x="63.623047"/>
       <use xlink:href="#DejaVuSans-30" x="127.246094"/>
      </g>
     </g>
    </g>
    <g id="text_4">
     <!-- Apparent Resistivity [$\Omega m$] -->
     <g transform="translate(-2.938605 532.75625) scale(0.2 -0.2)">
      <defs>
       <path id="DejaVuSans-Bold-41" d="M 3419 850 
L 1538 850 
L 1241 0 
L 31 0 
L 1759 4666 
L 3194 4666 
L 4922 0 
L 3713 0 
L 3419 850 
z
M 1838 1716 
L 3116 1716 
L 2478 3572 
L 1838 1716 
z
" transform="scale(0.015625)"/>
       <path id="DejaVuSans-Bold-70" d="M 1656 506 
L 1656 -1331 
L 538 -1331 
L 538 3500 
L 1656 3500 
L 1656 2988 
Q 1888 3294 2169 3439 
Q 2450 3584 2816 3584 
Q 3463 3584 3878 3070 
Q 4294 2556 4294 1747 
Q 4294 938 3878 423 
Q 3463 -91 2816 -91 
Q 2450 -91 2169 54 
Q 1888 200 1656 506 
z
M 2400 2772 
Q 2041 2772 1848 2508 
Q 1656 2244 1656 1747 
Q 1656 1250 1848 986 
Q 2041 722 2400 722 
Q 2759 722 2948 984 
Q 3138 1247 3138 1747 
Q 3138 2247 2948 2509 
Q 2759 2772 2400 2772 
z
" transform="scale(0.015625)"/>
       <path id="DejaVuSans-Bold-61" d="M 2106 1575 
Q 1756 1575 1579 1456 
Q 1403 1338 1403 1106 
Q 1403 894 1545 773 
Q 1688 653 1941 653 
Q 2256 653 2472 879 
Q 2688 1106 2688 1447 
L 2688 1575 
L 2106 1575 
z
M 3816 1997 
L 3816 0 
L 2688 0 
L 2688 519 
Q 2463 200 2181 54 
Q 1900 -91 1497 -91 
Q 953 -91 614 226 
Q 275 544 275 1050 
Q 275 1666 698 1953 
Q 1122 2241 2028 2241 
L 2688 2241 
L 2688 2328 
Q 2688 2594 2478 2717 
Q 2269 2841 1825 2841 
Q 1466 2841 1156 2769 
Q 847 2697 581 2553 
L 581 3406 
Q 941 3494 1303 3539 
Q 1666 3584 2028 3584 
Q 2975 3584 3395 3211 
Q 3816 2838 3816 1997 
z
" transform="scale(0.015625)"/>
       <path id="DejaVuSans-Bold-72" d="M 3138 2547 
Q 2991 2616 2845 2648 
Q 2700 2681 2553 2681 
Q 2122 2681 1889 2404 
Q 1656 2128 1656 1613 
L 1656 0 
L 538 0 
L 538 3500 
L 1656 3500 
L 1656 2925 
Q 1872 3269 2151 3426 
Q 2431 3584 2822 3584 
Q 2878 3584 2943 3579 
Q 3009 3575 3134 3559 
L 3138 2547 
z
" transform="scale(0.015625)"/>
       <path id="DejaVuSans-Bold-65" d="M 4031 1759 
L 4031 1441 
L 1416 1441 
Q 1456 1047 1700 850 
Q 1944 653 2381 653 
Q 2734 653 3104 758 
Q 3475 863 3866 1075 
L 3866 213 
Q 3469 63 3072 -14 
Q 2675 -91 2278 -91 
Q 1328 -91 801 392 
Q 275 875 275 1747 
Q 275 2603 792 3093 
Q 1309 3584 2216 3584 
Q 3041 3584 3536 3087 
Q 4031 2591 4031 1759 
z
M 2881 2131 
Q 2881 2450 2695 2645 
Q 2509 2841 2209 2841 
Q 1884 2841 1681 2658 
Q 1478 2475 1428 2131 
L 2881 2131 
z
" transform="scale(0.015625)"/>
       <path id="DejaVuSans-Bold-6e" d="M 4056 2131 
L 4056 0 
L 2931 0 
L 2931 347 
L 2931 1631 
Q 2931 2084 2911 2256 
Q 2891 2428 2841 2509 
Q 2775 2619 2662 2680 
Q 2550 2741 2406 2741 
Q 2056 2741 1856 2470 
Q 1656 2200 1656 1722 
L 1656 0 
L 538 0 
L 538 3500 
L 1656 3500 
L 1656 2988 
Q 1909 3294 2193 3439 
Q 2478 3584 2822 3584 
Q 3428 3584 3742 3212 
Q 4056 2841 4056 2131 
z
" transform="scale(0.015625)"/>
       <path id="DejaVuSans-Bold-74" d="M 1759 4494 
L 1759 3500 
L 2913 3500 
L 2913 2700 
L 1759 2700 
L 1759 1216 
Q 1759 972 1856 886 
Q 1953 800 2241 800 
L 2816 800 
L 2816 0 
L 1856 0 
Q 1194 0 917 276 
Q 641 553 641 1216 
L 641 2700 
L 84 2700 
L 84 3500 
L 641 3500 
L 641 4494 
L 1759 4494 
z
" transform="scale(0.015625)"/>
       <path id="DejaVuSans-Bold-20" transform="scale(0.015625)"/>
       <path id="DejaVuSans-Bold-52" d="M 2297 2597 
Q 2675 2597 2839 2737 
Q 3003 2878 3003 3200 
Q 3003 3519 2839 3656 
Q 2675 3794 2297 3794 
L 1791 3794 
L 1791 2597 
L 2297 2597 
z
M 1791 1766 
L 1791 0 
L 588 0 
L 588 4666 
L 2425 4666 
Q 3347 4666 3776 4356 
Q 4206 4047 4206 3378 
Q 4206 2916 3982 2619 
Q 3759 2322 3309 2181 
Q 3556 2125 3751 1926 
Q 3947 1728 4147 1325 
L 4800 0 
L 3519 0 
L 2950 1159 
Q 2778 1509 2601 1637 
Q 2425 1766 2131 1766 
L 1791 1766 
z
" transform="scale(0.015625)"/>
       <path id="DejaVuSans-Bold-73" d="M 3272 3391 
L 3272 2541 
Q 2913 2691 2578 2766 
Q 2244 2841 1947 2841 
Q 1628 2841 1473 2761 
Q 1319 2681 1319 2516 
Q 1319 2381 1436 2309 
Q 1553 2238 1856 2203 
L 2053 2175 
Q 2913 2066 3209 1816 
Q 3506 1566 3506 1031 
Q 3506 472 3093 190 
Q 2681 -91 1863 -91 
Q 1516 -91 1145 -36 
Q 775 19 384 128 
L 384 978 
Q 719 816 1070 734 
Q 1422 653 1784 653 
Q 2113 653 2278 743 
Q 2444 834 2444 1013 
Q 2444 1163 2330 1236 
Q 2216 1309 1875 1350 
L 1678 1375 
Q 931 1469 631 1722 
Q 331 1975 331 2491 
Q 331 3047 712 3315 
Q 1094 3584 1881 3584 
Q 2191 3584 2531 3537 
Q 2872 3491 3272 3391 
z
" transform="scale(0.015625)"/>
       <path id="DejaVuSans-Bold-69" d="M 538 3500 
L 1656 3500 
L 1656 0 
L 538 0 
L 538 3500 
z
M 538 4863 
L 1656 4863 
L 1656 3950 
L 538 3950 
L 538 4863 
z
" transform="scale(0.015625)"/>
       <path id="DejaVuSans-Bold-76" d="M 97 3500 
L 1216 3500 
L 2088 1081 
L 2956 3500 
L 4078 3500 
L 2700 0 
L 1472 0 
L 97 3500 
z
" transform="scale(0.015625)"/>
       <path id="DejaVuSans-Bold-79" d="M 78 3500 
L 1197 3500 
L 2138 1125 
L 2938 3500 
L 4056 3500 
L 2584 -331 
Q 2363 -916 2067 -1148 
Q 1772 -1381 1288 -1381 
L 641 -1381 
L 641 -647 
L 991 -647 
Q 1275 -647 1404 -556 
Q 1534 -466 1606 -231 
L 1638 -134 
L 78 3500 
z
" transform="scale(0.015625)"/>
       <path id="DejaVuSans-Bold-5b" d="M 550 4863 
L 2491 4863 
L 2491 4159 
L 1613 4159 
L 1613 -141 
L 2491 -141 
L 2491 -844 
L 550 -844 
L 550 4863 
z
" transform="scale(0.015625)"/>
       <path id="DejaVuSans-Bold-3a9" d="M 2719 4750 
Q 3841 4750 4480 4106 
Q 5119 3463 5119 2494 
Q 5119 1406 4306 909 
L 5266 909 
L 5266 0 
L 3125 0 
L 3125 975 
Q 3244 1041 3334 1131 
Q 3875 1678 3875 2466 
Q 3875 3066 3572 3472 
Q 3269 3878 2719 3878 
Q 2169 3878 1866 3472 
Q 1563 3066 1563 2466 
Q 1563 1678 2103 1131 
Q 2194 1041 2313 975 
L 2313 0 
L 172 0 
L 172 909 
L 1131 909 
Q 319 1406 319 2494 
Q 319 3463 958 4106 
Q 1597 4750 2719 4750 
z
" transform="scale(0.015625)"/>
       <path id="DejaVuSans-Bold-6d" d="M 3781 2919 
Q 3994 3244 4286 3414 
Q 4578 3584 4928 3584 
Q 5531 3584 5847 3212 
Q 6163 2841 6163 2131 
L 6163 0 
L 5038 0 
L 5038 1825 
Q 5041 1866 5042 1909 
Q 5044 1953 5044 2034 
Q 5044 2406 4934 2573 
Q 4825 2741 4581 2741 
Q 4263 2741 4089 2478 
Q 3916 2216 3909 1719 
L 3909 0 
L 2784 0 
L 2784 1825 
Q 2784 2406 2684 2573 
Q 2584 2741 2328 2741 
Q 2006 2741 1831 2477 
Q 1656 2213 1656 1722 
L 1656 0 
L 531 0 
L 531 3500 
L 1656 3500 
L 1656 2988 
Q 1863 3284 2130 3434 
Q 2397 3584 2719 3584 
Q 3081 3584 3359 3409 
Q 3638 3234 3781 2919 
z
" transform="scale(0.015625)"/>
       <path id="DejaVuSans-Bold-5d" d="M 2375 -844 
L 434 -844 
L 434 -141 
L 1313 -141 
L 1313 4159 
L 434 4159 
L 434 4863 
L 2375 4863 
L 2375 -844 
z
" transform="scale(0.015625)"/>
      </defs>
      <use xlink:href="#DejaVuSans-Bold-41" transform="translate(0 0.015625)"/>
      <use xlink:href="#DejaVuSans-Bold-70" transform="translate(77.392578 0.015625)"/>
      <use xlink:href="#DejaVuSans-Bold-70" transform="translate(148.974609 0.015625)"/>
      <use xlink:href="#DejaVuSans-Bold-61" transform="translate(220.556641 0.015625)"/>
      <use xlink:href="#DejaVuSans-Bold-72" transform="translate(288.037109 0.015625)"/>
      <use xlink:href="#DejaVuSans-Bold-65" transform="translate(337.353516 0.015625)"/>
      <use xlink:href="#DejaVuSans-Bold-6e" transform="translate(405.175781 0.015625)"/>
      <use xlink:href="#DejaVuSans-Bold-74" transform="translate(476.367188 0.015625)"/>
      <use xlink:href="#DejaVuSans-Bold-20" transform="translate(524.169922 0.015625)"/>
      <use xlink:href="#DejaVuSans-Bold-52" transform="translate(558.984375 0.015625)"/>
      <use xlink:href="#DejaVuSans-Bold-65" transform="translate(635.986328 0.015625)"/>
      <use xlink:href="#DejaVuSans-Bold-73" transform="translate(703.808594 0.015625)"/>
      <use xlink:href="#DejaVuSans-Bold-69" transform="translate(763.330078 0.015625)"/>
      <use xlink:href="#DejaVuSans-Bold-73" transform="translate(797.607422 0.015625)"/>
      <use xlink:href="#DejaVuSans-Bold-74" transform="translate(857.128906 0.015625)"/>
      <use xlink:href="#DejaVuSans-Bold-69" transform="translate(904.931641 0.015625)"/>
      <use xlink:href="#DejaVuSans-Bold-76" transform="translate(939.208984 0.015625)"/>
      <use xlink:href="#DejaVuSans-Bold-69" transform="translate(1004.394531 0.015625)"/>
      <use xlink:href="#DejaVuSans-Bold-74" transform="translate(1038.671875 0.015625)"/>
      <use xlink:href="#DejaVuSans-Bold-79" transform="translate(1086.474609 0.015625)"/>
      <use xlink:href="#DejaVuSans-Bold-20" transform="translate(1151.660156 0.015625)"/>
      <use xlink:href="#DejaVuSans-Bold-5b" transform="translate(1186.474609 0.015625)"/>
      <use xlink:href="#DejaVuSans-Bold-3a9" transform="translate(1232.177734 0.015625)"/>
      <use xlink:href="#DejaVuSans-Bold-6d" transform="translate(1317.1875 0.015625)"/>
      <use xlink:href="#DejaVuSans-Bold-5d" transform="translate(1421.386719 0.015625)"/>
     </g>
    </g>
   </g>
   <g id="line2d_4">
    <path d="M 261.644826 28.063636 
L 260.313072 47.030579 
L 259.483239 65.997521 
L 262.500664 84.964463 
L 256.046843 103.931405 
L 257.406624 122.898347 
L 259.104772 141.865289 
L 251.131684 160.832231 
L 248.114958 179.799174 
L 239.299133 198.766116 
L 229.484105 217.733058 
L 210.902996 236.7 
L 186.811786 255.666942 
L 163.495079 274.633884 
L 130.67458 293.600826 
L 108.809258 312.567769 
L 81.414784 331.534711 
L 70.321725 350.501653 
L 53.496998 369.468595 
L 51.462607 388.435537 
L 45.072383 407.402479 
L 34.579845 426.369421 
L 36.243971 445.336364 
" clip-path="url(#p81fd4d25fe)" style="fill: none; stroke: #756bb1; stroke-opacity: 0.2; stroke-width: 2; stroke-linecap: square"/>
   </g>
   <g id="line2d_5">
    <path d="M 260.427783 28.063636 
L 258.145942 47.030579 
L 262.924195 65.997521 
L 264.829484 84.964463 
L 261.279264 103.931405 
L 259.375517 122.898347 
L 258.8296 141.865289 
L 254.393968 160.832231 
L 247.272598 179.799174 
L 238.879926 198.766116 
L 230.28674 217.733058 
L 212.447906 236.7 
L 188.338421 255.666942 
L 165.232126 274.633884 
L 139.051418 293.600826 
L 114.232294 312.567769 
L 84.915109 331.534711 
L 76.454257 350.501653 
L 60.31939 369.468595 
L 54.309072 388.435537 
L 45.01756 407.402479 
L 36.323812 426.369421 
L 30.751524 445.336364 
" clip-path="url(#p81fd4d25fe)" style="fill: none; stroke: #756bb1; stroke-opacity: 0.2; stroke-width: 2; stroke-linecap: square"/>
   </g>
   <g id="line2d_6">
    <path d="M 258.135603 28.063636 
L 256.900732 47.030579 
L 264.822825 65.997521 
L 256.539877 84.964463 
L 259.355179 103.931405 
L 257.376134 122.898347 
L 258.184243 141.865289 
L 245.823397 160.832231 
L 243.71766 179.799174 
L 231.071581 198.766116 
L 220.905921 217.733058 
L 204.269679 236.7 
L 183.364951 255.666942 
L 159.890414 274.633884 
L 144.311824 293.600826 
L 116.192904 312.567769 
L 92.505868 331.534711 
L 76.326029 350.501653 
L 65.735907 369.468595 
L 47.417299 388.435537 
L 43.457971 407.402479 
L 39.930562 426.369421 
L 34.154226 445.336364 
" clip-path="url(#p81fd4d25fe)" style="fill: none; stroke: #756bb1; stroke-opacity: 0.2; stroke-width: 2; stroke-linecap: square"/>
   </g>
   <g id="line2d_7">
    <path d="M 261.476939 28.063636 
L 260.946877 47.030579 
L 258.511754 65.997521 
L 263.596384 84.964463 
L 264.284387 103.931405 
L 264.192485 122.898347 
L 261.350597 141.865289 
L 255.740732 160.832231 
L 252.424724 179.799174 
L 237.721907 198.766116 
L 226.754218 217.733058 
L 212.770723 236.7 
L 193.971281 255.666942 
L 161.367621 274.633884 
L 139.742557 293.600826 
L 106.651498 312.567769 
L 87.612909 331.534711 
L 72.116457 350.501653 
L 56.871668 369.468595 
L 55.286024 388.435537 
L 44.498408 407.402479 
L 41.52143 426.369421 
L 34.527139 445.336364 
" clip-path="url(#p81fd4d25fe)" style="fill: none; stroke: #756bb1; stroke-opacity: 0.2; stroke-width: 2; stroke-linecap: square"/>
   </g>
   <g id="line2d_8">
    <path d="M 262.780851 28.063636 
L 256.528727 47.030579 
L 257.006695 65.997521 
L 256.485233 84.964463 
L 263.152517 103.931405 
L 260.96538 122.898347 
L 258.152817 141.865289 
L 247.545789 160.832231 
L 245.546311 179.799174 
L 235.954138 198.766116 
L 230.601389 217.733058 
L 212.436695 236.7 
L 184.886586 255.666942 
L 159.695248 274.633884 
L 133.423162 293.600826 
L 102.12205 312.567769 
L 72.571939 331.534711 
L 62.507592 350.501653 
L 46.645083 369.468595 
L 44.437704 388.435537 
L 35.659574 407.402479 
L 34.89252 426.369421 
L 23.308575 445.336364 
" clip-path="url(#p81fd4d25fe)" style="fill: none; stroke: #756bb1; stroke-opacity: 0.2; stroke-width: 2; stroke-linecap: square"/>
   </g>
   <g id="line2d_9">
    <path d="M 263.131888 28.063636 
L 257.510405 47.030579 
L 264.76851 65.997521 
L 264.484592 84.964463 
L 256.148907 103.931405 
L 260.963258 122.898347 
L 260.325716 141.865289 
L 253.346131 160.832231 
L 250.648745 179.799174 
L 243.145156 198.766116 
L 230.771938 217.733058 
L 210.572166 236.7 
L 187.813359 255.666942 
L 160.176762 274.633884 
L 128.830376 293.600826 
L 111.129137 312.567769 
L 82.011881 331.534711 
L 73.059107 350.501653 
L 62.426874 369.468595 
L 55.561902 388.435537 
L 45.771755 407.402479 
L 44.370924 426.369421 
L 29.959851 445.336364 
" clip-path="url(#p81fd4d25fe)" style="fill: none; stroke: #756bb1; stroke-opacity: 0.2; stroke-width: 2; stroke-linecap: square"/>
   </g>
   <g id="line2d_10">
    <path d="M 259.199563 28.063636 
L 259.741544 47.030579 
L 258.923635 65.997521 
L 260.860769 84.964463 
L 260.366042 103.931405 
L 262.073544 122.898347 
L 258.24378 141.865289 
L 251.947275 160.832231 
L 247.06502 179.799174 
L 239.847807 198.766116 
L 224.930657 217.733058 
L 211.152186 236.7 
L 183.966835 255.666942 
L 158.147369 274.633884 
L 128.982648 293.600826 
L 103.542632 312.567769 
L 82.401651 331.534711 
L 65.20861 350.501653 
L 55.667143 369.468595 
L 50.565259 388.435537 
L 43.802518 407.402479 
L 35.733249 426.369421 
L 33.463638 445.336364 
" clip-path="url(#p81fd4d25fe)" style="fill: none; stroke: #756bb1; stroke-opacity: 0.2; stroke-width: 2; stroke-linecap: square"/>
   </g>
   <g id="line2d_11">
    <path d="M 262.92199 28.063636 
L 257.920057 47.030579 
L 259.671251 65.997521 
L 264.844332 84.964463 
L 259.332652 103.931405 
L 255.285471 122.898347 
L 258.004943 141.865289 
L 257.445655 160.832231 
L 251.636881 179.799174 
L 238.684526 198.766116 
L 226.931262 217.733058 
L 214.669486 236.7 
L 187.365841 255.666942 
L 163.339296 274.633884 
L 141.806308 293.600826 
L 110.750213 312.567769 
L 89.577361 331.534711 
L 68.969132 350.501653 
L 62.395487 369.468595 
L 48.90027 388.435537 
L 45.103754 407.402479 
L 44.187987 426.369421 
L 40.756375 445.336364 
" clip-path="url(#p81fd4d25fe)" style="fill: none; stroke: #756bb1; stroke-opacity: 0.2; stroke-width: 2; stroke-linecap: square"/>
   </g>
   <g id="line2d_12">
    <path d="M 256.141356 28.063636 
L 257.492846 47.030579 
L 256.110701 65.997521 
L 256.644687 84.964463 
L 261.439427 103.931405 
L 255.347696 122.898347 
L 250.248467 141.865289 
L 249.678772 160.832231 
L 243.172268 179.799174 
L 240.999648 198.766116 
L 228.136766 217.733058 
L 213.110023 236.7 
L 186.037345 255.666942 
L 164.57587 274.633884 
L 134.684947 293.600826 
L 110.349426 312.567769 
L 89.167336 331.534711 
L 70.839012 350.501653 
L 56.201676 369.468595 
L 47.24119 388.435537 
L 39.48826 407.402479 
L 32.568056 426.369421 
L 21.134123 445.336364 
" clip-path="url(#p81fd4d25fe)" style="fill: none; stroke: #756bb1; stroke-opacity: 0.2; stroke-width: 2; stroke-linecap: square"/>
   </g>
   <g id="line2d_13">
    <path d="M 260.271006 28.063636 
L 264.001028 47.030579 
L 257.4375 65.997521 
L 262.521987 84.964463 
L 256.058477 103.931405 
L 262.875692 122.898347 
L 261.052272 141.865289 
L 255.049826 160.832231 
L 248.611171 179.799174 
L 238.011932 198.766116 
L 226.091925 217.733058 
L 212.090597 236.7 
L 195.357045 255.666942 
L 171.147643 274.633884 
L 144.103189 293.600826 
L 115.925324 312.567769 
L 89.669817 331.534711 
L 68.670691 350.501653 
L 58.951966 369.468595 
L 46.231393 388.435537 
L 36.757895 407.402479 
L 37.273129 426.369421 
L 32.047985 445.336364 
" clip-path="url(#p81fd4d25fe)" style="fill: none; stroke: #756bb1; stroke-opacity: 0.2; stroke-width: 2; stroke-linecap: square"/>
   </g>
   <g id="line2d_14">
    <path d="M 259.226326 28.063636 
L 257.069719 47.030579 
L 260.132751 65.997521 
L 263.306771 84.964463 
L 263.356197 103.931405 
L 260.696173 122.898347 
L 252.367041 141.865289 
L 251.045247 160.832231 
L 243.891941 179.799174 
L 233.709058 198.766116 
L 221.190014 217.733058 
L 206.693395 236.7 
L 182.348982 255.666942 
L 164.81272 274.633884 
L 139.617349 293.600826 
L 114.583338 312.567769 
L 93.057653 331.534711 
L 78.449669 350.501653 
L 62.870524 369.468595 
L 54.162112 388.435537 
L 51.886335 407.402479 
L 43.902757 426.369421 
L 44.608279 445.336364 
" clip-path="url(#p81fd4d25fe)" style="fill: none; stroke: #756bb1; stroke-opacity: 0.2; stroke-width: 2; stroke-linecap: square"/>
   </g>
   <g id="line2d_15">
    <path d="M 264.757543 28.063636 
L 262.052256 47.030579 
L 255.671646 65.997521 
L 263.082985 84.964463 
L 261.312398 103.931405 
L 257.153425 122.898347 
L 258.615099 141.865289 
L 249.331072 160.832231 
L 246.835589 179.799174 
L 233.079559 198.766116 
L 223.440974 217.733058 
L 205.207867 236.7 
L 185.692177 255.666942 
L 159.689488 274.633884 
L 136.997201 293.600826 
L 109.235784 312.567769 
L 92.552703 331.534711 
L 75.090214 350.501653 
L 55.440198 369.468595 
L 50.565183 388.435537 
L 48.204949 407.402479 
L 44.169249 426.369421 
L 41.700386 445.336364 
" clip-path="url(#p81fd4d25fe)" style="fill: none; stroke: #756bb1; stroke-opacity: 0.2; stroke-width: 2; stroke-linecap: square"/>
   </g>
   <g id="line2d_16">
    <path d="M 261.685627 28.063636 
L 261.45355 47.030579 
L 257.69702 65.997521 
L 258.523306 84.964463 
L 259.05275 103.931405 
L 261.581327 122.898347 
L 255.681311 141.865289 
L 256.232817 160.832231 
L 246.17937 179.799174 
L 238.859593 198.766116 
L 225.451947 217.733058 
L 211.721653 236.7 
L 184.044145 255.666942 
L 157.273673 274.633884 
L 137.566472 293.600826 
L 105.666019 312.567769 
L 83.992809 331.534711 
L 73.249554 350.501653 
L 57.020063 369.468595 
L 50.548605 388.435537 
L 45.464518 407.402479 
L 39.364134 426.369421 
L 30.9286 445.336364 
" clip-path="url(#p81fd4d25fe)" style="fill: none; stroke: #756bb1; stroke-opacity: 0.2; stroke-width: 2; stroke-linecap: square"/>
   </g>
   <g id="line2d_17">
    <path d="M 262.665245 28.063636 
L 256.85055 47.030579 
L 261.272736 65.997521 
L 259.345189 84.964463 
L 260.549182 103.931405 
L 253.942883 122.898347 
L 255.809027 141.865289 
L 253.229481 160.832231 
L 248.690999 179.799174 
L 235.100624 198.766116 
L 224.426058 217.733058 
L 210.985888 236.7 
L 191.359321 255.666942 
L 160.338565 274.633884 
L 134.838359 293.600826 
L 105.99839 312.567769 
L 90.046585 331.534711 
L 67.74306 350.501653 
L 61.955037 369.468595 
L 52.934968 388.435537 
L 45.208136 407.402479 
L 41.145061 426.369421 
L 24.89489 445.336364 
" clip-path="url(#p81fd4d25fe)" style="fill: none; stroke: #756bb1; stroke-opacity: 0.2; stroke-width: 2; stroke-linecap: square"/>
   </g>
   <g id="line2d_18">
    <path d="M 257.703026 28.063636 
L 258.241869 47.030579 
L 264.827866 65.997521 
L 263.511974 84.964463 
L 257.763214 103.931405 
L 261.626538 122.898347 
L 259.905206 141.865289 
L 255.824521 160.832231 
L 252.076448 179.799174 
L 236.996156 198.766116 
L 232.76308 217.733058 
L 216.507768 236.7 
L 193.744892 255.666942 
L 171.03918 274.633884 
L 136.058203 293.600826 
L 109.139943 312.567769 
L 86.881268 331.534711 
L 76.013124 350.501653 
L 59.48155 369.468595 
L 50.535217 388.435537 
L 47.516314 407.402479 
L 37.519682 426.369421 
L 28.337781 445.336364 
" clip-path="url(#p81fd4d25fe)" style="fill: none; stroke: #756bb1; stroke-opacity: 0.2; stroke-width: 2; stroke-linecap: square"/>
   </g>
   <g id="line2d_19">
    <path d="M 260.26339 28.063636 
L 260.706163 47.030579 
L 257.580182 65.997521 
L 257.634196 84.964463 
L 260.503707 103.931405 
L 261.606841 122.898347 
L 258.351808 141.865289 
L 253.974548 160.832231 
L 245.883666 179.799174 
L 237.174718 198.766116 
L 227.411966 217.733058 
L 213.416666 236.7 
L 184.331448 255.666942 
L 157.790057 274.633884 
L 128.731573 293.600826 
L 105.097989 312.567769 
L 80.699994 331.534711 
L 61.712188 350.501653 
L 47.783872 369.468595 
L 44.643564 388.435537 
L 40.894628 407.402479 
L 35.967807 426.369421 
L 39.273987 445.336364 
" clip-path="url(#p81fd4d25fe)" style="fill: none; stroke: #756bb1; stroke-opacity: 0.2; stroke-width: 2; stroke-linecap: square"/>
   </g>
   <g id="line2d_20">
    <path d="M 258.612202 28.063636 
L 262.458684 47.030579 
L 256.424336 65.997521 
L 256.753789 84.964463 
L 261.108182 103.931405 
L 260.759346 122.898347 
L 258.062565 141.865289 
L 246.028526 160.832231 
L 242.175117 179.799174 
L 231.235895 198.766116 
L 223.175213 217.733058 
L 205.291783 236.7 
L 184.366126 255.666942 
L 164.059745 274.633884 
L 138.807751 293.600826 
L 113.125086 312.567769 
L 84.548057 331.534711 
L 71.341591 350.501653 
L 52.352207 369.468595 
L 46.116086 388.435537 
L 37.092084 407.402479 
L 28.719089 426.369421 
L 24.257369 445.336364 
" clip-path="url(#p81fd4d25fe)" style="fill: none; stroke: #756bb1; stroke-opacity: 0.2; stroke-width: 2; stroke-linecap: square"/>
   </g>
   <g id="line2d_21">
    <path d="M 258.593065 28.063636 
L 262.789961 47.030579 
L 262.093758 65.997521 
L 261.551706 84.964463 
L 257.803847 103.931405 
L 257.32987 122.898347 
L 251.493024 141.865289 
L 254.286229 160.832231 
L 241.491747 179.799174 
L 238.048308 198.766116 
L 223.668251 217.733058 
L 205.012853 236.7 
L 189.661436 255.666942 
L 165.770853 274.633884 
L 139.76375 293.600826 
L 115.803051 312.567769 
L 91.782787 331.534711 
L 73.928363 350.501653 
L 60.200171 369.468595 
L 44.557544 388.435537 
L 39.574434 407.402479 
L 39.946367 426.369421 
L 36.971548 445.336364 
" clip-path="url(#p81fd4d25fe)" style="fill: none; stroke: #756bb1; stroke-opacity: 0.2; stroke-width: 2; stroke-linecap: square"/>
   </g>
   <g id="line2d_22">
    <path d="M 262.872474 28.063636 
L 261.130585 47.030579 
L 258.28669 65.997521 
L 257.517714 84.964463 
L 254.855142 103.931405 
L 258.92493 122.898347 
L 255.73112 141.865289 
L 252.643996 160.832231 
L 250.956097 179.799174 
L 235.386028 198.766116 
L 229.456627 217.733058 
L 207.794541 236.7 
L 186.674467 255.666942 
L 167.816272 274.633884 
L 137.983521 293.600826 
L 113.46489 312.567769 
L 88.421352 331.534711 
L 70.58397 350.501653 
L 57.664357 369.468595 
L 46.25324 388.435537 
L 41.987391 407.402479 
L 36.290962 426.369421 
L 39.926627 445.336364 
" clip-path="url(#p81fd4d25fe)" style="fill: none; stroke: #756bb1; stroke-opacity: 0.2; stroke-width: 2; stroke-linecap: square"/>
   </g>
   <g id="line2d_23">
    <path d="M 262.509062 28.063636 
L 256.852043 47.030579 
L 254.641931 65.997521 
L 259.090528 84.964463 
L 255.613508 103.931405 
L 252.983708 122.898347 
L 256.999066 141.865289 
L 249.553135 160.832231 
L 242.290976 179.799174 
L 236.005486 198.766116 
L 223.601491 217.733058 
L 199.986626 236.7 
L 184.487498 255.666942 
L 158.988228 274.633884 
L 132.3428 293.600826 
L 105.726474 312.567769 
L 90.896229 331.534711 
L 67.698298 350.501653 
L 55.049266 369.468595 
L 51.277651 388.435537 
L 46.711589 407.402479 
L 40.754714 426.369421 
L 38.775576 445.336364 
" clip-path="url(#p81fd4d25fe)" style="fill: none; stroke: #756bb1; stroke-opacity: 0.2; stroke-width: 2; stroke-linecap: square"/>
   </g>
   <g id="line2d_24">
    <path d="M 261.576168 28.063636 
L 265.959351 47.030579 
L 265.534578 65.997521 
L 261.763406 84.964463 
L 262.093852 103.931405 
L 261.497441 122.898347 
L 253.003868 141.865289 
L 254.094826 160.832231 
L 246.779699 179.799174 
L 241.286842 198.766116 
L 231.092285 217.733058 
L 211.876344 236.7 
L 185.075607 255.666942 
L 157.417818 274.633884 
L 136.106699 293.600826 
L 102.594597 312.567769 
L 87.897059 331.534711 
L 69.645852 350.501653 
L 57.494722 369.468595 
L 45.980322 388.435537 
L 38.870143 407.402479 
L 38.802386 426.369421 
L 28.501884 445.336364 
" clip-path="url(#p81fd4d25fe)" style="fill: none; stroke: #756bb1; stroke-opacity: 0.2; stroke-width: 2; stroke-linecap: square"/>
   </g>
   <g id="line2d_25">
    <path d="M 261.171865 28.063636 
L 263.159362 47.030579 
L 262.915307 65.997521 
L 263.592325 84.964463 
L 257.067568 103.931405 
L 254.324234 122.898347 
L 254.495135 141.865289 
L 252.128699 160.832231 
L 248.860757 179.799174 
L 231.692987 198.766116 
L 221.504668 217.733058 
L 203.834431 236.7 
L 183.671385 255.666942 
L 160.063573 274.633884 
L 135.424997 293.600826 
L 111.183167 312.567769 
L 90.531546 331.534711 
L 71.828696 350.501653 
L 63.397098 369.468595 
L 53.971304 388.435537 
L 50.270552 407.402479 
L 44.11416 426.369421 
L 40.375185 445.336364 
" clip-path="url(#p81fd4d25fe)" style="fill: none; stroke: #756bb1; stroke-opacity: 0.2; stroke-width: 2; stroke-linecap: square"/>
   </g>
   <g id="line2d_26">
    <path d="M 258.132351 28.063636 
L 262.360434 47.030579 
L 259.736649 65.997521 
L 258.137225 84.964463 
L 263.362385 103.931405 
L 259.893068 122.898347 
L 261.189515 141.865289 
L 252.518971 160.832231 
L 252.097168 179.799174 
L 240.531192 198.766116 
L 227.390893 217.733058 
L 209.622869 236.7 
L 185.968607 255.666942 
L 159.789259 274.633884 
L 138.02953 293.600826 
L 114.062162 312.567769 
L 84.142298 331.534711 
L 64.980322 350.501653 
L 60.919448 369.468595 
L 48.984803 388.435537 
L 47.613891 407.402479 
L 46.099091 426.369421 
L 41.595193 445.336364 
" clip-path="url(#p81fd4d25fe)" style="fill: none; stroke: #756bb1; stroke-opacity: 0.2; stroke-width: 2; stroke-linecap: square"/>
   </g>
   <g id="line2d_27">
    <path d="M 257.775803 28.063636 
L 257.446154 47.030579 
L 258.774457 65.997521 
L 261.011928 84.964463 
L 257.882552 103.931405 
L 259.861728 122.898347 
L 252.189766 141.865289 
L 256.580599 160.832231 
L 247.6878 179.799174 
L 240.729973 198.766116 
L 224.500247 217.733058 
L 210.875646 236.7 
L 186.646224 255.666942 
L 163.758872 274.633884 
L 134.193292 293.600826 
L 103.165531 312.567769 
L 87.33089 331.534711 
L 68.957654 350.501653 
L 52.181459 369.468595 
L 53.005213 388.435537 
L 46.955739 407.402479 
L 42.98627 426.369421 
L 31.203288 445.336364 
" clip-path="url(#p81fd4d25fe)" style="fill: none; stroke: #756bb1; stroke-opacity: 0.2; stroke-width: 2; stroke-linecap: square"/>
   </g>
   <g id="line2d_28">
    <path d="M 261.315078 28.063636 
L 261.419128 47.030579 
L 259.305558 65.997521 
L 255.596655 84.964463 
L 254.053201 103.931405 
L 258.527172 122.898347 
L 257.392484 141.865289 
L 252.479402 160.832231 
L 254.779788 179.799174 
L 250.534267 198.766116 
L 241.960645 217.733058 
L 228.519053 236.7 
L 207.582382 255.666942 
L 188.896188 274.633884 
L 159.322801 293.600826 
L 127.765941 312.567769 
L 101.739147 331.534711 
L 74.677324 350.501653 
L 63.156866 369.468595 
L 51.49487 388.435537 
L 36.440734 407.402479 
L 33.862446 426.369421 
L 31.972996 445.336364 
" clip-path="url(#p81fd4d25fe)" style="fill: none; stroke: #756bb1; stroke-opacity: 0.2; stroke-width: 2; stroke-linecap: square"/>
   </g>
   <g id="line2d_29">
    <path d="M 264.429705 28.063636 
L 264.749773 47.030579 
L 260.964379 65.997521 
L 261.212598 84.964463 
L 260.914168 103.931405 
L 257.003652 122.898347 
L 252.865007 141.865289 
L 255.907567 160.832231 
L 245.018019 179.799174 
L 239.92738 198.766116 
L 224.211866 217.733058 
L 209.01841 236.7 
L 190.663771 255.666942 
L 159.861695 274.633884 
L 129.326623 293.600826 
L 104.647301 312.567769 
L 81.196276 331.534711 
L 66.397911 350.501653 
L 49.876687 369.468595 
L 42.509081 388.435537 
L 37.695668 407.402479 
L 35.234766 426.369421 
L 29.971636 445.336364 
" clip-path="url(#p81fd4d25fe)" style="fill: none; stroke: #756bb1; stroke-opacity: 0.2; stroke-width: 2; stroke-linecap: square"/>
   </g>
   <g id="line2d_30">
    <path d="M 265.294008 28.063636 
L 262.088801 47.030579 
L 263.596407 65.997521 
L 258.929953 84.964463 
L 260.720925 103.931405 
L 256.586359 122.898347 
L 253.36319 141.865289 
L 239.220654 160.832231 
L 236.336552 179.799174 
L 225.415574 198.766116 
L 208.895296 217.733058 
L 196.629594 236.7 
L 177.057974 255.666942 
L 160.224399 274.633884 
L 140.77233 293.600826 
L 115.591676 312.567769 
L 90.889089 331.534711 
L 73.568915 350.501653 
L 55.579647 369.468595 
L 43.436144 388.435537 
L 39.65303 407.402479 
L 34.662535 426.369421 
L 23.933004 445.336364 
" clip-path="url(#p81fd4d25fe)" style="fill: none; stroke: #756bb1; stroke-opacity: 0.2; stroke-width: 2; stroke-linecap: square"/>
   </g>
   <g id="line2d_31">
    <path d="M 262.685782 28.063636 
L 258.382526 47.030579 
L 260.931292 65.997521 
L 258.762157 84.964463 
L 262.319584 103.931405 
L 258.92176 122.898347 
L 259.234053 141.865289 
L 257.557531 160.832231 
L 246.771752 179.799174 
L 236.905944 198.766116 
L 224.18852 217.733058 
L 213.341946 236.7 
L 191.012151 255.666942 
L 161.606175 274.633884 
L 140.550801 293.600826 
L 107.159535 312.567769 
L 86.54273 331.534711 
L 71.750064 350.501653 
L 66.52807 369.468595 
L 54.697078 388.435537 
L 52.331648 407.402479 
L 41.666801 426.369421 
L 39.344003 445.336364 
" clip-path="url(#p81fd4d25fe)" style="fill: none; stroke: #756bb1; stroke-opacity: 0.2; stroke-width: 2; stroke-linecap: square"/>
   </g>
   <g id="line2d_32">
    <path d="M 259.080898 28.063636 
L 261.748179 47.030579 
L 259.370604 65.997521 
L 256.35401 84.964463 
L 256.217663 103.931405 
L 257.301899 122.898347 
L 259.719231 141.865289 
L 249.111444 160.832231 
L 247.439111 179.799174 
L 242.595417 198.766116 
L 223.99115 217.733058 
L 215.993855 236.7 
L 187.133459 255.666942 
L 163.985728 274.633884 
L 134.15138 293.600826 
L 113.822653 312.567769 
L 84.786095 331.534711 
L 72.668799 350.501653 
L 59.864885 369.468595 
L 54.2356 388.435537 
L 57.141415 407.402479 
L 47.766533 426.369421 
L 41.198063 445.336364 
" clip-path="url(#p81fd4d25fe)" style="fill: none; stroke: #756bb1; stroke-opacity: 0.2; stroke-width: 2; stroke-linecap: square"/>
   </g>
   <g id="line2d_33">
    <path d="M 266.279753 28.063636 
L 265.850987 47.030579 
L 264.48262 65.997521 
L 257.695545 84.964463 
L 261.475759 103.931405 
L 256.880544 122.898347 
L 255.599772 141.865289 
L 249.878371 160.832231 
L 242.659769 179.799174 
L 235.481039 198.766116 
L 225.537572 217.733058 
L 208.671496 236.7 
L 182.934876 255.666942 
L 157.063185 274.633884 
L 131.816735 293.600826 
L 111.696157 312.567769 
L 93.256396 331.534711 
L 70.93811 350.501653 
L 66.892291 369.468595 
L 54.279058 388.435537 
L 51.572751 407.402479 
L 42.43917 426.369421 
L 40.388465 445.336364 
" clip-path="url(#p81fd4d25fe)" style="fill: none; stroke: #756bb1; stroke-opacity: 0.2; stroke-width: 2; stroke-linecap: square"/>
   </g>
   <g id="line2d_34">
    <path d="M 266.588668 28.063636 
L 265.415146 47.030579 
L 264.036432 65.997521 
L 257.490798 84.964463 
L 257.62319 103.931405 
L 256.298588 122.898347 
L 253.068325 141.865289 
L 253.870582 160.832231 
L 251.029457 179.799174 
L 241.958662 198.766116 
L 226.135781 217.733058 
L 214.70791 236.7 
L 190.020364 255.666942 
L 166.388576 274.633884 
L 131.126746 293.600826 
L 101.400543 312.567769 
L 83.153404 331.534711 
L 61.366119 350.501653 
L 54.483351 369.468595 
L 51.858204 388.435537 
L 50.251501 407.402479 
L 47.833416 426.369421 
L 38.368398 445.336364 
" clip-path="url(#p81fd4d25fe)" style="fill: none; stroke: #756bb1; stroke-opacity: 0.2; stroke-width: 2; stroke-linecap: square"/>
   </g>
   <g id="line2d_35">
    <path d="M 259.207054 28.063636 
L 264.627435 47.030579 
L 263.882443 65.997521 
L 264.061156 84.964463 
L 260.668826 103.931405 
L 259.295371 122.898347 
L 260.262471 141.865289 
L 253.069533 160.832231 
L 247.405253 179.799174 
L 236.57752 198.766116 
L 227.753865 217.733058 
L 211.94583 236.7 
L 193.97524 255.666942 
L 167.135946 274.633884 
L 146.410443 293.600826 
L 121.674818 312.567769 
L 91.844206 331.534711 
L 75.447687 350.501653 
L 60.014271 369.468595 
L 44.111122 388.435537 
L 36.642357 407.402479 
L 32.265254 426.369421 
L 33.954974 445.336364 
" clip-path="url(#p81fd4d25fe)" style="fill: none; stroke: #756bb1; stroke-opacity: 0.2; stroke-width: 2; stroke-linecap: square"/>
   </g>
   <g id="line2d_36">
    <path d="M 263.210335 28.063636 
L 263.448288 47.030579 
L 258.437528 65.997521 
L 254.826105 84.964463 
L 259.018657 103.931405 
L 261.352706 122.898347 
L 255.090067 141.865289 
L 253.217928 160.832231 
L 243.698583 179.799174 
L 239.325757 198.766116 
L 222.30415 217.733058 
L 203.466392 236.7 
L 184.906816 255.666942 
L 164.041405 274.633884 
L 132.065521 293.600826 
L 102.739264 312.567769 
L 81.17902 331.534711 
L 69.864593 350.501653 
L 54.419387 369.468595 
L 56.075033 388.435537 
L 47.389825 407.402479 
L 39.650431 426.369421 
L 33.62692 445.336364 
" clip-path="url(#p81fd4d25fe)" style="fill: none; stroke: #756bb1; stroke-opacity: 0.2; stroke-width: 2; stroke-linecap: square"/>
   </g>
   <g id="line2d_37">
    <path d="M 264.99874 28.063636 
L 261.783148 47.030579 
L 259.16246 65.997521 
L 261.547026 84.964463 
L 256.997764 103.931405 
L 257.640087 122.898347 
L 252.570418 141.865289 
L 252.939976 160.832231 
L 244.535987 179.799174 
L 241.789277 198.766116 
L 228.471237 217.733058 
L 205.775075 236.7 
L 191.547775 255.666942 
L 161.74433 274.633884 
L 133.442084 293.600826 
L 104.896744 312.567769 
L 85.097421 331.534711 
L 68.284278 350.501653 
L 62.335725 369.468595 
L 52.736744 388.435537 
L 48.782734 407.402479 
L 38.182757 426.369421 
L 34.212433 445.336364 
" clip-path="url(#p81fd4d25fe)" style="fill: none; stroke: #756bb1; stroke-opacity: 0.2; stroke-width: 2; stroke-linecap: square"/>
   </g>
   <g id="line2d_38">
    <path d="M 264.65035 28.063636 
L 256.943305 47.030579 
L 258.363949 65.997521 
L 260.377094 84.964463 
L 263.015585 103.931405 
L 255.913971 122.898347 
L 254.452554 141.865289 
L 253.65077 160.832231 
L 244.641582 179.799174 
L 238.760845 198.766116 
L 223.998027 217.733058 
L 207.746877 236.7 
L 189.018268 255.666942 
L 164.536371 274.633884 
L 137.713575 293.600826 
L 112.109586 312.567769 
L 82.338186 331.534711 
L 72.37817 350.501653 
L 54.315937 369.468595 
L 54.558098 388.435537 
L 49.321643 407.402479 
L 44.128626 426.369421 
L 35.991997 445.336364 
" clip-path="url(#p81fd4d25fe)" style="fill: none; stroke: #756bb1; stroke-opacity: 0.2; stroke-width: 2; stroke-linecap: square"/>
   </g>
   <g id="line2d_39">
    <path d="M 261.779082 28.063636 
L 260.799603 47.030579 
L 265.12195 65.997521 
L 258.578182 84.964463 
L 259.248561 103.931405 
L 257.829106 122.898347 
L 256.79084 141.865289 
L 256.541006 160.832231 
L 243.99293 179.799174 
L 233.959385 198.766116 
L 221.292707 217.733058 
L 205.218468 236.7 
L 182.822433 255.666942 
L 157.82588 274.633884 
L 132.473145 293.600826 
L 109.751167 312.567769 
L 89.576147 331.534711 
L 64.5789 350.501653 
L 55.326433 369.468595 
L 41.662395 388.435537 
L 44.209424 407.402479 
L 38.508479 426.369421 
L 37.384852 445.336364 
" clip-path="url(#p81fd4d25fe)" style="fill: none; stroke: #756bb1; stroke-opacity: 0.2; stroke-width: 2; stroke-linecap: square"/>
   </g>
   <g id="line2d_40">
    <path d="M 259.817325 28.063636 
L 258.903503 47.030579 
L 260.713338 65.997521 
L 260.427767 84.964463 
L 262.990721 103.931405 
L 262.716798 122.898347 
L 253.013694 141.865289 
L 254.195842 160.832231 
L 251.622982 179.799174 
L 237.034348 198.766116 
L 226.930984 217.733058 
L 211.582226 236.7 
L 194.3384 255.666942 
L 166.984703 274.633884 
L 135.171859 293.600826 
L 106.493735 312.567769 
L 88.322977 331.534711 
L 65.219677 350.501653 
L 53.992518 369.468595 
L 50.444652 388.435537 
L 44.519526 407.402479 
L 42.301462 426.369421 
L 26.364009 445.336364 
" clip-path="url(#p81fd4d25fe)" style="fill: none; stroke: #756bb1; stroke-opacity: 0.2; stroke-width: 2; stroke-linecap: square"/>
   </g>
   <g id="line2d_41">
    <path d="M 258.154235 28.063636 
L 255.657317 47.030579 
L 258.375962 65.997521 
L 258.657289 84.964463 
L 256.184279 103.931405 
L 257.857281 122.898347 
L 250.260387 141.865289 
L 251.830192 160.832231 
L 247.131523 179.799174 
L 234.066182 198.766116 
L 219.1332 217.733058 
L 207.248269 236.7 
L 180.659062 255.666942 
L 158.066775 274.633884 
L 136.079205 293.600826 
L 105.393614 312.567769 
L 86.705812 331.534711 
L 71.464261 350.501653 
L 59.813728 369.468595 
L 50.563523 388.435537 
L 43.991078 407.402479 
L 42.376781 426.369421 
L 36.129135 445.336364 
" clip-path="url(#p81fd4d25fe)" style="fill: none; stroke: #756bb1; stroke-opacity: 0.2; stroke-width: 2; stroke-linecap: square"/>
   </g>
   <g id="line2d_42">
    <path d="M 257.040195 28.063636 
L 261.096459 47.030579 
L 259.05683 65.997521 
L 257.485331 84.964463 
L 261.381788 103.931405 
L 252.556366 122.898347 
L 252.589976 141.865289 
L 252.590057 160.832231 
L 241.340676 179.799174 
L 230.824517 198.766116 
L 220.195203 217.733058 
L 206.092908 236.7 
L 180.748132 255.666942 
L 164.310022 274.633884 
L 137.142946 293.600826 
L 115.379195 312.567769 
L 92.217176 331.534711 
L 78.113854 350.501653 
L 63.077191 369.468595 
L 45.827532 388.435537 
L 41.28971 407.402479 
L 37.116645 426.369421 
L 40.3366 445.336364 
" clip-path="url(#p81fd4d25fe)" style="fill: none; stroke: #756bb1; stroke-opacity: 0.2; stroke-width: 2; stroke-linecap: square"/>
   </g>
   <g id="line2d_43">
    <path d="M 264.372954 28.063636 
L 261.197189 47.030579 
L 259.351114 65.997521 
L 258.225162 84.964463 
L 259.889217 103.931405 
L 261.725152 122.898347 
L 253.409397 141.865289 
L 253.247814 160.832231 
L 249.675074 179.799174 
L 241.151174 198.766116 
L 228.142779 217.733058 
L 205.592761 236.7 
L 188.983762 255.666942 
L 159.592779 274.633884 
L 135.89438 293.600826 
L 104.554671 312.567769 
L 87.193231 331.534711 
L 64.418473 350.501653 
L 52.779521 369.468595 
L 47.501768 388.435537 
L 43.598228 407.402479 
L 39.78944 426.369421 
L 32.508063 445.336364 
" clip-path="url(#p81fd4d25fe)" style="fill: none; stroke: #756bb1; stroke-opacity: 0.2; stroke-width: 2; stroke-linecap: square"/>
   </g>
   <g id="line2d_44"/>
   <g id="line2d_45">
    <path d="M 260.839044 28.063636 
L 260.770816 47.030579 
L 260.700425 65.997521 
L 260.188817 84.964463 
L 259.711831 103.931405 
L 258.617124 122.898347 
L 256.423695 141.865289 
L 252.934775 160.832231 
L 247.415822 179.799174 
L 239.004639 198.766116 
L 226.686956 217.733058 
L 209.858058 236.7 
L 188.38064 255.666942 
L 162.974002 274.633884 
L 136.159552 293.600826 
L 110.089234 312.567769 
L 87.410431 331.534711 
L 70.075002 350.501653 
L 57.722978 369.468595 
L 49.779472 388.435537 
L 44.05572 407.402479 
L 38.922581 426.369421 
L 34.099692 445.336364 
" clip-path="url(#p81fd4d25fe)" style="fill: none; stroke: #39146b; stroke-width: 4; stroke-linecap: square"/>
   </g>
   <g id="line2d_46">
    <path d="M 254.956762 28.063636 
L 256.455305 47.030579 
L 258.340518 65.997521 
L 260.446969 84.964463 
L 262.391222 103.931405 
L 263.538525 122.898347 
L 263.031481 141.865289 
L 259.881814 160.832231 
L 253.119875 179.799174 
L 242.002869 198.766116 
L 226.260917 217.733058 
L 206.292582 236.7 
L 183.174122 255.666942 
L 158.423583 274.633884 
L 133.636185 293.600826 
L 110.202803 312.567769 
L 89.215055 331.534711 
L 71.463277 350.501653 
L 57.384598 369.468595 
L 46.968497 388.435537 
L 39.759142 407.402479 
L 35.025524 426.369421 
L 32.00611 445.336364 
" clip-path="url(#p81fd4d25fe)" style="fill: none; stroke: #e40000; stroke-width: 4; stroke-linecap: square"/>
    <defs>
     <path id="mc8bc34f119" d="M -5 5 
L 5 -5 
M -5 -5 
L 5 5 
" style="stroke: #e40000"/>
    </defs>
    <g clip-path="url(#p81fd4d25fe)">
     <use xlink:href="#mc8bc34f119" x="254.956762" y="28.063636" style="fill: #e40000; stroke: #e40000"/>
     <use xlink:href="#mc8bc34f119" x="256.455305" y="47.030579" style="fill: #e40000; stroke: #e40000"/>
     <use xlink:href="#mc8bc34f119" x="258.340518" y="65.997521" style="fill: #e40000; stroke: #e40000"/>
     <use xlink:href="#mc8bc34f119" x="260.446969" y="84.964463" style="fill: #e40000; stroke: #e40000"/>
     <use xlink:href="#mc8bc34f119" x="262.391222" y="103.931405" style="fill: #e40000; stroke: #e40000"/>
     <use xlink:href="#mc8bc34f119" x="263.538525" y="122.898347" style="fill: #e40000; stroke: #e40000"/>
     <use xlink:href="#mc8bc34f119" x="263.031481" y="141.865289" style="fill: #e40000; stroke: #e40000"/>
     <use xlink:href="#mc8bc34f119" x="259.881814" y="160.832231" style="fill: #e40000; stroke: #e40000"/>
     <use xlink:href="#mc8bc34f119" x="253.119875" y="179.799174" style="fill: #e40000; stroke: #e40000"/>
     <use xlink:href="#mc8bc34f119" x="242.002869" y="198.766116" style="fill: #e40000; stroke: #e40000"/>
     <use xlink:href="#mc8bc34f119" x="226.260917" y="217.733058" style="fill: #e40000; stroke: #e40000"/>
     <use xlink:href="#mc8bc34f119" x="206.292582" y="236.7" style="fill: #e40000; stroke: #e40000"/>
     <use xlink:href="#mc8bc34f119" x="183.174122" y="255.666942" style="fill: #e40000; stroke: #e40000"/>
     <use xlink:href="#mc8bc34f119" x="158.423583" y="274.633884" style="fill: #e40000; stroke: #e40000"/>
     <use xlink:href="#mc8bc34f119" x="133.636185" y="293.600826" style="fill: #e40000; stroke: #e40000"/>
     <use xlink:href="#mc8bc34f119" x="110.202803" y="312.567769" style="fill: #e40000; stroke: #e40000"/>
     <use xlink:href="#mc8bc34f119" x="89.215055" y="331.534711" style="fill: #e40000; stroke: #e40000"/>
     <use xlink:href="#mc8bc34f119" x="71.463277" y="350.501653" style="fill: #e40000; stroke: #e40000"/>
     <use xlink:href="#mc8bc34f119" x="57.384598" y="369.468595" style="fill: #e40000; stroke: #e40000"/>
     <use xlink:href="#mc8bc34f119" x="46.968497" y="388.435537" style="fill: #e40000; stroke: #e40000"/>
     <use xlink:href="#mc8bc34f119" x="39.759142" y="407.402479" style="fill: #e40000; stroke: #e40000"/>
     <use xlink:href="#mc8bc34f119" x="35.025524" y="426.369421" style="fill: #e40000; stroke: #e40000"/>
     <use xlink:href="#mc8bc34f119" x="32.00611" y="445.336364" style="fill: #e40000; stroke: #e40000"/>
    </g>
   </g>
   <g id="patch_3">
    <path d="M 8.861395 476.2 
L 278.861395 476.2 
" style="fill: none; stroke: #000000; stroke-width: 2; stroke-linejoin: miter; stroke-linecap: square"/>
   </g>
  </g>
 </g>
 <defs>
  <clipPath id="p81fd4d25fe">
   <rect x="8.861395" y="7.2" width="270" height="459"/>
  </clipPath>
 </defs>
</svg>
