<?xml version="1.0" encoding="utf-8" standalone="no"?>
<!DOCTYPE svg PUBLIC "-//W3C//DTD SVG 1.1//EN"
  "http://www.w3.org/Graphics/SVG/1.1/DTD/svg11.dtd">
<svg xmlns:xlink="http://www.w3.org/1999/xlink" width="297.663147pt" height="544.35625pt" viewBox="0 0 297.663147 544.35625" xmlns="http://www.w3.org/2000/svg" version="1.1">
 <metadata>
  <rdf:RDF xmlns:dc="http://purl.org/dc/elements/1.1/" xmlns:cc="http://creativecommons.org/ns#" xmlns:rdf="http://www.w3.org/1999/02/22-rdf-syntax-ns#">
   <cc:Work>
    <dc:type rdf:resource="http://purl.org/dc/dcmitype/StillImage"/>
    <dc:date>2024-07-31T18:17:32.525684</dc:date>
    <dc:format>image/svg+xml</dc:format>
    <dc:creator>
     <cc:Agent>
      <dc:title>Matplotlib v3.8.0, https://matplotlib.org/</dc:title>
     </cc:Agent>
    </dc:creator>
   </cc:Work>
  </rdf:RDF>
 </metadata>
 <defs>
  <style type="text/css">*{stroke-linejoin: round; stroke-linecap: butt}</style>
 </defs>
 <g id="figure_1">
  <g id="patch_1">
   <path d="M 0 544.35625 
L 297.663147 544.35625 
L 297.663147 0 
L 0 0 
z
" style="fill: #ffffff"/>
  </g>
  <g id="axes_1">
   <g id="patch_2">
    <path d="M 7.2 466.2 
L 277.2 466.2 
L 277.2 7.2 
L 7.2 7.2 
z
" style="fill: #ffffff"/>
   </g>
   <g id="PolyCollection_1">
    <defs>
     <path id="m43f294029b" d="M 155.234926 -516.292614 
L 247.064802 -516.292614 
L 232.685655 -507.414471 
L 224.439219 -498.536327 
L 234.923072 -489.658184 
L 216.588662 -480.780041 
L 227.288166 -471.901898 
L 217.428635 -463.023755 
L 224.430099 -454.145612 
L 228.061881 -445.267469 
L 243.298933 -436.389325 
L 246.599654 -427.511182 
L 237.515344 -418.633039 
L 251.528037 -409.754896 
L 252.141556 -400.876753 
L 255.857804 -391.99861 
L 252.020658 -383.120467 
L 254.963666 -374.242324 
L 255.513768 -365.36418 
L 254.117981 -356.486037 
L 251.267368 -347.607894 
L 252.13035 -338.729751 
L 254.744077 -329.851608 
L 251.615935 -320.973465 
L 255.692129 -312.095322 
L 251.8807 -303.217178 
L 251.76147 -294.339035 
L 252.58165 -285.460892 
L 248.339641 -276.582749 
L 249.068708 -267.704606 
L 246.769122 -258.826463 
L 246.948149 -249.94832 
L 246.255113 -241.070176 
L 243.752732 -232.192033 
L 245.420825 -223.31389 
L 247.145765 -214.435747 
L 239.583319 -205.557604 
L 240.724504 -196.679461 
L 237.023242 -187.801318 
L 234.421177 -178.923175 
L 235.63328 -170.045031 
L 235.735661 -161.166888 
L 235.739076 -152.288745 
L 239.586784 -143.410602 
L 242.506421 -134.532459 
L 236.3589 -125.654316 
L 240.523934 -116.776173 
L 239.099946 -107.898029 
L 88.769539 -99.019886 
L 82.347593 -99.019886 
L 82.347593 -99.019886 
L 35.647077 -107.898029 
L 31.809946 -116.776173 
L 50.203438 -125.654316 
L 44.803637 -134.532459 
L 47.657729 -143.410602 
L 48.373119 -152.288745 
L 48.13856 -161.166888 
L 41.756352 -170.045031 
L 52.243158 -178.923175 
L 52.746043 -187.801318 
L 48.656513 -196.679461 
L 59.743278 -205.557604 
L 65.287973 -214.435747 
L 65.034455 -223.31389 
L 68.862244 -232.192033 
L 68.187645 -241.070176 
L 73.189198 -249.94832 
L 75.386608 -258.826463 
L 81.106298 -267.704606 
L 80.782671 -276.582749 
L 78.19352 -285.460892 
L 85.637298 -294.339035 
L 84.55431 -303.217178 
L 76.11813 -312.095322 
L 99.515547 -320.973465 
L 102.066157 -329.851608 
L 97.510631 -338.729751 
L 93.070407 -347.607894 
L 104.652018 -356.486037 
L 100.810278 -365.36418 
L 107.258086 -374.242324 
L 101.871798 -383.120467 
L 97.010803 -391.99861 
L 86.352954 -400.876753 
L 89.891372 -409.754896 
L 67.046594 -418.633039 
L 63.752456 -427.511182 
L 53.988665 -436.389325 
L 45.80514 -445.267469 
L 39.309248 -454.145612 
L 39.878387 -463.023755 
L 42.794769 -471.901898 
L 54.939759 -480.780041 
L 66.281014 -489.658184 
L 86.950519 -498.536327 
L 132.651273 -507.414471 
L 155.234926 -516.292614 
z
" style="stroke: #fecc5c; stroke-opacity: 0.5"/>
    </defs>
    <g clip-path="url(#p915520eebd)">
     <use xlink:href="#m43f294029b" x="0" y="544.35625" style="fill: #fecc5c; fill-opacity: 0.5; stroke: #fecc5c; stroke-opacity: 0.5"/>
    </g>
   </g>
   <g id="matplotlib.axis_1">
    <g id="xtick_1">
     <g id="line2d_1">
      <defs>
       <path id="m2fca7ca05b" d="M 0 0 
L 0 3.5 
" style="stroke: #000000; stroke-width: 1.5"/>
      </defs>
      <g>
       <use xlink:href="#m2fca7ca05b" x="16.038166" y="476.2" style="stroke: #000000; stroke-width: 1.5"/>
      </g>
     </g>
     <g id="text_1">
      <!-- 0 -->
      <g transform="translate(9.675666 498.396875) scale(0.2 -0.2)">
       <defs>
        <path id="DejaVuSans-30" d="M 2034 4250 
Q 1547 4250 1301 3770 
Q 1056 3291 1056 2328 
Q 1056 1369 1301 889 
Q 1547 409 2034 409 
Q 2525 409 2770 889 
Q 3016 1369 3016 2328 
Q 3016 3291 2770 3770 
Q 2525 4250 2034 4250 
z
M 2034 4750 
Q 2819 4750 3233 4129 
Q 3647 3509 3647 2328 
Q 3647 1150 3233 529 
Q 2819 -91 2034 -91 
Q 1250 -91 836 529 
Q 422 1150 422 2328 
Q 422 3509 836 4129 
Q 1250 4750 2034 4750 
z
" transform="scale(0.015625)"/>
       </defs>
       <use xlink:href="#DejaVuSans-30"/>
      </g>
     </g>
    </g>
    <g id="xtick_2">
     <g id="line2d_2">
      <g>
       <use xlink:href="#m2fca7ca05b" x="140.525656" y="476.2" style="stroke: #000000; stroke-width: 1.5"/>
      </g>
     </g>
     <g id="text_2">
      <!-- 500 -->
      <g transform="translate(121.438156 498.396875) scale(0.2 -0.2)">
       <defs>
        <path id="DejaVuSans-35" d="M 691 4666 
L 3169 4666 
L 3169 4134 
L 1269 4134 
L 1269 2991 
Q 1406 3038 1543 3061 
Q 1681 3084 1819 3084 
Q 2600 3084 3056 2656 
Q 3513 2228 3513 1497 
Q 3513 744 3044 326 
Q 2575 -91 1722 -91 
Q 1428 -91 1123 -41 
Q 819 9 494 109 
L 494 744 
Q 775 591 1075 516 
Q 1375 441 1709 441 
Q 2250 441 2565 725 
Q 2881 1009 2881 1497 
Q 2881 1984 2565 2268 
Q 2250 2553 1709 2553 
Q 1456 2553 1204 2497 
Q 953 2441 691 2322 
L 691 4666 
z
" transform="scale(0.015625)"/>
       </defs>
       <use xlink:href="#DejaVuSans-35"/>
       <use xlink:href="#DejaVuSans-30" x="63.623047"/>
       <use xlink:href="#DejaVuSans-30" x="127.246094"/>
      </g>
     </g>
    </g>
    <g id="xtick_3">
     <g id="line2d_3">
      <g>
       <use xlink:href="#m2fca7ca05b" x="265.013147" y="476.2" style="stroke: #000000; stroke-width: 1.5"/>
      </g>
     </g>
     <g id="text_3">
      <!-- 1000 -->
      <g transform="translate(239.563147 498.396875) scale(0.2 -0.2)">
       <defs>
        <path id="DejaVuSans-31" d="M 794 531 
L 1825 531 
L 1825 4091 
L 703 3866 
L 703 4441 
L 1819 4666 
L 2450 4666 
L 2450 531 
L 3481 531 
L 3481 0 
L 794 0 
L 794 531 
z
" transform="scale(0.015625)"/>
       </defs>
       <use xlink:href="#DejaVuSans-31"/>
       <use xlink:href="#DejaVuSans-30" x="63.623047"/>
       <use xlink:href="#DejaVuSans-30" x="127.246094"/>
       <use xlink:href="#DejaVuSans-30" x="190.869141"/>
      </g>
     </g>
    </g>
    <g id="text_4">
     <!-- Resistivity  [$\Omega m$] -->
     <g transform="translate(47.9 532.75625) scale(0.2 -0.2)">
      <defs>
       <path id="DejaVuSans-Bold-52" d="M 2297 2597 
Q 2675 2597 2839 2737 
Q 3003 2878 3003 3200 
Q 3003 3519 2839 3656 
Q 2675 3794 2297 3794 
L 1791 3794 
L 1791 2597 
L 2297 2597 
z
M 1791 1766 
L 1791 0 
L 588 0 
L 588 4666 
L 2425 4666 
Q 3347 4666 3776 4356 
Q 4206 4047 4206 3378 
Q 4206 2916 3982 2619 
Q 3759 2322 3309 2181 
Q 3556 2125 3751 1926 
Q 3947 1728 4147 1325 
L 4800 0 
L 3519 0 
L 2950 1159 
Q 2778 1509 2601 1637 
Q 2425 1766 2131 1766 
L 1791 1766 
z
" transform="scale(0.015625)"/>
       <path id="DejaVuSans-Bold-65" d="M 4031 1759 
L 4031 1441 
L 1416 1441 
Q 1456 1047 1700 850 
Q 1944 653 2381 653 
Q 2734 653 3104 758 
Q 3475 863 3866 1075 
L 3866 213 
Q 3469 63 3072 -14 
Q 2675 -91 2278 -91 
Q 1328 -91 801 392 
Q 275 875 275 1747 
Q 275 2603 792 3093 
Q 1309 3584 2216 3584 
Q 3041 3584 3536 3087 
Q 4031 2591 4031 1759 
z
M 2881 2131 
Q 2881 2450 2695 2645 
Q 2509 2841 2209 2841 
Q 1884 2841 1681 2658 
Q 1478 2475 1428 2131 
L 2881 2131 
z
" transform="scale(0.015625)"/>
       <path id="DejaVuSans-Bold-73" d="M 3272 3391 
L 3272 2541 
Q 2913 2691 2578 2766 
Q 2244 2841 1947 2841 
Q 1628 2841 1473 2761 
Q 1319 2681 1319 2516 
Q 1319 2381 1436 2309 
Q 1553 2238 1856 2203 
L 2053 2175 
Q 2913 2066 3209 1816 
Q 3506 1566 3506 1031 
Q 3506 472 3093 190 
Q 2681 -91 1863 -91 
Q 1516 -91 1145 -36 
Q 775 19 384 128 
L 384 978 
Q 719 816 1070 734 
Q 1422 653 1784 653 
Q 2113 653 2278 743 
Q 2444 834 2444 1013 
Q 2444 1163 2330 1236 
Q 2216 1309 1875 1350 
L 1678 1375 
Q 931 1469 631 1722 
Q 331 1975 331 2491 
Q 331 3047 712 3315 
Q 1094 3584 1881 3584 
Q 2191 3584 2531 3537 
Q 2872 3491 3272 3391 
z
" transform="scale(0.015625)"/>
       <path id="DejaVuSans-Bold-69" d="M 538 3500 
L 1656 3500 
L 1656 0 
L 538 0 
L 538 3500 
z
M 538 4863 
L 1656 4863 
L 1656 3950 
L 538 3950 
L 538 4863 
z
" transform="scale(0.015625)"/>
       <path id="DejaVuSans-Bold-74" d="M 1759 4494 
L 1759 3500 
L 2913 3500 
L 2913 2700 
L 1759 2700 
L 1759 1216 
Q 1759 972 1856 886 
Q 1953 800 2241 800 
L 2816 800 
L 2816 0 
L 1856 0 
Q 1194 0 917 276 
Q 641 553 641 1216 
L 641 2700 
L 84 2700 
L 84 3500 
L 641 3500 
L 641 4494 
L 1759 4494 
z
" transform="scale(0.015625)"/>
       <path id="DejaVuSans-Bold-76" d="M 97 3500 
L 1216 3500 
L 2088 1081 
L 2956 3500 
L 4078 3500 
L 2700 0 
L 1472 0 
L 97 3500 
z
" transform="scale(0.015625)"/>
       <path id="DejaVuSans-Bold-79" d="M 78 3500 
L 1197 3500 
L 2138 1125 
L 2938 3500 
L 4056 3500 
L 2584 -331 
Q 2363 -916 2067 -1148 
Q 1772 -1381 1288 -1381 
L 641 -1381 
L 641 -647 
L 991 -647 
Q 1275 -647 1404 -556 
Q 1534 -466 1606 -231 
L 1638 -134 
L 78 3500 
z
" transform="scale(0.015625)"/>
       <path id="DejaVuSans-Bold-20" transform="scale(0.015625)"/>
       <path id="DejaVuSans-Bold-5b" d="M 550 4863 
L 2491 4863 
L 2491 4159 
L 1613 4159 
L 1613 -141 
L 2491 -141 
L 2491 -844 
L 550 -844 
L 550 4863 
z
" transform="scale(0.015625)"/>
       <path id="DejaVuSans-Bold-3a9" d="M 2719 4750 
Q 3841 4750 4480 4106 
Q 5119 3463 5119 2494 
Q 5119 1406 4306 909 
L 5266 909 
L 5266 0 
L 3125 0 
L 3125 975 
Q 3244 1041 3334 1131 
Q 3875 1678 3875 2466 
Q 3875 3066 3572 3472 
Q 3269 3878 2719 3878 
Q 2169 3878 1866 3472 
Q 1563 3066 1563 2466 
Q 1563 1678 2103 1131 
Q 2194 1041 2313 975 
L 2313 0 
L 172 0 
L 172 909 
L 1131 909 
Q 319 1406 319 2494 
Q 319 3463 958 4106 
Q 1597 4750 2719 4750 
z
" transform="scale(0.015625)"/>
       <path id="DejaVuSans-Bold-6d" d="M 3781 2919 
Q 3994 3244 4286 3414 
Q 4578 3584 4928 3584 
Q 5531 3584 5847 3212 
Q 6163 2841 6163 2131 
L 6163 0 
L 5038 0 
L 5038 1825 
Q 5041 1866 5042 1909 
Q 5044 1953 5044 2034 
Q 5044 2406 4934 2573 
Q 4825 2741 4581 2741 
Q 4263 2741 4089 2478 
Q 3916 2216 3909 1719 
L 3909 0 
L 2784 0 
L 2784 1825 
Q 2784 2406 2684 2573 
Q 2584 2741 2328 2741 
Q 2006 2741 1831 2477 
Q 1656 2213 1656 1722 
L 1656 0 
L 531 0 
L 531 3500 
L 1656 3500 
L 1656 2988 
Q 1863 3284 2130 3434 
Q 2397 3584 2719 3584 
Q 3081 3584 3359 3409 
Q 3638 3234 3781 2919 
z
" transform="scale(0.015625)"/>
       <path id="DejaVuSans-Bold-5d" d="M 2375 -844 
L 434 -844 
L 434 -141 
L 1313 -141 
L 1313 4159 
L 434 4159 
L 434 4863 
L 2375 4863 
L 2375 -844 
z
" transform="scale(0.015625)"/>
      </defs>
      <use xlink:href="#DejaVuSans-Bold-52" transform="translate(0 0.015625)"/>
      <use xlink:href="#DejaVuSans-Bold-65" transform="translate(77.001953 0.015625)"/>
      <use xlink:href="#DejaVuSans-Bold-73" transform="translate(144.824219 0.015625)"/>
      <use xlink:href="#DejaVuSans-Bold-69" transform="translate(204.345703 0.015625)"/>
      <use xlink:href="#DejaVuSans-Bold-73" transform="translate(238.623047 0.015625)"/>
      <use xlink:href="#DejaVuSans-Bold-74" transform="translate(298.144531 0.015625)"/>
      <use xlink:href="#DejaVuSans-Bold-69" transform="translate(345.947266 0.015625)"/>
      <use xlink:href="#DejaVuSans-Bold-76" transform="translate(380.224609 0.015625)"/>
      <use xlink:href="#DejaVuSans-Bold-69" transform="translate(445.410156 0.015625)"/>
      <use xlink:href="#DejaVuSans-Bold-74" transform="translate(479.6875 0.015625)"/>
      <use xlink:href="#DejaVuSans-Bold-79" transform="translate(527.490234 0.015625)"/>
      <use xlink:href="#DejaVuSans-Bold-20" transform="translate(592.675781 0.015625)"/>
      <use xlink:href="#DejaVuSans-Bold-20" transform="translate(627.490234 0.015625)"/>
      <use xlink:href="#DejaVuSans-Bold-5b" transform="translate(662.304688 0.015625)"/>
      <use xlink:href="#DejaVuSans-Bold-3a9" transform="translate(708.007812 0.015625)"/>
      <use xlink:href="#DejaVuSans-Bold-6d" transform="translate(793.017578 0.015625)"/>
      <use xlink:href="#DejaVuSans-Bold-5d" transform="translate(897.216797 0.015625)"/>
     </g>
    </g>
   </g>
   <g id="line2d_4">
    <path d="M 204.166011 28.063636 
L 204.166011 36.941779 
L 157.017225 36.941779 
L 157.017225 45.819923 
L 162.756976 45.819923 
L 162.756976 54.698066 
L 118.91324 54.698066 
L 118.91324 63.576209 
L 117.165613 63.576209 
L 117.165613 72.454352 
L 114.784213 72.454352 
L 114.784213 81.332495 
L 109.981901 81.332495 
L 109.981901 90.210638 
L 47.297667 90.210638 
L 47.297667 99.088781 
L 105.094757 99.088781 
L 105.094757 107.966925 
L 202.554648 107.966925 
L 202.554648 116.845068 
L 193.688197 116.845068 
L 193.688197 125.723211 
L 182.195868 125.723211 
L 182.195868 134.601354 
L 187.892614 134.601354 
L 187.892614 143.479497 
L 141.425744 143.479497 
L 141.425744 152.35764 
L 243.215922 152.35764 
L 243.215922 161.235783 
L 73.485233 161.235783 
L 73.485233 170.113926 
L 240.003409 170.113926 
L 240.003409 178.99207 
L 140.660986 178.99207 
L 140.660986 187.870213 
L 161.676145 187.870213 
L 161.676145 196.748356 
L 123.295498 196.748356 
L 123.295498 205.626499 
L 192.072017 205.626499 
L 192.072017 214.504642 
L 176.881656 214.504642 
L 176.881656 223.382785 
L 225.771216 223.382785 
L 225.771216 232.260928 
L 263.003871 232.260928 
L 263.003871 241.139072 
L 174.52615 241.139072 
L 174.52615 250.017215 
L 238.248154 250.017215 
L 238.248154 258.895358 
L 225.914592 258.895358 
L 225.914592 267.773501 
L 98.297743 267.773501 
L 98.297743 276.651644 
L 51.186256 276.651644 
L 51.186256 285.529787 
L 112.052159 285.529787 
L 112.052159 294.40793 
L 71.142963 294.40793 
L 71.142963 303.286074 
L 226.920719 303.286074 
L 226.920719 312.164217 
L 84.147943 312.164217 
L 84.147943 321.04236 
L 76.998164 321.04236 
L 76.998164 329.920503 
L 201.143344 329.920503 
L 201.143344 338.798646 
L 124.341568 338.798646 
L 124.341568 347.676789 
L 128.896409 347.676789 
L 128.896409 356.554932 
L 123.750078 356.554932 
L 123.750078 365.433075 
L 175.43145 365.433075 
L 175.43145 374.311219 
L 102.302184 374.311219 
L 102.302184 383.189362 
L 179.430793 383.189362 
L 179.430793 392.067505 
L 213.465402 392.067505 
L 213.465402 400.945648 
L 159.818117 400.945648 
L 159.818117 409.823791 
L 161.517207 409.823791 
L 161.517207 418.701934 
L 137.988783 418.701934 
L 137.988783 427.580077 
L 84.275667 427.580077 
L 84.275667 436.458221 
L 212.590723 436.458221 
L 212.590723 445.336364 
L 84.404372 445.336364 
" clip-path="url(#p915520eebd)" style="fill: none; stroke: #fecc5c; stroke-opacity: 0.3; stroke-width: 2; stroke-linecap: square"/>
   </g>
   <g id="line2d_5">
    <path d="M 201.550846 28.063636 
L 201.550846 36.941779 
L 184.377043 36.941779 
L 184.377043 45.819923 
L 101.248303 45.819923 
L 101.248303 54.698066 
L 208.592595 54.698066 
L 208.592595 63.576209 
L 122.67632 63.576209 
L 122.67632 72.454352 
L 67.645107 72.454352 
L 67.645107 81.332495 
L 87.494851 81.332495 
L 87.494851 90.210638 
L 79.30138 90.210638 
L 79.30138 99.088781 
L 152.035582 99.088781 
L 152.035582 107.966925 
L 93.046056 107.966925 
L 93.046056 116.845068 
L 258.636126 116.845068 
L 258.636126 125.723211 
L 125.987441 125.723211 
L 125.987441 134.601354 
L 138.523918 134.601354 
L 138.523918 143.479497 
L 212.215923 143.479497 
L 212.215923 152.35764 
L 194.093693 152.35764 
L 194.093693 161.235783 
L 218.427609 161.235783 
L 218.427609 170.113926 
L 113.229342 170.113926 
L 113.229342 178.99207 
L 175.570982 178.99207 
L 175.570982 187.870213 
L 163.789514 187.870213 
L 163.789514 196.748356 
L 191.79613 196.748356 
L 191.79613 205.626499 
L 256.699124 205.626499 
L 256.699124 214.504642 
L 161.66613 214.504642 
L 161.66613 223.382785 
L 149.602028 223.382785 
L 149.602028 232.260928 
L 253.526 232.260928 
L 253.526 241.139072 
L 137.3787 241.139072 
L 137.3787 250.017215 
L 114.835926 250.017215 
L 114.835926 258.895358 
L 232.101402 258.895358 
L 232.101402 267.773501 
L 117.374242 267.773501 
L 117.374242 276.651644 
L 194.008518 276.651644 
L 194.008518 285.529787 
L 104.343987 285.529787 
L 104.343987 294.40793 
L 180.811872 294.40793 
L 180.811872 303.286074 
L 146.111455 303.286074 
L 146.111455 312.164217 
L 171.753082 312.164217 
L 171.753082 321.04236 
L 182.790299 321.04236 
L 182.790299 329.920503 
L 109.770157 329.920503 
L 109.770157 338.798646 
L 85.404261 338.798646 
L 85.404261 347.676789 
L 203.255529 347.676789 
L 203.255529 356.554932 
L 61.416808 356.554932 
L 61.416808 365.433075 
L 237.443605 365.433075 
L 237.443605 374.311219 
L 123.553218 374.311219 
L 123.553218 383.189362 
L 136.470095 383.189362 
L 136.470095 392.067505 
L 150.4451 392.067505 
L 150.4451 400.945648 
L 183.318839 400.945648 
L 183.318839 409.823791 
L 97.307594 409.823791 
L 97.307594 418.701934 
L 246.603313 418.701934 
L 246.603313 427.580077 
L 251.269649 427.580077 
L 251.269649 436.458221 
L 53.045298 436.458221 
L 53.045298 445.336364 
L 81.999956 445.336364 
" clip-path="url(#p915520eebd)" style="fill: none; stroke: #fecc5c; stroke-opacity: 0.3; stroke-width: 2; stroke-linecap: square"/>
   </g>
   <g id="line2d_6">
    <path d="M 165.508086 28.063636 
L 165.508086 36.941779 
L 223.920999 36.941779 
L 223.920999 45.819923 
L 92.868815 45.819923 
L 92.868815 54.698066 
L 143.352435 54.698066 
L 143.352435 63.576209 
L 195.497338 63.576209 
L 195.497338 72.454352 
L 71.895974 72.454352 
L 71.895974 81.332495 
L 145.677922 81.332495 
L 145.677922 90.210638 
L 47.187625 90.210638 
L 47.187625 99.088781 
L 63.093396 99.088781 
L 63.093396 107.966925 
L 249.809306 107.966925 
L 249.809306 116.845068 
L 241.789452 116.845068 
L 241.789452 125.723211 
L 220.629679 125.723211 
L 220.629679 134.601354 
L 157.532665 134.601354 
L 157.532665 143.479497 
L 134.097591 143.479497 
L 134.097591 152.35764 
L 165.498755 152.35764 
L 165.498755 161.235783 
L 193.77208 161.235783 
L 193.77208 170.113926 
L 148.690893 170.113926 
L 148.690893 178.99207 
L 200.679115 178.99207 
L 200.679115 187.870213 
L 82.000785 187.870213 
L 82.000785 196.748356 
L 193.812487 196.748356 
L 193.812487 205.626499 
L 230.583435 205.626499 
L 230.583435 214.504642 
L 177.225912 214.504642 
L 177.225912 223.382785 
L 247.693764 223.382785 
L 247.693764 232.260928 
L 143.91525 232.260928 
L 143.91525 241.139072 
L 170.31523 241.139072 
L 170.31523 250.017215 
L 151.685355 250.017215 
L 151.685355 258.895358 
L 262.595731 258.895358 
L 262.595731 267.773501 
L 80.906998 267.773501 
L 80.906998 276.651644 
L 237.688948 276.651644 
L 237.688948 285.529787 
L 115.687841 285.529787 
L 115.687841 294.40793 
L 228.856977 294.40793 
L 228.856977 303.286074 
L 195.954167 303.286074 
L 195.954167 312.164217 
L 205.330254 312.164217 
L 205.330254 321.04236 
L 200.134026 321.04236 
L 200.134026 329.920503 
L 191.900543 329.920503 
L 191.900543 338.798646 
L 151.536462 338.798646 
L 151.536462 347.676789 
L 106.149458 347.676789 
L 106.149458 356.554932 
L 107.799305 356.554932 
L 107.799305 365.433075 
L 163.396327 365.433075 
L 163.396327 374.311219 
L 110.537779 374.311219 
L 110.537779 383.189362 
L 139.997139 383.189362 
L 139.997139 392.067505 
L 184.641002 392.067505 
L 184.641002 400.945648 
L 126.32985 400.945648 
L 126.32985 409.823791 
L 107.422195 409.823791 
L 107.422195 418.701934 
L 175.790947 418.701934 
L 175.790947 427.580077 
L 202.120872 427.580077 
L 202.120872 436.458221 
L 214.529564 436.458221 
L 214.529564 445.336364 
L 84.268715 445.336364 
" clip-path="url(#p915520eebd)" style="fill: none; stroke: #fecc5c; stroke-opacity: 0.3; stroke-width: 2; stroke-linecap: square"/>
   </g>
   <g id="line2d_7">
    <path d="M 200.014584 28.063636 
L 200.014584 36.941779 
L 177.994674 36.941779 
L 177.994674 45.819923 
L 122.35555 45.819923 
L 122.35555 54.698066 
L 150.818364 54.698066 
L 150.818364 63.576209 
L 151.354548 63.576209 
L 151.354548 72.454352 
L 74.310115 72.454352 
L 74.310115 81.332495 
L 114.0357 81.332495 
L 114.0357 90.210638 
L 49.268378 90.210638 
L 49.268378 99.088781 
L 161.939343 99.088781 
L 161.939343 107.966925 
L 150.31926 107.966925 
L 150.31926 116.845068 
L 141.413944 116.845068 
L 141.413944 125.723211 
L 147.245656 125.723211 
L 147.245656 134.601354 
L 150.679425 134.601354 
L 150.679425 143.479497 
L 195.221375 143.479497 
L 195.221375 152.35764 
L 168.25374 152.35764 
L 168.25374 161.235783 
L 146.805831 161.235783 
L 146.805831 170.113926 
L 154.565693 170.113926 
L 154.565693 178.99207 
L 175.934582 178.99207 
L 175.934582 187.870213 
L 210.361558 187.870213 
L 210.361558 196.748356 
L 168.189491 196.748356 
L 168.189491 205.626499 
L 215.809937 205.626499 
L 215.809937 214.504642 
L 152.912754 214.504642 
L 152.912754 223.382785 
L 232.089275 223.382785 
L 232.089275 232.260928 
L 136.565337 232.260928 
L 136.565337 241.139072 
L 195.101294 241.139072 
L 195.101294 250.017215 
L 213.853529 250.017215 
L 213.853529 258.895358 
L 218.617197 258.895358 
L 218.617197 267.773501 
L 138.293095 267.773501 
L 138.293095 276.651644 
L 228.05223 276.651644 
L 228.05223 285.529787 
L 176.299762 285.529787 
L 176.299762 294.40793 
L 88.815601 294.40793 
L 88.815601 303.286074 
L 192.341097 303.286074 
L 192.341097 312.164217 
L 138.780043 312.164217 
L 138.780043 321.04236 
L 77.348471 321.04236 
L 77.348471 329.920503 
L 123.065389 329.920503 
L 123.065389 338.798646 
L 155.407595 338.798646 
L 155.407595 347.676789 
L 113.907216 347.676789 
L 113.907216 356.554932 
L 136.783084 356.554932 
L 136.783084 365.433075 
L 92.57087 365.433075 
L 92.57087 374.311219 
L 188.738482 374.311219 
L 188.738482 383.189362 
L 84.32523 383.189362 
L 84.32523 392.067505 
L 139.736417 392.067505 
L 139.736417 400.945648 
L 108.491706 400.945648 
L 108.491706 409.823791 
L 186.013008 409.823791 
L 186.013008 418.701934 
L 143.455283 418.701934 
L 143.455283 427.580077 
L 84.563644 427.580077 
L 84.563644 436.458221 
L 90.870815 436.458221 
L 90.870815 445.336364 
L 84.692105 445.336364 
" clip-path="url(#p915520eebd)" style="fill: none; stroke: #fecc5c; stroke-opacity: 0.3; stroke-width: 2; stroke-linecap: square"/>
   </g>
   <g id="line2d_8">
    <path d="M 165.803607 28.063636 
L 165.803607 36.941779 
L 219.22421 36.941779 
L 219.22421 45.819923 
L 98.232726 45.819923 
L 98.232726 54.698066 
L 176.407458 54.698066 
L 176.407458 63.576209 
L 119.158948 63.576209 
L 119.158948 72.454352 
L 46.633749 72.454352 
L 46.633749 81.332495 
L 146.131255 81.332495 
L 146.131255 90.210638 
L 187.322194 90.210638 
L 187.322194 99.088781 
L 205.802128 99.088781 
L 205.802128 107.966925 
L 58.579163 107.966925 
L 58.579163 116.845068 
L 109.075059 116.845068 
L 109.075059 125.723211 
L 217.170425 125.723211 
L 217.170425 134.601354 
L 121.999533 134.601354 
L 121.999533 143.479497 
L 140.665743 143.479497 
L 140.665743 152.35764 
L 158.000056 152.35764 
L 158.000056 161.235783 
L 167.977959 161.235783 
L 167.977959 170.113926 
L 155.792211 170.113926 
L 155.792211 178.99207 
L 184.087054 178.99207 
L 184.087054 187.870213 
L 100.487496 187.870213 
L 100.487496 196.748356 
L 215.074394 196.748356 
L 215.074394 205.626499 
L 218.4866 205.626499 
L 218.4866 214.504642 
L 182.135524 214.504642 
L 182.135524 223.382785 
L 200.8286 223.382785 
L 200.8286 232.260928 
L 238.255159 232.260928 
L 238.255159 241.139072 
L 241.479176 241.139072 
L 241.479176 250.017215 
L 163.174751 250.017215 
L 163.174751 258.895358 
L 184.698246 258.895358 
L 184.698246 267.773501 
L 24.880131 267.773501 
L 24.880131 276.651644 
L 219.068358 276.651644 
L 219.068358 285.529787 
L 155.121298 285.529787 
L 155.121298 294.40793 
L 110.564304 294.40793 
L 110.564304 303.286074 
L 142.690169 303.286074 
L 142.690169 312.164217 
L 178.869536 312.164217 
L 178.869536 321.04236 
L 75.982972 321.04236 
L 75.982972 329.920503 
L 147.302793 329.920503 
L 147.302793 338.798646 
L 49.524286 338.798646 
L 49.524286 347.676789 
L 196.726683 347.676789 
L 196.726683 356.554932 
L 73.600352 356.554932 
L 73.600352 365.433075 
L 204.632763 365.433075 
L 204.632763 374.311219 
L 239.75872 374.311219 
L 239.75872 383.189362 
L 136.559008 383.189362 
L 136.559008 392.067505 
L 90.283275 392.067505 
L 90.283275 400.945648 
L 180.768304 400.945648 
L 180.768304 409.823791 
L 138.379987 409.823791 
L 138.379987 418.701934 
L 216.698354 418.701934 
L 216.698354 427.580077 
L 113.801085 427.580077 
L 113.801085 436.458221 
L 103.743136 436.458221 
L 103.743136 445.336364 
L 85.732028 445.336364 
" clip-path="url(#p915520eebd)" style="fill: none; stroke: #fecc5c; stroke-opacity: 0.3; stroke-width: 2; stroke-linecap: square"/>
   </g>
   <g id="line2d_9">
    <path d="M 226.615229 28.063636 
L 226.615229 36.941779 
L 139.850769 36.941779 
L 139.850769 45.819923 
L 172.887283 45.819923 
L 172.887283 54.698066 
L 139.067168 54.698066 
L 139.067168 63.576209 
L 110.262272 63.576209 
L 110.262272 72.454352 
L 76.242794 72.454352 
L 76.242794 81.332495 
L 109.542206 81.332495 
L 109.542206 90.210638 
L 138.544448 90.210638 
L 138.544448 99.088781 
L 58.716248 99.088781 
L 58.716248 107.966925 
L 211.417635 107.966925 
L 211.417635 116.845068 
L 120.152781 116.845068 
L 120.152781 125.723211 
L 181.005472 125.723211 
L 181.005472 134.601354 
L 102.101442 134.601354 
L 102.101442 143.479497 
L 194.670192 143.479497 
L 194.670192 152.35764 
L 220.582054 152.35764 
L 220.582054 161.235783 
L 144.438153 161.235783 
L 144.438153 170.113926 
L 182.549332 170.113926 
L 182.549332 178.99207 
L 234.566108 178.99207 
L 234.566108 187.870213 
L 229.28662 187.870213 
L 229.28662 196.748356 
L 235.036598 196.748356 
L 235.036598 205.626499 
L 130.645784 205.626499 
L 130.645784 214.504642 
L 159.07028 214.504642 
L 159.07028 223.382785 
L 127.498326 223.382785 
L 127.498326 232.260928 
L 216.135152 232.260928 
L 216.135152 241.139072 
L 192.634035 241.139072 
L 192.634035 250.017215 
L 204.405609 250.017215 
L 204.405609 258.895358 
L 89.345676 258.895358 
L 89.345676 267.773501 
L 134.281245 267.773501 
L 134.281245 276.651644 
L 139.251612 276.651644 
L 139.251612 285.529787 
L 200.164464 285.529787 
L 200.164464 294.40793 
L 214.697361 294.40793 
L 214.697361 303.286074 
L 124.70532 303.286074 
L 124.70532 312.164217 
L 98.419047 312.164217 
L 98.419047 321.04236 
L 126.480072 321.04236 
L 126.480072 329.920503 
L 166.904224 329.920503 
L 166.904224 338.798646 
L 164.330378 338.798646 
L 164.330378 347.676789 
L 116.539582 347.676789 
L 116.539582 356.554932 
L 224.133959 356.554932 
L 224.133959 365.433075 
L 252.869173 365.433075 
L 252.869173 374.311219 
L 245.102792 374.311219 
L 245.102792 383.189362 
L 260.761546 383.189362 
L 260.761546 392.067505 
L 220.695068 392.067505 
L 220.695068 400.945648 
L 175.715787 400.945648 
L 175.715787 409.823791 
L 149.424612 409.823791 
L 149.424612 418.701934 
L 216.158143 418.701934 
L 216.158143 427.580077 
L 169.216558 427.580077 
L 169.216558 436.458221 
L 193.944025 436.458221 
L 193.944025 445.336364 
L 84.152456 445.336364 
" clip-path="url(#p915520eebd)" style="fill: none; stroke: #fecc5c; stroke-opacity: 0.3; stroke-width: 2; stroke-linecap: square"/>
   </g>
   <g id="line2d_10">
    <path d="M 214.251275 28.063636 
L 214.251275 36.941779 
L 146.73801 36.941779 
L 146.73801 45.819923 
L 165.931027 45.819923 
L 165.931027 54.698066 
L 145.941151 54.698066 
L 145.941151 63.576209 
L 80.823024 63.576209 
L 80.823024 72.454352 
L 160.652496 72.454352 
L 160.652496 81.332495 
L 100.873503 81.332495 
L 100.873503 90.210638 
L 39.095097 90.210638 
L 39.095097 99.088781 
L 237.28719 99.088781 
L 237.28719 107.966925 
L 203.516326 107.966925 
L 203.516326 116.845068 
L 180.601693 116.845068 
L 180.601693 125.723211 
L 125.126111 125.723211 
L 125.126111 134.601354 
L 211.001942 134.601354 
L 211.001942 143.479497 
L 125.133557 143.479497 
L 125.133557 152.35764 
L 182.99601 152.35764 
L 182.99601 161.235783 
L 192.722401 161.235783 
L 192.722401 170.113926 
L 218.035759 170.113926 
L 218.035759 178.99207 
L 179.328674 178.99207 
L 179.328674 187.870213 
L 112.552571 187.870213 
L 112.552571 196.748356 
L 104.936176 196.748356 
L 104.936176 205.626499 
L 137.327641 205.626499 
L 137.327641 214.504642 
L 81.670495 214.504642 
L 81.670495 223.382785 
L 166.947761 223.382785 
L 166.947761 232.260928 
L 169.440155 232.260928 
L 169.440155 241.139072 
L 120.33218 241.139072 
L 120.33218 250.017215 
L 227.458757 250.017215 
L 227.458757 258.895358 
L 229.85081 258.895358 
L 229.85081 267.773501 
L 253.20814 267.773501 
L 253.20814 276.651644 
L 148.287813 276.651644 
L 148.287813 285.529787 
L 246.877164 285.529787 
L 246.877164 294.40793 
L 90.983806 294.40793 
L 90.983806 303.286074 
L 198.700338 303.286074 
L 198.700338 312.164217 
L 146.486376 312.164217 
L 146.486376 321.04236 
L 207.889983 321.04236 
L 207.889983 329.920503 
L 155.450144 329.920503 
L 155.450144 338.798646 
L 185.750387 338.798646 
L 185.750387 347.676789 
L 188.090697 347.676789 
L 188.090697 356.554932 
L 101.785239 356.554932 
L 101.785239 365.433075 
L 163.338718 365.433075 
L 163.338718 374.311219 
L 221.290137 374.311219 
L 221.290137 383.189362 
L 164.396938 383.189362 
L 164.396938 392.067505 
L 150.927337 392.067505 
L 150.927337 400.945648 
L 94.912426 400.945648 
L 94.912426 409.823791 
L 143.396664 409.823791 
L 143.396664 418.701934 
L 97.694498 418.701934 
L 97.694498 427.580077 
L 216.909946 427.580077 
L 216.909946 436.458221 
L 174.296854 436.458221 
L 174.296854 445.336364 
L 81.833763 445.336364 
" clip-path="url(#p915520eebd)" style="fill: none; stroke: #fecc5c; stroke-opacity: 0.3; stroke-width: 2; stroke-linecap: square"/>
   </g>
   <g id="line2d_11">
    <path d="M 194.764546 28.063636 
L 194.764546 36.941779 
L 158.77096 36.941779 
L 158.77096 45.819923 
L 190.960778 45.819923 
L 190.960778 54.698066 
L 83.414026 54.698066 
L 83.414026 63.576209 
L 134.39018 63.576209 
L 134.39018 72.454352 
L 112.043923 72.454352 
L 112.043923 81.332495 
L 79.520145 81.332495 
L 79.520145 90.210638 
L 119.84391 90.210638 
L 119.84391 99.088781 
L 143.712518 99.088781 
L 143.712518 107.966925 
L 129.552833 107.966925 
L 129.552833 116.845068 
L 69.983574 116.845068 
L 69.983574 125.723211 
L 109.259647 125.723211 
L 109.259647 134.601354 
L 225.154416 134.601354 
L 225.154416 143.479497 
L 191.868114 143.479497 
L 191.868114 152.35764 
L 171.643456 152.35764 
L 171.643456 161.235783 
L 109.712009 161.235783 
L 109.712009 170.113926 
L 128.84282 170.113926 
L 128.84282 178.99207 
L 263.293952 178.99207 
L 263.293952 187.870213 
L 228.276998 187.870213 
L 228.276998 196.748356 
L 102.650079 196.748356 
L 102.650079 205.626499 
L 63.084468 205.626499 
L 63.084468 214.504642 
L 166.468943 214.504642 
L 166.468943 223.382785 
L 214.587841 223.382785 
L 214.587841 232.260928 
L 155.079949 232.260928 
L 155.079949 241.139072 
L 155.032309 241.139072 
L 155.032309 250.017215 
L 142.267516 250.017215 
L 142.267516 258.895358 
L 113.342949 258.895358 
L 113.342949 267.773501 
L 238.773123 267.773501 
L 238.773123 276.651644 
L 197.151295 276.651644 
L 197.151295 285.529787 
L 258.933151 285.529787 
L 258.933151 294.40793 
L 156.06436 294.40793 
L 156.06436 303.286074 
L 105.750109 303.286074 
L 105.750109 312.164217 
L 106.977751 312.164217 
L 106.977751 321.04236 
L 219.579939 321.04236 
L 219.579939 329.920503 
L 174.657856 329.920503 
L 174.657856 338.798646 
L 171.317436 338.798646 
L 171.317436 347.676789 
L 157.007301 347.676789 
L 157.007301 356.554932 
L 168.487899 356.554932 
L 168.487899 365.433075 
L 199.57561 365.433075 
L 199.57561 374.311219 
L 141.257757 374.311219 
L 141.257757 383.189362 
L 181.99315 383.189362 
L 181.99315 392.067505 
L 149.936451 392.067505 
L 149.936451 400.945648 
L 162.050002 400.945648 
L 162.050002 409.823791 
L 210.602813 409.823791 
L 210.602813 418.701934 
L 212.959262 418.701934 
L 212.959262 427.580077 
L 141.697042 427.580077 
L 141.697042 436.458221 
L 143.861517 436.458221 
L 143.861517 445.336364 
L 83.309051 445.336364 
" clip-path="url(#p915520eebd)" style="fill: none; stroke: #fecc5c; stroke-opacity: 0.3; stroke-width: 2; stroke-linecap: square"/>
   </g>
   <g id="line2d_12">
    <path d="M 234.76878 28.063636 
L 234.76878 36.941779 
L 136.824129 36.941779 
L 136.824129 45.819923 
L 202.458684 45.819923 
L 202.458684 54.698066 
L 93.334814 54.698066 
L 93.334814 63.576209 
L 102.255494 63.576209 
L 102.255494 72.454352 
L 223.148757 72.454352 
L 223.148757 81.332495 
L 49.576573 81.332495 
L 49.576573 90.210638 
L 49.226695 90.210638 
L 49.226695 99.088781 
L 177.678972 99.088781 
L 177.678972 107.966925 
L 226.333248 107.966925 
L 226.333248 116.845068 
L 228.813136 116.845068 
L 228.813136 125.723211 
L 191.235009 125.723211 
L 191.235009 134.601354 
L 102.284989 134.601354 
L 102.284989 143.479497 
L 195.424761 143.479497 
L 195.424761 152.35764 
L 192.212203 152.35764 
L 192.212203 161.235783 
L 216.973907 161.235783 
L 216.973907 170.113926 
L 263.120061 170.113926 
L 263.120061 178.99207 
L 153.44719 178.99207 
L 153.44719 187.870213 
L 124.682002 187.870213 
L 124.682002 196.748356 
L 220.428238 196.748356 
L 220.428238 205.626499 
L 71.97618 205.626499 
L 71.97618 214.504642 
L 185.376119 214.504642 
L 185.376119 223.382785 
L 73.734486 223.382785 
L 73.734486 232.260928 
L 248.574613 232.260928 
L 248.574613 241.139072 
L 212.852675 241.139072 
L 212.852675 250.017215 
L 232.2964 250.017215 
L 232.2964 258.895358 
L 176.289733 258.895358 
L 176.289733 267.773501 
L 198.757597 267.773501 
L 198.757597 276.651644 
L 238.46002 276.651644 
L 238.46002 285.529787 
L 108.285934 285.529787 
L 108.285934 294.40793 
L 102.404683 294.40793 
L 102.404683 303.286074 
L 219.962002 303.286074 
L 219.962002 312.164217 
L 182.348499 312.164217 
L 182.348499 321.04236 
L 229.54763 321.04236 
L 229.54763 329.920503 
L 136.543151 329.920503 
L 136.543151 338.798646 
L 181.283669 338.798646 
L 181.283669 347.676789 
L 163.824314 347.676789 
L 163.824314 356.554932 
L 119.898435 356.554932 
L 119.898435 365.433075 
L 214.074908 365.433075 
L 214.074908 374.311219 
L 156.394787 374.311219 
L 156.394787 383.189362 
L 159.161397 383.189362 
L 159.161397 392.067505 
L 131.333595 392.067505 
L 131.333595 400.945648 
L 216.904764 400.945648 
L 216.904764 409.823791 
L 177.658974 409.823791 
L 177.658974 418.701934 
L 63.259631 418.701934 
L 63.259631 427.580077 
L 183.276821 427.580077 
L 183.276821 436.458221 
L 76.497691 436.458221 
L 76.497691 445.336364 
L 86.489537 445.336364 
" clip-path="url(#p915520eebd)" style="fill: none; stroke: #fecc5c; stroke-opacity: 0.3; stroke-width: 2; stroke-linecap: square"/>
   </g>
   <g id="line2d_13">
    <path d="M 189.776126 28.063636 
L 189.776126 36.941779 
L 168.884216 36.941779 
L 168.884216 45.819923 
L 145.928279 45.819923 
L 145.928279 54.698066 
L 156.07398 54.698066 
L 156.07398 63.576209 
L 90.528588 63.576209 
L 90.528588 72.454352 
L 59.123606 72.454352 
L 59.123606 81.332495 
L 210.426993 81.332495 
L 210.426993 90.210638 
L 169.7437 90.210638 
L 169.7437 99.088781 
L 86.834742 99.088781 
L 86.834742 107.966925 
L 143.667233 107.966925 
L 143.667233 116.845068 
L 50.725119 116.845068 
L 50.725119 125.723211 
L 89.957939 125.723211 
L 89.957939 134.601354 
L 178.966351 134.601354 
L 178.966351 143.479497 
L 239.315567 143.479497 
L 239.315567 152.35764 
L 83.110071 152.35764 
L 83.110071 161.235783 
L 236.219199 161.235783 
L 236.219199 170.113926 
L 175.877915 170.113926 
L 175.877915 178.99207 
L 120.208498 178.99207 
L 120.208498 187.870213 
L 130.861661 187.870213 
L 130.861661 196.748356 
L 222.618333 196.748356 
L 222.618333 205.626499 
L 229.684199 205.626499 
L 229.684199 214.504642 
L 222.800581 214.504642 
L 222.800581 223.382785 
L 225.808735 223.382785 
L 225.808735 232.260928 
L 180.293422 232.260928 
L 180.293422 241.139072 
L 111.479406 241.139072 
L 111.479406 250.017215 
L 194.391645 250.017215 
L 194.391645 258.895358 
L 158.565416 258.895358 
L 158.565416 267.773501 
L 166.523574 267.773501 
L 166.523574 276.651644 
L 246.794725 276.651644 
L 246.794725 285.529787 
L 110.728036 285.529787 
L 110.728036 294.40793 
L 234.060955 294.40793 
L 234.060955 303.286074 
L 146.344155 303.286074 
L 146.344155 312.164217 
L 161.536476 312.164217 
L 161.536476 321.04236 
L 159.127084 321.04236 
L 159.127084 329.920503 
L 148.924899 329.920503 
L 148.924899 338.798646 
L 254.355318 338.798646 
L 254.355318 347.676789 
L 171.225909 347.676789 
L 171.225909 356.554932 
L 60.815052 356.554932 
L 60.815052 365.433075 
L 233.286874 365.433075 
L 233.286874 374.311219 
L 116.510717 374.311219 
L 116.510717 383.189362 
L 197.179363 383.189362 
L 197.179363 392.067505 
L 65.634144 392.067505 
L 65.634144 400.945648 
L 121.052094 400.945648 
L 121.052094 409.823791 
L 73.07946 409.823791 
L 73.07946 418.701934 
L 115.883599 418.701934 
L 115.883599 427.580077 
L 185.847476 427.580077 
L 185.847476 436.458221 
L 96.258683 436.458221 
L 96.258683 445.336364 
L 85.728997 445.336364 
" clip-path="url(#p915520eebd)" style="fill: none; stroke: #fecc5c; stroke-opacity: 0.3; stroke-width: 2; stroke-linecap: square"/>
   </g>
   <g id="line2d_14">
    <path d="M 159.015559 28.063636 
L 159.015559 36.941779 
L 240.397022 36.941779 
L 240.397022 45.819923 
L 78.626812 45.819923 
L 78.626812 54.698066 
L 196.724221 54.698066 
L 196.724221 63.576209 
L 113.973015 63.576209 
L 113.973015 72.454352 
L 112.871722 72.454352 
L 112.871722 81.332495 
L 134.843779 81.332495 
L 134.843779 90.210638 
L 93.2082 90.210638 
L 93.2082 99.088781 
L 38.179494 99.088781 
L 38.179494 107.966925 
L 231.873929 107.966925 
L 231.873929 116.845068 
L 161.724681 116.845068 
L 161.724681 125.723211 
L 174.854221 125.723211 
L 174.854221 134.601354 
L 207.963198 134.601354 
L 207.963198 143.479497 
L 160.320109 143.479497 
L 160.320109 152.35764 
L 180.295945 152.35764 
L 180.295945 161.235783 
L 249.896928 161.235783 
L 249.896928 170.113926 
L 183.127761 170.113926 
L 183.127761 178.99207 
L 184.439302 178.99207 
L 184.439302 187.870213 
L 263.245415 187.870213 
L 263.245415 196.748356 
L 185.058579 196.748356 
L 185.058579 205.626499 
L 195.959547 205.626499 
L 195.959547 214.504642 
L 164.773181 214.504642 
L 164.773181 223.382785 
L 233.415267 223.382785 
L 233.415267 232.260928 
L 216.396572 232.260928 
L 216.396572 241.139072 
L 213.52988 241.139072 
L 213.52988 250.017215 
L 180.041818 250.017215 
L 180.041818 258.895358 
L 117.844224 258.895358 
L 117.844224 267.773501 
L 190.334223 267.773501 
L 190.334223 276.651644 
L 37.338956 276.651644 
L 37.338956 285.529787 
L 105.929219 285.529787 
L 105.929219 294.40793 
L 152.357833 294.40793 
L 152.357833 303.286074 
L 158.340588 303.286074 
L 158.340588 312.164217 
L 136.974359 312.164217 
L 136.974359 321.04236 
L 223.035849 321.04236 
L 223.035849 329.920503 
L 180.037411 329.920503 
L 180.037411 338.798646 
L 44.578017 338.798646 
L 44.578017 347.676789 
L 187.695398 347.676789 
L 187.695398 356.554932 
L 235.308246 356.554932 
L 235.308246 365.433075 
L 104.940302 365.433075 
L 104.940302 374.311219 
L 220.469207 374.311219 
L 220.469207 383.189362 
L 188.244058 383.189362 
L 188.244058 392.067505 
L 146.094541 392.067505 
L 146.094541 400.945648 
L 177.556323 400.945648 
L 177.556323 409.823791 
L 117.872246 409.823791 
L 117.872246 418.701934 
L 98.197151 418.701934 
L 98.197151 427.580077 
L 175.962041 427.580077 
L 175.962041 436.458221 
L 124.588256 436.458221 
L 124.588256 445.336364 
L 83.7127 445.336364 
" clip-path="url(#p915520eebd)" style="fill: none; stroke: #fecc5c; stroke-opacity: 0.3; stroke-width: 2; stroke-linecap: square"/>
   </g>
   <g id="line2d_15">
    <path d="M 193.653641 28.063636 
L 193.653641 36.941779 
L 156.292441 36.941779 
L 156.292441 45.819923 
L 187.043616 45.819923 
L 187.043616 54.698066 
L 110.124434 54.698066 
L 110.124434 63.576209 
L 94.458363 63.576209 
L 94.458363 72.454352 
L 96.701956 72.454352 
L 96.701956 81.332495 
L 83.687619 81.332495 
L 83.687619 90.210638 
L 223.35687 90.210638 
L 223.35687 99.088781 
L 99.068503 99.088781 
L 99.068503 107.966925 
L 76.042583 107.966925 
L 76.042583 116.845068 
L 193.773721 116.845068 
L 193.773721 125.723211 
L 46.773967 125.723211 
L 46.773967 134.601354 
L 150.320202 134.601354 
L 150.320202 143.479497 
L 164.125457 143.479497 
L 164.125457 152.35764 
L 249.199573 152.35764 
L 249.199573 161.235783 
L 251.284754 161.235783 
L 251.284754 170.113926 
L 194.466928 170.113926 
L 194.466928 178.99207 
L 162.403436 178.99207 
L 162.403436 187.870213 
L 188.392661 187.870213 
L 188.392661 196.748356 
L 258.871971 196.748356 
L 258.871971 205.626499 
L 240.63466 205.626499 
L 240.63466 214.504642 
L 241.334067 214.504642 
L 241.334067 223.382785 
L 237.214005 223.382785 
L 237.214005 232.260928 
L 139.243991 232.260928 
L 139.243991 241.139072 
L 88.880132 241.139072 
L 88.880132 250.017215 
L 212.902215 250.017215 
L 212.902215 258.895358 
L 225.027178 258.895358 
L 225.027178 267.773501 
L 106.325727 267.773501 
L 106.325727 276.651644 
L 37.58232 276.651644 
L 37.58232 285.529787 
L 242.661731 285.529787 
L 242.661731 294.40793 
L 158.219079 294.40793 
L 158.219079 303.286074 
L 187.431014 303.286074 
L 187.431014 312.164217 
L 197.072381 312.164217 
L 197.072381 321.04236 
L 160.498559 321.04236 
L 160.498559 329.920503 
L 205.825165 329.920503 
L 205.825165 338.798646 
L 129.081226 338.798646 
L 129.081226 347.676789 
L 161.961818 347.676789 
L 161.961818 356.554932 
L 196.436951 356.554932 
L 196.436951 365.433075 
L 92.144676 365.433075 
L 92.144676 374.311219 
L 176.704575 374.311219 
L 176.704575 383.189362 
L 212.916378 383.189362 
L 212.916378 392.067505 
L 161.803003 392.067505 
L 161.803003 400.945648 
L 176.083824 400.945648 
L 176.083824 409.823791 
L 121.667792 409.823791 
L 121.667792 418.701934 
L 91.312501 418.701934 
L 91.312501 427.580077 
L 123.808089 427.580077 
L 123.808089 436.458221 
L 172.991346 436.458221 
L 172.991346 445.336364 
L 84.278836 445.336364 
" clip-path="url(#p915520eebd)" style="fill: none; stroke: #fecc5c; stroke-opacity: 0.3; stroke-width: 2; stroke-linecap: square"/>
   </g>
   <g id="line2d_16">
    <path d="M 200.03367 28.063636 
L 200.03367 36.941779 
L 168.404821 36.941779 
L 168.404821 45.819923 
L 141.947833 45.819923 
L 141.947833 54.698066 
L 120.370551 54.698066 
L 120.370551 63.576209 
L 108.864895 63.576209 
L 108.864895 72.454352 
L 216.632585 72.454352 
L 216.632585 81.332495 
L 79.183651 81.332495 
L 79.183651 90.210638 
L 50.952063 90.210638 
L 50.952063 99.088781 
L 89.037185 99.088781 
L 89.037185 107.966925 
L 113.589349 107.966925 
L 113.589349 116.845068 
L 166.817454 116.845068 
L 166.817454 125.723211 
L 218.242914 125.723211 
L 218.242914 134.601354 
L 171.765983 134.601354 
L 171.765983 143.479497 
L 100.651038 143.479497 
L 100.651038 152.35764 
L 221.106263 152.35764 
L 221.106263 161.235783 
L 160.662283 161.235783 
L 160.662283 170.113926 
L 247.290198 170.113926 
L 247.290198 178.99207 
L 174.755446 178.99207 
L 174.755446 187.870213 
L 245.173849 187.870213 
L 245.173849 196.748356 
L 160.765967 196.748356 
L 160.765967 205.626499 
L 129.840604 205.626499 
L 129.840604 214.504642 
L 163.582314 214.504642 
L 163.582314 223.382785 
L 176.383965 223.382785 
L 176.383965 232.260928 
L 164.70454 232.260928 
L 164.70454 241.139072 
L 170.511049 241.139072 
L 170.511049 250.017215 
L 232.217835 250.017215 
L 232.217835 258.895358 
L 200.385645 258.895358 
L 200.385645 267.773501 
L 183.664325 267.773501 
L 183.664325 276.651644 
L 114.283961 276.651644 
L 114.283961 285.529787 
L 191.758003 285.529787 
L 191.758003 294.40793 
L 187.384802 294.40793 
L 187.384802 303.286074 
L 239.183588 303.286074 
L 239.183588 312.164217 
L 221.586494 312.164217 
L 221.586494 321.04236 
L 105.699787 321.04236 
L 105.699787 329.920503 
L 225.679248 329.920503 
L 225.679248 338.798646 
L 186.407624 338.798646 
L 186.407624 347.676789 
L 92.126692 347.676789 
L 92.126692 356.554932 
L 200.217848 356.554932 
L 200.217848 365.433075 
L 54.153027 365.433075 
L 54.153027 374.311219 
L 29.135896 374.311219 
L 29.135896 383.189362 
L 211.74753 383.189362 
L 211.74753 392.067505 
L 141.893013 392.067505 
L 141.893013 400.945648 
L 86.815595 400.945648 
L 86.815595 409.823791 
L 42.644715 409.823791 
L 42.644715 418.701934 
L 157.347089 418.701934 
L 157.347089 427.580077 
L 156.836633 427.580077 
L 156.836633 436.458221 
L 53.907148 436.458221 
L 53.907148 445.336364 
L 86.9604 445.336364 
" clip-path="url(#p915520eebd)" style="fill: none; stroke: #fecc5c; stroke-opacity: 0.3; stroke-width: 2; stroke-linecap: square"/>
   </g>
   <g id="line2d_17">
    <path d="M 194.031373 28.063636 
L 194.031373 36.941779 
L 172.737493 36.941779 
L 172.737493 45.819923 
L 125.217349 45.819923 
L 125.217349 54.698066 
L 219.847225 54.698066 
L 219.847225 63.576209 
L 47.22965 63.576209 
L 47.22965 72.454352 
L 238.168678 72.454352 
L 238.168678 81.332495 
L 104.877147 81.332495 
L 104.877147 90.210638 
L 53.531041 90.210638 
L 53.531041 99.088781 
L 213.791969 99.088781 
L 213.791969 107.966925 
L 190.179039 107.966925 
L 190.179039 116.845068 
L 54.09443 116.845068 
L 54.09443 125.723211 
L 182.48335 125.723211 
L 182.48335 134.601354 
L 211.595172 134.601354 
L 211.595172 143.479497 
L 148.09479 143.479497 
L 148.09479 152.35764 
L 135.608393 152.35764 
L 135.608393 161.235783 
L 232.461522 161.235783 
L 232.461522 170.113926 
L 261.613021 170.113926 
L 261.613021 178.99207 
L 177.560943 178.99207 
L 177.560943 187.870213 
L 133.886744 187.870213 
L 133.886744 196.748356 
L 232.742302 196.748356 
L 232.742302 205.626499 
L 228.110644 205.626499 
L 228.110644 214.504642 
L 177.977639 214.504642 
L 177.977639 223.382785 
L 141.497782 223.382785 
L 141.497782 232.260928 
L 212.227153 232.260928 
L 212.227153 241.139072 
L 150.073278 241.139072 
L 150.073278 250.017215 
L 252.491 250.017215 
L 252.491 258.895358 
L 62.660535 258.895358 
L 62.660535 267.773501 
L 154.080827 267.773501 
L 154.080827 276.651644 
L 186.771437 276.651644 
L 186.771437 285.529787 
L 72.919706 285.529787 
L 72.919706 294.40793 
L 224.591365 294.40793 
L 224.591365 303.286074 
L 223.55129 303.286074 
L 223.55129 312.164217 
L 151.9107 312.164217 
L 151.9107 321.04236 
L 140.633397 321.04236 
L 140.633397 329.920503 
L 187.77726 329.920503 
L 187.77726 338.798646 
L 167.252598 338.798646 
L 167.252598 347.676789 
L 107.022185 347.676789 
L 107.022185 356.554932 
L 109.009852 356.554932 
L 109.009852 365.433075 
L 91.205656 365.433075 
L 91.205656 374.311219 
L 169.474149 374.311219 
L 169.474149 383.189362 
L 162.05722 383.189362 
L 162.05722 392.067505 
L 115.995238 392.067505 
L 115.995238 400.945648 
L 83.531774 400.945648 
L 83.531774 409.823791 
L 150.549832 409.823791 
L 150.549832 418.701934 
L 122.03317 418.701934 
L 122.03317 427.580077 
L 91.517239 427.580077 
L 91.517239 436.458221 
L 185.8114 436.458221 
L 185.8114 445.336364 
L 85.089091 445.336364 
" clip-path="url(#p915520eebd)" style="fill: none; stroke: #fecc5c; stroke-opacity: 0.3; stroke-width: 2; stroke-linecap: square"/>
   </g>
   <g id="line2d_18">
    <path d="M 166.518225 28.063636 
L 166.518225 36.941779 
L 226.789773 36.941779 
L 226.789773 45.819923 
L 82.02908 45.819923 
L 82.02908 54.698066 
L 259.190393 54.698066 
L 259.190393 63.576209 
L 56.923838 63.576209 
L 56.923838 72.454352 
L 217.626737 72.454352 
L 217.626737 81.332495 
L 38.708275 81.332495 
L 38.708275 90.210638 
L 224.3497 90.210638 
L 224.3497 99.088781 
L 253.407591 99.088781 
L 253.407591 107.966925 
L 81.557389 107.966925 
L 81.557389 116.845068 
L 187.581046 116.845068 
L 187.581046 125.723211 
L 194.095046 125.723211 
L 194.095046 134.601354 
L 246.915656 134.601354 
L 246.915656 143.479497 
L 149.144439 143.479497 
L 149.144439 152.35764 
L 112.270529 152.35764 
L 112.270529 161.235783 
L 84.703456 161.235783 
L 84.703456 170.113926 
L 183.968629 170.113926 
L 183.968629 178.99207 
L 181.55676 178.99207 
L 181.55676 187.870213 
L 184.653599 187.870213 
L 184.653599 196.748356 
L 264.927273 196.748356 
L 264.927273 205.626499 
L 153.309148 205.626499 
L 153.309148 214.504642 
L 135.876401 214.504642 
L 135.876401 223.382785 
L 206.397379 223.382785 
L 206.397379 232.260928 
L 230.317957 232.260928 
L 230.317957 241.139072 
L 112.514345 241.139072 
L 112.514345 250.017215 
L 178.480299 250.017215 
L 178.480299 258.895358 
L 118.210954 258.895358 
L 118.210954 267.773501 
L 171.705411 267.773501 
L 171.705411 276.651644 
L 211.912713 276.651644 
L 211.912713 285.529787 
L 225.447901 285.529787 
L 225.447901 294.40793 
L 232.531911 294.40793 
L 232.531911 303.286074 
L 175.886243 303.286074 
L 175.886243 312.164217 
L 97.873753 312.164217 
L 97.873753 321.04236 
L 124.570507 321.04236 
L 124.570507 329.920503 
L 103.633624 329.920503 
L 103.633624 338.798646 
L 223.275175 338.798646 
L 223.275175 347.676789 
L 191.448623 347.676789 
L 191.448623 356.554932 
L 60.627166 356.554932 
L 60.627166 365.433075 
L 59.210737 365.433075 
L 59.210737 374.311219 
L 130.319467 374.311219 
L 130.319467 383.189362 
L 68.394425 383.189362 
L 68.394425 392.067505 
L 156.738146 392.067505 
L 156.738146 400.945648 
L 154.415737 400.945648 
L 154.415737 409.823791 
L 264.180971 409.823791 
L 264.180971 418.701934 
L 87.681575 418.701934 
L 87.681575 427.580077 
L 186.848497 427.580077 
L 186.848497 436.458221 
L 85.912795 436.458221 
L 85.912795 445.336364 
L 84.195956 445.336364 
" clip-path="url(#p915520eebd)" style="fill: none; stroke: #fecc5c; stroke-opacity: 0.3; stroke-width: 2; stroke-linecap: square"/>
   </g>
   <g id="line2d_19">
    <path d="M 199.745611 28.063636 
L 199.745611 36.941779 
L 170.473088 36.941779 
L 170.473088 45.819923 
L 118.418983 45.819923 
L 118.418983 54.698066 
L 181.605312 54.698066 
L 181.605312 63.576209 
L 129.954363 63.576209 
L 129.954363 72.454352 
L 77.426208 72.454352 
L 77.426208 81.332495 
L 104.569681 81.332495 
L 104.569681 90.210638 
L 59.389479 90.210638 
L 59.389479 99.088781 
L 82.953315 99.088781 
L 82.953315 107.966925 
L 185.73782 107.966925 
L 185.73782 116.845068 
L 125.778789 116.845068 
L 125.778789 125.723211 
L 223.617819 125.723211 
L 223.617819 134.601354 
L 128.857021 134.601354 
L 128.857021 143.479497 
L 212.857097 143.479497 
L 212.857097 152.35764 
L 209.50563 152.35764 
L 209.50563 161.235783 
L 194.775305 161.235783 
L 194.775305 170.113926 
L 154.478649 170.113926 
L 154.478649 178.99207 
L 172.47586 178.99207 
L 172.47586 187.870213 
L 207.539664 187.870213 
L 207.539664 196.748356 
L 122.557873 196.748356 
L 122.557873 205.626499 
L 153.694737 205.626499 
L 153.694737 214.504642 
L 179.924245 214.504642 
L 179.924245 223.382785 
L 189.118175 223.382785 
L 189.118175 232.260928 
L 91.113529 232.260928 
L 91.113529 241.139072 
L 99.518721 241.139072 
L 99.518721 250.017215 
L 224.796271 250.017215 
L 224.796271 258.895358 
L 151.558421 258.895358 
L 151.558421 267.773501 
L 263.400842 267.773501 
L 263.400842 276.651644 
L 119.471352 276.651644 
L 119.471352 285.529787 
L 234.034848 285.529787 
L 234.034848 294.40793 
L 136.957012 294.40793 
L 136.957012 303.286074 
L 230.295771 303.286074 
L 230.295771 312.164217 
L 146.065197 312.164217 
L 146.065197 321.04236 
L 194.43538 321.04236 
L 194.43538 329.920503 
L 131.778959 329.920503 
L 131.778959 338.798646 
L 104.732972 338.798646 
L 104.732972 347.676789 
L 152.652959 347.676789 
L 152.652959 356.554932 
L 188.579362 356.554932 
L 188.579362 365.433075 
L 236.642961 365.433075 
L 236.642961 374.311219 
L 111.303866 374.311219 
L 111.303866 383.189362 
L 157.959801 383.189362 
L 157.959801 392.067505 
L 135.952542 392.067505 
L 135.952542 400.945648 
L 200.506166 400.945648 
L 200.506166 409.823791 
L 77.610602 409.823791 
L 77.610602 418.701934 
L 148.238607 418.701934 
L 148.238607 427.580077 
L 100.939812 427.580077 
L 100.939812 436.458221 
L 139.888144 436.458221 
L 139.888144 445.336364 
L 84.078641 445.336364 
" clip-path="url(#p915520eebd)" style="fill: none; stroke: #fecc5c; stroke-opacity: 0.3; stroke-width: 2; stroke-linecap: square"/>
   </g>
   <g id="line2d_20">
    <path d="M 149.493314 28.063636 
L 149.493314 36.941779 
L 239.280327 36.941779 
L 239.280327 45.819923 
L 99.71166 45.819923 
L 99.71166 54.698066 
L 123.231301 54.698066 
L 123.231301 63.576209 
L 152.93257 63.576209 
L 152.93257 72.454352 
L 65.071474 72.454352 
L 65.071474 81.332495 
L 75.091087 81.332495 
L 75.091087 90.210638 
L 175.699314 90.210638 
L 175.699314 99.088781 
L 60.37038 99.088781 
L 60.37038 107.966925 
L 253.271356 107.966925 
L 253.271356 116.845068 
L 163.443542 116.845068 
L 163.443542 125.723211 
L 101.119743 125.723211 
L 101.119743 134.601354 
L 264.524117 134.601354 
L 264.524117 143.479497 
L 142.013914 143.479497 
L 142.013914 152.35764 
L 44.830789 152.35764 
L 44.830789 161.235783 
L 150.2999 161.235783 
L 150.2999 170.113926 
L 176.418232 170.113926 
L 176.418232 178.99207 
L 143.878035 178.99207 
L 143.878035 187.870213 
L 170.682857 187.870213 
L 170.682857 196.748356 
L 231.3749 196.748356 
L 231.3749 205.626499 
L 195.908852 205.626499 
L 195.908852 214.504642 
L 201.087589 214.504642 
L 201.087589 223.382785 
L 206.892943 223.382785 
L 206.892943 232.260928 
L 116.414593 232.260928 
L 116.414593 241.139072 
L 156.328714 241.139072 
L 156.328714 250.017215 
L 168.975424 250.017215 
L 168.975424 258.895358 
L 205.357319 258.895358 
L 205.357319 267.773501 
L 211.87884 267.773501 
L 211.87884 276.651644 
L 236.183108 276.651644 
L 236.183108 285.529787 
L 137.583689 285.529787 
L 137.583689 294.40793 
L 214.45109 294.40793 
L 214.45109 303.286074 
L 197.143758 303.286074 
L 197.143758 312.164217 
L 206.775917 312.164217 
L 206.775917 321.04236 
L 221.107159 321.04236 
L 221.107159 329.920503 
L 96.06389 329.920503 
L 96.06389 338.798646 
L 180.05633 338.798646 
L 180.05633 347.676789 
L 228.16605 347.676789 
L 228.16605 356.554932 
L 224.166601 356.554932 
L 224.166601 365.433075 
L 94.037701 365.433075 
L 94.037701 374.311219 
L 165.030529 374.311219 
L 165.030529 383.189362 
L 127.870671 383.189362 
L 127.870671 392.067505 
L 182.171463 392.067505 
L 182.171463 400.945648 
L 132.587785 400.945648 
L 132.587785 409.823791 
L 19.472727 409.823791 
L 19.472727 418.701934 
L 25.755565 418.701934 
L 25.755565 427.580077 
L 166.778475 427.580077 
L 166.778475 436.458221 
L 116.063872 436.458221 
L 116.063872 445.336364 
L 87.768429 445.336364 
" clip-path="url(#p915520eebd)" style="fill: none; stroke: #fecc5c; stroke-opacity: 0.3; stroke-width: 2; stroke-linecap: square"/>
   </g>
   <g id="line2d_21">
    <path d="M 200.200358 28.063636 
L 200.200358 36.941779 
L 193.235836 36.941779 
L 193.235836 45.819923 
L 94.163769 45.819923 
L 94.163769 54.698066 
L 219.261851 54.698066 
L 219.261851 63.576209 
L 105.659274 63.576209 
L 105.659274 72.454352 
L 86.664157 72.454352 
L 86.664157 81.332495 
L 105.813728 81.332495 
L 105.813728 90.210638 
L 54.779339 90.210638 
L 54.779339 99.088781 
L 96.731604 99.088781 
L 96.731604 107.966925 
L 215.583908 107.966925 
L 215.583908 116.845068 
L 116.731457 116.845068 
L 116.731457 125.723211 
L 224.311284 125.723211 
L 224.311284 134.601354 
L 117.620186 134.601354 
L 117.620186 143.479497 
L 120.510789 143.479497 
L 120.510789 152.35764 
L 149.538037 152.35764 
L 149.538037 161.235783 
L 183.289708 161.235783 
L 183.289708 170.113926 
L 183.854597 170.113926 
L 183.854597 178.99207 
L 131.815604 178.99207 
L 131.815604 187.870213 
L 194.35987 187.870213 
L 194.35987 196.748356 
L 188.968568 196.748356 
L 188.968568 205.626499 
L 113.634611 205.626499 
L 113.634611 214.504642 
L 188.796228 214.504642 
L 188.796228 223.382785 
L 209.769255 223.382785 
L 209.769255 232.260928 
L 190.914171 232.260928 
L 190.914171 241.139072 
L 162.168973 241.139072 
L 162.168973 250.017215 
L 180.013036 250.017215 
L 180.013036 258.895358 
L 94.916141 258.895358 
L 94.916141 267.773501 
L 171.743584 267.773501 
L 171.743584 276.651644 
L 236.830057 276.651644 
L 236.830057 285.529787 
L 250.918084 285.529787 
L 250.918084 294.40793 
L 54.447913 294.40793 
L 54.447913 303.286074 
L 132.645751 303.286074 
L 132.645751 312.164217 
L 164.523553 312.164217 
L 164.523553 321.04236 
L 88.535641 321.04236 
L 88.535641 329.920503 
L 112.803499 329.920503 
L 112.803499 338.798646 
L 180.888628 338.798646 
L 180.888628 347.676789 
L 185.927104 347.676789 
L 185.927104 356.554932 
L 53.04363 356.554932 
L 53.04363 365.433075 
L 96.605035 365.433075 
L 96.605035 374.311219 
L 222.785871 374.311219 
L 222.785871 383.189362 
L 124.970312 383.189362 
L 124.970312 392.067505 
L 173.567116 392.067505 
L 173.567116 400.945648 
L 162.882041 400.945648 
L 162.882041 409.823791 
L 154.267072 409.823791 
L 154.267072 418.701934 
L 227.366136 418.701934 
L 227.366136 427.580077 
L 54.338436 427.580077 
L 54.338436 436.458221 
L 261.826528 436.458221 
L 261.826528 445.336364 
L 85.134376 445.336364 
" clip-path="url(#p915520eebd)" style="fill: none; stroke: #fecc5c; stroke-opacity: 0.3; stroke-width: 2; stroke-linecap: square"/>
   </g>
   <g id="line2d_22">
    <path d="M 209.985922 28.063636 
L 209.985922 36.941779 
L 147.716571 36.941779 
L 147.716571 45.819923 
L 193.148427 45.819923 
L 193.148427 54.698066 
L 97.450545 54.698066 
L 97.450545 63.576209 
L 127.606158 63.576209 
L 127.606158 72.454352 
L 136.265804 72.454352 
L 136.265804 81.332495 
L 42.961786 81.332495 
L 42.961786 90.210638 
L 194.094149 90.210638 
L 194.094149 99.088781 
L 133.190984 99.088781 
L 133.190984 107.966925 
L 117.351258 107.966925 
L 117.351258 116.845068 
L 120.886204 116.845068 
L 120.886204 125.723211 
L 227.686351 125.723211 
L 227.686351 134.601354 
L 199.96354 134.601354 
L 199.96354 143.479497 
L 122.240971 143.479497 
L 122.240971 152.35764 
L 205.509479 152.35764 
L 205.509479 161.235783 
L 155.990583 161.235783 
L 155.990583 170.113926 
L 253.789381 170.113926 
L 253.789381 178.99207 
L 58.990327 178.99207 
L 58.990327 187.870213 
L 182.308639 187.870213 
L 182.308639 196.748356 
L 180.68202 196.748356 
L 180.68202 205.626499 
L 129.306381 205.626499 
L 129.306381 214.504642 
L 155.161735 214.504642 
L 155.161735 223.382785 
L 170.685729 223.382785 
L 170.685729 232.260928 
L 70.642464 232.260928 
L 70.642464 241.139072 
L 248.285414 241.139072 
L 248.285414 250.017215 
L 183.648612 250.017215 
L 183.648612 258.895358 
L 200.457767 258.895358 
L 200.457767 267.773501 
L 216.917924 267.773501 
L 216.917924 276.651644 
L 169.141306 276.651644 
L 169.141306 285.529787 
L 150.055711 285.529787 
L 150.055711 294.40793 
L 191.273 294.40793 
L 191.273 303.286074 
L 151.938387 303.286074 
L 151.938387 312.164217 
L 155.056425 312.164217 
L 155.056425 321.04236 
L 181.893919 321.04236 
L 181.893919 329.920503 
L 182.036794 329.920503 
L 182.036794 338.798646 
L 181.012963 338.798646 
L 181.012963 347.676789 
L 202.134609 347.676789 
L 202.134609 356.554932 
L 110.40678 356.554932 
L 110.40678 365.433075 
L 114.927262 365.433075 
L 114.927262 374.311219 
L 125.042403 374.311219 
L 125.042403 383.189362 
L 100.00747 383.189362 
L 100.00747 392.067505 
L 47.114626 392.067505 
L 47.114626 400.945648 
L 80.433119 400.945648 
L 80.433119 409.823791 
L 145.374271 409.823791 
L 145.374271 418.701934 
L 189.840862 418.701934 
L 189.840862 427.580077 
L 250.285237 427.580077 
L 250.285237 436.458221 
L 103.098702 436.458221 
L 103.098702 445.336364 
L 88.48019 445.336364 
" clip-path="url(#p915520eebd)" style="fill: none; stroke: #fecc5c; stroke-opacity: 0.3; stroke-width: 2; stroke-linecap: square"/>
   </g>
   <g id="line2d_23">
    <path d="M 197.636891 28.063636 
L 197.636891 36.941779 
L 172.653291 36.941779 
L 172.653291 45.819923 
L 124.744435 45.819923 
L 124.744435 54.698066 
L 206.541895 54.698066 
L 206.541895 63.576209 
L 66.571402 63.576209 
L 66.571402 72.454352 
L 81.99846 72.454352 
L 81.99846 81.332495 
L 116.76014 81.332495 
L 116.76014 90.210638 
L 210.250443 90.210638 
L 210.250443 99.088781 
L 96.368863 99.088781 
L 96.368863 107.966925 
L 64.004539 107.966925 
L 64.004539 116.845068 
L 170.998027 116.845068 
L 170.998027 125.723211 
L 47.870705 125.723211 
L 47.870705 134.601354 
L 151.935378 134.601354 
L 151.935378 143.479497 
L 246.470346 143.479497 
L 246.470346 152.35764 
L 248.416208 152.35764 
L 248.416208 161.235783 
L 188.109176 161.235783 
L 188.109176 170.113926 
L 247.669511 170.113926 
L 247.669511 178.99207 
L 184.048091 178.99207 
L 184.048091 187.870213 
L 183.562829 187.870213 
L 183.562829 196.748356 
L 256.22567 196.748356 
L 256.22567 205.626499 
L 221.243074 205.626499 
L 221.243074 214.504642 
L 142.580756 214.504642 
L 142.580756 223.382785 
L 156.605255 223.382785 
L 156.605255 232.260928 
L 173.737603 232.260928 
L 173.737603 241.139072 
L 262.318688 241.139072 
L 262.318688 250.017215 
L 193.777718 250.017215 
L 193.777718 258.895358 
L 237.677627 258.895358 
L 237.677627 267.773501 
L 78.18956 267.773501 
L 78.18956 276.651644 
L 195.809529 276.651644 
L 195.809529 285.529787 
L 161.549727 285.529787 
L 161.549727 294.40793 
L 103.916745 294.40793 
L 103.916745 303.286074 
L 189.085017 303.286074 
L 189.085017 312.164217 
L 117.581496 312.164217 
L 117.581496 321.04236 
L 130.078562 321.04236 
L 130.078562 329.920503 
L 106.291315 329.920503 
L 106.291315 338.798646 
L 151.790437 338.798646 
L 151.790437 347.676789 
L 147.410899 347.676789 
L 147.410899 356.554932 
L 55.529394 356.554932 
L 55.529394 365.433075 
L 104.893141 365.433075 
L 104.893141 374.311219 
L 70.71049 374.311219 
L 70.71049 383.189362 
L 119.849905 383.189362 
L 119.849905 392.067505 
L 89.815315 392.067505 
L 89.815315 400.945648 
L 126.621853 400.945648 
L 126.621853 409.823791 
L 130.554014 409.823791 
L 130.554014 418.701934 
L 115.875659 418.701934 
L 115.875659 427.580077 
L 163.809756 427.580077 
L 163.809756 436.458221 
L 260.5779 436.458221 
L 260.5779 445.336364 
L 84.390011 445.336364 
" clip-path="url(#p915520eebd)" style="fill: none; stroke: #fecc5c; stroke-opacity: 0.3; stroke-width: 2; stroke-linecap: square"/>
   </g>
   <g id="line2d_24"/>
   <g id="line2d_25">
    <path d="M 195.723154 28.063636 
L 195.723154 36.941779 
L 176.827755 36.941779 
L 176.827755 45.819923 
L 144.331293 45.819923 
L 144.331293 54.698066 
L 140.261348 54.698066 
L 140.261348 63.576209 
L 128.795696 63.576209 
L 128.795696 72.454352 
L 116.41084 72.454352 
L 116.41084 81.332495 
L 111.587588 81.332495 
L 111.587588 90.210638 
L 110.408193 90.210638 
L 110.408193 99.088781 
L 131.003032 99.088781 
L 131.003032 107.966925 
L 140.301375 107.966925 
L 140.301375 116.845068 
L 153.600277 116.845068 
L 153.600277 125.723211 
L 155.856932 125.723211 
L 155.856932 134.601354 
L 173.320436 134.601354 
L 173.320436 143.479497 
L 174.517321 143.479497 
L 174.517321 152.35764 
L 193.576961 152.35764 
L 193.576961 161.235783 
L 182.666708 161.235783 
L 182.666708 170.113926 
L 184.621551 170.113926 
L 184.621551 178.99207 
L 188.866662 178.99207 
L 188.866662 187.870213 
L 186.84409 187.870213 
L 186.84409 196.748356 
L 181.0987 196.748356 
L 181.0987 205.626499 
L 184.589578 205.626499 
L 184.589578 214.504642 
L 184.868626 214.504642 
L 184.868626 223.382785 
L 184.747466 223.382785 
L 184.747466 232.260928 
L 185.44859 232.260928 
L 185.44859 241.139072 
L 175.020453 241.139072 
L 175.020453 250.017215 
L 172.904652 250.017215 
L 172.904652 258.895358 
L 171.25071 258.895358 
L 171.25071 267.773501 
L 173.096428 267.773501 
L 173.096428 276.651644 
L 172.341115 276.651644 
L 172.341115 285.529787 
L 164.836367 285.529787 
L 164.836367 294.40793 
L 165.295779 294.40793 
L 165.295779 303.286074 
L 162.16525 303.286074 
L 162.16525 312.164217 
L 160.538266 312.164217 
L 160.538266 321.04236 
L 160.358875 321.04236 
L 160.358875 329.920503 
L 158.145848 329.920503 
L 158.145848 338.798646 
L 150.405544 338.798646 
L 150.405544 347.676789 
L 147.589546 347.676789 
L 147.589546 356.554932 
L 147.50849 356.554932 
L 147.50849 365.433075 
L 145.951803 365.433075 
L 145.951803 374.311219 
L 144.277422 374.311219 
L 144.277422 383.189362 
L 143.90785 383.189362 
L 143.90785 392.067505 
L 142.275737 392.067505 
L 142.275737 400.945648 
L 144.873525 400.945648 
L 144.873525 409.823791 
L 146.540399 409.823791 
L 146.540399 418.701934 
L 145.115752 418.701934 
L 145.115752 427.580077 
L 134.211951 427.580077 
L 134.211951 436.458221 
L 136.209001 436.458221 
L 136.209001 445.336364 
L 85.422002 445.336364 
" clip-path="url(#p915520eebd)" style="fill: none; stroke: #6b3914; stroke-width: 3; stroke-linecap: square"/>
   </g>
   <g id="line2d_26">
    <path d="M 197.56302 28.063636 
L 168.624342 36.941779 
L 145.529345 45.819923 
L 127.706422 54.698066 
L 114.607525 63.576209 
L 105.708166 72.454352 
L 100.507419 81.332495 
L 98.527917 90.210638 
L 99.315857 99.088781 
L 102.440993 107.966925 
L 107.49664 116.845068 
L 114.099677 125.723211 
L 121.890538 134.601354 
L 130.533224 143.479497 
L 139.715291 152.35764 
L 149.14786 161.235783 
L 158.565609 170.113926 
L 167.726779 178.99207 
L 176.413171 187.870213 
L 184.430147 196.748356 
L 191.606628 205.626499 
L 197.795097 214.504642 
L 202.871599 223.382785 
L 206.735736 232.260928 
L 209.310673 241.139072 
L 210.543137 250.017215 
L 210.403411 258.895358 
L 208.885344 267.773501 
L 206.006343 276.651644 
L 201.807374 285.529787 
L 196.352966 294.40793 
L 189.731209 303.286074 
L 182.053752 312.164217 
L 173.455805 321.04236 
L 164.096139 329.920503 
L 154.157086 338.798646 
L 143.844537 347.676789 
L 133.387946 356.554932 
L 123.040325 365.433075 
L 113.078249 374.311219 
L 103.801852 383.189362 
L 95.53483 392.067505 
L 88.624438 400.945648 
L 83.441493 409.823791 
L 80.380371 418.701934 
L 79.859011 427.580077 
L 82.318911 436.458221 
L 88.225129 445.336364 
" clip-path="url(#p915520eebd)" style="fill: none; stroke: #e40000; stroke-opacity: 0.8; stroke-width: 3; stroke-linecap: square"/>
    <defs>
     <path id="mf46ec4178e" d="M 5 0 
L -5 -0 
" style="stroke: #e40000; stroke-opacity: 0.8"/>
    </defs>
    <g clip-path="url(#p915520eebd)">
     <use xlink:href="#mf46ec4178e" x="197.56302" y="28.063636" style="fill: #e40000; fill-opacity: 0.8; stroke: #e40000; stroke-opacity: 0.8"/>
     <use xlink:href="#mf46ec4178e" x="168.624342" y="36.941779" style="fill: #e40000; fill-opacity: 0.8; stroke: #e40000; stroke-opacity: 0.8"/>
     <use xlink:href="#mf46ec4178e" x="145.529345" y="45.819923" style="fill: #e40000; fill-opacity: 0.8; stroke: #e40000; stroke-opacity: 0.8"/>
     <use xlink:href="#mf46ec4178e" x="127.706422" y="54.698066" style="fill: #e40000; fill-opacity: 0.8; stroke: #e40000; stroke-opacity: 0.8"/>
     <use xlink:href="#mf46ec4178e" x="114.607525" y="63.576209" style="fill: #e40000; fill-opacity: 0.8; stroke: #e40000; stroke-opacity: 0.8"/>
     <use xlink:href="#mf46ec4178e" x="105.708166" y="72.454352" style="fill: #e40000; fill-opacity: 0.8; stroke: #e40000; stroke-opacity: 0.8"/>
     <use xlink:href="#mf46ec4178e" x="100.507419" y="81.332495" style="fill: #e40000; fill-opacity: 0.8; stroke: #e40000; stroke-opacity: 0.8"/>
     <use xlink:href="#mf46ec4178e" x="98.527917" y="90.210638" style="fill: #e40000; fill-opacity: 0.8; stroke: #e40000; stroke-opacity: 0.8"/>
     <use xlink:href="#mf46ec4178e" x="99.315857" y="99.088781" style="fill: #e40000; fill-opacity: 0.8; stroke: #e40000; stroke-opacity: 0.8"/>
     <use xlink:href="#mf46ec4178e" x="102.440993" y="107.966925" style="fill: #e40000; fill-opacity: 0.8; stroke: #e40000; stroke-opacity: 0.8"/>
     <use xlink:href="#mf46ec4178e" x="107.49664" y="116.845068" style="fill: #e40000; fill-opacity: 0.8; stroke: #e40000; stroke-opacity: 0.8"/>
     <use xlink:href="#mf46ec4178e" x="114.099677" y="125.723211" style="fill: #e40000; fill-opacity: 0.8; stroke: #e40000; stroke-opacity: 0.8"/>
     <use xlink:href="#mf46ec4178e" x="121.890538" y="134.601354" style="fill: #e40000; fill-opacity: 0.8; stroke: #e40000; stroke-opacity: 0.8"/>
     <use xlink:href="#mf46ec4178e" x="130.533224" y="143.479497" style="fill: #e40000; fill-opacity: 0.8; stroke: #e40000; stroke-opacity: 0.8"/>
     <use xlink:href="#mf46ec4178e" x="139.715291" y="152.35764" style="fill: #e40000; fill-opacity: 0.8; stroke: #e40000; stroke-opacity: 0.8"/>
     <use xlink:href="#mf46ec4178e" x="149.14786" y="161.235783" style="fill: #e40000; fill-opacity: 0.8; stroke: #e40000; stroke-opacity: 0.8"/>
     <use xlink:href="#mf46ec4178e" x="158.565609" y="170.113926" style="fill: #e40000; fill-opacity: 0.8; stroke: #e40000; stroke-opacity: 0.8"/>
     <use xlink:href="#mf46ec4178e" x="167.726779" y="178.99207" style="fill: #e40000; fill-opacity: 0.8; stroke: #e40000; stroke-opacity: 0.8"/>
     <use xlink:href="#mf46ec4178e" x="176.413171" y="187.870213" style="fill: #e40000; fill-opacity: 0.8; stroke: #e40000; stroke-opacity: 0.8"/>
     <use xlink:href="#mf46ec4178e" x="184.430147" y="196.748356" style="fill: #e40000; fill-opacity: 0.8; stroke: #e40000; stroke-opacity: 0.8"/>
     <use xlink:href="#mf46ec4178e" x="191.606628" y="205.626499" style="fill: #e40000; fill-opacity: 0.8; stroke: #e40000; stroke-opacity: 0.8"/>
     <use xlink:href="#mf46ec4178e" x="197.795097" y="214.504642" style="fill: #e40000; fill-opacity: 0.8; stroke: #e40000; stroke-opacity: 0.8"/>
     <use xlink:href="#mf46ec4178e" x="202.871599" y="223.382785" style="fill: #e40000; fill-opacity: 0.8; stroke: #e40000; stroke-opacity: 0.8"/>
     <use xlink:href="#mf46ec4178e" x="206.735736" y="232.260928" style="fill: #e40000; fill-opacity: 0.8; stroke: #e40000; stroke-opacity: 0.8"/>
     <use xlink:href="#mf46ec4178e" x="209.310673" y="241.139072" style="fill: #e40000; fill-opacity: 0.8; stroke: #e40000; stroke-opacity: 0.8"/>
     <use xlink:href="#mf46ec4178e" x="210.543137" y="250.017215" style="fill: #e40000; fill-opacity: 0.8; stroke: #e40000; stroke-opacity: 0.8"/>
     <use xlink:href="#mf46ec4178e" x="210.403411" y="258.895358" style="fill: #e40000; fill-opacity: 0.8; stroke: #e40000; stroke-opacity: 0.8"/>
     <use xlink:href="#mf46ec4178e" x="208.885344" y="267.773501" style="fill: #e40000; fill-opacity: 0.8; stroke: #e40000; stroke-opacity: 0.8"/>
     <use xlink:href="#mf46ec4178e" x="206.006343" y="276.651644" style="fill: #e40000; fill-opacity: 0.8; stroke: #e40000; stroke-opacity: 0.8"/>
     <use xlink:href="#mf46ec4178e" x="201.807374" y="285.529787" style="fill: #e40000; fill-opacity: 0.8; stroke: #e40000; stroke-opacity: 0.8"/>
     <use xlink:href="#mf46ec4178e" x="196.352966" y="294.40793" style="fill: #e40000; fill-opacity: 0.8; stroke: #e40000; stroke-opacity: 0.8"/>
     <use xlink:href="#mf46ec4178e" x="189.731209" y="303.286074" style="fill: #e40000; fill-opacity: 0.8; stroke: #e40000; stroke-opacity: 0.8"/>
     <use xlink:href="#mf46ec4178e" x="182.053752" y="312.164217" style="fill: #e40000; fill-opacity: 0.8; stroke: #e40000; stroke-opacity: 0.8"/>
     <use xlink:href="#mf46ec4178e" x="173.455805" y="321.04236" style="fill: #e40000; fill-opacity: 0.8; stroke: #e40000; stroke-opacity: 0.8"/>
     <use xlink:href="#mf46ec4178e" x="164.096139" y="329.920503" style="fill: #e40000; fill-opacity: 0.8; stroke: #e40000; stroke-opacity: 0.8"/>
     <use xlink:href="#mf46ec4178e" x="154.157086" y="338.798646" style="fill: #e40000; fill-opacity: 0.8; stroke: #e40000; stroke-opacity: 0.8"/>
     <use xlink:href="#mf46ec4178e" x="143.844537" y="347.676789" style="fill: #e40000; fill-opacity: 0.8; stroke: #e40000; stroke-opacity: 0.8"/>
     <use xlink:href="#mf46ec4178e" x="133.387946" y="356.554932" style="fill: #e40000; fill-opacity: 0.8; stroke: #e40000; stroke-opacity: 0.8"/>
     <use xlink:href="#mf46ec4178e" x="123.040325" y="365.433075" style="fill: #e40000; fill-opacity: 0.8; stroke: #e40000; stroke-opacity: 0.8"/>
     <use xlink:href="#mf46ec4178e" x="113.078249" y="374.311219" style="fill: #e40000; fill-opacity: 0.8; stroke: #e40000; stroke-opacity: 0.8"/>
     <use xlink:href="#mf46ec4178e" x="103.801852" y="383.189362" style="fill: #e40000; fill-opacity: 0.8; stroke: #e40000; stroke-opacity: 0.8"/>
     <use xlink:href="#mf46ec4178e" x="95.53483" y="392.067505" style="fill: #e40000; fill-opacity: 0.8; stroke: #e40000; stroke-opacity: 0.8"/>
     <use xlink:href="#mf46ec4178e" x="88.624438" y="400.945648" style="fill: #e40000; fill-opacity: 0.8; stroke: #e40000; stroke-opacity: 0.8"/>
     <use xlink:href="#mf46ec4178e" x="83.441493" y="409.823791" style="fill: #e40000; fill-opacity: 0.8; stroke: #e40000; stroke-opacity: 0.8"/>
     <use xlink:href="#mf46ec4178e" x="80.380371" y="418.701934" style="fill: #e40000; fill-opacity: 0.8; stroke: #e40000; stroke-opacity: 0.8"/>
     <use xlink:href="#mf46ec4178e" x="79.859011" y="427.580077" style="fill: #e40000; fill-opacity: 0.8; stroke: #e40000; stroke-opacity: 0.8"/>
     <use xlink:href="#mf46ec4178e" x="82.318911" y="436.458221" style="fill: #e40000; fill-opacity: 0.8; stroke: #e40000; stroke-opacity: 0.8"/>
     <use xlink:href="#mf46ec4178e" x="88.225129" y="445.336364" style="fill: #e40000; fill-opacity: 0.8; stroke: #e40000; stroke-opacity: 0.8"/>
    </g>
   </g>
   <g id="patch_3">
    <path d="M 7.2 476.2 
L 277.2 476.2 
" style="fill: none; stroke: #000000; stroke-width: 2; stroke-linejoin: miter; stroke-linecap: square"/>
   </g>
  </g>
 </g>
 <defs>
  <clipPath id="p915520eebd">
   <rect x="7.2" y="7.2" width="270" height="459"/>
  </clipPath>
 </defs>
</svg>
