<?xml version="1.0" encoding="utf-8" standalone="no"?>
<!DOCTYPE svg PUBLIC "-//W3C//DTD SVG 1.1//EN"
  "http://www.w3.org/Graphics/SVG/1.1/DTD/svg11.dtd">
<svg xmlns:xlink="http://www.w3.org/1999/xlink" width="370.95625pt" height="544.35625pt" viewBox="0 0 370.95625 544.35625" xmlns="http://www.w3.org/2000/svg" version="1.1">
 <metadata>
  <rdf:RDF xmlns:dc="http://purl.org/dc/elements/1.1/" xmlns:cc="http://creativecommons.org/ns#" xmlns:rdf="http://www.w3.org/1999/02/22-rdf-syntax-ns#">
   <cc:Work>
    <dc:type rdf:resource="http://purl.org/dc/dcmitype/StillImage"/>
    <dc:date>2024-07-31T17:59:18.982661</dc:date>
    <dc:format>image/svg+xml</dc:format>
    <dc:creator>
     <cc:Agent>
      <dc:title>Matplotlib v3.8.0, https://matplotlib.org/</dc:title>
     </cc:Agent>
    </dc:creator>
   </cc:Work>
  </rdf:RDF>
 </metadata>
 <defs>
  <style type="text/css">*{stroke-linejoin: round; stroke-linecap: butt}</style>
 </defs>
 <g id="figure_1">
  <g id="patch_1">
   <path d="M -0 544.35625 
L 370.95625 544.35625 
L 370.95625 0 
L -0 0 
z
" style="fill: #ffffff"/>
  </g>
  <g id="axes_1">
   <g id="patch_2">
    <path d="M 93.75625 466.2 
L 363.75625 466.2 
L 363.75625 7.2 
L 93.75625 7.2 
z
" style="fill: #ffffff"/>
   </g>
   <g id="PolyCollection_1">
    <defs>
     <path id="mbee0fd21f0" d="M 242.745122 -516.292614 
L 256.685888 -516.292614 
L 260.392916 -497.325671 
L 267.735633 -478.358729 
L 274.57699 -459.391787 
L 283.011999 -440.424845 
L 291.616852 -421.457903 
L 301.03285 -402.490961 
L 310.256662 -383.524019 
L 320.60125 -364.557076 
L 330.672836 -345.590134 
L 338.819609 -326.623192 
L 345.072136 -307.65625 
L 347.187685 -288.689308 
L 344.321345 -269.722366 
L 336.112886 -250.755424 
L 322.410103 -231.788481 
L 303.264453 -212.821539 
L 279.991838 -193.854597 
L 255.53131 -174.887655 
L 231.090229 -155.920713 
L 207.957109 -136.953771 
L 188.779843 -117.986829 
L 173.400784 -99.019886 
L 121.710003 -99.019886 
L 121.710003 -99.019886 
L 123.747168 -117.986829 
L 130.065149 -136.953771 
L 143.764513 -155.920713 
L 163.735794 -174.887655 
L 190.347557 -193.854597 
L 218.255083 -212.821539 
L 246.468169 -231.788481 
L 268.697323 -250.755424 
L 290.16854 -269.722366 
L 303.146145 -288.689308 
L 307.626291 -307.65625 
L 307.330433 -326.623192 
L 306.707768 -345.590134 
L 301.356829 -364.557076 
L 293.846142 -383.524019 
L 286.787808 -402.490961 
L 278.381868 -421.457903 
L 270.305984 -440.424845 
L 262.63425 -459.391787 
L 255.383226 -478.358729 
L 248.734379 -497.325671 
L 242.745122 -516.292614 
z
" style="stroke: #756bb1; stroke-opacity: 0.5"/>
    </defs>
    <g clip-path="url(#p2dca252032)">
     <use xlink:href="#mbee0fd21f0" x="0" y="544.35625" style="fill: #756bb1; fill-opacity: 0.5; stroke: #756bb1; stroke-opacity: 0.5"/>
    </g>
   </g>
   <g id="matplotlib.axis_1">
    <g id="xtick_1">
     <g id="line2d_1">
      <defs>
       <path id="m627a30dfc8" d="M 0 0 
L 0 3.5 
" style="stroke: #000000; stroke-width: 1.5"/>
      </defs>
      <g>
       <use xlink:href="#m627a30dfc8" x="140.224253" y="476.2" style="stroke: #000000; stroke-width: 1.5"/>
      </g>
     </g>
     <g id="text_1">
      <!-- 400 -->
      <g transform="translate(121.136753 498.396875) scale(0.2 -0.2)">
       <defs>
        <path id="DejaVuSans-34" d="M 2419 4116 
L 825 1625 
L 2419 1625 
L 2419 4116 
z
M 2253 4666 
L 3047 4666 
L 3047 1625 
L 3713 1625 
L 3713 1100 
L 3047 1100 
L 3047 0 
L 2419 0 
L 2419 1100 
L 313 1100 
L 313 1709 
L 2253 4666 
z
" transform="scale(0.015625)"/>
        <path id="DejaVuSans-30" d="M 2034 4250 
Q 1547 4250 1301 3770 
Q 1056 3291 1056 2328 
Q 1056 1369 1301 889 
Q 1547 409 2034 409 
Q 2525 409 2770 889 
Q 3016 1369 3016 2328 
Q 3016 3291 2770 3770 
Q 2525 4250 2034 4250 
z
M 2034 4750 
Q 2819 4750 3233 4129 
Q 3647 3509 3647 2328 
Q 3647 1150 3233 529 
Q 2819 -91 2034 -91 
Q 1250 -91 836 529 
Q 422 1150 422 2328 
Q 422 3509 836 4129 
Q 1250 4750 2034 4750 
z
" transform="scale(0.015625)"/>
       </defs>
       <use xlink:href="#DejaVuSans-34"/>
       <use xlink:href="#DejaVuSans-30" x="63.623047"/>
       <use xlink:href="#DejaVuSans-30" x="127.246094"/>
      </g>
     </g>
    </g>
    <g id="xtick_2">
     <g id="line2d_2">
      <g>
       <use xlink:href="#m627a30dfc8" x="236.332958" y="476.2" style="stroke: #000000; stroke-width: 1.5"/>
      </g>
     </g>
     <g id="text_2">
      <!-- 500 -->
      <g transform="translate(217.245458 498.396875) scale(0.2 -0.2)">
       <defs>
        <path id="DejaVuSans-35" d="M 691 4666 
L 3169 4666 
L 3169 4134 
L 1269 4134 
L 1269 2991 
Q 1406 3038 1543 3061 
Q 1681 3084 1819 3084 
Q 2600 3084 3056 2656 
Q 3513 2228 3513 1497 
Q 3513 744 3044 326 
Q 2575 -91 1722 -91 
Q 1428 -91 1123 -41 
Q 819 9 494 109 
L 494 744 
Q 775 591 1075 516 
Q 1375 441 1709 441 
Q 2250 441 2565 725 
Q 2881 1009 2881 1497 
Q 2881 1984 2565 2268 
Q 2250 2553 1709 2553 
Q 1456 2553 1204 2497 
Q 953 2441 691 2322 
L 691 4666 
z
" transform="scale(0.015625)"/>
       </defs>
       <use xlink:href="#DejaVuSans-35"/>
       <use xlink:href="#DejaVuSans-30" x="63.623047"/>
       <use xlink:href="#DejaVuSans-30" x="127.246094"/>
      </g>
     </g>
    </g>
    <g id="xtick_3">
     <g id="line2d_3">
      <g>
       <use xlink:href="#m627a30dfc8" x="332.441663" y="476.2" style="stroke: #000000; stroke-width: 1.5"/>
      </g>
     </g>
     <g id="text_3">
      <!-- 600 -->
      <g transform="translate(313.354163 498.396875) scale(0.2 -0.2)">
       <defs>
        <path id="DejaVuSans-36" d="M 2113 2584 
Q 1688 2584 1439 2293 
Q 1191 2003 1191 1497 
Q 1191 994 1439 701 
Q 1688 409 2113 409 
Q 2538 409 2786 701 
Q 3034 994 3034 1497 
Q 3034 2003 2786 2293 
Q 2538 2584 2113 2584 
z
M 3366 4563 
L 3366 3988 
Q 3128 4100 2886 4159 
Q 2644 4219 2406 4219 
Q 1781 4219 1451 3797 
Q 1122 3375 1075 2522 
Q 1259 2794 1537 2939 
Q 1816 3084 2150 3084 
Q 2853 3084 3261 2657 
Q 3669 2231 3669 1497 
Q 3669 778 3244 343 
Q 2819 -91 2113 -91 
Q 1303 -91 875 529 
Q 447 1150 447 2328 
Q 447 3434 972 4092 
Q 1497 4750 2381 4750 
Q 2619 4750 2861 4703 
Q 3103 4656 3366 4563 
z
" transform="scale(0.015625)"/>
       </defs>
       <use xlink:href="#DejaVuSans-36"/>
       <use xlink:href="#DejaVuSans-30" x="63.623047"/>
       <use xlink:href="#DejaVuSans-30" x="127.246094"/>
      </g>
     </g>
    </g>
    <g id="text_4">
     <!-- Apparent Resistivity [$\Omega m$] -->
     <g transform="translate(81.95625 532.75625) scale(0.2 -0.2)">
      <defs>
       <path id="DejaVuSans-Bold-41" d="M 3419 850 
L 1538 850 
L 1241 0 
L 31 0 
L 1759 4666 
L 3194 4666 
L 4922 0 
L 3713 0 
L 3419 850 
z
M 1838 1716 
L 3116 1716 
L 2478 3572 
L 1838 1716 
z
" transform="scale(0.015625)"/>
       <path id="DejaVuSans-Bold-70" d="M 1656 506 
L 1656 -1331 
L 538 -1331 
L 538 3500 
L 1656 3500 
L 1656 2988 
Q 1888 3294 2169 3439 
Q 2450 3584 2816 3584 
Q 3463 3584 3878 3070 
Q 4294 2556 4294 1747 
Q 4294 938 3878 423 
Q 3463 -91 2816 -91 
Q 2450 -91 2169 54 
Q 1888 200 1656 506 
z
M 2400 2772 
Q 2041 2772 1848 2508 
Q 1656 2244 1656 1747 
Q 1656 1250 1848 986 
Q 2041 722 2400 722 
Q 2759 722 2948 984 
Q 3138 1247 3138 1747 
Q 3138 2247 2948 2509 
Q 2759 2772 2400 2772 
z
" transform="scale(0.015625)"/>
       <path id="DejaVuSans-Bold-61" d="M 2106 1575 
Q 1756 1575 1579 1456 
Q 1403 1338 1403 1106 
Q 1403 894 1545 773 
Q 1688 653 1941 653 
Q 2256 653 2472 879 
Q 2688 1106 2688 1447 
L 2688 1575 
L 2106 1575 
z
M 3816 1997 
L 3816 0 
L 2688 0 
L 2688 519 
Q 2463 200 2181 54 
Q 1900 -91 1497 -91 
Q 953 -91 614 226 
Q 275 544 275 1050 
Q 275 1666 698 1953 
Q 1122 2241 2028 2241 
L 2688 2241 
L 2688 2328 
Q 2688 2594 2478 2717 
Q 2269 2841 1825 2841 
Q 1466 2841 1156 2769 
Q 847 2697 581 2553 
L 581 3406 
Q 941 3494 1303 3539 
Q 1666 3584 2028 3584 
Q 2975 3584 3395 3211 
Q 3816 2838 3816 1997 
z
" transform="scale(0.015625)"/>
       <path id="DejaVuSans-Bold-72" d="M 3138 2547 
Q 2991 2616 2845 2648 
Q 2700 2681 2553 2681 
Q 2122 2681 1889 2404 
Q 1656 2128 1656 1613 
L 1656 0 
L 538 0 
L 538 3500 
L 1656 3500 
L 1656 2925 
Q 1872 3269 2151 3426 
Q 2431 3584 2822 3584 
Q 2878 3584 2943 3579 
Q 3009 3575 3134 3559 
L 3138 2547 
z
" transform="scale(0.015625)"/>
       <path id="DejaVuSans-Bold-65" d="M 4031 1759 
L 4031 1441 
L 1416 1441 
Q 1456 1047 1700 850 
Q 1944 653 2381 653 
Q 2734 653 3104 758 
Q 3475 863 3866 1075 
L 3866 213 
Q 3469 63 3072 -14 
Q 2675 -91 2278 -91 
Q 1328 -91 801 392 
Q 275 875 275 1747 
Q 275 2603 792 3093 
Q 1309 3584 2216 3584 
Q 3041 3584 3536 3087 
Q 4031 2591 4031 1759 
z
M 2881 2131 
Q 2881 2450 2695 2645 
Q 2509 2841 2209 2841 
Q 1884 2841 1681 2658 
Q 1478 2475 1428 2131 
L 2881 2131 
z
" transform="scale(0.015625)"/>
       <path id="DejaVuSans-Bold-6e" d="M 4056 2131 
L 4056 0 
L 2931 0 
L 2931 347 
L 2931 1631 
Q 2931 2084 2911 2256 
Q 2891 2428 2841 2509 
Q 2775 2619 2662 2680 
Q 2550 2741 2406 2741 
Q 2056 2741 1856 2470 
Q 1656 2200 1656 1722 
L 1656 0 
L 538 0 
L 538 3500 
L 1656 3500 
L 1656 2988 
Q 1909 3294 2193 3439 
Q 2478 3584 2822 3584 
Q 3428 3584 3742 3212 
Q 4056 2841 4056 2131 
z
" transform="scale(0.015625)"/>
       <path id="DejaVuSans-Bold-74" d="M 1759 4494 
L 1759 3500 
L 2913 3500 
L 2913 2700 
L 1759 2700 
L 1759 1216 
Q 1759 972 1856 886 
Q 1953 800 2241 800 
L 2816 800 
L 2816 0 
L 1856 0 
Q 1194 0 917 276 
Q 641 553 641 1216 
L 641 2700 
L 84 2700 
L 84 3500 
L 641 3500 
L 641 4494 
L 1759 4494 
z
" transform="scale(0.015625)"/>
       <path id="DejaVuSans-Bold-20" transform="scale(0.015625)"/>
       <path id="DejaVuSans-Bold-52" d="M 2297 2597 
Q 2675 2597 2839 2737 
Q 3003 2878 3003 3200 
Q 3003 3519 2839 3656 
Q 2675 3794 2297 3794 
L 1791 3794 
L 1791 2597 
L 2297 2597 
z
M 1791 1766 
L 1791 0 
L 588 0 
L 588 4666 
L 2425 4666 
Q 3347 4666 3776 4356 
Q 4206 4047 4206 3378 
Q 4206 2916 3982 2619 
Q 3759 2322 3309 2181 
Q 3556 2125 3751 1926 
Q 3947 1728 4147 1325 
L 4800 0 
L 3519 0 
L 2950 1159 
Q 2778 1509 2601 1637 
Q 2425 1766 2131 1766 
L 1791 1766 
z
" transform="scale(0.015625)"/>
       <path id="DejaVuSans-Bold-73" d="M 3272 3391 
L 3272 2541 
Q 2913 2691 2578 2766 
Q 2244 2841 1947 2841 
Q 1628 2841 1473 2761 
Q 1319 2681 1319 2516 
Q 1319 2381 1436 2309 
Q 1553 2238 1856 2203 
L 2053 2175 
Q 2913 2066 3209 1816 
Q 3506 1566 3506 1031 
Q 3506 472 3093 190 
Q 2681 -91 1863 -91 
Q 1516 -91 1145 -36 
Q 775 19 384 128 
L 384 978 
Q 719 816 1070 734 
Q 1422 653 1784 653 
Q 2113 653 2278 743 
Q 2444 834 2444 1013 
Q 2444 1163 2330 1236 
Q 2216 1309 1875 1350 
L 1678 1375 
Q 931 1469 631 1722 
Q 331 1975 331 2491 
Q 331 3047 712 3315 
Q 1094 3584 1881 3584 
Q 2191 3584 2531 3537 
Q 2872 3491 3272 3391 
z
" transform="scale(0.015625)"/>
       <path id="DejaVuSans-Bold-69" d="M 538 3500 
L 1656 3500 
L 1656 0 
L 538 0 
L 538 3500 
z
M 538 4863 
L 1656 4863 
L 1656 3950 
L 538 3950 
L 538 4863 
z
" transform="scale(0.015625)"/>
       <path id="DejaVuSans-Bold-76" d="M 97 3500 
L 1216 3500 
L 2088 1081 
L 2956 3500 
L 4078 3500 
L 2700 0 
L 1472 0 
L 97 3500 
z
" transform="scale(0.015625)"/>
       <path id="DejaVuSans-Bold-79" d="M 78 3500 
L 1197 3500 
L 2138 1125 
L 2938 3500 
L 4056 3500 
L 2584 -331 
Q 2363 -916 2067 -1148 
Q 1772 -1381 1288 -1381 
L 641 -1381 
L 641 -647 
L 991 -647 
Q 1275 -647 1404 -556 
Q 1534 -466 1606 -231 
L 1638 -134 
L 78 3500 
z
" transform="scale(0.015625)"/>
       <path id="DejaVuSans-Bold-5b" d="M 550 4863 
L 2491 4863 
L 2491 4159 
L 1613 4159 
L 1613 -141 
L 2491 -141 
L 2491 -844 
L 550 -844 
L 550 4863 
z
" transform="scale(0.015625)"/>
       <path id="DejaVuSans-Bold-3a9" d="M 2719 4750 
Q 3841 4750 4480 4106 
Q 5119 3463 5119 2494 
Q 5119 1406 4306 909 
L 5266 909 
L 5266 0 
L 3125 0 
L 3125 975 
Q 3244 1041 3334 1131 
Q 3875 1678 3875 2466 
Q 3875 3066 3572 3472 
Q 3269 3878 2719 3878 
Q 2169 3878 1866 3472 
Q 1563 3066 1563 2466 
Q 1563 1678 2103 1131 
Q 2194 1041 2313 975 
L 2313 0 
L 172 0 
L 172 909 
L 1131 909 
Q 319 1406 319 2494 
Q 319 3463 958 4106 
Q 1597 4750 2719 4750 
z
" transform="scale(0.015625)"/>
       <path id="DejaVuSans-Bold-6d" d="M 3781 2919 
Q 3994 3244 4286 3414 
Q 4578 3584 4928 3584 
Q 5531 3584 5847 3212 
Q 6163 2841 6163 2131 
L 6163 0 
L 5038 0 
L 5038 1825 
Q 5041 1866 5042 1909 
Q 5044 1953 5044 2034 
Q 5044 2406 4934 2573 
Q 4825 2741 4581 2741 
Q 4263 2741 4089 2478 
Q 3916 2216 3909 1719 
L 3909 0 
L 2784 0 
L 2784 1825 
Q 2784 2406 2684 2573 
Q 2584 2741 2328 2741 
Q 2006 2741 1831 2477 
Q 1656 2213 1656 1722 
L 1656 0 
L 531 0 
L 531 3500 
L 1656 3500 
L 1656 2988 
Q 1863 3284 2130 3434 
Q 2397 3584 2719 3584 
Q 3081 3584 3359 3409 
Q 3638 3234 3781 2919 
z
" transform="scale(0.015625)"/>
       <path id="DejaVuSans-Bold-5d" d="M 2375 -844 
L 434 -844 
L 434 -141 
L 1313 -141 
L 1313 4159 
L 434 4159 
L 434 4863 
L 2375 4863 
L 2375 -844 
z
" transform="scale(0.015625)"/>
      </defs>
      <use xlink:href="#DejaVuSans-Bold-41" transform="translate(0 0.015625)"/>
      <use xlink:href="#DejaVuSans-Bold-70" transform="translate(77.392578 0.015625)"/>
      <use xlink:href="#DejaVuSans-Bold-70" transform="translate(148.974609 0.015625)"/>
      <use xlink:href="#DejaVuSans-Bold-61" transform="translate(220.556641 0.015625)"/>
      <use xlink:href="#DejaVuSans-Bold-72" transform="translate(288.037109 0.015625)"/>
      <use xlink:href="#DejaVuSans-Bold-65" transform="translate(337.353516 0.015625)"/>
      <use xlink:href="#DejaVuSans-Bold-6e" transform="translate(405.175781 0.015625)"/>
      <use xlink:href="#DejaVuSans-Bold-74" transform="translate(476.367188 0.015625)"/>
      <use xlink:href="#DejaVuSans-Bold-20" transform="translate(524.169922 0.015625)"/>
      <use xlink:href="#DejaVuSans-Bold-52" transform="translate(558.984375 0.015625)"/>
      <use xlink:href="#DejaVuSans-Bold-65" transform="translate(635.986328 0.015625)"/>
      <use xlink:href="#DejaVuSans-Bold-73" transform="translate(703.808594 0.015625)"/>
      <use xlink:href="#DejaVuSans-Bold-69" transform="translate(763.330078 0.015625)"/>
      <use xlink:href="#DejaVuSans-Bold-73" transform="translate(797.607422 0.015625)"/>
      <use xlink:href="#DejaVuSans-Bold-74" transform="translate(857.128906 0.015625)"/>
      <use xlink:href="#DejaVuSans-Bold-69" transform="translate(904.931641 0.015625)"/>
      <use xlink:href="#DejaVuSans-Bold-76" transform="translate(939.208984 0.015625)"/>
      <use xlink:href="#DejaVuSans-Bold-69" transform="translate(1004.394531 0.015625)"/>
      <use xlink:href="#DejaVuSans-Bold-74" transform="translate(1038.671875 0.015625)"/>
      <use xlink:href="#DejaVuSans-Bold-79" transform="translate(1086.474609 0.015625)"/>
      <use xlink:href="#DejaVuSans-Bold-20" transform="translate(1151.660156 0.015625)"/>
      <use xlink:href="#DejaVuSans-Bold-5b" transform="translate(1186.474609 0.015625)"/>
      <use xlink:href="#DejaVuSans-Bold-3a9" transform="translate(1232.177734 0.015625)"/>
      <use xlink:href="#DejaVuSans-Bold-6d" transform="translate(1317.1875 0.015625)"/>
      <use xlink:href="#DejaVuSans-Bold-5d" transform="translate(1421.386719 0.015625)"/>
     </g>
    </g>
   </g>
   <g id="matplotlib.axis_2">
    <g id="ytick_1">
     <g id="line2d_4">
      <defs>
       <path id="m64dcbe81ff" d="M 0 0 
L -3.5 0 
" style="stroke: #000000; stroke-width: 1.5"/>
      </defs>
      <g>
       <use xlink:href="#m64dcbe81ff" x="83.75625" y="199.733012" style="stroke: #000000; stroke-width: 1.5"/>
      </g>
     </g>
     <g id="text_5">
      <!-- $\mathdefault{10^{1}}$ -->
      <g transform="translate(41.55625 207.33145) scale(0.2 -0.2)">
       <defs>
        <path id="DejaVuSans-31" d="M 794 531 
L 1825 531 
L 1825 4091 
L 703 3866 
L 703 4441 
L 1819 4666 
L 2450 4666 
L 2450 531 
L 3481 531 
L 3481 0 
L 794 0 
L 794 531 
z
" transform="scale(0.015625)"/>
       </defs>
       <use xlink:href="#DejaVuSans-31" transform="translate(0 0.684375)"/>
       <use xlink:href="#DejaVuSans-30" transform="translate(63.623047 0.684375)"/>
       <use xlink:href="#DejaVuSans-31" transform="translate(128.203125 38.965625) scale(0.7)"/>
      </g>
     </g>
    </g>
    <g id="ytick_2">
     <g id="line2d_5">
      <g>
       <use xlink:href="#m64dcbe81ff" x="83.75625" y="445.336364" style="stroke: #000000; stroke-width: 1.5"/>
      </g>
     </g>
     <g id="text_6">
      <!-- $\mathdefault{10^{2}}$ -->
      <g transform="translate(41.55625 452.934801) scale(0.2 -0.2)">
       <defs>
        <path id="DejaVuSans-32" d="M 1228 531 
L 3431 531 
L 3431 0 
L 469 0 
L 469 531 
Q 828 903 1448 1529 
Q 2069 2156 2228 2338 
Q 2531 2678 2651 2914 
Q 2772 3150 2772 3378 
Q 2772 3750 2511 3984 
Q 2250 4219 1831 4219 
Q 1534 4219 1204 4116 
Q 875 4013 500 3803 
L 500 4441 
Q 881 4594 1212 4672 
Q 1544 4750 1819 4750 
Q 2544 4750 2975 4387 
Q 3406 4025 3406 3419 
Q 3406 3131 3298 2873 
Q 3191 2616 2906 2266 
Q 2828 2175 2409 1742 
Q 1991 1309 1228 531 
z
" transform="scale(0.015625)"/>
       </defs>
       <use xlink:href="#DejaVuSans-31" transform="translate(0 0.765625)"/>
       <use xlink:href="#DejaVuSans-30" transform="translate(63.623047 0.765625)"/>
       <use xlink:href="#DejaVuSans-32" transform="translate(128.203125 39.046875) scale(0.7)"/>
      </g>
     </g>
    </g>
    <g id="ytick_3">
     <g id="line2d_6">
      <defs>
       <path id="m9af074ec17" d="M 0 0 
L -2 0 
" style="stroke: #000000; stroke-width: 1.5"/>
      </defs>
      <g>
       <use xlink:href="#m9af074ec17" x="83.75625" y="28.063636" style="stroke: #000000; stroke-width: 1.5"/>
      </g>
     </g>
    </g>
    <g id="ytick_4">
     <g id="line2d_7">
      <g>
       <use xlink:href="#m9af074ec17" x="83.75625" y="71.31224" style="stroke: #000000; stroke-width: 1.5"/>
      </g>
     </g>
    </g>
    <g id="ytick_5">
     <g id="line2d_8">
      <g>
       <use xlink:href="#m9af074ec17" x="83.75625" y="101.997612" style="stroke: #000000; stroke-width: 1.5"/>
      </g>
     </g>
    </g>
    <g id="ytick_6">
     <g id="line2d_9">
      <g>
       <use xlink:href="#m9af074ec17" x="83.75625" y="125.799036" style="stroke: #000000; stroke-width: 1.5"/>
      </g>
     </g>
    </g>
    <g id="ytick_7">
     <g id="line2d_10">
      <g>
       <use xlink:href="#m9af074ec17" x="83.75625" y="145.246216" style="stroke: #000000; stroke-width: 1.5"/>
      </g>
     </g>
    </g>
    <g id="ytick_8">
     <g id="line2d_11">
      <g>
       <use xlink:href="#m9af074ec17" x="83.75625" y="161.688572" style="stroke: #000000; stroke-width: 1.5"/>
      </g>
     </g>
    </g>
    <g id="ytick_9">
     <g id="line2d_12">
      <g>
       <use xlink:href="#m9af074ec17" x="83.75625" y="175.931588" style="stroke: #000000; stroke-width: 1.5"/>
      </g>
     </g>
    </g>
    <g id="ytick_10">
     <g id="line2d_13">
      <g>
       <use xlink:href="#m9af074ec17" x="83.75625" y="188.494819" style="stroke: #000000; stroke-width: 1.5"/>
      </g>
     </g>
    </g>
    <g id="ytick_11">
     <g id="line2d_14">
      <g>
       <use xlink:href="#m9af074ec17" x="83.75625" y="273.666988" style="stroke: #000000; stroke-width: 1.5"/>
      </g>
     </g>
    </g>
    <g id="ytick_12">
     <g id="line2d_15">
      <g>
       <use xlink:href="#m9af074ec17" x="83.75625" y="316.915591" style="stroke: #000000; stroke-width: 1.5"/>
      </g>
     </g>
    </g>
    <g id="ytick_13">
     <g id="line2d_16">
      <g>
       <use xlink:href="#m9af074ec17" x="83.75625" y="347.600964" style="stroke: #000000; stroke-width: 1.5"/>
      </g>
     </g>
    </g>
    <g id="ytick_14">
     <g id="line2d_17">
      <g>
       <use xlink:href="#m9af074ec17" x="83.75625" y="371.402388" style="stroke: #000000; stroke-width: 1.5"/>
      </g>
     </g>
    </g>
    <g id="ytick_15">
     <g id="line2d_18">
      <g>
       <use xlink:href="#m9af074ec17" x="83.75625" y="390.849567" style="stroke: #000000; stroke-width: 1.5"/>
      </g>
     </g>
    </g>
    <g id="ytick_16">
     <g id="line2d_19">
      <g>
       <use xlink:href="#m9af074ec17" x="83.75625" y="407.291923" style="stroke: #000000; stroke-width: 1.5"/>
      </g>
     </g>
    </g>
    <g id="ytick_17">
     <g id="line2d_20">
      <g>
       <use xlink:href="#m9af074ec17" x="83.75625" y="421.53494" style="stroke: #000000; stroke-width: 1.5"/>
      </g>
     </g>
    </g>
    <g id="ytick_18">
     <g id="line2d_21">
      <g>
       <use xlink:href="#m9af074ec17" x="83.75625" y="434.098171" style="stroke: #000000; stroke-width: 1.5"/>
      </g>
     </g>
    </g>
    <g id="text_7">
     <!-- AB/2 [m] -->
     <g transform="translate(22.396875 285.714062) rotate(-90) scale(0.2 -0.2)">
      <defs>
       <path id="DejaVuSans-Bold-42" d="M 2456 2859 
Q 2741 2859 2887 2984 
Q 3034 3109 3034 3353 
Q 3034 3594 2887 3720 
Q 2741 3847 2456 3847 
L 1791 3847 
L 1791 2859 
L 2456 2859 
z
M 2497 819 
Q 2859 819 3042 972 
Q 3225 1125 3225 1434 
Q 3225 1738 3044 1889 
Q 2863 2041 2497 2041 
L 1791 2041 
L 1791 819 
L 2497 819 
z
M 3616 2497 
Q 4003 2384 4215 2081 
Q 4428 1778 4428 1338 
Q 4428 663 3972 331 
Q 3516 0 2584 0 
L 588 0 
L 588 4666 
L 2394 4666 
Q 3366 4666 3802 4372 
Q 4238 4078 4238 3431 
Q 4238 3091 4078 2852 
Q 3919 2613 3616 2497 
z
" transform="scale(0.015625)"/>
       <path id="DejaVuSans-Bold-2f" d="M 1644 4666 
L 2338 4666 
L 691 -594 
L 0 -594 
L 1644 4666 
z
" transform="scale(0.015625)"/>
       <path id="DejaVuSans-Bold-32" d="M 1844 884 
L 3897 884 
L 3897 0 
L 506 0 
L 506 884 
L 2209 2388 
Q 2438 2594 2547 2791 
Q 2656 2988 2656 3200 
Q 2656 3528 2436 3728 
Q 2216 3928 1850 3928 
Q 1569 3928 1234 3808 
Q 900 3688 519 3450 
L 519 4475 
Q 925 4609 1322 4679 
Q 1719 4750 2100 4750 
Q 2938 4750 3402 4381 
Q 3866 4013 3866 3353 
Q 3866 2972 3669 2642 
Q 3472 2313 2841 1759 
L 1844 884 
z
" transform="scale(0.015625)"/>
      </defs>
      <use xlink:href="#DejaVuSans-Bold-41"/>
      <use xlink:href="#DejaVuSans-Bold-42" x="77.392578"/>
      <use xlink:href="#DejaVuSans-Bold-2f" x="153.613281"/>
      <use xlink:href="#DejaVuSans-Bold-32" x="190.136719"/>
      <use xlink:href="#DejaVuSans-Bold-20" x="259.716797"/>
      <use xlink:href="#DejaVuSans-Bold-5b" x="294.53125"/>
      <use xlink:href="#DejaVuSans-Bold-6d" x="340.234375"/>
      <use xlink:href="#DejaVuSans-Bold-5d" x="444.433594"/>
     </g>
    </g>
   </g>
   <g id="line2d_22">
    <path d="M 245.926156 28.063636 
L 257.527388 47.030579 
L 258.50253 65.997521 
L 271.424366 84.964463 
L 274.53261 103.931405 
L 286.454185 122.898347 
L 294.492532 141.865289 
L 305.078369 160.832231 
L 314.350888 179.799174 
L 332.881172 198.766116 
L 342.076391 217.733058 
L 343.293219 236.7 
L 341.496095 255.666942 
L 331.685393 274.633884 
L 310.261605 293.600826 
L 289.17839 312.567769 
L 266.269282 331.534711 
L 245.049244 350.501653 
L 220.111749 369.468595 
L 196.133158 388.435537 
L 179.602091 407.402479 
L 169.079546 426.369421 
L 151.308515 445.336364 
" clip-path="url(#p2dca252032)" style="fill: none; stroke: #756bb1; stroke-opacity: 0.2; stroke-width: 2; stroke-linecap: square"/>
   </g>
   <g id="line2d_23">
    <path d="M 244.091883 28.063636 
L 254.987088 47.030579 
L 264.962427 65.997521 
L 268.394134 84.964463 
L 274.353506 103.931405 
L 283.510089 122.898347 
L 293.481327 141.865289 
L 299.740029 160.832231 
L 316.291636 179.799174 
L 324.883675 198.766116 
L 331.116703 217.733058 
L 332.720543 236.7 
L 324.600326 255.666942 
L 317.693947 274.633884 
L 308.644132 293.600826 
L 281.176313 312.567769 
L 254.221164 331.534711 
L 227.856592 350.501653 
L 207.324113 369.468595 
L 178.413187 388.435537 
L 168.27071 407.402479 
L 150.972315 426.369421 
L 141.282515 445.336364 
" clip-path="url(#p2dca252032)" style="fill: none; stroke: #756bb1; stroke-opacity: 0.2; stroke-width: 2; stroke-linecap: square"/>
   </g>
   <g id="line2d_24">
    <path d="M 247.320546 28.063636 
L 254.532508 47.030579 
L 264.311774 65.997521 
L 267.669831 84.964463 
L 284.689473 103.931405 
L 287.028752 122.898347 
L 296.759888 141.865289 
L 308.375346 160.832231 
L 312.050559 179.799174 
L 318.151401 198.766116 
L 327.43149 217.733058 
L 323.870654 236.7 
L 326.56583 255.666942 
L 316.374492 274.633884 
L 301.428019 293.600826 
L 288.096727 312.567769 
L 266.70288 331.534711 
L 235.613314 350.501653 
L 212.778326 369.468595 
L 194.856088 388.435537 
L 181.924088 407.402479 
L 159.332463 426.369421 
L 145.818821 445.336364 
" clip-path="url(#p2dca252032)" style="fill: none; stroke: #756bb1; stroke-opacity: 0.2; stroke-width: 2; stroke-linecap: square"/>
   </g>
   <g id="line2d_25">
    <path d="M 253.34835 28.063636 
L 257.978617 47.030579 
L 263.006538 65.997521 
L 273.180317 84.964463 
L 281.149264 103.931405 
L 286.17241 122.898347 
L 300.019628 141.865289 
L 302.578903 160.832231 
L 315.53564 179.799174 
L 329.891651 198.766116 
L 334.549186 217.733058 
L 341.497232 236.7 
L 336.233978 255.666942 
L 336.53203 274.633884 
L 325.805337 293.600826 
L 313.89798 312.567769 
L 293.633134 331.534711 
L 268.024971 350.501653 
L 244.312665 369.468595 
L 218.5576 388.435537 
L 200.709652 407.402479 
L 174.992888 426.369421 
L 163.333469 445.336364 
" clip-path="url(#p2dca252032)" style="fill: none; stroke: #756bb1; stroke-opacity: 0.2; stroke-width: 2; stroke-linecap: square"/>
   </g>
   <g id="line2d_26">
    <path d="M 245.10733 28.063636 
L 258.849465 47.030579 
L 264.912382 65.997521 
L 271.800299 84.964463 
L 270.909751 103.931405 
L 285.282791 122.898347 
L 290.161568 141.865289 
L 300.5361 160.832231 
L 309.925633 179.799174 
L 317.261371 198.766116 
L 331.57964 217.733058 
L 327.186191 236.7 
L 329.027692 255.666942 
L 325.244344 274.633884 
L 322.890063 293.600826 
L 307.18573 312.567769 
L 287.578517 331.534711 
L 268.863405 350.501653 
L 245.113737 369.468595 
L 223.932025 388.435537 
L 194.668989 407.402479 
L 177.718919 426.369421 
L 160.142425 445.336364 
" clip-path="url(#p2dca252032)" style="fill: none; stroke: #756bb1; stroke-opacity: 0.2; stroke-width: 2; stroke-linecap: square"/>
   </g>
   <g id="line2d_27">
    <path d="M 248.362985 28.063636 
L 256.093233 47.030579 
L 265.367333 65.997521 
L 268.280601 84.964463 
L 280.28076 103.931405 
L 282.41612 122.898347 
L 292.960054 141.865289 
L 305.711431 160.832231 
L 309.141707 179.799174 
L 320.685395 198.766116 
L 327.387115 217.733058 
L 338.360209 236.7 
L 338.815988 255.666942 
L 327.914614 274.633884 
L 317.28136 293.600826 
L 306.147787 312.567769 
L 288.756932 331.534711 
L 256.644197 350.501653 
L 239.425964 369.468595 
L 212.826926 388.435537 
L 194.619499 407.402479 
L 174.388927 426.369421 
L 162.333116 445.336364 
" clip-path="url(#p2dca252032)" style="fill: none; stroke: #756bb1; stroke-opacity: 0.2; stroke-width: 2; stroke-linecap: square"/>
   </g>
   <g id="line2d_28">
    <path d="M 248.978102 28.063636 
L 259.054859 47.030579 
L 266.384135 65.997521 
L 269.372046 84.964463 
L 273.28864 103.931405 
L 283.774167 122.898347 
L 296.225189 141.865289 
L 304.527214 160.832231 
L 306.344895 179.799174 
L 311.84589 198.766116 
L 317.396947 217.733058 
L 323.021467 236.7 
L 325.370528 255.666942 
L 315.752768 274.633884 
L 310.652506 293.600826 
L 291.145131 312.567769 
L 266.712812 331.534711 
L 236.53931 350.501653 
L 204.524953 369.468595 
L 181.773902 388.435537 
L 160.003631 407.402479 
L 143.791754 426.369421 
L 139.658768 445.336364 
" clip-path="url(#p2dca252032)" style="fill: none; stroke: #756bb1; stroke-opacity: 0.2; stroke-width: 2; stroke-linecap: square"/>
   </g>
   <g id="line2d_29">
    <path d="M 249.533958 28.063636 
L 250.712684 47.030579 
L 256.62234 65.997521 
L 265.553628 84.964463 
L 277.613145 103.931405 
L 290.308478 122.898347 
L 293.605507 141.865289 
L 305.004837 160.832231 
L 319.880115 179.799174 
L 326.722779 198.766116 
L 333.219317 217.733058 
L 346.257024 236.7 
L 351.483523 255.666942 
L 344.054564 274.633884 
L 342.724872 293.600826 
L 326.748742 312.567769 
L 315.613742 331.534711 
L 293.234997 350.501653 
L 264.558495 369.468595 
L 240.501362 388.435537 
L 210.074305 407.402479 
L 190.227816 426.369421 
L 169.353816 445.336364 
" clip-path="url(#p2dca252032)" style="fill: none; stroke: #756bb1; stroke-opacity: 0.2; stroke-width: 2; stroke-linecap: square"/>
   </g>
   <g id="line2d_30">
    <path d="M 244.704285 28.063636 
L 257.366364 47.030579 
L 268.319522 65.997521 
L 274.83662 84.964463 
L 283.367473 103.931405 
L 284.032716 122.898347 
L 299.584119 141.865289 
L 307.583707 160.832231 
L 312.49864 179.799174 
L 320.764572 198.766116 
L 325.757992 217.733058 
L 338.477385 236.7 
L 341.893809 255.666942 
L 336.380511 274.633884 
L 336.183892 293.600826 
L 321.127121 312.567769 
L 303.788603 331.534711 
L 274.066968 350.501653 
L 251.467096 369.468595 
L 228.351594 388.435537 
L 199.812213 407.402479 
L 184.220893 426.369421 
L 163.57898 445.336364 
" clip-path="url(#p2dca252032)" style="fill: none; stroke: #756bb1; stroke-opacity: 0.2; stroke-width: 2; stroke-linecap: square"/>
   </g>
   <g id="line2d_31">
    <path d="M 251.012188 28.063636 
L 257.407529 47.030579 
L 261.634208 65.997521 
L 267.382703 84.964463 
L 276.057249 103.931405 
L 281.272378 122.898347 
L 289.751436 141.865289 
L 300.8383 160.832231 
L 306.46376 179.799174 
L 317.549284 198.766116 
L 324.384333 217.733058 
L 328.398205 236.7 
L 337.165396 255.666942 
L 327.656173 274.633884 
L 321.629765 293.600826 
L 314.636391 312.567769 
L 294.836185 331.534711 
L 282.61972 350.501653 
L 258.660962 369.468595 
L 233.050132 388.435537 
L 207.951848 407.402479 
L 184.002239 426.369421 
L 158.830226 445.336364 
" clip-path="url(#p2dca252032)" style="fill: none; stroke: #756bb1; stroke-opacity: 0.2; stroke-width: 2; stroke-linecap: square"/>
   </g>
   <g id="line2d_32">
    <path d="M 255.262329 28.063636 
L 254.971792 47.030579 
L 268.45318 65.997521 
L 270.298216 84.964463 
L 280.150337 103.931405 
L 289.326005 122.898347 
L 301.971984 141.865289 
L 310.977841 160.832231 
L 315.485153 179.799174 
L 323.352345 198.766116 
L 336.25254 217.733058 
L 337.285781 236.7 
L 338.81312 255.666942 
L 338.784456 274.633884 
L 322.362684 293.600826 
L 306.169921 312.567769 
L 291.829239 331.534711 
L 269.141821 350.501653 
L 248.28523 369.468595 
L 223.659222 388.435537 
L 194.052107 407.402479 
L 176.530007 426.369421 
L 165.911626 445.336364 
" clip-path="url(#p2dca252032)" style="fill: none; stroke: #756bb1; stroke-opacity: 0.2; stroke-width: 2; stroke-linecap: square"/>
   </g>
   <g id="line2d_33">
    <path d="M 241.921696 28.063636 
L 255.149017 47.030579 
L 260.53374 65.997521 
L 263.627862 84.964463 
L 275.038639 103.931405 
L 282.32166 122.898347 
L 297.656748 141.865289 
L 306.629214 160.832231 
L 309.018229 179.799174 
L 318.521718 198.766116 
L 331.12526 217.733058 
L 330.066766 236.7 
L 328.799369 255.666942 
L 332.306732 274.633884 
L 323.072312 293.600826 
L 302.46651 312.567769 
L 280.765193 331.534711 
L 259.978101 350.501653 
L 237.720558 369.468595 
L 217.563336 388.435537 
L 190.708008 407.402479 
L 178.777915 426.369421 
L 170.709057 445.336364 
" clip-path="url(#p2dca252032)" style="fill: none; stroke: #756bb1; stroke-opacity: 0.2; stroke-width: 2; stroke-linecap: square"/>
   </g>
   <g id="line2d_34">
    <path d="M 248.390729 28.063636 
L 254.582209 47.030579 
L 259.373315 65.997521 
L 267.674358 84.964463 
L 277.684464 103.931405 
L 280.849738 122.898347 
L 289.00444 141.865289 
L 300.832395 160.832231 
L 315.472286 179.799174 
L 328.04654 198.766116 
L 333.883155 217.733058 
L 336.214637 236.7 
L 333.694049 255.666942 
L 324.884426 274.633884 
L 316.410528 293.600826 
L 297.894791 312.567769 
L 282.676109 331.534711 
L 265.406635 350.501653 
L 244.101719 369.468595 
L 216.244442 388.435537 
L 199.7821 407.402479 
L 180.027151 426.369421 
L 170.488921 445.336364 
" clip-path="url(#p2dca252032)" style="fill: none; stroke: #756bb1; stroke-opacity: 0.2; stroke-width: 2; stroke-linecap: square"/>
   </g>
   <g id="line2d_35">
    <path d="M 246.600157 28.063636 
L 257.573805 47.030579 
L 267.141422 65.997521 
L 273.635763 84.964463 
L 275.811617 103.931405 
L 287.347154 122.898347 
L 294.422825 141.865289 
L 308.167783 160.832231 
L 321.605003 179.799174 
L 330.070088 198.766116 
L 343.01507 217.733058 
L 346.903713 236.7 
L 341.210265 255.666942 
L 339.232095 274.633884 
L 321.397658 293.600826 
L 308.921081 312.567769 
L 280.52708 331.534711 
L 254.934782 350.501653 
L 233.293268 369.468595 
L 211.022244 388.435537 
L 184.567685 407.402479 
L 173.044233 426.369421 
L 156.53378 445.336364 
" clip-path="url(#p2dca252032)" style="fill: none; stroke: #756bb1; stroke-opacity: 0.2; stroke-width: 2; stroke-linecap: square"/>
   </g>
   <g id="line2d_36">
    <path d="M 249.810393 28.063636 
L 260.169819 47.030579 
L 263.382322 65.997521 
L 263.510969 84.964463 
L 271.711069 103.931405 
L 285.675045 122.898347 
L 290.376578 141.865289 
L 305.006833 160.832231 
L 310.470217 179.799174 
L 325.19015 198.766116 
L 328.000145 217.733058 
L 335.024936 236.7 
L 330.887681 255.666942 
L 325.588206 274.633884 
L 319.916236 293.600826 
L 305.820907 312.567769 
L 294.651128 331.534711 
L 268.704209 350.501653 
L 246.240736 369.468595 
L 227.719646 388.435537 
L 204.644559 407.402479 
L 184.360395 426.369421 
L 171.468869 445.336364 
" clip-path="url(#p2dca252032)" style="fill: none; stroke: #756bb1; stroke-opacity: 0.2; stroke-width: 2; stroke-linecap: square"/>
   </g>
   <g id="line2d_37">
    <path d="M 247.055391 28.063636 
L 255.478453 47.030579 
L 263.872749 65.997521 
L 276.435323 84.964463 
L 279.573401 103.931405 
L 290.941178 122.898347 
L 299.235707 141.865289 
L 305.79025 160.832231 
L 317.661555 179.799174 
L 328.512702 198.766116 
L 333.044443 217.733058 
L 331.54367 236.7 
L 326.024222 255.666942 
L 311.373344 274.633884 
L 298.386113 293.600826 
L 273.043095 312.567769 
L 238.008316 331.534711 
L 203.409873 350.501653 
L 167.592985 369.468595 
L 142.038857 388.435537 
L 119.398391 407.402479 
L 110.722177 426.369421 
L 106.028977 445.336364 
" clip-path="url(#p2dca252032)" style="fill: none; stroke: #756bb1; stroke-opacity: 0.2; stroke-width: 2; stroke-linecap: square"/>
   </g>
   <g id="line2d_38">
    <path d="M 248.506018 28.063636 
L 253.156411 47.030579 
L 262.54892 65.997521 
L 268.567681 84.964463 
L 277.602631 103.931405 
L 281.406293 122.898347 
L 287.979239 141.865289 
L 293.322717 160.832231 
L 302.822735 179.799174 
L 306.113999 198.766116 
L 308.772413 217.733058 
L 307.719175 236.7 
L 292.111114 255.666942 
L 284.847843 274.633884 
L 268.124059 293.600826 
L 254.095999 312.567769 
L 237.740199 331.534711 
L 224.539035 350.501653 
L 205.241198 369.468595 
L 194.002624 388.435537 
L 183.800771 407.402479 
L 163.11727 426.369421 
L 151.820652 445.336364 
" clip-path="url(#p2dca252032)" style="fill: none; stroke: #756bb1; stroke-opacity: 0.2; stroke-width: 2; stroke-linecap: square"/>
   </g>
   <g id="line2d_39">
    <path d="M 239.801259 28.063636 
L 255.492178 47.030579 
L 258.464549 65.997521 
L 264.867834 84.964463 
L 270.751635 103.931405 
L 280.873145 122.898347 
L 290.365979 141.865289 
L 298.22718 160.832231 
L 311.86641 179.799174 
L 311.971822 198.766116 
L 324.169521 217.733058 
L 319.922657 236.7 
L 319.777465 255.666942 
L 317.969076 274.633884 
L 300.262881 293.600826 
L 286.11645 312.567769 
L 255.062964 331.534711 
L 236.390832 350.501653 
L 210.015459 369.468595 
L 192.92472 388.435537 
L 168.561828 407.402479 
L 161.714111 426.369421 
L 147.479208 445.336364 
" clip-path="url(#p2dca252032)" style="fill: none; stroke: #756bb1; stroke-opacity: 0.2; stroke-width: 2; stroke-linecap: square"/>
   </g>
   <g id="line2d_40">
    <path d="M 252.669045 28.063636 
L 254.633632 47.030579 
L 262.935991 65.997521 
L 261.549696 84.964463 
L 274.056203 103.931405 
L 280.601353 122.898347 
L 291.388227 141.865289 
L 302.118813 160.832231 
L 307.56801 179.799174 
L 314.729965 198.766116 
L 316.403194 217.733058 
L 314.117706 236.7 
L 318.02059 255.666942 
L 305.393 274.633884 
L 291.534466 293.600826 
L 270.292735 312.567769 
L 252.151797 331.534711 
L 234.12101 350.501653 
L 209.184866 369.468595 
L 186.326704 388.435537 
L 168.688758 407.402479 
L 159.652028 426.369421 
L 141.955615 445.336364 
" clip-path="url(#p2dca252032)" style="fill: none; stroke: #756bb1; stroke-opacity: 0.2; stroke-width: 2; stroke-linecap: square"/>
   </g>
   <g id="line2d_41">
    <path d="M 254.991608 28.063636 
L 253.614771 47.030579 
L 260.583992 65.997521 
L 268.302753 84.964463 
L 270.387957 103.931405 
L 287.091774 122.898347 
L 294.481933 141.865289 
L 303.807263 160.832231 
L 306.035908 179.799174 
L 310.248918 198.766116 
L 318.880493 217.733058 
L 328.85062 236.7 
L 328.886847 255.666942 
L 326.201687 274.633884 
L 313.268245 293.600826 
L 308.591891 312.567769 
L 288.552572 331.534711 
L 268.933413 350.501653 
L 249.502283 369.468595 
L 219.039022 388.435537 
L 204.930426 407.402479 
L 187.123944 426.369421 
L 166.421552 445.336364 
" clip-path="url(#p2dca252032)" style="fill: none; stroke: #756bb1; stroke-opacity: 0.2; stroke-width: 2; stroke-linecap: square"/>
   </g>
   <g id="line2d_42">
    <path d="M 247.264739 28.063636 
L 252.75454 47.030579 
L 257.821764 65.997521 
L 265.035808 84.964463 
L 271.30086 103.931405 
L 277.987048 122.898347 
L 288.214112 141.865289 
L 302.525371 160.832231 
L 310.263268 179.799174 
L 317.917451 198.766116 
L 328.344524 217.733058 
L 333.806974 236.7 
L 338.967264 255.666942 
L 326.44335 274.633884 
L 323.057013 293.600826 
L 302.075531 312.567769 
L 278.140958 331.534711 
L 252.369336 350.501653 
L 230.919635 369.468595 
L 207.330709 388.435537 
L 184.048935 407.402479 
L 174.52661 426.369421 
L 156.377623 445.336364 
" clip-path="url(#p2dca252032)" style="fill: none; stroke: #756bb1; stroke-opacity: 0.2; stroke-width: 2; stroke-linecap: square"/>
   </g>
   <g id="line2d_43">
    <path d="M 256.228937 28.063636 
L 257.521228 47.030579 
L 260.649396 65.997521 
L 271.384813 84.964463 
L 279.279448 103.931405 
L 290.377413 122.898347 
L 294.763997 141.865289 
L 301.770277 160.832231 
L 316.202167 179.799174 
L 320.885684 198.766116 
L 326.976589 217.733058 
L 329.407848 236.7 
L 331.116814 255.666942 
L 318.029773 274.633884 
L 307.832941 293.600826 
L 280.659927 312.567769 
L 260.783565 331.534711 
L 232.112563 350.501653 
L 199.535977 369.468595 
L 184.417508 388.435537 
L 163.852223 407.402479 
L 158.699608 426.369421 
L 145.893253 445.336364 
" clip-path="url(#p2dca252032)" style="fill: none; stroke: #756bb1; stroke-opacity: 0.2; stroke-width: 2; stroke-linecap: square"/>
   </g>
   <g id="line2d_44">
    <path d="M 245.811015 28.063636 
L 251.577925 47.030579 
L 264.385571 65.997521 
L 263.057159 84.964463 
L 270.499677 103.931405 
L 280.204277 122.898347 
L 290.594248 141.865289 
L 297.603438 160.832231 
L 314.996597 179.799174 
L 320.121967 198.766116 
L 326.51193 217.733058 
L 334.09415 236.7 
L 328.922492 255.666942 
L 325.343844 274.633884 
L 313.924484 293.600826 
L 291.265957 312.567769 
L 268.699967 331.534711 
L 249.744242 350.501653 
L 220.035319 369.468595 
L 202.470002 388.435537 
L 179.034206 407.402479 
L 167.952774 426.369421 
L 148.767454 445.336364 
" clip-path="url(#p2dca252032)" style="fill: none; stroke: #756bb1; stroke-opacity: 0.2; stroke-width: 2; stroke-linecap: square"/>
   </g>
   <g id="line2d_45">
    <path d="M 249.417258 28.063636 
L 254.63549 47.030579 
L 267.526164 65.997521 
L 273.080784 84.964463 
L 278.464222 103.931405 
L 282.903359 122.898347 
L 295.129083 141.865289 
L 298.010724 160.832231 
L 308.37317 179.799174 
L 311.402746 198.766116 
L 312.944525 217.733058 
L 309.951959 236.7 
L 311.607059 255.666942 
L 301.760111 274.633884 
L 278.933602 293.600826 
L 263.042927 312.567769 
L 236.515843 331.534711 
L 215.132353 350.501653 
L 199.011198 369.468595 
L 177.869897 388.435537 
L 169.727589 407.402479 
L 151.883022 426.369421 
L 141.63774 445.336364 
" clip-path="url(#p2dca252032)" style="fill: none; stroke: #756bb1; stroke-opacity: 0.2; stroke-width: 2; stroke-linecap: square"/>
   </g>
   <g id="line2d_46">
    <path d="M 247.495596 28.063636 
L 251.885984 47.030579 
L 257.111964 65.997521 
L 270.616598 84.964463 
L 280.248948 103.931405 
L 286.966036 122.898347 
L 299.578939 141.865289 
L 307.956079 160.832231 
L 313.892947 179.799174 
L 327.441013 198.766116 
L 327.845241 217.733058 
L 336.409962 236.7 
L 330.276874 255.666942 
L 321.026837 274.633884 
L 306.592866 293.600826 
L 287.630778 312.567769 
L 268.513402 331.534711 
L 241.269011 350.501653 
L 217.113415 369.468595 
L 193.944682 388.435537 
L 167.176949 407.402479 
L 161.698561 426.369421 
L 146.180244 445.336364 
" clip-path="url(#p2dca252032)" style="fill: none; stroke: #756bb1; stroke-opacity: 0.2; stroke-width: 2; stroke-linecap: square"/>
   </g>
   <g id="line2d_47">
    <path d="M 249.070512 28.063636 
L 248.206526 47.030579 
L 258.523914 65.997521 
L 264.388321 84.964463 
L 274.931924 103.931405 
L 286.304928 122.898347 
L 290.906344 141.865289 
L 292.126908 160.832231 
L 299.22545 179.799174 
L 302.851917 198.766116 
L 303.597094 217.733058 
L 305.502014 236.7 
L 306.728183 255.666942 
L 304.035173 274.633884 
L 290.168874 293.600826 
L 277.387015 312.567769 
L 259.976775 331.534711 
L 241.762525 350.501653 
L 221.065705 369.468595 
L 196.360836 388.435537 
L 175.369778 407.402479 
L 159.787031 426.369421 
L 152.775827 445.336364 
" clip-path="url(#p2dca252032)" style="fill: none; stroke: #756bb1; stroke-opacity: 0.2; stroke-width: 2; stroke-linecap: square"/>
   </g>
   <g id="line2d_48">
    <path d="M 252.786524 28.063636 
L 256.343894 47.030579 
L 256.964626 65.997521 
L 263.461162 84.964463 
L 272.162134 103.931405 
L 280.049213 122.898347 
L 293.15102 141.865289 
L 303.990254 160.832231 
L 314.182769 179.799174 
L 321.027216 198.766116 
L 325.472522 217.733058 
L 338.989764 236.7 
L 333.449937 255.666942 
L 333.523699 274.633884 
L 319.891783 293.600826 
L 312.874106 312.567769 
L 290.562353 331.534711 
L 266.190063 350.501653 
L 248.394622 369.468595 
L 222.698455 388.435537 
L 202.676644 407.402479 
L 184.82144 426.369421 
L 177.741 445.336364 
" clip-path="url(#p2dca252032)" style="fill: none; stroke: #756bb1; stroke-opacity: 0.2; stroke-width: 2; stroke-linecap: square"/>
   </g>
   <g id="line2d_49">
    <path d="M 254.106691 28.063636 
L 250.632974 47.030579 
L 258.314903 65.997521 
L 272.458689 84.964463 
L 278.963938 103.931405 
L 290.134982 122.898347 
L 301.245592 141.865289 
L 305.713709 160.832231 
L 315.525393 179.799174 
L 327.471948 198.766116 
L 336.77817 217.733058 
L 342.863271 236.7 
L 342.295052 255.666942 
L 337.031724 274.633884 
L 325.023005 293.600826 
L 308.419268 312.567769 
L 284.618656 331.534711 
L 260.19969 350.501653 
L 230.650322 369.468595 
L 208.674843 388.435537 
L 180.775388 407.402479 
L 169.955642 426.369421 
L 151.398319 445.336364 
" clip-path="url(#p2dca252032)" style="fill: none; stroke: #756bb1; stroke-opacity: 0.2; stroke-width: 2; stroke-linecap: square"/>
   </g>
   <g id="line2d_50">
    <path d="M 246.534312 28.063636 
L 258.185921 47.030579 
L 258.727979 65.997521 
L 271.879508 84.964463 
L 273.663551 103.931405 
L 281.136163 122.898347 
L 291.467077 141.865289 
L 297.245386 160.832231 
L 302.386174 179.799174 
L 313.624275 198.766116 
L 318.036718 217.733058 
L 320.661195 236.7 
L 319.155985 255.666942 
L 307.928138 274.633884 
L 293.245234 293.600826 
L 270.182227 312.567769 
L 240.415954 331.534711 
L 205.392695 350.501653 
L 181.627876 369.468595 
L 160.472602 388.435537 
L 149.569612 407.402479 
L 133.990505 426.369421 
L 131.96713 445.336364 
" clip-path="url(#p2dca252032)" style="fill: none; stroke: #756bb1; stroke-opacity: 0.2; stroke-width: 2; stroke-linecap: square"/>
   </g>
   <g id="line2d_51">
    <path d="M 242.428777 28.063636 
L 260.04292 47.030579 
L 262.571556 65.997521 
L 269.179849 84.964463 
L 276.260321 103.931405 
L 284.377208 122.898347 
L 294.536043 141.865289 
L 304.730049 160.832231 
L 317.03596 179.799174 
L 323.649028 198.766116 
L 336.931365 217.733058 
L 335.459822 236.7 
L 332.671494 255.666942 
L 322.16331 274.633884 
L 317.511553 293.600826 
L 298.816146 312.567769 
L 275.490876 331.534711 
L 260.181552 350.501653 
L 231.923259 369.468595 
L 214.874816 388.435537 
L 194.936546 407.402479 
L 170.655526 426.369421 
L 163.086219 445.336364 
" clip-path="url(#p2dca252032)" style="fill: none; stroke: #756bb1; stroke-opacity: 0.2; stroke-width: 2; stroke-linecap: square"/>
   </g>
   <g id="line2d_52">
    <path d="M 253.630445 28.063636 
L 255.218372 47.030579 
L 257.491136 65.997521 
L 273.654785 84.964463 
L 281.001757 103.931405 
L 290.080232 122.898347 
L 298.177768 141.865289 
L 308.22191 160.832231 
L 314.078105 179.799174 
L 327.58674 198.766116 
L 330.124754 217.733058 
L 334.133985 236.7 
L 332.710023 255.666942 
L 326.222662 274.633884 
L 308.821866 293.600826 
L 296.547127 312.567769 
L 265.94414 331.534711 
L 238.113004 350.501653 
L 216.211087 369.468595 
L 184.982259 388.435537 
L 169.537096 407.402479 
L 160.829538 426.369421 
L 147.056846 445.336364 
" clip-path="url(#p2dca252032)" style="fill: none; stroke: #756bb1; stroke-opacity: 0.2; stroke-width: 2; stroke-linecap: square"/>
   </g>
   <g id="line2d_53">
    <path d="M 257.170352 28.063636 
L 256.000887 47.030579 
L 262.465682 65.997521 
L 272.413739 84.964463 
L 273.767302 103.931405 
L 288.061207 122.898347 
L 297.858813 141.865289 
L 298.27875 160.832231 
L 311.50186 179.799174 
L 316.823122 198.766116 
L 333.273881 217.733058 
L 330.327824 236.7 
L 336.464563 255.666942 
L 332.843656 274.633884 
L 323.587524 293.600826 
L 309.485805 312.567769 
L 288.477883 331.534711 
L 261.207681 350.501653 
L 233.608834 369.468595 
L 208.652766 388.435537 
L 193.582746 407.402479 
L 169.676302 426.369421 
L 161.560406 445.336364 
" clip-path="url(#p2dca252032)" style="fill: none; stroke: #756bb1; stroke-opacity: 0.2; stroke-width: 2; stroke-linecap: square"/>
   </g>
   <g id="line2d_54">
    <path d="M 250.072524 28.063636 
L 248.124895 47.030579 
L 259.406437 65.997521 
L 271.587938 84.964463 
L 273.977034 103.931405 
L 289.787005 122.898347 
L 299.431489 141.865289 
L 300.788095 160.832231 
L 314.500399 179.799174 
L 319.496241 198.766116 
L 333.050123 217.733058 
L 335.015989 236.7 
L 335.554296 255.666942 
L 333.241339 274.633884 
L 327.040474 293.600826 
L 305.19625 312.567769 
L 288.100482 331.534711 
L 264.348918 350.501653 
L 244.658754 369.468595 
L 215.059204 388.435537 
L 196.561121 407.402479 
L 183.27654 426.369421 
L 163.074501 445.336364 
" clip-path="url(#p2dca252032)" style="fill: none; stroke: #756bb1; stroke-opacity: 0.2; stroke-width: 2; stroke-linecap: square"/>
   </g>
   <g id="line2d_55">
    <path d="M 254.685146 28.063636 
L 250.71261 47.030579 
L 265.089254 65.997521 
L 269.182188 84.964463 
L 272.781999 103.931405 
L 282.066817 122.898347 
L 288.597675 141.865289 
L 302.48396 160.832231 
L 304.828851 179.799174 
L 317.499497 198.766116 
L 322.844941 217.733058 
L 331.836461 236.7 
L 337.06978 255.666942 
L 332.145915 274.633884 
L 324.117815 293.600826 
L 311.449705 312.567769 
L 289.955285 331.534711 
L 262.773114 350.501653 
L 241.283019 369.468595 
L 211.646961 388.435537 
L 186.383707 407.402479 
L 168.296035 426.369421 
L 159.109872 445.336364 
" clip-path="url(#p2dca252032)" style="fill: none; stroke: #756bb1; stroke-opacity: 0.2; stroke-width: 2; stroke-linecap: square"/>
   </g>
   <g id="line2d_56">
    <path d="M 251.816035 28.063636 
L 256.010257 47.030579 
L 255.027701 65.997521 
L 262.6264 84.964463 
L 275.355269 103.931405 
L 280.804385 122.898347 
L 292.45921 141.865289 
L 302.053795 160.832231 
L 312.188569 179.799174 
L 321.035258 198.766116 
L 330.197873 217.733058 
L 336.427758 236.7 
L 338.120145 255.666942 
L 331.32574 274.633884 
L 327.907662 293.600826 
L 318.616066 312.567769 
L 297.925021 331.534711 
L 277.485547 350.501653 
L 252.700405 369.468595 
L 233.157606 388.435537 
L 207.119947 407.402479 
L 190.690096 426.369421 
L 172.260238 445.336364 
" clip-path="url(#p2dca252032)" style="fill: none; stroke: #756bb1; stroke-opacity: 0.2; stroke-width: 2; stroke-linecap: square"/>
   </g>
   <g id="line2d_57">
    <path d="M 244.360792 28.063636 
L 251.009315 47.030579 
L 256.015112 65.997521 
L 267.162899 84.964463 
L 272.324891 103.931405 
L 286.480053 122.898347 
L 290.582726 141.865289 
L 301.347007 160.832231 
L 313.174657 179.799174 
L 324.41819 198.766116 
L 328.723109 217.733058 
L 338.521649 236.7 
L 336.036192 255.666942 
L 317.431151 274.633884 
L 310.575214 293.600826 
L 290.685998 312.567769 
L 262.143677 331.534711 
L 236.871057 350.501653 
L 217.445459 369.468595 
L 193.745051 388.435537 
L 178.838726 407.402479 
L 162.854894 426.369421 
L 148.890754 445.336364 
" clip-path="url(#p2dca252032)" style="fill: none; stroke: #756bb1; stroke-opacity: 0.2; stroke-width: 2; stroke-linecap: square"/>
   </g>
   <g id="line2d_58">
    <path d="M 248.275247 28.063636 
L 250.550882 47.030579 
L 257.229097 65.997521 
L 261.793216 84.964463 
L 276.648451 103.931405 
L 286.400049 122.898347 
L 300.134451 141.865289 
L 303.361583 160.832231 
L 313.655492 179.799174 
L 327.343288 198.766116 
L 335.558851 217.733058 
L 343.168952 236.7 
L 341.173211 255.666942 
L 334.558944 274.633884 
L 320.898383 293.600826 
L 303.666905 312.567769 
L 281.282142 331.534711 
L 258.264037 350.501653 
L 232.681023 369.468595 
L 204.775144 388.435537 
L 183.855984 407.402479 
L 171.134453 426.369421 
L 152.773834 445.336364 
" clip-path="url(#p2dca252032)" style="fill: none; stroke: #756bb1; stroke-opacity: 0.2; stroke-width: 2; stroke-linecap: square"/>
   </g>
   <g id="line2d_59">
    <path d="M 246.035394 28.063636 
L 252.54009 47.030579 
L 267.749455 65.997521 
L 274.317098 84.964463 
L 282.239139 103.931405 
L 295.738264 122.898347 
L 297.176506 141.865289 
L 305.8504 160.832231 
L 318.845914 179.799174 
L 324.435441 198.766116 
L 333.207084 217.733058 
L 339.151404 236.7 
L 335.888398 255.666942 
L 334.734626 274.633884 
L 322.403962 293.600826 
L 313.8329 312.567769 
L 292.504315 331.534711 
L 267.552396 350.501653 
L 243.697186 369.468595 
L 220.811596 388.435537 
L 196.036468 407.402479 
L 174.938298 426.369421 
L 159.906448 445.336364 
" clip-path="url(#p2dca252032)" style="fill: none; stroke: #756bb1; stroke-opacity: 0.2; stroke-width: 2; stroke-linecap: square"/>
   </g>
   <g id="line2d_60">
    <path d="M 244.997401 28.063636 
L 251.548041 47.030579 
L 260.963833 65.997521 
L 263.568035 84.964463 
L 266.289959 103.931405 
L 275.283817 122.898347 
L 287.083442 141.865289 
L 296.21353 160.832231 
L 306.3155 179.799174 
L 314.358486 198.766116 
L 325.794765 217.733058 
L 328.053425 236.7 
L 333.996109 255.666942 
L 326.307481 274.633884 
L 308.440048 293.600826 
L 291.303808 312.567769 
L 262.690988 331.534711 
L 239.416949 350.501653 
L 207.181283 369.468595 
L 184.124303 388.435537 
L 171.871226 407.402479 
L 156.269792 426.369421 
L 144.448343 445.336364 
" clip-path="url(#p2dca252032)" style="fill: none; stroke: #756bb1; stroke-opacity: 0.2; stroke-width: 2; stroke-linecap: square"/>
   </g>
   <g id="line2d_61">
    <path d="M 249.883983 28.063636 
L 255.915119 47.030579 
L 252.406476 65.997521 
L 267.522947 84.964463 
L 268.287289 103.931405 
L 283.744878 122.898347 
L 291.95576 141.865289 
L 294.824002 160.832231 
L 307.339729 179.799174 
L 309.315122 198.766116 
L 315.139592 217.733058 
L 319.256106 236.7 
L 311.285257 255.666942 
L 309.696684 274.633884 
L 301.608161 293.600826 
L 295.897552 312.567769 
L 276.262462 331.534711 
L 253.746206 350.501653 
L 231.245463 369.468595 
L 214.64054 388.435537 
L 190.65486 407.402479 
L 173.381204 426.369421 
L 168.288441 445.336364 
" clip-path="url(#p2dca252032)" style="fill: none; stroke: #756bb1; stroke-opacity: 0.2; stroke-width: 2; stroke-linecap: square"/>
   </g>
   <g id="line2d_62"/>
   <g id="line2d_63">
    <path d="M 249.80506 28.063636 
L 254.853579 47.030579 
L 261.413564 65.997521 
L 268.713541 84.964463 
L 276.700368 103.931405 
L 284.988159 122.898347 
L 293.703243 141.865289 
L 302.283119 160.832231 
L 311.078567 179.799174 
L 319.063601 198.766116 
L 325.277458 217.733058 
L 328.235406 236.7 
L 327.468193 255.666942 
L 320.416439 274.633884 
L 308.528147 293.600826 
L 290.872839 312.567769 
L 268.768408 331.534711 
L 244.381328 350.501653 
L 219.885705 369.468595 
L 197.349754 388.435537 
L 177.960338 407.402479 
L 162.739302 426.369421 
L 151.47569 445.336364 
" clip-path="url(#p2dca252032)" style="fill: none; stroke: #39146b; stroke-width: 4; stroke-linecap: square"/>
   </g>
   <g id="line2d_64">
    <path d="M 250.431561 28.063636 
L 253.024631 47.030579 
L 264.441004 65.997521 
L 269.233731 84.964463 
L 278.176166 103.931405 
L 283.294261 122.898347 
L 298.785442 141.865289 
L 303.515532 160.832231 
L 313.950362 179.799174 
L 325.887594 198.766116 
L 330.02851 217.733058 
L 339.507066 236.7 
L 346.515746 255.666942 
L 342.527823 274.633884 
L 337.826686 293.600826 
L 324.395022 312.567769 
L 296.942099 331.534711 
L 271.611913 350.501653 
L 248.529489 369.468595 
L 223.257068 388.435537 
L 194.037957 407.402479 
L 179.951687 426.369421 
L 161.267212 445.336364 
" clip-path="url(#p2dca252032)" style="fill: none; stroke: #e40000; stroke-width: 4; stroke-linecap: square"/>
    <defs>
     <path id="m2644fe6590" d="M -5 5 
L 5 -5 
M -5 -5 
L 5 5 
" style="stroke: #e40000"/>
    </defs>
    <g clip-path="url(#p2dca252032)">
     <use xlink:href="#m2644fe6590" x="250.431561" y="28.063636" style="fill: #e40000; stroke: #e40000"/>
     <use xlink:href="#m2644fe6590" x="253.024631" y="47.030579" style="fill: #e40000; stroke: #e40000"/>
     <use xlink:href="#m2644fe6590" x="264.441004" y="65.997521" style="fill: #e40000; stroke: #e40000"/>
     <use xlink:href="#m2644fe6590" x="269.233731" y="84.964463" style="fill: #e40000; stroke: #e40000"/>
     <use xlink:href="#m2644fe6590" x="278.176166" y="103.931405" style="fill: #e40000; stroke: #e40000"/>
     <use xlink:href="#m2644fe6590" x="283.294261" y="122.898347" style="fill: #e40000; stroke: #e40000"/>
     <use xlink:href="#m2644fe6590" x="298.785442" y="141.865289" style="fill: #e40000; stroke: #e40000"/>
     <use xlink:href="#m2644fe6590" x="303.515532" y="160.832231" style="fill: #e40000; stroke: #e40000"/>
     <use xlink:href="#m2644fe6590" x="313.950362" y="179.799174" style="fill: #e40000; stroke: #e40000"/>
     <use xlink:href="#m2644fe6590" x="325.887594" y="198.766116" style="fill: #e40000; stroke: #e40000"/>
     <use xlink:href="#m2644fe6590" x="330.02851" y="217.733058" style="fill: #e40000; stroke: #e40000"/>
     <use xlink:href="#m2644fe6590" x="339.507066" y="236.7" style="fill: #e40000; stroke: #e40000"/>
     <use xlink:href="#m2644fe6590" x="346.515746" y="255.666942" style="fill: #e40000; stroke: #e40000"/>
     <use xlink:href="#m2644fe6590" x="342.527823" y="274.633884" style="fill: #e40000; stroke: #e40000"/>
     <use xlink:href="#m2644fe6590" x="337.826686" y="293.600826" style="fill: #e40000; stroke: #e40000"/>
     <use xlink:href="#m2644fe6590" x="324.395022" y="312.567769" style="fill: #e40000; stroke: #e40000"/>
     <use xlink:href="#m2644fe6590" x="296.942099" y="331.534711" style="fill: #e40000; stroke: #e40000"/>
     <use xlink:href="#m2644fe6590" x="271.611913" y="350.501653" style="fill: #e40000; stroke: #e40000"/>
     <use xlink:href="#m2644fe6590" x="248.529489" y="369.468595" style="fill: #e40000; stroke: #e40000"/>
     <use xlink:href="#m2644fe6590" x="223.257068" y="388.435537" style="fill: #e40000; stroke: #e40000"/>
     <use xlink:href="#m2644fe6590" x="194.037957" y="407.402479" style="fill: #e40000; stroke: #e40000"/>
     <use xlink:href="#m2644fe6590" x="179.951687" y="426.369421" style="fill: #e40000; stroke: #e40000"/>
     <use xlink:href="#m2644fe6590" x="161.267212" y="445.336364" style="fill: #e40000; stroke: #e40000"/>
    </g>
   </g>
   <g id="patch_3">
    <path d="M 83.75625 466.2 
L 83.75625 7.2 
" style="fill: none; stroke: #000000; stroke-width: 2; stroke-linejoin: miter; stroke-linecap: square"/>
   </g>
   <g id="patch_4">
    <path d="M 93.75625 476.2 
L 363.75625 476.2 
" style="fill: none; stroke: #000000; stroke-width: 2; stroke-linejoin: miter; stroke-linecap: square"/>
   </g>
  </g>
 </g>
 <defs>
  <clipPath id="p2dca252032">
   <rect x="93.75625" y="7.2" width="270" height="459"/>
  </clipPath>
 </defs>
</svg>
