<?xml version="1.0" encoding="utf-8" standalone="no"?>
<!DOCTYPE svg PUBLIC "-//W3C//DTD SVG 1.1//EN"
  "http://www.w3.org/Graphics/SVG/1.1/DTD/svg11.dtd">
<svg xmlns:xlink="http://www.w3.org/1999/xlink" width="370.95625pt" height="544.35625pt" viewBox="0 0 370.95625 544.35625" xmlns="http://www.w3.org/2000/svg" version="1.1">
 <metadata>
  <rdf:RDF xmlns:dc="http://purl.org/dc/elements/1.1/" xmlns:cc="http://creativecommons.org/ns#" xmlns:rdf="http://www.w3.org/1999/02/22-rdf-syntax-ns#">
   <cc:Work>
    <dc:type rdf:resource="http://purl.org/dc/dcmitype/StillImage"/>
    <dc:date>2024-07-31T17:20:54.531845</dc:date>
    <dc:format>image/svg+xml</dc:format>
    <dc:creator>
     <cc:Agent>
      <dc:title>Matplotlib v3.8.0, https://matplotlib.org/</dc:title>
     </cc:Agent>
    </dc:creator>
   </cc:Work>
  </rdf:RDF>
 </metadata>
 <defs>
  <style type="text/css">*{stroke-linejoin: round; stroke-linecap: butt}</style>
 </defs>
 <g id="figure_1">
  <g id="patch_1">
   <path d="M -0 544.35625 
L 370.95625 544.35625 
L 370.95625 0 
L -0 0 
z
" style="fill: #ffffff"/>
  </g>
  <g id="axes_1">
   <g id="patch_2">
    <path d="M 93.75625 466.2 
L 363.75625 466.2 
L 363.75625 7.2 
L 93.75625 7.2 
z
" style="fill: #ffffff"/>
   </g>
   <g id="PolyCollection_1">
    <defs>
     <path id="m52c3897078" d="M 220.015599 -516.292614 
L 233.550693 -516.292614 
L 239.331807 -497.325671 
L 246.051126 -478.358729 
L 254.073992 -459.391787 
L 263.400517 -440.424845 
L 274.220723 -421.457903 
L 286.12929 -402.490961 
L 298.76112 -383.524019 
L 312.038282 -364.557076 
L 324.881111 -345.590134 
L 336.363767 -326.623192 
L 345.130852 -307.65625 
L 349.51293 -288.689308 
L 347.389449 -269.722366 
L 337.870295 -250.755424 
L 320.105194 -231.788481 
L 294.627584 -212.821539 
L 263.484664 -193.854597 
L 229.379067 -174.887655 
L 195.973322 -155.920713 
L 166.281842 -136.953771 
L 142.103747 -117.986829 
L 124.025683 -99.019886 
L 109.47112 -99.019886 
L 109.47112 -99.019886 
L 128.60368 -117.986829 
L 153.530442 -136.953771 
L 183.294034 -155.920713 
L 216.674499 -174.887655 
L 250.83734 -193.854597 
L 282.142315 -212.821539 
L 307.746354 -231.788481 
L 325.504941 -250.755424 
L 335.229326 -269.722366 
L 337.194711 -288.689308 
L 333.161593 -307.65625 
L 324.520036 -326.623192 
L 313.050425 -345.590134 
L 300.096792 -364.557076 
L 286.777688 -383.524019 
L 273.985354 -402.490961 
L 262.220074 -421.457903 
L 251.600799 -440.424845 
L 242.141333 -459.391787 
L 233.646884 -478.358729 
L 226.463101 -497.325671 
L 220.015599 -516.292614 
z
" style="stroke: #756bb1; stroke-opacity: 0.5"/>
    </defs>
    <g clip-path="url(#p7292bb9a10)">
     <use xlink:href="#m52c3897078" x="0" y="544.35625" style="fill: #756bb1; fill-opacity: 0.5; stroke: #756bb1; stroke-opacity: 0.5"/>
    </g>
   </g>
   <g id="matplotlib.axis_1">
    <g id="xtick_1">
     <g id="line2d_1">
      <defs>
       <path id="m753f805480" d="M 0 0 
L 0 3.5 
" style="stroke: #000000; stroke-width: 1.5"/>
      </defs>
      <g>
       <use xlink:href="#m753f805480" x="208.207033" y="476.2" style="stroke: #000000; stroke-width: 1.5"/>
      </g>
     </g>
     <g id="text_1">
      <!-- 500 -->
      <g transform="translate(189.119533 498.396875) scale(0.2 -0.2)">
       <defs>
        <path id="DejaVuSans-35" d="M 691 4666 
L 3169 4666 
L 3169 4134 
L 1269 4134 
L 1269 2991 
Q 1406 3038 1543 3061 
Q 1681 3084 1819 3084 
Q 2600 3084 3056 2656 
Q 3513 2228 3513 1497 
Q 3513 744 3044 326 
Q 2575 -91 1722 -91 
Q 1428 -91 1123 -41 
Q 819 9 494 109 
L 494 744 
Q 775 591 1075 516 
Q 1375 441 1709 441 
Q 2250 441 2565 725 
Q 2881 1009 2881 1497 
Q 2881 1984 2565 2268 
Q 2250 2553 1709 2553 
Q 1456 2553 1204 2497 
Q 953 2441 691 2322 
L 691 4666 
z
" transform="scale(0.015625)"/>
        <path id="DejaVuSans-30" d="M 2034 4250 
Q 1547 4250 1301 3770 
Q 1056 3291 1056 2328 
Q 1056 1369 1301 889 
Q 1547 409 2034 409 
Q 2525 409 2770 889 
Q 3016 1369 3016 2328 
Q 3016 3291 2770 3770 
Q 2525 4250 2034 4250 
z
M 2034 4750 
Q 2819 4750 3233 4129 
Q 3647 3509 3647 2328 
Q 3647 1150 3233 529 
Q 2819 -91 2034 -91 
Q 1250 -91 836 529 
Q 422 1150 422 2328 
Q 422 3509 836 4129 
Q 1250 4750 2034 4750 
z
" transform="scale(0.015625)"/>
       </defs>
       <use xlink:href="#DejaVuSans-35"/>
       <use xlink:href="#DejaVuSans-30" x="63.623047"/>
       <use xlink:href="#DejaVuSans-30" x="127.246094"/>
      </g>
     </g>
    </g>
    <g id="xtick_2">
     <g id="line2d_2">
      <g>
       <use xlink:href="#m753f805480" x="327.591307" y="476.2" style="stroke: #000000; stroke-width: 1.5"/>
      </g>
     </g>
     <g id="text_2">
      <!-- 600 -->
      <g transform="translate(308.503807 498.396875) scale(0.2 -0.2)">
       <defs>
        <path id="DejaVuSans-36" d="M 2113 2584 
Q 1688 2584 1439 2293 
Q 1191 2003 1191 1497 
Q 1191 994 1439 701 
Q 1688 409 2113 409 
Q 2538 409 2786 701 
Q 3034 994 3034 1497 
Q 3034 2003 2786 2293 
Q 2538 2584 2113 2584 
z
M 3366 4563 
L 3366 3988 
Q 3128 4100 2886 4159 
Q 2644 4219 2406 4219 
Q 1781 4219 1451 3797 
Q 1122 3375 1075 2522 
Q 1259 2794 1537 2939 
Q 1816 3084 2150 3084 
Q 2853 3084 3261 2657 
Q 3669 2231 3669 1497 
Q 3669 778 3244 343 
Q 2819 -91 2113 -91 
Q 1303 -91 875 529 
Q 447 1150 447 2328 
Q 447 3434 972 4092 
Q 1497 4750 2381 4750 
Q 2619 4750 2861 4703 
Q 3103 4656 3366 4563 
z
" transform="scale(0.015625)"/>
       </defs>
       <use xlink:href="#DejaVuSans-36"/>
       <use xlink:href="#DejaVuSans-30" x="63.623047"/>
       <use xlink:href="#DejaVuSans-30" x="127.246094"/>
      </g>
     </g>
    </g>
    <g id="text_3">
     <!-- Apparent Resistivity [$\Omega m$] -->
     <g transform="translate(81.95625 532.75625) scale(0.2 -0.2)">
      <defs>
       <path id="DejaVuSans-Bold-41" d="M 3419 850 
L 1538 850 
L 1241 0 
L 31 0 
L 1759 4666 
L 3194 4666 
L 4922 0 
L 3713 0 
L 3419 850 
z
M 1838 1716 
L 3116 1716 
L 2478 3572 
L 1838 1716 
z
" transform="scale(0.015625)"/>
       <path id="DejaVuSans-Bold-70" d="M 1656 506 
L 1656 -1331 
L 538 -1331 
L 538 3500 
L 1656 3500 
L 1656 2988 
Q 1888 3294 2169 3439 
Q 2450 3584 2816 3584 
Q 3463 3584 3878 3070 
Q 4294 2556 4294 1747 
Q 4294 938 3878 423 
Q 3463 -91 2816 -91 
Q 2450 -91 2169 54 
Q 1888 200 1656 506 
z
M 2400 2772 
Q 2041 2772 1848 2508 
Q 1656 2244 1656 1747 
Q 1656 1250 1848 986 
Q 2041 722 2400 722 
Q 2759 722 2948 984 
Q 3138 1247 3138 1747 
Q 3138 2247 2948 2509 
Q 2759 2772 2400 2772 
z
" transform="scale(0.015625)"/>
       <path id="DejaVuSans-Bold-61" d="M 2106 1575 
Q 1756 1575 1579 1456 
Q 1403 1338 1403 1106 
Q 1403 894 1545 773 
Q 1688 653 1941 653 
Q 2256 653 2472 879 
Q 2688 1106 2688 1447 
L 2688 1575 
L 2106 1575 
z
M 3816 1997 
L 3816 0 
L 2688 0 
L 2688 519 
Q 2463 200 2181 54 
Q 1900 -91 1497 -91 
Q 953 -91 614 226 
Q 275 544 275 1050 
Q 275 1666 698 1953 
Q 1122 2241 2028 2241 
L 2688 2241 
L 2688 2328 
Q 2688 2594 2478 2717 
Q 2269 2841 1825 2841 
Q 1466 2841 1156 2769 
Q 847 2697 581 2553 
L 581 3406 
Q 941 3494 1303 3539 
Q 1666 3584 2028 3584 
Q 2975 3584 3395 3211 
Q 3816 2838 3816 1997 
z
" transform="scale(0.015625)"/>
       <path id="DejaVuSans-Bold-72" d="M 3138 2547 
Q 2991 2616 2845 2648 
Q 2700 2681 2553 2681 
Q 2122 2681 1889 2404 
Q 1656 2128 1656 1613 
L 1656 0 
L 538 0 
L 538 3500 
L 1656 3500 
L 1656 2925 
Q 1872 3269 2151 3426 
Q 2431 3584 2822 3584 
Q 2878 3584 2943 3579 
Q 3009 3575 3134 3559 
L 3138 2547 
z
" transform="scale(0.015625)"/>
       <path id="DejaVuSans-Bold-65" d="M 4031 1759 
L 4031 1441 
L 1416 1441 
Q 1456 1047 1700 850 
Q 1944 653 2381 653 
Q 2734 653 3104 758 
Q 3475 863 3866 1075 
L 3866 213 
Q 3469 63 3072 -14 
Q 2675 -91 2278 -91 
Q 1328 -91 801 392 
Q 275 875 275 1747 
Q 275 2603 792 3093 
Q 1309 3584 2216 3584 
Q 3041 3584 3536 3087 
Q 4031 2591 4031 1759 
z
M 2881 2131 
Q 2881 2450 2695 2645 
Q 2509 2841 2209 2841 
Q 1884 2841 1681 2658 
Q 1478 2475 1428 2131 
L 2881 2131 
z
" transform="scale(0.015625)"/>
       <path id="DejaVuSans-Bold-6e" d="M 4056 2131 
L 4056 0 
L 2931 0 
L 2931 347 
L 2931 1631 
Q 2931 2084 2911 2256 
Q 2891 2428 2841 2509 
Q 2775 2619 2662 2680 
Q 2550 2741 2406 2741 
Q 2056 2741 1856 2470 
Q 1656 2200 1656 1722 
L 1656 0 
L 538 0 
L 538 3500 
L 1656 3500 
L 1656 2988 
Q 1909 3294 2193 3439 
Q 2478 3584 2822 3584 
Q 3428 3584 3742 3212 
Q 4056 2841 4056 2131 
z
" transform="scale(0.015625)"/>
       <path id="DejaVuSans-Bold-74" d="M 1759 4494 
L 1759 3500 
L 2913 3500 
L 2913 2700 
L 1759 2700 
L 1759 1216 
Q 1759 972 1856 886 
Q 1953 800 2241 800 
L 2816 800 
L 2816 0 
L 1856 0 
Q 1194 0 917 276 
Q 641 553 641 1216 
L 641 2700 
L 84 2700 
L 84 3500 
L 641 3500 
L 641 4494 
L 1759 4494 
z
" transform="scale(0.015625)"/>
       <path id="DejaVuSans-Bold-20" transform="scale(0.015625)"/>
       <path id="DejaVuSans-Bold-52" d="M 2297 2597 
Q 2675 2597 2839 2737 
Q 3003 2878 3003 3200 
Q 3003 3519 2839 3656 
Q 2675 3794 2297 3794 
L 1791 3794 
L 1791 2597 
L 2297 2597 
z
M 1791 1766 
L 1791 0 
L 588 0 
L 588 4666 
L 2425 4666 
Q 3347 4666 3776 4356 
Q 4206 4047 4206 3378 
Q 4206 2916 3982 2619 
Q 3759 2322 3309 2181 
Q 3556 2125 3751 1926 
Q 3947 1728 4147 1325 
L 4800 0 
L 3519 0 
L 2950 1159 
Q 2778 1509 2601 1637 
Q 2425 1766 2131 1766 
L 1791 1766 
z
" transform="scale(0.015625)"/>
       <path id="DejaVuSans-Bold-73" d="M 3272 3391 
L 3272 2541 
Q 2913 2691 2578 2766 
Q 2244 2841 1947 2841 
Q 1628 2841 1473 2761 
Q 1319 2681 1319 2516 
Q 1319 2381 1436 2309 
Q 1553 2238 1856 2203 
L 2053 2175 
Q 2913 2066 3209 1816 
Q 3506 1566 3506 1031 
Q 3506 472 3093 190 
Q 2681 -91 1863 -91 
Q 1516 -91 1145 -36 
Q 775 19 384 128 
L 384 978 
Q 719 816 1070 734 
Q 1422 653 1784 653 
Q 2113 653 2278 743 
Q 2444 834 2444 1013 
Q 2444 1163 2330 1236 
Q 2216 1309 1875 1350 
L 1678 1375 
Q 931 1469 631 1722 
Q 331 1975 331 2491 
Q 331 3047 712 3315 
Q 1094 3584 1881 3584 
Q 2191 3584 2531 3537 
Q 2872 3491 3272 3391 
z
" transform="scale(0.015625)"/>
       <path id="DejaVuSans-Bold-69" d="M 538 3500 
L 1656 3500 
L 1656 0 
L 538 0 
L 538 3500 
z
M 538 4863 
L 1656 4863 
L 1656 3950 
L 538 3950 
L 538 4863 
z
" transform="scale(0.015625)"/>
       <path id="DejaVuSans-Bold-76" d="M 97 3500 
L 1216 3500 
L 2088 1081 
L 2956 3500 
L 4078 3500 
L 2700 0 
L 1472 0 
L 97 3500 
z
" transform="scale(0.015625)"/>
       <path id="DejaVuSans-Bold-79" d="M 78 3500 
L 1197 3500 
L 2138 1125 
L 2938 3500 
L 4056 3500 
L 2584 -331 
Q 2363 -916 2067 -1148 
Q 1772 -1381 1288 -1381 
L 641 -1381 
L 641 -647 
L 991 -647 
Q 1275 -647 1404 -556 
Q 1534 -466 1606 -231 
L 1638 -134 
L 78 3500 
z
" transform="scale(0.015625)"/>
       <path id="DejaVuSans-Bold-5b" d="M 550 4863 
L 2491 4863 
L 2491 4159 
L 1613 4159 
L 1613 -141 
L 2491 -141 
L 2491 -844 
L 550 -844 
L 550 4863 
z
" transform="scale(0.015625)"/>
       <path id="DejaVuSans-Bold-3a9" d="M 2719 4750 
Q 3841 4750 4480 4106 
Q 5119 3463 5119 2494 
Q 5119 1406 4306 909 
L 5266 909 
L 5266 0 
L 3125 0 
L 3125 975 
Q 3244 1041 3334 1131 
Q 3875 1678 3875 2466 
Q 3875 3066 3572 3472 
Q 3269 3878 2719 3878 
Q 2169 3878 1866 3472 
Q 1563 3066 1563 2466 
Q 1563 1678 2103 1131 
Q 2194 1041 2313 975 
L 2313 0 
L 172 0 
L 172 909 
L 1131 909 
Q 319 1406 319 2494 
Q 319 3463 958 4106 
Q 1597 4750 2719 4750 
z
" transform="scale(0.015625)"/>
       <path id="DejaVuSans-Bold-6d" d="M 3781 2919 
Q 3994 3244 4286 3414 
Q 4578 3584 4928 3584 
Q 5531 3584 5847 3212 
Q 6163 2841 6163 2131 
L 6163 0 
L 5038 0 
L 5038 1825 
Q 5041 1866 5042 1909 
Q 5044 1953 5044 2034 
Q 5044 2406 4934 2573 
Q 4825 2741 4581 2741 
Q 4263 2741 4089 2478 
Q 3916 2216 3909 1719 
L 3909 0 
L 2784 0 
L 2784 1825 
Q 2784 2406 2684 2573 
Q 2584 2741 2328 2741 
Q 2006 2741 1831 2477 
Q 1656 2213 1656 1722 
L 1656 0 
L 531 0 
L 531 3500 
L 1656 3500 
L 1656 2988 
Q 1863 3284 2130 3434 
Q 2397 3584 2719 3584 
Q 3081 3584 3359 3409 
Q 3638 3234 3781 2919 
z
" transform="scale(0.015625)"/>
       <path id="DejaVuSans-Bold-5d" d="M 2375 -844 
L 434 -844 
L 434 -141 
L 1313 -141 
L 1313 4159 
L 434 4159 
L 434 4863 
L 2375 4863 
L 2375 -844 
z
" transform="scale(0.015625)"/>
      </defs>
      <use xlink:href="#DejaVuSans-Bold-41" transform="translate(0 0.015625)"/>
      <use xlink:href="#DejaVuSans-Bold-70" transform="translate(77.392578 0.015625)"/>
      <use xlink:href="#DejaVuSans-Bold-70" transform="translate(148.974609 0.015625)"/>
      <use xlink:href="#DejaVuSans-Bold-61" transform="translate(220.556641 0.015625)"/>
      <use xlink:href="#DejaVuSans-Bold-72" transform="translate(288.037109 0.015625)"/>
      <use xlink:href="#DejaVuSans-Bold-65" transform="translate(337.353516 0.015625)"/>
      <use xlink:href="#DejaVuSans-Bold-6e" transform="translate(405.175781 0.015625)"/>
      <use xlink:href="#DejaVuSans-Bold-74" transform="translate(476.367188 0.015625)"/>
      <use xlink:href="#DejaVuSans-Bold-20" transform="translate(524.169922 0.015625)"/>
      <use xlink:href="#DejaVuSans-Bold-52" transform="translate(558.984375 0.015625)"/>
      <use xlink:href="#DejaVuSans-Bold-65" transform="translate(635.986328 0.015625)"/>
      <use xlink:href="#DejaVuSans-Bold-73" transform="translate(703.808594 0.015625)"/>
      <use xlink:href="#DejaVuSans-Bold-69" transform="translate(763.330078 0.015625)"/>
      <use xlink:href="#DejaVuSans-Bold-73" transform="translate(797.607422 0.015625)"/>
      <use xlink:href="#DejaVuSans-Bold-74" transform="translate(857.128906 0.015625)"/>
      <use xlink:href="#DejaVuSans-Bold-69" transform="translate(904.931641 0.015625)"/>
      <use xlink:href="#DejaVuSans-Bold-76" transform="translate(939.208984 0.015625)"/>
      <use xlink:href="#DejaVuSans-Bold-69" transform="translate(1004.394531 0.015625)"/>
      <use xlink:href="#DejaVuSans-Bold-74" transform="translate(1038.671875 0.015625)"/>
      <use xlink:href="#DejaVuSans-Bold-79" transform="translate(1086.474609 0.015625)"/>
      <use xlink:href="#DejaVuSans-Bold-20" transform="translate(1151.660156 0.015625)"/>
      <use xlink:href="#DejaVuSans-Bold-5b" transform="translate(1186.474609 0.015625)"/>
      <use xlink:href="#DejaVuSans-Bold-3a9" transform="translate(1232.177734 0.015625)"/>
      <use xlink:href="#DejaVuSans-Bold-6d" transform="translate(1317.1875 0.015625)"/>
      <use xlink:href="#DejaVuSans-Bold-5d" transform="translate(1421.386719 0.015625)"/>
     </g>
    </g>
   </g>
   <g id="matplotlib.axis_2">
    <g id="ytick_1">
     <g id="line2d_3">
      <defs>
       <path id="ma99cd7e120" d="M 0 0 
L -3.5 0 
" style="stroke: #000000; stroke-width: 1.5"/>
      </defs>
      <g>
       <use xlink:href="#ma99cd7e120" x="83.75625" y="199.733012" style="stroke: #000000; stroke-width: 1.5"/>
      </g>
     </g>
     <g id="text_4">
      <!-- $\mathdefault{10^{1}}$ -->
      <g transform="translate(41.55625 207.33145) scale(0.2 -0.2)">
       <defs>
        <path id="DejaVuSans-31" d="M 794 531 
L 1825 531 
L 1825 4091 
L 703 3866 
L 703 4441 
L 1819 4666 
L 2450 4666 
L 2450 531 
L 3481 531 
L 3481 0 
L 794 0 
L 794 531 
z
" transform="scale(0.015625)"/>
       </defs>
       <use xlink:href="#DejaVuSans-31" transform="translate(0 0.684375)"/>
       <use xlink:href="#DejaVuSans-30" transform="translate(63.623047 0.684375)"/>
       <use xlink:href="#DejaVuSans-31" transform="translate(128.203125 38.965625) scale(0.7)"/>
      </g>
     </g>
    </g>
    <g id="ytick_2">
     <g id="line2d_4">
      <g>
       <use xlink:href="#ma99cd7e120" x="83.75625" y="445.336364" style="stroke: #000000; stroke-width: 1.5"/>
      </g>
     </g>
     <g id="text_5">
      <!-- $\mathdefault{10^{2}}$ -->
      <g transform="translate(41.55625 452.934801) scale(0.2 -0.2)">
       <defs>
        <path id="DejaVuSans-32" d="M 1228 531 
L 3431 531 
L 3431 0 
L 469 0 
L 469 531 
Q 828 903 1448 1529 
Q 2069 2156 2228 2338 
Q 2531 2678 2651 2914 
Q 2772 3150 2772 3378 
Q 2772 3750 2511 3984 
Q 2250 4219 1831 4219 
Q 1534 4219 1204 4116 
Q 875 4013 500 3803 
L 500 4441 
Q 881 4594 1212 4672 
Q 1544 4750 1819 4750 
Q 2544 4750 2975 4387 
Q 3406 4025 3406 3419 
Q 3406 3131 3298 2873 
Q 3191 2616 2906 2266 
Q 2828 2175 2409 1742 
Q 1991 1309 1228 531 
z
" transform="scale(0.015625)"/>
       </defs>
       <use xlink:href="#DejaVuSans-31" transform="translate(0 0.765625)"/>
       <use xlink:href="#DejaVuSans-30" transform="translate(63.623047 0.765625)"/>
       <use xlink:href="#DejaVuSans-32" transform="translate(128.203125 39.046875) scale(0.7)"/>
      </g>
     </g>
    </g>
    <g id="ytick_3">
     <g id="line2d_5">
      <defs>
       <path id="mec3992053b" d="M 0 0 
L -2 0 
" style="stroke: #000000; stroke-width: 1.5"/>
      </defs>
      <g>
       <use xlink:href="#mec3992053b" x="83.75625" y="28.063636" style="stroke: #000000; stroke-width: 1.5"/>
      </g>
     </g>
    </g>
    <g id="ytick_4">
     <g id="line2d_6">
      <g>
       <use xlink:href="#mec3992053b" x="83.75625" y="71.31224" style="stroke: #000000; stroke-width: 1.5"/>
      </g>
     </g>
    </g>
    <g id="ytick_5">
     <g id="line2d_7">
      <g>
       <use xlink:href="#mec3992053b" x="83.75625" y="101.997612" style="stroke: #000000; stroke-width: 1.5"/>
      </g>
     </g>
    </g>
    <g id="ytick_6">
     <g id="line2d_8">
      <g>
       <use xlink:href="#mec3992053b" x="83.75625" y="125.799036" style="stroke: #000000; stroke-width: 1.5"/>
      </g>
     </g>
    </g>
    <g id="ytick_7">
     <g id="line2d_9">
      <g>
       <use xlink:href="#mec3992053b" x="83.75625" y="145.246216" style="stroke: #000000; stroke-width: 1.5"/>
      </g>
     </g>
    </g>
    <g id="ytick_8">
     <g id="line2d_10">
      <g>
       <use xlink:href="#mec3992053b" x="83.75625" y="161.688572" style="stroke: #000000; stroke-width: 1.5"/>
      </g>
     </g>
    </g>
    <g id="ytick_9">
     <g id="line2d_11">
      <g>
       <use xlink:href="#mec3992053b" x="83.75625" y="175.931588" style="stroke: #000000; stroke-width: 1.5"/>
      </g>
     </g>
    </g>
    <g id="ytick_10">
     <g id="line2d_12">
      <g>
       <use xlink:href="#mec3992053b" x="83.75625" y="188.494819" style="stroke: #000000; stroke-width: 1.5"/>
      </g>
     </g>
    </g>
    <g id="ytick_11">
     <g id="line2d_13">
      <g>
       <use xlink:href="#mec3992053b" x="83.75625" y="273.666988" style="stroke: #000000; stroke-width: 1.5"/>
      </g>
     </g>
    </g>
    <g id="ytick_12">
     <g id="line2d_14">
      <g>
       <use xlink:href="#mec3992053b" x="83.75625" y="316.915591" style="stroke: #000000; stroke-width: 1.5"/>
      </g>
     </g>
    </g>
    <g id="ytick_13">
     <g id="line2d_15">
      <g>
       <use xlink:href="#mec3992053b" x="83.75625" y="347.600964" style="stroke: #000000; stroke-width: 1.5"/>
      </g>
     </g>
    </g>
    <g id="ytick_14">
     <g id="line2d_16">
      <g>
       <use xlink:href="#mec3992053b" x="83.75625" y="371.402388" style="stroke: #000000; stroke-width: 1.5"/>
      </g>
     </g>
    </g>
    <g id="ytick_15">
     <g id="line2d_17">
      <g>
       <use xlink:href="#mec3992053b" x="83.75625" y="390.849567" style="stroke: #000000; stroke-width: 1.5"/>
      </g>
     </g>
    </g>
    <g id="ytick_16">
     <g id="line2d_18">
      <g>
       <use xlink:href="#mec3992053b" x="83.75625" y="407.291923" style="stroke: #000000; stroke-width: 1.5"/>
      </g>
     </g>
    </g>
    <g id="ytick_17">
     <g id="line2d_19">
      <g>
       <use xlink:href="#mec3992053b" x="83.75625" y="421.53494" style="stroke: #000000; stroke-width: 1.5"/>
      </g>
     </g>
    </g>
    <g id="ytick_18">
     <g id="line2d_20">
      <g>
       <use xlink:href="#mec3992053b" x="83.75625" y="434.098171" style="stroke: #000000; stroke-width: 1.5"/>
      </g>
     </g>
    </g>
    <g id="text_6">
     <!-- AB/2 [m] -->
     <g transform="translate(22.396875 285.714062) rotate(-90) scale(0.2 -0.2)">
      <defs>
       <path id="DejaVuSans-Bold-42" d="M 2456 2859 
Q 2741 2859 2887 2984 
Q 3034 3109 3034 3353 
Q 3034 3594 2887 3720 
Q 2741 3847 2456 3847 
L 1791 3847 
L 1791 2859 
L 2456 2859 
z
M 2497 819 
Q 2859 819 3042 972 
Q 3225 1125 3225 1434 
Q 3225 1738 3044 1889 
Q 2863 2041 2497 2041 
L 1791 2041 
L 1791 819 
L 2497 819 
z
M 3616 2497 
Q 4003 2384 4215 2081 
Q 4428 1778 4428 1338 
Q 4428 663 3972 331 
Q 3516 0 2584 0 
L 588 0 
L 588 4666 
L 2394 4666 
Q 3366 4666 3802 4372 
Q 4238 4078 4238 3431 
Q 4238 3091 4078 2852 
Q 3919 2613 3616 2497 
z
" transform="scale(0.015625)"/>
       <path id="DejaVuSans-Bold-2f" d="M 1644 4666 
L 2338 4666 
L 691 -594 
L 0 -594 
L 1644 4666 
z
" transform="scale(0.015625)"/>
       <path id="DejaVuSans-Bold-32" d="M 1844 884 
L 3897 884 
L 3897 0 
L 506 0 
L 506 884 
L 2209 2388 
Q 2438 2594 2547 2791 
Q 2656 2988 2656 3200 
Q 2656 3528 2436 3728 
Q 2216 3928 1850 3928 
Q 1569 3928 1234 3808 
Q 900 3688 519 3450 
L 519 4475 
Q 925 4609 1322 4679 
Q 1719 4750 2100 4750 
Q 2938 4750 3402 4381 
Q 3866 4013 3866 3353 
Q 3866 2972 3669 2642 
Q 3472 2313 2841 1759 
L 1844 884 
z
" transform="scale(0.015625)"/>
      </defs>
      <use xlink:href="#DejaVuSans-Bold-41"/>
      <use xlink:href="#DejaVuSans-Bold-42" x="77.392578"/>
      <use xlink:href="#DejaVuSans-Bold-2f" x="153.613281"/>
      <use xlink:href="#DejaVuSans-Bold-32" x="190.136719"/>
      <use xlink:href="#DejaVuSans-Bold-20" x="259.716797"/>
      <use xlink:href="#DejaVuSans-Bold-5b" x="294.53125"/>
      <use xlink:href="#DejaVuSans-Bold-6d" x="340.234375"/>
      <use xlink:href="#DejaVuSans-Bold-5d" x="444.433594"/>
     </g>
    </g>
   </g>
   <g id="line2d_21">
    <path d="M 225.415934 28.063636 
L 232.779085 47.030579 
L 234.510084 65.997521 
L 249.660412 84.964463 
L 252.670158 103.931405 
L 263.4798 122.898347 
L 280.362685 141.865289 
L 294.775378 160.832231 
L 305.940754 179.799174 
L 317.469904 198.766116 
L 327.45554 217.733058 
L 335.775789 236.7 
L 341.222449 255.666942 
L 336.768159 274.633884 
L 334.25981 293.600826 
L 313.366735 312.567769 
L 291.73957 331.534711 
L 257.523337 350.501653 
L 225.077151 369.468595 
L 184.834918 388.435537 
L 159.047142 407.402479 
L 135.372856 426.369421 
L 124.186012 445.336364 
" clip-path="url(#p7292bb9a10)" style="fill: none; stroke: #756bb1; stroke-opacity: 0.2; stroke-width: 2; stroke-linecap: square"/>
   </g>
   <g id="line2d_22">
    <path d="M 230.427085 28.063636 
L 227.113632 47.030579 
L 240.270722 65.997521 
L 242.129035 84.964463 
L 250.585893 103.931405 
L 262.293819 122.898347 
L 276.851956 141.865289 
L 289.816527 160.832231 
L 302.615803 179.799174 
L 314.354518 198.766116 
L 332.067525 217.733058 
L 334.593244 236.7 
L 346.179776 255.666942 
L 335.328046 274.633884 
L 326.883417 293.600826 
L 308.008369 312.567769 
L 282.934365 331.534711 
L 260.243779 350.501653 
L 219.688305 369.468595 
L 196.499786 388.435537 
L 167.80576 407.402479 
L 135.737506 426.369421 
L 124.669097 445.336364 
" clip-path="url(#p7292bb9a10)" style="fill: none; stroke: #756bb1; stroke-opacity: 0.2; stroke-width: 2; stroke-linecap: square"/>
   </g>
   <g id="line2d_23">
    <path d="M 231.74489 28.063636 
L 238.433223 47.030579 
L 242.090637 65.997521 
L 255.019023 84.964463 
L 260.296537 103.931405 
L 265.005555 122.898347 
L 283.655367 141.865289 
L 300.460112 160.832231 
L 308.63123 179.799174 
L 316.597534 198.766116 
L 329.00752 217.733058 
L 337.375813 236.7 
L 342.681975 255.666942 
L 344.998553 274.633884 
L 329.160056 293.600826 
L 320.207249 312.567769 
L 291.186469 331.534711 
L 258.330551 350.501653 
L 226.674271 369.468595 
L 194.768132 388.435537 
L 165.02714 407.402479 
L 140.990388 426.369421 
L 116.619759 445.336364 
" clip-path="url(#p7292bb9a10)" style="fill: none; stroke: #756bb1; stroke-opacity: 0.2; stroke-width: 2; stroke-linecap: square"/>
   </g>
   <g id="line2d_24">
    <path d="M 225.648801 28.063636 
L 229.9398 47.030579 
L 236.782396 65.997521 
L 252.167078 84.964463 
L 256.986976 103.931405 
L 270.073594 122.898347 
L 281.153819 141.865289 
L 288.335815 160.832231 
L 305.236536 179.799174 
L 313.538029 198.766116 
L 325.590529 217.733058 
L 343.121215 236.7 
L 346.658876 255.666942 
L 343.110735 274.633884 
L 332.066588 293.600826 
L 314.26885 312.567769 
L 289.58253 331.534711 
L 257.390416 350.501653 
L 218.527517 369.468595 
L 186.49886 388.435537 
L 159.226315 407.402479 
L 141.05335 426.369421 
L 120.042671 445.336364 
" clip-path="url(#p7292bb9a10)" style="fill: none; stroke: #756bb1; stroke-opacity: 0.2; stroke-width: 2; stroke-linecap: square"/>
   </g>
   <g id="line2d_25">
    <path d="M 219.149027 28.063636 
L 233.919357 47.030579 
L 234.927823 65.997521 
L 243.569116 84.964463 
L 259.163445 103.931405 
L 268.67762 122.898347 
L 282.60313 141.865289 
L 290.213359 160.832231 
L 309.403961 179.799174 
L 316.335553 198.766116 
L 335.485618 217.733058 
L 341.291301 236.7 
L 341.869596 255.666942 
L 337.273686 274.633884 
L 335.568153 293.600826 
L 312.631176 312.567769 
L 283.654689 331.534711 
L 262.499447 350.501653 
L 229.007849 369.468595 
L 193.104248 388.435537 
L 161.175616 407.402479 
L 139.620022 426.369421 
L 116.753215 445.336364 
" clip-path="url(#p7292bb9a10)" style="fill: none; stroke: #756bb1; stroke-opacity: 0.2; stroke-width: 2; stroke-linecap: square"/>
   </g>
   <g id="line2d_26">
    <path d="M 225.245773 28.063636 
L 235.546673 47.030579 
L 242.118643 65.997521 
L 247.160062 84.964463 
L 255.567779 103.931405 
L 272.82357 122.898347 
L 274.151093 141.865289 
L 286.625891 160.832231 
L 309.01705 179.799174 
L 313.14145 198.766116 
L 328.998807 217.733058 
L 345.977484 236.7 
L 340.470909 255.666942 
L 347.648324 274.633884 
L 336.042503 293.600826 
L 313.074015 312.567769 
L 286.549358 331.534711 
L 254.985184 350.501653 
L 224.390491 369.468595 
L 193.605651 388.435537 
L 165.232305 407.402479 
L 138.15208 426.369421 
L 116.24782 445.336364 
" clip-path="url(#p7292bb9a10)" style="fill: none; stroke: #756bb1; stroke-opacity: 0.2; stroke-width: 2; stroke-linecap: square"/>
   </g>
   <g id="line2d_27">
    <path d="M 233.468196 28.063636 
L 237.820873 47.030579 
L 246.609014 65.997521 
L 249.545338 84.964463 
L 261.893056 103.931405 
L 267.286026 122.898347 
L 275.567786 141.865289 
L 291.043263 160.832231 
L 306.52405 179.799174 
L 321.502376 198.766116 
L 328.862511 217.733058 
L 342.041455 236.7 
L 342.239255 255.666942 
L 340.752334 274.633884 
L 337.238751 293.600826 
L 316.264434 312.567769 
L 292.728457 331.534711 
L 252.67675 350.501653 
L 228.074318 369.468595 
L 188.273663 388.435537 
L 154.472106 407.402479 
L 141.100052 426.369421 
L 112.519071 445.336364 
" clip-path="url(#p7292bb9a10)" style="fill: none; stroke: #756bb1; stroke-opacity: 0.2; stroke-width: 2; stroke-linecap: square"/>
   </g>
   <g id="line2d_28">
    <path d="M 232.862917 28.063636 
L 232.824067 47.030579 
L 247.924985 65.997521 
L 246.682063 84.964463 
L 256.132159 103.931405 
L 265.169508 122.898347 
L 281.067358 141.865289 
L 290.949689 160.832231 
L 306.925692 179.799174 
L 321.729012 198.766116 
L 330.768029 217.733058 
L 342.315517 236.7 
L 343.444352 255.666942 
L 346.304662 274.633884 
L 338.400958 293.600826 
L 322.024528 312.567769 
L 288.053913 331.534711 
L 261.57125 350.501653 
L 228.526116 369.468595 
L 195.804151 388.435537 
L 163.353295 407.402479 
L 130.460732 426.369421 
L 112.854536 445.336364 
" clip-path="url(#p7292bb9a10)" style="fill: none; stroke: #756bb1; stroke-opacity: 0.2; stroke-width: 2; stroke-linecap: square"/>
   </g>
   <g id="line2d_29">
    <path d="M 226.143777 28.063636 
L 231.55206 47.030579 
L 235.941242 65.997521 
L 253.908254 84.964463 
L 264.15441 103.931405 
L 269.172066 122.898347 
L 285.100125 141.865289 
L 291.431366 160.832231 
L 305.916397 179.799174 
L 317.202284 198.766116 
L 336.638577 217.733058 
L 338.248817 236.7 
L 346.752177 255.666942 
L 337.81042 274.633884 
L 335.075649 293.600826 
L 312.167886 312.567769 
L 282.802706 331.534711 
L 251.30738 350.501653 
L 223.756876 369.468595 
L 195.193436 388.435537 
L 165.897694 407.402479 
L 131.392727 426.369421 
L 122.186603 445.336364 
" clip-path="url(#p7292bb9a10)" style="fill: none; stroke: #756bb1; stroke-opacity: 0.2; stroke-width: 2; stroke-linecap: square"/>
   </g>
   <g id="line2d_30">
    <path d="M 228.407711 28.063636 
L 234.938047 47.030579 
L 234.133853 65.997521 
L 252.827782 84.964463 
L 257.062427 103.931405 
L 273.935345 122.898347 
L 281.408462 141.865289 
L 293.401213 160.832231 
L 305.580073 179.799174 
L 324.850262 198.766116 
L 329.485378 217.733058 
L 342.451116 236.7 
L 350.238962 255.666942 
L 348.040094 274.633884 
L 334.583925 293.600826 
L 309.90721 312.567769 
L 284.698807 331.534711 
L 259.162787 350.501653 
L 227.796159 369.468595 
L 182.16726 388.435537 
L 158.335393 407.402479 
L 138.727785 426.369421 
L 114.017686 445.336364 
" clip-path="url(#p7292bb9a10)" style="fill: none; stroke: #756bb1; stroke-opacity: 0.2; stroke-width: 2; stroke-linecap: square"/>
   </g>
   <g id="line2d_31">
    <path d="M 227.833062 28.063636 
L 235.146339 47.030579 
L 243.522554 65.997521 
L 244.682105 84.964463 
L 257.911107 103.931405 
L 261.928704 122.898347 
L 280.944511 141.865289 
L 290.632183 160.832231 
L 310.725027 179.799174 
L 317.004835 198.766116 
L 330.055878 217.733058 
L 346.260121 236.7 
L 351.483523 255.666942 
L 348.632734 274.633884 
L 329.123719 293.600826 
L 311.51523 312.567769 
L 290.794994 331.534711 
L 261.414577 350.501653 
L 224.189474 369.468595 
L 190.05636 388.435537 
L 165.915167 407.402479 
L 133.754998 426.369421 
L 118.595878 445.336364 
" clip-path="url(#p7292bb9a10)" style="fill: none; stroke: #756bb1; stroke-opacity: 0.2; stroke-width: 2; stroke-linecap: square"/>
   </g>
   <g id="line2d_32">
    <path d="M 226.845502 28.063636 
L 239.261558 47.030579 
L 240.187103 65.997521 
L 245.438143 84.964463 
L 257.194481 103.931405 
L 273.512417 122.898347 
L 279.919921 141.865289 
L 289.480229 160.832231 
L 300.283826 179.799174 
L 318.653804 198.766116 
L 333.6348 217.733058 
L 335.203463 236.7 
L 337.742368 255.666942 
L 339.093282 274.633884 
L 330.44251 293.600826 
L 311.823764 312.567769 
L 295.770386 331.534711 
L 264.530498 350.501653 
L 219.935889 369.468595 
L 195.541081 388.435537 
L 166.401529 407.402479 
L 136.617146 426.369421 
L 113.070481 445.336364 
" clip-path="url(#p7292bb9a10)" style="fill: none; stroke: #756bb1; stroke-opacity: 0.2; stroke-width: 2; stroke-linecap: square"/>
   </g>
   <g id="line2d_33">
    <path d="M 227.239676 28.063636 
L 225.355613 47.030579 
L 241.947193 65.997521 
L 250.625853 84.964463 
L 262.509099 103.931405 
L 267.399609 122.898347 
L 280.012695 141.865289 
L 289.93389 160.832231 
L 309.585033 179.799174 
L 318.661372 198.766116 
L 331.120788 217.733058 
L 339.390975 236.7 
L 347.18889 255.666942 
L 333.282118 274.633884 
L 332.001756 293.600826 
L 309.79417 312.567769 
L 290.13761 331.534711 
L 256.08394 350.501653 
L 228.283928 369.468595 
L 192.445423 388.435537 
L 155.480192 407.402479 
L 129.719031 426.369421 
L 114.327665 445.336364 
" clip-path="url(#p7292bb9a10)" style="fill: none; stroke: #756bb1; stroke-opacity: 0.2; stroke-width: 2; stroke-linecap: square"/>
   </g>
   <g id="line2d_34">
    <path d="M 226.93287 28.063636 
L 234.35503 47.030579 
L 242.998546 65.997521 
L 245.082939 84.964463 
L 259.904597 103.931405 
L 274.524613 122.898347 
L 286.823788 141.865289 
L 296.55598 160.832231 
L 312.411615 179.799174 
L 323.833293 198.766116 
L 326.68402 217.733058 
L 338.249139 236.7 
L 343.452424 255.666942 
L 341.343725 274.633884 
L 330.864568 293.600826 
L 311.936366 312.567769 
L 285.853901 331.534711 
L 254.678116 350.501653 
L 217.394173 369.468595 
L 189.564336 388.435537 
L 155.401705 407.402479 
L 131.234297 426.369421 
L 112.252717 445.336364 
" clip-path="url(#p7292bb9a10)" style="fill: none; stroke: #756bb1; stroke-opacity: 0.2; stroke-width: 2; stroke-linecap: square"/>
   </g>
   <g id="line2d_35">
    <path d="M 229.80559 28.063636 
L 234.360167 47.030579 
L 234.130584 65.997521 
L 244.840713 84.964463 
L 251.847311 103.931405 
L 268.589806 122.898347 
L 276.417953 141.865289 
L 296.130161 160.832231 
L 300.567085 179.799174 
L 323.433538 198.766116 
L 330.347297 217.733058 
L 341.907464 236.7 
L 343.758236 255.666942 
L 344.574793 274.633884 
L 327.377511 293.600826 
L 316.517343 312.567769 
L 287.662859 331.534711 
L 257.196665 350.501653 
L 224.579349 369.468595 
L 191.407034 388.435537 
L 166.926512 407.402479 
L 131.82299 426.369421 
L 120.384528 445.336364 
" clip-path="url(#p7292bb9a10)" style="fill: none; stroke: #756bb1; stroke-opacity: 0.2; stroke-width: 2; stroke-linecap: square"/>
   </g>
   <g id="line2d_36">
    <path d="M 223.551969 28.063636 
L 239.470712 47.030579 
L 236.311927 65.997521 
L 247.151613 84.964463 
L 262.380393 103.931405 
L 272.780726 122.898347 
L 280.842223 141.865289 
L 295.068028 160.832231 
L 302.102209 179.799174 
L 319.930642 198.766116 
L 330.299143 217.733058 
L 345.16451 236.7 
L 339.71766 255.666942 
L 343.624545 274.633884 
L 334.603612 293.600826 
L 316.639776 312.567769 
L 290.537829 331.534711 
L 252.33274 350.501653 
L 228.885649 369.468595 
L 192.215705 388.435537 
L 167.621955 407.402479 
L 138.072072 426.369421 
L 118.600231 445.336364 
" clip-path="url(#p7292bb9a10)" style="fill: none; stroke: #756bb1; stroke-opacity: 0.2; stroke-width: 2; stroke-linecap: square"/>
   </g>
   <g id="line2d_37">
    <path d="M 231.063777 28.063636 
L 238.170283 47.030579 
L 233.691213 65.997521 
L 244.029573 84.964463 
L 253.793559 103.931405 
L 264.182139 122.898347 
L 278.655001 141.865289 
L 294.570007 160.832231 
L 300.352462 179.799174 
L 312.176705 198.766116 
L 329.862943 217.733058 
L 336.690579 236.7 
L 345.151056 255.666942 
L 336.6683 274.633884 
L 332.069263 293.600826 
L 310.864945 312.567769 
L 291.681974 331.534711 
L 265.019105 350.501653 
L 229.559358 369.468595 
L 193.445967 388.435537 
L 162.553235 407.402479 
L 128.349404 426.369421 
L 108.988435 445.336364 
" clip-path="url(#p7292bb9a10)" style="fill: none; stroke: #756bb1; stroke-opacity: 0.2; stroke-width: 2; stroke-linecap: square"/>
   </g>
   <g id="line2d_38">
    <path d="M 225.000532 28.063636 
L 227.406828 47.030579 
L 235.192327 65.997521 
L 242.673539 84.964463 
L 252.997389 103.931405 
L 269.922845 122.898347 
L 285.889096 141.865289 
L 291.247905 160.832231 
L 311.221585 179.799174 
L 318.917563 198.766116 
L 323.580816 217.733058 
L 341.203217 236.7 
L 338.037349 255.666942 
L 339.968364 274.633884 
L 336.92517 293.600826 
L 312.489042 312.567769 
L 290.508068 331.534711 
L 263.55859 350.501653 
L 225.256114 369.468595 
L 195.381393 388.435537 
L 164.478154 407.402479 
L 127.806783 426.369421 
L 109.057826 445.336364 
" clip-path="url(#p7292bb9a10)" style="fill: none; stroke: #756bb1; stroke-opacity: 0.2; stroke-width: 2; stroke-linecap: square"/>
   </g>
   <g id="line2d_39">
    <path d="M 225.635403 28.063636 
L 235.925243 47.030579 
L 235.41133 65.997521 
L 243.150767 84.964463 
L 257.1609 103.931405 
L 272.501762 122.898347 
L 281.806497 141.865289 
L 287.045577 160.832231 
L 303.11542 179.799174 
L 314.889971 198.766116 
L 329.115022 217.733058 
L 344.990885 236.7 
L 339.975785 255.666942 
L 339.840694 274.633884 
L 337.10122 293.600826 
L 314.13924 312.567769 
L 293.038343 331.534711 
L 252.87974 350.501653 
L 217.877509 369.468595 
L 186.034648 388.435537 
L 151.188198 407.402479 
L 126.335527 426.369421 
L 113.668493 445.336364 
" clip-path="url(#p7292bb9a10)" style="fill: none; stroke: #756bb1; stroke-opacity: 0.2; stroke-width: 2; stroke-linecap: square"/>
   </g>
   <g id="line2d_40">
    <path d="M 225.037564 28.063636 
L 234.855903 47.030579 
L 236.365455 65.997521 
L 244.686988 84.964463 
L 252.362129 103.931405 
L 267.321819 122.898347 
L 273.500032 141.865289 
L 295.308937 160.832231 
L 303.023602 179.799174 
L 315.460267 198.766116 
L 324.316327 217.733058 
L 341.251337 236.7 
L 343.385182 255.666942 
L 345.018474 274.633884 
L 327.205296 293.600826 
L 316.353992 312.567769 
L 292.199872 331.534711 
L 253.630382 350.501653 
L 223.309858 369.468595 
L 190.516233 388.435537 
L 155.658342 407.402479 
L 138.435306 426.369421 
L 121.558879 445.336364 
" clip-path="url(#p7292bb9a10)" style="fill: none; stroke: #756bb1; stroke-opacity: 0.2; stroke-width: 2; stroke-linecap: square"/>
   </g>
   <g id="line2d_41">
    <path d="M 225.472088 28.063636 
L 228.127936 47.030579 
L 241.613901 65.997521 
L 246.894102 84.964463 
L 257.56948 103.931405 
L 263.967601 122.898347 
L 283.88243 141.865289 
L 291.04531 160.832231 
L 305.66049 179.799174 
L 322.066463 198.766116 
L 328.234099 217.733058 
L 340.167773 236.7 
L 348.16497 255.666942 
L 341.922622 274.633884 
L 334.642516 293.600826 
L 316.734973 312.567769 
L 281.809027 331.534711 
L 249.908132 350.501653 
L 221.075815 369.468595 
L 189.681749 388.435537 
L 153.462939 407.402479 
L 136.073028 426.369421 
L 112.975619 445.336364 
" clip-path="url(#p7292bb9a10)" style="fill: none; stroke: #756bb1; stroke-opacity: 0.2; stroke-width: 2; stroke-linecap: square"/>
   </g>
   <g id="line2d_42">
    <path d="M 230.114132 28.063636 
L 229.32935 47.030579 
L 237.516931 65.997521 
L 246.315639 84.964463 
L 262.541535 103.931405 
L 273.067353 122.898347 
L 275.715362 141.865289 
L 291.603097 160.832231 
L 305.035028 179.799174 
L 316.997863 198.766116 
L 326.046918 217.733058 
L 340.816918 236.7 
L 341.779338 255.666942 
L 343.934661 274.633884 
L 333.749773 293.600826 
L 310.058294 312.567769 
L 291.738492 331.534711 
L 258.380197 350.501653 
L 229.344576 369.468595 
L 194.578751 388.435537 
L 161.531869 407.402479 
L 135.224375 426.369421 
L 113.549531 445.336364 
" clip-path="url(#p7292bb9a10)" style="fill: none; stroke: #756bb1; stroke-opacity: 0.2; stroke-width: 2; stroke-linecap: square"/>
   </g>
   <g id="line2d_43">
    <path d="M 230.235384 28.063636 
L 237.837672 47.030579 
L 240.919082 65.997521 
L 253.096396 84.964463 
L 254.98346 103.931405 
L 268.171664 122.898347 
L 280.606055 141.865289 
L 288.016254 160.832231 
L 310.932718 179.799174 
L 316.927399 198.766116 
L 332.33326 217.733058 
L 336.567966 236.7 
L 339.949598 255.666942 
L 339.823512 274.633884 
L 335.907408 293.600826 
L 312.357764 312.567769 
L 293.264059 331.534711 
L 256.477521 350.501653 
L 223.567773 369.468595 
L 186.466075 388.435537 
L 166.446273 407.402479 
L 142.604475 426.369421 
L 121.737814 445.336364 
" clip-path="url(#p7292bb9a10)" style="fill: none; stroke: #756bb1; stroke-opacity: 0.2; stroke-width: 2; stroke-linecap: square"/>
   </g>
   <g id="line2d_44">
    <path d="M 225.894987 28.063636 
L 231.884775 47.030579 
L 236.348548 65.997521 
L 247.474664 84.964463 
L 258.234308 103.931405 
L 270.536238 122.898347 
L 277.641995 141.865289 
L 290.449717 160.832231 
L 309.818538 179.799174 
L 315.625273 198.766116 
L 333.490774 217.733058 
L 345.78487 236.7 
L 339.783756 255.666942 
L 338.600751 274.633884 
L 329.030598 293.600826 
L 317.13962 312.567769 
L 283.477458 331.534711 
L 258.051438 350.501653 
L 217.747595 369.468595 
L 191.332731 388.435537 
L 154.792297 407.402479 
L 138.023221 426.369421 
L 116.048373 445.336364 
" clip-path="url(#p7292bb9a10)" style="fill: none; stroke: #756bb1; stroke-opacity: 0.2; stroke-width: 2; stroke-linecap: square"/>
   </g>
   <g id="line2d_45">
    <path d="M 225.974251 28.063636 
L 227.938928 47.030579 
L 241.176124 65.997521 
L 242.808971 84.964463 
L 251.688752 103.931405 
L 270.38728 122.898347 
L 281.618247 141.865289 
L 289.091614 160.832231 
L 310.012462 179.799174 
L 319.127636 198.766116 
L 328.619723 217.733058 
L 334.318474 236.7 
L 345.269552 255.666942 
L 344.499113 274.633884 
L 329.975138 293.600826 
L 309.225609 312.567769 
L 289.268775 331.534711 
L 255.924105 350.501653 
L 222.710497 369.468595 
L 199.037868 388.435537 
L 164.989079 407.402479 
L 136.196756 426.369421 
L 118.248117 445.336364 
" clip-path="url(#p7292bb9a10)" style="fill: none; stroke: #756bb1; stroke-opacity: 0.2; stroke-width: 2; stroke-linecap: square"/>
   </g>
   <g id="line2d_46">
    <path d="M 230.06787 28.063636 
L 234.642712 47.030579 
L 237.199849 65.997521 
L 249.506358 84.964463 
L 260.591107 103.931405 
L 268.330759 122.898347 
L 281.943809 141.865289 
L 287.10854 160.832231 
L 310.19823 179.799174 
L 316.331831 198.766116 
L 334.023632 217.733058 
L 337.467822 236.7 
L 343.209706 255.666942 
L 338.330323 274.633884 
L 326.890126 293.600826 
L 307.498053 312.567769 
L 288.211656 331.534711 
L 252.587478 350.501653 
L 227.737407 369.468595 
L 189.068465 388.435537 
L 159.678788 407.402479 
L 137.025211 426.369421 
L 109.231598 445.336364 
" clip-path="url(#p7292bb9a10)" style="fill: none; stroke: #756bb1; stroke-opacity: 0.2; stroke-width: 2; stroke-linecap: square"/>
   </g>
   <g id="line2d_47">
    <path d="M 232.504499 28.063636 
L 232.612719 47.030579 
L 241.557476 65.997521 
L 252.468742 84.964463 
L 254.284257 103.931405 
L 263.994166 122.898347 
L 281.578533 141.865289 
L 293.380358 160.832231 
L 310.69413 179.799174 
L 312.592795 198.766116 
L 328.295016 217.733058 
L 342.829033 236.7 
L 344.389984 255.666942 
L 341.165256 274.633884 
L 327.715411 293.600826 
L 310.446899 312.567769 
L 287.312407 331.534711 
L 259.170973 350.501653 
L 220.409138 369.468595 
L 184.894698 388.435537 
L 165.141972 407.402479 
L 137.581345 426.369421 
L 113.723736 445.336364 
" clip-path="url(#p7292bb9a10)" style="fill: none; stroke: #756bb1; stroke-opacity: 0.2; stroke-width: 2; stroke-linecap: square"/>
   </g>
   <g id="line2d_48">
    <path d="M 229.110277 28.063636 
L 230.678137 47.030579 
L 246.955249 65.997521 
L 247.721497 84.964463 
L 262.254513 103.931405 
L 263.81398 122.898347 
L 285.907044 141.865289 
L 294.417925 160.832231 
L 299.752188 179.799174 
L 314.232802 198.766116 
L 330.703631 217.733058 
L 333.395786 236.7 
L 341.255766 255.666942 
L 336.880756 274.633884 
L 325.374373 293.600826 
L 310.178105 312.567769 
L 284.266701 331.534711 
L 253.528306 350.501653 
L 220.698169 369.468595 
L 186.189761 388.435537 
L 153.449085 407.402479 
L 125.836987 426.369421 
L 109.139138 445.336364 
" clip-path="url(#p7292bb9a10)" style="fill: none; stroke: #756bb1; stroke-opacity: 0.2; stroke-width: 2; stroke-linecap: square"/>
   </g>
   <g id="line2d_49">
    <path d="M 231.486416 28.063636 
L 234.545353 47.030579 
L 241.821214 65.997521 
L 244.897829 84.964463 
L 256.98617 103.931405 
L 267.151721 122.898347 
L 281.296852 141.865289 
L 295.088153 160.832231 
L 308.532276 179.799174 
L 322.281184 198.766116 
L 332.605886 217.733058 
L 338.840622 236.7 
L 339.106517 255.666942 
L 337.295837 274.633884 
L 335.857681 293.600826 
L 316.365084 312.567769 
L 281.368031 331.534711 
L 251.482123 350.501653 
L 220.933315 369.468595 
L 186.817929 388.435537 
L 157.433732 407.402479 
L 141.61499 426.369421 
L 116.619289 445.336364 
" clip-path="url(#p7292bb9a10)" style="fill: none; stroke: #756bb1; stroke-opacity: 0.2; stroke-width: 2; stroke-linecap: square"/>
   </g>
   <g id="line2d_50">
    <path d="M 223.870652 28.063636 
L 236.408809 47.030579 
L 241.169481 65.997521 
L 243.498408 84.964463 
L 260.846715 103.931405 
L 272.310946 122.898347 
L 284.894404 141.865289 
L 289.107987 160.832231 
L 299.401336 179.799174 
L 320.848709 198.766116 
L 333.575278 217.733058 
L 340.776019 236.7 
L 345.709263 255.666942 
L 346.768146 274.633884 
L 329.346712 293.600826 
L 318.53595 312.567769 
L 290.964216 331.534711 
L 261.309794 350.501653 
L 222.634171 369.468595 
L 194.074218 388.435537 
L 163.433487 407.402479 
L 138.889281 426.369421 
L 119.733864 445.336364 
" clip-path="url(#p7292bb9a10)" style="fill: none; stroke: #756bb1; stroke-opacity: 0.2; stroke-width: 2; stroke-linecap: square"/>
   </g>
   <g id="line2d_51">
    <path d="M 224.330946 28.063636 
L 236.113417 47.030579 
L 234.794315 65.997521 
L 252.456317 84.964463 
L 253.34243 103.931405 
L 264.688714 122.898347 
L 275.941288 141.865289 
L 297.775801 160.832231 
L 305.904004 179.799174 
L 321.730318 198.766116 
L 328.895976 217.733058 
L 335.738028 236.7 
L 344.227692 255.666942 
L 338.719234 274.633884 
L 328.269656 293.600826 
L 316.329354 312.567769 
L 296.276739 331.534711 
L 254.543588 350.501653 
L 226.548529 369.468595 
L 185.230723 388.435537 
L 154.44386 407.402479 
L 138.497427 426.369421 
L 112.3067 445.336364 
" clip-path="url(#p7292bb9a10)" style="fill: none; stroke: #756bb1; stroke-opacity: 0.2; stroke-width: 2; stroke-linecap: square"/>
   </g>
   <g id="line2d_52">
    <path d="M 232.900859 28.063636 
L 235.201133 47.030579 
L 244.804886 65.997521 
L 247.952746 84.964463 
L 254.879738 103.931405 
L 275.586182 122.898347 
L 280.238466 141.865289 
L 291.290221 160.832231 
L 306.232925 179.799174 
L 324.970911 198.766116 
L 334.000391 217.733058 
L 334.925417 236.7 
L 346.534585 255.666942 
L 340.898717 274.633884 
L 335.522335 293.600826 
L 308.321328 312.567769 
L 283.955956 331.534711 
L 250.295718 350.501653 
L 222.430553 369.468595 
L 193.368911 388.435537 
L 157.825035 407.402479 
L 139.397353 426.369421 
L 115.333519 445.336364 
" clip-path="url(#p7292bb9a10)" style="fill: none; stroke: #756bb1; stroke-opacity: 0.2; stroke-width: 2; stroke-linecap: square"/>
   </g>
   <g id="line2d_53">
    <path d="M 227.707111 28.063636 
L 233.220571 47.030579 
L 244.47274 65.997521 
L 244.692791 84.964463 
L 260.474408 103.931405 
L 270.909632 122.898347 
L 285.426402 141.865289 
L 293.040085 160.832231 
L 306.505596 179.799174 
L 326.503459 198.766116 
L 328.68459 217.733058 
L 339.444922 236.7 
L 347.88957 255.666942 
L 342.923264 274.633884 
L 334.792495 293.600826 
L 310.886808 312.567769 
L 286.573169 331.534711 
L 256.956736 350.501653 
L 220.794216 369.468595 
L 195.566522 388.435537 
L 160.490432 407.402479 
L 133.68741 426.369421 
L 120.708837 445.336364 
" clip-path="url(#p7292bb9a10)" style="fill: none; stroke: #756bb1; stroke-opacity: 0.2; stroke-width: 2; stroke-linecap: square"/>
   </g>
   <g id="line2d_54">
    <path d="M 224.911473 28.063636 
L 231.876691 47.030579 
L 242.533814 65.997521 
L 245.778237 84.964463 
L 260.83439 103.931405 
L 270.313921 122.898347 
L 276.859827 141.865289 
L 298.091381 160.832231 
L 300.001762 179.799174 
L 313.045993 198.766116 
L 328.712603 217.733058 
L 340.403491 236.7 
L 342.58173 255.666942 
L 338.572111 274.633884 
L 327.981167 293.600826 
L 312.695499 312.567769 
L 283.694415 331.534711 
L 253.337079 350.501653 
L 223.037321 369.468595 
L 183.515704 388.435537 
L 160.762997 407.402479 
L 131.404295 426.369421 
L 116.06941 445.336364 
" clip-path="url(#p7292bb9a10)" style="fill: none; stroke: #756bb1; stroke-opacity: 0.2; stroke-width: 2; stroke-linecap: square"/>
   </g>
   <g id="line2d_55">
    <path d="M 227.700683 28.063636 
L 228.73829 47.030579 
L 244.687583 65.997521 
L 246.270093 84.964463 
L 252.555633 103.931405 
L 274.410959 122.898347 
L 282.445863 141.865289 
L 290.001164 160.832231 
L 312.469513 179.799174 
L 318.836265 198.766116 
L 337.851473 217.733058 
L 344.158814 236.7 
L 350.157052 255.666942 
L 339.689723 274.633884 
L 331.701528 293.600826 
L 320.314564 312.567769 
L 293.443613 331.534711 
L 257.494242 350.501653 
L 222.158967 369.468595 
L 184.87819 388.435537 
L 151.515664 407.402479 
L 129.300389 426.369421 
L 117.752243 445.336364 
" clip-path="url(#p7292bb9a10)" style="fill: none; stroke: #756bb1; stroke-opacity: 0.2; stroke-width: 2; stroke-linecap: square"/>
   </g>
   <g id="line2d_56">
    <path d="M 221.658809 28.063636 
L 233.386536 47.030579 
L 239.206756 65.997521 
L 250.95169 84.964463 
L 260.232259 103.931405 
L 273.037883 122.898347 
L 275.135492 141.865289 
L 291.871064 160.832231 
L 303.446701 179.799174 
L 321.351074 198.766116 
L 331.233171 217.733058 
L 338.339524 236.7 
L 335.909833 255.666942 
L 343.147569 274.633884 
L 325.057059 293.600826 
L 311.087419 312.567769 
L 293.750276 331.534711 
L 254.205974 350.501653 
L 225.684877 369.468595 
L 182.896513 388.435537 
L 155.449251 407.402479 
L 133.962514 426.369421 
L 106.028977 445.336364 
" clip-path="url(#p7292bb9a10)" style="fill: none; stroke: #756bb1; stroke-opacity: 0.2; stroke-width: 2; stroke-linecap: square"/>
   </g>
   <g id="line2d_57">
    <path d="M 230.263474 28.063636 
L 236.392391 47.030579 
L 247.866172 65.997521 
L 255.973204 84.964463 
L 261.888788 103.931405 
L 270.679219 122.898347 
L 276.186835 141.865289 
L 287.560877 160.832231 
L 309.867316 179.799174 
L 314.889923 198.766116 
L 330.683915 217.733058 
L 337.114123 236.7 
L 339.507427 255.666942 
L 339.636128 274.633884 
L 337.203682 293.600826 
L 314.658681 312.567769 
L 291.243504 331.534711 
L 258.624003 350.501653 
L 219.818079 369.468595 
L 194.363051 388.435537 
L 156.737698 407.402479 
L 133.050516 426.369421 
L 116.416188 445.336364 
" clip-path="url(#p7292bb9a10)" style="fill: none; stroke: #756bb1; stroke-opacity: 0.2; stroke-width: 2; stroke-linecap: square"/>
   </g>
   <g id="line2d_58">
    <path d="M 227.57709 28.063636 
L 227.476477 47.030579 
L 235.334211 65.997521 
L 252.38139 84.964463 
L 254.627097 103.931405 
L 267.505431 122.898347 
L 278.840944 141.865289 
L 291.18933 160.832231 
L 302.627526 179.799174 
L 319.536519 198.766116 
L 325.218105 217.733058 
L 339.768325 236.7 
L 345.412759 255.666942 
L 343.507684 274.633884 
L 326.127008 293.600826 
L 311.054522 312.567769 
L 283.803416 331.534711 
L 260.080701 350.501653 
L 225.424588 369.468595 
L 190.770308 388.435537 
L 154.202779 407.402479 
L 139.505917 426.369421 
L 118.370335 445.336364 
" clip-path="url(#p7292bb9a10)" style="fill: none; stroke: #756bb1; stroke-opacity: 0.2; stroke-width: 2; stroke-linecap: square"/>
   </g>
   <g id="line2d_59">
    <path d="M 224.961445 28.063636 
L 230.324915 47.030579 
L 236.919561 65.997521 
L 245.309089 84.964463 
L 251.817788 103.931405 
L 264.819867 122.898347 
L 278.201356 141.865289 
L 295.97517 160.832231 
L 307.518864 179.799174 
L 321.659807 198.766116 
L 335.417648 217.733058 
L 342.163668 236.7 
L 337.352287 255.666942 
L 346.864515 274.633884 
L 334.265744 293.600826 
L 311.654776 312.567769 
L 285.814405 331.534711 
L 262.472489 350.501653 
L 228.898505 369.468595 
L 193.152147 388.435537 
L 164.976658 407.402479 
L 132.564127 426.369421 
L 122.605369 445.336364 
" clip-path="url(#p7292bb9a10)" style="fill: none; stroke: #756bb1; stroke-opacity: 0.2; stroke-width: 2; stroke-linecap: square"/>
   </g>
   <g id="line2d_60">
    <path d="M 225.392527 28.063636 
L 235.034753 47.030579 
L 240.102318 65.997521 
L 243.315084 84.964463 
L 251.260444 103.931405 
L 269.895057 122.898347 
L 284.098214 141.865289 
L 298.207141 160.832231 
L 301.206984 179.799174 
L 316.802114 198.766116 
L 333.958308 217.733058 
L 341.612062 236.7 
L 347.924396 255.666942 
L 337.144088 274.633884 
L 333.513135 293.600826 
L 318.099207 312.567769 
L 289.369153 331.534711 
L 262.435593 350.501653 
L 219.440591 369.468595 
L 186.039938 388.435537 
L 165.432775 407.402479 
L 129.840153 426.369421 
L 112.049351 445.336364 
" clip-path="url(#p7292bb9a10)" style="fill: none; stroke: #756bb1; stroke-opacity: 0.2; stroke-width: 2; stroke-linecap: square"/>
   </g>
   <g id="line2d_61"/>
   <g id="line2d_62">
    <path d="M 226.786643 28.063636 
L 232.834416 47.030579 
L 239.847356 65.997521 
L 248.103855 84.964463 
L 257.530755 103.931405 
L 268.240385 122.898347 
L 280.093062 141.865289 
L 292.780181 160.832231 
L 306.092605 179.799174 
L 318.940355 198.766116 
L 330.404865 217.733058 
L 339.073312 236.7 
L 343.330653 255.666942 
L 341.290215 274.633884 
L 331.763752 293.600826 
L 313.921944 312.567769 
L 288.382431 331.534711 
L 257.118391 350.501653 
L 223.093331 369.468595 
L 189.615102 388.435537 
L 159.877994 407.402479 
L 135.360497 426.369421 
L 116.654938 445.336364 
" clip-path="url(#p7292bb9a10)" style="fill: none; stroke: #39146b; stroke-width: 4; stroke-linecap: square"/>
   </g>
   <g id="line2d_63">
    <path d="M 225.720031 28.063636 
L 228.941089 47.030579 
L 243.122274 65.997521 
L 249.075702 84.964463 
L 260.183813 103.931405 
L 266.541406 122.898347 
L 285.784235 141.865289 
L 291.659856 160.832231 
L 304.62179 179.799174 
L 319.449977 198.766116 
L 324.593738 217.733058 
L 336.367807 236.7 
L 345.073846 255.666942 
L 340.12013 274.633884 
L 334.280474 293.600826 
L 317.595934 312.567769 
L 283.494473 331.534711 
L 252.029831 350.501653 
L 223.357315 369.468595 
L 191.964429 388.435537 
L 155.669044 407.402479 
L 138.171367 426.369421 
L 114.961892 445.336364 
" clip-path="url(#p7292bb9a10)" style="fill: none; stroke: #e40000; stroke-width: 4; stroke-linecap: square"/>
    <defs>
     <path id="me19b83c6cf" d="M -5 5 
L 5 -5 
M -5 -5 
L 5 5 
" style="stroke: #e40000"/>
    </defs>
    <g clip-path="url(#p7292bb9a10)">
     <use xlink:href="#me19b83c6cf" x="225.720031" y="28.063636" style="fill: #e40000; stroke: #e40000"/>
     <use xlink:href="#me19b83c6cf" x="228.941089" y="47.030579" style="fill: #e40000; stroke: #e40000"/>
     <use xlink:href="#me19b83c6cf" x="243.122274" y="65.997521" style="fill: #e40000; stroke: #e40000"/>
     <use xlink:href="#me19b83c6cf" x="249.075702" y="84.964463" style="fill: #e40000; stroke: #e40000"/>
     <use xlink:href="#me19b83c6cf" x="260.183813" y="103.931405" style="fill: #e40000; stroke: #e40000"/>
     <use xlink:href="#me19b83c6cf" x="266.541406" y="122.898347" style="fill: #e40000; stroke: #e40000"/>
     <use xlink:href="#me19b83c6cf" x="285.784235" y="141.865289" style="fill: #e40000; stroke: #e40000"/>
     <use xlink:href="#me19b83c6cf" x="291.659856" y="160.832231" style="fill: #e40000; stroke: #e40000"/>
     <use xlink:href="#me19b83c6cf" x="304.62179" y="179.799174" style="fill: #e40000; stroke: #e40000"/>
     <use xlink:href="#me19b83c6cf" x="319.449977" y="198.766116" style="fill: #e40000; stroke: #e40000"/>
     <use xlink:href="#me19b83c6cf" x="324.593738" y="217.733058" style="fill: #e40000; stroke: #e40000"/>
     <use xlink:href="#me19b83c6cf" x="336.367807" y="236.7" style="fill: #e40000; stroke: #e40000"/>
     <use xlink:href="#me19b83c6cf" x="345.073846" y="255.666942" style="fill: #e40000; stroke: #e40000"/>
     <use xlink:href="#me19b83c6cf" x="340.12013" y="274.633884" style="fill: #e40000; stroke: #e40000"/>
     <use xlink:href="#me19b83c6cf" x="334.280474" y="293.600826" style="fill: #e40000; stroke: #e40000"/>
     <use xlink:href="#me19b83c6cf" x="317.595934" y="312.567769" style="fill: #e40000; stroke: #e40000"/>
     <use xlink:href="#me19b83c6cf" x="283.494473" y="331.534711" style="fill: #e40000; stroke: #e40000"/>
     <use xlink:href="#me19b83c6cf" x="252.029831" y="350.501653" style="fill: #e40000; stroke: #e40000"/>
     <use xlink:href="#me19b83c6cf" x="223.357315" y="369.468595" style="fill: #e40000; stroke: #e40000"/>
     <use xlink:href="#me19b83c6cf" x="191.964429" y="388.435537" style="fill: #e40000; stroke: #e40000"/>
     <use xlink:href="#me19b83c6cf" x="155.669044" y="407.402479" style="fill: #e40000; stroke: #e40000"/>
     <use xlink:href="#me19b83c6cf" x="138.171367" y="426.369421" style="fill: #e40000; stroke: #e40000"/>
     <use xlink:href="#me19b83c6cf" x="114.961892" y="445.336364" style="fill: #e40000; stroke: #e40000"/>
    </g>
   </g>
   <g id="patch_3">
    <path d="M 83.75625 466.2 
L 83.75625 7.2 
" style="fill: none; stroke: #000000; stroke-width: 2; stroke-linejoin: miter; stroke-linecap: square"/>
   </g>
   <g id="patch_4">
    <path d="M 93.75625 476.2 
L 363.75625 476.2 
" style="fill: none; stroke: #000000; stroke-width: 2; stroke-linejoin: miter; stroke-linecap: square"/>
   </g>
  </g>
 </g>
 <defs>
  <clipPath id="p7292bb9a10">
   <rect x="93.75625" y="7.2" width="270" height="459"/>
  </clipPath>
 </defs>
</svg>
