<?xml version="1.0" encoding="utf-8" standalone="no"?>
<!DOCTYPE svg PUBLIC "-//W3C//DTD SVG 1.1//EN"
  "http://www.w3.org/Graphics/SVG/1.1/DTD/svg11.dtd">
<svg xmlns:xlink="http://www.w3.org/1999/xlink" width="284.4pt" height="544.35625pt" viewBox="0 0 284.4 544.35625" xmlns="http://www.w3.org/2000/svg" version="1.1">
 <metadata>
  <rdf:RDF xmlns:dc="http://purl.org/dc/elements/1.1/" xmlns:cc="http://creativecommons.org/ns#" xmlns:rdf="http://www.w3.org/1999/02/22-rdf-syntax-ns#">
   <cc:Work>
    <dc:type rdf:resource="http://purl.org/dc/dcmitype/StillImage"/>
    <dc:date>2024-07-06T14:15:51.693424</dc:date>
    <dc:format>image/svg+xml</dc:format>
    <dc:creator>
     <cc:Agent>
      <dc:title>Matplotlib v3.8.0, https://matplotlib.org/</dc:title>
     </cc:Agent>
    </dc:creator>
   </cc:Work>
  </rdf:RDF>
 </metadata>
 <defs>
  <style type="text/css">*{stroke-linejoin: round; stroke-linecap: butt}</style>
 </defs>
 <g id="figure_1">
  <g id="patch_1">
   <path d="M 0 544.35625 
L 284.4 544.35625 
L 284.4 0 
L 0 0 
z
" style="fill: #ffffff"/>
  </g>
  <g id="axes_1">
   <g id="patch_2">
    <path d="M 7.2 466.2 
L 277.2 466.2 
L 277.2 7.2 
L 7.2 7.2 
z
" style="fill: #ffffff"/>
   </g>
   <g id="PolyCollection_1">
    <defs>
     <path id="m2b1db21744" d="M 132.181056 -516.292614 
L 148.438495 -516.292614 
L 150.948857 -497.325671 
L 155.997506 -478.358729 
L 162.881034 -459.391787 
L 172.573549 -440.424845 
L 185.004646 -421.457903 
L 199.199609 -402.490961 
L 214.412237 -383.524019 
L 229.099495 -364.557076 
L 242.778624 -345.590134 
L 254.424733 -326.623192 
L 262.3657 -307.65625 
L 264.680842 -288.689308 
L 261.425314 -269.722366 
L 250.731988 -250.755424 
L 231.331877 -231.788481 
L 205.474125 -212.821539 
L 174.375989 -193.854597 
L 141.35932 -174.887655 
L 108.498447 -155.920713 
L 79.757734 -136.953771 
L 56.174747 -117.986829 
L 37.709535 -99.019886 
L 21.543858 -99.019886 
L 21.543858 -99.019886 
L 39.390479 -117.986829 
L 63.222588 -136.953771 
L 91.323096 -155.920713 
L 123.028834 -174.887655 
L 155.657461 -193.854597 
L 185.879968 -212.821539 
L 209.721336 -231.788481 
L 227.228261 -250.755424 
L 238.424599 -269.722366 
L 242.364637 -288.689308 
L 240.973937 -307.65625 
L 233.22958 -326.623192 
L 223.011159 -345.590134 
L 209.281994 -364.557076 
L 194.154817 -383.524019 
L 179.976796 -402.490961 
L 166.956858 -421.457903 
L 156.222616 -440.424845 
L 147.863948 -459.391787 
L 140.869718 -478.358729 
L 136.865732 -497.325671 
L 132.181056 -516.292614 
z
" style="stroke: #756bb1; stroke-opacity: 0.5"/>
    </defs>
    <g clip-path="url(#p2a04dc2958)">
     <use xlink:href="#m2b1db21744" x="0" y="544.35625" style="fill: #756bb1; fill-opacity: 0.5; stroke: #756bb1; stroke-opacity: 0.5"/>
    </g>
   </g>
   <g id="matplotlib.axis_1">
    <g id="xtick_1">
     <g id="line2d_1">
      <defs>
       <path id="m5cb7cd2c6a" d="M 0 0 
L 0 3.5 
" style="stroke: #000000; stroke-width: 1.5"/>
      </defs>
      <g>
       <use xlink:href="#m5cb7cd2c6a" x="119.652076" y="476.2" style="stroke: #000000; stroke-width: 1.5"/>
      </g>
     </g>
     <g id="text_1">
      <!-- 500 -->
      <g transform="translate(100.564576 498.396875) scale(0.2 -0.2)">
       <defs>
        <path id="DejaVuSans-35" d="M 691 4666 
L 3169 4666 
L 3169 4134 
L 1269 4134 
L 1269 2991 
Q 1406 3038 1543 3061 
Q 1681 3084 1819 3084 
Q 2600 3084 3056 2656 
Q 3513 2228 3513 1497 
Q 3513 744 3044 326 
Q 2575 -91 1722 -91 
Q 1428 -91 1123 -41 
Q 819 9 494 109 
L 494 744 
Q 775 591 1075 516 
Q 1375 441 1709 441 
Q 2250 441 2565 725 
Q 2881 1009 2881 1497 
Q 2881 1984 2565 2268 
Q 2250 2553 1709 2553 
Q 1456 2553 1204 2497 
Q 953 2441 691 2322 
L 691 4666 
z
" transform="scale(0.015625)"/>
        <path id="DejaVuSans-30" d="M 2034 4250 
Q 1547 4250 1301 3770 
Q 1056 3291 1056 2328 
Q 1056 1369 1301 889 
Q 1547 409 2034 409 
Q 2525 409 2770 889 
Q 3016 1369 3016 2328 
Q 3016 3291 2770 3770 
Q 2525 4250 2034 4250 
z
M 2034 4750 
Q 2819 4750 3233 4129 
Q 3647 3509 3647 2328 
Q 3647 1150 3233 529 
Q 2819 -91 2034 -91 
Q 1250 -91 836 529 
Q 422 1150 422 2328 
Q 422 3509 836 4129 
Q 1250 4750 2034 4750 
z
" transform="scale(0.015625)"/>
       </defs>
       <use xlink:href="#DejaVuSans-35"/>
       <use xlink:href="#DejaVuSans-30" x="63.623047"/>
       <use xlink:href="#DejaVuSans-30" x="127.246094"/>
      </g>
     </g>
    </g>
    <g id="xtick_2">
     <g id="line2d_2">
      <g>
       <use xlink:href="#m5cb7cd2c6a" x="236.555339" y="476.2" style="stroke: #000000; stroke-width: 1.5"/>
      </g>
     </g>
     <g id="text_2">
      <!-- 600 -->
      <g transform="translate(217.467839 498.396875) scale(0.2 -0.2)">
       <defs>
        <path id="DejaVuSans-36" d="M 2113 2584 
Q 1688 2584 1439 2293 
Q 1191 2003 1191 1497 
Q 1191 994 1439 701 
Q 1688 409 2113 409 
Q 2538 409 2786 701 
Q 3034 994 3034 1497 
Q 3034 2003 2786 2293 
Q 2538 2584 2113 2584 
z
M 3366 4563 
L 3366 3988 
Q 3128 4100 2886 4159 
Q 2644 4219 2406 4219 
Q 1781 4219 1451 3797 
Q 1122 3375 1075 2522 
Q 1259 2794 1537 2939 
Q 1816 3084 2150 3084 
Q 2853 3084 3261 2657 
Q 3669 2231 3669 1497 
Q 3669 778 3244 343 
Q 2819 -91 2113 -91 
Q 1303 -91 875 529 
Q 447 1150 447 2328 
Q 447 3434 972 4092 
Q 1497 4750 2381 4750 
Q 2619 4750 2861 4703 
Q 3103 4656 3366 4563 
z
" transform="scale(0.015625)"/>
       </defs>
       <use xlink:href="#DejaVuSans-36"/>
       <use xlink:href="#DejaVuSans-30" x="63.623047"/>
       <use xlink:href="#DejaVuSans-30" x="127.246094"/>
      </g>
     </g>
    </g>
    <g id="text_3">
     <!-- Apparent Resistivity [$\Omega m$] -->
     <g transform="translate(-4.6 532.75625) scale(0.2 -0.2)">
      <defs>
       <path id="DejaVuSans-Bold-41" d="M 3419 850 
L 1538 850 
L 1241 0 
L 31 0 
L 1759 4666 
L 3194 4666 
L 4922 0 
L 3713 0 
L 3419 850 
z
M 1838 1716 
L 3116 1716 
L 2478 3572 
L 1838 1716 
z
" transform="scale(0.015625)"/>
       <path id="DejaVuSans-Bold-70" d="M 1656 506 
L 1656 -1331 
L 538 -1331 
L 538 3500 
L 1656 3500 
L 1656 2988 
Q 1888 3294 2169 3439 
Q 2450 3584 2816 3584 
Q 3463 3584 3878 3070 
Q 4294 2556 4294 1747 
Q 4294 938 3878 423 
Q 3463 -91 2816 -91 
Q 2450 -91 2169 54 
Q 1888 200 1656 506 
z
M 2400 2772 
Q 2041 2772 1848 2508 
Q 1656 2244 1656 1747 
Q 1656 1250 1848 986 
Q 2041 722 2400 722 
Q 2759 722 2948 984 
Q 3138 1247 3138 1747 
Q 3138 2247 2948 2509 
Q 2759 2772 2400 2772 
z
" transform="scale(0.015625)"/>
       <path id="DejaVuSans-Bold-61" d="M 2106 1575 
Q 1756 1575 1579 1456 
Q 1403 1338 1403 1106 
Q 1403 894 1545 773 
Q 1688 653 1941 653 
Q 2256 653 2472 879 
Q 2688 1106 2688 1447 
L 2688 1575 
L 2106 1575 
z
M 3816 1997 
L 3816 0 
L 2688 0 
L 2688 519 
Q 2463 200 2181 54 
Q 1900 -91 1497 -91 
Q 953 -91 614 226 
Q 275 544 275 1050 
Q 275 1666 698 1953 
Q 1122 2241 2028 2241 
L 2688 2241 
L 2688 2328 
Q 2688 2594 2478 2717 
Q 2269 2841 1825 2841 
Q 1466 2841 1156 2769 
Q 847 2697 581 2553 
L 581 3406 
Q 941 3494 1303 3539 
Q 1666 3584 2028 3584 
Q 2975 3584 3395 3211 
Q 3816 2838 3816 1997 
z
" transform="scale(0.015625)"/>
       <path id="DejaVuSans-Bold-72" d="M 3138 2547 
Q 2991 2616 2845 2648 
Q 2700 2681 2553 2681 
Q 2122 2681 1889 2404 
Q 1656 2128 1656 1613 
L 1656 0 
L 538 0 
L 538 3500 
L 1656 3500 
L 1656 2925 
Q 1872 3269 2151 3426 
Q 2431 3584 2822 3584 
Q 2878 3584 2943 3579 
Q 3009 3575 3134 3559 
L 3138 2547 
z
" transform="scale(0.015625)"/>
       <path id="DejaVuSans-Bold-65" d="M 4031 1759 
L 4031 1441 
L 1416 1441 
Q 1456 1047 1700 850 
Q 1944 653 2381 653 
Q 2734 653 3104 758 
Q 3475 863 3866 1075 
L 3866 213 
Q 3469 63 3072 -14 
Q 2675 -91 2278 -91 
Q 1328 -91 801 392 
Q 275 875 275 1747 
Q 275 2603 792 3093 
Q 1309 3584 2216 3584 
Q 3041 3584 3536 3087 
Q 4031 2591 4031 1759 
z
M 2881 2131 
Q 2881 2450 2695 2645 
Q 2509 2841 2209 2841 
Q 1884 2841 1681 2658 
Q 1478 2475 1428 2131 
L 2881 2131 
z
" transform="scale(0.015625)"/>
       <path id="DejaVuSans-Bold-6e" d="M 4056 2131 
L 4056 0 
L 2931 0 
L 2931 347 
L 2931 1631 
Q 2931 2084 2911 2256 
Q 2891 2428 2841 2509 
Q 2775 2619 2662 2680 
Q 2550 2741 2406 2741 
Q 2056 2741 1856 2470 
Q 1656 2200 1656 1722 
L 1656 0 
L 538 0 
L 538 3500 
L 1656 3500 
L 1656 2988 
Q 1909 3294 2193 3439 
Q 2478 3584 2822 3584 
Q 3428 3584 3742 3212 
Q 4056 2841 4056 2131 
z
" transform="scale(0.015625)"/>
       <path id="DejaVuSans-Bold-74" d="M 1759 4494 
L 1759 3500 
L 2913 3500 
L 2913 2700 
L 1759 2700 
L 1759 1216 
Q 1759 972 1856 886 
Q 1953 800 2241 800 
L 2816 800 
L 2816 0 
L 1856 0 
Q 1194 0 917 276 
Q 641 553 641 1216 
L 641 2700 
L 84 2700 
L 84 3500 
L 641 3500 
L 641 4494 
L 1759 4494 
z
" transform="scale(0.015625)"/>
       <path id="DejaVuSans-Bold-20" transform="scale(0.015625)"/>
       <path id="DejaVuSans-Bold-52" d="M 2297 2597 
Q 2675 2597 2839 2737 
Q 3003 2878 3003 3200 
Q 3003 3519 2839 3656 
Q 2675 3794 2297 3794 
L 1791 3794 
L 1791 2597 
L 2297 2597 
z
M 1791 1766 
L 1791 0 
L 588 0 
L 588 4666 
L 2425 4666 
Q 3347 4666 3776 4356 
Q 4206 4047 4206 3378 
Q 4206 2916 3982 2619 
Q 3759 2322 3309 2181 
Q 3556 2125 3751 1926 
Q 3947 1728 4147 1325 
L 4800 0 
L 3519 0 
L 2950 1159 
Q 2778 1509 2601 1637 
Q 2425 1766 2131 1766 
L 1791 1766 
z
" transform="scale(0.015625)"/>
       <path id="DejaVuSans-Bold-73" d="M 3272 3391 
L 3272 2541 
Q 2913 2691 2578 2766 
Q 2244 2841 1947 2841 
Q 1628 2841 1473 2761 
Q 1319 2681 1319 2516 
Q 1319 2381 1436 2309 
Q 1553 2238 1856 2203 
L 2053 2175 
Q 2913 2066 3209 1816 
Q 3506 1566 3506 1031 
Q 3506 472 3093 190 
Q 2681 -91 1863 -91 
Q 1516 -91 1145 -36 
Q 775 19 384 128 
L 384 978 
Q 719 816 1070 734 
Q 1422 653 1784 653 
Q 2113 653 2278 743 
Q 2444 834 2444 1013 
Q 2444 1163 2330 1236 
Q 2216 1309 1875 1350 
L 1678 1375 
Q 931 1469 631 1722 
Q 331 1975 331 2491 
Q 331 3047 712 3315 
Q 1094 3584 1881 3584 
Q 2191 3584 2531 3537 
Q 2872 3491 3272 3391 
z
" transform="scale(0.015625)"/>
       <path id="DejaVuSans-Bold-69" d="M 538 3500 
L 1656 3500 
L 1656 0 
L 538 0 
L 538 3500 
z
M 538 4863 
L 1656 4863 
L 1656 3950 
L 538 3950 
L 538 4863 
z
" transform="scale(0.015625)"/>
       <path id="DejaVuSans-Bold-76" d="M 97 3500 
L 1216 3500 
L 2088 1081 
L 2956 3500 
L 4078 3500 
L 2700 0 
L 1472 0 
L 97 3500 
z
" transform="scale(0.015625)"/>
       <path id="DejaVuSans-Bold-79" d="M 78 3500 
L 1197 3500 
L 2138 1125 
L 2938 3500 
L 4056 3500 
L 2584 -331 
Q 2363 -916 2067 -1148 
Q 1772 -1381 1288 -1381 
L 641 -1381 
L 641 -647 
L 991 -647 
Q 1275 -647 1404 -556 
Q 1534 -466 1606 -231 
L 1638 -134 
L 78 3500 
z
" transform="scale(0.015625)"/>
       <path id="DejaVuSans-Bold-5b" d="M 550 4863 
L 2491 4863 
L 2491 4159 
L 1613 4159 
L 1613 -141 
L 2491 -141 
L 2491 -844 
L 550 -844 
L 550 4863 
z
" transform="scale(0.015625)"/>
       <path id="DejaVuSans-Bold-3a9" d="M 2719 4750 
Q 3841 4750 4480 4106 
Q 5119 3463 5119 2494 
Q 5119 1406 4306 909 
L 5266 909 
L 5266 0 
L 3125 0 
L 3125 975 
Q 3244 1041 3334 1131 
Q 3875 1678 3875 2466 
Q 3875 3066 3572 3472 
Q 3269 3878 2719 3878 
Q 2169 3878 1866 3472 
Q 1563 3066 1563 2466 
Q 1563 1678 2103 1131 
Q 2194 1041 2313 975 
L 2313 0 
L 172 0 
L 172 909 
L 1131 909 
Q 319 1406 319 2494 
Q 319 3463 958 4106 
Q 1597 4750 2719 4750 
z
" transform="scale(0.015625)"/>
       <path id="DejaVuSans-Bold-6d" d="M 3781 2919 
Q 3994 3244 4286 3414 
Q 4578 3584 4928 3584 
Q 5531 3584 5847 3212 
Q 6163 2841 6163 2131 
L 6163 0 
L 5038 0 
L 5038 1825 
Q 5041 1866 5042 1909 
Q 5044 1953 5044 2034 
Q 5044 2406 4934 2573 
Q 4825 2741 4581 2741 
Q 4263 2741 4089 2478 
Q 3916 2216 3909 1719 
L 3909 0 
L 2784 0 
L 2784 1825 
Q 2784 2406 2684 2573 
Q 2584 2741 2328 2741 
Q 2006 2741 1831 2477 
Q 1656 2213 1656 1722 
L 1656 0 
L 531 0 
L 531 3500 
L 1656 3500 
L 1656 2988 
Q 1863 3284 2130 3434 
Q 2397 3584 2719 3584 
Q 3081 3584 3359 3409 
Q 3638 3234 3781 2919 
z
" transform="scale(0.015625)"/>
       <path id="DejaVuSans-Bold-5d" d="M 2375 -844 
L 434 -844 
L 434 -141 
L 1313 -141 
L 1313 4159 
L 434 4159 
L 434 4863 
L 2375 4863 
L 2375 -844 
z
" transform="scale(0.015625)"/>
      </defs>
      <use xlink:href="#DejaVuSans-Bold-41" transform="translate(0 0.015625)"/>
      <use xlink:href="#DejaVuSans-Bold-70" transform="translate(77.392578 0.015625)"/>
      <use xlink:href="#DejaVuSans-Bold-70" transform="translate(148.974609 0.015625)"/>
      <use xlink:href="#DejaVuSans-Bold-61" transform="translate(220.556641 0.015625)"/>
      <use xlink:href="#DejaVuSans-Bold-72" transform="translate(288.037109 0.015625)"/>
      <use xlink:href="#DejaVuSans-Bold-65" transform="translate(337.353516 0.015625)"/>
      <use xlink:href="#DejaVuSans-Bold-6e" transform="translate(405.175781 0.015625)"/>
      <use xlink:href="#DejaVuSans-Bold-74" transform="translate(476.367188 0.015625)"/>
      <use xlink:href="#DejaVuSans-Bold-20" transform="translate(524.169922 0.015625)"/>
      <use xlink:href="#DejaVuSans-Bold-52" transform="translate(558.984375 0.015625)"/>
      <use xlink:href="#DejaVuSans-Bold-65" transform="translate(635.986328 0.015625)"/>
      <use xlink:href="#DejaVuSans-Bold-73" transform="translate(703.808594 0.015625)"/>
      <use xlink:href="#DejaVuSans-Bold-69" transform="translate(763.330078 0.015625)"/>
      <use xlink:href="#DejaVuSans-Bold-73" transform="translate(797.607422 0.015625)"/>
      <use xlink:href="#DejaVuSans-Bold-74" transform="translate(857.128906 0.015625)"/>
      <use xlink:href="#DejaVuSans-Bold-69" transform="translate(904.931641 0.015625)"/>
      <use xlink:href="#DejaVuSans-Bold-76" transform="translate(939.208984 0.015625)"/>
      <use xlink:href="#DejaVuSans-Bold-69" transform="translate(1004.394531 0.015625)"/>
      <use xlink:href="#DejaVuSans-Bold-74" transform="translate(1038.671875 0.015625)"/>
      <use xlink:href="#DejaVuSans-Bold-79" transform="translate(1086.474609 0.015625)"/>
      <use xlink:href="#DejaVuSans-Bold-20" transform="translate(1151.660156 0.015625)"/>
      <use xlink:href="#DejaVuSans-Bold-5b" transform="translate(1186.474609 0.015625)"/>
      <use xlink:href="#DejaVuSans-Bold-3a9" transform="translate(1232.177734 0.015625)"/>
      <use xlink:href="#DejaVuSans-Bold-6d" transform="translate(1317.1875 0.015625)"/>
      <use xlink:href="#DejaVuSans-Bold-5d" transform="translate(1421.386719 0.015625)"/>
     </g>
    </g>
   </g>
   <g id="line2d_3">
    <path d="M 129.705467 28.063636 
L 131.691348 47.030579 
L 143.185719 65.997521 
L 155.204246 84.964463 
L 154.757133 103.931405 
L 169.45917 122.898347 
L 187.53291 141.865289 
L 194.199832 160.832231 
L 203.188557 179.799174 
L 219.589393 198.766116 
L 224.196659 217.733058 
L 231.908064 236.7 
L 245.693209 255.666942 
L 236.984057 274.633884 
L 226.600709 293.600826 
L 208.147363 312.567769 
L 188.391731 331.534711 
L 157.228625 350.501653 
L 127.13606 369.468595 
L 95.582276 388.435537 
L 61.717394 407.402479 
L 43.218459 426.369421 
L 33.086167 445.336364 
" clip-path="url(#p2a04dc2958)" style="fill: none; stroke: #756bb1; stroke-opacity: 0.2; stroke-width: 2; stroke-linecap: square"/>
   </g>
   <g id="line2d_4">
    <path d="M 143.414633 28.063636 
L 142.345083 47.030579 
L 145.313577 65.997521 
L 158.583658 84.964463 
L 167.772147 103.931405 
L 177.488284 122.898347 
L 189.448471 141.865289 
L 198.488678 160.832231 
L 216.674319 179.799174 
L 228.772619 198.766116 
L 245.210215 217.733058 
L 251.418225 236.7 
L 257.136372 255.666942 
L 248.594209 274.633884 
L 238.691034 293.600826 
L 222.307147 312.567769 
L 196.384034 331.534711 
L 160.594142 350.501653 
L 123.062924 369.468595 
L 92.877776 388.435537 
L 68.38337 407.402479 
L 48.047511 426.369421 
L 29.083136 445.336364 
" clip-path="url(#p2a04dc2958)" style="fill: none; stroke: #756bb1; stroke-opacity: 0.2; stroke-width: 2; stroke-linecap: square"/>
   </g>
   <g id="line2d_5">
    <path d="M 139.427367 28.063636 
L 140.815711 47.030579 
L 145.532708 65.997521 
L 149.009912 84.964463 
L 156.166995 103.931405 
L 176.050081 122.898347 
L 190.351594 141.865289 
L 197.223172 160.832231 
L 213.056421 179.799174 
L 229.090659 198.766116 
L 245.424514 217.733058 
L 257.353332 236.7 
L 258.512911 255.666942 
L 259.275605 274.633884 
L 242.972976 293.600826 
L 230.147024 312.567769 
L 195.220512 331.534711 
L 169.913511 350.501653 
L 135.774689 369.468595 
L 107.310161 388.435537 
L 73.486061 407.402479 
L 42.823561 426.369421 
L 34.341318 445.336364 
" clip-path="url(#p2a04dc2958)" style="fill: none; stroke: #756bb1; stroke-opacity: 0.2; stroke-width: 2; stroke-linecap: square"/>
   </g>
   <g id="line2d_6">
    <path d="M 140.686703 28.063636 
L 151.206184 47.030579 
L 146.063305 65.997521 
L 152.327493 84.964463 
L 164.905182 103.931405 
L 178.379368 122.898347 
L 193.058173 141.865289 
L 206.605571 160.832231 
L 222.501874 179.799174 
L 227.45654 198.766116 
L 248.325289 217.733058 
L 247.553299 236.7 
L 257.06687 255.666942 
L 251.289389 274.633884 
L 239.974824 293.600826 
L 219.389415 312.567769 
L 195.566873 331.534711 
L 165.826956 350.501653 
L 133.715451 369.468595 
L 104.134499 388.435537 
L 69.268593 407.402479 
L 42.705954 426.369421 
L 33.389949 445.336364 
" clip-path="url(#p2a04dc2958)" style="fill: none; stroke: #756bb1; stroke-opacity: 0.2; stroke-width: 2; stroke-linecap: square"/>
   </g>
   <g id="line2d_7">
    <path d="M 151.119226 28.063636 
L 142.799079 47.030579 
L 157.323823 65.997521 
L 161.614307 84.964463 
L 171.878638 103.931405 
L 183.547359 122.898347 
L 190.869862 141.865289 
L 205.469166 160.832231 
L 230.969205 179.799174 
L 236.062196 198.766116 
L 252.291941 217.733058 
L 254.192811 236.7 
L 251.449271 255.666942 
L 246.933294 274.633884 
L 235.039464 293.600826 
L 218.571572 312.567769 
L 195.632912 331.534711 
L 161.324975 350.501653 
L 137.955302 369.468595 
L 105.347158 388.435537 
L 78.615187 407.402479 
L 53.609167 426.369421 
L 32.640835 445.336364 
" clip-path="url(#p2a04dc2958)" style="fill: none; stroke: #756bb1; stroke-opacity: 0.2; stroke-width: 2; stroke-linecap: square"/>
   </g>
   <g id="line2d_8">
    <path d="M 148.36487 28.063636 
L 143.299848 47.030579 
L 151.955783 65.997521 
L 161.319604 84.964463 
L 167.475106 103.931405 
L 175.656498 122.898347 
L 183.953847 141.865289 
L 200.557188 160.832231 
L 214.682371 179.799174 
L 233.414549 198.766116 
L 247.722552 217.733058 
L 261.985126 236.7 
L 261.370709 255.666942 
L 257.86573 274.633884 
L 256.871904 293.600826 
L 227.287737 312.567769 
L 202.256106 331.534711 
L 176.99754 350.501653 
L 142.920794 369.468595 
L 104.269264 388.435537 
L 72.588978 407.402479 
L 50.622005 426.369421 
L 37.952479 445.336364 
" clip-path="url(#p2a04dc2958)" style="fill: none; stroke: #756bb1; stroke-opacity: 0.2; stroke-width: 2; stroke-linecap: square"/>
   </g>
   <g id="line2d_9">
    <path d="M 136.581246 28.063636 
L 149.922467 47.030579 
L 153.090192 65.997521 
L 153.083835 84.964463 
L 161.166539 103.931405 
L 172.259083 122.898347 
L 184.101253 141.865289 
L 204.501133 160.832231 
L 219.089434 179.799174 
L 236.312844 198.766116 
L 240.758674 217.733058 
L 251.976422 236.7 
L 252.91898 255.666942 
L 248.396261 274.633884 
L 235.708116 293.600826 
L 225.009213 312.567769 
L 199.981685 331.534711 
L 172.624159 350.501653 
L 137.724718 369.468595 
L 96.028975 388.435537 
L 66.807855 407.402479 
L 39.703148 426.369421 
L 20.985226 445.336364 
" clip-path="url(#p2a04dc2958)" style="fill: none; stroke: #756bb1; stroke-opacity: 0.2; stroke-width: 2; stroke-linecap: square"/>
   </g>
   <g id="line2d_10">
    <path d="M 133.383848 28.063636 
L 134.685154 47.030579 
L 147.367215 65.997521 
L 155.821227 84.964463 
L 175.369013 103.931405 
L 191.535764 122.898347 
L 206.205709 141.865289 
L 214.7763 160.832231 
L 232.906168 179.799174 
L 233.385595 198.766116 
L 237.101552 217.733058 
L 248.437723 236.7 
L 244.235216 255.666942 
L 238.060512 274.633884 
L 229.038347 293.600826 
L 205.484725 312.567769 
L 183.674782 331.534711 
L 155.04903 350.501653 
L 126.141443 369.468595 
L 90.429403 388.435537 
L 66.043313 407.402479 
L 46.142512 426.369421 
L 21.770547 445.336364 
" clip-path="url(#p2a04dc2958)" style="fill: none; stroke: #756bb1; stroke-opacity: 0.2; stroke-width: 2; stroke-linecap: square"/>
   </g>
   <g id="line2d_11">
    <path d="M 112.677873 28.063636 
L 126.851242 47.030579 
L 131.415825 65.997521 
L 142.720361 84.964463 
L 161.677556 103.931405 
L 163.656197 122.898347 
L 176.570121 141.865289 
L 188.19525 160.832231 
L 196.183904 179.799174 
L 210.426103 198.766116 
L 230.28233 217.733058 
L 234.156568 236.7 
L 239.271149 255.666942 
L 242.108026 274.633884 
L 227.363925 293.600826 
L 216.408165 312.567769 
L 190.634406 331.534711 
L 147.844206 350.501653 
L 113.929652 369.468595 
L 81.972298 388.435537 
L 54.750723 407.402479 
L 39.390599 426.369421 
L 23.280883 445.336364 
" clip-path="url(#p2a04dc2958)" style="fill: none; stroke: #756bb1; stroke-opacity: 0.2; stroke-width: 2; stroke-linecap: square"/>
   </g>
   <g id="line2d_12">
    <path d="M 148.196885 28.063636 
L 145.392738 47.030579 
L 152.988277 65.997521 
L 152.988106 84.964463 
L 167.983915 103.931405 
L 173.80902 122.898347 
L 183.570774 141.865289 
L 199.243383 160.832231 
L 218.522698 179.799174 
L 229.333182 198.766116 
L 239.883229 217.733058 
L 250.2021 236.7 
L 251.035476 255.666942 
L 248.932591 274.633884 
L 236.049475 293.600826 
L 227.961945 312.567769 
L 195.66134 331.534711 
L 163.490922 350.501653 
L 137.017326 369.468595 
L 101.466531 388.435537 
L 74.487504 407.402479 
L 44.569735 426.369421 
L 33.137122 445.336364 
" clip-path="url(#p2a04dc2958)" style="fill: none; stroke: #756bb1; stroke-opacity: 0.2; stroke-width: 2; stroke-linecap: square"/>
   </g>
   <g id="line2d_13">
    <path d="M 145.47139 28.063636 
L 141.286557 47.030579 
L 154.484212 65.997521 
L 151.579739 84.964463 
L 165.952372 103.931405 
L 180.828063 122.898347 
L 192.196417 141.865289 
L 218.16968 160.832231 
L 232.765554 179.799174 
L 244.83007 198.766116 
L 260.361412 217.733058 
L 264.927273 236.7 
L 262.697901 255.666942 
L 260.532573 274.633884 
L 250.038287 293.600826 
L 231.857592 312.567769 
L 204.452273 331.534711 
L 172.228765 350.501653 
L 137.400438 369.468595 
L 111.959714 388.435537 
L 83.33867 407.402479 
L 57.980969 426.369421 
L 32.223357 445.336364 
" clip-path="url(#p2a04dc2958)" style="fill: none; stroke: #756bb1; stroke-opacity: 0.2; stroke-width: 2; stroke-linecap: square"/>
   </g>
   <g id="line2d_14">
    <path d="M 151.908856 28.063636 
L 150.078284 47.030579 
L 158.604156 65.997521 
L 160.230037 84.964463 
L 167.485194 103.931405 
L 172.22341 122.898347 
L 181.370652 141.865289 
L 195.611261 160.832231 
L 220.049751 179.799174 
L 234.971737 198.766116 
L 244.567023 217.733058 
L 249.733563 236.7 
L 262.66215 255.666942 
L 259.595266 274.633884 
L 238.526637 293.600826 
L 223.873529 312.567769 
L 203.365447 331.534711 
L 168.063621 350.501653 
L 129.815697 369.468595 
L 103.410048 388.435537 
L 70.723878 407.402479 
L 40.530272 426.369421 
L 29.971431 445.336364 
" clip-path="url(#p2a04dc2958)" style="fill: none; stroke: #756bb1; stroke-opacity: 0.2; stroke-width: 2; stroke-linecap: square"/>
   </g>
   <g id="line2d_15">
    <path d="M 146.244444 28.063636 
L 144.992037 47.030579 
L 155.661017 65.997521 
L 159.453148 84.964463 
L 167.035589 103.931405 
L 181.089488 122.898347 
L 186.261439 141.865289 
L 200.016451 160.832231 
L 220.882257 179.799174 
L 236.736221 198.766116 
L 244.768498 217.733058 
L 250.563367 236.7 
L 259.090855 255.666942 
L 251.524368 274.633884 
L 239.985538 293.600826 
L 223.381963 312.567769 
L 199.464693 331.534711 
L 159.84702 350.501653 
L 127.489538 369.468595 
L 93.32344 388.435537 
L 74.016824 407.402479 
L 50.78366 426.369421 
L 24.299533 445.336364 
" clip-path="url(#p2a04dc2958)" style="fill: none; stroke: #756bb1; stroke-opacity: 0.2; stroke-width: 2; stroke-linecap: square"/>
   </g>
   <g id="line2d_16">
    <path d="M 143.487427 28.063636 
L 140.520947 47.030579 
L 147.068009 65.997521 
L 156.726389 84.964463 
L 164.317984 103.931405 
L 182.880804 122.898347 
L 188.95578 141.865289 
L 212.579178 160.832231 
L 223.029363 179.799174 
L 240.34837 198.766116 
L 248.385079 217.733058 
L 251.426437 236.7 
L 252.656619 255.666942 
L 252.584933 274.633884 
L 234.343239 293.600826 
L 219.51806 312.567769 
L 202.20016 331.534711 
L 174.595987 350.501653 
L 136.138012 369.468595 
L 99.792168 388.435537 
L 75.582613 407.402479 
L 53.880012 426.369421 
L 41.839076 445.336364 
" clip-path="url(#p2a04dc2958)" style="fill: none; stroke: #756bb1; stroke-opacity: 0.2; stroke-width: 2; stroke-linecap: square"/>
   </g>
   <g id="line2d_17">
    <path d="M 141.531347 28.063636 
L 142.437676 47.030579 
L 145.630032 65.997521 
L 161.890334 84.964463 
L 170.306071 103.931405 
L 175.77984 122.898347 
L 195.199159 141.865289 
L 205.619926 160.832231 
L 222.083437 179.799174 
L 242.529233 198.766116 
L 251.98332 217.733058 
L 258.875506 236.7 
L 263.451893 255.666942 
L 258.988649 274.633884 
L 248.424474 293.600826 
L 225.987064 312.567769 
L 202.256896 331.534711 
L 173.6541 350.501653 
L 134.755221 369.468595 
L 103.480973 388.435537 
L 73.790521 407.402479 
L 54.980386 426.369421 
L 28.599986 445.336364 
" clip-path="url(#p2a04dc2958)" style="fill: none; stroke: #756bb1; stroke-opacity: 0.2; stroke-width: 2; stroke-linecap: square"/>
   </g>
   <g id="line2d_18">
    <path d="M 140.421571 28.063636 
L 149.13316 47.030579 
L 155.408202 65.997521 
L 157.02153 84.964463 
L 160.826511 103.931405 
L 174.32908 122.898347 
L 193.282524 141.865289 
L 205.926992 160.832231 
L 212.898005 179.799174 
L 229.268482 198.766116 
L 241.757433 217.733058 
L 245.140583 236.7 
L 249.60433 255.666942 
L 251.42206 274.633884 
L 235.952864 293.600826 
L 214.86948 312.567769 
L 195.979798 331.534711 
L 166.272841 350.501653 
L 137.037559 369.468595 
L 96.695007 388.435537 
L 75.246707 407.402479 
L 47.712219 426.369421 
L 29.916859 445.336364 
" clip-path="url(#p2a04dc2958)" style="fill: none; stroke: #756bb1; stroke-opacity: 0.2; stroke-width: 2; stroke-linecap: square"/>
   </g>
   <g id="line2d_19">
    <path d="M 147.631663 28.063636 
L 140.12951 47.030579 
L 152.179213 65.997521 
L 154.870009 84.964463 
L 159.651935 103.931405 
L 169.112796 122.898347 
L 179.967851 141.865289 
L 202.911843 160.832231 
L 212.327104 179.799174 
L 231.806971 198.766116 
L 237.781828 217.733058 
L 247.622785 236.7 
L 252.918639 255.666942 
L 255.936978 274.633884 
L 241.167179 293.600826 
L 222.147353 312.567769 
L 201.259044 331.534711 
L 166.955846 350.501653 
L 138.691119 369.468595 
L 105.850455 388.435537 
L 71.48409 407.402479 
L 51.91262 426.369421 
L 32.169974 445.336364 
" clip-path="url(#p2a04dc2958)" style="fill: none; stroke: #756bb1; stroke-opacity: 0.2; stroke-width: 2; stroke-linecap: square"/>
   </g>
   <g id="line2d_20">
    <path d="M 142.005555 28.063636 
L 143.202152 47.030579 
L 142.800394 65.997521 
L 147.093814 84.964463 
L 165.733716 103.931405 
L 166.64022 122.898347 
L 179.976842 141.865289 
L 200.241188 160.832231 
L 208.75588 179.799174 
L 227.97347 198.766116 
L 243.957022 217.733058 
L 246.928357 236.7 
L 244.656017 255.666942 
L 241.071505 274.633884 
L 234.373374 293.600826 
L 218.347126 312.567769 
L 197.210904 331.534711 
L 162.812618 350.501653 
L 132.33727 369.468595 
L 106.940103 388.435537 
L 68.945475 407.402479 
L 52.510528 426.369421 
L 33.807781 445.336364 
" clip-path="url(#p2a04dc2958)" style="fill: none; stroke: #756bb1; stroke-opacity: 0.2; stroke-width: 2; stroke-linecap: square"/>
   </g>
   <g id="line2d_21">
    <path d="M 142.001736 28.063636 
L 148.674317 47.030579 
L 148.414346 65.997521 
L 150.742526 84.964463 
L 164.181984 103.931405 
L 166.242953 122.898347 
L 180.071459 141.865289 
L 197.355922 160.832231 
L 206.944264 179.799174 
L 227.468592 198.766116 
L 240.670832 217.733058 
L 254.451768 236.7 
L 260.002939 255.666942 
L 256.492492 274.633884 
L 243.047124 293.600826 
L 220.767742 312.567769 
L 198.373169 331.534711 
L 159.177491 350.501653 
L 122.79617 369.468595 
L 94.541033 388.435537 
L 70.66135 407.402479 
L 49.128828 426.369421 
L 26.811837 445.336364 
" clip-path="url(#p2a04dc2958)" style="fill: none; stroke: #756bb1; stroke-opacity: 0.2; stroke-width: 2; stroke-linecap: square"/>
   </g>
   <g id="line2d_22">
    <path d="M 146.481653 28.063636 
L 151.964241 47.030579 
L 146.91706 65.997521 
L 163.025882 84.964463 
L 172.838099 103.931405 
L 179.778887 122.898347 
L 194.318624 141.865289 
L 208.053077 160.832231 
L 219.106721 179.799174 
L 236.268619 198.766116 
L 246.257775 217.733058 
L 255.189582 236.7 
L 256.258407 255.666942 
L 243.542544 274.633884 
L 235.376243 293.600826 
L 219.649886 312.567769 
L 200.712501 331.534711 
L 165.188913 350.501653 
L 134.366869 369.468595 
L 98.400363 388.435537 
L 75.257915 407.402479 
L 43.477994 426.369421 
L 27.489431 445.336364 
" clip-path="url(#p2a04dc2958)" style="fill: none; stroke: #756bb1; stroke-opacity: 0.2; stroke-width: 2; stroke-linecap: square"/>
   </g>
   <g id="line2d_23">
    <path d="M 138.309665 28.063636 
L 139.205021 47.030579 
L 146.166017 65.997521 
L 157.560184 84.964463 
L 157.608861 103.931405 
L 169.089876 122.898347 
L 182.208904 141.865289 
L 194.263842 160.832231 
L 212.737303 179.799174 
L 232.684868 198.766116 
L 244.679972 217.733058 
L 248.657977 236.7 
L 245.810658 255.666942 
L 245.340974 274.633884 
L 233.786899 293.600826 
L 218.149369 312.567769 
L 193.83207 331.534711 
L 162.834217 350.501653 
L 137.041702 369.468595 
L 98.438185 388.435537 
L 71.895835 407.402479 
L 51.645928 426.369421 
L 27.304231 445.336364 
" clip-path="url(#p2a04dc2958)" style="fill: none; stroke: #756bb1; stroke-opacity: 0.2; stroke-width: 2; stroke-linecap: square"/>
   </g>
   <g id="line2d_24">
    <path d="M 142.508933 28.063636 
L 143.765482 47.030579 
L 143.05728 65.997521 
L 149.912966 84.964463 
L 159.046355 103.931405 
L 179.581091 122.898347 
L 194.416112 141.865289 
L 203.687132 160.832231 
L 219.436356 179.799174 
L 239.221309 198.766116 
L 248.870789 217.733058 
L 254.114622 236.7 
L 258.074278 255.666942 
L 252.31746 274.633884 
L 233.848798 293.600826 
L 217.648136 312.567769 
L 187.753772 331.534711 
L 150.824924 350.501653 
L 121.8821 369.468595 
L 95.679416 388.435537 
L 69.766261 407.402479 
L 40.100595 426.369421 
L 30.934685 445.336364 
" clip-path="url(#p2a04dc2958)" style="fill: none; stroke: #756bb1; stroke-opacity: 0.2; stroke-width: 2; stroke-linecap: square"/>
   </g>
   <g id="line2d_25">
    <path d="M 145.399259 28.063636 
L 144.994611 47.030579 
L 157.93341 65.997521 
L 163.565843 84.964463 
L 171.905234 103.931405 
L 187.423677 122.898347 
L 205.324603 141.865289 
L 215.362571 160.832231 
L 228.314379 179.799174 
L 237.708388 198.766116 
L 249.436675 217.733058 
L 250.310895 236.7 
L 258.825253 255.666942 
L 250.564375 274.633884 
L 231.499909 293.600826 
L 210.109059 312.567769 
L 189.432614 331.534711 
L 161.529209 350.501653 
L 120.36221 369.468595 
L 91.492704 388.435537 
L 70.992367 407.402479 
L 38.692598 426.369421 
L 34.043904 445.336364 
" clip-path="url(#p2a04dc2958)" style="fill: none; stroke: #756bb1; stroke-opacity: 0.2; stroke-width: 2; stroke-linecap: square"/>
   </g>
   <g id="line2d_26">
    <path d="M 142.16038 28.063636 
L 141.076531 47.030579 
L 147.511567 65.997521 
L 157.305411 84.964463 
L 168.68668 103.931405 
L 169.807595 122.898347 
L 187.511257 141.865289 
L 199.655413 160.832231 
L 219.176121 179.799174 
L 228.360929 198.766116 
L 250.585856 217.733058 
L 250.436051 236.7 
L 261.673867 255.666942 
L 257.870074 274.633884 
L 246.237132 293.600826 
L 224.659172 312.567769 
L 202.386083 331.534711 
L 168.111508 350.501653 
L 125.58311 369.468595 
L 92.229516 388.435537 
L 67.469734 407.402479 
L 45.676723 426.369421 
L 28.143516 445.336364 
" clip-path="url(#p2a04dc2958)" style="fill: none; stroke: #756bb1; stroke-opacity: 0.2; stroke-width: 2; stroke-linecap: square"/>
   </g>
   <g id="line2d_27">
    <path d="M 131.590185 28.063636 
L 132.859153 47.030579 
L 139.489995 65.997521 
L 153.154175 84.964463 
L 160.266716 103.931405 
L 170.966706 122.898347 
L 187.398733 141.865289 
L 198.565108 160.832231 
L 214.75929 179.799174 
L 237.079098 198.766116 
L 244.534971 217.733058 
L 257.663368 236.7 
L 258.274994 255.666942 
L 251.749268 274.633884 
L 243.026904 293.600826 
L 221.020466 312.567769 
L 196.210619 331.534711 
L 163.268142 350.501653 
L 127.35111 369.468595 
L 102.229283 388.435537 
L 73.828263 407.402479 
L 46.966297 426.369421 
L 31.377748 445.336364 
" clip-path="url(#p2a04dc2958)" style="fill: none; stroke: #756bb1; stroke-opacity: 0.2; stroke-width: 2; stroke-linecap: square"/>
   </g>
   <g id="line2d_28">
    <path d="M 137.354872 28.063636 
L 144.868056 47.030579 
L 159.16832 65.997521 
L 165.818089 84.964463 
L 177.629036 103.931405 
L 192.960862 122.898347 
L 208.286162 141.865289 
L 216.876364 160.832231 
L 235.874608 179.799174 
L 238.159467 198.766116 
L 243.531883 217.733058 
L 241.78792 236.7 
L 246.877917 255.666942 
L 235.437693 274.633884 
L 225.629067 293.600826 
L 208.359993 312.567769 
L 191.284939 331.534711 
L 156.119615 350.501653 
L 126.695821 369.468595 
L 99.249055 388.435537 
L 76.210034 407.402479 
L 45.868094 426.369421 
L 34.279555 445.336364 
" clip-path="url(#p2a04dc2958)" style="fill: none; stroke: #756bb1; stroke-opacity: 0.2; stroke-width: 2; stroke-linecap: square"/>
   </g>
   <g id="line2d_29">
    <path d="M 138.15111 28.063636 
L 142.951328 47.030579 
L 150.854608 65.997521 
L 150.14392 84.964463 
L 168.378071 103.931405 
L 179.278857 122.898347 
L 193.003317 141.865289 
L 207.593386 160.832231 
L 222.10113 179.799174 
L 231.091664 198.766116 
L 241.986336 217.733058 
L 252.103548 236.7 
L 253.781037 255.666942 
L 239.530682 274.633884 
L 233.435075 293.600826 
L 214.398165 312.567769 
L 188.197359 331.534711 
L 159.929983 350.501653 
L 128.434216 369.468595 
L 104.512586 388.435537 
L 76.842762 407.402479 
L 46.494247 426.369421 
L 34.447244 445.336364 
" clip-path="url(#p2a04dc2958)" style="fill: none; stroke: #756bb1; stroke-opacity: 0.2; stroke-width: 2; stroke-linecap: square"/>
   </g>
   <g id="line2d_30">
    <path d="M 141.418642 28.063636 
L 140.87158 47.030579 
L 151.571335 65.997521 
L 151.389365 84.964463 
L 162.596939 103.931405 
L 181.35706 122.898347 
L 184.183601 141.865289 
L 205.918643 160.832231 
L 215.991959 179.799174 
L 233.990597 198.766116 
L 239.095007 217.733058 
L 249.494684 236.7 
L 252.885346 255.666942 
L 247.225737 274.633884 
L 235.533597 293.600826 
L 216.870328 312.567769 
L 189.096122 331.534711 
L 159.361052 350.501653 
L 122.362761 369.468595 
L 98.405305 388.435537 
L 62.390316 407.402479 
L 44.051942 426.369421 
L 27.784023 445.336364 
" clip-path="url(#p2a04dc2958)" style="fill: none; stroke: #756bb1; stroke-opacity: 0.2; stroke-width: 2; stroke-linecap: square"/>
   </g>
   <g id="line2d_31">
    <path d="M 139.609837 28.063636 
L 148.120544 47.030579 
L 146.965256 65.997521 
L 162.833748 84.964463 
L 171.127389 103.931405 
L 181.147006 122.898347 
L 195.04872 141.865289 
L 206.618702 160.832231 
L 227.694759 179.799174 
L 234.626837 198.766116 
L 245.627211 217.733058 
L 248.514534 236.7 
L 249.619285 255.666942 
L 254.960067 274.633884 
L 237.192479 293.600826 
L 228.650964 312.567769 
L 203.853188 331.534711 
L 169.129519 350.501653 
L 140.656613 369.468595 
L 107.583843 388.435537 
L 78.249979 407.402479 
L 45.600977 426.369421 
L 37.614228 445.336364 
" clip-path="url(#p2a04dc2958)" style="fill: none; stroke: #756bb1; stroke-opacity: 0.2; stroke-width: 2; stroke-linecap: square"/>
   </g>
   <g id="line2d_32">
    <path d="M 143.415979 28.063636 
L 148.017234 47.030579 
L 150.850893 65.997521 
L 158.786684 84.964463 
L 168.883899 103.931405 
L 180.691086 122.898347 
L 192.494334 141.865289 
L 204.966714 160.832231 
L 216.809282 179.799174 
L 239.05596 198.766116 
L 250.194856 217.733058 
L 251.417491 236.7 
L 260.012395 255.666942 
L 254.636226 274.633884 
L 252.536888 293.600826 
L 230.607723 312.567769 
L 204.205483 331.534711 
L 172.633279 350.501653 
L 145.547866 369.468595 
L 101.995629 388.435537 
L 78.099243 407.402479 
L 47.824759 426.369421 
L 36.33482 445.336364 
" clip-path="url(#p2a04dc2958)" style="fill: none; stroke: #756bb1; stroke-opacity: 0.2; stroke-width: 2; stroke-linecap: square"/>
   </g>
   <g id="line2d_33">
    <path d="M 137.766489 28.063636 
L 141.438732 47.030579 
L 153.279194 65.997521 
L 152.941631 84.964463 
L 159.813101 103.931405 
L 178.701346 122.898347 
L 192.782214 141.865289 
L 203.083861 160.832231 
L 217.138566 179.799174 
L 229.765157 198.766116 
L 243.790656 217.733058 
L 248.579051 236.7 
L 246.805234 255.666942 
L 241.030476 274.633884 
L 238.409465 293.600826 
L 217.944808 312.567769 
L 190.704882 331.534711 
L 163.402129 350.501653 
L 125.37348 369.468595 
L 103.576303 388.435537 
L 70.374841 407.402479 
L 50.987009 426.369421 
L 34.822493 445.336364 
" clip-path="url(#p2a04dc2958)" style="fill: none; stroke: #756bb1; stroke-opacity: 0.2; stroke-width: 2; stroke-linecap: square"/>
   </g>
   <g id="line2d_34">
    <path d="M 141.332308 28.063636 
L 142.674479 47.030579 
L 148.077872 65.997521 
L 154.590865 84.964463 
L 154.574797 103.931405 
L 173.74216 122.898347 
L 179.786191 141.865289 
L 201.06804 160.832231 
L 215.744659 179.799174 
L 234.559127 198.766116 
L 241.958717 217.733058 
L 261.280872 236.7 
L 264.443101 255.666942 
L 253.847863 274.633884 
L 244.289206 293.600826 
L 222.425395 312.567769 
L 190.735691 331.534711 
L 163.939364 350.501653 
L 121.784845 369.468595 
L 96.59239 388.435537 
L 67.711606 407.402479 
L 38.4128 426.369421 
L 28.403031 445.336364 
" clip-path="url(#p2a04dc2958)" style="fill: none; stroke: #756bb1; stroke-opacity: 0.2; stroke-width: 2; stroke-linecap: square"/>
   </g>
   <g id="line2d_35">
    <path d="M 134.535319 28.063636 
L 144.048748 47.030579 
L 142.422125 65.997521 
L 148.319807 84.964463 
L 158.103709 103.931405 
L 173.927553 122.898347 
L 181.569106 141.865289 
L 203.103787 160.832231 
L 210.775808 179.799174 
L 234.64368 198.766116 
L 243.293923 217.733058 
L 244.989097 236.7 
L 252.31714 255.666942 
L 254.386684 274.633884 
L 236.704384 293.600826 
L 227.940235 312.567769 
L 201.09211 331.534711 
L 164.372573 350.501653 
L 136.056381 369.468595 
L 97.285691 388.435537 
L 67.376657 407.402479 
L 44.540416 426.369421 
L 29.705454 445.336364 
" clip-path="url(#p2a04dc2958)" style="fill: none; stroke: #756bb1; stroke-opacity: 0.2; stroke-width: 2; stroke-linecap: square"/>
   </g>
   <g id="line2d_36">
    <path d="M 144.023112 28.063636 
L 150.947189 47.030579 
L 157.005126 65.997521 
L 156.789533 84.964463 
L 166.153556 103.931405 
L 174.99053 122.898347 
L 185.15495 141.865289 
L 210.006076 160.832231 
L 217.003133 179.799174 
L 238.107745 198.766116 
L 243.74653 217.733058 
L 248.032675 236.7 
L 250.515871 255.666942 
L 245.236005 274.633884 
L 238.57767 293.600826 
L 227.234046 312.567769 
L 202.576853 331.534711 
L 175.543879 350.501653 
L 142.708107 369.468595 
L 106.091086 388.435537 
L 78.339761 407.402479 
L 52.732524 426.369421 
L 25.800589 445.336364 
" clip-path="url(#p2a04dc2958)" style="fill: none; stroke: #756bb1; stroke-opacity: 0.2; stroke-width: 2; stroke-linecap: square"/>
   </g>
   <g id="line2d_37">
    <path d="M 149.075601 28.063636 
L 152.342839 47.030579 
L 151.28401 65.997521 
L 165.070326 84.964463 
L 168.752115 103.931405 
L 182.5442 122.898347 
L 186.532794 141.865289 
L 202.910279 160.832231 
L 226.317612 179.799174 
L 235.097254 198.766116 
L 253.458589 217.733058 
L 259.580071 236.7 
L 261.020464 255.666942 
L 253.672716 274.633884 
L 244.116813 293.600826 
L 229.398117 312.567769 
L 199.211858 331.534711 
L 165.527098 350.501653 
L 133.447125 369.468595 
L 101.18816 388.435537 
L 75.317153 407.402479 
L 47.605911 426.369421 
L 19.472727 445.336364 
" clip-path="url(#p2a04dc2958)" style="fill: none; stroke: #756bb1; stroke-opacity: 0.2; stroke-width: 2; stroke-linecap: square"/>
   </g>
   <g id="line2d_38">
    <path d="M 141.015434 28.063636 
L 139.828527 47.030579 
L 153.494793 65.997521 
L 154.619236 84.964463 
L 169.716265 103.931405 
L 174.98838 122.898347 
L 196.412794 141.865289 
L 214.455006 160.832231 
L 228.74749 179.799174 
L 242.013432 198.766116 
L 250.646002 217.733058 
L 257.614684 236.7 
L 257.348894 255.666942 
L 248.133531 274.633884 
L 238.798151 293.600826 
L 214.434989 312.567769 
L 191.979418 331.534711 
L 155.659653 350.501653 
L 129.703696 369.468595 
L 93.911132 388.435537 
L 74.676504 407.402479 
L 49.867296 426.369421 
L 28.673965 445.336364 
" clip-path="url(#p2a04dc2958)" style="fill: none; stroke: #756bb1; stroke-opacity: 0.2; stroke-width: 2; stroke-linecap: square"/>
   </g>
   <g id="line2d_39">
    <path d="M 144.481215 28.063636 
L 139.115381 47.030579 
L 145.048177 65.997521 
L 152.965428 84.964463 
L 158.181294 103.931405 
L 174.699534 122.898347 
L 181.497303 141.865289 
L 201.551824 160.832231 
L 217.206824 179.799174 
L 233.239667 198.766116 
L 236.7505 217.733058 
L 240.684081 236.7 
L 242.755614 255.666942 
L 250.243839 274.633884 
L 240.003107 293.600826 
L 220.758343 312.567769 
L 189.112465 331.534711 
L 165.752514 350.501653 
L 128.927256 369.468595 
L 99.468407 388.435537 
L 72.367037 407.402479 
L 43.093974 426.369421 
L 24.520277 445.336364 
" clip-path="url(#p2a04dc2958)" style="fill: none; stroke: #756bb1; stroke-opacity: 0.2; stroke-width: 2; stroke-linecap: square"/>
   </g>
   <g id="line2d_40">
    <path d="M 142.192646 28.063636 
L 143.017764 47.030579 
L 156.328097 65.997521 
L 162.981602 84.964463 
L 167.745239 103.931405 
L 176.41892 122.898347 
L 189.198416 141.865289 
L 204.847502 160.832231 
L 218.782025 179.799174 
L 232.507103 198.766116 
L 243.941986 217.733058 
L 254.787598 236.7 
L 251.022159 255.666942 
L 250.506917 274.633884 
L 236.430801 293.600826 
L 219.43705 312.567769 
L 200.250557 331.534711 
L 170.5033 350.501653 
L 134.615084 369.468595 
L 109.878513 388.435537 
L 77.919336 407.402479 
L 52.474248 426.369421 
L 31.324892 445.336364 
" clip-path="url(#p2a04dc2958)" style="fill: none; stroke: #756bb1; stroke-opacity: 0.2; stroke-width: 2; stroke-linecap: square"/>
   </g>
   <g id="line2d_41">
    <path d="M 135.294404 28.063636 
L 144.699721 47.030579 
L 148.221663 65.997521 
L 152.503461 84.964463 
L 167.881112 103.931405 
L 174.969922 122.898347 
L 194.406776 141.865289 
L 208.422782 160.832231 
L 219.784648 179.799174 
L 232.010512 198.766116 
L 237.521489 217.733058 
L 251.280434 236.7 
L 244.325205 255.666942 
L 240.558516 274.633884 
L 226.139906 293.600826 
L 211.021766 312.567769 
L 182.836006 331.534711 
L 152.473879 350.501653 
L 120.393336 369.468595 
L 88.004232 388.435537 
L 70.885832 407.402479 
L 38.284586 426.369421 
L 21.481187 445.336364 
" clip-path="url(#p2a04dc2958)" style="fill: none; stroke: #756bb1; stroke-opacity: 0.2; stroke-width: 2; stroke-linecap: square"/>
   </g>
   <g id="line2d_42">
    <path d="M 135.060748 28.063636 
L 140.656395 47.030579 
L 145.932402 65.997521 
L 158.67502 84.964463 
L 163.841647 103.931405 
L 179.244299 122.898347 
L 183.252408 141.865289 
L 198.976666 160.832231 
L 216.120885 179.799174 
L 242.096046 198.766116 
L 243.331905 217.733058 
L 260.87153 236.7 
L 259.620845 255.666942 
L 252.48165 274.633884 
L 243.894272 293.600826 
L 223.037721 312.567769 
L 201.671068 331.534711 
L 167.729394 350.501653 
L 136.161183 369.468595 
L 102.202142 388.435537 
L 75.219881 407.402479 
L 50.880115 426.369421 
L 34.2711 445.336364 
" clip-path="url(#p2a04dc2958)" style="fill: none; stroke: #756bb1; stroke-opacity: 0.2; stroke-width: 2; stroke-linecap: square"/>
   </g>
   <g id="line2d_43"/>
   <g id="line2d_44">
    <path d="M 140.354207 28.063636 
L 143.342356 47.030579 
L 147.956579 65.997521 
L 154.574775 84.964463 
L 163.520797 103.931405 
L 174.999635 122.898347 
L 188.474551 141.865289 
L 203.443748 160.832231 
L 218.58955 179.799174 
L 232.535593 198.766116 
L 243.919088 217.733058 
L 251.604375 236.7 
L 254.000263 255.666942 
L 250.066888 274.633884 
L 239.110943 293.600826 
L 220.563532 312.567769 
L 195.583108 331.534711 
L 165.196588 350.501653 
L 132.549138 369.468595 
L 100.176124 388.435537 
L 71.713299 407.402479 
L 47.733911 426.369421 
L 29.758897 445.336364 
" clip-path="url(#p2a04dc2958)" style="fill: none; stroke: #39146b; stroke-width: 4; stroke-linecap: square"/>
   </g>
   <g id="line2d_45">
    <path d="M 136.801124 28.063636 
L 139.955243 47.030579 
L 153.841718 65.997521 
L 159.671424 84.964463 
L 170.548689 103.931405 
L 176.77416 122.898347 
L 195.61709 141.865289 
L 201.370606 160.832231 
L 214.063168 179.799174 
L 228.5832 198.766116 
L 233.620065 217.733058 
L 245.149448 236.7 
L 253.674561 255.666942 
L 248.823791 274.633884 
L 243.105493 293.600826 
L 226.767687 312.567769 
L 193.374913 331.534711 
L 162.564161 350.501653 
L 134.487509 369.468595 
L 103.747021 388.435537 
L 68.205918 407.402479 
L 51.071872 426.369421 
L 28.34473 445.336364 
" clip-path="url(#p2a04dc2958)" style="fill: none; stroke: #e40000; stroke-width: 4; stroke-linecap: square"/>
    <defs>
     <path id="m9cb5d3b84c" d="M -5 5 
L 5 -5 
M -5 -5 
L 5 5 
" style="stroke: #e40000"/>
    </defs>
    <g clip-path="url(#p2a04dc2958)">
     <use xlink:href="#m9cb5d3b84c" x="136.801124" y="28.063636" style="fill: #e40000; stroke: #e40000"/>
     <use xlink:href="#m9cb5d3b84c" x="139.955243" y="47.030579" style="fill: #e40000; stroke: #e40000"/>
     <use xlink:href="#m9cb5d3b84c" x="153.841718" y="65.997521" style="fill: #e40000; stroke: #e40000"/>
     <use xlink:href="#m9cb5d3b84c" x="159.671424" y="84.964463" style="fill: #e40000; stroke: #e40000"/>
     <use xlink:href="#m9cb5d3b84c" x="170.548689" y="103.931405" style="fill: #e40000; stroke: #e40000"/>
     <use xlink:href="#m9cb5d3b84c" x="176.77416" y="122.898347" style="fill: #e40000; stroke: #e40000"/>
     <use xlink:href="#m9cb5d3b84c" x="195.61709" y="141.865289" style="fill: #e40000; stroke: #e40000"/>
     <use xlink:href="#m9cb5d3b84c" x="201.370606" y="160.832231" style="fill: #e40000; stroke: #e40000"/>
     <use xlink:href="#m9cb5d3b84c" x="214.063168" y="179.799174" style="fill: #e40000; stroke: #e40000"/>
     <use xlink:href="#m9cb5d3b84c" x="228.5832" y="198.766116" style="fill: #e40000; stroke: #e40000"/>
     <use xlink:href="#m9cb5d3b84c" x="233.620065" y="217.733058" style="fill: #e40000; stroke: #e40000"/>
     <use xlink:href="#m9cb5d3b84c" x="245.149448" y="236.7" style="fill: #e40000; stroke: #e40000"/>
     <use xlink:href="#m9cb5d3b84c" x="253.674561" y="255.666942" style="fill: #e40000; stroke: #e40000"/>
     <use xlink:href="#m9cb5d3b84c" x="248.823791" y="274.633884" style="fill: #e40000; stroke: #e40000"/>
     <use xlink:href="#m9cb5d3b84c" x="243.105493" y="293.600826" style="fill: #e40000; stroke: #e40000"/>
     <use xlink:href="#m9cb5d3b84c" x="226.767687" y="312.567769" style="fill: #e40000; stroke: #e40000"/>
     <use xlink:href="#m9cb5d3b84c" x="193.374913" y="331.534711" style="fill: #e40000; stroke: #e40000"/>
     <use xlink:href="#m9cb5d3b84c" x="162.564161" y="350.501653" style="fill: #e40000; stroke: #e40000"/>
     <use xlink:href="#m9cb5d3b84c" x="134.487509" y="369.468595" style="fill: #e40000; stroke: #e40000"/>
     <use xlink:href="#m9cb5d3b84c" x="103.747021" y="388.435537" style="fill: #e40000; stroke: #e40000"/>
     <use xlink:href="#m9cb5d3b84c" x="68.205918" y="407.402479" style="fill: #e40000; stroke: #e40000"/>
     <use xlink:href="#m9cb5d3b84c" x="51.071872" y="426.369421" style="fill: #e40000; stroke: #e40000"/>
     <use xlink:href="#m9cb5d3b84c" x="28.34473" y="445.336364" style="fill: #e40000; stroke: #e40000"/>
    </g>
   </g>
   <g id="patch_3">
    <path d="M 7.2 476.2 
L 277.2 476.2 
" style="fill: none; stroke: #000000; stroke-width: 2; stroke-linejoin: miter; stroke-linecap: square"/>
   </g>
  </g>
 </g>
 <defs>
  <clipPath id="p2a04dc2958">
   <rect x="7.2" y="7.2" width="270" height="459"/>
  </clipPath>
 </defs>
</svg>
