<?xml version="1.0" encoding="utf-8" standalone="no"?>
<!DOCTYPE svg PUBLIC "-//W3C//DTD SVG 1.1//EN"
  "http://www.w3.org/Graphics/SVG/1.1/DTD/svg11.dtd">
<svg xmlns:xlink="http://www.w3.org/1999/xlink" width="284.4pt" height="544.35625pt" viewBox="0 0 284.4 544.35625" xmlns="http://www.w3.org/2000/svg" version="1.1">
 <metadata>
  <rdf:RDF xmlns:dc="http://purl.org/dc/elements/1.1/" xmlns:cc="http://creativecommons.org/ns#" xmlns:rdf="http://www.w3.org/1999/02/22-rdf-syntax-ns#">
   <cc:Work>
    <dc:type rdf:resource="http://purl.org/dc/dcmitype/StillImage"/>
    <dc:date>2024-08-06T15:51:35.305958</dc:date>
    <dc:format>image/svg+xml</dc:format>
    <dc:creator>
     <cc:Agent>
      <dc:title>Matplotlib v3.8.0, https://matplotlib.org/</dc:title>
     </cc:Agent>
    </dc:creator>
   </cc:Work>
  </rdf:RDF>
 </metadata>
 <defs>
  <style type="text/css">*{stroke-linejoin: round; stroke-linecap: butt}</style>
 </defs>
 <g id="figure_1">
  <g id="patch_1">
   <path d="M 0 544.35625 
L 284.4 544.35625 
L 284.4 0 
L 0 0 
z
" style="fill: #ffffff"/>
  </g>
  <g id="axes_1">
   <g id="patch_2">
    <path d="M 7.2 466.2 
L 277.2 466.2 
L 277.2 7.2 
L 7.2 7.2 
z
" style="fill: #ffffff"/>
   </g>
   <g id="PolyCollection_1">
    <defs>
     <path id="m4cc5a20c53" d="M 164.794184 -516.292614 
L 200.58944 -516.292614 
L 196.513554 -507.414471 
L 200.908953 -498.536327 
L 208.760593 -489.658184 
L 219.431928 -480.780041 
L 228.773974 -471.901898 
L 232.837063 -463.023755 
L 236.703806 -454.145612 
L 235.57063 -445.267469 
L 233.724114 -436.389325 
L 227.354085 -427.511182 
L 217.095454 -418.633039 
L 216.376784 -409.754896 
L 202.831633 -400.876753 
L 193.544142 -391.99861 
L 187.434801 -383.120467 
L 178.315829 -374.242324 
L 178.287402 -365.36418 
L 174.933649 -356.486037 
L 170.419633 -347.607894 
L 166.215142 -338.729751 
L 162.859452 -329.851608 
L 162.296686 -320.973465 
L 163.632173 -312.095322 
L 160.279633 -303.217178 
L 165.972672 -294.339035 
L 161.638462 -285.460892 
L 159.54153 -276.582749 
L 159.647516 -267.704606 
L 160.739477 -258.826463 
L 160.50318 -249.94832 
L 160.316529 -241.070176 
L 160.923022 -232.192033 
L 160.744303 -223.31389 
L 159.678053 -214.435747 
L 156.812124 -205.557604 
L 150.736675 -196.679461 
L 149.258423 -187.801318 
L 147.566654 -178.923175 
L 145.406385 -170.045031 
L 143.626725 -161.166888 
L 135.98192 -152.288745 
L 131.208728 -143.410602 
L 122.938653 -134.532459 
L 125.583543 -125.654316 
L 117.778132 -116.776173 
L 105.161741 -107.898029 
L 85.833424 -99.019886 
L 73.296225 -99.019886 
L 73.296225 -99.019886 
L 48.655414 -107.898029 
L 44.672529 -116.776173 
L 43.859502 -125.654316 
L 46.200814 -134.532459 
L 47.921551 -143.410602 
L 50.585781 -152.288745 
L 55.301027 -161.166888 
L 59.459842 -170.045031 
L 59.161293 -178.923175 
L 63.485147 -187.801318 
L 67.109329 -196.679461 
L 69.705918 -205.557604 
L 68.460843 -214.435747 
L 74.128045 -223.31389 
L 70.490379 -232.192033 
L 69.170756 -241.070176 
L 69.618526 -249.94832 
L 70.149496 -258.826463 
L 68.221439 -267.704606 
L 74.809952 -276.582749 
L 71.639447 -285.460892 
L 78.883198 -294.339035 
L 80.003714 -303.217178 
L 81.640741 -312.095322 
L 80.647758 -320.973465 
L 84.865724 -329.851608 
L 86.336574 -338.729751 
L 92.060083 -347.607894 
L 95.734807 -356.486037 
L 100.003498 -365.36418 
L 104.855508 -374.242324 
L 115.331369 -383.120467 
L 123.790277 -391.99861 
L 132.828037 -400.876753 
L 143.098082 -409.754896 
L 151.548271 -418.633039 
L 159.052304 -427.511182 
L 169.675358 -436.389325 
L 176.053546 -445.267469 
L 181.293653 -454.145612 
L 180.462706 -463.023755 
L 181.131312 -471.901898 
L 173.846294 -480.780041 
L 169.192812 -489.658184 
L 165.455017 -498.536327 
L 166.996355 -507.414471 
L 164.794184 -516.292614 
z
" style="stroke: #fecc5c; stroke-opacity: 0.5"/>
    </defs>
    <g clip-path="url(#p894fb4e50b)">
     <use xlink:href="#m4cc5a20c53" x="0" y="544.35625" style="fill: #fecc5c; fill-opacity: 0.5; stroke: #fecc5c; stroke-opacity: 0.5"/>
    </g>
   </g>
   <g id="matplotlib.axis_1">
    <g id="xtick_1">
     <g id="line2d_1">
      <defs>
       <path id="m8075747b20" d="M 0 0 
L 0 3.5 
" style="stroke: #000000; stroke-width: 1.5"/>
      </defs>
      <g>
       <use xlink:href="#m8075747b20" x="36.533695" y="476.2" style="stroke: #000000; stroke-width: 1.5"/>
      </g>
     </g>
     <g id="text_1">
      <!-- 0 -->
      <g transform="translate(30.171195 498.396875) scale(0.2 -0.2)">
       <defs>
        <path id="DejaVuSans-30" d="M 2034 4250 
Q 1547 4250 1301 3770 
Q 1056 3291 1056 2328 
Q 1056 1369 1301 889 
Q 1547 409 2034 409 
Q 2525 409 2770 889 
Q 3016 1369 3016 2328 
Q 3016 3291 2770 3770 
Q 2525 4250 2034 4250 
z
M 2034 4750 
Q 2819 4750 3233 4129 
Q 3647 3509 3647 2328 
Q 3647 1150 3233 529 
Q 2819 -91 2034 -91 
Q 1250 -91 836 529 
Q 422 1150 422 2328 
Q 422 3509 836 4129 
Q 1250 4750 2034 4750 
z
" transform="scale(0.015625)"/>
       </defs>
       <use xlink:href="#DejaVuSans-30"/>
      </g>
     </g>
    </g>
    <g id="xtick_2">
     <g id="line2d_2">
      <g>
       <use xlink:href="#m8075747b20" x="119.958619" y="476.2" style="stroke: #000000; stroke-width: 1.5"/>
      </g>
     </g>
     <g id="text_2">
      <!-- 200 -->
      <g transform="translate(100.871119 498.396875) scale(0.2 -0.2)">
       <defs>
        <path id="DejaVuSans-32" d="M 1228 531 
L 3431 531 
L 3431 0 
L 469 0 
L 469 531 
Q 828 903 1448 1529 
Q 2069 2156 2228 2338 
Q 2531 2678 2651 2914 
Q 2772 3150 2772 3378 
Q 2772 3750 2511 3984 
Q 2250 4219 1831 4219 
Q 1534 4219 1204 4116 
Q 875 4013 500 3803 
L 500 4441 
Q 881 4594 1212 4672 
Q 1544 4750 1819 4750 
Q 2544 4750 2975 4387 
Q 3406 4025 3406 3419 
Q 3406 3131 3298 2873 
Q 3191 2616 2906 2266 
Q 2828 2175 2409 1742 
Q 1991 1309 1228 531 
z
" transform="scale(0.015625)"/>
       </defs>
       <use xlink:href="#DejaVuSans-32"/>
       <use xlink:href="#DejaVuSans-30" x="63.623047"/>
       <use xlink:href="#DejaVuSans-30" x="127.246094"/>
      </g>
     </g>
    </g>
    <g id="xtick_3">
     <g id="line2d_3">
      <g>
       <use xlink:href="#m8075747b20" x="203.383544" y="476.2" style="stroke: #000000; stroke-width: 1.5"/>
      </g>
     </g>
     <g id="text_3">
      <!-- 400 -->
      <g transform="translate(184.296044 498.396875) scale(0.2 -0.2)">
       <defs>
        <path id="DejaVuSans-34" d="M 2419 4116 
L 825 1625 
L 2419 1625 
L 2419 4116 
z
M 2253 4666 
L 3047 4666 
L 3047 1625 
L 3713 1625 
L 3713 1100 
L 3047 1100 
L 3047 0 
L 2419 0 
L 2419 1100 
L 313 1100 
L 313 1709 
L 2253 4666 
z
" transform="scale(0.015625)"/>
       </defs>
       <use xlink:href="#DejaVuSans-34"/>
       <use xlink:href="#DejaVuSans-30" x="63.623047"/>
       <use xlink:href="#DejaVuSans-30" x="127.246094"/>
      </g>
     </g>
    </g>
    <g id="text_4">
     <!-- Resistivity  [$\Omega m$] -->
     <g transform="translate(47.9 532.75625) scale(0.2 -0.2)">
      <defs>
       <path id="DejaVuSans-Bold-52" d="M 2297 2597 
Q 2675 2597 2839 2737 
Q 3003 2878 3003 3200 
Q 3003 3519 2839 3656 
Q 2675 3794 2297 3794 
L 1791 3794 
L 1791 2597 
L 2297 2597 
z
M 1791 1766 
L 1791 0 
L 588 0 
L 588 4666 
L 2425 4666 
Q 3347 4666 3776 4356 
Q 4206 4047 4206 3378 
Q 4206 2916 3982 2619 
Q 3759 2322 3309 2181 
Q 3556 2125 3751 1926 
Q 3947 1728 4147 1325 
L 4800 0 
L 3519 0 
L 2950 1159 
Q 2778 1509 2601 1637 
Q 2425 1766 2131 1766 
L 1791 1766 
z
" transform="scale(0.015625)"/>
       <path id="DejaVuSans-Bold-65" d="M 4031 1759 
L 4031 1441 
L 1416 1441 
Q 1456 1047 1700 850 
Q 1944 653 2381 653 
Q 2734 653 3104 758 
Q 3475 863 3866 1075 
L 3866 213 
Q 3469 63 3072 -14 
Q 2675 -91 2278 -91 
Q 1328 -91 801 392 
Q 275 875 275 1747 
Q 275 2603 792 3093 
Q 1309 3584 2216 3584 
Q 3041 3584 3536 3087 
Q 4031 2591 4031 1759 
z
M 2881 2131 
Q 2881 2450 2695 2645 
Q 2509 2841 2209 2841 
Q 1884 2841 1681 2658 
Q 1478 2475 1428 2131 
L 2881 2131 
z
" transform="scale(0.015625)"/>
       <path id="DejaVuSans-Bold-73" d="M 3272 3391 
L 3272 2541 
Q 2913 2691 2578 2766 
Q 2244 2841 1947 2841 
Q 1628 2841 1473 2761 
Q 1319 2681 1319 2516 
Q 1319 2381 1436 2309 
Q 1553 2238 1856 2203 
L 2053 2175 
Q 2913 2066 3209 1816 
Q 3506 1566 3506 1031 
Q 3506 472 3093 190 
Q 2681 -91 1863 -91 
Q 1516 -91 1145 -36 
Q 775 19 384 128 
L 384 978 
Q 719 816 1070 734 
Q 1422 653 1784 653 
Q 2113 653 2278 743 
Q 2444 834 2444 1013 
Q 2444 1163 2330 1236 
Q 2216 1309 1875 1350 
L 1678 1375 
Q 931 1469 631 1722 
Q 331 1975 331 2491 
Q 331 3047 712 3315 
Q 1094 3584 1881 3584 
Q 2191 3584 2531 3537 
Q 2872 3491 3272 3391 
z
" transform="scale(0.015625)"/>
       <path id="DejaVuSans-Bold-69" d="M 538 3500 
L 1656 3500 
L 1656 0 
L 538 0 
L 538 3500 
z
M 538 4863 
L 1656 4863 
L 1656 3950 
L 538 3950 
L 538 4863 
z
" transform="scale(0.015625)"/>
       <path id="DejaVuSans-Bold-74" d="M 1759 4494 
L 1759 3500 
L 2913 3500 
L 2913 2700 
L 1759 2700 
L 1759 1216 
Q 1759 972 1856 886 
Q 1953 800 2241 800 
L 2816 800 
L 2816 0 
L 1856 0 
Q 1194 0 917 276 
Q 641 553 641 1216 
L 641 2700 
L 84 2700 
L 84 3500 
L 641 3500 
L 641 4494 
L 1759 4494 
z
" transform="scale(0.015625)"/>
       <path id="DejaVuSans-Bold-76" d="M 97 3500 
L 1216 3500 
L 2088 1081 
L 2956 3500 
L 4078 3500 
L 2700 0 
L 1472 0 
L 97 3500 
z
" transform="scale(0.015625)"/>
       <path id="DejaVuSans-Bold-79" d="M 78 3500 
L 1197 3500 
L 2138 1125 
L 2938 3500 
L 4056 3500 
L 2584 -331 
Q 2363 -916 2067 -1148 
Q 1772 -1381 1288 -1381 
L 641 -1381 
L 641 -647 
L 991 -647 
Q 1275 -647 1404 -556 
Q 1534 -466 1606 -231 
L 1638 -134 
L 78 3500 
z
" transform="scale(0.015625)"/>
       <path id="DejaVuSans-Bold-20" transform="scale(0.015625)"/>
       <path id="DejaVuSans-Bold-5b" d="M 550 4863 
L 2491 4863 
L 2491 4159 
L 1613 4159 
L 1613 -141 
L 2491 -141 
L 2491 -844 
L 550 -844 
L 550 4863 
z
" transform="scale(0.015625)"/>
       <path id="DejaVuSans-Bold-3a9" d="M 2719 4750 
Q 3841 4750 4480 4106 
Q 5119 3463 5119 2494 
Q 5119 1406 4306 909 
L 5266 909 
L 5266 0 
L 3125 0 
L 3125 975 
Q 3244 1041 3334 1131 
Q 3875 1678 3875 2466 
Q 3875 3066 3572 3472 
Q 3269 3878 2719 3878 
Q 2169 3878 1866 3472 
Q 1563 3066 1563 2466 
Q 1563 1678 2103 1131 
Q 2194 1041 2313 975 
L 2313 0 
L 172 0 
L 172 909 
L 1131 909 
Q 319 1406 319 2494 
Q 319 3463 958 4106 
Q 1597 4750 2719 4750 
z
" transform="scale(0.015625)"/>
       <path id="DejaVuSans-Bold-6d" d="M 3781 2919 
Q 3994 3244 4286 3414 
Q 4578 3584 4928 3584 
Q 5531 3584 5847 3212 
Q 6163 2841 6163 2131 
L 6163 0 
L 5038 0 
L 5038 1825 
Q 5041 1866 5042 1909 
Q 5044 1953 5044 2034 
Q 5044 2406 4934 2573 
Q 4825 2741 4581 2741 
Q 4263 2741 4089 2478 
Q 3916 2216 3909 1719 
L 3909 0 
L 2784 0 
L 2784 1825 
Q 2784 2406 2684 2573 
Q 2584 2741 2328 2741 
Q 2006 2741 1831 2477 
Q 1656 2213 1656 1722 
L 1656 0 
L 531 0 
L 531 3500 
L 1656 3500 
L 1656 2988 
Q 1863 3284 2130 3434 
Q 2397 3584 2719 3584 
Q 3081 3584 3359 3409 
Q 3638 3234 3781 2919 
z
" transform="scale(0.015625)"/>
       <path id="DejaVuSans-Bold-5d" d="M 2375 -844 
L 434 -844 
L 434 -141 
L 1313 -141 
L 1313 4159 
L 434 4159 
L 434 4863 
L 2375 4863 
L 2375 -844 
z
" transform="scale(0.015625)"/>
      </defs>
      <use xlink:href="#DejaVuSans-Bold-52" transform="translate(0 0.015625)"/>
      <use xlink:href="#DejaVuSans-Bold-65" transform="translate(77.001953 0.015625)"/>
      <use xlink:href="#DejaVuSans-Bold-73" transform="translate(144.824219 0.015625)"/>
      <use xlink:href="#DejaVuSans-Bold-69" transform="translate(204.345703 0.015625)"/>
      <use xlink:href="#DejaVuSans-Bold-73" transform="translate(238.623047 0.015625)"/>
      <use xlink:href="#DejaVuSans-Bold-74" transform="translate(298.144531 0.015625)"/>
      <use xlink:href="#DejaVuSans-Bold-69" transform="translate(345.947266 0.015625)"/>
      <use xlink:href="#DejaVuSans-Bold-76" transform="translate(380.224609 0.015625)"/>
      <use xlink:href="#DejaVuSans-Bold-69" transform="translate(445.410156 0.015625)"/>
      <use xlink:href="#DejaVuSans-Bold-74" transform="translate(479.6875 0.015625)"/>
      <use xlink:href="#DejaVuSans-Bold-79" transform="translate(527.490234 0.015625)"/>
      <use xlink:href="#DejaVuSans-Bold-20" transform="translate(592.675781 0.015625)"/>
      <use xlink:href="#DejaVuSans-Bold-20" transform="translate(627.490234 0.015625)"/>
      <use xlink:href="#DejaVuSans-Bold-5b" transform="translate(662.304688 0.015625)"/>
      <use xlink:href="#DejaVuSans-Bold-3a9" transform="translate(708.007812 0.015625)"/>
      <use xlink:href="#DejaVuSans-Bold-6d" transform="translate(793.017578 0.015625)"/>
      <use xlink:href="#DejaVuSans-Bold-5d" transform="translate(897.216797 0.015625)"/>
     </g>
    </g>
   </g>
   <g id="line2d_4">
    <path d="M 182.507022 28.063636 
L 182.507022 36.941779 
L 182.302787 36.941779 
L 182.302787 45.819923 
L 171.961144 45.819923 
L 171.961144 54.698066 
L 188.156051 54.698066 
L 188.156051 63.576209 
L 211.41038 63.576209 
L 211.41038 72.454352 
L 215.306538 72.454352 
L 215.306538 81.332495 
L 212.772947 81.332495 
L 212.772947 90.210638 
L 170.859611 90.210638 
L 170.859611 99.088781 
L 178.122936 99.088781 
L 178.122936 107.966925 
L 200.270996 107.966925 
L 200.270996 116.845068 
L 207.684734 116.845068 
L 207.684734 125.723211 
L 181.04249 125.723211 
L 181.04249 134.601354 
L 167.063507 134.601354 
L 167.063507 143.479497 
L 158.372872 143.479497 
L 158.372872 152.35764 
L 154.731076 152.35764 
L 154.731076 161.235783 
L 152.882441 161.235783 
L 152.882441 170.113926 
L 138.525776 170.113926 
L 138.525776 178.99207 
L 138.364861 178.99207 
L 138.364861 187.870213 
L 100.101569 187.870213 
L 100.101569 196.748356 
L 124.300742 196.748356 
L 124.300742 205.626499 
L 125.147561 205.626499 
L 125.147561 214.504642 
L 141.233229 214.504642 
L 141.233229 223.382785 
L 121.918945 223.382785 
L 121.918945 232.260928 
L 162.54268 232.260928 
L 162.54268 241.139072 
L 196.647671 241.139072 
L 196.647671 250.017215 
L 177.339007 250.017215 
L 177.339007 258.895358 
L 168.110341 258.895358 
L 168.110341 267.773501 
L 176.700603 267.773501 
L 176.700603 276.651644 
L 158.067679 276.651644 
L 158.067679 285.529787 
L 89.070279 285.529787 
L 89.070279 294.40793 
L 85.602625 294.40793 
L 85.602625 303.286074 
L 69.574642 303.286074 
L 69.574642 312.164217 
L 76.028044 312.164217 
L 76.028044 321.04236 
L 83.935676 321.04236 
L 83.935676 329.920503 
L 70.936057 329.920503 
L 70.936057 338.798646 
L 71.648888 338.798646 
L 71.648888 347.676789 
L 94.165111 347.676789 
L 94.165111 356.554932 
L 87.674939 356.554932 
L 87.674939 365.433075 
L 104.820011 365.433075 
L 104.820011 374.311219 
L 90.223189 374.311219 
L 90.223189 383.189362 
L 76.461733 383.189362 
L 76.461733 392.067505 
L 48.394713 392.067505 
L 48.394713 400.945648 
L 87.268463 400.945648 
L 87.268463 409.823791 
L 71.905972 409.823791 
L 71.905972 418.701934 
L 88.738541 418.701934 
L 88.738541 427.580077 
L 64.270254 427.580077 
L 64.270254 436.458221 
L 57.88493 436.458221 
L 57.88493 445.336364 
L 81.853159 445.336364 
" clip-path="url(#p894fb4e50b)" style="fill: none; stroke: #fecc5c; stroke-opacity: 0.3; stroke-width: 2; stroke-linecap: square"/>
   </g>
   <g id="line2d_5">
    <path d="M 165.238459 28.063636 
L 165.238459 36.941779 
L 193.919673 36.941779 
L 193.919673 45.819923 
L 178.380176 45.819923 
L 178.380176 54.698066 
L 180.286592 54.698066 
L 180.286592 63.576209 
L 198.353951 63.576209 
L 198.353951 72.454352 
L 237.29129 72.454352 
L 237.29129 81.332495 
L 216.053348 81.332495 
L 216.053348 90.210638 
L 216.585548 90.210638 
L 216.585548 99.088781 
L 182.198621 99.088781 
L 182.198621 107.966925 
L 157.070452 107.966925 
L 157.070452 116.845068 
L 159.184399 116.845068 
L 159.184399 125.723211 
L 151.538064 125.723211 
L 151.538064 134.601354 
L 167.353832 134.601354 
L 167.353832 143.479497 
L 185.11335 143.479497 
L 185.11335 152.35764 
L 177.808094 152.35764 
L 177.808094 161.235783 
L 157.939313 161.235783 
L 157.939313 170.113926 
L 156.366822 170.113926 
L 156.366822 178.99207 
L 158.68849 178.99207 
L 158.68849 187.870213 
L 152.407855 187.870213 
L 152.407855 196.748356 
L 155.193748 196.748356 
L 155.193748 205.626499 
L 151.486166 205.626499 
L 151.486166 214.504642 
L 153.108825 214.504642 
L 153.108825 223.382785 
L 117.504874 223.382785 
L 117.504874 232.260928 
L 141.53888 232.260928 
L 141.53888 241.139072 
L 117.081283 241.139072 
L 117.081283 250.017215 
L 111.336189 250.017215 
L 111.336189 258.895358 
L 106.926377 258.895358 
L 106.926377 267.773501 
L 96.222773 267.773501 
L 96.222773 276.651644 
L 93.256438 276.651644 
L 93.256438 285.529787 
L 86.253736 285.529787 
L 86.253736 294.40793 
L 75.853702 294.40793 
L 75.853702 303.286074 
L 59.078669 303.286074 
L 59.078669 312.164217 
L 93.665212 312.164217 
L 93.665212 321.04236 
L 116.949824 321.04236 
L 116.949824 329.920503 
L 95.774155 329.920503 
L 95.774155 338.798646 
L 58.660547 338.798646 
L 58.660547 347.676789 
L 59.388701 347.676789 
L 59.388701 356.554932 
L 54.936494 356.554932 
L 54.936494 365.433075 
L 80.825964 365.433075 
L 80.825964 374.311219 
L 112.242367 374.311219 
L 112.242367 383.189362 
L 88.050027 383.189362 
L 88.050027 392.067505 
L 98.835607 392.067505 
L 98.835607 400.945648 
L 114.373811 400.945648 
L 114.373811 409.823791 
L 118.433036 409.823791 
L 118.433036 418.701934 
L 114.608214 418.701934 
L 114.608214 427.580077 
L 91.978764 427.580077 
L 91.978764 436.458221 
L 79.46936 436.458221 
L 79.46936 445.336364 
L 80.929389 445.336364 
" clip-path="url(#p894fb4e50b)" style="fill: none; stroke: #fecc5c; stroke-opacity: 0.3; stroke-width: 2; stroke-linecap: square"/>
   </g>
   <g id="line2d_6">
    <path d="M 187.437298 28.063636 
L 187.437298 36.941779 
L 179.737626 36.941779 
L 179.737626 45.819923 
L 180.828721 45.819923 
L 180.828721 54.698066 
L 193.170979 54.698066 
L 193.170979 63.576209 
L 194.28015 63.576209 
L 194.28015 72.454352 
L 198.871678 72.454352 
L 198.871678 81.332495 
L 210.805709 81.332495 
L 210.805709 90.210638 
L 227.386146 90.210638 
L 227.386146 99.088781 
L 192.895332 99.088781 
L 192.895332 107.966925 
L 215.161879 107.966925 
L 215.161879 116.845068 
L 201.907938 116.845068 
L 201.907938 125.723211 
L 183.500557 125.723211 
L 183.500557 134.601354 
L 192.46325 134.601354 
L 192.46325 143.479497 
L 153.132502 143.479497 
L 153.132502 152.35764 
L 128.835324 152.35764 
L 128.835324 161.235783 
L 130.683043 161.235783 
L 130.683043 170.113926 
L 125.514563 170.113926 
L 125.514563 178.99207 
L 131.738431 178.99207 
L 131.738431 187.870213 
L 122.286175 187.870213 
L 122.286175 196.748356 
L 135.78809 196.748356 
L 135.78809 205.626499 
L 122.065526 205.626499 
L 122.065526 214.504642 
L 107.596401 214.504642 
L 107.596401 223.382785 
L 136.485941 223.382785 
L 136.485941 232.260928 
L 132.948071 232.260928 
L 132.948071 241.139072 
L 127.442078 241.139072 
L 127.442078 250.017215 
L 137.30354 250.017215 
L 137.30354 258.895358 
L 84.408595 258.895358 
L 84.408595 267.773501 
L 81.188876 267.773501 
L 81.188876 276.651644 
L 89.171941 276.651644 
L 89.171941 285.529787 
L 96.671607 285.529787 
L 96.671607 294.40793 
L 134.20642 294.40793 
L 134.20642 303.286074 
L 137.999749 303.286074 
L 137.999749 312.164217 
L 134.367692 312.164217 
L 134.367692 321.04236 
L 148.863212 321.04236 
L 148.863212 329.920503 
L 109.953013 329.920503 
L 109.953013 338.798646 
L 97.683989 338.798646 
L 97.683989 347.676789 
L 93.834312 347.676789 
L 93.834312 356.554932 
L 82.127893 356.554932 
L 82.127893 365.433075 
L 95.154191 365.433075 
L 95.154191 374.311219 
L 98.23268 374.311219 
L 98.23268 383.189362 
L 83.520241 383.189362 
L 83.520241 392.067505 
L 73.447859 392.067505 
L 73.447859 400.945648 
L 73.728999 400.945648 
L 73.728999 409.823791 
L 85.913642 409.823791 
L 85.913642 418.701934 
L 86.737042 418.701934 
L 86.737042 427.580077 
L 76.207134 427.580077 
L 76.207134 436.458221 
L 61.489571 436.458221 
L 61.489571 445.336364 
L 82.702111 445.336364 
" clip-path="url(#p894fb4e50b)" style="fill: none; stroke: #fecc5c; stroke-opacity: 0.3; stroke-width: 2; stroke-linecap: square"/>
   </g>
   <g id="line2d_7">
    <path d="M 176.880206 28.063636 
L 176.880206 36.941779 
L 186.803006 36.941779 
L 186.803006 45.819923 
L 183.1142 45.819923 
L 183.1142 54.698066 
L 191.623909 54.698066 
L 191.623909 63.576209 
L 192.017483 63.576209 
L 192.017483 72.454352 
L 193.598873 72.454352 
L 193.598873 81.332495 
L 199.527292 81.332495 
L 199.527292 90.210638 
L 213.949394 90.210638 
L 213.949394 99.088781 
L 174.255584 99.088781 
L 174.255584 107.966925 
L 192.501579 107.966925 
L 192.501579 116.845068 
L 193.519504 116.845068 
L 193.519504 125.723211 
L 220.537947 125.723211 
L 220.537947 134.601354 
L 187.271469 134.601354 
L 187.271469 143.479497 
L 182.910169 143.479497 
L 182.910169 152.35764 
L 184.490668 152.35764 
L 184.490668 161.235783 
L 148.575751 161.235783 
L 148.575751 170.113926 
L 130.410406 170.113926 
L 130.410406 178.99207 
L 119.766873 178.99207 
L 119.766873 187.870213 
L 136.373825 187.870213 
L 136.373825 196.748356 
L 123.62252 196.748356 
L 123.62252 205.626499 
L 128.853832 205.626499 
L 128.853832 214.504642 
L 112.3457 214.504642 
L 112.3457 223.382785 
L 135.607113 223.382785 
L 135.607113 232.260928 
L 154.520096 232.260928 
L 154.520096 241.139072 
L 144.904996 241.139072 
L 144.904996 250.017215 
L 138.272043 250.017215 
L 138.272043 258.895358 
L 109.791264 258.895358 
L 109.791264 267.773501 
L 81.14943 267.773501 
L 81.14943 276.651644 
L 47.034099 276.651644 
L 47.034099 285.529787 
L 73.222964 285.529787 
L 73.222964 294.40793 
L 71.17904 294.40793 
L 71.17904 303.286074 
L 102.573072 303.286074 
L 102.573072 312.164217 
L 111.484152 312.164217 
L 111.484152 321.04236 
L 158.570372 321.04236 
L 158.570372 329.920503 
L 161.567844 329.920503 
L 161.567844 338.798646 
L 142.796256 338.798646 
L 142.796256 347.676789 
L 102.8213 347.676789 
L 102.8213 356.554932 
L 128.831887 356.554932 
L 128.831887 365.433075 
L 131.538862 365.433075 
L 131.538862 374.311219 
L 101.167752 374.311219 
L 101.167752 383.189362 
L 88.206045 383.189362 
L 88.206045 392.067505 
L 53.730097 392.067505 
L 53.730097 400.945648 
L 43.243601 400.945648 
L 43.243601 409.823791 
L 19.472727 409.823791 
L 19.472727 418.701934 
L 43.040923 418.701934 
L 43.040923 427.580077 
L 41.827148 427.580077 
L 41.827148 436.458221 
L 31.865648 436.458221 
L 31.865648 445.336364 
L 82.874808 445.336364 
" clip-path="url(#p894fb4e50b)" style="fill: none; stroke: #fecc5c; stroke-opacity: 0.3; stroke-width: 2; stroke-linecap: square"/>
   </g>
   <g id="line2d_8">
    <path d="M 190.732822 28.063636 
L 190.732822 36.941779 
L 176.013521 36.941779 
L 176.013521 45.819923 
L 181.463179 45.819923 
L 181.463179 54.698066 
L 195.302123 54.698066 
L 195.302123 63.576209 
L 209.41128 63.576209 
L 209.41128 72.454352 
L 207.196145 72.454352 
L 207.196145 81.332495 
L 208.999603 81.332495 
L 208.999603 90.210638 
L 202.845437 90.210638 
L 202.845437 99.088781 
L 156.30535 99.088781 
L 156.30535 107.966925 
L 185.971137 107.966925 
L 185.971137 116.845068 
L 186.403868 116.845068 
L 186.403868 125.723211 
L 198.435625 125.723211 
L 198.435625 134.601354 
L 164.146371 134.601354 
L 164.146371 143.479497 
L 172.469744 143.479497 
L 172.469744 152.35764 
L 187.109993 152.35764 
L 187.109993 161.235783 
L 198.746839 161.235783 
L 198.746839 170.113926 
L 182.176166 170.113926 
L 182.176166 178.99207 
L 173.587839 178.99207 
L 173.587839 187.870213 
L 173.060412 187.870213 
L 173.060412 196.748356 
L 144.120036 196.748356 
L 144.120036 205.626499 
L 138.043584 205.626499 
L 138.043584 214.504642 
L 135.12086 214.504642 
L 135.12086 223.382785 
L 104.579014 223.382785 
L 104.579014 232.260928 
L 76.724896 232.260928 
L 76.724896 241.139072 
L 65.925259 241.139072 
L 65.925259 250.017215 
L 71.62178 250.017215 
L 71.62178 258.895358 
L 91.178847 258.895358 
L 91.178847 267.773501 
L 108.849093 267.773501 
L 108.849093 276.651644 
L 114.463695 276.651644 
L 114.463695 285.529787 
L 95.256467 285.529787 
L 95.256467 294.40793 
L 97.263809 294.40793 
L 97.263809 303.286074 
L 79.386917 303.286074 
L 79.386917 312.164217 
L 95.601764 312.164217 
L 95.601764 321.04236 
L 57.010688 321.04236 
L 57.010688 329.920503 
L 61.402712 329.920503 
L 61.402712 338.798646 
L 83.408386 338.798646 
L 83.408386 347.676789 
L 84.89944 347.676789 
L 84.89944 356.554932 
L 126.916382 356.554932 
L 126.916382 365.433075 
L 133.414249 365.433075 
L 133.414249 374.311219 
L 137.938367 374.311219 
L 137.938367 383.189362 
L 158.147086 383.189362 
L 158.147086 392.067505 
L 160.200593 392.067505 
L 160.200593 400.945648 
L 149.139738 400.945648 
L 149.139738 409.823791 
L 157.243015 409.823791 
L 157.243015 418.701934 
L 135.27191 418.701934 
L 135.27191 427.580077 
L 136.645049 427.580077 
L 136.645049 436.458221 
L 134.263857 436.458221 
L 134.263857 445.336364 
L 73.322828 445.336364 
" clip-path="url(#p894fb4e50b)" style="fill: none; stroke: #fecc5c; stroke-opacity: 0.3; stroke-width: 2; stroke-linecap: square"/>
   </g>
   <g id="line2d_9">
    <path d="M 195.910905 28.063636 
L 195.910905 36.941779 
L 168.205699 36.941779 
L 168.205699 45.819923 
L 187.848172 45.819923 
L 187.848172 54.698066 
L 185.138301 54.698066 
L 185.138301 63.576209 
L 213.493393 63.576209 
L 213.493393 72.454352 
L 210.108151 72.454352 
L 210.108151 81.332495 
L 234.146714 81.332495 
L 234.146714 90.210638 
L 213.213889 90.210638 
L 213.213889 99.088781 
L 199.595065 99.088781 
L 199.595065 107.966925 
L 185.032746 107.966925 
L 185.032746 116.845068 
L 168.221369 116.845068 
L 168.221369 125.723211 
L 140.511681 125.723211 
L 140.511681 134.601354 
L 148.58498 134.601354 
L 148.58498 143.479497 
L 139.874894 143.479497 
L 139.874894 152.35764 
L 191.959907 152.35764 
L 191.959907 161.235783 
L 171.052554 161.235783 
L 171.052554 170.113926 
L 161.733686 170.113926 
L 161.733686 178.99207 
L 141.121374 178.99207 
L 141.121374 187.870213 
L 154.156652 187.870213 
L 154.156652 196.748356 
L 126.862453 196.748356 
L 126.862453 205.626499 
L 113.870647 205.626499 
L 113.870647 214.504642 
L 97.562363 214.504642 
L 97.562363 223.382785 
L 112.527989 223.382785 
L 112.527989 232.260928 
L 130.01023 232.260928 
L 130.01023 241.139072 
L 123.935255 241.139072 
L 123.935255 250.017215 
L 117.830931 250.017215 
L 117.830931 258.895358 
L 113.512804 258.895358 
L 113.512804 267.773501 
L 132.691371 267.773501 
L 132.691371 276.651644 
L 140.043855 276.651644 
L 140.043855 285.529787 
L 102.964018 285.529787 
L 102.964018 294.40793 
L 113.093305 294.40793 
L 113.093305 303.286074 
L 102.704467 303.286074 
L 102.704467 312.164217 
L 110.931603 312.164217 
L 110.931603 321.04236 
L 119.225469 321.04236 
L 119.225469 329.920503 
L 110.906876 329.920503 
L 110.906876 338.798646 
L 110.556614 338.798646 
L 110.556614 347.676789 
L 122.785718 347.676789 
L 122.785718 356.554932 
L 107.320092 356.554932 
L 107.320092 365.433075 
L 102.568667 365.433075 
L 102.568667 374.311219 
L 103.227076 374.311219 
L 103.227076 383.189362 
L 60.101266 383.189362 
L 60.101266 392.067505 
L 54.845528 392.067505 
L 54.845528 400.945648 
L 100.439471 400.945648 
L 100.439471 409.823791 
L 90.910124 409.823791 
L 90.910124 418.701934 
L 107.947828 418.701934 
L 107.947828 427.580077 
L 94.210899 427.580077 
L 94.210899 436.458221 
L 70.437762 436.458221 
L 70.437762 445.336364 
L 80.06862 445.336364 
" clip-path="url(#p894fb4e50b)" style="fill: none; stroke: #fecc5c; stroke-opacity: 0.3; stroke-width: 2; stroke-linecap: square"/>
   </g>
   <g id="line2d_10">
    <path d="M 179.639252 28.063636 
L 179.639252 36.941779 
L 185.973186 36.941779 
L 185.973186 45.819923 
L 175.890298 45.819923 
L 175.890298 54.698066 
L 178.024447 54.698066 
L 178.024447 63.576209 
L 216.959927 63.576209 
L 216.959927 72.454352 
L 217.932802 72.454352 
L 217.932802 81.332495 
L 233.602 81.332495 
L 233.602 90.210638 
L 211.83807 90.210638 
L 211.83807 99.088781 
L 191.273093 99.088781 
L 191.273093 107.966925 
L 174.609366 107.966925 
L 174.609366 116.845068 
L 144.141129 116.845068 
L 144.141129 125.723211 
L 167.776914 125.723211 
L 167.776914 134.601354 
L 209.16057 134.601354 
L 209.16057 143.479497 
L 196.091068 143.479497 
L 196.091068 152.35764 
L 174.801851 152.35764 
L 174.801851 161.235783 
L 123.029541 161.235783 
L 123.029541 170.113926 
L 114.947287 170.113926 
L 114.947287 178.99207 
L 123.221517 178.99207 
L 123.221517 187.870213 
L 119.650358 187.870213 
L 119.650358 196.748356 
L 120.42355 196.748356 
L 120.42355 205.626499 
L 125.959362 205.626499 
L 125.959362 214.504642 
L 113.38356 214.504642 
L 113.38356 223.382785 
L 103.188562 223.382785 
L 103.188562 232.260928 
L 126.335013 232.260928 
L 126.335013 241.139072 
L 108.238408 241.139072 
L 108.238408 250.017215 
L 118.837368 250.017215 
L 118.837368 258.895358 
L 118.406043 258.895358 
L 118.406043 267.773501 
L 137.665946 267.773501 
L 137.665946 276.651644 
L 145.19858 276.651644 
L 145.19858 285.529787 
L 145.602835 285.529787 
L 145.602835 294.40793 
L 145.106952 294.40793 
L 145.106952 303.286074 
L 160.310627 303.286074 
L 160.310627 312.164217 
L 164.862248 312.164217 
L 164.862248 321.04236 
L 130.898224 321.04236 
L 130.898224 329.920503 
L 124.937567 329.920503 
L 124.937567 338.798646 
L 107.898062 338.798646 
L 107.898062 347.676789 
L 117.687723 347.676789 
L 117.687723 356.554932 
L 98.308371 356.554932 
L 98.308371 365.433075 
L 93.249863 365.433075 
L 93.249863 374.311219 
L 56.970686 374.311219 
L 56.970686 383.189362 
L 56.801807 383.189362 
L 56.801807 392.067505 
L 50.184629 392.067505 
L 50.184629 400.945648 
L 58.396908 400.945648 
L 58.396908 409.823791 
L 69.036417 409.823791 
L 69.036417 418.701934 
L 34.036676 418.701934 
L 34.036676 427.580077 
L 46.549922 427.580077 
L 46.549922 436.458221 
L 97.984866 436.458221 
L 97.984866 445.336364 
L 82.29265 445.336364 
" clip-path="url(#p894fb4e50b)" style="fill: none; stroke: #fecc5c; stroke-opacity: 0.3; stroke-width: 2; stroke-linecap: square"/>
   </g>
   <g id="line2d_11">
    <path d="M 164.927156 28.063636 
L 164.927156 36.941779 
L 197.78276 36.941779 
L 197.78276 45.819923 
L 177.224988 45.819923 
L 177.224988 54.698066 
L 186.377938 54.698066 
L 186.377938 63.576209 
L 198.092523 63.576209 
L 198.092523 72.454352 
L 193.217812 72.454352 
L 193.217812 81.332495 
L 196.07205 81.332495 
L 196.07205 90.210638 
L 222.437374 90.210638 
L 222.437374 99.088781 
L 225.687974 99.088781 
L 225.687974 107.966925 
L 211.805597 107.966925 
L 211.805597 116.845068 
L 226.359883 116.845068 
L 226.359883 125.723211 
L 204.091375 125.723211 
L 204.091375 134.601354 
L 180.219481 134.601354 
L 180.219481 143.479497 
L 159.836729 143.479497 
L 159.836729 152.35764 
L 130.515024 152.35764 
L 130.515024 161.235783 
L 130.417012 161.235783 
L 130.417012 170.113926 
L 124.51565 170.113926 
L 124.51565 178.99207 
L 134.254748 178.99207 
L 134.254748 187.870213 
L 116.742369 187.870213 
L 116.742369 196.748356 
L 91.674679 196.748356 
L 91.674679 205.626499 
L 110.157947 205.626499 
L 110.157947 214.504642 
L 107.233263 214.504642 
L 107.233263 223.382785 
L 105.598034 223.382785 
L 105.598034 232.260928 
L 116.908001 232.260928 
L 116.908001 241.139072 
L 102.638254 241.139072 
L 102.638254 250.017215 
L 136.164423 250.017215 
L 136.164423 258.895358 
L 136.83325 258.895358 
L 136.83325 267.773501 
L 137.075317 267.773501 
L 137.075317 276.651644 
L 76.15709 276.651644 
L 76.15709 285.529787 
L 69.415699 285.529787 
L 69.415699 294.40793 
L 112.934242 294.40793 
L 112.934242 303.286074 
L 158.044384 303.286074 
L 158.044384 312.164217 
L 157.481505 312.164217 
L 157.481505 321.04236 
L 142.034197 321.04236 
L 142.034197 329.920503 
L 115.825638 329.920503 
L 115.825638 338.798646 
L 114.011035 338.798646 
L 114.011035 347.676789 
L 108.53455 347.676789 
L 108.53455 356.554932 
L 113.500864 356.554932 
L 113.500864 365.433075 
L 121.110231 365.433075 
L 121.110231 374.311219 
L 102.671351 374.311219 
L 102.671351 383.189362 
L 91.91679 383.189362 
L 91.91679 392.067505 
L 86.024921 392.067505 
L 86.024921 400.945648 
L 97.449407 400.945648 
L 97.449407 409.823791 
L 90.20904 409.823791 
L 90.20904 418.701934 
L 91.769757 418.701934 
L 91.769757 427.580077 
L 75.6693 427.580077 
L 75.6693 436.458221 
L 77.05438 436.458221 
L 77.05438 445.336364 
L 82.381811 445.336364 
" clip-path="url(#p894fb4e50b)" style="fill: none; stroke: #fecc5c; stroke-opacity: 0.3; stroke-width: 2; stroke-linecap: square"/>
   </g>
   <g id="line2d_12">
    <path d="M 193.314608 28.063636 
L 193.314608 36.941779 
L 170.695895 36.941779 
L 170.695895 45.819923 
L 180.609924 45.819923 
L 180.609924 54.698066 
L 198.378519 54.698066 
L 198.378519 63.576209 
L 190.68324 63.576209 
L 190.68324 72.454352 
L 183.134389 72.454352 
L 183.134389 81.332495 
L 210.772752 81.332495 
L 210.772752 90.210638 
L 214.93258 90.210638 
L 214.93258 99.088781 
L 231.888082 99.088781 
L 231.888082 107.966925 
L 209.288248 107.966925 
L 209.288248 116.845068 
L 233.80878 116.845068 
L 233.80878 125.723211 
L 198.658202 125.723211 
L 198.658202 134.601354 
L 160.146364 134.601354 
L 160.146364 143.479497 
L 138.471751 143.479497 
L 138.471751 152.35764 
L 128.01479 152.35764 
L 128.01479 161.235783 
L 121.234084 161.235783 
L 121.234084 170.113926 
L 137.875349 170.113926 
L 137.875349 178.99207 
L 150.241449 178.99207 
L 150.241449 187.870213 
L 134.535278 187.870213 
L 134.535278 196.748356 
L 138.773278 196.748356 
L 138.773278 205.626499 
L 150.823054 205.626499 
L 150.823054 214.504642 
L 142.00383 214.504642 
L 142.00383 223.382785 
L 120.347592 223.382785 
L 120.347592 232.260928 
L 123.898002 232.260928 
L 123.898002 241.139072 
L 100.138313 241.139072 
L 100.138313 250.017215 
L 116.639323 250.017215 
L 116.639323 258.895358 
L 88.623809 258.895358 
L 88.623809 267.773501 
L 82.548404 267.773501 
L 82.548404 276.651644 
L 64.627222 276.651644 
L 64.627222 285.529787 
L 93.912243 285.529787 
L 93.912243 294.40793 
L 121.065066 294.40793 
L 121.065066 303.286074 
L 136.195044 303.286074 
L 136.195044 312.164217 
L 112.475154 312.164217 
L 112.475154 321.04236 
L 129.609209 321.04236 
L 129.609209 329.920503 
L 139.729025 329.920503 
L 139.729025 338.798646 
L 131.22381 338.798646 
L 131.22381 347.676789 
L 141.799233 347.676789 
L 141.799233 356.554932 
L 127.567853 356.554932 
L 127.567853 365.433075 
L 136.68663 365.433075 
L 136.68663 374.311219 
L 136.312207 374.311219 
L 136.312207 383.189362 
L 101.542824 383.189362 
L 101.542824 392.067505 
L 84.812897 392.067505 
L 84.812897 400.945648 
L 77.372373 400.945648 
L 77.372373 409.823791 
L 65.903966 409.823791 
L 65.903966 418.701934 
L 70.586266 418.701934 
L 70.586266 427.580077 
L 46.88461 427.580077 
L 46.88461 436.458221 
L 85.795176 436.458221 
L 85.795176 445.336364 
L 78.363429 445.336364 
" clip-path="url(#p894fb4e50b)" style="fill: none; stroke: #fecc5c; stroke-opacity: 0.3; stroke-width: 2; stroke-linecap: square"/>
   </g>
   <g id="line2d_13">
    <path d="M 161.075793 28.063636 
L 161.075793 36.941779 
L 190.575712 36.941779 
L 190.575712 45.819923 
L 189.049824 45.819923 
L 189.049824 54.698066 
L 186.005176 54.698066 
L 186.005176 63.576209 
L 204.167206 63.576209 
L 204.167206 72.454352 
L 196.76332 72.454352 
L 196.76332 81.332495 
L 205.306801 81.332495 
L 205.306801 90.210638 
L 211.940543 90.210638 
L 211.940543 99.088781 
L 227.913573 99.088781 
L 227.913573 107.966925 
L 187.093954 107.966925 
L 187.093954 116.845068 
L 167.942488 116.845068 
L 167.942488 125.723211 
L 185.674167 125.723211 
L 185.674167 134.601354 
L 175.604047 134.601354 
L 175.604047 143.479497 
L 180.506343 143.479497 
L 180.506343 152.35764 
L 176.140767 152.35764 
L 176.140767 161.235783 
L 142.964535 161.235783 
L 142.964535 170.113926 
L 155.814101 170.113926 
L 155.814101 178.99207 
L 140.412785 178.99207 
L 140.412785 187.870213 
L 116.433574 187.870213 
L 116.433574 196.748356 
L 126.153266 196.748356 
L 126.153266 205.626499 
L 123.50682 205.626499 
L 123.50682 214.504642 
L 160.023256 214.504642 
L 160.023256 223.382785 
L 150.496411 223.382785 
L 150.496411 232.260928 
L 108.987381 232.260928 
L 108.987381 241.139072 
L 85.605012 241.139072 
L 85.605012 250.017215 
L 90.366397 250.017215 
L 90.366397 258.895358 
L 84.597636 258.895358 
L 84.597636 267.773501 
L 99.928586 267.773501 
L 99.928586 276.651644 
L 102.823082 276.651644 
L 102.823082 285.529787 
L 104.485903 285.529787 
L 104.485903 294.40793 
L 96.754465 294.40793 
L 96.754465 303.286074 
L 104.377179 303.286074 
L 104.377179 312.164217 
L 73.746289 312.164217 
L 73.746289 321.04236 
L 69.598615 321.04236 
L 69.598615 329.920503 
L 93.789975 329.920503 
L 93.789975 338.798646 
L 125.891386 338.798646 
L 125.891386 347.676789 
L 106.042062 347.676789 
L 106.042062 356.554932 
L 99.953402 356.554932 
L 99.953402 365.433075 
L 90.130504 365.433075 
L 90.130504 374.311219 
L 103.096431 374.311219 
L 103.096431 383.189362 
L 79.978065 383.189362 
L 79.978065 392.067505 
L 66.340179 392.067505 
L 66.340179 400.945648 
L 100.447605 400.945648 
L 100.447605 409.823791 
L 70.091764 409.823791 
L 70.091764 418.701934 
L 70.349746 418.701934 
L 70.349746 427.580077 
L 67.699929 427.580077 
L 67.699929 436.458221 
L 66.935897 436.458221 
L 66.935897 445.336364 
L 79.586008 445.336364 
" clip-path="url(#p894fb4e50b)" style="fill: none; stroke: #fecc5c; stroke-opacity: 0.3; stroke-width: 2; stroke-linecap: square"/>
   </g>
   <g id="line2d_14">
    <path d="M 195.504015 28.063636 
L 195.504015 36.941779 
L 166.130972 36.941779 
L 166.130972 45.819923 
L 191.698224 45.819923 
L 191.698224 54.698066 
L 169.961217 54.698066 
L 169.961217 63.576209 
L 202.667948 63.576209 
L 202.667948 72.454352 
L 251.64306 72.454352 
L 251.64306 81.332495 
L 216.01246 81.332495 
L 216.01246 90.210638 
L 186.213916 90.210638 
L 186.213916 99.088781 
L 214.039456 99.088781 
L 214.039456 107.966925 
L 202.646715 107.966925 
L 202.646715 116.845068 
L 165.599115 116.845068 
L 165.599115 125.723211 
L 149.532943 125.723211 
L 149.532943 134.601354 
L 155.38389 134.601354 
L 155.38389 143.479497 
L 143.43261 143.479497 
L 143.43261 152.35764 
L 165.224826 152.35764 
L 165.224826 161.235783 
L 150.961068 161.235783 
L 150.961068 170.113926 
L 153.925151 170.113926 
L 153.925151 178.99207 
L 165.074374 178.99207 
L 165.074374 187.870213 
L 159.262202 187.870213 
L 159.262202 196.748356 
L 118.383817 196.748356 
L 118.383817 205.626499 
L 124.854844 205.626499 
L 124.854844 214.504642 
L 121.192923 214.504642 
L 121.192923 223.382785 
L 123.923174 223.382785 
L 123.923174 232.260928 
L 98.16184 232.260928 
L 98.16184 241.139072 
L 87.758388 241.139072 
L 87.758388 250.017215 
L 115.043097 250.017215 
L 115.043097 258.895358 
L 97.947136 258.895358 
L 97.947136 267.773501 
L 99.131482 267.773501 
L 99.131482 276.651644 
L 100.59313 276.651644 
L 100.59313 285.529787 
L 111.578874 285.529787 
L 111.578874 294.40793 
L 149.873728 294.40793 
L 149.873728 303.286074 
L 146.099239 303.286074 
L 146.099239 312.164217 
L 142.962492 312.164217 
L 142.962492 321.04236 
L 93.704884 321.04236 
L 93.704884 329.920503 
L 86.346226 329.920503 
L 86.346226 338.798646 
L 84.888772 338.798646 
L 84.888772 347.676789 
L 115.21452 347.676789 
L 115.21452 356.554932 
L 158.005927 356.554932 
L 158.005927 365.433075 
L 153.42914 365.433075 
L 153.42914 374.311219 
L 113.725217 374.311219 
L 113.725217 383.189362 
L 132.039748 383.189362 
L 132.039748 392.067505 
L 122.409984 392.067505 
L 122.409984 400.945648 
L 92.939483 400.945648 
L 92.939483 409.823791 
L 85.81801 409.823791 
L 85.81801 418.701934 
L 82.146806 418.701934 
L 82.146806 427.580077 
L 87.096186 427.580077 
L 87.096186 436.458221 
L 86.658491 436.458221 
L 86.658491 445.336364 
L 75.123683 445.336364 
" clip-path="url(#p894fb4e50b)" style="fill: none; stroke: #fecc5c; stroke-opacity: 0.3; stroke-width: 2; stroke-linecap: square"/>
   </g>
   <g id="line2d_15">
    <path d="M 186.851162 28.063636 
L 186.851162 36.941779 
L 175.515334 36.941779 
L 175.515334 45.819923 
L 186.963819 45.819923 
L 186.963819 54.698066 
L 211.003235 54.698066 
L 211.003235 63.576209 
L 173.974552 63.576209 
L 173.974552 72.454352 
L 176.848509 72.454352 
L 176.848509 81.332495 
L 196.084538 81.332495 
L 196.084538 90.210638 
L 241.439228 90.210638 
L 241.439228 99.088781 
L 249.770493 99.088781 
L 249.770493 107.966925 
L 216.035781 107.966925 
L 216.035781 116.845068 
L 207.605607 116.845068 
L 207.605607 125.723211 
L 181.710885 125.723211 
L 181.710885 134.601354 
L 159.238869 134.601354 
L 159.238869 143.479497 
L 151.612444 143.479497 
L 151.612444 152.35764 
L 118.705762 152.35764 
L 118.705762 161.235783 
L 141.047478 161.235783 
L 141.047478 170.113926 
L 153.184082 170.113926 
L 153.184082 178.99207 
L 114.895439 178.99207 
L 114.895439 187.870213 
L 103.218375 187.870213 
L 103.218375 196.748356 
L 121.773133 196.748356 
L 121.773133 205.626499 
L 126.896409 205.626499 
L 126.896409 214.504642 
L 114.248577 214.504642 
L 114.248577 223.382785 
L 95.373898 223.382785 
L 95.373898 232.260928 
L 78.532399 232.260928 
L 78.532399 241.139072 
L 97.008987 241.139072 
L 97.008987 250.017215 
L 157.607413 250.017215 
L 157.607413 258.895358 
L 157.48764 258.895358 
L 157.48764 267.773501 
L 153.848824 267.773501 
L 153.848824 276.651644 
L 137.267566 276.651644 
L 137.267566 285.529787 
L 138.86271 285.529787 
L 138.86271 294.40793 
L 133.552346 294.40793 
L 133.552346 303.286074 
L 139.91645 303.286074 
L 139.91645 312.164217 
L 114.631039 312.164217 
L 114.631039 321.04236 
L 86.897808 321.04236 
L 86.897808 329.920503 
L 97.996832 329.920503 
L 97.996832 338.798646 
L 80.281708 338.798646 
L 80.281708 347.676789 
L 85.420228 347.676789 
L 85.420228 356.554932 
L 108.798391 356.554932 
L 108.798391 365.433075 
L 108.14958 365.433075 
L 108.14958 374.311219 
L 86.790745 374.311219 
L 86.790745 383.189362 
L 100.77841 383.189362 
L 100.77841 392.067505 
L 72.922036 392.067505 
L 72.922036 400.945648 
L 52.454723 400.945648 
L 52.454723 409.823791 
L 73.312749 409.823791 
L 73.312749 418.701934 
L 59.556236 418.701934 
L 59.556236 427.580077 
L 42.375981 427.580077 
L 42.375981 436.458221 
L 52.822005 436.458221 
L 52.822005 445.336364 
L 73.962257 445.336364 
" clip-path="url(#p894fb4e50b)" style="fill: none; stroke: #fecc5c; stroke-opacity: 0.3; stroke-width: 2; stroke-linecap: square"/>
   </g>
   <g id="line2d_16">
    <path d="M 199.288955 28.063636 
L 199.288955 36.941779 
L 171.044471 36.941779 
L 171.044471 45.819923 
L 186.687306 45.819923 
L 186.687306 54.698066 
L 189.658542 54.698066 
L 189.658542 63.576209 
L 194.113634 63.576209 
L 194.113634 72.454352 
L 218.992327 72.454352 
L 218.992327 81.332495 
L 203.036941 81.332495 
L 203.036941 90.210638 
L 195.972733 90.210638 
L 195.972733 99.088781 
L 208.562697 99.088781 
L 208.562697 107.966925 
L 192.473484 107.966925 
L 192.473484 116.845068 
L 192.772032 116.845068 
L 192.772032 125.723211 
L 177.522225 125.723211 
L 177.522225 134.601354 
L 198.82426 134.601354 
L 198.82426 143.479497 
L 198.014223 143.479497 
L 198.014223 152.35764 
L 178.860733 152.35764 
L 178.860733 161.235783 
L 142.186717 161.235783 
L 142.186717 170.113926 
L 145.784397 170.113926 
L 145.784397 178.99207 
L 183.218303 178.99207 
L 183.218303 187.870213 
L 151.296621 187.870213 
L 151.296621 196.748356 
L 112.604303 196.748356 
L 112.604303 205.626499 
L 96.705405 205.626499 
L 96.705405 214.504642 
L 88.278753 214.504642 
L 88.278753 223.382785 
L 90.087739 223.382785 
L 90.087739 232.260928 
L 83.142559 232.260928 
L 83.142559 241.139072 
L 66.260278 241.139072 
L 66.260278 250.017215 
L 71.593947 250.017215 
L 71.593947 258.895358 
L 67.917377 258.895358 
L 67.917377 267.773501 
L 122.266114 267.773501 
L 122.266114 276.651644 
L 150.167999 276.651644 
L 150.167999 285.529787 
L 129.612519 285.529787 
L 129.612519 294.40793 
L 126.158492 294.40793 
L 126.158492 303.286074 
L 141.880181 303.286074 
L 141.880181 312.164217 
L 137.908179 312.164217 
L 137.908179 321.04236 
L 138.03867 321.04236 
L 138.03867 329.920503 
L 118.926781 329.920503 
L 118.926781 338.798646 
L 135.993362 338.798646 
L 135.993362 347.676789 
L 126.411099 347.676789 
L 126.411099 356.554932 
L 110.868013 356.554932 
L 110.868013 365.433075 
L 132.377866 365.433075 
L 132.377866 374.311219 
L 88.407879 374.311219 
L 88.407879 383.189362 
L 70.431702 383.189362 
L 70.431702 392.067505 
L 53.841942 392.067505 
L 53.841942 400.945648 
L 73.877996 400.945648 
L 73.877996 409.823791 
L 67.366954 409.823791 
L 67.366954 418.701934 
L 67.623673 418.701934 
L 67.623673 427.580077 
L 75.256195 427.580077 
L 75.256195 436.458221 
L 70.149712 436.458221 
L 70.149712 445.336364 
L 79.962541 445.336364 
" clip-path="url(#p894fb4e50b)" style="fill: none; stroke: #fecc5c; stroke-opacity: 0.3; stroke-width: 2; stroke-linecap: square"/>
   </g>
   <g id="line2d_17">
    <path d="M 167.136473 28.063636 
L 167.136473 36.941779 
L 196.836783 36.941779 
L 196.836783 45.819923 
L 180.898352 45.819923 
L 180.898352 54.698066 
L 179.090694 54.698066 
L 179.090694 63.576209 
L 164.562236 63.576209 
L 164.562236 72.454352 
L 208.988261 72.454352 
L 208.988261 81.332495 
L 234.329486 81.332495 
L 234.329486 90.210638 
L 264.927273 90.210638 
L 264.927273 99.088781 
L 231.851217 99.088781 
L 231.851217 107.966925 
L 186.295348 107.966925 
L 186.295348 116.845068 
L 164.966542 116.845068 
L 164.966542 125.723211 
L 179.648939 125.723211 
L 179.648939 134.601354 
L 186.692576 134.601354 
L 186.692576 143.479497 
L 174.25757 143.479497 
L 174.25757 152.35764 
L 139.749673 152.35764 
L 139.749673 161.235783 
L 133.154571 161.235783 
L 133.154571 170.113926 
L 134.31025 170.113926 
L 134.31025 178.99207 
L 126.342193 178.99207 
L 126.342193 187.870213 
L 96.304001 187.870213 
L 96.304001 196.748356 
L 125.946021 196.748356 
L 125.946021 205.626499 
L 148.076202 205.626499 
L 148.076202 214.504642 
L 127.335308 214.504642 
L 127.335308 223.382785 
L 116.855007 223.382785 
L 116.855007 232.260928 
L 130.719806 232.260928 
L 130.719806 241.139072 
L 102.235094 241.139072 
L 102.235094 250.017215 
L 128.916208 250.017215 
L 128.916208 258.895358 
L 134.347968 258.895358 
L 134.347968 267.773501 
L 124.607157 267.773501 
L 124.607157 276.651644 
L 132.045731 276.651644 
L 132.045731 285.529787 
L 129.617018 285.529787 
L 129.617018 294.40793 
L 136.542238 294.40793 
L 136.542238 303.286074 
L 113.238137 303.286074 
L 113.238137 312.164217 
L 114.593092 312.164217 
L 114.593092 321.04236 
L 112.880428 321.04236 
L 112.880428 329.920503 
L 93.55076 329.920503 
L 93.55076 338.798646 
L 129.848831 338.798646 
L 129.848831 347.676789 
L 107.608545 347.676789 
L 107.608545 356.554932 
L 130.627726 356.554932 
L 130.627726 365.433075 
L 122.661299 365.433075 
L 122.661299 374.311219 
L 97.498601 374.311219 
L 97.498601 383.189362 
L 86.265069 383.189362 
L 86.265069 392.067505 
L 89.985546 392.067505 
L 89.985546 400.945648 
L 98.188763 400.945648 
L 98.188763 409.823791 
L 93.78622 409.823791 
L 93.78622 418.701934 
L 91.693487 418.701934 
L 91.693487 427.580077 
L 91.476109 427.580077 
L 91.476109 436.458221 
L 49.534675 436.458221 
L 49.534675 445.336364 
L 77.352934 445.336364 
" clip-path="url(#p894fb4e50b)" style="fill: none; stroke: #fecc5c; stroke-opacity: 0.3; stroke-width: 2; stroke-linecap: square"/>
   </g>
   <g id="line2d_18">
    <path d="M 188.2606 28.063636 
L 188.2606 36.941779 
L 179.04782 36.941779 
L 179.04782 45.819923 
L 181.170347 45.819923 
L 181.170347 54.698066 
L 189.478482 54.698066 
L 189.478482 63.576209 
L 197.383431 63.576209 
L 197.383431 72.454352 
L 189.506296 72.454352 
L 189.506296 81.332495 
L 192.930427 81.332495 
L 192.930427 90.210638 
L 208.808799 90.210638 
L 208.808799 99.088781 
L 193.160235 99.088781 
L 193.160235 107.966925 
L 211.825888 107.966925 
L 211.825888 116.845068 
L 226.707694 116.845068 
L 226.707694 125.723211 
L 222.528059 125.723211 
L 222.528059 134.601354 
L 225.049252 134.601354 
L 225.049252 143.479497 
L 193.631983 143.479497 
L 193.631983 152.35764 
L 190.648615 152.35764 
L 190.648615 161.235783 
L 144.560303 161.235783 
L 144.560303 170.113926 
L 126.43391 170.113926 
L 126.43391 178.99207 
L 88.046921 178.99207 
L 88.046921 187.870213 
L 78.488739 187.870213 
L 78.488739 196.748356 
L 99.073384 196.748356 
L 99.073384 205.626499 
L 90.906586 205.626499 
L 90.906586 214.504642 
L 107.919206 214.504642 
L 107.919206 223.382785 
L 96.61461 223.382785 
L 96.61461 232.260928 
L 120.575746 232.260928 
L 120.575746 241.139072 
L 126.964347 241.139072 
L 126.964347 250.017215 
L 108.228822 250.017215 
L 108.228822 258.895358 
L 106.637968 258.895358 
L 106.637968 267.773501 
L 112.724127 267.773501 
L 112.724127 276.651644 
L 125.351834 276.651644 
L 125.351834 285.529787 
L 118.183949 285.529787 
L 118.183949 294.40793 
L 112.938933 294.40793 
L 112.938933 303.286074 
L 134.027735 303.286074 
L 134.027735 312.164217 
L 144.41516 312.164217 
L 144.41516 321.04236 
L 136.955041 321.04236 
L 136.955041 329.920503 
L 133.568621 329.920503 
L 133.568621 338.798646 
L 115.692295 338.798646 
L 115.692295 347.676789 
L 116.237353 347.676789 
L 116.237353 356.554932 
L 125.224811 356.554932 
L 125.224811 365.433075 
L 127.573066 365.433075 
L 127.573066 374.311219 
L 109.174952 374.311219 
L 109.174952 383.189362 
L 105.527779 383.189362 
L 105.527779 392.067505 
L 116.180935 392.067505 
L 116.180935 400.945648 
L 107.908252 400.945648 
L 107.908252 409.823791 
L 84.73581 409.823791 
L 84.73581 418.701934 
L 106.937516 418.701934 
L 106.937516 427.580077 
L 56.124088 427.580077 
L 56.124088 436.458221 
L 62.134889 436.458221 
L 62.134889 445.336364 
L 78.762582 445.336364 
" clip-path="url(#p894fb4e50b)" style="fill: none; stroke: #fecc5c; stroke-opacity: 0.3; stroke-width: 2; stroke-linecap: square"/>
   </g>
   <g id="line2d_19">
    <path d="M 161.42969 28.063636 
L 161.42969 36.941779 
L 205.797197 36.941779 
L 205.797197 45.819923 
L 174.916749 45.819923 
L 174.916749 54.698066 
L 179.365259 54.698066 
L 179.365259 63.576209 
L 188.971715 63.576209 
L 188.971715 72.454352 
L 212.151563 72.454352 
L 212.151563 81.332495 
L 218.786718 81.332495 
L 218.786718 90.210638 
L 196.267832 90.210638 
L 196.267832 99.088781 
L 197.107236 99.088781 
L 197.107236 107.966925 
L 187.147571 107.966925 
L 187.147571 116.845068 
L 186.51608 116.845068 
L 186.51608 125.723211 
L 199.879101 125.723211 
L 199.879101 134.601354 
L 198.309741 134.601354 
L 198.309741 143.479497 
L 187.590601 143.479497 
L 187.590601 152.35764 
L 174.536782 152.35764 
L 174.536782 161.235783 
L 145.553444 161.235783 
L 145.553444 170.113926 
L 112.947156 170.113926 
L 112.947156 178.99207 
L 108.757713 178.99207 
L 108.757713 187.870213 
L 136.312589 187.870213 
L 136.312589 196.748356 
L 117.705926 196.748356 
L 117.705926 205.626499 
L 107.469035 205.626499 
L 107.469035 214.504642 
L 134.235107 214.504642 
L 134.235107 223.382785 
L 143.317713 223.382785 
L 143.317713 232.260928 
L 131.312548 232.260928 
L 131.312548 241.139072 
L 131.430756 241.139072 
L 131.430756 250.017215 
L 105.202314 250.017215 
L 105.202314 258.895358 
L 103.1096 258.895358 
L 103.1096 267.773501 
L 115.954526 267.773501 
L 115.954526 276.651644 
L 131.900836 276.651644 
L 131.900836 285.529787 
L 128.730336 285.529787 
L 128.730336 294.40793 
L 98.316518 294.40793 
L 98.316518 303.286074 
L 86.510976 303.286074 
L 86.510976 312.164217 
L 92.155013 312.164217 
L 92.155013 321.04236 
L 75.574382 321.04236 
L 75.574382 329.920503 
L 56.233066 329.920503 
L 56.233066 338.798646 
L 56.574814 338.798646 
L 56.574814 347.676789 
L 87.487922 347.676789 
L 87.487922 356.554932 
L 131.815522 356.554932 
L 131.815522 365.433075 
L 139.236541 365.433075 
L 139.236541 374.311219 
L 116.316098 374.311219 
L 116.316098 383.189362 
L 110.351342 383.189362 
L 110.351342 392.067505 
L 91.050157 392.067505 
L 91.050157 400.945648 
L 115.829394 400.945648 
L 115.829394 409.823791 
L 88.856262 409.823791 
L 88.856262 418.701934 
L 74.333112 418.701934 
L 74.333112 427.580077 
L 83.371056 427.580077 
L 83.371056 436.458221 
L 82.160051 436.458221 
L 82.160051 445.336364 
L 81.675377 445.336364 
" clip-path="url(#p894fb4e50b)" style="fill: none; stroke: #fecc5c; stroke-opacity: 0.3; stroke-width: 2; stroke-linecap: square"/>
   </g>
   <g id="line2d_20">
    <path d="M 163.042623 28.063636 
L 163.042623 36.941779 
L 200.267712 36.941779 
L 200.267712 45.819923 
L 169.794395 45.819923 
L 169.794395 54.698066 
L 190.796648 54.698066 
L 190.796648 63.576209 
L 217.756471 63.576209 
L 217.756471 72.454352 
L 225.636369 72.454352 
L 225.636369 81.332495 
L 176.673285 81.332495 
L 176.673285 90.210638 
L 176.559381 90.210638 
L 176.559381 99.088781 
L 178.437243 99.088781 
L 178.437243 107.966925 
L 193.313093 107.966925 
L 193.313093 116.845068 
L 178.065016 116.845068 
L 178.065016 125.723211 
L 180.480248 125.723211 
L 180.480248 134.601354 
L 221.923796 134.601354 
L 221.923796 143.479497 
L 198.701674 143.479497 
L 198.701674 152.35764 
L 188.955217 152.35764 
L 188.955217 161.235783 
L 155.586151 161.235783 
L 155.586151 170.113926 
L 138.164496 170.113926 
L 138.164496 178.99207 
L 118.064552 178.99207 
L 118.064552 187.870213 
L 145.358591 187.870213 
L 145.358591 196.748356 
L 149.864716 196.748356 
L 149.864716 205.626499 
L 157.875932 205.626499 
L 157.875932 214.504642 
L 134.164336 214.504642 
L 134.164336 223.382785 
L 132.527617 223.382785 
L 132.527617 232.260928 
L 157.58394 232.260928 
L 157.58394 241.139072 
L 112.746977 241.139072 
L 112.746977 250.017215 
L 111.250564 250.017215 
L 111.250564 258.895358 
L 55.715118 258.895358 
L 55.715118 267.773501 
L 48.707481 267.773501 
L 48.707481 276.651644 
L 51.643335 276.651644 
L 51.643335 285.529787 
L 81.644298 285.529787 
L 81.644298 294.40793 
L 99.851005 294.40793 
L 99.851005 303.286074 
L 55.723649 303.286074 
L 55.723649 312.164217 
L 88.626498 312.164217 
L 88.626498 321.04236 
L 102.002218 321.04236 
L 102.002218 329.920503 
L 84.076596 329.920503 
L 84.076596 338.798646 
L 115.191257 338.798646 
L 115.191257 347.676789 
L 110.947369 347.676789 
L 110.947369 356.554932 
L 148.718132 356.554932 
L 148.718132 365.433075 
L 148.569297 365.433075 
L 148.569297 374.311219 
L 145.193704 374.311219 
L 145.193704 383.189362 
L 117.476907 383.189362 
L 117.476907 392.067505 
L 118.090164 392.067505 
L 118.090164 400.945648 
L 107.8929 400.945648 
L 107.8929 409.823791 
L 74.876925 409.823791 
L 74.876925 418.701934 
L 101.828019 418.701934 
L 101.828019 427.580077 
L 96.707352 427.580077 
L 96.707352 436.458221 
L 63.899112 436.458221 
L 63.899112 445.336364 
L 80.408473 445.336364 
" clip-path="url(#p894fb4e50b)" style="fill: none; stroke: #fecc5c; stroke-opacity: 0.3; stroke-width: 2; stroke-linecap: square"/>
   </g>
   <g id="line2d_21">
    <path d="M 182.610972 28.063636 
L 182.610972 36.941779 
L 183.818925 36.941779 
L 183.818925 45.819923 
L 188.498733 45.819923 
L 188.498733 54.698066 
L 184.900689 54.698066 
L 184.900689 63.576209 
L 197.332767 63.576209 
L 197.332767 72.454352 
L 196.309228 72.454352 
L 196.309228 81.332495 
L 212.605247 81.332495 
L 212.605247 90.210638 
L 218.647138 90.210638 
L 218.647138 99.088781 
L 208.232325 99.088781 
L 208.232325 107.966925 
L 192.066238 107.966925 
L 192.066238 116.845068 
L 189.993803 116.845068 
L 189.993803 125.723211 
L 166.922335 125.723211 
L 166.922335 134.601354 
L 150.754912 134.601354 
L 150.754912 143.479497 
L 151.698318 143.479497 
L 151.698318 152.35764 
L 185.256368 152.35764 
L 185.256368 161.235783 
L 172.000479 161.235783 
L 172.000479 170.113926 
L 149.738043 170.113926 
L 149.738043 178.99207 
L 163.911255 178.99207 
L 163.911255 187.870213 
L 153.509146 187.870213 
L 153.509146 196.748356 
L 152.817723 196.748356 
L 152.817723 205.626499 
L 130.418247 205.626499 
L 130.418247 214.504642 
L 145.601676 214.504642 
L 145.601676 223.382785 
L 103.957795 223.382785 
L 103.957795 232.260928 
L 108.777756 232.260928 
L 108.777756 241.139072 
L 97.83551 241.139072 
L 97.83551 250.017215 
L 66.709892 250.017215 
L 66.709892 258.895358 
L 101.912264 258.895358 
L 101.912264 267.773501 
L 97.204591 267.773501 
L 97.204591 276.651644 
L 101.268342 276.651644 
L 101.268342 285.529787 
L 100.566665 285.529787 
L 100.566665 294.40793 
L 115.338176 294.40793 
L 115.338176 303.286074 
L 132.775113 303.286074 
L 132.775113 312.164217 
L 113.068699 312.164217 
L 113.068699 321.04236 
L 110.784678 321.04236 
L 110.784678 329.920503 
L 113.263889 329.920503 
L 113.263889 338.798646 
L 112.116039 338.798646 
L 112.116039 347.676789 
L 111.870019 347.676789 
L 111.870019 356.554932 
L 97.617165 356.554932 
L 97.617165 365.433075 
L 93.840448 365.433075 
L 93.840448 374.311219 
L 96.375363 374.311219 
L 96.375363 383.189362 
L 115.998717 383.189362 
L 115.998717 392.067505 
L 87.604547 392.067505 
L 87.604547 400.945648 
L 106.004325 400.945648 
L 106.004325 409.823791 
L 96.997397 409.823791 
L 96.997397 418.701934 
L 75.075361 418.701934 
L 75.075361 427.580077 
L 43.20662 427.580077 
L 43.20662 436.458221 
L 80.205979 436.458221 
L 80.205979 445.336364 
L 80.800943 445.336364 
" clip-path="url(#p894fb4e50b)" style="fill: none; stroke: #fecc5c; stroke-opacity: 0.3; stroke-width: 2; stroke-linecap: square"/>
   </g>
   <g id="line2d_22">
    <path d="M 211.233234 28.063636 
L 211.233234 36.941779 
L 174.482605 36.941779 
L 174.482605 45.819923 
L 167.704139 45.819923 
L 167.704139 54.698066 
L 203.926514 54.698066 
L 203.926514 63.576209 
L 179.550348 63.576209 
L 179.550348 72.454352 
L 216.026246 72.454352 
L 216.026246 81.332495 
L 224.927162 81.332495 
L 224.927162 90.210638 
L 210.799777 90.210638 
L 210.799777 99.088781 
L 209.457998 99.088781 
L 209.457998 107.966925 
L 199.317177 107.966925 
L 199.317177 116.845068 
L 167.294524 116.845068 
L 167.294524 125.723211 
L 177.878171 125.723211 
L 177.878171 134.601354 
L 205.390103 134.601354 
L 205.390103 143.479497 
L 195.895273 143.479497 
L 195.895273 152.35764 
L 181.276257 152.35764 
L 181.276257 161.235783 
L 152.475755 161.235783 
L 152.475755 170.113926 
L 104.402683 170.113926 
L 104.402683 178.99207 
L 140.65405 178.99207 
L 140.65405 187.870213 
L 101.788182 187.870213 
L 101.788182 196.748356 
L 135.611581 196.748356 
L 135.611581 205.626499 
L 112.547497 205.626499 
L 112.547497 214.504642 
L 85.953988 214.504642 
L 85.953988 223.382785 
L 86.394503 223.382785 
L 86.394503 232.260928 
L 64.360154 232.260928 
L 64.360154 241.139072 
L 93.82556 241.139072 
L 93.82556 250.017215 
L 116.565561 250.017215 
L 116.565561 258.895358 
L 104.16926 258.895358 
L 104.16926 267.773501 
L 109.395175 267.773501 
L 109.395175 276.651644 
L 140.20309 276.651644 
L 140.20309 285.529787 
L 122.704637 285.529787 
L 122.704637 294.40793 
L 105.899573 294.40793 
L 105.899573 303.286074 
L 101.510396 303.286074 
L 101.510396 312.164217 
L 158.711836 312.164217 
L 158.711836 321.04236 
L 143.458273 321.04236 
L 143.458273 329.920503 
L 158.173615 329.920503 
L 158.173615 338.798646 
L 180.695047 338.798646 
L 180.695047 347.676789 
L 169.103049 347.676789 
L 169.103049 356.554932 
L 169.323373 356.554932 
L 169.323373 365.433075 
L 135.820595 365.433075 
L 135.820595 374.311219 
L 125.011972 374.311219 
L 125.011972 383.189362 
L 120.962726 383.189362 
L 120.962726 392.067505 
L 99.067528 392.067505 
L 99.067528 400.945648 
L 113.770592 400.945648 
L 113.770592 409.823791 
L 98.843429 409.823791 
L 98.843429 418.701934 
L 109.110286 418.701934 
L 109.110286 427.580077 
L 105.050971 427.580077 
L 105.050971 436.458221 
L 76.657667 436.458221 
L 76.657667 445.336364 
L 78.316364 445.336364 
" clip-path="url(#p894fb4e50b)" style="fill: none; stroke: #fecc5c; stroke-opacity: 0.3; stroke-width: 2; stroke-linecap: square"/>
   </g>
   <g id="line2d_23">
    <path d="M 174.332535 28.063636 
L 174.332535 36.941779 
L 189.351364 36.941779 
L 189.351364 45.819923 
L 196.540551 45.819923 
L 196.540551 54.698066 
L 172.159192 54.698066 
L 172.159192 63.576209 
L 187.389714 63.576209 
L 187.389714 72.454352 
L 187.069297 72.454352 
L 187.069297 81.332495 
L 171.93529 81.332495 
L 171.93529 90.210638 
L 195.065607 90.210638 
L 195.065607 99.088781 
L 228.730611 99.088781 
L 228.730611 107.966925 
L 226.820263 107.966925 
L 226.820263 116.845068 
L 252.214697 116.845068 
L 252.214697 125.723211 
L 209.366102 125.723211 
L 209.366102 134.601354 
L 193.421817 134.601354 
L 193.421817 143.479497 
L 184.501653 143.479497 
L 184.501653 152.35764 
L 167.543618 152.35764 
L 167.543618 161.235783 
L 162.155075 161.235783 
L 162.155075 170.113926 
L 174.083836 170.113926 
L 174.083836 178.99207 
L 164.664378 178.99207 
L 164.664378 187.870213 
L 125.128085 187.870213 
L 125.128085 196.748356 
L 88.102827 196.748356 
L 88.102827 205.626499 
L 95.630648 205.626499 
L 95.630648 214.504642 
L 88.35509 214.504642 
L 88.35509 223.382785 
L 69.546197 223.382785 
L 69.546197 232.260928 
L 70.829405 232.260928 
L 70.829405 241.139072 
L 80.466816 241.139072 
L 80.466816 250.017215 
L 92.167316 250.017215 
L 92.167316 258.895358 
L 110.024757 258.895358 
L 110.024757 267.773501 
L 103.16493 267.773501 
L 103.16493 276.651644 
L 131.579533 276.651644 
L 131.579533 285.529787 
L 148.332832 285.529787 
L 148.332832 294.40793 
L 139.134889 294.40793 
L 139.134889 303.286074 
L 110.75316 303.286074 
L 110.75316 312.164217 
L 106.011861 312.164217 
L 106.011861 321.04236 
L 106.391669 321.04236 
L 106.391669 329.920503 
L 114.085618 329.920503 
L 114.085618 338.798646 
L 142.488829 338.798646 
L 142.488829 347.676789 
L 112.389293 347.676789 
L 112.389293 356.554932 
L 90.548666 356.554932 
L 90.548666 365.433075 
L 73.049186 365.433075 
L 73.049186 374.311219 
L 85.553218 374.311219 
L 85.553218 383.189362 
L 97.411715 383.189362 
L 97.411715 392.067505 
L 94.872076 392.067505 
L 94.872076 400.945648 
L 105.754436 400.945648 
L 105.754436 409.823791 
L 83.16145 409.823791 
L 83.16145 418.701934 
L 97.085454 418.701934 
L 97.085454 427.580077 
L 99.275957 427.580077 
L 99.275957 436.458221 
L 79.371778 436.458221 
L 79.371778 445.336364 
L 73.297617 445.336364 
" clip-path="url(#p894fb4e50b)" style="fill: none; stroke: #fecc5c; stroke-opacity: 0.3; stroke-width: 2; stroke-linecap: square"/>
   </g>
   <g id="line2d_24"/>
   <g id="line2d_25">
    <path d="M 183.144356 28.063636 
L 183.144356 36.941779 
L 181.384039 36.941779 
L 181.384039 45.819923 
L 183.553678 45.819923 
L 183.553678 54.698066 
L 188.877197 54.698066 
L 188.877197 63.576209 
L 196.48533 63.576209 
L 196.48533 72.454352 
L 204.339628 72.454352 
L 204.339628 81.332495 
L 206.307057 81.332495 
L 206.307057 90.210638 
L 208.363733 90.210638 
L 208.363733 99.088781 
L 206.587834 99.088781 
L 206.587834 107.966925 
L 201.66237 107.966925 
L 201.66237 116.845068 
L 192.027043 116.845068 
L 192.027043 125.723211 
L 184.702451 125.723211 
L 184.702451 134.601354 
L 177.939909 134.601354 
L 177.939909 143.479497 
L 165.966785 143.479497 
L 165.966785 152.35764 
L 157.800395 152.35764 
L 157.800395 161.235783 
L 149.886038 161.235783 
L 149.886038 170.113926 
L 140.742075 170.113926 
L 140.742075 178.99207 
L 138.782214 178.99207 
L 138.782214 187.870213 
L 134.54478 187.870213 
L 134.54478 196.748356 
L 130.915645 196.748356 
L 130.915645 205.626499 
L 126.102125 205.626499 
L 126.102125 214.504642 
L 123.904226 214.504642 
L 123.904226 223.382785 
L 119.033595 223.382785 
L 119.033595 232.260928 
L 119.61497 232.260928 
L 119.61497 241.139072 
L 119.329801 241.139072 
L 119.329801 250.017215 
L 120.712545 250.017215 
L 120.712545 258.895358 
L 115.345146 258.895358 
L 115.345146 267.773501 
L 114.201331 267.773501 
L 114.201331 276.651644 
L 111.93165 276.651644 
L 111.93165 285.529787 
L 114.603606 285.529787 
L 114.603606 294.40793 
L 114.223748 294.40793 
L 114.223748 303.286074 
L 112.504407 303.286074 
L 112.504407 312.164217 
L 114.423775 312.164217 
L 114.423775 321.04236 
L 115.65608 321.04236 
L 115.65608 329.920503 
L 111.23462 329.920503 
L 111.23462 338.798646 
L 111.546935 338.798646 
L 111.546935 347.676789 
L 106.879328 347.676789 
L 106.879328 356.554932 
L 105.066069 356.554932 
L 105.066069 365.433075 
L 103.146898 365.433075 
L 103.146898 374.311219 
L 99.709579 374.311219 
L 99.709579 383.189362 
L 94.915752 383.189362 
L 94.915752 392.067505 
L 89.893778 392.067505 
L 89.893778 400.945648 
L 89.574423 400.945648 
L 89.574423 409.823791 
L 83.788426 409.823791 
L 83.788426 418.701934 
L 83.693447 418.701934 
L 83.693447 427.580077 
L 80.505578 427.580077 
L 80.505578 436.458221 
L 77.273078 436.458221 
L 77.273078 445.336364 
L 79.117383 445.336364 
" clip-path="url(#p894fb4e50b)" style="fill: none; stroke: #6b3914; stroke-width: 3; stroke-linecap: square"/>
   </g>
   <g id="line2d_26">
    <path d="M 182.527313 28.063636 
L 182.527313 36.941779 
L 182.527313 36.941779 
L 182.527313 45.819923 
L 182.527313 45.819923 
L 182.527313 54.698066 
L 182.527313 54.698066 
L 182.527313 63.576209 
L 203.383544 63.576209 
L 203.383544 72.454352 
L 203.383544 72.454352 
L 203.383544 81.332495 
L 203.383544 81.332495 
L 203.383544 90.210638 
L 203.383544 90.210638 
L 203.383544 99.088781 
L 203.383544 99.088781 
L 203.383544 107.966925 
L 203.383544 107.966925 
L 203.383544 116.845068 
L 203.383544 116.845068 
L 203.383544 125.723211 
L 203.383544 125.723211 
L 203.383544 134.601354 
L 203.383544 134.601354 
L 203.383544 143.479497 
L 203.383544 143.479497 
L 203.383544 152.35764 
L 119.958619 152.35764 
L 119.958619 161.235783 
L 119.958619 161.235783 
L 119.958619 170.113926 
L 119.958619 170.113926 
L 119.958619 178.99207 
L 119.958619 178.99207 
L 119.958619 187.870213 
L 119.958619 187.870213 
L 119.958619 196.748356 
L 119.958619 196.748356 
L 119.958619 205.626499 
L 119.958619 205.626499 
L 119.958619 214.504642 
L 119.958619 214.504642 
L 119.958619 223.382785 
L 119.958619 223.382785 
L 119.958619 232.260928 
L 119.958619 232.260928 
L 119.958619 241.139072 
L 119.958619 241.139072 
L 119.958619 250.017215 
L 119.958619 250.017215 
L 119.958619 258.895358 
L 119.958619 258.895358 
L 119.958619 267.773501 
L 119.958619 267.773501 
L 119.958619 276.651644 
L 119.958619 276.651644 
L 119.958619 285.529787 
L 119.958619 285.529787 
L 119.958619 294.40793 
L 119.958619 294.40793 
L 119.958619 303.286074 
L 119.958619 303.286074 
L 119.958619 312.164217 
L 119.958619 312.164217 
L 119.958619 321.04236 
L 119.958619 321.04236 
L 119.958619 329.920503 
L 78.246157 329.920503 
L 78.246157 338.798646 
L 78.246157 338.798646 
L 78.246157 347.676789 
L 78.246157 347.676789 
L 78.246157 356.554932 
L 78.246157 356.554932 
L 78.246157 365.433075 
L 78.246157 365.433075 
L 78.246157 374.311219 
L 78.246157 374.311219 
L 78.246157 383.189362 
L 78.246157 383.189362 
L 78.246157 392.067505 
L 78.246157 392.067505 
L 78.246157 400.945648 
L 78.246157 400.945648 
L 78.246157 409.823791 
L 78.246157 409.823791 
L 78.246157 418.701934 
L 78.246157 418.701934 
L 78.246157 427.580077 
L 78.246157 427.580077 
L 78.246157 436.458221 
L 78.246157 436.458221 
L 78.246157 445.336364 
L 78.246157 445.336364 
" clip-path="url(#p894fb4e50b)" style="fill: none; stroke: #e40000; stroke-opacity: 0.8; stroke-width: 3; stroke-linecap: square"/>
   </g>
   <g id="patch_3">
    <path d="M 7.2 476.2 
L 277.2 476.2 
" style="fill: none; stroke: #000000; stroke-width: 2; stroke-linejoin: miter; stroke-linecap: square"/>
   </g>
  </g>
 </g>
 <defs>
  <clipPath id="p894fb4e50b">
   <rect x="7.2" y="7.2" width="270" height="459"/>
  </clipPath>
 </defs>
</svg>
