<?xml version="1.0" encoding="utf-8" standalone="no"?>
<!DOCTYPE svg PUBLIC "-//W3C//DTD SVG 1.1//EN"
  "http://www.w3.org/Graphics/SVG/1.1/DTD/svg11.dtd">
<svg xmlns:xlink="http://www.w3.org/1999/xlink" width="300.251263pt" height="544.35625pt" viewBox="0 0 300.251263 544.35625" xmlns="http://www.w3.org/2000/svg" version="1.1">
 <metadata>
  <rdf:RDF xmlns:dc="http://purl.org/dc/elements/1.1/" xmlns:cc="http://creativecommons.org/ns#" xmlns:rdf="http://www.w3.org/1999/02/22-rdf-syntax-ns#">
   <cc:Work>
    <dc:type rdf:resource="http://purl.org/dc/dcmitype/StillImage"/>
    <dc:date>2024-07-31T18:17:32.675800</dc:date>
    <dc:format>image/svg+xml</dc:format>
    <dc:creator>
     <cc:Agent>
      <dc:title>Matplotlib v3.8.0, https://matplotlib.org/</dc:title>
     </cc:Agent>
    </dc:creator>
   </cc:Work>
  </rdf:RDF>
 </metadata>
 <defs>
  <style type="text/css">*{stroke-linejoin: round; stroke-linecap: butt}</style>
 </defs>
 <g id="figure_1">
  <g id="patch_1">
   <path d="M 0 544.35625 
L 300.251263 544.35625 
L 300.251263 0 
L 0 0 
z
" style="fill: #ffffff"/>
  </g>
  <g id="axes_1">
   <g id="patch_2">
    <path d="M 7.2 466.2 
L 277.2 466.2 
L 277.2 7.2 
L 7.2 7.2 
z
" style="fill: #ffffff"/>
   </g>
   <g id="PolyCollection_1">
    <defs>
     <path id="m23051754e2" d="M 255.275828 -516.292614 
L 264.578633 -516.292614 
L 244.457443 -497.325671 
L 224.514639 -478.358729 
L 205.052992 -459.391787 
L 187.546792 -440.424845 
L 172.697676 -421.457903 
L 162.080889 -402.490961 
L 156.560242 -383.524019 
L 157.138513 -364.557076 
L 163.486195 -345.590134 
L 172.767811 -326.623192 
L 184.769096 -307.65625 
L 195.336156 -288.689308 
L 203.33027 -269.722366 
L 207.165958 -250.755424 
L 206.453848 -231.788481 
L 199.443751 -212.821539 
L 185.936544 -193.854597 
L 168.455522 -174.887655 
L 148.517542 -155.920713 
L 128.440747 -136.953771 
L 109.689431 -117.986829 
L 93.406171 -99.019886 
L 62.38916 -99.019886 
L 62.38916 -99.019886 
L 69.821824 -117.986829 
L 81.790848 -136.953771 
L 98.577472 -155.920713 
L 115.595695 -174.887655 
L 135.054806 -193.854597 
L 151.950083 -212.821539 
L 163.973434 -231.788481 
L 170.237586 -250.755424 
L 171.120626 -269.722366 
L 166.887832 -288.689308 
L 160.023992 -307.65625 
L 152.263795 -326.623192 
L 146.083213 -345.590134 
L 142.627941 -364.557076 
L 143.836692 -383.524019 
L 150.639707 -402.490961 
L 162.034205 -421.457903 
L 177.600331 -440.424845 
L 196.071455 -459.391787 
L 216.197178 -478.358729 
L 235.867176 -497.325671 
L 255.275828 -516.292614 
z
" style="stroke: #756bb1; stroke-opacity: 0.5"/>
    </defs>
    <g clip-path="url(#p2aadb10170)">
     <use xlink:href="#m23051754e2" x="0" y="544.35625" style="fill: #756bb1; fill-opacity: 0.5; stroke: #756bb1; stroke-opacity: 0.5"/>
    </g>
   </g>
   <g id="matplotlib.axis_1">
    <g id="xtick_1">
     <g id="line2d_1">
      <defs>
       <path id="mc9685c4ae5" d="M 0 0 
L 0 3.5 
" style="stroke: #000000; stroke-width: 1.5"/>
      </defs>
      <g>
       <use xlink:href="#mc9685c4ae5" x="64.449362" y="476.2" style="stroke: #000000; stroke-width: 1.5"/>
      </g>
     </g>
     <g id="text_1">
      <!-- 300 -->
      <g transform="translate(45.361862 498.396875) scale(0.2 -0.2)">
       <defs>
        <path id="DejaVuSans-33" d="M 2597 2516 
Q 3050 2419 3304 2112 
Q 3559 1806 3559 1356 
Q 3559 666 3084 287 
Q 2609 -91 1734 -91 
Q 1441 -91 1130 -33 
Q 819 25 488 141 
L 488 750 
Q 750 597 1062 519 
Q 1375 441 1716 441 
Q 2309 441 2620 675 
Q 2931 909 2931 1356 
Q 2931 1769 2642 2001 
Q 2353 2234 1838 2234 
L 1294 2234 
L 1294 2753 
L 1863 2753 
Q 2328 2753 2575 2939 
Q 2822 3125 2822 3475 
Q 2822 3834 2567 4026 
Q 2313 4219 1838 4219 
Q 1578 4219 1281 4162 
Q 984 4106 628 3988 
L 628 4550 
Q 988 4650 1302 4700 
Q 1616 4750 1894 4750 
Q 2613 4750 3031 4423 
Q 3450 4097 3450 3541 
Q 3450 3153 3228 2886 
Q 3006 2619 2597 2516 
z
" transform="scale(0.015625)"/>
        <path id="DejaVuSans-30" d="M 2034 4250 
Q 1547 4250 1301 3770 
Q 1056 3291 1056 2328 
Q 1056 1369 1301 889 
Q 1547 409 2034 409 
Q 2525 409 2770 889 
Q 3016 1369 3016 2328 
Q 3016 3291 2770 3770 
Q 2525 4250 2034 4250 
z
M 2034 4750 
Q 2819 4750 3233 4129 
Q 3647 3509 3647 2328 
Q 3647 1150 3233 529 
Q 2819 -91 2034 -91 
Q 1250 -91 836 529 
Q 422 1150 422 2328 
Q 422 3509 836 4129 
Q 1250 4750 2034 4750 
z
" transform="scale(0.015625)"/>
       </defs>
       <use xlink:href="#DejaVuSans-33"/>
       <use xlink:href="#DejaVuSans-30" x="63.623047"/>
       <use xlink:href="#DejaVuSans-30" x="127.246094"/>
      </g>
     </g>
    </g>
    <g id="xtick_2">
     <g id="line2d_2">
      <g>
       <use xlink:href="#mc9685c4ae5" x="134.287495" y="476.2" style="stroke: #000000; stroke-width: 1.5"/>
      </g>
     </g>
     <g id="text_2">
      <!-- 400 -->
      <g transform="translate(115.199995 498.396875) scale(0.2 -0.2)">
       <defs>
        <path id="DejaVuSans-34" d="M 2419 4116 
L 825 1625 
L 2419 1625 
L 2419 4116 
z
M 2253 4666 
L 3047 4666 
L 3047 1625 
L 3713 1625 
L 3713 1100 
L 3047 1100 
L 3047 0 
L 2419 0 
L 2419 1100 
L 313 1100 
L 313 1709 
L 2253 4666 
z
" transform="scale(0.015625)"/>
       </defs>
       <use xlink:href="#DejaVuSans-34"/>
       <use xlink:href="#DejaVuSans-30" x="63.623047"/>
       <use xlink:href="#DejaVuSans-30" x="127.246094"/>
      </g>
     </g>
    </g>
    <g id="xtick_3">
     <g id="line2d_3">
      <g>
       <use xlink:href="#mc9685c4ae5" x="204.125629" y="476.2" style="stroke: #000000; stroke-width: 1.5"/>
      </g>
     </g>
     <g id="text_3">
      <!-- 500 -->
      <g transform="translate(185.038129 498.396875) scale(0.2 -0.2)">
       <defs>
        <path id="DejaVuSans-35" d="M 691 4666 
L 3169 4666 
L 3169 4134 
L 1269 4134 
L 1269 2991 
Q 1406 3038 1543 3061 
Q 1681 3084 1819 3084 
Q 2600 3084 3056 2656 
Q 3513 2228 3513 1497 
Q 3513 744 3044 326 
Q 2575 -91 1722 -91 
Q 1428 -91 1123 -41 
Q 819 9 494 109 
L 494 744 
Q 775 591 1075 516 
Q 1375 441 1709 441 
Q 2250 441 2565 725 
Q 2881 1009 2881 1497 
Q 2881 1984 2565 2268 
Q 2250 2553 1709 2553 
Q 1456 2553 1204 2497 
Q 953 2441 691 2322 
L 691 4666 
z
" transform="scale(0.015625)"/>
       </defs>
       <use xlink:href="#DejaVuSans-35"/>
       <use xlink:href="#DejaVuSans-30" x="63.623047"/>
       <use xlink:href="#DejaVuSans-30" x="127.246094"/>
      </g>
     </g>
    </g>
    <g id="xtick_4">
     <g id="line2d_4">
      <g>
       <use xlink:href="#mc9685c4ae5" x="273.963763" y="476.2" style="stroke: #000000; stroke-width: 1.5"/>
      </g>
     </g>
     <g id="text_4">
      <!-- 600 -->
      <g transform="translate(254.876263 498.396875) scale(0.2 -0.2)">
       <defs>
        <path id="DejaVuSans-36" d="M 2113 2584 
Q 1688 2584 1439 2293 
Q 1191 2003 1191 1497 
Q 1191 994 1439 701 
Q 1688 409 2113 409 
Q 2538 409 2786 701 
Q 3034 994 3034 1497 
Q 3034 2003 2786 2293 
Q 2538 2584 2113 2584 
z
M 3366 4563 
L 3366 3988 
Q 3128 4100 2886 4159 
Q 2644 4219 2406 4219 
Q 1781 4219 1451 3797 
Q 1122 3375 1075 2522 
Q 1259 2794 1537 2939 
Q 1816 3084 2150 3084 
Q 2853 3084 3261 2657 
Q 3669 2231 3669 1497 
Q 3669 778 3244 343 
Q 2819 -91 2113 -91 
Q 1303 -91 875 529 
Q 447 1150 447 2328 
Q 447 3434 972 4092 
Q 1497 4750 2381 4750 
Q 2619 4750 2861 4703 
Q 3103 4656 3366 4563 
z
" transform="scale(0.015625)"/>
       </defs>
       <use xlink:href="#DejaVuSans-36"/>
       <use xlink:href="#DejaVuSans-30" x="63.623047"/>
       <use xlink:href="#DejaVuSans-30" x="127.246094"/>
      </g>
     </g>
    </g>
    <g id="text_5">
     <!-- Apparent Resistivity [$\Omega m$] -->
     <g transform="translate(-4.6 532.75625) scale(0.2 -0.2)">
      <defs>
       <path id="DejaVuSans-Bold-41" d="M 3419 850 
L 1538 850 
L 1241 0 
L 31 0 
L 1759 4666 
L 3194 4666 
L 4922 0 
L 3713 0 
L 3419 850 
z
M 1838 1716 
L 3116 1716 
L 2478 3572 
L 1838 1716 
z
" transform="scale(0.015625)"/>
       <path id="DejaVuSans-Bold-70" d="M 1656 506 
L 1656 -1331 
L 538 -1331 
L 538 3500 
L 1656 3500 
L 1656 2988 
Q 1888 3294 2169 3439 
Q 2450 3584 2816 3584 
Q 3463 3584 3878 3070 
Q 4294 2556 4294 1747 
Q 4294 938 3878 423 
Q 3463 -91 2816 -91 
Q 2450 -91 2169 54 
Q 1888 200 1656 506 
z
M 2400 2772 
Q 2041 2772 1848 2508 
Q 1656 2244 1656 1747 
Q 1656 1250 1848 986 
Q 2041 722 2400 722 
Q 2759 722 2948 984 
Q 3138 1247 3138 1747 
Q 3138 2247 2948 2509 
Q 2759 2772 2400 2772 
z
" transform="scale(0.015625)"/>
       <path id="DejaVuSans-Bold-61" d="M 2106 1575 
Q 1756 1575 1579 1456 
Q 1403 1338 1403 1106 
Q 1403 894 1545 773 
Q 1688 653 1941 653 
Q 2256 653 2472 879 
Q 2688 1106 2688 1447 
L 2688 1575 
L 2106 1575 
z
M 3816 1997 
L 3816 0 
L 2688 0 
L 2688 519 
Q 2463 200 2181 54 
Q 1900 -91 1497 -91 
Q 953 -91 614 226 
Q 275 544 275 1050 
Q 275 1666 698 1953 
Q 1122 2241 2028 2241 
L 2688 2241 
L 2688 2328 
Q 2688 2594 2478 2717 
Q 2269 2841 1825 2841 
Q 1466 2841 1156 2769 
Q 847 2697 581 2553 
L 581 3406 
Q 941 3494 1303 3539 
Q 1666 3584 2028 3584 
Q 2975 3584 3395 3211 
Q 3816 2838 3816 1997 
z
" transform="scale(0.015625)"/>
       <path id="DejaVuSans-Bold-72" d="M 3138 2547 
Q 2991 2616 2845 2648 
Q 2700 2681 2553 2681 
Q 2122 2681 1889 2404 
Q 1656 2128 1656 1613 
L 1656 0 
L 538 0 
L 538 3500 
L 1656 3500 
L 1656 2925 
Q 1872 3269 2151 3426 
Q 2431 3584 2822 3584 
Q 2878 3584 2943 3579 
Q 3009 3575 3134 3559 
L 3138 2547 
z
" transform="scale(0.015625)"/>
       <path id="DejaVuSans-Bold-65" d="M 4031 1759 
L 4031 1441 
L 1416 1441 
Q 1456 1047 1700 850 
Q 1944 653 2381 653 
Q 2734 653 3104 758 
Q 3475 863 3866 1075 
L 3866 213 
Q 3469 63 3072 -14 
Q 2675 -91 2278 -91 
Q 1328 -91 801 392 
Q 275 875 275 1747 
Q 275 2603 792 3093 
Q 1309 3584 2216 3584 
Q 3041 3584 3536 3087 
Q 4031 2591 4031 1759 
z
M 2881 2131 
Q 2881 2450 2695 2645 
Q 2509 2841 2209 2841 
Q 1884 2841 1681 2658 
Q 1478 2475 1428 2131 
L 2881 2131 
z
" transform="scale(0.015625)"/>
       <path id="DejaVuSans-Bold-6e" d="M 4056 2131 
L 4056 0 
L 2931 0 
L 2931 347 
L 2931 1631 
Q 2931 2084 2911 2256 
Q 2891 2428 2841 2509 
Q 2775 2619 2662 2680 
Q 2550 2741 2406 2741 
Q 2056 2741 1856 2470 
Q 1656 2200 1656 1722 
L 1656 0 
L 538 0 
L 538 3500 
L 1656 3500 
L 1656 2988 
Q 1909 3294 2193 3439 
Q 2478 3584 2822 3584 
Q 3428 3584 3742 3212 
Q 4056 2841 4056 2131 
z
" transform="scale(0.015625)"/>
       <path id="DejaVuSans-Bold-74" d="M 1759 4494 
L 1759 3500 
L 2913 3500 
L 2913 2700 
L 1759 2700 
L 1759 1216 
Q 1759 972 1856 886 
Q 1953 800 2241 800 
L 2816 800 
L 2816 0 
L 1856 0 
Q 1194 0 917 276 
Q 641 553 641 1216 
L 641 2700 
L 84 2700 
L 84 3500 
L 641 3500 
L 641 4494 
L 1759 4494 
z
" transform="scale(0.015625)"/>
       <path id="DejaVuSans-Bold-20" transform="scale(0.015625)"/>
       <path id="DejaVuSans-Bold-52" d="M 2297 2597 
Q 2675 2597 2839 2737 
Q 3003 2878 3003 3200 
Q 3003 3519 2839 3656 
Q 2675 3794 2297 3794 
L 1791 3794 
L 1791 2597 
L 2297 2597 
z
M 1791 1766 
L 1791 0 
L 588 0 
L 588 4666 
L 2425 4666 
Q 3347 4666 3776 4356 
Q 4206 4047 4206 3378 
Q 4206 2916 3982 2619 
Q 3759 2322 3309 2181 
Q 3556 2125 3751 1926 
Q 3947 1728 4147 1325 
L 4800 0 
L 3519 0 
L 2950 1159 
Q 2778 1509 2601 1637 
Q 2425 1766 2131 1766 
L 1791 1766 
z
" transform="scale(0.015625)"/>
       <path id="DejaVuSans-Bold-73" d="M 3272 3391 
L 3272 2541 
Q 2913 2691 2578 2766 
Q 2244 2841 1947 2841 
Q 1628 2841 1473 2761 
Q 1319 2681 1319 2516 
Q 1319 2381 1436 2309 
Q 1553 2238 1856 2203 
L 2053 2175 
Q 2913 2066 3209 1816 
Q 3506 1566 3506 1031 
Q 3506 472 3093 190 
Q 2681 -91 1863 -91 
Q 1516 -91 1145 -36 
Q 775 19 384 128 
L 384 978 
Q 719 816 1070 734 
Q 1422 653 1784 653 
Q 2113 653 2278 743 
Q 2444 834 2444 1013 
Q 2444 1163 2330 1236 
Q 2216 1309 1875 1350 
L 1678 1375 
Q 931 1469 631 1722 
Q 331 1975 331 2491 
Q 331 3047 712 3315 
Q 1094 3584 1881 3584 
Q 2191 3584 2531 3537 
Q 2872 3491 3272 3391 
z
" transform="scale(0.015625)"/>
       <path id="DejaVuSans-Bold-69" d="M 538 3500 
L 1656 3500 
L 1656 0 
L 538 0 
L 538 3500 
z
M 538 4863 
L 1656 4863 
L 1656 3950 
L 538 3950 
L 538 4863 
z
" transform="scale(0.015625)"/>
       <path id="DejaVuSans-Bold-76" d="M 97 3500 
L 1216 3500 
L 2088 1081 
L 2956 3500 
L 4078 3500 
L 2700 0 
L 1472 0 
L 97 3500 
z
" transform="scale(0.015625)"/>
       <path id="DejaVuSans-Bold-79" d="M 78 3500 
L 1197 3500 
L 2138 1125 
L 2938 3500 
L 4056 3500 
L 2584 -331 
Q 2363 -916 2067 -1148 
Q 1772 -1381 1288 -1381 
L 641 -1381 
L 641 -647 
L 991 -647 
Q 1275 -647 1404 -556 
Q 1534 -466 1606 -231 
L 1638 -134 
L 78 3500 
z
" transform="scale(0.015625)"/>
       <path id="DejaVuSans-Bold-5b" d="M 550 4863 
L 2491 4863 
L 2491 4159 
L 1613 4159 
L 1613 -141 
L 2491 -141 
L 2491 -844 
L 550 -844 
L 550 4863 
z
" transform="scale(0.015625)"/>
       <path id="DejaVuSans-Bold-3a9" d="M 2719 4750 
Q 3841 4750 4480 4106 
Q 5119 3463 5119 2494 
Q 5119 1406 4306 909 
L 5266 909 
L 5266 0 
L 3125 0 
L 3125 975 
Q 3244 1041 3334 1131 
Q 3875 1678 3875 2466 
Q 3875 3066 3572 3472 
Q 3269 3878 2719 3878 
Q 2169 3878 1866 3472 
Q 1563 3066 1563 2466 
Q 1563 1678 2103 1131 
Q 2194 1041 2313 975 
L 2313 0 
L 172 0 
L 172 909 
L 1131 909 
Q 319 1406 319 2494 
Q 319 3463 958 4106 
Q 1597 4750 2719 4750 
z
" transform="scale(0.015625)"/>
       <path id="DejaVuSans-Bold-6d" d="M 3781 2919 
Q 3994 3244 4286 3414 
Q 4578 3584 4928 3584 
Q 5531 3584 5847 3212 
Q 6163 2841 6163 2131 
L 6163 0 
L 5038 0 
L 5038 1825 
Q 5041 1866 5042 1909 
Q 5044 1953 5044 2034 
Q 5044 2406 4934 2573 
Q 4825 2741 4581 2741 
Q 4263 2741 4089 2478 
Q 3916 2216 3909 1719 
L 3909 0 
L 2784 0 
L 2784 1825 
Q 2784 2406 2684 2573 
Q 2584 2741 2328 2741 
Q 2006 2741 1831 2477 
Q 1656 2213 1656 1722 
L 1656 0 
L 531 0 
L 531 3500 
L 1656 3500 
L 1656 2988 
Q 1863 3284 2130 3434 
Q 2397 3584 2719 3584 
Q 3081 3584 3359 3409 
Q 3638 3234 3781 2919 
z
" transform="scale(0.015625)"/>
       <path id="DejaVuSans-Bold-5d" d="M 2375 -844 
L 434 -844 
L 434 -141 
L 1313 -141 
L 1313 4159 
L 434 4159 
L 434 4863 
L 2375 4863 
L 2375 -844 
z
" transform="scale(0.015625)"/>
      </defs>
      <use xlink:href="#DejaVuSans-Bold-41" transform="translate(0 0.015625)"/>
      <use xlink:href="#DejaVuSans-Bold-70" transform="translate(77.392578 0.015625)"/>
      <use xlink:href="#DejaVuSans-Bold-70" transform="translate(148.974609 0.015625)"/>
      <use xlink:href="#DejaVuSans-Bold-61" transform="translate(220.556641 0.015625)"/>
      <use xlink:href="#DejaVuSans-Bold-72" transform="translate(288.037109 0.015625)"/>
      <use xlink:href="#DejaVuSans-Bold-65" transform="translate(337.353516 0.015625)"/>
      <use xlink:href="#DejaVuSans-Bold-6e" transform="translate(405.175781 0.015625)"/>
      <use xlink:href="#DejaVuSans-Bold-74" transform="translate(476.367188 0.015625)"/>
      <use xlink:href="#DejaVuSans-Bold-20" transform="translate(524.169922 0.015625)"/>
      <use xlink:href="#DejaVuSans-Bold-52" transform="translate(558.984375 0.015625)"/>
      <use xlink:href="#DejaVuSans-Bold-65" transform="translate(635.986328 0.015625)"/>
      <use xlink:href="#DejaVuSans-Bold-73" transform="translate(703.808594 0.015625)"/>
      <use xlink:href="#DejaVuSans-Bold-69" transform="translate(763.330078 0.015625)"/>
      <use xlink:href="#DejaVuSans-Bold-73" transform="translate(797.607422 0.015625)"/>
      <use xlink:href="#DejaVuSans-Bold-74" transform="translate(857.128906 0.015625)"/>
      <use xlink:href="#DejaVuSans-Bold-69" transform="translate(904.931641 0.015625)"/>
      <use xlink:href="#DejaVuSans-Bold-76" transform="translate(939.208984 0.015625)"/>
      <use xlink:href="#DejaVuSans-Bold-69" transform="translate(1004.394531 0.015625)"/>
      <use xlink:href="#DejaVuSans-Bold-74" transform="translate(1038.671875 0.015625)"/>
      <use xlink:href="#DejaVuSans-Bold-79" transform="translate(1086.474609 0.015625)"/>
      <use xlink:href="#DejaVuSans-Bold-20" transform="translate(1151.660156 0.015625)"/>
      <use xlink:href="#DejaVuSans-Bold-5b" transform="translate(1186.474609 0.015625)"/>
      <use xlink:href="#DejaVuSans-Bold-3a9" transform="translate(1232.177734 0.015625)"/>
      <use xlink:href="#DejaVuSans-Bold-6d" transform="translate(1317.1875 0.015625)"/>
      <use xlink:href="#DejaVuSans-Bold-5d" transform="translate(1421.386719 0.015625)"/>
     </g>
    </g>
   </g>
   <g id="line2d_5">
    <path d="M 258.55681 28.063636 
L 242.441831 47.030579 
L 220.107641 65.997521 
L 200.547859 84.964463 
L 183.612479 103.931405 
L 165.325222 122.898347 
L 154.473258 141.865289 
L 150.282298 160.832231 
L 154.939156 179.799174 
L 160.77433 198.766116 
L 163.113251 217.733058 
L 173.65936 236.7 
L 185.648166 255.666942 
L 186.308822 274.633884 
L 187.302113 293.600826 
L 184.861651 312.567769 
L 172.292767 331.534711 
L 162.130345 350.501653 
L 147.495774 369.468595 
L 129.667249 388.435537 
L 109.235734 407.402479 
L 90.026726 426.369421 
L 78.635634 445.336364 
" clip-path="url(#p2aadb10170)" style="fill: none; stroke: #756bb1; stroke-opacity: 0.2; stroke-width: 2; stroke-linecap: square"/>
   </g>
   <g id="line2d_6">
    <path d="M 258.776049 28.063636 
L 240.08254 47.030579 
L 217.364231 65.997521 
L 200.119131 84.964463 
L 183.270924 103.931405 
L 171.6824 122.898347 
L 158.059941 141.865289 
L 155.549036 160.832231 
L 154.91133 179.799174 
L 165.467194 198.766116 
L 172.124929 217.733058 
L 182.196057 236.7 
L 190.491668 255.666942 
L 201.291723 274.633884 
L 197.8542 293.600826 
L 197.338838 312.567769 
L 188.628152 331.534711 
L 168.787508 350.501653 
L 152.774437 369.468595 
L 132.280697 388.435537 
L 109.866927 407.402479 
L 88.526713 426.369421 
L 78.512945 445.336364 
" clip-path="url(#p2aadb10170)" style="fill: none; stroke: #756bb1; stroke-opacity: 0.2; stroke-width: 2; stroke-linecap: square"/>
   </g>
   <g id="line2d_7">
    <path d="M 260.832608 28.063636 
L 242.235892 47.030579 
L 226.200236 65.997521 
L 204.363742 84.964463 
L 188.732251 103.931405 
L 171.280407 122.898347 
L 158.571741 141.865289 
L 155.745853 160.832231 
L 154.627439 179.799174 
L 156.28283 198.766116 
L 162.265422 217.733058 
L 177.335514 236.7 
L 186.762402 255.666942 
L 194.721298 274.633884 
L 203.97081 293.600826 
L 201.246458 312.567769 
L 192.482692 331.534711 
L 183.806905 350.501653 
L 169.880553 369.468595 
L 146.654124 388.435537 
L 128.512133 407.402479 
L 107.083263 426.369421 
L 89.051617 445.336364 
" clip-path="url(#p2aadb10170)" style="fill: none; stroke: #756bb1; stroke-opacity: 0.2; stroke-width: 2; stroke-linecap: square"/>
   </g>
   <g id="line2d_8">
    <path d="M 263.657141 28.063636 
L 243.540614 47.030579 
L 221.760909 65.997521 
L 204.118002 84.964463 
L 181.252892 103.931405 
L 169.784498 122.898347 
L 156.208589 141.865289 
L 151.795021 160.832231 
L 150.343584 179.799174 
L 159.386184 198.766116 
L 168.938545 217.733058 
L 176.473678 236.7 
L 184.586293 255.666942 
L 191.786836 274.633884 
L 195.847297 293.600826 
L 192.409016 312.567769 
L 182.085041 331.534711 
L 167.495608 350.501653 
L 147.264211 369.468595 
L 128.695047 388.435537 
L 107.919758 407.402479 
L 94.565573 426.369421 
L 79.028504 445.336364 
" clip-path="url(#p2aadb10170)" style="fill: none; stroke: #756bb1; stroke-opacity: 0.2; stroke-width: 2; stroke-linecap: square"/>
   </g>
   <g id="line2d_9">
    <path d="M 257.177184 28.063636 
L 238.637735 47.030579 
L 221.714216 65.997521 
L 194.981937 84.964463 
L 179.716298 103.931405 
L 166.729536 122.898347 
L 149.804338 141.865289 
L 149.888315 160.832231 
L 150.792863 179.799174 
L 151.783176 198.766116 
L 154.0869 217.733058 
L 159.737512 236.7 
L 165.263076 255.666942 
L 168.259741 274.633884 
L 165.667251 293.600826 
L 160.158842 312.567769 
L 151.630769 331.534711 
L 139.532933 350.501653 
L 131.605401 369.468595 
L 114.58491 388.435537 
L 100.085381 407.402479 
L 87.416399 426.369421 
L 76.37473 445.336364 
" clip-path="url(#p2aadb10170)" style="fill: none; stroke: #756bb1; stroke-opacity: 0.2; stroke-width: 2; stroke-linecap: square"/>
   </g>
   <g id="line2d_10">
    <path d="M 257.896743 28.063636 
L 239.926998 47.030579 
L 222.752632 65.997521 
L 204.880326 84.964463 
L 186.539604 103.931405 
L 174.463992 122.898347 
L 160.313355 141.865289 
L 154.614999 160.832231 
L 161.983689 179.799174 
L 165.152747 198.766116 
L 176.185654 217.733058 
L 186.976021 236.7 
L 199.77184 255.666942 
L 210.275585 274.633884 
L 210.472886 293.600826 
L 208.590043 312.567769 
L 203.64215 331.534711 
L 194.018829 350.501653 
L 172.828901 369.468595 
L 150.395125 388.435537 
L 128.935631 407.402479 
L 111.997291 426.369421 
L 93.829222 445.336364 
" clip-path="url(#p2aadb10170)" style="fill: none; stroke: #756bb1; stroke-opacity: 0.2; stroke-width: 2; stroke-linecap: square"/>
   </g>
   <g id="line2d_11">
    <path d="M 255.482686 28.063636 
L 237.173338 47.030579 
L 222.832479 65.997521 
L 201.306272 84.964463 
L 180.009256 103.931405 
L 167.462427 122.898347 
L 158.729225 141.865289 
L 147.729288 160.832231 
L 148.462174 179.799174 
L 155.067612 198.766116 
L 165.731497 217.733058 
L 174.833504 236.7 
L 179.365945 255.666942 
L 187.789335 274.633884 
L 195.993297 293.600826 
L 191.843422 312.567769 
L 183.207207 331.534711 
L 170.580423 350.501653 
L 159.250949 369.468595 
L 135.556657 388.435537 
L 119.954413 407.402479 
L 97.646555 426.369421 
L 79.263735 445.336364 
" clip-path="url(#p2aadb10170)" style="fill: none; stroke: #756bb1; stroke-opacity: 0.2; stroke-width: 2; stroke-linecap: square"/>
   </g>
   <g id="line2d_12">
    <path d="M 262.52888 28.063636 
L 239.383319 47.030579 
L 220.403242 65.997521 
L 198.738057 84.964463 
L 182.611886 103.931405 
L 168.788987 122.898347 
L 155.736911 141.865289 
L 152.379929 160.832231 
L 153.499811 179.799174 
L 154.72005 198.766116 
L 161.548563 217.733058 
L 169.694579 236.7 
L 180.42168 255.666942 
L 186.555202 274.633884 
L 184.999245 293.600826 
L 186.937191 312.567769 
L 179.251429 331.534711 
L 170.805597 350.501653 
L 153.59735 369.468595 
L 135.782043 388.435537 
L 118.339637 407.402479 
L 99.390349 426.369421 
L 81.797559 445.336364 
" clip-path="url(#p2aadb10170)" style="fill: none; stroke: #756bb1; stroke-opacity: 0.2; stroke-width: 2; stroke-linecap: square"/>
   </g>
   <g id="line2d_13">
    <path d="M 262.464299 28.063636 
L 238.840573 47.030579 
L 222.486209 65.997521 
L 202.727624 84.964463 
L 180.183574 103.931405 
L 166.498131 122.898347 
L 152.37158 141.865289 
L 150.854316 160.832231 
L 147.179822 179.799174 
L 155.617632 198.766116 
L 166.812722 217.733058 
L 179.712358 236.7 
L 189.501808 255.666942 
L 195.226368 274.633884 
L 199.230955 293.600826 
L 204.773547 312.567769 
L 193.441877 331.534711 
L 186.790768 350.501653 
L 167.725749 369.468595 
L 147.43969 388.435537 
L 130.504908 407.402479 
L 113.218363 426.369421 
L 92.575631 445.336364 
" clip-path="url(#p2aadb10170)" style="fill: none; stroke: #756bb1; stroke-opacity: 0.2; stroke-width: 2; stroke-linecap: square"/>
   </g>
   <g id="line2d_14">
    <path d="M 257.346844 28.063636 
L 236.704338 47.030579 
L 216.879887 65.997521 
L 199.144691 84.964463 
L 181.687134 103.931405 
L 164.584149 122.898347 
L 152.437445 141.865289 
L 151.268271 160.832231 
L 149.040432 179.799174 
L 148.466416 198.766116 
L 156.859709 217.733058 
L 159.308688 236.7 
L 173.30639 255.666942 
L 179.162862 274.633884 
L 182.45755 293.600826 
L 181.838072 312.567769 
L 178.453436 331.534711 
L 167.100324 350.501653 
L 156.654189 369.468595 
L 134.85787 388.435537 
L 115.013366 407.402479 
L 102.438127 426.369421 
L 84.260486 445.336364 
" clip-path="url(#p2aadb10170)" style="fill: none; stroke: #756bb1; stroke-opacity: 0.2; stroke-width: 2; stroke-linecap: square"/>
   </g>
   <g id="line2d_15">
    <path d="M 262.856662 28.063636 
L 245.25308 47.030579 
L 219.821644 65.997521 
L 202.777628 84.964463 
L 187.751994 103.931405 
L 170.956863 122.898347 
L 164.464281 141.865289 
L 158.962058 160.832231 
L 154.256635 179.799174 
L 155.033776 198.766116 
L 167.626396 217.733058 
L 174.783575 236.7 
L 188.017567 255.666942 
L 191.356528 274.633884 
L 199.035854 293.600826 
L 197.368063 312.567769 
L 183.33943 331.534711 
L 170.566876 350.501653 
L 155.71331 369.468595 
L 135.189975 388.435537 
L 114.393045 407.402479 
L 101.114946 426.369421 
L 82.059266 445.336364 
" clip-path="url(#p2aadb10170)" style="fill: none; stroke: #756bb1; stroke-opacity: 0.2; stroke-width: 2; stroke-linecap: square"/>
   </g>
   <g id="line2d_16">
    <path d="M 258.463176 28.063636 
L 241.65773 47.030579 
L 219.361199 65.997521 
L 199.005023 84.964463 
L 183.293331 103.931405 
L 165.834781 122.898347 
L 157.476724 141.865289 
L 146.430471 160.832231 
L 149.74553 179.799174 
L 153.36436 198.766116 
L 158.731792 217.733058 
L 170.921033 236.7 
L 179.297193 255.666942 
L 187.704264 274.633884 
L 194.464744 293.600826 
L 188.491563 312.567769 
L 183.946063 331.534711 
L 174.680599 350.501653 
L 161.408095 369.468595 
L 139.095836 388.435537 
L 118.254457 407.402479 
L 101.60361 426.369421 
L 87.055439 445.336364 
" clip-path="url(#p2aadb10170)" style="fill: none; stroke: #756bb1; stroke-opacity: 0.2; stroke-width: 2; stroke-linecap: square"/>
   </g>
   <g id="line2d_17">
    <path d="M 260.718637 28.063636 
L 240.385166 47.030579 
L 221.172911 65.997521 
L 204.386025 84.964463 
L 188.146379 103.931405 
L 172.780465 122.898347 
L 165.247595 141.865289 
L 152.007138 160.832231 
L 150.122191 179.799174 
L 159.971533 198.766116 
L 163.35928 217.733058 
L 178.462683 236.7 
L 184.360301 255.666942 
L 193.93317 274.633884 
L 195.855206 293.600826 
L 187.489467 312.567769 
L 182.641039 331.534711 
L 165.996062 350.501653 
L 148.006932 369.468595 
L 128.253342 388.435537 
L 105.946321 407.402479 
L 89.195507 426.369421 
L 82.148079 445.336364 
" clip-path="url(#p2aadb10170)" style="fill: none; stroke: #756bb1; stroke-opacity: 0.2; stroke-width: 2; stroke-linecap: square"/>
   </g>
   <g id="line2d_18">
    <path d="M 256.141363 28.063636 
L 237.128697 47.030579 
L 218.150083 65.997521 
L 202.520538 84.964463 
L 184.968052 103.931405 
L 170.47903 122.898347 
L 153.127216 141.865289 
L 150.923298 160.832231 
L 152.709273 179.799174 
L 151.808382 198.766116 
L 159.828636 217.733058 
L 171.656415 236.7 
L 182.695308 255.666942 
L 187.234033 274.633884 
L 192.519772 293.600826 
L 191.644877 312.567769 
L 183.175754 331.534711 
L 171.622874 350.501653 
L 152.87791 369.468595 
L 132.423265 388.435537 
L 114.918177 407.402479 
L 96.875584 426.369421 
L 83.029529 445.336364 
" clip-path="url(#p2aadb10170)" style="fill: none; stroke: #756bb1; stroke-opacity: 0.2; stroke-width: 2; stroke-linecap: square"/>
   </g>
   <g id="line2d_19">
    <path d="M 263.125422 28.063636 
L 241.351196 47.030579 
L 217.701858 65.997521 
L 201.477413 84.964463 
L 180.642591 103.931405 
L 170.941574 122.898347 
L 155.504121 141.865289 
L 155.455389 160.832231 
L 151.290412 179.799174 
L 156.615185 198.766116 
L 164.534626 217.733058 
L 171.255219 236.7 
L 185.133193 255.666942 
L 191.512326 274.633884 
L 193.964789 293.600826 
L 190.2269 312.567769 
L 182.521767 331.534711 
L 170.122067 350.501653 
L 154.989399 369.468595 
L 135.403701 388.435537 
L 116.014824 407.402479 
L 95.079584 426.369421 
L 80.968909 445.336364 
" clip-path="url(#p2aadb10170)" style="fill: none; stroke: #756bb1; stroke-opacity: 0.2; stroke-width: 2; stroke-linecap: square"/>
   </g>
   <g id="line2d_20">
    <path d="M 258.813815 28.063636 
L 240.130429 47.030579 
L 218.836658 65.997521 
L 202.232936 84.964463 
L 187.614359 103.931405 
L 171.688123 122.898347 
L 159.236628 141.865289 
L 152.681754 160.832231 
L 151.22207 179.799174 
L 155.27787 198.766116 
L 164.656496 217.733058 
L 180.367778 236.7 
L 191.343702 255.666942 
L 191.93046 274.633884 
L 199.865861 293.600826 
L 192.45154 312.567769 
L 184.037486 331.534711 
L 175.412844 350.501653 
L 155.707995 369.468595 
L 138.455819 388.435537 
L 112.852276 407.402479 
L 100.724924 426.369421 
L 84.166922 445.336364 
" clip-path="url(#p2aadb10170)" style="fill: none; stroke: #756bb1; stroke-opacity: 0.2; stroke-width: 2; stroke-linecap: square"/>
   </g>
   <g id="line2d_21">
    <path d="M 253.833773 28.063636 
L 237.318642 47.030579 
L 220.569045 65.997521 
L 196.46335 84.964463 
L 175.181621 103.931405 
L 160.263758 122.898347 
L 150.021165 141.865289 
L 141.996715 160.832231 
L 140.399995 179.799174 
L 145.128783 198.766116 
L 148.717621 217.733058 
L 155.598654 236.7 
L 164.333399 255.666942 
L 169.171051 274.633884 
L 175.196695 293.600826 
L 169.795561 312.567769 
L 164.650999 331.534711 
L 148.909405 350.501653 
L 132.09967 369.468595 
L 111.562332 388.435537 
L 95.254209 407.402479 
L 77.095488 426.369421 
L 67.130144 445.336364 
" clip-path="url(#p2aadb10170)" style="fill: none; stroke: #756bb1; stroke-opacity: 0.2; stroke-width: 2; stroke-linecap: square"/>
   </g>
   <g id="line2d_22">
    <path d="M 262.40649 28.063636 
L 236.83179 47.030579 
L 220.713548 65.997521 
L 199.197096 84.964463 
L 178.268264 103.931405 
L 165.756378 122.898347 
L 154.151299 141.865289 
L 145.41589 160.832231 
L 145.411726 179.799174 
L 148.193072 198.766116 
L 158.186215 217.733058 
L 166.337039 236.7 
L 174.261546 255.666942 
L 178.563227 274.633884 
L 185.142622 293.600826 
L 181.012046 312.567769 
L 173.496205 331.534711 
L 163.260054 350.501653 
L 148.694321 369.468595 
L 126.440518 388.435537 
L 113.088002 407.402479 
L 98.140565 426.369421 
L 84.893507 445.336364 
" clip-path="url(#p2aadb10170)" style="fill: none; stroke: #756bb1; stroke-opacity: 0.2; stroke-width: 2; stroke-linecap: square"/>
   </g>
   <g id="line2d_23">
    <path d="M 262.527352 28.063636 
L 241.766773 47.030579 
L 224.947654 65.997521 
L 199.638613 84.964463 
L 180.704395 103.931405 
L 164.044611 122.898347 
L 155.072182 141.865289 
L 149.885774 160.832231 
L 152.747365 179.799174 
L 154.155731 198.766116 
L 165.006623 217.733058 
L 175.875762 236.7 
L 180.727374 255.666942 
L 187.99602 274.633884 
L 190.958149 293.600826 
L 182.94591 312.567769 
L 177.419894 331.534711 
L 169.736923 350.501653 
L 153.176003 369.468595 
L 137.871951 388.435537 
L 122.916039 407.402479 
L 103.891667 426.369421 
L 94.174559 445.336364 
" clip-path="url(#p2aadb10170)" style="fill: none; stroke: #756bb1; stroke-opacity: 0.2; stroke-width: 2; stroke-linecap: square"/>
   </g>
   <g id="line2d_24">
    <path d="M 260.799218 28.063636 
L 240.82411 47.030579 
L 223.033112 65.997521 
L 197.294644 84.964463 
L 179.209523 103.931405 
L 166.542578 122.898347 
L 153.784072 141.865289 
L 145.468438 160.832231 
L 147.846234 179.799174 
L 147.015851 198.766116 
L 157.531256 217.733058 
L 167.208236 236.7 
L 176.01787 255.666942 
L 182.986766 274.633884 
L 186.294606 293.600826 
L 188.687426 312.567769 
L 179.829979 331.534711 
L 164.837145 350.501653 
L 150.651996 369.468595 
L 127.660932 388.435537 
L 110.174257 407.402479 
L 94.877582 426.369421 
L 77.542029 445.336364 
" clip-path="url(#p2aadb10170)" style="fill: none; stroke: #756bb1; stroke-opacity: 0.2; stroke-width: 2; stroke-linecap: square"/>
   </g>
   <g id="line2d_25">
    <path d="M 260.00904 28.063636 
L 243.680026 47.030579 
L 221.340499 65.997521 
L 206.2502 84.964463 
L 190.056272 103.931405 
L 174.452266 122.898347 
L 164.084647 141.865289 
L 158.703622 160.832231 
L 153.843246 179.799174 
L 159.563584 198.766116 
L 162.643863 217.733058 
L 173.470785 236.7 
L 178.84276 255.666942 
L 188.368103 274.633884 
L 195.759418 293.600826 
L 191.415964 312.567769 
L 185.97377 331.534711 
L 175.893055 350.501653 
L 160.055788 369.468595 
L 139.711774 388.435537 
L 116.724505 407.402479 
L 99.591709 426.369421 
L 83.394007 445.336364 
" clip-path="url(#p2aadb10170)" style="fill: none; stroke: #756bb1; stroke-opacity: 0.2; stroke-width: 2; stroke-linecap: square"/>
   </g>
   <g id="line2d_26">
    <path d="M 258.445275 28.063636 
L 236.832829 47.030579 
L 219.412155 65.997521 
L 201.522081 84.964463 
L 184.691119 103.931405 
L 167.325882 122.898347 
L 152.422327 141.865289 
L 142.09415 160.832231 
L 142.51421 179.799174 
L 148.889993 198.766116 
L 162.003497 217.733058 
L 168.24367 236.7 
L 179.862132 255.666942 
L 186.086275 274.633884 
L 187.957827 293.600826 
L 188.18322 312.567769 
L 180.620703 331.534711 
L 172.566267 350.501653 
L 158.197704 369.468595 
L 138.896961 388.435537 
L 119.61302 407.402479 
L 105.191793 426.369421 
L 89.591342 445.336364 
" clip-path="url(#p2aadb10170)" style="fill: none; stroke: #756bb1; stroke-opacity: 0.2; stroke-width: 2; stroke-linecap: square"/>
   </g>
   <g id="line2d_27">
    <path d="M 258.149918 28.063636 
L 237.754397 47.030579 
L 218.0719 65.997521 
L 203.102614 84.964463 
L 181.591917 103.931405 
L 165.438282 122.898347 
L 154.216028 141.865289 
L 149.807089 160.832231 
L 148.516571 179.799174 
L 157.376636 198.766116 
L 167.340811 217.733058 
L 178.928697 236.7 
L 191.898612 255.666942 
L 204.294059 274.633884 
L 209.704575 293.600826 
L 208.600034 312.567769 
L 198.860166 331.534711 
L 181.004461 350.501653 
L 164.893668 369.468595 
L 140.092935 388.435537 
L 117.198683 407.402479 
L 102.138768 426.369421 
L 80.207971 445.336364 
" clip-path="url(#p2aadb10170)" style="fill: none; stroke: #756bb1; stroke-opacity: 0.2; stroke-width: 2; stroke-linecap: square"/>
   </g>
   <g id="line2d_28">
    <path d="M 262.39686 28.063636 
L 244.192641 47.030579 
L 221.361324 65.997521 
L 200.369667 84.964463 
L 183.641666 103.931405 
L 167.986853 122.898347 
L 158.747243 141.865289 
L 151.732568 160.832231 
L 152.68031 179.799174 
L 160.099299 198.766116 
L 170.554705 217.733058 
L 178.746743 236.7 
L 189.233792 255.666942 
L 195.140973 274.633884 
L 203.377187 293.600826 
L 200.461233 312.567769 
L 195.482967 331.534711 
L 180.057353 350.501653 
L 164.296189 369.468595 
L 141.138996 388.435537 
L 120.320008 407.402479 
L 106.348559 426.369421 
L 90.058152 445.336364 
" clip-path="url(#p2aadb10170)" style="fill: none; stroke: #756bb1; stroke-opacity: 0.2; stroke-width: 2; stroke-linecap: square"/>
   </g>
   <g id="line2d_29">
    <path d="M 255.803446 28.063636 
L 235.690483 47.030579 
L 217.403649 65.997521 
L 194.805462 84.964463 
L 178.826972 103.931405 
L 162.920053 122.898347 
L 153.251452 141.865289 
L 147.576005 160.832231 
L 144.900483 179.799174 
L 153.506983 198.766116 
L 157.884645 217.733058 
L 170.007505 236.7 
L 179.754873 255.666942 
L 187.913583 274.633884 
L 196.781367 293.600826 
L 191.655233 312.567769 
L 184.33563 331.534711 
L 172.298886 350.501653 
L 156.252825 369.468595 
L 139.936197 388.435537 
L 120.138697 407.402479 
L 101.273342 426.369421 
L 85.12806 445.336364 
" clip-path="url(#p2aadb10170)" style="fill: none; stroke: #756bb1; stroke-opacity: 0.2; stroke-width: 2; stroke-linecap: square"/>
   </g>
   <g id="line2d_30">
    <path d="M 260.62742 28.063636 
L 239.508503 47.030579 
L 222.521506 65.997521 
L 200.391798 84.964463 
L 188.506196 103.931405 
L 170.26817 122.898347 
L 164.54267 141.865289 
L 153.84663 160.832231 
L 154.895084 179.799174 
L 154.884889 198.766116 
L 159.757936 217.733058 
L 163.67945 236.7 
L 163.76633 255.666942 
L 166.236432 274.633884 
L 157.759927 293.600826 
L 139.244154 312.567769 
L 119.463863 331.534711 
L 96.349038 350.501653 
L 69.155185 369.468595 
L 47.137134 388.435537 
L 32.737052 407.402479 
L 20.84022 426.369421 
L 19.472727 445.336364 
" clip-path="url(#p2aadb10170)" style="fill: none; stroke: #756bb1; stroke-opacity: 0.2; stroke-width: 2; stroke-linecap: square"/>
   </g>
   <g id="line2d_31">
    <path d="M 261.056223 28.063636 
L 240.860969 47.030579 
L 219.147512 65.997521 
L 197.892125 84.964463 
L 186.985821 103.931405 
L 171.770127 122.898347 
L 162.532195 141.865289 
L 154.251344 160.832231 
L 156.854191 179.799174 
L 157.837963 198.766116 
L 166.068176 217.733058 
L 176.148627 236.7 
L 184.109219 255.666942 
L 193.196623 274.633884 
L 199.028424 293.600826 
L 196.707597 312.567769 
L 190.875957 331.534711 
L 179.561949 350.501653 
L 164.545778 369.468595 
L 141.822667 388.435537 
L 119.776438 407.402479 
L 100.82205 426.369421 
L 87.314982 445.336364 
" clip-path="url(#p2aadb10170)" style="fill: none; stroke: #756bb1; stroke-opacity: 0.2; stroke-width: 2; stroke-linecap: square"/>
   </g>
   <g id="line2d_32">
    <path d="M 259.413961 28.063636 
L 240.847262 47.030579 
L 223.712756 65.997521 
L 204.395024 84.964463 
L 183.914548 103.931405 
L 167.232831 122.898347 
L 150.98265 141.865289 
L 144.070363 160.832231 
L 146.177165 179.799174 
L 155.539264 198.766116 
L 161.818321 217.733058 
L 171.323248 236.7 
L 184.008648 255.666942 
L 187.766853 274.633884 
L 189.362937 293.600826 
L 183.935529 312.567769 
L 181.853007 331.534711 
L 166.661689 350.501653 
L 146.519737 369.468595 
L 130.166512 388.435537 
L 115.105264 407.402479 
L 97.012222 426.369421 
L 89.928216 445.336364 
" clip-path="url(#p2aadb10170)" style="fill: none; stroke: #756bb1; stroke-opacity: 0.2; stroke-width: 2; stroke-linecap: square"/>
   </g>
   <g id="line2d_33">
    <path d="M 257.773699 28.063636 
L 243.790473 47.030579 
L 219.099688 65.997521 
L 202.282133 84.964463 
L 186.503447 103.931405 
L 165.175893 122.898347 
L 154.679711 141.865289 
L 148.450417 160.832231 
L 139.479524 179.799174 
L 147.74122 198.766116 
L 148.287509 217.733058 
L 156.181338 236.7 
L 166.152679 255.666942 
L 167.335217 274.633884 
L 169.919122 293.600826 
L 164.242066 312.567769 
L 155.971914 331.534711 
L 142.39611 350.501653 
L 131.484886 369.468595 
L 114.814177 388.435537 
L 102.27303 407.402479 
L 90.036108 426.369421 
L 77.009099 445.336364 
" clip-path="url(#p2aadb10170)" style="fill: none; stroke: #756bb1; stroke-opacity: 0.2; stroke-width: 2; stroke-linecap: square"/>
   </g>
   <g id="line2d_34">
    <path d="M 262.126548 28.063636 
L 243.264879 47.030579 
L 221.769816 65.997521 
L 198.537188 84.964463 
L 185.431423 103.931405 
L 164.900761 122.898347 
L 156.764127 141.865289 
L 150.149198 160.832231 
L 150.983273 179.799174 
L 155.746327 198.766116 
L 164.147628 217.733058 
L 175.330296 236.7 
L 180.951478 255.666942 
L 189.873308 274.633884 
L 195.857924 293.600826 
L 189.219227 312.567769 
L 185.812352 331.534711 
L 169.585679 350.501653 
L 149.60217 369.468595 
L 132.654973 388.435537 
L 114.440211 407.402479 
L 94.840335 426.369421 
L 82.588615 445.336364 
" clip-path="url(#p2aadb10170)" style="fill: none; stroke: #756bb1; stroke-opacity: 0.2; stroke-width: 2; stroke-linecap: square"/>
   </g>
   <g id="line2d_35">
    <path d="M 260.865806 28.063636 
L 240.699277 47.030579 
L 220.195855 65.997521 
L 198.449846 84.964463 
L 183.716536 103.931405 
L 168.740973 122.898347 
L 154.432016 141.865289 
L 150.664196 160.832231 
L 151.217579 179.799174 
L 163.043109 198.766116 
L 168.414639 217.733058 
L 179.487838 236.7 
L 194.037146 255.666942 
L 203.22384 274.633884 
L 203.794836 293.600826 
L 207.299665 312.567769 
L 195.042179 331.534711 
L 180.064735 350.501653 
L 161.038915 369.468595 
L 140.440925 388.435537 
L 123.009231 407.402479 
L 104.794469 426.369421 
L 85.932864 445.336364 
" clip-path="url(#p2aadb10170)" style="fill: none; stroke: #756bb1; stroke-opacity: 0.2; stroke-width: 2; stroke-linecap: square"/>
   </g>
   <g id="line2d_36">
    <path d="M 258.368521 28.063636 
L 238.689474 47.030579 
L 215.752348 65.997521 
L 192.987768 84.964463 
L 181.002639 103.931405 
L 160.110527 122.898347 
L 151.834735 141.865289 
L 149.1956 160.832231 
L 144.65495 179.799174 
L 145.084974 198.766116 
L 154.908081 217.733058 
L 164.165049 236.7 
L 170.630938 255.666942 
L 180.232158 274.633884 
L 182.274652 293.600826 
L 185.763544 312.567769 
L 178.424341 331.534711 
L 165.154965 350.501653 
L 151.330349 369.468595 
L 134.091791 388.435537 
L 117.004205 407.402479 
L 97.698125 426.369421 
L 80.658033 445.336364 
" clip-path="url(#p2aadb10170)" style="fill: none; stroke: #756bb1; stroke-opacity: 0.2; stroke-width: 2; stroke-linecap: square"/>
   </g>
   <g id="line2d_37">
    <path d="M 259.447063 28.063636 
L 239.787276 47.030579 
L 219.142796 65.997521 
L 199.369253 84.964463 
L 187.178307 103.931405 
L 169.731817 122.898347 
L 161.170566 141.865289 
L 155.630389 160.832231 
L 153.59404 179.799174 
L 159.385507 198.766116 
L 173.738077 217.733058 
L 185.723459 236.7 
L 194.602516 255.666942 
L 199.654161 274.633884 
L 204.499624 293.600826 
L 199.308891 312.567769 
L 190.988509 331.534711 
L 178.34233 350.501653 
L 159.775604 369.468595 
L 140.488128 388.435537 
L 115.357763 407.402479 
L 94.472096 426.369421 
L 78.030224 445.336364 
" clip-path="url(#p2aadb10170)" style="fill: none; stroke: #756bb1; stroke-opacity: 0.2; stroke-width: 2; stroke-linecap: square"/>
   </g>
   <g id="line2d_38">
    <path d="M 250.23484 28.063636 
L 231.893118 47.030579 
L 216.986982 65.997521 
L 199.266114 84.964463 
L 179.032 103.931405 
L 165.842784 122.898347 
L 154.03211 141.865289 
L 147.39265 160.832231 
L 143.871327 179.799174 
L 150.945544 198.766116 
L 157.609522 217.733058 
L 167.340181 236.7 
L 175.002517 255.666942 
L 189.466977 274.633884 
L 189.16012 293.600826 
L 196.561503 312.567769 
L 191.005167 331.534711 
L 181.191804 350.501653 
L 166.359166 369.468595 
L 143.431469 388.435537 
L 124.27138 407.402479 
L 103.007298 426.369421 
L 86.482613 445.336364 
" clip-path="url(#p2aadb10170)" style="fill: none; stroke: #756bb1; stroke-opacity: 0.2; stroke-width: 2; stroke-linecap: square"/>
   </g>
   <g id="line2d_39">
    <path d="M 264.927273 28.063636 
L 238.762882 47.030579 
L 218.112575 65.997521 
L 196.771527 84.964463 
L 176.926257 103.931405 
L 165.587301 122.898347 
L 154.698784 141.865289 
L 150.027765 160.832231 
L 148.900663 179.799174 
L 155.322994 198.766116 
L 162.739853 217.733058 
L 167.375045 236.7 
L 176.156102 255.666942 
L 181.179958 274.633884 
L 184.563704 293.600826 
L 185.38435 312.567769 
L 175.893309 331.534711 
L 159.316454 350.501653 
L 147.434053 369.468595 
L 130.185372 388.435537 
L 109.276498 407.402479 
L 93.80221 426.369421 
L 84.994544 445.336364 
" clip-path="url(#p2aadb10170)" style="fill: none; stroke: #756bb1; stroke-opacity: 0.2; stroke-width: 2; stroke-linecap: square"/>
   </g>
   <g id="line2d_40">
    <path d="M 263.856969 28.063636 
L 241.687321 47.030579 
L 224.050556 65.997521 
L 201.97279 84.964463 
L 186.593619 103.931405 
L 169.39972 122.898347 
L 153.183222 141.865289 
L 147.544513 160.832231 
L 149.540936 179.799174 
L 156.169927 198.766116 
L 163.196467 217.733058 
L 175.157796 236.7 
L 183.669441 255.666942 
L 189.835009 274.633884 
L 193.253997 293.600826 
L 188.726821 312.567769 
L 174.73574 331.534711 
L 159.408259 350.501653 
L 142.556213 369.468595 
L 125.964479 388.435537 
L 108.785428 407.402479 
L 92.252212 426.369421 
L 79.108327 445.336364 
" clip-path="url(#p2aadb10170)" style="fill: none; stroke: #756bb1; stroke-opacity: 0.2; stroke-width: 2; stroke-linecap: square"/>
   </g>
   <g id="line2d_41">
    <path d="M 259.255654 28.063636 
L 241.26099 47.030579 
L 222.695995 65.997521 
L 199.123322 84.964463 
L 181.082259 103.931405 
L 169.502704 122.898347 
L 155.701197 141.865289 
L 151.530264 160.832231 
L 155.521727 179.799174 
L 154.765518 198.766116 
L 164.33122 217.733058 
L 176.332553 236.7 
L 188.725032 255.666942 
L 194.272272 274.633884 
L 201.235358 293.600826 
L 200.734162 312.567769 
L 194.454864 331.534711 
L 179.012545 350.501653 
L 166.760569 369.468595 
L 146.362613 388.435537 
L 122.904049 407.402479 
L 107.445694 426.369421 
L 92.417546 445.336364 
" clip-path="url(#p2aadb10170)" style="fill: none; stroke: #756bb1; stroke-opacity: 0.2; stroke-width: 2; stroke-linecap: square"/>
   </g>
   <g id="line2d_42">
    <path d="M 261.143205 28.063636 
L 237.842455 47.030579 
L 217.581676 65.997521 
L 195.763436 84.964463 
L 173.799728 103.931405 
L 160.246108 122.898347 
L 142.459258 141.865289 
L 137.187397 160.832231 
L 142.597358 179.799174 
L 145.732001 198.766116 
L 148.312087 217.733058 
L 162.581006 236.7 
L 169.011595 255.666942 
L 176.810249 274.633884 
L 178.136396 293.600826 
L 177.91627 312.567769 
L 175.480909 331.534711 
L 160.421286 350.501653 
L 148.795979 369.468595 
L 130.342923 388.435537 
L 117.616451 407.402479 
L 99.911938 426.369421 
L 87.058447 445.336364 
" clip-path="url(#p2aadb10170)" style="fill: none; stroke: #756bb1; stroke-opacity: 0.2; stroke-width: 2; stroke-linecap: square"/>
   </g>
   <g id="line2d_43">
    <path d="M 262.449351 28.063636 
L 241.860845 47.030579 
L 222.693729 65.997521 
L 201.552949 84.964463 
L 185.873754 103.931405 
L 170.18269 122.898347 
L 161.274786 141.865289 
L 155.411467 160.832231 
L 153.909059 179.799174 
L 156.051582 198.766116 
L 159.926769 217.733058 
L 173.641674 236.7 
L 182.372787 255.666942 
L 183.581106 274.633884 
L 191.174028 293.600826 
L 190.081096 312.567769 
L 179.954628 331.534711 
L 167.504847 350.501653 
L 153.063479 369.468595 
L 140.960833 388.435537 
L 123.869256 407.402479 
L 109.265164 426.369421 
L 96.449728 445.336364 
" clip-path="url(#p2aadb10170)" style="fill: none; stroke: #756bb1; stroke-opacity: 0.2; stroke-width: 2; stroke-linecap: square"/>
   </g>
   <g id="line2d_44">
    <path d="M 258.370037 28.063636 
L 246.839028 47.030579 
L 222.383161 65.997521 
L 201.584886 84.964463 
L 180.086909 103.931405 
L 165.392955 122.898347 
L 156.58824 141.865289 
L 155.203178 160.832231 
L 163.530985 179.799174 
L 165.953138 198.766116 
L 178.764637 217.733058 
L 188.567336 236.7 
L 195.775707 255.666942 
L 203.339295 274.633884 
L 201.989559 293.600826 
L 205.150238 312.567769 
L 191.478511 331.534711 
L 178.294857 350.501653 
L 162.811757 369.468595 
L 144.491913 388.435537 
L 119.307555 407.402479 
L 99.545102 426.369421 
L 84.064959 445.336364 
" clip-path="url(#p2aadb10170)" style="fill: none; stroke: #756bb1; stroke-opacity: 0.2; stroke-width: 2; stroke-linecap: square"/>
   </g>
   <g id="line2d_45"/>
   <g id="line2d_46">
    <path d="M 259.732693 28.063636 
L 240.229618 47.030579 
L 220.284869 65.997521 
L 200.529174 84.964463 
L 182.646836 103.931405 
L 167.413225 122.898347 
L 156.404303 141.865289 
L 150.591471 160.832231 
L 150.196236 179.799174 
L 154.7825 198.766116 
L 162.889635 217.733058 
L 172.675697 236.7 
L 181.949176 255.666942 
L 188.600337 274.633884 
L 191.039698 293.600826 
L 188.238495 312.567769 
L 179.745336 331.534711 
L 166.094283 350.501653 
L 148.94214 369.468595 
L 129.888741 388.435537 
L 111.152129 407.402479 
L 94.361288 426.369421 
L 80.602533 445.336364 
" clip-path="url(#p2aadb10170)" style="fill: none; stroke: #39146b; stroke-width: 4; stroke-linecap: square"/>
   </g>
   <g id="line2d_47">
    <path d="M 260.036287 28.063636 
L 240.304249 47.030579 
L 220.247994 65.997521 
L 200.728906 84.964463 
L 182.800118 103.931405 
L 167.624803 122.898347 
L 156.327028 141.865289 
L 149.790812 160.832231 
L 148.444449 179.799174 
L 152.084909 198.766116 
L 159.795968 217.733058 
L 169.990164 236.7 
L 180.57527 255.666942 
L 189.229118 274.633884 
L 193.763996 293.600826 
L 192.54992 312.567769 
L 184.916959 331.534711 
L 171.396839 350.501653 
L 153.660567 369.468595 
L 134.104962 388.435537 
L 115.200863 407.402479 
L 98.848812 426.369421 
L 86.000324 445.336364 
" clip-path="url(#p2aadb10170)" style="fill: none; stroke: #e40000; stroke-width: 4; stroke-linecap: square"/>
    <defs>
     <path id="mf67d1f2fd3" d="M -5 5 
L 5 -5 
M -5 -5 
L 5 5 
" style="stroke: #e40000"/>
    </defs>
    <g clip-path="url(#p2aadb10170)">
     <use xlink:href="#mf67d1f2fd3" x="260.036287" y="28.063636" style="fill: #e40000; stroke: #e40000"/>
     <use xlink:href="#mf67d1f2fd3" x="240.304249" y="47.030579" style="fill: #e40000; stroke: #e40000"/>
     <use xlink:href="#mf67d1f2fd3" x="220.247994" y="65.997521" style="fill: #e40000; stroke: #e40000"/>
     <use xlink:href="#mf67d1f2fd3" x="200.728906" y="84.964463" style="fill: #e40000; stroke: #e40000"/>
     <use xlink:href="#mf67d1f2fd3" x="182.800118" y="103.931405" style="fill: #e40000; stroke: #e40000"/>
     <use xlink:href="#mf67d1f2fd3" x="167.624803" y="122.898347" style="fill: #e40000; stroke: #e40000"/>
     <use xlink:href="#mf67d1f2fd3" x="156.327028" y="141.865289" style="fill: #e40000; stroke: #e40000"/>
     <use xlink:href="#mf67d1f2fd3" x="149.790812" y="160.832231" style="fill: #e40000; stroke: #e40000"/>
     <use xlink:href="#mf67d1f2fd3" x="148.444449" y="179.799174" style="fill: #e40000; stroke: #e40000"/>
     <use xlink:href="#mf67d1f2fd3" x="152.084909" y="198.766116" style="fill: #e40000; stroke: #e40000"/>
     <use xlink:href="#mf67d1f2fd3" x="159.795968" y="217.733058" style="fill: #e40000; stroke: #e40000"/>
     <use xlink:href="#mf67d1f2fd3" x="169.990164" y="236.7" style="fill: #e40000; stroke: #e40000"/>
     <use xlink:href="#mf67d1f2fd3" x="180.57527" y="255.666942" style="fill: #e40000; stroke: #e40000"/>
     <use xlink:href="#mf67d1f2fd3" x="189.229118" y="274.633884" style="fill: #e40000; stroke: #e40000"/>
     <use xlink:href="#mf67d1f2fd3" x="193.763996" y="293.600826" style="fill: #e40000; stroke: #e40000"/>
     <use xlink:href="#mf67d1f2fd3" x="192.54992" y="312.567769" style="fill: #e40000; stroke: #e40000"/>
     <use xlink:href="#mf67d1f2fd3" x="184.916959" y="331.534711" style="fill: #e40000; stroke: #e40000"/>
     <use xlink:href="#mf67d1f2fd3" x="171.396839" y="350.501653" style="fill: #e40000; stroke: #e40000"/>
     <use xlink:href="#mf67d1f2fd3" x="153.660567" y="369.468595" style="fill: #e40000; stroke: #e40000"/>
     <use xlink:href="#mf67d1f2fd3" x="134.104962" y="388.435537" style="fill: #e40000; stroke: #e40000"/>
     <use xlink:href="#mf67d1f2fd3" x="115.200863" y="407.402479" style="fill: #e40000; stroke: #e40000"/>
     <use xlink:href="#mf67d1f2fd3" x="98.848812" y="426.369421" style="fill: #e40000; stroke: #e40000"/>
     <use xlink:href="#mf67d1f2fd3" x="86.000324" y="445.336364" style="fill: #e40000; stroke: #e40000"/>
    </g>
   </g>
   <g id="patch_3">
    <path d="M 7.2 476.2 
L 277.2 476.2 
" style="fill: none; stroke: #000000; stroke-width: 2; stroke-linejoin: miter; stroke-linecap: square"/>
   </g>
  </g>
 </g>
 <defs>
  <clipPath id="p2aadb10170">
   <rect x="7.2" y="7.2" width="270" height="459"/>
  </clipPath>
 </defs>
</svg>
