<?xml version="1.0" encoding="utf-8" standalone="no"?>
<!DOCTYPE svg PUBLIC "-//W3C//DTD SVG 1.1//EN"
  "http://www.w3.org/Graphics/SVG/1.1/DTD/svg11.dtd">
<svg xmlns:xlink="http://www.w3.org/1999/xlink" width="374.590394pt" height="544.35625pt" viewBox="0 0 374.590394 544.35625" xmlns="http://www.w3.org/2000/svg" version="1.1">
 <metadata>
  <rdf:RDF xmlns:dc="http://purl.org/dc/elements/1.1/" xmlns:cc="http://creativecommons.org/ns#" xmlns:rdf="http://www.w3.org/1999/02/22-rdf-syntax-ns#">
   <cc:Work>
    <dc:type rdf:resource="http://purl.org/dc/dcmitype/StillImage"/>
    <dc:date>2024-07-31T17:59:18.786392</dc:date>
    <dc:format>image/svg+xml</dc:format>
    <dc:creator>
     <cc:Agent>
      <dc:title>Matplotlib v3.8.0, https://matplotlib.org/</dc:title>
     </cc:Agent>
    </dc:creator>
   </cc:Work>
  </rdf:RDF>
 </metadata>
 <defs>
  <style type="text/css">*{stroke-linejoin: round; stroke-linecap: butt}</style>
 </defs>
 <g id="figure_1">
  <g id="patch_1">
   <path d="M 0 544.35625 
L 374.590394 544.35625 
L 374.590394 0 
L 0 0 
z
" style="fill: #ffffff"/>
  </g>
  <g id="axes_1">
   <g id="patch_2">
    <path d="M 84.00625 466.2 
L 354.00625 466.2 
L 354.00625 7.2 
L 84.00625 7.2 
z
" style="fill: #ffffff"/>
   </g>
   <g id="PolyCollection_1">
    <defs>
     <path id="m0093dfdd1f" d="M 183.599137 -516.292614 
L 290.479475 -516.292614 
L 288.057263 -507.414471 
L 310.194226 -498.536327 
L 316.399059 -489.658184 
L 308.552539 -480.780041 
L 320.058299 -471.901898 
L 320.029967 -463.023755 
L 322.332668 -454.145612 
L 326.477456 -445.267469 
L 329.566053 -436.389325 
L 325.605633 -427.511182 
L 330.578948 -418.633039 
L 333.171724 -409.754896 
L 332.658565 -400.876753 
L 336.607147 -391.99861 
L 334.809526 -383.120467 
L 333.097181 -374.242324 
L 333.935079 -365.36418 
L 330.036656 -356.486037 
L 329.970804 -347.607894 
L 330.250543 -338.729751 
L 330.299443 -329.851608 
L 331.636405 -320.973465 
L 329.420725 -312.095322 
L 326.673173 -303.217178 
L 324.044696 -294.339035 
L 321.125915 -285.460892 
L 325.3508 -276.582749 
L 326.580084 -267.704606 
L 320.364205 -258.826463 
L 320.481973 -249.94832 
L 320.856308 -241.070176 
L 323.635678 -232.192033 
L 319.880454 -223.31389 
L 324.611838 -214.435747 
L 319.780551 -205.557604 
L 319.371916 -196.679461 
L 317.413972 -187.801318 
L 319.282844 -178.923175 
L 313.342707 -170.045031 
L 315.30963 -161.166888 
L 317.768219 -152.288745 
L 323.36445 -143.410602 
L 320.421986 -134.532459 
L 318.339024 -125.654316 
L 322.284639 -116.776173 
L 315.609411 -107.898029 
L 193.650192 -99.019886 
L 186.17361 -99.019886 
L 186.17361 -99.019886 
L 119.096039 -107.898029 
L 117.934275 -116.776173 
L 130.364788 -125.654316 
L 138.219145 -134.532459 
L 132.093253 -143.410602 
L 125.712847 -152.288745 
L 132.96963 -161.166888 
L 124.495431 -170.045031 
L 128.905813 -178.923175 
L 128.127402 -187.801318 
L 130.831454 -196.679461 
L 132.203624 -205.557604 
L 137.302829 -214.435747 
L 133.950058 -223.31389 
L 143.462283 -232.192033 
L 147.936475 -241.070176 
L 148.17496 -249.94832 
L 145.49578 -258.826463 
L 150.775821 -267.704606 
L 162.879775 -276.582749 
L 157.266777 -285.460892 
L 161.421659 -294.339035 
L 165.549006 -303.217178 
L 158.193965 -312.095322 
L 170.944927 -320.973465 
L 169.980191 -329.851608 
L 176.053492 -338.729751 
L 186.986857 -347.607894 
L 189.192648 -356.486037 
L 185.970703 -365.36418 
L 188.280436 -374.242324 
L 202.574845 -383.120467 
L 214.977611 -391.99861 
L 180.022041 -400.876753 
L 197.639915 -409.754896 
L 182.798502 -418.633039 
L 178.320871 -427.511182 
L 174.008193 -436.389325 
L 174.57048 -445.267469 
L 174.293541 -454.145612 
L 172.551565 -463.023755 
L 169.49255 -471.901898 
L 174.079736 -480.780041 
L 169.084345 -489.658184 
L 172.133912 -498.536327 
L 171.096345 -507.414471 
L 183.599137 -516.292614 
z
" style="stroke: #fecc5c; stroke-opacity: 0.5"/>
    </defs>
    <g clip-path="url(#p10bc65d380)">
     <use xlink:href="#m0093dfdd1f" x="0" y="544.35625" style="fill: #fecc5c; fill-opacity: 0.5; stroke: #fecc5c; stroke-opacity: 0.5"/>
    </g>
   </g>
   <g id="matplotlib.axis_1">
    <g id="xtick_1">
     <g id="line2d_1">
      <defs>
       <path id="m612cb050e9" d="M 0 0 
L 0 3.5 
" style="stroke: #000000; stroke-width: 1.5"/>
      </defs>
      <g>
       <use xlink:href="#m612cb050e9" x="93.178838" y="476.2" style="stroke: #000000; stroke-width: 1.5"/>
      </g>
     </g>
     <g id="text_1">
      <!-- 0 -->
      <g transform="translate(86.816338 498.396875) scale(0.2 -0.2)">
       <defs>
        <path id="DejaVuSans-30" d="M 2034 4250 
Q 1547 4250 1301 3770 
Q 1056 3291 1056 2328 
Q 1056 1369 1301 889 
Q 1547 409 2034 409 
Q 2525 409 2770 889 
Q 3016 1369 3016 2328 
Q 3016 3291 2770 3770 
Q 2525 4250 2034 4250 
z
M 2034 4750 
Q 2819 4750 3233 4129 
Q 3647 3509 3647 2328 
Q 3647 1150 3233 529 
Q 2819 -91 2034 -91 
Q 1250 -91 836 529 
Q 422 1150 422 2328 
Q 422 3509 836 4129 
Q 1250 4750 2034 4750 
z
" transform="scale(0.015625)"/>
       </defs>
       <use xlink:href="#DejaVuSans-30"/>
      </g>
     </g>
    </g>
    <g id="xtick_2">
     <g id="line2d_2">
      <g>
       <use xlink:href="#m612cb050e9" x="217.559616" y="476.2" style="stroke: #000000; stroke-width: 1.5"/>
      </g>
     </g>
     <g id="text_2">
      <!-- 500 -->
      <g transform="translate(198.472116 498.396875) scale(0.2 -0.2)">
       <defs>
        <path id="DejaVuSans-35" d="M 691 4666 
L 3169 4666 
L 3169 4134 
L 1269 4134 
L 1269 2991 
Q 1406 3038 1543 3061 
Q 1681 3084 1819 3084 
Q 2600 3084 3056 2656 
Q 3513 2228 3513 1497 
Q 3513 744 3044 326 
Q 2575 -91 1722 -91 
Q 1428 -91 1123 -41 
Q 819 9 494 109 
L 494 744 
Q 775 591 1075 516 
Q 1375 441 1709 441 
Q 2250 441 2565 725 
Q 2881 1009 2881 1497 
Q 2881 1984 2565 2268 
Q 2250 2553 1709 2553 
Q 1456 2553 1204 2497 
Q 953 2441 691 2322 
L 691 4666 
z
" transform="scale(0.015625)"/>
       </defs>
       <use xlink:href="#DejaVuSans-35"/>
       <use xlink:href="#DejaVuSans-30" x="63.623047"/>
       <use xlink:href="#DejaVuSans-30" x="127.246094"/>
      </g>
     </g>
    </g>
    <g id="xtick_3">
     <g id="line2d_3">
      <g>
       <use xlink:href="#m612cb050e9" x="341.940394" y="476.2" style="stroke: #000000; stroke-width: 1.5"/>
      </g>
     </g>
     <g id="text_3">
      <!-- 1000 -->
      <g transform="translate(316.490394 498.396875) scale(0.2 -0.2)">
       <defs>
        <path id="DejaVuSans-31" d="M 794 531 
L 1825 531 
L 1825 4091 
L 703 3866 
L 703 4441 
L 1819 4666 
L 2450 4666 
L 2450 531 
L 3481 531 
L 3481 0 
L 794 0 
L 794 531 
z
" transform="scale(0.015625)"/>
       </defs>
       <use xlink:href="#DejaVuSans-31"/>
       <use xlink:href="#DejaVuSans-30" x="63.623047"/>
       <use xlink:href="#DejaVuSans-30" x="127.246094"/>
       <use xlink:href="#DejaVuSans-30" x="190.869141"/>
      </g>
     </g>
    </g>
    <g id="text_4">
     <!-- Resistivity  [$\Omega m$] -->
     <g transform="translate(124.70625 532.75625) scale(0.2 -0.2)">
      <defs>
       <path id="DejaVuSans-Bold-52" d="M 2297 2597 
Q 2675 2597 2839 2737 
Q 3003 2878 3003 3200 
Q 3003 3519 2839 3656 
Q 2675 3794 2297 3794 
L 1791 3794 
L 1791 2597 
L 2297 2597 
z
M 1791 1766 
L 1791 0 
L 588 0 
L 588 4666 
L 2425 4666 
Q 3347 4666 3776 4356 
Q 4206 4047 4206 3378 
Q 4206 2916 3982 2619 
Q 3759 2322 3309 2181 
Q 3556 2125 3751 1926 
Q 3947 1728 4147 1325 
L 4800 0 
L 3519 0 
L 2950 1159 
Q 2778 1509 2601 1637 
Q 2425 1766 2131 1766 
L 1791 1766 
z
" transform="scale(0.015625)"/>
       <path id="DejaVuSans-Bold-65" d="M 4031 1759 
L 4031 1441 
L 1416 1441 
Q 1456 1047 1700 850 
Q 1944 653 2381 653 
Q 2734 653 3104 758 
Q 3475 863 3866 1075 
L 3866 213 
Q 3469 63 3072 -14 
Q 2675 -91 2278 -91 
Q 1328 -91 801 392 
Q 275 875 275 1747 
Q 275 2603 792 3093 
Q 1309 3584 2216 3584 
Q 3041 3584 3536 3087 
Q 4031 2591 4031 1759 
z
M 2881 2131 
Q 2881 2450 2695 2645 
Q 2509 2841 2209 2841 
Q 1884 2841 1681 2658 
Q 1478 2475 1428 2131 
L 2881 2131 
z
" transform="scale(0.015625)"/>
       <path id="DejaVuSans-Bold-73" d="M 3272 3391 
L 3272 2541 
Q 2913 2691 2578 2766 
Q 2244 2841 1947 2841 
Q 1628 2841 1473 2761 
Q 1319 2681 1319 2516 
Q 1319 2381 1436 2309 
Q 1553 2238 1856 2203 
L 2053 2175 
Q 2913 2066 3209 1816 
Q 3506 1566 3506 1031 
Q 3506 472 3093 190 
Q 2681 -91 1863 -91 
Q 1516 -91 1145 -36 
Q 775 19 384 128 
L 384 978 
Q 719 816 1070 734 
Q 1422 653 1784 653 
Q 2113 653 2278 743 
Q 2444 834 2444 1013 
Q 2444 1163 2330 1236 
Q 2216 1309 1875 1350 
L 1678 1375 
Q 931 1469 631 1722 
Q 331 1975 331 2491 
Q 331 3047 712 3315 
Q 1094 3584 1881 3584 
Q 2191 3584 2531 3537 
Q 2872 3491 3272 3391 
z
" transform="scale(0.015625)"/>
       <path id="DejaVuSans-Bold-69" d="M 538 3500 
L 1656 3500 
L 1656 0 
L 538 0 
L 538 3500 
z
M 538 4863 
L 1656 4863 
L 1656 3950 
L 538 3950 
L 538 4863 
z
" transform="scale(0.015625)"/>
       <path id="DejaVuSans-Bold-74" d="M 1759 4494 
L 1759 3500 
L 2913 3500 
L 2913 2700 
L 1759 2700 
L 1759 1216 
Q 1759 972 1856 886 
Q 1953 800 2241 800 
L 2816 800 
L 2816 0 
L 1856 0 
Q 1194 0 917 276 
Q 641 553 641 1216 
L 641 2700 
L 84 2700 
L 84 3500 
L 641 3500 
L 641 4494 
L 1759 4494 
z
" transform="scale(0.015625)"/>
       <path id="DejaVuSans-Bold-76" d="M 97 3500 
L 1216 3500 
L 2088 1081 
L 2956 3500 
L 4078 3500 
L 2700 0 
L 1472 0 
L 97 3500 
z
" transform="scale(0.015625)"/>
       <path id="DejaVuSans-Bold-79" d="M 78 3500 
L 1197 3500 
L 2138 1125 
L 2938 3500 
L 4056 3500 
L 2584 -331 
Q 2363 -916 2067 -1148 
Q 1772 -1381 1288 -1381 
L 641 -1381 
L 641 -647 
L 991 -647 
Q 1275 -647 1404 -556 
Q 1534 -466 1606 -231 
L 1638 -134 
L 78 3500 
z
" transform="scale(0.015625)"/>
       <path id="DejaVuSans-Bold-20" transform="scale(0.015625)"/>
       <path id="DejaVuSans-Bold-5b" d="M 550 4863 
L 2491 4863 
L 2491 4159 
L 1613 4159 
L 1613 -141 
L 2491 -141 
L 2491 -844 
L 550 -844 
L 550 4863 
z
" transform="scale(0.015625)"/>
       <path id="DejaVuSans-Bold-3a9" d="M 2719 4750 
Q 3841 4750 4480 4106 
Q 5119 3463 5119 2494 
Q 5119 1406 4306 909 
L 5266 909 
L 5266 0 
L 3125 0 
L 3125 975 
Q 3244 1041 3334 1131 
Q 3875 1678 3875 2466 
Q 3875 3066 3572 3472 
Q 3269 3878 2719 3878 
Q 2169 3878 1866 3472 
Q 1563 3066 1563 2466 
Q 1563 1678 2103 1131 
Q 2194 1041 2313 975 
L 2313 0 
L 172 0 
L 172 909 
L 1131 909 
Q 319 1406 319 2494 
Q 319 3463 958 4106 
Q 1597 4750 2719 4750 
z
" transform="scale(0.015625)"/>
       <path id="DejaVuSans-Bold-6d" d="M 3781 2919 
Q 3994 3244 4286 3414 
Q 4578 3584 4928 3584 
Q 5531 3584 5847 3212 
Q 6163 2841 6163 2131 
L 6163 0 
L 5038 0 
L 5038 1825 
Q 5041 1866 5042 1909 
Q 5044 1953 5044 2034 
Q 5044 2406 4934 2573 
Q 4825 2741 4581 2741 
Q 4263 2741 4089 2478 
Q 3916 2216 3909 1719 
L 3909 0 
L 2784 0 
L 2784 1825 
Q 2784 2406 2684 2573 
Q 2584 2741 2328 2741 
Q 2006 2741 1831 2477 
Q 1656 2213 1656 1722 
L 1656 0 
L 531 0 
L 531 3500 
L 1656 3500 
L 1656 2988 
Q 1863 3284 2130 3434 
Q 2397 3584 2719 3584 
Q 3081 3584 3359 3409 
Q 3638 3234 3781 2919 
z
" transform="scale(0.015625)"/>
       <path id="DejaVuSans-Bold-5d" d="M 2375 -844 
L 434 -844 
L 434 -141 
L 1313 -141 
L 1313 4159 
L 434 4159 
L 434 4863 
L 2375 4863 
L 2375 -844 
z
" transform="scale(0.015625)"/>
      </defs>
      <use xlink:href="#DejaVuSans-Bold-52" transform="translate(0 0.015625)"/>
      <use xlink:href="#DejaVuSans-Bold-65" transform="translate(77.001953 0.015625)"/>
      <use xlink:href="#DejaVuSans-Bold-73" transform="translate(144.824219 0.015625)"/>
      <use xlink:href="#DejaVuSans-Bold-69" transform="translate(204.345703 0.015625)"/>
      <use xlink:href="#DejaVuSans-Bold-73" transform="translate(238.623047 0.015625)"/>
      <use xlink:href="#DejaVuSans-Bold-74" transform="translate(298.144531 0.015625)"/>
      <use xlink:href="#DejaVuSans-Bold-69" transform="translate(345.947266 0.015625)"/>
      <use xlink:href="#DejaVuSans-Bold-76" transform="translate(380.224609 0.015625)"/>
      <use xlink:href="#DejaVuSans-Bold-69" transform="translate(445.410156 0.015625)"/>
      <use xlink:href="#DejaVuSans-Bold-74" transform="translate(479.6875 0.015625)"/>
      <use xlink:href="#DejaVuSans-Bold-79" transform="translate(527.490234 0.015625)"/>
      <use xlink:href="#DejaVuSans-Bold-20" transform="translate(592.675781 0.015625)"/>
      <use xlink:href="#DejaVuSans-Bold-20" transform="translate(627.490234 0.015625)"/>
      <use xlink:href="#DejaVuSans-Bold-5b" transform="translate(662.304688 0.015625)"/>
      <use xlink:href="#DejaVuSans-Bold-3a9" transform="translate(708.007812 0.015625)"/>
      <use xlink:href="#DejaVuSans-Bold-6d" transform="translate(793.017578 0.015625)"/>
      <use xlink:href="#DejaVuSans-Bold-5d" transform="translate(897.216797 0.015625)"/>
     </g>
    </g>
   </g>
   <g id="matplotlib.axis_2">
    <g id="ytick_1">
     <g id="line2d_4">
      <defs>
       <path id="mb424660fae" d="M 0 0 
L -3.5 0 
" style="stroke: #000000; stroke-width: 1.5"/>
      </defs>
      <g>
       <use xlink:href="#mb424660fae" x="74.00625" y="28.063636" style="stroke: #000000; stroke-width: 1.5"/>
      </g>
     </g>
     <g id="text_5">
      <!-- 0 -->
      <g transform="translate(54.28125 35.662074) scale(0.2 -0.2)">
       <use xlink:href="#DejaVuSans-30"/>
      </g>
     </g>
    </g>
    <g id="ytick_2">
     <g id="line2d_5">
      <g>
       <use xlink:href="#mb424660fae" x="74.00625" y="116.845068" style="stroke: #000000; stroke-width: 1.5"/>
      </g>
     </g>
     <g id="text_6">
      <!-- 5 -->
      <g transform="translate(54.28125 124.443505) scale(0.2 -0.2)">
       <use xlink:href="#DejaVuSans-35"/>
      </g>
     </g>
    </g>
    <g id="ytick_3">
     <g id="line2d_6">
      <g>
       <use xlink:href="#mb424660fae" x="74.00625" y="205.626499" style="stroke: #000000; stroke-width: 1.5"/>
      </g>
     </g>
     <g id="text_7">
      <!-- 10 -->
      <g transform="translate(41.55625 213.224937) scale(0.2 -0.2)">
       <use xlink:href="#DejaVuSans-31"/>
       <use xlink:href="#DejaVuSans-30" x="63.623047"/>
      </g>
     </g>
    </g>
    <g id="ytick_4">
     <g id="line2d_7">
      <g>
       <use xlink:href="#mb424660fae" x="74.00625" y="294.40793" style="stroke: #000000; stroke-width: 1.5"/>
      </g>
     </g>
     <g id="text_8">
      <!-- 15 -->
      <g transform="translate(41.55625 302.006368) scale(0.2 -0.2)">
       <use xlink:href="#DejaVuSans-31"/>
       <use xlink:href="#DejaVuSans-35" x="63.623047"/>
      </g>
     </g>
    </g>
    <g id="ytick_5">
     <g id="line2d_8">
      <g>
       <use xlink:href="#mb424660fae" x="74.00625" y="383.189362" style="stroke: #000000; stroke-width: 1.5"/>
      </g>
     </g>
     <g id="text_9">
      <!-- 20 -->
      <g transform="translate(41.55625 390.787799) scale(0.2 -0.2)">
       <defs>
        <path id="DejaVuSans-32" d="M 1228 531 
L 3431 531 
L 3431 0 
L 469 0 
L 469 531 
Q 828 903 1448 1529 
Q 2069 2156 2228 2338 
Q 2531 2678 2651 2914 
Q 2772 3150 2772 3378 
Q 2772 3750 2511 3984 
Q 2250 4219 1831 4219 
Q 1534 4219 1204 4116 
Q 875 4013 500 3803 
L 500 4441 
Q 881 4594 1212 4672 
Q 1544 4750 1819 4750 
Q 2544 4750 2975 4387 
Q 3406 4025 3406 3419 
Q 3406 3131 3298 2873 
Q 3191 2616 2906 2266 
Q 2828 2175 2409 1742 
Q 1991 1309 1228 531 
z
" transform="scale(0.015625)"/>
       </defs>
       <use xlink:href="#DejaVuSans-32"/>
       <use xlink:href="#DejaVuSans-30" x="63.623047"/>
      </g>
     </g>
    </g>
    <g id="text_10">
     <!-- Depth [m] -->
     <g transform="translate(22.396875 293.882812) rotate(-90) scale(0.2 -0.2)">
      <defs>
       <path id="DejaVuSans-Bold-44" d="M 1791 3756 
L 1791 909 
L 2222 909 
Q 2959 909 3348 1275 
Q 3738 1641 3738 2338 
Q 3738 3031 3350 3393 
Q 2963 3756 2222 3756 
L 1791 3756 
z
M 588 4666 
L 1856 4666 
Q 2919 4666 3439 4514 
Q 3959 4363 4331 4000 
Q 4659 3684 4818 3271 
Q 4978 2859 4978 2338 
Q 4978 1809 4818 1395 
Q 4659 981 4331 666 
Q 3956 303 3431 151 
Q 2906 0 1856 0 
L 588 0 
L 588 4666 
z
" transform="scale(0.015625)"/>
       <path id="DejaVuSans-Bold-70" d="M 1656 506 
L 1656 -1331 
L 538 -1331 
L 538 3500 
L 1656 3500 
L 1656 2988 
Q 1888 3294 2169 3439 
Q 2450 3584 2816 3584 
Q 3463 3584 3878 3070 
Q 4294 2556 4294 1747 
Q 4294 938 3878 423 
Q 3463 -91 2816 -91 
Q 2450 -91 2169 54 
Q 1888 200 1656 506 
z
M 2400 2772 
Q 2041 2772 1848 2508 
Q 1656 2244 1656 1747 
Q 1656 1250 1848 986 
Q 2041 722 2400 722 
Q 2759 722 2948 984 
Q 3138 1247 3138 1747 
Q 3138 2247 2948 2509 
Q 2759 2772 2400 2772 
z
" transform="scale(0.015625)"/>
       <path id="DejaVuSans-Bold-68" d="M 4056 2131 
L 4056 0 
L 2931 0 
L 2931 347 
L 2931 1625 
Q 2931 2084 2911 2256 
Q 2891 2428 2841 2509 
Q 2775 2619 2662 2680 
Q 2550 2741 2406 2741 
Q 2056 2741 1856 2470 
Q 1656 2200 1656 1722 
L 1656 0 
L 538 0 
L 538 4863 
L 1656 4863 
L 1656 2988 
Q 1909 3294 2193 3439 
Q 2478 3584 2822 3584 
Q 3428 3584 3742 3212 
Q 4056 2841 4056 2131 
z
" transform="scale(0.015625)"/>
      </defs>
      <use xlink:href="#DejaVuSans-Bold-44"/>
      <use xlink:href="#DejaVuSans-Bold-65" x="83.007812"/>
      <use xlink:href="#DejaVuSans-Bold-70" x="150.830078"/>
      <use xlink:href="#DejaVuSans-Bold-74" x="222.412109"/>
      <use xlink:href="#DejaVuSans-Bold-68" x="270.214844"/>
      <use xlink:href="#DejaVuSans-Bold-20" x="341.40625"/>
      <use xlink:href="#DejaVuSans-Bold-5b" x="376.220703"/>
      <use xlink:href="#DejaVuSans-Bold-6d" x="421.923828"/>
      <use xlink:href="#DejaVuSans-Bold-5d" x="526.123047"/>
     </g>
    </g>
   </g>
   <g id="line2d_9">
    <path d="M 207.846482 28.063636 
L 207.846482 36.941779 
L 236.494524 36.941779 
L 236.494524 45.819923 
L 192.34347 45.819923 
L 192.34347 54.698066 
L 294.344613 54.698066 
L 294.344613 63.576209 
L 221.564625 63.576209 
L 221.564625 72.454352 
L 218.555421 72.454352 
L 218.555421 81.332495 
L 193.368686 81.332495 
L 193.368686 90.210638 
L 264.714188 90.210638 
L 264.714188 99.088781 
L 253.185189 99.088781 
L 253.185189 107.966925 
L 276.550464 107.966925 
L 276.550464 116.845068 
L 281.375397 116.845068 
L 281.375397 125.723211 
L 275.583659 125.723211 
L 275.583659 134.601354 
L 330.424483 134.601354 
L 330.424483 143.479497 
L 222.46924 143.479497 
L 222.46924 152.35764 
L 334.730681 152.35764 
L 334.730681 161.235783 
L 329.725934 161.235783 
L 329.725934 170.113926 
L 276.059121 170.113926 
L 276.059121 178.99207 
L 256.800491 178.99207 
L 256.800491 187.870213 
L 291.741894 187.870213 
L 291.741894 196.748356 
L 313.615207 196.748356 
L 313.615207 205.626499 
L 226.139308 205.626499 
L 226.139308 214.504642 
L 203.342591 214.504642 
L 203.342591 223.382785 
L 192.148943 223.382785 
L 192.148943 232.260928 
L 163.398582 232.260928 
L 163.398582 241.139072 
L 282.033118 241.139072 
L 282.033118 250.017215 
L 183.040617 250.017215 
L 183.040617 258.895358 
L 229.562892 258.895358 
L 229.562892 267.773501 
L 305.055891 267.773501 
L 305.055891 276.651644 
L 148.020102 276.651644 
L 148.020102 285.529787 
L 255.078853 285.529787 
L 255.078853 294.40793 
L 174.493257 294.40793 
L 174.493257 303.286074 
L 331.259908 303.286074 
L 331.259908 312.164217 
L 222.89809 312.164217 
L 222.89809 321.04236 
L 248.736739 321.04236 
L 248.736739 329.920503 
L 269.23532 329.920503 
L 269.23532 338.798646 
L 119.388841 338.798646 
L 119.388841 347.676789 
L 332.331447 347.676789 
L 332.331447 356.554932 
L 188.294688 356.554932 
L 188.294688 365.433075 
L 289.037827 365.433075 
L 289.037827 374.311219 
L 178.620856 374.311219 
L 178.620856 383.189362 
L 284.715777 383.189362 
L 284.715777 392.067505 
L 299.468412 392.067505 
L 299.468412 400.945648 
L 247.169362 400.945648 
L 247.169362 409.823791 
L 272.332981 409.823791 
L 272.332981 418.701934 
L 158.373565 418.701934 
L 158.373565 427.580077 
L 295.777163 427.580077 
L 295.777163 436.458221 
L 172.69937 436.458221 
L 172.69937 445.336364 
L 187.293804 445.336364 
" clip-path="url(#p10bc65d380)" style="fill: none; stroke: #fecc5c; stroke-opacity: 0.3; stroke-width: 2; stroke-linecap: square"/>
   </g>
   <g id="line2d_10">
    <path d="M 181.596801 28.063636 
L 181.596801 36.941779 
L 310.261542 36.941779 
L 310.261542 45.819923 
L 161.782072 45.819923 
L 161.782072 54.698066 
L 255.819231 54.698066 
L 255.819231 63.576209 
L 308.88643 63.576209 
L 308.88643 72.454352 
L 212.933902 72.454352 
L 212.933902 81.332495 
L 233.77204 81.332495 
L 233.77204 90.210638 
L 331.915428 90.210638 
L 331.915428 99.088781 
L 167.677147 99.088781 
L 167.677147 107.966925 
L 260.511159 107.966925 
L 260.511159 116.845068 
L 222.555041 116.845068 
L 222.555041 125.723211 
L 251.185501 125.723211 
L 251.185501 134.601354 
L 319.582706 134.601354 
L 319.582706 143.479497 
L 293.951596 143.479497 
L 293.951596 152.35764 
L 298.955463 152.35764 
L 298.955463 161.235783 
L 256.890315 161.235783 
L 256.890315 170.113926 
L 340.303387 170.113926 
L 340.303387 178.99207 
L 318.689023 178.99207 
L 318.689023 187.870213 
L 235.784406 187.870213 
L 235.784406 196.748356 
L 303.49032 196.748356 
L 303.49032 205.626499 
L 237.32954 205.626499 
L 237.32954 214.504642 
L 221.864114 214.504642 
L 221.864114 223.382785 
L 203.25443 223.382785 
L 203.25443 232.260928 
L 285.465022 232.260928 
L 285.465022 241.139072 
L 259.19552 241.139072 
L 259.19552 250.017215 
L 187.028052 250.017215 
L 187.028052 258.895358 
L 273.088467 258.895358 
L 273.088467 267.773501 
L 163.959935 267.773501 
L 163.959935 276.651644 
L 246.355952 276.651644 
L 246.355952 285.529787 
L 218.267806 285.529787 
L 218.267806 294.40793 
L 156.266846 294.40793 
L 156.266846 303.286074 
L 223.138987 303.286074 
L 223.138987 312.164217 
L 204.05425 312.164217 
L 204.05425 321.04236 
L 301.673058 321.04236 
L 301.673058 329.920503 
L 141.781864 329.920503 
L 141.781864 338.798646 
L 241.375088 338.798646 
L 241.375088 347.676789 
L 305.200966 347.676789 
L 305.200966 356.554932 
L 231.83433 356.554932 
L 231.83433 365.433075 
L 205.641138 365.433075 
L 205.641138 374.311219 
L 309.813471 374.311219 
L 309.813471 383.189362 
L 229.693073 383.189362 
L 229.693073 392.067505 
L 218.713539 392.067505 
L 218.713539 400.945648 
L 115.25118 400.945648 
L 115.25118 409.823791 
L 118.862764 409.823791 
L 118.862764 418.701934 
L 195.263724 418.701934 
L 195.263724 427.580077 
L 209.576152 427.580077 
L 209.576152 436.458221 
L 235.594692 436.458221 
L 235.594692 445.336364 
L 188.026871 445.336364 
" clip-path="url(#p10bc65d380)" style="fill: none; stroke: #fecc5c; stroke-opacity: 0.3; stroke-width: 2; stroke-linecap: square"/>
   </g>
   <g id="line2d_11">
    <path d="M 254.027021 28.063636 
L 254.027021 36.941779 
L 184.70935 36.941779 
L 184.70935 45.819923 
L 264.758917 45.819923 
L 264.758917 54.698066 
L 221.928643 54.698066 
L 221.928643 63.576209 
L 212.690568 63.576209 
L 212.690568 72.454352 
L 298.469297 72.454352 
L 298.469297 81.332495 
L 275.362986 81.332495 
L 275.362986 90.210638 
L 203.426675 90.210638 
L 203.426675 99.088781 
L 176.944737 99.088781 
L 176.944737 107.966925 
L 223.12687 107.966925 
L 223.12687 116.845068 
L 274.719279 116.845068 
L 274.719279 125.723211 
L 255.368336 125.723211 
L 255.368336 134.601354 
L 288.367974 134.601354 
L 288.367974 143.479497 
L 302.970842 143.479497 
L 302.970842 152.35764 
L 323.744528 152.35764 
L 323.744528 161.235783 
L 304.343601 161.235783 
L 304.343601 170.113926 
L 337.16965 170.113926 
L 337.16965 178.99207 
L 339.848437 178.99207 
L 339.848437 187.870213 
L 216.288736 187.870213 
L 216.288736 196.748356 
L 255.288563 196.748356 
L 255.288563 205.626499 
L 179.380267 205.626499 
L 179.380267 214.504642 
L 223.245117 214.504642 
L 223.245117 223.382785 
L 225.204889 223.382785 
L 225.204889 232.260928 
L 247.889835 232.260928 
L 247.889835 241.139072 
L 260.928682 241.139072 
L 260.928682 250.017215 
L 252.180486 250.017215 
L 252.180486 258.895358 
L 184.580057 258.895358 
L 184.580057 267.773501 
L 231.565086 267.773501 
L 231.565086 276.651644 
L 322.797794 276.651644 
L 322.797794 285.529787 
L 185.222231 285.529787 
L 185.222231 294.40793 
L 242.607919 294.40793 
L 242.607919 303.286074 
L 169.570021 303.286074 
L 169.570021 312.164217 
L 126.218302 312.164217 
L 126.218302 321.04236 
L 207.849352 321.04236 
L 207.849352 329.920503 
L 188.849444 329.920503 
L 188.849444 338.798646 
L 292.488831 338.798646 
L 292.488831 347.676789 
L 255.337802 347.676789 
L 255.337802 356.554932 
L 230.975583 356.554932 
L 230.975583 365.433075 
L 228.822241 365.433075 
L 228.822241 374.311219 
L 174.218092 374.311219 
L 174.218092 383.189362 
L 129.373067 383.189362 
L 129.373067 392.067505 
L 267.381633 392.067505 
L 267.381633 400.945648 
L 324.448269 400.945648 
L 324.448269 409.823791 
L 320.434651 409.823791 
L 320.434651 418.701934 
L 250.826221 418.701934 
L 250.826221 427.580077 
L 221.17217 427.580077 
L 221.17217 436.458221 
L 230.587394 436.458221 
L 230.587394 445.336364 
L 187.236108 445.336364 
" clip-path="url(#p10bc65d380)" style="fill: none; stroke: #fecc5c; stroke-opacity: 0.3; stroke-width: 2; stroke-linecap: square"/>
   </g>
   <g id="line2d_12">
    <path d="M 249.624865 28.063636 
L 249.624865 36.941779 
L 179.48497 36.941779 
L 179.48497 45.819923 
L 322.770859 45.819923 
L 322.770859 54.698066 
L 202.994751 54.698066 
L 202.994751 63.576209 
L 177.801874 63.576209 
L 177.801874 72.454352 
L 312.806322 72.454352 
L 312.806322 81.332495 
L 189.530783 81.332495 
L 189.530783 90.210638 
L 333.109237 90.210638 
L 333.109237 99.088781 
L 296.335222 99.088781 
L 296.335222 107.966925 
L 281.142593 107.966925 
L 281.142593 116.845068 
L 249.185023 116.845068 
L 249.185023 125.723211 
L 195.752828 125.723211 
L 195.752828 134.601354 
L 222.500017 134.601354 
L 222.500017 143.479497 
L 287.33872 143.479497 
L 287.33872 152.35764 
L 299.113945 152.35764 
L 299.113945 161.235783 
L 223.221674 161.235783 
L 223.221674 170.113926 
L 338.357356 170.113926 
L 338.357356 178.99207 
L 286.780647 178.99207 
L 286.780647 187.870213 
L 284.870053 187.870213 
L 284.870053 196.748356 
L 310.312026 196.748356 
L 310.312026 205.626499 
L 282.603475 205.626499 
L 282.603475 214.504642 
L 289.134726 214.504642 
L 289.134726 223.382785 
L 200.947585 223.382785 
L 200.947585 232.260928 
L 140.965574 232.260928 
L 140.965574 241.139072 
L 282.386051 241.139072 
L 282.386051 250.017215 
L 283.016944 250.017215 
L 283.016944 258.895358 
L 166.190529 258.895358 
L 166.190529 267.773501 
L 215.039174 267.773501 
L 215.039174 276.651644 
L 306.461718 276.651644 
L 306.461718 285.529787 
L 229.656922 285.529787 
L 229.656922 294.40793 
L 252.036367 294.40793 
L 252.036367 303.286074 
L 197.894972 303.286074 
L 197.894972 312.164217 
L 264.722265 312.164217 
L 264.722265 321.04236 
L 294.991008 321.04236 
L 294.991008 329.920503 
L 199.11539 329.920503 
L 199.11539 338.798646 
L 239.631374 338.798646 
L 239.631374 347.676789 
L 233.351632 347.676789 
L 233.351632 356.554932 
L 223.89101 356.554932 
L 223.89101 365.433075 
L 266.907386 365.433075 
L 266.907386 374.311219 
L 274.617901 374.311219 
L 274.617901 383.189362 
L 284.597318 383.189362 
L 284.597318 392.067505 
L 269.576684 392.067505 
L 269.576684 400.945648 
L 317.774812 400.945648 
L 317.774812 409.823791 
L 226.172484 409.823791 
L 226.172484 418.701934 
L 194.03371 418.701934 
L 194.03371 427.580077 
L 147.840265 427.580077 
L 147.840265 436.458221 
L 190.938933 436.458221 
L 190.938933 445.336364 
L 187.923269 445.336364 
" clip-path="url(#p10bc65d380)" style="fill: none; stroke: #fecc5c; stroke-opacity: 0.3; stroke-width: 2; stroke-linecap: square"/>
   </g>
   <g id="line2d_13">
    <path d="M 195.267223 28.063636 
L 195.267223 36.941779 
L 240.902951 36.941779 
L 240.902951 45.819923 
L 249.539201 45.819923 
L 249.539201 54.698066 
L 175.747268 54.698066 
L 175.747268 63.576209 
L 238.696832 63.576209 
L 238.696832 72.454352 
L 315.815845 72.454352 
L 315.815845 81.332495 
L 207.906699 81.332495 
L 207.906699 90.210638 
L 257.615708 90.210638 
L 257.615708 99.088781 
L 204.043318 99.088781 
L 204.043318 107.966925 
L 329.65515 107.966925 
L 329.65515 116.845068 
L 283.666496 116.845068 
L 283.666496 125.723211 
L 199.736087 125.723211 
L 199.736087 134.601354 
L 311.258547 134.601354 
L 311.258547 143.479497 
L 212.210559 143.479497 
L 212.210559 152.35764 
L 214.013033 152.35764 
L 214.013033 161.235783 
L 324.091251 161.235783 
L 324.091251 170.113926 
L 307.57287 170.113926 
L 307.57287 178.99207 
L 246.308353 178.99207 
L 246.308353 187.870213 
L 247.105274 187.870213 
L 247.105274 196.748356 
L 284.594266 196.748356 
L 284.594266 205.626499 
L 271.435882 205.626499 
L 271.435882 214.504642 
L 192.060843 214.504642 
L 192.060843 223.382785 
L 225.736711 223.382785 
L 225.736711 232.260928 
L 291.742987 232.260928 
L 291.742987 241.139072 
L 241.464836 241.139072 
L 241.464836 250.017215 
L 294.520784 250.017215 
L 294.520784 258.895358 
L 280.685442 258.895358 
L 280.685442 267.773501 
L 195.817303 267.773501 
L 195.817303 276.651644 
L 233.216213 276.651644 
L 233.216213 285.529787 
L 213.717742 285.529787 
L 213.717742 294.40793 
L 270.917876 294.40793 
L 270.917876 303.286074 
L 218.345415 303.286074 
L 218.345415 312.164217 
L 183.079448 312.164217 
L 183.079448 321.04236 
L 301.292446 321.04236 
L 301.292446 329.920503 
L 202.093347 329.920503 
L 202.093347 338.798646 
L 275.684339 338.798646 
L 275.684339 347.676789 
L 258.730929 347.676789 
L 258.730929 356.554932 
L 202.212748 356.554932 
L 202.212748 365.433075 
L 229.081342 365.433075 
L 229.081342 374.311219 
L 197.899467 374.311219 
L 197.899467 383.189362 
L 217.826605 383.189362 
L 217.826605 392.067505 
L 212.07095 392.067505 
L 212.07095 400.945648 
L 302.237873 400.945648 
L 302.237873 409.823791 
L 140.570928 409.823791 
L 140.570928 418.701934 
L 311.103101 418.701934 
L 311.103101 427.580077 
L 324.920649 427.580077 
L 324.920649 436.458221 
L 217.407169 436.458221 
L 217.407169 445.336364 
L 188.80895 445.336364 
" clip-path="url(#p10bc65d380)" style="fill: none; stroke: #fecc5c; stroke-opacity: 0.3; stroke-width: 2; stroke-linecap: square"/>
   </g>
   <g id="line2d_14">
    <path d="M 269.092962 28.063636 
L 269.092962 36.941779 
L 185.500015 36.941779 
L 185.500015 45.819923 
L 223.451214 45.819923 
L 223.451214 54.698066 
L 304.244257 54.698066 
L 304.244257 63.576209 
L 237.800447 63.576209 
L 237.800447 72.454352 
L 167.644176 72.454352 
L 167.644176 81.332495 
L 208.574911 81.332495 
L 208.574911 90.210638 
L 276.931502 90.210638 
L 276.931502 99.088781 
L 315.428188 99.088781 
L 315.428188 107.966925 
L 311.040972 107.966925 
L 311.040972 116.845068 
L 231.661347 116.845068 
L 231.661347 125.723211 
L 323.995992 125.723211 
L 323.995992 134.601354 
L 216.959925 134.601354 
L 216.959925 143.479497 
L 194.2316 143.479497 
L 194.2316 152.35764 
L 291.766278 152.35764 
L 291.766278 161.235783 
L 315.423071 161.235783 
L 315.423071 170.113926 
L 284.668557 170.113926 
L 284.668557 178.99207 
L 271.781679 178.99207 
L 271.781679 187.870213 
L 171.391588 187.870213 
L 171.391588 196.748356 
L 230.976069 196.748356 
L 230.976069 205.626499 
L 236.901799 205.626499 
L 236.901799 214.504642 
L 290.377289 214.504642 
L 290.377289 223.382785 
L 269.375005 223.382785 
L 269.375005 232.260928 
L 241.613237 232.260928 
L 241.613237 241.139072 
L 313.721945 241.139072 
L 313.721945 250.017215 
L 244.909935 250.017215 
L 244.909935 258.895358 
L 224.018352 258.895358 
L 224.018352 267.773501 
L 255.133421 267.773501 
L 255.133421 276.651644 
L 264.032219 276.651644 
L 264.032219 285.529787 
L 230.292536 285.529787 
L 230.292536 294.40793 
L 305.182594 294.40793 
L 305.182594 303.286074 
L 306.401487 303.286074 
L 306.401487 312.164217 
L 337.704281 312.164217 
L 337.704281 321.04236 
L 264.219428 321.04236 
L 264.219428 329.920503 
L 156.339612 329.920503 
L 156.339612 338.798646 
L 256.628405 338.798646 
L 256.628405 347.676789 
L 230.490859 347.676789 
L 230.490859 356.554932 
L 210.979316 356.554932 
L 210.979316 365.433075 
L 207.335947 365.433075 
L 207.335947 374.311219 
L 151.043586 374.311219 
L 151.043586 383.189362 
L 244.447075 383.189362 
L 244.447075 392.067505 
L 247.78375 392.067505 
L 247.78375 400.945648 
L 216.800122 400.945648 
L 216.800122 409.823791 
L 296.447426 409.823791 
L 296.447426 418.701934 
L 130.418548 418.701934 
L 130.418548 427.580077 
L 133.489131 427.580077 
L 133.489131 436.458221 
L 163.670118 436.458221 
L 163.670118 445.336364 
L 191.145349 445.336364 
" clip-path="url(#p10bc65d380)" style="fill: none; stroke: #fecc5c; stroke-opacity: 0.3; stroke-width: 2; stroke-linecap: square"/>
   </g>
   <g id="line2d_15">
    <path d="M 220.445775 28.063636 
L 220.445775 36.941779 
L 196.889063 36.941779 
L 196.889063 45.819923 
L 310.500131 45.819923 
L 310.500131 54.698066 
L 163.596996 54.698066 
L 163.596996 63.576209 
L 245.678903 63.576209 
L 245.678903 72.454352 
L 320.135785 72.454352 
L 320.135785 81.332495 
L 260.87592 81.332495 
L 260.87592 90.210638 
L 219.600739 90.210638 
L 219.600739 99.088781 
L 327.530428 99.088781 
L 327.530428 107.966925 
L 150.480912 107.966925 
L 150.480912 116.845068 
L 219.190481 116.845068 
L 219.190481 125.723211 
L 306.950784 125.723211 
L 306.950784 134.601354 
L 220.061101 134.601354 
L 220.061101 143.479497 
L 256.414747 143.479497 
L 256.414747 152.35764 
L 329.504502 152.35764 
L 329.504502 161.235783 
L 288.380212 161.235783 
L 288.380212 170.113926 
L 310.036572 170.113926 
L 310.036572 178.99207 
L 321.636143 178.99207 
L 321.636143 187.870213 
L 321.040066 187.870213 
L 321.040066 196.748356 
L 309.040843 196.748356 
L 309.040843 205.626499 
L 190.199671 205.626499 
L 190.199671 214.504642 
L 213.113155 214.504642 
L 213.113155 223.382785 
L 298.795083 223.382785 
L 298.795083 232.260928 
L 301.605827 232.260928 
L 301.605827 241.139072 
L 196.834441 241.139072 
L 196.834441 250.017215 
L 228.222459 250.017215 
L 228.222459 258.895358 
L 285.7537 258.895358 
L 285.7537 267.773501 
L 247.230201 267.773501 
L 247.230201 276.651644 
L 243.627911 276.651644 
L 243.627911 285.529787 
L 241.996203 285.529787 
L 241.996203 294.40793 
L 193.03543 294.40793 
L 193.03543 303.286074 
L 311.829754 303.286074 
L 311.829754 312.164217 
L 313.676001 312.164217 
L 313.676001 321.04236 
L 217.718508 321.04236 
L 217.718508 329.920503 
L 319.555832 329.920503 
L 319.555832 338.798646 
L 170.700023 338.798646 
L 170.700023 347.676789 
L 187.001451 347.676789 
L 187.001451 356.554932 
L 146.244423 356.554932 
L 146.244423 365.433075 
L 182.658737 365.433075 
L 182.658737 374.311219 
L 155.687843 374.311219 
L 155.687843 383.189362 
L 290.376605 383.189362 
L 290.376605 392.067505 
L 232.697555 392.067505 
L 232.697555 400.945648 
L 300.229758 400.945648 
L 300.229758 409.823791 
L 223.669047 409.823791 
L 223.669047 418.701934 
L 207.760895 418.701934 
L 207.760895 427.580077 
L 98.603968 427.580077 
L 98.603968 436.458221 
L 207.323694 436.458221 
L 207.323694 445.336364 
L 191.155271 445.336364 
" clip-path="url(#p10bc65d380)" style="fill: none; stroke: #fecc5c; stroke-opacity: 0.3; stroke-width: 2; stroke-linecap: square"/>
   </g>
   <g id="line2d_16">
    <path d="M 208.036067 28.063636 
L 208.036067 36.941779 
L 237.607529 36.941779 
L 237.607529 45.819923 
L 185.314226 45.819923 
L 185.314226 54.698066 
L 289.676113 54.698066 
L 289.676113 63.576209 
L 262.222898 63.576209 
L 262.222898 72.454352 
L 200.974171 72.454352 
L 200.974171 81.332495 
L 206.399895 81.332495 
L 206.399895 90.210638 
L 264.874386 90.210638 
L 264.874386 99.088781 
L 252.089888 99.088781 
L 252.089888 107.966925 
L 285.378007 107.966925 
L 285.378007 116.845068 
L 173.553045 116.845068 
L 173.553045 125.723211 
L 333.129416 125.723211 
L 333.129416 134.601354 
L 315.887874 134.601354 
L 315.887874 143.479497 
L 276.535843 143.479497 
L 276.535843 152.35764 
L 303.961561 152.35764 
L 303.961561 161.235783 
L 332.300565 161.235783 
L 332.300565 170.113926 
L 244.075679 170.113926 
L 244.075679 178.99207 
L 311.985883 178.99207 
L 311.985883 187.870213 
L 210.159096 187.870213 
L 210.159096 196.748356 
L 254.581527 196.748356 
L 254.581527 205.626499 
L 199.322193 205.626499 
L 199.322193 214.504642 
L 287.796145 214.504642 
L 287.796145 223.382785 
L 161.946126 223.382785 
L 161.946126 232.260928 
L 299.198698 232.260928 
L 299.198698 241.139072 
L 313.819679 241.139072 
L 313.819679 250.017215 
L 336.85882 250.017215 
L 336.85882 258.895358 
L 325.427267 258.895358 
L 325.427267 267.773501 
L 237.610991 267.773501 
L 237.610991 276.651644 
L 182.527827 276.651644 
L 182.527827 285.529787 
L 274.599772 285.529787 
L 274.599772 294.40793 
L 235.593219 294.40793 
L 235.593219 303.286074 
L 238.044775 303.286074 
L 238.044775 312.164217 
L 154.8111 312.164217 
L 154.8111 321.04236 
L 340.371605 321.04236 
L 340.371605 329.920503 
L 258.709262 329.920503 
L 258.709262 338.798646 
L 194.023902 338.798646 
L 194.023902 347.676789 
L 244.939132 347.676789 
L 244.939132 356.554932 
L 283.383724 356.554932 
L 283.383724 365.433075 
L 297.74559 365.433075 
L 297.74559 374.311219 
L 262.960908 374.311219 
L 262.960908 383.189362 
L 308.10117 383.189362 
L 308.10117 392.067505 
L 266.002194 392.067505 
L 266.002194 400.945648 
L 279.132276 400.945648 
L 279.132276 409.823791 
L 195.438634 409.823791 
L 195.438634 418.701934 
L 193.251289 418.701934 
L 193.251289 427.580077 
L 207.217738 427.580077 
L 207.217738 436.458221 
L 298.398695 436.458221 
L 298.398695 445.336364 
L 188.241941 445.336364 
" clip-path="url(#p10bc65d380)" style="fill: none; stroke: #fecc5c; stroke-opacity: 0.3; stroke-width: 2; stroke-linecap: square"/>
   </g>
   <g id="line2d_17">
    <path d="M 192.652646 28.063636 
L 192.652646 36.941779 
L 243.855279 36.941779 
L 243.855279 45.819923 
L 206.848134 45.819923 
L 206.848134 54.698066 
L 294.752723 54.698066 
L 294.752723 63.576209 
L 178.750733 63.576209 
L 178.750733 72.454352 
L 252.429369 72.454352 
L 252.429369 81.332495 
L 254.685168 81.332495 
L 254.685168 90.210638 
L 326.054333 90.210638 
L 326.054333 99.088781 
L 204.5254 99.088781 
L 204.5254 107.966925 
L 171.343206 107.966925 
L 171.343206 116.845068 
L 337.458784 116.845068 
L 337.458784 125.723211 
L 217.747394 125.723211 
L 217.747394 134.601354 
L 287.336412 134.601354 
L 287.336412 143.479497 
L 247.315409 143.479497 
L 247.315409 152.35764 
L 272.96521 152.35764 
L 272.96521 161.235783 
L 314.343242 161.235783 
L 314.343242 170.113926 
L 341.471643 170.113926 
L 341.471643 178.99207 
L 217.816964 178.99207 
L 217.816964 187.870213 
L 248.5669 187.870213 
L 248.5669 196.748356 
L 283.906133 196.748356 
L 283.906133 205.626499 
L 246.473895 205.626499 
L 246.473895 214.504642 
L 330.293467 214.504642 
L 330.293467 223.382785 
L 242.169109 223.382785 
L 242.169109 232.260928 
L 331.113982 232.260928 
L 331.113982 241.139072 
L 340.468853 241.139072 
L 340.468853 250.017215 
L 204.35553 250.017215 
L 204.35553 258.895358 
L 290.995442 258.895358 
L 290.995442 267.773501 
L 183.537328 267.773501 
L 183.537328 276.651644 
L 185.439472 276.651644 
L 185.439472 285.529787 
L 218.758542 285.529787 
L 218.758542 294.40793 
L 247.135488 294.40793 
L 247.135488 303.286074 
L 209.002706 303.286074 
L 209.002706 312.164217 
L 254.038044 312.164217 
L 254.038044 321.04236 
L 213.565075 321.04236 
L 213.565075 329.920503 
L 211.728614 329.920503 
L 211.728614 338.798646 
L 269.856161 338.798646 
L 269.856161 347.676789 
L 299.482396 347.676789 
L 299.482396 356.554932 
L 248.658895 356.554932 
L 248.658895 365.433075 
L 165.790019 365.433075 
L 165.790019 374.311219 
L 303.768143 374.311219 
L 303.768143 383.189362 
L 180.080675 383.189362 
L 180.080675 392.067505 
L 197.603523 392.067505 
L 197.603523 400.945648 
L 294.137302 400.945648 
L 294.137302 409.823791 
L 173.072216 409.823791 
L 173.072216 418.701934 
L 266.113411 418.701934 
L 266.113411 427.580077 
L 255.976377 427.580077 
L 255.976377 436.458221 
L 291.874823 436.458221 
L 291.874823 445.336364 
L 187.760292 445.336364 
" clip-path="url(#p10bc65d380)" style="fill: none; stroke: #fecc5c; stroke-opacity: 0.3; stroke-width: 2; stroke-linecap: square"/>
   </g>
   <g id="line2d_18">
    <path d="M 262.818322 28.063636 
L 262.818322 36.941779 
L 186.759234 36.941779 
L 186.759234 45.819923 
L 247.105228 45.819923 
L 247.105228 54.698066 
L 226.337829 54.698066 
L 226.337829 63.576209 
L 249.095229 63.576209 
L 249.095229 72.454352 
L 256.536288 72.454352 
L 256.536288 81.332495 
L 164.46303 81.332495 
L 164.46303 90.210638 
L 284.707988 90.210638 
L 284.707988 99.088781 
L 238.7613 99.088781 
L 238.7613 107.966925 
L 329.751062 107.966925 
L 329.751062 116.845068 
L 296.824212 116.845068 
L 296.824212 125.723211 
L 162.321728 125.723211 
L 162.321728 134.601354 
L 312.580366 134.601354 
L 312.580366 143.479497 
L 252.845541 143.479497 
L 252.845541 152.35764 
L 327.912453 152.35764 
L 327.912453 161.235783 
L 278.53872 161.235783 
L 278.53872 170.113926 
L 193.195802 170.113926 
L 193.195802 178.99207 
L 316.901474 178.99207 
L 316.901474 187.870213 
L 258.232252 187.870213 
L 258.232252 196.748356 
L 262.173234 196.748356 
L 262.173234 205.626499 
L 219.851763 205.626499 
L 219.851763 214.504642 
L 288.127518 214.504642 
L 288.127518 223.382785 
L 203.896246 223.382785 
L 203.896246 232.260928 
L 297.962664 232.260928 
L 297.962664 241.139072 
L 327.630546 241.139072 
L 327.630546 250.017215 
L 213.423317 250.017215 
L 213.423317 258.895358 
L 318.7812 258.895358 
L 318.7812 267.773501 
L 295.126594 267.773501 
L 295.126594 276.651644 
L 229.916676 276.651644 
L 229.916676 285.529787 
L 157.0424 285.529787 
L 157.0424 294.40793 
L 315.660354 294.40793 
L 315.660354 303.286074 
L 303.669467 303.286074 
L 303.669467 312.164217 
L 185.547189 312.164217 
L 185.547189 321.04236 
L 135.92534 321.04236 
L 135.92534 329.920503 
L 270.206832 329.920503 
L 270.206832 338.798646 
L 257.434617 338.798646 
L 257.434617 347.676789 
L 300.926121 347.676789 
L 300.926121 356.554932 
L 171.744271 356.554932 
L 171.744271 365.433075 
L 324.442454 365.433075 
L 324.442454 374.311219 
L 326.12495 374.311219 
L 326.12495 383.189362 
L 201.412092 383.189362 
L 201.412092 392.067505 
L 270.45447 392.067505 
L 270.45447 400.945648 
L 303.202234 400.945648 
L 303.202234 409.823791 
L 305.259224 409.823791 
L 305.259224 418.701934 
L 237.935683 418.701934 
L 237.935683 427.580077 
L 198.807665 427.580077 
L 198.807665 436.458221 
L 301.778961 436.458221 
L 301.778961 445.336364 
L 185.609425 445.336364 
" clip-path="url(#p10bc65d380)" style="fill: none; stroke: #fecc5c; stroke-opacity: 0.3; stroke-width: 2; stroke-linecap: square"/>
   </g>
   <g id="line2d_19">
    <path d="M 196.768986 28.063636 
L 196.768986 36.941779 
L 244.308695 36.941779 
L 244.308695 45.819923 
L 228.969928 45.819923 
L 228.969928 54.698066 
L 197.484563 54.698066 
L 197.484563 63.576209 
L 220.659646 63.576209 
L 220.659646 72.454352 
L 301.822355 72.454352 
L 301.822355 81.332495 
L 262.301516 81.332495 
L 262.301516 90.210638 
L 264.255944 90.210638 
L 264.255944 99.088781 
L 183.399761 99.088781 
L 183.399761 107.966925 
L 269.941475 107.966925 
L 269.941475 116.845068 
L 216.405624 116.845068 
L 216.405624 125.723211 
L 265.299363 125.723211 
L 265.299363 134.601354 
L 302.354146 134.601354 
L 302.354146 143.479497 
L 248.380253 143.479497 
L 248.380253 152.35764 
L 301.782332 152.35764 
L 301.782332 161.235783 
L 238.600161 161.235783 
L 238.600161 170.113926 
L 277.543628 170.113926 
L 277.543628 178.99207 
L 240.828979 178.99207 
L 240.828979 187.870213 
L 270.699572 187.870213 
L 270.699572 196.748356 
L 339.418525 196.748356 
L 339.418525 205.626499 
L 263.685632 205.626499 
L 263.685632 214.504642 
L 326.418745 214.504642 
L 326.418745 223.382785 
L 217.740676 223.382785 
L 217.740676 232.260928 
L 203.631011 232.260928 
L 203.631011 241.139072 
L 272.021164 241.139072 
L 272.021164 250.017215 
L 197.772679 250.017215 
L 197.772679 258.895358 
L 250.228397 258.895358 
L 250.228397 267.773501 
L 178.588607 267.773501 
L 178.588607 276.651644 
L 251.097772 276.651644 
L 251.097772 285.529787 
L 318.457525 285.529787 
L 318.457525 294.40793 
L 332.752477 294.40793 
L 332.752477 303.286074 
L 244.212145 303.286074 
L 244.212145 312.164217 
L 231.521525 312.164217 
L 231.521525 321.04236 
L 240.727677 321.04236 
L 240.727677 329.920503 
L 151.599629 329.920503 
L 151.599629 338.798646 
L 183.006448 338.798646 
L 183.006448 347.676789 
L 185.913681 347.676789 
L 185.913681 356.554932 
L 236.942945 356.554932 
L 236.942945 365.433075 
L 151.428883 365.433075 
L 151.428883 374.311219 
L 229.793009 374.311219 
L 229.793009 383.189362 
L 304.748491 383.189362 
L 304.748491 392.067505 
L 306.833357 392.067505 
L 306.833357 400.945648 
L 295.001059 400.945648 
L 295.001059 409.823791 
L 299.363542 409.823791 
L 299.363542 418.701934 
L 257.245708 418.701934 
L 257.245708 427.580077 
L 239.07248 427.580077 
L 239.07248 436.458221 
L 194.40276 436.458221 
L 194.40276 445.336364 
L 187.725538 445.336364 
" clip-path="url(#p10bc65d380)" style="fill: none; stroke: #fecc5c; stroke-opacity: 0.3; stroke-width: 2; stroke-linecap: square"/>
   </g>
   <g id="line2d_20">
    <path d="M 190.620625 28.063636 
L 190.620625 36.941779 
L 274.010861 36.941779 
L 274.010861 45.819923 
L 174.611815 45.819923 
L 174.611815 54.698066 
L 258.661921 54.698066 
L 258.661921 63.576209 
L 274.920441 63.576209 
L 274.920441 72.454352 
L 227.956965 72.454352 
L 227.956965 81.332495 
L 208.636631 81.332495 
L 208.636631 90.210638 
L 294.494001 90.210638 
L 294.494001 99.088781 
L 216.790632 99.088781 
L 216.790632 107.966925 
L 246.022135 107.966925 
L 246.022135 116.845068 
L 269.486374 116.845068 
L 269.486374 125.723211 
L 217.541146 125.723211 
L 217.541146 134.601354 
L 257.143571 134.601354 
L 257.143571 143.479497 
L 229.072961 143.479497 
L 229.072961 152.35764 
L 274.670784 152.35764 
L 274.670784 161.235783 
L 286.624077 161.235783 
L 286.624077 170.113926 
L 265.809458 170.113926 
L 265.809458 178.99207 
L 273.524695 178.99207 
L 273.524695 187.870213 
L 199.69967 187.870213 
L 199.69967 196.748356 
L 322.203433 196.748356 
L 322.203433 205.626499 
L 259.831422 205.626499 
L 259.831422 214.504642 
L 330.709563 214.504642 
L 330.709563 223.382785 
L 293.453435 223.382785 
L 293.453435 232.260928 
L 284.068077 232.260928 
L 284.068077 241.139072 
L 305.185601 241.139072 
L 305.185601 250.017215 
L 233.734613 250.017215 
L 233.734613 258.895358 
L 293.914367 258.895358 
L 293.914367 267.773501 
L 187.369158 267.773501 
L 187.369158 276.651644 
L 235.064935 276.651644 
L 235.064935 285.529787 
L 254.792452 285.529787 
L 254.792452 294.40793 
L 246.180313 294.40793 
L 246.180313 303.286074 
L 204.086659 303.286074 
L 204.086659 312.164217 
L 171.102834 312.164217 
L 171.102834 321.04236 
L 325.846869 321.04236 
L 325.846869 329.920503 
L 281.753504 329.920503 
L 281.753504 338.798646 
L 127.614598 338.798646 
L 127.614598 347.676789 
L 209.531385 347.676789 
L 209.531385 356.554932 
L 164.495871 356.554932 
L 164.495871 365.433075 
L 306.651281 365.433075 
L 306.651281 374.311219 
L 221.45145 374.311219 
L 221.45145 383.189362 
L 147.318248 383.189362 
L 147.318248 392.067505 
L 285.237259 392.067505 
L 285.237259 400.945648 
L 159.571853 400.945648 
L 159.571853 409.823791 
L 209.851166 409.823791 
L 209.851166 418.701934 
L 241.591252 418.701934 
L 241.591252 427.580077 
L 324.335412 427.580077 
L 324.335412 436.458221 
L 171.442489 436.458221 
L 171.442489 445.336364 
L 191.894731 445.336364 
" clip-path="url(#p10bc65d380)" style="fill: none; stroke: #fecc5c; stroke-opacity: 0.3; stroke-width: 2; stroke-linecap: square"/>
   </g>
   <g id="line2d_21">
    <path d="M 172.158651 28.063636 
L 172.158651 36.941779 
L 332.583321 36.941779 
L 332.583321 45.819923 
L 188.648935 45.819923 
L 188.648935 54.698066 
L 167.362391 54.698066 
L 167.362391 63.576209 
L 299.658794 63.576209 
L 299.658794 72.454352 
L 328.69911 72.454352 
L 328.69911 81.332495 
L 227.37516 81.332495 
L 227.37516 90.210638 
L 209.813048 90.210638 
L 209.813048 99.088781 
L 249.158513 99.088781 
L 249.158513 107.966925 
L 264.285718 107.966925 
L 264.285718 116.845068 
L 287.915211 116.845068 
L 287.915211 125.723211 
L 309.350019 125.723211 
L 309.350019 134.601354 
L 257.071633 134.601354 
L 257.071633 143.479497 
L 274.833426 143.479497 
L 274.833426 152.35764 
L 270.73829 152.35764 
L 270.73829 161.235783 
L 284.498293 161.235783 
L 284.498293 170.113926 
L 230.432298 170.113926 
L 230.432298 178.99207 
L 197.190054 178.99207 
L 197.190054 187.870213 
L 241.651195 187.870213 
L 241.651195 196.748356 
L 323.046753 196.748356 
L 323.046753 205.626499 
L 196.483998 205.626499 
L 196.483998 214.504642 
L 191.937836 214.504642 
L 191.937836 223.382785 
L 244.382455 223.382785 
L 244.382455 232.260928 
L 265.598548 232.260928 
L 265.598548 241.139072 
L 165.255183 241.139072 
L 165.255183 250.017215 
L 236.51326 250.017215 
L 236.51326 258.895358 
L 301.62054 258.895358 
L 301.62054 267.773501 
L 273.392708 267.773501 
L 273.392708 276.651644 
L 282.775713 276.651644 
L 282.775713 285.529787 
L 341.733523 285.529787 
L 341.733523 294.40793 
L 208.83191 294.40793 
L 208.83191 303.286074 
L 260.713096 303.286074 
L 260.713096 312.164217 
L 286.331254 312.164217 
L 286.331254 321.04236 
L 191.459368 321.04236 
L 191.459368 329.920503 
L 234.192174 329.920503 
L 234.192174 338.798646 
L 158.497323 338.798646 
L 158.497323 347.676789 
L 195.342767 347.676789 
L 195.342767 356.554932 
L 326.816909 356.554932 
L 326.816909 365.433075 
L 147.897236 365.433075 
L 147.897236 374.311219 
L 137.86524 374.311219 
L 137.86524 383.189362 
L 220.100798 383.189362 
L 220.100798 392.067505 
L 327.780025 392.067505 
L 327.780025 400.945648 
L 225.276781 400.945648 
L 225.276781 409.823791 
L 296.868577 409.823791 
L 296.868577 418.701934 
L 224.766732 418.701934 
L 224.766732 427.580077 
L 317.816247 427.580077 
L 317.816247 436.458221 
L 210.038891 436.458221 
L 210.038891 445.336364 
L 190.684182 445.336364 
" clip-path="url(#p10bc65d380)" style="fill: none; stroke: #fecc5c; stroke-opacity: 0.3; stroke-width: 2; stroke-linecap: square"/>
   </g>
   <g id="line2d_22">
    <path d="M 203.167802 28.063636 
L 203.167802 36.941779 
L 235.157477 36.941779 
L 235.157477 45.819923 
L 215.382565 45.819923 
L 215.382565 54.698066 
L 212.491372 54.698066 
L 212.491372 63.576209 
L 290.683777 63.576209 
L 290.683777 72.454352 
L 244.816194 72.454352 
L 244.816194 81.332495 
L 181.840021 81.332495 
L 181.840021 90.210638 
L 210.505843 90.210638 
L 210.505843 99.088781 
L 302.944166 99.088781 
L 302.944166 107.966925 
L 298.394185 107.966925 
L 298.394185 116.845068 
L 253.84827 116.845068 
L 253.84827 125.723211 
L 254.906645 125.723211 
L 254.906645 134.601354 
L 295.776085 134.601354 
L 295.776085 143.479497 
L 278.699525 143.479497 
L 278.699525 152.35764 
L 269.007754 152.35764 
L 269.007754 161.235783 
L 320.322538 161.235783 
L 320.322538 170.113926 
L 222.049303 170.113926 
L 222.049303 178.99207 
L 318.148774 178.99207 
L 318.148774 187.870213 
L 301.038795 187.870213 
L 301.038795 196.748356 
L 248.234388 196.748356 
L 248.234388 205.626499 
L 260.662414 205.626499 
L 260.662414 214.504642 
L 183.58807 214.504642 
L 183.58807 223.382785 
L 246.7229 223.382785 
L 246.7229 232.260928 
L 302.066531 232.260928 
L 302.066531 241.139072 
L 197.460687 241.139072 
L 197.460687 250.017215 
L 264.80594 250.017215 
L 264.80594 258.895358 
L 280.118653 258.895358 
L 280.118653 267.773501 
L 289.808663 267.773501 
L 289.808663 276.651644 
L 235.437197 276.651644 
L 235.437197 285.529787 
L 227.116363 285.529787 
L 227.116363 294.40793 
L 145.955388 294.40793 
L 145.955388 303.286074 
L 293.096949 303.286074 
L 293.096949 312.164217 
L 186.76224 312.164217 
L 186.76224 321.04236 
L 165.676153 321.04236 
L 165.676153 329.920503 
L 305.209499 329.920503 
L 305.209499 338.798646 
L 217.323578 338.798646 
L 217.323578 347.676789 
L 232.581252 347.676789 
L 232.581252 356.554932 
L 194.562374 356.554932 
L 194.562374 365.433075 
L 284.24361 365.433075 
L 284.24361 374.311219 
L 229.72432 374.311219 
L 229.72432 383.189362 
L 223.905799 383.189362 
L 223.905799 392.067505 
L 199.013124 392.067505 
L 199.013124 400.945648 
L 200.627022 400.945648 
L 200.627022 409.823791 
L 219.471652 409.823791 
L 219.471652 418.701934 
L 166.829514 418.701934 
L 166.829514 427.580077 
L 237.12282 427.580077 
L 237.12282 436.458221 
L 215.824601 436.458221 
L 215.824601 445.336364 
L 188.70446 445.336364 
" clip-path="url(#p10bc65d380)" style="fill: none; stroke: #fecc5c; stroke-opacity: 0.3; stroke-width: 2; stroke-linecap: square"/>
   </g>
   <g id="line2d_23">
    <path d="M 182.425925 28.063636 
L 182.425925 36.941779 
L 289.827626 36.941779 
L 289.827626 45.819923 
L 200.970778 45.819923 
L 200.970778 54.698066 
L 181.633385 54.698066 
L 181.633385 63.576209 
L 243.107977 63.576209 
L 243.107977 72.454352 
L 312.576297 72.454352 
L 312.576297 81.332495 
L 312.668641 81.332495 
L 312.668641 90.210638 
L 233.770947 90.210638 
L 233.770947 99.088781 
L 213.498558 99.088781 
L 213.498558 107.966925 
L 180.396873 107.966925 
L 180.396873 116.845068 
L 288.27311 116.845068 
L 288.27311 125.723211 
L 301.753575 125.723211 
L 301.753575 134.601354 
L 267.881054 134.601354 
L 267.881054 143.479497 
L 194.043655 143.479497 
L 194.043655 152.35764 
L 291.739495 152.35764 
L 291.739495 161.235783 
L 313.019434 161.235783 
L 313.019434 170.113926 
L 286.964363 170.113926 
L 286.964363 178.99207 
L 227.107966 178.99207 
L 227.107966 187.870213 
L 259.558231 187.870213 
L 259.558231 196.748356 
L 274.565883 196.748356 
L 274.565883 205.626499 
L 208.316486 205.626499 
L 208.316486 214.504642 
L 254.084125 214.504642 
L 254.084125 223.382785 
L 206.420203 223.382785 
L 206.420203 232.260928 
L 290.459506 232.260928 
L 290.459506 241.139072 
L 253.51471 241.139072 
L 253.51471 250.017215 
L 291.663655 250.017215 
L 291.663655 258.895358 
L 245.671676 258.895358 
L 245.671676 267.773501 
L 221.865162 267.773501 
L 221.865162 276.651644 
L 336.352004 276.651644 
L 336.352004 285.529787 
L 253.396038 285.529787 
L 253.396038 294.40793 
L 215.789141 294.40793 
L 215.789141 303.286074 
L 331.362197 303.286074 
L 331.362197 312.164217 
L 236.619831 312.164217 
L 236.619831 321.04236 
L 202.676352 321.04236 
L 202.676352 329.920503 
L 266.604602 329.920503 
L 266.604602 338.798646 
L 240.537796 338.798646 
L 240.537796 347.676789 
L 132.293966 347.676789 
L 132.293966 356.554932 
L 206.803078 356.554932 
L 206.803078 365.433075 
L 276.341741 365.433075 
L 276.341741 374.311219 
L 239.997456 374.311219 
L 239.997456 383.189362 
L 249.11392 383.189362 
L 249.11392 392.067505 
L 198.189739 392.067505 
L 198.189739 400.945648 
L 233.651652 400.945648 
L 233.651652 409.823791 
L 204.469511 409.823791 
L 204.469511 418.701934 
L 208.827469 418.701934 
L 208.827469 427.580077 
L 194.990464 427.580077 
L 194.990464 436.458221 
L 241.868239 436.458221 
L 241.868239 445.336364 
L 192.016682 445.336364 
" clip-path="url(#p10bc65d380)" style="fill: none; stroke: #fecc5c; stroke-opacity: 0.3; stroke-width: 2; stroke-linecap: square"/>
   </g>
   <g id="line2d_24">
    <path d="M 229.959478 28.063636 
L 229.959478 36.941779 
L 189.374153 36.941779 
L 189.374153 45.819923 
L 307.083698 45.819923 
L 307.083698 54.698066 
L 210.407873 54.698066 
L 210.407873 63.576209 
L 178.950931 63.576209 
L 178.950931 72.454352 
L 260.493865 72.454352 
L 260.493865 81.332495 
L 292.697509 81.332495 
L 292.697509 90.210638 
L 214.572374 90.210638 
L 214.572374 99.088781 
L 257.66604 99.088781 
L 257.66604 107.966925 
L 326.326871 107.966925 
L 326.326871 116.845068 
L 303.038651 116.845068 
L 303.038651 125.723211 
L 322.11036 125.723211 
L 322.11036 134.601354 
L 236.306784 134.601354 
L 236.306784 143.479497 
L 205.309051 143.479497 
L 205.309051 152.35764 
L 226.090449 152.35764 
L 226.090449 161.235783 
L 196.567217 161.235783 
L 196.567217 170.113926 
L 219.411845 170.113926 
L 219.411845 178.99207 
L 229.948773 178.99207 
L 229.948773 187.870213 
L 252.043883 187.870213 
L 252.043883 196.748356 
L 249.955479 196.748356 
L 249.955479 205.626499 
L 300.79799 205.626499 
L 300.79799 214.504642 
L 247.539969 214.504642 
L 247.539969 223.382785 
L 265.873577 223.382785 
L 265.873577 232.260928 
L 295.303159 232.260928 
L 295.303159 241.139072 
L 280.394486 241.139072 
L 280.394486 250.017215 
L 314.675329 250.017215 
L 314.675329 258.895358 
L 286.218291 258.895358 
L 286.218291 267.773501 
L 244.726218 267.773501 
L 244.726218 276.651644 
L 246.137967 276.651644 
L 246.137967 285.529787 
L 213.056985 285.529787 
L 213.056985 294.40793 
L 191.328671 294.40793 
L 191.328671 303.286074 
L 223.963829 303.286074 
L 223.963829 312.164217 
L 261.619153 312.164217 
L 261.619153 321.04236 
L 268.001958 321.04236 
L 268.001958 329.920503 
L 295.942858 329.920503 
L 295.942858 338.798646 
L 285.729195 338.798646 
L 285.729195 347.676789 
L 232.045816 347.676789 
L 232.045816 356.554932 
L 236.839107 356.554932 
L 236.839107 365.433075 
L 232.968849 365.433075 
L 232.968849 374.311219 
L 219.409643 374.311219 
L 219.409643 383.189362 
L 253.006877 383.189362 
L 253.006877 392.067505 
L 250.62931 392.067505 
L 250.62931 400.945648 
L 269.398509 400.945648 
L 269.398509 409.823791 
L 173.237956 409.823791 
L 173.237956 418.701934 
L 103.869197 418.701934 
L 103.869197 427.580077 
L 171.563408 427.580077 
L 171.563408 436.458221 
L 96.278977 436.458221 
L 96.278977 445.336364 
L 192.775767 445.336364 
" clip-path="url(#p10bc65d380)" style="fill: none; stroke: #fecc5c; stroke-opacity: 0.3; stroke-width: 2; stroke-linecap: square"/>
   </g>
   <g id="line2d_25">
    <path d="M 267.861574 28.063636 
L 267.861574 36.941779 
L 175.232474 36.941779 
L 175.232474 45.819923 
L 296.002831 45.819923 
L 296.002831 54.698066 
L 205.325008 54.698066 
L 205.325008 63.576209 
L 212.075869 63.576209 
L 212.075869 72.454352 
L 289.39155 72.454352 
L 289.39155 81.332495 
L 282.922565 81.332495 
L 282.922565 90.210638 
L 161.781548 90.210638 
L 161.781548 99.088781 
L 225.350693 99.088781 
L 225.350693 107.966925 
L 296.583817 107.966925 
L 296.583817 116.845068 
L 297.055802 116.845068 
L 297.055802 125.723211 
L 245.348228 125.723211 
L 245.348228 134.601354 
L 272.728215 134.601354 
L 272.728215 143.479497 
L 259.83537 143.479497 
L 259.83537 152.35764 
L 334.827414 152.35764 
L 334.827414 161.235783 
L 328.124319 161.235783 
L 328.124319 170.113926 
L 229.868287 170.113926 
L 229.868287 178.99207 
L 252.383804 178.99207 
L 252.383804 187.870213 
L 254.579326 187.870213 
L 254.579326 196.748356 
L 168.812812 196.748356 
L 168.812812 205.626499 
L 133.966403 205.626499 
L 133.966403 214.504642 
L 266.407798 214.504642 
L 266.407798 223.382785 
L 214.16595 223.382785 
L 214.16595 232.260928 
L 141.473888 232.260928 
L 141.473888 241.139072 
L 337.410607 241.139072 
L 337.410607 250.017215 
L 198.116002 250.017215 
L 198.116002 258.895358 
L 204.576674 258.895358 
L 204.576674 267.773501 
L 327.725988 267.773501 
L 327.725988 276.651644 
L 259.748568 276.651644 
L 259.748568 285.529787 
L 125.967244 285.529787 
L 125.967244 294.40793 
L 218.166815 294.40793 
L 218.166815 303.286074 
L 225.121138 303.286074 
L 225.121138 312.164217 
L 271.383545 312.164217 
L 271.383545 321.04236 
L 202.036061 321.04236 
L 202.036061 329.920503 
L 272.782783 329.920503 
L 272.782783 338.798646 
L 280.430895 338.798646 
L 280.430895 347.676789 
L 155.266448 347.676789 
L 155.266448 356.554932 
L 220.947671 356.554932 
L 220.947671 365.433075 
L 202.227111 365.433075 
L 202.227111 374.311219 
L 139.027157 374.311219 
L 139.027157 383.189362 
L 239.397962 383.189362 
L 239.397962 392.067505 
L 301.411224 392.067505 
L 301.411224 400.945648 
L 295.663214 400.945648 
L 295.663214 409.823791 
L 290.478211 409.823791 
L 290.478211 418.701934 
L 269.615203 418.701934 
L 269.615203 427.580077 
L 332.754603 427.580077 
L 332.754603 436.458221 
L 274.6452 436.458221 
L 274.6452 445.336364 
L 187.649797 445.336364 
" clip-path="url(#p10bc65d380)" style="fill: none; stroke: #fecc5c; stroke-opacity: 0.3; stroke-width: 2; stroke-linecap: square"/>
   </g>
   <g id="line2d_26">
    <path d="M 177.530573 28.063636 
L 177.530573 36.941779 
L 297.581004 36.941779 
L 297.581004 45.819923 
L 185.597787 45.819923 
L 185.597787 54.698066 
L 239.018504 54.698066 
L 239.018504 63.576209 
L 201.600463 63.576209 
L 201.600463 72.454352 
L 329.715397 72.454352 
L 329.715397 81.332495 
L 236.762645 81.332495 
L 236.762645 90.210638 
L 237.508185 90.210638 
L 237.508185 99.088781 
L 180.04775 99.088781 
L 180.04775 107.966925 
L 298.326969 107.966925 
L 298.326969 116.845068 
L 252.090085 116.845068 
L 252.090085 125.723211 
L 240.152765 125.723211 
L 240.152765 134.601354 
L 297.911921 134.601354 
L 297.911921 143.479497 
L 290.258647 143.479497 
L 290.258647 152.35764 
L 261.130527 152.35764 
L 261.130527 161.235783 
L 235.435557 161.235783 
L 235.435557 170.113926 
L 250.672673 170.113926 
L 250.672673 178.99207 
L 260.555661 178.99207 
L 260.555661 187.870213 
L 325.16982 187.870213 
L 325.16982 196.748356 
L 212.573309 196.748356 
L 212.573309 205.626499 
L 276.376738 205.626499 
L 276.376738 214.504642 
L 311.478961 214.504642 
L 311.478961 223.382785 
L 310.122509 223.382785 
L 310.122509 232.260928 
L 287.70377 232.260928 
L 287.70377 241.139072 
L 243.865801 241.139072 
L 243.865801 250.017215 
L 161.239303 250.017215 
L 161.239303 258.895358 
L 226.071941 258.895358 
L 226.071941 267.773501 
L 276.313773 267.773501 
L 276.313773 276.651644 
L 234.307901 276.651644 
L 234.307901 285.529787 
L 154.425462 285.529787 
L 154.425462 294.40793 
L 169.807266 294.40793 
L 169.807266 303.286074 
L 162.059363 303.286074 
L 162.059363 312.164217 
L 242.347952 312.164217 
L 242.347952 321.04236 
L 219.212679 321.04236 
L 219.212679 329.920503 
L 251.033699 329.920503 
L 251.033699 338.798646 
L 137.599914 338.798646 
L 137.599914 347.676789 
L 158.495592 347.676789 
L 158.495592 356.554932 
L 246.496807 356.554932 
L 246.496807 365.433075 
L 306.899389 365.433075 
L 306.899389 374.311219 
L 313.465744 374.311219 
L 313.465744 383.189362 
L 308.748339 383.189362 
L 308.748339 392.067505 
L 144.428228 392.067505 
L 144.428228 400.945648 
L 114.332058 400.945648 
L 114.332058 409.823791 
L 330.76322 409.823791 
L 330.76322 418.701934 
L 272.59726 418.701934 
L 272.59726 427.580077 
L 271.12452 427.580077 
L 271.12452 436.458221 
L 252.347532 436.458221 
L 252.347532 445.336364 
L 187.250957 445.336364 
" clip-path="url(#p10bc65d380)" style="fill: none; stroke: #fecc5c; stroke-opacity: 0.3; stroke-width: 2; stroke-linecap: square"/>
   </g>
   <g id="line2d_27">
    <path d="M 198.583796 28.063636 
L 198.583796 36.941779 
L 253.367737 36.941779 
L 253.367737 45.819923 
L 197.538873 45.819923 
L 197.538873 54.698066 
L 215.711342 54.698066 
L 215.711342 63.576209 
L 270.93927 63.576209 
L 270.93927 72.454352 
L 245.771961 72.454352 
L 245.771961 81.332495 
L 219.7237 81.332495 
L 219.7237 90.210638 
L 219.169635 90.210638 
L 219.169635 99.088781 
L 257.031974 99.088781 
L 257.031974 107.966925 
L 281.287608 107.966925 
L 281.287608 116.845068 
L 221.114125 116.845068 
L 221.114125 125.723211 
L 272.831613 125.723211 
L 272.831613 134.601354 
L 197.664484 134.601354 
L 197.664484 143.479497 
L 249.186769 143.479497 
L 249.186769 152.35764 
L 302.340375 152.35764 
L 302.340375 161.235783 
L 325.246571 161.235783 
L 325.246571 170.113926 
L 244.512074 170.113926 
L 244.512074 178.99207 
L 285.313828 178.99207 
L 285.313828 187.870213 
L 242.000287 187.870213 
L 242.000287 196.748356 
L 264.001913 196.748356 
L 264.001913 205.626499 
L 268.413134 205.626499 
L 268.413134 214.504642 
L 312.337905 214.504642 
L 312.337905 223.382785 
L 291.831293 223.382785 
L 291.831293 232.260928 
L 315.790094 232.260928 
L 315.790094 241.139072 
L 156.230023 241.139072 
L 156.230023 250.017215 
L 198.455232 250.017215 
L 198.455232 258.895358 
L 136.069337 258.895358 
L 136.069337 267.773501 
L 248.260472 267.773501 
L 248.260472 276.651644 
L 138.688485 276.651644 
L 138.688485 285.529787 
L 320.096991 285.529787 
L 320.096991 294.40793 
L 210.034207 294.40793 
L 210.034207 303.286074 
L 199.180777 303.286074 
L 199.180777 312.164217 
L 228.938635 312.164217 
L 228.938635 321.04236 
L 191.647738 321.04236 
L 191.647738 329.920503 
L 221.125163 329.920503 
L 221.125163 338.798646 
L 230.478728 338.798646 
L 230.478728 347.676789 
L 182.500991 347.676789 
L 182.500991 356.554932 
L 237.936397 356.554932 
L 237.936397 365.433075 
L 257.790679 365.433075 
L 257.790679 374.311219 
L 175.856732 374.311219 
L 175.856732 383.189362 
L 164.38032 383.189362 
L 164.38032 392.067505 
L 251.289855 392.067505 
L 251.289855 400.945648 
L 297.20238 400.945648 
L 297.20238 409.823791 
L 293.610232 409.823791 
L 293.610232 418.701934 
L 232.866696 418.701934 
L 232.866696 427.580077 
L 211.602184 427.580077 
L 211.602184 436.458221 
L 177.276361 436.458221 
L 177.276361 445.336364 
L 186.632089 445.336364 
" clip-path="url(#p10bc65d380)" style="fill: none; stroke: #fecc5c; stroke-opacity: 0.3; stroke-width: 2; stroke-linecap: square"/>
   </g>
   <g id="line2d_28">
    <path d="M 202.160123 28.063636 
L 202.160123 36.941779 
L 259.399354 36.941779 
L 259.399354 45.819923 
L 174.358059 45.819923 
L 174.358059 54.698066 
L 285.340687 54.698066 
L 285.340687 63.576209 
L 269.84453 63.576209 
L 269.84453 72.454352 
L 180.44259 72.454352 
L 180.44259 81.332495 
L 294.218775 81.332495 
L 294.218775 90.210638 
L 282.152822 90.210638 
L 282.152822 99.088781 
L 187.047449 99.088781 
L 187.047449 107.966925 
L 196.369296 107.966925 
L 196.369296 116.845068 
L 304.37831 116.845068 
L 304.37831 125.723211 
L 251.953892 125.723211 
L 251.953892 134.601354 
L 332.028801 134.601354 
L 332.028801 143.479497 
L 216.761109 143.479497 
L 216.761109 152.35764 
L 334.533953 152.35764 
L 334.533953 161.235783 
L 185.985665 161.235783 
L 185.985665 170.113926 
L 243.241468 170.113926 
L 243.241468 178.99207 
L 286.700388 178.99207 
L 286.700388 187.870213 
L 303.818369 187.870213 
L 303.818369 196.748356 
L 213.038355 196.748356 
L 213.038355 205.626499 
L 302.93041 205.626499 
L 302.93041 214.504642 
L 318.452848 214.504642 
L 318.452848 223.382785 
L 231.688662 223.382785 
L 231.688662 232.260928 
L 240.284069 232.260928 
L 240.284069 241.139072 
L 263.262583 241.139072 
L 263.262583 250.017215 
L 294.747849 250.017215 
L 294.747849 258.895358 
L 253.034845 258.895358 
L 253.034845 267.773501 
L 191.864403 267.773501 
L 191.864403 276.651644 
L 171.790359 276.651644 
L 171.790359 285.529787 
L 253.359386 285.529787 
L 253.359386 294.40793 
L 288.888606 294.40793 
L 288.888606 303.286074 
L 258.382945 303.286074 
L 258.382945 312.164217 
L 284.505869 312.164217 
L 284.505869 321.04236 
L 218.645716 321.04236 
L 218.645716 329.920503 
L 222.010404 329.920503 
L 222.010404 338.798646 
L 275.534025 338.798646 
L 275.534025 347.676789 
L 230.072896 347.676789 
L 230.072896 356.554932 
L 157.859902 356.554932 
L 157.859902 365.433075 
L 275.368088 365.433075 
L 275.368088 374.311219 
L 152.230738 374.311219 
L 152.230738 383.189362 
L 237.099256 383.189362 
L 237.099256 392.067505 
L 205.334536 392.067505 
L 205.334536 400.945648 
L 137.656904 400.945648 
L 137.656904 409.823791 
L 319.037568 409.823791 
L 319.037568 418.701934 
L 214.433501 418.701934 
L 214.433501 427.580077 
L 270.837603 427.580077 
L 270.837603 436.458221 
L 306.292911 436.458221 
L 306.292911 445.336364 
L 191.13075 445.336364 
" clip-path="url(#p10bc65d380)" style="fill: none; stroke: #fecc5c; stroke-opacity: 0.3; stroke-width: 2; stroke-linecap: square"/>
   </g>
   <g id="line2d_29"/>
   <g id="line2d_30">
    <path d="M 229.47483 28.063636 
L 229.47483 36.941779 
L 215.604483 36.941779 
L 215.604483 45.819923 
L 236.133331 45.819923 
L 236.133331 54.698066 
L 238.221477 54.698066 
L 238.221477 63.576209 
L 240.820492 63.576209 
L 240.820492 72.454352 
L 240.893857 72.454352 
L 240.893857 81.332495 
L 243.671836 81.332495 
L 243.671836 90.210638 
L 248.769975 90.210638 
L 248.769975 99.088781 
L 252.229285 99.088781 
L 252.229285 107.966925 
L 255.954817 107.966925 
L 255.954817 116.845068 
L 256.738103 116.845068 
L 256.738103 125.723211 
L 261.535888 125.723211 
L 261.535888 134.601354 
L 271.641811 134.601354 
L 271.641811 143.479497 
L 269.374443 143.479497 
L 269.374443 152.35764 
L 290.653562 152.35764 
L 290.653562 161.235783 
L 275.54022 161.235783 
L 275.54022 170.113926 
L 267.340487 170.113926 
L 267.340487 178.99207 
L 271.354363 178.99207 
L 271.354363 187.870213 
L 268.449984 187.870213 
L 268.449984 196.748356 
L 265.563673 196.748356 
L 265.563673 205.626499 
L 260.441195 205.626499 
L 260.441195 214.504642 
L 258.58353 214.504642 
L 258.58353 223.382785 
L 257.502836 223.382785 
L 257.502836 232.260928 
L 259.171636 232.260928 
L 259.171636 241.139072 
L 252.337678 241.139072 
L 252.337678 250.017215 
L 248.428793 250.017215 
L 248.428793 258.895358 
L 244.946329 258.895358 
L 244.946329 267.773501 
L 248.581096 267.773501 
L 248.581096 276.651644 
L 244.524995 276.651644 
L 244.524995 285.529787 
L 234.653197 285.529787 
L 234.653197 294.40793 
L 239.368841 294.40793 
L 239.368841 303.286074 
L 243.351911 303.286074 
L 243.351911 312.164217 
L 233.982236 312.164217 
L 233.982236 321.04236 
L 235.40144 321.04236 
L 235.40144 329.920503 
L 235.403824 329.920503 
L 235.403824 338.798646 
L 231.256275 338.798646 
L 231.256275 347.676789 
L 229.876562 347.676789 
L 229.876562 356.554932 
L 225.242361 356.554932 
L 225.242361 365.433075 
L 227.30222 365.433075 
L 227.30222 374.311219 
L 222.133676 374.311219 
L 222.133676 383.189362 
L 225.14074 383.189362 
L 225.14074 392.067505 
L 225.788136 392.067505 
L 225.788136 400.945648 
L 229.212327 400.945648 
L 229.212327 409.823791 
L 232.271955 409.823791 
L 232.271955 418.701934 
L 226.85837 418.701934 
L 226.85837 427.580077 
L 223.167956 427.580077 
L 223.167956 436.458221 
L 218.806043 436.458221 
L 218.806043 445.336364 
L 189.485719 445.336364 
" clip-path="url(#p10bc65d380)" style="fill: none; stroke: #6b3914; stroke-width: 3; stroke-linecap: square"/>
   </g>
   <g id="line2d_31">
    <path d="M 216.753714 28.063636 
L 216.753714 36.941779 
L 219.331328 36.941779 
L 219.331328 45.819923 
L 222.68797 45.819923 
L 222.68797 54.698066 
L 229.538189 54.698066 
L 229.538189 63.576209 
L 232.900995 63.576209 
L 232.900995 72.454352 
L 240.951523 72.454352 
L 240.951523 81.332495 
L 244.048637 81.332495 
L 244.048637 90.210638 
L 239.876962 90.210638 
L 239.876962 99.088781 
L 245.55311 99.088781 
L 245.55311 107.966925 
L 237.773512 107.966925 
L 237.773512 116.845068 
L 243.418899 116.845068 
L 243.418899 125.723211 
L 226.329341 125.723211 
L 226.329341 134.601354 
L 261.745842 134.601354 
L 261.745842 143.479497 
L 252.638169 143.479497 
L 252.638169 152.35764 
L 257.405117 152.35764 
L 257.405117 161.235783 
L 271.086638 161.235783 
L 271.086638 170.113926 
L 269.995953 170.113926 
L 269.995953 178.99207 
L 275.162234 178.99207 
L 275.162234 187.870213 
L 283.154443 187.870213 
L 283.154443 196.748356 
L 255.938192 196.748356 
L 255.938192 205.626499 
L 267.033118 205.626499 
L 267.033118 214.504642 
L 276.306227 214.504642 
L 276.306227 223.382785 
L 273.245886 223.382785 
L 273.245886 232.260928 
L 283.832752 232.260928 
L 283.832752 241.139072 
L 279.477148 241.139072 
L 279.477148 250.017215 
L 300.473889 250.017215 
L 300.473889 258.895358 
L 273.639344 258.895358 
L 273.639344 267.773501 
L 256.316314 267.773501 
L 256.316314 276.651644 
L 251.825351 276.651644 
L 251.825351 285.529787 
L 275.133781 285.529787 
L 275.133781 294.40793 
L 257.924291 294.40793 
L 257.924291 303.286074 
L 251.325718 303.286074 
L 251.325718 312.164217 
L 245.961083 312.164217 
L 245.961083 321.04236 
L 217.530502 321.04236 
L 217.530502 329.920503 
L 218.400583 329.920503 
L 218.400583 338.798646 
L 226.701254 338.798646 
L 226.701254 347.676789 
L 213.761516 347.676789 
L 213.761516 356.554932 
L 207.766968 356.554932 
L 207.766968 365.433075 
L 221.813372 365.433075 
L 221.813372 374.311219 
L 207.354835 374.311219 
L 207.354835 383.189362 
L 205.373982 383.189362 
L 205.373982 392.067505 
L 203.720318 392.067505 
L 203.720318 400.945648 
L 203.137025 400.945648 
L 203.137025 409.823791 
L 199.652314 409.823791 
L 199.652314 418.701934 
L 206.369954 418.701934 
L 206.369954 427.580077 
L 204.549602 427.580077 
L 204.549602 436.458221 
L 202.591835 436.458221 
L 202.591835 445.336364 
L 189.917658 445.336364 
" clip-path="url(#p10bc65d380)" style="fill: none; stroke: #e40000; stroke-opacity: 0.8; stroke-width: 3; stroke-linecap: square"/>
   </g>
   <g id="patch_3">
    <path d="M 74.00625 466.2 
L 74.00625 7.2 
" style="fill: none; stroke: #000000; stroke-width: 2; stroke-linejoin: miter; stroke-linecap: square"/>
   </g>
   <g id="patch_4">
    <path d="M 84.00625 476.2 
L 354.00625 476.2 
" style="fill: none; stroke: #000000; stroke-width: 2; stroke-linejoin: miter; stroke-linecap: square"/>
   </g>
  </g>
 </g>
 <defs>
  <clipPath id="p10bc65d380">
   <rect x="84.00625" y="7.2" width="270" height="459"/>
  </clipPath>
 </defs>
</svg>
