<?xml version="1.0" encoding="utf-8" standalone="no"?>
<!DOCTYPE svg PUBLIC "-//W3C//DTD SVG 1.1//EN"
  "http://www.w3.org/Graphics/SVG/1.1/DTD/svg11.dtd">
<svg xmlns:xlink="http://www.w3.org/1999/xlink" width="301.169896pt" height="544.35625pt" viewBox="0 0 301.169896 544.35625" xmlns="http://www.w3.org/2000/svg" version="1.1">
 <metadata>
  <rdf:RDF xmlns:dc="http://purl.org/dc/elements/1.1/" xmlns:cc="http://creativecommons.org/ns#" xmlns:rdf="http://www.w3.org/1999/02/22-rdf-syntax-ns#">
   <cc:Work>
    <dc:type rdf:resource="http://purl.org/dc/dcmitype/StillImage"/>
    <dc:date>2024-07-31T17:25:48.254088</dc:date>
    <dc:format>image/svg+xml</dc:format>
    <dc:creator>
     <cc:Agent>
      <dc:title>Matplotlib v3.8.0, https://matplotlib.org/</dc:title>
     </cc:Agent>
    </dc:creator>
   </cc:Work>
  </rdf:RDF>
 </metadata>
 <defs>
  <style type="text/css">*{stroke-linejoin: round; stroke-linecap: butt}</style>
 </defs>
 <g id="figure_1">
  <g id="patch_1">
   <path d="M 0 544.35625 
L 301.169896 544.35625 
L 301.169896 0 
L 0 0 
z
" style="fill: #ffffff"/>
  </g>
  <g id="axes_1">
   <g id="patch_2">
    <path d="M 7.2 466.2 
L 277.2 466.2 
L 277.2 7.2 
L 7.2 7.2 
z
" style="fill: #ffffff"/>
   </g>
   <g id="PolyCollection_1">
    <defs>
     <path id="m3b379278a7" d="M 250.914347 -516.292614 
L 262.071638 -516.292614 
L 235.580974 -497.325671 
L 208.886476 -478.358729 
L 183.058624 -459.391787 
L 159.47517 -440.424845 
L 139.50657 -421.457903 
L 124.587238 -402.490961 
L 116.101917 -383.524019 
L 114.256581 -364.557076 
L 119.097796 -345.590134 
L 129.342188 -326.623192 
L 142.801897 -307.65625 
L 156.74615 -288.689308 
L 168.053209 -269.722366 
L 173.918129 -250.755424 
L 172.231854 -231.788481 
L 162.060002 -212.821539 
L 144.140713 -193.854597 
L 120.78359 -174.887655 
L 94.882163 -155.920713 
L 70.026477 -136.953771 
L 48.714292 -117.986829 
L 32.145218 -99.019886 
L 20.316017 -99.019886 
L 20.316017 -99.019886 
L 37.673209 -117.986829 
L 59.56923 -136.953771 
L 84.807928 -155.920713 
L 110.782172 -174.887655 
L 134.594134 -193.854597 
L 152.54509 -212.821539 
L 162.970096 -231.788481 
L 164.709064 -250.755424 
L 158.657989 -269.722366 
L 147.228972 -288.689308 
L 133.308929 -307.65625 
L 119.887156 -326.623192 
L 109.702765 -345.590134 
L 104.895379 -364.557076 
L 106.481521 -383.524019 
L 115.061575 -402.490961 
L 129.90043 -421.457903 
L 150.013012 -440.424845 
L 173.565642 -459.391787 
L 199.313534 -478.358729 
L 225.384126 -497.325671 
L 250.914347 -516.292614 
z
" style="stroke: #756bb1; stroke-opacity: 0.5"/>
    </defs>
    <g clip-path="url(#p92fb6ac66f)">
     <use xlink:href="#m3b379278a7" x="0" y="544.35625" style="fill: #756bb1; fill-opacity: 0.5; stroke: #756bb1; stroke-opacity: 0.5"/>
    </g>
   </g>
   <g id="matplotlib.axis_1">
    <g id="xtick_1">
     <g id="line2d_1">
      <defs>
       <path id="mcc1e5ddf2c" d="M 0 0 
L 0 3.5 
" style="stroke: #000000; stroke-width: 1.5"/>
      </defs>
      <g>
       <use xlink:href="#mcc1e5ddf2c" x="90.489231" y="476.2" style="stroke: #000000; stroke-width: 1.5"/>
      </g>
     </g>
     <g id="text_1">
      <!-- 400 -->
      <g transform="translate(71.401731 498.396875) scale(0.2 -0.2)">
       <defs>
        <path id="DejaVuSans-34" d="M 2419 4116 
L 825 1625 
L 2419 1625 
L 2419 4116 
z
M 2253 4666 
L 3047 4666 
L 3047 1625 
L 3713 1625 
L 3713 1100 
L 3047 1100 
L 3047 0 
L 2419 0 
L 2419 1100 
L 313 1100 
L 313 1709 
L 2253 4666 
z
" transform="scale(0.015625)"/>
        <path id="DejaVuSans-30" d="M 2034 4250 
Q 1547 4250 1301 3770 
Q 1056 3291 1056 2328 
Q 1056 1369 1301 889 
Q 1547 409 2034 409 
Q 2525 409 2770 889 
Q 3016 1369 3016 2328 
Q 3016 3291 2770 3770 
Q 2525 4250 2034 4250 
z
M 2034 4750 
Q 2819 4750 3233 4129 
Q 3647 3509 3647 2328 
Q 3647 1150 3233 529 
Q 2819 -91 2034 -91 
Q 1250 -91 836 529 
Q 422 1150 422 2328 
Q 422 3509 836 4129 
Q 1250 4750 2034 4750 
z
" transform="scale(0.015625)"/>
       </defs>
       <use xlink:href="#DejaVuSans-34"/>
       <use xlink:href="#DejaVuSans-30" x="63.623047"/>
       <use xlink:href="#DejaVuSans-30" x="127.246094"/>
      </g>
     </g>
    </g>
    <g id="xtick_2">
     <g id="line2d_2">
      <g>
       <use xlink:href="#mcc1e5ddf2c" x="182.685813" y="476.2" style="stroke: #000000; stroke-width: 1.5"/>
      </g>
     </g>
     <g id="text_2">
      <!-- 500 -->
      <g transform="translate(163.598313 498.396875) scale(0.2 -0.2)">
       <defs>
        <path id="DejaVuSans-35" d="M 691 4666 
L 3169 4666 
L 3169 4134 
L 1269 4134 
L 1269 2991 
Q 1406 3038 1543 3061 
Q 1681 3084 1819 3084 
Q 2600 3084 3056 2656 
Q 3513 2228 3513 1497 
Q 3513 744 3044 326 
Q 2575 -91 1722 -91 
Q 1428 -91 1123 -41 
Q 819 9 494 109 
L 494 744 
Q 775 591 1075 516 
Q 1375 441 1709 441 
Q 2250 441 2565 725 
Q 2881 1009 2881 1497 
Q 2881 1984 2565 2268 
Q 2250 2553 1709 2553 
Q 1456 2553 1204 2497 
Q 953 2441 691 2322 
L 691 4666 
z
" transform="scale(0.015625)"/>
       </defs>
       <use xlink:href="#DejaVuSans-35"/>
       <use xlink:href="#DejaVuSans-30" x="63.623047"/>
       <use xlink:href="#DejaVuSans-30" x="127.246094"/>
      </g>
     </g>
    </g>
    <g id="xtick_3">
     <g id="line2d_3">
      <g>
       <use xlink:href="#mcc1e5ddf2c" x="274.882396" y="476.2" style="stroke: #000000; stroke-width: 1.5"/>
      </g>
     </g>
     <g id="text_3">
      <!-- 600 -->
      <g transform="translate(255.794896 498.396875) scale(0.2 -0.2)">
       <defs>
        <path id="DejaVuSans-36" d="M 2113 2584 
Q 1688 2584 1439 2293 
Q 1191 2003 1191 1497 
Q 1191 994 1439 701 
Q 1688 409 2113 409 
Q 2538 409 2786 701 
Q 3034 994 3034 1497 
Q 3034 2003 2786 2293 
Q 2538 2584 2113 2584 
z
M 3366 4563 
L 3366 3988 
Q 3128 4100 2886 4159 
Q 2644 4219 2406 4219 
Q 1781 4219 1451 3797 
Q 1122 3375 1075 2522 
Q 1259 2794 1537 2939 
Q 1816 3084 2150 3084 
Q 2853 3084 3261 2657 
Q 3669 2231 3669 1497 
Q 3669 778 3244 343 
Q 2819 -91 2113 -91 
Q 1303 -91 875 529 
Q 447 1150 447 2328 
Q 447 3434 972 4092 
Q 1497 4750 2381 4750 
Q 2619 4750 2861 4703 
Q 3103 4656 3366 4563 
z
" transform="scale(0.015625)"/>
       </defs>
       <use xlink:href="#DejaVuSans-36"/>
       <use xlink:href="#DejaVuSans-30" x="63.623047"/>
       <use xlink:href="#DejaVuSans-30" x="127.246094"/>
      </g>
     </g>
    </g>
    <g id="text_4">
     <!-- Apparent Resistivity [$\Omega m$] -->
     <g transform="translate(-4.6 532.75625) scale(0.2 -0.2)">
      <defs>
       <path id="DejaVuSans-Bold-41" d="M 3419 850 
L 1538 850 
L 1241 0 
L 31 0 
L 1759 4666 
L 3194 4666 
L 4922 0 
L 3713 0 
L 3419 850 
z
M 1838 1716 
L 3116 1716 
L 2478 3572 
L 1838 1716 
z
" transform="scale(0.015625)"/>
       <path id="DejaVuSans-Bold-70" d="M 1656 506 
L 1656 -1331 
L 538 -1331 
L 538 3500 
L 1656 3500 
L 1656 2988 
Q 1888 3294 2169 3439 
Q 2450 3584 2816 3584 
Q 3463 3584 3878 3070 
Q 4294 2556 4294 1747 
Q 4294 938 3878 423 
Q 3463 -91 2816 -91 
Q 2450 -91 2169 54 
Q 1888 200 1656 506 
z
M 2400 2772 
Q 2041 2772 1848 2508 
Q 1656 2244 1656 1747 
Q 1656 1250 1848 986 
Q 2041 722 2400 722 
Q 2759 722 2948 984 
Q 3138 1247 3138 1747 
Q 3138 2247 2948 2509 
Q 2759 2772 2400 2772 
z
" transform="scale(0.015625)"/>
       <path id="DejaVuSans-Bold-61" d="M 2106 1575 
Q 1756 1575 1579 1456 
Q 1403 1338 1403 1106 
Q 1403 894 1545 773 
Q 1688 653 1941 653 
Q 2256 653 2472 879 
Q 2688 1106 2688 1447 
L 2688 1575 
L 2106 1575 
z
M 3816 1997 
L 3816 0 
L 2688 0 
L 2688 519 
Q 2463 200 2181 54 
Q 1900 -91 1497 -91 
Q 953 -91 614 226 
Q 275 544 275 1050 
Q 275 1666 698 1953 
Q 1122 2241 2028 2241 
L 2688 2241 
L 2688 2328 
Q 2688 2594 2478 2717 
Q 2269 2841 1825 2841 
Q 1466 2841 1156 2769 
Q 847 2697 581 2553 
L 581 3406 
Q 941 3494 1303 3539 
Q 1666 3584 2028 3584 
Q 2975 3584 3395 3211 
Q 3816 2838 3816 1997 
z
" transform="scale(0.015625)"/>
       <path id="DejaVuSans-Bold-72" d="M 3138 2547 
Q 2991 2616 2845 2648 
Q 2700 2681 2553 2681 
Q 2122 2681 1889 2404 
Q 1656 2128 1656 1613 
L 1656 0 
L 538 0 
L 538 3500 
L 1656 3500 
L 1656 2925 
Q 1872 3269 2151 3426 
Q 2431 3584 2822 3584 
Q 2878 3584 2943 3579 
Q 3009 3575 3134 3559 
L 3138 2547 
z
" transform="scale(0.015625)"/>
       <path id="DejaVuSans-Bold-65" d="M 4031 1759 
L 4031 1441 
L 1416 1441 
Q 1456 1047 1700 850 
Q 1944 653 2381 653 
Q 2734 653 3104 758 
Q 3475 863 3866 1075 
L 3866 213 
Q 3469 63 3072 -14 
Q 2675 -91 2278 -91 
Q 1328 -91 801 392 
Q 275 875 275 1747 
Q 275 2603 792 3093 
Q 1309 3584 2216 3584 
Q 3041 3584 3536 3087 
Q 4031 2591 4031 1759 
z
M 2881 2131 
Q 2881 2450 2695 2645 
Q 2509 2841 2209 2841 
Q 1884 2841 1681 2658 
Q 1478 2475 1428 2131 
L 2881 2131 
z
" transform="scale(0.015625)"/>
       <path id="DejaVuSans-Bold-6e" d="M 4056 2131 
L 4056 0 
L 2931 0 
L 2931 347 
L 2931 1631 
Q 2931 2084 2911 2256 
Q 2891 2428 2841 2509 
Q 2775 2619 2662 2680 
Q 2550 2741 2406 2741 
Q 2056 2741 1856 2470 
Q 1656 2200 1656 1722 
L 1656 0 
L 538 0 
L 538 3500 
L 1656 3500 
L 1656 2988 
Q 1909 3294 2193 3439 
Q 2478 3584 2822 3584 
Q 3428 3584 3742 3212 
Q 4056 2841 4056 2131 
z
" transform="scale(0.015625)"/>
       <path id="DejaVuSans-Bold-74" d="M 1759 4494 
L 1759 3500 
L 2913 3500 
L 2913 2700 
L 1759 2700 
L 1759 1216 
Q 1759 972 1856 886 
Q 1953 800 2241 800 
L 2816 800 
L 2816 0 
L 1856 0 
Q 1194 0 917 276 
Q 641 553 641 1216 
L 641 2700 
L 84 2700 
L 84 3500 
L 641 3500 
L 641 4494 
L 1759 4494 
z
" transform="scale(0.015625)"/>
       <path id="DejaVuSans-Bold-20" transform="scale(0.015625)"/>
       <path id="DejaVuSans-Bold-52" d="M 2297 2597 
Q 2675 2597 2839 2737 
Q 3003 2878 3003 3200 
Q 3003 3519 2839 3656 
Q 2675 3794 2297 3794 
L 1791 3794 
L 1791 2597 
L 2297 2597 
z
M 1791 1766 
L 1791 0 
L 588 0 
L 588 4666 
L 2425 4666 
Q 3347 4666 3776 4356 
Q 4206 4047 4206 3378 
Q 4206 2916 3982 2619 
Q 3759 2322 3309 2181 
Q 3556 2125 3751 1926 
Q 3947 1728 4147 1325 
L 4800 0 
L 3519 0 
L 2950 1159 
Q 2778 1509 2601 1637 
Q 2425 1766 2131 1766 
L 1791 1766 
z
" transform="scale(0.015625)"/>
       <path id="DejaVuSans-Bold-73" d="M 3272 3391 
L 3272 2541 
Q 2913 2691 2578 2766 
Q 2244 2841 1947 2841 
Q 1628 2841 1473 2761 
Q 1319 2681 1319 2516 
Q 1319 2381 1436 2309 
Q 1553 2238 1856 2203 
L 2053 2175 
Q 2913 2066 3209 1816 
Q 3506 1566 3506 1031 
Q 3506 472 3093 190 
Q 2681 -91 1863 -91 
Q 1516 -91 1145 -36 
Q 775 19 384 128 
L 384 978 
Q 719 816 1070 734 
Q 1422 653 1784 653 
Q 2113 653 2278 743 
Q 2444 834 2444 1013 
Q 2444 1163 2330 1236 
Q 2216 1309 1875 1350 
L 1678 1375 
Q 931 1469 631 1722 
Q 331 1975 331 2491 
Q 331 3047 712 3315 
Q 1094 3584 1881 3584 
Q 2191 3584 2531 3537 
Q 2872 3491 3272 3391 
z
" transform="scale(0.015625)"/>
       <path id="DejaVuSans-Bold-69" d="M 538 3500 
L 1656 3500 
L 1656 0 
L 538 0 
L 538 3500 
z
M 538 4863 
L 1656 4863 
L 1656 3950 
L 538 3950 
L 538 4863 
z
" transform="scale(0.015625)"/>
       <path id="DejaVuSans-Bold-76" d="M 97 3500 
L 1216 3500 
L 2088 1081 
L 2956 3500 
L 4078 3500 
L 2700 0 
L 1472 0 
L 97 3500 
z
" transform="scale(0.015625)"/>
       <path id="DejaVuSans-Bold-79" d="M 78 3500 
L 1197 3500 
L 2138 1125 
L 2938 3500 
L 4056 3500 
L 2584 -331 
Q 2363 -916 2067 -1148 
Q 1772 -1381 1288 -1381 
L 641 -1381 
L 641 -647 
L 991 -647 
Q 1275 -647 1404 -556 
Q 1534 -466 1606 -231 
L 1638 -134 
L 78 3500 
z
" transform="scale(0.015625)"/>
       <path id="DejaVuSans-Bold-5b" d="M 550 4863 
L 2491 4863 
L 2491 4159 
L 1613 4159 
L 1613 -141 
L 2491 -141 
L 2491 -844 
L 550 -844 
L 550 4863 
z
" transform="scale(0.015625)"/>
       <path id="DejaVuSans-Bold-3a9" d="M 2719 4750 
Q 3841 4750 4480 4106 
Q 5119 3463 5119 2494 
Q 5119 1406 4306 909 
L 5266 909 
L 5266 0 
L 3125 0 
L 3125 975 
Q 3244 1041 3334 1131 
Q 3875 1678 3875 2466 
Q 3875 3066 3572 3472 
Q 3269 3878 2719 3878 
Q 2169 3878 1866 3472 
Q 1563 3066 1563 2466 
Q 1563 1678 2103 1131 
Q 2194 1041 2313 975 
L 2313 0 
L 172 0 
L 172 909 
L 1131 909 
Q 319 1406 319 2494 
Q 319 3463 958 4106 
Q 1597 4750 2719 4750 
z
" transform="scale(0.015625)"/>
       <path id="DejaVuSans-Bold-6d" d="M 3781 2919 
Q 3994 3244 4286 3414 
Q 4578 3584 4928 3584 
Q 5531 3584 5847 3212 
Q 6163 2841 6163 2131 
L 6163 0 
L 5038 0 
L 5038 1825 
Q 5041 1866 5042 1909 
Q 5044 1953 5044 2034 
Q 5044 2406 4934 2573 
Q 4825 2741 4581 2741 
Q 4263 2741 4089 2478 
Q 3916 2216 3909 1719 
L 3909 0 
L 2784 0 
L 2784 1825 
Q 2784 2406 2684 2573 
Q 2584 2741 2328 2741 
Q 2006 2741 1831 2477 
Q 1656 2213 1656 1722 
L 1656 0 
L 531 0 
L 531 3500 
L 1656 3500 
L 1656 2988 
Q 1863 3284 2130 3434 
Q 2397 3584 2719 3584 
Q 3081 3584 3359 3409 
Q 3638 3234 3781 2919 
z
" transform="scale(0.015625)"/>
       <path id="DejaVuSans-Bold-5d" d="M 2375 -844 
L 434 -844 
L 434 -141 
L 1313 -141 
L 1313 4159 
L 434 4159 
L 434 4863 
L 2375 4863 
L 2375 -844 
z
" transform="scale(0.015625)"/>
      </defs>
      <use xlink:href="#DejaVuSans-Bold-41" transform="translate(0 0.015625)"/>
      <use xlink:href="#DejaVuSans-Bold-70" transform="translate(77.392578 0.015625)"/>
      <use xlink:href="#DejaVuSans-Bold-70" transform="translate(148.974609 0.015625)"/>
      <use xlink:href="#DejaVuSans-Bold-61" transform="translate(220.556641 0.015625)"/>
      <use xlink:href="#DejaVuSans-Bold-72" transform="translate(288.037109 0.015625)"/>
      <use xlink:href="#DejaVuSans-Bold-65" transform="translate(337.353516 0.015625)"/>
      <use xlink:href="#DejaVuSans-Bold-6e" transform="translate(405.175781 0.015625)"/>
      <use xlink:href="#DejaVuSans-Bold-74" transform="translate(476.367188 0.015625)"/>
      <use xlink:href="#DejaVuSans-Bold-20" transform="translate(524.169922 0.015625)"/>
      <use xlink:href="#DejaVuSans-Bold-52" transform="translate(558.984375 0.015625)"/>
      <use xlink:href="#DejaVuSans-Bold-65" transform="translate(635.986328 0.015625)"/>
      <use xlink:href="#DejaVuSans-Bold-73" transform="translate(703.808594 0.015625)"/>
      <use xlink:href="#DejaVuSans-Bold-69" transform="translate(763.330078 0.015625)"/>
      <use xlink:href="#DejaVuSans-Bold-73" transform="translate(797.607422 0.015625)"/>
      <use xlink:href="#DejaVuSans-Bold-74" transform="translate(857.128906 0.015625)"/>
      <use xlink:href="#DejaVuSans-Bold-69" transform="translate(904.931641 0.015625)"/>
      <use xlink:href="#DejaVuSans-Bold-76" transform="translate(939.208984 0.015625)"/>
      <use xlink:href="#DejaVuSans-Bold-69" transform="translate(1004.394531 0.015625)"/>
      <use xlink:href="#DejaVuSans-Bold-74" transform="translate(1038.671875 0.015625)"/>
      <use xlink:href="#DejaVuSans-Bold-79" transform="translate(1086.474609 0.015625)"/>
      <use xlink:href="#DejaVuSans-Bold-20" transform="translate(1151.660156 0.015625)"/>
      <use xlink:href="#DejaVuSans-Bold-5b" transform="translate(1186.474609 0.015625)"/>
      <use xlink:href="#DejaVuSans-Bold-3a9" transform="translate(1232.177734 0.015625)"/>
      <use xlink:href="#DejaVuSans-Bold-6d" transform="translate(1317.1875 0.015625)"/>
      <use xlink:href="#DejaVuSans-Bold-5d" transform="translate(1421.386719 0.015625)"/>
     </g>
    </g>
   </g>
   <g id="line2d_4">
    <path d="M 261.162337 28.063636 
L 235.038491 47.030579 
L 204.344267 65.997521 
L 175.683254 84.964463 
L 156.237823 103.931405 
L 132.167597 122.898347 
L 115.448076 141.865289 
L 106.446801 160.832231 
L 110.701754 179.799174 
L 116.233691 198.766116 
L 117.98664 217.733058 
L 131.631215 236.7 
L 149.255039 255.666942 
L 157.421241 274.633884 
L 168.700963 293.600826 
L 166.962381 312.567769 
L 158.611663 331.534711 
L 141.501582 350.501653 
L 118.692598 369.468595 
L 85.242756 388.435537 
L 61.223311 407.402479 
L 41.899339 426.369421 
L 23.165961 445.336364 
" clip-path="url(#p92fb6ac66f)" style="fill: none; stroke: #756bb1; stroke-opacity: 0.2; stroke-width: 2; stroke-linecap: square"/>
   </g>
   <g id="line2d_5">
    <path d="M 255.530451 28.063636 
L 228.722584 47.030579 
L 207.152404 65.997521 
L 175.857058 84.964463 
L 154.517458 103.931405 
L 141.009331 122.898347 
L 118.498974 141.865289 
L 110.674567 160.832231 
L 115.103049 179.799174 
L 116.143083 198.766116 
L 122.927492 217.733058 
L 140.806164 236.7 
L 154.335751 255.666942 
L 161.988734 274.633884 
L 168.519265 293.600826 
L 170.167468 312.567769 
L 153.815673 331.534711 
L 141.065674 350.501653 
L 118.349599 369.468595 
L 89.61131 388.435537 
L 69.604426 407.402479 
L 46.759722 426.369421 
L 28.291901 445.336364 
" clip-path="url(#p92fb6ac66f)" style="fill: none; stroke: #756bb1; stroke-opacity: 0.2; stroke-width: 2; stroke-linecap: square"/>
   </g>
   <g id="line2d_6">
    <path d="M 258.132528 28.063636 
L 229.000143 47.030579 
L 202.213804 65.997521 
L 183.225263 84.964463 
L 160.355015 103.931405 
L 136.465039 122.898347 
L 120.180208 141.865289 
L 109.097048 160.832231 
L 108.418262 179.799174 
L 109.297749 198.766116 
L 123.156146 217.733058 
L 132.289051 236.7 
L 150.731657 255.666942 
L 162.832355 274.633884 
L 168.74898 293.600826 
L 165.283703 312.567769 
L 160.966481 331.534711 
L 142.970327 350.501653 
L 119.061421 369.468595 
L 92.772127 388.435537 
L 60.758144 407.402479 
L 45.39486 426.369421 
L 22.633538 445.336364 
" clip-path="url(#p92fb6ac66f)" style="fill: none; stroke: #756bb1; stroke-opacity: 0.2; stroke-width: 2; stroke-linecap: square"/>
   </g>
   <g id="line2d_7">
    <path d="M 254.277297 28.063636 
L 231.974601 47.030579 
L 205.526169 65.997521 
L 182.088596 84.964463 
L 155.117799 103.931405 
L 139.412898 122.898347 
L 125.005572 141.865289 
L 112.149103 160.832231 
L 111.297441 179.799174 
L 115.488194 198.766116 
L 122.503819 217.733058 
L 140.056997 236.7 
L 149.615372 255.666942 
L 163.877207 274.633884 
L 173.4661 293.600826 
L 167.691918 312.567769 
L 153.509719 331.534711 
L 141.580545 350.501653 
L 113.3055 369.468595 
L 88.989331 388.435537 
L 60.715096 407.402479 
L 43.166232 426.369421 
L 28.065541 445.336364 
" clip-path="url(#p92fb6ac66f)" style="fill: none; stroke: #756bb1; stroke-opacity: 0.2; stroke-width: 2; stroke-linecap: square"/>
   </g>
   <g id="line2d_8">
    <path d="M 259.619683 28.063636 
L 233.367462 47.030579 
L 200.681089 65.997521 
L 183.207592 84.964463 
L 153.35873 103.931405 
L 131.439531 122.898347 
L 117.425639 141.865289 
L 106.044232 160.832231 
L 112.214119 179.799174 
L 110.074219 198.766116 
L 125.497134 217.733058 
L 135.137339 236.7 
L 151.045086 255.666942 
L 162.050912 274.633884 
L 171.985655 293.600826 
L 166.937907 312.567769 
L 161.503327 331.534711 
L 141.405767 350.501653 
L 121.705997 369.468595 
L 91.243693 388.435537 
L 69.016426 407.402479 
L 42.564769 426.369421 
L 23.237623 445.336364 
" clip-path="url(#p92fb6ac66f)" style="fill: none; stroke: #756bb1; stroke-opacity: 0.2; stroke-width: 2; stroke-linecap: square"/>
   </g>
   <g id="line2d_9">
    <path d="M 255.920153 28.063636 
L 233.545952 47.030579 
L 208.722686 65.997521 
L 177.345346 84.964463 
L 156.435389 103.931405 
L 138.045595 122.898347 
L 118.326719 141.865289 
L 108.356278 160.832231 
L 109.18334 179.799174 
L 113.677172 198.766116 
L 121.45957 217.733058 
L 140.983865 236.7 
L 153.819048 255.666942 
L 164.653031 274.633884 
L 171.762652 293.600826 
L 170.329212 312.567769 
L 158.695281 331.534711 
L 144.976096 350.501653 
L 113.988752 369.468595 
L 88.159029 388.435537 
L 66.501643 407.402479 
L 46.405702 426.369421 
L 28.216988 445.336364 
" clip-path="url(#p92fb6ac66f)" style="fill: none; stroke: #756bb1; stroke-opacity: 0.2; stroke-width: 2; stroke-linecap: square"/>
   </g>
   <g id="line2d_10">
    <path d="M 255.121549 28.063636 
L 229.710792 47.030579 
L 208.431687 65.997521 
L 182.281748 84.964463 
L 158.972233 103.931405 
L 132.978999 122.898347 
L 117.468831 141.865289 
L 105.93891 160.832231 
L 110.058223 179.799174 
L 116.209475 198.766116 
L 125.443207 217.733058 
L 132.737493 236.7 
L 149.827585 255.666942 
L 161.782598 274.633884 
L 172.01401 293.600826 
L 168.015253 312.567769 
L 156.343389 331.534711 
L 137.199768 350.501653 
L 118.022194 369.468595 
L 90.094878 388.435537 
L 64.595766 407.402479 
L 36.542975 426.369421 
L 25.487668 445.336364 
" clip-path="url(#p92fb6ac66f)" style="fill: none; stroke: #756bb1; stroke-opacity: 0.2; stroke-width: 2; stroke-linecap: square"/>
   </g>
   <g id="line2d_11">
    <path d="M 255.838578 28.063636 
L 230.704193 47.030579 
L 208.989255 65.997521 
L 180.722068 84.964463 
L 159.909923 103.931405 
L 133.504229 122.898347 
L 121.087375 141.865289 
L 111.417423 160.832231 
L 110.589392 179.799174 
L 113.237169 198.766116 
L 124.533439 217.733058 
L 136.625542 236.7 
L 153.208619 255.666942 
L 166.722212 274.633884 
L 173.904077 293.600826 
L 165.429621 312.567769 
L 158.486329 331.534711 
L 141.35873 350.501653 
L 114.468154 369.468595 
L 89.921427 388.435537 
L 66.676686 407.402479 
L 42.641315 426.369421 
L 26.036959 445.336364 
" clip-path="url(#p92fb6ac66f)" style="fill: none; stroke: #756bb1; stroke-opacity: 0.2; stroke-width: 2; stroke-linecap: square"/>
   </g>
   <g id="line2d_12">
    <path d="M 258.522845 28.063636 
L 233.652763 47.030579 
L 204.644602 65.997521 
L 182.253143 84.964463 
L 159.468582 103.931405 
L 135.809898 122.898347 
L 117.094425 141.865289 
L 106.341741 160.832231 
L 110.100921 179.799174 
L 117.292355 198.766116 
L 124.847658 217.733058 
L 141.596103 236.7 
L 149.542352 255.666942 
L 165.206574 274.633884 
L 172.382124 293.600826 
L 171.494576 312.567769 
L 157.512536 331.534711 
L 144.700473 350.501653 
L 117.074736 369.468595 
L 95.278613 388.435537 
L 68.191529 407.402479 
L 45.527759 426.369421 
L 29.612163 445.336364 
" clip-path="url(#p92fb6ac66f)" style="fill: none; stroke: #756bb1; stroke-opacity: 0.2; stroke-width: 2; stroke-linecap: square"/>
   </g>
   <g id="line2d_13">
    <path d="M 259.677378 28.063636 
L 230.037637 47.030579 
L 199.657011 65.997521 
L 174.113872 84.964463 
L 154.643153 103.931405 
L 137.833149 122.898347 
L 123.510319 141.865289 
L 107.997214 160.832231 
L 110.421677 179.799174 
L 111.419246 198.766116 
L 129.751248 217.733058 
L 142.076265 236.7 
L 157.418222 255.666942 
L 161.548217 274.633884 
L 173.153498 293.600826 
L 172.47565 312.567769 
L 159.521653 331.534711 
L 141.04788 350.501653 
L 115.405954 369.468595 
L 88.667314 388.435537 
L 60.342003 407.402479 
L 45.414723 426.369421 
L 27.507103 445.336364 
" clip-path="url(#p92fb6ac66f)" style="fill: none; stroke: #756bb1; stroke-opacity: 0.2; stroke-width: 2; stroke-linecap: square"/>
   </g>
   <g id="line2d_14">
    <path d="M 261.39317 28.063636 
L 230.891578 47.030579 
L 198.787445 65.997521 
L 175.582243 84.964463 
L 147.198584 103.931405 
L 127.290268 122.898347 
L 111.363824 141.865289 
L 103.197549 160.832231 
L 108.850498 179.799174 
L 107.090089 198.766116 
L 123.913342 217.733058 
L 132.124936 236.7 
L 151.5124 255.666942 
L 165.174945 274.633884 
L 165.977687 293.600826 
L 167.362324 312.567769 
L 158.590832 331.534711 
L 140.189396 350.501653 
L 113.691941 369.468595 
L 89.684705 388.435537 
L 64.220371 407.402479 
L 39.872376 426.369421 
L 24.201552 445.336364 
" clip-path="url(#p92fb6ac66f)" style="fill: none; stroke: #756bb1; stroke-opacity: 0.2; stroke-width: 2; stroke-linecap: square"/>
   </g>
   <g id="line2d_15">
    <path d="M 257.782311 28.063636 
L 232.716919 47.030579 
L 202.894437 65.997521 
L 178.75207 84.964463 
L 152.630609 103.931405 
L 136.102591 122.898347 
L 123.390571 141.865289 
L 110.884498 160.832231 
L 107.592209 179.799174 
L 110.213429 198.766116 
L 123.998915 217.733058 
L 138.258185 236.7 
L 152.33726 255.666942 
L 160.575362 274.633884 
L 170.626314 293.600826 
L 165.15194 312.567769 
L 157.260169 331.534711 
L 137.854573 350.501653 
L 117.380261 369.468595 
L 87.191935 388.435537 
L 66.523253 407.402479 
L 39.78028 426.369421 
L 21.535915 445.336364 
" clip-path="url(#p92fb6ac66f)" style="fill: none; stroke: #756bb1; stroke-opacity: 0.2; stroke-width: 2; stroke-linecap: square"/>
   </g>
   <g id="line2d_16">
    <path d="M 251.649674 28.063636 
L 226.192942 47.030579 
L 201.897382 65.997521 
L 173.498506 84.964463 
L 154.687759 103.931405 
L 130.995098 122.898347 
L 122.533782 141.865289 
L 111.280296 160.832231 
L 113.470949 179.799174 
L 112.222554 198.766116 
L 126.270976 217.733058 
L 136.41633 236.7 
L 147.938484 255.666942 
L 165.28083 274.633884 
L 169.369732 293.600826 
L 166.102753 312.567769 
L 156.740015 331.534711 
L 137.716118 350.501653 
L 115.657027 369.468595 
L 85.965189 388.435537 
L 60.737289 407.402479 
L 42.954121 426.369421 
L 23.603398 445.336364 
" clip-path="url(#p92fb6ac66f)" style="fill: none; stroke: #756bb1; stroke-opacity: 0.2; stroke-width: 2; stroke-linecap: square"/>
   </g>
   <g id="line2d_17">
    <path d="M 257.132122 28.063636 
L 225.100533 47.030579 
L 199.929351 65.997521 
L 177.953255 84.964463 
L 157.243937 103.931405 
L 137.927988 122.898347 
L 117.938489 141.865289 
L 111.674672 160.832231 
L 107.172529 179.799174 
L 117.468756 198.766116 
L 125.747602 217.733058 
L 135.106364 236.7 
L 149.677884 255.666942 
L 160.593458 274.633884 
L 172.337381 293.600826 
L 165.510464 312.567769 
L 154.982996 331.534711 
L 133.745841 350.501653 
L 116.191676 369.468595 
L 87.457454 388.435537 
L 64.347426 407.402479 
L 45.248182 426.369421 
L 26.394578 445.336364 
" clip-path="url(#p92fb6ac66f)" style="fill: none; stroke: #756bb1; stroke-opacity: 0.2; stroke-width: 2; stroke-linecap: square"/>
   </g>
   <g id="line2d_18">
    <path d="M 253.86591 28.063636 
L 228.626743 47.030579 
L 206.931503 65.997521 
L 181.582448 84.964463 
L 152.87365 103.931405 
L 136.032139 122.898347 
L 123.555058 141.865289 
L 116.110315 160.832231 
L 110.267383 179.799174 
L 110.118202 198.766116 
L 124.246671 217.733058 
L 141.904603 236.7 
L 148.154781 255.666942 
L 160.322022 274.633884 
L 172.222719 293.600826 
L 169.368537 312.567769 
L 154.647741 331.534711 
L 136.459409 350.501653 
L 110.259382 369.468595 
L 87.775519 388.435537 
L 56.751871 407.402479 
L 36.904637 426.369421 
L 24.376071 445.336364 
" clip-path="url(#p92fb6ac66f)" style="fill: none; stroke: #756bb1; stroke-opacity: 0.2; stroke-width: 2; stroke-linecap: square"/>
   </g>
   <g id="line2d_19">
    <path d="M 253.565095 28.063636 
L 235.622546 47.030579 
L 207.197033 65.997521 
L 175.773737 84.964463 
L 160.685866 103.931405 
L 140.971388 122.898347 
L 124.394881 141.865289 
L 110.162443 160.832231 
L 109.372491 179.799174 
L 116.317144 198.766116 
L 122.727348 217.733058 
L 132.336182 236.7 
L 145.047423 255.666942 
L 161.762198 274.633884 
L 164.223503 293.600826 
L 163.354284 312.567769 
L 155.324058 331.534711 
L 142.594004 350.501653 
L 122.198482 369.468595 
L 95.70643 388.435537 
L 67.406752 407.402479 
L 48.34624 426.369421 
L 29.088291 445.336364 
" clip-path="url(#p92fb6ac66f)" style="fill: none; stroke: #756bb1; stroke-opacity: 0.2; stroke-width: 2; stroke-linecap: square"/>
   </g>
   <g id="line2d_20">
    <path d="M 254.362305 28.063636 
L 227.643784 47.030579 
L 204.8673 65.997521 
L 181.762366 84.964463 
L 158.357854 103.931405 
L 131.36075 122.898347 
L 124.315934 141.865289 
L 112.467299 160.832231 
L 108.043306 179.799174 
L 118.442378 198.766116 
L 122.645019 217.733058 
L 142.050378 236.7 
L 149.21025 255.666942 
L 161.686025 274.633884 
L 169.16202 293.600826 
L 171.461093 312.567769 
L 160.41984 331.534711 
L 138.39487 350.501653 
L 113.854584 369.468595 
L 92.668879 388.435537 
L 67.050033 407.402479 
L 41.106028 426.369421 
L 23.302777 445.336364 
" clip-path="url(#p92fb6ac66f)" style="fill: none; stroke: #756bb1; stroke-opacity: 0.2; stroke-width: 2; stroke-linecap: square"/>
   </g>
   <g id="line2d_21">
    <path d="M 252.613036 28.063636 
L 234.153159 47.030579 
L 206.061961 65.997521 
L 178.900751 84.964463 
L 158.009277 103.931405 
L 132.176924 122.898347 
L 123.274213 141.865289 
L 112.461417 160.832231 
L 112.199742 179.799174 
L 114.98185 198.766116 
L 120.393017 217.733058 
L 130.722059 236.7 
L 147.526769 255.666942 
L 164.55387 274.633884 
L 167.123813 293.600826 
L 163.322987 312.567769 
L 159.875121 331.534711 
L 140.86221 350.501653 
L 115.35376 369.468595 
L 86.893522 388.435537 
L 67.284803 407.402479 
L 43.585767 426.369421 
L 27.974775 445.336364 
" clip-path="url(#p92fb6ac66f)" style="fill: none; stroke: #756bb1; stroke-opacity: 0.2; stroke-width: 2; stroke-linecap: square"/>
   </g>
   <g id="line2d_22">
    <path d="M 254.38406 28.063636 
L 229.18969 47.030579 
L 206.621834 65.997521 
L 181.237265 84.964463 
L 157.596493 103.931405 
L 137.875386 122.898347 
L 122.294143 141.865289 
L 112.371798 160.832231 
L 116.182749 179.799174 
L 116.04447 198.766116 
L 125.923406 217.733058 
L 138.68325 236.7 
L 148.875231 255.666942 
L 168.06715 274.633884 
L 166.861158 293.600826 
L 168.653536 312.567769 
L 161.95372 331.534711 
L 138.827842 350.501653 
L 120.865581 369.468595 
L 91.578072 388.435537 
L 66.876473 407.402479 
L 40.80127 426.369421 
L 22.592264 445.336364 
" clip-path="url(#p92fb6ac66f)" style="fill: none; stroke: #756bb1; stroke-opacity: 0.2; stroke-width: 2; stroke-linecap: square"/>
   </g>
   <g id="line2d_23">
    <path d="M 253.551015 28.063636 
L 227.51786 47.030579 
L 202.612837 65.997521 
L 173.379814 84.964463 
L 149.367906 103.931405 
L 129.879137 122.898347 
L 117.786181 141.865289 
L 110.124017 160.832231 
L 106.57408 179.799174 
L 111.116887 198.766116 
L 121.434215 217.733058 
L 138.768607 236.7 
L 149.283899 255.666942 
L 163.734916 274.633884 
L 171.950554 293.600826 
L 168.054266 312.567769 
L 159.526792 331.534711 
L 137.304992 350.501653 
L 116.510145 369.468595 
L 89.476534 388.435537 
L 62.454846 407.402479 
L 47.191225 426.369421 
L 24.021679 445.336364 
" clip-path="url(#p92fb6ac66f)" style="fill: none; stroke: #756bb1; stroke-opacity: 0.2; stroke-width: 2; stroke-linecap: square"/>
   </g>
   <g id="line2d_24">
    <path d="M 260.187195 28.063636 
L 236.403194 47.030579 
L 209.539243 65.997521 
L 177.000711 84.964463 
L 160.790608 103.931405 
L 138.352232 122.898347 
L 122.415192 141.865289 
L 117.9585 160.832231 
L 115.674379 179.799174 
L 111.715434 198.766116 
L 120.75033 217.733058 
L 140.8268 236.7 
L 155.659595 255.666942 
L 168.030448 274.633884 
L 166.220226 293.600826 
L 169.893794 312.567769 
L 157.971154 331.534711 
L 140.962698 350.501653 
L 113.850039 369.468595 
L 91.597626 388.435537 
L 67.611744 407.402479 
L 42.621342 426.369421 
L 23.901069 445.336364 
" clip-path="url(#p92fb6ac66f)" style="fill: none; stroke: #756bb1; stroke-opacity: 0.2; stroke-width: 2; stroke-linecap: square"/>
   </g>
   <g id="line2d_25">
    <path d="M 252.993582 28.063636 
L 231.611694 47.030579 
L 203.781146 65.997521 
L 181.983555 84.964463 
L 157.755206 103.931405 
L 131.011113 122.898347 
L 122.77051 141.865289 
L 107.098416 160.832231 
L 104.904774 179.799174 
L 107.991577 198.766116 
L 119.43174 217.733058 
L 138.790956 236.7 
L 150.37878 255.666942 
L 157.657252 274.633884 
L 166.83695 293.600826 
L 169.157724 312.567769 
L 152.53425 331.534711 
L 137.689042 350.501653 
L 117.338033 369.468595 
L 89.973948 388.435537 
L 64.625412 407.402479 
L 45.91284 426.369421 
L 23.75001 445.336364 
" clip-path="url(#p92fb6ac66f)" style="fill: none; stroke: #756bb1; stroke-opacity: 0.2; stroke-width: 2; stroke-linecap: square"/>
   </g>
   <g id="line2d_26">
    <path d="M 256.545686 28.063636 
L 235.358077 47.030579 
L 206.656908 65.997521 
L 176.02339 84.964463 
L 156.059844 103.931405 
L 138.90438 122.898347 
L 118.378837 141.865289 
L 112.606213 160.832231 
L 111.072073 179.799174 
L 110.999331 198.766116 
L 128.718164 217.733058 
L 141.958112 236.7 
L 149.778078 255.666942 
L 165.413329 274.633884 
L 167.733846 293.600826 
L 166.034094 312.567769 
L 157.97344 331.534711 
L 139.409371 350.501653 
L 120.393785 369.468595 
L 91.71986 388.435537 
L 67.3325 407.402479 
L 46.471741 426.369421 
L 27.4155 445.336364 
" clip-path="url(#p92fb6ac66f)" style="fill: none; stroke: #756bb1; stroke-opacity: 0.2; stroke-width: 2; stroke-linecap: square"/>
   </g>
   <g id="line2d_27">
    <path d="M 258.4195 28.063636 
L 229.083264 47.030579 
L 206.848821 65.997521 
L 174.815883 84.964463 
L 153.743534 103.931405 
L 137.736745 122.898347 
L 117.253499 141.865289 
L 106.146199 160.832231 
L 113.295558 179.799174 
L 118.350788 198.766116 
L 122.306027 217.733058 
L 141.103379 236.7 
L 157.873856 255.666942 
L 169.843348 274.633884 
L 174.714138 293.600826 
L 165.806988 312.567769 
L 161.626514 331.534711 
L 142.496997 350.501653 
L 114.982162 369.468595 
L 93.381249 388.435537 
L 68.842357 407.402479 
L 44.236837 426.369421 
L 28.081966 445.336364 
" clip-path="url(#p92fb6ac66f)" style="fill: none; stroke: #756bb1; stroke-opacity: 0.2; stroke-width: 2; stroke-linecap: square"/>
   </g>
   <g id="line2d_28">
    <path d="M 258.520194 28.063636 
L 230.029828 47.030579 
L 204.001987 65.997521 
L 176.368821 84.964463 
L 152.480694 103.931405 
L 140.074732 122.898347 
L 126.342177 141.865289 
L 113.276753 160.832231 
L 109.337332 179.799174 
L 116.374122 198.766116 
L 127.250699 217.733058 
L 140.335977 236.7 
L 149.688726 255.666942 
L 165.234335 274.633884 
L 174.627549 293.600826 
L 168.422712 312.567769 
L 160.122234 331.534711 
L 138.377434 350.501653 
L 115.589679 369.468595 
L 89.250195 388.435537 
L 62.637111 407.402479 
L 45.333836 426.369421 
L 31.789719 445.336364 
" clip-path="url(#p92fb6ac66f)" style="fill: none; stroke: #756bb1; stroke-opacity: 0.2; stroke-width: 2; stroke-linecap: square"/>
   </g>
   <g id="line2d_29">
    <path d="M 256.271627 28.063636 
L 230.056797 47.030579 
L 201.066512 65.997521 
L 174.245945 84.964463 
L 151.840156 103.931405 
L 129.494264 122.898347 
L 121.515605 141.865289 
L 109.189215 160.832231 
L 112.109071 179.799174 
L 115.416157 198.766116 
L 126.992816 217.733058 
L 136.799567 236.7 
L 147.958811 255.666942 
L 164.535834 274.633884 
L 166.951505 293.600826 
L 163.984534 312.567769 
L 160.49665 331.534711 
L 135.154243 350.501653 
L 114.840928 369.468595 
L 90.06271 388.435537 
L 66.629933 407.402479 
L 44.073907 426.369421 
L 26.667203 445.336364 
" clip-path="url(#p92fb6ac66f)" style="fill: none; stroke: #756bb1; stroke-opacity: 0.2; stroke-width: 2; stroke-linecap: square"/>
   </g>
   <g id="line2d_30">
    <path d="M 256.415939 28.063636 
L 232.448406 47.030579 
L 208.538495 65.997521 
L 180.79798 84.964463 
L 155.866536 103.931405 
L 134.551933 122.898347 
L 125.447592 141.865289 
L 116.513976 160.832231 
L 105.152488 179.799174 
L 114.306946 198.766116 
L 122.696211 217.733058 
L 133.864937 236.7 
L 154.320899 255.666942 
L 159.610076 274.633884 
L 168.315973 293.600826 
L 166.395979 312.567769 
L 162.299795 331.534711 
L 142.863942 350.501653 
L 118.021957 369.468595 
L 92.392497 388.435537 
L 71.587425 407.402479 
L 41.026152 426.369421 
L 25.766579 445.336364 
" clip-path="url(#p92fb6ac66f)" style="fill: none; stroke: #756bb1; stroke-opacity: 0.2; stroke-width: 2; stroke-linecap: square"/>
   </g>
   <g id="line2d_31">
    <path d="M 252.228492 28.063636 
L 231.427647 47.030579 
L 204.220948 65.997521 
L 177.498518 84.964463 
L 149.976738 103.931405 
L 130.588156 122.898347 
L 122.230392 141.865289 
L 107.383877 160.832231 
L 113.982232 179.799174 
L 113.000537 198.766116 
L 127.192797 217.733058 
L 137.787211 236.7 
L 149.68669 255.666942 
L 162.175683 274.633884 
L 169.34424 293.600826 
L 167.153857 312.567769 
L 159.911864 331.534711 
L 137.30969 350.501653 
L 115.705376 369.468595 
L 94.094753 388.435537 
L 68.676969 407.402479 
L 51.034498 426.369421 
L 30.126608 445.336364 
" clip-path="url(#p92fb6ac66f)" style="fill: none; stroke: #756bb1; stroke-opacity: 0.2; stroke-width: 2; stroke-linecap: square"/>
   </g>
   <g id="line2d_32">
    <path d="M 252.018563 28.063636 
L 225.624195 47.030579 
L 204.391364 65.997521 
L 181.529668 84.964463 
L 159.924628 103.931405 
L 140.958136 122.898347 
L 121.633971 141.865289 
L 109.74698 160.832231 
L 116.188592 179.799174 
L 117.125253 198.766116 
L 125.546262 217.733058 
L 138.561701 236.7 
L 157.4032 255.666942 
L 168.384651 274.633884 
L 167.785048 293.600826 
L 165.449472 312.567769 
L 157.757155 331.534711 
L 140.921521 350.501653 
L 117.537521 369.468595 
L 94.262419 388.435537 
L 67.938189 407.402479 
L 44.254069 426.369421 
L 22.778281 445.336364 
" clip-path="url(#p92fb6ac66f)" style="fill: none; stroke: #756bb1; stroke-opacity: 0.2; stroke-width: 2; stroke-linecap: square"/>
   </g>
   <g id="line2d_33">
    <path d="M 257.664915 28.063636 
L 231.056446 47.030579 
L 206.296396 65.997521 
L 178.965886 84.964463 
L 159.102135 103.931405 
L 133.455473 122.898347 
L 117.090171 141.865289 
L 112.940574 160.832231 
L 106.796416 179.799174 
L 115.02456 198.766116 
L 122.760778 217.733058 
L 132.369701 236.7 
L 154.676009 255.666942 
L 165.958648 274.633884 
L 164.587339 293.600826 
L 167.573667 312.567769 
L 157.254551 331.534711 
L 141.119514 350.501653 
L 118.779293 369.468595 
L 92.751567 388.435537 
L 67.583481 407.402479 
L 43.587146 426.369421 
L 26.367429 445.336364 
" clip-path="url(#p92fb6ac66f)" style="fill: none; stroke: #756bb1; stroke-opacity: 0.2; stroke-width: 2; stroke-linecap: square"/>
   </g>
   <g id="line2d_34">
    <path d="M 257.125603 28.063636 
L 230.599089 47.030579 
L 202.283675 65.997521 
L 183.301539 84.964463 
L 157.65188 103.931405 
L 134.770961 122.898347 
L 123.028273 141.865289 
L 114.167455 160.832231 
L 108.207983 179.799174 
L 116.506428 198.766116 
L 122.893237 217.733058 
L 136.336324 236.7 
L 149.734683 255.666942 
L 164.303163 274.633884 
L 170.074814 293.600826 
L 165.485887 312.567769 
L 158.657824 331.534711 
L 134.1611 350.501653 
L 111.370572 369.468595 
L 87.663576 388.435537 
L 64.287119 407.402479 
L 41.443126 426.369421 
L 26.888994 445.336364 
" clip-path="url(#p92fb6ac66f)" style="fill: none; stroke: #756bb1; stroke-opacity: 0.2; stroke-width: 2; stroke-linecap: square"/>
   </g>
   <g id="line2d_35">
    <path d="M 255.065749 28.063636 
L 234.026508 47.030579 
L 202.281234 65.997521 
L 178.869227 84.964463 
L 155.695754 103.931405 
L 136.888789 122.898347 
L 116.221916 141.865289 
L 110.270142 160.832231 
L 104.434715 179.799174 
L 113.041252 198.766116 
L 120.986284 217.733058 
L 134.380384 236.7 
L 155.643442 255.666942 
L 163.528914 274.633884 
L 170.701483 293.600826 
L 169.050089 312.567769 
L 154.656173 331.534711 
L 142.890471 350.501653 
L 115.099864 369.468595 
L 93.371218 388.435537 
L 66.506785 407.402479 
L 46.431943 426.369421 
L 31.56347 445.336364 
" clip-path="url(#p92fb6ac66f)" style="fill: none; stroke: #756bb1; stroke-opacity: 0.2; stroke-width: 2; stroke-linecap: square"/>
   </g>
   <g id="line2d_36">
    <path d="M 259.809563 28.063636 
L 226.671104 47.030579 
L 199.401804 65.997521 
L 176.248719 84.964463 
L 154.185585 103.931405 
L 129.999561 122.898347 
L 123.101978 141.865289 
L 108.881743 160.832231 
L 106.083914 179.799174 
L 113.81031 198.766116 
L 119.946613 217.733058 
L 139.738713 236.7 
L 155.27379 255.666942 
L 158.819266 274.633884 
L 171.688923 293.600826 
L 165.035261 312.567769 
L 156.913698 331.534711 
L 136.445481 350.501653 
L 115.033598 369.468595 
L 86.229228 388.435537 
L 60.055076 407.402479 
L 43.882325 426.369421 
L 21.056759 445.336364 
" clip-path="url(#p92fb6ac66f)" style="fill: none; stroke: #756bb1; stroke-opacity: 0.2; stroke-width: 2; stroke-linecap: square"/>
   </g>
   <g id="line2d_37">
    <path d="M 248.236087 28.063636 
L 229.214578 47.030579 
L 200.160474 65.997521 
L 173.722659 84.964463 
L 154.399169 103.931405 
L 129.734121 122.898347 
L 119.836888 141.865289 
L 108.729041 160.832231 
L 108.520209 179.799174 
L 115.919914 198.766116 
L 121.616891 217.733058 
L 139.219278 236.7 
L 151.381887 255.666942 
L 160.60917 274.633884 
L 169.137699 293.600826 
L 163.841017 312.567769 
L 158.599888 331.534711 
L 134.173121 350.501653 
L 117.726711 369.468595 
L 89.907667 388.435537 
L 61.772173 407.402479 
L 41.210008 426.369421 
L 19.472727 445.336364 
" clip-path="url(#p92fb6ac66f)" style="fill: none; stroke: #756bb1; stroke-opacity: 0.2; stroke-width: 2; stroke-linecap: square"/>
   </g>
   <g id="line2d_38">
    <path d="M 249.926573 28.063636 
L 224.896297 47.030579 
L 198.89923 65.997521 
L 174.698895 84.964463 
L 151.700727 103.931405 
L 135.813789 122.898347 
L 117.485907 141.865289 
L 115.543167 160.832231 
L 109.38961 179.799174 
L 116.03418 198.766116 
L 126.096026 217.733058 
L 139.443135 236.7 
L 156.920159 255.666942 
L 166.221902 274.633884 
L 174.255569 293.600826 
L 171.966454 312.567769 
L 157.000267 331.534711 
L 140.112291 350.501653 
L 109.322175 369.468595 
L 90.812483 388.435537 
L 56.183853 407.402479 
L 36.952415 426.369421 
L 21.99636 445.336364 
" clip-path="url(#p92fb6ac66f)" style="fill: none; stroke: #756bb1; stroke-opacity: 0.2; stroke-width: 2; stroke-linecap: square"/>
   </g>
   <g id="line2d_39">
    <path d="M 253.874256 28.063636 
L 230.774414 47.030579 
L 207.028156 65.997521 
L 182.16054 84.964463 
L 153.535735 103.931405 
L 134.39795 122.898347 
L 118.881362 141.865289 
L 114.248488 160.832231 
L 110.035908 179.799174 
L 114.997843 198.766116 
L 122.760002 217.733058 
L 138.701572 236.7 
L 150.906254 255.666942 
L 163.219156 274.633884 
L 168.547422 293.600826 
L 163.410661 312.567769 
L 158.850977 331.534711 
L 140.200999 350.501653 
L 115.37942 369.468595 
L 94.428827 388.435537 
L 67.091037 407.402479 
L 47.635589 426.369421 
L 27.194889 445.336364 
" clip-path="url(#p92fb6ac66f)" style="fill: none; stroke: #756bb1; stroke-opacity: 0.2; stroke-width: 2; stroke-linecap: square"/>
   </g>
   <g id="line2d_40">
    <path d="M 264.927273 28.063636 
L 232.422743 47.030579 
L 207.059116 65.997521 
L 178.516856 84.964463 
L 157.139608 103.931405 
L 133.999734 122.898347 
L 122.808755 141.865289 
L 110.149216 160.832231 
L 111.053977 179.799174 
L 109.884489 198.766116 
L 120.253222 217.733058 
L 132.595315 236.7 
L 146.661182 255.666942 
L 156.629431 274.633884 
L 170.419858 293.600826 
L 164.463581 312.567769 
L 154.232036 331.534711 
L 142.244647 350.501653 
L 110.384293 369.468595 
L 87.979974 388.435537 
L 66.150537 407.402479 
L 43.000658 426.369421 
L 20.671143 445.336364 
" clip-path="url(#p92fb6ac66f)" style="fill: none; stroke: #756bb1; stroke-opacity: 0.2; stroke-width: 2; stroke-linecap: square"/>
   </g>
   <g id="line2d_41">
    <path d="M 257.249622 28.063636 
L 233.263646 47.030579 
L 199.587835 65.997521 
L 182.73963 84.964463 
L 156.804446 103.931405 
L 138.760432 122.898347 
L 116.324432 141.865289 
L 110.947247 160.832231 
L 111.431226 179.799174 
L 115.289504 198.766116 
L 125.661631 217.733058 
L 136.568238 236.7 
L 154.706497 255.666942 
L 166.8197 274.633884 
L 170.470575 293.600826 
L 171.013688 312.567769 
L 158.040861 331.534711 
L 135.40889 350.501653 
L 111.258543 369.468595 
L 91.852889 388.435537 
L 63.356143 407.402479 
L 38.827095 426.369421 
L 21.876887 445.336364 
" clip-path="url(#p92fb6ac66f)" style="fill: none; stroke: #756bb1; stroke-opacity: 0.2; stroke-width: 2; stroke-linecap: square"/>
   </g>
   <g id="line2d_42">
    <path d="M 262.790641 28.063636 
L 235.686814 47.030579 
L 202.288811 65.997521 
L 184.353709 84.964463 
L 154.380072 103.931405 
L 140.3495 122.898347 
L 118.693072 141.865289 
L 111.548137 160.832231 
L 110.170294 179.799174 
L 111.716186 198.766116 
L 120.917183 217.733058 
L 136.442557 236.7 
L 147.313439 255.666942 
L 158.388849 274.633884 
L 169.183804 293.600826 
L 169.080585 312.567769 
L 158.844562 331.534711 
L 140.266106 350.501653 
L 115.118448 369.468595 
L 93.437446 388.435537 
L 60.752885 407.402479 
L 41.868103 426.369421 
L 23.492745 445.336364 
" clip-path="url(#p92fb6ac66f)" style="fill: none; stroke: #756bb1; stroke-opacity: 0.2; stroke-width: 2; stroke-linecap: square"/>
   </g>
   <g id="line2d_43">
    <path d="M 254.336221 28.063636 
L 229.030924 47.030579 
L 208.292023 65.997521 
L 174.121381 84.964463 
L 151.757587 103.931405 
L 135.108562 122.898347 
L 120.128874 141.865289 
L 112.104764 160.832231 
L 106.211145 179.799174 
L 115.472603 198.766116 
L 129.088509 217.733058 
L 134.580293 236.7 
L 151.737093 255.666942 
L 161.213706 274.633884 
L 170.7047 293.600826 
L 165.333517 312.567769 
L 157.152244 331.534711 
L 136.637476 350.501653 
L 113.008819 369.468595 
L 89.775575 388.435537 
L 68.591055 407.402479 
L 43.372379 426.369421 
L 30.193324 445.336364 
" clip-path="url(#p92fb6ac66f)" style="fill: none; stroke: #756bb1; stroke-opacity: 0.2; stroke-width: 2; stroke-linecap: square"/>
   </g>
   <g id="line2d_44"/>
   <g id="line2d_45">
    <path d="M 256.506138 28.063636 
L 230.494817 47.030579 
L 204.09655 65.997521 
L 178.304059 84.964463 
L 154.735554 103.931405 
L 134.716903 122.898347 
L 119.869083 141.865289 
L 111.275239 160.832231 
L 109.553026 179.799174 
L 114.415002 198.766116 
L 124.555595 217.733058 
L 138.088765 236.7 
L 152.036225 255.666942 
L 163.372719 274.633884 
L 169.294127 293.600826 
L 167.57994 312.567769 
L 157.329442 331.534711 
L 139.385257 350.501653 
L 115.785919 369.468595 
L 89.874784 388.435537 
L 64.83951 407.402479 
L 43.201267 426.369421 
L 26.161759 445.336364 
" clip-path="url(#p92fb6ac66f)" style="fill: none; stroke: #39146b; stroke-width: 4; stroke-linecap: square"/>
   </g>
   <g id="line2d_46">
    <path d="M 256.496085 28.063636 
L 230.446899 47.030579 
L 203.9697 65.997521 
L 178.201641 84.964463 
L 154.53301 103.931405 
L 134.499367 122.898347 
L 119.584648 141.865289 
L 110.955884 160.832231 
L 109.178486 179.799174 
L 113.984428 198.766116 
L 124.164158 217.733058 
L 137.621991 236.7 
L 151.595884 255.666942 
L 163.020233 274.633884 
L 169.006938 293.600826 
L 167.40418 312.567769 
L 157.327551 331.534711 
L 139.479009 350.501653 
L 116.064528 369.468595 
L 90.248261 388.435537 
L 65.292075 407.402479 
L 43.704969 426.369421 
L 26.74308 445.336364 
" clip-path="url(#p92fb6ac66f)" style="fill: none; stroke: #e40000; stroke-width: 4; stroke-linecap: square"/>
    <defs>
     <path id="m586e8f75f3" d="M -5 5 
L 5 -5 
M -5 -5 
L 5 5 
" style="stroke: #e40000"/>
    </defs>
    <g clip-path="url(#p92fb6ac66f)">
     <use xlink:href="#m586e8f75f3" x="256.496085" y="28.063636" style="fill: #e40000; stroke: #e40000"/>
     <use xlink:href="#m586e8f75f3" x="230.446899" y="47.030579" style="fill: #e40000; stroke: #e40000"/>
     <use xlink:href="#m586e8f75f3" x="203.9697" y="65.997521" style="fill: #e40000; stroke: #e40000"/>
     <use xlink:href="#m586e8f75f3" x="178.201641" y="84.964463" style="fill: #e40000; stroke: #e40000"/>
     <use xlink:href="#m586e8f75f3" x="154.53301" y="103.931405" style="fill: #e40000; stroke: #e40000"/>
     <use xlink:href="#m586e8f75f3" x="134.499367" y="122.898347" style="fill: #e40000; stroke: #e40000"/>
     <use xlink:href="#m586e8f75f3" x="119.584648" y="141.865289" style="fill: #e40000; stroke: #e40000"/>
     <use xlink:href="#m586e8f75f3" x="110.955884" y="160.832231" style="fill: #e40000; stroke: #e40000"/>
     <use xlink:href="#m586e8f75f3" x="109.178486" y="179.799174" style="fill: #e40000; stroke: #e40000"/>
     <use xlink:href="#m586e8f75f3" x="113.984428" y="198.766116" style="fill: #e40000; stroke: #e40000"/>
     <use xlink:href="#m586e8f75f3" x="124.164158" y="217.733058" style="fill: #e40000; stroke: #e40000"/>
     <use xlink:href="#m586e8f75f3" x="137.621991" y="236.7" style="fill: #e40000; stroke: #e40000"/>
     <use xlink:href="#m586e8f75f3" x="151.595884" y="255.666942" style="fill: #e40000; stroke: #e40000"/>
     <use xlink:href="#m586e8f75f3" x="163.020233" y="274.633884" style="fill: #e40000; stroke: #e40000"/>
     <use xlink:href="#m586e8f75f3" x="169.006938" y="293.600826" style="fill: #e40000; stroke: #e40000"/>
     <use xlink:href="#m586e8f75f3" x="167.40418" y="312.567769" style="fill: #e40000; stroke: #e40000"/>
     <use xlink:href="#m586e8f75f3" x="157.327551" y="331.534711" style="fill: #e40000; stroke: #e40000"/>
     <use xlink:href="#m586e8f75f3" x="139.479009" y="350.501653" style="fill: #e40000; stroke: #e40000"/>
     <use xlink:href="#m586e8f75f3" x="116.064528" y="369.468595" style="fill: #e40000; stroke: #e40000"/>
     <use xlink:href="#m586e8f75f3" x="90.248261" y="388.435537" style="fill: #e40000; stroke: #e40000"/>
     <use xlink:href="#m586e8f75f3" x="65.292075" y="407.402479" style="fill: #e40000; stroke: #e40000"/>
     <use xlink:href="#m586e8f75f3" x="43.704969" y="426.369421" style="fill: #e40000; stroke: #e40000"/>
     <use xlink:href="#m586e8f75f3" x="26.74308" y="445.336364" style="fill: #e40000; stroke: #e40000"/>
    </g>
   </g>
   <g id="patch_3">
    <path d="M 7.2 476.2 
L 277.2 476.2 
" style="fill: none; stroke: #000000; stroke-width: 2; stroke-linejoin: miter; stroke-linecap: square"/>
   </g>
  </g>
 </g>
 <defs>
  <clipPath id="p92fb6ac66f">
   <rect x="7.2" y="7.2" width="270" height="459"/>
  </clipPath>
 </defs>
</svg>
