<?xml version="1.0" encoding="utf-8" standalone="no"?>
<!DOCTYPE svg PUBLIC "-//W3C//DTD SVG 1.1//EN"
  "http://www.w3.org/Graphics/SVG/1.1/DTD/svg11.dtd">
<svg xmlns:xlink="http://www.w3.org/1999/xlink" width="361.20625pt" height="544.35625pt" viewBox="0 0 361.20625 544.35625" xmlns="http://www.w3.org/2000/svg" version="1.1">
 <metadata>
  <rdf:RDF xmlns:dc="http://purl.org/dc/elements/1.1/" xmlns:cc="http://creativecommons.org/ns#" xmlns:rdf="http://www.w3.org/1999/02/22-rdf-syntax-ns#">
   <cc:Work>
    <dc:type rdf:resource="http://purl.org/dc/dcmitype/StillImage"/>
    <dc:date>2024-07-31T17:13:47.079098</dc:date>
    <dc:format>image/svg+xml</dc:format>
    <dc:creator>
     <cc:Agent>
      <dc:title>Matplotlib v3.8.0, https://matplotlib.org/</dc:title>
     </cc:Agent>
    </dc:creator>
   </cc:Work>
  </rdf:RDF>
 </metadata>
 <defs>
  <style type="text/css">*{stroke-linejoin: round; stroke-linecap: butt}</style>
 </defs>
 <g id="figure_1">
  <g id="patch_1">
   <path d="M 0 544.35625 
L 361.20625 544.35625 
L 361.20625 0 
L 0 0 
z
" style="fill: #ffffff"/>
  </g>
  <g id="axes_1">
   <g id="patch_2">
    <path d="M 84.00625 466.2 
L 354.00625 466.2 
L 354.00625 7.2 
L 84.00625 7.2 
z
" style="fill: #ffffff"/>
   </g>
   <g id="PolyCollection_1">
    <defs>
     <path id="m9fcd5f96df" d="M 162.736054 -516.292614 
L 195.748042 -516.292614 
L 196.167371 -507.414471 
L 208.055138 -498.536327 
L 219.776259 -489.658184 
L 230.38044 -480.780041 
L 236.303084 -471.901898 
L 237.465358 -463.023755 
L 240.296913 -454.145612 
L 244.506462 -445.267469 
L 251.813338 -436.389325 
L 259.190193 -427.511182 
L 264.962747 -418.633039 
L 276.516344 -409.754896 
L 285.248391 -400.876753 
L 292.95232 -391.99861 
L 298.149197 -383.120467 
L 304.532455 -374.242324 
L 309.651894 -365.36418 
L 318.145377 -356.486037 
L 318.021212 -347.607894 
L 319.598262 -338.729751 
L 320.549368 -329.851608 
L 318.617087 -320.973465 
L 314.517902 -312.095322 
L 312.616065 -303.217178 
L 312.527696 -294.339035 
L 301.391577 -285.460892 
L 299.369127 -276.582749 
L 292.779364 -267.704606 
L 288.822828 -258.826463 
L 281.431291 -249.94832 
L 277.725475 -241.070176 
L 269.359227 -232.192033 
L 264.058527 -223.31389 
L 254.572386 -214.435747 
L 249.293957 -205.557604 
L 240.839976 -196.679461 
L 235.913242 -187.801318 
L 227.757526 -178.923175 
L 221.190108 -170.045031 
L 213.692786 -161.166888 
L 205.767573 -152.288745 
L 201.493452 -143.410602 
L 196.664365 -134.532459 
L 190.933631 -125.654316 
L 180.321995 -116.776173 
L 167.121244 -107.898029 
L 138.447471 -99.019886 
L 131.414549 -99.019886 
L 131.414549 -99.019886 
L 106.979578 -107.898029 
L 100.657843 -116.776173 
L 99.400986 -125.654316 
L 99.119871 -134.532459 
L 103.312584 -143.410602 
L 110.55953 -152.288745 
L 118.073915 -161.166888 
L 126.972084 -170.045031 
L 132.954685 -178.923175 
L 138.93022 -187.801318 
L 149.403738 -196.679461 
L 158.93827 -205.557604 
L 160.999161 -214.435747 
L 174.092369 -223.31389 
L 177.692476 -232.192033 
L 179.199525 -241.070176 
L 186.301588 -249.94832 
L 192.5077 -258.826463 
L 201.73652 -267.704606 
L 204.85298 -276.582749 
L 211.792394 -285.460892 
L 220.808084 -294.339035 
L 219.787131 -303.217178 
L 224.09505 -312.095322 
L 227.539596 -320.973465 
L 229.684057 -329.851608 
L 233.11297 -338.729751 
L 234.962288 -347.607894 
L 236.289706 -356.486037 
L 235.07213 -365.36418 
L 229.4869 -374.242324 
L 227.848731 -383.120467 
L 220.831808 -391.99861 
L 215.469987 -400.876753 
L 209.967668 -409.754896 
L 203.661453 -418.633039 
L 196.856463 -427.511182 
L 193.627283 -436.389325 
L 190.949495 -445.267469 
L 190.954688 -454.145612 
L 187.214262 -463.023755 
L 188.898519 -471.901898 
L 187.520672 -480.780041 
L 182.913693 -489.658184 
L 174.654317 -498.536327 
L 167.754852 -507.414471 
L 162.736054 -516.292614 
z
" style="stroke: #fecc5c; stroke-opacity: 0.5"/>
    </defs>
    <g clip-path="url(#pf390b8411f)">
     <use xlink:href="#m9fcd5f96df" x="0" y="544.35625" style="fill: #fecc5c; fill-opacity: 0.5; stroke: #fecc5c; stroke-opacity: 0.5"/>
    </g>
   </g>
   <g id="matplotlib.axis_1">
    <g id="xtick_1">
     <g id="line2d_1">
      <defs>
       <path id="m458343edb9" d="M 0 0 
L 0 3.5 
" style="stroke: #000000; stroke-width: 1.5"/>
      </defs>
      <g>
       <use xlink:href="#m458343edb9" x="139.981787" y="476.2" style="stroke: #000000; stroke-width: 1.5"/>
      </g>
     </g>
     <g id="text_1">
      <!-- 400 -->
      <g transform="translate(120.894287 498.396875) scale(0.2 -0.2)">
       <defs>
        <path id="DejaVuSans-34" d="M 2419 4116 
L 825 1625 
L 2419 1625 
L 2419 4116 
z
M 2253 4666 
L 3047 4666 
L 3047 1625 
L 3713 1625 
L 3713 1100 
L 3047 1100 
L 3047 0 
L 2419 0 
L 2419 1100 
L 313 1100 
L 313 1709 
L 2253 4666 
z
" transform="scale(0.015625)"/>
        <path id="DejaVuSans-30" d="M 2034 4250 
Q 1547 4250 1301 3770 
Q 1056 3291 1056 2328 
Q 1056 1369 1301 889 
Q 1547 409 2034 409 
Q 2525 409 2770 889 
Q 3016 1369 3016 2328 
Q 3016 3291 2770 3770 
Q 2525 4250 2034 4250 
z
M 2034 4750 
Q 2819 4750 3233 4129 
Q 3647 3509 3647 2328 
Q 3647 1150 3233 529 
Q 2819 -91 2034 -91 
Q 1250 -91 836 529 
Q 422 1150 422 2328 
Q 422 3509 836 4129 
Q 1250 4750 2034 4750 
z
" transform="scale(0.015625)"/>
       </defs>
       <use xlink:href="#DejaVuSans-34"/>
       <use xlink:href="#DejaVuSans-30" x="63.623047"/>
       <use xlink:href="#DejaVuSans-30" x="127.246094"/>
      </g>
     </g>
    </g>
    <g id="xtick_2">
     <g id="line2d_2">
      <g>
       <use xlink:href="#m458343edb9" x="221.574685" y="476.2" style="stroke: #000000; stroke-width: 1.5"/>
      </g>
     </g>
     <g id="text_2">
      <!-- 600 -->
      <g transform="translate(202.487185 498.396875) scale(0.2 -0.2)">
       <defs>
        <path id="DejaVuSans-36" d="M 2113 2584 
Q 1688 2584 1439 2293 
Q 1191 2003 1191 1497 
Q 1191 994 1439 701 
Q 1688 409 2113 409 
Q 2538 409 2786 701 
Q 3034 994 3034 1497 
Q 3034 2003 2786 2293 
Q 2538 2584 2113 2584 
z
M 3366 4563 
L 3366 3988 
Q 3128 4100 2886 4159 
Q 2644 4219 2406 4219 
Q 1781 4219 1451 3797 
Q 1122 3375 1075 2522 
Q 1259 2794 1537 2939 
Q 1816 3084 2150 3084 
Q 2853 3084 3261 2657 
Q 3669 2231 3669 1497 
Q 3669 778 3244 343 
Q 2819 -91 2113 -91 
Q 1303 -91 875 529 
Q 447 1150 447 2328 
Q 447 3434 972 4092 
Q 1497 4750 2381 4750 
Q 2619 4750 2861 4703 
Q 3103 4656 3366 4563 
z
" transform="scale(0.015625)"/>
       </defs>
       <use xlink:href="#DejaVuSans-36"/>
       <use xlink:href="#DejaVuSans-30" x="63.623047"/>
       <use xlink:href="#DejaVuSans-30" x="127.246094"/>
      </g>
     </g>
    </g>
    <g id="xtick_3">
     <g id="line2d_3">
      <g>
       <use xlink:href="#m458343edb9" x="303.167582" y="476.2" style="stroke: #000000; stroke-width: 1.5"/>
      </g>
     </g>
     <g id="text_3">
      <!-- 800 -->
      <g transform="translate(284.080082 498.396875) scale(0.2 -0.2)">
       <defs>
        <path id="DejaVuSans-38" d="M 2034 2216 
Q 1584 2216 1326 1975 
Q 1069 1734 1069 1313 
Q 1069 891 1326 650 
Q 1584 409 2034 409 
Q 2484 409 2743 651 
Q 3003 894 3003 1313 
Q 3003 1734 2745 1975 
Q 2488 2216 2034 2216 
z
M 1403 2484 
Q 997 2584 770 2862 
Q 544 3141 544 3541 
Q 544 4100 942 4425 
Q 1341 4750 2034 4750 
Q 2731 4750 3128 4425 
Q 3525 4100 3525 3541 
Q 3525 3141 3298 2862 
Q 3072 2584 2669 2484 
Q 3125 2378 3379 2068 
Q 3634 1759 3634 1313 
Q 3634 634 3220 271 
Q 2806 -91 2034 -91 
Q 1263 -91 848 271 
Q 434 634 434 1313 
Q 434 1759 690 2068 
Q 947 2378 1403 2484 
z
M 1172 3481 
Q 1172 3119 1398 2916 
Q 1625 2713 2034 2713 
Q 2441 2713 2670 2916 
Q 2900 3119 2900 3481 
Q 2900 3844 2670 4047 
Q 2441 4250 2034 4250 
Q 1625 4250 1398 4047 
Q 1172 3844 1172 3481 
z
" transform="scale(0.015625)"/>
       </defs>
       <use xlink:href="#DejaVuSans-38"/>
       <use xlink:href="#DejaVuSans-30" x="63.623047"/>
       <use xlink:href="#DejaVuSans-30" x="127.246094"/>
      </g>
     </g>
    </g>
    <g id="text_4">
     <!-- Resistivity  [$\Omega m$] -->
     <g transform="translate(124.70625 532.75625) scale(0.2 -0.2)">
      <defs>
       <path id="DejaVuSans-Bold-52" d="M 2297 2597 
Q 2675 2597 2839 2737 
Q 3003 2878 3003 3200 
Q 3003 3519 2839 3656 
Q 2675 3794 2297 3794 
L 1791 3794 
L 1791 2597 
L 2297 2597 
z
M 1791 1766 
L 1791 0 
L 588 0 
L 588 4666 
L 2425 4666 
Q 3347 4666 3776 4356 
Q 4206 4047 4206 3378 
Q 4206 2916 3982 2619 
Q 3759 2322 3309 2181 
Q 3556 2125 3751 1926 
Q 3947 1728 4147 1325 
L 4800 0 
L 3519 0 
L 2950 1159 
Q 2778 1509 2601 1637 
Q 2425 1766 2131 1766 
L 1791 1766 
z
" transform="scale(0.015625)"/>
       <path id="DejaVuSans-Bold-65" d="M 4031 1759 
L 4031 1441 
L 1416 1441 
Q 1456 1047 1700 850 
Q 1944 653 2381 653 
Q 2734 653 3104 758 
Q 3475 863 3866 1075 
L 3866 213 
Q 3469 63 3072 -14 
Q 2675 -91 2278 -91 
Q 1328 -91 801 392 
Q 275 875 275 1747 
Q 275 2603 792 3093 
Q 1309 3584 2216 3584 
Q 3041 3584 3536 3087 
Q 4031 2591 4031 1759 
z
M 2881 2131 
Q 2881 2450 2695 2645 
Q 2509 2841 2209 2841 
Q 1884 2841 1681 2658 
Q 1478 2475 1428 2131 
L 2881 2131 
z
" transform="scale(0.015625)"/>
       <path id="DejaVuSans-Bold-73" d="M 3272 3391 
L 3272 2541 
Q 2913 2691 2578 2766 
Q 2244 2841 1947 2841 
Q 1628 2841 1473 2761 
Q 1319 2681 1319 2516 
Q 1319 2381 1436 2309 
Q 1553 2238 1856 2203 
L 2053 2175 
Q 2913 2066 3209 1816 
Q 3506 1566 3506 1031 
Q 3506 472 3093 190 
Q 2681 -91 1863 -91 
Q 1516 -91 1145 -36 
Q 775 19 384 128 
L 384 978 
Q 719 816 1070 734 
Q 1422 653 1784 653 
Q 2113 653 2278 743 
Q 2444 834 2444 1013 
Q 2444 1163 2330 1236 
Q 2216 1309 1875 1350 
L 1678 1375 
Q 931 1469 631 1722 
Q 331 1975 331 2491 
Q 331 3047 712 3315 
Q 1094 3584 1881 3584 
Q 2191 3584 2531 3537 
Q 2872 3491 3272 3391 
z
" transform="scale(0.015625)"/>
       <path id="DejaVuSans-Bold-69" d="M 538 3500 
L 1656 3500 
L 1656 0 
L 538 0 
L 538 3500 
z
M 538 4863 
L 1656 4863 
L 1656 3950 
L 538 3950 
L 538 4863 
z
" transform="scale(0.015625)"/>
       <path id="DejaVuSans-Bold-74" d="M 1759 4494 
L 1759 3500 
L 2913 3500 
L 2913 2700 
L 1759 2700 
L 1759 1216 
Q 1759 972 1856 886 
Q 1953 800 2241 800 
L 2816 800 
L 2816 0 
L 1856 0 
Q 1194 0 917 276 
Q 641 553 641 1216 
L 641 2700 
L 84 2700 
L 84 3500 
L 641 3500 
L 641 4494 
L 1759 4494 
z
" transform="scale(0.015625)"/>
       <path id="DejaVuSans-Bold-76" d="M 97 3500 
L 1216 3500 
L 2088 1081 
L 2956 3500 
L 4078 3500 
L 2700 0 
L 1472 0 
L 97 3500 
z
" transform="scale(0.015625)"/>
       <path id="DejaVuSans-Bold-79" d="M 78 3500 
L 1197 3500 
L 2138 1125 
L 2938 3500 
L 4056 3500 
L 2584 -331 
Q 2363 -916 2067 -1148 
Q 1772 -1381 1288 -1381 
L 641 -1381 
L 641 -647 
L 991 -647 
Q 1275 -647 1404 -556 
Q 1534 -466 1606 -231 
L 1638 -134 
L 78 3500 
z
" transform="scale(0.015625)"/>
       <path id="DejaVuSans-Bold-20" transform="scale(0.015625)"/>
       <path id="DejaVuSans-Bold-5b" d="M 550 4863 
L 2491 4863 
L 2491 4159 
L 1613 4159 
L 1613 -141 
L 2491 -141 
L 2491 -844 
L 550 -844 
L 550 4863 
z
" transform="scale(0.015625)"/>
       <path id="DejaVuSans-Bold-3a9" d="M 2719 4750 
Q 3841 4750 4480 4106 
Q 5119 3463 5119 2494 
Q 5119 1406 4306 909 
L 5266 909 
L 5266 0 
L 3125 0 
L 3125 975 
Q 3244 1041 3334 1131 
Q 3875 1678 3875 2466 
Q 3875 3066 3572 3472 
Q 3269 3878 2719 3878 
Q 2169 3878 1866 3472 
Q 1563 3066 1563 2466 
Q 1563 1678 2103 1131 
Q 2194 1041 2313 975 
L 2313 0 
L 172 0 
L 172 909 
L 1131 909 
Q 319 1406 319 2494 
Q 319 3463 958 4106 
Q 1597 4750 2719 4750 
z
" transform="scale(0.015625)"/>
       <path id="DejaVuSans-Bold-6d" d="M 3781 2919 
Q 3994 3244 4286 3414 
Q 4578 3584 4928 3584 
Q 5531 3584 5847 3212 
Q 6163 2841 6163 2131 
L 6163 0 
L 5038 0 
L 5038 1825 
Q 5041 1866 5042 1909 
Q 5044 1953 5044 2034 
Q 5044 2406 4934 2573 
Q 4825 2741 4581 2741 
Q 4263 2741 4089 2478 
Q 3916 2216 3909 1719 
L 3909 0 
L 2784 0 
L 2784 1825 
Q 2784 2406 2684 2573 
Q 2584 2741 2328 2741 
Q 2006 2741 1831 2477 
Q 1656 2213 1656 1722 
L 1656 0 
L 531 0 
L 531 3500 
L 1656 3500 
L 1656 2988 
Q 1863 3284 2130 3434 
Q 2397 3584 2719 3584 
Q 3081 3584 3359 3409 
Q 3638 3234 3781 2919 
z
" transform="scale(0.015625)"/>
       <path id="DejaVuSans-Bold-5d" d="M 2375 -844 
L 434 -844 
L 434 -141 
L 1313 -141 
L 1313 4159 
L 434 4159 
L 434 4863 
L 2375 4863 
L 2375 -844 
z
" transform="scale(0.015625)"/>
      </defs>
      <use xlink:href="#DejaVuSans-Bold-52" transform="translate(0 0.015625)"/>
      <use xlink:href="#DejaVuSans-Bold-65" transform="translate(77.001953 0.015625)"/>
      <use xlink:href="#DejaVuSans-Bold-73" transform="translate(144.824219 0.015625)"/>
      <use xlink:href="#DejaVuSans-Bold-69" transform="translate(204.345703 0.015625)"/>
      <use xlink:href="#DejaVuSans-Bold-73" transform="translate(238.623047 0.015625)"/>
      <use xlink:href="#DejaVuSans-Bold-74" transform="translate(298.144531 0.015625)"/>
      <use xlink:href="#DejaVuSans-Bold-69" transform="translate(345.947266 0.015625)"/>
      <use xlink:href="#DejaVuSans-Bold-76" transform="translate(380.224609 0.015625)"/>
      <use xlink:href="#DejaVuSans-Bold-69" transform="translate(445.410156 0.015625)"/>
      <use xlink:href="#DejaVuSans-Bold-74" transform="translate(479.6875 0.015625)"/>
      <use xlink:href="#DejaVuSans-Bold-79" transform="translate(527.490234 0.015625)"/>
      <use xlink:href="#DejaVuSans-Bold-20" transform="translate(592.675781 0.015625)"/>
      <use xlink:href="#DejaVuSans-Bold-20" transform="translate(627.490234 0.015625)"/>
      <use xlink:href="#DejaVuSans-Bold-5b" transform="translate(662.304688 0.015625)"/>
      <use xlink:href="#DejaVuSans-Bold-3a9" transform="translate(708.007812 0.015625)"/>
      <use xlink:href="#DejaVuSans-Bold-6d" transform="translate(793.017578 0.015625)"/>
      <use xlink:href="#DejaVuSans-Bold-5d" transform="translate(897.216797 0.015625)"/>
     </g>
    </g>
   </g>
   <g id="matplotlib.axis_2">
    <g id="ytick_1">
     <g id="line2d_4">
      <defs>
       <path id="ma980454525" d="M 0 0 
L -3.5 0 
" style="stroke: #000000; stroke-width: 1.5"/>
      </defs>
      <g>
       <use xlink:href="#ma980454525" x="74.00625" y="28.063636" style="stroke: #000000; stroke-width: 1.5"/>
      </g>
     </g>
     <g id="text_5">
      <!-- 0 -->
      <g transform="translate(54.28125 35.662074) scale(0.2 -0.2)">
       <use xlink:href="#DejaVuSans-30"/>
      </g>
     </g>
    </g>
    <g id="ytick_2">
     <g id="line2d_5">
      <g>
       <use xlink:href="#ma980454525" x="74.00625" y="116.845068" style="stroke: #000000; stroke-width: 1.5"/>
      </g>
     </g>
     <g id="text_6">
      <!-- 5 -->
      <g transform="translate(54.28125 124.443505) scale(0.2 -0.2)">
       <defs>
        <path id="DejaVuSans-35" d="M 691 4666 
L 3169 4666 
L 3169 4134 
L 1269 4134 
L 1269 2991 
Q 1406 3038 1543 3061 
Q 1681 3084 1819 3084 
Q 2600 3084 3056 2656 
Q 3513 2228 3513 1497 
Q 3513 744 3044 326 
Q 2575 -91 1722 -91 
Q 1428 -91 1123 -41 
Q 819 9 494 109 
L 494 744 
Q 775 591 1075 516 
Q 1375 441 1709 441 
Q 2250 441 2565 725 
Q 2881 1009 2881 1497 
Q 2881 1984 2565 2268 
Q 2250 2553 1709 2553 
Q 1456 2553 1204 2497 
Q 953 2441 691 2322 
L 691 4666 
z
" transform="scale(0.015625)"/>
       </defs>
       <use xlink:href="#DejaVuSans-35"/>
      </g>
     </g>
    </g>
    <g id="ytick_3">
     <g id="line2d_6">
      <g>
       <use xlink:href="#ma980454525" x="74.00625" y="205.626499" style="stroke: #000000; stroke-width: 1.5"/>
      </g>
     </g>
     <g id="text_7">
      <!-- 10 -->
      <g transform="translate(41.55625 213.224937) scale(0.2 -0.2)">
       <defs>
        <path id="DejaVuSans-31" d="M 794 531 
L 1825 531 
L 1825 4091 
L 703 3866 
L 703 4441 
L 1819 4666 
L 2450 4666 
L 2450 531 
L 3481 531 
L 3481 0 
L 794 0 
L 794 531 
z
" transform="scale(0.015625)"/>
       </defs>
       <use xlink:href="#DejaVuSans-31"/>
       <use xlink:href="#DejaVuSans-30" x="63.623047"/>
      </g>
     </g>
    </g>
    <g id="ytick_4">
     <g id="line2d_7">
      <g>
       <use xlink:href="#ma980454525" x="74.00625" y="294.40793" style="stroke: #000000; stroke-width: 1.5"/>
      </g>
     </g>
     <g id="text_8">
      <!-- 15 -->
      <g transform="translate(41.55625 302.006368) scale(0.2 -0.2)">
       <use xlink:href="#DejaVuSans-31"/>
       <use xlink:href="#DejaVuSans-35" x="63.623047"/>
      </g>
     </g>
    </g>
    <g id="ytick_5">
     <g id="line2d_8">
      <g>
       <use xlink:href="#ma980454525" x="74.00625" y="383.189362" style="stroke: #000000; stroke-width: 1.5"/>
      </g>
     </g>
     <g id="text_9">
      <!-- 20 -->
      <g transform="translate(41.55625 390.787799) scale(0.2 -0.2)">
       <defs>
        <path id="DejaVuSans-32" d="M 1228 531 
L 3431 531 
L 3431 0 
L 469 0 
L 469 531 
Q 828 903 1448 1529 
Q 2069 2156 2228 2338 
Q 2531 2678 2651 2914 
Q 2772 3150 2772 3378 
Q 2772 3750 2511 3984 
Q 2250 4219 1831 4219 
Q 1534 4219 1204 4116 
Q 875 4013 500 3803 
L 500 4441 
Q 881 4594 1212 4672 
Q 1544 4750 1819 4750 
Q 2544 4750 2975 4387 
Q 3406 4025 3406 3419 
Q 3406 3131 3298 2873 
Q 3191 2616 2906 2266 
Q 2828 2175 2409 1742 
Q 1991 1309 1228 531 
z
" transform="scale(0.015625)"/>
       </defs>
       <use xlink:href="#DejaVuSans-32"/>
       <use xlink:href="#DejaVuSans-30" x="63.623047"/>
      </g>
     </g>
    </g>
    <g id="text_10">
     <!-- Depth [m] -->
     <g transform="translate(22.396875 293.882812) rotate(-90) scale(0.2 -0.2)">
      <defs>
       <path id="DejaVuSans-Bold-44" d="M 1791 3756 
L 1791 909 
L 2222 909 
Q 2959 909 3348 1275 
Q 3738 1641 3738 2338 
Q 3738 3031 3350 3393 
Q 2963 3756 2222 3756 
L 1791 3756 
z
M 588 4666 
L 1856 4666 
Q 2919 4666 3439 4514 
Q 3959 4363 4331 4000 
Q 4659 3684 4818 3271 
Q 4978 2859 4978 2338 
Q 4978 1809 4818 1395 
Q 4659 981 4331 666 
Q 3956 303 3431 151 
Q 2906 0 1856 0 
L 588 0 
L 588 4666 
z
" transform="scale(0.015625)"/>
       <path id="DejaVuSans-Bold-70" d="M 1656 506 
L 1656 -1331 
L 538 -1331 
L 538 3500 
L 1656 3500 
L 1656 2988 
Q 1888 3294 2169 3439 
Q 2450 3584 2816 3584 
Q 3463 3584 3878 3070 
Q 4294 2556 4294 1747 
Q 4294 938 3878 423 
Q 3463 -91 2816 -91 
Q 2450 -91 2169 54 
Q 1888 200 1656 506 
z
M 2400 2772 
Q 2041 2772 1848 2508 
Q 1656 2244 1656 1747 
Q 1656 1250 1848 986 
Q 2041 722 2400 722 
Q 2759 722 2948 984 
Q 3138 1247 3138 1747 
Q 3138 2247 2948 2509 
Q 2759 2772 2400 2772 
z
" transform="scale(0.015625)"/>
       <path id="DejaVuSans-Bold-68" d="M 4056 2131 
L 4056 0 
L 2931 0 
L 2931 347 
L 2931 1625 
Q 2931 2084 2911 2256 
Q 2891 2428 2841 2509 
Q 2775 2619 2662 2680 
Q 2550 2741 2406 2741 
Q 2056 2741 1856 2470 
Q 1656 2200 1656 1722 
L 1656 0 
L 538 0 
L 538 4863 
L 1656 4863 
L 1656 2988 
Q 1909 3294 2193 3439 
Q 2478 3584 2822 3584 
Q 3428 3584 3742 3212 
Q 4056 2841 4056 2131 
z
" transform="scale(0.015625)"/>
      </defs>
      <use xlink:href="#DejaVuSans-Bold-44"/>
      <use xlink:href="#DejaVuSans-Bold-65" x="83.007812"/>
      <use xlink:href="#DejaVuSans-Bold-70" x="150.830078"/>
      <use xlink:href="#DejaVuSans-Bold-74" x="222.412109"/>
      <use xlink:href="#DejaVuSans-Bold-68" x="270.214844"/>
      <use xlink:href="#DejaVuSans-Bold-20" x="341.40625"/>
      <use xlink:href="#DejaVuSans-Bold-5b" x="376.220703"/>
      <use xlink:href="#DejaVuSans-Bold-6d" x="421.923828"/>
      <use xlink:href="#DejaVuSans-Bold-5d" x="526.123047"/>
     </g>
    </g>
   </g>
   <g id="line2d_9">
    <path d="M 180.479695 28.063636 
L 180.479695 36.941779 
L 180.410199 36.941779 
L 180.410199 45.819923 
L 192.219294 45.819923 
L 192.219294 54.698066 
L 199.306656 54.698066 
L 199.306656 63.576209 
L 196.287211 63.576209 
L 196.287211 72.454352 
L 217.906191 72.454352 
L 217.906191 81.332495 
L 225.364043 81.332495 
L 225.364043 90.210638 
L 209.898942 90.210638 
L 209.898942 99.088781 
L 222.852935 99.088781 
L 222.852935 107.966925 
L 237.00134 107.966925 
L 237.00134 116.845068 
L 225.462449 116.845068 
L 225.462449 125.723211 
L 221.714648 125.723211 
L 221.714648 134.601354 
L 200.12505 134.601354 
L 200.12505 143.479497 
L 243.504892 143.479497 
L 243.504892 152.35764 
L 248.27863 152.35764 
L 248.27863 161.235783 
L 284.604525 161.235783 
L 284.604525 170.113926 
L 319.082878 170.113926 
L 319.082878 178.99207 
L 297.193009 178.99207 
L 297.193009 187.870213 
L 289.516011 187.870213 
L 289.516011 196.748356 
L 294.570472 196.748356 
L 294.570472 205.626499 
L 263.596023 205.626499 
L 263.596023 214.504642 
L 282.757928 214.504642 
L 282.757928 223.382785 
L 268.07295 223.382785 
L 268.07295 232.260928 
L 245.761819 232.260928 
L 245.761819 241.139072 
L 235.57187 241.139072 
L 235.57187 250.017215 
L 259.194618 250.017215 
L 259.194618 258.895358 
L 229.603871 258.895358 
L 229.603871 267.773501 
L 199.589622 267.773501 
L 199.589622 276.651644 
L 203.406869 276.651644 
L 203.406869 285.529787 
L 221.41729 285.529787 
L 221.41729 294.40793 
L 248.946104 294.40793 
L 248.946104 303.286074 
L 235.823935 303.286074 
L 235.823935 312.164217 
L 248.888385 312.164217 
L 248.888385 321.04236 
L 247.554034 321.04236 
L 247.554034 329.920503 
L 235.932973 329.920503 
L 235.932973 338.798646 
L 233.491461 338.798646 
L 233.491461 347.676789 
L 237.585473 347.676789 
L 237.585473 356.554932 
L 259.617871 356.554932 
L 259.617871 365.433075 
L 220.343346 365.433075 
L 220.343346 374.311219 
L 191.636182 374.311219 
L 191.636182 383.189362 
L 141.390141 383.189362 
L 141.390141 392.067505 
L 134.758091 392.067505 
L 134.758091 400.945648 
L 112.618 400.945648 
L 112.618 409.823791 
L 98.076023 409.823791 
L 98.076023 418.701934 
L 114.144032 418.701934 
L 114.144032 427.580077 
L 100.873396 427.580077 
L 100.873396 436.458221 
L 116.611677 436.458221 
L 116.611677 445.336364 
L 138.345958 445.336364 
" clip-path="url(#pf390b8411f)" style="fill: none; stroke: #fecc5c; stroke-opacity: 0.3; stroke-width: 2; stroke-linecap: square"/>
   </g>
   <g id="line2d_10">
    <path d="M 196.382977 28.063636 
L 196.382977 36.941779 
L 174.065397 36.941779 
L 174.065397 45.819923 
L 189.564064 45.819923 
L 189.564064 54.698066 
L 192.125246 54.698066 
L 192.125246 63.576209 
L 200.742301 63.576209 
L 200.742301 72.454352 
L 215.994356 72.454352 
L 215.994356 81.332495 
L 221.420229 81.332495 
L 221.420229 90.210638 
L 222.200625 90.210638 
L 222.200625 99.088781 
L 248.598671 99.088781 
L 248.598671 107.966925 
L 246.50743 107.966925 
L 246.50743 116.845068 
L 232.960863 116.845068 
L 232.960863 125.723211 
L 230.36375 125.723211 
L 230.36375 134.601354 
L 246.42018 134.601354 
L 246.42018 143.479497 
L 200.951587 143.479497 
L 200.951587 152.35764 
L 200.242953 152.35764 
L 200.242953 161.235783 
L 210.271424 161.235783 
L 210.271424 170.113926 
L 231.209534 170.113926 
L 231.209534 178.99207 
L 238.268086 178.99207 
L 238.268086 187.870213 
L 277.351951 187.870213 
L 277.351951 196.748356 
L 271.689725 196.748356 
L 271.689725 205.626499 
L 305.956302 205.626499 
L 305.956302 214.504642 
L 311.471915 214.504642 
L 311.471915 223.382785 
L 316.006984 223.382785 
L 316.006984 232.260928 
L 337.384782 232.260928 
L 337.384782 241.139072 
L 302.425607 241.139072 
L 302.425607 250.017215 
L 281.688839 250.017215 
L 281.688839 258.895358 
L 284.109535 258.895358 
L 284.109535 267.773501 
L 281.704078 267.773501 
L 281.704078 276.651644 
L 299.883174 276.651644 
L 299.883174 285.529787 
L 287.751136 285.529787 
L 287.751136 294.40793 
L 274.940543 294.40793 
L 274.940543 303.286074 
L 260.117991 303.286074 
L 260.117991 312.164217 
L 237.727205 312.164217 
L 237.727205 321.04236 
L 203.747304 321.04236 
L 203.747304 329.920503 
L 157.716191 329.920503 
L 157.716191 338.798646 
L 162.716818 338.798646 
L 162.716818 347.676789 
L 160.43956 347.676789 
L 160.43956 356.554932 
L 138.947322 356.554932 
L 138.947322 365.433075 
L 96.278977 365.433075 
L 96.278977 374.311219 
L 142.087358 374.311219 
L 142.087358 383.189362 
L 140.735366 383.189362 
L 140.735366 392.067505 
L 141.862784 392.067505 
L 141.862784 400.945648 
L 139.938013 400.945648 
L 139.938013 409.823791 
L 141.210573 409.823791 
L 141.210573 418.701934 
L 144.188634 418.701934 
L 144.188634 427.580077 
L 148.948776 427.580077 
L 148.948776 436.458221 
L 141.087728 436.458221 
L 141.087728 445.336364 
L 137.562598 445.336364 
" clip-path="url(#pf390b8411f)" style="fill: none; stroke: #fecc5c; stroke-opacity: 0.3; stroke-width: 2; stroke-linecap: square"/>
   </g>
   <g id="line2d_11">
    <path d="M 185.232728 28.063636 
L 185.232728 36.941779 
L 174.171758 36.941779 
L 174.171758 45.819923 
L 196.961159 45.819923 
L 196.961159 54.698066 
L 200.642351 54.698066 
L 200.642351 63.576209 
L 202.253169 63.576209 
L 202.253169 72.454352 
L 208.583839 72.454352 
L 208.583839 81.332495 
L 212.634226 81.332495 
L 212.634226 90.210638 
L 228.511077 90.210638 
L 228.511077 99.088781 
L 232.792562 99.088781 
L 232.792562 107.966925 
L 235.24269 107.966925 
L 235.24269 116.845068 
L 254.425935 116.845068 
L 254.425935 125.723211 
L 234.826135 125.723211 
L 234.826135 134.601354 
L 234.124075 134.601354 
L 234.124075 143.479497 
L 206.373974 143.479497 
L 206.373974 152.35764 
L 194.387527 152.35764 
L 194.387527 161.235783 
L 209.641101 161.235783 
L 209.641101 170.113926 
L 233.707445 170.113926 
L 233.707445 178.99207 
L 254.432185 178.99207 
L 254.432185 187.870213 
L 254.17534 187.870213 
L 254.17534 196.748356 
L 280.208549 196.748356 
L 280.208549 205.626499 
L 305.224162 205.626499 
L 305.224162 214.504642 
L 333.503765 214.504642 
L 333.503765 223.382785 
L 339.3633 223.382785 
L 339.3633 232.260928 
L 340.63657 232.260928 
L 340.63657 241.139072 
L 310.795801 241.139072 
L 310.795801 250.017215 
L 283.839717 250.017215 
L 283.839717 258.895358 
L 255.116915 258.895358 
L 255.116915 267.773501 
L 253.849322 267.773501 
L 253.849322 276.651644 
L 235.865419 276.651644 
L 235.865419 285.529787 
L 220.145564 285.529787 
L 220.145564 294.40793 
L 242.356123 294.40793 
L 242.356123 303.286074 
L 230.639046 303.286074 
L 230.639046 312.164217 
L 203.363866 312.164217 
L 203.363866 321.04236 
L 217.055029 321.04236 
L 217.055029 329.920503 
L 206.373949 329.920503 
L 206.373949 338.798646 
L 234.586471 338.798646 
L 234.586471 347.676789 
L 229.574663 347.676789 
L 229.574663 356.554932 
L 188.697264 356.554932 
L 188.697264 365.433075 
L 195.317996 365.433075 
L 195.317996 374.311219 
L 161.512509 374.311219 
L 161.512509 383.189362 
L 171.257604 383.189362 
L 171.257604 392.067505 
L 154.20295 392.067505 
L 154.20295 400.945648 
L 144.968919 400.945648 
L 144.968919 409.823791 
L 133.086941 409.823791 
L 133.086941 418.701934 
L 149.190756 418.701934 
L 149.190756 427.580077 
L 141.764391 427.580077 
L 141.764391 436.458221 
L 117.417646 436.458221 
L 117.417646 445.336364 
L 133.218152 445.336364 
" clip-path="url(#pf390b8411f)" style="fill: none; stroke: #fecc5c; stroke-opacity: 0.3; stroke-width: 2; stroke-linecap: square"/>
   </g>
   <g id="line2d_12">
    <path d="M 166.748866 28.063636 
L 166.748866 36.941779 
L 188.46858 36.941779 
L 188.46858 45.819923 
L 198.173026 45.819923 
L 198.173026 54.698066 
L 190.457208 54.698066 
L 190.457208 63.576209 
L 208.455554 63.576209 
L 208.455554 72.454352 
L 205.634613 72.454352 
L 205.634613 81.332495 
L 237.895181 81.332495 
L 237.895181 90.210638 
L 218.796671 90.210638 
L 218.796671 99.088781 
L 193.283179 99.088781 
L 193.283179 107.966925 
L 217.894812 107.966925 
L 217.894812 116.845068 
L 232.321999 116.845068 
L 232.321999 125.723211 
L 218.340973 125.723211 
L 218.340973 134.601354 
L 247.906994 134.601354 
L 247.906994 143.479497 
L 234.91356 143.479497 
L 234.91356 152.35764 
L 278.299328 152.35764 
L 278.299328 161.235783 
L 266.980081 161.235783 
L 266.980081 170.113926 
L 310.124218 170.113926 
L 310.124218 178.99207 
L 304.929245 178.99207 
L 304.929245 187.870213 
L 295.756368 187.870213 
L 295.756368 196.748356 
L 279.514506 196.748356 
L 279.514506 205.626499 
L 278.699872 205.626499 
L 278.699872 214.504642 
L 269.271097 214.504642 
L 269.271097 223.382785 
L 273.019071 223.382785 
L 273.019071 232.260928 
L 268.758078 232.260928 
L 268.758078 241.139072 
L 236.427017 241.139072 
L 236.427017 250.017215 
L 264.964188 250.017215 
L 264.964188 258.895358 
L 227.86666 258.895358 
L 227.86666 267.773501 
L 225.267107 267.773501 
L 225.267107 276.651644 
L 218.257508 276.651644 
L 218.257508 285.529787 
L 236.217183 285.529787 
L 236.217183 294.40793 
L 227.056085 294.40793 
L 227.056085 303.286074 
L 199.583048 303.286074 
L 199.583048 312.164217 
L 219.589667 312.164217 
L 219.589667 321.04236 
L 200.150274 321.04236 
L 200.150274 329.920503 
L 199.490494 329.920503 
L 199.490494 338.798646 
L 168.444817 338.798646 
L 168.444817 347.676789 
L 169.81744 347.676789 
L 169.81744 356.554932 
L 160.886045 356.554932 
L 160.886045 365.433075 
L 175.687756 365.433075 
L 175.687756 374.311219 
L 172.492453 374.311219 
L 172.492453 383.189362 
L 191.851817 383.189362 
L 191.851817 392.067505 
L 172.373991 392.067505 
L 172.373991 400.945648 
L 151.185285 400.945648 
L 151.185285 409.823791 
L 153.412743 409.823791 
L 153.412743 418.701934 
L 175.369345 418.701934 
L 175.369345 427.580077 
L 176.653185 427.580077 
L 176.653185 436.458221 
L 151.24898 436.458221 
L 151.24898 445.336364 
L 138.56183 445.336364 
" clip-path="url(#pf390b8411f)" style="fill: none; stroke: #fecc5c; stroke-opacity: 0.3; stroke-width: 2; stroke-linecap: square"/>
   </g>
   <g id="line2d_13">
    <path d="M 177.214373 28.063636 
L 177.214373 36.941779 
L 188.878537 36.941779 
L 188.878537 45.819923 
L 188.633445 45.819923 
L 188.633445 54.698066 
L 186.397907 54.698066 
L 186.397907 63.576209 
L 203.732289 63.576209 
L 203.732289 72.454352 
L 218.858025 72.454352 
L 218.858025 81.332495 
L 215.428051 81.332495 
L 215.428051 90.210638 
L 232.290799 90.210638 
L 232.290799 99.088781 
L 237.932058 99.088781 
L 237.932058 107.966925 
L 219.745816 107.966925 
L 219.745816 116.845068 
L 200.571361 116.845068 
L 200.571361 125.723211 
L 236.141611 125.723211 
L 236.141611 134.601354 
L 250.194922 134.601354 
L 250.194922 143.479497 
L 244.402793 143.479497 
L 244.402793 152.35764 
L 259.094743 152.35764 
L 259.094743 161.235783 
L 236.454158 161.235783 
L 236.454158 170.113926 
L 242.936595 170.113926 
L 242.936595 178.99207 
L 247.854181 178.99207 
L 247.854181 187.870213 
L 291.38198 187.870213 
L 291.38198 196.748356 
L 299.259674 196.748356 
L 299.259674 205.626499 
L 305.844401 205.626499 
L 305.844401 214.504642 
L 298.040237 214.504642 
L 298.040237 223.382785 
L 289.936525 223.382785 
L 289.936525 232.260928 
L 278.939686 232.260928 
L 278.939686 241.139072 
L 267.431994 241.139072 
L 267.431994 250.017215 
L 267.881069 250.017215 
L 267.881069 258.895358 
L 272.737301 258.895358 
L 272.737301 267.773501 
L 255.85655 267.773501 
L 255.85655 276.651644 
L 221.378023 276.651644 
L 221.378023 285.529787 
L 236.710107 285.529787 
L 236.710107 294.40793 
L 201.571576 294.40793 
L 201.571576 303.286074 
L 206.397604 303.286074 
L 206.397604 312.164217 
L 204.509672 312.164217 
L 204.509672 321.04236 
L 210.478892 321.04236 
L 210.478892 329.920503 
L 213.397541 329.920503 
L 213.397541 338.798646 
L 236.168703 338.798646 
L 236.168703 347.676789 
L 220.186774 347.676789 
L 220.186774 356.554932 
L 201.47454 356.554932 
L 201.47454 365.433075 
L 173.23418 365.433075 
L 173.23418 374.311219 
L 170.422564 374.311219 
L 170.422564 383.189362 
L 140.192828 383.189362 
L 140.192828 392.067505 
L 144.988042 392.067505 
L 144.988042 400.945648 
L 165.326842 400.945648 
L 165.326842 409.823791 
L 132.719377 409.823791 
L 132.719377 418.701934 
L 156.058063 418.701934 
L 156.058063 427.580077 
L 117.254238 427.580077 
L 117.254238 436.458221 
L 132.518532 436.458221 
L 132.518532 445.336364 
L 134.81703 445.336364 
" clip-path="url(#pf390b8411f)" style="fill: none; stroke: #fecc5c; stroke-opacity: 0.3; stroke-width: 2; stroke-linecap: square"/>
   </g>
   <g id="line2d_14">
    <path d="M 195.745657 28.063636 
L 195.745657 36.941779 
L 157.40815 36.941779 
L 157.40815 45.819923 
L 217.42878 45.819923 
L 217.42878 54.698066 
L 215.136097 54.698066 
L 215.136097 63.576209 
L 175.606357 63.576209 
L 175.606357 72.454352 
L 201.506363 72.454352 
L 201.506363 81.332495 
L 191.902389 81.332495 
L 191.902389 90.210638 
L 222.310933 90.210638 
L 222.310933 99.088781 
L 245.954522 99.088781 
L 245.954522 107.966925 
L 231.586771 107.966925 
L 231.586771 116.845068 
L 262.02893 116.845068 
L 262.02893 125.723211 
L 257.576106 125.723211 
L 257.576106 134.601354 
L 235.647741 134.601354 
L 235.647741 143.479497 
L 234.597228 143.479497 
L 234.597228 152.35764 
L 259.282241 152.35764 
L 259.282241 161.235783 
L 268.198571 161.235783 
L 268.198571 170.113926 
L 270.065387 170.113926 
L 270.065387 178.99207 
L 277.464275 178.99207 
L 277.464275 187.870213 
L 327.713877 187.870213 
L 327.713877 196.748356 
L 295.544567 196.748356 
L 295.544567 205.626499 
L 276.842593 205.626499 
L 276.842593 214.504642 
L 260.263408 214.504642 
L 260.263408 223.382785 
L 273.805618 223.382785 
L 273.805618 232.260928 
L 228.854475 232.260928 
L 228.854475 241.139072 
L 179.27302 241.139072 
L 179.27302 250.017215 
L 217.756367 250.017215 
L 217.756367 258.895358 
L 188.738523 258.895358 
L 188.738523 267.773501 
L 202.619052 267.773501 
L 202.619052 276.651644 
L 221.570825 276.651644 
L 221.570825 285.529787 
L 205.959585 285.529787 
L 205.959585 294.40793 
L 217.282442 294.40793 
L 217.282442 303.286074 
L 230.079041 303.286074 
L 230.079041 312.164217 
L 248.270039 312.164217 
L 248.270039 321.04236 
L 255.571991 321.04236 
L 255.571991 329.920503 
L 244.719722 329.920503 
L 244.719722 338.798646 
L 220.103906 338.798646 
L 220.103906 347.676789 
L 172.991864 347.676789 
L 172.991864 356.554932 
L 190.303549 356.554932 
L 190.303549 365.433075 
L 197.734633 365.433075 
L 197.734633 374.311219 
L 183.281264 374.311219 
L 183.281264 383.189362 
L 198.283558 383.189362 
L 198.283558 392.067505 
L 152.811902 392.067505 
L 152.811902 400.945648 
L 181.471121 400.945648 
L 181.471121 409.823791 
L 160.61177 409.823791 
L 160.61177 418.701934 
L 185.374024 418.701934 
L 185.374024 427.580077 
L 222.06731 427.580077 
L 222.06731 436.458221 
L 159.096494 436.458221 
L 159.096494 445.336364 
L 132.731939 445.336364 
" clip-path="url(#pf390b8411f)" style="fill: none; stroke: #fecc5c; stroke-opacity: 0.3; stroke-width: 2; stroke-linecap: square"/>
   </g>
   <g id="line2d_15">
    <path d="M 186.612521 28.063636 
L 186.612521 36.941779 
L 180.398844 36.941779 
L 180.398844 45.819923 
L 185.111501 45.819923 
L 185.111501 54.698066 
L 194.799127 54.698066 
L 194.799127 63.576209 
L 217.437321 63.576209 
L 217.437321 72.454352 
L 223.948966 72.454352 
L 223.948966 81.332495 
L 229.366248 81.332495 
L 229.366248 90.210638 
L 211.870463 90.210638 
L 211.870463 99.088781 
L 202.566637 99.088781 
L 202.566637 107.966925 
L 219.955849 107.966925 
L 219.955849 116.845068 
L 222.815535 116.845068 
L 222.815535 125.723211 
L 212.281914 125.723211 
L 212.281914 134.601354 
L 280.211736 134.601354 
L 280.211736 143.479497 
L 271.693361 143.479497 
L 271.693361 152.35764 
L 285.159949 152.35764 
L 285.159949 161.235783 
L 252.96559 161.235783 
L 252.96559 170.113926 
L 255.039998 170.113926 
L 255.039998 178.99207 
L 220.118946 178.99207 
L 220.118946 187.870213 
L 225.912345 187.870213 
L 225.912345 196.748356 
L 265.094291 196.748356 
L 265.094291 205.626499 
L 277.467089 205.626499 
L 277.467089 214.504642 
L 286.719746 214.504642 
L 286.719746 223.382785 
L 303.156825 223.382785 
L 303.156825 232.260928 
L 273.015187 232.260928 
L 273.015187 241.139072 
L 246.66079 241.139072 
L 246.66079 250.017215 
L 250.010013 250.017215 
L 250.010013 258.895358 
L 250.450572 258.895358 
L 250.450572 267.773501 
L 222.110686 267.773501 
L 222.110686 276.651644 
L 251.252209 276.651644 
L 251.252209 285.529787 
L 271.401431 285.529787 
L 271.401431 294.40793 
L 253.314914 294.40793 
L 253.314914 303.286074 
L 254.416498 303.286074 
L 254.416498 312.164217 
L 222.517579 312.164217 
L 222.517579 321.04236 
L 238.955605 321.04236 
L 238.955605 329.920503 
L 236.884757 329.920503 
L 236.884757 338.798646 
L 202.448809 338.798646 
L 202.448809 347.676789 
L 184.047654 347.676789 
L 184.047654 356.554932 
L 189.273777 356.554932 
L 189.273777 365.433075 
L 196.576651 365.433075 
L 196.576651 374.311219 
L 171.257093 374.311219 
L 171.257093 383.189362 
L 172.349999 383.189362 
L 172.349999 392.067505 
L 149.744735 392.067505 
L 149.744735 400.945648 
L 159.074719 400.945648 
L 159.074719 409.823791 
L 158.151632 409.823791 
L 158.151632 418.701934 
L 152.501733 418.701934 
L 152.501733 427.580077 
L 164.808943 427.580077 
L 164.808943 436.458221 
L 133.894665 436.458221 
L 133.894665 445.336364 
L 131.520284 445.336364 
" clip-path="url(#pf390b8411f)" style="fill: none; stroke: #fecc5c; stroke-opacity: 0.3; stroke-width: 2; stroke-linecap: square"/>
   </g>
   <g id="line2d_16">
    <path d="M 186.792599 28.063636 
L 186.792599 36.941779 
L 172.215127 36.941779 
L 172.215127 45.819923 
L 199.45287 45.819923 
L 199.45287 54.698066 
L 204.260023 54.698066 
L 204.260023 63.576209 
L 223.144666 63.576209 
L 223.144666 72.454352 
L 214.899321 72.454352 
L 214.899321 81.332495 
L 199.540917 81.332495 
L 199.540917 90.210638 
L 205.385636 90.210638 
L 205.385636 99.088781 
L 184.467508 99.088781 
L 184.467508 107.966925 
L 248.083313 107.966925 
L 248.083313 116.845068 
L 196.865617 116.845068 
L 196.865617 125.723211 
L 233.271741 125.723211 
L 233.271741 134.601354 
L 248.473598 134.601354 
L 248.473598 143.479497 
L 251.149122 143.479497 
L 251.149122 152.35764 
L 262.866522 152.35764 
L 262.866522 161.235783 
L 280.457999 161.235783 
L 280.457999 170.113926 
L 328.639541 170.113926 
L 328.639541 178.99207 
L 320.654079 178.99207 
L 320.654079 187.870213 
L 312.078135 187.870213 
L 312.078135 196.748356 
L 317.768124 196.748356 
L 317.768124 205.626499 
L 273.338391 205.626499 
L 273.338391 214.504642 
L 239.279581 214.504642 
L 239.279581 223.382785 
L 230.829059 223.382785 
L 230.829059 232.260928 
L 229.152207 232.260928 
L 229.152207 241.139072 
L 245.973595 241.139072 
L 245.973595 250.017215 
L 235.977942 250.017215 
L 235.977942 258.895358 
L 200.614115 258.895358 
L 200.614115 267.773501 
L 207.930982 267.773501 
L 207.930982 276.651644 
L 213.906526 276.651644 
L 213.906526 285.529787 
L 234.585375 285.529787 
L 234.585375 294.40793 
L 254.361892 294.40793 
L 254.361892 303.286074 
L 248.428006 303.286074 
L 248.428006 312.164217 
L 220.01561 312.164217 
L 220.01561 321.04236 
L 224.082182 321.04236 
L 224.082182 329.920503 
L 242.604153 329.920503 
L 242.604153 338.798646 
L 220.205299 338.798646 
L 220.205299 347.676789 
L 194.303065 347.676789 
L 194.303065 356.554932 
L 204.963453 356.554932 
L 204.963453 365.433075 
L 219.199606 365.433075 
L 219.199606 374.311219 
L 186.157545 374.311219 
L 186.157545 383.189362 
L 154.89378 383.189362 
L 154.89378 392.067505 
L 157.165822 392.067505 
L 157.165822 400.945648 
L 136.499896 400.945648 
L 136.499896 409.823791 
L 138.892317 409.823791 
L 138.892317 418.701934 
L 158.516968 418.701934 
L 158.516968 427.580077 
L 158.702113 427.580077 
L 158.702113 436.458221 
L 147.500881 436.458221 
L 147.500881 445.336364 
L 133.748899 445.336364 
" clip-path="url(#pf390b8411f)" style="fill: none; stroke: #fecc5c; stroke-opacity: 0.3; stroke-width: 2; stroke-linecap: square"/>
   </g>
   <g id="line2d_17">
    <path d="M 173.845043 28.063636 
L 173.845043 36.941779 
L 184.310127 36.941779 
L 184.310127 45.819923 
L 194.202668 45.819923 
L 194.202668 54.698066 
L 200.778655 54.698066 
L 200.778655 63.576209 
L 229.967737 63.576209 
L 229.967737 72.454352 
L 212.203902 72.454352 
L 212.203902 81.332495 
L 199.361138 81.332495 
L 199.361138 90.210638 
L 189.077166 90.210638 
L 189.077166 99.088781 
L 167.061662 99.088781 
L 167.061662 107.966925 
L 219.477816 107.966925 
L 219.477816 116.845068 
L 252.28955 116.845068 
L 252.28955 125.723211 
L 257.296129 125.723211 
L 257.296129 134.601354 
L 262.670608 134.601354 
L 262.670608 143.479497 
L 252.919026 143.479497 
L 252.919026 152.35764 
L 275.874623 152.35764 
L 275.874623 161.235783 
L 245.193149 161.235783 
L 245.193149 170.113926 
L 257.838704 170.113926 
L 257.838704 178.99207 
L 296.111395 178.99207 
L 296.111395 187.870213 
L 299.943582 187.870213 
L 299.943582 196.748356 
L 317.763916 196.748356 
L 317.763916 205.626499 
L 279.241077 205.626499 
L 279.241077 214.504642 
L 300.187952 214.504642 
L 300.187952 223.382785 
L 295.544667 223.382785 
L 295.544667 232.260928 
L 272.922907 232.260928 
L 272.922907 241.139072 
L 290.915301 241.139072 
L 290.915301 250.017215 
L 260.602175 250.017215 
L 260.602175 258.895358 
L 272.437104 258.895358 
L 272.437104 267.773501 
L 261.433069 267.773501 
L 261.433069 276.651644 
L 242.5801 276.651644 
L 242.5801 285.529787 
L 229.702177 285.529787 
L 229.702177 294.40793 
L 217.235057 294.40793 
L 217.235057 303.286074 
L 207.176158 303.286074 
L 207.176158 312.164217 
L 216.026925 312.164217 
L 216.026925 321.04236 
L 201.113712 321.04236 
L 201.113712 329.920503 
L 193.50484 329.920503 
L 193.50484 338.798646 
L 171.285093 338.798646 
L 171.285093 347.676789 
L 180.275377 347.676789 
L 180.275377 356.554932 
L 160.824131 356.554932 
L 160.824131 365.433075 
L 141.709934 365.433075 
L 141.709934 374.311219 
L 129.203273 374.311219 
L 129.203273 383.189362 
L 154.513318 383.189362 
L 154.513318 392.067505 
L 130.071343 392.067505 
L 130.071343 400.945648 
L 151.708687 400.945648 
L 151.708687 409.823791 
L 126.453559 409.823791 
L 126.453559 418.701934 
L 152.93024 418.701934 
L 152.93024 427.580077 
L 162.927162 427.580077 
L 162.927162 436.458221 
L 138.427082 436.458221 
L 138.427082 445.336364 
L 135.932819 445.336364 
" clip-path="url(#pf390b8411f)" style="fill: none; stroke: #fecc5c; stroke-opacity: 0.3; stroke-width: 2; stroke-linecap: square"/>
   </g>
   <g id="line2d_18">
    <path d="M 168.842672 28.063636 
L 168.842672 36.941779 
L 180.890087 36.941779 
L 180.890087 45.819923 
L 208.475847 45.819923 
L 208.475847 54.698066 
L 197.033594 54.698066 
L 197.033594 63.576209 
L 183.978954 63.576209 
L 183.978954 72.454352 
L 206.136824 72.454352 
L 206.136824 81.332495 
L 227.051204 81.332495 
L 227.051204 90.210638 
L 220.644713 90.210638 
L 220.644713 99.088781 
L 218.372696 99.088781 
L 218.372696 107.966925 
L 236.297611 107.966925 
L 236.297611 116.845068 
L 212.11817 116.845068 
L 212.11817 125.723211 
L 221.099863 125.723211 
L 221.099863 134.601354 
L 229.832753 134.601354 
L 229.832753 143.479497 
L 255.979383 143.479497 
L 255.979383 152.35764 
L 286.043631 152.35764 
L 286.043631 161.235783 
L 295.658162 161.235783 
L 295.658162 170.113926 
L 287.926184 170.113926 
L 287.926184 178.99207 
L 301.735498 178.99207 
L 301.735498 187.870213 
L 299.696298 187.870213 
L 299.696298 196.748356 
L 286.55518 196.748356 
L 286.55518 205.626499 
L 269.929233 205.626499 
L 269.929233 214.504642 
L 252.149785 214.504642 
L 252.149785 223.382785 
L 247.892527 223.382785 
L 247.892527 232.260928 
L 206.368047 232.260928 
L 206.368047 241.139072 
L 225.298232 241.139072 
L 225.298232 250.017215 
L 232.041673 250.017215 
L 232.041673 258.895358 
L 221.357505 258.895358 
L 221.357505 267.773501 
L 232.238857 267.773501 
L 232.238857 276.651644 
L 223.558482 276.651644 
L 223.558482 285.529787 
L 204.974609 285.529787 
L 204.974609 294.40793 
L 205.948928 294.40793 
L 205.948928 303.286074 
L 242.110283 303.286074 
L 242.110283 312.164217 
L 219.725448 312.164217 
L 219.725448 321.04236 
L 228.666404 321.04236 
L 228.666404 329.920503 
L 252.417811 329.920503 
L 252.417811 338.798646 
L 224.623487 338.798646 
L 224.623487 347.676789 
L 214.082719 347.676789 
L 214.082719 356.554932 
L 213.723808 356.554932 
L 213.723808 365.433075 
L 195.938359 365.433075 
L 195.938359 374.311219 
L 162.082013 374.311219 
L 162.082013 383.189362 
L 182.348864 383.189362 
L 182.348864 392.067505 
L 147.408028 392.067505 
L 147.408028 400.945648 
L 141.773193 400.945648 
L 141.773193 409.823791 
L 128.094692 409.823791 
L 128.094692 418.701934 
L 144.098882 418.701934 
L 144.098882 427.580077 
L 180.346467 427.580077 
L 180.346467 436.458221 
L 155.586217 436.458221 
L 155.586217 445.336364 
L 134.879554 445.336364 
" clip-path="url(#pf390b8411f)" style="fill: none; stroke: #fecc5c; stroke-opacity: 0.3; stroke-width: 2; stroke-linecap: square"/>
   </g>
   <g id="line2d_19">
    <path d="M 184.578401 28.063636 
L 184.578401 36.941779 
L 178.25398 36.941779 
L 178.25398 45.819923 
L 177.284106 45.819923 
L 177.284106 54.698066 
L 216.792232 54.698066 
L 216.792232 63.576209 
L 221.534172 63.576209 
L 221.534172 72.454352 
L 195.434131 72.454352 
L 195.434131 81.332495 
L 197.304433 81.332495 
L 197.304433 90.210638 
L 226.706188 90.210638 
L 226.706188 99.088781 
L 227.279141 99.088781 
L 227.279141 107.966925 
L 247.947681 107.966925 
L 247.947681 116.845068 
L 241.412356 116.845068 
L 241.412356 125.723211 
L 229.994156 125.723211 
L 229.994156 134.601354 
L 211.110684 134.601354 
L 211.110684 143.479497 
L 219.457696 143.479497 
L 219.457696 152.35764 
L 259.344293 152.35764 
L 259.344293 161.235783 
L 252.689248 161.235783 
L 252.689248 170.113926 
L 236.262228 170.113926 
L 236.262228 178.99207 
L 255.208971 178.99207 
L 255.208971 187.870213 
L 260.254095 187.870213 
L 260.254095 196.748356 
L 269.718179 196.748356 
L 269.718179 205.626499 
L 259.389337 205.626499 
L 259.389337 214.504642 
L 283.320423 214.504642 
L 283.320423 223.382785 
L 275.440215 223.382785 
L 275.440215 232.260928 
L 274.060919 232.260928 
L 274.060919 241.139072 
L 256.866974 241.139072 
L 256.866974 250.017215 
L 264.050476 250.017215 
L 264.050476 258.895358 
L 258.476347 258.895358 
L 258.476347 267.773501 
L 281.197683 267.773501 
L 281.197683 276.651644 
L 285.049616 276.651644 
L 285.049616 285.529787 
L 280.480708 285.529787 
L 280.480708 294.40793 
L 285.51012 294.40793 
L 285.51012 303.286074 
L 289.661975 303.286074 
L 289.661975 312.164217 
L 275.103863 312.164217 
L 275.103863 321.04236 
L 265.392471 321.04236 
L 265.392471 329.920503 
L 218.972267 329.920503 
L 218.972267 338.798646 
L 181.359779 338.798646 
L 181.359779 347.676789 
L 162.345009 347.676789 
L 162.345009 356.554932 
L 174.508434 356.554932 
L 174.508434 365.433075 
L 151.541818 365.433075 
L 151.541818 374.311219 
L 157.205339 374.311219 
L 157.205339 383.189362 
L 159.041092 383.189362 
L 159.041092 392.067505 
L 119.313022 392.067505 
L 119.313022 400.945648 
L 121.462791 400.945648 
L 121.462791 409.823791 
L 135.179726 409.823791 
L 135.179726 418.701934 
L 138.710982 418.701934 
L 138.710982 427.580077 
L 143.45881 427.580077 
L 143.45881 436.458221 
L 147.84967 436.458221 
L 147.84967 445.336364 
L 135.48062 445.336364 
" clip-path="url(#pf390b8411f)" style="fill: none; stroke: #fecc5c; stroke-opacity: 0.3; stroke-width: 2; stroke-linecap: square"/>
   </g>
   <g id="line2d_20">
    <path d="M 159.236894 28.063636 
L 159.236894 36.941779 
L 189.318249 36.941779 
L 189.318249 45.819923 
L 195.719113 45.819923 
L 195.719113 54.698066 
L 200.628681 54.698066 
L 200.628681 63.576209 
L 210.054568 63.576209 
L 210.054568 72.454352 
L 202.315145 72.454352 
L 202.315145 81.332495 
L 210.277425 81.332495 
L 210.277425 90.210638 
L 217.086502 90.210638 
L 217.086502 99.088781 
L 221.822267 99.088781 
L 221.822267 107.966925 
L 231.40002 107.966925 
L 231.40002 116.845068 
L 247.363399 116.845068 
L 247.363399 125.723211 
L 274.28898 125.723211 
L 274.28898 134.601354 
L 241.464198 134.601354 
L 241.464198 143.479497 
L 217.078983 143.479497 
L 217.078983 152.35764 
L 246.607305 152.35764 
L 246.607305 161.235783 
L 251.177259 161.235783 
L 251.177259 170.113926 
L 275.371665 170.113926 
L 275.371665 178.99207 
L 275.023436 178.99207 
L 275.023436 187.870213 
L 290.098426 187.870213 
L 290.098426 196.748356 
L 299.607828 196.748356 
L 299.607828 205.626499 
L 270.611349 205.626499 
L 270.611349 214.504642 
L 265.166103 214.504642 
L 265.166103 223.382785 
L 248.755219 223.382785 
L 248.755219 232.260928 
L 274.727597 232.260928 
L 274.727597 241.139072 
L 280.064227 241.139072 
L 280.064227 250.017215 
L 283.84766 250.017215 
L 283.84766 258.895358 
L 284.563739 258.895358 
L 284.563739 267.773501 
L 275.573431 267.773501 
L 275.573431 276.651644 
L 225.345169 276.651644 
L 225.345169 285.529787 
L 227.396047 285.529787 
L 227.396047 294.40793 
L 189.099202 294.40793 
L 189.099202 303.286074 
L 186.225448 303.286074 
L 186.225448 312.164217 
L 180.845939 312.164217 
L 180.845939 321.04236 
L 194.517655 321.04236 
L 194.517655 329.920503 
L 168.746458 329.920503 
L 168.746458 338.798646 
L 160.672464 338.798646 
L 160.672464 347.676789 
L 138.019105 347.676789 
L 138.019105 356.554932 
L 138.468379 356.554932 
L 138.468379 365.433075 
L 177.159033 365.433075 
L 177.159033 374.311219 
L 193.62969 374.311219 
L 193.62969 383.189362 
L 202.865788 383.189362 
L 202.865788 392.067505 
L 185.066594 392.067505 
L 185.066594 400.945648 
L 204.725333 400.945648 
L 204.725333 409.823791 
L 223.31202 409.823791 
L 223.31202 418.701934 
L 179.416009 418.701934 
L 179.416009 427.580077 
L 162.991978 427.580077 
L 162.991978 436.458221 
L 155.97903 436.458221 
L 155.97903 445.336364 
L 135.381168 445.336364 
" clip-path="url(#pf390b8411f)" style="fill: none; stroke: #fecc5c; stroke-opacity: 0.3; stroke-width: 2; stroke-linecap: square"/>
   </g>
   <g id="line2d_21">
    <path d="M 181.924976 28.063636 
L 181.924976 36.941779 
L 179.948661 36.941779 
L 179.948661 45.819923 
L 187.503226 45.819923 
L 187.503226 54.698066 
L 201.443963 54.698066 
L 201.443963 63.576209 
L 215.412314 63.576209 
L 215.412314 72.454352 
L 206.943017 72.454352 
L 206.943017 81.332495 
L 211.858038 81.332495 
L 211.858038 90.210638 
L 215.0292 90.210638 
L 215.0292 99.088781 
L 233.326572 99.088781 
L 233.326572 107.966925 
L 229.510196 107.966925 
L 229.510196 116.845068 
L 230.797859 116.845068 
L 230.797859 125.723211 
L 251.183758 125.723211 
L 251.183758 134.601354 
L 228.216234 134.601354 
L 228.216234 143.479497 
L 237.576857 143.479497 
L 237.576857 152.35764 
L 229.249616 152.35764 
L 229.249616 161.235783 
L 236.780849 161.235783 
L 236.780849 170.113926 
L 243.40564 170.113926 
L 243.40564 178.99207 
L 279.399841 178.99207 
L 279.399841 187.870213 
L 288.999456 187.870213 
L 288.999456 196.748356 
L 285.885117 196.748356 
L 285.885117 205.626499 
L 284.25174 205.626499 
L 284.25174 214.504642 
L 293.303352 214.504642 
L 293.303352 223.382785 
L 254.529644 223.382785 
L 254.529644 232.260928 
L 246.033455 232.260928 
L 246.033455 241.139072 
L 246.02616 241.139072 
L 246.02616 250.017215 
L 258.557646 250.017215 
L 258.557646 258.895358 
L 295.356546 258.895358 
L 295.356546 267.773501 
L 278.392006 267.773501 
L 278.392006 276.651644 
L 249.19147 276.651644 
L 249.19147 285.529787 
L 278.50326 285.529787 
L 278.50326 294.40793 
L 281.472332 294.40793 
L 281.472332 303.286074 
L 269.43362 303.286074 
L 269.43362 312.164217 
L 225.063921 312.164217 
L 225.063921 321.04236 
L 201.781559 321.04236 
L 201.781559 329.920503 
L 171.730259 329.920503 
L 171.730259 338.798646 
L 192.183089 338.798646 
L 192.183089 347.676789 
L 197.989138 347.676789 
L 197.989138 356.554932 
L 181.6571 356.554932 
L 181.6571 365.433075 
L 204.894878 365.433075 
L 204.894878 374.311219 
L 160.838287 374.311219 
L 160.838287 383.189362 
L 185.309844 383.189362 
L 185.309844 392.067505 
L 117.338326 392.067505 
L 117.338326 400.945648 
L 114.274945 400.945648 
L 114.274945 409.823791 
L 108.751251 409.823791 
L 108.751251 418.701934 
L 108.101568 418.701934 
L 108.101568 427.580077 
L 140.7081 427.580077 
L 140.7081 436.458221 
L 146.668767 436.458221 
L 146.668767 445.336364 
L 136.604539 445.336364 
" clip-path="url(#pf390b8411f)" style="fill: none; stroke: #fecc5c; stroke-opacity: 0.3; stroke-width: 2; stroke-linecap: square"/>
   </g>
   <g id="line2d_22">
    <path d="M 168.605996 28.063636 
L 168.605996 36.941779 
L 184.180596 36.941779 
L 184.180596 45.819923 
L 207.920474 45.819923 
L 207.920474 54.698066 
L 210.59281 54.698066 
L 210.59281 63.576209 
L 186.229681 63.576209 
L 186.229681 72.454352 
L 203.157369 72.454352 
L 203.157369 81.332495 
L 187.895478 81.332495 
L 187.895478 90.210638 
L 211.600222 90.210638 
L 211.600222 99.088781 
L 211.331275 99.088781 
L 211.331275 107.966925 
L 248.180523 107.966925 
L 248.180523 116.845068 
L 240.257063 116.845068 
L 240.257063 125.723211 
L 250.892102 125.723211 
L 250.892102 134.601354 
L 283.418057 134.601354 
L 283.418057 143.479497 
L 256.228011 143.479497 
L 256.228011 152.35764 
L 279.205346 152.35764 
L 279.205346 161.235783 
L 277.84592 161.235783 
L 277.84592 170.113926 
L 295.575593 170.113926 
L 295.575593 178.99207 
L 267.692899 178.99207 
L 267.692899 187.870213 
L 273.633583 187.870213 
L 273.633583 196.748356 
L 288.327276 196.748356 
L 288.327276 205.626499 
L 258.565166 205.626499 
L 258.565166 214.504642 
L 245.081522 214.504642 
L 245.081522 223.382785 
L 213.629711 223.382785 
L 213.629711 232.260928 
L 207.689126 232.260928 
L 207.689126 241.139072 
L 240.406489 241.139072 
L 240.406489 250.017215 
L 258.976766 250.017215 
L 258.976766 258.895358 
L 229.516969 258.895358 
L 229.516969 267.773501 
L 223.170836 267.773501 
L 223.170836 276.651644 
L 236.076199 276.651644 
L 236.076199 285.529787 
L 216.847112 285.529787 
L 216.847112 294.40793 
L 192.376788 294.40793 
L 192.376788 303.286074 
L 209.419016 303.286074 
L 209.419016 312.164217 
L 195.105922 312.164217 
L 195.105922 321.04236 
L 189.474398 321.04236 
L 189.474398 329.920503 
L 174.724455 329.920503 
L 174.724455 338.798646 
L 164.219158 338.798646 
L 164.219158 347.676789 
L 222.716432 347.676789 
L 222.716432 356.554932 
L 228.299674 356.554932 
L 228.299674 365.433075 
L 252.43422 365.433075 
L 252.43422 374.311219 
L 232.838603 374.311219 
L 232.838603 383.189362 
L 237.797921 383.189362 
L 237.797921 392.067505 
L 231.367899 392.067505 
L 231.367899 400.945648 
L 221.962455 400.945648 
L 221.962455 409.823791 
L 218.838827 409.823791 
L 218.838827 418.701934 
L 188.304712 418.701934 
L 188.304712 427.580077 
L 173.451957 427.580077 
L 173.451957 436.458221 
L 124.670905 436.458221 
L 124.670905 445.336364 
L 131.675188 445.336364 
" clip-path="url(#pf390b8411f)" style="fill: none; stroke: #fecc5c; stroke-opacity: 0.3; stroke-width: 2; stroke-linecap: square"/>
   </g>
   <g id="line2d_23">
    <path d="M 167.745596 28.063636 
L 167.745596 36.941779 
L 185.410615 36.941779 
L 185.410615 45.819923 
L 210.30118 45.819923 
L 210.30118 54.698066 
L 174.642895 54.698066 
L 174.642895 63.576209 
L 212.65828 63.576209 
L 212.65828 72.454352 
L 216.676845 72.454352 
L 216.676845 81.332495 
L 208.542455 81.332495 
L 208.542455 90.210638 
L 234.815826 90.210638 
L 234.815826 99.088781 
L 239.795413 99.088781 
L 239.795413 107.966925 
L 262.124372 107.966925 
L 262.124372 116.845068 
L 210.300955 116.845068 
L 210.300955 125.723211 
L 227.678888 125.723211 
L 227.678888 134.601354 
L 200.041933 134.601354 
L 200.041933 143.479497 
L 235.53086 143.479497 
L 235.53086 152.35764 
L 231.428381 152.35764 
L 231.428381 161.235783 
L 210.000336 161.235783 
L 210.000336 170.113926 
L 267.31845 170.113926 
L 267.31845 178.99207 
L 297.796838 178.99207 
L 297.796838 187.870213 
L 292.225623 187.870213 
L 292.225623 196.748356 
L 266.11348 196.748356 
L 266.11348 205.626499 
L 285.576454 205.626499 
L 285.576454 214.504642 
L 290.899564 214.504642 
L 290.899564 223.382785 
L 290.433283 223.382785 
L 290.433283 232.260928 
L 288.238283 232.260928 
L 288.238283 241.139072 
L 296.182062 241.139072 
L 296.182062 250.017215 
L 305.023815 250.017215 
L 305.023815 258.895358 
L 295.452387 258.895358 
L 295.452387 267.773501 
L 251.234853 267.773501 
L 251.234853 276.651644 
L 246.424239 276.651644 
L 246.424239 285.529787 
L 246.260744 285.529787 
L 246.260744 294.40793 
L 228.0002 294.40793 
L 228.0002 303.286074 
L 212.487664 303.286074 
L 212.487664 312.164217 
L 206.79277 312.164217 
L 206.79277 321.04236 
L 163.336447 321.04236 
L 163.336447 329.920503 
L 154.573477 329.920503 
L 154.573477 338.798646 
L 177.439558 338.798646 
L 177.439558 347.676789 
L 184.926468 347.676789 
L 184.926468 356.554932 
L 178.966213 356.554932 
L 178.966213 365.433075 
L 195.904919 365.433075 
L 195.904919 374.311219 
L 200.923649 374.311219 
L 200.923649 383.189362 
L 198.643017 383.189362 
L 198.643017 392.067505 
L 206.735748 392.067505 
L 206.735748 400.945648 
L 191.541437 400.945648 
L 191.541437 409.823791 
L 158.128923 409.823791 
L 158.128923 418.701934 
L 129.509122 418.701934 
L 129.509122 427.580077 
L 139.789184 427.580077 
L 139.789184 436.458221 
L 136.333538 436.458221 
L 136.333538 445.336364 
L 134.243218 445.336364 
" clip-path="url(#pf390b8411f)" style="fill: none; stroke: #fecc5c; stroke-opacity: 0.3; stroke-width: 2; stroke-linecap: square"/>
   </g>
   <g id="line2d_24">
    <path d="M 182.769217 28.063636 
L 182.769217 36.941779 
L 179.347907 36.941779 
L 179.347907 45.819923 
L 187.030595 45.819923 
L 187.030595 54.698066 
L 203.464288 54.698066 
L 203.464288 63.576209 
L 220.01419 63.576209 
L 220.01419 72.454352 
L 195.636943 72.454352 
L 195.636943 81.332495 
L 218.131488 81.332495 
L 218.131488 90.210638 
L 204.305815 90.210638 
L 204.305815 99.088781 
L 209.765253 99.088781 
L 209.765253 107.966925 
L 194.891257 107.966925 
L 194.891257 116.845068 
L 236.254608 116.845068 
L 236.254608 125.723211 
L 257.916467 125.723211 
L 257.916467 134.601354 
L 236.524252 134.601354 
L 236.524252 143.479497 
L 252.871467 143.479497 
L 252.871467 152.35764 
L 263.301553 152.35764 
L 263.301553 161.235783 
L 272.794745 161.235783 
L 272.794745 170.113926 
L 284.744514 170.113926 
L 284.744514 178.99207 
L 274.975752 178.99207 
L 274.975752 187.870213 
L 300.090219 187.870213 
L 300.090219 196.748356 
L 272.206927 196.748356 
L 272.206927 205.626499 
L 283.126277 205.626499 
L 283.126277 214.504642 
L 266.319156 214.504642 
L 266.319156 223.382785 
L 261.858439 223.382785 
L 261.858439 232.260928 
L 292.779328 232.260928 
L 292.779328 241.139072 
L 274.083977 241.139072 
L 274.083977 250.017215 
L 248.145538 250.017215 
L 248.145538 258.895358 
L 248.372105 258.895358 
L 248.372105 267.773501 
L 238.568133 267.773501 
L 238.568133 276.651644 
L 201.743213 276.651644 
L 201.743213 285.529787 
L 238.868903 285.529787 
L 238.868903 294.40793 
L 257.991391 294.40793 
L 257.991391 303.286074 
L 253.752062 303.286074 
L 253.752062 312.164217 
L 241.593878 312.164217 
L 241.593878 321.04236 
L 219.47306 321.04236 
L 219.47306 329.920503 
L 216.426249 329.920503 
L 216.426249 338.798646 
L 210.679687 338.798646 
L 210.679687 347.676789 
L 189.32918 347.676789 
L 189.32918 356.554932 
L 210.662805 356.554932 
L 210.662805 365.433075 
L 171.645312 365.433075 
L 171.645312 374.311219 
L 159.818936 374.311219 
L 159.818936 383.189362 
L 159.796289 383.189362 
L 159.796289 392.067505 
L 123.864276 392.067505 
L 123.864276 400.945648 
L 126.935028 400.945648 
L 126.935028 409.823791 
L 133.977408 409.823791 
L 133.977408 418.701934 
L 97.154355 418.701934 
L 97.154355 427.580077 
L 123.498991 427.580077 
L 123.498991 436.458221 
L 129.190711 436.458221 
L 129.190711 445.336364 
L 136.537296 445.336364 
" clip-path="url(#pf390b8411f)" style="fill: none; stroke: #fecc5c; stroke-opacity: 0.3; stroke-width: 2; stroke-linecap: square"/>
   </g>
   <g id="line2d_25">
    <path d="M 187.822471 28.063636 
L 187.822471 36.941779 
L 173.669733 36.941779 
L 173.669733 45.819923 
L 177.459528 45.819923 
L 177.459528 54.698066 
L 217.573749 54.698066 
L 217.573749 63.576209 
L 232.719132 63.576209 
L 232.719132 72.454352 
L 217.800241 72.454352 
L 217.800241 81.332495 
L 213.690915 81.332495 
L 213.690915 90.210638 
L 222.649949 90.210638 
L 222.649949 99.088781 
L 195.095887 99.088781 
L 195.095887 107.966925 
L 183.35015 107.966925 
L 183.35015 116.845068 
L 201.203004 116.845068 
L 201.203004 125.723211 
L 217.310853 125.723211 
L 217.310853 134.601354 
L 246.586687 134.601354 
L 246.586687 143.479497 
L 264.981493 143.479497 
L 264.981493 152.35764 
L 274.255689 152.35764 
L 274.255689 161.235783 
L 276.957158 161.235783 
L 276.957158 170.113926 
L 262.778998 170.113926 
L 262.778998 178.99207 
L 258.972583 178.99207 
L 258.972583 187.870213 
L 283.416812 187.870213 
L 283.416812 196.748356 
L 324.300312 196.748356 
L 324.300312 205.626499 
L 301.930093 205.626499 
L 301.930093 214.504642 
L 326.177013 214.504642 
L 326.177013 223.382785 
L 341.733523 223.382785 
L 341.733523 232.260928 
L 322.927192 232.260928 
L 322.927192 241.139072 
L 288.987206 241.139072 
L 288.987206 250.017215 
L 277.924232 250.017215 
L 277.924232 258.895358 
L 263.30977 258.895358 
L 263.30977 267.773501 
L 263.518409 267.773501 
L 263.518409 276.651644 
L 240.461244 276.651644 
L 240.461244 285.529787 
L 215.813581 285.529787 
L 215.813581 294.40793 
L 212.285997 294.40793 
L 212.285997 303.286074 
L 202.314 303.286074 
L 202.314 312.164217 
L 188.14316 312.164217 
L 188.14316 321.04236 
L 176.805064 321.04236 
L 176.805064 329.920503 
L 162.240092 329.920503 
L 162.240092 338.798646 
L 153.599494 338.798646 
L 153.599494 347.676789 
L 148.800458 347.676789 
L 148.800458 356.554932 
L 122.898897 356.554932 
L 122.898897 365.433075 
L 153.208151 365.433075 
L 153.208151 374.311219 
L 148.51138 374.311219 
L 148.51138 383.189362 
L 213.678141 383.189362 
L 213.678141 392.067505 
L 175.898486 392.067505 
L 175.898486 400.945648 
L 184.361832 400.945648 
L 184.361832 409.823791 
L 144.754952 409.823791 
L 144.754952 418.701934 
L 157.939209 418.701934 
L 157.939209 427.580077 
L 153.591041 427.580077 
L 153.591041 436.458221 
L 147.871196 436.458221 
L 147.871196 445.336364 
L 136.661386 445.336364 
" clip-path="url(#pf390b8411f)" style="fill: none; stroke: #fecc5c; stroke-opacity: 0.3; stroke-width: 2; stroke-linecap: square"/>
   </g>
   <g id="line2d_26">
    <path d="M 181.836344 28.063636 
L 181.836344 36.941779 
L 169.688743 36.941779 
L 169.688743 45.819923 
L 199.727394 45.819923 
L 199.727394 54.698066 
L 205.771912 54.698066 
L 205.771912 63.576209 
L 218.627525 63.576209 
L 218.627525 72.454352 
L 212.160276 72.454352 
L 212.160276 81.332495 
L 214.801413 81.332495 
L 214.801413 90.210638 
L 226.044266 90.210638 
L 226.044266 99.088781 
L 227.809016 99.088781 
L 227.809016 107.966925 
L 211.977011 107.966925 
L 211.977011 116.845068 
L 189.911073 116.845068 
L 189.911073 125.723211 
L 229.045659 125.723211 
L 229.045659 134.601354 
L 235.423017 134.601354 
L 235.423017 143.479497 
L 250.489815 143.479497 
L 250.489815 152.35764 
L 246.380489 152.35764 
L 246.380489 161.235783 
L 253.782963 161.235783 
L 253.782963 170.113926 
L 254.828372 170.113926 
L 254.828372 178.99207 
L 250.880598 178.99207 
L 250.880598 187.870213 
L 280.426625 187.870213 
L 280.426625 196.748356 
L 305.980829 196.748356 
L 305.980829 205.626499 
L 290.636269 205.626499 
L 290.636269 214.504642 
L 298.277636 214.504642 
L 298.277636 223.382785 
L 309.0312 223.382785 
L 309.0312 232.260928 
L 287.229278 232.260928 
L 287.229278 241.139072 
L 283.756425 241.139072 
L 283.756425 250.017215 
L 308.039301 250.017215 
L 308.039301 258.895358 
L 287.26867 258.895358 
L 287.26867 267.773501 
L 296.115503 267.773501 
L 296.115503 276.651644 
L 269.108698 276.651644 
L 269.108698 285.529787 
L 244.375452 285.529787 
L 244.375452 294.40793 
L 254.080844 294.40793 
L 254.080844 303.286074 
L 222.462924 303.286074 
L 222.462924 312.164217 
L 233.32438 312.164217 
L 233.32438 321.04236 
L 203.396062 321.04236 
L 203.396062 329.920503 
L 199.617037 329.920503 
L 199.617037 338.798646 
L 145.985892 338.798646 
L 145.985892 347.676789 
L 138.239347 347.676789 
L 138.239347 356.554932 
L 125.995458 356.554932 
L 125.995458 365.433075 
L 100.023565 365.433075 
L 100.023565 374.311219 
L 110.043919 374.311219 
L 110.043919 383.189362 
L 142.18869 383.189362 
L 142.18869 392.067505 
L 167.774268 392.067505 
L 167.774268 400.945648 
L 160.275319 400.945648 
L 160.275319 409.823791 
L 176.717577 409.823791 
L 176.717577 418.701934 
L 172.931232 418.701934 
L 172.931232 427.580077 
L 153.121685 427.580077 
L 153.121685 436.458221 
L 154.080242 436.458221 
L 154.080242 445.336364 
L 138.005012 445.336364 
" clip-path="url(#pf390b8411f)" style="fill: none; stroke: #fecc5c; stroke-opacity: 0.3; stroke-width: 2; stroke-linecap: square"/>
   </g>
   <g id="line2d_27">
    <path d="M 184.32788 28.063636 
L 184.32788 36.941779 
L 176.035599 36.941779 
L 176.035599 45.819923 
L 197.47968 45.819923 
L 197.47968 54.698066 
L 202.513126 54.698066 
L 202.513126 63.576209 
L 215.217296 63.576209 
L 215.217296 72.454352 
L 192.448625 72.454352 
L 192.448625 81.332495 
L 187.691023 81.332495 
L 187.691023 90.210638 
L 214.15005 90.210638 
L 214.15005 99.088781 
L 196.498315 99.088781 
L 196.498315 107.966925 
L 243.926925 107.966925 
L 243.926925 116.845068 
L 266.164152 116.845068 
L 266.164152 125.723211 
L 269.050979 125.723211 
L 269.050979 134.601354 
L 264.525496 134.601354 
L 264.525496 143.479497 
L 239.604479 143.479497 
L 239.604479 152.35764 
L 238.366069 152.35764 
L 238.366069 161.235783 
L 238.573512 161.235783 
L 238.573512 170.113926 
L 270.93896 170.113926 
L 270.93896 178.99207 
L 269.362007 178.99207 
L 269.362007 187.870213 
L 262.483657 187.870213 
L 262.483657 196.748356 
L 259.803054 196.748356 
L 259.803054 205.626499 
L 250.863318 205.626499 
L 250.863318 214.504642 
L 247.639243 214.504642 
L 247.639243 223.382785 
L 274.0471 223.382785 
L 274.0471 232.260928 
L 288.793632 232.260928 
L 288.793632 241.139072 
L 280.302273 241.139072 
L 280.302273 250.017215 
L 228.501665 250.017215 
L 228.501665 258.895358 
L 249.129991 258.895358 
L 249.129991 267.773501 
L 270.918791 267.773501 
L 270.918791 276.651644 
L 277.06271 276.651644 
L 277.06271 285.529787 
L 286.816582 285.529787 
L 286.816582 294.40793 
L 269.041019 294.40793 
L 269.041019 303.286074 
L 239.455177 303.286074 
L 239.455177 312.164217 
L 256.668445 312.164217 
L 256.668445 321.04236 
L 227.456754 321.04236 
L 227.456754 329.920503 
L 208.70214 329.920503 
L 208.70214 338.798646 
L 197.687099 338.798646 
L 197.687099 347.676789 
L 186.827186 347.676789 
L 186.827186 356.554932 
L 181.214076 356.554932 
L 181.214076 365.433075 
L 184.587054 365.433075 
L 184.587054 374.311219 
L 171.629811 374.311219 
L 171.629811 383.189362 
L 165.175848 383.189362 
L 165.175848 392.067505 
L 155.989961 392.067505 
L 155.989961 400.945648 
L 133.015527 400.945648 
L 133.015527 409.823791 
L 149.163565 409.823791 
L 149.163565 418.701934 
L 121.816361 418.701934 
L 121.816361 427.580077 
L 124.399792 427.580077 
L 124.399792 436.458221 
L 122.186005 436.458221 
L 122.186005 445.336364 
L 135.996016 445.336364 
" clip-path="url(#pf390b8411f)" style="fill: none; stroke: #fecc5c; stroke-opacity: 0.3; stroke-width: 2; stroke-linecap: square"/>
   </g>
   <g id="line2d_28">
    <path d="M 191.792928 28.063636 
L 191.792928 36.941779 
L 165.798389 36.941779 
L 165.798389 45.819923 
L 201.278003 45.819923 
L 201.278003 54.698066 
L 193.297845 54.698066 
L 193.297845 63.576209 
L 221.096302 63.576209 
L 221.096302 72.454352 
L 202.7878 72.454352 
L 202.7878 81.332495 
L 216.810434 81.332495 
L 216.810434 90.210638 
L 207.492141 90.210638 
L 207.492141 99.088781 
L 225.943171 99.088781 
L 225.943171 107.966925 
L 223.795407 107.966925 
L 223.795407 116.845068 
L 223.391526 116.845068 
L 223.391526 125.723211 
L 256.517426 125.723211 
L 256.517426 134.601354 
L 264.675495 134.601354 
L 264.675495 143.479497 
L 244.47585 143.479497 
L 244.47585 152.35764 
L 228.795038 152.35764 
L 228.795038 161.235783 
L 213.628839 161.235783 
L 213.628839 170.113926 
L 232.010074 170.113926 
L 232.010074 178.99207 
L 272.506152 178.99207 
L 272.506152 187.870213 
L 258.187157 187.870213 
L 258.187157 196.748356 
L 279.995752 196.748356 
L 279.995752 205.626499 
L 293.851156 205.626499 
L 293.851156 214.504642 
L 278.11656 214.504642 
L 278.11656 223.382785 
L 291.105787 223.382785 
L 291.105787 232.260928 
L 272.700747 232.260928 
L 272.700747 241.139072 
L 258.183671 241.139072 
L 258.183671 250.017215 
L 273.855692 250.017215 
L 273.855692 258.895358 
L 244.160066 258.895358 
L 244.160066 267.773501 
L 238.158227 267.773501 
L 238.158227 276.651644 
L 233.694248 276.651644 
L 233.694248 285.529787 
L 246.90038 285.529787 
L 246.90038 294.40793 
L 236.078265 294.40793 
L 236.078265 303.286074 
L 232.672668 303.286074 
L 232.672668 312.164217 
L 230.052796 312.164217 
L 230.052796 321.04236 
L 228.584781 321.04236 
L 228.584781 329.920503 
L 232.765297 329.920503 
L 232.765297 338.798646 
L 235.558997 338.798646 
L 235.558997 347.676789 
L 186.430277 347.676789 
L 186.430277 356.554932 
L 187.725161 356.554932 
L 187.725161 365.433075 
L 147.778393 365.433075 
L 147.778393 374.311219 
L 154.591081 374.311219 
L 154.591081 383.189362 
L 144.548118 383.189362 
L 144.548118 392.067505 
L 152.695406 392.067505 
L 152.695406 400.945648 
L 163.824129 400.945648 
L 163.824129 409.823791 
L 161.426802 409.823791 
L 161.426802 418.701934 
L 153.584828 418.701934 
L 153.584828 427.580077 
L 129.128012 427.580077 
L 129.128012 436.458221 
L 124.789604 436.458221 
L 124.789604 445.336364 
L 136.18029 445.336364 
" clip-path="url(#pf390b8411f)" style="fill: none; stroke: #fecc5c; stroke-opacity: 0.3; stroke-width: 2; stroke-linecap: square"/>
   </g>
   <g id="line2d_29"/>
   <g id="line2d_30">
    <path d="M 178.511797 28.063636 
L 178.511797 36.941779 
L 181.685523 36.941779 
L 181.685523 45.819923 
L 191.423982 45.819923 
L 191.423982 54.698066 
L 201.177456 54.698066 
L 201.177456 63.576209 
L 209.62997 63.576209 
L 209.62997 72.454352 
L 212.612713 72.454352 
L 212.612713 81.332495 
L 211.616133 81.332495 
L 211.616133 90.210638 
L 215.548244 90.210638 
L 215.548244 99.088781 
L 217.536349 99.088781 
L 217.536349 107.966925 
L 222.699127 107.966925 
L 222.699127 116.845068 
L 227.317736 116.845068 
L 227.317736 125.723211 
L 234.616376 125.723211 
L 234.616376 134.601354 
L 242.975963 134.601354 
L 242.975963 143.479497 
L 249.325483 143.479497 
L 249.325483 152.35764 
L 256.431221 152.35764 
L 256.431221 161.235783 
L 262.967393 161.235783 
L 262.967393 170.113926 
L 268.146879 170.113926 
L 268.146879 178.99207 
L 273.472653 178.99207 
L 273.472653 187.870213 
L 277.390546 187.870213 
L 277.390546 196.748356 
L 276.422303 196.748356 
L 276.422303 205.626499 
L 275.867153 205.626499 
L 275.867153 214.504642 
L 275.502739 214.504642 
L 275.502739 223.382785 
L 274.090426 223.382785 
L 274.090426 232.260928 
L 270.123305 232.260928 
L 270.123305 241.139072 
L 266.143186 241.139072 
L 266.143186 250.017215 
L 264.640461 250.017215 
L 264.640461 258.895358 
L 257.496625 258.895358 
L 257.496625 267.773501 
L 253.014543 267.773501 
L 253.014543 276.651644 
L 248.541077 276.651644 
L 248.541077 285.529787 
L 241.922287 285.529787 
L 241.922287 294.40793 
L 233.530678 294.40793 
L 233.530678 303.286074 
L 228.390809 303.286074 
L 228.390809 312.164217 
L 221.995722 312.164217 
L 221.995722 321.04236 
L 219.470445 321.04236 
L 219.470445 329.920503 
L 208.05105 329.920503 
L 208.05105 338.798646 
L 203.390982 338.798646 
L 203.390982 347.676789 
L 194.752812 347.676789 
L 194.752812 356.554932 
L 188.285664 356.554932 
L 188.285664 365.433075 
L 180.730029 365.433075 
L 180.730029 374.311219 
L 173.062617 374.311219 
L 173.062617 383.189362 
L 166.587588 383.189362 
L 166.587588 392.067505 
L 158.151122 392.067505 
L 158.151122 400.945648 
L 154.127378 400.945648 
L 154.127378 409.823791 
L 148.490202 409.823791 
L 148.490202 418.701934 
L 144.229408 418.701934 
L 144.229408 427.580077 
L 139.737952 427.580077 
L 139.737952 436.458221 
L 136.428246 436.458221 
L 136.428246 445.336364 
L 135.024784 445.336364 
" clip-path="url(#pf390b8411f)" style="fill: none; stroke: #6b3914; stroke-width: 3; stroke-linecap: square"/>
   </g>
   <g id="line2d_31">
    <path d="M 179.456572 28.063636 
L 179.456572 36.941779 
L 183.683812 36.941779 
L 183.683812 45.819923 
L 189.188644 45.819923 
L 189.188644 54.698066 
L 200.422881 54.698066 
L 200.422881 63.576209 
L 205.937822 63.576209 
L 205.937822 72.454352 
L 219.140543 72.454352 
L 219.140543 81.332495 
L 224.219756 81.332495 
L 224.219756 90.210638 
L 217.378283 90.210638 
L 217.378283 99.088781 
L 226.687064 99.088781 
L 226.687064 107.966925 
L 213.928662 107.966925 
L 213.928662 116.845068 
L 223.186996 116.845068 
L 223.186996 125.723211 
L 195.160428 125.723211 
L 195.160428 134.601354 
L 253.242853 134.601354 
L 253.242853 143.479497 
L 238.306433 143.479497 
L 238.306433 152.35764 
L 246.124142 152.35764 
L 246.124142 161.235783 
L 268.561591 161.235783 
L 268.561591 170.113926 
L 266.772887 170.113926 
L 266.772887 178.99207 
L 275.245495 178.99207 
L 275.245495 187.870213 
L 288.352575 187.870213 
L 288.352575 196.748356 
L 243.718411 196.748356 
L 243.718411 205.626499 
L 261.913891 205.626499 
L 261.913891 214.504642 
L 277.121624 214.504642 
L 277.121624 223.382785 
L 272.10272 223.382785 
L 272.10272 232.260928 
L 289.46499 232.260928 
L 289.46499 241.139072 
L 282.321877 241.139072 
L 282.321877 250.017215 
L 316.756156 250.017215 
L 316.756156 258.895358 
L 272.747983 258.895358 
L 272.747983 267.773501 
L 244.338525 267.773501 
L 244.338525 276.651644 
L 236.973427 276.651644 
L 236.973427 285.529787 
L 275.198833 285.529787 
L 275.198833 294.40793 
L 246.975578 294.40793 
L 246.975578 303.286074 
L 236.154036 303.286074 
L 236.154036 312.164217 
L 227.356132 312.164217 
L 227.356132 321.04236 
L 180.73049 321.04236 
L 180.73049 329.920503 
L 182.157407 329.920503 
L 182.157407 338.798646 
L 195.770358 338.798646 
L 195.770358 347.676789 
L 174.549419 347.676789 
L 174.549419 356.554932 
L 164.718469 356.554932 
L 164.718469 365.433075 
L 187.754319 365.433075 
L 187.754319 374.311219 
L 164.042578 374.311219 
L 164.042578 383.189362 
L 160.794014 383.189362 
L 160.794014 392.067505 
L 158.082036 392.067505 
L 158.082036 400.945648 
L 157.125446 400.945648 
L 157.125446 409.823791 
L 151.410582 409.823791 
L 151.410582 418.701934 
L 162.427391 418.701934 
L 162.427391 427.580077 
L 159.442047 427.580077 
L 159.442047 436.458221 
L 156.231343 436.458221 
L 156.231343 445.336364 
L 135.445921 445.336364 
" clip-path="url(#pf390b8411f)" style="fill: none; stroke: #e40000; stroke-opacity: 0.8; stroke-width: 3; stroke-linecap: square"/>
   </g>
   <g id="patch_3">
    <path d="M 74.00625 466.2 
L 74.00625 7.2 
" style="fill: none; stroke: #000000; stroke-width: 2; stroke-linejoin: miter; stroke-linecap: square"/>
   </g>
   <g id="patch_4">
    <path d="M 84.00625 476.2 
L 354.00625 476.2 
" style="fill: none; stroke: #000000; stroke-width: 2; stroke-linejoin: miter; stroke-linecap: square"/>
   </g>
  </g>
 </g>
 <defs>
  <clipPath id="pf390b8411f">
   <rect x="84.00625" y="7.2" width="270" height="459"/>
  </clipPath>
 </defs>
</svg>
