<?xml version="1.0" encoding="utf-8" standalone="no"?>
<!DOCTYPE svg PUBLIC "-//W3C//DTD SVG 1.1//EN"
  "http://www.w3.org/Graphics/SVG/1.1/DTD/svg11.dtd">
<svg xmlns:xlink="http://www.w3.org/1999/xlink" width="326.85pt" height="544.35625pt" viewBox="0 0 326.85 544.35625" xmlns="http://www.w3.org/2000/svg" version="1.1">
 <metadata>
  <rdf:RDF xmlns:dc="http://purl.org/dc/elements/1.1/" xmlns:cc="http://creativecommons.org/ns#" xmlns:rdf="http://www.w3.org/1999/02/22-rdf-syntax-ns#">
   <cc:Work>
    <dc:type rdf:resource="http://purl.org/dc/dcmitype/StillImage"/>
    <dc:date>2024-07-06T14:15:34.659572</dc:date>
    <dc:format>image/svg+xml</dc:format>
    <dc:creator>
     <cc:Agent>
      <dc:title>Matplotlib v3.8.0, https://matplotlib.org/</dc:title>
     </cc:Agent>
    </dc:creator>
   </cc:Work>
  </rdf:RDF>
 </metadata>
 <defs>
  <style type="text/css">*{stroke-linejoin: round; stroke-linecap: butt}</style>
 </defs>
 <g id="figure_1">
  <g id="patch_1">
   <path d="M 0 544.35625 
L 326.85 544.35625 
L 326.85 0 
L 0 0 
z
" style="fill: #ffffff"/>
  </g>
  <g id="axes_1">
   <g id="patch_2">
    <path d="M 49.65 466.2 
L 319.65 466.2 
L 319.65 7.2 
L 49.65 7.2 
z
" style="fill: #ffffff"/>
   </g>
   <g id="PolyCollection_1">
    <defs>
     <path id="m713ce6a9ba" d="M 154.879259 -516.292614 
L 156.546782 -516.292614 
L 156.546782 -515.480799 
L 156.546782 -514.668984 
L 156.546782 -513.85717 
L 156.546782 -513.045355 
L 156.546564 -512.23354 
L 156.545445 -511.421726 
L 156.545445 -510.609911 
L 156.545445 -509.798096 
L 156.546564 -508.986282 
L 156.546782 -508.174467 
L 156.550375 -507.362653 
L 156.550375 -506.550838 
L 156.550375 -505.739023 
L 156.550375 -504.927209 
L 156.57812 -504.115394 
L 156.57812 -503.303579 
L 156.597544 -502.491765 
L 156.601757 -501.67995 
L 156.601757 -500.868135 
L 156.616512 -500.056321 
L 156.616512 -499.244506 
L 156.616512 -498.432691 
L 156.617874 -497.620877 
L 156.625347 -496.809062 
L 156.625347 -495.997248 
L 156.617874 -495.185433 
L 156.633572 -494.373618 
L 156.633572 -493.561804 
L 156.633572 -492.749989 
L 156.646532 -491.938174 
L 156.65107 -491.12636 
L 156.65107 -490.314545 
L 156.65107 -489.50273 
L 156.654708 -488.690916 
L 156.66884 -487.879101 
L 156.67024 -487.067286 
L 156.66884 -486.255472 
L 156.67024 -485.443657 
L 156.67024 -484.631843 
L 156.67024 -483.820028 
L 156.695327 -483.008213 
L 156.699021 -482.196399 
L 156.699021 -481.384584 
L 156.743023 -480.572769 
L 156.756037 -479.760955 
L 156.756909 -478.94914 
L 156.75994 -478.137325 
L 156.75994 -477.325511 
L 156.75994 -476.513696 
L 156.830147 -475.701881 
L 157.044439 -474.890067 
L 157.044439 -474.078252 
L 157.140294 -473.266437 
L 157.140294 -472.454623 
L 157.094983 -471.642808 
L 157.601448 -470.830994 
L 157.140294 -470.019179 
L 159.247327 -469.207364 
L 158.982402 -468.39555 
L 158.113998 -467.583735 
L 159.247327 -466.77192 
L 159.247327 -465.960106 
L 158.113998 -465.148291 
L 157.601448 -464.336476 
L 159.247327 -463.524662 
L 157.646476 -462.712847 
L 158.982402 -461.901032 
L 159.634878 -461.089218 
L 158.982402 -460.277403 
L 159.247327 -459.465589 
L 159.247327 -458.653774 
L 159.698438 -457.841959 
L 159.698438 -457.030145 
L 160.146032 -456.21833 
L 159.704306 -455.406515 
L 159.704306 -454.594701 
L 159.634878 -453.782886 
L 159.247327 -452.971071 
L 158.982402 -452.159257 
L 156.962077 -451.347442 
L 156.962077 -450.535627 
L 157.045615 -449.723813 
L 156.884106 -448.911998 
L 156.884106 -448.100183 
L 156.884106 -447.288369 
L 156.830147 -446.476554 
L 156.779967 -445.66474 
L 156.75407 -444.852925 
L 156.699021 -444.04111 
L 156.699021 -443.229296 
L 156.694322 -442.417481 
L 156.687205 -441.605666 
L 156.687205 -440.793852 
L 156.65107 -439.982037 
L 156.633572 -439.170222 
L 156.633572 -438.358408 
L 156.625347 -437.546593 
L 156.625347 -436.734778 
L 156.615258 -435.922964 
L 156.615258 -435.111149 
L 156.604139 -434.299335 
L 156.597544 -433.48752 
L 156.550393 -432.675705 
L 156.54671 -431.863891 
L 156.542744 -431.052076 
L 156.542461 -430.240261 
L 156.542461 -429.428447 
L 156.529066 -428.616632 
L 156.521741 -427.804817 
L 156.497571 -426.993003 
L 156.476555 -426.181188 
L 156.471608 -425.369373 
L 156.434688 -424.557559 
L 156.434688 -423.745744 
L 156.402394 -422.93393 
L 156.379945 -422.122115 
L 156.308749 -421.3103 
L 156.197842 -420.498486 
L 156.19514 -419.686671 
L 156.079411 -418.874856 
L 155.951964 -418.063042 
L 155.761131 -417.251227 
L 135.728486 -416.439412 
L 135.728486 -415.627598 
L 127.73583 -414.815783 
L 123.601614 -414.003968 
L 122.017091 -413.192154 
L 121.00887 -412.380339 
L 120.630068 -411.568524 
L 120.601183 -410.75671 
L 119.490281 -409.944895 
L 119.132034 -409.133081 
L 119.132034 -408.321266 
L 118.740219 -407.509451 
L 119.207893 -406.697637 
L 119.132034 -405.885822 
L 119.207893 -405.074007 
L 118.386121 -404.262193 
L 116.855177 -403.450378 
L 116.855177 -402.638563 
L 116.855177 -401.826749 
L 116.855177 -401.014934 
L 116.565964 -400.203119 
L 114.365552 -399.391305 
L 114.083788 -398.57949 
L 113.791252 -397.767676 
L 113.267254 -396.955861 
L 113.03856 -396.144046 
L 113.661512 -395.332232 
L 112.522061 -394.520417 
L 112.522061 -393.708602 
L 112.522061 -392.896788 
L 112.714327 -392.084973 
L 112.522061 -391.273158 
L 112.522061 -390.461344 
L 112.355019 -389.649529 
L 112.602407 -388.837714 
L 113.03856 -388.0259 
L 113.791252 -387.214085 
L 113.661512 -386.402271 
L 115.478188 -385.590456 
L 115.288344 -384.778641 
L 115.478188 -383.966827 
L 118.561471 -383.155012 
L 119.221296 -382.343197 
L 115.483184 -381.531383 
L 114.325172 -380.719568 
L 115.365336 -379.907753 
L 121.458654 -379.095939 
L 121.458654 -378.284124 
L 127.303098 -377.472309 
L 126.656014 -376.660495 
L 126.656014 -375.84868 
L 126.265929 -375.036865 
L 122.919924 -374.225051 
L 128.280273 -373.413236 
L 128.280273 -372.601422 
L 132.880138 -371.789607 
L 132.880138 -370.977792 
L 132.880138 -370.165978 
L 132.880138 -369.354163 
L 135.835917 -368.542348 
L 136.093303 -367.730534 
L 135.835917 -366.918719 
L 136.612546 -366.106904 
L 141.342731 -365.29509 
L 150.991819 -364.483275 
L 150.503781 -363.67146 
L 152.129703 -362.859646 
L 153.898845 -362.047831 
L 158.621766 -361.236017 
L 160.784426 -360.424202 
L 160.629207 -359.612387 
L 169.508798 -358.800573 
L 167.324184 -357.988758 
L 172.974614 -357.176943 
L 177.30168 -356.365129 
L 178.614478 -355.553314 
L 179.574916 -354.741499 
L 181.083221 -353.929685 
L 182.522538 -353.11787 
L 184.393388 -352.306055 
L 186.173749 -351.494241 
L 184.393388 -350.682426 
L 181.829467 -349.870612 
L 180.629946 -349.058797 
L 180.629946 -348.246982 
L 180.629946 -347.435168 
L 182.15046 -346.623353 
L 186.915384 -345.811538 
L 186.915384 -344.999724 
L 186.46421 -344.187909 
L 192.307068 -343.376094 
L 192.307068 -342.56428 
L 192.307068 -341.752465 
L 195.22422 -340.94065 
L 195.22422 -340.128836 
L 195.22422 -339.317021 
L 195.756404 -338.505206 
L 195.223021 -337.693392 
L 197.035828 -336.881577 
L 195.799538 -336.069763 
L 195.799538 -335.257948 
L 197.06937 -334.446133 
L 198.633294 -333.634319 
L 198.633294 -332.822504 
L 196.226564 -332.010689 
L 198.633294 -331.198875 
L 198.633294 -330.38706 
L 198.633294 -329.575245 
L 198.633294 -328.763431 
L 197.06937 -327.951616 
L 199.119976 -327.139801 
L 199.119976 -326.327987 
L 200.234849 -325.516172 
L 200.19996 -324.704358 
L 201.601018 -323.892543 
L 202.522291 -323.080728 
L 206.643463 -322.268914 
L 206.205056 -321.457099 
L 205.217461 -320.645284 
L 205.217461 -319.83347 
L 202.471224 -319.021655 
L 205.217461 -318.20984 
L 205.217461 -317.398026 
L 205.196678 -316.586211 
L 205.792839 -315.774396 
L 205.196678 -314.962582 
L 203.603469 -314.150767 
L 200.938128 -313.338953 
L 195.38851 -312.527138 
L 200.938128 -311.715323 
L 200.938128 -310.903509 
L 205.141442 -310.091694 
L 200.938128 -309.279879 
L 200.938128 -308.468065 
L 203.603469 -307.65625 
L 205.141442 -306.844435 
L 205.141442 -306.032621 
L 205.141442 -305.220806 
L 205.792839 -304.408991 
L 206.597455 -303.597177 
L 208.859681 -302.785362 
L 208.859681 -301.973547 
L 208.859681 -301.161733 
L 208.859681 -300.349918 
L 211.656793 -299.538104 
L 212.869955 -298.726289 
L 214.067165 -297.914474 
L 212.068674 -297.10266 
L 212.068674 -296.290845 
L 212.068674 -295.47903 
L 211.656793 -294.667216 
L 211.517232 -293.855401 
L 211.656793 -293.043586 
L 211.517232 -292.231772 
L 208.859681 -291.419957 
L 211.517232 -290.608142 
L 212.814787 -289.796328 
L 212.885803 -288.984513 
L 214.067165 -288.172699 
L 216.623696 -287.360884 
L 214.067165 -286.549069 
L 216.623696 -285.737255 
L 217.358086 -284.92544 
L 219.220448 -284.113625 
L 217.358086 -283.301811 
L 219.220448 -282.489996 
L 220.348632 -281.678181 
L 219.293969 -280.866367 
L 219.220448 -280.054552 
L 219.293969 -279.242737 
L 220.348632 -278.430923 
L 221.678215 -277.619108 
L 222.065518 -276.807294 
L 222.065518 -275.995479 
L 223.338797 -275.183664 
L 223.338797 -274.37185 
L 223.338797 -273.560035 
L 223.338797 -272.74822 
L 224.284495 -271.936406 
L 226.763819 -271.124591 
L 227.925698 -270.312776 
L 227.925698 -269.500962 
L 225.608796 -268.689147 
L 226.818618 -267.877332 
L 226.818618 -267.065518 
L 228.981235 -266.253703 
L 227.713149 -265.441888 
L 227.713149 -264.630074 
L 226.752632 -263.818259 
L 226.752632 -263.006445 
L 224.342219 -262.19463 
L 223.331015 -261.382815 
L 223.331015 -260.571001 
L 219.415565 -259.759186 
L 222.740582 -258.947371 
L 219.415565 -258.135557 
L 219.220448 -257.323742 
L 217.340567 -256.511927 
L 217.340567 -255.700113 
L 217.340567 -254.888298 
L 217.126138 -254.076483 
L 217.126138 -253.264669 
L 217.126138 -252.452854 
L 217.126138 -251.64104 
L 217.126138 -250.829225 
L 217.126138 -250.01741 
L 215.87266 -249.205596 
L 215.138894 -248.393781 
L 214.778539 -247.581966 
L 214.778539 -246.770152 
L 214.778539 -245.958337 
L 214.778539 -245.146522 
L 213.155387 -244.334708 
L 211.246897 -243.522893 
L 209.749786 -242.711078 
L 209.749786 -241.899264 
L 209.749786 -241.087449 
L 209.252839 -240.275635 
L 208.837863 -239.46382 
L 205.880033 -238.652005 
L 203.98645 -237.840191 
L 203.58848 -237.028376 
L 203.436621 -236.216561 
L 203.436621 -235.404747 
L 202.384382 -234.592932 
L 200.389236 -233.781117 
L 188.441052 -232.969303 
L 187.413815 -232.157488 
L 187.265863 -231.345673 
L 186.610328 -230.533859 
L 186.150616 -229.722044 
L 185.882131 -228.910229 
L 185.882131 -228.098415 
L 185.882131 -227.2866 
L 185.664265 -226.474786 
L 185.295784 -225.662971 
L 185.099058 -224.851156 
L 183.335554 -224.039342 
L 176.143812 -223.227527 
L 176.034592 -222.415712 
L 176.021934 -221.603898 
L 174.193821 -220.792083 
L 174.193821 -219.980268 
L 171.710831 -219.168454 
L 171.491182 -218.356639 
L 171.491182 -217.544824 
L 171.327336 -216.73301 
L 171.327336 -215.921195 
L 170.97269 -215.109381 
L 170.97269 -214.297566 
L 170.97269 -213.485751 
L 170.97269 -212.673937 
L 169.811184 -211.862122 
L 169.413168 -211.050307 
L 168.260873 -210.238493 
L 167.463646 -209.426678 
L 163.355351 -208.614863 
L 159.221504 -207.803049 
L 153.822693 -206.991234 
L 153.822693 -206.179419 
L 152.286932 -205.367605 
L 152.024213 -204.55579 
L 148.089347 -203.743976 
L 148.089347 -202.932161 
L 147.527192 -202.120346 
L 147.527192 -201.308532 
L 147.230837 -200.496717 
L 147.230837 -199.684902 
L 146.429083 -198.873088 
L 146.201644 -198.061273 
L 145.527505 -197.249458 
L 145.527505 -196.437644 
L 145.527505 -195.625829 
L 145.207695 -194.814014 
L 142.942318 -194.0022 
L 140.198959 -193.190385 
L 140.198959 -192.37857 
L 139.974903 -191.566756 
L 139.974903 -190.754941 
L 139.622083 -189.943127 
L 135.839388 -189.131312 
L 135.492768 -188.319497 
L 130.778212 -187.507683 
L 129.343426 -186.695868 
L 129.131033 -185.884053 
L 128.516852 -185.072239 
L 127.230566 -184.260424 
L 122.699311 -183.448609 
L 121.114959 -182.636795 
L 119.944195 -181.82498 
L 119.944195 -181.013165 
L 118.838198 -180.201351 
L 117.420028 -179.389536 
L 117.420028 -178.577722 
L 106.557802 -177.765907 
L 103.344159 -176.954092 
L 90.696552 -176.142278 
L 90.696552 -175.330463 
L 89.241317 -174.518648 
L 88.895053 -173.706834 
L 88.583991 -172.895019 
L 88.559142 -172.083204 
L 88.559142 -171.27139 
L 88.296946 -170.459575 
L 88.124788 -169.64776 
L 87.991015 -168.835946 
L 87.894559 -168.024131 
L 87.894559 -167.212317 
L 87.894559 -166.400502 
L 87.775047 -165.588687 
L 87.759213 -164.776873 
L 87.699322 -163.965058 
L 87.314491 -163.153243 
L 87.314491 -162.341429 
L 87.314491 -161.529614 
L 87.20816 -160.717799 
L 87.20816 -159.905985 
L 87.200246 -159.09417 
L 87.038201 -158.282355 
L 86.951569 -157.470541 
L 86.951569 -156.658726 
L 86.951569 -155.846911 
L 86.951569 -155.035097 
L 86.951569 -154.223282 
L 86.942675 -153.411468 
L 86.91712 -152.599653 
L 86.91712 -151.787838 
L 86.91712 -150.976024 
L 86.908013 -150.164209 
L 86.908013 -149.352394 
L 86.908013 -148.54058 
L 86.905448 -147.728765 
L 86.905448 -146.91695 
L 86.869034 -146.105136 
L 86.823462 -145.293321 
L 86.823462 -144.481506 
L 86.743184 -143.669692 
L 86.743184 -142.857877 
L 86.720033 -142.046063 
L 86.720033 -141.234248 
L 86.720033 -140.422433 
L 86.720033 -139.610619 
L 86.666676 -138.798804 
L 86.666676 -137.986989 
L 86.646692 -137.175175 
L 86.646692 -136.36336 
L 86.646692 -135.551545 
L 86.646692 -134.739731 
L 86.646692 -133.927916 
L 86.646692 -133.116101 
L 86.590251 -132.304287 
L 86.590251 -131.492472 
L 86.590251 -130.680657 
L 86.484489 -129.868843 
L 86.461815 -129.057028 
L 86.461815 -128.245214 
L 86.424999 -127.433399 
L 86.424999 -126.621584 
L 86.424999 -125.80977 
L 86.424999 -124.997955 
L 86.424999 -124.18614 
L 86.424999 -123.374326 
L 86.424999 -122.562511 
L 86.424999 -121.750696 
L 86.424999 -120.938882 
L 86.415295 -120.127067 
L 86.415295 -119.315252 
L 86.415295 -118.503438 
L 86.415295 -117.691623 
L 86.381045 -116.879809 
L 86.381045 -116.067994 
L 86.381045 -115.256179 
L 86.381045 -114.444365 
L 86.381045 -113.63255 
L 86.381045 -112.820735 
L 86.381045 -112.008921 
L 86.381045 -111.197106 
L 86.381045 -110.385291 
L 86.381045 -109.573477 
L 86.381045 -108.761662 
L 86.381045 -107.949847 
L 86.381045 -107.138033 
L 86.371858 -106.326218 
L 86.371858 -105.514404 
L 86.371858 -104.702589 
L 86.371858 -103.890774 
L 86.371858 -103.07896 
L 86.371858 -102.267145 
L 86.371858 -101.45533 
L 86.371858 -100.643516 
L 86.371858 -99.831701 
L 86.371858 -99.019886 
L 63.632113 -99.019886 
L 63.632113 -99.019886 
L 63.632113 -99.831701 
L 63.632113 -100.643516 
L 63.632113 -101.45533 
L 63.632113 -102.267145 
L 63.632113 -103.07896 
L 63.632113 -103.890774 
L 63.632113 -104.702589 
L 63.632113 -105.514404 
L 63.632113 -106.326218 
L 63.798443 -107.138033 
L 63.798443 -107.949847 
L 63.798443 -108.761662 
L 63.798443 -109.573477 
L 63.798443 -110.385291 
L 63.798443 -111.197106 
L 63.798443 -112.008921 
L 63.798443 -112.820735 
L 63.798443 -113.63255 
L 63.798443 -114.444365 
L 63.798443 -115.256179 
L 63.798443 -116.067994 
L 63.798443 -116.879809 
L 63.798443 -117.691623 
L 63.798443 -118.503438 
L 63.798443 -119.315252 
L 63.798443 -120.127067 
L 63.798443 -120.938882 
L 63.798443 -121.750696 
L 63.798443 -122.562511 
L 63.798443 -123.374326 
L 63.798443 -124.18614 
L 63.798443 -124.997955 
L 63.798443 -125.80977 
L 63.798443 -126.621584 
L 63.798443 -127.433399 
L 63.798443 -128.245214 
L 63.798443 -129.057028 
L 63.798443 -129.868843 
L 63.798443 -130.680657 
L 63.798443 -131.492472 
L 63.798443 -132.304287 
L 63.925565 -133.116101 
L 63.925565 -133.927916 
L 63.925565 -134.739731 
L 63.925565 -135.551545 
L 63.925565 -136.36336 
L 63.925565 -137.175175 
L 63.925565 -137.986989 
L 63.925565 -138.798804 
L 64.084478 -139.610619 
L 64.084478 -140.422433 
L 64.084478 -141.234248 
L 64.084478 -142.046063 
L 64.084478 -142.857877 
L 64.084478 -143.669692 
L 64.084478 -144.481506 
L 64.084478 -145.293321 
L 64.084478 -146.105136 
L 64.084478 -146.91695 
L 64.084478 -147.728765 
L 64.186876 -148.54058 
L 64.186876 -149.352394 
L 64.186876 -150.164209 
L 64.3079 -150.976024 
L 64.3079 -151.787838 
L 64.3079 -152.599653 
L 64.3079 -153.411468 
L 64.3079 -154.223282 
L 64.3079 -155.035097 
L 64.3079 -155.846911 
L 64.3079 -156.658726 
L 64.3079 -157.470541 
L 65.115806 -158.282355 
L 65.26122 -159.09417 
L 65.26122 -159.905985 
L 65.26122 -160.717799 
L 65.26122 -161.529614 
L 65.26122 -162.341429 
L 65.26122 -163.153243 
L 65.26122 -163.965058 
L 65.26122 -164.776873 
L 65.26122 -165.588687 
L 65.26122 -166.400502 
L 65.26122 -167.212317 
L 65.26122 -168.024131 
L 65.574895 -168.835946 
L 65.574895 -169.64776 
L 65.574895 -170.459575 
L 65.962009 -171.27139 
L 65.962009 -172.083204 
L 65.962009 -172.895019 
L 66.122141 -173.706834 
L 66.122141 -174.518648 
L 66.122141 -175.330463 
L 66.122141 -176.142278 
L 66.181029 -176.954092 
L 66.23993 -177.765907 
L 66.753514 -178.577722 
L 66.753514 -179.389536 
L 66.813227 -180.201351 
L 67.121395 -181.013165 
L 67.121395 -181.82498 
L 67.121395 -182.636795 
L 67.121395 -183.448609 
L 67.458504 -184.260424 
L 67.476524 -185.072239 
L 67.781057 -185.884053 
L 67.883545 -186.695868 
L 67.883545 -187.507683 
L 67.972623 -188.319497 
L 67.986066 -189.131312 
L 68.037882 -189.943127 
L 68.037882 -190.754941 
L 68.037882 -191.566756 
L 68.053127 -192.37857 
L 68.053127 -193.190385 
L 68.266222 -194.0022 
L 68.266222 -194.814014 
L 68.583333 -195.625829 
L 68.583333 -196.437644 
L 68.583333 -197.249458 
L 68.583333 -198.061273 
L 68.702194 -198.873088 
L 68.917068 -199.684902 
L 68.917068 -200.496717 
L 68.917068 -201.308532 
L 68.917068 -202.120346 
L 68.917068 -202.932161 
L 68.917068 -203.743976 
L 68.927713 -204.55579 
L 68.927713 -205.367605 
L 68.952549 -206.179419 
L 68.952549 -206.991234 
L 69.638186 -207.803049 
L 69.790817 -208.614863 
L 70.09693 -209.426678 
L 70.101296 -210.238493 
L 70.101296 -211.050307 
L 70.101296 -211.862122 
L 70.142323 -212.673937 
L 70.142323 -213.485751 
L 70.142323 -214.297566 
L 70.142323 -215.109381 
L 70.334131 -215.921195 
L 70.334131 -216.73301 
L 70.386127 -217.544824 
L 70.386127 -218.356639 
L 70.386127 -219.168454 
L 70.640706 -219.980268 
L 70.640706 -220.792083 
L 70.736783 -221.603898 
L 70.781953 -222.415712 
L 70.858753 -223.227527 
L 71.199315 -224.039342 
L 71.422627 -224.851156 
L 71.475497 -225.662971 
L 71.475497 -226.474786 
L 71.524955 -227.2866 
L 71.524955 -228.098415 
L 71.6701 -228.910229 
L 71.721191 -229.722044 
L 71.917752 -230.533859 
L 72.013008 -231.345673 
L 72.167607 -232.157488 
L 72.260572 -232.969303 
L 72.432325 -233.781117 
L 72.528351 -234.592932 
L 72.63381 -235.404747 
L 72.648688 -236.216561 
L 72.668708 -237.028376 
L 72.668708 -237.840191 
L 72.729342 -238.652005 
L 72.729342 -239.46382 
L 72.729342 -240.275635 
L 72.990336 -241.087449 
L 72.990336 -241.899264 
L 72.990336 -242.711078 
L 73.061081 -243.522893 
L 73.105393 -244.334708 
L 73.30764 -245.146522 
L 73.30764 -245.958337 
L 73.325356 -246.770152 
L 73.355932 -247.581966 
L 73.355932 -248.393781 
L 73.355932 -249.205596 
L 73.43242 -250.01741 
L 73.43242 -250.829225 
L 73.467238 -251.64104 
L 73.572167 -252.452854 
L 73.572167 -253.264669 
L 73.572167 -254.076483 
L 73.607413 -254.888298 
L 73.639603 -255.700113 
L 73.639603 -256.511927 
L 73.641369 -257.323742 
L 74.001035 -258.135557 
L 74.071827 -258.947371 
L 74.149972 -259.759186 
L 74.354271 -260.571001 
L 74.150624 -261.382815 
L 74.376355 -262.19463 
L 74.482517 -263.006445 
L 74.497065 -263.818259 
L 74.694765 -264.630074 
L 74.694765 -265.441888 
L 74.871568 -266.253703 
L 74.994747 -267.065518 
L 75.202329 -267.877332 
L 75.202329 -268.689147 
L 75.268665 -269.500962 
L 75.268665 -270.312776 
L 75.333904 -271.124591 
L 75.333904 -271.936406 
L 75.333904 -272.74822 
L 75.553596 -273.560035 
L 75.604613 -274.37185 
L 75.604613 -275.183664 
L 75.604613 -275.995479 
L 75.604613 -276.807294 
L 75.605539 -277.619108 
L 75.605539 -278.430923 
L 75.605539 -279.242737 
L 75.733715 -280.054552 
L 75.605539 -280.866367 
L 75.756135 -281.678181 
L 75.605539 -282.489996 
L 75.605539 -283.301811 
L 75.832168 -284.113625 
L 75.926613 -284.92544 
L 76.11336 -285.737255 
L 75.926613 -286.549069 
L 75.985447 -287.360884 
L 75.985447 -288.172699 
L 75.985447 -288.984513 
L 75.921366 -289.796328 
L 75.921366 -290.608142 
L 75.832168 -291.419957 
L 75.832168 -292.231772 
L 75.985447 -293.043586 
L 75.921366 -293.855401 
L 75.921366 -294.667216 
L 75.853984 -295.47903 
L 75.832168 -296.290845 
L 75.832168 -297.10266 
L 75.853984 -297.914474 
L 75.756135 -298.726289 
L 75.738874 -299.538104 
L 75.738874 -300.349918 
L 75.697034 -301.161733 
L 75.584821 -301.973547 
L 75.680574 -302.785362 
L 75.565178 -303.597177 
L 75.565178 -304.408991 
L 75.525765 -305.220806 
L 75.458865 -306.032621 
L 75.458865 -306.844435 
L 75.333904 -307.65625 
L 75.216004 -308.468065 
L 75.216004 -309.279879 
L 75.216004 -310.091694 
L 75.205185 -310.903509 
L 75.184036 -311.715323 
L 74.982327 -312.527138 
L 74.963734 -313.338953 
L 74.982327 -314.150767 
L 74.982327 -314.962582 
L 74.982327 -315.774396 
L 74.632278 -316.586211 
L 74.632278 -317.398026 
L 74.561328 -318.20984 
L 74.523679 -319.021655 
L 74.484262 -319.83347 
L 74.376685 -320.645284 
L 74.476156 -321.457099 
L 74.484262 -322.268914 
L 74.37157 -323.080728 
L 74.364978 -323.892543 
L 74.246559 -324.704358 
L 74.246559 -325.516172 
L 74.156015 -326.327987 
L 74.156015 -327.139801 
L 74.088229 -327.951616 
L 74.088229 -328.763431 
L 74.039107 -329.575245 
L 73.938454 -330.38706 
L 73.855251 -331.198875 
L 73.702417 -332.010689 
L 73.689316 -332.822504 
L 73.6727 -333.634319 
L 73.648759 -334.446133 
L 73.525128 -335.257948 
L 73.280103 -336.069763 
L 73.280103 -336.881577 
L 73.115827 -337.693392 
L 73.115827 -338.505206 
L 73.115827 -339.317021 
L 73.115827 -340.128836 
L 73.062215 -340.94065 
L 72.935232 -341.752465 
L 72.926499 -342.56428 
L 72.762635 -343.376094 
L 72.55539 -344.187909 
L 72.481373 -344.999724 
L 72.468385 -345.811538 
L 72.331237 -346.623353 
L 71.958468 -347.435168 
L 71.958468 -348.246982 
L 71.900561 -349.058797 
L 71.818917 -349.870612 
L 71.797222 -350.682426 
L 71.797222 -351.494241 
L 71.568322 -352.306055 
L 71.556009 -353.11787 
L 71.357826 -353.929685 
L 71.357826 -354.741499 
L 71.303558 -355.553314 
L 71.298314 -356.365129 
L 71.185033 -357.176943 
L 71.101906 -357.988758 
L 71.048368 -358.800573 
L 70.923132 -359.612387 
L 70.827538 -360.424202 
L 70.759584 -361.236017 
L 70.431999 -362.047831 
L 70.315478 -362.859646 
L 70.254803 -363.67146 
L 70.254803 -364.483275 
L 69.96107 -365.29509 
L 69.939524 -366.106904 
L 69.795344 -366.918719 
L 69.795344 -367.730534 
L 69.717433 -368.542348 
L 69.579714 -369.354163 
L 69.579714 -370.165978 
L 69.579714 -370.977792 
L 69.505382 -371.789607 
L 69.50046 -372.601422 
L 69.50046 -373.413236 
L 69.393032 -374.225051 
L 69.393032 -375.036865 
L 69.393032 -375.84868 
L 69.370472 -376.660495 
L 69.197767 -377.472309 
L 68.930762 -378.284124 
L 68.899032 -379.095939 
L 68.770134 -379.907753 
L 68.687561 -380.719568 
L 68.687561 -381.531383 
L 68.687561 -382.343197 
L 68.66726 -383.155012 
L 68.663789 -383.966827 
L 68.570099 -384.778641 
L 68.526566 -385.590456 
L 68.403846 -386.402271 
L 68.403846 -387.214085 
L 68.093442 -388.0259 
L 67.89026 -388.837714 
L 67.89026 -389.649529 
L 67.744821 -390.461344 
L 67.734365 -391.273158 
L 67.712569 -392.084973 
L 67.638634 -392.896788 
L 67.414801 -393.708602 
L 67.411722 -394.520417 
L 67.411722 -395.332232 
L 67.341344 -396.144046 
L 67.306327 -396.955861 
L 66.910682 -397.767676 
L 66.817862 -398.57949 
L 66.760865 -399.391305 
L 66.760865 -400.203119 
L 66.755709 -401.014934 
L 66.749607 -401.826749 
L 66.662103 -402.638563 
L 66.390426 -403.450378 
L 66.390426 -404.262193 
L 66.390426 -405.074007 
L 66.289021 -405.885822 
L 66.154531 -406.697637 
L 66.142169 -407.509451 
L 66.045513 -408.321266 
L 65.998619 -409.133081 
L 65.931805 -409.944895 
L 65.931805 -410.75671 
L 65.931805 -411.568524 
L 65.931805 -412.380339 
L 65.962991 -413.192154 
L 66.045513 -414.003968 
L 66.755709 -414.815783 
L 67.306327 -415.627598 
L 67.207026 -416.439412 
L 68.685468 -417.251227 
L 69.490408 -418.063042 
L 70.824077 -418.874856 
L 71.606972 -419.686671 
L 71.606972 -420.498486 
L 73.944455 -421.3103 
L 74.740994 -422.122115 
L 76.642198 -422.93393 
L 77.32438 -423.745744 
L 77.32438 -424.557559 
L 79.269315 -425.369373 
L 80.960131 -426.181188 
L 82.493551 -426.993003 
L 83.004898 -427.804817 
L 83.004898 -428.616632 
L 86.244494 -429.428447 
L 87.956572 -430.240261 
L 88.528961 -431.052076 
L 89.475871 -431.863891 
L 89.475871 -432.675705 
L 92.937635 -433.48752 
L 94.426804 -434.299335 
L 96.094812 -435.111149 
L 97.320015 -435.922964 
L 98.428211 -436.734778 
L 99.65923 -437.546593 
L 101.191427 -438.358408 
L 101.910581 -439.170222 
L 104.463927 -439.982037 
L 104.590666 -440.793852 
L 108.081052 -441.605666 
L 110.617932 -442.417481 
L 111.341785 -443.229296 
L 112.087446 -444.04111 
L 112.498472 -444.852925 
L 118.198567 -445.66474 
L 120.308905 -446.476554 
L 121.539042 -447.288369 
L 121.988365 -448.100183 
L 121.988365 -448.911998 
L 123.680572 -449.723813 
L 127.313502 -450.535627 
L 127.609213 -451.347442 
L 129.09484 -452.159257 
L 129.412665 -452.971071 
L 131.14247 -453.782886 
L 132.417838 -454.594701 
L 134.014396 -455.406515 
L 135.096152 -456.21833 
L 135.666209 -457.030145 
L 135.903391 -457.841959 
L 136.074382 -458.653774 
L 136.49892 -459.465589 
L 137.720716 -460.277403 
L 138.840956 -461.089218 
L 142.05926 -461.901032 
L 144.172991 -462.712847 
L 146.353718 -463.524662 
L 146.731542 -464.336476 
L 146.968067 -465.148291 
L 147.341262 -465.960106 
L 147.341262 -466.77192 
L 148.616598 -467.583735 
L 149.48035 -468.39555 
L 149.813775 -469.207364 
L 151.0517 -470.019179 
L 151.0517 -470.830994 
L 153.347459 -471.642808 
L 154.920776 -472.454623 
L 155.007795 -473.266437 
L 155.007795 -474.078252 
L 155.007795 -474.890067 
L 155.088863 -475.701881 
L 155.081067 -476.513696 
L 155.100816 -477.325511 
L 155.114498 -478.137325 
L 155.105361 -478.94914 
L 155.105361 -479.760955 
L 155.114498 -480.572769 
L 155.105361 -481.384584 
L 155.148346 -482.196399 
L 155.117625 -483.008213 
L 155.114498 -483.820028 
L 155.117625 -484.631843 
L 155.125368 -485.443657 
L 155.125368 -486.255472 
L 155.157968 -487.067286 
L 155.157968 -487.879101 
L 155.148746 -488.690916 
L 155.148746 -489.50273 
L 155.157968 -490.314545 
L 155.157968 -491.12636 
L 155.148746 -491.938174 
L 155.125368 -492.749989 
L 155.125368 -493.561804 
L 155.125368 -494.373618 
L 155.10102 -495.185433 
L 155.105361 -495.997248 
L 155.114498 -496.809062 
L 155.105361 -497.620877 
L 155.10102 -498.432691 
L 155.10102 -499.244506 
L 155.10102 -500.056321 
L 155.073633 -500.868135 
L 155.073633 -501.67995 
L 155.070307 -502.491765 
L 155.030974 -503.303579 
L 155.030974 -504.115394 
L 154.955407 -504.927209 
L 154.955407 -505.739023 
L 154.955407 -506.550838 
L 154.920776 -507.362653 
L 154.879259 -508.174467 
L 154.868549 -508.986282 
L 154.865318 -509.798096 
L 154.865318 -510.609911 
L 154.865318 -511.421726 
L 154.868549 -512.23354 
L 154.879259 -513.045355 
L 154.879259 -513.85717 
L 154.879259 -514.668984 
L 154.879259 -515.480799 
L 154.879259 -516.292614 
z
" style="stroke: #fecc5c; stroke-opacity: 0.5"/>
    </defs>
    <g clip-path="url(#p86cc82b5a3)">
     <use xlink:href="#m713ce6a9ba" x="0" y="544.35625" style="fill: #fecc5c; fill-opacity: 0.5; stroke: #fecc5c; stroke-opacity: 0.5"/>
    </g>
   </g>
   <g id="matplotlib.axis_1">
    <g id="xtick_1">
     <g id="line2d_1">
      <defs>
       <path id="m8d5d56f05c" d="M 0 0 
L 0 3.5 
" style="stroke: #000000; stroke-width: 1.5"/>
      </defs>
      <g>
       <use xlink:href="#m8d5d56f05c" x="55.956759" y="476.2" style="stroke: #000000; stroke-width: 1.5"/>
      </g>
     </g>
     <g id="text_1">
      <!-- 0 -->
      <g transform="translate(49.594259 498.396875) scale(0.2 -0.2)">
       <defs>
        <path id="DejaVuSans-30" d="M 2034 4250 
Q 1547 4250 1301 3770 
Q 1056 3291 1056 2328 
Q 1056 1369 1301 889 
Q 1547 409 2034 409 
Q 2525 409 2770 889 
Q 3016 1369 3016 2328 
Q 3016 3291 2770 3770 
Q 2525 4250 2034 4250 
z
M 2034 4750 
Q 2819 4750 3233 4129 
Q 3647 3509 3647 2328 
Q 3647 1150 3233 529 
Q 2819 -91 2034 -91 
Q 1250 -91 836 529 
Q 422 1150 422 2328 
Q 422 3509 836 4129 
Q 1250 4750 2034 4750 
z
" transform="scale(0.015625)"/>
       </defs>
       <use xlink:href="#DejaVuSans-30"/>
      </g>
     </g>
    </g>
    <g id="xtick_2">
     <g id="line2d_2">
      <g>
       <use xlink:href="#m8d5d56f05c" x="125.188683" y="476.2" style="stroke: #000000; stroke-width: 1.5"/>
      </g>
     </g>
     <g id="text_2">
      <!-- 250 -->
      <g transform="translate(106.101183 498.396875) scale(0.2 -0.2)">
       <defs>
        <path id="DejaVuSans-32" d="M 1228 531 
L 3431 531 
L 3431 0 
L 469 0 
L 469 531 
Q 828 903 1448 1529 
Q 2069 2156 2228 2338 
Q 2531 2678 2651 2914 
Q 2772 3150 2772 3378 
Q 2772 3750 2511 3984 
Q 2250 4219 1831 4219 
Q 1534 4219 1204 4116 
Q 875 4013 500 3803 
L 500 4441 
Q 881 4594 1212 4672 
Q 1544 4750 1819 4750 
Q 2544 4750 2975 4387 
Q 3406 4025 3406 3419 
Q 3406 3131 3298 2873 
Q 3191 2616 2906 2266 
Q 2828 2175 2409 1742 
Q 1991 1309 1228 531 
z
" transform="scale(0.015625)"/>
        <path id="DejaVuSans-35" d="M 691 4666 
L 3169 4666 
L 3169 4134 
L 1269 4134 
L 1269 2991 
Q 1406 3038 1543 3061 
Q 1681 3084 1819 3084 
Q 2600 3084 3056 2656 
Q 3513 2228 3513 1497 
Q 3513 744 3044 326 
Q 2575 -91 1722 -91 
Q 1428 -91 1123 -41 
Q 819 9 494 109 
L 494 744 
Q 775 591 1075 516 
Q 1375 441 1709 441 
Q 2250 441 2565 725 
Q 2881 1009 2881 1497 
Q 2881 1984 2565 2268 
Q 2250 2553 1709 2553 
Q 1456 2553 1204 2497 
Q 953 2441 691 2322 
L 691 4666 
z
" transform="scale(0.015625)"/>
       </defs>
       <use xlink:href="#DejaVuSans-32"/>
       <use xlink:href="#DejaVuSans-35" x="63.623047"/>
       <use xlink:href="#DejaVuSans-30" x="127.246094"/>
      </g>
     </g>
    </g>
    <g id="xtick_3">
     <g id="line2d_3">
      <g>
       <use xlink:href="#m8d5d56f05c" x="194.420606" y="476.2" style="stroke: #000000; stroke-width: 1.5"/>
      </g>
     </g>
     <g id="text_3">
      <!-- 500 -->
      <g transform="translate(175.333106 498.396875) scale(0.2 -0.2)">
       <use xlink:href="#DejaVuSans-35"/>
       <use xlink:href="#DejaVuSans-30" x="63.623047"/>
       <use xlink:href="#DejaVuSans-30" x="127.246094"/>
      </g>
     </g>
    </g>
    <g id="xtick_4">
     <g id="line2d_4">
      <g>
       <use xlink:href="#m8d5d56f05c" x="263.65253" y="476.2" style="stroke: #000000; stroke-width: 1.5"/>
      </g>
     </g>
     <g id="text_4">
      <!-- 750 -->
      <g transform="translate(244.56503 498.396875) scale(0.2 -0.2)">
       <defs>
        <path id="DejaVuSans-37" d="M 525 4666 
L 3525 4666 
L 3525 4397 
L 1831 0 
L 1172 0 
L 2766 4134 
L 525 4134 
L 525 4666 
z
" transform="scale(0.015625)"/>
       </defs>
       <use xlink:href="#DejaVuSans-37"/>
       <use xlink:href="#DejaVuSans-35" x="63.623047"/>
       <use xlink:href="#DejaVuSans-30" x="127.246094"/>
      </g>
     </g>
    </g>
    <g id="text_5">
     <!-- Resistivity  [$\Omega m$] -->
     <g transform="translate(90.35 532.75625) scale(0.2 -0.2)">
      <defs>
       <path id="DejaVuSans-Bold-52" d="M 2297 2597 
Q 2675 2597 2839 2737 
Q 3003 2878 3003 3200 
Q 3003 3519 2839 3656 
Q 2675 3794 2297 3794 
L 1791 3794 
L 1791 2597 
L 2297 2597 
z
M 1791 1766 
L 1791 0 
L 588 0 
L 588 4666 
L 2425 4666 
Q 3347 4666 3776 4356 
Q 4206 4047 4206 3378 
Q 4206 2916 3982 2619 
Q 3759 2322 3309 2181 
Q 3556 2125 3751 1926 
Q 3947 1728 4147 1325 
L 4800 0 
L 3519 0 
L 2950 1159 
Q 2778 1509 2601 1637 
Q 2425 1766 2131 1766 
L 1791 1766 
z
" transform="scale(0.015625)"/>
       <path id="DejaVuSans-Bold-65" d="M 4031 1759 
L 4031 1441 
L 1416 1441 
Q 1456 1047 1700 850 
Q 1944 653 2381 653 
Q 2734 653 3104 758 
Q 3475 863 3866 1075 
L 3866 213 
Q 3469 63 3072 -14 
Q 2675 -91 2278 -91 
Q 1328 -91 801 392 
Q 275 875 275 1747 
Q 275 2603 792 3093 
Q 1309 3584 2216 3584 
Q 3041 3584 3536 3087 
Q 4031 2591 4031 1759 
z
M 2881 2131 
Q 2881 2450 2695 2645 
Q 2509 2841 2209 2841 
Q 1884 2841 1681 2658 
Q 1478 2475 1428 2131 
L 2881 2131 
z
" transform="scale(0.015625)"/>
       <path id="DejaVuSans-Bold-73" d="M 3272 3391 
L 3272 2541 
Q 2913 2691 2578 2766 
Q 2244 2841 1947 2841 
Q 1628 2841 1473 2761 
Q 1319 2681 1319 2516 
Q 1319 2381 1436 2309 
Q 1553 2238 1856 2203 
L 2053 2175 
Q 2913 2066 3209 1816 
Q 3506 1566 3506 1031 
Q 3506 472 3093 190 
Q 2681 -91 1863 -91 
Q 1516 -91 1145 -36 
Q 775 19 384 128 
L 384 978 
Q 719 816 1070 734 
Q 1422 653 1784 653 
Q 2113 653 2278 743 
Q 2444 834 2444 1013 
Q 2444 1163 2330 1236 
Q 2216 1309 1875 1350 
L 1678 1375 
Q 931 1469 631 1722 
Q 331 1975 331 2491 
Q 331 3047 712 3315 
Q 1094 3584 1881 3584 
Q 2191 3584 2531 3537 
Q 2872 3491 3272 3391 
z
" transform="scale(0.015625)"/>
       <path id="DejaVuSans-Bold-69" d="M 538 3500 
L 1656 3500 
L 1656 0 
L 538 0 
L 538 3500 
z
M 538 4863 
L 1656 4863 
L 1656 3950 
L 538 3950 
L 538 4863 
z
" transform="scale(0.015625)"/>
       <path id="DejaVuSans-Bold-74" d="M 1759 4494 
L 1759 3500 
L 2913 3500 
L 2913 2700 
L 1759 2700 
L 1759 1216 
Q 1759 972 1856 886 
Q 1953 800 2241 800 
L 2816 800 
L 2816 0 
L 1856 0 
Q 1194 0 917 276 
Q 641 553 641 1216 
L 641 2700 
L 84 2700 
L 84 3500 
L 641 3500 
L 641 4494 
L 1759 4494 
z
" transform="scale(0.015625)"/>
       <path id="DejaVuSans-Bold-76" d="M 97 3500 
L 1216 3500 
L 2088 1081 
L 2956 3500 
L 4078 3500 
L 2700 0 
L 1472 0 
L 97 3500 
z
" transform="scale(0.015625)"/>
       <path id="DejaVuSans-Bold-79" d="M 78 3500 
L 1197 3500 
L 2138 1125 
L 2938 3500 
L 4056 3500 
L 2584 -331 
Q 2363 -916 2067 -1148 
Q 1772 -1381 1288 -1381 
L 641 -1381 
L 641 -647 
L 991 -647 
Q 1275 -647 1404 -556 
Q 1534 -466 1606 -231 
L 1638 -134 
L 78 3500 
z
" transform="scale(0.015625)"/>
       <path id="DejaVuSans-Bold-20" transform="scale(0.015625)"/>
       <path id="DejaVuSans-Bold-5b" d="M 550 4863 
L 2491 4863 
L 2491 4159 
L 1613 4159 
L 1613 -141 
L 2491 -141 
L 2491 -844 
L 550 -844 
L 550 4863 
z
" transform="scale(0.015625)"/>
       <path id="DejaVuSans-Bold-3a9" d="M 2719 4750 
Q 3841 4750 4480 4106 
Q 5119 3463 5119 2494 
Q 5119 1406 4306 909 
L 5266 909 
L 5266 0 
L 3125 0 
L 3125 975 
Q 3244 1041 3334 1131 
Q 3875 1678 3875 2466 
Q 3875 3066 3572 3472 
Q 3269 3878 2719 3878 
Q 2169 3878 1866 3472 
Q 1563 3066 1563 2466 
Q 1563 1678 2103 1131 
Q 2194 1041 2313 975 
L 2313 0 
L 172 0 
L 172 909 
L 1131 909 
Q 319 1406 319 2494 
Q 319 3463 958 4106 
Q 1597 4750 2719 4750 
z
" transform="scale(0.015625)"/>
       <path id="DejaVuSans-Bold-6d" d="M 3781 2919 
Q 3994 3244 4286 3414 
Q 4578 3584 4928 3584 
Q 5531 3584 5847 3212 
Q 6163 2841 6163 2131 
L 6163 0 
L 5038 0 
L 5038 1825 
Q 5041 1866 5042 1909 
Q 5044 1953 5044 2034 
Q 5044 2406 4934 2573 
Q 4825 2741 4581 2741 
Q 4263 2741 4089 2478 
Q 3916 2216 3909 1719 
L 3909 0 
L 2784 0 
L 2784 1825 
Q 2784 2406 2684 2573 
Q 2584 2741 2328 2741 
Q 2006 2741 1831 2477 
Q 1656 2213 1656 1722 
L 1656 0 
L 531 0 
L 531 3500 
L 1656 3500 
L 1656 2988 
Q 1863 3284 2130 3434 
Q 2397 3584 2719 3584 
Q 3081 3584 3359 3409 
Q 3638 3234 3781 2919 
z
" transform="scale(0.015625)"/>
       <path id="DejaVuSans-Bold-5d" d="M 2375 -844 
L 434 -844 
L 434 -141 
L 1313 -141 
L 1313 4159 
L 434 4159 
L 434 4863 
L 2375 4863 
L 2375 -844 
z
" transform="scale(0.015625)"/>
      </defs>
      <use xlink:href="#DejaVuSans-Bold-52" transform="translate(0 0.015625)"/>
      <use xlink:href="#DejaVuSans-Bold-65" transform="translate(77.001953 0.015625)"/>
      <use xlink:href="#DejaVuSans-Bold-73" transform="translate(144.824219 0.015625)"/>
      <use xlink:href="#DejaVuSans-Bold-69" transform="translate(204.345703 0.015625)"/>
      <use xlink:href="#DejaVuSans-Bold-73" transform="translate(238.623047 0.015625)"/>
      <use xlink:href="#DejaVuSans-Bold-74" transform="translate(298.144531 0.015625)"/>
      <use xlink:href="#DejaVuSans-Bold-69" transform="translate(345.947266 0.015625)"/>
      <use xlink:href="#DejaVuSans-Bold-76" transform="translate(380.224609 0.015625)"/>
      <use xlink:href="#DejaVuSans-Bold-69" transform="translate(445.410156 0.015625)"/>
      <use xlink:href="#DejaVuSans-Bold-74" transform="translate(479.6875 0.015625)"/>
      <use xlink:href="#DejaVuSans-Bold-79" transform="translate(527.490234 0.015625)"/>
      <use xlink:href="#DejaVuSans-Bold-20" transform="translate(592.675781 0.015625)"/>
      <use xlink:href="#DejaVuSans-Bold-20" transform="translate(627.490234 0.015625)"/>
      <use xlink:href="#DejaVuSans-Bold-5b" transform="translate(662.304688 0.015625)"/>
      <use xlink:href="#DejaVuSans-Bold-3a9" transform="translate(708.007812 0.015625)"/>
      <use xlink:href="#DejaVuSans-Bold-6d" transform="translate(793.017578 0.015625)"/>
      <use xlink:href="#DejaVuSans-Bold-5d" transform="translate(897.216797 0.015625)"/>
     </g>
    </g>
   </g>
   <g id="matplotlib.axis_2">
    <g id="ytick_1">
     <g id="line2d_5">
      <defs>
       <path id="m68d325604f" d="M 0 0 
L -3.5 0 
" style="stroke: #000000; stroke-width: 1.5"/>
      </defs>
      <g>
       <use xlink:href="#m68d325604f" x="39.65" y="28.063636" style="stroke: #000000; stroke-width: 1.5"/>
      </g>
     </g>
     <g id="text_6">
      <!-- 0 -->
      <g transform="translate(19.925 35.662074) scale(0.2 -0.2)">
       <use xlink:href="#DejaVuSans-30"/>
      </g>
     </g>
    </g>
    <g id="ytick_2">
     <g id="line2d_6">
      <g>
       <use xlink:href="#m68d325604f" x="39.65" y="109.245101" style="stroke: #000000; stroke-width: 1.5"/>
      </g>
     </g>
     <g id="text_7">
      <!-- 10 -->
      <g transform="translate(7.2 116.843538) scale(0.2 -0.2)">
       <defs>
        <path id="DejaVuSans-31" d="M 794 531 
L 1825 531 
L 1825 4091 
L 703 3866 
L 703 4441 
L 1819 4666 
L 2450 4666 
L 2450 531 
L 3481 531 
L 3481 0 
L 794 0 
L 794 531 
z
" transform="scale(0.015625)"/>
       </defs>
       <use xlink:href="#DejaVuSans-31"/>
       <use xlink:href="#DejaVuSans-30" x="63.623047"/>
      </g>
     </g>
    </g>
    <g id="ytick_3">
     <g id="line2d_7">
      <g>
       <use xlink:href="#m68d325604f" x="39.65" y="190.426565" style="stroke: #000000; stroke-width: 1.5"/>
      </g>
     </g>
     <g id="text_8">
      <!-- 20 -->
      <g transform="translate(7.2 198.025003) scale(0.2 -0.2)">
       <use xlink:href="#DejaVuSans-32"/>
       <use xlink:href="#DejaVuSans-30" x="63.623047"/>
      </g>
     </g>
    </g>
    <g id="ytick_4">
     <g id="line2d_8">
      <g>
       <use xlink:href="#m68d325604f" x="39.65" y="271.60803" style="stroke: #000000; stroke-width: 1.5"/>
      </g>
     </g>
     <g id="text_9">
      <!-- 30 -->
      <g transform="translate(7.2 279.206467) scale(0.2 -0.2)">
       <defs>
        <path id="DejaVuSans-33" d="M 2597 2516 
Q 3050 2419 3304 2112 
Q 3559 1806 3559 1356 
Q 3559 666 3084 287 
Q 2609 -91 1734 -91 
Q 1441 -91 1130 -33 
Q 819 25 488 141 
L 488 750 
Q 750 597 1062 519 
Q 1375 441 1716 441 
Q 2309 441 2620 675 
Q 2931 909 2931 1356 
Q 2931 1769 2642 2001 
Q 2353 2234 1838 2234 
L 1294 2234 
L 1294 2753 
L 1863 2753 
Q 2328 2753 2575 2939 
Q 2822 3125 2822 3475 
Q 2822 3834 2567 4026 
Q 2313 4219 1838 4219 
Q 1578 4219 1281 4162 
Q 984 4106 628 3988 
L 628 4550 
Q 988 4650 1302 4700 
Q 1616 4750 1894 4750 
Q 2613 4750 3031 4423 
Q 3450 4097 3450 3541 
Q 3450 3153 3228 2886 
Q 3006 2619 2597 2516 
z
" transform="scale(0.015625)"/>
       </defs>
       <use xlink:href="#DejaVuSans-33"/>
       <use xlink:href="#DejaVuSans-30" x="63.623047"/>
      </g>
     </g>
    </g>
    <g id="ytick_5">
     <g id="line2d_9">
      <g>
       <use xlink:href="#m68d325604f" x="39.65" y="352.789494" style="stroke: #000000; stroke-width: 1.5"/>
      </g>
     </g>
     <g id="text_10">
      <!-- 40 -->
      <g transform="translate(7.2 360.387932) scale(0.2 -0.2)">
       <defs>
        <path id="DejaVuSans-34" d="M 2419 4116 
L 825 1625 
L 2419 1625 
L 2419 4116 
z
M 2253 4666 
L 3047 4666 
L 3047 1625 
L 3713 1625 
L 3713 1100 
L 3047 1100 
L 3047 0 
L 2419 0 
L 2419 1100 
L 313 1100 
L 313 1709 
L 2253 4666 
z
" transform="scale(0.015625)"/>
       </defs>
       <use xlink:href="#DejaVuSans-34"/>
       <use xlink:href="#DejaVuSans-30" x="63.623047"/>
      </g>
     </g>
    </g>
    <g id="ytick_6">
     <g id="line2d_10">
      <g>
       <use xlink:href="#m68d325604f" x="39.65" y="433.970959" style="stroke: #000000; stroke-width: 1.5"/>
      </g>
     </g>
     <g id="text_11">
      <!-- 50 -->
      <g transform="translate(7.2 441.569396) scale(0.2 -0.2)">
       <use xlink:href="#DejaVuSans-35"/>
       <use xlink:href="#DejaVuSans-30" x="63.623047"/>
      </g>
     </g>
    </g>
   </g>
   <g id="line2d_11">
    <path d="M 155.25153 28.063636 
L 155.25153 105.997842 
L 93.845852 105.997842 
L 93.845852 151.459462 
L 145.892408 151.459462 
L 145.892408 164.448497 
L 82.487479 164.448497 
L 82.487479 445.336364 
L 82.487479 445.336364 
" clip-path="url(#p86cc82b5a3)" style="fill: none; stroke: #fecc5c; stroke-opacity: 0.3; stroke-width: 2; stroke-linecap: square"/>
   </g>
   <g id="line2d_12">
    <path d="M 154.004535 28.063636 
L 154.004535 61.348037 
L 163.845509 61.348037 
L 163.845509 74.337071 
L 156.753969 74.337071 
L 156.753969 121.42232 
L 85.261742 121.42232 
L 85.261742 445.336364 
L 85.261742 445.336364 
" clip-path="url(#p86cc82b5a3)" style="fill: none; stroke: #fecc5c; stroke-opacity: 0.3; stroke-width: 2; stroke-linecap: square"/>
   </g>
   <g id="line2d_13">
    <path d="M 156.37321 28.063636 
L 156.37321 123.857764 
L 70.276018 123.857764 
L 70.276018 181.496604 
L 167.218511 181.496604 
L 167.218511 205.851044 
L 83.181659 205.851044 
L 83.181659 445.336364 
L 83.181659 445.336364 
" clip-path="url(#p86cc82b5a3)" style="fill: none; stroke: #fecc5c; stroke-opacity: 0.3; stroke-width: 2; stroke-linecap: square"/>
   </g>
   <g id="line2d_14">
    <path d="M 155.55731 28.063636 
L 155.55731 118.986877 
L 80.508159 118.986877 
L 80.508159 237.511815 
L 180.742636 237.511815 
L 180.742636 278.914362 
L 78.551658 278.914362 
L 78.551658 445.336364 
L 78.551658 445.336364 
" clip-path="url(#p86cc82b5a3)" style="fill: none; stroke: #fecc5c; stroke-opacity: 0.3; stroke-width: 2; stroke-linecap: square"/>
   </g>
   <g id="line2d_15">
    <path d="M 150.620698 28.063636 
L 150.620698 41.864485 
L 155.073777 41.864485 
L 155.073777 64.595295 
L 194.273294 64.595295 
L 194.273294 110.056915 
L 84.530619 110.056915 
L 84.530619 445.336364 
L 84.530619 445.336364 
" clip-path="url(#p86cc82b5a3)" style="fill: none; stroke: #fecc5c; stroke-opacity: 0.3; stroke-width: 2; stroke-linecap: square"/>
   </g>
   <g id="line2d_16">
    <path d="M 155.455313 28.063636 
L 155.455313 102.750584 
L 99.09658 102.750584 
L 99.09658 190.426565 
L 88.56281 190.426565 
L 88.56281 269.9844 
L 83.995713 269.9844 
L 83.995713 445.336364 
L 83.995713 445.336364 
" clip-path="url(#p86cc82b5a3)" style="fill: none; stroke: #fecc5c; stroke-opacity: 0.3; stroke-width: 2; stroke-linecap: square"/>
   </g>
   <g id="line2d_17">
    <path d="M 155.977645 28.063636 
L 155.977645 129.540467 
L 68.667264 129.540467 
L 68.667264 213.157375 
L 187.523967 213.157375 
L 187.523967 335.741387 
L 61.922727 335.741387 
L 61.922727 445.336364 
L 61.922727 445.336364 
" clip-path="url(#p86cc82b5a3)" style="fill: none; stroke: #fecc5c; stroke-opacity: 0.3; stroke-width: 2; stroke-linecap: square"/>
   </g>
   <g id="line2d_18">
    <path d="M 156.601662 28.063636 
L 156.601662 125.481394 
L 75.920049 125.481394 
L 75.920049 243.194517 
L 242.497698 243.194517 
L 242.497698 280.537991 
L 78.680063 280.537991 
L 78.680063 445.336364 
L 78.680063 445.336364 
" clip-path="url(#p86cc82b5a3)" style="fill: none; stroke: #fecc5c; stroke-opacity: 0.3; stroke-width: 2; stroke-linecap: square"/>
   </g>
   <g id="line2d_19">
    <path d="M 156.146542 28.063636 
L 156.146542 121.42232 
L 78.330022 121.42232 
L 78.330022 242.382703 
L 129.271076 242.382703 
L 129.271076 379.579377 
L 71.719779 379.579377 
L 71.719779 445.336364 
L 71.719779 445.336364 
" clip-path="url(#p86cc82b5a3)" style="fill: none; stroke: #fecc5c; stroke-opacity: 0.3; stroke-width: 2; stroke-linecap: square"/>
   </g>
   <g id="line2d_20">
    <path d="M 156.368233 28.063636 
L 156.368233 73.525256 
L 137.280243 73.525256 
L 137.280243 135.223169 
L 83.410033 135.223169 
L 83.410033 186.367492 
L 84.828666 186.367492 
L 84.828666 445.336364 
L 84.828666 445.336364 
" clip-path="url(#p86cc82b5a3)" style="fill: none; stroke: #fecc5c; stroke-opacity: 0.3; stroke-width: 2; stroke-linecap: square"/>
   </g>
   <g id="line2d_21">
    <path d="M 155.814597 28.063636 
L 155.814597 111.680545 
L 87.395956 111.680545 
L 87.395956 161.201238 
L 103.006181 161.201238 
L 103.006181 210.721931 
L 86.0271 210.721931 
L 86.0271 445.336364 
L 86.0271 445.336364 
" clip-path="url(#p86cc82b5a3)" style="fill: none; stroke: #fecc5c; stroke-opacity: 0.3; stroke-width: 2; stroke-linecap: square"/>
   </g>
   <g id="line2d_22">
    <path d="M 155.915648 28.063636 
L 155.915648 62.971666 
L 148.355026 62.971666 
L 148.355026 100.31514 
L 141.220977 100.31514 
L 141.220977 122.234135 
L 84.14966 122.234135 
L 84.14966 445.336364 
L 84.14966 445.336364 
" clip-path="url(#p86cc82b5a3)" style="fill: none; stroke: #fecc5c; stroke-opacity: 0.3; stroke-width: 2; stroke-linecap: square"/>
   </g>
   <g id="line2d_23">
    <path d="M 156.097204 28.063636 
L 156.097204 123.857764 
L 75.644425 123.857764 
L 75.644425 223.710966 
L 212.029448 223.710966 
L 212.029448 252.936293 
L 80.616358 252.936293 
L 80.616358 445.336364 
L 80.616358 445.336364 
" clip-path="url(#p86cc82b5a3)" style="fill: none; stroke: #fecc5c; stroke-opacity: 0.3; stroke-width: 2; stroke-linecap: square"/>
   </g>
   <g id="line2d_24">
    <path d="M 155.431971 28.063636 
L 155.431971 126.293208 
L 65.072601 126.293208 
L 65.072601 159.577609 
L 114.234598 159.577609 
L 114.234598 284.597064 
L 77.524261 284.597064 
L 77.524261 445.336364 
L 77.524261 445.336364 
" clip-path="url(#p86cc82b5a3)" style="fill: none; stroke: #fecc5c; stroke-opacity: 0.3; stroke-width: 2; stroke-linecap: square"/>
   </g>
   <g id="line2d_25">
    <path d="M 156.542453 28.063636 
L 156.542453 118.175062 
L 79.873177 118.175062 
L 79.873177 235.888185 
L 198.716755 235.888185 
L 198.716755 268.360771 
L 77.799177 268.360771 
L 77.799177 445.336364 
L 77.799177 445.336364 
" clip-path="url(#p86cc82b5a3)" style="fill: none; stroke: #fecc5c; stroke-opacity: 0.3; stroke-width: 2; stroke-linecap: square"/>
   </g>
   <g id="line2d_26">
    <path d="M 155.990398 28.063636 
L 155.990398 118.986877 
L 78.857829 118.986877 
L 78.857829 232.640927 
L 307.377273 232.640927 
L 307.377273 261.054439 
L 73.024618 261.054439 
L 73.024618 445.336364 
L 73.024618 445.336364 
" clip-path="url(#p86cc82b5a3)" style="fill: none; stroke: #fecc5c; stroke-opacity: 0.3; stroke-width: 2; stroke-linecap: square"/>
   </g>
   <g id="line2d_27">
    <path d="M 155.788162 28.063636 
L 155.788162 125.481394 
L 75.709758 125.481394 
L 75.709758 256.183551 
L 238.995519 256.183551 
L 238.995519 337.365016 
L 62.00723 337.365016 
L 62.00723 445.336364 
L 62.00723 445.336364 
" clip-path="url(#p86cc82b5a3)" style="fill: none; stroke: #fecc5c; stroke-opacity: 0.3; stroke-width: 2; stroke-linecap: square"/>
   </g>
   <g id="line2d_28">
    <path d="M 156.698867 28.063636 
L 156.698867 119.798691 
L 80.077964 119.798691 
L 80.077964 235.076371 
L 121.043941 235.076371 
L 121.043941 366.590343 
L 72.517695 366.590343 
L 72.517695 445.336364 
L 72.517695 445.336364 
" clip-path="url(#p86cc82b5a3)" style="fill: none; stroke: #fecc5c; stroke-opacity: 0.3; stroke-width: 2; stroke-linecap: square"/>
   </g>
   <g id="line2d_29">
    <path d="M 156.050976 28.063636 
L 155.96796 109.245101 
L 188.946797 109.245101 
L 188.946797 111.680545 
L 85.375457 111.680545 
L 85.375457 445.336364 
L 85.375457 445.336364 
" clip-path="url(#p86cc82b5a3)" style="fill: none; stroke: #fecc5c; stroke-opacity: 0.3; stroke-width: 2; stroke-linecap: square"/>
   </g>
   <g id="line2d_30">
    <path d="M 155.959374 28.063636 
L 155.959374 77.58433 
L 145.09843 77.58433 
L 145.09843 116.551433 
L 99.401777 116.551433 
L 99.401777 186.367492 
L 83.117982 186.367492 
L 83.117982 445.336364 
L 83.117982 445.336364 
" clip-path="url(#p86cc82b5a3)" style="fill: none; stroke: #fecc5c; stroke-opacity: 0.3; stroke-width: 2; stroke-linecap: square"/>
   </g>
   <g id="line2d_31"/>
   <g id="line2d_32">
    <path d="M 156.070047 28.063636 
L 156.089523 32.12271 
L 155.948958 32.12271 
L 155.948958 32.934524 
L 155.781015 32.934524 
L 155.882439 41.864485 
L 155.917799 41.864485 
L 155.915413 44.299929 
L 156.197343 44.299929 
L 156.193931 49.982632 
L 156.368829 49.982632 
L 156.469455 53.22989 
L 156.604257 53.22989 
L 156.581686 58.100778 
L 156.286159 58.100778 
L 156.27078 61.348037 
L 156.456828 61.348037 
L 156.456828 62.159851 
L 156.588376 62.159851 
L 156.526177 63.783481 
L 156.732378 63.783481 
L 156.697026 68.654369 
L 156.861343 68.654369 
L 156.861343 69.466183 
L 157.140623 69.466183 
L 157.11542 72.713442 
L 156.965364 72.713442 
L 156.867423 75.148886 
L 157.093496 75.148886 
L 157.032205 76.772515 
L 156.897112 76.772515 
L 156.897112 77.58433 
L 156.737586 77.58433 
L 156.737586 79.207959 
L 156.490212 79.207959 
L 156.490212 80.019774 
L 156.308021 80.019774 
L 156.324821 81.643403 
L 156.129378 81.643403 
L 156.129378 82.455218 
L 155.933953 82.455218 
L 155.971861 84.078847 
L 155.639595 84.078847 
L 155.560338 85.702476 
L 155.493545 85.702476 
L 155.418586 88.13792 
L 155.35929 88.13792 
L 155.35929 88.949735 
L 155.244032 88.949735 
L 155.168521 90.573364 
L 154.813018 90.573364 
L 154.813018 91.385179 
L 154.556122 91.385179 
L 154.556122 92.196993 
L 154.428097 92.196993 
L 154.428097 93.008808 
L 154.018309 93.008808 
L 153.927148 94.632437 
L 153.489836 94.632437 
L 153.489836 95.444252 
L 153.037914 95.444252 
L 152.994025 97.879696 
L 152.64312 97.879696 
L 152.64312 98.69151 
L 152.332566 98.69151 
L 152.332566 99.503325 
L 151.394444 99.503325 
L 151.394444 100.31514 
L 151.103802 100.31514 
L 151.103802 101.126954 
L 150.909827 101.126954 
L 150.909827 101.938769 
L 150.603132 101.938769 
L 150.603132 102.750584 
L 150.216651 102.750584 
L 150.216651 103.562398 
L 149.501752 103.562398 
L 149.501752 104.374213 
L 149.238 104.374213 
L 149.238 105.186028 
L 148.574411 105.186028 
L 148.574411 105.997842 
L 148.188827 105.997842 
L 148.188827 106.809657 
L 147.37163 106.809657 
L 147.37163 107.621472 
L 146.874867 107.621472 
L 146.874867 108.433286 
L 146.501341 108.433286 
L 146.501341 109.245101 
L 145.730846 109.245101 
L 145.730846 110.056915 
L 144.768463 110.056915 
L 144.768463 110.86873 
L 143.681336 110.86873 
L 143.681336 111.680545 
L 142.107827 111.680545 
L 142.107827 112.492359 
L 141.978582 112.492359 
L 141.978582 113.304174 
L 140.962304 113.304174 
L 140.962304 114.115989 
L 140.220163 114.115989 
L 140.220163 114.927803 
L 139.253887 114.927803 
L 139.253887 115.739618 
L 135.718118 115.739618 
L 135.718118 116.551433 
L 135.538264 116.551433 
L 135.538264 117.363247 
L 133.710223 117.363247 
L 133.710223 118.175062 
L 131.421326 118.175062 
L 131.421326 118.986877 
L 128.441914 118.986877 
L 128.441914 119.798691 
L 122.31526 119.798691 
L 122.295297 121.42232 
L 118.79502 121.42232 
L 118.79502 122.234135 
L 113.752943 122.234135 
L 113.752943 123.04595 
L 109.517765 123.04595 
L 109.517765 123.857764 
L 101.664668 123.857764 
L 101.664668 124.669579 
L 101.31802 124.669579 
L 101.31802 125.481394 
L 97.096656 125.481394 
L 97.096656 126.293208 
L 93.314703 126.293208 
L 93.314703 127.105023 
L 90.682905 127.105023 
L 90.682905 127.916838 
L 87.675621 127.916838 
L 87.675621 128.728652 
L 87.85155 128.728652 
L 87.85155 129.540467 
L 86.369297 129.540467 
L 86.369297 130.352282 
L 85.17055 130.352282 
L 85.17055 131.164096 
L 84.795981 131.164096 
L 84.795981 131.975911 
L 84.667721 131.975911 
L 84.598486 133.59954 
L 84.448815 133.59954 
L 84.448815 134.411355 
L 84.237245 134.411355 
L 84.237245 135.223169 
L 84.396754 135.223169 
L 84.379226 137.658613 
L 84.848149 137.658613 
L 84.868021 139.282243 
L 85.012461 139.282243 
L 85.012461 140.094057 
L 84.824153 140.094057 
L 84.824153 140.905872 
L 84.583844 140.905872 
L 84.583844 141.717687 
L 84.869521 141.717687 
L 84.953077 143.341316 
L 85.12653 143.341316 
L 85.042793 146.588574 
L 84.866472 146.588574 
L 84.899071 148.212204 
L 85.120332 148.212204 
L 85.120332 149.024018 
L 85.345819 149.024018 
L 85.345819 149.835833 
L 84.96631 149.835833 
L 85.036665 151.459462 
L 85.18127 151.459462 
L 85.26172 153.894906 
L 85.517762 153.894906 
L 85.55107 155.518536 
L 85.959961 155.518536 
L 85.959961 156.33035 
L 86.249215 156.33035 
L 86.249215 157.142165 
L 86.784714 157.142165 
L 86.715096 158.765794 
L 87.215091 158.765794 
L 87.169507 160.389423 
L 87.469314 160.389423 
L 87.469314 161.201238 
L 87.859184 161.201238 
L 87.859184 162.013053 
L 88.036009 162.013053 
L 87.956055 163.636682 
L 87.856954 163.636682 
L 87.856954 164.448497 
L 88.138265 164.448497 
L 88.138265 165.260311 
L 88.490621 165.260311 
L 88.490621 166.072126 
L 88.344034 166.072126 
L 88.344034 166.883941 
L 89.022875 166.883941 
L 89.042106 169.319385 
L 88.830819 169.319385 
L 88.830819 170.131199 
L 88.389292 170.131199 
L 88.389292 170.943014 
L 88.893582 170.943014 
L 88.987464 173.378458 
L 89.129991 173.378458 
L 89.180635 175.002087 
L 89.287728 175.002087 
L 89.287728 175.813902 
L 89.620503 175.813902 
L 89.561418 178.249346 
L 89.826805 178.249346 
L 89.826805 179.06116 
L 90.065482 179.06116 
L 90.065482 179.872975 
L 90.873064 179.872975 
L 90.957826 183.120233 
L 91.470009 183.120233 
L 91.470009 183.932048 
L 92.122974 183.932048 
L 92.049401 185.555677 
L 93.083308 185.555677 
L 93.083308 186.367492 
L 92.812331 186.367492 
L 92.812331 187.179307 
L 93.211342 187.179307 
L 93.211342 187.991121 
L 93.802441 187.991121 
L 93.802441 188.802936 
L 94.100206 188.802936 
L 94.100206 189.614751 
L 94.284301 189.614751 
L 94.284301 190.426565 
L 94.454934 190.426565 
L 94.454934 191.23838 
L 94.727509 191.23838 
L 94.727509 192.050195 
L 94.877932 192.050195 
L 94.877932 192.862009 
L 95.002257 192.862009 
L 95.002257 193.673824 
L 94.769216 193.673824 
L 94.769216 194.485638 
L 94.528206 194.485638 
L 94.528206 195.297453 
L 94.262011 195.297453 
L 94.251988 196.921082 
L 94.421436 196.921082 
L 94.421436 197.732897 
L 95.191895 197.732897 
L 95.191895 198.544712 
L 95.956567 198.544712 
L 95.979479 200.168341 
L 95.827739 200.168341 
L 95.827739 200.980156 
L 96.6945 200.980156 
L 96.6945 201.79197 
L 96.926997 201.79197 
L 97.009167 203.4156 
L 97.486861 203.4156 
L 97.518049 205.039229 
L 97.676924 205.039229 
L 97.676924 205.851044 
L 98.016159 205.851044 
L 98.018673 207.474673 
L 98.927538 207.474673 
L 98.927538 208.286487 
L 98.64505 208.286487 
L 98.64505 209.098302 
L 99.050974 209.098302 
L 99.050974 209.910117 
L 99.76244 209.910117 
L 99.76244 210.721931 
L 100.028444 210.721931 
L 100.087757 212.345561 
L 99.832324 212.345561 
L 99.832324 213.157375 
L 100.248308 213.157375 
L 100.248308 213.96919 
L 100.870976 213.96919 
L 100.938881 215.592819 
L 101.032529 215.592819 
L 101.032529 216.404634 
L 100.535521 216.404634 
L 100.535521 217.216449 
L 101.135429 217.216449 
L 101.226923 218.840078 
L 101.573243 218.840078 
L 101.487289 220.463707 
L 102.247401 220.463707 
L 102.254902 222.087336 
L 102.898875 222.087336 
L 102.898875 222.899151 
L 102.603236 222.899151 
L 102.603236 223.710966 
L 102.266918 223.710966 
L 102.336998 225.334595 
L 102.567036 225.334595 
L 102.656273 226.958224 
L 102.843753 226.958224 
L 102.843753 227.770039 
L 102.68461 227.770039 
L 102.68461 228.581854 
L 103.205278 228.581854 
L 103.310908 231.017297 
L 102.744072 231.017297 
L 102.744072 231.829112 
L 102.207584 231.829112 
L 102.207584 232.640927 
L 102.91407 232.640927 
L 102.993185 234.264556 
L 103.576326 234.264556 
L 103.576326 235.076371 
L 103.158283 235.076371 
L 103.216981 236.7 
L 104.135522 236.7 
L 104.162962 239.135444 
L 104.319769 239.135444 
L 104.319769 239.947259 
L 104.634428 239.947259 
L 104.634428 240.759073 
L 105.028451 240.759073 
L 105.028451 241.570888 
L 105.4775 241.570888 
L 105.4775 242.382703 
L 105.283084 242.382703 
L 105.283084 243.194517 
L 105.645284 243.194517 
L 105.645284 244.006332 
L 105.805449 244.006332 
L 105.805449 244.818146 
L 106.03965 244.818146 
L 106.03965 245.629961 
L 106.32233 245.629961 
L 106.32233 246.441776 
L 106.741119 246.441776 
L 106.741119 247.25359 
L 106.435397 247.25359 
L 106.435397 248.065405 
L 106.817577 248.065405 
L 106.727362 250.500849 
L 106.691411 250.500849 
L 106.691411 251.312664 
L 107.170907 251.312664 
L 107.202006 253.748108 
L 107.554879 253.748108 
L 107.577563 255.371737 
L 108.302202 255.371737 
L 108.302202 256.183551 
L 108.518807 256.183551 
L 108.518807 256.995366 
L 108.690515 256.995366 
L 108.690515 257.807181 
L 108.564865 257.807181 
L 108.564865 258.618995 
L 109.273012 258.618995 
L 109.273012 259.43081 
L 109.815747 259.43081 
L 109.811945 261.866254 
L 109.990572 261.866254 
L 109.990572 262.678069 
L 110.279673 262.678069 
L 110.279673 263.489883 
L 110.093393 263.489883 
L 110.093393 264.301698 
L 109.941735 264.301698 
L 109.941735 265.113513 
L 110.329527 265.113513 
L 110.329527 265.925327 
L 110.635005 265.925327 
L 110.738175 269.172586 
L 111.209724 269.172586 
L 111.207793 270.796215 
L 111.003742 270.796215 
L 111.074012 273.231659 
L 111.427018 273.231659 
L 111.464179 274.855288 
L 111.568596 274.855288 
L 111.568596 275.667103 
L 111.065989 275.667103 
L 111.065989 276.478918 
L 111.35891 276.478918 
L 111.372827 278.102547 
L 111.126336 278.102547 
L 111.126336 278.914362 
L 110.881968 278.914362 
L 110.881968 279.726176 
L 111.0859 279.726176 
L 111.0859 280.537991 
L 110.56996 280.537991 
L 110.56996 281.349805 
L 110.703187 281.349805 
L 110.687466 282.973435 
L 110.172115 282.973435 
L 110.172115 283.785249 
L 109.945991 283.785249 
L 109.945991 284.597064 
L 109.270309 284.597064 
L 109.270309 285.408879 
L 108.919036 285.408879 
L 108.919036 286.220693 
L 108.45662 286.220693 
L 108.45662 287.032508 
L 107.891865 287.032508 
L 107.891865 287.844323 
L 107.629278 287.844323 
L 107.629278 288.656137 
L 107.356985 288.656137 
L 107.356985 289.467952 
L 107.082428 289.467952 
L 107.082428 290.279767 
L 106.725012 290.279767 
L 106.690493 291.903396 
L 106.35482 291.903396 
L 106.35482 292.71521 
L 106.062263 292.71521 
L 106.062263 293.527025 
L 105.949541 293.527025 
L 105.877955 295.150654 
L 105.38116 295.150654 
L 105.38116 295.962469 
L 105.004935 295.962469 
L 105.004935 296.774284 
L 104.592846 296.774284 
L 104.592846 297.586098 
L 104.454011 297.586098 
L 104.454011 298.397913 
L 104.230157 298.397913 
L 104.1585 300.021542 
L 103.812033 300.021542 
L 103.812033 300.833357 
L 103.445615 300.833357 
L 103.445615 301.645172 
L 102.970394 301.645172 
L 102.970394 302.456986 
L 102.601674 302.456986 
L 102.601674 303.268801 
L 102.415209 303.268801 
L 102.415209 304.080615 
L 101.687917 304.080615 
L 101.687917 304.89243 
L 101.357994 304.89243 
L 101.357994 305.704245 
L 101.034206 305.704245 
L 101.034206 306.516059 
L 100.633759 306.516059 
L 100.633759 307.327874 
L 100.363089 307.327874 
L 100.363089 308.139689 
L 100.124081 308.139689 
L 100.017179 309.763318 
L 99.660555 309.763318 
L 99.660555 310.575133 
L 99.298152 310.575133 
L 99.298152 311.386947 
L 98.662994 311.386947 
L 98.662994 312.198762 
L 98.090182 312.198762 
L 98.090182 313.010577 
L 97.669475 313.010577 
L 97.669475 313.822391 
L 97.238796 313.822391 
L 97.238796 314.634206 
L 96.963002 314.634206 
L 96.963002 315.446021 
L 96.592587 315.446021 
L 96.592587 316.257835 
L 96.377506 316.257835 
L 96.282717 317.881464 
L 95.946155 317.881464 
L 95.946155 318.693279 
L 95.833023 318.693279 
L 95.833023 319.505094 
L 95.367218 319.505094 
L 95.367218 320.316908 
L 94.959894 320.316908 
L 94.959894 321.128723 
L 93.94997 321.128723 
L 93.94997 321.940538 
L 93.638313 321.940538 
L 93.638313 322.752352 
L 93.275188 322.752352 
L 93.275188 323.564167 
L 92.89576 323.564167 
L 92.880746 325.187796 
L 92.212642 325.187796 
L 92.102985 327.62324 
L 91.882597 327.62324 
L 91.882597 328.435055 
L 91.735887 328.435055 
L 91.735887 329.246869 
L 91.535323 329.246869 
L 91.535323 330.058684 
L 91.403585 330.058684 
L 91.360627 332.494128 
L 91.22821 332.494128 
L 91.22821 333.305943 
L 91.111191 333.305943 
L 91.004387 334.929572 
L 90.849021 334.929572 
L 90.849021 335.741387 
L 90.179048 335.741387 
L 90.179048 336.553201 
L 89.735967 336.553201 
L 89.735967 337.365016 
L 89.176978 337.365016 
L 89.158735 338.988645 
L 88.773548 338.988645 
L 88.773548 339.80046 
L 88.592812 339.80046 
L 88.592812 340.612274 
L 88.290698 340.612274 
L 88.192694 343.859533 
L 88.097933 343.859533 
L 88.097933 344.671348 
L 87.980266 344.671348 
L 87.980266 345.483162 
L 87.560113 345.483162 
L 87.560113 346.294977 
L 87.398649 346.294977 
L 87.398649 347.106792 
L 87.198204 347.106792 
L 87.167404 349.542236 
L 86.958547 349.542236 
L 86.958547 350.35405 
L 86.740482 350.35405 
L 86.740482 351.165865 
L 86.22171 351.165865 
L 86.170533 352.789494 
L 85.987171 352.789494 
L 85.912029 355.224938 
L 85.510835 355.224938 
L 85.510835 356.036753 
L 85.277976 356.036753 
L 85.277976 356.848567 
L 85.014314 356.848567 
L 84.94397 358.472197 
L 84.858486 358.472197 
L 84.858486 359.284011 
L 84.69961 359.284011 
L 84.69961 360.095826 
L 84.574808 360.095826 
L 84.574808 360.907641 
L 84.38547 360.907641 
L 84.328609 362.53127 
L 84.214711 362.53127 
L 84.214711 364.154899 
L 83.982402 364.154899 
L 83.982402 364.966714 
L 83.827353 364.966714 
L 83.827353 366.590343 
L 83.545415 366.590343 
L 83.545415 367.402158 
L 83.4189 367.402158 
L 83.4189 368.213972 
L 83.168868 368.213972 
L 83.097622 370.649416 
L 83.000894 370.649416 
L 83.000894 371.461231 
L 82.705383 371.461231 
L 82.645055 373.896675 
L 82.143378 373.896675 
L 82.051719 375.520304 
L 81.912502 375.520304 
L 81.912502 376.332119 
L 81.614328 376.332119 
L 81.504615 379.579377 
L 81.447063 379.579377 
L 81.367466 381.203007 
L 81.22124 381.203007 
L 81.116103 385.26208 
L 81.003473 385.26208 
L 81.003473 386.073895 
L 80.814369 386.073895 
L 80.814369 386.885709 
L 80.533156 386.885709 
L 80.432108 394.192041 
L 80.343489 394.192041 
L 80.269631 398.251114 
L 80.217444 398.251114 
L 80.158236 400.686558 
L 80.072314 400.686558 
L 79.991109 405.557446 
L 79.73095 405.557446 
L 79.668748 412.051963 
L 79.338795 412.051963 
L 79.266137 416.922851 
L 79.182093 416.922851 
L 79.092497 438.030032 
L 79.01349 438.030032 
L 79.01349 445.336364 
L 79.01349 445.336364 
" clip-path="url(#p86cc82b5a3)" style="fill: none; stroke: #6b3914; stroke-width: 3; stroke-linecap: square"/>
   </g>
   <g id="line2d_33">
    <path d="M 152.881452 28.063636 
L 152.881452 32.12271 
L 152.881452 32.12271 
L 152.881452 36.181783 
L 152.881452 36.181783 
L 152.881452 40.240856 
L 152.881452 40.240856 
L 152.881452 44.299929 
L 166.727837 44.299929 
L 166.727837 48.359002 
L 166.727837 48.359002 
L 166.727837 52.418076 
L 166.727837 52.418076 
L 166.727837 56.477149 
L 166.727837 56.477149 
L 166.727837 60.536222 
L 166.727837 60.536222 
L 166.727837 64.595295 
L 166.727837 64.595295 
L 166.727837 68.654369 
L 166.727837 68.654369 
L 166.727837 72.713442 
L 166.727837 72.713442 
L 166.727837 76.772515 
L 166.727837 76.772515 
L 166.727837 80.831588 
L 166.727837 80.831588 
L 166.727837 84.890661 
L 111.342298 84.890661 
L 111.342298 88.949735 
L 111.342298 88.949735 
L 111.342298 93.008808 
L 111.342298 93.008808 
L 111.342298 97.067881 
L 111.342298 97.067881 
L 111.342298 101.126954 
L 111.342298 101.126954 
L 111.342298 105.186028 
L 111.342298 105.186028 
L 111.342298 109.245101 
L 111.342298 109.245101 
L 111.342298 113.304174 
L 111.342298 113.304174 
L 111.342298 117.363247 
L 111.342298 117.363247 
L 111.342298 121.42232 
L 111.342298 121.42232 
L 111.342298 125.481394 
L 111.342298 125.481394 
L 111.342298 129.540467 
L 111.342298 129.540467 
L 111.342298 133.59954 
L 111.342298 133.59954 
L 111.342298 137.658613 
L 111.342298 137.658613 
L 111.342298 141.717687 
L 111.342298 141.717687 
L 111.342298 145.77676 
L 111.342298 145.77676 
L 111.342298 149.835833 
L 111.342298 149.835833 
L 111.342298 153.894906 
L 111.342298 153.894906 
L 111.342298 157.953979 
L 111.342298 157.953979 
L 111.342298 162.013053 
L 111.342298 162.013053 
L 111.342298 166.072126 
L 83.649528 166.072126 
L 83.649528 170.131199 
L 83.649528 170.131199 
L 83.649528 174.190272 
L 83.649528 174.190272 
L 83.649528 178.249346 
L 83.649528 178.249346 
L 83.649528 182.308419 
L 83.649528 182.308419 
L 83.649528 186.367492 
L 83.649528 186.367492 
L 83.649528 190.426565 
L 83.649528 190.426565 
L 83.649528 194.485638 
L 83.649528 194.485638 
L 83.649528 198.544712 
L 83.649528 198.544712 
L 83.649528 202.603785 
L 83.649528 202.603785 
L 83.649528 206.662858 
L 83.649528 206.662858 
L 83.649528 210.721931 
L 83.649528 210.721931 
L 83.649528 214.781005 
L 83.649528 214.781005 
L 83.649528 218.840078 
L 83.649528 218.840078 
" clip-path="url(#p86cc82b5a3)" style="fill: none; stroke: #e40000; stroke-opacity: 0.8; stroke-width: 3; stroke-linecap: square"/>
   </g>
   <g id="patch_3">
    <path d="M 39.65 466.2 
L 39.65 7.2 
" style="fill: none; stroke: #000000; stroke-width: 2; stroke-linejoin: miter; stroke-linecap: square"/>
   </g>
   <g id="patch_4">
    <path d="M 49.65 476.2 
L 319.65 476.2 
" style="fill: none; stroke: #000000; stroke-width: 2; stroke-linejoin: miter; stroke-linecap: square"/>
   </g>
  </g>
 </g>
 <defs>
  <clipPath id="p86cc82b5a3">
   <rect x="49.65" y="7.2" width="270" height="459"/>
  </clipPath>
 </defs>
</svg>
