<?xml version="1.0" encoding="utf-8" standalone="no"?>
<!DOCTYPE svg PUBLIC "-//W3C//DTD SVG 1.1//EN"
  "http://www.w3.org/Graphics/SVG/1.1/DTD/svg11.dtd">
<svg xmlns:xlink="http://www.w3.org/1999/xlink" width="361.20625pt" height="544.35625pt" viewBox="0 0 361.20625 544.35625" xmlns="http://www.w3.org/2000/svg" version="1.1">
 <metadata>
  <rdf:RDF xmlns:dc="http://purl.org/dc/elements/1.1/" xmlns:cc="http://creativecommons.org/ns#" xmlns:rdf="http://www.w3.org/1999/02/22-rdf-syntax-ns#">
   <cc:Work>
    <dc:type rdf:resource="http://purl.org/dc/dcmitype/StillImage"/>
    <dc:date>2024-08-06T16:51:37.125897</dc:date>
    <dc:format>image/svg+xml</dc:format>
    <dc:creator>
     <cc:Agent>
      <dc:title>Matplotlib v3.8.0, https://matplotlib.org/</dc:title>
     </cc:Agent>
    </dc:creator>
   </cc:Work>
  </rdf:RDF>
 </metadata>
 <defs>
  <style type="text/css">*{stroke-linejoin: round; stroke-linecap: butt}</style>
 </defs>
 <g id="figure_1">
  <g id="patch_1">
   <path d="M 0 544.35625 
L 361.20625 544.35625 
L 361.20625 0 
L 0 0 
z
" style="fill: #ffffff"/>
  </g>
  <g id="axes_1">
   <g id="patch_2">
    <path d="M 84.00625 466.2 
L 354.00625 466.2 
L 354.00625 7.2 
L 84.00625 7.2 
z
" style="fill: #ffffff"/>
   </g>
   <g id="PolyCollection_1">
    <defs>
     <path id="m6f159206dc" d="M 155.527576 -516.292614 
L 163.712856 -516.292614 
L 168.602941 -507.414471 
L 175.583608 -498.536327 
L 184.073467 -489.658184 
L 192.582836 -480.780041 
L 200.875545 -471.901898 
L 208.892961 -463.023755 
L 216.566591 -454.145612 
L 224.006998 -445.267469 
L 231.209874 -436.389325 
L 238.364609 -427.511182 
L 245.496184 -418.633039 
L 252.360983 -409.754896 
L 258.797599 -400.876753 
L 264.579708 -391.99861 
L 269.764938 -383.120467 
L 274.125914 -374.242324 
L 277.664817 -365.36418 
L 280.312926 -356.486037 
L 281.986582 -347.607894 
L 282.697359 -338.729751 
L 282.475335 -329.851608 
L 281.264811 -320.973465 
L 279.085348 -312.095322 
L 276.05565 -303.217178 
L 272.096504 -294.339035 
L 267.413235 -285.460892 
L 262.212804 -276.582749 
L 256.610223 -267.704606 
L 250.984481 -258.826463 
L 245.11629 -249.94832 
L 239.061934 -241.070176 
L 232.649503 -232.192033 
L 225.946346 -223.31389 
L 218.864319 -214.435747 
L 211.436676 -205.557604 
L 203.582429 -196.679461 
L 195.360614 -187.801318 
L 186.751981 -178.923175 
L 177.920773 -170.045031 
L 168.69456 -161.166888 
L 159.177592 -152.288745 
L 149.515311 -143.410602 
L 139.530165 -134.532459 
L 129.511845 -125.654316 
L 119.274484 -116.776173 
L 109.289868 -107.898029 
L 104.045835 -99.019886 
L 97.506901 -99.019886 
L 97.506901 -99.019886 
L 101.75112 -107.898029 
L 103.641391 -116.776173 
L 107.03439 -125.654316 
L 111.993016 -134.532459 
L 118.355126 -143.410602 
L 125.916255 -152.288745 
L 134.348166 -161.166888 
L 143.600308 -170.045031 
L 153.408305 -178.923175 
L 163.564531 -187.801318 
L 173.98302 -196.679461 
L 184.412549 -205.557604 
L 194.814867 -214.435747 
L 204.963295 -223.31389 
L 214.780456 -232.192033 
L 223.998173 -241.070176 
L 232.545993 -249.94832 
L 240.151257 -258.826463 
L 246.733475 -267.704606 
L 252.24158 -276.582749 
L 256.565537 -285.460892 
L 260.053856 -294.339035 
L 262.744185 -303.217178 
L 264.648727 -312.095322 
L 265.938104 -320.973465 
L 266.532604 -329.851608 
L 266.529821 -338.729751 
L 265.94819 -347.607894 
L 264.733461 -356.486037 
L 262.923212 -365.36418 
L 260.531198 -374.242324 
L 257.500502 -383.120467 
L 253.950711 -391.99861 
L 249.795789 -400.876753 
L 245.061615 -409.754896 
L 239.645192 -418.633039 
L 233.498105 -427.511182 
L 226.542111 -436.389325 
L 218.935008 -445.267469 
L 210.931537 -454.145612 
L 202.842514 -463.023755 
L 194.852862 -471.901898 
L 187.086308 -480.780041 
L 179.71592 -489.658184 
L 172.661739 -498.536327 
L 164.724426 -507.414471 
L 155.527576 -516.292614 
z
" style="stroke: #fecc5c; stroke-opacity: 0.5"/>
    </defs>
    <g clip-path="url(#p4646b42d21)">
     <use xlink:href="#m6f159206dc" x="0" y="544.35625" style="fill: #fecc5c; fill-opacity: 0.5; stroke: #fecc5c; stroke-opacity: 0.5"/>
    </g>
   </g>
   <g id="matplotlib.axis_1">
    <g id="xtick_1">
     <g id="line2d_1">
      <defs>
       <path id="me256ee9ead" d="M 0 0 
L 0 3.5 
" style="stroke: #000000; stroke-width: 1.5"/>
      </defs>
      <g>
       <use xlink:href="#me256ee9ead" x="107.725498" y="476.2" style="stroke: #000000; stroke-width: 1.5"/>
      </g>
     </g>
     <g id="text_1">
      <!-- 400 -->
      <g transform="translate(88.637998 498.396875) scale(0.2 -0.2)">
       <defs>
        <path id="DejaVuSans-34" d="M 2419 4116 
L 825 1625 
L 2419 1625 
L 2419 4116 
z
M 2253 4666 
L 3047 4666 
L 3047 1625 
L 3713 1625 
L 3713 1100 
L 3047 1100 
L 3047 0 
L 2419 0 
L 2419 1100 
L 313 1100 
L 313 1709 
L 2253 4666 
z
" transform="scale(0.015625)"/>
        <path id="DejaVuSans-30" d="M 2034 4250 
Q 1547 4250 1301 3770 
Q 1056 3291 1056 2328 
Q 1056 1369 1301 889 
Q 1547 409 2034 409 
Q 2525 409 2770 889 
Q 3016 1369 3016 2328 
Q 3016 3291 2770 3770 
Q 2525 4250 2034 4250 
z
M 2034 4750 
Q 2819 4750 3233 4129 
Q 3647 3509 3647 2328 
Q 3647 1150 3233 529 
Q 2819 -91 2034 -91 
Q 1250 -91 836 529 
Q 422 1150 422 2328 
Q 422 3509 836 4129 
Q 1250 4750 2034 4750 
z
" transform="scale(0.015625)"/>
       </defs>
       <use xlink:href="#DejaVuSans-34"/>
       <use xlink:href="#DejaVuSans-30" x="63.623047"/>
       <use xlink:href="#DejaVuSans-30" x="127.246094"/>
      </g>
     </g>
    </g>
    <g id="xtick_2">
     <g id="line2d_2">
      <g>
       <use xlink:href="#me256ee9ead" x="215.735459" y="476.2" style="stroke: #000000; stroke-width: 1.5"/>
      </g>
     </g>
     <g id="text_2">
      <!-- 600 -->
      <g transform="translate(196.647959 498.396875) scale(0.2 -0.2)">
       <defs>
        <path id="DejaVuSans-36" d="M 2113 2584 
Q 1688 2584 1439 2293 
Q 1191 2003 1191 1497 
Q 1191 994 1439 701 
Q 1688 409 2113 409 
Q 2538 409 2786 701 
Q 3034 994 3034 1497 
Q 3034 2003 2786 2293 
Q 2538 2584 2113 2584 
z
M 3366 4563 
L 3366 3988 
Q 3128 4100 2886 4159 
Q 2644 4219 2406 4219 
Q 1781 4219 1451 3797 
Q 1122 3375 1075 2522 
Q 1259 2794 1537 2939 
Q 1816 3084 2150 3084 
Q 2853 3084 3261 2657 
Q 3669 2231 3669 1497 
Q 3669 778 3244 343 
Q 2819 -91 2113 -91 
Q 1303 -91 875 529 
Q 447 1150 447 2328 
Q 447 3434 972 4092 
Q 1497 4750 2381 4750 
Q 2619 4750 2861 4703 
Q 3103 4656 3366 4563 
z
" transform="scale(0.015625)"/>
       </defs>
       <use xlink:href="#DejaVuSans-36"/>
       <use xlink:href="#DejaVuSans-30" x="63.623047"/>
       <use xlink:href="#DejaVuSans-30" x="127.246094"/>
      </g>
     </g>
    </g>
    <g id="xtick_3">
     <g id="line2d_3">
      <g>
       <use xlink:href="#me256ee9ead" x="323.745421" y="476.2" style="stroke: #000000; stroke-width: 1.5"/>
      </g>
     </g>
     <g id="text_3">
      <!-- 800 -->
      <g transform="translate(304.657921 498.396875) scale(0.2 -0.2)">
       <defs>
        <path id="DejaVuSans-38" d="M 2034 2216 
Q 1584 2216 1326 1975 
Q 1069 1734 1069 1313 
Q 1069 891 1326 650 
Q 1584 409 2034 409 
Q 2484 409 2743 651 
Q 3003 894 3003 1313 
Q 3003 1734 2745 1975 
Q 2488 2216 2034 2216 
z
M 1403 2484 
Q 997 2584 770 2862 
Q 544 3141 544 3541 
Q 544 4100 942 4425 
Q 1341 4750 2034 4750 
Q 2731 4750 3128 4425 
Q 3525 4100 3525 3541 
Q 3525 3141 3298 2862 
Q 3072 2584 2669 2484 
Q 3125 2378 3379 2068 
Q 3634 1759 3634 1313 
Q 3634 634 3220 271 
Q 2806 -91 2034 -91 
Q 1263 -91 848 271 
Q 434 634 434 1313 
Q 434 1759 690 2068 
Q 947 2378 1403 2484 
z
M 1172 3481 
Q 1172 3119 1398 2916 
Q 1625 2713 2034 2713 
Q 2441 2713 2670 2916 
Q 2900 3119 2900 3481 
Q 2900 3844 2670 4047 
Q 2441 4250 2034 4250 
Q 1625 4250 1398 4047 
Q 1172 3844 1172 3481 
z
" transform="scale(0.015625)"/>
       </defs>
       <use xlink:href="#DejaVuSans-38"/>
       <use xlink:href="#DejaVuSans-30" x="63.623047"/>
       <use xlink:href="#DejaVuSans-30" x="127.246094"/>
      </g>
     </g>
    </g>
    <g id="text_4">
     <!-- Resistivity  [$\Omega m$] -->
     <g transform="translate(124.70625 532.75625) scale(0.2 -0.2)">
      <defs>
       <path id="DejaVuSans-Bold-52" d="M 2297 2597 
Q 2675 2597 2839 2737 
Q 3003 2878 3003 3200 
Q 3003 3519 2839 3656 
Q 2675 3794 2297 3794 
L 1791 3794 
L 1791 2597 
L 2297 2597 
z
M 1791 1766 
L 1791 0 
L 588 0 
L 588 4666 
L 2425 4666 
Q 3347 4666 3776 4356 
Q 4206 4047 4206 3378 
Q 4206 2916 3982 2619 
Q 3759 2322 3309 2181 
Q 3556 2125 3751 1926 
Q 3947 1728 4147 1325 
L 4800 0 
L 3519 0 
L 2950 1159 
Q 2778 1509 2601 1637 
Q 2425 1766 2131 1766 
L 1791 1766 
z
" transform="scale(0.015625)"/>
       <path id="DejaVuSans-Bold-65" d="M 4031 1759 
L 4031 1441 
L 1416 1441 
Q 1456 1047 1700 850 
Q 1944 653 2381 653 
Q 2734 653 3104 758 
Q 3475 863 3866 1075 
L 3866 213 
Q 3469 63 3072 -14 
Q 2675 -91 2278 -91 
Q 1328 -91 801 392 
Q 275 875 275 1747 
Q 275 2603 792 3093 
Q 1309 3584 2216 3584 
Q 3041 3584 3536 3087 
Q 4031 2591 4031 1759 
z
M 2881 2131 
Q 2881 2450 2695 2645 
Q 2509 2841 2209 2841 
Q 1884 2841 1681 2658 
Q 1478 2475 1428 2131 
L 2881 2131 
z
" transform="scale(0.015625)"/>
       <path id="DejaVuSans-Bold-73" d="M 3272 3391 
L 3272 2541 
Q 2913 2691 2578 2766 
Q 2244 2841 1947 2841 
Q 1628 2841 1473 2761 
Q 1319 2681 1319 2516 
Q 1319 2381 1436 2309 
Q 1553 2238 1856 2203 
L 2053 2175 
Q 2913 2066 3209 1816 
Q 3506 1566 3506 1031 
Q 3506 472 3093 190 
Q 2681 -91 1863 -91 
Q 1516 -91 1145 -36 
Q 775 19 384 128 
L 384 978 
Q 719 816 1070 734 
Q 1422 653 1784 653 
Q 2113 653 2278 743 
Q 2444 834 2444 1013 
Q 2444 1163 2330 1236 
Q 2216 1309 1875 1350 
L 1678 1375 
Q 931 1469 631 1722 
Q 331 1975 331 2491 
Q 331 3047 712 3315 
Q 1094 3584 1881 3584 
Q 2191 3584 2531 3537 
Q 2872 3491 3272 3391 
z
" transform="scale(0.015625)"/>
       <path id="DejaVuSans-Bold-69" d="M 538 3500 
L 1656 3500 
L 1656 0 
L 538 0 
L 538 3500 
z
M 538 4863 
L 1656 4863 
L 1656 3950 
L 538 3950 
L 538 4863 
z
" transform="scale(0.015625)"/>
       <path id="DejaVuSans-Bold-74" d="M 1759 4494 
L 1759 3500 
L 2913 3500 
L 2913 2700 
L 1759 2700 
L 1759 1216 
Q 1759 972 1856 886 
Q 1953 800 2241 800 
L 2816 800 
L 2816 0 
L 1856 0 
Q 1194 0 917 276 
Q 641 553 641 1216 
L 641 2700 
L 84 2700 
L 84 3500 
L 641 3500 
L 641 4494 
L 1759 4494 
z
" transform="scale(0.015625)"/>
       <path id="DejaVuSans-Bold-76" d="M 97 3500 
L 1216 3500 
L 2088 1081 
L 2956 3500 
L 4078 3500 
L 2700 0 
L 1472 0 
L 97 3500 
z
" transform="scale(0.015625)"/>
       <path id="DejaVuSans-Bold-79" d="M 78 3500 
L 1197 3500 
L 2138 1125 
L 2938 3500 
L 4056 3500 
L 2584 -331 
Q 2363 -916 2067 -1148 
Q 1772 -1381 1288 -1381 
L 641 -1381 
L 641 -647 
L 991 -647 
Q 1275 -647 1404 -556 
Q 1534 -466 1606 -231 
L 1638 -134 
L 78 3500 
z
" transform="scale(0.015625)"/>
       <path id="DejaVuSans-Bold-20" transform="scale(0.015625)"/>
       <path id="DejaVuSans-Bold-5b" d="M 550 4863 
L 2491 4863 
L 2491 4159 
L 1613 4159 
L 1613 -141 
L 2491 -141 
L 2491 -844 
L 550 -844 
L 550 4863 
z
" transform="scale(0.015625)"/>
       <path id="DejaVuSans-Bold-3a9" d="M 2719 4750 
Q 3841 4750 4480 4106 
Q 5119 3463 5119 2494 
Q 5119 1406 4306 909 
L 5266 909 
L 5266 0 
L 3125 0 
L 3125 975 
Q 3244 1041 3334 1131 
Q 3875 1678 3875 2466 
Q 3875 3066 3572 3472 
Q 3269 3878 2719 3878 
Q 2169 3878 1866 3472 
Q 1563 3066 1563 2466 
Q 1563 1678 2103 1131 
Q 2194 1041 2313 975 
L 2313 0 
L 172 0 
L 172 909 
L 1131 909 
Q 319 1406 319 2494 
Q 319 3463 958 4106 
Q 1597 4750 2719 4750 
z
" transform="scale(0.015625)"/>
       <path id="DejaVuSans-Bold-6d" d="M 3781 2919 
Q 3994 3244 4286 3414 
Q 4578 3584 4928 3584 
Q 5531 3584 5847 3212 
Q 6163 2841 6163 2131 
L 6163 0 
L 5038 0 
L 5038 1825 
Q 5041 1866 5042 1909 
Q 5044 1953 5044 2034 
Q 5044 2406 4934 2573 
Q 4825 2741 4581 2741 
Q 4263 2741 4089 2478 
Q 3916 2216 3909 1719 
L 3909 0 
L 2784 0 
L 2784 1825 
Q 2784 2406 2684 2573 
Q 2584 2741 2328 2741 
Q 2006 2741 1831 2477 
Q 1656 2213 1656 1722 
L 1656 0 
L 531 0 
L 531 3500 
L 1656 3500 
L 1656 2988 
Q 1863 3284 2130 3434 
Q 2397 3584 2719 3584 
Q 3081 3584 3359 3409 
Q 3638 3234 3781 2919 
z
" transform="scale(0.015625)"/>
       <path id="DejaVuSans-Bold-5d" d="M 2375 -844 
L 434 -844 
L 434 -141 
L 1313 -141 
L 1313 4159 
L 434 4159 
L 434 4863 
L 2375 4863 
L 2375 -844 
z
" transform="scale(0.015625)"/>
      </defs>
      <use xlink:href="#DejaVuSans-Bold-52" transform="translate(0 0.015625)"/>
      <use xlink:href="#DejaVuSans-Bold-65" transform="translate(77.001953 0.015625)"/>
      <use xlink:href="#DejaVuSans-Bold-73" transform="translate(144.824219 0.015625)"/>
      <use xlink:href="#DejaVuSans-Bold-69" transform="translate(204.345703 0.015625)"/>
      <use xlink:href="#DejaVuSans-Bold-73" transform="translate(238.623047 0.015625)"/>
      <use xlink:href="#DejaVuSans-Bold-74" transform="translate(298.144531 0.015625)"/>
      <use xlink:href="#DejaVuSans-Bold-69" transform="translate(345.947266 0.015625)"/>
      <use xlink:href="#DejaVuSans-Bold-76" transform="translate(380.224609 0.015625)"/>
      <use xlink:href="#DejaVuSans-Bold-69" transform="translate(445.410156 0.015625)"/>
      <use xlink:href="#DejaVuSans-Bold-74" transform="translate(479.6875 0.015625)"/>
      <use xlink:href="#DejaVuSans-Bold-79" transform="translate(527.490234 0.015625)"/>
      <use xlink:href="#DejaVuSans-Bold-20" transform="translate(592.675781 0.015625)"/>
      <use xlink:href="#DejaVuSans-Bold-20" transform="translate(627.490234 0.015625)"/>
      <use xlink:href="#DejaVuSans-Bold-5b" transform="translate(662.304688 0.015625)"/>
      <use xlink:href="#DejaVuSans-Bold-3a9" transform="translate(708.007812 0.015625)"/>
      <use xlink:href="#DejaVuSans-Bold-6d" transform="translate(793.017578 0.015625)"/>
      <use xlink:href="#DejaVuSans-Bold-5d" transform="translate(897.216797 0.015625)"/>
     </g>
    </g>
   </g>
   <g id="matplotlib.axis_2">
    <g id="ytick_1">
     <g id="line2d_4">
      <defs>
       <path id="m9188f48794" d="M 0 0 
L -3.5 0 
" style="stroke: #000000; stroke-width: 1.5"/>
      </defs>
      <g>
       <use xlink:href="#m9188f48794" x="74.00625" y="28.063636" style="stroke: #000000; stroke-width: 1.5"/>
      </g>
     </g>
     <g id="text_5">
      <!-- 0 -->
      <g transform="translate(54.28125 35.662074) scale(0.2 -0.2)">
       <use xlink:href="#DejaVuSans-30"/>
      </g>
     </g>
    </g>
    <g id="ytick_2">
     <g id="line2d_5">
      <g>
       <use xlink:href="#m9188f48794" x="74.00625" y="116.845068" style="stroke: #000000; stroke-width: 1.5"/>
      </g>
     </g>
     <g id="text_6">
      <!-- 5 -->
      <g transform="translate(54.28125 124.443505) scale(0.2 -0.2)">
       <defs>
        <path id="DejaVuSans-35" d="M 691 4666 
L 3169 4666 
L 3169 4134 
L 1269 4134 
L 1269 2991 
Q 1406 3038 1543 3061 
Q 1681 3084 1819 3084 
Q 2600 3084 3056 2656 
Q 3513 2228 3513 1497 
Q 3513 744 3044 326 
Q 2575 -91 1722 -91 
Q 1428 -91 1123 -41 
Q 819 9 494 109 
L 494 744 
Q 775 591 1075 516 
Q 1375 441 1709 441 
Q 2250 441 2565 725 
Q 2881 1009 2881 1497 
Q 2881 1984 2565 2268 
Q 2250 2553 1709 2553 
Q 1456 2553 1204 2497 
Q 953 2441 691 2322 
L 691 4666 
z
" transform="scale(0.015625)"/>
       </defs>
       <use xlink:href="#DejaVuSans-35"/>
      </g>
     </g>
    </g>
    <g id="ytick_3">
     <g id="line2d_6">
      <g>
       <use xlink:href="#m9188f48794" x="74.00625" y="205.626499" style="stroke: #000000; stroke-width: 1.5"/>
      </g>
     </g>
     <g id="text_7">
      <!-- 10 -->
      <g transform="translate(41.55625 213.224937) scale(0.2 -0.2)">
       <defs>
        <path id="DejaVuSans-31" d="M 794 531 
L 1825 531 
L 1825 4091 
L 703 3866 
L 703 4441 
L 1819 4666 
L 2450 4666 
L 2450 531 
L 3481 531 
L 3481 0 
L 794 0 
L 794 531 
z
" transform="scale(0.015625)"/>
       </defs>
       <use xlink:href="#DejaVuSans-31"/>
       <use xlink:href="#DejaVuSans-30" x="63.623047"/>
      </g>
     </g>
    </g>
    <g id="ytick_4">
     <g id="line2d_7">
      <g>
       <use xlink:href="#m9188f48794" x="74.00625" y="294.40793" style="stroke: #000000; stroke-width: 1.5"/>
      </g>
     </g>
     <g id="text_8">
      <!-- 15 -->
      <g transform="translate(41.55625 302.006368) scale(0.2 -0.2)">
       <use xlink:href="#DejaVuSans-31"/>
       <use xlink:href="#DejaVuSans-35" x="63.623047"/>
      </g>
     </g>
    </g>
    <g id="ytick_5">
     <g id="line2d_8">
      <g>
       <use xlink:href="#m9188f48794" x="74.00625" y="383.189362" style="stroke: #000000; stroke-width: 1.5"/>
      </g>
     </g>
     <g id="text_9">
      <!-- 20 -->
      <g transform="translate(41.55625 390.787799) scale(0.2 -0.2)">
       <defs>
        <path id="DejaVuSans-32" d="M 1228 531 
L 3431 531 
L 3431 0 
L 469 0 
L 469 531 
Q 828 903 1448 1529 
Q 2069 2156 2228 2338 
Q 2531 2678 2651 2914 
Q 2772 3150 2772 3378 
Q 2772 3750 2511 3984 
Q 2250 4219 1831 4219 
Q 1534 4219 1204 4116 
Q 875 4013 500 3803 
L 500 4441 
Q 881 4594 1212 4672 
Q 1544 4750 1819 4750 
Q 2544 4750 2975 4387 
Q 3406 4025 3406 3419 
Q 3406 3131 3298 2873 
Q 3191 2616 2906 2266 
Q 2828 2175 2409 1742 
Q 1991 1309 1228 531 
z
" transform="scale(0.015625)"/>
       </defs>
       <use xlink:href="#DejaVuSans-32"/>
       <use xlink:href="#DejaVuSans-30" x="63.623047"/>
      </g>
     </g>
    </g>
    <g id="text_10">
     <!-- Depth [m] -->
     <g transform="translate(22.396875 293.882812) rotate(-90) scale(0.2 -0.2)">
      <defs>
       <path id="DejaVuSans-Bold-44" d="M 1791 3756 
L 1791 909 
L 2222 909 
Q 2959 909 3348 1275 
Q 3738 1641 3738 2338 
Q 3738 3031 3350 3393 
Q 2963 3756 2222 3756 
L 1791 3756 
z
M 588 4666 
L 1856 4666 
Q 2919 4666 3439 4514 
Q 3959 4363 4331 4000 
Q 4659 3684 4818 3271 
Q 4978 2859 4978 2338 
Q 4978 1809 4818 1395 
Q 4659 981 4331 666 
Q 3956 303 3431 151 
Q 2906 0 1856 0 
L 588 0 
L 588 4666 
z
" transform="scale(0.015625)"/>
       <path id="DejaVuSans-Bold-70" d="M 1656 506 
L 1656 -1331 
L 538 -1331 
L 538 3500 
L 1656 3500 
L 1656 2988 
Q 1888 3294 2169 3439 
Q 2450 3584 2816 3584 
Q 3463 3584 3878 3070 
Q 4294 2556 4294 1747 
Q 4294 938 3878 423 
Q 3463 -91 2816 -91 
Q 2450 -91 2169 54 
Q 1888 200 1656 506 
z
M 2400 2772 
Q 2041 2772 1848 2508 
Q 1656 2244 1656 1747 
Q 1656 1250 1848 986 
Q 2041 722 2400 722 
Q 2759 722 2948 984 
Q 3138 1247 3138 1747 
Q 3138 2247 2948 2509 
Q 2759 2772 2400 2772 
z
" transform="scale(0.015625)"/>
       <path id="DejaVuSans-Bold-68" d="M 4056 2131 
L 4056 0 
L 2931 0 
L 2931 347 
L 2931 1625 
Q 2931 2084 2911 2256 
Q 2891 2428 2841 2509 
Q 2775 2619 2662 2680 
Q 2550 2741 2406 2741 
Q 2056 2741 1856 2470 
Q 1656 2200 1656 1722 
L 1656 0 
L 538 0 
L 538 4863 
L 1656 4863 
L 1656 2988 
Q 1909 3294 2193 3439 
Q 2478 3584 2822 3584 
Q 3428 3584 3742 3212 
Q 4056 2841 4056 2131 
z
" transform="scale(0.015625)"/>
      </defs>
      <use xlink:href="#DejaVuSans-Bold-44"/>
      <use xlink:href="#DejaVuSans-Bold-65" x="83.007812"/>
      <use xlink:href="#DejaVuSans-Bold-70" x="150.830078"/>
      <use xlink:href="#DejaVuSans-Bold-74" x="222.412109"/>
      <use xlink:href="#DejaVuSans-Bold-68" x="270.214844"/>
      <use xlink:href="#DejaVuSans-Bold-20" x="341.40625"/>
      <use xlink:href="#DejaVuSans-Bold-5b" x="376.220703"/>
      <use xlink:href="#DejaVuSans-Bold-6d" x="421.923828"/>
      <use xlink:href="#DejaVuSans-Bold-5d" x="526.123047"/>
     </g>
    </g>
   </g>
   <g id="line2d_9">
    <path d="M 160.176158 28.063636 
L 166.831971 36.941779 
L 173.94718 45.819923 
L 181.401018 54.698066 
L 189.078836 63.576209 
L 196.8721 72.454352 
L 204.678389 81.332495 
L 212.401403 90.210638 
L 219.950954 99.088781 
L 227.242973 107.966925 
L 234.199503 116.845068 
L 240.748707 125.723211 
L 246.824862 134.601354 
L 252.36836 143.479497 
L 257.325711 152.35764 
L 261.64954 161.235783 
L 265.298588 170.113926 
L 268.237711 178.99207 
L 270.437882 187.870213 
L 271.876191 196.748356 
L 272.535841 205.626499 
L 272.406154 214.504642 
L 271.482565 223.382785 
L 269.766627 232.260928 
L 267.266009 241.139072 
L 263.994495 250.017215 
L 259.971986 258.895358 
L 255.224496 267.773501 
L 249.784159 276.651644 
L 243.689223 285.529787 
L 236.984051 294.40793 
L 229.719124 303.286074 
L 221.951037 312.164217 
L 213.742502 321.04236 
L 205.162347 329.920503 
L 196.285515 338.798646 
L 187.193067 347.676789 
L 177.972177 356.554932 
L 168.716138 365.433075 
L 159.524355 374.311219 
L 150.502354 383.189362 
L 141.761773 392.067505 
L 133.420367 400.945648 
L 125.602007 409.823791 
L 118.436681 418.701934 
L 112.060492 427.580077 
L 106.615658 436.458221 
L 102.250514 445.336364 
" clip-path="url(#p4646b42d21)" style="fill: none; stroke: #fecc5c; stroke-opacity: 0.3; stroke-width: 2; stroke-linecap: square"/>
   </g>
   <g id="line2d_10">
    <path d="M 158.725548 28.063636 
L 165.871612 36.941779 
L 173.474751 45.819923 
L 181.406062 54.698066 
L 189.543406 63.576209 
L 197.771409 72.454352 
L 205.981456 81.332495 
L 214.071698 90.210638 
L 221.947049 99.088781 
L 229.519184 107.966925 
L 236.706542 116.845068 
L 243.434326 125.723211 
L 249.634501 134.601354 
L 255.245794 143.479497 
L 260.213698 152.35764 
L 264.490466 161.235783 
L 268.035114 170.113926 
L 270.813425 178.99207 
L 272.79794 187.870213 
L 273.967965 196.748356 
L 274.30957 205.626499 
L 273.815586 214.504642 
L 272.48561 223.382785 
L 270.325998 232.260928 
L 267.349873 241.139072 
L 263.577117 250.017215 
L 259.034379 258.895358 
L 253.755068 267.773501 
L 247.779357 276.651644 
L 241.154183 285.529787 
L 233.933244 294.40793 
L 226.177002 303.286074 
L 217.952683 312.164217 
L 209.334274 321.04236 
L 200.402527 329.920503 
L 191.244956 338.798646 
L 181.955837 347.676789 
L 172.636211 356.554932 
L 163.39388 365.433075 
L 154.343411 374.311219 
L 145.606133 383.189362 
L 137.310138 392.067505 
L 129.59028 400.945648 
L 122.588178 409.823791 
L 116.452213 418.701934 
L 111.337529 427.580077 
L 107.406032 436.458221 
L 104.826393 445.336364 
" clip-path="url(#p4646b42d21)" style="fill: none; stroke: #fecc5c; stroke-opacity: 0.3; stroke-width: 2; stroke-linecap: square"/>
   </g>
   <g id="line2d_11">
    <path d="M 162.774956 28.063636 
L 168.702615 36.941779 
L 175.316371 45.819923 
L 182.466276 54.698066 
L 190.009958 63.576209 
L 197.812615 72.454352 
L 205.747021 81.332495 
L 213.693521 90.210638 
L 221.540034 99.088781 
L 229.182052 107.966925 
L 236.52264 116.845068 
L 243.472436 125.723211 
L 249.949651 134.601354 
L 255.880071 143.479497 
L 261.197051 152.35764 
L 265.841523 161.235783 
L 269.761991 170.113926 
L 272.91453 178.99207 
L 275.262792 187.870213 
L 276.777998 196.748356 
L 277.438945 205.626499 
L 277.232002 214.504642 
L 276.151111 223.382785 
L 274.197787 232.260928 
L 271.381119 241.139072 
L 267.717768 250.017215 
L 263.231969 258.895358 
L 257.955529 267.773501 
L 251.92783 276.651644 
L 245.195825 285.529787 
L 237.81404 294.40793 
L 229.844577 303.286074 
L 221.357108 312.164217 
L 212.428879 321.04236 
L 203.14471 329.920503 
L 193.596994 338.798646 
L 183.885695 347.676789 
L 174.118352 356.554932 
L 164.410078 365.433075 
L 154.883556 374.311219 
L 145.669045 383.189362 
L 136.904376 392.067505 
L 128.734953 400.945648 
L 121.313753 409.823791 
L 114.801326 418.701934 
L 109.365796 427.580077 
L 105.18286 436.458221 
L 102.435786 445.336364 
" clip-path="url(#p4646b42d21)" style="fill: none; stroke: #fecc5c; stroke-opacity: 0.3; stroke-width: 2; stroke-linecap: square"/>
   </g>
   <g id="line2d_12">
    <path d="M 158.710505 28.063636 
L 165.817571 36.941779 
L 173.387105 45.819923 
L 181.292518 54.698066 
L 189.413737 63.576209 
L 197.637196 72.454352 
L 205.85584 81.332495 
L 213.969128 90.210638 
L 221.883028 99.088781 
L 229.510018 107.966925 
L 236.769089 116.845068 
L 243.585741 125.723211 
L 249.891988 134.601354 
L 255.626351 143.479497 
L 260.733865 152.35764 
L 265.166074 161.235783 
L 268.881035 170.113926 
L 271.843315 178.99207 
L 274.023991 187.870213 
L 275.400652 196.748356 
L 275.957398 205.626499 
L 275.684839 214.504642 
L 274.580098 223.382785 
L 272.646808 232.260928 
L 269.895111 241.139072 
L 266.341662 250.017215 
L 262.009628 258.895358 
L 256.928684 267.773501 
L 251.135019 276.651644 
L 244.67133 285.529787 
L 237.586828 294.40793 
L 229.937232 303.286074 
L 221.784774 312.164217 
L 213.198197 321.04236 
L 204.252754 329.920503 
L 195.03021 338.798646 
L 185.618838 347.676789 
L 176.113427 356.554932 
L 166.615273 365.433075 
L 157.232185 374.311219 
L 148.078481 383.189362 
L 139.274992 392.067505 
L 130.949059 400.945648 
L 123.234534 409.823791 
L 116.27178 418.701934 
L 110.207672 427.580077 
L 105.195593 436.458221 
L 101.395441 445.336364 
" clip-path="url(#p4646b42d21)" style="fill: none; stroke: #fecc5c; stroke-opacity: 0.3; stroke-width: 2; stroke-linecap: square"/>
   </g>
   <g id="line2d_13">
    <path d="M 156.073253 28.063636 
L 164.798809 36.941779 
L 173.559588 45.819923 
L 182.279944 54.698066 
L 190.888285 63.576209 
L 199.317075 72.454352 
L 207.502832 81.332495 
L 215.386127 90.210638 
L 222.911588 99.088781 
L 230.027897 107.966925 
L 236.68779 116.845068 
L 242.848059 125.723211 
L 248.469548 134.601354 
L 253.51716 143.479497 
L 257.959849 152.35764 
L 261.770626 161.235783 
L 264.926554 170.113926 
L 267.408753 178.99207 
L 269.202398 187.870213 
L 270.296718 196.748356 
L 270.684995 205.626499 
L 270.364567 214.504642 
L 269.336829 223.382785 
L 267.607227 232.260928 
L 265.185263 241.139072 
L 262.084495 250.017215 
L 258.322534 258.895358 
L 253.921046 267.773501 
L 248.905754 276.651644 
L 243.306431 285.529787 
L 237.156909 294.40793 
L 230.495073 303.286074 
L 223.362863 312.164217 
L 215.806273 321.04236 
L 207.875352 329.920503 
L 199.624204 338.798646 
L 191.110989 347.676789 
L 182.397919 356.554932 
L 173.551262 365.433075 
L 164.641341 374.311219 
L 155.742533 383.189362 
L 146.933271 392.067505 
L 138.296041 400.945648 
L 129.917385 409.823791 
L 121.887899 418.701934 
L 114.302233 427.580077 
L 107.259094 436.458221 
L 100.861241 445.336364 
" clip-path="url(#p4646b42d21)" style="fill: none; stroke: #fecc5c; stroke-opacity: 0.3; stroke-width: 2; stroke-linecap: square"/>
   </g>
   <g id="line2d_14">
    <path d="M 159.830836 28.063636 
L 166.430723 36.941779 
L 173.585443 45.819923 
L 181.161312 54.698066 
L 189.031365 63.576209 
L 197.075357 72.454352 
L 205.179761 81.332495 
L 213.237773 90.210638 
L 221.149306 99.088781 
L 228.820994 107.966925 
L 236.16619 116.845068 
L 243.104968 125.723211 
L 249.56412 134.601354 
L 255.477159 143.479497 
L 260.784317 152.35764 
L 265.432547 161.235783 
L 269.375521 170.113926 
L 272.573629 178.99207 
L 274.993984 187.870213 
L 276.610417 196.748356 
L 277.403478 205.626499 
L 277.360438 214.504642 
L 276.475288 223.382785 
L 274.748737 232.260928 
L 272.188215 241.139072 
L 268.807873 250.017215 
L 264.628578 258.895358 
L 259.677922 267.773501 
L 253.990211 276.651644 
L 247.606476 285.529787 
L 240.574463 294.40793 
L 232.948642 303.286074 
L 224.790199 312.164217 
L 216.167044 321.04236 
L 207.153802 329.920503 
L 197.831821 338.798646 
L 188.289167 347.676789 
L 178.620628 356.554932 
L 168.92771 365.433075 
L 159.318638 374.311219 
L 149.908358 383.189362 
L 140.818536 392.067505 
L 132.177557 400.945648 
L 124.120526 409.823791 
L 116.789268 418.701934 
L 110.332328 427.580077 
L 104.904968 436.458221 
L 100.669175 445.336364 
" clip-path="url(#p4646b42d21)" style="fill: none; stroke: #fecc5c; stroke-opacity: 0.3; stroke-width: 2; stroke-linecap: square"/>
   </g>
   <g id="line2d_15">
    <path d="M 165.4387 28.063636 
L 170.243495 36.941779 
L 175.902454 45.819923 
L 182.252626 54.698066 
L 189.139073 63.576209 
L 196.41487 72.454352 
L 203.941103 81.332495 
L 211.58687 90.210638 
L 219.229283 99.088781 
L 226.753463 107.966925 
L 234.052547 116.845068 
L 241.02768 125.723211 
L 247.588021 134.601354 
L 253.650743 143.479497 
L 259.141027 152.35764 
L 263.99207 161.235783 
L 268.145079 170.113926 
L 271.549274 178.99207 
L 274.161887 187.870213 
L 275.94816 196.748356 
L 276.881351 205.626499 
L 276.942727 214.504642 
L 276.121568 223.382785 
L 274.415168 232.260928 
L 271.828829 241.139072 
L 268.375869 250.017215 
L 264.077617 258.895358 
L 258.963413 267.773501 
L 253.070609 276.651644 
L 246.444572 285.529787 
L 239.138678 294.40793 
L 231.214316 303.286074 
L 222.740888 312.164217 
L 213.795806 321.04236 
L 204.464498 329.920503 
L 194.840399 338.798646 
L 185.024961 347.676789 
L 175.127644 356.554932 
L 165.265924 365.433075 
L 155.565285 374.311219 
L 146.159227 383.189362 
L 137.18926 392.067505 
L 128.804905 400.945648 
L 121.163698 409.823791 
L 114.431186 418.701934 
L 108.780926 427.580077 
L 104.394491 436.458221 
L 101.461463 445.336364 
" clip-path="url(#p4646b42d21)" style="fill: none; stroke: #fecc5c; stroke-opacity: 0.3; stroke-width: 2; stroke-linecap: square"/>
   </g>
   <g id="line2d_16">
    <path d="M 161.898139 28.063636 
L 168.274751 36.941779 
L 175.198569 45.819923 
L 182.540035 54.698066 
L 190.176027 63.576209 
L 197.989862 72.454352 
L 205.871297 81.332495 
L 213.716526 90.210638 
L 221.428182 99.088781 
L 228.915336 107.966925 
L 236.093497 116.845068 
L 242.884614 125.723211 
L 249.217074 134.601354 
L 255.025701 143.479497 
L 260.251758 152.35764 
L 264.842947 161.235783 
L 268.753409 170.113926 
L 271.943722 178.99207 
L 274.380903 187.870213 
L 276.038408 196.748356 
L 276.896131 205.626499 
L 276.940403 214.504642 
L 276.163997 223.382785 
L 274.56612 232.260928 
L 272.152421 241.139072 
L 268.934986 250.017215 
L 264.932339 258.895358 
L 260.169443 267.773501 
L 254.677699 276.651644 
L 248.494948 285.529787 
L 241.665467 294.40793 
L 234.239973 303.286074 
L 226.275622 312.164217 
L 217.836006 321.04236 
L 208.991158 329.920503 
L 199.817547 338.798646 
L 190.398084 347.676789 
L 180.822114 356.554932 
L 171.185424 365.433075 
L 161.590237 374.311219 
L 152.145217 383.189362 
L 142.965464 392.067505 
L 134.172517 400.945648 
L 125.894354 409.823791 
L 118.265392 418.701934 
L 111.426485 427.580077 
L 105.524925 436.458221 
L 100.714446 445.336364 
" clip-path="url(#p4646b42d21)" style="fill: none; stroke: #fecc5c; stroke-opacity: 0.3; stroke-width: 2; stroke-linecap: square"/>
   </g>
   <g id="line2d_17">
    <path d="M 156.980972 28.063636 
L 165.874237 36.941779 
L 174.736558 45.819923 
L 183.500718 54.698066 
L 192.103139 63.576209 
L 200.483881 72.454352 
L 208.586645 81.332495 
L 216.358767 90.210638 
L 223.751225 99.088781 
L 230.718633 107.966925 
L 237.219245 116.845068 
L 243.214955 125.723211 
L 248.671291 134.601354 
L 253.557426 143.479497 
L 257.846166 152.35764 
L 261.513958 161.235783 
L 264.540889 170.113926 
L 266.910682 178.99207 
L 268.6107 187.870213 
L 269.631945 196.748356 
L 269.969057 205.626499 
L 269.620314 214.504642 
L 268.587633 223.382785 
L 266.876571 232.260928 
L 264.496323 241.139072 
L 261.459721 250.017215 
L 257.783238 258.895358 
L 253.486983 267.773501 
L 248.594706 276.651644 
L 243.133795 285.529787 
L 237.135276 294.40793 
L 230.633814 303.286074 
L 223.667712 312.164217 
L 216.278914 321.04236 
L 208.512999 329.920503 
L 200.419188 338.798646 
L 192.050338 347.676789 
L 183.462946 356.554932 
L 174.717148 365.433075 
L 165.876718 374.311219 
L 157.009068 383.189362 
L 148.185249 392.067505 
L 139.479953 400.945648 
L 130.971506 409.823791 
L 122.741876 418.701934 
L 114.87667 427.580077 
L 107.465131 436.458221 
L 100.600143 445.336364 
" clip-path="url(#p4646b42d21)" style="fill: none; stroke: #fecc5c; stroke-opacity: 0.3; stroke-width: 2; stroke-linecap: square"/>
   </g>
   <g id="line2d_18">
    <path d="M 160.756224 28.063636 
L 166.946741 36.941779 
L 173.822766 45.819923 
L 181.23253 54.698066 
L 189.031934 63.576209 
L 197.084554 72.454352 
L 205.261635 81.332495 
L 213.442096 90.210638 
L 221.512528 99.088781 
L 229.367194 107.966925 
L 236.908031 116.845068 
L 244.044645 125.723211 
L 250.694316 134.601354 
L 256.781998 143.479497 
L 262.240314 152.35764 
L 267.00956 161.235783 
L 271.037707 170.113926 
L 274.280396 178.99207 
L 276.700939 187.870213 
L 278.270323 196.748356 
L 278.967206 205.626499 
L 278.777917 214.504642 
L 277.69646 223.382785 
L 275.724509 232.260928 
L 272.871411 241.139072 
L 269.154186 250.017215 
L 264.597525 258.895358 
L 259.233792 267.773501 
L 253.103022 276.651644 
L 246.252925 285.529787 
L 238.73888 294.40793 
L 230.623941 303.286074 
L 221.978832 312.164217 
L 212.881951 321.04236 
L 203.419367 329.920503 
L 193.684822 338.798646 
L 183.779731 347.676789 
L 173.813179 356.554932 
L 163.901924 365.433075 
L 154.170399 374.311219 
L 144.750705 383.189362 
L 135.782618 392.067505 
L 127.413586 400.945648 
L 119.798729 409.823791 
L 113.100838 418.701934 
L 107.490377 427.580077 
L 103.145485 436.458221 
L 100.251968 445.336364 
" clip-path="url(#p4646b42d21)" style="fill: none; stroke: #fecc5c; stroke-opacity: 0.3; stroke-width: 2; stroke-linecap: square"/>
   </g>
   <g id="line2d_19">
    <path d="M 161.721424 28.063636 
L 167.225888 36.941779 
L 173.61302 45.819923 
L 180.707018 54.698066 
L 188.340922 63.576209 
L 196.35662 72.454352 
L 204.604841 81.332495 
L 212.945161 90.210638 
L 221.246001 99.088781 
L 229.384624 107.966925 
L 237.247141 116.845068 
L 244.728505 125.723211 
L 251.732516 134.601354 
L 258.171815 143.479497 
L 263.967893 152.35764 
L 269.05108 161.235783 
L 273.360555 170.113926 
L 276.844339 178.99207 
L 279.459299 187.870213 
L 281.171146 196.748356 
L 281.954436 205.626499 
L 281.792571 214.504642 
L 280.677794 223.382785 
L 278.611195 232.260928 
L 275.602711 241.139072 
L 271.671118 250.017215 
L 266.844042 258.895358 
L 261.157951 267.773501 
L 254.658158 276.651644 
L 247.398821 285.529787 
L 239.442942 294.40793 
L 230.862368 303.286074 
L 221.737791 312.164217 
L 212.158748 321.04236 
L 202.223619 329.920503 
L 192.03963 338.798646 
L 181.722852 347.676789 
L 171.398199 356.554932 
L 161.199432 365.433075 
L 151.269154 374.311219 
L 141.758815 383.189362 
L 132.828708 392.067505 
L 124.647971 400.945648 
L 117.394588 409.823791 
L 111.255385 418.701934 
L 106.426036 427.580077 
L 103.111057 436.458221 
L 101.523809 445.336364 
" clip-path="url(#p4646b42d21)" style="fill: none; stroke: #fecc5c; stroke-opacity: 0.3; stroke-width: 2; stroke-linecap: square"/>
   </g>
   <g id="line2d_20">
    <path d="M 161.76418 28.063636 
L 167.845607 36.941779 
L 174.51864 45.819923 
L 181.650633 54.698066 
L 189.115465 63.576209 
L 196.793547 72.454352 
L 204.571819 81.332495 
L 212.343747 90.210638 
L 220.009331 99.088781 
L 227.475094 107.966925 
L 234.654094 116.845068 
L 241.465914 125.723211 
L 247.836668 134.601354 
L 253.698998 143.479497 
L 258.992076 152.35764 
L 263.661601 161.235783 
L 267.659805 170.113926 
L 270.945444 178.99207 
L 273.483808 187.870213 
L 275.246712 196.748356 
L 276.212502 205.626499 
L 276.366054 214.504642 
L 275.69877 223.382785 
L 274.208585 232.260928 
L 271.899959 241.139072 
L 268.783884 250.017215 
L 264.877879 258.895358 
L 260.205994 267.773501 
L 254.798807 276.651644 
L 248.693425 285.529787 
L 241.933485 294.40793 
L 234.56915 303.286074 
L 226.657116 312.164217 
L 218.260607 321.04236 
L 209.449373 329.920503 
L 200.299697 338.798646 
L 190.89439 347.676789 
L 181.32279 356.554932 
L 171.680767 365.433075 
L 162.070717 374.311219 
L 152.601567 383.189362 
L 143.388774 392.067505 
L 134.554322 400.945648 
L 126.226724 409.823791 
L 118.541023 418.701934 
L 111.638792 427.580077 
L 105.668131 436.458221 
L 100.78367 445.336364 
" clip-path="url(#p4646b42d21)" style="fill: none; stroke: #fecc5c; stroke-opacity: 0.3; stroke-width: 2; stroke-linecap: square"/>
   </g>
   <g id="line2d_21">
    <path d="M 152.895616 28.063636 
L 164.032959 36.941779 
L 174.566956 45.819923 
L 184.498306 54.698066 
L 193.828065 63.576209 
L 202.557654 72.454352 
L 210.688848 81.332495 
L 218.223786 90.210638 
L 225.164963 99.088781 
L 231.515237 107.966925 
L 237.277823 116.845068 
L 242.456297 125.723211 
L 247.054594 134.601354 
L 251.07701 143.479497 
L 254.528198 152.35764 
L 257.413173 161.235783 
L 259.737309 170.113926 
L 261.506338 178.99207 
L 262.726355 187.870213 
L 263.403811 196.748356 
L 263.545519 205.626499 
L 263.158651 214.504642 
L 262.250738 223.382785 
L 260.829672 232.260928 
L 258.903702 241.139072 
L 256.48144 250.017215 
L 253.571856 258.895358 
L 250.184278 267.773501 
L 246.328397 276.651644 
L 242.014261 285.529787 
L 237.252278 294.40793 
L 232.053217 303.286074 
L 226.428206 312.164217 
L 220.388731 321.04236 
L 213.94664 329.920503 
L 207.114139 338.798646 
L 199.903795 347.676789 
L 192.328533 356.554932 
L 184.401639 365.433075 
L 176.136758 374.311219 
L 167.547895 383.189362 
L 158.649413 392.067505 
L 149.456037 400.945648 
L 139.98285 409.823791 
L 130.245297 418.701934 
L 120.259178 427.580077 
L 110.040657 436.458221 
L 99.606257 445.336364 
" clip-path="url(#p4646b42d21)" style="fill: none; stroke: #fecc5c; stroke-opacity: 0.3; stroke-width: 2; stroke-linecap: square"/>
   </g>
   <g id="line2d_22">
    <path d="M 159.223178 28.063636 
L 167.174961 36.941779 
L 175.271631 45.819923 
L 183.430019 54.698066 
L 191.571212 63.576209 
L 199.620546 72.454352 
L 207.507613 81.332495 
L 215.166255 90.210638 
L 222.534568 99.088781 
L 229.5549 107.966925 
L 236.173853 116.845068 
L 242.342281 125.723211 
L 248.01529 134.601354 
L 253.152238 143.479497 
L 257.716739 152.35764 
L 261.676656 161.235783 
L 265.004107 170.113926 
L 267.675461 178.99207 
L 269.671341 187.870213 
L 270.976623 196.748356 
L 271.580433 205.626499 
L 271.476153 214.504642 
L 270.661416 223.382785 
L 269.138107 232.260928 
L 266.912366 241.139072 
L 263.994584 250.017215 
L 260.399403 258.895358 
L 256.145722 267.773501 
L 251.256689 276.651644 
L 245.759707 285.529787 
L 239.686429 294.40793 
L 233.072764 303.286074 
L 225.95887 312.164217 
L 218.389161 321.04236 
L 210.412303 329.920503 
L 202.081212 338.798646 
L 193.45306 347.676789 
L 184.589271 356.554932 
L 175.555519 365.433075 
L 166.421734 374.311219 
L 157.262097 383.189362 
L 148.155042 392.067505 
L 139.183256 400.945648 
L 130.433679 409.823791 
L 121.997501 418.701934 
L 113.970169 427.580077 
L 106.451379 436.458221 
L 99.545081 445.336364 
" clip-path="url(#p4646b42d21)" style="fill: none; stroke: #fecc5c; stroke-opacity: 0.3; stroke-width: 2; stroke-linecap: square"/>
   </g>
   <g id="line2d_23">
    <path d="M 158.635458 28.063636 
L 165.390484 36.941779 
L 172.74286 45.819923 
L 180.545946 54.698066 
L 188.660722 63.576209 
L 196.955788 72.454352 
L 205.307364 81.332495 
L 213.599288 90.210638 
L 221.723018 99.088781 
L 229.577632 107.966925 
L 237.069828 116.845068 
L 244.113921 125.723211 
L 250.631849 134.601354 
L 256.553166 143.479497 
L 261.815048 152.35764 
L 266.362289 161.235783 
L 270.147303 170.113926 
L 273.130124 178.99207 
L 275.278405 187.870213 
L 276.567418 196.748356 
L 276.980055 205.626499 
L 276.506828 214.504642 
L 275.145867 223.382785 
L 272.902923 232.260928 
L 269.791366 241.139072 
L 265.832184 250.017215 
L 261.053988 258.895358 
L 255.493005 267.773501 
L 249.193083 276.651644 
L 242.205688 285.529787 
L 234.589909 294.40793 
L 226.412451 303.286074 
L 217.747639 312.164217 
L 208.67742 321.04236 
L 199.291357 329.920503 
L 189.686634 338.798646 
L 179.968056 347.676789 
L 170.248045 356.554932 
L 160.646644 365.433075 
L 151.291514 374.311219 
L 142.317938 383.189362 
L 133.868816 392.067505 
L 126.094669 400.945648 
L 119.153637 409.823791 
L 113.211479 418.701934 
L 108.441573 427.580077 
L 105.024919 436.458221 
L 103.150134 445.336364 
" clip-path="url(#p4646b42d21)" style="fill: none; stroke: #fecc5c; stroke-opacity: 0.3; stroke-width: 2; stroke-linecap: square"/>
   </g>
   <g id="line2d_24">
    <path d="M 162.755057 28.063636 
L 167.682542 36.941779 
L 173.627079 45.819923 
L 180.394377 54.698066 
L 187.800021 63.576209 
L 195.669477 72.454352 
L 203.838089 81.332495 
L 212.151077 90.210638 
L 220.463543 99.088781 
L 228.640465 107.966925 
L 236.556701 116.845068 
L 244.096988 125.723211 
L 251.15594 134.601354 
L 257.63805 143.479497 
L 263.457691 152.35764 
L 268.539112 161.235783 
L 272.816444 170.113926 
L 276.233693 178.99207 
L 278.744746 187.870213 
L 280.313367 196.748356 
L 280.913201 205.626499 
L 280.527768 214.504642 
L 279.150469 223.382785 
L 276.784583 232.260928 
L 273.443268 241.139072 
L 269.149561 250.017215 
L 263.936375 258.895358 
L 257.846504 267.773501 
L 250.93262 276.651644 
L 243.257274 285.529787 
L 234.892894 294.40793 
L 225.921788 303.286074 
L 216.436143 312.164217 
L 206.538022 321.04236 
L 196.33937 329.920503 
L 185.962007 338.798646 
L 175.537636 347.676789 
L 165.207833 356.554932 
L 155.124058 365.433075 
L 145.447646 374.311219 
L 136.349813 383.189362 
L 128.01165 392.067505 
L 120.624131 400.945648 
L 114.388105 409.823791 
L 109.514302 418.701934 
L 106.223328 427.580077 
L 104.745671 436.458221 
L 105.321695 445.336364 
" clip-path="url(#p4646b42d21)" style="fill: none; stroke: #fecc5c; stroke-opacity: 0.3; stroke-width: 2; stroke-linecap: square"/>
   </g>
   <g id="line2d_25">
    <path d="M 158.038012 28.063636 
L 166.379953 36.941779 
L 174.651059 45.819923 
L 182.805959 54.698066 
L 190.801295 63.576209 
L 198.595725 72.454352 
L 206.149924 81.332495 
L 213.426578 90.210638 
L 220.390393 99.088781 
L 227.008086 107.966925 
L 233.248392 116.845068 
L 239.08206 125.723211 
L 244.481855 134.601354 
L 249.422557 143.479497 
L 253.880959 152.35764 
L 257.835873 161.235783 
L 261.268123 170.113926 
L 264.16055 178.99207 
L 266.49801 187.870213 
L 268.267373 196.748356 
L 269.457526 205.626499 
L 270.05937 214.504642 
L 270.065821 223.382785 
L 269.471811 232.260928 
L 268.274287 241.139072 
L 266.472211 250.017215 
L 264.06656 258.895358 
L 261.060327 267.773501 
L 257.458519 276.651644 
L 253.268159 285.529787 
L 248.498286 294.40793 
L 243.159952 303.286074 
L 237.266225 312.164217 
L 230.832191 321.04236 
L 223.874946 329.920503 
L 216.413606 338.798646 
L 208.4693 347.676789 
L 200.065172 356.554932 
L 191.226382 365.433075 
L 181.980104 374.311219 
L 172.355529 383.189362 
L 162.383862 392.067505 
L 152.098324 400.945648 
L 141.534149 409.823791 
L 130.728589 418.701934 
L 119.72091 427.580077 
L 108.552393 436.458221 
L 97.266335 445.336364 
" clip-path="url(#p4646b42d21)" style="fill: none; stroke: #fecc5c; stroke-opacity: 0.3; stroke-width: 2; stroke-linecap: square"/>
   </g>
   <g id="line2d_26">
    <path d="M 158.800603 28.063636 
L 166.760217 36.941779 
L 174.788879 45.819923 
L 182.819636 54.698066 
L 190.788767 63.576209 
L 198.635777 72.454352 
L 206.303403 81.332495 
L 213.73761 90.210638 
L 220.887592 99.088781 
L 227.705774 107.966925 
L 234.147808 116.845068 
L 240.172578 125.723211 
L 245.742195 134.601354 
L 250.822001 143.479497 
L 255.380567 152.35764 
L 259.389693 161.235783 
L 262.824407 170.113926 
L 265.66297 178.99207 
L 267.886869 187.870213 
L 269.480821 196.748356 
L 270.432774 205.626499 
L 270.733903 214.504642 
L 270.378614 223.382785 
L 269.364543 232.260928 
L 267.692552 241.139072 
L 265.366737 250.017215 
L 262.394419 258.895358 
L 258.786151 267.773501 
L 254.555715 276.651644 
L 249.720122 285.529787 
L 244.299611 294.40793 
L 238.317654 303.286074 
L 231.800948 312.164217 
L 224.779422 321.04236 
L 217.286234 329.920503 
L 209.35777 338.798646 
L 201.033649 347.676789 
L 192.356714 356.554932 
L 183.373041 365.433075 
L 174.131935 374.311219 
L 164.68593 383.189362 
L 155.090789 392.067505 
L 145.405503 400.945648 
L 135.692296 409.823791 
L 126.016619 418.701934 
L 116.447151 427.580077 
L 107.055803 436.458221 
L 97.917714 445.336364 
" clip-path="url(#p4646b42d21)" style="fill: none; stroke: #fecc5c; stroke-opacity: 0.3; stroke-width: 2; stroke-linecap: square"/>
   </g>
   <g id="line2d_27">
    <path d="M 161.866534 28.063636 
L 167.884092 36.941779 
L 174.484296 45.819923 
L 181.540613 54.698066 
L 188.932529 63.576209 
L 196.545547 72.454352 
L 204.271189 81.332495 
L 212.006997 90.210638 
L 219.656529 99.088781 
L 227.129363 107.966925 
L 234.341095 116.845068 
L 241.213339 125.723211 
L 247.67373 134.601354 
L 253.655917 143.479497 
L 259.099571 152.35764 
L 263.950381 161.235783 
L 268.160052 170.113926 
L 271.68631 178.99207 
L 274.492899 187.870213 
L 276.549581 196.748356 
L 277.832137 205.626499 
L 278.322364 214.504642 
L 278.008082 223.382785 
L 276.883125 232.260928 
L 274.947349 241.139072 
L 272.206625 250.017215 
L 268.672846 258.895358 
L 264.36392 267.773501 
L 259.303776 276.651644 
L 253.522361 285.529787 
L 247.055639 294.40793 
L 239.945594 303.286074 
L 232.240228 312.164217 
L 223.993562 321.04236 
L 215.265633 329.920503 
L 206.122501 338.798646 
L 196.636239 347.676789 
L 186.884942 356.554932 
L 176.952724 365.433075 
L 166.929714 374.311219 
L 156.912063 383.189362 
L 147.001939 392.067505 
L 137.307527 400.945648 
L 127.943033 409.823791 
L 119.02868 418.701934 
L 110.69071 427.580077 
L 103.061383 436.458221 
L 96.278977 445.336364 
" clip-path="url(#p4646b42d21)" style="fill: none; stroke: #fecc5c; stroke-opacity: 0.3; stroke-width: 2; stroke-linecap: square"/>
   </g>
   <g id="line2d_28">
    <path d="M 161.101187 28.063636 
L 166.958819 36.941779 
L 173.515267 45.819923 
L 180.620997 54.698066 
L 188.133949 63.576209 
L 195.919542 72.454352 
L 203.850672 81.332495 
L 211.807709 90.210638 
L 219.678501 99.088781 
L 227.358375 107.966925 
L 234.75013 116.845068 
L 241.764047 125.723211 
L 248.317879 134.601354 
L 254.336859 143.479497 
L 259.753694 152.35764 
L 264.50857 161.235783 
L 268.549148 170.113926 
L 271.830568 178.99207 
L 274.315443 187.870213 
L 275.973866 196.748356 
L 276.783406 205.626499 
L 276.729107 214.504642 
L 275.803491 223.382785 
L 274.006557 232.260928 
L 271.34578 241.139072 
L 267.836111 250.017215 
L 263.499981 258.895358 
L 258.367292 267.773501 
L 252.475429 276.651644 
L 245.869248 285.529787 
L 238.601087 294.40793 
L 230.730755 303.286074 
L 222.325543 312.164217 
L 213.460215 321.04236 
L 204.217014 329.920503 
L 194.685659 338.798646 
L 184.963344 347.676789 
L 175.154741 356.554932 
L 165.372 365.433075 
L 155.734747 374.311219 
L 146.370082 383.189362 
L 137.412586 392.067505 
L 129.004313 400.945648 
L 121.294795 409.823791 
L 114.441042 418.701934 
L 108.607539 427.580077 
L 103.966249 436.458221 
L 100.69661 445.336364 
" clip-path="url(#p4646b42d21)" style="fill: none; stroke: #fecc5c; stroke-opacity: 0.3; stroke-width: 2; stroke-linecap: square"/>
   </g>
   <g id="line2d_29"/>
   <g id="line2d_30">
    <path d="M 159.619178 28.063636 
L 166.660916 36.941779 
L 174.117464 45.819923 
L 181.87174 54.698066 
L 189.812604 63.576209 
L 197.834863 72.454352 
L 205.839265 81.332495 
L 213.732504 90.210638 
L 221.427218 99.088781 
L 228.841988 107.966925 
L 235.901341 116.845068 
L 242.535745 125.723211 
L 248.681616 134.601354 
L 254.281312 143.479497 
L 259.283134 152.35764 
L 263.641329 161.235783 
L 267.316088 170.113926 
L 270.273546 178.99207 
L 272.48578 187.870213 
L 273.930815 196.748356 
L 274.592616 205.626499 
L 274.461095 214.504642 
L 273.532108 223.382785 
L 271.807454 232.260928 
L 269.294875 241.139072 
L 266.00806 250.017215 
L 261.96664 258.895358 
L 257.196191 267.773501 
L 251.728233 276.651644 
L 245.60023 285.529787 
L 238.85559 294.40793 
L 231.543666 303.286074 
L 223.719752 312.164217 
L 215.445091 321.04236 
L 206.786866 329.920503 
L 197.818207 338.798646 
L 188.618186 347.676789 
L 179.271819 356.554932 
L 169.870069 365.433075 
L 160.50984 374.311219 
L 151.293981 383.189362 
L 142.331285 392.067505 
L 133.736491 400.945648 
L 125.63028 409.823791 
L 118.139277 418.701934 
L 111.396052 427.580077 
L 105.53912 436.458221 
L 100.712938 445.336364 
" clip-path="url(#p4646b42d21)" style="fill: none; stroke: #6b3914; stroke-width: 3; stroke-linecap: square"/>
    <defs>
     <path id="m5652f2d977" d="M 5 0 
L -5 -0 
" style="stroke: #6b3914"/>
    </defs>
    <g clip-path="url(#p4646b42d21)">
     <use xlink:href="#m5652f2d977" x="159.619178" y="28.063636" style="fill: #6b3914; stroke: #6b3914"/>
     <use xlink:href="#m5652f2d977" x="166.660916" y="36.941779" style="fill: #6b3914; stroke: #6b3914"/>
     <use xlink:href="#m5652f2d977" x="174.117464" y="45.819923" style="fill: #6b3914; stroke: #6b3914"/>
     <use xlink:href="#m5652f2d977" x="181.87174" y="54.698066" style="fill: #6b3914; stroke: #6b3914"/>
     <use xlink:href="#m5652f2d977" x="189.812604" y="63.576209" style="fill: #6b3914; stroke: #6b3914"/>
     <use xlink:href="#m5652f2d977" x="197.834863" y="72.454352" style="fill: #6b3914; stroke: #6b3914"/>
     <use xlink:href="#m5652f2d977" x="205.839265" y="81.332495" style="fill: #6b3914; stroke: #6b3914"/>
     <use xlink:href="#m5652f2d977" x="213.732504" y="90.210638" style="fill: #6b3914; stroke: #6b3914"/>
     <use xlink:href="#m5652f2d977" x="221.427218" y="99.088781" style="fill: #6b3914; stroke: #6b3914"/>
     <use xlink:href="#m5652f2d977" x="228.841988" y="107.966925" style="fill: #6b3914; stroke: #6b3914"/>
     <use xlink:href="#m5652f2d977" x="235.901341" y="116.845068" style="fill: #6b3914; stroke: #6b3914"/>
     <use xlink:href="#m5652f2d977" x="242.535745" y="125.723211" style="fill: #6b3914; stroke: #6b3914"/>
     <use xlink:href="#m5652f2d977" x="248.681616" y="134.601354" style="fill: #6b3914; stroke: #6b3914"/>
     <use xlink:href="#m5652f2d977" x="254.281312" y="143.479497" style="fill: #6b3914; stroke: #6b3914"/>
     <use xlink:href="#m5652f2d977" x="259.283134" y="152.35764" style="fill: #6b3914; stroke: #6b3914"/>
     <use xlink:href="#m5652f2d977" x="263.641329" y="161.235783" style="fill: #6b3914; stroke: #6b3914"/>
     <use xlink:href="#m5652f2d977" x="267.316088" y="170.113926" style="fill: #6b3914; stroke: #6b3914"/>
     <use xlink:href="#m5652f2d977" x="270.273546" y="178.99207" style="fill: #6b3914; stroke: #6b3914"/>
     <use xlink:href="#m5652f2d977" x="272.48578" y="187.870213" style="fill: #6b3914; stroke: #6b3914"/>
     <use xlink:href="#m5652f2d977" x="273.930815" y="196.748356" style="fill: #6b3914; stroke: #6b3914"/>
     <use xlink:href="#m5652f2d977" x="274.592616" y="205.626499" style="fill: #6b3914; stroke: #6b3914"/>
     <use xlink:href="#m5652f2d977" x="274.461095" y="214.504642" style="fill: #6b3914; stroke: #6b3914"/>
     <use xlink:href="#m5652f2d977" x="273.532108" y="223.382785" style="fill: #6b3914; stroke: #6b3914"/>
     <use xlink:href="#m5652f2d977" x="271.807454" y="232.260928" style="fill: #6b3914; stroke: #6b3914"/>
     <use xlink:href="#m5652f2d977" x="269.294875" y="241.139072" style="fill: #6b3914; stroke: #6b3914"/>
     <use xlink:href="#m5652f2d977" x="266.00806" y="250.017215" style="fill: #6b3914; stroke: #6b3914"/>
     <use xlink:href="#m5652f2d977" x="261.96664" y="258.895358" style="fill: #6b3914; stroke: #6b3914"/>
     <use xlink:href="#m5652f2d977" x="257.196191" y="267.773501" style="fill: #6b3914; stroke: #6b3914"/>
     <use xlink:href="#m5652f2d977" x="251.728233" y="276.651644" style="fill: #6b3914; stroke: #6b3914"/>
     <use xlink:href="#m5652f2d977" x="245.60023" y="285.529787" style="fill: #6b3914; stroke: #6b3914"/>
     <use xlink:href="#m5652f2d977" x="238.85559" y="294.40793" style="fill: #6b3914; stroke: #6b3914"/>
     <use xlink:href="#m5652f2d977" x="231.543666" y="303.286074" style="fill: #6b3914; stroke: #6b3914"/>
     <use xlink:href="#m5652f2d977" x="223.719752" y="312.164217" style="fill: #6b3914; stroke: #6b3914"/>
     <use xlink:href="#m5652f2d977" x="215.445091" y="321.04236" style="fill: #6b3914; stroke: #6b3914"/>
     <use xlink:href="#m5652f2d977" x="206.786866" y="329.920503" style="fill: #6b3914; stroke: #6b3914"/>
     <use xlink:href="#m5652f2d977" x="197.818207" y="338.798646" style="fill: #6b3914; stroke: #6b3914"/>
     <use xlink:href="#m5652f2d977" x="188.618186" y="347.676789" style="fill: #6b3914; stroke: #6b3914"/>
     <use xlink:href="#m5652f2d977" x="179.271819" y="356.554932" style="fill: #6b3914; stroke: #6b3914"/>
     <use xlink:href="#m5652f2d977" x="169.870069" y="365.433075" style="fill: #6b3914; stroke: #6b3914"/>
     <use xlink:href="#m5652f2d977" x="160.50984" y="374.311219" style="fill: #6b3914; stroke: #6b3914"/>
     <use xlink:href="#m5652f2d977" x="151.293981" y="383.189362" style="fill: #6b3914; stroke: #6b3914"/>
     <use xlink:href="#m5652f2d977" x="142.331285" y="392.067505" style="fill: #6b3914; stroke: #6b3914"/>
     <use xlink:href="#m5652f2d977" x="133.736491" y="400.945648" style="fill: #6b3914; stroke: #6b3914"/>
     <use xlink:href="#m5652f2d977" x="125.63028" y="409.823791" style="fill: #6b3914; stroke: #6b3914"/>
     <use xlink:href="#m5652f2d977" x="118.139277" y="418.701934" style="fill: #6b3914; stroke: #6b3914"/>
     <use xlink:href="#m5652f2d977" x="111.396052" y="427.580077" style="fill: #6b3914; stroke: #6b3914"/>
     <use xlink:href="#m5652f2d977" x="105.53912" y="436.458221" style="fill: #6b3914; stroke: #6b3914"/>
     <use xlink:href="#m5652f2d977" x="100.712938" y="445.336364" style="fill: #6b3914; stroke: #6b3914"/>
    </g>
   </g>
   <g id="line2d_31">
    <path d="M 159.980904 28.063636 
L 159.980904 36.941779 
L 165.576784 36.941779 
L 165.576784 45.819923 
L 172.863897 45.819923 
L 172.863897 54.698066 
L 187.735406 54.698066 
L 187.735406 63.576209 
L 195.035901 63.576209 
L 195.035901 72.454352 
L 212.513224 72.454352 
L 212.513224 81.332495 
L 219.236916 81.332495 
L 219.236916 90.210638 
L 210.180402 90.210638 
L 210.180402 99.088781 
L 222.503057 99.088781 
L 222.503057 107.966925 
L 205.613909 107.966925 
L 205.613909 116.845068 
L 217.869783 116.845068 
L 217.869783 125.723211 
L 180.769146 125.723211 
L 180.769146 134.601354 
L 257.656727 134.601354 
L 257.656727 143.479497 
L 237.88439 143.479497 
L 237.88439 152.35764 
L 248.233214 152.35764 
L 248.233214 161.235783 
L 277.935162 161.235783 
L 277.935162 170.113926 
L 275.567335 170.113926 
L 275.567335 178.99207 
L 286.783092 178.99207 
L 286.783092 187.870213 
L 304.133807 187.870213 
L 304.133807 196.748356 
L 245.048588 196.748356 
L 245.048588 205.626499 
L 269.135158 205.626499 
L 269.135158 214.504642 
L 289.266649 214.504642 
L 289.266649 223.382785 
L 282.62279 223.382785 
L 282.62279 232.260928 
L 305.606386 232.260928 
L 305.606386 241.139072 
L 296.15057 241.139072 
L 296.15057 250.017215 
L 341.733523 250.017215 
L 341.733523 258.895358 
L 283.476968 258.895358 
L 283.476968 267.773501 
L 245.869474 267.773501 
L 245.869474 276.651644 
L 236.119801 276.651644 
L 236.119801 285.529787 
L 286.721321 285.529787 
L 286.721321 294.40793 
L 249.360317 294.40793 
L 249.360317 303.286074 
L 235.03512 303.286074 
L 235.03512 312.164217 
L 223.388747 312.164217 
L 223.388747 321.04236 
L 161.667274 321.04236 
L 161.667274 329.920503 
L 163.556179 329.920503 
L 163.556179 338.798646 
L 181.576551 338.798646 
L 181.576551 347.676789 
L 153.484979 347.676789 
L 153.484979 356.554932 
L 140.471093 356.554932 
L 140.471093 365.433075 
L 170.965185 365.433075 
L 170.965185 374.311219 
L 139.576372 374.311219 
L 139.576372 383.189362 
L 135.276031 383.189362 
L 135.276031 392.067505 
L 131.686005 392.067505 
L 131.686005 400.945648 
L 130.419703 400.945648 
L 130.419703 409.823791 
L 122.854556 409.823791 
L 122.854556 418.701934 
L 137.438241 418.701934 
L 137.438241 427.580077 
L 133.486342 427.580077 
L 133.486342 436.458221 
L 129.236119 436.458221 
L 129.236119 445.336364 
L 101.721069 445.336364 
" clip-path="url(#p4646b42d21)" style="fill: none; stroke: #e40000; stroke-opacity: 0.8; stroke-width: 3; stroke-linecap: square"/>
   </g>
   <g id="patch_3">
    <path d="M 74.00625 466.2 
L 74.00625 7.2 
" style="fill: none; stroke: #000000; stroke-width: 2; stroke-linejoin: miter; stroke-linecap: square"/>
   </g>
   <g id="patch_4">
    <path d="M 84.00625 476.2 
L 354.00625 476.2 
" style="fill: none; stroke: #000000; stroke-width: 2; stroke-linejoin: miter; stroke-linecap: square"/>
   </g>
  </g>
 </g>
 <defs>
  <clipPath id="p4646b42d21">
   <rect x="84.00625" y="7.2" width="270" height="459"/>
  </clipPath>
 </defs>
</svg>
