<?xml version="1.0" encoding="utf-8" standalone="no"?>
<!DOCTYPE svg PUBLIC "-//W3C//DTD SVG 1.1//EN"
  "http://www.w3.org/Graphics/SVG/1.1/DTD/svg11.dtd">
<svg xmlns:xlink="http://www.w3.org/1999/xlink" width="292.533424pt" height="544.35625pt" viewBox="0 0 292.533424 544.35625" xmlns="http://www.w3.org/2000/svg" version="1.1">
 <metadata>
  <rdf:RDF xmlns:dc="http://purl.org/dc/elements/1.1/" xmlns:cc="http://creativecommons.org/ns#" xmlns:rdf="http://www.w3.org/1999/02/22-rdf-syntax-ns#">
   <cc:Work>
    <dc:type rdf:resource="http://purl.org/dc/dcmitype/StillImage"/>
    <dc:date>2024-07-31T17:30:42.335461</dc:date>
    <dc:format>image/svg+xml</dc:format>
    <dc:creator>
     <cc:Agent>
      <dc:title>Matplotlib v3.8.0, https://matplotlib.org/</dc:title>
     </cc:Agent>
    </dc:creator>
   </cc:Work>
  </rdf:RDF>
 </metadata>
 <defs>
  <style type="text/css">*{stroke-linejoin: round; stroke-linecap: butt}</style>
 </defs>
 <g id="figure_1">
  <g id="patch_1">
   <path d="M 0 544.35625 
L 292.533424 544.35625 
L 292.533424 0 
L 0 0 
z
" style="fill: #ffffff"/>
  </g>
  <g id="axes_1">
   <g id="patch_2">
    <path d="M 15.333424 466.2 
L 285.333424 466.2 
L 285.333424 7.2 
L 15.333424 7.2 
z
" style="fill: #ffffff"/>
   </g>
   <g id="PolyCollection_1">
    <defs>
     <path id="mb5ab1945df" d="M 247.882235 -516.292614 
L 258.633893 -516.292614 
L 262.00619 -497.325671 
L 265.049253 -478.358729 
L 267.705928 -459.391787 
L 269.602636 -440.424845 
L 270.218388 -421.457903 
L 268.958386 -402.490961 
L 265.036243 -383.524019 
L 257.945981 -364.557076 
L 247.100262 -345.590134 
L 232.262361 -326.623192 
L 213.314413 -307.65625 
L 190.903977 -288.689308 
L 166.169644 -269.722366 
L 140.76175 -250.755424 
L 116.470814 -231.788481 
L 95.21206 -212.821539 
L 77.622779 -193.854597 
L 64.066487 -174.887655 
L 54.443334 -155.920713 
L 47.904274 -136.953771 
L 43.773767 -117.986829 
L 41.175672 -99.019886 
L 27.606152 -99.019886 
L 27.606152 -99.019886 
L 30.812267 -117.986829 
L 35.700077 -136.953771 
L 42.97853 -155.920713 
L 52.834916 -174.887655 
L 66.458807 -193.854597 
L 84.358479 -212.821539 
L 105.96737 -231.788481 
L 130.265255 -250.755424 
L 155.795534 -269.722366 
L 180.762285 -288.689308 
L 203.417493 -307.65625 
L 222.677443 -326.623192 
L 237.72135 -345.590134 
L 248.711063 -364.557076 
L 255.808974 -383.524019 
L 259.764396 -402.490961 
L 261.099561 -421.457903 
L 260.46109 -440.424845 
L 258.508904 -459.391787 
L 255.546344 -478.358729 
L 251.926239 -497.325671 
L 247.882235 -516.292614 
z
" style="stroke: #756bb1; stroke-opacity: 0.5"/>
    </defs>
    <g clip-path="url(#pbbcb816ad5)">
     <use xlink:href="#mb5ab1945df" x="0" y="544.35625" style="fill: #756bb1; fill-opacity: 0.5; stroke: #756bb1; stroke-opacity: 0.5"/>
    </g>
   </g>
   <g id="matplotlib.axis_1">
    <g id="xtick_1">
     <g id="line2d_1">
      <defs>
       <path id="m3459c15e8a" d="M 0 0 
L 0 3.5 
" style="stroke: #000000; stroke-width: 1.5"/>
      </defs>
      <g>
       <use xlink:href="#m3459c15e8a" x="26.2875" y="476.2" style="stroke: #000000; stroke-width: 1.5"/>
      </g>
     </g>
     <g id="text_1">
      <!-- 100 -->
      <g transform="translate(7.2 498.396875) scale(0.2 -0.2)">
       <defs>
        <path id="DejaVuSans-31" d="M 794 531 
L 1825 531 
L 1825 4091 
L 703 3866 
L 703 4441 
L 1819 4666 
L 2450 4666 
L 2450 531 
L 3481 531 
L 3481 0 
L 794 0 
L 794 531 
z
" transform="scale(0.015625)"/>
        <path id="DejaVuSans-30" d="M 2034 4250 
Q 1547 4250 1301 3770 
Q 1056 3291 1056 2328 
Q 1056 1369 1301 889 
Q 1547 409 2034 409 
Q 2525 409 2770 889 
Q 3016 1369 3016 2328 
Q 3016 3291 2770 3770 
Q 2525 4250 2034 4250 
z
M 2034 4750 
Q 2819 4750 3233 4129 
Q 3647 3509 3647 2328 
Q 3647 1150 3233 529 
Q 2819 -91 2034 -91 
Q 1250 -91 836 529 
Q 422 1150 422 2328 
Q 422 3509 836 4129 
Q 1250 4750 2034 4750 
z
" transform="scale(0.015625)"/>
       </defs>
       <use xlink:href="#DejaVuSans-31"/>
       <use xlink:href="#DejaVuSans-30" x="63.623047"/>
       <use xlink:href="#DejaVuSans-30" x="127.246094"/>
      </g>
     </g>
    </g>
    <g id="xtick_2">
     <g id="line2d_2">
      <g>
       <use xlink:href="#m3459c15e8a" x="116.753195" y="476.2" style="stroke: #000000; stroke-width: 1.5"/>
      </g>
     </g>
     <g id="text_2">
      <!-- 200 -->
      <g transform="translate(97.665695 498.396875) scale(0.2 -0.2)">
       <defs>
        <path id="DejaVuSans-32" d="M 1228 531 
L 3431 531 
L 3431 0 
L 469 0 
L 469 531 
Q 828 903 1448 1529 
Q 2069 2156 2228 2338 
Q 2531 2678 2651 2914 
Q 2772 3150 2772 3378 
Q 2772 3750 2511 3984 
Q 2250 4219 1831 4219 
Q 1534 4219 1204 4116 
Q 875 4013 500 3803 
L 500 4441 
Q 881 4594 1212 4672 
Q 1544 4750 1819 4750 
Q 2544 4750 2975 4387 
Q 3406 4025 3406 3419 
Q 3406 3131 3298 2873 
Q 3191 2616 2906 2266 
Q 2828 2175 2409 1742 
Q 1991 1309 1228 531 
z
" transform="scale(0.015625)"/>
       </defs>
       <use xlink:href="#DejaVuSans-32"/>
       <use xlink:href="#DejaVuSans-30" x="63.623047"/>
       <use xlink:href="#DejaVuSans-30" x="127.246094"/>
      </g>
     </g>
    </g>
    <g id="xtick_3">
     <g id="line2d_3">
      <g>
       <use xlink:href="#m3459c15e8a" x="207.21889" y="476.2" style="stroke: #000000; stroke-width: 1.5"/>
      </g>
     </g>
     <g id="text_3">
      <!-- 300 -->
      <g transform="translate(188.13139 498.396875) scale(0.2 -0.2)">
       <defs>
        <path id="DejaVuSans-33" d="M 2597 2516 
Q 3050 2419 3304 2112 
Q 3559 1806 3559 1356 
Q 3559 666 3084 287 
Q 2609 -91 1734 -91 
Q 1441 -91 1130 -33 
Q 819 25 488 141 
L 488 750 
Q 750 597 1062 519 
Q 1375 441 1716 441 
Q 2309 441 2620 675 
Q 2931 909 2931 1356 
Q 2931 1769 2642 2001 
Q 2353 2234 1838 2234 
L 1294 2234 
L 1294 2753 
L 1863 2753 
Q 2328 2753 2575 2939 
Q 2822 3125 2822 3475 
Q 2822 3834 2567 4026 
Q 2313 4219 1838 4219 
Q 1578 4219 1281 4162 
Q 984 4106 628 3988 
L 628 4550 
Q 988 4650 1302 4700 
Q 1616 4750 1894 4750 
Q 2613 4750 3031 4423 
Q 3450 4097 3450 3541 
Q 3450 3153 3228 2886 
Q 3006 2619 2597 2516 
z
" transform="scale(0.015625)"/>
       </defs>
       <use xlink:href="#DejaVuSans-33"/>
       <use xlink:href="#DejaVuSans-30" x="63.623047"/>
       <use xlink:href="#DejaVuSans-30" x="127.246094"/>
      </g>
     </g>
    </g>
    <g id="text_4">
     <!-- Apparent Resistivity [$\Omega m$] -->
     <g transform="translate(3.533424 532.75625) scale(0.2 -0.2)">
      <defs>
       <path id="DejaVuSans-Bold-41" d="M 3419 850 
L 1538 850 
L 1241 0 
L 31 0 
L 1759 4666 
L 3194 4666 
L 4922 0 
L 3713 0 
L 3419 850 
z
M 1838 1716 
L 3116 1716 
L 2478 3572 
L 1838 1716 
z
" transform="scale(0.015625)"/>
       <path id="DejaVuSans-Bold-70" d="M 1656 506 
L 1656 -1331 
L 538 -1331 
L 538 3500 
L 1656 3500 
L 1656 2988 
Q 1888 3294 2169 3439 
Q 2450 3584 2816 3584 
Q 3463 3584 3878 3070 
Q 4294 2556 4294 1747 
Q 4294 938 3878 423 
Q 3463 -91 2816 -91 
Q 2450 -91 2169 54 
Q 1888 200 1656 506 
z
M 2400 2772 
Q 2041 2772 1848 2508 
Q 1656 2244 1656 1747 
Q 1656 1250 1848 986 
Q 2041 722 2400 722 
Q 2759 722 2948 984 
Q 3138 1247 3138 1747 
Q 3138 2247 2948 2509 
Q 2759 2772 2400 2772 
z
" transform="scale(0.015625)"/>
       <path id="DejaVuSans-Bold-61" d="M 2106 1575 
Q 1756 1575 1579 1456 
Q 1403 1338 1403 1106 
Q 1403 894 1545 773 
Q 1688 653 1941 653 
Q 2256 653 2472 879 
Q 2688 1106 2688 1447 
L 2688 1575 
L 2106 1575 
z
M 3816 1997 
L 3816 0 
L 2688 0 
L 2688 519 
Q 2463 200 2181 54 
Q 1900 -91 1497 -91 
Q 953 -91 614 226 
Q 275 544 275 1050 
Q 275 1666 698 1953 
Q 1122 2241 2028 2241 
L 2688 2241 
L 2688 2328 
Q 2688 2594 2478 2717 
Q 2269 2841 1825 2841 
Q 1466 2841 1156 2769 
Q 847 2697 581 2553 
L 581 3406 
Q 941 3494 1303 3539 
Q 1666 3584 2028 3584 
Q 2975 3584 3395 3211 
Q 3816 2838 3816 1997 
z
" transform="scale(0.015625)"/>
       <path id="DejaVuSans-Bold-72" d="M 3138 2547 
Q 2991 2616 2845 2648 
Q 2700 2681 2553 2681 
Q 2122 2681 1889 2404 
Q 1656 2128 1656 1613 
L 1656 0 
L 538 0 
L 538 3500 
L 1656 3500 
L 1656 2925 
Q 1872 3269 2151 3426 
Q 2431 3584 2822 3584 
Q 2878 3584 2943 3579 
Q 3009 3575 3134 3559 
L 3138 2547 
z
" transform="scale(0.015625)"/>
       <path id="DejaVuSans-Bold-65" d="M 4031 1759 
L 4031 1441 
L 1416 1441 
Q 1456 1047 1700 850 
Q 1944 653 2381 653 
Q 2734 653 3104 758 
Q 3475 863 3866 1075 
L 3866 213 
Q 3469 63 3072 -14 
Q 2675 -91 2278 -91 
Q 1328 -91 801 392 
Q 275 875 275 1747 
Q 275 2603 792 3093 
Q 1309 3584 2216 3584 
Q 3041 3584 3536 3087 
Q 4031 2591 4031 1759 
z
M 2881 2131 
Q 2881 2450 2695 2645 
Q 2509 2841 2209 2841 
Q 1884 2841 1681 2658 
Q 1478 2475 1428 2131 
L 2881 2131 
z
" transform="scale(0.015625)"/>
       <path id="DejaVuSans-Bold-6e" d="M 4056 2131 
L 4056 0 
L 2931 0 
L 2931 347 
L 2931 1631 
Q 2931 2084 2911 2256 
Q 2891 2428 2841 2509 
Q 2775 2619 2662 2680 
Q 2550 2741 2406 2741 
Q 2056 2741 1856 2470 
Q 1656 2200 1656 1722 
L 1656 0 
L 538 0 
L 538 3500 
L 1656 3500 
L 1656 2988 
Q 1909 3294 2193 3439 
Q 2478 3584 2822 3584 
Q 3428 3584 3742 3212 
Q 4056 2841 4056 2131 
z
" transform="scale(0.015625)"/>
       <path id="DejaVuSans-Bold-74" d="M 1759 4494 
L 1759 3500 
L 2913 3500 
L 2913 2700 
L 1759 2700 
L 1759 1216 
Q 1759 972 1856 886 
Q 1953 800 2241 800 
L 2816 800 
L 2816 0 
L 1856 0 
Q 1194 0 917 276 
Q 641 553 641 1216 
L 641 2700 
L 84 2700 
L 84 3500 
L 641 3500 
L 641 4494 
L 1759 4494 
z
" transform="scale(0.015625)"/>
       <path id="DejaVuSans-Bold-20" transform="scale(0.015625)"/>
       <path id="DejaVuSans-Bold-52" d="M 2297 2597 
Q 2675 2597 2839 2737 
Q 3003 2878 3003 3200 
Q 3003 3519 2839 3656 
Q 2675 3794 2297 3794 
L 1791 3794 
L 1791 2597 
L 2297 2597 
z
M 1791 1766 
L 1791 0 
L 588 0 
L 588 4666 
L 2425 4666 
Q 3347 4666 3776 4356 
Q 4206 4047 4206 3378 
Q 4206 2916 3982 2619 
Q 3759 2322 3309 2181 
Q 3556 2125 3751 1926 
Q 3947 1728 4147 1325 
L 4800 0 
L 3519 0 
L 2950 1159 
Q 2778 1509 2601 1637 
Q 2425 1766 2131 1766 
L 1791 1766 
z
" transform="scale(0.015625)"/>
       <path id="DejaVuSans-Bold-73" d="M 3272 3391 
L 3272 2541 
Q 2913 2691 2578 2766 
Q 2244 2841 1947 2841 
Q 1628 2841 1473 2761 
Q 1319 2681 1319 2516 
Q 1319 2381 1436 2309 
Q 1553 2238 1856 2203 
L 2053 2175 
Q 2913 2066 3209 1816 
Q 3506 1566 3506 1031 
Q 3506 472 3093 190 
Q 2681 -91 1863 -91 
Q 1516 -91 1145 -36 
Q 775 19 384 128 
L 384 978 
Q 719 816 1070 734 
Q 1422 653 1784 653 
Q 2113 653 2278 743 
Q 2444 834 2444 1013 
Q 2444 1163 2330 1236 
Q 2216 1309 1875 1350 
L 1678 1375 
Q 931 1469 631 1722 
Q 331 1975 331 2491 
Q 331 3047 712 3315 
Q 1094 3584 1881 3584 
Q 2191 3584 2531 3537 
Q 2872 3491 3272 3391 
z
" transform="scale(0.015625)"/>
       <path id="DejaVuSans-Bold-69" d="M 538 3500 
L 1656 3500 
L 1656 0 
L 538 0 
L 538 3500 
z
M 538 4863 
L 1656 4863 
L 1656 3950 
L 538 3950 
L 538 4863 
z
" transform="scale(0.015625)"/>
       <path id="DejaVuSans-Bold-76" d="M 97 3500 
L 1216 3500 
L 2088 1081 
L 2956 3500 
L 4078 3500 
L 2700 0 
L 1472 0 
L 97 3500 
z
" transform="scale(0.015625)"/>
       <path id="DejaVuSans-Bold-79" d="M 78 3500 
L 1197 3500 
L 2138 1125 
L 2938 3500 
L 4056 3500 
L 2584 -331 
Q 2363 -916 2067 -1148 
Q 1772 -1381 1288 -1381 
L 641 -1381 
L 641 -647 
L 991 -647 
Q 1275 -647 1404 -556 
Q 1534 -466 1606 -231 
L 1638 -134 
L 78 3500 
z
" transform="scale(0.015625)"/>
       <path id="DejaVuSans-Bold-5b" d="M 550 4863 
L 2491 4863 
L 2491 4159 
L 1613 4159 
L 1613 -141 
L 2491 -141 
L 2491 -844 
L 550 -844 
L 550 4863 
z
" transform="scale(0.015625)"/>
       <path id="DejaVuSans-Bold-3a9" d="M 2719 4750 
Q 3841 4750 4480 4106 
Q 5119 3463 5119 2494 
Q 5119 1406 4306 909 
L 5266 909 
L 5266 0 
L 3125 0 
L 3125 975 
Q 3244 1041 3334 1131 
Q 3875 1678 3875 2466 
Q 3875 3066 3572 3472 
Q 3269 3878 2719 3878 
Q 2169 3878 1866 3472 
Q 1563 3066 1563 2466 
Q 1563 1678 2103 1131 
Q 2194 1041 2313 975 
L 2313 0 
L 172 0 
L 172 909 
L 1131 909 
Q 319 1406 319 2494 
Q 319 3463 958 4106 
Q 1597 4750 2719 4750 
z
" transform="scale(0.015625)"/>
       <path id="DejaVuSans-Bold-6d" d="M 3781 2919 
Q 3994 3244 4286 3414 
Q 4578 3584 4928 3584 
Q 5531 3584 5847 3212 
Q 6163 2841 6163 2131 
L 6163 0 
L 5038 0 
L 5038 1825 
Q 5041 1866 5042 1909 
Q 5044 1953 5044 2034 
Q 5044 2406 4934 2573 
Q 4825 2741 4581 2741 
Q 4263 2741 4089 2478 
Q 3916 2216 3909 1719 
L 3909 0 
L 2784 0 
L 2784 1825 
Q 2784 2406 2684 2573 
Q 2584 2741 2328 2741 
Q 2006 2741 1831 2477 
Q 1656 2213 1656 1722 
L 1656 0 
L 531 0 
L 531 3500 
L 1656 3500 
L 1656 2988 
Q 1863 3284 2130 3434 
Q 2397 3584 2719 3584 
Q 3081 3584 3359 3409 
Q 3638 3234 3781 2919 
z
" transform="scale(0.015625)"/>
       <path id="DejaVuSans-Bold-5d" d="M 2375 -844 
L 434 -844 
L 434 -141 
L 1313 -141 
L 1313 4159 
L 434 4159 
L 434 4863 
L 2375 4863 
L 2375 -844 
z
" transform="scale(0.015625)"/>
      </defs>
      <use xlink:href="#DejaVuSans-Bold-41" transform="translate(0 0.015625)"/>
      <use xlink:href="#DejaVuSans-Bold-70" transform="translate(77.392578 0.015625)"/>
      <use xlink:href="#DejaVuSans-Bold-70" transform="translate(148.974609 0.015625)"/>
      <use xlink:href="#DejaVuSans-Bold-61" transform="translate(220.556641 0.015625)"/>
      <use xlink:href="#DejaVuSans-Bold-72" transform="translate(288.037109 0.015625)"/>
      <use xlink:href="#DejaVuSans-Bold-65" transform="translate(337.353516 0.015625)"/>
      <use xlink:href="#DejaVuSans-Bold-6e" transform="translate(405.175781 0.015625)"/>
      <use xlink:href="#DejaVuSans-Bold-74" transform="translate(476.367188 0.015625)"/>
      <use xlink:href="#DejaVuSans-Bold-20" transform="translate(524.169922 0.015625)"/>
      <use xlink:href="#DejaVuSans-Bold-52" transform="translate(558.984375 0.015625)"/>
      <use xlink:href="#DejaVuSans-Bold-65" transform="translate(635.986328 0.015625)"/>
      <use xlink:href="#DejaVuSans-Bold-73" transform="translate(703.808594 0.015625)"/>
      <use xlink:href="#DejaVuSans-Bold-69" transform="translate(763.330078 0.015625)"/>
      <use xlink:href="#DejaVuSans-Bold-73" transform="translate(797.607422 0.015625)"/>
      <use xlink:href="#DejaVuSans-Bold-74" transform="translate(857.128906 0.015625)"/>
      <use xlink:href="#DejaVuSans-Bold-69" transform="translate(904.931641 0.015625)"/>
      <use xlink:href="#DejaVuSans-Bold-76" transform="translate(939.208984 0.015625)"/>
      <use xlink:href="#DejaVuSans-Bold-69" transform="translate(1004.394531 0.015625)"/>
      <use xlink:href="#DejaVuSans-Bold-74" transform="translate(1038.671875 0.015625)"/>
      <use xlink:href="#DejaVuSans-Bold-79" transform="translate(1086.474609 0.015625)"/>
      <use xlink:href="#DejaVuSans-Bold-20" transform="translate(1151.660156 0.015625)"/>
      <use xlink:href="#DejaVuSans-Bold-5b" transform="translate(1186.474609 0.015625)"/>
      <use xlink:href="#DejaVuSans-Bold-3a9" transform="translate(1232.177734 0.015625)"/>
      <use xlink:href="#DejaVuSans-Bold-6d" transform="translate(1317.1875 0.015625)"/>
      <use xlink:href="#DejaVuSans-Bold-5d" transform="translate(1421.386719 0.015625)"/>
     </g>
    </g>
   </g>
   <g id="line2d_4">
    <path d="M 258.767176 28.063636 
L 256.092335 47.030579 
L 260.544787 65.997521 
L 262.489862 84.964463 
L 263.825051 103.931405 
L 265.455147 122.898347 
L 266.817563 141.865289 
L 263.514334 160.832231 
L 256.576416 179.799174 
L 238.528174 198.766116 
L 228.377777 217.733058 
L 208.188139 236.7 
L 184.757214 255.666942 
L 165.001981 274.633884 
L 132.204227 293.600826 
L 110.167171 312.567769 
L 87.215304 331.534711 
L 75.546928 350.501653 
L 61.528987 369.468595 
L 46.335784 388.435537 
L 38.913544 407.402479 
L 37.935971 426.369421 
L 28.196723 445.336364 
" clip-path="url(#pbbcb816ad5)" style="fill: none; stroke: #756bb1; stroke-opacity: 0.2; stroke-width: 2; stroke-linecap: square"/>
   </g>
   <g id="line2d_5">
    <path d="M 249.37459 28.063636 
L 254.225905 47.030579 
L 257.372361 65.997521 
L 260.514149 84.964463 
L 264.063401 103.931405 
L 265.835707 122.898347 
L 267.702564 141.865289 
L 263.419908 160.832231 
L 253.877169 179.799174 
L 246.398383 198.766116 
L 224.773974 217.733058 
L 212.17004 236.7 
L 186.532395 255.666942 
L 164.434558 274.633884 
L 130.574977 293.600826 
L 108.10801 312.567769 
L 89.011795 331.534711 
L 72.792964 350.501653 
L 59.328553 369.468595 
L 45.278581 388.435537 
L 43.463596 407.402479 
L 39.017523 426.369421 
L 30.890248 445.336364 
" clip-path="url(#pbbcb816ad5)" style="fill: none; stroke: #756bb1; stroke-opacity: 0.2; stroke-width: 2; stroke-linecap: square"/>
   </g>
   <g id="line2d_6">
    <path d="M 255.71538 28.063636 
L 256.981404 47.030579 
L 264.060993 65.997521 
L 262.798181 84.964463 
L 268.306676 103.931405 
L 270.399249 122.898347 
L 266.681624 141.865289 
L 260.975517 160.832231 
L 250.886117 179.799174 
L 240.120779 198.766116 
L 231.565617 217.733058 
L 207.862552 236.7 
L 185.820276 255.666942 
L 164.521516 274.633884 
L 135.654837 293.600826 
L 105.102702 312.567769 
L 82.422285 331.534711 
L 71.110839 350.501653 
L 55.145222 369.468595 
L 49.110977 388.435537 
L 39.47163 407.402479 
L 39.785746 426.369421 
L 39.887481 445.336364 
" clip-path="url(#pbbcb816ad5)" style="fill: none; stroke: #756bb1; stroke-opacity: 0.2; stroke-width: 2; stroke-linecap: square"/>
   </g>
   <g id="line2d_7">
    <path d="M 250.279973 28.063636 
L 252.325141 47.030579 
L 264.210606 65.997521 
L 261.611753 84.964463 
L 262.593245 103.931405 
L 270.171399 122.898347 
L 263.563856 141.865289 
L 256.671608 160.832231 
L 253.215272 179.799174 
L 245.093101 198.766116 
L 224.631284 217.733058 
L 207.342008 236.7 
L 186.13418 255.666942 
L 157.89717 274.633884 
L 129.987833 293.600826 
L 114.926101 312.567769 
L 85.892864 331.534711 
L 75.599848 350.501653 
L 62.332425 369.468595 
L 48.989894 388.435537 
L 38.819336 407.402479 
L 34.034619 426.369421 
L 33.096015 445.336364 
" clip-path="url(#pbbcb816ad5)" style="fill: none; stroke: #756bb1; stroke-opacity: 0.2; stroke-width: 2; stroke-linecap: square"/>
   </g>
   <g id="line2d_8">
    <path d="M 256.606028 28.063636 
L 257.875268 47.030579 
L 258.810676 65.997521 
L 260.701253 84.964463 
L 264.390688 103.931405 
L 264.213778 122.898347 
L 268.491696 141.865289 
L 261.442621 160.832231 
L 252.281158 179.799174 
L 244.643896 198.766116 
L 228.586533 217.733058 
L 210.280686 236.7 
L 181.774354 255.666942 
L 162.919455 274.633884 
L 139.220752 293.600826 
L 109.745412 312.567769 
L 91.826578 331.534711 
L 68.172489 350.501653 
L 61.48075 369.468595 
L 45.827545 388.435537 
L 44.118707 407.402479 
L 37.050143 426.369421 
L 36.026771 445.336364 
" clip-path="url(#pbbcb816ad5)" style="fill: none; stroke: #756bb1; stroke-opacity: 0.2; stroke-width: 2; stroke-linecap: square"/>
   </g>
   <g id="line2d_9">
    <path d="M 257.92986 28.063636 
L 260.801132 47.030579 
L 257.710577 65.997521 
L 264.251404 84.964463 
L 259.930708 103.931405 
L 265.560989 122.898347 
L 261.838681 141.865289 
L 262.043743 160.832231 
L 255.545445 179.799174 
L 240.063841 198.766116 
L 225.579549 217.733058 
L 208.526485 236.7 
L 187.979537 255.666942 
L 162.463322 274.633884 
L 133.243415 293.600826 
L 110.510718 312.567769 
L 90.035775 331.534711 
L 66.377719 350.501653 
L 58.753111 369.468595 
L 49.310073 388.435537 
L 45.139612 407.402479 
L 37.130033 426.369421 
L 34.821257 445.336364 
" clip-path="url(#pbbcb816ad5)" style="fill: none; stroke: #756bb1; stroke-opacity: 0.2; stroke-width: 2; stroke-linecap: square"/>
   </g>
   <g id="line2d_10">
    <path d="M 255.117825 28.063636 
L 259.097098 47.030579 
L 265.271896 65.997521 
L 268.398443 84.964463 
L 266.431844 103.931405 
L 270.190635 122.898347 
L 267.428854 141.865289 
L 258.989178 160.832231 
L 251.981019 179.799174 
L 243.911883 198.766116 
L 231.271892 217.733058 
L 205.689963 236.7 
L 187.152341 255.666942 
L 162.435289 274.633884 
L 141.195257 293.600826 
L 117.512274 312.567769 
L 98.051344 331.534711 
L 74.515278 350.501653 
L 62.004519 369.468595 
L 57.237271 388.435537 
L 42.142449 407.402479 
L 44.009983 426.369421 
L 36.383847 445.336364 
" clip-path="url(#pbbcb816ad5)" style="fill: none; stroke: #756bb1; stroke-opacity: 0.2; stroke-width: 2; stroke-linecap: square"/>
   </g>
   <g id="line2d_11">
    <path d="M 252.356458 28.063636 
L 261.952037 47.030579 
L 263.3309 65.997521 
L 260.577656 84.964463 
L 269.170723 103.931405 
L 268.421238 122.898347 
L 267.600362 141.865289 
L 264.779146 160.832231 
L 254.27744 179.799174 
L 240.796512 198.766116 
L 222.262774 217.733058 
L 207.225274 236.7 
L 188.393873 255.666942 
L 163.714074 274.633884 
L 134.786415 293.600826 
L 108.501174 312.567769 
L 89.154719 331.534711 
L 71.086715 350.501653 
L 65.846047 369.468595 
L 49.225856 388.435537 
L 48.666987 407.402479 
L 44.574909 426.369421 
L 34.425918 445.336364 
" clip-path="url(#pbbcb816ad5)" style="fill: none; stroke: #756bb1; stroke-opacity: 0.2; stroke-width: 2; stroke-linecap: square"/>
   </g>
   <g id="line2d_12">
    <path d="M 251.298195 28.063636 
L 258.351796 47.030579 
L 262.889157 65.997521 
L 267.257409 84.964463 
L 263.862233 103.931405 
L 267.87572 122.898347 
L 265.958484 141.865289 
L 261.127672 160.832231 
L 254.719727 179.799174 
L 243.553074 198.766116 
L 229.126476 217.733058 
L 212.269991 236.7 
L 184.557132 255.666942 
L 159.279652 274.633884 
L 135.986115 293.600826 
L 109.872017 312.567769 
L 83.738261 331.534711 
L 65.999346 350.501653 
L 50.270216 369.468595 
L 42.783513 388.435537 
L 39.77746 407.402479 
L 35.824888 426.369421 
L 32.510868 445.336364 
" clip-path="url(#pbbcb816ad5)" style="fill: none; stroke: #756bb1; stroke-opacity: 0.2; stroke-width: 2; stroke-linecap: square"/>
   </g>
   <g id="line2d_13">
    <path d="M 258.379202 28.063636 
L 259.665023 47.030579 
L 266.961207 65.997521 
L 262.352185 84.964463 
L 267.283115 103.931405 
L 267.931716 122.898347 
L 261.757173 141.865289 
L 263.216165 160.832231 
L 256.637499 179.799174 
L 239.719459 198.766116 
L 226.967553 217.733058 
L 210.546328 236.7 
L 187.266962 255.666942 
L 158.457799 274.633884 
L 139.620907 293.600826 
L 108.41554 312.567769 
L 92.438604 331.534711 
L 72.354167 350.501653 
L 55.071638 369.468595 
L 47.588116 388.435537 
L 35.604499 407.402479 
L 36.429745 426.369421 
L 30.025862 445.336364 
" clip-path="url(#pbbcb816ad5)" style="fill: none; stroke: #756bb1; stroke-opacity: 0.2; stroke-width: 2; stroke-linecap: square"/>
   </g>
   <g id="line2d_14">
    <path d="M 257.34857 28.063636 
L 261.089913 47.030579 
L 258.489835 65.997521 
L 259.027367 84.964463 
L 267.322636 103.931405 
L 261.882312 122.898347 
L 261.387792 141.865289 
L 254.916513 160.832231 
L 251.100884 179.799174 
L 238.581738 198.766116 
L 230.646821 217.733058 
L 208.064194 236.7 
L 185.606705 255.666942 
L 163.581393 274.633884 
L 138.235416 293.600826 
L 106.747727 312.567769 
L 87.984037 331.534711 
L 73.778786 350.501653 
L 53.975015 369.468595 
L 47.866631 388.435537 
L 43.587333 407.402479 
L 32.546554 426.369421 
L 34.260588 445.336364 
" clip-path="url(#pbbcb816ad5)" style="fill: none; stroke: #756bb1; stroke-opacity: 0.2; stroke-width: 2; stroke-linecap: square"/>
   </g>
   <g id="line2d_15">
    <path d="M 247.476735 28.063636 
L 256.489855 47.030579 
L 256.046382 65.997521 
L 258.363498 84.964463 
L 265.771106 103.931405 
L 265.195445 122.898347 
L 261.718041 141.865289 
L 264.594391 160.832231 
L 257.399708 179.799174 
L 241.904496 198.766116 
L 225.510692 217.733058 
L 205.271938 236.7 
L 182.775978 255.666942 
L 161.794175 274.633884 
L 128.710341 293.600826 
L 110.29117 312.567769 
L 88.474536 331.534711 
L 75.602357 350.501653 
L 55.303198 369.468595 
L 53.9756 388.435537 
L 45.123884 407.402479 
L 40.491854 426.369421 
L 39.350429 445.336364 
" clip-path="url(#pbbcb816ad5)" style="fill: none; stroke: #756bb1; stroke-opacity: 0.2; stroke-width: 2; stroke-linecap: square"/>
   </g>
   <g id="line2d_16">
    <path d="M 256.300224 28.063636 
L 262.062191 47.030579 
L 263.956488 65.997521 
L 267.740239 84.964463 
L 270.803836 103.931405 
L 263.505214 122.898347 
L 261.257421 141.865289 
L 261.813361 160.832231 
L 253.038029 179.799174 
L 239.118159 198.766116 
L 224.911633 217.733058 
L 205.305229 236.7 
L 187.938775 255.666942 
L 158.932089 274.633884 
L 132.875425 293.600826 
L 110.846054 312.567769 
L 89.376968 331.534711 
L 69.993566 350.501653 
L 57.952944 369.468595 
L 47.407012 388.435537 
L 42.855103 407.402479 
L 38.678581 426.369421 
L 34.586354 445.336364 
" clip-path="url(#pbbcb816ad5)" style="fill: none; stroke: #756bb1; stroke-opacity: 0.2; stroke-width: 2; stroke-linecap: square"/>
   </g>
   <g id="line2d_17">
    <path d="M 254.837197 28.063636 
L 259.009184 47.030579 
L 263.507272 65.997521 
L 265.361589 84.964463 
L 268.30133 103.931405 
L 262.207066 122.898347 
L 265.42538 141.865289 
L 257.662186 160.832231 
L 252.09931 179.799174 
L 244.222322 198.766116 
L 231.537283 217.733058 
L 206.804677 236.7 
L 182.785669 255.666942 
L 160.554459 274.633884 
L 139.999958 293.600826 
L 108.953833 312.567769 
L 90.984363 331.534711 
L 68.271952 350.501653 
L 61.517267 369.468595 
L 51.683007 388.435537 
L 44.979353 407.402479 
L 37.71138 426.369421 
L 38.608947 445.336364 
" clip-path="url(#pbbcb816ad5)" style="fill: none; stroke: #756bb1; stroke-opacity: 0.2; stroke-width: 2; stroke-linecap: square"/>
   </g>
   <g id="line2d_18">
    <path d="M 260.407479 28.063636 
L 261.711595 47.030579 
L 260.000501 65.997521 
L 260.629854 84.964463 
L 269.084574 103.931405 
L 263.965904 122.898347 
L 260.795225 141.865289 
L 256.768602 160.832231 
L 250.226858 179.799174 
L 246.460151 198.766116 
L 223.634752 217.733058 
L 205.556957 236.7 
L 186.165411 255.666942 
L 167.394861 274.633884 
L 140.938615 293.600826 
L 116.084577 312.567769 
L 89.892009 331.534711 
L 75.273805 350.501653 
L 59.794161 369.468595 
L 45.340717 388.435537 
L 44.219806 407.402479 
L 41.236021 426.369421 
L 35.654079 445.336364 
" clip-path="url(#pbbcb816ad5)" style="fill: none; stroke: #756bb1; stroke-opacity: 0.2; stroke-width: 2; stroke-linecap: square"/>
   </g>
   <g id="line2d_19">
    <path d="M 261.604425 28.063636 
L 260.09971 47.030579 
L 263.29584 65.997521 
L 266.99512 84.964463 
L 270.432649 103.931405 
L 273.060697 122.898347 
L 267.2894 141.865289 
L 263.450328 160.832231 
L 252.614584 179.799174 
L 241.713391 198.766116 
L 225.224167 217.733058 
L 204.837481 236.7 
L 182.344254 255.666942 
L 157.04414 274.633884 
L 133.351301 293.600826 
L 110.81819 312.567769 
L 83.483956 331.534711 
L 72.596761 350.501653 
L 54.202141 369.468595 
L 44.604758 388.435537 
L 40.447185 407.402479 
L 36.17521 426.369421 
L 29.883204 445.336364 
" clip-path="url(#pbbcb816ad5)" style="fill: none; stroke: #756bb1; stroke-opacity: 0.2; stroke-width: 2; stroke-linecap: square"/>
   </g>
   <g id="line2d_20">
    <path d="M 251.426607 28.063636 
L 257.191373 47.030579 
L 262.843053 65.997521 
L 261.100809 84.964463 
L 268.525367 103.931405 
L 264.972949 122.898347 
L 266.067303 141.865289 
L 263.296978 160.832231 
L 249.507993 179.799174 
L 244.897444 198.766116 
L 227.642698 217.733058 
L 211.497035 236.7 
L 185.106047 255.666942 
L 165.876217 274.633884 
L 135.425715 293.600826 
L 112.402332 312.567769 
L 92.38113 331.534711 
L 75.277114 350.501653 
L 55.594254 369.468595 
L 51.729542 388.435537 
L 41.694022 407.402479 
L 38.72849 426.369421 
L 40.897714 445.336364 
" clip-path="url(#pbbcb816ad5)" style="fill: none; stroke: #756bb1; stroke-opacity: 0.2; stroke-width: 2; stroke-linecap: square"/>
   </g>
   <g id="line2d_21">
    <path d="M 254.117264 28.063636 
L 259.311092 47.030579 
L 266.579132 65.997521 
L 266.224777 84.964463 
L 263.847424 103.931405 
L 267.716904 122.898347 
L 261.708352 141.865289 
L 264.086335 160.832231 
L 251.430624 179.799174 
L 244.67799 198.766116 
L 223.586597 217.733058 
L 205.446266 236.7 
L 187.713707 255.666942 
L 164.639381 274.633884 
L 133.757342 293.600826 
L 107.928821 312.567769 
L 91.608326 331.534711 
L 76.34104 350.501653 
L 59.699201 369.468595 
L 45.706558 388.435537 
L 35.486587 407.402479 
L 38.642491 426.369421 
L 29.362569 445.336364 
" clip-path="url(#pbbcb816ad5)" style="fill: none; stroke: #756bb1; stroke-opacity: 0.2; stroke-width: 2; stroke-linecap: square"/>
   </g>
   <g id="line2d_22">
    <path d="M 249.208975 28.063636 
L 259.586449 47.030579 
L 263.455716 65.997521 
L 261.842915 84.964463 
L 263.632754 103.931405 
L 263.991332 122.898347 
L 263.920537 141.865289 
L 257.314854 160.832231 
L 252.73425 179.799174 
L 242.141364 198.766116 
L 227.548724 217.733058 
L 204.142357 236.7 
L 184.839665 255.666942 
L 157.179161 274.633884 
L 128.380735 293.600826 
L 111.126357 312.567769 
L 88.465608 331.534711 
L 71.087582 350.501653 
L 51.871828 369.468595 
L 47.519648 388.435537 
L 38.223466 407.402479 
L 34.864877 426.369421 
L 32.240901 445.336364 
" clip-path="url(#pbbcb816ad5)" style="fill: none; stroke: #756bb1; stroke-opacity: 0.2; stroke-width: 2; stroke-linecap: square"/>
   </g>
   <g id="line2d_23">
    <path d="M 249.693749 28.063636 
L 258.535461 47.030579 
L 261.358225 65.997521 
L 265.323577 84.964463 
L 266.274401 103.931405 
L 270.553664 122.898347 
L 261.456662 141.865289 
L 260.331744 160.832231 
L 254.773487 179.799174 
L 237.707792 198.766116 
L 222.592595 217.733058 
L 205.606333 236.7 
L 184.815504 255.666942 
L 161.414435 274.633884 
L 138.421927 293.600826 
L 116.872715 312.567769 
L 93.179778 331.534711 
L 74.282997 350.501653 
L 61.960635 369.468595 
L 54.026079 388.435537 
L 41.203844 407.402479 
L 35.755283 426.369421 
L 34.314865 445.336364 
" clip-path="url(#pbbcb816ad5)" style="fill: none; stroke: #756bb1; stroke-opacity: 0.2; stroke-width: 2; stroke-linecap: square"/>
   </g>
   <g id="line2d_24">
    <path d="M 253.489499 28.063636 
L 255.778906 47.030579 
L 263.514372 65.997521 
L 262.269527 84.964463 
L 269.298597 103.931405 
L 269.731073 122.898347 
L 268.53091 141.865289 
L 259.118913 160.832231 
L 254.497651 179.799174 
L 242.645185 198.766116 
L 232.228886 217.733058 
L 210.691749 236.7 
L 190.856866 255.666942 
L 160.033826 274.633884 
L 136.922499 293.600826 
L 113.906887 312.567769 
L 85.248678 331.534711 
L 64.877843 350.501653 
L 59.041266 369.468595 
L 44.09039 388.435537 
L 39.07096 407.402479 
L 34.611422 426.369421 
L 35.751792 445.336364 
" clip-path="url(#pbbcb816ad5)" style="fill: none; stroke: #756bb1; stroke-opacity: 0.2; stroke-width: 2; stroke-linecap: square"/>
   </g>
   <g id="line2d_25">
    <path d="M 249.24621 28.063636 
L 257.35788 47.030579 
L 262.394256 65.997521 
L 266.624049 84.964463 
L 268.214411 103.931405 
L 267.624979 122.898347 
L 264.305311 141.865289 
L 266.591478 160.832231 
L 251.735786 179.799174 
L 241.783875 198.766116 
L 225.178358 217.733058 
L 210.034251 236.7 
L 182.607694 255.666942 
L 161.61574 274.633884 
L 135.914746 293.600826 
L 113.803478 312.567769 
L 90.972436 331.534711 
L 72.86289 350.501653 
L 53.332477 369.468595 
L 50.353334 388.435537 
L 37.464058 407.402479 
L 35.138828 426.369421 
L 33.483782 445.336364 
" clip-path="url(#pbbcb816ad5)" style="fill: none; stroke: #756bb1; stroke-opacity: 0.2; stroke-width: 2; stroke-linecap: square"/>
   </g>
   <g id="line2d_26">
    <path d="M 255.094924 28.063636 
L 255.449209 47.030579 
L 259.58015 65.997521 
L 262.6923 84.964463 
L 265.129381 103.931405 
L 263.798742 122.898347 
L 259.738718 141.865289 
L 255.110578 160.832231 
L 251.6583 179.799174 
L 239.168698 198.766116 
L 229.276164 217.733058 
L 212.782985 236.7 
L 185.609665 255.666942 
L 161.379751 274.633884 
L 140.139272 293.600826 
L 106.501507 312.567769 
L 87.346314 331.534711 
L 65.707665 350.501653 
L 53.88835 369.468595 
L 42.095605 388.435537 
L 40.789182 407.402479 
L 31.473479 426.369421 
L 28.793401 445.336364 
" clip-path="url(#pbbcb816ad5)" style="fill: none; stroke: #756bb1; stroke-opacity: 0.2; stroke-width: 2; stroke-linecap: square"/>
   </g>
   <g id="line2d_27">
    <path d="M 257.451047 28.063636 
L 252.759575 47.030579 
L 257.326181 65.997521 
L 267.013549 84.964463 
L 267.658752 103.931405 
L 271.163625 122.898347 
L 267.843327 141.865289 
L 257.175865 160.832231 
L 253.935769 179.799174 
L 239.541392 198.766116 
L 228.190386 217.733058 
L 210.601724 236.7 
L 183.422747 255.666942 
L 162.870771 274.633884 
L 136.158952 293.600826 
L 111.031742 312.567769 
L 91.56671 331.534711 
L 71.905856 350.501653 
L 58.436138 369.468595 
L 53.372941 388.435537 
L 41.605727 407.402479 
L 38.678641 426.369421 
L 38.168913 445.336364 
" clip-path="url(#pbbcb816ad5)" style="fill: none; stroke: #756bb1; stroke-opacity: 0.2; stroke-width: 2; stroke-linecap: square"/>
   </g>
   <g id="line2d_28">
    <path d="M 258.67015 28.063636 
L 261.966856 47.030579 
L 262.604616 65.997521 
L 260.503655 84.964463 
L 265.1854 103.931405 
L 267.938452 122.898347 
L 263.497371 141.865289 
L 256.381572 160.832231 
L 256.855427 179.799174 
L 244.317419 198.766116 
L 231.338866 217.733058 
L 206.219625 236.7 
L 187.696321 255.666942 
L 164.303538 274.633884 
L 139.039692 293.600826 
L 109.902833 312.567769 
L 85.085155 331.534711 
L 66.484463 350.501653 
L 57.709999 369.468595 
L 48.031958 388.435537 
L 42.983567 407.402479 
L 37.665811 426.369421 
L 33.548837 445.336364 
" clip-path="url(#pbbcb816ad5)" style="fill: none; stroke: #756bb1; stroke-opacity: 0.2; stroke-width: 2; stroke-linecap: square"/>
   </g>
   <g id="line2d_29">
    <path d="M 255.01804 28.063636 
L 255.265843 47.030579 
L 260.636043 65.997521 
L 266.92088 84.964463 
L 267.31751 103.931405 
L 269.456482 122.898347 
L 262.521986 141.865289 
L 258.626921 160.832231 
L 257.379842 179.799174 
L 245.24085 198.766116 
L 227.9626 217.733058 
L 212.718446 236.7 
L 192.961251 255.666942 
L 160.272193 274.633884 
L 139.572036 293.600826 
L 112.929946 312.567769 
L 94.842222 331.534711 
L 77.454986 350.501653 
L 58.710362 369.468595 
L 53.596192 388.435537 
L 43.02367 407.402479 
L 38.959029 426.369421 
L 35.865705 445.336364 
" clip-path="url(#pbbcb816ad5)" style="fill: none; stroke: #756bb1; stroke-opacity: 0.2; stroke-width: 2; stroke-linecap: square"/>
   </g>
   <g id="line2d_30">
    <path d="M 253.722242 28.063636 
L 256.926429 47.030579 
L 262.76868 65.997521 
L 264.038113 84.964463 
L 261.641618 103.931405 
L 265.182264 122.898347 
L 261.195801 141.865289 
L 261.462172 160.832231 
L 252.823573 179.799174 
L 241.45589 198.766116 
L 226.903015 217.733058 
L 209.749715 236.7 
L 194.149307 255.666942 
L 161.215328 274.633884 
L 140.322928 293.600826 
L 112.17343 312.567769 
L 96.360352 331.534711 
L 69.773032 350.501653 
L 62.364138 369.468595 
L 47.245921 388.435537 
L 45.364392 407.402479 
L 38.944913 426.369421 
L 38.398168 445.336364 
" clip-path="url(#pbbcb816ad5)" style="fill: none; stroke: #756bb1; stroke-opacity: 0.2; stroke-width: 2; stroke-linecap: square"/>
   </g>
   <g id="line2d_31">
    <path d="M 251.602269 28.063636 
L 252.029254 47.030579 
L 258.945466 65.997521 
L 262.658741 84.964463 
L 262.003066 103.931405 
L 266.041174 122.898347 
L 266.240949 141.865289 
L 264.596781 160.832231 
L 252.517056 179.799174 
L 245.155873 198.766116 
L 224.978209 217.733058 
L 207.002679 236.7 
L 189.411143 255.666942 
L 159.009449 274.633884 
L 136.439253 293.600826 
L 112.357777 312.567769 
L 89.462055 331.534711 
L 71.115118 350.501653 
L 55.104878 369.468595 
L 50.054763 388.435537 
L 35.599656 407.402479 
L 32.637359 426.369421 
L 30.517416 445.336364 
" clip-path="url(#pbbcb816ad5)" style="fill: none; stroke: #756bb1; stroke-opacity: 0.2; stroke-width: 2; stroke-linecap: square"/>
   </g>
   <g id="line2d_32">
    <path d="M 249.32692 28.063636 
L 253.986409 47.030579 
L 258.265698 65.997521 
L 265.189205 84.964463 
L 263.194145 103.931405 
L 262.505698 122.898347 
L 262.459348 141.865289 
L 260.941498 160.832231 
L 254.295009 179.799174 
L 242.934707 198.766116 
L 226.626473 217.733058 
L 204.189737 236.7 
L 183.311301 255.666942 
L 157.86244 274.633884 
L 134.68844 293.600826 
L 113.385732 312.567769 
L 90.694576 331.534711 
L 75.774539 350.501653 
L 60.341852 369.468595 
L 50.548199 388.435537 
L 48.748861 407.402479 
L 39.723459 426.369421 
L 41.219397 445.336364 
" clip-path="url(#pbbcb816ad5)" style="fill: none; stroke: #756bb1; stroke-opacity: 0.2; stroke-width: 2; stroke-linecap: square"/>
   </g>
   <g id="line2d_33">
    <path d="M 251.675363 28.063636 
L 259.17683 47.030579 
L 258.005512 65.997521 
L 258.301363 84.964463 
L 261.333968 103.931405 
L 265.067954 122.898347 
L 266.855 141.865289 
L 257.681296 160.832231 
L 255.918003 179.799174 
L 247.576195 198.766116 
L 228.255442 217.733058 
L 210.374106 236.7 
L 190.972701 255.666942 
L 157.943839 274.633884 
L 135.627472 293.600826 
L 109.400901 312.567769 
L 89.304632 331.534711 
L 67.441104 350.501653 
L 59.184865 369.468595 
L 44.636829 388.435537 
L 44.764286 407.402479 
L 42.59131 426.369421 
L 36.262727 445.336364 
" clip-path="url(#pbbcb816ad5)" style="fill: none; stroke: #756bb1; stroke-opacity: 0.2; stroke-width: 2; stroke-linecap: square"/>
   </g>
   <g id="line2d_34">
    <path d="M 252.780249 28.063636 
L 261.029391 47.030579 
L 259.555882 65.997521 
L 264.013457 84.964463 
L 266.972475 103.931405 
L 266.420674 122.898347 
L 263.841755 141.865289 
L 255.311643 160.832231 
L 254.465368 179.799174 
L 242.505763 198.766116 
L 224.497117 217.733058 
L 201.261419 236.7 
L 186.617413 255.666942 
L 156.374303 274.633884 
L 129.180775 293.600826 
L 108.370717 312.567769 
L 90.094164 331.534711 
L 66.898532 350.501653 
L 57.53905 369.468595 
L 47.452974 388.435537 
L 41.290304 407.402479 
L 38.190973 426.369421 
L 37.156329 445.336364 
" clip-path="url(#pbbcb816ad5)" style="fill: none; stroke: #756bb1; stroke-opacity: 0.2; stroke-width: 2; stroke-linecap: square"/>
   </g>
   <g id="line2d_35">
    <path d="M 251.521537 28.063636 
L 252.900741 47.030579 
L 262.790145 65.997521 
L 263.639721 84.964463 
L 267.18045 103.931405 
L 266.50468 122.898347 
L 265.955653 141.865289 
L 258.588587 160.832231 
L 256.900442 179.799174 
L 241.826929 198.766116 
L 226.90891 217.733058 
L 204.409913 236.7 
L 186.138692 255.666942 
L 162.606649 274.633884 
L 130.61112 293.600826 
L 110.588553 312.567769 
L 91.868298 331.534711 
L 72.267139 350.501653 
L 58.339322 369.468595 
L 46.849773 388.435537 
L 43.133305 407.402479 
L 34.689903 426.369421 
L 32.820516 445.336364 
" clip-path="url(#pbbcb816ad5)" style="fill: none; stroke: #756bb1; stroke-opacity: 0.2; stroke-width: 2; stroke-linecap: square"/>
   </g>
   <g id="line2d_36">
    <path d="M 252.961952 28.063636 
L 259.658107 47.030579 
L 261.901278 65.997521 
L 266.877638 84.964463 
L 265.656319 103.931405 
L 262.24044 122.898347 
L 262.828409 141.865289 
L 261.480654 160.832231 
L 250.58205 179.799174 
L 239.574531 198.766116 
L 228.608258 217.733058 
L 203.834284 236.7 
L 185.184869 255.666942 
L 157.68305 274.633884 
L 137.418785 293.600826 
L 110.625616 312.567769 
L 93.022044 331.534711 
L 73.837048 350.501653 
L 63.327384 369.468595 
L 51.52964 388.435537 
L 47.032143 407.402479 
L 35.141861 426.369421 
L 36.655085 445.336364 
" clip-path="url(#pbbcb816ad5)" style="fill: none; stroke: #756bb1; stroke-opacity: 0.2; stroke-width: 2; stroke-linecap: square"/>
   </g>
   <g id="line2d_37">
    <path d="M 253.124675 28.063636 
L 252.118351 47.030579 
L 258.626309 65.997521 
L 260.845462 84.964463 
L 268.673998 103.931405 
L 262.333868 122.898347 
L 262.416463 141.865289 
L 261.716857 160.832231 
L 258.985923 179.799174 
L 248.344546 198.766116 
L 229.782537 217.733058 
L 211.8124 236.7 
L 186.914774 255.666942 
L 163.160481 274.633884 
L 137.118561 293.600826 
L 113.319321 312.567769 
L 90.264522 331.534711 
L 70.243439 350.501653 
L 59.889416 369.468595 
L 50.342074 388.435537 
L 46.421372 407.402479 
L 41.43262 426.369421 
L 37.956187 445.336364 
" clip-path="url(#pbbcb816ad5)" style="fill: none; stroke: #756bb1; stroke-opacity: 0.2; stroke-width: 2; stroke-linecap: square"/>
   </g>
   <g id="line2d_38">
    <path d="M 252.444165 28.063636 
L 255.07771 47.030579 
L 262.282581 65.997521 
L 263.828117 84.964463 
L 262.154704 103.931405 
L 261.803397 122.898347 
L 266.242446 141.865289 
L 260.858351 160.832231 
L 253.918639 179.799174 
L 236.135643 198.766116 
L 220.816027 217.733058 
L 208.597246 236.7 
L 182.805225 255.666942 
L 160.006176 274.633884 
L 134.979151 293.600826 
L 108.285951 312.567769 
L 95.739975 331.534711 
L 74.420617 350.501653 
L 62.046938 369.468595 
L 47.03233 388.435537 
L 45.811981 407.402479 
L 32.173239 426.369421 
L 29.051327 445.336364 
" clip-path="url(#pbbcb816ad5)" style="fill: none; stroke: #756bb1; stroke-opacity: 0.2; stroke-width: 2; stroke-linecap: square"/>
   </g>
   <g id="line2d_39">
    <path d="M 254.831124 28.063636 
L 253.62156 47.030579 
L 259.538119 65.997521 
L 263.217619 84.964463 
L 264.528407 103.931405 
L 264.987622 122.898347 
L 267.592126 141.865289 
L 260.030809 160.832231 
L 256.989728 179.799174 
L 245.793001 198.766116 
L 231.207658 217.733058 
L 209.675895 236.7 
L 184.244288 255.666942 
L 162.944169 274.633884 
L 134.538492 293.600826 
L 114.388423 312.567769 
L 92.703943 331.534711 
L 68.396881 350.501653 
L 57.708746 369.468595 
L 48.327771 388.435537 
L 42.59598 407.402479 
L 42.614217 426.369421 
L 32.750843 445.336364 
" clip-path="url(#pbbcb816ad5)" style="fill: none; stroke: #756bb1; stroke-opacity: 0.2; stroke-width: 2; stroke-linecap: square"/>
   </g>
   <g id="line2d_40">
    <path d="M 251.078531 28.063636 
L 253.735711 47.030579 
L 260.76729 65.997521 
L 261.494966 84.964463 
L 266.662879 103.931405 
L 266.402003 122.898347 
L 260.142095 141.865289 
L 262.551946 160.832231 
L 254.128134 179.799174 
L 240.262063 198.766116 
L 227.278258 217.733058 
L 211.210708 236.7 
L 185.742508 255.666942 
L 161.326053 274.633884 
L 137.64944 293.600826 
L 109.571474 312.567769 
L 89.921969 331.534711 
L 71.369417 350.501653 
L 57.1752 369.468595 
L 41.284679 388.435537 
L 35.960472 407.402479 
L 34.01002 426.369421 
L 34.436094 445.336364 
" clip-path="url(#pbbcb816ad5)" style="fill: none; stroke: #756bb1; stroke-opacity: 0.2; stroke-width: 2; stroke-linecap: square"/>
   </g>
   <g id="line2d_41">
    <path d="M 253.511026 28.063636 
L 257.082606 47.030579 
L 259.9662 65.997521 
L 267.390866 84.964463 
L 266.32478 103.931405 
L 267.667247 122.898347 
L 268.7365 141.865289 
L 261.825146 160.832231 
L 248.798469 179.799174 
L 246.199328 198.766116 
L 225.001441 217.733058 
L 203.945 236.7 
L 185.612701 255.666942 
L 157.209646 274.633884 
L 137.19148 293.600826 
L 108.907388 312.567769 
L 90.277347 331.534711 
L 75.062105 350.501653 
L 59.527464 369.468595 
L 51.491165 388.435537 
L 38.948188 407.402479 
L 34.36736 426.369421 
L 31.826269 445.336364 
" clip-path="url(#pbbcb816ad5)" style="fill: none; stroke: #756bb1; stroke-opacity: 0.2; stroke-width: 2; stroke-linecap: square"/>
   </g>
   <g id="line2d_42">
    <path d="M 250.90131 28.063636 
L 256.024177 47.030579 
L 259.234814 65.997521 
L 259.602633 84.964463 
L 262.042047 103.931405 
L 267.962597 122.898347 
L 262.280688 141.865289 
L 266.054325 160.832231 
L 253.951672 179.799174 
L 245.775068 198.766116 
L 223.884726 217.733058 
L 213.183937 236.7 
L 183.61725 255.666942 
L 160.395515 274.633884 
L 139.450555 293.600826 
L 117.367868 312.567769 
L 91.864028 331.534711 
L 79.744018 350.501653 
L 58.462597 369.468595 
L 48.683583 388.435537 
L 42.333391 407.402479 
L 39.549137 426.369421 
L 32.553077 445.336364 
" clip-path="url(#pbbcb816ad5)" style="fill: none; stroke: #756bb1; stroke-opacity: 0.2; stroke-width: 2; stroke-linecap: square"/>
   </g>
   <g id="line2d_43">
    <path d="M 251.409351 28.063636 
L 256.136046 47.030579 
L 258.828545 65.997521 
L 260.75367 84.964463 
L 261.097835 103.931405 
L 261.649015 122.898347 
L 267.813436 141.865289 
L 258.321376 160.832231 
L 257.914878 179.799174 
L 238.889836 198.766116 
L 232.382625 217.733058 
L 208.715588 236.7 
L 187.348621 255.666942 
L 159.586907 274.633884 
L 133.463499 293.600826 
L 110.033971 312.567769 
L 85.474971 331.534711 
L 72.813194 350.501653 
L 59.306562 369.468595 
L 49.426528 388.435537 
L 38.93132 407.402479 
L 39.986491 426.369421 
L 32.461138 445.336364 
" clip-path="url(#pbbcb816ad5)" style="fill: none; stroke: #756bb1; stroke-opacity: 0.2; stroke-width: 2; stroke-linecap: square"/>
   </g>
   <g id="line2d_44"/>
   <g id="line2d_45">
    <path d="M 253.372921 28.063636 
L 256.999651 47.030579 
L 260.259291 65.997521 
L 263.0841 84.964463 
L 264.979458 103.931405 
L 265.64706 122.898347 
L 264.319091 141.865289 
L 260.438217 160.832231 
L 253.350543 179.799174 
L 242.473567 198.766116 
L 227.479813 217.733058 
L 208.377359 236.7 
L 185.809341 255.666942 
L 160.994384 274.633884 
L 135.496684 293.600826 
L 111.248648 312.567769 
L 89.812187 331.534711 
L 72.067788 350.501653 
L 58.482301 369.468595 
L 48.697728 388.435537 
L 41.831762 407.402479 
L 37.26973 426.369421 
L 34.282212 445.336364 
" clip-path="url(#pbbcb816ad5)" style="fill: none; stroke: #39146b; stroke-width: 4; stroke-linecap: square"/>
   </g>
   <g id="line2d_46">
    <path d="M 255.625687 28.063636 
L 257.128614 47.030579 
L 259.019342 65.997521 
L 261.131955 84.964463 
L 263.081895 103.931405 
L 264.232555 122.898347 
L 263.724027 141.865289 
L 260.565147 160.832231 
L 253.783426 179.799174 
L 242.6339 198.766116 
L 226.845899 217.733058 
L 206.81915 236.7 
L 183.633062 255.666942 
L 158.81012 274.633884 
L 133.950212 293.600826 
L 110.44828 312.567769 
L 89.399137 331.534711 
L 71.59543 350.501653 
L 57.475567 369.468595 
L 47.028995 388.435537 
L 39.798551 407.402479 
L 35.051086 426.369421 
L 32.022839 445.336364 
" clip-path="url(#pbbcb816ad5)" style="fill: none; stroke: #e40000; stroke-width: 4; stroke-linecap: square"/>
    <defs>
     <path id="m35749922c7" d="M -5 5 
L 5 -5 
M -5 -5 
L 5 5 
" style="stroke: #e40000"/>
    </defs>
    <g clip-path="url(#pbbcb816ad5)">
     <use xlink:href="#m35749922c7" x="255.625687" y="28.063636" style="fill: #e40000; stroke: #e40000"/>
     <use xlink:href="#m35749922c7" x="257.128614" y="47.030579" style="fill: #e40000; stroke: #e40000"/>
     <use xlink:href="#m35749922c7" x="259.019342" y="65.997521" style="fill: #e40000; stroke: #e40000"/>
     <use xlink:href="#m35749922c7" x="261.131955" y="84.964463" style="fill: #e40000; stroke: #e40000"/>
     <use xlink:href="#m35749922c7" x="263.081895" y="103.931405" style="fill: #e40000; stroke: #e40000"/>
     <use xlink:href="#m35749922c7" x="264.232555" y="122.898347" style="fill: #e40000; stroke: #e40000"/>
     <use xlink:href="#m35749922c7" x="263.724027" y="141.865289" style="fill: #e40000; stroke: #e40000"/>
     <use xlink:href="#m35749922c7" x="260.565147" y="160.832231" style="fill: #e40000; stroke: #e40000"/>
     <use xlink:href="#m35749922c7" x="253.783426" y="179.799174" style="fill: #e40000; stroke: #e40000"/>
     <use xlink:href="#m35749922c7" x="242.6339" y="198.766116" style="fill: #e40000; stroke: #e40000"/>
     <use xlink:href="#m35749922c7" x="226.845899" y="217.733058" style="fill: #e40000; stroke: #e40000"/>
     <use xlink:href="#m35749922c7" x="206.81915" y="236.7" style="fill: #e40000; stroke: #e40000"/>
     <use xlink:href="#m35749922c7" x="183.633062" y="255.666942" style="fill: #e40000; stroke: #e40000"/>
     <use xlink:href="#m35749922c7" x="158.81012" y="274.633884" style="fill: #e40000; stroke: #e40000"/>
     <use xlink:href="#m35749922c7" x="133.950212" y="293.600826" style="fill: #e40000; stroke: #e40000"/>
     <use xlink:href="#m35749922c7" x="110.44828" y="312.567769" style="fill: #e40000; stroke: #e40000"/>
     <use xlink:href="#m35749922c7" x="89.399137" y="331.534711" style="fill: #e40000; stroke: #e40000"/>
     <use xlink:href="#m35749922c7" x="71.59543" y="350.501653" style="fill: #e40000; stroke: #e40000"/>
     <use xlink:href="#m35749922c7" x="57.475567" y="369.468595" style="fill: #e40000; stroke: #e40000"/>
     <use xlink:href="#m35749922c7" x="47.028995" y="388.435537" style="fill: #e40000; stroke: #e40000"/>
     <use xlink:href="#m35749922c7" x="39.798551" y="407.402479" style="fill: #e40000; stroke: #e40000"/>
     <use xlink:href="#m35749922c7" x="35.051086" y="426.369421" style="fill: #e40000; stroke: #e40000"/>
     <use xlink:href="#m35749922c7" x="32.022839" y="445.336364" style="fill: #e40000; stroke: #e40000"/>
    </g>
   </g>
   <g id="patch_3">
    <path d="M 15.333424 476.2 
L 285.333424 476.2 
" style="fill: none; stroke: #000000; stroke-width: 2; stroke-linejoin: miter; stroke-linecap: square"/>
   </g>
  </g>
 </g>
 <defs>
  <clipPath id="pbbcb816ad5">
   <rect x="15.333424" y="7.2" width="270" height="459"/>
  </clipPath>
 </defs>
</svg>
