<?xml version="1.0" encoding="utf-8" standalone="no"?>
<!DOCTYPE svg PUBLIC "-//W3C//DTD SVG 1.1//EN"
  "http://www.w3.org/Graphics/SVG/1.1/DTD/svg11.dtd">
<svg xmlns:xlink="http://www.w3.org/1999/xlink" width="284.4pt" height="544.35625pt" viewBox="0 0 284.4 544.35625" xmlns="http://www.w3.org/2000/svg" version="1.1">
 <metadata>
  <rdf:RDF xmlns:dc="http://purl.org/dc/elements/1.1/" xmlns:cc="http://creativecommons.org/ns#" xmlns:rdf="http://www.w3.org/1999/02/22-rdf-syntax-ns#">
   <cc:Work>
    <dc:type rdf:resource="http://purl.org/dc/dcmitype/StillImage"/>
    <dc:date>2024-08-06T15:51:35.395604</dc:date>
    <dc:format>image/svg+xml</dc:format>
    <dc:creator>
     <cc:Agent>
      <dc:title>Matplotlib v3.8.0, https://matplotlib.org/</dc:title>
     </cc:Agent>
    </dc:creator>
   </cc:Work>
  </rdf:RDF>
 </metadata>
 <defs>
  <style type="text/css">*{stroke-linejoin: round; stroke-linecap: butt}</style>
 </defs>
 <g id="figure_1">
  <g id="patch_1">
   <path d="M 0 544.35625 
L 284.4 544.35625 
L 284.4 0 
L 0 0 
z
" style="fill: #ffffff"/>
  </g>
  <g id="axes_1">
   <g id="patch_2">
    <path d="M 7.2 466.2 
L 277.2 466.2 
L 277.2 7.2 
L 7.2 7.2 
z
" style="fill: #ffffff"/>
   </g>
   <g id="PolyCollection_1">
    <defs>
     <path id="m63d41db89e" d="M 244.480012 -516.292614 
L 255.835259 -516.292614 
L 256.462282 -497.325671 
L 258.310867 -478.358729 
L 260.811253 -459.391787 
L 262.480754 -440.424845 
L 263.847437 -421.457903 
L 263.032942 -402.490961 
L 259.810703 -383.524019 
L 253.470204 -364.557076 
L 243.193896 -345.590134 
L 229.03999 -326.623192 
L 211.290208 -307.65625 
L 190.416358 -288.689308 
L 168.700068 -269.722366 
L 146.205792 -250.755424 
L 125.100405 -231.788481 
L 105.672632 -212.821539 
L 89.411557 -193.854597 
L 75.142822 -174.887655 
L 64.701856 -155.920713 
L 55.830779 -136.953771 
L 50.331069 -117.986829 
L 47.808978 -99.019886 
L 24.615217 -99.019886 
L 24.615217 -99.019886 
L 28.331168 -117.986829 
L 32.96725 -136.953771 
L 40.639332 -155.920713 
L 51.367571 -174.887655 
L 64.874311 -193.854597 
L 81.856378 -212.821539 
L 104.232629 -231.788481 
L 127.499473 -250.755424 
L 152.086904 -269.722366 
L 176.990714 -288.689308 
L 198.530947 -307.65625 
L 217.723853 -326.623192 
L 232.771036 -345.590134 
L 243.224932 -364.557076 
L 250.132376 -383.524019 
L 253.133027 -402.490961 
L 253.642144 -421.457903 
L 252.773185 -440.424845 
L 250.732845 -459.391787 
L 248.649608 -478.358729 
L 246.561661 -497.325671 
L 244.480012 -516.292614 
z
" style="stroke: #756bb1; stroke-opacity: 0.5"/>
    </defs>
    <g clip-path="url(#p80177e8a68)">
     <use xlink:href="#m63d41db89e" x="0" y="544.35625" style="fill: #756bb1; fill-opacity: 0.5; stroke: #756bb1; stroke-opacity: 0.5"/>
    </g>
   </g>
   <g id="matplotlib.axis_1">
    <g id="xtick_1">
     <g id="line2d_1">
      <defs>
       <path id="m494352fbba" d="M 0 0 
L 0 3.5 
" style="stroke: #000000; stroke-width: 1.5"/>
      </defs>
      <g>
       <use xlink:href="#m494352fbba" x="28.359876" y="476.2" style="stroke: #000000; stroke-width: 1.5"/>
      </g>
     </g>
     <g id="text_1">
      <!-- 100 -->
      <g transform="translate(9.272376 498.396875) scale(0.2 -0.2)">
       <defs>
        <path id="DejaVuSans-31" d="M 794 531 
L 1825 531 
L 1825 4091 
L 703 3866 
L 703 4441 
L 1819 4666 
L 2450 4666 
L 2450 531 
L 3481 531 
L 3481 0 
L 794 0 
L 794 531 
z
" transform="scale(0.015625)"/>
        <path id="DejaVuSans-30" d="M 2034 4250 
Q 1547 4250 1301 3770 
Q 1056 3291 1056 2328 
Q 1056 1369 1301 889 
Q 1547 409 2034 409 
Q 2525 409 2770 889 
Q 3016 1369 3016 2328 
Q 3016 3291 2770 3770 
Q 2525 4250 2034 4250 
z
M 2034 4750 
Q 2819 4750 3233 4129 
Q 3647 3509 3647 2328 
Q 3647 1150 3233 529 
Q 2819 -91 2034 -91 
Q 1250 -91 836 529 
Q 422 1150 422 2328 
Q 422 3509 836 4129 
Q 1250 4750 2034 4750 
z
" transform="scale(0.015625)"/>
       </defs>
       <use xlink:href="#DejaVuSans-31"/>
       <use xlink:href="#DejaVuSans-30" x="63.623047"/>
       <use xlink:href="#DejaVuSans-30" x="127.246094"/>
      </g>
     </g>
    </g>
    <g id="xtick_2">
     <g id="line2d_2">
      <g>
       <use xlink:href="#m494352fbba" x="115.938087" y="476.2" style="stroke: #000000; stroke-width: 1.5"/>
      </g>
     </g>
     <g id="text_2">
      <!-- 200 -->
      <g transform="translate(96.850587 498.396875) scale(0.2 -0.2)">
       <defs>
        <path id="DejaVuSans-32" d="M 1228 531 
L 3431 531 
L 3431 0 
L 469 0 
L 469 531 
Q 828 903 1448 1529 
Q 2069 2156 2228 2338 
Q 2531 2678 2651 2914 
Q 2772 3150 2772 3378 
Q 2772 3750 2511 3984 
Q 2250 4219 1831 4219 
Q 1534 4219 1204 4116 
Q 875 4013 500 3803 
L 500 4441 
Q 881 4594 1212 4672 
Q 1544 4750 1819 4750 
Q 2544 4750 2975 4387 
Q 3406 4025 3406 3419 
Q 3406 3131 3298 2873 
Q 3191 2616 2906 2266 
Q 2828 2175 2409 1742 
Q 1991 1309 1228 531 
z
" transform="scale(0.015625)"/>
       </defs>
       <use xlink:href="#DejaVuSans-32"/>
       <use xlink:href="#DejaVuSans-30" x="63.623047"/>
       <use xlink:href="#DejaVuSans-30" x="127.246094"/>
      </g>
     </g>
    </g>
    <g id="xtick_3">
     <g id="line2d_3">
      <g>
       <use xlink:href="#m494352fbba" x="203.516297" y="476.2" style="stroke: #000000; stroke-width: 1.5"/>
      </g>
     </g>
     <g id="text_3">
      <!-- 300 -->
      <g transform="translate(184.428797 498.396875) scale(0.2 -0.2)">
       <defs>
        <path id="DejaVuSans-33" d="M 2597 2516 
Q 3050 2419 3304 2112 
Q 3559 1806 3559 1356 
Q 3559 666 3084 287 
Q 2609 -91 1734 -91 
Q 1441 -91 1130 -33 
Q 819 25 488 141 
L 488 750 
Q 750 597 1062 519 
Q 1375 441 1716 441 
Q 2309 441 2620 675 
Q 2931 909 2931 1356 
Q 2931 1769 2642 2001 
Q 2353 2234 1838 2234 
L 1294 2234 
L 1294 2753 
L 1863 2753 
Q 2328 2753 2575 2939 
Q 2822 3125 2822 3475 
Q 2822 3834 2567 4026 
Q 2313 4219 1838 4219 
Q 1578 4219 1281 4162 
Q 984 4106 628 3988 
L 628 4550 
Q 988 4650 1302 4700 
Q 1616 4750 1894 4750 
Q 2613 4750 3031 4423 
Q 3450 4097 3450 3541 
Q 3450 3153 3228 2886 
Q 3006 2619 2597 2516 
z
" transform="scale(0.015625)"/>
       </defs>
       <use xlink:href="#DejaVuSans-33"/>
       <use xlink:href="#DejaVuSans-30" x="63.623047"/>
       <use xlink:href="#DejaVuSans-30" x="127.246094"/>
      </g>
     </g>
    </g>
    <g id="text_4">
     <!-- Apparent Resistivity [$\Omega m$] -->
     <g transform="translate(-4.6 532.75625) scale(0.2 -0.2)">
      <defs>
       <path id="DejaVuSans-Bold-41" d="M 3419 850 
L 1538 850 
L 1241 0 
L 31 0 
L 1759 4666 
L 3194 4666 
L 4922 0 
L 3713 0 
L 3419 850 
z
M 1838 1716 
L 3116 1716 
L 2478 3572 
L 1838 1716 
z
" transform="scale(0.015625)"/>
       <path id="DejaVuSans-Bold-70" d="M 1656 506 
L 1656 -1331 
L 538 -1331 
L 538 3500 
L 1656 3500 
L 1656 2988 
Q 1888 3294 2169 3439 
Q 2450 3584 2816 3584 
Q 3463 3584 3878 3070 
Q 4294 2556 4294 1747 
Q 4294 938 3878 423 
Q 3463 -91 2816 -91 
Q 2450 -91 2169 54 
Q 1888 200 1656 506 
z
M 2400 2772 
Q 2041 2772 1848 2508 
Q 1656 2244 1656 1747 
Q 1656 1250 1848 986 
Q 2041 722 2400 722 
Q 2759 722 2948 984 
Q 3138 1247 3138 1747 
Q 3138 2247 2948 2509 
Q 2759 2772 2400 2772 
z
" transform="scale(0.015625)"/>
       <path id="DejaVuSans-Bold-61" d="M 2106 1575 
Q 1756 1575 1579 1456 
Q 1403 1338 1403 1106 
Q 1403 894 1545 773 
Q 1688 653 1941 653 
Q 2256 653 2472 879 
Q 2688 1106 2688 1447 
L 2688 1575 
L 2106 1575 
z
M 3816 1997 
L 3816 0 
L 2688 0 
L 2688 519 
Q 2463 200 2181 54 
Q 1900 -91 1497 -91 
Q 953 -91 614 226 
Q 275 544 275 1050 
Q 275 1666 698 1953 
Q 1122 2241 2028 2241 
L 2688 2241 
L 2688 2328 
Q 2688 2594 2478 2717 
Q 2269 2841 1825 2841 
Q 1466 2841 1156 2769 
Q 847 2697 581 2553 
L 581 3406 
Q 941 3494 1303 3539 
Q 1666 3584 2028 3584 
Q 2975 3584 3395 3211 
Q 3816 2838 3816 1997 
z
" transform="scale(0.015625)"/>
       <path id="DejaVuSans-Bold-72" d="M 3138 2547 
Q 2991 2616 2845 2648 
Q 2700 2681 2553 2681 
Q 2122 2681 1889 2404 
Q 1656 2128 1656 1613 
L 1656 0 
L 538 0 
L 538 3500 
L 1656 3500 
L 1656 2925 
Q 1872 3269 2151 3426 
Q 2431 3584 2822 3584 
Q 2878 3584 2943 3579 
Q 3009 3575 3134 3559 
L 3138 2547 
z
" transform="scale(0.015625)"/>
       <path id="DejaVuSans-Bold-65" d="M 4031 1759 
L 4031 1441 
L 1416 1441 
Q 1456 1047 1700 850 
Q 1944 653 2381 653 
Q 2734 653 3104 758 
Q 3475 863 3866 1075 
L 3866 213 
Q 3469 63 3072 -14 
Q 2675 -91 2278 -91 
Q 1328 -91 801 392 
Q 275 875 275 1747 
Q 275 2603 792 3093 
Q 1309 3584 2216 3584 
Q 3041 3584 3536 3087 
Q 4031 2591 4031 1759 
z
M 2881 2131 
Q 2881 2450 2695 2645 
Q 2509 2841 2209 2841 
Q 1884 2841 1681 2658 
Q 1478 2475 1428 2131 
L 2881 2131 
z
" transform="scale(0.015625)"/>
       <path id="DejaVuSans-Bold-6e" d="M 4056 2131 
L 4056 0 
L 2931 0 
L 2931 347 
L 2931 1631 
Q 2931 2084 2911 2256 
Q 2891 2428 2841 2509 
Q 2775 2619 2662 2680 
Q 2550 2741 2406 2741 
Q 2056 2741 1856 2470 
Q 1656 2200 1656 1722 
L 1656 0 
L 538 0 
L 538 3500 
L 1656 3500 
L 1656 2988 
Q 1909 3294 2193 3439 
Q 2478 3584 2822 3584 
Q 3428 3584 3742 3212 
Q 4056 2841 4056 2131 
z
" transform="scale(0.015625)"/>
       <path id="DejaVuSans-Bold-74" d="M 1759 4494 
L 1759 3500 
L 2913 3500 
L 2913 2700 
L 1759 2700 
L 1759 1216 
Q 1759 972 1856 886 
Q 1953 800 2241 800 
L 2816 800 
L 2816 0 
L 1856 0 
Q 1194 0 917 276 
Q 641 553 641 1216 
L 641 2700 
L 84 2700 
L 84 3500 
L 641 3500 
L 641 4494 
L 1759 4494 
z
" transform="scale(0.015625)"/>
       <path id="DejaVuSans-Bold-20" transform="scale(0.015625)"/>
       <path id="DejaVuSans-Bold-52" d="M 2297 2597 
Q 2675 2597 2839 2737 
Q 3003 2878 3003 3200 
Q 3003 3519 2839 3656 
Q 2675 3794 2297 3794 
L 1791 3794 
L 1791 2597 
L 2297 2597 
z
M 1791 1766 
L 1791 0 
L 588 0 
L 588 4666 
L 2425 4666 
Q 3347 4666 3776 4356 
Q 4206 4047 4206 3378 
Q 4206 2916 3982 2619 
Q 3759 2322 3309 2181 
Q 3556 2125 3751 1926 
Q 3947 1728 4147 1325 
L 4800 0 
L 3519 0 
L 2950 1159 
Q 2778 1509 2601 1637 
Q 2425 1766 2131 1766 
L 1791 1766 
z
" transform="scale(0.015625)"/>
       <path id="DejaVuSans-Bold-73" d="M 3272 3391 
L 3272 2541 
Q 2913 2691 2578 2766 
Q 2244 2841 1947 2841 
Q 1628 2841 1473 2761 
Q 1319 2681 1319 2516 
Q 1319 2381 1436 2309 
Q 1553 2238 1856 2203 
L 2053 2175 
Q 2913 2066 3209 1816 
Q 3506 1566 3506 1031 
Q 3506 472 3093 190 
Q 2681 -91 1863 -91 
Q 1516 -91 1145 -36 
Q 775 19 384 128 
L 384 978 
Q 719 816 1070 734 
Q 1422 653 1784 653 
Q 2113 653 2278 743 
Q 2444 834 2444 1013 
Q 2444 1163 2330 1236 
Q 2216 1309 1875 1350 
L 1678 1375 
Q 931 1469 631 1722 
Q 331 1975 331 2491 
Q 331 3047 712 3315 
Q 1094 3584 1881 3584 
Q 2191 3584 2531 3537 
Q 2872 3491 3272 3391 
z
" transform="scale(0.015625)"/>
       <path id="DejaVuSans-Bold-69" d="M 538 3500 
L 1656 3500 
L 1656 0 
L 538 0 
L 538 3500 
z
M 538 4863 
L 1656 4863 
L 1656 3950 
L 538 3950 
L 538 4863 
z
" transform="scale(0.015625)"/>
       <path id="DejaVuSans-Bold-76" d="M 97 3500 
L 1216 3500 
L 2088 1081 
L 2956 3500 
L 4078 3500 
L 2700 0 
L 1472 0 
L 97 3500 
z
" transform="scale(0.015625)"/>
       <path id="DejaVuSans-Bold-79" d="M 78 3500 
L 1197 3500 
L 2138 1125 
L 2938 3500 
L 4056 3500 
L 2584 -331 
Q 2363 -916 2067 -1148 
Q 1772 -1381 1288 -1381 
L 641 -1381 
L 641 -647 
L 991 -647 
Q 1275 -647 1404 -556 
Q 1534 -466 1606 -231 
L 1638 -134 
L 78 3500 
z
" transform="scale(0.015625)"/>
       <path id="DejaVuSans-Bold-5b" d="M 550 4863 
L 2491 4863 
L 2491 4159 
L 1613 4159 
L 1613 -141 
L 2491 -141 
L 2491 -844 
L 550 -844 
L 550 4863 
z
" transform="scale(0.015625)"/>
       <path id="DejaVuSans-Bold-3a9" d="M 2719 4750 
Q 3841 4750 4480 4106 
Q 5119 3463 5119 2494 
Q 5119 1406 4306 909 
L 5266 909 
L 5266 0 
L 3125 0 
L 3125 975 
Q 3244 1041 3334 1131 
Q 3875 1678 3875 2466 
Q 3875 3066 3572 3472 
Q 3269 3878 2719 3878 
Q 2169 3878 1866 3472 
Q 1563 3066 1563 2466 
Q 1563 1678 2103 1131 
Q 2194 1041 2313 975 
L 2313 0 
L 172 0 
L 172 909 
L 1131 909 
Q 319 1406 319 2494 
Q 319 3463 958 4106 
Q 1597 4750 2719 4750 
z
" transform="scale(0.015625)"/>
       <path id="DejaVuSans-Bold-6d" d="M 3781 2919 
Q 3994 3244 4286 3414 
Q 4578 3584 4928 3584 
Q 5531 3584 5847 3212 
Q 6163 2841 6163 2131 
L 6163 0 
L 5038 0 
L 5038 1825 
Q 5041 1866 5042 1909 
Q 5044 1953 5044 2034 
Q 5044 2406 4934 2573 
Q 4825 2741 4581 2741 
Q 4263 2741 4089 2478 
Q 3916 2216 3909 1719 
L 3909 0 
L 2784 0 
L 2784 1825 
Q 2784 2406 2684 2573 
Q 2584 2741 2328 2741 
Q 2006 2741 1831 2477 
Q 1656 2213 1656 1722 
L 1656 0 
L 531 0 
L 531 3500 
L 1656 3500 
L 1656 2988 
Q 1863 3284 2130 3434 
Q 2397 3584 2719 3584 
Q 3081 3584 3359 3409 
Q 3638 3234 3781 2919 
z
" transform="scale(0.015625)"/>
       <path id="DejaVuSans-Bold-5d" d="M 2375 -844 
L 434 -844 
L 434 -141 
L 1313 -141 
L 1313 4159 
L 434 4159 
L 434 4863 
L 2375 4863 
L 2375 -844 
z
" transform="scale(0.015625)"/>
      </defs>
      <use xlink:href="#DejaVuSans-Bold-41" transform="translate(0 0.015625)"/>
      <use xlink:href="#DejaVuSans-Bold-70" transform="translate(77.392578 0.015625)"/>
      <use xlink:href="#DejaVuSans-Bold-70" transform="translate(148.974609 0.015625)"/>
      <use xlink:href="#DejaVuSans-Bold-61" transform="translate(220.556641 0.015625)"/>
      <use xlink:href="#DejaVuSans-Bold-72" transform="translate(288.037109 0.015625)"/>
      <use xlink:href="#DejaVuSans-Bold-65" transform="translate(337.353516 0.015625)"/>
      <use xlink:href="#DejaVuSans-Bold-6e" transform="translate(405.175781 0.015625)"/>
      <use xlink:href="#DejaVuSans-Bold-74" transform="translate(476.367188 0.015625)"/>
      <use xlink:href="#DejaVuSans-Bold-20" transform="translate(524.169922 0.015625)"/>
      <use xlink:href="#DejaVuSans-Bold-52" transform="translate(558.984375 0.015625)"/>
      <use xlink:href="#DejaVuSans-Bold-65" transform="translate(635.986328 0.015625)"/>
      <use xlink:href="#DejaVuSans-Bold-73" transform="translate(703.808594 0.015625)"/>
      <use xlink:href="#DejaVuSans-Bold-69" transform="translate(763.330078 0.015625)"/>
      <use xlink:href="#DejaVuSans-Bold-73" transform="translate(797.607422 0.015625)"/>
      <use xlink:href="#DejaVuSans-Bold-74" transform="translate(857.128906 0.015625)"/>
      <use xlink:href="#DejaVuSans-Bold-69" transform="translate(904.931641 0.015625)"/>
      <use xlink:href="#DejaVuSans-Bold-76" transform="translate(939.208984 0.015625)"/>
      <use xlink:href="#DejaVuSans-Bold-69" transform="translate(1004.394531 0.015625)"/>
      <use xlink:href="#DejaVuSans-Bold-74" transform="translate(1038.671875 0.015625)"/>
      <use xlink:href="#DejaVuSans-Bold-79" transform="translate(1086.474609 0.015625)"/>
      <use xlink:href="#DejaVuSans-Bold-20" transform="translate(1151.660156 0.015625)"/>
      <use xlink:href="#DejaVuSans-Bold-5b" transform="translate(1186.474609 0.015625)"/>
      <use xlink:href="#DejaVuSans-Bold-3a9" transform="translate(1232.177734 0.015625)"/>
      <use xlink:href="#DejaVuSans-Bold-6d" transform="translate(1317.1875 0.015625)"/>
      <use xlink:href="#DejaVuSans-Bold-5d" transform="translate(1421.386719 0.015625)"/>
     </g>
    </g>
   </g>
   <g id="line2d_4">
    <path d="M 248.256428 28.063636 
L 250.932673 47.030579 
L 250.223604 65.997521 
L 248.793455 84.964463 
L 251.533473 103.931405 
L 254.632305 122.898347 
L 251.990758 141.865289 
L 247.655833 160.832231 
L 242.390955 179.799174 
L 235.903427 198.766116 
L 222.327303 217.733058 
L 199.217484 236.7 
L 184.747947 255.666942 
L 158.519609 274.633884 
L 143.022868 293.600826 
L 116.223402 312.567769 
L 95.199024 331.534711 
L 75.056877 350.501653 
L 57.843167 369.468595 
L 53.599179 388.435537 
L 46.836893 407.402479 
L 43.114522 426.369421 
L 43.295342 445.336364 
" clip-path="url(#p80177e8a68)" style="fill: none; stroke: #756bb1; stroke-opacity: 0.2; stroke-width: 2; stroke-linecap: square"/>
   </g>
   <g id="line2d_5">
    <path d="M 245.664858 28.063636 
L 252.687617 47.030579 
L 248.642507 65.997521 
L 253.220556 84.964463 
L 260.355292 103.931405 
L 254.043853 122.898347 
L 260.121849 141.865289 
L 254.248527 160.832231 
L 241.871258 179.799174 
L 231.863488 198.766116 
L 219.071856 217.733058 
L 201.713044 236.7 
L 184.126882 255.666942 
L 155.903298 274.633884 
L 131.490094 293.600826 
L 111.993805 312.567769 
L 85.318001 331.534711 
L 76.097057 350.501653 
L 59.672785 369.468595 
L 54.888921 388.435537 
L 43.905702 407.402479 
L 40.187752 426.369421 
L 43.133916 445.336364 
" clip-path="url(#p80177e8a68)" style="fill: none; stroke: #756bb1; stroke-opacity: 0.2; stroke-width: 2; stroke-linecap: square"/>
   </g>
   <g id="line2d_6">
    <path d="M 251.284525 28.063636 
L 255.831119 47.030579 
L 256.032429 65.997521 
L 252.583564 84.964463 
L 256.540861 103.931405 
L 262.971242 122.898347 
L 259.030086 141.865289 
L 255.455905 160.832231 
L 245.976744 179.799174 
L 239.732472 198.766116 
L 222.687528 217.733058 
L 204.734543 236.7 
L 181.286977 255.666942 
L 159.691793 274.633884 
L 131.38924 293.600826 
L 114.099061 312.567769 
L 95.617175 331.534711 
L 82.350405 350.501653 
L 66.170209 369.468595 
L 53.593301 388.435537 
L 53.378024 407.402479 
L 49.976341 426.369421 
L 45.875958 445.336364 
" clip-path="url(#p80177e8a68)" style="fill: none; stroke: #756bb1; stroke-opacity: 0.2; stroke-width: 2; stroke-linecap: square"/>
   </g>
   <g id="line2d_7">
    <path clip-path="url(#p80177e8a68)" style="fill: none; stroke: #756bb1; stroke-opacity: 0.2; stroke-width: 2; stroke-linecap: square"/>
   </g>
   <g id="line2d_8">
    <path d="M 253.201367 28.063636 
L 256.857402 47.030579 
L 254.168433 65.997521 
L 255.858506 84.964463 
L 257.449663 103.931405 
L 261.924565 122.898347 
L 263.540046 141.865289 
L 252.624554 160.832231 
L 244.942922 179.799174 
L 236.0022 198.766116 
L 225.310949 217.733058 
L 207.418871 236.7 
L 188.579033 255.666942 
L 162.689695 274.633884 
L 138.17053 293.600826 
L 108.262463 312.567769 
L 88.007902 331.534711 
L 73.098699 350.501653 
L 63.668157 369.468595 
L 55.037672 388.435537 
L 37.724674 407.402479 
L 37.821636 426.369421 
L 26.708809 445.336364 
" clip-path="url(#p80177e8a68)" style="fill: none; stroke: #756bb1; stroke-opacity: 0.2; stroke-width: 2; stroke-linecap: square"/>
   </g>
   <g id="line2d_9">
    <path d="M 245.620305 28.063636 
L 247.648597 47.030579 
L 251.241282 65.997521 
L 254.063266 84.964463 
L 260.303961 103.931405 
L 264.463362 122.898347 
L 259.711958 141.865289 
L 258.176326 160.832231 
L 251.648671 179.799174 
L 234.540405 198.766116 
L 224.279259 217.733058 
L 199.472102 236.7 
L 186.069625 255.666942 
L 161.896269 274.633884 
L 140.489222 293.600826 
L 117.611589 312.567769 
L 100.629634 331.534711 
L 77.908962 350.501653 
L 64.030408 369.468595 
L 60.227453 388.435537 
L 51.687103 407.402479 
L 41.74067 426.369421 
L 38.8518 445.336364 
" clip-path="url(#p80177e8a68)" style="fill: none; stroke: #756bb1; stroke-opacity: 0.2; stroke-width: 2; stroke-linecap: square"/>
   </g>
   <g id="line2d_10">
    <path clip-path="url(#p80177e8a68)" style="fill: none; stroke: #756bb1; stroke-opacity: 0.2; stroke-width: 2; stroke-linecap: square"/>
   </g>
   <g id="line2d_11">
    <path d="M 251.744052 28.063636 
L 249.352707 47.030579 
L 256.326628 65.997521 
L 258.325927 84.964463 
L 260.22379 103.931405 
L 261.727938 122.898347 
L 260.261524 141.865289 
L 259.614626 160.832231 
L 251.813817 179.799174 
L 239.70012 198.766116 
L 222.873687 217.733058 
L 203.007931 236.7 
L 186.81328 255.666942 
L 160.841148 274.633884 
L 140.289744 293.600826 
L 118.882427 312.567769 
L 100.344878 331.534711 
L 88.082284 350.501653 
L 71.240123 369.468595 
L 65.602793 388.435537 
L 55.620228 407.402479 
L 52.198436 426.369421 
L 45.582711 445.336364 
" clip-path="url(#p80177e8a68)" style="fill: none; stroke: #756bb1; stroke-opacity: 0.2; stroke-width: 2; stroke-linecap: square"/>
   </g>
   <g id="line2d_12">
    <path d="M 245.098305 28.063636 
L 246.964419 47.030579 
L 248.287115 65.997521 
L 250.482653 84.964463 
L 253.729335 103.931405 
L 256.992122 122.898347 
L 255.423825 141.865289 
L 252.705046 160.832231 
L 250.484864 179.799174 
L 237.778553 198.766116 
L 226.005325 217.733058 
L 203.14345 236.7 
L 182.467625 255.666942 
L 163.031009 274.633884 
L 135.288501 293.600826 
L 115.79874 312.567769 
L 98.375919 331.534711 
L 75.169242 350.501653 
L 64.801141 369.468595 
L 56.628671 388.435537 
L 48.673902 407.402479 
L 39.047403 426.369421 
L 31.824837 445.336364 
" clip-path="url(#p80177e8a68)" style="fill: none; stroke: #756bb1; stroke-opacity: 0.2; stroke-width: 2; stroke-linecap: square"/>
   </g>
   <g id="line2d_13">
    <path d="M 242.762613 28.063636 
L 249.213816 47.030579 
L 248.845993 65.997521 
L 256.6198 84.964463 
L 263.391202 103.931405 
L 263.390457 122.898347 
L 257.65269 141.865289 
L 256.430257 160.832231 
L 252.462648 179.799174 
L 238.152502 198.766116 
L 227.904042 217.733058 
L 205.688182 236.7 
L 180.187485 255.666942 
L 158.448812 274.633884 
L 132.207221 293.600826 
L 110.86738 312.567769 
L 89.413943 331.534711 
L 72.253073 350.501653 
L 59.148411 369.468595 
L 48.9684 388.435537 
L 43.17627 407.402479 
L 35.792457 426.369421 
L 34.60467 445.336364 
" clip-path="url(#p80177e8a68)" style="fill: none; stroke: #756bb1; stroke-opacity: 0.2; stroke-width: 2; stroke-linecap: square"/>
   </g>
   <g id="line2d_14">
    <path d="M 247.009423 28.063636 
L 247.756229 47.030579 
L 249.531349 65.997521 
L 252.626485 84.964463 
L 252.055993 103.931405 
L 255.959596 122.898347 
L 260.000479 141.865289 
L 258.23262 160.832231 
L 250.059096 179.799174 
L 238.574899 198.766116 
L 222.695216 217.733058 
L 203.140114 236.7 
L 180.347212 255.666942 
L 164.535719 274.633884 
L 143.279503 293.600826 
L 114.492626 312.567769 
L 97.153954 331.534711 
L 78.048284 350.501653 
L 67.976137 369.468595 
L 51.360561 388.435537 
L 45.039477 407.402479 
L 38.93527 426.369421 
L 35.850376 445.336364 
" clip-path="url(#p80177e8a68)" style="fill: none; stroke: #756bb1; stroke-opacity: 0.2; stroke-width: 2; stroke-linecap: square"/>
   </g>
   <g id="line2d_15">
    <path d="M 246.377237 28.063636 
L 249.825668 47.030579 
L 251.579556 65.997521 
L 253.833121 84.964463 
L 259.11143 103.931405 
L 254.413156 122.898347 
L 258.665856 141.865289 
L 254.64607 160.832231 
L 249.251413 179.799174 
L 234.439679 198.766116 
L 223.175345 217.733058 
L 196.769525 236.7 
L 179.30407 255.666942 
L 154.131607 274.633884 
L 124.274247 293.600826 
L 100.990411 312.567769 
L 78.532574 331.534711 
L 64.123347 350.501653 
L 46.658175 369.468595 
L 40.929938 388.435537 
L 30.486362 407.402479 
L 29.266614 426.369421 
L 19.472727 445.336364 
" clip-path="url(#p80177e8a68)" style="fill: none; stroke: #756bb1; stroke-opacity: 0.2; stroke-width: 2; stroke-linecap: square"/>
   </g>
   <g id="line2d_16">
    <path d="M 255.54596 28.063636 
L 253.534974 47.030579 
L 252.648103 65.997521 
L 254.364926 84.964463 
L 259.67199 103.931405 
L 258.512011 122.898347 
L 255.561556 141.865289 
L 256.366386 160.832231 
L 253.595119 179.799174 
L 242.825046 198.766116 
L 219.509374 217.733058 
L 202.228137 236.7 
L 183.076693 255.666942 
L 150.72303 274.633884 
L 130.909598 293.600826 
L 105.552942 312.567769 
L 93.103343 331.534711 
L 69.919107 350.501653 
L 57.64346 369.468595 
L 55.399628 388.435537 
L 46.977698 407.402479 
L 44.002716 426.369421 
L 35.454783 445.336364 
" clip-path="url(#p80177e8a68)" style="fill: none; stroke: #756bb1; stroke-opacity: 0.2; stroke-width: 2; stroke-linecap: square"/>
   </g>
   <g id="line2d_17">
    <path d="M 247.818819 28.063636 
L 252.73145 47.030579 
L 253.535171 65.997521 
L 251.142509 84.964463 
L 253.033777 103.931405 
L 252.906438 122.898347 
L 254.638179 141.865289 
L 252.840748 160.832231 
L 254.354865 179.799174 
L 240.09572 198.766116 
L 226.971483 217.733058 
L 208.487295 236.7 
L 185.099851 255.666942 
L 164.722875 274.633884 
L 148.032608 293.600826 
L 122.427466 312.567769 
L 104.386873 331.534711 
L 80.871793 350.501653 
L 64.622428 369.468595 
L 54.794728 388.435537 
L 47.875789 407.402479 
L 41.927706 426.369421 
L 34.350369 445.336364 
" clip-path="url(#p80177e8a68)" style="fill: none; stroke: #756bb1; stroke-opacity: 0.2; stroke-width: 2; stroke-linecap: square"/>
   </g>
   <g id="line2d_18">
    <path d="M 247.078803 28.063636 
L 251.0256 47.030579 
L 256.986596 65.997521 
L 256.868148 84.964463 
L 259.318388 103.931405 
L 258.649942 122.898347 
L 253.09399 141.865289 
L 257.177032 160.832231 
L 252.006285 179.799174 
L 239.292343 198.766116 
L 223.981525 217.733058 
L 204.824587 236.7 
L 182.482473 255.666942 
L 161.797284 274.633884 
L 140.729116 293.600826 
L 118.433389 312.567769 
L 101.518266 331.534711 
L 80.000679 350.501653 
L 68.935586 369.468595 
L 58.068647 388.435537 
L 52.150665 407.402479 
L 44.763614 426.369421 
L 39.517445 445.336364 
" clip-path="url(#p80177e8a68)" style="fill: none; stroke: #756bb1; stroke-opacity: 0.2; stroke-width: 2; stroke-linecap: square"/>
   </g>
   <g id="line2d_19">
    <path d="M 248.198645 28.063636 
L 248.080738 47.030579 
L 250.403125 65.997521 
L 254.167614 84.964463 
L 251.447478 103.931405 
L 256.719613 122.898347 
L 256.771484 141.865289 
L 253.275048 160.832231 
L 250.42618 179.799174 
L 234.595761 198.766116 
L 225.960684 217.733058 
L 203.823002 236.7 
L 182.400944 255.666942 
L 163.549897 274.633884 
L 134.494755 293.600826 
L 110.595352 312.567769 
L 92.855814 331.534711 
L 79.829834 350.501653 
L 61.833783 369.468595 
L 59.998374 388.435537 
L 48.505822 407.402479 
L 43.265298 426.369421 
L 39.157659 445.336364 
" clip-path="url(#p80177e8a68)" style="fill: none; stroke: #756bb1; stroke-opacity: 0.2; stroke-width: 2; stroke-linecap: square"/>
   </g>
   <g id="line2d_20">
    <path d="M 243.812053 28.063636 
L 252.337354 47.030579 
L 249.464885 65.997521 
L 255.277099 84.964463 
L 257.266189 103.931405 
L 256.008605 122.898347 
L 259.086012 141.865289 
L 254.439071 160.832231 
L 248.610275 179.799174 
L 230.339103 198.766116 
L 220.013289 217.733058 
L 199.750667 236.7 
L 176.99136 255.666942 
L 150.488424 274.633884 
L 131.527446 293.600826 
L 106.955328 312.567769 
L 87.339774 331.534711 
L 72.262897 350.501653 
L 61.990334 369.468595 
L 53.746969 388.435537 
L 42.217555 407.402479 
L 41.022433 426.369421 
L 40.543685 445.336364 
" clip-path="url(#p80177e8a68)" style="fill: none; stroke: #756bb1; stroke-opacity: 0.2; stroke-width: 2; stroke-linecap: square"/>
   </g>
   <g id="line2d_21">
    <path d="M 257.485578 28.063636 
L 254.245452 47.030579 
L 253.266936 65.997521 
L 260.146314 84.964463 
L 260.352362 103.931405 
L 261.470926 122.898347 
L 261.23027 141.865289 
L 258.540113 160.832231 
L 248.963915 179.799174 
L 240.204467 198.766116 
L 223.030672 217.733058 
L 209.302577 236.7 
L 186.426238 255.666942 
L 160.254722 274.633884 
L 133.38593 293.600826 
L 112.788418 312.567769 
L 96.57202 331.534711 
L 77.654922 350.501653 
L 63.518424 369.468595 
L 48.939619 388.435537 
L 46.406544 407.402479 
L 38.851169 426.369421 
L 41.006436 445.336364 
" clip-path="url(#p80177e8a68)" style="fill: none; stroke: #756bb1; stroke-opacity: 0.2; stroke-width: 2; stroke-linecap: square"/>
   </g>
   <g id="line2d_22">
    <path d="M 252.080137 28.063636 
L 253.292559 47.030579 
L 254.507652 65.997521 
L 252.762904 84.964463 
L 254.948814 103.931405 
L 262.635995 122.898347 
L 256.983646 141.865289 
L 258.808691 160.832231 
L 252.697131 179.799174 
L 240.42119 198.766116 
L 220.299785 217.733058 
L 203.49749 236.7 
L 185.487978 255.666942 
L 156.530787 274.633884 
L 140.862499 293.600826 
L 120.677326 312.567769 
L 100.535109 331.534711 
L 87.992786 350.501653 
L 79.821777 369.468595 
L 65.285267 388.435537 
L 52.975877 407.402479 
L 47.353909 426.369421 
L 39.734471 445.336364 
" clip-path="url(#p80177e8a68)" style="fill: none; stroke: #756bb1; stroke-opacity: 0.2; stroke-width: 2; stroke-linecap: square"/>
   </g>
   <g id="line2d_23">
    <path d="M 253.88643 28.063636 
L 250.568884 47.030579 
L 257.536894 65.997521 
L 258.082266 84.964463 
L 250.397732 103.931405 
L 256.436794 122.898347 
L 257.023335 141.865289 
L 248.131753 160.832231 
L 249.833287 179.799174 
L 240.961785 198.766116 
L 221.233664 217.733058 
L 206.349241 236.7 
L 184.455055 255.666942 
L 153.296545 274.633884 
L 135.988794 293.600826 
L 109.057778 312.567769 
L 91.794576 331.534711 
L 72.368508 350.501653 
L 57.75858 369.468595 
L 49.494701 388.435537 
L 40.212645 407.402479 
L 34.179484 426.369421 
L 30.459071 445.336364 
" clip-path="url(#p80177e8a68)" style="fill: none; stroke: #756bb1; stroke-opacity: 0.2; stroke-width: 2; stroke-linecap: square"/>
   </g>
   <g id="line2d_24">
    <path d="M 255.616451 28.063636 
L 250.121402 47.030579 
L 249.654695 65.997521 
L 258.712396 84.964463 
L 258.205161 103.931405 
L 260.856187 122.898347 
L 253.400898 141.865289 
L 256.396262 160.832231 
L 249.803716 179.799174 
L 242.061174 198.766116 
L 225.781938 217.733058 
L 208.47507 236.7 
L 183.927031 255.666942 
L 163.764202 274.633884 
L 139.056586 293.600826 
L 118.496115 312.567769 
L 97.135486 331.534711 
L 78.19851 350.501653 
L 69.287368 369.468595 
L 56.727548 388.435537 
L 44.151668 407.402479 
L 34.289451 426.369421 
L 30.237348 445.336364 
" clip-path="url(#p80177e8a68)" style="fill: none; stroke: #756bb1; stroke-opacity: 0.2; stroke-width: 2; stroke-linecap: square"/>
   </g>
   <g id="line2d_25">
    <path d="M 246.859323 28.063636 
L 250.665382 47.030579 
L 250.334505 65.997521 
L 254.55311 84.964463 
L 252.838808 103.931405 
L 259.707188 122.898347 
L 259.493098 141.865289 
L 251.587713 160.832231 
L 249.721144 179.799174 
L 240.690044 198.766116 
L 227.351123 217.733058 
L 206.389803 236.7 
L 186.936456 255.666942 
L 166.224444 274.633884 
L 141.176452 293.600826 
L 114.669259 312.567769 
L 101.364827 331.534711 
L 81.058223 350.501653 
L 69.111582 369.468595 
L 55.801394 388.435537 
L 46.827797 407.402479 
L 40.324201 426.369421 
L 33.9667 445.336364 
" clip-path="url(#p80177e8a68)" style="fill: none; stroke: #756bb1; stroke-opacity: 0.2; stroke-width: 2; stroke-linecap: square"/>
   </g>
   <g id="line2d_26">
    <path d="M 249.569733 28.063636 
L 249.182705 47.030579 
L 249.714743 65.997521 
L 259.280059 84.964463 
L 254.729977 103.931405 
L 258.94006 122.898347 
L 259.585243 141.865289 
L 257.977088 160.832231 
L 252.36413 179.799174 
L 243.9726 198.766116 
L 227.99456 217.733058 
L 209.69518 236.7 
L 187.193243 255.666942 
L 164.61558 274.633884 
L 143.562856 293.600826 
L 128.569119 312.567769 
L 109.121739 331.534711 
L 88.239621 350.501653 
L 75.463066 369.468595 
L 64.832275 388.435537 
L 62.539272 407.402479 
L 58.329019 426.369421 
L 52.443806 445.336364 
" clip-path="url(#p80177e8a68)" style="fill: none; stroke: #756bb1; stroke-opacity: 0.2; stroke-width: 2; stroke-linecap: square"/>
   </g>
   <g id="line2d_27">
    <path d="M 251.455198 28.063636 
L 250.354549 47.030579 
L 249.348938 65.997521 
L 257.524332 84.964463 
L 259.596121 103.931405 
L 254.480809 122.898347 
L 258.532197 141.865289 
L 258.551237 160.832231 
L 249.129235 179.799174 
L 237.369081 198.766116 
L 222.526782 217.733058 
L 204.022935 236.7 
L 184.839273 255.666942 
L 160.579604 274.633884 
L 141.448582 293.600826 
L 120.483596 312.567769 
L 97.897455 331.534711 
L 78.561184 350.501653 
L 59.319321 369.468595 
L 46.6774 388.435537 
L 36.784896 407.402479 
L 31.397035 426.369421 
L 26.961649 445.336364 
" clip-path="url(#p80177e8a68)" style="fill: none; stroke: #756bb1; stroke-opacity: 0.2; stroke-width: 2; stroke-linecap: square"/>
   </g>
   <g id="line2d_28">
    <path d="M 256.812057 28.063636 
L 256.049245 47.030579 
L 250.161934 65.997521 
L 252.157069 84.964463 
L 257.207409 103.931405 
L 252.107304 122.898347 
L 252.288176 141.865289 
L 253.492877 160.832231 
L 243.048193 179.799174 
L 238.299475 198.766116 
L 218.20939 217.733058 
L 203.337461 236.7 
L 180.636654 255.666942 
L 154.816177 274.633884 
L 131.772304 293.600826 
L 113.62126 312.567769 
L 93.826335 331.534711 
L 75.776954 350.501653 
L 65.948197 369.468595 
L 56.602983 388.435537 
L 49.945938 407.402479 
L 41.033452 426.369421 
L 35.267786 445.336364 
" clip-path="url(#p80177e8a68)" style="fill: none; stroke: #756bb1; stroke-opacity: 0.2; stroke-width: 2; stroke-linecap: square"/>
   </g>
   <g id="line2d_29">
    <path d="M 247.006308 28.063636 
L 250.828935 47.030579 
L 249.26352 65.997521 
L 260.70203 84.964463 
L 258.577293 103.931405 
L 264.927273 122.898347 
L 257.077092 141.865289 
L 260.029307 160.832231 
L 252.249295 179.799174 
L 236.946816 198.766116 
L 221.349779 217.733058 
L 205.317201 236.7 
L 181.241453 255.666942 
L 161.047568 274.633884 
L 129.727832 293.600826 
L 109.570819 312.567769 
L 92.110941 331.534711 
L 79.436879 350.501653 
L 63.845734 369.468595 
L 53.998403 388.435537 
L 46.176871 407.402479 
L 43.074498 426.369421 
L 39.145206 445.336364 
" clip-path="url(#p80177e8a68)" style="fill: none; stroke: #756bb1; stroke-opacity: 0.2; stroke-width: 2; stroke-linecap: square"/>
   </g>
   <g id="line2d_30">
    <path d="M 251.722988 28.063636 
L 253.573761 47.030579 
L 255.340093 65.997521 
L 261.664096 84.964463 
L 258.463082 103.931405 
L 260.83644 122.898347 
L 261.812795 141.865289 
L 250.290294 160.832231 
L 251.893455 179.799174 
L 235.720402 198.766116 
L 220.014745 217.733058 
L 208.7006 236.7 
L 184.340543 255.666942 
L 160.846376 274.633884 
L 141.598776 293.600826 
L 114.721973 312.567769 
L 100.267419 331.534711 
L 80.293249 350.501653 
L 61.380322 369.468595 
L 53.770195 388.435537 
L 41.762131 407.402479 
L 36.759867 426.369421 
L 24.74304 445.336364 
" clip-path="url(#p80177e8a68)" style="fill: none; stroke: #756bb1; stroke-opacity: 0.2; stroke-width: 2; stroke-linecap: square"/>
   </g>
   <g id="line2d_31">
    <path clip-path="url(#p80177e8a68)" style="fill: none; stroke: #756bb1; stroke-opacity: 0.2; stroke-width: 2; stroke-linecap: square"/>
   </g>
   <g id="line2d_32">
    <path d="M 241.704413 28.063636 
L 253.323398 47.030579 
L 248.738647 65.997521 
L 258.433613 84.964463 
L 258.19997 103.931405 
L 255.917888 122.898347 
L 259.550869 141.865289 
L 258.173235 160.832231 
L 248.518118 179.799174 
L 237.312766 198.766116 
L 225.58564 217.733058 
L 204.423056 236.7 
L 183.856386 255.666942 
L 155.538219 274.633884 
L 133.110615 293.600826 
L 117.836008 312.567769 
L 93.030112 331.534711 
L 71.947177 350.501653 
L 61.070088 369.468595 
L 46.955907 388.435537 
L 42.586536 407.402479 
L 32.079658 426.369421 
L 31.718113 445.336364 
" clip-path="url(#p80177e8a68)" style="fill: none; stroke: #756bb1; stroke-opacity: 0.2; stroke-width: 2; stroke-linecap: square"/>
   </g>
   <g id="line2d_33">
    <path d="M 249.04161 28.063636 
L 251.889234 47.030579 
L 249.143013 65.997521 
L 249.449691 84.964463 
L 253.236796 103.931405 
L 253.358273 122.898347 
L 256.535291 141.865289 
L 250.28239 160.832231 
L 252.690738 179.799174 
L 235.456651 198.766116 
L 223.549006 217.733058 
L 211.519903 236.7 
L 186.056472 255.666942 
L 158.094846 274.633884 
L 136.771632 293.600826 
L 117.803369 312.567769 
L 93.728048 331.534711 
L 75.584049 350.501653 
L 63.611558 369.468595 
L 56.169753 388.435537 
L 46.196303 407.402479 
L 44.59819 426.369421 
L 38.261336 445.336364 
" clip-path="url(#p80177e8a68)" style="fill: none; stroke: #756bb1; stroke-opacity: 0.2; stroke-width: 2; stroke-linecap: square"/>
   </g>
   <g id="line2d_34">
    <path clip-path="url(#p80177e8a68)" style="fill: none; stroke: #756bb1; stroke-opacity: 0.2; stroke-width: 2; stroke-linecap: square"/>
   </g>
   <g id="line2d_35">
    <path d="M 255.176615 28.063636 
L 254.550132 47.030579 
L 259.720428 65.997521 
L 262.424303 84.964463 
L 259.774194 103.931405 
L 263.81835 122.898347 
L 260.464214 141.865289 
L 251.493235 160.832231 
L 252.235865 179.799174 
L 237.493248 198.766116 
L 231.591795 217.733058 
L 212.841128 236.7 
L 193.351742 255.666942 
L 172.512203 274.633884 
L 157.163449 293.600826 
L 138.930059 312.567769 
L 123.243544 331.534711 
L 107.028852 350.501653 
L 86.688199 369.468595 
L 74.95181 388.435537 
L 65.912104 407.402479 
L 62.258054 426.369421 
L 54.596866 445.336364 
" clip-path="url(#p80177e8a68)" style="fill: none; stroke: #756bb1; stroke-opacity: 0.2; stroke-width: 2; stroke-linecap: square"/>
   </g>
   <g id="line2d_36">
    <path d="M 251.578126 28.063636 
L 250.78074 47.030579 
L 253.528929 65.997521 
L 259.639206 84.964463 
L 257.397333 103.931405 
L 263.965308 122.898347 
L 257.534653 141.865289 
L 255.203016 160.832231 
L 250.330682 179.799174 
L 237.981154 198.766116 
L 220.690393 217.733058 
L 203.516007 236.7 
L 191.466792 255.666942 
L 163.842818 274.633884 
L 143.01579 293.600826 
L 121.323873 312.567769 
L 102.039469 331.534711 
L 90.851837 350.501653 
L 69.894343 369.468595 
L 62.103469 388.435537 
L 57.824909 407.402479 
L 43.723243 426.369421 
L 45.876379 445.336364 
" clip-path="url(#p80177e8a68)" style="fill: none; stroke: #756bb1; stroke-opacity: 0.2; stroke-width: 2; stroke-linecap: square"/>
   </g>
   <g id="line2d_37">
    <path d="M 252.654362 28.063636 
L 251.23798 47.030579 
L 250.455512 65.997521 
L 258.903909 84.964463 
L 261.561336 103.931405 
L 262.413881 122.898347 
L 263.063563 141.865289 
L 252.410363 160.832231 
L 249.778036 179.799174 
L 233.979197 198.766116 
L 223.878344 217.733058 
L 205.922341 236.7 
L 186.762098 255.666942 
L 169.393699 274.633884 
L 148.270154 293.600826 
L 123.117708 312.567769 
L 107.940646 331.534711 
L 93.117672 350.501653 
L 80.940861 369.468595 
L 65.788287 388.435537 
L 57.14884 407.402479 
L 50.798451 426.369421 
L 40.378723 445.336364 
" clip-path="url(#p80177e8a68)" style="fill: none; stroke: #756bb1; stroke-opacity: 0.2; stroke-width: 2; stroke-linecap: square"/>
   </g>
   <g id="line2d_38">
    <path d="M 252.225445 28.063636 
L 251.537792 47.030579 
L 251.131175 65.997521 
L 253.860109 84.964463 
L 256.386546 103.931405 
L 263.368827 122.898347 
L 263.312413 141.865289 
L 252.835826 160.832231 
L 252.995445 179.799174 
L 240.525159 198.766116 
L 221.491353 217.733058 
L 205.544868 236.7 
L 187.428083 255.666942 
L 162.500229 274.633884 
L 140.615368 293.600826 
L 114.893051 312.567769 
L 92.098634 331.534711 
L 77.015116 350.501653 
L 57.135578 369.468595 
L 40.950122 388.435537 
L 35.603173 407.402479 
L 32.191539 426.369421 
L 25.693661 445.336364 
" clip-path="url(#p80177e8a68)" style="fill: none; stroke: #756bb1; stroke-opacity: 0.2; stroke-width: 2; stroke-linecap: square"/>
   </g>
   <g id="line2d_39">
    <path d="M 254.594066 28.063636 
L 251.790267 47.030579 
L 254.030131 65.997521 
L 257.129273 84.964463 
L 256.723191 103.931405 
L 255.551346 122.898347 
L 258.802119 141.865289 
L 253.847574 160.832231 
L 251.08584 179.799174 
L 243.223071 198.766116 
L 223.019479 217.733058 
L 207.415392 236.7 
L 181.622905 255.666942 
L 158.077972 274.633884 
L 130.309073 293.600826 
L 111.567664 312.567769 
L 88.256746 331.534711 
L 72.847786 350.501653 
L 57.823259 369.468595 
L 51.554606 388.435537 
L 37.060462 407.402479 
L 33.52419 426.369421 
L 36.838087 445.336364 
" clip-path="url(#p80177e8a68)" style="fill: none; stroke: #756bb1; stroke-opacity: 0.2; stroke-width: 2; stroke-linecap: square"/>
   </g>
   <g id="line2d_40">
    <path d="M 244.897603 28.063636 
L 244.960365 47.030579 
L 252.597589 65.997521 
L 258.860603 84.964463 
L 257.682148 103.931405 
L 257.878018 122.898347 
L 260.146445 141.865289 
L 261.089566 160.832231 
L 250.399277 179.799174 
L 238.703382 198.766116 
L 221.093563 217.733058 
L 209.119258 236.7 
L 188.062596 255.666942 
L 170.910415 274.633884 
L 142.886151 293.600826 
L 130.283475 312.567769 
L 108.66199 331.534711 
L 85.755954 350.501653 
L 72.216083 369.468595 
L 57.11651 388.435537 
L 53.613925 407.402479 
L 42.179832 426.369421 
L 36.297049 445.336364 
" clip-path="url(#p80177e8a68)" style="fill: none; stroke: #756bb1; stroke-opacity: 0.2; stroke-width: 2; stroke-linecap: square"/>
   </g>
   <g id="line2d_41">
    <path d="M 245.790356 28.063636 
L 249.435014 47.030579 
L 251.53826 65.997521 
L 258.294488 84.964463 
L 256.969991 103.931405 
L 258.417913 122.898347 
L 261.427753 141.865289 
L 256.901175 160.832231 
L 244.155488 179.799174 
L 236.131858 198.766116 
L 224.704601 217.733058 
L 205.320302 236.7 
L 180.252147 255.666942 
L 156.50185 274.633884 
L 130.098858 293.600826 
L 112.269139 312.567769 
L 89.423919 331.534711 
L 78.579976 350.501653 
L 58.406866 369.468595 
L 54.368964 388.435537 
L 42.899686 407.402479 
L 36.165698 426.369421 
L 33.111307 445.336364 
" clip-path="url(#p80177e8a68)" style="fill: none; stroke: #756bb1; stroke-opacity: 0.2; stroke-width: 2; stroke-linecap: square"/>
   </g>
   <g id="line2d_42">
    <path d="M 247.704063 28.063636 
L 246.984247 47.030579 
L 249.149491 65.997521 
L 257.155589 84.964463 
L 258.071339 103.931405 
L 252.936758 122.898347 
L 256.479701 141.865289 
L 250.83708 160.832231 
L 242.604717 179.799174 
L 240.265008 198.766116 
L 225.525693 217.733058 
L 208.655992 236.7 
L 188.687752 255.666942 
L 159.625901 274.633884 
L 139.804826 293.600826 
L 112.439488 312.567769 
L 97.499524 331.534711 
L 79.449948 350.501653 
L 65.612551 369.468595 
L 57.802466 388.435537 
L 52.784684 407.402479 
L 52.13382 426.369421 
L 44.566458 445.336364 
" clip-path="url(#p80177e8a68)" style="fill: none; stroke: #756bb1; stroke-opacity: 0.2; stroke-width: 2; stroke-linecap: square"/>
   </g>
   <g id="line2d_43">
    <path d="M 242.22704 28.063636 
L 248.355543 47.030579 
L 255.938519 65.997521 
L 254.1923 84.964463 
L 253.900265 103.931405 
L 259.332491 122.898347 
L 258.934683 141.865289 
L 254.168886 160.832231 
L 247.16414 179.799174 
L 235.484327 198.766116 
L 225.803795 217.733058 
L 212.055824 236.7 
L 185.779084 255.666942 
L 165.928721 274.633884 
L 143.557494 293.600826 
L 128.372753 312.567769 
L 100.715718 331.534711 
L 84.581979 350.501653 
L 67.565012 369.468595 
L 50.30872 388.435537 
L 43.820958 407.402479 
L 32.915018 426.369421 
L 32.197793 445.336364 
" clip-path="url(#p80177e8a68)" style="fill: none; stroke: #756bb1; stroke-opacity: 0.2; stroke-width: 2; stroke-linecap: square"/>
   </g>
   <g id="line2d_44"/>
   <g id="line2d_45">
    <path d="M 249.992335 28.063636 
L 251.444827 47.030579 
L 253.336957 65.997521 
L 255.666389 84.964463 
L 257.663812 103.931405 
L 258.554671 122.898347 
L 257.992308 141.865289 
L 254.967589 160.832231 
L 248.396918 179.799174 
L 237.915469 198.766116 
L 223.363337 217.733058 
L 204.901684 236.7 
L 183.721364 255.666942 
L 160.484389 274.633884 
L 137.291414 293.600826 
L 114.812035 312.567769 
L 94.698998 331.534711 
L 77.229987 350.501653 
L 63.119736 369.468595 
L 52.130318 388.435537 
L 44.293564 407.402479 
L 38.964631 426.369421 
L 35.617772 445.336364 
" clip-path="url(#p80177e8a68)" style="fill: none; stroke: #39146b; stroke-width: 4; stroke-linecap: square"/>
   </g>
   <g id="line2d_46">
    <path d="M 250.378045 28.063636 
L 251.833001 47.030579 
L 253.663381 65.997521 
L 255.708564 84.964463 
L 257.596266 103.931405 
L 258.710199 122.898347 
L 258.217902 141.865289 
L 255.159847 160.832231 
L 248.594586 179.799174 
L 237.80093 198.766116 
L 222.51685 217.733058 
L 203.129316 236.7 
L 180.683281 255.666942 
L 156.652638 274.633884 
L 132.586209 293.600826 
L 109.834411 312.567769 
L 89.457115 331.534711 
L 72.221667 350.501653 
L 58.552482 369.468595 
L 48.439344 388.435537 
L 41.439681 407.402479 
L 36.843746 426.369421 
L 33.912154 445.336364 
" clip-path="url(#p80177e8a68)" style="fill: none; stroke: #e40000; stroke-width: 4; stroke-linecap: square"/>
    <defs>
     <path id="m8dda00f208" d="M -5 5 
L 5 -5 
M -5 -5 
L 5 5 
" style="stroke: #e40000"/>
    </defs>
    <g clip-path="url(#p80177e8a68)">
     <use xlink:href="#m8dda00f208" x="250.378045" y="28.063636" style="fill: #e40000; stroke: #e40000"/>
     <use xlink:href="#m8dda00f208" x="251.833001" y="47.030579" style="fill: #e40000; stroke: #e40000"/>
     <use xlink:href="#m8dda00f208" x="253.663381" y="65.997521" style="fill: #e40000; stroke: #e40000"/>
     <use xlink:href="#m8dda00f208" x="255.708564" y="84.964463" style="fill: #e40000; stroke: #e40000"/>
     <use xlink:href="#m8dda00f208" x="257.596266" y="103.931405" style="fill: #e40000; stroke: #e40000"/>
     <use xlink:href="#m8dda00f208" x="258.710199" y="122.898347" style="fill: #e40000; stroke: #e40000"/>
     <use xlink:href="#m8dda00f208" x="258.217902" y="141.865289" style="fill: #e40000; stroke: #e40000"/>
     <use xlink:href="#m8dda00f208" x="255.159847" y="160.832231" style="fill: #e40000; stroke: #e40000"/>
     <use xlink:href="#m8dda00f208" x="248.594586" y="179.799174" style="fill: #e40000; stroke: #e40000"/>
     <use xlink:href="#m8dda00f208" x="237.80093" y="198.766116" style="fill: #e40000; stroke: #e40000"/>
     <use xlink:href="#m8dda00f208" x="222.51685" y="217.733058" style="fill: #e40000; stroke: #e40000"/>
     <use xlink:href="#m8dda00f208" x="203.129316" y="236.7" style="fill: #e40000; stroke: #e40000"/>
     <use xlink:href="#m8dda00f208" x="180.683281" y="255.666942" style="fill: #e40000; stroke: #e40000"/>
     <use xlink:href="#m8dda00f208" x="156.652638" y="274.633884" style="fill: #e40000; stroke: #e40000"/>
     <use xlink:href="#m8dda00f208" x="132.586209" y="293.600826" style="fill: #e40000; stroke: #e40000"/>
     <use xlink:href="#m8dda00f208" x="109.834411" y="312.567769" style="fill: #e40000; stroke: #e40000"/>
     <use xlink:href="#m8dda00f208" x="89.457115" y="331.534711" style="fill: #e40000; stroke: #e40000"/>
     <use xlink:href="#m8dda00f208" x="72.221667" y="350.501653" style="fill: #e40000; stroke: #e40000"/>
     <use xlink:href="#m8dda00f208" x="58.552482" y="369.468595" style="fill: #e40000; stroke: #e40000"/>
     <use xlink:href="#m8dda00f208" x="48.439344" y="388.435537" style="fill: #e40000; stroke: #e40000"/>
     <use xlink:href="#m8dda00f208" x="41.439681" y="407.402479" style="fill: #e40000; stroke: #e40000"/>
     <use xlink:href="#m8dda00f208" x="36.843746" y="426.369421" style="fill: #e40000; stroke: #e40000"/>
     <use xlink:href="#m8dda00f208" x="33.912154" y="445.336364" style="fill: #e40000; stroke: #e40000"/>
    </g>
   </g>
   <g id="patch_3">
    <path d="M 7.2 476.2 
L 277.2 476.2 
" style="fill: none; stroke: #000000; stroke-width: 2; stroke-linejoin: miter; stroke-linecap: square"/>
   </g>
  </g>
 </g>
 <defs>
  <clipPath id="p80177e8a68">
   <rect x="7.2" y="7.2" width="270" height="459"/>
  </clipPath>
 </defs>
</svg>
