<?xml version="1.0" encoding="utf-8" standalone="no"?>
<!DOCTYPE svg PUBLIC "-//W3C//DTD SVG 1.1//EN"
  "http://www.w3.org/Graphics/SVG/1.1/DTD/svg11.dtd">
<svg xmlns:xlink="http://www.w3.org/1999/xlink" width="326.85pt" height="544.35625pt" viewBox="0 0 326.85 544.35625" xmlns="http://www.w3.org/2000/svg" version="1.1">
 <metadata>
  <rdf:RDF xmlns:dc="http://purl.org/dc/elements/1.1/" xmlns:cc="http://creativecommons.org/ns#" xmlns:rdf="http://www.w3.org/1999/02/22-rdf-syntax-ns#">
   <cc:Work>
    <dc:type rdf:resource="http://purl.org/dc/dcmitype/StillImage"/>
    <dc:date>2024-07-06T14:15:51.601061</dc:date>
    <dc:format>image/svg+xml</dc:format>
    <dc:creator>
     <cc:Agent>
      <dc:title>Matplotlib v3.8.0, https://matplotlib.org/</dc:title>
     </cc:Agent>
    </dc:creator>
   </cc:Work>
  </rdf:RDF>
 </metadata>
 <defs>
  <style type="text/css">*{stroke-linejoin: round; stroke-linecap: butt}</style>
 </defs>
 <g id="figure_1">
  <g id="patch_1">
   <path d="M 0 544.35625 
L 326.85 544.35625 
L 326.85 0 
L 0 0 
z
" style="fill: #ffffff"/>
  </g>
  <g id="axes_1">
   <g id="patch_2">
    <path d="M 49.65 466.2 
L 319.65 466.2 
L 319.65 7.2 
L 49.65 7.2 
z
" style="fill: #ffffff"/>
   </g>
   <g id="PolyCollection_1">
    <defs>
     <path id="m4dd64dd4d7" d="M 141.240149 -516.292614 
L 147.074092 -516.292614 
L 147.074092 -515.303816 
L 147.109039 -514.315018 
L 147.109039 -513.32622 
L 147.109039 -512.337422 
L 147.113728 -511.348624 
L 147.109039 -510.359826 
L 147.109039 -509.371028 
L 147.074092 -508.38223 
L 147.109039 -507.393432 
L 147.109039 -506.404634 
L 147.109039 -505.415836 
L 147.120803 -504.427038 
L 147.120803 -503.438241 
L 147.156512 -502.449443 
L 147.202041 -501.460645 
L 147.238933 -500.471847 
L 147.315961 -499.483049 
L 147.480999 -498.494251 
L 147.602957 -497.505453 
L 148.044368 -496.516655 
L 148.044368 -495.527857 
L 167.570997 -494.539059 
L 182.179126 -493.550261 
L 193.452122 -492.561463 
L 203.710973 -491.572665 
L 203.889131 -490.583867 
L 207.147961 -489.595069 
L 209.587977 -488.606272 
L 212.226265 -487.617474 
L 216.582399 -486.628676 
L 216.582399 -485.639878 
L 218.794507 -484.65108 
L 220.783245 -483.662282 
L 223.71594 -482.673484 
L 226.055006 -481.684686 
L 228.983147 -480.695888 
L 230.960594 -479.70709 
L 231.955092 -478.718292 
L 233.082592 -477.729494 
L 233.660713 -476.740696 
L 234.124728 -475.751898 
L 234.124728 -474.7631 
L 234.87655 -473.774303 
L 234.87655 -472.785505 
L 234.965846 -471.796707 
L 234.965846 -470.807909 
L 234.965846 -469.819111 
L 234.965846 -468.830313 
L 234.965846 -467.841515 
L 234.124728 -466.852717 
L 234.124728 -465.863919 
L 234.124728 -464.875121 
L 234.124728 -463.886323 
L 234.124728 -462.897525 
L 234.124728 -461.908727 
L 234.124728 -460.919929 
L 234.124728 -459.931132 
L 234.87655 -458.942334 
L 234.87655 -457.953536 
L 234.965846 -456.964738 
L 234.965846 -455.97594 
L 234.965846 -454.987142 
L 235.002781 -453.998344 
L 235.002781 -453.009546 
L 235.107406 -452.020748 
L 235.139698 -451.03195 
L 235.457902 -450.043152 
L 235.374462 -449.054354 
L 235.457902 -448.065556 
L 235.457902 -447.076758 
L 235.457902 -446.08796 
L 235.374462 -445.099163 
L 235.457902 -444.110365 
L 236.37654 -443.121567 
L 236.665079 -442.132769 
L 236.665079 -441.143971 
L 236.829745 -440.155173 
L 236.917937 -439.166375 
L 236.917937 -438.177577 
L 236.917937 -437.188779 
L 236.829745 -436.199981 
L 236.665079 -435.211183 
L 236.37654 -434.222385 
L 236.37654 -433.233587 
L 236.37654 -432.244789 
L 236.37654 -431.255991 
L 235.457902 -430.267194 
L 235.457902 -429.278396 
L 236.37654 -428.289598 
L 236.665079 -427.3008 
L 236.665079 -426.312002 
L 235.472645 -425.323204 
L 236.829745 -424.334406 
L 236.829745 -423.345608 
L 236.918723 -422.35681 
L 236.984398 -421.368012 
L 236.984398 -420.379214 
L 236.946452 -419.390416 
L 236.984398 -418.401618 
L 237.135838 -417.41282 
L 237.135838 -416.424023 
L 237.812477 -415.435225 
L 240.29491 -414.446427 
L 240.29491 -413.457629 
L 241.975611 -412.468831 
L 243.623079 -411.480033 
L 246.895395 -410.491235 
L 247.286963 -409.502437 
L 247.551 -408.513639 
L 247.551 -407.524841 
L 247.89192 -406.536043 
L 247.89192 -405.547245 
L 247.992186 -404.558447 
L 247.992186 -403.569649 
L 248.080648 -402.580851 
L 249.34376 -401.592054 
L 250.786045 -400.603256 
L 251.357142 -399.614458 
L 251.357142 -398.62566 
L 252.106958 -397.636862 
L 256.118185 -396.648064 
L 256.118185 -395.659266 
L 256.118185 -394.670468 
L 256.51159 -393.68167 
L 257.915984 -392.692872 
L 258.443064 -391.704074 
L 258.443064 -390.715276 
L 261.366577 -389.726478 
L 261.366577 -388.73768 
L 261.366577 -387.748882 
L 265.505357 -386.760085 
L 263.976796 -385.771287 
L 263.976796 -384.782489 
L 262.051341 -383.793691 
L 263.976796 -382.804893 
L 266.443903 -381.816095 
L 266.443903 -380.827297 
L 267.682732 -379.838499 
L 271.274452 -378.849701 
L 271.274452 -377.860903 
L 271.55513 -376.872105 
L 271.55513 -375.883307 
L 271.274452 -374.894509 
L 271.274452 -373.905711 
L 271.274452 -372.916914 
L 272.114428 -371.928116 
L 274.953016 -370.939318 
L 274.953016 -369.95052 
L 272.7328 -368.961722 
L 275.324209 -367.972924 
L 275.324209 -366.984126 
L 275.449682 -365.995328 
L 274.959115 -365.00653 
L 271.55513 -364.017732 
L 271.274452 -363.028934 
L 270.770505 -362.040136 
L 270.082299 -361.051338 
L 265.500956 -360.06254 
L 265.500956 -359.073742 
L 262.051341 -358.084945 
L 261.839437 -357.096147 
L 263.976796 -356.107349 
L 259.35248 -355.118551 
L 256.190721 -354.129753 
L 254.908435 -353.140955 
L 254.366671 -352.152157 
L 252.106958 -351.163359 
L 247.343877 -350.174561 
L 247.279062 -349.185763 
L 245.941464 -348.196965 
L 242.114268 -347.208167 
L 241.171674 -346.219369 
L 238.337767 -345.230571 
L 234.975287 -344.241773 
L 234.741951 -343.252976 
L 231.594785 -342.264178 
L 229.685196 -341.27538 
L 227.622251 -340.286582 
L 226.270337 -339.297784 
L 225.514317 -338.308986 
L 221.76972 -337.320188 
L 218.811293 -336.33139 
L 217.567683 -335.342592 
L 217.191775 -334.353794 
L 215.930351 -333.364996 
L 215.007072 -332.376198 
L 214.59204 -331.3874 
L 213.744363 -330.398602 
L 213.553168 -329.409805 
L 212.70245 -328.421007 
L 212.190241 -327.432209 
L 211.655004 -326.443411 
L 211.300183 -325.454613 
L 210.931916 -324.465815 
L 210.820257 -323.477017 
L 210.561347 -322.488219 
L 210.326826 -321.499421 
L 210.314413 -320.510623 
L 210.078528 -319.521825 
L 209.929241 -318.533027 
L 209.620444 -317.544229 
L 209.380055 -316.555431 
L 208.478788 -315.566633 
L 208.323519 -314.577836 
L 208.233494 -313.589038 
L 208.136987 -312.60024 
L 207.767923 -311.611442 
L 207.572886 -310.622644 
L 206.735313 -309.633846 
L 206.496157 -308.645048 
L 206.122835 -307.65625 
L 205.533102 -306.667452 
L 205.533102 -305.678654 
L 204.03458 -304.689856 
L 203.000503 -303.701058 
L 200.263251 -302.71226 
L 187.587705 -301.723462 
L 185.106079 -300.734664 
L 180.863045 -299.745867 
L 178.927958 -298.757069 
L 176.23527 -297.768271 
L 174.390062 -296.779473 
L 173.769579 -295.790675 
L 171.867544 -294.801877 
L 166.979629 -293.813079 
L 164.830892 -292.824281 
L 163.140073 -291.835483 
L 161.885275 -290.846685 
L 160.408175 -289.857887 
L 158.826435 -288.869089 
L 157.89282 -287.880291 
L 156.05874 -286.891493 
L 155.081309 -285.902695 
L 154.716943 -284.913898 
L 153.416431 -283.9251 
L 151.920696 -282.936302 
L 150.262663 -281.947504 
L 150.19024 -280.958706 
L 149.372023 -279.969908 
L 149.275804 -278.98111 
L 147.632519 -277.992312 
L 147.127519 -277.003514 
L 147.127519 -276.014716 
L 145.768962 -275.025918 
L 144.412719 -274.03712 
L 142.742714 -273.048322 
L 142.633534 -272.059524 
L 142.259029 -271.070727 
L 141.092543 -270.081929 
L 138.497916 -269.093131 
L 136.354613 -268.104333 
L 135.62749 -267.115535 
L 135.051255 -266.126737 
L 135.051255 -265.137939 
L 132.592098 -264.149141 
L 131.974925 -263.160343 
L 131.324764 -262.171545 
L 128.433206 -261.182747 
L 125.03851 -260.193949 
L 124.383248 -259.205151 
L 124.383248 -258.216353 
L 121.97438 -257.227555 
L 121.97438 -256.238758 
L 120.966727 -255.24996 
L 120.921232 -254.261162 
L 119.122837 -253.272364 
L 117.891421 -252.283566 
L 117.184424 -251.294768 
L 116.894181 -250.30597 
L 115.647758 -249.317172 
L 114.83724 -248.328374 
L 112.857087 -247.339576 
L 110.65096 -246.350778 
L 109.962975 -245.36198 
L 108.393519 -244.373182 
L 108.393519 -243.384384 
L 108.265451 -242.395586 
L 107.740293 -241.406789 
L 107.659453 -240.417991 
L 107.659453 -239.429193 
L 107.129559 -238.440395 
L 106.490175 -237.451597 
L 106.490175 -236.462799 
L 106.243387 -235.474001 
L 105.469423 -234.485203 
L 105.193443 -233.496405 
L 104.328958 -232.507607 
L 104.131156 -231.518809 
L 103.819514 -230.530011 
L 103.76288 -229.541213 
L 100.453136 -228.552415 
L 99.768695 -227.563618 
L 99.106504 -226.57482 
L 98.780964 -225.586022 
L 98.780964 -224.597224 
L 98.513907 -223.608426 
L 97.499756 -222.619628 
L 95.976553 -221.63083 
L 95.976553 -220.642032 
L 95.803932 -219.653234 
L 95.731829 -218.664436 
L 95.731829 -217.675638 
L 95.514438 -216.68684 
L 95.293155 -215.698042 
L 95.293155 -214.709244 
L 95.196766 -213.720446 
L 95.196766 -212.731649 
L 95.166191 -211.742851 
L 95.166191 -210.754053 
L 94.981425 -209.765255 
L 94.853048 -208.776457 
L 94.738214 -207.787659 
L 94.385239 -206.798861 
L 94.276705 -205.810063 
L 94.336077 -204.821265 
L 94.243742 -203.832467 
L 94.243742 -202.843669 
L 94.243742 -201.854871 
L 94.276705 -200.866073 
L 94.243742 -199.877275 
L 94.243742 -198.888477 
L 94.243742 -197.89968 
L 94.114369 -196.910882 
L 94.114369 -195.922084 
L 94.114369 -194.933286 
L 94.114369 -193.944488 
L 94.176476 -192.95569 
L 94.176476 -191.966892 
L 94.243742 -190.978094 
L 94.114369 -189.989296 
L 94.103405 -189.000498 
L 94.176476 -188.0117 
L 94.176476 -187.022902 
L 94.103405 -186.034104 
L 94.087957 -185.045306 
L 94.087957 -184.056509 
L 94.047007 -183.067711 
L 93.866609 -182.078913 
L 93.866609 -181.090115 
L 93.82755 -180.101317 
L 93.770497 -179.112519 
L 93.770497 -178.123721 
L 93.770497 -177.134923 
L 93.770497 -176.146125 
L 93.748596 -175.157327 
L 93.699293 -174.168529 
L 93.699293 -173.179731 
L 93.699293 -172.190933 
L 93.699293 -171.202135 
L 93.699293 -170.213337 
L 93.748596 -169.22454 
L 93.699293 -168.235742 
L 93.699293 -167.246944 
L 93.748596 -166.258146 
L 93.748596 -165.269348 
L 93.748596 -164.28055 
L 93.748596 -163.291752 
L 93.699293 -162.302954 
L 93.699293 -161.314156 
L 93.699293 -160.325358 
L 93.699293 -159.33656 
L 93.699293 -158.347762 
L 93.699293 -157.358964 
L 93.699293 -156.370166 
L 93.699293 -155.381368 
L 93.699293 -154.392571 
L 93.699293 -153.403773 
L 93.699293 -152.414975 
L 93.699293 -151.426177 
L 93.694927 -150.437379 
L 93.694927 -149.448581 
L 93.694927 -148.459783 
L 93.694927 -147.470985 
L 93.694927 -146.482187 
L 93.694927 -145.493389 
L 93.694927 -144.504591 
L 93.699293 -143.515793 
L 93.748596 -142.526995 
L 93.748596 -141.538197 
L 93.748596 -140.5494 
L 93.699293 -139.560602 
L 93.770497 -138.571804 
L 93.770497 -137.583006 
L 93.82755 -136.594208 
L 93.82755 -135.60541 
L 93.82755 -134.616612 
L 93.82755 -133.627814 
L 93.82755 -132.639016 
L 93.82755 -131.650218 
L 93.866609 -130.66142 
L 93.866609 -129.672622 
L 93.866609 -128.683824 
L 93.866609 -127.695026 
L 93.942526 -126.706228 
L 93.942526 -125.717431 
L 93.942526 -124.728633 
L 93.942526 -123.739835 
L 93.942526 -122.751037 
L 93.942526 -121.762239 
L 93.942526 -120.773441 
L 93.942526 -119.784643 
L 93.942526 -118.795845 
L 93.942526 -117.807047 
L 93.942526 -116.818249 
L 93.942526 -115.829451 
L 93.942526 -114.840653 
L 93.942526 -113.851855 
L 93.942526 -112.863057 
L 93.942526 -111.874259 
L 93.942526 -110.885462 
L 93.942526 -109.896664 
L 93.942526 -108.907866 
L 94.047007 -107.919068 
L 94.047007 -106.93027 
L 94.047007 -105.941472 
L 94.047007 -104.952674 
L 94.047007 -103.963876 
L 94.047007 -102.975078 
L 94.047007 -101.98628 
L 94.047007 -100.997482 
L 94.047007 -100.008684 
L 94.047007 -99.019886 
L 84.797792 -99.019886 
L 84.797792 -99.019886 
L 84.797792 -100.008684 
L 84.797792 -100.997482 
L 84.797792 -101.98628 
L 84.797792 -102.975078 
L 84.797792 -103.963876 
L 84.797792 -104.952674 
L 84.797792 -105.941472 
L 84.797792 -106.93027 
L 84.797792 -107.919068 
L 84.77167 -108.907866 
L 84.77167 -109.896664 
L 84.77167 -110.885462 
L 84.77167 -111.874259 
L 84.77167 -112.863057 
L 84.77167 -113.851855 
L 84.77167 -114.840653 
L 84.77167 -115.829451 
L 84.77167 -116.818249 
L 84.77167 -117.807047 
L 84.77167 -118.795845 
L 84.77167 -119.784643 
L 84.77167 -120.773441 
L 84.77167 -121.762239 
L 84.77167 -122.751037 
L 84.77167 -123.739835 
L 84.77167 -124.728633 
L 84.77167 -125.717431 
L 84.77167 -126.706228 
L 84.650492 -127.695026 
L 84.588903 -128.683824 
L 84.588903 -129.672622 
L 84.588903 -130.66142 
L 84.540182 -131.650218 
L 84.455631 -132.639016 
L 84.455631 -133.627814 
L 84.455631 -134.616612 
L 84.455631 -135.60541 
L 84.455631 -136.594208 
L 84.443388 -137.583006 
L 84.443388 -138.571804 
L 84.369186 -139.560602 
L 84.410612 -140.5494 
L 84.410612 -141.538197 
L 84.410612 -142.526995 
L 84.369186 -143.515793 
L 84.313952 -144.504591 
L 84.313952 -145.493389 
L 84.313952 -146.482187 
L 84.313952 -147.470985 
L 84.313952 -148.459783 
L 84.313952 -149.448581 
L 84.313952 -150.437379 
L 84.313952 -151.426177 
L 84.313952 -152.414975 
L 84.313952 -153.403773 
L 84.313952 -154.392571 
L 84.313952 -155.381368 
L 84.313952 -156.370166 
L 84.313952 -157.358964 
L 84.112684 -158.347762 
L 84.090547 -159.33656 
L 84.090547 -160.325358 
L 84.090547 -161.314156 
L 84.090547 -162.302954 
L 84.112684 -163.291752 
L 84.112684 -164.28055 
L 84.090547 -165.269348 
L 84.090547 -166.258146 
L 84.050286 -167.246944 
L 84.050286 -168.235742 
L 84.050286 -169.22454 
L 84.035465 -170.213337 
L 84.035465 -171.202135 
L 84.035465 -172.190933 
L 84.035465 -173.179731 
L 84.035465 -174.168529 
L 84.035465 -175.157327 
L 84.050286 -176.146125 
L 84.050286 -177.134923 
L 84.035465 -178.123721 
L 84.035465 -179.112519 
L 83.993103 -180.101317 
L 84.035465 -181.090115 
L 83.993103 -182.078913 
L 83.979679 -183.067711 
L 83.979679 -184.056509 
L 83.964424 -185.045306 
L 83.964424 -186.034104 
L 83.993103 -187.022902 
L 83.993103 -188.0117 
L 83.918647 -189.000498 
L 83.918647 -189.989296 
L 83.86001 -190.978094 
L 83.706702 -191.966892 
L 83.706702 -192.95569 
L 83.56425 -193.944488 
L 83.56425 -194.933286 
L 83.56425 -195.922084 
L 83.56425 -196.910882 
L 83.56425 -197.89968 
L 83.56425 -198.888477 
L 83.485848 -199.877275 
L 83.485848 -200.866073 
L 83.464902 -201.854871 
L 83.464902 -202.843669 
L 83.420909 -203.832467 
L 83.30923 -204.821265 
L 83.261724 -205.810063 
L 83.162943 -206.798861 
L 83.261724 -207.787659 
L 83.261724 -208.776457 
L 83.162943 -209.765255 
L 83.162943 -210.754053 
L 82.631695 -211.742851 
L 82.631695 -212.731649 
L 81.476422 -213.720446 
L 81.476422 -214.709244 
L 81.476422 -215.698042 
L 81.476422 -216.68684 
L 81.476422 -217.675638 
L 81.189223 -218.664436 
L 80.692652 -219.653234 
L 80.692652 -220.642032 
L 80.692652 -221.63083 
L 80.692652 -222.619628 
L 80.692652 -223.608426 
L 80.447554 -224.597224 
L 80.447554 -225.586022 
L 80.447554 -226.57482 
L 79.98583 -227.563618 
L 79.583331 -228.552415 
L 79.583331 -229.541213 
L 78.724869 -230.530011 
L 78.457102 -231.518809 
L 78.396716 -232.507607 
L 77.526611 -233.496405 
L 77.526611 -234.485203 
L 76.754934 -235.474001 
L 74.927336 -236.462799 
L 73.651587 -237.451597 
L 73.651587 -238.440395 
L 73.154718 -239.429193 
L 72.460328 -240.417991 
L 72.460328 -241.406789 
L 72.460328 -242.395586 
L 72.460328 -243.384384 
L 72.460328 -244.373182 
L 72.460328 -245.36198 
L 72.460328 -246.350778 
L 72.044247 -247.339576 
L 72.044247 -248.328374 
L 72.044247 -249.317172 
L 72.044247 -250.30597 
L 72.044247 -251.294768 
L 70.743212 -252.283566 
L 70.62536 -253.272364 
L 70.62536 -254.261162 
L 70.62536 -255.24996 
L 70.046957 -256.238758 
L 70.046957 -257.227555 
L 70.046957 -258.216353 
L 70.046957 -259.205151 
L 70.046957 -260.193949 
L 70.046957 -261.182747 
L 70.046957 -262.171545 
L 69.790102 -263.160343 
L 69.762213 -264.149141 
L 69.762213 -265.137939 
L 69.762213 -266.126737 
L 69.411645 -267.115535 
L 68.316404 -268.104333 
L 68.316404 -269.093131 
L 68.224135 -270.081929 
L 67.947199 -271.070727 
L 67.947199 -272.059524 
L 66.780878 -273.048322 
L 66.780878 -274.03712 
L 66.221638 -275.025918 
L 65.226542 -276.014716 
L 65.164082 -277.003514 
L 65.164082 -277.992312 
L 64.259639 -278.98111 
L 64.259639 -279.969908 
L 63.1788 -280.958706 
L 63.1788 -281.947504 
L 63.1788 -282.936302 
L 62.079374 -283.9251 
L 62.041752 -284.913898 
L 61.962735 -285.902695 
L 61.962735 -286.891493 
L 61.962735 -287.880291 
L 61.962735 -288.869089 
L 61.962735 -289.857887 
L 61.962735 -290.846685 
L 62.041752 -291.835483 
L 62.387383 -292.824281 
L 62.387383 -293.813079 
L 65.226542 -294.801877 
L 67.961825 -295.790675 
L 68.224135 -296.779473 
L 68.685008 -297.768271 
L 70.046957 -298.757069 
L 72.460328 -299.745867 
L 75.197737 -300.734664 
L 76.814052 -301.723462 
L 77.541176 -302.71226 
L 78.39834 -303.701058 
L 79.580455 -304.689856 
L 80.992095 -305.678654 
L 80.992095 -306.667452 
L 81.309996 -307.65625 
L 83.986453 -308.645048 
L 84.915647 -309.633846 
L 85.536062 -310.622644 
L 85.58797 -311.611442 
L 85.818377 -312.60024 
L 86.006847 -313.589038 
L 86.151617 -314.577836 
L 86.314233 -315.566633 
L 86.754264 -316.555431 
L 86.9074 -317.544229 
L 87.412952 -318.533027 
L 87.889623 -319.521825 
L 88.221144 -320.510623 
L 88.221144 -321.499421 
L 88.383228 -322.488219 
L 88.440661 -323.477017 
L 88.542248 -324.465815 
L 88.55152 -325.454613 
L 88.637499 -326.443411 
L 88.849911 -327.432209 
L 88.99224 -328.421007 
L 89.116613 -329.409805 
L 89.410683 -330.398602 
L 89.608142 -331.3874 
L 89.704093 -332.376198 
L 89.771211 -333.364996 
L 89.857252 -334.353794 
L 89.983395 -335.342592 
L 90.144813 -336.33139 
L 90.28638 -337.320188 
L 90.348587 -338.308986 
L 90.496344 -339.297784 
L 90.53777 -340.286582 
L 90.841496 -341.27538 
L 91.062938 -342.264178 
L 91.236654 -343.252976 
L 91.500573 -344.241773 
L 91.664117 -345.230571 
L 91.814374 -346.219369 
L 91.882357 -347.208167 
L 92.297696 -348.196965 
L 92.441133 -349.185763 
L 92.725154 -350.174561 
L 93.755447 -351.163359 
L 94.31993 -352.152157 
L 94.366168 -353.140955 
L 98.587106 -354.129753 
L 117.802151 -355.118551 
L 123.690773 -356.107349 
L 128.197983 -357.096147 
L 129.167292 -358.084945 
L 131.889498 -359.073742 
L 132.885774 -360.06254 
L 136.793782 -361.051338 
L 139.377203 -362.040136 
L 140.155405 -363.028934 
L 141.318494 -364.017732 
L 142.609042 -365.00653 
L 145.566337 -365.995328 
L 146.32099 -366.984126 
L 147.788173 -367.972924 
L 149.355783 -368.961722 
L 149.584364 -369.95052 
L 150.174471 -370.939318 
L 150.233289 -371.928116 
L 152.102342 -372.916914 
L 152.102342 -373.905711 
L 152.102342 -374.894509 
L 154.268419 -375.883307 
L 155.200432 -376.872105 
L 156.237247 -377.860903 
L 158.617584 -378.849701 
L 158.78499 -379.838499 
L 161.833255 -380.827297 
L 164.298743 -381.816095 
L 164.585044 -382.804893 
L 166.331289 -383.793691 
L 166.774993 -384.782489 
L 168.19165 -385.771287 
L 169.508513 -386.760085 
L 171.688399 -387.748882 
L 172.229629 -388.73768 
L 172.544946 -389.726478 
L 172.652943 -390.715276 
L 172.84852 -391.704074 
L 173.647574 -392.692872 
L 173.829559 -393.68167 
L 174.476687 -394.670468 
L 174.815211 -395.659266 
L 174.992956 -396.648064 
L 176.866315 -397.636862 
L 177.100345 -398.62566 
L 178.592331 -399.614458 
L 178.929806 -400.603256 
L 178.929806 -401.592054 
L 180.066635 -402.580851 
L 180.066635 -403.569649 
L 180.853136 -404.558447 
L 182.102653 -405.547245 
L 182.306818 -406.536043 
L 183.192131 -407.524841 
L 184.560234 -408.513639 
L 185.725302 -409.502437 
L 185.935067 -410.491235 
L 186.195026 -411.480033 
L 186.433254 -412.468831 
L 188.457135 -413.457629 
L 190.015811 -414.446427 
L 190.876437 -415.435225 
L 190.015811 -416.424023 
L 191.477382 -417.41282 
L 191.795158 -418.401618 
L 191.795158 -419.390416 
L 193.317112 -420.379214 
L 193.50343 -421.368012 
L 193.50343 -422.35681 
L 193.50343 -423.345608 
L 194.68011 -424.334406 
L 193.674739 -425.323204 
L 195.66541 -426.312002 
L 195.66541 -427.3008 
L 196.026733 -428.289598 
L 196.387061 -429.278396 
L 196.532349 -430.267194 
L 196.532349 -431.255991 
L 196.532349 -432.244789 
L 196.666286 -433.233587 
L 197.06278 -434.222385 
L 197.538845 -435.211183 
L 197.592188 -436.199981 
L 197.592188 -437.188779 
L 197.538845 -438.177577 
L 197.538845 -439.166375 
L 197.538845 -440.155173 
L 197.480864 -441.143971 
L 197.06278 -442.132769 
L 197.06278 -443.121567 
L 197.06278 -444.110365 
L 197.06278 -445.099163 
L 197.480864 -446.08796 
L 197.592188 -447.076758 
L 197.592188 -448.065556 
L 197.538845 -449.054354 
L 197.592188 -450.043152 
L 197.538845 -451.03195 
L 197.538845 -452.020748 
L 197.592188 -453.009546 
L 197.480864 -453.998344 
L 197.538845 -454.987142 
L 197.538845 -455.97594 
L 197.538845 -456.964738 
L 197.06278 -457.953536 
L 197.06278 -458.942334 
L 197.480864 -459.931132 
L 197.480864 -460.919929 
L 197.23355 -461.908727 
L 197.06278 -462.897525 
L 196.666286 -463.886323 
L 196.532349 -464.875121 
L 196.532349 -465.863919 
L 196.532349 -466.852717 
L 196.532349 -467.841515 
L 196.666286 -468.830313 
L 196.532349 -469.819111 
L 196.532349 -470.807909 
L 196.532349 -471.796707 
L 196.332745 -472.785505 
L 196.332745 -473.774303 
L 196.171744 -474.7631 
L 196.171744 -475.751898 
L 195.052052 -476.740696 
L 193.561687 -477.729494 
L 190.799693 -478.718292 
L 186.257075 -479.70709 
L 151.941143 -480.695888 
L 146.679848 -481.684686 
L 146.062916 -482.673484 
L 145.647218 -483.662282 
L 145.355042 -484.65108 
L 144.94905 -485.639878 
L 144.94905 -486.628676 
L 144.38125 -487.617474 
L 144.09256 -488.606272 
L 143.625085 -489.595069 
L 143.423958 -490.583867 
L 143.408311 -491.572665 
L 143.065554 -492.561463 
L 142.75478 -493.550261 
L 142.613645 -494.539059 
L 142.458787 -495.527857 
L 142.458787 -496.516655 
L 142.260316 -497.505453 
L 142.236503 -498.494251 
L 142.023172 -499.483049 
L 141.855891 -500.471847 
L 141.649615 -501.460645 
L 141.522063 -502.449443 
L 141.481009 -503.438241 
L 141.481009 -504.427038 
L 141.268173 -505.415836 
L 141.268173 -506.404634 
L 141.268173 -507.393432 
L 141.094009 -508.38223 
L 141.268173 -509.371028 
L 141.268173 -510.359826 
L 141.363388 -511.348624 
L 141.268173 -512.337422 
L 141.353797 -513.32622 
L 141.353797 -514.315018 
L 141.240149 -515.303816 
L 141.240149 -516.292614 
z
" style="stroke: #fecc5c; stroke-opacity: 0.5"/>
    </defs>
    <g clip-path="url(#p487a8bb3c5)">
     <use xlink:href="#m4dd64dd4d7" x="0" y="544.35625" style="fill: #fecc5c; fill-opacity: 0.5; stroke: #fecc5c; stroke-opacity: 0.5"/>
    </g>
   </g>
   <g id="matplotlib.axis_1">
    <g id="xtick_1">
     <g id="line2d_1">
      <defs>
       <path id="md7d9b4fb25" d="M 0 0 
L 0 3.5 
" style="stroke: #000000; stroke-width: 1.5"/>
      </defs>
      <g>
       <use xlink:href="#md7d9b4fb25" x="95.156202" y="476.2" style="stroke: #000000; stroke-width: 1.5"/>
      </g>
     </g>
     <g id="text_1">
      <!-- 400 -->
      <g transform="translate(76.068702 498.396875) scale(0.2 -0.2)">
       <defs>
        <path id="DejaVuSans-34" d="M 2419 4116 
L 825 1625 
L 2419 1625 
L 2419 4116 
z
M 2253 4666 
L 3047 4666 
L 3047 1625 
L 3713 1625 
L 3713 1100 
L 3047 1100 
L 3047 0 
L 2419 0 
L 2419 1100 
L 313 1100 
L 313 1709 
L 2253 4666 
z
" transform="scale(0.015625)"/>
        <path id="DejaVuSans-30" d="M 2034 4250 
Q 1547 4250 1301 3770 
Q 1056 3291 1056 2328 
Q 1056 1369 1301 889 
Q 1547 409 2034 409 
Q 2525 409 2770 889 
Q 3016 1369 3016 2328 
Q 3016 3291 2770 3770 
Q 2525 4250 2034 4250 
z
M 2034 4750 
Q 2819 4750 3233 4129 
Q 3647 3509 3647 2328 
Q 3647 1150 3233 529 
Q 2819 -91 2034 -91 
Q 1250 -91 836 529 
Q 422 1150 422 2328 
Q 422 3509 836 4129 
Q 1250 4750 2034 4750 
z
" transform="scale(0.015625)"/>
       </defs>
       <use xlink:href="#DejaVuSans-34"/>
       <use xlink:href="#DejaVuSans-30" x="63.623047"/>
       <use xlink:href="#DejaVuSans-30" x="127.246094"/>
      </g>
     </g>
    </g>
    <g id="xtick_2">
     <g id="line2d_2">
      <g>
       <use xlink:href="#md7d9b4fb25" x="182.523046" y="476.2" style="stroke: #000000; stroke-width: 1.5"/>
      </g>
     </g>
     <g id="text_2">
      <!-- 600 -->
      <g transform="translate(163.435546 498.396875) scale(0.2 -0.2)">
       <defs>
        <path id="DejaVuSans-36" d="M 2113 2584 
Q 1688 2584 1439 2293 
Q 1191 2003 1191 1497 
Q 1191 994 1439 701 
Q 1688 409 2113 409 
Q 2538 409 2786 701 
Q 3034 994 3034 1497 
Q 3034 2003 2786 2293 
Q 2538 2584 2113 2584 
z
M 3366 4563 
L 3366 3988 
Q 3128 4100 2886 4159 
Q 2644 4219 2406 4219 
Q 1781 4219 1451 3797 
Q 1122 3375 1075 2522 
Q 1259 2794 1537 2939 
Q 1816 3084 2150 3084 
Q 2853 3084 3261 2657 
Q 3669 2231 3669 1497 
Q 3669 778 3244 343 
Q 2819 -91 2113 -91 
Q 1303 -91 875 529 
Q 447 1150 447 2328 
Q 447 3434 972 4092 
Q 1497 4750 2381 4750 
Q 2619 4750 2861 4703 
Q 3103 4656 3366 4563 
z
" transform="scale(0.015625)"/>
       </defs>
       <use xlink:href="#DejaVuSans-36"/>
       <use xlink:href="#DejaVuSans-30" x="63.623047"/>
       <use xlink:href="#DejaVuSans-30" x="127.246094"/>
      </g>
     </g>
    </g>
    <g id="xtick_3">
     <g id="line2d_3">
      <g>
       <use xlink:href="#md7d9b4fb25" x="269.88989" y="476.2" style="stroke: #000000; stroke-width: 1.5"/>
      </g>
     </g>
     <g id="text_3">
      <!-- 800 -->
      <g transform="translate(250.80239 498.396875) scale(0.2 -0.2)">
       <defs>
        <path id="DejaVuSans-38" d="M 2034 2216 
Q 1584 2216 1326 1975 
Q 1069 1734 1069 1313 
Q 1069 891 1326 650 
Q 1584 409 2034 409 
Q 2484 409 2743 651 
Q 3003 894 3003 1313 
Q 3003 1734 2745 1975 
Q 2488 2216 2034 2216 
z
M 1403 2484 
Q 997 2584 770 2862 
Q 544 3141 544 3541 
Q 544 4100 942 4425 
Q 1341 4750 2034 4750 
Q 2731 4750 3128 4425 
Q 3525 4100 3525 3541 
Q 3525 3141 3298 2862 
Q 3072 2584 2669 2484 
Q 3125 2378 3379 2068 
Q 3634 1759 3634 1313 
Q 3634 634 3220 271 
Q 2806 -91 2034 -91 
Q 1263 -91 848 271 
Q 434 634 434 1313 
Q 434 1759 690 2068 
Q 947 2378 1403 2484 
z
M 1172 3481 
Q 1172 3119 1398 2916 
Q 1625 2713 2034 2713 
Q 2441 2713 2670 2916 
Q 2900 3119 2900 3481 
Q 2900 3844 2670 4047 
Q 2441 4250 2034 4250 
Q 1625 4250 1398 4047 
Q 1172 3844 1172 3481 
z
" transform="scale(0.015625)"/>
       </defs>
       <use xlink:href="#DejaVuSans-38"/>
       <use xlink:href="#DejaVuSans-30" x="63.623047"/>
       <use xlink:href="#DejaVuSans-30" x="127.246094"/>
      </g>
     </g>
    </g>
    <g id="text_4">
     <!-- Resistivity  [$\Omega m$] -->
     <g transform="translate(90.35 532.75625) scale(0.2 -0.2)">
      <defs>
       <path id="DejaVuSans-Bold-52" d="M 2297 2597 
Q 2675 2597 2839 2737 
Q 3003 2878 3003 3200 
Q 3003 3519 2839 3656 
Q 2675 3794 2297 3794 
L 1791 3794 
L 1791 2597 
L 2297 2597 
z
M 1791 1766 
L 1791 0 
L 588 0 
L 588 4666 
L 2425 4666 
Q 3347 4666 3776 4356 
Q 4206 4047 4206 3378 
Q 4206 2916 3982 2619 
Q 3759 2322 3309 2181 
Q 3556 2125 3751 1926 
Q 3947 1728 4147 1325 
L 4800 0 
L 3519 0 
L 2950 1159 
Q 2778 1509 2601 1637 
Q 2425 1766 2131 1766 
L 1791 1766 
z
" transform="scale(0.015625)"/>
       <path id="DejaVuSans-Bold-65" d="M 4031 1759 
L 4031 1441 
L 1416 1441 
Q 1456 1047 1700 850 
Q 1944 653 2381 653 
Q 2734 653 3104 758 
Q 3475 863 3866 1075 
L 3866 213 
Q 3469 63 3072 -14 
Q 2675 -91 2278 -91 
Q 1328 -91 801 392 
Q 275 875 275 1747 
Q 275 2603 792 3093 
Q 1309 3584 2216 3584 
Q 3041 3584 3536 3087 
Q 4031 2591 4031 1759 
z
M 2881 2131 
Q 2881 2450 2695 2645 
Q 2509 2841 2209 2841 
Q 1884 2841 1681 2658 
Q 1478 2475 1428 2131 
L 2881 2131 
z
" transform="scale(0.015625)"/>
       <path id="DejaVuSans-Bold-73" d="M 3272 3391 
L 3272 2541 
Q 2913 2691 2578 2766 
Q 2244 2841 1947 2841 
Q 1628 2841 1473 2761 
Q 1319 2681 1319 2516 
Q 1319 2381 1436 2309 
Q 1553 2238 1856 2203 
L 2053 2175 
Q 2913 2066 3209 1816 
Q 3506 1566 3506 1031 
Q 3506 472 3093 190 
Q 2681 -91 1863 -91 
Q 1516 -91 1145 -36 
Q 775 19 384 128 
L 384 978 
Q 719 816 1070 734 
Q 1422 653 1784 653 
Q 2113 653 2278 743 
Q 2444 834 2444 1013 
Q 2444 1163 2330 1236 
Q 2216 1309 1875 1350 
L 1678 1375 
Q 931 1469 631 1722 
Q 331 1975 331 2491 
Q 331 3047 712 3315 
Q 1094 3584 1881 3584 
Q 2191 3584 2531 3537 
Q 2872 3491 3272 3391 
z
" transform="scale(0.015625)"/>
       <path id="DejaVuSans-Bold-69" d="M 538 3500 
L 1656 3500 
L 1656 0 
L 538 0 
L 538 3500 
z
M 538 4863 
L 1656 4863 
L 1656 3950 
L 538 3950 
L 538 4863 
z
" transform="scale(0.015625)"/>
       <path id="DejaVuSans-Bold-74" d="M 1759 4494 
L 1759 3500 
L 2913 3500 
L 2913 2700 
L 1759 2700 
L 1759 1216 
Q 1759 972 1856 886 
Q 1953 800 2241 800 
L 2816 800 
L 2816 0 
L 1856 0 
Q 1194 0 917 276 
Q 641 553 641 1216 
L 641 2700 
L 84 2700 
L 84 3500 
L 641 3500 
L 641 4494 
L 1759 4494 
z
" transform="scale(0.015625)"/>
       <path id="DejaVuSans-Bold-76" d="M 97 3500 
L 1216 3500 
L 2088 1081 
L 2956 3500 
L 4078 3500 
L 2700 0 
L 1472 0 
L 97 3500 
z
" transform="scale(0.015625)"/>
       <path id="DejaVuSans-Bold-79" d="M 78 3500 
L 1197 3500 
L 2138 1125 
L 2938 3500 
L 4056 3500 
L 2584 -331 
Q 2363 -916 2067 -1148 
Q 1772 -1381 1288 -1381 
L 641 -1381 
L 641 -647 
L 991 -647 
Q 1275 -647 1404 -556 
Q 1534 -466 1606 -231 
L 1638 -134 
L 78 3500 
z
" transform="scale(0.015625)"/>
       <path id="DejaVuSans-Bold-20" transform="scale(0.015625)"/>
       <path id="DejaVuSans-Bold-5b" d="M 550 4863 
L 2491 4863 
L 2491 4159 
L 1613 4159 
L 1613 -141 
L 2491 -141 
L 2491 -844 
L 550 -844 
L 550 4863 
z
" transform="scale(0.015625)"/>
       <path id="DejaVuSans-Bold-3a9" d="M 2719 4750 
Q 3841 4750 4480 4106 
Q 5119 3463 5119 2494 
Q 5119 1406 4306 909 
L 5266 909 
L 5266 0 
L 3125 0 
L 3125 975 
Q 3244 1041 3334 1131 
Q 3875 1678 3875 2466 
Q 3875 3066 3572 3472 
Q 3269 3878 2719 3878 
Q 2169 3878 1866 3472 
Q 1563 3066 1563 2466 
Q 1563 1678 2103 1131 
Q 2194 1041 2313 975 
L 2313 0 
L 172 0 
L 172 909 
L 1131 909 
Q 319 1406 319 2494 
Q 319 3463 958 4106 
Q 1597 4750 2719 4750 
z
" transform="scale(0.015625)"/>
       <path id="DejaVuSans-Bold-6d" d="M 3781 2919 
Q 3994 3244 4286 3414 
Q 4578 3584 4928 3584 
Q 5531 3584 5847 3212 
Q 6163 2841 6163 2131 
L 6163 0 
L 5038 0 
L 5038 1825 
Q 5041 1866 5042 1909 
Q 5044 1953 5044 2034 
Q 5044 2406 4934 2573 
Q 4825 2741 4581 2741 
Q 4263 2741 4089 2478 
Q 3916 2216 3909 1719 
L 3909 0 
L 2784 0 
L 2784 1825 
Q 2784 2406 2684 2573 
Q 2584 2741 2328 2741 
Q 2006 2741 1831 2477 
Q 1656 2213 1656 1722 
L 1656 0 
L 531 0 
L 531 3500 
L 1656 3500 
L 1656 2988 
Q 1863 3284 2130 3434 
Q 2397 3584 2719 3584 
Q 3081 3584 3359 3409 
Q 3638 3234 3781 2919 
z
" transform="scale(0.015625)"/>
       <path id="DejaVuSans-Bold-5d" d="M 2375 -844 
L 434 -844 
L 434 -141 
L 1313 -141 
L 1313 4159 
L 434 4159 
L 434 4863 
L 2375 4863 
L 2375 -844 
z
" transform="scale(0.015625)"/>
      </defs>
      <use xlink:href="#DejaVuSans-Bold-52" transform="translate(0 0.015625)"/>
      <use xlink:href="#DejaVuSans-Bold-65" transform="translate(77.001953 0.015625)"/>
      <use xlink:href="#DejaVuSans-Bold-73" transform="translate(144.824219 0.015625)"/>
      <use xlink:href="#DejaVuSans-Bold-69" transform="translate(204.345703 0.015625)"/>
      <use xlink:href="#DejaVuSans-Bold-73" transform="translate(238.623047 0.015625)"/>
      <use xlink:href="#DejaVuSans-Bold-74" transform="translate(298.144531 0.015625)"/>
      <use xlink:href="#DejaVuSans-Bold-69" transform="translate(345.947266 0.015625)"/>
      <use xlink:href="#DejaVuSans-Bold-76" transform="translate(380.224609 0.015625)"/>
      <use xlink:href="#DejaVuSans-Bold-69" transform="translate(445.410156 0.015625)"/>
      <use xlink:href="#DejaVuSans-Bold-74" transform="translate(479.6875 0.015625)"/>
      <use xlink:href="#DejaVuSans-Bold-79" transform="translate(527.490234 0.015625)"/>
      <use xlink:href="#DejaVuSans-Bold-20" transform="translate(592.675781 0.015625)"/>
      <use xlink:href="#DejaVuSans-Bold-20" transform="translate(627.490234 0.015625)"/>
      <use xlink:href="#DejaVuSans-Bold-5b" transform="translate(662.304688 0.015625)"/>
      <use xlink:href="#DejaVuSans-Bold-3a9" transform="translate(708.007812 0.015625)"/>
      <use xlink:href="#DejaVuSans-Bold-6d" transform="translate(793.017578 0.015625)"/>
      <use xlink:href="#DejaVuSans-Bold-5d" transform="translate(897.216797 0.015625)"/>
     </g>
    </g>
   </g>
   <g id="matplotlib.axis_2">
    <g id="ytick_1">
     <g id="line2d_4">
      <defs>
       <path id="md6d87b3c6d" d="M 0 0 
L -3.5 0 
" style="stroke: #000000; stroke-width: 1.5"/>
      </defs>
      <g>
       <use xlink:href="#md6d87b3c6d" x="39.65" y="28.063636" style="stroke: #000000; stroke-width: 1.5"/>
      </g>
     </g>
     <g id="text_5">
      <!-- 0 -->
      <g transform="translate(19.925 35.662074) scale(0.2 -0.2)">
       <use xlink:href="#DejaVuSans-30"/>
      </g>
     </g>
    </g>
    <g id="ytick_2">
     <g id="line2d_5">
      <g>
       <use xlink:href="#md6d87b3c6d" x="39.65" y="126.94343" style="stroke: #000000; stroke-width: 1.5"/>
      </g>
     </g>
     <g id="text_6">
      <!-- 10 -->
      <g transform="translate(7.2 134.541867) scale(0.2 -0.2)">
       <defs>
        <path id="DejaVuSans-31" d="M 794 531 
L 1825 531 
L 1825 4091 
L 703 3866 
L 703 4441 
L 1819 4666 
L 2450 4666 
L 2450 531 
L 3481 531 
L 3481 0 
L 794 0 
L 794 531 
z
" transform="scale(0.015625)"/>
       </defs>
       <use xlink:href="#DejaVuSans-31"/>
       <use xlink:href="#DejaVuSans-30" x="63.623047"/>
      </g>
     </g>
    </g>
    <g id="ytick_3">
     <g id="line2d_6">
      <g>
       <use xlink:href="#md6d87b3c6d" x="39.65" y="225.823223" style="stroke: #000000; stroke-width: 1.5"/>
      </g>
     </g>
     <g id="text_7">
      <!-- 20 -->
      <g transform="translate(7.2 233.42166) scale(0.2 -0.2)">
       <defs>
        <path id="DejaVuSans-32" d="M 1228 531 
L 3431 531 
L 3431 0 
L 469 0 
L 469 531 
Q 828 903 1448 1529 
Q 2069 2156 2228 2338 
Q 2531 2678 2651 2914 
Q 2772 3150 2772 3378 
Q 2772 3750 2511 3984 
Q 2250 4219 1831 4219 
Q 1534 4219 1204 4116 
Q 875 4013 500 3803 
L 500 4441 
Q 881 4594 1212 4672 
Q 1544 4750 1819 4750 
Q 2544 4750 2975 4387 
Q 3406 4025 3406 3419 
Q 3406 3131 3298 2873 
Q 3191 2616 2906 2266 
Q 2828 2175 2409 1742 
Q 1991 1309 1228 531 
z
" transform="scale(0.015625)"/>
       </defs>
       <use xlink:href="#DejaVuSans-32"/>
       <use xlink:href="#DejaVuSans-30" x="63.623047"/>
      </g>
     </g>
    </g>
    <g id="ytick_4">
     <g id="line2d_7">
      <g>
       <use xlink:href="#md6d87b3c6d" x="39.65" y="324.703016" style="stroke: #000000; stroke-width: 1.5"/>
      </g>
     </g>
     <g id="text_8">
      <!-- 30 -->
      <g transform="translate(7.2 332.301453) scale(0.2 -0.2)">
       <defs>
        <path id="DejaVuSans-33" d="M 2597 2516 
Q 3050 2419 3304 2112 
Q 3559 1806 3559 1356 
Q 3559 666 3084 287 
Q 2609 -91 1734 -91 
Q 1441 -91 1130 -33 
Q 819 25 488 141 
L 488 750 
Q 750 597 1062 519 
Q 1375 441 1716 441 
Q 2309 441 2620 675 
Q 2931 909 2931 1356 
Q 2931 1769 2642 2001 
Q 2353 2234 1838 2234 
L 1294 2234 
L 1294 2753 
L 1863 2753 
Q 2328 2753 2575 2939 
Q 2822 3125 2822 3475 
Q 2822 3834 2567 4026 
Q 2313 4219 1838 4219 
Q 1578 4219 1281 4162 
Q 984 4106 628 3988 
L 628 4550 
Q 988 4650 1302 4700 
Q 1616 4750 1894 4750 
Q 2613 4750 3031 4423 
Q 3450 4097 3450 3541 
Q 3450 3153 3228 2886 
Q 3006 2619 2597 2516 
z
" transform="scale(0.015625)"/>
       </defs>
       <use xlink:href="#DejaVuSans-33"/>
       <use xlink:href="#DejaVuSans-30" x="63.623047"/>
      </g>
     </g>
    </g>
    <g id="ytick_5">
     <g id="line2d_8">
      <g>
       <use xlink:href="#md6d87b3c6d" x="39.65" y="423.582809" style="stroke: #000000; stroke-width: 1.5"/>
      </g>
     </g>
     <g id="text_9">
      <!-- 40 -->
      <g transform="translate(7.2 431.181247) scale(0.2 -0.2)">
       <use xlink:href="#DejaVuSans-34"/>
       <use xlink:href="#DejaVuSans-30" x="63.623047"/>
      </g>
     </g>
    </g>
   </g>
   <g id="line2d_9">
    <path d="M 141.059536 28.063636 
L 141.059536 49.817191 
L 184.281075 49.817191 
L 184.281075 104.201077 
L 237.118312 104.201077 
L 237.118312 195.170487 
L 92.441239 195.170487 
L 92.441239 445.336364 
L 92.441239 445.336364 
" clip-path="url(#p487a8bb3c5)" style="fill: none; stroke: #fecc5c; stroke-opacity: 0.3; stroke-width: 2; stroke-linecap: square"/>
   </g>
   <g id="line2d_10">
    <path d="M 144.747738 28.063636 
L 144.747738 57.727574 
L 214.914101 57.727574 
L 214.914101 212.96885 
L 73.609216 212.96885 
L 73.609216 235.711202 
L 90.899828 235.711202 
L 90.899828 445.336364 
L 90.899828 445.336364 
" clip-path="url(#p487a8bb3c5)" style="fill: none; stroke: #fecc5c; stroke-opacity: 0.3; stroke-width: 2; stroke-linecap: square"/>
   </g>
   <g id="line2d_11">
    <path d="M 145.840383 28.063636 
L 145.840383 60.693968 
L 216.730653 60.693968 
L 216.730653 212.96885 
L 97.364996 212.96885 
L 97.364996 304.927057 
L 88.660733 304.927057 
L 88.660733 445.336364 
L 88.660733 445.336364 
" clip-path="url(#p487a8bb3c5)" style="fill: none; stroke: #fecc5c; stroke-opacity: 0.3; stroke-width: 2; stroke-linecap: square"/>
   </g>
   <g id="line2d_12">
    <path d="M 145.948658 28.063636 
L 145.948658 59.70517 
L 215.398474 59.70517 
L 215.398474 176.383326 
L 195.322817 176.383326 
L 195.322817 223.845627 
L 89.286109 223.845627 
L 89.286109 445.336364 
L 89.286109 445.336364 
" clip-path="url(#p487a8bb3c5)" style="fill: none; stroke: #fecc5c; stroke-opacity: 0.3; stroke-width: 2; stroke-linecap: square"/>
   </g>
   <g id="line2d_13">
    <path d="M 146.720824 28.063636 
L 146.720824 59.70517 
L 223.315347 59.70517 
L 223.315347 130.898621 
L 171.84455 130.898621 
L 171.84455 259.442352 
L 88.506398 259.442352 
L 88.506398 445.336364 
L 88.506398 445.336364 
" clip-path="url(#p487a8bb3c5)" style="fill: none; stroke: #fecc5c; stroke-opacity: 0.3; stroke-width: 2; stroke-linecap: square"/>
   </g>
   <g id="line2d_14">
    <path d="M 147.333362 28.063636 
L 147.333362 64.64916 
L 227.25696 64.64916 
L 227.25696 131.887419 
L 221.017835 131.887419 
L 221.017835 210.991254 
L 91.158879 210.991254 
L 91.158879 445.336364 
L 91.158879 445.336364 
" clip-path="url(#p487a8bb3c5)" style="fill: none; stroke: #fecc5c; stroke-opacity: 0.3; stroke-width: 2; stroke-linecap: square"/>
   </g>
   <g id="line2d_15">
    <path d="M 145.100879 28.063636 
L 145.100879 57.727574 
L 210.53712 57.727574 
L 210.53712 184.29371 
L 174.152888 184.29371 
L 174.152888 253.509565 
L 83.686971 253.509565 
L 83.686971 445.336364 
L 83.686971 445.336364 
" clip-path="url(#p487a8bb3c5)" style="fill: none; stroke: #fecc5c; stroke-opacity: 0.3; stroke-width: 2; stroke-linecap: square"/>
   </g>
   <g id="line2d_16">
    <path d="M 137.339753 28.063636 
L 137.339753 46.850797 
L 201.201735 46.850797 
L 201.201735 76.514735 
L 193.506451 76.514735 
L 193.506451 243.621586 
L 85.506723 243.621586 
L 85.506723 445.336364 
L 85.506723 445.336364 
" clip-path="url(#p487a8bb3c5)" style="fill: none; stroke: #fecc5c; stroke-opacity: 0.3; stroke-width: 2; stroke-linecap: square"/>
   </g>
   <g id="line2d_17">
    <path d="M 129.854114 28.063636 
L 129.854114 39.929212 
L 167.54697 39.929212 
L 167.54697 93.3243 
L 256.439054 93.3243 
L 256.439054 183.304912 
L 88.37554 183.304912 
L 88.37554 445.336364 
L 88.37554 445.336364 
" clip-path="url(#p487a8bb3c5)" style="fill: none; stroke: #fecc5c; stroke-opacity: 0.3; stroke-width: 2; stroke-linecap: square"/>
   </g>
   <g id="line2d_18">
    <path d="M 146.070745 28.063636 
L 146.070745 57.727574 
L 209.652333 57.727574 
L 209.652333 236.7 
L 74.953779 236.7 
L 74.953779 386.008488 
L 91.597219 386.008488 
L 91.597219 445.336364 
L 91.597219 445.336364 
" clip-path="url(#p487a8bb3c5)" style="fill: none; stroke: #fecc5c; stroke-opacity: 0.3; stroke-width: 2; stroke-linecap: square"/>
   </g>
   <g id="line2d_19">
    <path d="M 144.255099 28.063636 
L 144.255099 56.738776 
L 218.918477 56.738776 
L 218.918477 184.29371 
L 141.260196 184.29371 
L 141.260196 284.162301 
L 87.724595 284.162301 
L 87.724595 445.336364 
L 87.724595 445.336364 
" clip-path="url(#p487a8bb3c5)" style="fill: none; stroke: #fecc5c; stroke-opacity: 0.3; stroke-width: 2; stroke-linecap: square"/>
   </g>
   <g id="line2d_20">
    <path d="M 148.459762 28.063636 
L 148.459762 62.671564 
L 218.863499 62.671564 
L 218.863499 194.181689 
L 196.901968 194.181689 
L 196.901968 213.957648 
L 89.645876 213.957648 
L 89.645876 445.336364 
L 89.645876 445.336364 
" clip-path="url(#p487a8bb3c5)" style="fill: none; stroke: #fecc5c; stroke-opacity: 0.3; stroke-width: 2; stroke-linecap: square"/>
   </g>
   <g id="line2d_21">
    <path d="M 146.915991 28.063636 
L 146.915991 57.727574 
L 212.42598 57.727574 
L 212.42598 203.08087 
L 114.76571 203.08087 
L 114.76571 275.263119 
L 88.359409 275.263119 
L 88.359409 445.336364 
L 88.359409 445.336364 
" clip-path="url(#p487a8bb3c5)" style="fill: none; stroke: #fecc5c; stroke-opacity: 0.3; stroke-width: 2; stroke-linecap: square"/>
   </g>
   <g id="line2d_22">
    <path d="M 144.888381 28.063636 
L 144.888381 54.761181 
L 206.55986 54.761181 
L 206.55986 244.610383 
L 61.922727 244.610383 
L 61.922727 331.624601 
L 96.447788 331.624601 
L 96.447788 445.336364 
L 96.447788 445.336364 
" clip-path="url(#p487a8bb3c5)" style="fill: none; stroke: #fecc5c; stroke-opacity: 0.3; stroke-width: 2; stroke-linecap: square"/>
   </g>
   <g id="line2d_23">
    <path d="M 145.356943 28.063636 
L 145.356943 57.727574 
L 214.910608 57.727574 
L 214.910608 196.159285 
L 156.073139 196.159285 
L 156.073139 243.621586 
L 90.228766 243.621586 
L 90.228766 445.336364 
L 90.228766 445.336364 
" clip-path="url(#p487a8bb3c5)" style="fill: none; stroke: #fecc5c; stroke-opacity: 0.3; stroke-width: 2; stroke-linecap: square"/>
   </g>
   <g id="line2d_24">
    <path d="M 146.780174 28.063636 
L 146.780174 57.727574 
L 210.084795 57.727574 
L 210.084795 172.428134 
L 201.018805 172.428134 
L 201.018805 227.800819 
L 88.312591 227.800819 
L 88.312591 445.336364 
L 88.312591 445.336364 
" clip-path="url(#p487a8bb3c5)" style="fill: none; stroke: #fecc5c; stroke-opacity: 0.3; stroke-width: 2; stroke-linecap: square"/>
   </g>
   <g id="line2d_25">
    <path d="M 145.904959 28.063636 
L 145.904959 62.671564 
L 220.819681 62.671564 
L 220.819681 164.517751 
L 165.311447 164.517751 
L 165.311447 251.531969 
L 87.932574 251.531969 
L 87.932574 445.336364 
L 87.932574 445.336364 
" clip-path="url(#p487a8bb3c5)" style="fill: none; stroke: #fecc5c; stroke-opacity: 0.3; stroke-width: 2; stroke-linecap: square"/>
   </g>
   <g id="line2d_26">
    <path d="M 143.219111 28.063636 
L 143.219111 56.738776 
L 205.822275 56.738776 
L 205.822275 173.416932 
L 291.113037 173.416932 
L 291.113037 205.058466 
L 91.014409 205.058466 
L 91.014409 445.336364 
L 91.014409 445.336364 
" clip-path="url(#p487a8bb3c5)" style="fill: none; stroke: #fecc5c; stroke-opacity: 0.3; stroke-width: 2; stroke-linecap: square"/>
   </g>
   <g id="line2d_27">
    <path d="M 146.375814 28.063636 
L 146.375814 60.693968 
L 203.222386 60.693968 
L 203.222386 120.021844 
L 307.377273 120.021844 
L 307.377273 174.40573 
L 93.524673 174.40573 
L 93.524673 445.336364 
L 93.524673 445.336364 
" clip-path="url(#p487a8bb3c5)" style="fill: none; stroke: #fecc5c; stroke-opacity: 0.3; stroke-width: 2; stroke-linecap: square"/>
   </g>
   <g id="line2d_28">
    <path d="M 146.758151 28.063636 
L 146.758151 57.727574 
L 210.127881 57.727574 
L 210.127881 207.036062 
L 110.601907 207.036062 
L 110.601907 333.602197 
L 85.572578 333.602197 
L 85.572578 445.336364 
L 85.572578 445.336364 
" clip-path="url(#p487a8bb3c5)" style="fill: none; stroke: #fecc5c; stroke-opacity: 0.3; stroke-width: 2; stroke-linecap: square"/>
   </g>
   <g id="line2d_29"/>
   <g id="line2d_30">
    <path d="M 144.941684 28.063636 
L 144.941684 30.041232 
L 145.141922 30.041232 
L 145.185933 33.996424 
L 144.851037 33.996424 
L 144.851037 35.97402 
L 144.364531 35.97402 
L 144.43739 39.929212 
L 144.566652 39.929212 
L 144.566652 41.906807 
L 144.744172 41.906807 
L 144.744172 42.895605 
L 144.89722 42.895605 
L 144.89722 43.884403 
L 145.035366 43.884403 
L 145.035366 44.873201 
L 145.175517 44.873201 
L 145.175517 45.861999 
L 145.810531 45.861999 
L 145.810531 46.850797 
L 146.083339 46.850797 
L 146.083339 47.839595 
L 146.633802 47.839595 
L 146.633802 49.817191 
L 147.1681 49.817191 
L 147.1681 50.805989 
L 147.710888 50.805989 
L 147.710888 51.794787 
L 149.064959 51.794787 
L 149.064959 52.783585 
L 152.845949 52.783585 
L 152.845949 53.772383 
L 153.046591 53.772383 
L 153.046591 54.761181 
L 156.407289 54.761181 
L 156.407289 55.749978 
L 161.255709 55.749978 
L 161.255709 56.738776 
L 168.435958 56.738776 
L 168.435958 57.727574 
L 184.669327 57.727574 
L 184.669327 59.70517 
L 192.316974 59.70517 
L 192.316974 60.693968 
L 198.41906 60.693968 
L 198.41906 61.682766 
L 202.507621 61.682766 
L 202.507621 62.671564 
L 205.791141 62.671564 
L 205.791141 63.660362 
L 208.612278 63.660362 
L 208.612278 64.64916 
L 210.408235 64.64916 
L 210.408235 65.637958 
L 211.134089 65.637958 
L 211.134089 66.626756 
L 212.144306 66.626756 
L 212.144306 67.615554 
L 212.594655 67.615554 
L 212.594655 68.604352 
L 212.953841 68.604352 
L 212.953841 70.581947 
L 213.080942 70.581947 
L 213.080942 72.559543 
L 213.285309 72.559543 
L 213.29488 81.458725 
L 213.403839 81.458725 
L 213.498873 87.391512 
L 213.663396 87.391512 
L 213.663396 90.357906 
L 213.823937 90.357906 
L 213.930779 94.313098 
L 214.062316 94.313098 
L 214.159946 103.212279 
L 214.196847 103.212279 
L 214.249684 105.189875 
L 214.405935 105.189875 
L 214.356613 110.133865 
L 214.215122 110.133865 
L 214.146157 115.077854 
L 214.089884 115.077854 
L 213.983473 119.033046 
L 213.779121 119.033046 
L 213.779121 120.021844 
L 214.022538 120.021844 
L 213.998895 124.965834 
L 213.744809 124.965834 
L 213.841651 127.932227 
L 213.544933 127.932227 
L 213.544933 128.921025 
L 213.753318 128.921025 
L 213.753318 129.909823 
L 214.227307 129.909823 
L 214.227307 130.898621 
L 214.058619 130.898621 
L 214.058619 131.887419 
L 213.945704 131.887419 
L 214.036179 133.865015 
L 214.234321 133.865015 
L 214.183496 138.809005 
L 214.017623 138.809005 
L 213.942334 140.786601 
L 213.795436 140.786601 
L 213.857625 142.764196 
L 213.679956 142.764196 
L 213.679956 143.752994 
L 213.844009 143.752994 
L 213.782787 145.73059 
L 213.425104 145.73059 
L 213.350406 147.708186 
L 213.309935 147.708186 
L 213.207725 149.685782 
L 213.110265 149.685782 
L 213.098376 151.663378 
L 212.985021 151.663378 
L 212.914665 153.640974 
L 212.753565 153.640974 
L 212.84675 155.61857 
L 212.589502 155.61857 
L 212.589502 156.607368 
L 212.427246 156.607368 
L 212.528237 158.584963 
L 212.112099 158.584963 
L 212.112099 159.573761 
L 211.957317 159.573761 
L 211.957317 160.562559 
L 211.438445 160.562559 
L 211.438445 161.551357 
L 211.296724 161.551357 
L 211.238213 163.528953 
L 210.534429 163.528953 
L 210.534429 164.517751 
L 209.896227 164.517751 
L 209.981756 166.495347 
L 209.649534 166.495347 
L 209.658292 168.472943 
L 209.396802 168.472943 
L 209.396802 169.461741 
L 208.392676 169.461741 
L 208.384614 171.439336 
L 208.186515 171.439336 
L 208.186515 172.428134 
L 207.989093 172.428134 
L 208.013673 174.40573 
L 207.591696 174.40573 
L 207.591696 175.394528 
L 207.353874 175.394528 
L 207.353874 176.383326 
L 206.799498 176.383326 
L 206.799498 177.372124 
L 206.214218 177.372124 
L 206.214218 178.360922 
L 205.891211 178.360922 
L 205.891211 179.34972 
L 205.107886 179.34972 
L 205.107886 180.338518 
L 204.286789 180.338518 
L 204.286789 181.327316 
L 203.44919 181.327316 
L 203.44919 182.316114 
L 202.639511 182.316114 
L 202.639511 183.304912 
L 201.759953 183.304912 
L 201.759953 184.29371 
L 199.911806 184.29371 
L 199.911806 185.282508 
L 199.31181 185.282508 
L 199.31181 186.271305 
L 198.340423 186.271305 
L 198.340423 187.260103 
L 197.788822 187.260103 
L 197.788822 188.248901 
L 197.045975 188.248901 
L 197.045975 189.237699 
L 195.71998 189.237699 
L 195.71998 190.226497 
L 194.021878 190.226497 
L 194.021878 191.215295 
L 193.319171 191.215295 
L 193.319171 192.204093 
L 192.617702 192.204093 
L 192.617702 193.192891 
L 191.523719 193.192891 
L 191.523719 194.181689 
L 189.491693 194.181689 
L 189.491693 195.170487 
L 187.861472 195.170487 
L 187.861472 196.159285 
L 187.144947 196.159285 
L 187.144947 197.148083 
L 185.269968 197.148083 
L 185.269968 198.136881 
L 184.148345 198.136881 
L 184.148345 199.125679 
L 181.800198 199.125679 
L 181.800198 200.114477 
L 180.179608 200.114477 
L 180.179608 201.103274 
L 178.746209 201.103274 
L 178.746209 202.092072 
L 176.915407 202.092072 
L 176.915407 203.08087 
L 175.075869 203.08087 
L 175.075869 204.069668 
L 173.434465 204.069668 
L 173.434465 205.058466 
L 171.68511 205.058466 
L 171.68511 206.047264 
L 170.658188 206.047264 
L 170.658188 207.036062 
L 169.24366 207.036062 
L 169.24366 208.02486 
L 167.507843 208.02486 
L 167.507843 209.013658 
L 165.495898 209.013658 
L 165.495898 210.002456 
L 164.636633 210.002456 
L 164.636633 210.991254 
L 162.695588 210.991254 
L 162.695588 211.980052 
L 160.919924 211.980052 
L 160.919924 212.96885 
L 159.090957 212.96885 
L 159.090957 213.957648 
L 156.590161 213.957648 
L 156.590161 214.946445 
L 154.930412 214.946445 
L 154.930412 215.935243 
L 152.814763 215.935243 
L 152.814763 216.924041 
L 151.405688 216.924041 
L 151.405688 217.912839 
L 149.681473 217.912839 
L 149.681473 218.901637 
L 148.423771 218.901637 
L 148.423771 219.890435 
L 146.577348 219.890435 
L 146.577348 220.879233 
L 144.72085 220.879233 
L 144.72085 221.868031 
L 144.154846 221.868031 
L 144.154846 222.856829 
L 142.426732 222.856829 
L 142.426732 223.845627 
L 141.729011 223.845627 
L 141.729011 224.834425 
L 139.117986 224.834425 
L 139.117986 225.823223 
L 136.981685 225.823223 
L 136.981685 226.812021 
L 134.819907 226.812021 
L 134.819907 227.800819 
L 132.926876 227.800819 
L 132.926876 228.789617 
L 131.552126 228.789617 
L 131.552126 229.778414 
L 130.53827 229.778414 
L 130.53827 230.767212 
L 129.110766 230.767212 
L 129.110766 231.75601 
L 127.504653 231.75601 
L 127.504653 232.744808 
L 126.180184 232.744808 
L 126.180184 233.733606 
L 125.289481 233.733606 
L 125.289481 234.722404 
L 122.764484 234.722404 
L 122.764484 235.711202 
L 121.647493 235.711202 
L 121.647493 236.7 
L 120.451075 236.7 
L 120.451075 237.688798 
L 119.542298 237.688798 
L 119.542298 238.677596 
L 119.001931 238.677596 
L 119.001931 239.666394 
L 117.693484 239.666394 
L 117.693484 240.655192 
L 116.72269 240.655192 
L 116.72269 241.64399 
L 115.134833 241.64399 
L 115.134833 242.632788 
L 113.052598 242.632788 
L 113.052598 243.621586 
L 111.779846 243.621586 
L 111.779846 244.610383 
L 109.857469 244.610383 
L 109.857469 245.599181 
L 108.690255 245.599181 
L 108.690255 246.587979 
L 107.066246 246.587979 
L 107.066246 247.576777 
L 106.176147 247.576777 
L 106.176147 248.565575 
L 105.273107 248.565575 
L 105.273107 249.554373 
L 104.224617 249.554373 
L 104.224617 250.543171 
L 102.74093 250.543171 
L 102.74093 251.531969 
L 101.545296 251.531969 
L 101.545296 252.520767 
L 100.959194 252.520767 
L 100.959194 253.509565 
L 100.287906 253.509565 
L 100.287906 254.498363 
L 99.657402 254.498363 
L 99.657402 255.487161 
L 99.27393 255.487161 
L 99.27393 256.475959 
L 98.885304 256.475959 
L 98.885304 257.464757 
L 98.487948 257.464757 
L 98.487948 258.453555 
L 98.130793 258.453555 
L 98.130793 259.442352 
L 97.814568 259.442352 
L 97.814568 260.43115 
L 97.094728 260.43115 
L 97.094728 261.419948 
L 96.938461 261.419948 
L 96.938461 262.408746 
L 96.506602 262.408746 
L 96.406487 264.386342 
L 96.034815 264.386342 
L 96.034815 265.37514 
L 95.675205 265.37514 
L 95.675205 266.363938 
L 95.353099 266.363938 
L 95.353099 267.352736 
L 95.159228 267.352736 
L 95.131491 269.330332 
L 94.954207 269.330332 
L 94.954207 270.31913 
L 94.708012 270.31913 
L 94.708012 271.307928 
L 94.449562 271.307928 
L 94.399611 273.285523 
L 94.217913 273.285523 
L 94.217913 274.274321 
L 93.875871 274.274321 
L 93.875871 275.263119 
L 93.414814 275.263119 
L 93.414814 276.251917 
L 92.97024 276.251917 
L 92.882596 278.229513 
L 92.741034 278.229513 
L 92.741034 280.207109 
L 92.174625 280.207109 
L 92.147069 283.173503 
L 91.879784 283.173503 
L 91.879784 284.162301 
L 91.38624 284.162301 
L 91.38624 285.151099 
L 91.219198 285.151099 
L 91.154987 287.128695 
L 90.870929 287.128695 
L 90.846916 289.10629 
L 90.725491 289.10629 
L 90.677684 291.083886 
L 90.614152 291.083886 
L 90.537446 295.039078 
L 90.437985 295.039078 
L 90.437985 296.027876 
L 90.290685 296.027876 
L 90.290685 297.016674 
L 90.097926 297.016674 
L 90.097926 298.005472 
L 89.930875 298.005472 
L 89.849304 299.983068 
L 89.782103 299.983068 
L 89.679454 306.904653 
L 89.558857 306.904653 
L 89.466116 315.803835 
L 89.259206 315.803835 
L 89.276338 322.72542 
L 89.114503 322.72542 
L 89.005435 328.658208 
L 88.96299 328.658208 
L 88.885766 337.557389 
L 88.808441 337.557389 
L 88.900568 351.40056 
L 88.962636 351.40056 
L 89.005996 356.34455 
L 89.134177 356.34455 
L 89.055014 361.288539 
L 89.015171 361.288539 
L 89.119515 412.706032 
L 89.146495 412.706032 
L 89.218037 436.437182 
L 89.262673 436.437182 
L 89.262673 445.336364 
L 89.262673 445.336364 
" clip-path="url(#p487a8bb3c5)" style="fill: none; stroke: #6b3914; stroke-width: 3; stroke-linecap: square"/>
   </g>
   <g id="line2d_31">
    <path d="M 137.424432 28.063636 
L 137.424432 33.007626 
L 141.950815 33.007626 
L 141.950815 37.951616 
L 147.845197 37.951616 
L 147.845197 42.895605 
L 159.874429 42.895605 
L 159.874429 47.839595 
L 165.779636 47.839595 
L 165.779636 52.783585 
L 179.916652 52.783585 
L 179.916652 57.727574 
L 185.355296 57.727574 
L 185.355296 62.671564 
L 178.029685 62.671564 
L 178.029685 67.615554 
L 187.997205 67.615554 
L 187.997205 72.559543 
L 174.335951 72.559543 
L 174.335951 77.503533 
L 184.249453 77.503533 
L 184.249453 82.447523 
L 154.239577 82.447523 
L 154.239577 87.391512 
L 216.432222 87.391512 
L 216.432222 92.335502 
L 200.438821 92.335502 
L 200.438821 97.279492 
L 208.809753 97.279492 
L 208.809753 102.223481 
L 232.834995 102.223481 
L 232.834995 107.167471 
L 230.919713 107.167471 
L 230.919713 112.111461 
L 239.991888 112.111461 
L 239.991888 117.05545 
L 254.026494 117.05545 
L 254.026494 121.99944 
L 206.23378 121.99944 
L 206.23378 126.94343 
L 225.716869 126.94343 
L 225.716869 131.887419 
L 242.000782 131.887419 
L 242.000782 136.831409 
L 236.626713 136.831409 
L 236.626713 141.775399 
L 255.21763 141.775399 
L 255.21763 146.719388 
L 247.569032 146.719388 
L 247.569032 151.663378 
L 284.440063 151.663378 
L 284.440063 156.607368 
L 237.317639 156.607368 
L 237.317639 161.551357 
L 206.897777 161.551357 
L 206.897777 166.495347 
L 199.011485 166.495347 
L 199.011485 171.439336 
L 239.941923 171.439336 
L 239.941923 176.383326 
L 209.721442 176.383326 
L 209.721442 181.327316 
L 198.13411 181.327316 
L 198.13411 186.271305 
L 188.713619 186.271305 
L 188.713619 191.215295 
L 138.788499 191.215295 
L 138.788499 196.159285 
L 140.316393 196.159285 
L 140.316393 201.103274 
L 154.892668 201.103274 
L 154.892668 206.047264 
L 132.170024 206.047264 
L 132.170024 210.991254 
L 121.643383 210.991254 
L 121.643383 215.935243 
L 146.309372 215.935243 
L 146.309372 220.879233 
L 120.919663 220.879233 
L 120.919663 225.823223 
L 117.441213 225.823223 
L 117.441213 230.767212 
L 114.537321 230.767212 
L 114.537321 235.711202 
L 113.513038 235.711202 
L 113.513038 240.655192 
L 107.393759 240.655192 
L 107.393759 245.599181 
L 119.190176 245.599181 
L 119.190176 250.543171 
L 115.993573 250.543171 
L 115.993573 255.487161 
L 112.555663 255.487161 
L 112.555663 260.43115 
L 90.299354 260.43115 
" clip-path="url(#p487a8bb3c5)" style="fill: none; stroke: #e40000; stroke-opacity: 0.8; stroke-width: 3; stroke-linecap: square"/>
   </g>
   <g id="patch_3">
    <path d="M 39.65 466.2 
L 39.65 7.2 
" style="fill: none; stroke: #000000; stroke-width: 2; stroke-linejoin: miter; stroke-linecap: square"/>
   </g>
   <g id="patch_4">
    <path d="M 49.65 476.2 
L 319.65 476.2 
" style="fill: none; stroke: #000000; stroke-width: 2; stroke-linejoin: miter; stroke-linecap: square"/>
   </g>
  </g>
 </g>
 <defs>
  <clipPath id="p487a8bb3c5">
   <rect x="49.65" y="7.2" width="270" height="459"/>
  </clipPath>
 </defs>
</svg>
