<?xml version="1.0" encoding="utf-8" standalone="no"?>
<!DOCTYPE svg PUBLIC "-//W3C//DTD SVG 1.1//EN"
  "http://www.w3.org/Graphics/SVG/1.1/DTD/svg11.dtd">
<svg xmlns:xlink="http://www.w3.org/1999/xlink" width="366.749375pt" height="568.950129pt" viewBox="0 0 366.749375 568.950129" xmlns="http://www.w3.org/2000/svg" version="1.1">
 <metadata>
  <rdf:RDF xmlns:dc="http://purl.org/dc/elements/1.1/" xmlns:cc="http://creativecommons.org/ns#" xmlns:rdf="http://www.w3.org/1999/02/22-rdf-syntax-ns#">
   <cc:Work>
    <dc:type rdf:resource="http://purl.org/dc/dcmitype/StillImage"/>
    <dc:date>2024-06-30T16:15:19.707519</dc:date>
    <dc:format>image/svg+xml</dc:format>
    <dc:creator>
     <cc:Agent>
      <dc:title>Matplotlib v3.8.0, https://matplotlib.org/</dc:title>
     </cc:Agent>
    </dc:creator>
   </cc:Work>
  </rdf:RDF>
 </metadata>
 <defs>
  <style type="text/css">*{stroke-linejoin: round; stroke-linecap: butt}</style>
 </defs>
 <g id="figure_1">
  <g id="patch_1">
   <path d="M -0 568.950129 
L 366.749375 568.950129 
L 366.749375 0 
L -0 0 
z
" style="fill: #ffffff"/>
  </g>
  <g id="axes_1">
   <g id="patch_2">
    <path d="M 24.749375 561.6 
L 359.549375 561.6 
L 359.549375 7.2 
L 24.749375 7.2 
z
" style="fill: #ffffff"/>
   </g>
   <g id="patch_3">
    <path d="M 225.629375 7.2 
L 270.269375 7.2 
L 270.269375 71.478261 
L 225.629375 71.478261 
z
" clip-path="url(#p3bb34a20ac)" style="fill: #c1a25f; stroke: #000000; stroke-linejoin: miter"/>
   </g>
   <g id="patch_4">
    <path d="M 225.629375 71.478261 
L 270.269375 71.478261 
L 270.269375 98.26087 
L 225.629375 98.26087 
z
" clip-path="url(#p3bb34a20ac)" style="fill: #fdfe9a; stroke: #000000; stroke-linejoin: miter"/>
   </g>
   <g id="patch_5">
    <path d="M 225.629375 98.26087 
L 270.269375 98.26087 
L 270.269375 275.026087 
L 225.629375 275.026087 
z
" clip-path="url(#p3bb34a20ac)" style="fill: #fdc800; stroke: #000000; stroke-linejoin: miter"/>
   </g>
   <g id="patch_6">
    <path d="M 225.629375 275.026087 
L 270.269375 275.026087 
L 270.269375 505.356522 
L 225.629375 505.356522 
z
" clip-path="url(#p3bb34a20ac)" style="fill: #fdfe9a; stroke: #000000; stroke-linejoin: miter"/>
   </g>
   <g id="patch_7">
    <path d="M 225.629375 505.356522 
L 270.269375 505.356522 
L 270.269375 561.6 
L 225.629375 561.6 
z
" clip-path="url(#p3bb34a20ac)" style="fill: #949393; stroke: #000000; stroke-linejoin: miter"/>
   </g>
   <g id="matplotlib.axis_1"/>
   <g id="matplotlib.axis_2">
    <g id="text_1">
     <!-- Depth (m) -->
     <g transform="translate(17.837813 320.226875) rotate(-90) scale(0.14 -0.14)">
      <defs>
       <path id="DejaVuSans-44" d="M 1259 4147 
L 1259 519 
L 2022 519 
Q 2988 519 3436 956 
Q 3884 1394 3884 2338 
Q 3884 3275 3436 3711 
Q 2988 4147 2022 4147 
L 1259 4147 
z
M 628 4666 
L 1925 4666 
Q 3281 4666 3915 4102 
Q 4550 3538 4550 2338 
Q 4550 1131 3912 565 
Q 3275 0 1925 0 
L 628 0 
L 628 4666 
z
" transform="scale(0.015625)"/>
       <path id="DejaVuSans-65" d="M 3597 1894 
L 3597 1613 
L 953 1613 
Q 991 1019 1311 708 
Q 1631 397 2203 397 
Q 2534 397 2845 478 
Q 3156 559 3463 722 
L 3463 178 
Q 3153 47 2828 -22 
Q 2503 -91 2169 -91 
Q 1331 -91 842 396 
Q 353 884 353 1716 
Q 353 2575 817 3079 
Q 1281 3584 2069 3584 
Q 2775 3584 3186 3129 
Q 3597 2675 3597 1894 
z
M 3022 2063 
Q 3016 2534 2758 2815 
Q 2500 3097 2075 3097 
Q 1594 3097 1305 2825 
Q 1016 2553 972 2059 
L 3022 2063 
z
" transform="scale(0.015625)"/>
       <path id="DejaVuSans-70" d="M 1159 525 
L 1159 -1331 
L 581 -1331 
L 581 3500 
L 1159 3500 
L 1159 2969 
Q 1341 3281 1617 3432 
Q 1894 3584 2278 3584 
Q 2916 3584 3314 3078 
Q 3713 2572 3713 1747 
Q 3713 922 3314 415 
Q 2916 -91 2278 -91 
Q 1894 -91 1617 61 
Q 1341 213 1159 525 
z
M 3116 1747 
Q 3116 2381 2855 2742 
Q 2594 3103 2138 3103 
Q 1681 3103 1420 2742 
Q 1159 2381 1159 1747 
Q 1159 1113 1420 752 
Q 1681 391 2138 391 
Q 2594 391 2855 752 
Q 3116 1113 3116 1747 
z
" transform="scale(0.015625)"/>
       <path id="DejaVuSans-74" d="M 1172 4494 
L 1172 3500 
L 2356 3500 
L 2356 3053 
L 1172 3053 
L 1172 1153 
Q 1172 725 1289 603 
Q 1406 481 1766 481 
L 2356 481 
L 2356 0 
L 1766 0 
Q 1100 0 847 248 
Q 594 497 594 1153 
L 594 3053 
L 172 3053 
L 172 3500 
L 594 3500 
L 594 4494 
L 1172 4494 
z
" transform="scale(0.015625)"/>
       <path id="DejaVuSans-68" d="M 3513 2113 
L 3513 0 
L 2938 0 
L 2938 2094 
Q 2938 2591 2744 2837 
Q 2550 3084 2163 3084 
Q 1697 3084 1428 2787 
Q 1159 2491 1159 1978 
L 1159 0 
L 581 0 
L 581 4863 
L 1159 4863 
L 1159 2956 
Q 1366 3272 1645 3428 
Q 1925 3584 2291 3584 
Q 2894 3584 3203 3211 
Q 3513 2838 3513 2113 
z
" transform="scale(0.015625)"/>
       <path id="DejaVuSans-20" transform="scale(0.015625)"/>
       <path id="DejaVuSans-28" d="M 1984 4856 
Q 1566 4138 1362 3434 
Q 1159 2731 1159 2009 
Q 1159 1288 1364 580 
Q 1569 -128 1984 -844 
L 1484 -844 
Q 1016 -109 783 600 
Q 550 1309 550 2009 
Q 550 2706 781 3412 
Q 1013 4119 1484 4856 
L 1984 4856 
z
" transform="scale(0.015625)"/>
       <path id="DejaVuSans-6d" d="M 3328 2828 
Q 3544 3216 3844 3400 
Q 4144 3584 4550 3584 
Q 5097 3584 5394 3201 
Q 5691 2819 5691 2113 
L 5691 0 
L 5113 0 
L 5113 2094 
Q 5113 2597 4934 2840 
Q 4756 3084 4391 3084 
Q 3944 3084 3684 2787 
Q 3425 2491 3425 1978 
L 3425 0 
L 2847 0 
L 2847 2094 
Q 2847 2600 2669 2842 
Q 2491 3084 2119 3084 
Q 1678 3084 1418 2786 
Q 1159 2488 1159 1978 
L 1159 0 
L 581 0 
L 581 3500 
L 1159 3500 
L 1159 2956 
Q 1356 3278 1631 3431 
Q 1906 3584 2284 3584 
Q 2666 3584 2933 3390 
Q 3200 3197 3328 2828 
z
" transform="scale(0.015625)"/>
       <path id="DejaVuSans-29" d="M 513 4856 
L 1013 4856 
Q 1481 4119 1714 3412 
Q 1947 2706 1947 2009 
Q 1947 1309 1714 600 
Q 1481 -109 1013 -844 
L 513 -844 
Q 928 -128 1133 580 
Q 1338 1288 1338 2009 
Q 1338 2731 1133 3434 
Q 928 4138 513 4856 
z
" transform="scale(0.015625)"/>
      </defs>
      <use xlink:href="#DejaVuSans-44"/>
      <use xlink:href="#DejaVuSans-65" x="77.001953"/>
      <use xlink:href="#DejaVuSans-70" x="138.525391"/>
      <use xlink:href="#DejaVuSans-74" x="202.001953"/>
      <use xlink:href="#DejaVuSans-68" x="241.210938"/>
      <use xlink:href="#DejaVuSans-20" x="304.589844"/>
      <use xlink:href="#DejaVuSans-28" x="336.376953"/>
      <use xlink:href="#DejaVuSans-6d" x="375.390625"/>
      <use xlink:href="#DejaVuSans-29" x="472.802734"/>
     </g>
    </g>
   </g>
   <g id="text_2">
    <!-- ___2.4 -->
    <g transform="translate(270.269375 68.327452) scale(0.14 -0.14)">
     <defs>
      <path id="DejaVuSans-Bold-5f" d="M 3200 -916 
L 3200 -1509 
L 0 -1509 
L 0 -916 
L 3200 -916 
z
" transform="scale(0.015625)"/>
      <path id="DejaVuSans-Bold-32" d="M 1844 884 
L 3897 884 
L 3897 0 
L 506 0 
L 506 884 
L 2209 2388 
Q 2438 2594 2547 2791 
Q 2656 2988 2656 3200 
Q 2656 3528 2436 3728 
Q 2216 3928 1850 3928 
Q 1569 3928 1234 3808 
Q 900 3688 519 3450 
L 519 4475 
Q 925 4609 1322 4679 
Q 1719 4750 2100 4750 
Q 2938 4750 3402 4381 
Q 3866 4013 3866 3353 
Q 3866 2972 3669 2642 
Q 3472 2313 2841 1759 
L 1844 884 
z
" transform="scale(0.015625)"/>
      <path id="DejaVuSans-Bold-2e" d="M 653 1209 
L 1778 1209 
L 1778 0 
L 653 0 
L 653 1209 
z
" transform="scale(0.015625)"/>
      <path id="DejaVuSans-Bold-34" d="M 2356 3675 
L 1038 1722 
L 2356 1722 
L 2356 3675 
z
M 2156 4666 
L 3494 4666 
L 3494 1722 
L 4159 1722 
L 4159 850 
L 3494 850 
L 3494 0 
L 2356 0 
L 2356 850 
L 288 850 
L 288 1881 
L 2156 4666 
z
" transform="scale(0.015625)"/>
     </defs>
     <use xlink:href="#DejaVuSans-Bold-5f"/>
     <use xlink:href="#DejaVuSans-Bold-5f" x="50"/>
     <use xlink:href="#DejaVuSans-Bold-5f" x="100"/>
     <use xlink:href="#DejaVuSans-Bold-32" x="150"/>
     <use xlink:href="#DejaVuSans-Bold-2e" x="219.580078"/>
     <use xlink:href="#DejaVuSans-Bold-34" x="257.568359"/>
    </g>
   </g>
   <g id="text_3">
    <!-- ___3.4 -->
    <g transform="translate(270.269375 95.110061) scale(0.14 -0.14)">
     <defs>
      <path id="DejaVuSans-Bold-33" d="M 2981 2516 
Q 3453 2394 3698 2092 
Q 3944 1791 3944 1325 
Q 3944 631 3412 270 
Q 2881 -91 1863 -91 
Q 1503 -91 1142 -33 
Q 781 25 428 141 
L 428 1069 
Q 766 900 1098 814 
Q 1431 728 1753 728 
Q 2231 728 2486 893 
Q 2741 1059 2741 1369 
Q 2741 1688 2480 1852 
Q 2219 2016 1709 2016 
L 1228 2016 
L 1228 2791 
L 1734 2791 
Q 2188 2791 2409 2933 
Q 2631 3075 2631 3366 
Q 2631 3634 2415 3781 
Q 2200 3928 1806 3928 
Q 1516 3928 1219 3862 
Q 922 3797 628 3669 
L 628 4550 
Q 984 4650 1334 4700 
Q 1684 4750 2022 4750 
Q 2931 4750 3382 4451 
Q 3834 4153 3834 3553 
Q 3834 3144 3618 2883 
Q 3403 2622 2981 2516 
z
" transform="scale(0.015625)"/>
     </defs>
     <use xlink:href="#DejaVuSans-Bold-5f"/>
     <use xlink:href="#DejaVuSans-Bold-5f" x="50"/>
     <use xlink:href="#DejaVuSans-Bold-5f" x="100"/>
     <use xlink:href="#DejaVuSans-Bold-33" x="150"/>
     <use xlink:href="#DejaVuSans-Bold-2e" x="219.580078"/>
     <use xlink:href="#DejaVuSans-Bold-34" x="257.568359"/>
    </g>
   </g>
   <g id="text_4">
    <!-- ___10.0 -->
    <g transform="translate(270.269375 271.875279) scale(0.14 -0.14)">
     <defs>
      <path id="DejaVuSans-Bold-31" d="M 750 831 
L 1813 831 
L 1813 3847 
L 722 3622 
L 722 4441 
L 1806 4666 
L 2950 4666 
L 2950 831 
L 4013 831 
L 4013 0 
L 750 0 
L 750 831 
z
" transform="scale(0.015625)"/>
      <path id="DejaVuSans-Bold-30" d="M 2944 2338 
Q 2944 3213 2780 3570 
Q 2616 3928 2228 3928 
Q 1841 3928 1675 3570 
Q 1509 3213 1509 2338 
Q 1509 1453 1675 1090 
Q 1841 728 2228 728 
Q 2613 728 2778 1090 
Q 2944 1453 2944 2338 
z
M 4147 2328 
Q 4147 1169 3647 539 
Q 3147 -91 2228 -91 
Q 1306 -91 806 539 
Q 306 1169 306 2328 
Q 306 3491 806 4120 
Q 1306 4750 2228 4750 
Q 3147 4750 3647 4120 
Q 4147 3491 4147 2328 
z
" transform="scale(0.015625)"/>
     </defs>
     <use xlink:href="#DejaVuSans-Bold-5f"/>
     <use xlink:href="#DejaVuSans-Bold-5f" x="50"/>
     <use xlink:href="#DejaVuSans-Bold-5f" x="100"/>
     <use xlink:href="#DejaVuSans-Bold-31" x="150"/>
     <use xlink:href="#DejaVuSans-Bold-30" x="219.580078"/>
     <use xlink:href="#DejaVuSans-Bold-2e" x="289.160156"/>
     <use xlink:href="#DejaVuSans-Bold-30" x="327.148438"/>
    </g>
   </g>
   <g id="text_5">
    <!-- ___18.6 -->
    <g transform="translate(270.269375 502.205713) scale(0.14 -0.14)">
     <defs>
      <path id="DejaVuSans-Bold-38" d="M 2228 2088 
Q 1891 2088 1709 1903 
Q 1528 1719 1528 1375 
Q 1528 1031 1709 848 
Q 1891 666 2228 666 
Q 2563 666 2741 848 
Q 2919 1031 2919 1375 
Q 2919 1722 2741 1905 
Q 2563 2088 2228 2088 
z
M 1350 2484 
Q 925 2613 709 2878 
Q 494 3144 494 3541 
Q 494 4131 934 4440 
Q 1375 4750 2228 4750 
Q 3075 4750 3515 4442 
Q 3956 4134 3956 3541 
Q 3956 3144 3739 2878 
Q 3522 2613 3097 2484 
Q 3572 2353 3814 2058 
Q 4056 1763 4056 1313 
Q 4056 619 3595 264 
Q 3134 -91 2228 -91 
Q 1319 -91 855 264 
Q 391 619 391 1313 
Q 391 1763 633 2058 
Q 875 2353 1350 2484 
z
M 1631 3419 
Q 1631 3141 1786 2991 
Q 1941 2841 2228 2841 
Q 2509 2841 2662 2991 
Q 2816 3141 2816 3419 
Q 2816 3697 2662 3845 
Q 2509 3994 2228 3994 
Q 1941 3994 1786 3844 
Q 1631 3694 1631 3419 
z
" transform="scale(0.015625)"/>
      <path id="DejaVuSans-Bold-36" d="M 2316 2303 
Q 2000 2303 1842 2098 
Q 1684 1894 1684 1484 
Q 1684 1075 1842 870 
Q 2000 666 2316 666 
Q 2634 666 2792 870 
Q 2950 1075 2950 1484 
Q 2950 1894 2792 2098 
Q 2634 2303 2316 2303 
z
M 3803 4544 
L 3803 3681 
Q 3506 3822 3243 3889 
Q 2981 3956 2731 3956 
Q 2194 3956 1894 3657 
Q 1594 3359 1544 2772 
Q 1750 2925 1990 3001 
Q 2231 3078 2516 3078 
Q 3231 3078 3670 2659 
Q 4109 2241 4109 1563 
Q 4109 813 3618 361 
Q 3128 -91 2303 -91 
Q 1394 -91 895 523 
Q 397 1138 397 2266 
Q 397 3422 980 4083 
Q 1563 4744 2578 4744 
Q 2900 4744 3203 4694 
Q 3506 4644 3803 4544 
z
" transform="scale(0.015625)"/>
     </defs>
     <use xlink:href="#DejaVuSans-Bold-5f"/>
     <use xlink:href="#DejaVuSans-Bold-5f" x="50"/>
     <use xlink:href="#DejaVuSans-Bold-5f" x="100"/>
     <use xlink:href="#DejaVuSans-Bold-31" x="150"/>
     <use xlink:href="#DejaVuSans-Bold-38" x="219.580078"/>
     <use xlink:href="#DejaVuSans-Bold-2e" x="289.160156"/>
     <use xlink:href="#DejaVuSans-Bold-36" x="327.148438"/>
    </g>
   </g>
   <g id="text_6">
    <!-- ___20.7 -->
    <g transform="translate(270.269375 558.449192) scale(0.14 -0.14)">
     <defs>
      <path id="DejaVuSans-Bold-37" d="M 428 4666 
L 3944 4666 
L 3944 3988 
L 2125 0 
L 953 0 
L 2675 3781 
L 428 3781 
L 428 4666 
z
" transform="scale(0.015625)"/>
     </defs>
     <use xlink:href="#DejaVuSans-Bold-5f"/>
     <use xlink:href="#DejaVuSans-Bold-5f" x="50"/>
     <use xlink:href="#DejaVuSans-Bold-5f" x="100"/>
     <use xlink:href="#DejaVuSans-Bold-32" x="150"/>
     <use xlink:href="#DejaVuSans-Bold-30" x="219.580078"/>
     <use xlink:href="#DejaVuSans-Bold-2e" x="289.160156"/>
     <use xlink:href="#DejaVuSans-Bold-37" x="327.148438"/>
    </g>
   </g>
   <g id="text_7">
    <!-- slit/sand  -->
    <g transform="translate(91.709375 31.696976) scale(0.14 -0.14)">
     <defs>
      <path id="DejaVuSans-Bold-73" d="M 3272 3391 
L 3272 2541 
Q 2913 2691 2578 2766 
Q 2244 2841 1947 2841 
Q 1628 2841 1473 2761 
Q 1319 2681 1319 2516 
Q 1319 2381 1436 2309 
Q 1553 2238 1856 2203 
L 2053 2175 
Q 2913 2066 3209 1816 
Q 3506 1566 3506 1031 
Q 3506 472 3093 190 
Q 2681 -91 1863 -91 
Q 1516 -91 1145 -36 
Q 775 19 384 128 
L 384 978 
Q 719 816 1070 734 
Q 1422 653 1784 653 
Q 2113 653 2278 743 
Q 2444 834 2444 1013 
Q 2444 1163 2330 1236 
Q 2216 1309 1875 1350 
L 1678 1375 
Q 931 1469 631 1722 
Q 331 1975 331 2491 
Q 331 3047 712 3315 
Q 1094 3584 1881 3584 
Q 2191 3584 2531 3537 
Q 2872 3491 3272 3391 
z
" transform="scale(0.015625)"/>
      <path id="DejaVuSans-Bold-6c" d="M 538 4863 
L 1656 4863 
L 1656 0 
L 538 0 
L 538 4863 
z
" transform="scale(0.015625)"/>
      <path id="DejaVuSans-Bold-69" d="M 538 3500 
L 1656 3500 
L 1656 0 
L 538 0 
L 538 3500 
z
M 538 4863 
L 1656 4863 
L 1656 3950 
L 538 3950 
L 538 4863 
z
" transform="scale(0.015625)"/>
      <path id="DejaVuSans-Bold-74" d="M 1759 4494 
L 1759 3500 
L 2913 3500 
L 2913 2700 
L 1759 2700 
L 1759 1216 
Q 1759 972 1856 886 
Q 1953 800 2241 800 
L 2816 800 
L 2816 0 
L 1856 0 
Q 1194 0 917 276 
Q 641 553 641 1216 
L 641 2700 
L 84 2700 
L 84 3500 
L 641 3500 
L 641 4494 
L 1759 4494 
z
" transform="scale(0.015625)"/>
      <path id="DejaVuSans-Bold-2f" d="M 1644 4666 
L 2338 4666 
L 691 -594 
L 0 -594 
L 1644 4666 
z
" transform="scale(0.015625)"/>
      <path id="DejaVuSans-Bold-61" d="M 2106 1575 
Q 1756 1575 1579 1456 
Q 1403 1338 1403 1106 
Q 1403 894 1545 773 
Q 1688 653 1941 653 
Q 2256 653 2472 879 
Q 2688 1106 2688 1447 
L 2688 1575 
L 2106 1575 
z
M 3816 1997 
L 3816 0 
L 2688 0 
L 2688 519 
Q 2463 200 2181 54 
Q 1900 -91 1497 -91 
Q 953 -91 614 226 
Q 275 544 275 1050 
Q 275 1666 698 1953 
Q 1122 2241 2028 2241 
L 2688 2241 
L 2688 2328 
Q 2688 2594 2478 2717 
Q 2269 2841 1825 2841 
Q 1466 2841 1156 2769 
Q 847 2697 581 2553 
L 581 3406 
Q 941 3494 1303 3539 
Q 1666 3584 2028 3584 
Q 2975 3584 3395 3211 
Q 3816 2838 3816 1997 
z
" transform="scale(0.015625)"/>
      <path id="DejaVuSans-Bold-6e" d="M 4056 2131 
L 4056 0 
L 2931 0 
L 2931 347 
L 2931 1631 
Q 2931 2084 2911 2256 
Q 2891 2428 2841 2509 
Q 2775 2619 2662 2680 
Q 2550 2741 2406 2741 
Q 2056 2741 1856 2470 
Q 1656 2200 1656 1722 
L 1656 0 
L 538 0 
L 538 3500 
L 1656 3500 
L 1656 2988 
Q 1909 3294 2193 3439 
Q 2478 3584 2822 3584 
Q 3428 3584 3742 3212 
Q 4056 2841 4056 2131 
z
" transform="scale(0.015625)"/>
      <path id="DejaVuSans-Bold-64" d="M 2919 2988 
L 2919 4863 
L 4044 4863 
L 4044 0 
L 2919 0 
L 2919 506 
Q 2688 197 2409 53 
Q 2131 -91 1766 -91 
Q 1119 -91 703 423 
Q 288 938 288 1747 
Q 288 2556 703 3070 
Q 1119 3584 1766 3584 
Q 2128 3584 2408 3439 
Q 2688 3294 2919 2988 
z
M 2181 722 
Q 2541 722 2730 984 
Q 2919 1247 2919 1747 
Q 2919 2247 2730 2509 
Q 2541 2772 2181 2772 
Q 1825 2772 1636 2509 
Q 1447 2247 1447 1747 
Q 1447 1247 1636 984 
Q 1825 722 2181 722 
z
" transform="scale(0.015625)"/>
      <path id="DejaVuSans-Bold-20" transform="scale(0.015625)"/>
     </defs>
     <use xlink:href="#DejaVuSans-Bold-73"/>
     <use xlink:href="#DejaVuSans-Bold-6c" x="59.521484"/>
     <use xlink:href="#DejaVuSans-Bold-69" x="93.798828"/>
     <use xlink:href="#DejaVuSans-Bold-74" x="128.076172"/>
     <use xlink:href="#DejaVuSans-Bold-2f" x="175.878906"/>
     <use xlink:href="#DejaVuSans-Bold-73" x="212.402344"/>
     <use xlink:href="#DejaVuSans-Bold-61" x="271.923828"/>
     <use xlink:href="#DejaVuSans-Bold-6e" x="339.404297"/>
     <use xlink:href="#DejaVuSans-Bold-64" x="410.595703"/>
     <use xlink:href="#DejaVuSans-Bold-20" x="482.177734"/>
    </g>
    <!-- 50 - 250$\Omega m$ -->
    <g transform="translate(91.709375 47.373913) scale(0.14 -0.14)">
     <defs>
      <path id="DejaVuSans-Bold-35" d="M 678 4666 
L 3669 4666 
L 3669 3781 
L 1638 3781 
L 1638 3059 
Q 1775 3097 1914 3117 
Q 2053 3138 2203 3138 
Q 3056 3138 3531 2711 
Q 4006 2284 4006 1522 
Q 4006 766 3489 337 
Q 2972 -91 2053 -91 
Q 1656 -91 1267 -14 
Q 878 63 494 219 
L 494 1166 
Q 875 947 1217 837 
Q 1559 728 1863 728 
Q 2300 728 2551 942 
Q 2803 1156 2803 1522 
Q 2803 1891 2551 2103 
Q 2300 2316 1863 2316 
Q 1603 2316 1309 2248 
Q 1016 2181 678 2041 
L 678 4666 
z
" transform="scale(0.015625)"/>
      <path id="DejaVuSans-Bold-2d" d="M 347 2297 
L 2309 2297 
L 2309 1388 
L 347 1388 
L 347 2297 
z
" transform="scale(0.015625)"/>
      <path id="DejaVuSans-Bold-3a9" d="M 2719 4750 
Q 3841 4750 4480 4106 
Q 5119 3463 5119 2494 
Q 5119 1406 4306 909 
L 5266 909 
L 5266 0 
L 3125 0 
L 3125 975 
Q 3244 1041 3334 1131 
Q 3875 1678 3875 2466 
Q 3875 3066 3572 3472 
Q 3269 3878 2719 3878 
Q 2169 3878 1866 3472 
Q 1563 3066 1563 2466 
Q 1563 1678 2103 1131 
Q 2194 1041 2313 975 
L 2313 0 
L 172 0 
L 172 909 
L 1131 909 
Q 319 1406 319 2494 
Q 319 3463 958 4106 
Q 1597 4750 2719 4750 
z
" transform="scale(0.015625)"/>
      <path id="DejaVuSans-Bold-6d" d="M 3781 2919 
Q 3994 3244 4286 3414 
Q 4578 3584 4928 3584 
Q 5531 3584 5847 3212 
Q 6163 2841 6163 2131 
L 6163 0 
L 5038 0 
L 5038 1825 
Q 5041 1866 5042 1909 
Q 5044 1953 5044 2034 
Q 5044 2406 4934 2573 
Q 4825 2741 4581 2741 
Q 4263 2741 4089 2478 
Q 3916 2216 3909 1719 
L 3909 0 
L 2784 0 
L 2784 1825 
Q 2784 2406 2684 2573 
Q 2584 2741 2328 2741 
Q 2006 2741 1831 2477 
Q 1656 2213 1656 1722 
L 1656 0 
L 531 0 
L 531 3500 
L 1656 3500 
L 1656 2988 
Q 1863 3284 2130 3434 
Q 2397 3584 2719 3584 
Q 3081 3584 3359 3409 
Q 3638 3234 3781 2919 
z
" transform="scale(0.015625)"/>
     </defs>
     <use xlink:href="#DejaVuSans-Bold-35" transform="translate(0 0.78125)"/>
     <use xlink:href="#DejaVuSans-Bold-30" transform="translate(69.580078 0.78125)"/>
     <use xlink:href="#DejaVuSans-Bold-20" transform="translate(139.160156 0.78125)"/>
     <use xlink:href="#DejaVuSans-Bold-2d" transform="translate(173.974609 0.78125)"/>
     <use xlink:href="#DejaVuSans-Bold-20" transform="translate(215.478516 0.78125)"/>
     <use xlink:href="#DejaVuSans-Bold-32" transform="translate(250.292969 0.78125)"/>
     <use xlink:href="#DejaVuSans-Bold-35" transform="translate(319.873047 0.78125)"/>
     <use xlink:href="#DejaVuSans-Bold-30" transform="translate(389.453125 0.78125)"/>
     <use xlink:href="#DejaVuSans-Bold-3a9" transform="translate(459.033203 0.78125)"/>
     <use xlink:href="#DejaVuSans-Bold-6d" transform="translate(544.042969 0.78125)"/>
    </g>
   </g>
   <g id="text_8">
    <!-- gravel -->
    <g transform="translate(91.709375 85.152818) scale(0.14 -0.14)">
     <defs>
      <path id="DejaVuSans-Bold-67" d="M 2919 594 
Q 2688 288 2409 144 
Q 2131 0 1766 0 
Q 1125 0 706 504 
Q 288 1009 288 1791 
Q 288 2575 706 3076 
Q 1125 3578 1766 3578 
Q 2131 3578 2409 3434 
Q 2688 3291 2919 2981 
L 2919 3500 
L 4044 3500 
L 4044 353 
Q 4044 -491 3511 -936 
Q 2978 -1381 1966 -1381 
Q 1638 -1381 1331 -1331 
Q 1025 -1281 716 -1178 
L 716 -306 
Q 1009 -475 1290 -558 
Q 1572 -641 1856 -641 
Q 2406 -641 2662 -400 
Q 2919 -159 2919 353 
L 2919 594 
z
M 2181 2772 
Q 1834 2772 1640 2515 
Q 1447 2259 1447 1791 
Q 1447 1309 1634 1061 
Q 1822 813 2181 813 
Q 2531 813 2725 1069 
Q 2919 1325 2919 1791 
Q 2919 2259 2725 2515 
Q 2531 2772 2181 2772 
z
" transform="scale(0.015625)"/>
      <path id="DejaVuSans-Bold-72" d="M 3138 2547 
Q 2991 2616 2845 2648 
Q 2700 2681 2553 2681 
Q 2122 2681 1889 2404 
Q 1656 2128 1656 1613 
L 1656 0 
L 538 0 
L 538 3500 
L 1656 3500 
L 1656 2925 
Q 1872 3269 2151 3426 
Q 2431 3584 2822 3584 
Q 2878 3584 2943 3579 
Q 3009 3575 3134 3559 
L 3138 2547 
z
" transform="scale(0.015625)"/>
      <path id="DejaVuSans-Bold-76" d="M 97 3500 
L 1216 3500 
L 2088 1081 
L 2956 3500 
L 4078 3500 
L 2700 0 
L 1472 0 
L 97 3500 
z
" transform="scale(0.015625)"/>
      <path id="DejaVuSans-Bold-65" d="M 4031 1759 
L 4031 1441 
L 1416 1441 
Q 1456 1047 1700 850 
Q 1944 653 2381 653 
Q 2734 653 3104 758 
Q 3475 863 3866 1075 
L 3866 213 
Q 3469 63 3072 -14 
Q 2675 -91 2278 -91 
Q 1328 -91 801 392 
Q 275 875 275 1747 
Q 275 2603 792 3093 
Q 1309 3584 2216 3584 
Q 3041 3584 3536 3087 
Q 4031 2591 4031 1759 
z
M 2881 2131 
Q 2881 2450 2695 2645 
Q 2509 2841 2209 2841 
Q 1884 2841 1681 2658 
Q 1478 2475 1428 2131 
L 2881 2131 
z
" transform="scale(0.015625)"/>
     </defs>
     <use xlink:href="#DejaVuSans-Bold-67"/>
     <use xlink:href="#DejaVuSans-Bold-72" x="71.582031"/>
     <use xlink:href="#DejaVuSans-Bold-61" x="120.898438"/>
     <use xlink:href="#DejaVuSans-Bold-76" x="188.378906"/>
     <use xlink:href="#DejaVuSans-Bold-65" x="253.564453"/>
     <use xlink:href="#DejaVuSans-Bold-6c" x="321.386719"/>
    </g>
    <!--  -->
    <g transform="translate(91.709375 100.93913) scale(0.14 -0.14)"/>
   </g>
   <g id="text_9">
    <!--  -->
    <g transform="translate(91.709375 87.501755) scale(0.12 -0.12)"/>
    <!-- (slity/sandy) -->
    <g transform="translate(91.709375 100.93913) scale(0.12 -0.12)">
     <defs>
      <path id="DejaVuSans-73" d="M 2834 3397 
L 2834 2853 
Q 2591 2978 2328 3040 
Q 2066 3103 1784 3103 
Q 1356 3103 1142 2972 
Q 928 2841 928 2578 
Q 928 2378 1081 2264 
Q 1234 2150 1697 2047 
L 1894 2003 
Q 2506 1872 2764 1633 
Q 3022 1394 3022 966 
Q 3022 478 2636 193 
Q 2250 -91 1575 -91 
Q 1294 -91 989 -36 
Q 684 19 347 128 
L 347 722 
Q 666 556 975 473 
Q 1284 391 1588 391 
Q 1994 391 2212 530 
Q 2431 669 2431 922 
Q 2431 1156 2273 1281 
Q 2116 1406 1581 1522 
L 1381 1569 
Q 847 1681 609 1914 
Q 372 2147 372 2553 
Q 372 3047 722 3315 
Q 1072 3584 1716 3584 
Q 2034 3584 2315 3537 
Q 2597 3491 2834 3397 
z
" transform="scale(0.015625)"/>
      <path id="DejaVuSans-6c" d="M 603 4863 
L 1178 4863 
L 1178 0 
L 603 0 
L 603 4863 
z
" transform="scale(0.015625)"/>
      <path id="DejaVuSans-69" d="M 603 3500 
L 1178 3500 
L 1178 0 
L 603 0 
L 603 3500 
z
M 603 4863 
L 1178 4863 
L 1178 4134 
L 603 4134 
L 603 4863 
z
" transform="scale(0.015625)"/>
      <path id="DejaVuSans-79" d="M 2059 -325 
Q 1816 -950 1584 -1140 
Q 1353 -1331 966 -1331 
L 506 -1331 
L 506 -850 
L 844 -850 
Q 1081 -850 1212 -737 
Q 1344 -625 1503 -206 
L 1606 56 
L 191 3500 
L 800 3500 
L 1894 763 
L 2988 3500 
L 3597 3500 
L 2059 -325 
z
" transform="scale(0.015625)"/>
      <path id="DejaVuSans-2f" d="M 1625 4666 
L 2156 4666 
L 531 -594 
L 0 -594 
L 1625 4666 
z
" transform="scale(0.015625)"/>
      <path id="DejaVuSans-61" d="M 2194 1759 
Q 1497 1759 1228 1600 
Q 959 1441 959 1056 
Q 959 750 1161 570 
Q 1363 391 1709 391 
Q 2188 391 2477 730 
Q 2766 1069 2766 1631 
L 2766 1759 
L 2194 1759 
z
M 3341 1997 
L 3341 0 
L 2766 0 
L 2766 531 
Q 2569 213 2275 61 
Q 1981 -91 1556 -91 
Q 1019 -91 701 211 
Q 384 513 384 1019 
Q 384 1609 779 1909 
Q 1175 2209 1959 2209 
L 2766 2209 
L 2766 2266 
Q 2766 2663 2505 2880 
Q 2244 3097 1772 3097 
Q 1472 3097 1187 3025 
Q 903 2953 641 2809 
L 641 3341 
Q 956 3463 1253 3523 
Q 1550 3584 1831 3584 
Q 2591 3584 2966 3190 
Q 3341 2797 3341 1997 
z
" transform="scale(0.015625)"/>
      <path id="DejaVuSans-6e" d="M 3513 2113 
L 3513 0 
L 2938 0 
L 2938 2094 
Q 2938 2591 2744 2837 
Q 2550 3084 2163 3084 
Q 1697 3084 1428 2787 
Q 1159 2491 1159 1978 
L 1159 0 
L 581 0 
L 581 3500 
L 1159 3500 
L 1159 2956 
Q 1366 3272 1645 3428 
Q 1925 3584 2291 3584 
Q 2894 3584 3203 3211 
Q 3513 2838 3513 2113 
z
" transform="scale(0.015625)"/>
      <path id="DejaVuSans-64" d="M 2906 2969 
L 2906 4863 
L 3481 4863 
L 3481 0 
L 2906 0 
L 2906 525 
Q 2725 213 2448 61 
Q 2172 -91 1784 -91 
Q 1150 -91 751 415 
Q 353 922 353 1747 
Q 353 2572 751 3078 
Q 1150 3584 1784 3584 
Q 2172 3584 2448 3432 
Q 2725 3281 2906 2969 
z
M 947 1747 
Q 947 1113 1208 752 
Q 1469 391 1925 391 
Q 2381 391 2643 752 
Q 2906 1113 2906 1747 
Q 2906 2381 2643 2742 
Q 2381 3103 1925 3103 
Q 1469 3103 1208 2742 
Q 947 2381 947 1747 
z
" transform="scale(0.015625)"/>
     </defs>
     <use xlink:href="#DejaVuSans-28"/>
     <use xlink:href="#DejaVuSans-73" x="39.013672"/>
     <use xlink:href="#DejaVuSans-6c" x="91.113281"/>
     <use xlink:href="#DejaVuSans-69" x="118.896484"/>
     <use xlink:href="#DejaVuSans-74" x="146.679688"/>
     <use xlink:href="#DejaVuSans-79" x="185.888672"/>
     <use xlink:href="#DejaVuSans-2f" x="245.068359"/>
     <use xlink:href="#DejaVuSans-73" x="278.759766"/>
     <use xlink:href="#DejaVuSans-61" x="330.859375"/>
     <use xlink:href="#DejaVuSans-6e" x="392.138672"/>
     <use xlink:href="#DejaVuSans-64" x="455.517578"/>
     <use xlink:href="#DejaVuSans-79" x="518.994141"/>
     <use xlink:href="#DejaVuSans-29" x="578.173828"/>
    </g>
   </g>
   <g id="text_10">
    <!--  -->
    <g transform="translate(91.709375 82.97656) scale(0.14 -0.14)"/>
    <!--   -->
    <g transform="translate(91.709375 98.653497) scale(0.14 -0.14)">
     <use xlink:href="#DejaVuSans-Bold-20"/>
    </g>
    <!-- 100 - 500$\Omega m$ -->
    <g transform="translate(91.709375 114.330435) scale(0.14 -0.14)">
     <use xlink:href="#DejaVuSans-Bold-31" transform="translate(0 0.78125)"/>
     <use xlink:href="#DejaVuSans-Bold-30" transform="translate(69.580078 0.78125)"/>
     <use xlink:href="#DejaVuSans-Bold-30" transform="translate(139.160156 0.78125)"/>
     <use xlink:href="#DejaVuSans-Bold-20" transform="translate(208.740234 0.78125)"/>
     <use xlink:href="#DejaVuSans-Bold-2d" transform="translate(243.554688 0.78125)"/>
     <use xlink:href="#DejaVuSans-Bold-20" transform="translate(285.058594 0.78125)"/>
     <use xlink:href="#DejaVuSans-Bold-35" transform="translate(319.873047 0.78125)"/>
     <use xlink:href="#DejaVuSans-Bold-30" transform="translate(389.453125 0.78125)"/>
     <use xlink:href="#DejaVuSans-Bold-30" transform="translate(459.033203 0.78125)"/>
     <use xlink:href="#DejaVuSans-Bold-3a9" transform="translate(528.613281 0.78125)"/>
     <use xlink:href="#DejaVuSans-Bold-6d" transform="translate(613.623047 0.78125)"/>
    </g>
   </g>
   <g id="text_11">
    <!-- sand -->
    <g transform="translate(91.709375 208.069565) scale(0.14 -0.14)">
     <use xlink:href="#DejaVuSans-Bold-73"/>
     <use xlink:href="#DejaVuSans-Bold-61" x="59.521484"/>
     <use xlink:href="#DejaVuSans-Bold-6e" x="127.001953"/>
     <use xlink:href="#DejaVuSans-Bold-64" x="198.193359"/>
    </g>
   </g>
   <g id="text_12">
    <!-- (fine sand/gravely) -->
    <g transform="translate(91.709375 221.46087) scale(0.12 -0.12)">
     <defs>
      <path id="DejaVuSans-66" d="M 2375 4863 
L 2375 4384 
L 1825 4384 
Q 1516 4384 1395 4259 
Q 1275 4134 1275 3809 
L 1275 3500 
L 2222 3500 
L 2222 3053 
L 1275 3053 
L 1275 0 
L 697 0 
L 697 3053 
L 147 3053 
L 147 3500 
L 697 3500 
L 697 3744 
Q 697 4328 969 4595 
Q 1241 4863 1831 4863 
L 2375 4863 
z
" transform="scale(0.015625)"/>
      <path id="DejaVuSans-67" d="M 2906 1791 
Q 2906 2416 2648 2759 
Q 2391 3103 1925 3103 
Q 1463 3103 1205 2759 
Q 947 2416 947 1791 
Q 947 1169 1205 825 
Q 1463 481 1925 481 
Q 2391 481 2648 825 
Q 2906 1169 2906 1791 
z
M 3481 434 
Q 3481 -459 3084 -895 
Q 2688 -1331 1869 -1331 
Q 1566 -1331 1297 -1286 
Q 1028 -1241 775 -1147 
L 775 -588 
Q 1028 -725 1275 -790 
Q 1522 -856 1778 -856 
Q 2344 -856 2625 -561 
Q 2906 -266 2906 331 
L 2906 616 
Q 2728 306 2450 153 
Q 2172 0 1784 0 
Q 1141 0 747 490 
Q 353 981 353 1791 
Q 353 2603 747 3093 
Q 1141 3584 1784 3584 
Q 2172 3584 2450 3431 
Q 2728 3278 2906 2969 
L 2906 3500 
L 3481 3500 
L 3481 434 
z
" transform="scale(0.015625)"/>
      <path id="DejaVuSans-72" d="M 2631 2963 
Q 2534 3019 2420 3045 
Q 2306 3072 2169 3072 
Q 1681 3072 1420 2755 
Q 1159 2438 1159 1844 
L 1159 0 
L 581 0 
L 581 3500 
L 1159 3500 
L 1159 2956 
Q 1341 3275 1631 3429 
Q 1922 3584 2338 3584 
Q 2397 3584 2469 3576 
Q 2541 3569 2628 3553 
L 2631 2963 
z
" transform="scale(0.015625)"/>
      <path id="DejaVuSans-76" d="M 191 3500 
L 800 3500 
L 1894 563 
L 2988 3500 
L 3597 3500 
L 2284 0 
L 1503 0 
L 191 3500 
z
" transform="scale(0.015625)"/>
     </defs>
     <use xlink:href="#DejaVuSans-28"/>
     <use xlink:href="#DejaVuSans-66" x="39.013672"/>
     <use xlink:href="#DejaVuSans-69" x="74.21875"/>
     <use xlink:href="#DejaVuSans-6e" x="102.001953"/>
     <use xlink:href="#DejaVuSans-65" x="165.380859"/>
     <use xlink:href="#DejaVuSans-20" x="226.904297"/>
     <use xlink:href="#DejaVuSans-73" x="258.691406"/>
     <use xlink:href="#DejaVuSans-61" x="310.791016"/>
     <use xlink:href="#DejaVuSans-6e" x="372.070312"/>
     <use xlink:href="#DejaVuSans-64" x="435.449219"/>
     <use xlink:href="#DejaVuSans-2f" x="498.925781"/>
     <use xlink:href="#DejaVuSans-67" x="532.617188"/>
     <use xlink:href="#DejaVuSans-72" x="596.09375"/>
     <use xlink:href="#DejaVuSans-61" x="637.207031"/>
     <use xlink:href="#DejaVuSans-76" x="698.486328"/>
     <use xlink:href="#DejaVuSans-65" x="757.666016"/>
     <use xlink:href="#DejaVuSans-6c" x="819.189453"/>
     <use xlink:href="#DejaVuSans-79" x="846.972656"/>
     <use xlink:href="#DejaVuSans-29" x="906.152344"/>
    </g>
   </g>
   <g id="text_13">
    <!--  -->
    <g transform="translate(91.709375 187.821361) scale(0.14 -0.14)"/>
    <!--   -->
    <g transform="translate(91.709375 203.498299) scale(0.14 -0.14)">
     <use xlink:href="#DejaVuSans-Bold-20"/>
    </g>
    <!--   -->
    <g transform="translate(91.709375 219.175236) scale(0.14 -0.14)">
     <use xlink:href="#DejaVuSans-Bold-20"/>
    </g>
    <!-- 50 - 250$\Omega m$ -->
    <g transform="translate(91.709375 234.852174) scale(0.14 -0.14)">
     <use xlink:href="#DejaVuSans-Bold-35" transform="translate(0 0.78125)"/>
     <use xlink:href="#DejaVuSans-Bold-30" transform="translate(69.580078 0.78125)"/>
     <use xlink:href="#DejaVuSans-Bold-20" transform="translate(139.160156 0.78125)"/>
     <use xlink:href="#DejaVuSans-Bold-2d" transform="translate(173.974609 0.78125)"/>
     <use xlink:href="#DejaVuSans-Bold-20" transform="translate(215.478516 0.78125)"/>
     <use xlink:href="#DejaVuSans-Bold-32" transform="translate(250.292969 0.78125)"/>
     <use xlink:href="#DejaVuSans-Bold-35" transform="translate(319.873047 0.78125)"/>
     <use xlink:href="#DejaVuSans-Bold-30" transform="translate(389.453125 0.78125)"/>
     <use xlink:href="#DejaVuSans-Bold-3a9" transform="translate(459.033203 0.78125)"/>
     <use xlink:href="#DejaVuSans-Bold-6d" transform="translate(544.042969 0.78125)"/>
    </g>
   </g>
   <g id="text_14">
    <!-- gravel -->
    <g transform="translate(91.709375 408.93913) scale(0.14 -0.14)">
     <use xlink:href="#DejaVuSans-Bold-67"/>
     <use xlink:href="#DejaVuSans-Bold-72" x="71.582031"/>
     <use xlink:href="#DejaVuSans-Bold-61" x="120.898438"/>
     <use xlink:href="#DejaVuSans-Bold-76" x="188.378906"/>
     <use xlink:href="#DejaVuSans-Bold-65" x="253.564453"/>
     <use xlink:href="#DejaVuSans-Bold-6c" x="321.386719"/>
    </g>
   </g>
   <g id="text_15">
    <!-- (slity/sandy) -->
    <g transform="translate(91.709375 422.330435) scale(0.12 -0.12)">
     <use xlink:href="#DejaVuSans-28"/>
     <use xlink:href="#DejaVuSans-73" x="39.013672"/>
     <use xlink:href="#DejaVuSans-6c" x="91.113281"/>
     <use xlink:href="#DejaVuSans-69" x="118.896484"/>
     <use xlink:href="#DejaVuSans-74" x="146.679688"/>
     <use xlink:href="#DejaVuSans-79" x="185.888672"/>
     <use xlink:href="#DejaVuSans-2f" x="245.068359"/>
     <use xlink:href="#DejaVuSans-73" x="278.759766"/>
     <use xlink:href="#DejaVuSans-61" x="330.859375"/>
     <use xlink:href="#DejaVuSans-6e" x="392.138672"/>
     <use xlink:href="#DejaVuSans-64" x="455.517578"/>
     <use xlink:href="#DejaVuSans-79" x="518.994141"/>
     <use xlink:href="#DejaVuSans-29" x="578.173828"/>
    </g>
   </g>
   <g id="text_16">
    <!--  -->
    <g transform="translate(91.709375 388.690927) scale(0.14 -0.14)"/>
    <!--   -->
    <g transform="translate(91.709375 404.367864) scale(0.14 -0.14)">
     <use xlink:href="#DejaVuSans-Bold-20"/>
    </g>
    <!--   -->
    <g transform="translate(91.709375 420.044802) scale(0.14 -0.14)">
     <use xlink:href="#DejaVuSans-Bold-20"/>
    </g>
    <!-- 100 - 500$\Omega m$ -->
    <g transform="translate(91.709375 435.721739) scale(0.14 -0.14)">
     <use xlink:href="#DejaVuSans-Bold-31" transform="translate(0 0.78125)"/>
     <use xlink:href="#DejaVuSans-Bold-30" transform="translate(69.580078 0.78125)"/>
     <use xlink:href="#DejaVuSans-Bold-30" transform="translate(139.160156 0.78125)"/>
     <use xlink:href="#DejaVuSans-Bold-20" transform="translate(208.740234 0.78125)"/>
     <use xlink:href="#DejaVuSans-Bold-2d" transform="translate(243.554688 0.78125)"/>
     <use xlink:href="#DejaVuSans-Bold-20" transform="translate(285.058594 0.78125)"/>
     <use xlink:href="#DejaVuSans-Bold-35" transform="translate(319.873047 0.78125)"/>
     <use xlink:href="#DejaVuSans-Bold-30" transform="translate(389.453125 0.78125)"/>
     <use xlink:href="#DejaVuSans-Bold-30" transform="translate(459.033203 0.78125)"/>
     <use xlink:href="#DejaVuSans-Bold-3a9" transform="translate(528.613281 0.78125)"/>
     <use xlink:href="#DejaVuSans-Bold-6d" transform="translate(613.623047 0.78125)"/>
    </g>
   </g>
   <g id="text_17">
    <!-- slit  -->
    <g transform="translate(91.709375 527.175236) scale(0.14 -0.14)">
     <use xlink:href="#DejaVuSans-Bold-73"/>
     <use xlink:href="#DejaVuSans-Bold-6c" x="59.521484"/>
     <use xlink:href="#DejaVuSans-Bold-69" x="93.798828"/>
     <use xlink:href="#DejaVuSans-Bold-74" x="128.076172"/>
     <use xlink:href="#DejaVuSans-Bold-20" x="175.878906"/>
    </g>
    <!-- 10 - 70$\Omega m$ -->
    <g transform="translate(91.709375 542.852174) scale(0.14 -0.14)">
     <use xlink:href="#DejaVuSans-Bold-31" transform="translate(0 0.78125)"/>
     <use xlink:href="#DejaVuSans-Bold-30" transform="translate(69.580078 0.78125)"/>
     <use xlink:href="#DejaVuSans-Bold-20" transform="translate(139.160156 0.78125)"/>
     <use xlink:href="#DejaVuSans-Bold-2d" transform="translate(173.974609 0.78125)"/>
     <use xlink:href="#DejaVuSans-Bold-20" transform="translate(215.478516 0.78125)"/>
     <use xlink:href="#DejaVuSans-Bold-37" transform="translate(250.292969 0.78125)"/>
     <use xlink:href="#DejaVuSans-Bold-30" transform="translate(319.873047 0.78125)"/>
     <use xlink:href="#DejaVuSans-Bold-3a9" transform="translate(389.453125 0.78125)"/>
     <use xlink:href="#DejaVuSans-Bold-6d" transform="translate(474.462891 0.78125)"/>
    </g>
   </g>
  </g>
 </g>
 <defs>
  <clipPath id="p3bb34a20ac">
   <rect x="24.749375" y="7.2" width="334.8" height="554.4"/>
  </clipPath>
 </defs>
</svg>
