<?xml version="1.0" encoding="utf-8" standalone="no"?>
<!DOCTYPE svg PUBLIC "-//W3C//DTD SVG 1.1//EN"
  "http://www.w3.org/Graphics/SVG/1.1/DTD/svg11.dtd">
<svg xmlns:xlink="http://www.w3.org/1999/xlink" width="509.764375pt" height="563.129375pt" viewBox="0 0 509.764375 563.129375" xmlns="http://www.w3.org/2000/svg" version="1.1">
 <metadata>
  <rdf:RDF xmlns:dc="http://purl.org/dc/elements/1.1/" xmlns:cc="http://creativecommons.org/ns#" xmlns:rdf="http://www.w3.org/1999/02/22-rdf-syntax-ns#">
   <cc:Work>
    <dc:type rdf:resource="http://purl.org/dc/dcmitype/StillImage"/>
    <dc:date>2024-07-01T11:48:35.407005</dc:date>
    <dc:format>image/svg+xml</dc:format>
    <dc:creator>
     <cc:Agent>
      <dc:title>Matplotlib v3.8.0, https://matplotlib.org/</dc:title>
     </cc:Agent>
    </dc:creator>
   </cc:Work>
  </rdf:RDF>
 </metadata>
 <defs>
  <style type="text/css">*{stroke-linejoin: round; stroke-linecap: butt}</style>
 </defs>
 <g id="figure_1">
  <g id="patch_1">
   <path d="M 0 563.129375 
L 509.764375 563.129375 
L 509.764375 0 
L 0 0 
z
" style="fill: #ffffff"/>
  </g>
  <g id="axes_1">
   <g id="patch_2">
    <path d="M 70.564375 496.8 
L 502.564375 496.8 
L 502.564375 7.2 
L 70.564375 7.2 
z
" style="fill: #ffffff"/>
   </g>
   <g id="PolyCollection_1">
    <defs>
     <path id="m439bbcba37" d="M 482.928011 -533.67483 
L 90.211577 -533.67483 
L 90.211577 -532.921715 
L 90.211577 -532.1686 
L 90.211577 -531.415485 
L 90.211577 -530.66237 
L 90.211577 -529.909255 
L 90.211577 -529.15614 
L 90.211577 -528.403025 
L 90.211577 -527.64991 
L 90.211577 -526.896795 
L 90.211577 -526.14368 
L 90.211577 -525.390566 
L 90.211577 -524.637451 
L 90.211577 -523.884336 
L 90.211577 -523.131221 
L 90.211577 -522.378106 
L 90.211577 -521.624991 
L 90.211577 -520.871876 
L 90.211577 -520.118761 
L 90.211577 -519.365646 
L 90.211577 -518.612531 
L 90.211577 -517.859417 
L 90.211577 -517.106302 
L 90.211577 -516.353187 
L 90.211577 -515.600072 
L 90.211577 -514.846957 
L 90.211577 -514.093842 
L 90.211577 -513.340727 
L 90.211577 -512.587612 
L 90.211577 -511.834497 
L 90.211577 -511.081382 
L 90.211577 -510.328267 
L 90.211577 -509.575153 
L 90.211577 -508.822038 
L 90.211577 -508.068923 
L 90.211577 -507.315808 
L 90.211577 -506.562693 
L 90.211577 -505.809578 
L 90.211577 -505.056463 
L 90.211577 -504.303348 
L 90.211577 -503.550233 
L 90.211577 -502.797118 
L 90.211577 -502.044004 
L 90.211577 -501.290889 
L 90.211577 -500.537774 
L 90.211577 -499.784659 
L 90.207317 -499.031544 
L 90.207317 -498.278429 
L 90.207317 -497.525314 
L 90.207317 -496.772199 
L 90.207317 -496.019084 
L 90.207317 -495.265969 
L 90.207317 -494.512854 
L 90.207317 -493.75974 
L 90.207317 -493.006625 
L 90.207317 -492.25351 
L 90.207317 -491.500395 
L 90.207317 -490.74728 
L 90.207317 -489.994165 
L 90.207317 -489.24105 
L 90.207317 -488.487935 
L 90.207317 -487.73482 
L 90.207317 -486.981705 
L 90.207317 -486.228591 
L 90.207317 -485.475476 
L 90.207317 -484.722361 
L 90.207317 -483.969246 
L 90.207317 -483.216131 
L 90.207317 -482.463016 
L 90.207317 -481.709901 
L 90.207317 -480.956786 
L 90.207317 -480.203671 
L 90.207317 -479.450556 
L 90.207317 -478.697441 
L 90.207317 -477.944327 
L 90.207317 -477.191212 
L 90.207317 -476.438097 
L 90.207317 -475.684982 
L 90.207317 -474.931867 
L 90.207317 -474.178752 
L 90.207317 -473.425637 
L 90.207317 -472.672522 
L 90.207317 -471.919407 
L 90.207317 -471.166292 
L 90.207317 -470.413177 
L 90.207317 -469.660063 
L 90.207317 -468.906948 
L 90.207317 -468.153833 
L 90.207317 -467.400718 
L 90.207317 -466.647603 
L 90.207317 -465.894488 
L 90.207317 -465.141373 
L 90.207317 -464.388258 
L 90.207317 -463.635143 
L 90.207317 -462.882028 
L 90.207317 -462.128914 
L 90.207317 -461.375799 
L 90.207317 -460.622684 
L 90.207317 -459.869569 
L 90.207317 -459.116454 
L 90.207317 -458.363339 
L 90.207317 -457.610224 
L 90.207317 -456.857109 
L 90.207317 -456.103994 
L 90.207317 -455.350879 
L 90.213989 -454.597764 
L 90.213989 -453.84465 
L 90.213989 -453.091535 
L 90.213989 -452.33842 
L 90.213989 -451.585305 
L 90.213989 -450.83219 
L 90.213989 -450.079075 
L 90.213989 -449.32596 
L 90.213989 -448.572845 
L 90.213989 -447.81973 
L 90.213989 -447.066615 
L 90.213989 -446.313501 
L 90.213989 -445.560386 
L 90.213989 -444.807271 
L 90.213989 -444.054156 
L 90.213989 -443.301041 
L 90.244983 -442.547926 
L 90.244983 -441.794811 
L 90.244983 -441.041696 
L 90.244983 -440.288581 
L 90.244983 -439.535466 
L 90.244983 -438.782351 
L 90.244983 -438.029237 
L 90.244983 -437.276122 
L 90.244983 -436.523007 
L 90.244983 -435.769892 
L 90.244983 -435.016777 
L 90.244983 -434.263662 
L 90.244983 -433.510547 
L 90.244983 -432.757432 
L 90.244983 -432.004317 
L 90.244983 -431.251202 
L 90.244983 -430.498088 
L 90.244983 -429.744973 
L 90.244983 -428.991858 
L 90.244983 -428.238743 
L 90.244983 -427.485628 
L 90.244983 -426.732513 
L 90.244983 -425.979398 
L 90.244983 -425.226283 
L 90.244983 -424.473168 
L 90.244983 -423.720053 
L 90.244983 -422.966938 
L 90.244983 -422.213824 
L 90.244983 -421.460709 
L 90.244983 -420.707594 
L 90.244983 -419.954479 
L 90.244983 -419.201364 
L 90.244983 -418.448249 
L 90.244983 -417.695134 
L 90.244983 -416.942019 
L 90.244983 -416.188904 
L 90.244983 -415.435789 
L 90.244983 -414.682674 
L 90.205444 -413.92956 
L 90.205444 -413.176445 
L 90.205444 -412.42333 
L 90.205444 -411.670215 
L 90.205444 -410.9171 
L 90.205444 -410.163985 
L 90.205444 -409.41087 
L 90.205444 -408.657755 
L 90.205444 -407.90464 
L 90.205444 -407.151525 
L 90.205444 -406.398411 
L 90.205444 -405.645296 
L 90.206099 -404.892181 
L 90.206099 -404.139066 
L 90.206099 -403.385951 
L 90.206099 -402.632836 
L 90.206099 -401.879721 
L 90.206099 -401.126606 
L 90.206099 -400.373491 
L 90.206099 -399.620376 
L 90.206099 -398.867261 
L 90.206099 -398.114147 
L 90.206099 -397.361032 
L 90.206099 -396.607917 
L 90.206099 -395.854802 
L 90.206099 -395.101687 
L 90.206099 -394.348572 
L 90.206099 -393.595457 
L 90.206099 -392.842342 
L 90.206099 -392.089227 
L 90.206099 -391.336112 
L 90.206099 -390.582998 
L 90.206099 -389.829883 
L 90.206099 -389.076768 
L 90.206099 -388.323653 
L 90.206099 -387.570538 
L 90.206099 -386.817423 
L 90.206099 -386.064308 
L 90.206099 -385.311193 
L 90.206099 -384.558078 
L 90.206099 -383.804963 
L 90.206099 -383.051848 
L 90.206099 -382.298734 
L 90.206099 -381.545619 
L 90.206099 -380.792504 
L 90.206099 -380.039389 
L 90.206099 -379.286274 
L 90.206099 -378.533159 
L 90.206099 -377.780044 
L 90.206099 -377.026929 
L 90.206099 -376.273814 
L 90.206099 -375.520699 
L 90.206099 -374.767585 
L 90.206099 -374.01447 
L 90.206099 -373.261355 
L 90.206099 -372.50824 
L 90.206099 -371.755125 
L 90.206099 -371.00201 
L 90.206099 -370.248895 
L 90.206099 -369.49578 
L 90.206099 -368.742665 
L 90.206099 -367.98955 
L 90.206099 -367.236435 
L 90.210735 -366.483321 
L 90.210735 -365.730206 
L 90.210735 -364.977091 
L 90.210735 -364.223976 
L 90.210735 -363.470861 
L 90.210735 -362.717746 
L 90.210735 -361.964631 
L 90.210735 -361.211516 
L 90.210735 -360.458401 
L 90.210735 -359.705286 
L 90.210735 -358.952171 
L 90.210735 -358.199057 
L 90.210735 -357.445942 
L 90.210735 -356.692827 
L 90.210735 -355.939712 
L 90.210735 -355.186597 
L 90.210735 -354.433482 
L 90.210735 -353.680367 
L 90.210735 -352.927252 
L 90.210735 -352.174137 
L 90.210735 -351.421022 
L 90.210735 -350.667908 
L 90.210735 -349.914793 
L 90.210735 -349.161678 
L 90.210735 -348.408563 
L 90.210735 -347.655448 
L 90.210735 -346.902333 
L 90.210735 -346.149218 
L 90.210735 -345.396103 
L 90.210735 -344.642988 
L 90.210735 -343.889873 
L 90.210735 -343.136758 
L 90.210735 -342.383644 
L 90.210735 -341.630529 
L 90.210735 -340.877414 
L 90.210735 -340.124299 
L 90.210735 -339.371184 
L 90.210735 -338.618069 
L 90.210735 -337.864954 
L 90.210735 -337.111839 
L 90.210735 -336.358724 
L 90.210735 -335.605609 
L 90.210735 -334.852495 
L 90.210735 -334.09938 
L 90.210735 -333.346265 
L 90.210735 -332.59315 
L 90.210735 -331.840035 
L 90.210735 -331.08692 
L 90.210735 -330.333805 
L 90.210735 -329.58069 
L 90.210735 -328.827575 
L 90.210735 -328.07446 
L 90.210735 -327.321345 
L 90.210735 -326.568231 
L 90.210735 -325.815116 
L 90.210735 -325.062001 
L 90.210735 -324.308886 
L 90.210735 -323.555771 
L 90.210735 -322.802656 
L 90.210735 -322.049541 
L 90.210735 -321.296426 
L 90.210735 -320.543311 
L 90.210735 -319.790196 
L 90.210735 -319.037082 
L 90.210735 -318.283967 
L 90.210735 -317.530852 
L 90.210735 -316.777737 
L 90.210735 -316.024622 
L 90.210735 -315.271507 
L 90.210735 -314.518392 
L 90.210735 -313.765277 
L 90.210735 -313.012162 
L 90.210735 -312.259047 
L 90.210735 -311.505932 
L 90.210735 -310.752818 
L 90.210735 -309.999703 
L 90.210735 -309.246588 
L 90.210735 -308.493473 
L 90.210735 -307.740358 
L 90.210735 -306.987243 
L 90.210735 -306.234128 
L 90.210735 -305.481013 
L 90.210735 -304.727898 
L 90.210735 -303.974783 
L 90.210735 -303.221668 
L 90.210735 -302.468554 
L 90.210735 -301.715439 
L 90.210735 -300.962324 
L 90.210735 -300.209209 
L 90.210735 -299.456094 
L 90.210735 -298.702979 
L 90.210735 -297.949864 
L 90.210735 -297.196749 
L 90.210735 -296.443634 
L 90.210735 -295.690519 
L 90.210735 -294.937405 
L 90.210735 -294.18429 
L 90.210735 -293.431175 
L 90.210735 -292.67806 
L 90.210735 -291.924945 
L 90.210735 -291.17183 
L 90.210735 -290.418715 
L 90.210735 -289.6656 
L 90.210735 -288.912485 
L 90.210735 -288.15937 
L 90.210735 -287.406255 
L 90.210735 -286.653141 
L 90.210735 -285.900026 
L 90.210735 -285.146911 
L 90.210735 -284.393796 
L 90.210735 -283.640681 
L 90.210735 -282.887566 
L 90.210735 -282.134451 
L 90.210735 -281.381336 
L 90.210735 -280.628221 
L 90.210735 -279.875106 
L 90.210735 -279.121992 
L 90.210735 -278.368877 
L 90.210735 -277.615762 
L 90.210735 -276.862647 
L 90.210735 -276.109532 
L 90.210735 -275.356417 
L 90.210735 -274.603302 
L 90.210735 -273.850187 
L 90.210735 -273.097072 
L 90.210735 -272.343957 
L 90.210735 -271.590842 
L 90.210735 -270.837728 
L 90.210735 -270.084613 
L 90.210735 -269.331498 
L 90.210735 -268.578383 
L 90.210735 -267.825268 
L 90.210735 -267.072153 
L 90.210735 -266.319038 
L 90.210735 -265.565923 
L 90.210735 -264.812808 
L 90.210735 -264.059693 
L 90.210735 -263.306579 
L 90.210735 -262.553464 
L 90.210735 -261.800349 
L 90.210735 -261.047234 
L 90.210735 -260.294119 
L 90.215089 -259.541004 
L 90.215089 -258.787889 
L 90.215089 -258.034774 
L 90.215089 -257.281659 
L 90.215089 -256.528544 
L 90.215089 -255.775429 
L 90.215089 -255.022315 
L 90.215089 -254.2692 
L 90.215089 -253.516085 
L 90.215089 -252.76297 
L 90.215089 -252.009855 
L 90.215089 -251.25674 
L 90.215089 -250.503625 
L 90.215089 -249.75051 
L 90.215089 -248.997395 
L 90.215089 -248.24428 
L 90.215089 -247.491165 
L 90.215089 -246.738051 
L 90.215089 -245.984936 
L 90.215089 -245.231821 
L 90.215089 -244.478706 
L 90.215089 -243.725591 
L 90.215089 -242.972476 
L 90.215089 -242.219361 
L 90.215089 -241.466246 
L 90.215089 -240.713131 
L 90.215089 -239.960016 
L 90.215089 -239.206902 
L 90.215089 -238.453787 
L 90.215089 -237.700672 
L 90.215089 -236.947557 
L 90.215089 -236.194442 
L 90.215089 -235.441327 
L 90.215089 -234.688212 
L 90.215089 -233.935097 
L 90.215089 -233.181982 
L 90.215089 -232.428867 
L 90.215089 -231.675752 
L 90.215089 -230.922638 
L 90.215089 -230.169523 
L 90.215089 -229.416408 
L 90.215089 -228.663293 
L 90.215089 -227.910178 
L 90.215089 -227.157063 
L 90.215089 -226.403948 
L 90.215089 -225.650833 
L 90.215089 -224.897718 
L 90.215089 -224.144603 
L 90.215089 -223.391489 
L 90.215089 -222.638374 
L 90.215089 -221.885259 
L 90.215089 -221.132144 
L 90.215089 -220.379029 
L 90.215089 -219.625914 
L 90.215089 -218.872799 
L 90.215089 -218.119684 
L 90.215089 -217.366569 
L 90.215089 -216.613454 
L 90.215089 -215.860339 
L 90.215089 -215.107225 
L 90.215089 -214.35411 
L 90.200739 -213.600995 
L 90.200739 -212.84788 
L 90.200739 -212.094765 
L 90.200739 -211.34165 
L 90.200739 -210.588535 
L 90.200739 -209.83542 
L 90.200739 -209.082305 
L 90.200739 -208.32919 
L 90.200739 -207.576076 
L 90.200739 -206.822961 
L 90.200739 -206.069846 
L 90.200739 -205.316731 
L 90.200739 -204.563616 
L 90.200739 -203.810501 
L 90.200739 -203.057386 
L 90.200739 -202.304271 
L 90.200739 -201.551156 
L 90.200739 -200.798041 
L 90.200739 -200.044926 
L 90.200739 -199.291812 
L 90.200739 -198.538697 
L 90.200739 -197.785582 
L 90.200739 -197.032467 
L 90.200739 -196.279352 
L 90.200739 -195.526237 
L 90.200739 -194.773122 
L 90.200739 -194.020007 
L 90.200739 -193.266892 
L 90.200739 -192.513777 
L 90.200739 -191.760662 
L 90.200739 -191.007548 
L 90.200739 -190.254433 
L 90.200739 -189.501318 
L 90.200739 -188.748203 
L 90.200739 -187.995088 
L 90.200739 -187.241973 
L 90.200739 -186.488858 
L 90.200739 -185.735743 
L 90.200739 -184.982628 
L 90.200739 -184.229513 
L 90.200739 -183.476399 
L 90.200739 -182.723284 
L 90.200739 -181.970169 
L 90.200739 -181.217054 
L 90.200739 -180.463939 
L 90.200739 -179.710824 
L 90.200739 -178.957709 
L 90.200739 -178.204594 
L 90.200739 -177.451479 
L 90.200739 -176.698364 
L 90.200739 -175.945249 
L 90.200739 -175.192135 
L 90.200739 -174.43902 
L 90.200739 -173.685905 
L 90.200739 -172.93279 
L 90.200739 -172.179675 
L 90.200739 -171.42656 
L 90.200739 -170.673445 
L 90.200739 -169.92033 
L 90.200739 -169.167215 
L 90.200739 -168.4141 
L 90.200739 -167.660986 
L 90.200739 -166.907871 
L 90.200739 -166.154756 
L 90.200739 -165.401641 
L 90.200739 -164.648526 
L 90.200739 -163.895411 
L 90.200739 -163.142296 
L 90.200739 -162.389181 
L 90.200739 -161.636066 
L 90.200739 -160.882951 
L 90.200739 -160.129836 
L 90.200739 -159.376722 
L 90.200739 -158.623607 
L 90.200739 -157.870492 
L 90.200739 -157.117377 
L 90.200739 -156.364262 
L 90.200739 -155.611147 
L 90.200739 -154.858032 
L 90.200739 -154.104917 
L 90.200739 -153.351802 
L 90.200739 -152.598687 
L 90.200739 -151.845573 
L 90.200739 -151.092458 
L 90.200739 -150.339343 
L 90.200739 -149.586228 
L 90.200739 -148.833113 
L 90.200739 -148.079998 
L 90.200739 -147.326883 
L 90.200739 -146.573768 
L 90.200739 -145.820653 
L 90.200739 -145.067538 
L 90.200739 -144.314423 
L 90.200739 -143.561309 
L 90.200739 -142.808194 
L 90.200739 -142.055079 
L 90.200739 -141.301964 
L 90.200739 -140.548849 
L 90.200739 -139.795734 
L 90.200739 -139.042619 
L 90.200739 -138.289504 
L 90.200739 -137.536389 
L 90.200739 -136.783274 
L 90.200739 -136.030159 
L 90.200739 -135.277045 
L 90.200739 -134.52393 
L 90.200739 -133.770815 
L 90.200739 -133.0177 
L 90.200739 -132.264585 
L 90.200739 -131.51147 
L 90.200739 -130.758355 
L 90.200739 -130.00524 
L 90.200739 -129.252125 
L 90.200739 -128.49901 
L 90.200739 -127.745896 
L 90.200739 -126.992781 
L 90.200739 -126.239666 
L 90.200739 -125.486551 
L 90.200739 -124.733436 
L 90.200739 -123.980321 
L 90.200739 -123.227206 
L 90.200739 -122.474091 
L 90.200739 -121.720976 
L 90.200739 -120.967861 
L 90.200739 -120.214746 
L 90.200739 -119.461632 
L 90.200739 -118.708517 
L 90.200739 -117.955402 
L 90.200739 -117.202287 
L 90.200739 -116.449172 
L 90.200739 -115.696057 
L 90.200739 -114.942942 
L 90.200739 -114.189827 
L 90.200739 -113.436712 
L 90.200739 -112.683597 
L 90.200739 -111.930483 
L 90.200739 -111.177368 
L 90.200739 -110.424253 
L 90.200739 -109.671138 
L 90.200739 -108.918023 
L 90.200739 -108.164908 
L 90.200739 -107.411793 
L 90.200739 -106.658678 
L 90.200739 -105.905563 
L 90.200739 -105.152448 
L 90.200739 -104.399333 
L 90.200739 -103.646219 
L 90.200739 -102.893104 
L 90.200739 -102.139989 
L 90.200739 -101.386874 
L 90.200739 -100.633759 
L 90.200739 -99.880644 
L 90.200739 -99.127529 
L 90.200739 -98.374414 
L 90.200739 -97.621299 
L 90.200739 -96.868184 
L 90.200739 -96.11507 
L 90.200739 -95.361955 
L 90.200739 -94.60884 
L 90.200739 -93.855725 
L 90.200739 -93.10261 
L 90.200739 -92.349495 
L 90.200739 -91.59638 
L 90.200739 -90.843265 
L 90.200739 -90.09015 
L 90.200739 -89.337035 
L 90.200739 -88.58392 
L 482.77991 -88.58392 
L 482.77991 -88.58392 
L 482.77991 -89.337035 
L 482.77991 -90.09015 
L 482.77991 -90.843265 
L 482.77991 -91.59638 
L 482.77991 -92.349495 
L 482.77991 -93.10261 
L 482.77991 -93.855725 
L 482.77991 -94.60884 
L 482.77991 -95.361955 
L 482.77991 -96.11507 
L 482.77991 -96.868184 
L 482.77991 -97.621299 
L 482.77991 -98.374414 
L 482.77991 -99.127529 
L 482.77991 -99.880644 
L 482.77991 -100.633759 
L 482.77991 -101.386874 
L 482.77991 -102.139989 
L 482.77991 -102.893104 
L 482.77991 -103.646219 
L 482.77991 -104.399333 
L 482.77991 -105.152448 
L 482.77991 -105.905563 
L 482.77991 -106.658678 
L 482.77991 -107.411793 
L 482.77991 -108.164908 
L 482.77991 -108.918023 
L 482.77991 -109.671138 
L 482.77991 -110.424253 
L 482.77991 -111.177368 
L 482.77991 -111.930483 
L 482.77991 -112.683597 
L 482.77991 -113.436712 
L 482.77991 -114.189827 
L 482.77991 -114.942942 
L 482.77991 -115.696057 
L 482.77991 -116.449172 
L 482.77991 -117.202287 
L 482.77991 -117.955402 
L 482.77991 -118.708517 
L 482.77991 -119.461632 
L 482.77991 -120.214746 
L 482.77991 -120.967861 
L 482.77991 -121.720976 
L 482.77991 -122.474091 
L 482.77991 -123.227206 
L 482.77991 -123.980321 
L 482.77991 -124.733436 
L 482.77991 -125.486551 
L 482.77991 -126.239666 
L 482.77991 -126.992781 
L 482.77991 -127.745896 
L 482.77991 -128.49901 
L 482.77991 -129.252125 
L 482.77991 -130.00524 
L 482.77991 -130.758355 
L 482.77991 -131.51147 
L 482.77991 -132.264585 
L 482.77991 -133.0177 
L 482.77991 -133.770815 
L 482.77991 -134.52393 
L 482.77991 -135.277045 
L 482.77991 -136.030159 
L 482.77991 -136.783274 
L 482.77991 -137.536389 
L 482.77991 -138.289504 
L 482.77991 -139.042619 
L 482.77991 -139.795734 
L 482.77991 -140.548849 
L 482.77991 -141.301964 
L 482.77991 -142.055079 
L 482.77991 -142.808194 
L 482.77991 -143.561309 
L 482.77991 -144.314423 
L 482.77991 -145.067538 
L 482.77991 -145.820653 
L 482.77991 -146.573768 
L 482.77991 -147.326883 
L 482.77991 -148.079998 
L 482.77991 -148.833113 
L 482.77991 -149.586228 
L 482.77991 -150.339343 
L 482.77991 -151.092458 
L 482.77991 -151.845573 
L 482.77991 -152.598687 
L 482.77991 -153.351802 
L 482.77991 -154.104917 
L 482.77991 -154.858032 
L 482.77991 -155.611147 
L 482.77991 -156.364262 
L 482.77991 -157.117377 
L 482.77991 -157.870492 
L 482.77991 -158.623607 
L 482.77991 -159.376722 
L 482.77991 -160.129836 
L 482.77991 -160.882951 
L 482.77991 -161.636066 
L 482.77991 -162.389181 
L 482.77991 -163.142296 
L 482.77991 -163.895411 
L 482.77991 -164.648526 
L 482.77991 -165.401641 
L 482.77991 -166.154756 
L 482.77991 -166.907871 
L 482.77991 -167.660986 
L 482.77991 -168.4141 
L 482.77991 -169.167215 
L 482.77991 -169.92033 
L 482.77991 -170.673445 
L 482.77991 -171.42656 
L 482.77991 -172.179675 
L 482.77991 -172.93279 
L 482.77991 -173.685905 
L 482.77991 -174.43902 
L 482.77991 -175.192135 
L 482.77991 -175.945249 
L 482.77991 -176.698364 
L 482.77991 -177.451479 
L 482.77991 -178.204594 
L 482.77991 -178.957709 
L 482.77991 -179.710824 
L 482.77991 -180.463939 
L 482.77991 -181.217054 
L 482.77991 -181.970169 
L 482.77991 -182.723284 
L 482.77991 -183.476399 
L 482.77991 -184.229513 
L 482.77991 -184.982628 
L 482.77991 -185.735743 
L 482.77991 -186.488858 
L 482.77991 -187.241973 
L 482.77991 -187.995088 
L 482.77991 -188.748203 
L 482.77991 -189.501318 
L 482.77991 -190.254433 
L 482.77991 -191.007548 
L 482.77991 -191.760662 
L 482.77991 -192.513777 
L 482.77991 -193.266892 
L 482.77991 -194.020007 
L 482.77991 -194.773122 
L 482.77991 -195.526237 
L 482.77991 -196.279352 
L 482.77991 -197.032467 
L 482.77991 -197.785582 
L 482.77991 -198.538697 
L 482.77991 -199.291812 
L 482.77991 -200.044926 
L 482.77991 -200.798041 
L 482.77991 -201.551156 
L 482.77991 -202.304271 
L 482.77991 -203.057386 
L 482.77991 -203.810501 
L 482.77991 -204.563616 
L 482.77991 -205.316731 
L 482.77991 -206.069846 
L 482.77991 -206.822961 
L 482.77991 -207.576076 
L 482.77991 -208.32919 
L 482.77991 -209.082305 
L 482.77991 -209.83542 
L 482.77991 -210.588535 
L 482.77991 -211.34165 
L 482.77991 -212.094765 
L 482.77991 -212.84788 
L 482.77991 -213.600995 
L 482.77991 -214.35411 
L 482.77991 -215.107225 
L 482.77991 -215.860339 
L 482.77991 -216.613454 
L 482.77991 -217.366569 
L 482.77991 -218.119684 
L 482.77991 -218.872799 
L 482.77991 -219.625914 
L 482.77991 -220.379029 
L 482.77991 -221.132144 
L 482.77991 -221.885259 
L 482.77991 -222.638374 
L 482.77991 -223.391489 
L 482.77991 -224.144603 
L 482.77991 -224.897718 
L 482.77991 -225.650833 
L 482.77991 -226.403948 
L 482.77991 -227.157063 
L 482.77991 -227.910178 
L 482.77991 -228.663293 
L 482.77991 -229.416408 
L 482.77991 -230.169523 
L 482.77991 -230.922638 
L 482.77991 -231.675752 
L 482.77991 -232.428867 
L 482.77991 -233.181982 
L 482.77991 -233.935097 
L 482.77991 -234.688212 
L 482.77991 -235.441327 
L 482.77991 -236.194442 
L 482.77991 -236.947557 
L 482.77991 -237.700672 
L 482.77991 -238.453787 
L 482.77991 -239.206902 
L 482.77991 -239.960016 
L 482.77991 -240.713131 
L 482.77991 -241.466246 
L 482.77991 -242.219361 
L 482.77991 -242.972476 
L 482.77991 -243.725591 
L 482.77991 -244.478706 
L 482.77991 -245.231821 
L 482.77991 -245.984936 
L 482.77991 -246.738051 
L 482.77991 -247.491165 
L 482.77991 -248.24428 
L 482.762681 -248.997395 
L 482.762681 -249.75051 
L 482.762681 -250.503625 
L 482.762681 -251.25674 
L 482.762681 -252.009855 
L 482.762681 -252.76297 
L 482.762681 -253.516085 
L 482.904999 -254.2692 
L 482.904999 -255.022315 
L 482.904999 -255.775429 
L 482.904999 -256.528544 
L 482.904999 -257.281659 
L 482.904999 -258.034774 
L 482.904999 -258.787889 
L 482.904999 -259.541004 
L 482.904999 -260.294119 
L 482.904999 -261.047234 
L 482.904999 -261.800349 
L 482.904999 -262.553464 
L 482.904999 -263.306579 
L 482.904999 -264.059693 
L 482.904999 -264.812808 
L 482.904999 -265.565923 
L 482.904999 -266.319038 
L 482.904999 -267.072153 
L 482.904999 -267.825268 
L 482.904999 -268.578383 
L 482.904999 -269.331498 
L 482.904999 -270.084613 
L 482.904999 -270.837728 
L 482.904999 -271.590842 
L 482.904999 -272.343957 
L 482.904999 -273.097072 
L 482.904999 -273.850187 
L 482.904999 -274.603302 
L 482.904999 -275.356417 
L 482.904999 -276.109532 
L 482.904999 -276.862647 
L 482.904999 -277.615762 
L 482.762681 -278.368877 
L 482.762681 -279.121992 
L 482.762681 -279.875106 
L 482.762681 -280.628221 
L 482.762681 -281.381336 
L 482.742309 -282.134451 
L 482.742309 -282.887566 
L 482.742309 -283.640681 
L 482.742309 -284.393796 
L 482.742309 -285.146911 
L 482.742309 -285.900026 
L 482.742309 -286.653141 
L 482.742309 -287.406255 
L 482.742309 -288.15937 
L 482.742309 -288.912485 
L 482.742309 -289.6656 
L 482.742309 -290.418715 
L 482.742309 -291.17183 
L 482.742309 -291.924945 
L 482.742309 -292.67806 
L 482.742309 -293.431175 
L 482.742309 -294.18429 
L 482.742309 -294.937405 
L 482.742309 -295.690519 
L 482.742309 -296.443634 
L 482.742309 -297.196749 
L 482.742309 -297.949864 
L 482.742309 -298.702979 
L 482.742309 -299.456094 
L 482.742309 -300.209209 
L 482.742309 -300.962324 
L 482.742309 -301.715439 
L 482.742309 -302.468554 
L 482.742309 -303.221668 
L 482.742309 -303.974783 
L 482.742309 -304.727898 
L 482.742309 -305.481013 
L 482.742309 -306.234128 
L 482.742309 -306.987243 
L 482.742309 -307.740358 
L 482.742309 -308.493473 
L 482.742309 -309.246588 
L 482.742309 -309.999703 
L 482.742309 -310.752818 
L 482.742309 -311.505932 
L 482.742309 -312.259047 
L 482.742309 -313.012162 
L 482.742309 -313.765277 
L 482.742309 -314.518392 
L 482.742309 -315.271507 
L 482.742309 -316.024622 
L 482.742309 -316.777737 
L 482.742309 -317.530852 
L 482.742309 -318.283967 
L 482.742309 -319.037082 
L 482.742309 -319.790196 
L 482.742309 -320.543311 
L 482.742309 -321.296426 
L 482.742309 -322.049541 
L 482.742309 -322.802656 
L 482.742309 -323.555771 
L 482.742309 -324.308886 
L 482.742309 -325.062001 
L 482.742309 -325.815116 
L 482.742309 -326.568231 
L 482.742309 -327.321345 
L 482.742309 -328.07446 
L 482.742309 -328.827575 
L 482.742309 -329.58069 
L 482.742309 -330.333805 
L 482.742309 -331.08692 
L 482.742309 -331.840035 
L 482.742309 -332.59315 
L 482.742309 -333.346265 
L 482.742309 -334.09938 
L 482.742309 -334.852495 
L 482.742309 -335.605609 
L 482.742309 -336.358724 
L 482.742309 -337.111839 
L 482.742309 -337.864954 
L 482.742309 -338.618069 
L 482.742309 -339.371184 
L 482.742309 -340.124299 
L 482.742309 -340.877414 
L 482.742309 -341.630529 
L 482.742309 -342.383644 
L 482.742309 -343.136758 
L 482.742309 -343.889873 
L 482.750419 -344.642988 
L 482.750419 -345.396103 
L 482.750419 -346.149218 
L 482.750419 -346.902333 
L 482.750419 -347.655448 
L 482.750419 -348.408563 
L 482.750419 -349.161678 
L 482.750419 -349.914793 
L 482.750419 -350.667908 
L 482.750419 -351.421022 
L 482.750419 -352.174137 
L 482.750419 -352.927252 
L 482.750419 -353.680367 
L 482.750419 -354.433482 
L 482.750419 -355.186597 
L 482.750419 -355.939712 
L 482.750419 -356.692827 
L 482.750419 -357.445942 
L 482.750419 -358.199057 
L 482.750419 -358.952171 
L 482.750419 -359.705286 
L 482.750419 -360.458401 
L 482.750419 -361.211516 
L 482.750419 -361.964631 
L 482.750419 -362.717746 
L 482.750419 -363.470861 
L 482.750419 -364.223976 
L 482.750419 -364.977091 
L 482.750419 -365.730206 
L 482.750419 -366.483321 
L 482.750419 -367.236435 
L 482.750419 -367.98955 
L 482.750419 -368.742665 
L 482.750419 -369.49578 
L 482.750419 -370.248895 
L 482.750419 -371.00201 
L 482.750419 -371.755125 
L 482.750419 -372.50824 
L 482.750419 -373.261355 
L 482.750419 -374.01447 
L 482.750419 -374.767585 
L 482.750419 -375.520699 
L 482.750419 -376.273814 
L 482.750419 -377.026929 
L 482.750419 -377.780044 
L 482.750419 -378.533159 
L 482.750419 -379.286274 
L 482.750419 -380.039389 
L 482.750419 -380.792504 
L 482.750419 -381.545619 
L 482.750419 -382.298734 
L 482.750419 -383.051848 
L 482.750419 -383.804963 
L 482.750419 -384.558078 
L 482.750419 -385.311193 
L 482.750419 -386.064308 
L 482.750419 -386.817423 
L 482.750419 -387.570538 
L 482.750419 -388.323653 
L 482.750419 -389.076768 
L 482.750419 -389.829883 
L 482.750419 -390.582998 
L 482.750419 -391.336112 
L 482.750419 -392.089227 
L 482.750419 -392.842342 
L 482.750419 -393.595457 
L 482.750419 -394.348572 
L 482.750419 -395.101687 
L 482.852641 -395.854802 
L 482.852641 -396.607917 
L 482.852641 -397.361032 
L 482.852641 -398.114147 
L 482.852641 -398.867261 
L 482.852641 -399.620376 
L 482.852641 -400.373491 
L 482.852641 -401.126606 
L 482.852641 -401.879721 
L 482.928011 -402.632836 
L 482.928011 -403.385951 
L 482.928011 -404.139066 
L 482.928011 -404.892181 
L 482.928011 -405.645296 
L 482.928011 -406.398411 
L 482.928011 -407.151525 
L 482.928011 -407.90464 
L 482.928011 -408.657755 
L 482.928011 -409.41087 
L 482.928011 -410.163985 
L 482.928011 -410.9171 
L 482.928011 -411.670215 
L 482.928011 -412.42333 
L 482.928011 -413.176445 
L 482.928011 -413.92956 
L 482.928011 -414.682674 
L 482.928011 -415.435789 
L 482.928011 -416.188904 
L 482.928011 -416.942019 
L 482.928011 -417.695134 
L 482.928011 -418.448249 
L 482.928011 -419.201364 
L 482.928011 -419.954479 
L 482.928011 -420.707594 
L 482.928011 -421.460709 
L 482.928011 -422.213824 
L 482.928011 -422.966938 
L 482.928011 -423.720053 
L 482.928011 -424.473168 
L 482.928011 -425.226283 
L 482.928011 -425.979398 
L 482.928011 -426.732513 
L 482.928011 -427.485628 
L 482.928011 -428.238743 
L 482.928011 -428.991858 
L 482.928011 -429.744973 
L 482.928011 -430.498088 
L 482.928011 -431.251202 
L 482.928011 -432.004317 
L 482.928011 -432.757432 
L 482.928011 -433.510547 
L 482.928011 -434.263662 
L 482.928011 -435.016777 
L 482.928011 -435.769892 
L 482.928011 -436.523007 
L 482.928011 -437.276122 
L 482.928011 -438.029237 
L 482.928011 -438.782351 
L 482.928011 -439.535466 
L 482.928011 -440.288581 
L 482.928011 -441.041696 
L 482.928011 -441.794811 
L 482.928011 -442.547926 
L 482.928011 -443.301041 
L 482.928011 -444.054156 
L 482.928011 -444.807271 
L 482.928011 -445.560386 
L 482.928011 -446.313501 
L 482.928011 -447.066615 
L 482.928011 -447.81973 
L 482.928011 -448.572845 
L 482.928011 -449.32596 
L 482.928011 -450.079075 
L 482.928011 -450.83219 
L 482.928011 -451.585305 
L 482.928011 -452.33842 
L 482.928011 -453.091535 
L 482.928011 -453.84465 
L 482.928011 -454.597764 
L 482.928011 -455.350879 
L 482.928011 -456.103994 
L 482.928011 -456.857109 
L 482.928011 -457.610224 
L 482.928011 -458.363339 
L 482.928011 -459.116454 
L 482.928011 -459.869569 
L 482.928011 -460.622684 
L 482.928011 -461.375799 
L 482.928011 -462.128914 
L 482.928011 -462.882028 
L 482.928011 -463.635143 
L 482.928011 -464.388258 
L 482.928011 -465.141373 
L 482.928011 -465.894488 
L 482.928011 -466.647603 
L 482.928011 -467.400718 
L 482.928011 -468.153833 
L 482.928011 -468.906948 
L 482.928011 -469.660063 
L 482.928011 -470.413177 
L 482.928011 -471.166292 
L 482.928011 -471.919407 
L 482.928011 -472.672522 
L 482.928011 -473.425637 
L 482.928011 -474.178752 
L 482.928011 -474.931867 
L 482.928011 -475.684982 
L 482.928011 -476.438097 
L 482.928011 -477.191212 
L 482.928011 -477.944327 
L 482.928011 -478.697441 
L 482.928011 -479.450556 
L 482.928011 -480.203671 
L 482.928011 -480.956786 
L 482.928011 -481.709901 
L 482.928011 -482.463016 
L 482.928011 -483.216131 
L 482.928011 -483.969246 
L 482.928011 -484.722361 
L 482.928011 -485.475476 
L 482.928011 -486.228591 
L 482.928011 -486.981705 
L 482.928011 -487.73482 
L 482.928011 -488.487935 
L 482.928011 -489.24105 
L 482.928011 -489.994165 
L 482.928011 -490.74728 
L 482.928011 -491.500395 
L 482.928011 -492.25351 
L 482.928011 -493.006625 
L 482.928011 -493.75974 
L 482.928011 -494.512854 
L 482.928011 -495.265969 
L 482.928011 -496.019084 
L 482.928011 -496.772199 
L 482.928011 -497.525314 
L 482.928011 -498.278429 
L 482.928011 -499.031544 
L 482.928011 -499.784659 
L 482.928011 -500.537774 
L 482.928011 -501.290889 
L 482.928011 -502.044004 
L 482.928011 -502.797118 
L 482.928011 -503.550233 
L 482.928011 -504.303348 
L 482.928011 -505.056463 
L 482.928011 -505.809578 
L 482.928011 -506.562693 
L 482.928011 -507.315808 
L 482.928011 -508.068923 
L 482.928011 -508.822038 
L 482.928011 -509.575153 
L 482.928011 -510.328267 
L 482.928011 -511.081382 
L 482.928011 -511.834497 
L 482.928011 -512.587612 
L 482.928011 -513.340727 
L 482.928011 -514.093842 
L 482.928011 -514.846957 
L 482.928011 -515.600072 
L 482.928011 -516.353187 
L 482.928011 -517.106302 
L 482.928011 -517.859417 
L 482.928011 -518.612531 
L 482.928011 -519.365646 
L 482.928011 -520.118761 
L 482.928011 -520.871876 
L 482.928011 -521.624991 
L 482.928011 -522.378106 
L 482.928011 -523.131221 
L 482.928011 -523.884336 
L 482.928011 -524.637451 
L 482.928011 -525.390566 
L 482.928011 -526.14368 
L 482.928011 -526.896795 
L 482.928011 -527.64991 
L 482.928011 -528.403025 
L 482.928011 -529.15614 
L 482.928011 -529.909255 
L 482.928011 -530.66237 
L 482.928011 -531.415485 
L 482.928011 -532.1686 
L 482.928011 -532.921715 
L 482.928011 -533.67483 
z
" style="stroke: #228b22; stroke-opacity: 0.4"/>
    </defs>
    <g clip-path="url(#pd25505b45d)">
     <use xlink:href="#m439bbcba37" x="0" y="563.129375" style="fill: #228b22; fill-opacity: 0.4; stroke: #228b22; stroke-opacity: 0.4"/>
    </g>
   </g>
   <g id="matplotlib.axis_1">
    <g id="xtick_1">
     <g id="line2d_1">
      <defs>
       <path id="m65a89332d9" d="M 0 0 
L 0 3.5 
" style="stroke: #000000; stroke-width: 1.5"/>
      </defs>
      <g>
       <use xlink:href="#m65a89332d9" x="89.803262" y="506.8" style="stroke: #000000; stroke-width: 1.5"/>
      </g>
     </g>
     <g id="text_1">
      <!-- 0 -->
      <g transform="translate(85.349512 524.437812) scale(0.14 -0.14)">
       <defs>
        <path id="DejaVuSans-30" d="M 2034 4250 
Q 1547 4250 1301 3770 
Q 1056 3291 1056 2328 
Q 1056 1369 1301 889 
Q 1547 409 2034 409 
Q 2525 409 2770 889 
Q 3016 1369 3016 2328 
Q 3016 3291 2770 3770 
Q 2525 4250 2034 4250 
z
M 2034 4750 
Q 2819 4750 3233 4129 
Q 3647 3509 3647 2328 
Q 3647 1150 3233 529 
Q 2819 -91 2034 -91 
Q 1250 -91 836 529 
Q 422 1150 422 2328 
Q 422 3509 836 4129 
Q 1250 4750 2034 4750 
z
" transform="scale(0.015625)"/>
       </defs>
       <use xlink:href="#DejaVuSans-30"/>
      </g>
     </g>
    </g>
    <g id="xtick_2">
     <g id="line2d_2">
      <g>
       <use xlink:href="#m65a89332d9" x="168.432339" y="506.8" style="stroke: #000000; stroke-width: 1.5"/>
      </g>
     </g>
     <g id="text_2">
      <!-- 200 -->
      <g transform="translate(155.071089 524.437812) scale(0.14 -0.14)">
       <defs>
        <path id="DejaVuSans-32" d="M 1228 531 
L 3431 531 
L 3431 0 
L 469 0 
L 469 531 
Q 828 903 1448 1529 
Q 2069 2156 2228 2338 
Q 2531 2678 2651 2914 
Q 2772 3150 2772 3378 
Q 2772 3750 2511 3984 
Q 2250 4219 1831 4219 
Q 1534 4219 1204 4116 
Q 875 4013 500 3803 
L 500 4441 
Q 881 4594 1212 4672 
Q 1544 4750 1819 4750 
Q 2544 4750 2975 4387 
Q 3406 4025 3406 3419 
Q 3406 3131 3298 2873 
Q 3191 2616 2906 2266 
Q 2828 2175 2409 1742 
Q 1991 1309 1228 531 
z
" transform="scale(0.015625)"/>
       </defs>
       <use xlink:href="#DejaVuSans-32"/>
       <use xlink:href="#DejaVuSans-30" x="63.623047"/>
       <use xlink:href="#DejaVuSans-30" x="127.246094"/>
      </g>
     </g>
    </g>
    <g id="xtick_3">
     <g id="line2d_3">
      <g>
       <use xlink:href="#m65a89332d9" x="247.061417" y="506.8" style="stroke: #000000; stroke-width: 1.5"/>
      </g>
     </g>
     <g id="text_3">
      <!-- 400 -->
      <g transform="translate(233.700167 524.437812) scale(0.14 -0.14)">
       <defs>
        <path id="DejaVuSans-34" d="M 2419 4116 
L 825 1625 
L 2419 1625 
L 2419 4116 
z
M 2253 4666 
L 3047 4666 
L 3047 1625 
L 3713 1625 
L 3713 1100 
L 3047 1100 
L 3047 0 
L 2419 0 
L 2419 1100 
L 313 1100 
L 313 1709 
L 2253 4666 
z
" transform="scale(0.015625)"/>
       </defs>
       <use xlink:href="#DejaVuSans-34"/>
       <use xlink:href="#DejaVuSans-30" x="63.623047"/>
       <use xlink:href="#DejaVuSans-30" x="127.246094"/>
      </g>
     </g>
    </g>
    <g id="xtick_4">
     <g id="line2d_4">
      <g>
       <use xlink:href="#m65a89332d9" x="325.690494" y="506.8" style="stroke: #000000; stroke-width: 1.5"/>
      </g>
     </g>
     <g id="text_4">
      <!-- 600 -->
      <g transform="translate(312.329244 524.437812) scale(0.14 -0.14)">
       <defs>
        <path id="DejaVuSans-36" d="M 2113 2584 
Q 1688 2584 1439 2293 
Q 1191 2003 1191 1497 
Q 1191 994 1439 701 
Q 1688 409 2113 409 
Q 2538 409 2786 701 
Q 3034 994 3034 1497 
Q 3034 2003 2786 2293 
Q 2538 2584 2113 2584 
z
M 3366 4563 
L 3366 3988 
Q 3128 4100 2886 4159 
Q 2644 4219 2406 4219 
Q 1781 4219 1451 3797 
Q 1122 3375 1075 2522 
Q 1259 2794 1537 2939 
Q 1816 3084 2150 3084 
Q 2853 3084 3261 2657 
Q 3669 2231 3669 1497 
Q 3669 778 3244 343 
Q 2819 -91 2113 -91 
Q 1303 -91 875 529 
Q 447 1150 447 2328 
Q 447 3434 972 4092 
Q 1497 4750 2381 4750 
Q 2619 4750 2861 4703 
Q 3103 4656 3366 4563 
z
" transform="scale(0.015625)"/>
       </defs>
       <use xlink:href="#DejaVuSans-36"/>
       <use xlink:href="#DejaVuSans-30" x="63.623047"/>
       <use xlink:href="#DejaVuSans-30" x="127.246094"/>
      </g>
     </g>
    </g>
    <g id="xtick_5">
     <g id="line2d_5">
      <g>
       <use xlink:href="#m65a89332d9" x="404.319571" y="506.8" style="stroke: #000000; stroke-width: 1.5"/>
      </g>
     </g>
     <g id="text_5">
      <!-- 800 -->
      <g transform="translate(390.958321 524.437812) scale(0.14 -0.14)">
       <defs>
        <path id="DejaVuSans-38" d="M 2034 2216 
Q 1584 2216 1326 1975 
Q 1069 1734 1069 1313 
Q 1069 891 1326 650 
Q 1584 409 2034 409 
Q 2484 409 2743 651 
Q 3003 894 3003 1313 
Q 3003 1734 2745 1975 
Q 2488 2216 2034 2216 
z
M 1403 2484 
Q 997 2584 770 2862 
Q 544 3141 544 3541 
Q 544 4100 942 4425 
Q 1341 4750 2034 4750 
Q 2731 4750 3128 4425 
Q 3525 4100 3525 3541 
Q 3525 3141 3298 2862 
Q 3072 2584 2669 2484 
Q 3125 2378 3379 2068 
Q 3634 1759 3634 1313 
Q 3634 634 3220 271 
Q 2806 -91 2034 -91 
Q 1263 -91 848 271 
Q 434 634 434 1313 
Q 434 1759 690 2068 
Q 947 2378 1403 2484 
z
M 1172 3481 
Q 1172 3119 1398 2916 
Q 1625 2713 2034 2713 
Q 2441 2713 2670 2916 
Q 2900 3119 2900 3481 
Q 2900 3844 2670 4047 
Q 2441 4250 2034 4250 
Q 1625 4250 1398 4047 
Q 1172 3844 1172 3481 
z
" transform="scale(0.015625)"/>
       </defs>
       <use xlink:href="#DejaVuSans-38"/>
       <use xlink:href="#DejaVuSans-30" x="63.623047"/>
       <use xlink:href="#DejaVuSans-30" x="127.246094"/>
      </g>
     </g>
    </g>
    <g id="xtick_6">
     <g id="line2d_6">
      <g>
       <use xlink:href="#m65a89332d9" x="482.948648" y="506.8" style="stroke: #000000; stroke-width: 1.5"/>
      </g>
     </g>
     <g id="text_6">
      <!-- 1000 -->
      <g transform="translate(465.133648 524.437812) scale(0.14 -0.14)">
       <defs>
        <path id="DejaVuSans-31" d="M 794 531 
L 1825 531 
L 1825 4091 
L 703 3866 
L 703 4441 
L 1819 4666 
L 2450 4666 
L 2450 531 
L 3481 531 
L 3481 0 
L 794 0 
L 794 531 
z
" transform="scale(0.015625)"/>
       </defs>
       <use xlink:href="#DejaVuSans-31"/>
       <use xlink:href="#DejaVuSans-30" x="63.623047"/>
       <use xlink:href="#DejaVuSans-30" x="127.246094"/>
       <use xlink:href="#DejaVuSans-30" x="190.869141"/>
      </g>
     </g>
    </g>
    <g id="text_7">
     <!-- Resistivity  [$\Omega m$] -->
     <g transform="translate(228.394375 552.989375) scale(0.14 -0.14)">
      <defs>
       <path id="DejaVuSans-52" d="M 2841 2188 
Q 3044 2119 3236 1894 
Q 3428 1669 3622 1275 
L 4263 0 
L 3584 0 
L 2988 1197 
Q 2756 1666 2539 1819 
Q 2322 1972 1947 1972 
L 1259 1972 
L 1259 0 
L 628 0 
L 628 4666 
L 2053 4666 
Q 2853 4666 3247 4331 
Q 3641 3997 3641 3322 
Q 3641 2881 3436 2590 
Q 3231 2300 2841 2188 
z
M 1259 4147 
L 1259 2491 
L 2053 2491 
Q 2509 2491 2742 2702 
Q 2975 2913 2975 3322 
Q 2975 3731 2742 3939 
Q 2509 4147 2053 4147 
L 1259 4147 
z
" transform="scale(0.015625)"/>
       <path id="DejaVuSans-65" d="M 3597 1894 
L 3597 1613 
L 953 1613 
Q 991 1019 1311 708 
Q 1631 397 2203 397 
Q 2534 397 2845 478 
Q 3156 559 3463 722 
L 3463 178 
Q 3153 47 2828 -22 
Q 2503 -91 2169 -91 
Q 1331 -91 842 396 
Q 353 884 353 1716 
Q 353 2575 817 3079 
Q 1281 3584 2069 3584 
Q 2775 3584 3186 3129 
Q 3597 2675 3597 1894 
z
M 3022 2063 
Q 3016 2534 2758 2815 
Q 2500 3097 2075 3097 
Q 1594 3097 1305 2825 
Q 1016 2553 972 2059 
L 3022 2063 
z
" transform="scale(0.015625)"/>
       <path id="DejaVuSans-73" d="M 2834 3397 
L 2834 2853 
Q 2591 2978 2328 3040 
Q 2066 3103 1784 3103 
Q 1356 3103 1142 2972 
Q 928 2841 928 2578 
Q 928 2378 1081 2264 
Q 1234 2150 1697 2047 
L 1894 2003 
Q 2506 1872 2764 1633 
Q 3022 1394 3022 966 
Q 3022 478 2636 193 
Q 2250 -91 1575 -91 
Q 1294 -91 989 -36 
Q 684 19 347 128 
L 347 722 
Q 666 556 975 473 
Q 1284 391 1588 391 
Q 1994 391 2212 530 
Q 2431 669 2431 922 
Q 2431 1156 2273 1281 
Q 2116 1406 1581 1522 
L 1381 1569 
Q 847 1681 609 1914 
Q 372 2147 372 2553 
Q 372 3047 722 3315 
Q 1072 3584 1716 3584 
Q 2034 3584 2315 3537 
Q 2597 3491 2834 3397 
z
" transform="scale(0.015625)"/>
       <path id="DejaVuSans-69" d="M 603 3500 
L 1178 3500 
L 1178 0 
L 603 0 
L 603 3500 
z
M 603 4863 
L 1178 4863 
L 1178 4134 
L 603 4134 
L 603 4863 
z
" transform="scale(0.015625)"/>
       <path id="DejaVuSans-74" d="M 1172 4494 
L 1172 3500 
L 2356 3500 
L 2356 3053 
L 1172 3053 
L 1172 1153 
Q 1172 725 1289 603 
Q 1406 481 1766 481 
L 2356 481 
L 2356 0 
L 1766 0 
Q 1100 0 847 248 
Q 594 497 594 1153 
L 594 3053 
L 172 3053 
L 172 3500 
L 594 3500 
L 594 4494 
L 1172 4494 
z
" transform="scale(0.015625)"/>
       <path id="DejaVuSans-76" d="M 191 3500 
L 800 3500 
L 1894 563 
L 2988 3500 
L 3597 3500 
L 2284 0 
L 1503 0 
L 191 3500 
z
" transform="scale(0.015625)"/>
       <path id="DejaVuSans-79" d="M 2059 -325 
Q 1816 -950 1584 -1140 
Q 1353 -1331 966 -1331 
L 506 -1331 
L 506 -850 
L 844 -850 
Q 1081 -850 1212 -737 
Q 1344 -625 1503 -206 
L 1606 56 
L 191 3500 
L 800 3500 
L 1894 763 
L 2988 3500 
L 3597 3500 
L 2059 -325 
z
" transform="scale(0.015625)"/>
       <path id="DejaVuSans-20" transform="scale(0.015625)"/>
       <path id="DejaVuSans-5b" d="M 550 4863 
L 1875 4863 
L 1875 4416 
L 1125 4416 
L 1125 -397 
L 1875 -397 
L 1875 -844 
L 550 -844 
L 550 4863 
z
" transform="scale(0.015625)"/>
       <path id="DejaVuSans-3a9" d="M 4647 556 
L 4647 0 
L 2772 0 
L 2772 556 
Q 3325 859 3634 1378 
Q 3944 1897 3944 2528 
Q 3944 3278 3531 3731 
Q 3119 4184 2444 4184 
Q 1769 4184 1355 3729 
Q 941 3275 941 2528 
Q 941 1897 1250 1378 
Q 1563 859 2119 556 
L 2119 0 
L 244 0 
L 244 556 
L 1241 556 
Q 747 991 519 1456 
Q 294 1922 294 2497 
Q 294 3491 894 4106 
Q 1491 4722 2444 4722 
Q 3391 4722 3994 4106 
Q 4594 3494 4594 2528 
Q 4594 1922 4372 1459 
Q 4150 997 3647 556 
L 4647 556 
z
" transform="scale(0.015625)"/>
       <path id="DejaVuSans-6d" d="M 3328 2828 
Q 3544 3216 3844 3400 
Q 4144 3584 4550 3584 
Q 5097 3584 5394 3201 
Q 5691 2819 5691 2113 
L 5691 0 
L 5113 0 
L 5113 2094 
Q 5113 2597 4934 2840 
Q 4756 3084 4391 3084 
Q 3944 3084 3684 2787 
Q 3425 2491 3425 1978 
L 3425 0 
L 2847 0 
L 2847 2094 
Q 2847 2600 2669 2842 
Q 2491 3084 2119 3084 
Q 1678 3084 1418 2786 
Q 1159 2488 1159 1978 
L 1159 0 
L 581 0 
L 581 3500 
L 1159 3500 
L 1159 2956 
Q 1356 3278 1631 3431 
Q 1906 3584 2284 3584 
Q 2666 3584 2933 3390 
Q 3200 3197 3328 2828 
z
" transform="scale(0.015625)"/>
       <path id="DejaVuSans-5d" d="M 1947 4863 
L 1947 -844 
L 622 -844 
L 622 -397 
L 1369 -397 
L 1369 4416 
L 622 4416 
L 622 4863 
L 1947 4863 
z
" transform="scale(0.015625)"/>
      </defs>
      <use xlink:href="#DejaVuSans-52" transform="translate(0 0.015625)"/>
      <use xlink:href="#DejaVuSans-65" transform="translate(69.482422 0.015625)"/>
      <use xlink:href="#DejaVuSans-73" transform="translate(131.005859 0.015625)"/>
      <use xlink:href="#DejaVuSans-69" transform="translate(183.105469 0.015625)"/>
      <use xlink:href="#DejaVuSans-73" transform="translate(210.888672 0.015625)"/>
      <use xlink:href="#DejaVuSans-74" transform="translate(262.988281 0.015625)"/>
      <use xlink:href="#DejaVuSans-69" transform="translate(302.197266 0.015625)"/>
      <use xlink:href="#DejaVuSans-76" transform="translate(329.980469 0.015625)"/>
      <use xlink:href="#DejaVuSans-69" transform="translate(389.160156 0.015625)"/>
      <use xlink:href="#DejaVuSans-74" transform="translate(416.943359 0.015625)"/>
      <use xlink:href="#DejaVuSans-79" transform="translate(456.152344 0.015625)"/>
      <use xlink:href="#DejaVuSans-20" transform="translate(515.332031 0.015625)"/>
      <use xlink:href="#DejaVuSans-20" transform="translate(547.119141 0.015625)"/>
      <use xlink:href="#DejaVuSans-5b" transform="translate(578.90625 0.015625)"/>
      <use xlink:href="#DejaVuSans-3a9" transform="translate(617.919922 0.015625)"/>
      <use xlink:href="#DejaVuSans-6d" transform="translate(694.335938 0.015625)"/>
      <use xlink:href="#DejaVuSans-5d" transform="translate(791.748047 0.015625)"/>
     </g>
    </g>
   </g>
   <g id="matplotlib.axis_2">
    <g id="ytick_1">
     <g id="line2d_7">
      <defs>
       <path id="m9e1d9ff993" d="M 0 0 
L -3.5 0 
" style="stroke: #000000; stroke-width: 1.5"/>
      </defs>
      <g>
       <use xlink:href="#m9e1d9ff993" x="60.564375" y="29.454545" style="stroke: #000000; stroke-width: 1.5"/>
      </g>
     </g>
     <g id="text_8">
      <!-- 0 -->
      <g transform="translate(44.656875 34.773452) scale(0.14 -0.14)">
       <use xlink:href="#DejaVuSans-30"/>
      </g>
     </g>
    </g>
    <g id="ytick_2">
     <g id="line2d_8">
      <g>
       <use xlink:href="#m9e1d9ff993" x="60.564375" y="104.766035" style="stroke: #000000; stroke-width: 1.5"/>
      </g>
     </g>
     <g id="text_9">
      <!-- 10 -->
      <g transform="translate(35.749375 110.084941) scale(0.14 -0.14)">
       <use xlink:href="#DejaVuSans-31"/>
       <use xlink:href="#DejaVuSans-30" x="63.623047"/>
      </g>
     </g>
    </g>
    <g id="ytick_3">
     <g id="line2d_9">
      <g>
       <use xlink:href="#m9e1d9ff993" x="60.564375" y="180.077525" style="stroke: #000000; stroke-width: 1.5"/>
      </g>
     </g>
     <g id="text_10">
      <!-- 20 -->
      <g transform="translate(35.749375 185.396431) scale(0.14 -0.14)">
       <use xlink:href="#DejaVuSans-32"/>
       <use xlink:href="#DejaVuSans-30" x="63.623047"/>
      </g>
     </g>
    </g>
    <g id="ytick_4">
     <g id="line2d_10">
      <g>
       <use xlink:href="#m9e1d9ff993" x="60.564375" y="255.389014" style="stroke: #000000; stroke-width: 1.5"/>
      </g>
     </g>
     <g id="text_11">
      <!-- 30 -->
      <g transform="translate(35.749375 260.70792) scale(0.14 -0.14)">
       <defs>
        <path id="DejaVuSans-33" d="M 2597 2516 
Q 3050 2419 3304 2112 
Q 3559 1806 3559 1356 
Q 3559 666 3084 287 
Q 2609 -91 1734 -91 
Q 1441 -91 1130 -33 
Q 819 25 488 141 
L 488 750 
Q 750 597 1062 519 
Q 1375 441 1716 441 
Q 2309 441 2620 675 
Q 2931 909 2931 1356 
Q 2931 1769 2642 2001 
Q 2353 2234 1838 2234 
L 1294 2234 
L 1294 2753 
L 1863 2753 
Q 2328 2753 2575 2939 
Q 2822 3125 2822 3475 
Q 2822 3834 2567 4026 
Q 2313 4219 1838 4219 
Q 1578 4219 1281 4162 
Q 984 4106 628 3988 
L 628 4550 
Q 988 4650 1302 4700 
Q 1616 4750 1894 4750 
Q 2613 4750 3031 4423 
Q 3450 4097 3450 3541 
Q 3450 3153 3228 2886 
Q 3006 2619 2597 2516 
z
" transform="scale(0.015625)"/>
       </defs>
       <use xlink:href="#DejaVuSans-33"/>
       <use xlink:href="#DejaVuSans-30" x="63.623047"/>
      </g>
     </g>
    </g>
    <g id="ytick_5">
     <g id="line2d_11">
      <g>
       <use xlink:href="#m9e1d9ff993" x="60.564375" y="330.700504" style="stroke: #000000; stroke-width: 1.5"/>
      </g>
     </g>
     <g id="text_12">
      <!-- 40 -->
      <g transform="translate(35.749375 336.01941) scale(0.14 -0.14)">
       <use xlink:href="#DejaVuSans-34"/>
       <use xlink:href="#DejaVuSans-30" x="63.623047"/>
      </g>
     </g>
    </g>
    <g id="ytick_6">
     <g id="line2d_12">
      <g>
       <use xlink:href="#m9e1d9ff993" x="60.564375" y="406.011993" style="stroke: #000000; stroke-width: 1.5"/>
      </g>
     </g>
     <g id="text_13">
      <!-- 50 -->
      <g transform="translate(35.749375 411.3309) scale(0.14 -0.14)">
       <defs>
        <path id="DejaVuSans-35" d="M 691 4666 
L 3169 4666 
L 3169 4134 
L 1269 4134 
L 1269 2991 
Q 1406 3038 1543 3061 
Q 1681 3084 1819 3084 
Q 2600 3084 3056 2656 
Q 3513 2228 3513 1497 
Q 3513 744 3044 326 
Q 2575 -91 1722 -91 
Q 1428 -91 1123 -41 
Q 819 9 494 109 
L 494 744 
Q 775 591 1075 516 
Q 1375 441 1709 441 
Q 2250 441 2565 725 
Q 2881 1009 2881 1497 
Q 2881 1984 2565 2268 
Q 2250 2553 1709 2553 
Q 1456 2553 1204 2497 
Q 953 2441 691 2322 
L 691 4666 
z
" transform="scale(0.015625)"/>
       </defs>
       <use xlink:href="#DejaVuSans-35"/>
       <use xlink:href="#DejaVuSans-30" x="63.623047"/>
      </g>
     </g>
    </g>
    <g id="ytick_7">
     <g id="line2d_13">
      <g>
       <use xlink:href="#m9e1d9ff993" x="60.564375" y="481.323483" style="stroke: #000000; stroke-width: 1.5"/>
      </g>
     </g>
     <g id="text_14">
      <!-- 60 -->
      <g transform="translate(35.749375 486.642389) scale(0.14 -0.14)">
       <use xlink:href="#DejaVuSans-36"/>
       <use xlink:href="#DejaVuSans-30" x="63.623047"/>
      </g>
     </g>
    </g>
    <g id="text_15">
     <!-- Depth [m] -->
     <g transform="translate(17.837812 287.826875) rotate(-90) scale(0.14 -0.14)">
      <defs>
       <path id="DejaVuSans-44" d="M 1259 4147 
L 1259 519 
L 2022 519 
Q 2988 519 3436 956 
Q 3884 1394 3884 2338 
Q 3884 3275 3436 3711 
Q 2988 4147 2022 4147 
L 1259 4147 
z
M 628 4666 
L 1925 4666 
Q 3281 4666 3915 4102 
Q 4550 3538 4550 2338 
Q 4550 1131 3912 565 
Q 3275 0 1925 0 
L 628 0 
L 628 4666 
z
" transform="scale(0.015625)"/>
       <path id="DejaVuSans-70" d="M 1159 525 
L 1159 -1331 
L 581 -1331 
L 581 3500 
L 1159 3500 
L 1159 2969 
Q 1341 3281 1617 3432 
Q 1894 3584 2278 3584 
Q 2916 3584 3314 3078 
Q 3713 2572 3713 1747 
Q 3713 922 3314 415 
Q 2916 -91 2278 -91 
Q 1894 -91 1617 61 
Q 1341 213 1159 525 
z
M 3116 1747 
Q 3116 2381 2855 2742 
Q 2594 3103 2138 3103 
Q 1681 3103 1420 2742 
Q 1159 2381 1159 1747 
Q 1159 1113 1420 752 
Q 1681 391 2138 391 
Q 2594 391 2855 752 
Q 3116 1113 3116 1747 
z
" transform="scale(0.015625)"/>
       <path id="DejaVuSans-68" d="M 3513 2113 
L 3513 0 
L 2938 0 
L 2938 2094 
Q 2938 2591 2744 2837 
Q 2550 3084 2163 3084 
Q 1697 3084 1428 2787 
Q 1159 2491 1159 1978 
L 1159 0 
L 581 0 
L 581 4863 
L 1159 4863 
L 1159 2956 
Q 1366 3272 1645 3428 
Q 1925 3584 2291 3584 
Q 2894 3584 3203 3211 
Q 3513 2838 3513 2113 
z
" transform="scale(0.015625)"/>
      </defs>
      <use xlink:href="#DejaVuSans-44"/>
      <use xlink:href="#DejaVuSans-65" x="77.001953"/>
      <use xlink:href="#DejaVuSans-70" x="138.525391"/>
      <use xlink:href="#DejaVuSans-74" x="202.001953"/>
      <use xlink:href="#DejaVuSans-68" x="241.210938"/>
      <use xlink:href="#DejaVuSans-20" x="304.589844"/>
      <use xlink:href="#DejaVuSans-5b" x="336.376953"/>
      <use xlink:href="#DejaVuSans-6d" x="375.390625"/>
      <use xlink:href="#DejaVuSans-5d" x="472.802734"/>
     </g>
    </g>
   </g>
   <g id="line2d_14">
    <path d="M 422.520373 29.454545 
L 422.520373 168.027688 
L 136.627261 168.027688 
L 136.627261 252.376557 
L 278.031346 252.376557 
L 278.031346 272.71066 
L 154.52295 272.71066 
L 154.52295 474.545455 
L 154.52295 474.545455 
" clip-path="url(#pd25505b45d)" style="fill: none; stroke: #000000; stroke-opacity: 0.5; stroke-width: 2; stroke-linecap: square"/>
   </g>
   <g id="line2d_15">
    <path d="M 349.654869 29.454545 
L 349.654869 175.558837 
L 242.210568 175.558837 
L 242.210568 302.835256 
L 441.152403 302.835256 
L 441.152403 387.93724 
L 471.151863 387.93724 
L 471.151863 474.545455 
L 471.151863 474.545455 
" clip-path="url(#pd25505b45d)" style="fill: none; stroke: #000000; stroke-opacity: 0.5; stroke-width: 2; stroke-linecap: square"/>
   </g>
   <g id="line2d_16">
    <path d="M 197.276515 29.454545 
L 197.276515 62.591601 
L 390.027306 62.591601 
L 390.027306 201.917859 
L 292.295524 201.917859 
L 292.295524 311.11952 
L 268.672367 311.11952 
L 268.672367 474.545455 
L 268.672367 474.545455 
" clip-path="url(#pd25505b45d)" style="fill: none; stroke: #000000; stroke-opacity: 0.5; stroke-width: 2; stroke-linecap: square"/>
   </g>
   <g id="patch_3">
    <path d="M 60.564375 496.8 
L 60.564375 7.2 
" style="fill: none; stroke: #000000; stroke-width: 1.5; stroke-linejoin: miter; stroke-linecap: square"/>
   </g>
   <g id="patch_4">
    <path d="M 70.564375 506.8 
L 502.564375 506.8 
" style="fill: none; stroke: #000000; stroke-width: 1.5; stroke-linejoin: miter; stroke-linecap: square"/>
   </g>
  </g>
 </g>
 <defs>
  <clipPath id="pd25505b45d">
   <rect x="70.564375" y="7.2" width="432" height="489.6"/>
  </clipPath>
 </defs>
</svg>
