<?xml version="1.0" encoding="utf-8" standalone="no"?>
<!DOCTYPE svg PUBLIC "-//W3C//DTD SVG 1.1//EN"
  "http://www.w3.org/Graphics/SVG/1.1/DTD/svg11.dtd">
<svg xmlns:xlink="http://www.w3.org/1999/xlink" width="535.456773pt" height="703.211875pt" viewBox="0 0 535.456773 703.211875" xmlns="http://www.w3.org/2000/svg" version="1.1">
 <metadata>
  <rdf:RDF xmlns:dc="http://purl.org/dc/elements/1.1/" xmlns:cc="http://creativecommons.org/ns#" xmlns:rdf="http://www.w3.org/1999/02/22-rdf-syntax-ns#">
   <cc:Work>
    <dc:type rdf:resource="http://purl.org/dc/dcmitype/StillImage"/>
    <dc:date>2024-07-03T18:52:48.252634</dc:date>
    <dc:format>image/svg+xml</dc:format>
    <dc:creator>
     <cc:Agent>
      <dc:title>Matplotlib v3.8.0, https://matplotlib.org/</dc:title>
     </cc:Agent>
    </dc:creator>
   </cc:Work>
  </rdf:RDF>
 </metadata>
 <defs>
  <style type="text/css">*{stroke-linejoin: round; stroke-linecap: butt}</style>
 </defs>
 <g id="figure_1">
  <g id="patch_1">
   <path d="M 0 703.211875 
L 535.456773 703.211875 
L 535.456773 0 
L 0 0 
z
" style="fill: #ffffff"/>
  </g>
  <g id="axes_1">
   <g id="patch_2">
    <path d="M 87.8775 619.2 
L 519.8775 619.2 
L 519.8775 7.2 
L 87.8775 7.2 
z
" style="fill: #ffffff"/>
   </g>
   <g id="PolyCollection_1">
    <defs>
     <path id="m5f762d9b50" d="M 500.241136 -668.193693 
L 107.524702 -668.193693 
L 107.524702 -667.2523 
L 107.524702 -666.310906 
L 107.524702 -665.369512 
L 107.524702 -664.428119 
L 107.524702 -663.486725 
L 107.524702 -662.545331 
L 107.524702 -661.603938 
L 107.524702 -660.662544 
L 107.524702 -659.72115 
L 107.524702 -658.779757 
L 107.524702 -657.838363 
L 107.524702 -656.89697 
L 107.524702 -655.955576 
L 107.524702 -655.014182 
L 107.524702 -654.072789 
L 107.524702 -653.131395 
L 107.524702 -652.190001 
L 107.524702 -651.248608 
L 107.524702 -650.307214 
L 107.524702 -649.365821 
L 107.524702 -648.424427 
L 107.524702 -647.483033 
L 107.524702 -646.54164 
L 107.524702 -645.600246 
L 107.524702 -644.658852 
L 107.524702 -643.717459 
L 107.524702 -642.776065 
L 107.524702 -641.834671 
L 107.524702 -640.893278 
L 107.524702 -639.951884 
L 107.524702 -639.010491 
L 107.524702 -638.069097 
L 107.524702 -637.127703 
L 107.524702 -636.18631 
L 107.524702 -635.244916 
L 107.524702 -634.303522 
L 107.524702 -633.362129 
L 107.524702 -632.420735 
L 107.524702 -631.479342 
L 107.524702 -630.537948 
L 107.524702 -629.596554 
L 107.524702 -628.655161 
L 107.524702 -627.713767 
L 107.524702 -626.772373 
L 107.524702 -625.83098 
L 107.520442 -624.889586 
L 107.520442 -623.948192 
L 107.520442 -623.006799 
L 107.520442 -622.065405 
L 107.520442 -621.124012 
L 107.520442 -620.182618 
L 107.520442 -619.241224 
L 107.520442 -618.299831 
L 107.520442 -617.358437 
L 107.520442 -616.417043 
L 107.520442 -615.47565 
L 107.520442 -614.534256 
L 107.520442 -613.592863 
L 107.520442 -612.651469 
L 107.520442 -611.710075 
L 107.520442 -610.768682 
L 107.520442 -609.827288 
L 107.520442 -608.885894 
L 107.520442 -607.944501 
L 107.520442 -607.003107 
L 107.520442 -606.061713 
L 107.520442 -605.12032 
L 107.520442 -604.178926 
L 107.520442 -603.237533 
L 107.520442 -602.296139 
L 107.520442 -601.354745 
L 107.520442 -600.413352 
L 107.520442 -599.471958 
L 107.520442 -598.530564 
L 107.520442 -597.589171 
L 107.520442 -596.647777 
L 107.520442 -595.706384 
L 107.520442 -594.76499 
L 107.520442 -593.823596 
L 107.520442 -592.882203 
L 107.520442 -591.940809 
L 107.520442 -590.999415 
L 107.520442 -590.058022 
L 107.520442 -589.116628 
L 107.520442 -588.175234 
L 107.520442 -587.233841 
L 107.520442 -586.292447 
L 107.520442 -585.351054 
L 107.520442 -584.40966 
L 107.520442 -583.468266 
L 107.520442 -582.526873 
L 107.520442 -581.585479 
L 107.520442 -580.644085 
L 107.520442 -579.702692 
L 107.520442 -578.761298 
L 107.520442 -577.819905 
L 107.520442 -576.878511 
L 107.520442 -575.937117 
L 107.520442 -574.995724 
L 107.520442 -574.05433 
L 107.520442 -573.112936 
L 107.520442 -572.171543 
L 107.520442 -571.230149 
L 107.520442 -570.288755 
L 107.527114 -569.347362 
L 107.527114 -568.405968 
L 107.527114 -567.464575 
L 107.527114 -566.523181 
L 107.527114 -565.581787 
L 107.527114 -564.640394 
L 107.527114 -563.699 
L 107.527114 -562.757606 
L 107.527114 -561.816213 
L 107.527114 -560.874819 
L 107.527114 -559.933426 
L 107.527114 -558.992032 
L 107.527114 -558.050638 
L 107.527114 -557.109245 
L 107.527114 -556.167851 
L 107.527114 -555.226457 
L 107.558108 -554.285064 
L 107.558108 -553.34367 
L 107.558108 -552.402276 
L 107.558108 -551.460883 
L 107.558108 -550.519489 
L 107.558108 -549.578096 
L 107.558108 -548.636702 
L 107.558108 -547.695308 
L 107.558108 -546.753915 
L 107.558108 -545.812521 
L 107.558108 -544.871127 
L 107.558108 -543.929734 
L 107.558108 -542.98834 
L 107.558108 -542.046947 
L 107.558108 -541.105553 
L 107.558108 -540.164159 
L 107.558108 -539.222766 
L 107.558108 -538.281372 
L 107.558108 -537.339978 
L 107.558108 -536.398585 
L 107.558108 -535.457191 
L 107.558108 -534.515797 
L 107.558108 -533.574404 
L 107.558108 -532.63301 
L 107.558108 -531.691617 
L 107.558108 -530.750223 
L 107.558108 -529.808829 
L 107.558108 -528.867436 
L 107.558108 -527.926042 
L 107.558108 -526.984648 
L 107.558108 -526.043255 
L 107.558108 -525.101861 
L 107.558108 -524.160468 
L 107.558108 -523.219074 
L 107.558108 -522.27768 
L 107.558108 -521.336287 
L 107.558108 -520.394893 
L 107.558108 -519.453499 
L 107.518569 -518.512106 
L 107.518569 -517.570712 
L 107.518569 -516.629318 
L 107.518569 -515.687925 
L 107.518569 -514.746531 
L 107.518569 -513.805138 
L 107.518569 -512.863744 
L 107.518569 -511.92235 
L 107.518569 -510.980957 
L 107.518569 -510.039563 
L 107.518569 -509.098169 
L 107.518569 -508.156776 
L 107.519224 -507.215382 
L 107.519224 -506.273989 
L 107.519224 -505.332595 
L 107.519224 -504.391201 
L 107.519224 -503.449808 
L 107.519224 -502.508414 
L 107.519224 -501.56702 
L 107.519224 -500.625627 
L 107.519224 -499.684233 
L 107.519224 -498.742839 
L 107.519224 -497.801446 
L 107.519224 -496.860052 
L 107.519224 -495.918659 
L 107.519224 -494.977265 
L 107.519224 -494.035871 
L 107.519224 -493.094478 
L 107.519224 -492.153084 
L 107.519224 -491.21169 
L 107.519224 -490.270297 
L 107.519224 -489.328903 
L 107.519224 -488.38751 
L 107.519224 -487.446116 
L 107.519224 -486.504722 
L 107.519224 -485.563329 
L 107.519224 -484.621935 
L 107.519224 -483.680541 
L 107.519224 -482.739148 
L 107.519224 -481.797754 
L 107.519224 -480.85636 
L 107.519224 -479.914967 
L 107.519224 -478.973573 
L 107.519224 -478.03218 
L 107.519224 -477.090786 
L 107.519224 -476.149392 
L 107.519224 -475.207999 
L 107.519224 -474.266605 
L 107.519224 -473.325211 
L 107.519224 -472.383818 
L 107.519224 -471.442424 
L 107.519224 -470.501031 
L 107.519224 -469.559637 
L 107.519224 -468.618243 
L 107.519224 -467.67685 
L 107.519224 -466.735456 
L 107.519224 -465.794062 
L 107.519224 -464.852669 
L 107.519224 -463.911275 
L 107.519224 -462.969881 
L 107.519224 -462.028488 
L 107.519224 -461.087094 
L 107.519224 -460.145701 
L 107.52386 -459.204307 
L 107.52386 -458.262913 
L 107.52386 -457.32152 
L 107.52386 -456.380126 
L 107.52386 -455.438732 
L 107.52386 -454.497339 
L 107.52386 -453.555945 
L 107.52386 -452.614552 
L 107.52386 -451.673158 
L 107.52386 -450.731764 
L 107.52386 -449.790371 
L 107.52386 -448.848977 
L 107.52386 -447.907583 
L 107.52386 -446.96619 
L 107.52386 -446.024796 
L 107.52386 -445.083402 
L 107.52386 -444.142009 
L 107.52386 -443.200615 
L 107.52386 -442.259222 
L 107.52386 -441.317828 
L 107.52386 -440.376434 
L 107.52386 -439.435041 
L 107.52386 -438.493647 
L 107.52386 -437.552253 
L 107.52386 -436.61086 
L 107.52386 -435.669466 
L 107.52386 -434.728073 
L 107.52386 -433.786679 
L 107.52386 -432.845285 
L 107.52386 -431.903892 
L 107.52386 -430.962498 
L 107.52386 -430.021104 
L 107.52386 -429.079711 
L 107.52386 -428.138317 
L 107.52386 -427.196923 
L 107.52386 -426.25553 
L 107.52386 -425.314136 
L 107.52386 -424.372743 
L 107.52386 -423.431349 
L 107.52386 -422.489955 
L 107.52386 -421.548562 
L 107.52386 -420.607168 
L 107.52386 -419.665774 
L 107.52386 -418.724381 
L 107.52386 -417.782987 
L 107.52386 -416.841594 
L 107.52386 -415.9002 
L 107.52386 -414.958806 
L 107.52386 -414.017413 
L 107.52386 -413.076019 
L 107.52386 -412.134625 
L 107.52386 -411.193232 
L 107.52386 -410.251838 
L 107.52386 -409.310444 
L 107.52386 -408.369051 
L 107.52386 -407.427657 
L 107.52386 -406.486264 
L 107.52386 -405.54487 
L 107.52386 -404.603476 
L 107.52386 -403.662083 
L 107.52386 -402.720689 
L 107.52386 -401.779295 
L 107.52386 -400.837902 
L 107.52386 -399.896508 
L 107.52386 -398.955115 
L 107.52386 -398.013721 
L 107.52386 -397.072327 
L 107.52386 -396.130934 
L 107.52386 -395.18954 
L 107.52386 -394.248146 
L 107.52386 -393.306753 
L 107.52386 -392.365359 
L 107.52386 -391.423965 
L 107.52386 -390.482572 
L 107.52386 -389.541178 
L 107.52386 -388.599785 
L 107.52386 -387.658391 
L 107.52386 -386.716997 
L 107.52386 -385.775604 
L 107.52386 -384.83421 
L 107.52386 -383.892816 
L 107.52386 -382.951423 
L 107.52386 -382.010029 
L 107.52386 -381.068635 
L 107.52386 -380.127242 
L 107.52386 -379.185848 
L 107.52386 -378.244455 
L 107.52386 -377.303061 
L 107.52386 -376.361667 
L 107.52386 -375.420274 
L 107.52386 -374.47888 
L 107.52386 -373.537486 
L 107.52386 -372.596093 
L 107.52386 -371.654699 
L 107.52386 -370.713306 
L 107.52386 -369.771912 
L 107.52386 -368.830518 
L 107.52386 -367.889125 
L 107.52386 -366.947731 
L 107.52386 -366.006337 
L 107.52386 -365.064944 
L 107.52386 -364.12355 
L 107.52386 -363.182156 
L 107.52386 -362.240763 
L 107.52386 -361.299369 
L 107.52386 -360.357976 
L 107.52386 -359.416582 
L 107.52386 -358.475188 
L 107.52386 -357.533795 
L 107.52386 -356.592401 
L 107.52386 -355.651007 
L 107.52386 -354.709614 
L 107.52386 -353.76822 
L 107.52386 -352.826827 
L 107.52386 -351.885433 
L 107.52386 -350.944039 
L 107.52386 -350.002646 
L 107.52386 -349.061252 
L 107.52386 -348.119858 
L 107.52386 -347.178465 
L 107.52386 -346.237071 
L 107.52386 -345.295677 
L 107.52386 -344.354284 
L 107.52386 -343.41289 
L 107.52386 -342.471497 
L 107.52386 -341.530103 
L 107.52386 -340.588709 
L 107.52386 -339.647316 
L 107.52386 -338.705922 
L 107.52386 -337.764528 
L 107.52386 -336.823135 
L 107.52386 -335.881741 
L 107.52386 -334.940348 
L 107.52386 -333.998954 
L 107.52386 -333.05756 
L 107.52386 -332.116167 
L 107.52386 -331.174773 
L 107.52386 -330.233379 
L 107.52386 -329.291986 
L 107.52386 -328.350592 
L 107.52386 -327.409198 
L 107.52386 -326.467805 
L 107.528214 -325.526411 
L 107.528214 -324.585018 
L 107.528214 -323.643624 
L 107.528214 -322.70223 
L 107.528214 -321.760837 
L 107.528214 -320.819443 
L 107.528214 -319.878049 
L 107.528214 -318.936656 
L 107.528214 -317.995262 
L 107.528214 -317.053869 
L 107.528214 -316.112475 
L 107.528214 -315.171081 
L 107.528214 -314.229688 
L 107.528214 -313.288294 
L 107.528214 -312.3469 
L 107.528214 -311.405507 
L 107.528214 -310.464113 
L 107.528214 -309.522719 
L 107.528214 -308.581326 
L 107.528214 -307.639932 
L 107.528214 -306.698539 
L 107.528214 -305.757145 
L 107.528214 -304.815751 
L 107.528214 -303.874358 
L 107.528214 -302.932964 
L 107.528214 -301.99157 
L 107.528214 -301.050177 
L 107.528214 -300.108783 
L 107.528214 -299.16739 
L 107.528214 -298.225996 
L 107.528214 -297.284602 
L 107.528214 -296.343209 
L 107.528214 -295.401815 
L 107.528214 -294.460421 
L 107.528214 -293.519028 
L 107.528214 -292.577634 
L 107.528214 -291.63624 
L 107.528214 -290.694847 
L 107.528214 -289.753453 
L 107.528214 -288.81206 
L 107.528214 -287.870666 
L 107.528214 -286.929272 
L 107.528214 -285.987879 
L 107.528214 -285.046485 
L 107.528214 -284.105091 
L 107.528214 -283.163698 
L 107.528214 -282.222304 
L 107.528214 -281.280911 
L 107.528214 -280.339517 
L 107.528214 -279.398123 
L 107.528214 -278.45673 
L 107.528214 -277.515336 
L 107.528214 -276.573942 
L 107.528214 -275.632549 
L 107.528214 -274.691155 
L 107.528214 -273.749761 
L 107.528214 -272.808368 
L 107.528214 -271.866974 
L 107.528214 -270.925581 
L 107.528214 -269.984187 
L 107.528214 -269.042793 
L 107.513864 -268.1014 
L 107.513864 -267.160006 
L 107.513864 -266.218612 
L 107.513864 -265.277219 
L 107.513864 -264.335825 
L 107.513864 -263.394432 
L 107.513864 -262.453038 
L 107.513864 -261.511644 
L 107.513864 -260.570251 
L 107.513864 -259.628857 
L 107.513864 -258.687463 
L 107.513864 -257.74607 
L 107.513864 -256.804676 
L 107.513864 -255.863282 
L 107.513864 -254.921889 
L 107.513864 -253.980495 
L 107.513864 -253.039102 
L 107.513864 -252.097708 
L 107.513864 -251.156314 
L 107.513864 -250.214921 
L 107.513864 -249.273527 
L 107.513864 -248.332133 
L 107.513864 -247.39074 
L 107.513864 -246.449346 
L 107.513864 -245.507953 
L 107.513864 -244.566559 
L 107.513864 -243.625165 
L 107.513864 -242.683772 
L 107.513864 -241.742378 
L 107.513864 -240.800984 
L 107.513864 -239.859591 
L 107.513864 -238.918197 
L 107.513864 -237.976803 
L 107.513864 -237.03541 
L 107.513864 -236.094016 
L 107.513864 -235.152623 
L 107.513864 -234.211229 
L 107.513864 -233.269835 
L 107.513864 -232.328442 
L 107.513864 -231.387048 
L 107.513864 -230.445654 
L 107.513864 -229.504261 
L 107.513864 -228.562867 
L 107.513864 -227.621474 
L 107.513864 -226.68008 
L 107.513864 -225.738686 
L 107.513864 -224.797293 
L 107.513864 -223.855899 
L 107.513864 -222.914505 
L 107.513864 -221.973112 
L 107.513864 -221.031718 
L 107.513864 -220.090324 
L 107.513864 -219.148931 
L 107.513864 -218.207537 
L 107.513864 -217.266144 
L 107.513864 -216.32475 
L 107.513864 -215.383356 
L 107.513864 -214.441963 
L 107.513864 -213.500569 
L 107.513864 -212.559175 
L 107.513864 -211.617782 
L 107.513864 -210.676388 
L 107.513864 -209.734995 
L 107.513864 -208.793601 
L 107.513864 -207.852207 
L 107.513864 -206.910814 
L 107.513864 -205.96942 
L 107.513864 -205.028026 
L 107.513864 -204.086633 
L 107.513864 -203.145239 
L 107.513864 -202.203845 
L 107.513864 -201.262452 
L 107.513864 -200.321058 
L 107.513864 -199.379665 
L 107.513864 -198.438271 
L 107.513864 -197.496877 
L 107.513864 -196.555484 
L 107.513864 -195.61409 
L 107.513864 -194.672696 
L 107.513864 -193.731303 
L 107.513864 -192.789909 
L 107.513864 -191.848516 
L 107.513864 -190.907122 
L 107.513864 -189.965728 
L 107.513864 -189.024335 
L 107.513864 -188.082941 
L 107.513864 -187.141547 
L 107.513864 -186.200154 
L 107.513864 -185.25876 
L 107.513864 -184.317366 
L 107.513864 -183.375973 
L 107.513864 -182.434579 
L 107.513864 -181.493186 
L 107.513864 -180.551792 
L 107.513864 -179.610398 
L 107.513864 -178.669005 
L 107.513864 -177.727611 
L 107.513864 -176.786217 
L 107.513864 -175.844824 
L 107.513864 -174.90343 
L 107.513864 -173.962037 
L 107.513864 -173.020643 
L 107.513864 -172.079249 
L 107.513864 -171.137856 
L 107.513864 -170.196462 
L 107.513864 -169.255068 
L 107.513864 -168.313675 
L 107.513864 -167.372281 
L 107.513864 -166.430887 
L 107.513864 -165.489494 
L 107.513864 -164.5481 
L 107.513864 -163.606707 
L 107.513864 -162.665313 
L 107.513864 -161.723919 
L 107.513864 -160.782526 
L 107.513864 -159.841132 
L 107.513864 -158.899738 
L 107.513864 -157.958345 
L 107.513864 -157.016951 
L 107.513864 -156.075558 
L 107.513864 -155.134164 
L 107.513864 -154.19277 
L 107.513864 -153.251377 
L 107.513864 -152.309983 
L 107.513864 -151.368589 
L 107.513864 -150.427196 
L 107.513864 -149.485802 
L 107.513864 -148.544408 
L 107.513864 -147.603015 
L 107.513864 -146.661621 
L 107.513864 -145.720228 
L 107.513864 -144.778834 
L 107.513864 -143.83744 
L 107.513864 -142.896047 
L 107.513864 -141.954653 
L 107.513864 -141.013259 
L 107.513864 -140.071866 
L 107.513864 -139.130472 
L 107.513864 -138.189079 
L 107.513864 -137.247685 
L 107.513864 -136.306291 
L 107.513864 -135.364898 
L 107.513864 -134.423504 
L 107.513864 -133.48211 
L 107.513864 -132.540717 
L 107.513864 -131.599323 
L 107.513864 -130.657929 
L 107.513864 -129.716536 
L 107.513864 -128.775142 
L 107.513864 -127.833749 
L 107.513864 -126.892355 
L 107.513864 -125.950961 
L 107.513864 -125.009568 
L 107.513864 -124.068174 
L 107.513864 -123.12678 
L 107.513864 -122.185387 
L 107.513864 -121.243993 
L 107.513864 -120.3026 
L 107.513864 -119.361206 
L 107.513864 -118.419812 
L 107.513864 -117.478419 
L 107.513864 -116.537025 
L 107.513864 -115.595631 
L 107.513864 -114.654238 
L 107.513864 -113.712844 
L 107.513864 -112.77145 
L 107.513864 -111.830057 
L 500.093035 -111.830057 
L 500.093035 -111.830057 
L 500.093035 -112.77145 
L 500.093035 -113.712844 
L 500.093035 -114.654238 
L 500.093035 -115.595631 
L 500.093035 -116.537025 
L 500.093035 -117.478419 
L 500.093035 -118.419812 
L 500.093035 -119.361206 
L 500.093035 -120.3026 
L 500.093035 -121.243993 
L 500.093035 -122.185387 
L 500.093035 -123.12678 
L 500.093035 -124.068174 
L 500.093035 -125.009568 
L 500.093035 -125.950961 
L 500.093035 -126.892355 
L 500.093035 -127.833749 
L 500.093035 -128.775142 
L 500.093035 -129.716536 
L 500.093035 -130.657929 
L 500.093035 -131.599323 
L 500.093035 -132.540717 
L 500.093035 -133.48211 
L 500.093035 -134.423504 
L 500.093035 -135.364898 
L 500.093035 -136.306291 
L 500.093035 -137.247685 
L 500.093035 -138.189079 
L 500.093035 -139.130472 
L 500.093035 -140.071866 
L 500.093035 -141.013259 
L 500.093035 -141.954653 
L 500.093035 -142.896047 
L 500.093035 -143.83744 
L 500.093035 -144.778834 
L 500.093035 -145.720228 
L 500.093035 -146.661621 
L 500.093035 -147.603015 
L 500.093035 -148.544408 
L 500.093035 -149.485802 
L 500.093035 -150.427196 
L 500.093035 -151.368589 
L 500.093035 -152.309983 
L 500.093035 -153.251377 
L 500.093035 -154.19277 
L 500.093035 -155.134164 
L 500.093035 -156.075558 
L 500.093035 -157.016951 
L 500.093035 -157.958345 
L 500.093035 -158.899738 
L 500.093035 -159.841132 
L 500.093035 -160.782526 
L 500.093035 -161.723919 
L 500.093035 -162.665313 
L 500.093035 -163.606707 
L 500.093035 -164.5481 
L 500.093035 -165.489494 
L 500.093035 -166.430887 
L 500.093035 -167.372281 
L 500.093035 -168.313675 
L 500.093035 -169.255068 
L 500.093035 -170.196462 
L 500.093035 -171.137856 
L 500.093035 -172.079249 
L 500.093035 -173.020643 
L 500.093035 -173.962037 
L 500.093035 -174.90343 
L 500.093035 -175.844824 
L 500.093035 -176.786217 
L 500.093035 -177.727611 
L 500.093035 -178.669005 
L 500.093035 -179.610398 
L 500.093035 -180.551792 
L 500.093035 -181.493186 
L 500.093035 -182.434579 
L 500.093035 -183.375973 
L 500.093035 -184.317366 
L 500.093035 -185.25876 
L 500.093035 -186.200154 
L 500.093035 -187.141547 
L 500.093035 -188.082941 
L 500.093035 -189.024335 
L 500.093035 -189.965728 
L 500.093035 -190.907122 
L 500.093035 -191.848516 
L 500.093035 -192.789909 
L 500.093035 -193.731303 
L 500.093035 -194.672696 
L 500.093035 -195.61409 
L 500.093035 -196.555484 
L 500.093035 -197.496877 
L 500.093035 -198.438271 
L 500.093035 -199.379665 
L 500.093035 -200.321058 
L 500.093035 -201.262452 
L 500.093035 -202.203845 
L 500.093035 -203.145239 
L 500.093035 -204.086633 
L 500.093035 -205.028026 
L 500.093035 -205.96942 
L 500.093035 -206.910814 
L 500.093035 -207.852207 
L 500.093035 -208.793601 
L 500.093035 -209.734995 
L 500.093035 -210.676388 
L 500.093035 -211.617782 
L 500.093035 -212.559175 
L 500.093035 -213.500569 
L 500.093035 -214.441963 
L 500.093035 -215.383356 
L 500.093035 -216.32475 
L 500.093035 -217.266144 
L 500.093035 -218.207537 
L 500.093035 -219.148931 
L 500.093035 -220.090324 
L 500.093035 -221.031718 
L 500.093035 -221.973112 
L 500.093035 -222.914505 
L 500.093035 -223.855899 
L 500.093035 -224.797293 
L 500.093035 -225.738686 
L 500.093035 -226.68008 
L 500.093035 -227.621474 
L 500.093035 -228.562867 
L 500.093035 -229.504261 
L 500.093035 -230.445654 
L 500.093035 -231.387048 
L 500.093035 -232.328442 
L 500.093035 -233.269835 
L 500.093035 -234.211229 
L 500.093035 -235.152623 
L 500.093035 -236.094016 
L 500.093035 -237.03541 
L 500.093035 -237.976803 
L 500.093035 -238.918197 
L 500.093035 -239.859591 
L 500.093035 -240.800984 
L 500.093035 -241.742378 
L 500.093035 -242.683772 
L 500.093035 -243.625165 
L 500.093035 -244.566559 
L 500.093035 -245.507953 
L 500.093035 -246.449346 
L 500.093035 -247.39074 
L 500.093035 -248.332133 
L 500.093035 -249.273527 
L 500.093035 -250.214921 
L 500.093035 -251.156314 
L 500.093035 -252.097708 
L 500.093035 -253.039102 
L 500.093035 -253.980495 
L 500.093035 -254.921889 
L 500.093035 -255.863282 
L 500.093035 -256.804676 
L 500.093035 -257.74607 
L 500.093035 -258.687463 
L 500.093035 -259.628857 
L 500.093035 -260.570251 
L 500.093035 -261.511644 
L 500.093035 -262.453038 
L 500.093035 -263.394432 
L 500.093035 -264.335825 
L 500.093035 -265.277219 
L 500.093035 -266.218612 
L 500.093035 -267.160006 
L 500.093035 -268.1014 
L 500.093035 -269.042793 
L 500.093035 -269.984187 
L 500.093035 -270.925581 
L 500.093035 -271.866974 
L 500.093035 -272.808368 
L 500.093035 -273.749761 
L 500.093035 -274.691155 
L 500.093035 -275.632549 
L 500.093035 -276.573942 
L 500.093035 -277.515336 
L 500.093035 -278.45673 
L 500.093035 -279.398123 
L 500.093035 -280.339517 
L 500.093035 -281.280911 
L 500.093035 -282.222304 
L 500.093035 -283.163698 
L 500.093035 -284.105091 
L 500.093035 -285.046485 
L 500.093035 -285.987879 
L 500.093035 -286.929272 
L 500.093035 -287.870666 
L 500.093035 -288.81206 
L 500.093035 -289.753453 
L 500.093035 -290.694847 
L 500.093035 -291.63624 
L 500.093035 -292.577634 
L 500.093035 -293.519028 
L 500.093035 -294.460421 
L 500.093035 -295.401815 
L 500.093035 -296.343209 
L 500.093035 -297.284602 
L 500.093035 -298.225996 
L 500.093035 -299.16739 
L 500.093035 -300.108783 
L 500.093035 -301.050177 
L 500.093035 -301.99157 
L 500.093035 -302.932964 
L 500.093035 -303.874358 
L 500.093035 -304.815751 
L 500.093035 -305.757145 
L 500.093035 -306.698539 
L 500.093035 -307.639932 
L 500.093035 -308.581326 
L 500.093035 -309.522719 
L 500.093035 -310.464113 
L 500.093035 -311.405507 
L 500.075806 -312.3469 
L 500.075806 -313.288294 
L 500.075806 -314.229688 
L 500.075806 -315.171081 
L 500.075806 -316.112475 
L 500.075806 -317.053869 
L 500.075806 -317.995262 
L 500.218124 -318.936656 
L 500.218124 -319.878049 
L 500.218124 -320.819443 
L 500.218124 -321.760837 
L 500.218124 -322.70223 
L 500.218124 -323.643624 
L 500.218124 -324.585018 
L 500.218124 -325.526411 
L 500.218124 -326.467805 
L 500.218124 -327.409198 
L 500.218124 -328.350592 
L 500.218124 -329.291986 
L 500.218124 -330.233379 
L 500.218124 -331.174773 
L 500.218124 -332.116167 
L 500.218124 -333.05756 
L 500.218124 -333.998954 
L 500.218124 -334.940348 
L 500.218124 -335.881741 
L 500.218124 -336.823135 
L 500.218124 -337.764528 
L 500.218124 -338.705922 
L 500.218124 -339.647316 
L 500.218124 -340.588709 
L 500.218124 -341.530103 
L 500.218124 -342.471497 
L 500.218124 -343.41289 
L 500.218124 -344.354284 
L 500.218124 -345.295677 
L 500.218124 -346.237071 
L 500.218124 -347.178465 
L 500.218124 -348.119858 
L 500.075806 -349.061252 
L 500.075806 -350.002646 
L 500.075806 -350.944039 
L 500.075806 -351.885433 
L 500.075806 -352.826827 
L 500.055434 -353.76822 
L 500.055434 -354.709614 
L 500.055434 -355.651007 
L 500.055434 -356.592401 
L 500.055434 -357.533795 
L 500.055434 -358.475188 
L 500.055434 -359.416582 
L 500.055434 -360.357976 
L 500.055434 -361.299369 
L 500.055434 -362.240763 
L 500.055434 -363.182156 
L 500.055434 -364.12355 
L 500.055434 -365.064944 
L 500.055434 -366.006337 
L 500.055434 -366.947731 
L 500.055434 -367.889125 
L 500.055434 -368.830518 
L 500.055434 -369.771912 
L 500.055434 -370.713306 
L 500.055434 -371.654699 
L 500.055434 -372.596093 
L 500.055434 -373.537486 
L 500.055434 -374.47888 
L 500.055434 -375.420274 
L 500.055434 -376.361667 
L 500.055434 -377.303061 
L 500.055434 -378.244455 
L 500.055434 -379.185848 
L 500.055434 -380.127242 
L 500.055434 -381.068635 
L 500.055434 -382.010029 
L 500.055434 -382.951423 
L 500.055434 -383.892816 
L 500.055434 -384.83421 
L 500.055434 -385.775604 
L 500.055434 -386.716997 
L 500.055434 -387.658391 
L 500.055434 -388.599785 
L 500.055434 -389.541178 
L 500.055434 -390.482572 
L 500.055434 -391.423965 
L 500.055434 -392.365359 
L 500.055434 -393.306753 
L 500.055434 -394.248146 
L 500.055434 -395.18954 
L 500.055434 -396.130934 
L 500.055434 -397.072327 
L 500.055434 -398.013721 
L 500.055434 -398.955115 
L 500.055434 -399.896508 
L 500.055434 -400.837902 
L 500.055434 -401.779295 
L 500.055434 -402.720689 
L 500.055434 -403.662083 
L 500.055434 -404.603476 
L 500.055434 -405.54487 
L 500.055434 -406.486264 
L 500.055434 -407.427657 
L 500.055434 -408.369051 
L 500.055434 -409.310444 
L 500.055434 -410.251838 
L 500.055434 -411.193232 
L 500.055434 -412.134625 
L 500.055434 -413.076019 
L 500.055434 -414.017413 
L 500.055434 -414.958806 
L 500.055434 -415.9002 
L 500.055434 -416.841594 
L 500.055434 -417.782987 
L 500.055434 -418.724381 
L 500.055434 -419.665774 
L 500.055434 -420.607168 
L 500.055434 -421.548562 
L 500.055434 -422.489955 
L 500.055434 -423.431349 
L 500.055434 -424.372743 
L 500.055434 -425.314136 
L 500.055434 -426.25553 
L 500.055434 -427.196923 
L 500.055434 -428.138317 
L 500.055434 -429.079711 
L 500.055434 -430.021104 
L 500.055434 -430.962498 
L 500.063544 -431.903892 
L 500.063544 -432.845285 
L 500.063544 -433.786679 
L 500.063544 -434.728073 
L 500.063544 -435.669466 
L 500.063544 -436.61086 
L 500.063544 -437.552253 
L 500.063544 -438.493647 
L 500.063544 -439.435041 
L 500.063544 -440.376434 
L 500.063544 -441.317828 
L 500.063544 -442.259222 
L 500.063544 -443.200615 
L 500.063544 -444.142009 
L 500.063544 -445.083402 
L 500.063544 -446.024796 
L 500.063544 -446.96619 
L 500.063544 -447.907583 
L 500.063544 -448.848977 
L 500.063544 -449.790371 
L 500.063544 -450.731764 
L 500.063544 -451.673158 
L 500.063544 -452.614552 
L 500.063544 -453.555945 
L 500.063544 -454.497339 
L 500.063544 -455.438732 
L 500.063544 -456.380126 
L 500.063544 -457.32152 
L 500.063544 -458.262913 
L 500.063544 -459.204307 
L 500.063544 -460.145701 
L 500.063544 -461.087094 
L 500.063544 -462.028488 
L 500.063544 -462.969881 
L 500.063544 -463.911275 
L 500.063544 -464.852669 
L 500.063544 -465.794062 
L 500.063544 -466.735456 
L 500.063544 -467.67685 
L 500.063544 -468.618243 
L 500.063544 -469.559637 
L 500.063544 -470.501031 
L 500.063544 -471.442424 
L 500.063544 -472.383818 
L 500.063544 -473.325211 
L 500.063544 -474.266605 
L 500.063544 -475.207999 
L 500.063544 -476.149392 
L 500.063544 -477.090786 
L 500.063544 -478.03218 
L 500.063544 -478.973573 
L 500.063544 -479.914967 
L 500.063544 -480.85636 
L 500.063544 -481.797754 
L 500.063544 -482.739148 
L 500.063544 -483.680541 
L 500.063544 -484.621935 
L 500.063544 -485.563329 
L 500.063544 -486.504722 
L 500.063544 -487.446116 
L 500.063544 -488.38751 
L 500.063544 -489.328903 
L 500.063544 -490.270297 
L 500.063544 -491.21169 
L 500.063544 -492.153084 
L 500.063544 -493.094478 
L 500.063544 -494.035871 
L 500.063544 -494.977265 
L 500.165766 -495.918659 
L 500.165766 -496.860052 
L 500.165766 -497.801446 
L 500.165766 -498.742839 
L 500.165766 -499.684233 
L 500.165766 -500.625627 
L 500.165766 -501.56702 
L 500.165766 -502.508414 
L 500.165766 -503.449808 
L 500.241136 -504.391201 
L 500.241136 -505.332595 
L 500.241136 -506.273989 
L 500.241136 -507.215382 
L 500.241136 -508.156776 
L 500.241136 -509.098169 
L 500.241136 -510.039563 
L 500.241136 -510.980957 
L 500.241136 -511.92235 
L 500.241136 -512.863744 
L 500.241136 -513.805138 
L 500.241136 -514.746531 
L 500.241136 -515.687925 
L 500.241136 -516.629318 
L 500.241136 -517.570712 
L 500.241136 -518.512106 
L 500.241136 -519.453499 
L 500.241136 -520.394893 
L 500.241136 -521.336287 
L 500.241136 -522.27768 
L 500.241136 -523.219074 
L 500.241136 -524.160468 
L 500.241136 -525.101861 
L 500.241136 -526.043255 
L 500.241136 -526.984648 
L 500.241136 -527.926042 
L 500.241136 -528.867436 
L 500.241136 -529.808829 
L 500.241136 -530.750223 
L 500.241136 -531.691617 
L 500.241136 -532.63301 
L 500.241136 -533.574404 
L 500.241136 -534.515797 
L 500.241136 -535.457191 
L 500.241136 -536.398585 
L 500.241136 -537.339978 
L 500.241136 -538.281372 
L 500.241136 -539.222766 
L 500.241136 -540.164159 
L 500.241136 -541.105553 
L 500.241136 -542.046947 
L 500.241136 -542.98834 
L 500.241136 -543.929734 
L 500.241136 -544.871127 
L 500.241136 -545.812521 
L 500.241136 -546.753915 
L 500.241136 -547.695308 
L 500.241136 -548.636702 
L 500.241136 -549.578096 
L 500.241136 -550.519489 
L 500.241136 -551.460883 
L 500.241136 -552.402276 
L 500.241136 -553.34367 
L 500.241136 -554.285064 
L 500.241136 -555.226457 
L 500.241136 -556.167851 
L 500.241136 -557.109245 
L 500.241136 -558.050638 
L 500.241136 -558.992032 
L 500.241136 -559.933426 
L 500.241136 -560.874819 
L 500.241136 -561.816213 
L 500.241136 -562.757606 
L 500.241136 -563.699 
L 500.241136 -564.640394 
L 500.241136 -565.581787 
L 500.241136 -566.523181 
L 500.241136 -567.464575 
L 500.241136 -568.405968 
L 500.241136 -569.347362 
L 500.241136 -570.288755 
L 500.241136 -571.230149 
L 500.241136 -572.171543 
L 500.241136 -573.112936 
L 500.241136 -574.05433 
L 500.241136 -574.995724 
L 500.241136 -575.937117 
L 500.241136 -576.878511 
L 500.241136 -577.819905 
L 500.241136 -578.761298 
L 500.241136 -579.702692 
L 500.241136 -580.644085 
L 500.241136 -581.585479 
L 500.241136 -582.526873 
L 500.241136 -583.468266 
L 500.241136 -584.40966 
L 500.241136 -585.351054 
L 500.241136 -586.292447 
L 500.241136 -587.233841 
L 500.241136 -588.175234 
L 500.241136 -589.116628 
L 500.241136 -590.058022 
L 500.241136 -590.999415 
L 500.241136 -591.940809 
L 500.241136 -592.882203 
L 500.241136 -593.823596 
L 500.241136 -594.76499 
L 500.241136 -595.706384 
L 500.241136 -596.647777 
L 500.241136 -597.589171 
L 500.241136 -598.530564 
L 500.241136 -599.471958 
L 500.241136 -600.413352 
L 500.241136 -601.354745 
L 500.241136 -602.296139 
L 500.241136 -603.237533 
L 500.241136 -604.178926 
L 500.241136 -605.12032 
L 500.241136 -606.061713 
L 500.241136 -607.003107 
L 500.241136 -607.944501 
L 500.241136 -608.885894 
L 500.241136 -609.827288 
L 500.241136 -610.768682 
L 500.241136 -611.710075 
L 500.241136 -612.651469 
L 500.241136 -613.592863 
L 500.241136 -614.534256 
L 500.241136 -615.47565 
L 500.241136 -616.417043 
L 500.241136 -617.358437 
L 500.241136 -618.299831 
L 500.241136 -619.241224 
L 500.241136 -620.182618 
L 500.241136 -621.124012 
L 500.241136 -622.065405 
L 500.241136 -623.006799 
L 500.241136 -623.948192 
L 500.241136 -624.889586 
L 500.241136 -625.83098 
L 500.241136 -626.772373 
L 500.241136 -627.713767 
L 500.241136 -628.655161 
L 500.241136 -629.596554 
L 500.241136 -630.537948 
L 500.241136 -631.479342 
L 500.241136 -632.420735 
L 500.241136 -633.362129 
L 500.241136 -634.303522 
L 500.241136 -635.244916 
L 500.241136 -636.18631 
L 500.241136 -637.127703 
L 500.241136 -638.069097 
L 500.241136 -639.010491 
L 500.241136 -639.951884 
L 500.241136 -640.893278 
L 500.241136 -641.834671 
L 500.241136 -642.776065 
L 500.241136 -643.717459 
L 500.241136 -644.658852 
L 500.241136 -645.600246 
L 500.241136 -646.54164 
L 500.241136 -647.483033 
L 500.241136 -648.424427 
L 500.241136 -649.365821 
L 500.241136 -650.307214 
L 500.241136 -651.248608 
L 500.241136 -652.190001 
L 500.241136 -653.131395 
L 500.241136 -654.072789 
L 500.241136 -655.014182 
L 500.241136 -655.955576 
L 500.241136 -656.89697 
L 500.241136 -657.838363 
L 500.241136 -658.779757 
L 500.241136 -659.72115 
L 500.241136 -660.662544 
L 500.241136 -661.603938 
L 500.241136 -662.545331 
L 500.241136 -663.486725 
L 500.241136 -664.428119 
L 500.241136 -665.369512 
L 500.241136 -666.310906 
L 500.241136 -667.2523 
L 500.241136 -668.193693 
z
" style="stroke: #228b22; stroke-opacity: 0.4"/>
    </defs>
    <g clip-path="url(#p7de237e2cd)">
     <use xlink:href="#m5f762d9b50" x="0" y="703.211875" style="fill: #228b22; fill-opacity: 0.4; stroke: #228b22; stroke-opacity: 0.4"/>
    </g>
   </g>
   <g id="matplotlib.axis_1">
    <g id="xtick_1">
     <g id="line2d_1">
      <defs>
       <path id="m1004d568c2" d="M 0 0 
L 0 3.5 
" style="stroke: #000000; stroke-width: 1.5"/>
      </defs>
      <g>
       <use xlink:href="#m1004d568c2" x="107.116387" y="629.2" style="stroke: #000000; stroke-width: 1.5"/>
      </g>
     </g>
     <g id="text_1">
      <!-- 0 -->
      <g transform="translate(100.117637 652.916563) scale(0.22 -0.22)">
       <defs>
        <path id="DejaVuSans-30" d="M 2034 4250 
Q 1547 4250 1301 3770 
Q 1056 3291 1056 2328 
Q 1056 1369 1301 889 
Q 1547 409 2034 409 
Q 2525 409 2770 889 
Q 3016 1369 3016 2328 
Q 3016 3291 2770 3770 
Q 2525 4250 2034 4250 
z
M 2034 4750 
Q 2819 4750 3233 4129 
Q 3647 3509 3647 2328 
Q 3647 1150 3233 529 
Q 2819 -91 2034 -91 
Q 1250 -91 836 529 
Q 422 1150 422 2328 
Q 422 3509 836 4129 
Q 1250 4750 2034 4750 
z
" transform="scale(0.015625)"/>
       </defs>
       <use xlink:href="#DejaVuSans-30"/>
      </g>
     </g>
    </g>
    <g id="xtick_2">
     <g id="line2d_2">
      <g>
       <use xlink:href="#m1004d568c2" x="185.745464" y="629.2" style="stroke: #000000; stroke-width: 1.5"/>
      </g>
     </g>
     <g id="text_2">
      <!-- 200 -->
      <g transform="translate(164.749214 652.916563) scale(0.22 -0.22)">
       <defs>
        <path id="DejaVuSans-32" d="M 1228 531 
L 3431 531 
L 3431 0 
L 469 0 
L 469 531 
Q 828 903 1448 1529 
Q 2069 2156 2228 2338 
Q 2531 2678 2651 2914 
Q 2772 3150 2772 3378 
Q 2772 3750 2511 3984 
Q 2250 4219 1831 4219 
Q 1534 4219 1204 4116 
Q 875 4013 500 3803 
L 500 4441 
Q 881 4594 1212 4672 
Q 1544 4750 1819 4750 
Q 2544 4750 2975 4387 
Q 3406 4025 3406 3419 
Q 3406 3131 3298 2873 
Q 3191 2616 2906 2266 
Q 2828 2175 2409 1742 
Q 1991 1309 1228 531 
z
" transform="scale(0.015625)"/>
       </defs>
       <use xlink:href="#DejaVuSans-32"/>
       <use xlink:href="#DejaVuSans-30" x="63.623047"/>
       <use xlink:href="#DejaVuSans-30" x="127.246094"/>
      </g>
     </g>
    </g>
    <g id="xtick_3">
     <g id="line2d_3">
      <g>
       <use xlink:href="#m1004d568c2" x="264.374542" y="629.2" style="stroke: #000000; stroke-width: 1.5"/>
      </g>
     </g>
     <g id="text_3">
      <!-- 400 -->
      <g transform="translate(243.378292 652.916563) scale(0.22 -0.22)">
       <defs>
        <path id="DejaVuSans-34" d="M 2419 4116 
L 825 1625 
L 2419 1625 
L 2419 4116 
z
M 2253 4666 
L 3047 4666 
L 3047 1625 
L 3713 1625 
L 3713 1100 
L 3047 1100 
L 3047 0 
L 2419 0 
L 2419 1100 
L 313 1100 
L 313 1709 
L 2253 4666 
z
" transform="scale(0.015625)"/>
       </defs>
       <use xlink:href="#DejaVuSans-34"/>
       <use xlink:href="#DejaVuSans-30" x="63.623047"/>
       <use xlink:href="#DejaVuSans-30" x="127.246094"/>
      </g>
     </g>
    </g>
    <g id="xtick_4">
     <g id="line2d_4">
      <g>
       <use xlink:href="#m1004d568c2" x="343.003619" y="629.2" style="stroke: #000000; stroke-width: 1.5"/>
      </g>
     </g>
     <g id="text_4">
      <!-- 600 -->
      <g transform="translate(322.007369 652.916563) scale(0.22 -0.22)">
       <defs>
        <path id="DejaVuSans-36" d="M 2113 2584 
Q 1688 2584 1439 2293 
Q 1191 2003 1191 1497 
Q 1191 994 1439 701 
Q 1688 409 2113 409 
Q 2538 409 2786 701 
Q 3034 994 3034 1497 
Q 3034 2003 2786 2293 
Q 2538 2584 2113 2584 
z
M 3366 4563 
L 3366 3988 
Q 3128 4100 2886 4159 
Q 2644 4219 2406 4219 
Q 1781 4219 1451 3797 
Q 1122 3375 1075 2522 
Q 1259 2794 1537 2939 
Q 1816 3084 2150 3084 
Q 2853 3084 3261 2657 
Q 3669 2231 3669 1497 
Q 3669 778 3244 343 
Q 2819 -91 2113 -91 
Q 1303 -91 875 529 
Q 447 1150 447 2328 
Q 447 3434 972 4092 
Q 1497 4750 2381 4750 
Q 2619 4750 2861 4703 
Q 3103 4656 3366 4563 
z
" transform="scale(0.015625)"/>
       </defs>
       <use xlink:href="#DejaVuSans-36"/>
       <use xlink:href="#DejaVuSans-30" x="63.623047"/>
       <use xlink:href="#DejaVuSans-30" x="127.246094"/>
      </g>
     </g>
    </g>
    <g id="xtick_5">
     <g id="line2d_5">
      <g>
       <use xlink:href="#m1004d568c2" x="421.632696" y="629.2" style="stroke: #000000; stroke-width: 1.5"/>
      </g>
     </g>
     <g id="text_5">
      <!-- 800 -->
      <g transform="translate(400.636446 652.916563) scale(0.22 -0.22)">
       <defs>
        <path id="DejaVuSans-38" d="M 2034 2216 
Q 1584 2216 1326 1975 
Q 1069 1734 1069 1313 
Q 1069 891 1326 650 
Q 1584 409 2034 409 
Q 2484 409 2743 651 
Q 3003 894 3003 1313 
Q 3003 1734 2745 1975 
Q 2488 2216 2034 2216 
z
M 1403 2484 
Q 997 2584 770 2862 
Q 544 3141 544 3541 
Q 544 4100 942 4425 
Q 1341 4750 2034 4750 
Q 2731 4750 3128 4425 
Q 3525 4100 3525 3541 
Q 3525 3141 3298 2862 
Q 3072 2584 2669 2484 
Q 3125 2378 3379 2068 
Q 3634 1759 3634 1313 
Q 3634 634 3220 271 
Q 2806 -91 2034 -91 
Q 1263 -91 848 271 
Q 434 634 434 1313 
Q 434 1759 690 2068 
Q 947 2378 1403 2484 
z
M 1172 3481 
Q 1172 3119 1398 2916 
Q 1625 2713 2034 2713 
Q 2441 2713 2670 2916 
Q 2900 3119 2900 3481 
Q 2900 3844 2670 4047 
Q 2441 4250 2034 4250 
Q 1625 4250 1398 4047 
Q 1172 3844 1172 3481 
z
" transform="scale(0.015625)"/>
       </defs>
       <use xlink:href="#DejaVuSans-38"/>
       <use xlink:href="#DejaVuSans-30" x="63.623047"/>
       <use xlink:href="#DejaVuSans-30" x="127.246094"/>
      </g>
     </g>
    </g>
    <g id="xtick_6">
     <g id="line2d_6">
      <g>
       <use xlink:href="#m1004d568c2" x="500.261773" y="629.2" style="stroke: #000000; stroke-width: 1.5"/>
      </g>
     </g>
     <g id="text_6">
      <!-- 1000 -->
      <g transform="translate(472.266773 652.916563) scale(0.22 -0.22)">
       <defs>
        <path id="DejaVuSans-31" d="M 794 531 
L 1825 531 
L 1825 4091 
L 703 3866 
L 703 4441 
L 1819 4666 
L 2450 4666 
L 2450 531 
L 3481 531 
L 3481 0 
L 794 0 
L 794 531 
z
" transform="scale(0.015625)"/>
       </defs>
       <use xlink:href="#DejaVuSans-31"/>
       <use xlink:href="#DejaVuSans-30" x="63.623047"/>
       <use xlink:href="#DejaVuSans-30" x="127.246094"/>
       <use xlink:href="#DejaVuSans-30" x="190.869141"/>
      </g>
     </g>
    </g>
    <g id="text_7">
     <!-- Resistivity  [$\Omega m$] -->
     <g transform="translate(190.7175 690.731875) scale(0.24 -0.24)">
      <defs>
       <path id="DejaVuSans-Bold-52" d="M 2297 2597 
Q 2675 2597 2839 2737 
Q 3003 2878 3003 3200 
Q 3003 3519 2839 3656 
Q 2675 3794 2297 3794 
L 1791 3794 
L 1791 2597 
L 2297 2597 
z
M 1791 1766 
L 1791 0 
L 588 0 
L 588 4666 
L 2425 4666 
Q 3347 4666 3776 4356 
Q 4206 4047 4206 3378 
Q 4206 2916 3982 2619 
Q 3759 2322 3309 2181 
Q 3556 2125 3751 1926 
Q 3947 1728 4147 1325 
L 4800 0 
L 3519 0 
L 2950 1159 
Q 2778 1509 2601 1637 
Q 2425 1766 2131 1766 
L 1791 1766 
z
" transform="scale(0.015625)"/>
       <path id="DejaVuSans-Bold-65" d="M 4031 1759 
L 4031 1441 
L 1416 1441 
Q 1456 1047 1700 850 
Q 1944 653 2381 653 
Q 2734 653 3104 758 
Q 3475 863 3866 1075 
L 3866 213 
Q 3469 63 3072 -14 
Q 2675 -91 2278 -91 
Q 1328 -91 801 392 
Q 275 875 275 1747 
Q 275 2603 792 3093 
Q 1309 3584 2216 3584 
Q 3041 3584 3536 3087 
Q 4031 2591 4031 1759 
z
M 2881 2131 
Q 2881 2450 2695 2645 
Q 2509 2841 2209 2841 
Q 1884 2841 1681 2658 
Q 1478 2475 1428 2131 
L 2881 2131 
z
" transform="scale(0.015625)"/>
       <path id="DejaVuSans-Bold-73" d="M 3272 3391 
L 3272 2541 
Q 2913 2691 2578 2766 
Q 2244 2841 1947 2841 
Q 1628 2841 1473 2761 
Q 1319 2681 1319 2516 
Q 1319 2381 1436 2309 
Q 1553 2238 1856 2203 
L 2053 2175 
Q 2913 2066 3209 1816 
Q 3506 1566 3506 1031 
Q 3506 472 3093 190 
Q 2681 -91 1863 -91 
Q 1516 -91 1145 -36 
Q 775 19 384 128 
L 384 978 
Q 719 816 1070 734 
Q 1422 653 1784 653 
Q 2113 653 2278 743 
Q 2444 834 2444 1013 
Q 2444 1163 2330 1236 
Q 2216 1309 1875 1350 
L 1678 1375 
Q 931 1469 631 1722 
Q 331 1975 331 2491 
Q 331 3047 712 3315 
Q 1094 3584 1881 3584 
Q 2191 3584 2531 3537 
Q 2872 3491 3272 3391 
z
" transform="scale(0.015625)"/>
       <path id="DejaVuSans-Bold-69" d="M 538 3500 
L 1656 3500 
L 1656 0 
L 538 0 
L 538 3500 
z
M 538 4863 
L 1656 4863 
L 1656 3950 
L 538 3950 
L 538 4863 
z
" transform="scale(0.015625)"/>
       <path id="DejaVuSans-Bold-74" d="M 1759 4494 
L 1759 3500 
L 2913 3500 
L 2913 2700 
L 1759 2700 
L 1759 1216 
Q 1759 972 1856 886 
Q 1953 800 2241 800 
L 2816 800 
L 2816 0 
L 1856 0 
Q 1194 0 917 276 
Q 641 553 641 1216 
L 641 2700 
L 84 2700 
L 84 3500 
L 641 3500 
L 641 4494 
L 1759 4494 
z
" transform="scale(0.015625)"/>
       <path id="DejaVuSans-Bold-76" d="M 97 3500 
L 1216 3500 
L 2088 1081 
L 2956 3500 
L 4078 3500 
L 2700 0 
L 1472 0 
L 97 3500 
z
" transform="scale(0.015625)"/>
       <path id="DejaVuSans-Bold-79" d="M 78 3500 
L 1197 3500 
L 2138 1125 
L 2938 3500 
L 4056 3500 
L 2584 -331 
Q 2363 -916 2067 -1148 
Q 1772 -1381 1288 -1381 
L 641 -1381 
L 641 -647 
L 991 -647 
Q 1275 -647 1404 -556 
Q 1534 -466 1606 -231 
L 1638 -134 
L 78 3500 
z
" transform="scale(0.015625)"/>
       <path id="DejaVuSans-Bold-20" transform="scale(0.015625)"/>
       <path id="DejaVuSans-Bold-5b" d="M 550 4863 
L 2491 4863 
L 2491 4159 
L 1613 4159 
L 1613 -141 
L 2491 -141 
L 2491 -844 
L 550 -844 
L 550 4863 
z
" transform="scale(0.015625)"/>
       <path id="DejaVuSans-Bold-3a9" d="M 2719 4750 
Q 3841 4750 4480 4106 
Q 5119 3463 5119 2494 
Q 5119 1406 4306 909 
L 5266 909 
L 5266 0 
L 3125 0 
L 3125 975 
Q 3244 1041 3334 1131 
Q 3875 1678 3875 2466 
Q 3875 3066 3572 3472 
Q 3269 3878 2719 3878 
Q 2169 3878 1866 3472 
Q 1563 3066 1563 2466 
Q 1563 1678 2103 1131 
Q 2194 1041 2313 975 
L 2313 0 
L 172 0 
L 172 909 
L 1131 909 
Q 319 1406 319 2494 
Q 319 3463 958 4106 
Q 1597 4750 2719 4750 
z
" transform="scale(0.015625)"/>
       <path id="DejaVuSans-Bold-6d" d="M 3781 2919 
Q 3994 3244 4286 3414 
Q 4578 3584 4928 3584 
Q 5531 3584 5847 3212 
Q 6163 2841 6163 2131 
L 6163 0 
L 5038 0 
L 5038 1825 
Q 5041 1866 5042 1909 
Q 5044 1953 5044 2034 
Q 5044 2406 4934 2573 
Q 4825 2741 4581 2741 
Q 4263 2741 4089 2478 
Q 3916 2216 3909 1719 
L 3909 0 
L 2784 0 
L 2784 1825 
Q 2784 2406 2684 2573 
Q 2584 2741 2328 2741 
Q 2006 2741 1831 2477 
Q 1656 2213 1656 1722 
L 1656 0 
L 531 0 
L 531 3500 
L 1656 3500 
L 1656 2988 
Q 1863 3284 2130 3434 
Q 2397 3584 2719 3584 
Q 3081 3584 3359 3409 
Q 3638 3234 3781 2919 
z
" transform="scale(0.015625)"/>
       <path id="DejaVuSans-Bold-5d" d="M 2375 -844 
L 434 -844 
L 434 -141 
L 1313 -141 
L 1313 4159 
L 434 4159 
L 434 4863 
L 2375 4863 
L 2375 -844 
z
" transform="scale(0.015625)"/>
      </defs>
      <use xlink:href="#DejaVuSans-Bold-52" transform="translate(0 0.015625)"/>
      <use xlink:href="#DejaVuSans-Bold-65" transform="translate(77.001953 0.015625)"/>
      <use xlink:href="#DejaVuSans-Bold-73" transform="translate(144.824219 0.015625)"/>
      <use xlink:href="#DejaVuSans-Bold-69" transform="translate(204.345703 0.015625)"/>
      <use xlink:href="#DejaVuSans-Bold-73" transform="translate(238.623047 0.015625)"/>
      <use xlink:href="#DejaVuSans-Bold-74" transform="translate(298.144531 0.015625)"/>
      <use xlink:href="#DejaVuSans-Bold-69" transform="translate(345.947266 0.015625)"/>
      <use xlink:href="#DejaVuSans-Bold-76" transform="translate(380.224609 0.015625)"/>
      <use xlink:href="#DejaVuSans-Bold-69" transform="translate(445.410156 0.015625)"/>
      <use xlink:href="#DejaVuSans-Bold-74" transform="translate(479.6875 0.015625)"/>
      <use xlink:href="#DejaVuSans-Bold-79" transform="translate(527.490234 0.015625)"/>
      <use xlink:href="#DejaVuSans-Bold-20" transform="translate(592.675781 0.015625)"/>
      <use xlink:href="#DejaVuSans-Bold-20" transform="translate(627.490234 0.015625)"/>
      <use xlink:href="#DejaVuSans-Bold-5b" transform="translate(662.304688 0.015625)"/>
      <use xlink:href="#DejaVuSans-Bold-3a9" transform="translate(708.007812 0.015625)"/>
      <use xlink:href="#DejaVuSans-Bold-6d" transform="translate(793.017578 0.015625)"/>
      <use xlink:href="#DejaVuSans-Bold-5d" transform="translate(897.216797 0.015625)"/>
     </g>
    </g>
   </g>
   <g id="matplotlib.axis_2">
    <g id="ytick_1">
     <g id="line2d_7">
      <defs>
       <path id="mca0dc64dbf" d="M 0 0 
L -3.5 0 
" style="stroke: #000000; stroke-width: 1.5"/>
      </defs>
      <g>
       <use xlink:href="#mca0dc64dbf" x="77.8775" y="35.018182" style="stroke: #000000; stroke-width: 1.5"/>
      </g>
     </g>
     <g id="text_8">
      <!-- 0 -->
      <g transform="translate(58.1525 42.616619) scale(0.2 -0.2)">
       <use xlink:href="#DejaVuSans-30"/>
      </g>
     </g>
    </g>
    <g id="ytick_2">
     <g id="line2d_8">
      <g>
       <use xlink:href="#mca0dc64dbf" x="77.8775" y="129.157544" style="stroke: #000000; stroke-width: 1.5"/>
      </g>
     </g>
     <g id="text_9">
      <!-- 10 -->
      <g transform="translate(45.4275 136.755981) scale(0.2 -0.2)">
       <use xlink:href="#DejaVuSans-31"/>
       <use xlink:href="#DejaVuSans-30" x="63.623047"/>
      </g>
     </g>
    </g>
    <g id="ytick_3">
     <g id="line2d_9">
      <g>
       <use xlink:href="#mca0dc64dbf" x="77.8775" y="223.296906" style="stroke: #000000; stroke-width: 1.5"/>
      </g>
     </g>
     <g id="text_10">
      <!-- 20 -->
      <g transform="translate(45.4275 230.895343) scale(0.2 -0.2)">
       <use xlink:href="#DejaVuSans-32"/>
       <use xlink:href="#DejaVuSans-30" x="63.623047"/>
      </g>
     </g>
    </g>
    <g id="ytick_4">
     <g id="line2d_10">
      <g>
       <use xlink:href="#mca0dc64dbf" x="77.8775" y="317.436268" style="stroke: #000000; stroke-width: 1.5"/>
      </g>
     </g>
     <g id="text_11">
      <!-- 30 -->
      <g transform="translate(45.4275 325.034705) scale(0.2 -0.2)">
       <defs>
        <path id="DejaVuSans-33" d="M 2597 2516 
Q 3050 2419 3304 2112 
Q 3559 1806 3559 1356 
Q 3559 666 3084 287 
Q 2609 -91 1734 -91 
Q 1441 -91 1130 -33 
Q 819 25 488 141 
L 488 750 
Q 750 597 1062 519 
Q 1375 441 1716 441 
Q 2309 441 2620 675 
Q 2931 909 2931 1356 
Q 2931 1769 2642 2001 
Q 2353 2234 1838 2234 
L 1294 2234 
L 1294 2753 
L 1863 2753 
Q 2328 2753 2575 2939 
Q 2822 3125 2822 3475 
Q 2822 3834 2567 4026 
Q 2313 4219 1838 4219 
Q 1578 4219 1281 4162 
Q 984 4106 628 3988 
L 628 4550 
Q 988 4650 1302 4700 
Q 1616 4750 1894 4750 
Q 2613 4750 3031 4423 
Q 3450 4097 3450 3541 
Q 3450 3153 3228 2886 
Q 3006 2619 2597 2516 
z
" transform="scale(0.015625)"/>
       </defs>
       <use xlink:href="#DejaVuSans-33"/>
       <use xlink:href="#DejaVuSans-30" x="63.623047"/>
      </g>
     </g>
    </g>
    <g id="ytick_5">
     <g id="line2d_11">
      <g>
       <use xlink:href="#mca0dc64dbf" x="77.8775" y="411.57563" style="stroke: #000000; stroke-width: 1.5"/>
      </g>
     </g>
     <g id="text_12">
      <!-- 40 -->
      <g transform="translate(45.4275 419.174067) scale(0.2 -0.2)">
       <use xlink:href="#DejaVuSans-34"/>
       <use xlink:href="#DejaVuSans-30" x="63.623047"/>
      </g>
     </g>
    </g>
    <g id="ytick_6">
     <g id="line2d_12">
      <g>
       <use xlink:href="#mca0dc64dbf" x="77.8775" y="505.714992" style="stroke: #000000; stroke-width: 1.5"/>
      </g>
     </g>
     <g id="text_13">
      <!-- 50 -->
      <g transform="translate(45.4275 513.313429) scale(0.2 -0.2)">
       <defs>
        <path id="DejaVuSans-35" d="M 691 4666 
L 3169 4666 
L 3169 4134 
L 1269 4134 
L 1269 2991 
Q 1406 3038 1543 3061 
Q 1681 3084 1819 3084 
Q 2600 3084 3056 2656 
Q 3513 2228 3513 1497 
Q 3513 744 3044 326 
Q 2575 -91 1722 -91 
Q 1428 -91 1123 -41 
Q 819 9 494 109 
L 494 744 
Q 775 591 1075 516 
Q 1375 441 1709 441 
Q 2250 441 2565 725 
Q 2881 1009 2881 1497 
Q 2881 1984 2565 2268 
Q 2250 2553 1709 2553 
Q 1456 2553 1204 2497 
Q 953 2441 691 2322 
L 691 4666 
z
" transform="scale(0.015625)"/>
       </defs>
       <use xlink:href="#DejaVuSans-35"/>
       <use xlink:href="#DejaVuSans-30" x="63.623047"/>
      </g>
     </g>
    </g>
    <g id="ytick_7">
     <g id="line2d_13">
      <g>
       <use xlink:href="#mca0dc64dbf" x="77.8775" y="599.854354" style="stroke: #000000; stroke-width: 1.5"/>
      </g>
     </g>
     <g id="text_14">
      <!-- 60 -->
      <g transform="translate(45.4275 607.452791) scale(0.2 -0.2)">
       <use xlink:href="#DejaVuSans-36"/>
       <use xlink:href="#DejaVuSans-30" x="63.623047"/>
      </g>
     </g>
    </g>
    <g id="text_15">
     <!-- Depth [m] -->
     <g transform="translate(25.43625 381.819375) rotate(-90) scale(0.24 -0.24)">
      <defs>
       <path id="DejaVuSans-Bold-44" d="M 1791 3756 
L 1791 909 
L 2222 909 
Q 2959 909 3348 1275 
Q 3738 1641 3738 2338 
Q 3738 3031 3350 3393 
Q 2963 3756 2222 3756 
L 1791 3756 
z
M 588 4666 
L 1856 4666 
Q 2919 4666 3439 4514 
Q 3959 4363 4331 4000 
Q 4659 3684 4818 3271 
Q 4978 2859 4978 2338 
Q 4978 1809 4818 1395 
Q 4659 981 4331 666 
Q 3956 303 3431 151 
Q 2906 0 1856 0 
L 588 0 
L 588 4666 
z
" transform="scale(0.015625)"/>
       <path id="DejaVuSans-Bold-70" d="M 1656 506 
L 1656 -1331 
L 538 -1331 
L 538 3500 
L 1656 3500 
L 1656 2988 
Q 1888 3294 2169 3439 
Q 2450 3584 2816 3584 
Q 3463 3584 3878 3070 
Q 4294 2556 4294 1747 
Q 4294 938 3878 423 
Q 3463 -91 2816 -91 
Q 2450 -91 2169 54 
Q 1888 200 1656 506 
z
M 2400 2772 
Q 2041 2772 1848 2508 
Q 1656 2244 1656 1747 
Q 1656 1250 1848 986 
Q 2041 722 2400 722 
Q 2759 722 2948 984 
Q 3138 1247 3138 1747 
Q 3138 2247 2948 2509 
Q 2759 2772 2400 2772 
z
" transform="scale(0.015625)"/>
       <path id="DejaVuSans-Bold-68" d="M 4056 2131 
L 4056 0 
L 2931 0 
L 2931 347 
L 2931 1625 
Q 2931 2084 2911 2256 
Q 2891 2428 2841 2509 
Q 2775 2619 2662 2680 
Q 2550 2741 2406 2741 
Q 2056 2741 1856 2470 
Q 1656 2200 1656 1722 
L 1656 0 
L 538 0 
L 538 4863 
L 1656 4863 
L 1656 2988 
Q 1909 3294 2193 3439 
Q 2478 3584 2822 3584 
Q 3428 3584 3742 3212 
Q 4056 2841 4056 2131 
z
" transform="scale(0.015625)"/>
      </defs>
      <use xlink:href="#DejaVuSans-Bold-44"/>
      <use xlink:href="#DejaVuSans-Bold-65" x="83.007812"/>
      <use xlink:href="#DejaVuSans-Bold-70" x="150.830078"/>
      <use xlink:href="#DejaVuSans-Bold-74" x="222.412109"/>
      <use xlink:href="#DejaVuSans-Bold-68" x="270.214844"/>
      <use xlink:href="#DejaVuSans-Bold-20" x="341.40625"/>
      <use xlink:href="#DejaVuSans-Bold-5b" x="376.220703"/>
      <use xlink:href="#DejaVuSans-Bold-6d" x="421.923828"/>
      <use xlink:href="#DejaVuSans-Bold-5d" x="526.123047"/>
     </g>
    </g>
   </g>
   <g id="line2d_14">
    <path d="M 439.833498 35.018182 
L 439.833498 208.23461 
L 153.940386 208.23461 
L 153.940386 313.670697 
L 295.344471 313.670697 
L 295.344471 339.088325 
L 171.836075 339.088325 
L 171.836075 591.381818 
L 171.836075 591.381818 
" clip-path="url(#p7de237e2cd)" style="fill: none; stroke: #000000; stroke-opacity: 0.5; stroke-width: 2; stroke-linecap: square"/>
   </g>
   <g id="line2d_15">
    <path d="M 366.967994 35.018182 
L 366.967994 217.648546 
L 259.523693 217.648546 
L 259.523693 376.74407 
L 458.465528 376.74407 
L 458.465528 483.121551 
L 488.464988 483.121551 
L 488.464988 591.381818 
L 488.464988 591.381818 
" clip-path="url(#p7de237e2cd)" style="fill: none; stroke: #000000; stroke-opacity: 0.5; stroke-width: 2; stroke-linecap: square"/>
   </g>
   <g id="line2d_16">
    <path d="M 214.58964 35.018182 
L 214.58964 76.439502 
L 407.340431 76.439502 
L 407.340431 250.597323 
L 309.608649 250.597323 
L 309.608649 387.0994 
L 285.985492 387.0994 
L 285.985492 591.381818 
L 285.985492 591.381818 
" clip-path="url(#p7de237e2cd)" style="fill: none; stroke: #000000; stroke-opacity: 0.5; stroke-width: 2; stroke-linecap: square"/>
   </g>
   <g id="patch_3">
    <path d="M 77.8775 619.2 
L 77.8775 7.2 
" style="fill: none; stroke: #000000; stroke-width: 2; stroke-linejoin: miter; stroke-linecap: square"/>
   </g>
   <g id="patch_4">
    <path d="M 87.8775 629.2 
L 519.8775 629.2 
" style="fill: none; stroke: #000000; stroke-width: 2; stroke-linejoin: miter; stroke-linecap: square"/>
   </g>
  </g>
 </g>
 <defs>
  <clipPath id="p7de237e2cd">
   <rect x="87.8775" y="7.2" width="432" height="612"/>
  </clipPath>
 </defs>
</svg>
