<?xml version="1.0" encoding="utf-8" standalone="no"?>
<!DOCTYPE svg PUBLIC "-//W3C//DTD SVG 1.1//EN"
  "http://www.w3.org/Graphics/SVG/1.1/DTD/svg11.dtd">
<svg xmlns:xlink="http://www.w3.org/1999/xlink" width="446.4pt" height="563.129375pt" viewBox="0 0 446.4 563.129375" xmlns="http://www.w3.org/2000/svg" version="1.1">
 <metadata>
  <rdf:RDF xmlns:dc="http://purl.org/dc/elements/1.1/" xmlns:cc="http://creativecommons.org/ns#" xmlns:rdf="http://www.w3.org/1999/02/22-rdf-syntax-ns#">
   <cc:Work>
    <dc:type rdf:resource="http://purl.org/dc/dcmitype/StillImage"/>
    <dc:date>2024-07-01T11:48:16.847242</dc:date>
    <dc:format>image/svg+xml</dc:format>
    <dc:creator>
     <cc:Agent>
      <dc:title>Matplotlib v3.8.0, https://matplotlib.org/</dc:title>
     </cc:Agent>
    </dc:creator>
   </cc:Work>
  </rdf:RDF>
 </metadata>
 <defs>
  <style type="text/css">*{stroke-linejoin: round; stroke-linecap: butt}</style>
 </defs>
 <g id="figure_1">
  <g id="patch_1">
   <path d="M 0 563.129375 
L 446.4 563.129375 
L 446.4 0 
L 0 0 
z
" style="fill: #ffffff"/>
  </g>
  <g id="axes_1">
   <g id="patch_2">
    <path d="M 7.2 496.8 
L 439.2 496.8 
L 439.2 7.2 
L 7.2 7.2 
z
" style="fill: #ffffff"/>
   </g>
   <g id="PolyCollection_1">
    <defs>
     <path id="m571718462d" d="M 419.541705 -533.67483 
L 26.898513 -533.67483 
L 26.916538 -524.20481 
L 26.868644 -514.734791 
L 26.852469 -505.264772 
L 26.90886 -495.794752 
L 26.873232 -486.324733 
L 26.847015 -476.854713 
L 26.870447 -467.384694 
L 26.893434 -457.914675 
L 27.056405 -448.444655 
L 26.870564 -438.974636 
L 26.867193 -429.504617 
L 26.858555 -420.034597 
L 26.922975 -410.564578 
L 26.846359 -401.094559 
L 26.950761 -391.624539 
L 26.851041 -382.15452 
L 26.836364 -372.684501 
L 26.876041 -363.214481 
L 26.897413 -353.744462 
L 26.863845 -344.274443 
L 26.848747 -334.804423 
L 26.838704 -325.334404 
L 26.873677 -315.864385 
L 26.84348 -306.394365 
L 26.841841 -296.924346 
L 26.856729 -287.454327 
L 26.887628 -277.984307 
L 26.856401 -268.514288 
L 26.876018 -259.044269 
L 26.847412 -249.574249 
L 26.838962 -240.10423 
L 26.840601 -230.634211 
L 26.898537 -221.164191 
L 26.934469 -211.694172 
L 26.83744 -202.224153 
L 26.927189 -192.754133 
L 26.899824 -183.284114 
L 26.879506 -173.814095 
L 26.88716 -164.344075 
L 26.878897 -154.874056 
L 26.874426 -145.404037 
L 26.836527 -135.934017 
L 26.860732 -126.463998 
L 26.880021 -116.993978 
L 26.858976 -107.523959 
L 26.84774 -98.05394 
L 26.837159 -88.58392 
L 419.480544 -88.58392 
L 419.480544 -88.58392 
L 419.545065 -98.05394 
L 419.445992 -107.523959 
L 419.537386 -116.993978 
L 419.486926 -126.463998 
L 419.556606 -135.934017 
L 419.534675 -145.404037 
L 419.547968 -154.874056 
L 419.562149 -164.344075 
L 419.490597 -173.814095 
L 419.533619 -183.284114 
L 419.554878 -192.754133 
L 419.544849 -202.224153 
L 419.563588 -211.694172 
L 419.528677 -221.164191 
L 419.554518 -230.634211 
L 419.545233 -240.10423 
L 419.562749 -249.574249 
L 419.560613 -259.044269 
L 419.540218 -268.514288 
L 419.528748 -277.984307 
L 419.46118 -287.454327 
L 419.559485 -296.924346 
L 419.545521 -306.394365 
L 419.525989 -315.864385 
L 419.519247 -325.334404 
L 419.553487 -334.804423 
L 419.547464 -344.274443 
L 419.539354 -353.744462 
L 419.545928 -363.214481 
L 419.491293 -372.684501 
L 419.475769 -382.15452 
L 419.535107 -391.624539 
L 419.434139 -401.094559 
L 419.458373 -410.564578 
L 419.563636 -420.034597 
L 419.5311 -429.504617 
L 419.54984 -438.974636 
L 419.54912 -448.444655 
L 419.562941 -457.914675 
L 419.488342 -467.384694 
L 419.540146 -476.854713 
L 419.549888 -486.324733 
L 419.560109 -495.794752 
L 419.542089 -505.264772 
L 419.558885 -514.734791 
L 419.554183 -524.20481 
L 419.541705 -533.67483 
z
" style="stroke: #228b22; stroke-opacity: 0.4"/>
    </defs>
    <g clip-path="url(#pe25ac940db)">
     <use xlink:href="#m571718462d" x="0" y="563.129375" style="fill: #228b22; fill-opacity: 0.4; stroke: #228b22; stroke-opacity: 0.4"/>
    </g>
   </g>
   <g id="matplotlib.axis_1">
    <g id="xtick_1">
     <g id="line2d_1">
      <defs>
       <path id="ma86d3a8119" d="M 0 0 
L 0 3.5 
" style="stroke: #000000; stroke-width: 1.5"/>
      </defs>
      <g>
       <use xlink:href="#ma86d3a8119" x="26.442748" y="506.8" style="stroke: #000000; stroke-width: 1.5"/>
      </g>
     </g>
     <g id="text_1">
      <!-- 0 -->
      <g transform="translate(21.988998 524.437812) scale(0.14 -0.14)">
       <defs>
        <path id="DejaVuSans-30" d="M 2034 4250 
Q 1547 4250 1301 3770 
Q 1056 3291 1056 2328 
Q 1056 1369 1301 889 
Q 1547 409 2034 409 
Q 2525 409 2770 889 
Q 3016 1369 3016 2328 
Q 3016 3291 2770 3770 
Q 2525 4250 2034 4250 
z
M 2034 4750 
Q 2819 4750 3233 4129 
Q 3647 3509 3647 2328 
Q 3647 1150 3233 529 
Q 2819 -91 2034 -91 
Q 1250 -91 836 529 
Q 422 1150 422 2328 
Q 422 3509 836 4129 
Q 1250 4750 2034 4750 
z
" transform="scale(0.015625)"/>
       </defs>
       <use xlink:href="#DejaVuSans-30"/>
      </g>
     </g>
    </g>
    <g id="xtick_2">
     <g id="line2d_2">
      <g>
       <use xlink:href="#ma86d3a8119" x="105.067621" y="506.8" style="stroke: #000000; stroke-width: 1.5"/>
      </g>
     </g>
     <g id="text_2">
      <!-- 200 -->
      <g transform="translate(91.706371 524.437812) scale(0.14 -0.14)">
       <defs>
        <path id="DejaVuSans-32" d="M 1228 531 
L 3431 531 
L 3431 0 
L 469 0 
L 469 531 
Q 828 903 1448 1529 
Q 2069 2156 2228 2338 
Q 2531 2678 2651 2914 
Q 2772 3150 2772 3378 
Q 2772 3750 2511 3984 
Q 2250 4219 1831 4219 
Q 1534 4219 1204 4116 
Q 875 4013 500 3803 
L 500 4441 
Q 881 4594 1212 4672 
Q 1544 4750 1819 4750 
Q 2544 4750 2975 4387 
Q 3406 4025 3406 3419 
Q 3406 3131 3298 2873 
Q 3191 2616 2906 2266 
Q 2828 2175 2409 1742 
Q 1991 1309 1228 531 
z
" transform="scale(0.015625)"/>
       </defs>
       <use xlink:href="#DejaVuSans-32"/>
       <use xlink:href="#DejaVuSans-30" x="63.623047"/>
       <use xlink:href="#DejaVuSans-30" x="127.246094"/>
      </g>
     </g>
    </g>
    <g id="xtick_3">
     <g id="line2d_3">
      <g>
       <use xlink:href="#ma86d3a8119" x="183.692495" y="506.8" style="stroke: #000000; stroke-width: 1.5"/>
      </g>
     </g>
     <g id="text_3">
      <!-- 400 -->
      <g transform="translate(170.331245 524.437812) scale(0.14 -0.14)">
       <defs>
        <path id="DejaVuSans-34" d="M 2419 4116 
L 825 1625 
L 2419 1625 
L 2419 4116 
z
M 2253 4666 
L 3047 4666 
L 3047 1625 
L 3713 1625 
L 3713 1100 
L 3047 1100 
L 3047 0 
L 2419 0 
L 2419 1100 
L 313 1100 
L 313 1709 
L 2253 4666 
z
" transform="scale(0.015625)"/>
       </defs>
       <use xlink:href="#DejaVuSans-34"/>
       <use xlink:href="#DejaVuSans-30" x="63.623047"/>
       <use xlink:href="#DejaVuSans-30" x="127.246094"/>
      </g>
     </g>
    </g>
    <g id="xtick_4">
     <g id="line2d_4">
      <g>
       <use xlink:href="#ma86d3a8119" x="262.317368" y="506.8" style="stroke: #000000; stroke-width: 1.5"/>
      </g>
     </g>
     <g id="text_4">
      <!-- 600 -->
      <g transform="translate(248.956118 524.437812) scale(0.14 -0.14)">
       <defs>
        <path id="DejaVuSans-36" d="M 2113 2584 
Q 1688 2584 1439 2293 
Q 1191 2003 1191 1497 
Q 1191 994 1439 701 
Q 1688 409 2113 409 
Q 2538 409 2786 701 
Q 3034 994 3034 1497 
Q 3034 2003 2786 2293 
Q 2538 2584 2113 2584 
z
M 3366 4563 
L 3366 3988 
Q 3128 4100 2886 4159 
Q 2644 4219 2406 4219 
Q 1781 4219 1451 3797 
Q 1122 3375 1075 2522 
Q 1259 2794 1537 2939 
Q 1816 3084 2150 3084 
Q 2853 3084 3261 2657 
Q 3669 2231 3669 1497 
Q 3669 778 3244 343 
Q 2819 -91 2113 -91 
Q 1303 -91 875 529 
Q 447 1150 447 2328 
Q 447 3434 972 4092 
Q 1497 4750 2381 4750 
Q 2619 4750 2861 4703 
Q 3103 4656 3366 4563 
z
" transform="scale(0.015625)"/>
       </defs>
       <use xlink:href="#DejaVuSans-36"/>
       <use xlink:href="#DejaVuSans-30" x="63.623047"/>
       <use xlink:href="#DejaVuSans-30" x="127.246094"/>
      </g>
     </g>
    </g>
    <g id="xtick_5">
     <g id="line2d_5">
      <g>
       <use xlink:href="#ma86d3a8119" x="340.942242" y="506.8" style="stroke: #000000; stroke-width: 1.5"/>
      </g>
     </g>
     <g id="text_5">
      <!-- 800 -->
      <g transform="translate(327.580992 524.437812) scale(0.14 -0.14)">
       <defs>
        <path id="DejaVuSans-38" d="M 2034 2216 
Q 1584 2216 1326 1975 
Q 1069 1734 1069 1313 
Q 1069 891 1326 650 
Q 1584 409 2034 409 
Q 2484 409 2743 651 
Q 3003 894 3003 1313 
Q 3003 1734 2745 1975 
Q 2488 2216 2034 2216 
z
M 1403 2484 
Q 997 2584 770 2862 
Q 544 3141 544 3541 
Q 544 4100 942 4425 
Q 1341 4750 2034 4750 
Q 2731 4750 3128 4425 
Q 3525 4100 3525 3541 
Q 3525 3141 3298 2862 
Q 3072 2584 2669 2484 
Q 3125 2378 3379 2068 
Q 3634 1759 3634 1313 
Q 3634 634 3220 271 
Q 2806 -91 2034 -91 
Q 1263 -91 848 271 
Q 434 634 434 1313 
Q 434 1759 690 2068 
Q 947 2378 1403 2484 
z
M 1172 3481 
Q 1172 3119 1398 2916 
Q 1625 2713 2034 2713 
Q 2441 2713 2670 2916 
Q 2900 3119 2900 3481 
Q 2900 3844 2670 4047 
Q 2441 4250 2034 4250 
Q 1625 4250 1398 4047 
Q 1172 3844 1172 3481 
z
" transform="scale(0.015625)"/>
       </defs>
       <use xlink:href="#DejaVuSans-38"/>
       <use xlink:href="#DejaVuSans-30" x="63.623047"/>
       <use xlink:href="#DejaVuSans-30" x="127.246094"/>
      </g>
     </g>
    </g>
    <g id="xtick_6">
     <g id="line2d_6">
      <g>
       <use xlink:href="#ma86d3a8119" x="419.567116" y="506.8" style="stroke: #000000; stroke-width: 1.5"/>
      </g>
     </g>
     <g id="text_6">
      <!-- 1000 -->
      <g transform="translate(401.752116 524.437812) scale(0.14 -0.14)">
       <defs>
        <path id="DejaVuSans-31" d="M 794 531 
L 1825 531 
L 1825 4091 
L 703 3866 
L 703 4441 
L 1819 4666 
L 2450 4666 
L 2450 531 
L 3481 531 
L 3481 0 
L 794 0 
L 794 531 
z
" transform="scale(0.015625)"/>
       </defs>
       <use xlink:href="#DejaVuSans-31"/>
       <use xlink:href="#DejaVuSans-30" x="63.623047"/>
       <use xlink:href="#DejaVuSans-30" x="127.246094"/>
       <use xlink:href="#DejaVuSans-30" x="190.869141"/>
      </g>
     </g>
    </g>
    <g id="text_7">
     <!-- Resistivity  [$\Omega m$] -->
     <g transform="translate(165.03 552.989375) scale(0.14 -0.14)">
      <defs>
       <path id="DejaVuSans-52" d="M 2841 2188 
Q 3044 2119 3236 1894 
Q 3428 1669 3622 1275 
L 4263 0 
L 3584 0 
L 2988 1197 
Q 2756 1666 2539 1819 
Q 2322 1972 1947 1972 
L 1259 1972 
L 1259 0 
L 628 0 
L 628 4666 
L 2053 4666 
Q 2853 4666 3247 4331 
Q 3641 3997 3641 3322 
Q 3641 2881 3436 2590 
Q 3231 2300 2841 2188 
z
M 1259 4147 
L 1259 2491 
L 2053 2491 
Q 2509 2491 2742 2702 
Q 2975 2913 2975 3322 
Q 2975 3731 2742 3939 
Q 2509 4147 2053 4147 
L 1259 4147 
z
" transform="scale(0.015625)"/>
       <path id="DejaVuSans-65" d="M 3597 1894 
L 3597 1613 
L 953 1613 
Q 991 1019 1311 708 
Q 1631 397 2203 397 
Q 2534 397 2845 478 
Q 3156 559 3463 722 
L 3463 178 
Q 3153 47 2828 -22 
Q 2503 -91 2169 -91 
Q 1331 -91 842 396 
Q 353 884 353 1716 
Q 353 2575 817 3079 
Q 1281 3584 2069 3584 
Q 2775 3584 3186 3129 
Q 3597 2675 3597 1894 
z
M 3022 2063 
Q 3016 2534 2758 2815 
Q 2500 3097 2075 3097 
Q 1594 3097 1305 2825 
Q 1016 2553 972 2059 
L 3022 2063 
z
" transform="scale(0.015625)"/>
       <path id="DejaVuSans-73" d="M 2834 3397 
L 2834 2853 
Q 2591 2978 2328 3040 
Q 2066 3103 1784 3103 
Q 1356 3103 1142 2972 
Q 928 2841 928 2578 
Q 928 2378 1081 2264 
Q 1234 2150 1697 2047 
L 1894 2003 
Q 2506 1872 2764 1633 
Q 3022 1394 3022 966 
Q 3022 478 2636 193 
Q 2250 -91 1575 -91 
Q 1294 -91 989 -36 
Q 684 19 347 128 
L 347 722 
Q 666 556 975 473 
Q 1284 391 1588 391 
Q 1994 391 2212 530 
Q 2431 669 2431 922 
Q 2431 1156 2273 1281 
Q 2116 1406 1581 1522 
L 1381 1569 
Q 847 1681 609 1914 
Q 372 2147 372 2553 
Q 372 3047 722 3315 
Q 1072 3584 1716 3584 
Q 2034 3584 2315 3537 
Q 2597 3491 2834 3397 
z
" transform="scale(0.015625)"/>
       <path id="DejaVuSans-69" d="M 603 3500 
L 1178 3500 
L 1178 0 
L 603 0 
L 603 3500 
z
M 603 4863 
L 1178 4863 
L 1178 4134 
L 603 4134 
L 603 4863 
z
" transform="scale(0.015625)"/>
       <path id="DejaVuSans-74" d="M 1172 4494 
L 1172 3500 
L 2356 3500 
L 2356 3053 
L 1172 3053 
L 1172 1153 
Q 1172 725 1289 603 
Q 1406 481 1766 481 
L 2356 481 
L 2356 0 
L 1766 0 
Q 1100 0 847 248 
Q 594 497 594 1153 
L 594 3053 
L 172 3053 
L 172 3500 
L 594 3500 
L 594 4494 
L 1172 4494 
z
" transform="scale(0.015625)"/>
       <path id="DejaVuSans-76" d="M 191 3500 
L 800 3500 
L 1894 563 
L 2988 3500 
L 3597 3500 
L 2284 0 
L 1503 0 
L 191 3500 
z
" transform="scale(0.015625)"/>
       <path id="DejaVuSans-79" d="M 2059 -325 
Q 1816 -950 1584 -1140 
Q 1353 -1331 966 -1331 
L 506 -1331 
L 506 -850 
L 844 -850 
Q 1081 -850 1212 -737 
Q 1344 -625 1503 -206 
L 1606 56 
L 191 3500 
L 800 3500 
L 1894 763 
L 2988 3500 
L 3597 3500 
L 2059 -325 
z
" transform="scale(0.015625)"/>
       <path id="DejaVuSans-20" transform="scale(0.015625)"/>
       <path id="DejaVuSans-5b" d="M 550 4863 
L 1875 4863 
L 1875 4416 
L 1125 4416 
L 1125 -397 
L 1875 -397 
L 1875 -844 
L 550 -844 
L 550 4863 
z
" transform="scale(0.015625)"/>
       <path id="DejaVuSans-3a9" d="M 4647 556 
L 4647 0 
L 2772 0 
L 2772 556 
Q 3325 859 3634 1378 
Q 3944 1897 3944 2528 
Q 3944 3278 3531 3731 
Q 3119 4184 2444 4184 
Q 1769 4184 1355 3729 
Q 941 3275 941 2528 
Q 941 1897 1250 1378 
Q 1563 859 2119 556 
L 2119 0 
L 244 0 
L 244 556 
L 1241 556 
Q 747 991 519 1456 
Q 294 1922 294 2497 
Q 294 3491 894 4106 
Q 1491 4722 2444 4722 
Q 3391 4722 3994 4106 
Q 4594 3494 4594 2528 
Q 4594 1922 4372 1459 
Q 4150 997 3647 556 
L 4647 556 
z
" transform="scale(0.015625)"/>
       <path id="DejaVuSans-6d" d="M 3328 2828 
Q 3544 3216 3844 3400 
Q 4144 3584 4550 3584 
Q 5097 3584 5394 3201 
Q 5691 2819 5691 2113 
L 5691 0 
L 5113 0 
L 5113 2094 
Q 5113 2597 4934 2840 
Q 4756 3084 4391 3084 
Q 3944 3084 3684 2787 
Q 3425 2491 3425 1978 
L 3425 0 
L 2847 0 
L 2847 2094 
Q 2847 2600 2669 2842 
Q 2491 3084 2119 3084 
Q 1678 3084 1418 2786 
Q 1159 2488 1159 1978 
L 1159 0 
L 581 0 
L 581 3500 
L 1159 3500 
L 1159 2956 
Q 1356 3278 1631 3431 
Q 1906 3584 2284 3584 
Q 2666 3584 2933 3390 
Q 3200 3197 3328 2828 
z
" transform="scale(0.015625)"/>
       <path id="DejaVuSans-5d" d="M 1947 4863 
L 1947 -844 
L 622 -844 
L 622 -397 
L 1369 -397 
L 1369 4416 
L 622 4416 
L 622 4863 
L 1947 4863 
z
" transform="scale(0.015625)"/>
      </defs>
      <use xlink:href="#DejaVuSans-52" transform="translate(0 0.015625)"/>
      <use xlink:href="#DejaVuSans-65" transform="translate(69.482422 0.015625)"/>
      <use xlink:href="#DejaVuSans-73" transform="translate(131.005859 0.015625)"/>
      <use xlink:href="#DejaVuSans-69" transform="translate(183.105469 0.015625)"/>
      <use xlink:href="#DejaVuSans-73" transform="translate(210.888672 0.015625)"/>
      <use xlink:href="#DejaVuSans-74" transform="translate(262.988281 0.015625)"/>
      <use xlink:href="#DejaVuSans-69" transform="translate(302.197266 0.015625)"/>
      <use xlink:href="#DejaVuSans-76" transform="translate(329.980469 0.015625)"/>
      <use xlink:href="#DejaVuSans-69" transform="translate(389.160156 0.015625)"/>
      <use xlink:href="#DejaVuSans-74" transform="translate(416.943359 0.015625)"/>
      <use xlink:href="#DejaVuSans-79" transform="translate(456.152344 0.015625)"/>
      <use xlink:href="#DejaVuSans-20" transform="translate(515.332031 0.015625)"/>
      <use xlink:href="#DejaVuSans-20" transform="translate(547.119141 0.015625)"/>
      <use xlink:href="#DejaVuSans-5b" transform="translate(578.90625 0.015625)"/>
      <use xlink:href="#DejaVuSans-3a9" transform="translate(617.919922 0.015625)"/>
      <use xlink:href="#DejaVuSans-6d" transform="translate(694.335938 0.015625)"/>
      <use xlink:href="#DejaVuSans-5d" transform="translate(791.748047 0.015625)"/>
     </g>
    </g>
   </g>
   <g id="line2d_7">
    <path d="M 382.948603 29.454545 
L 382.948603 38.924565 
L 336.577659 38.924565 
L 336.577659 48.394584 
L 225.156762 48.394584 
L 225.156762 57.864603 
L 150.36995 57.864603 
L 150.36995 67.334623 
L 112.491029 67.334623 
L 112.491029 76.804642 
L 318.519612 76.804642 
L 318.519612 86.274662 
L 342.733592 86.274662 
L 342.733592 95.744681 
L 320.677597 95.744681 
L 320.677597 105.2147 
L 340.119954 105.2147 
L 340.119954 114.68472 
L 113.803313 114.68472 
L 113.803313 124.154739 
L 46.575904 124.154739 
L 46.575904 133.624758 
L 341.282963 133.624758 
L 341.282963 143.094778 
L 129.234428 143.094778 
L 129.234428 152.564797 
L 397.033224 152.564797 
L 397.033224 162.034816 
L 371.575902 162.034816 
L 371.575902 171.504836 
L 202.141327 171.504836 
L 202.141327 180.974855 
L 226.469592 180.974855 
L 226.469592 190.444874 
L 129.906452 190.444874 
L 129.906452 199.914894 
L 253.98044 199.914894 
L 253.98044 209.384913 
L 262.826866 209.384913 
L 262.826866 218.854932 
L 178.461822 218.854932 
L 178.461822 228.324952 
L 44.221632 228.324952 
L 44.221632 237.794971 
L 100.965028 237.794971 
L 100.965028 247.26499 
L 121.055257 247.26499 
L 121.055257 256.73501 
L 348.825748 256.73501 
L 348.825748 266.205029 
L 78.179117 266.205029 
L 78.179117 275.675048 
L 413.130712 275.675048 
L 413.130712 285.145068 
L 123.982664 285.145068 
L 123.982664 294.615087 
L 337.786018 294.615087 
L 337.786018 304.085106 
L 252.154489 304.085106 
L 252.154489 313.555126 
L 250.172215 313.555126 
L 250.172215 323.025145 
L 214.098772 323.025145 
L 214.098772 332.495164 
L 194.650669 332.495164 
L 194.650669 341.965184 
L 199.196337 341.965184 
L 199.196337 351.435203 
L 147.614984 351.435203 
L 147.614984 360.905222 
L 331.32238 360.905222 
L 331.32238 370.375242 
L 35.403118 370.375242 
L 35.403118 379.845261 
L 136.436326 379.845261 
L 136.436326 389.31528 
L 417.447498 389.31528 
L 417.447498 398.7853 
L 58.461976 398.7853 
L 58.461976 408.255319 
L 153.32269 408.255319 
L 153.32269 417.725338 
L 387.228461 417.725338 
L 387.228461 427.195358 
L 136.308495 427.195358 
L 136.308495 436.665377 
L 221.893331 436.665377 
L 221.893331 446.135397 
L 49.851424 446.135397 
L 49.851424 455.605416 
L 116.863032 455.605416 
L 116.863032 465.075435 
L 288.882488 465.075435 
L 288.882488 474.545455 
L 133.980546 474.545455 
" clip-path="url(#pe25ac940db)" style="fill: none; stroke: #000000; stroke-opacity: 0.5; stroke-width: 2; stroke-linecap: square"/>
   </g>
   <g id="patch_3">
    <path d="M 7.2 506.8 
L 439.2 506.8 
" style="fill: none; stroke: #000000; stroke-width: 1.5; stroke-linejoin: miter; stroke-linecap: square"/>
   </g>
  </g>
 </g>
 <defs>
  <clipPath id="pe25ac940db">
   <rect x="7.2" y="7.2" width="432" height="489.6"/>
  </clipPath>
 </defs>
</svg>
