<?xml version="1.0" encoding="utf-8" standalone="no"?>
<!DOCTYPE svg PUBLIC "-//W3C//DTD SVG 1.1//EN"
  "http://www.w3.org/Graphics/SVG/1.1/DTD/svg11.dtd">
<svg xmlns:xlink="http://www.w3.org/1999/xlink" width="452.213865pt" height="701.27625pt" viewBox="0 0 452.213865 701.27625" xmlns="http://www.w3.org/2000/svg" version="1.1">
 <metadata>
  <rdf:RDF xmlns:dc="http://purl.org/dc/elements/1.1/" xmlns:cc="http://creativecommons.org/ns#" xmlns:rdf="http://www.w3.org/1999/02/22-rdf-syntax-ns#">
   <cc:Work>
    <dc:type rdf:resource="http://purl.org/dc/dcmitype/StillImage"/>
    <dc:date>2024-07-03T18:47:47.152263</dc:date>
    <dc:format>image/svg+xml</dc:format>
    <dc:creator>
     <cc:Agent>
      <dc:title>Matplotlib v3.8.0, https://matplotlib.org/</dc:title>
     </cc:Agent>
    </dc:creator>
   </cc:Work>
  </rdf:RDF>
 </metadata>
 <defs>
  <style type="text/css">*{stroke-linejoin: round; stroke-linecap: butt}</style>
 </defs>
 <g id="figure_1">
  <g id="patch_1">
   <path d="M 0 701.27625 
L 452.213865 701.27625 
L 452.213865 0 
L 0 0 
z
" style="fill: #ffffff"/>
  </g>
  <g id="axes_1">
   <g id="patch_2">
    <path d="M 7.2 619.2 
L 439.2 619.2 
L 439.2 7.2 
L 7.2 7.2 
z
" style="fill: #ffffff"/>
   </g>
   <g id="PolyCollection_1">
    <defs>
     <path id="mdea6379d35" d="M 419.499989 -666.258068 
L 26.860128 -666.258068 
L 27.108677 -654.420544 
L 27.020571 -642.58302 
L 26.900481 -630.745496 
L 26.96478 -618.907971 
L 27.120302 -607.070447 
L 27.113962 -595.232923 
L 27.573844 -583.395399 
L 26.920865 -571.557875 
L 26.958575 -559.720351 
L 26.950476 -547.882826 
L 27.162785 -536.045302 
L 27.483628 -524.207778 
L 26.897315 -512.370254 
L 26.919348 -500.53273 
L 26.836364 -488.695206 
L 27.478732 -476.857681 
L 28.334979 -465.020157 
L 27.311575 -453.182633 
L 27.592049 -441.345109 
L 27.103993 -429.507585 
L 26.957749 -417.67006 
L 26.919063 -405.832536 
L 27.702389 -393.995012 
L 27.373912 -382.157488 
L 28.142782 -370.319964 
L 26.981679 -358.48244 
L 27.31666 -346.644915 
L 27.872138 -334.807391 
L 27.682039 -322.969867 
L 27.265956 -311.132343 
L 26.908401 -299.294819 
L 27.265251 -287.457294 
L 27.461199 -275.61977 
L 27.470529 -263.782246 
L 27.124071 -251.944722 
L 27.40585 -240.107198 
L 26.888262 -228.269674 
L 27.034427 -216.432149 
L 27.094944 -204.594625 
L 27.092146 -192.757101 
L 27.518002 -180.919577 
L 27.229879 -169.082053 
L 27.41081 -157.244529 
L 27.218826 -145.407004 
L 27.788158 -133.56948 
L 28.31812 -121.731956 
L 26.883566 -109.894432 
L 419.535072 -109.894432 
L 419.535072 -109.894432 
L 419.371013 -121.731956 
L 418.824127 -133.56948 
L 419.450777 -145.407004 
L 419.104278 -157.244529 
L 418.983982 -169.082053 
L 418.379034 -180.919577 
L 419.563636 -192.757101 
L 419.375077 -204.594625 
L 419.191964 -216.432149 
L 419.197399 -228.269674 
L 419.416986 -240.107198 
L 418.884022 -251.944722 
L 419.097219 -263.782246 
L 419.471242 -275.61977 
L 419.410007 -287.457294 
L 419.233529 -299.294819 
L 419.040955 -311.132343 
L 419.107608 -322.969867 
L 418.980077 -334.807391 
L 418.33212 -346.644915 
L 419.238041 -358.48244 
L 418.769825 -370.319964 
L 419.557011 -382.157488 
L 419.553363 -393.995012 
L 418.686787 -405.832536 
L 417.712581 -417.67006 
L 419.257581 -429.507585 
L 419.465152 -441.345109 
L 419.191645 -453.182633 
L 419.523092 -465.020157 
L 419.302293 -476.857681 
L 419.34848 -488.695206 
L 419.079195 -500.53273 
L 419.102564 -512.370254 
L 419.53886 -524.207778 
L 419.102263 -536.045302 
L 419.472451 -547.882826 
L 419.093978 -559.720351 
L 419.276753 -571.557875 
L 418.559039 -583.395399 
L 417.948938 -595.232923 
L 419.138108 -607.070447 
L 419.307296 -618.907971 
L 418.266197 -630.745496 
L 419.529183 -642.58302 
L 419.23116 -654.420544 
L 419.499989 -666.258068 
z
" style="stroke: #228b22; stroke-opacity: 0.4"/>
    </defs>
    <g clip-path="url(#p6b52d02b55)">
     <use xlink:href="#mdea6379d35" x="0" y="701.27625" style="fill: #228b22; fill-opacity: 0.4; stroke: #228b22; stroke-opacity: 0.4"/>
    </g>
   </g>
   <g id="matplotlib.axis_1">
    <g id="xtick_1">
     <g id="line2d_1">
      <defs>
       <path id="m84ae853ad0" d="M 0 0 
L 0 3.5 
" style="stroke: #000000; stroke-width: 1.5"/>
      </defs>
      <g>
       <use xlink:href="#m84ae853ad0" x="26.831804" y="629.2" style="stroke: #000000; stroke-width: 1.5"/>
      </g>
     </g>
     <g id="text_1">
      <!-- 0 -->
      <g transform="translate(20.469304 651.396875) scale(0.2 -0.2)">
       <defs>
        <path id="DejaVuSans-30" d="M 2034 4250 
Q 1547 4250 1301 3770 
Q 1056 3291 1056 2328 
Q 1056 1369 1301 889 
Q 1547 409 2034 409 
Q 2525 409 2770 889 
Q 3016 1369 3016 2328 
Q 3016 3291 2770 3770 
Q 2525 4250 2034 4250 
z
M 2034 4750 
Q 2819 4750 3233 4129 
Q 3647 3509 3647 2328 
Q 3647 1150 3233 529 
Q 2819 -91 2034 -91 
Q 1250 -91 836 529 
Q 422 1150 422 2328 
Q 422 3509 836 4129 
Q 1250 4750 2034 4750 
z
" transform="scale(0.015625)"/>
       </defs>
       <use xlink:href="#DejaVuSans-30"/>
      </g>
     </g>
    </g>
    <g id="xtick_2">
     <g id="line2d_2">
      <g>
       <use xlink:href="#m84ae853ad0" x="105.378216" y="629.2" style="stroke: #000000; stroke-width: 1.5"/>
      </g>
     </g>
     <g id="text_2">
      <!-- 200 -->
      <g transform="translate(86.290716 651.396875) scale(0.2 -0.2)">
       <defs>
        <path id="DejaVuSans-32" d="M 1228 531 
L 3431 531 
L 3431 0 
L 469 0 
L 469 531 
Q 828 903 1448 1529 
Q 2069 2156 2228 2338 
Q 2531 2678 2651 2914 
Q 2772 3150 2772 3378 
Q 2772 3750 2511 3984 
Q 2250 4219 1831 4219 
Q 1534 4219 1204 4116 
Q 875 4013 500 3803 
L 500 4441 
Q 881 4594 1212 4672 
Q 1544 4750 1819 4750 
Q 2544 4750 2975 4387 
Q 3406 4025 3406 3419 
Q 3406 3131 3298 2873 
Q 3191 2616 2906 2266 
Q 2828 2175 2409 1742 
Q 1991 1309 1228 531 
z
" transform="scale(0.015625)"/>
       </defs>
       <use xlink:href="#DejaVuSans-32"/>
       <use xlink:href="#DejaVuSans-30" x="63.623047"/>
       <use xlink:href="#DejaVuSans-30" x="127.246094"/>
      </g>
     </g>
    </g>
    <g id="xtick_3">
     <g id="line2d_3">
      <g>
       <use xlink:href="#m84ae853ad0" x="183.924628" y="629.2" style="stroke: #000000; stroke-width: 1.5"/>
      </g>
     </g>
     <g id="text_3">
      <!-- 400 -->
      <g transform="translate(164.837128 651.396875) scale(0.2 -0.2)">
       <defs>
        <path id="DejaVuSans-34" d="M 2419 4116 
L 825 1625 
L 2419 1625 
L 2419 4116 
z
M 2253 4666 
L 3047 4666 
L 3047 1625 
L 3713 1625 
L 3713 1100 
L 3047 1100 
L 3047 0 
L 2419 0 
L 2419 1100 
L 313 1100 
L 313 1709 
L 2253 4666 
z
" transform="scale(0.015625)"/>
       </defs>
       <use xlink:href="#DejaVuSans-34"/>
       <use xlink:href="#DejaVuSans-30" x="63.623047"/>
       <use xlink:href="#DejaVuSans-30" x="127.246094"/>
      </g>
     </g>
    </g>
    <g id="xtick_4">
     <g id="line2d_4">
      <g>
       <use xlink:href="#m84ae853ad0" x="262.471041" y="629.2" style="stroke: #000000; stroke-width: 1.5"/>
      </g>
     </g>
     <g id="text_4">
      <!-- 600 -->
      <g transform="translate(243.383541 651.396875) scale(0.2 -0.2)">
       <defs>
        <path id="DejaVuSans-36" d="M 2113 2584 
Q 1688 2584 1439 2293 
Q 1191 2003 1191 1497 
Q 1191 994 1439 701 
Q 1688 409 2113 409 
Q 2538 409 2786 701 
Q 3034 994 3034 1497 
Q 3034 2003 2786 2293 
Q 2538 2584 2113 2584 
z
M 3366 4563 
L 3366 3988 
Q 3128 4100 2886 4159 
Q 2644 4219 2406 4219 
Q 1781 4219 1451 3797 
Q 1122 3375 1075 2522 
Q 1259 2794 1537 2939 
Q 1816 3084 2150 3084 
Q 2853 3084 3261 2657 
Q 3669 2231 3669 1497 
Q 3669 778 3244 343 
Q 2819 -91 2113 -91 
Q 1303 -91 875 529 
Q 447 1150 447 2328 
Q 447 3434 972 4092 
Q 1497 4750 2381 4750 
Q 2619 4750 2861 4703 
Q 3103 4656 3366 4563 
z
" transform="scale(0.015625)"/>
       </defs>
       <use xlink:href="#DejaVuSans-36"/>
       <use xlink:href="#DejaVuSans-30" x="63.623047"/>
       <use xlink:href="#DejaVuSans-30" x="127.246094"/>
      </g>
     </g>
    </g>
    <g id="xtick_5">
     <g id="line2d_5">
      <g>
       <use xlink:href="#m84ae853ad0" x="341.017453" y="629.2" style="stroke: #000000; stroke-width: 1.5"/>
      </g>
     </g>
     <g id="text_5">
      <!-- 800 -->
      <g transform="translate(321.929953 651.396875) scale(0.2 -0.2)">
       <defs>
        <path id="DejaVuSans-38" d="M 2034 2216 
Q 1584 2216 1326 1975 
Q 1069 1734 1069 1313 
Q 1069 891 1326 650 
Q 1584 409 2034 409 
Q 2484 409 2743 651 
Q 3003 894 3003 1313 
Q 3003 1734 2745 1975 
Q 2488 2216 2034 2216 
z
M 1403 2484 
Q 997 2584 770 2862 
Q 544 3141 544 3541 
Q 544 4100 942 4425 
Q 1341 4750 2034 4750 
Q 2731 4750 3128 4425 
Q 3525 4100 3525 3541 
Q 3525 3141 3298 2862 
Q 3072 2584 2669 2484 
Q 3125 2378 3379 2068 
Q 3634 1759 3634 1313 
Q 3634 634 3220 271 
Q 2806 -91 2034 -91 
Q 1263 -91 848 271 
Q 434 634 434 1313 
Q 434 1759 690 2068 
Q 947 2378 1403 2484 
z
M 1172 3481 
Q 1172 3119 1398 2916 
Q 1625 2713 2034 2713 
Q 2441 2713 2670 2916 
Q 2900 3119 2900 3481 
Q 2900 3844 2670 4047 
Q 2441 4250 2034 4250 
Q 1625 4250 1398 4047 
Q 1172 3844 1172 3481 
z
" transform="scale(0.015625)"/>
       </defs>
       <use xlink:href="#DejaVuSans-38"/>
       <use xlink:href="#DejaVuSans-30" x="63.623047"/>
       <use xlink:href="#DejaVuSans-30" x="127.246094"/>
      </g>
     </g>
    </g>
    <g id="xtick_6">
     <g id="line2d_6">
      <g>
       <use xlink:href="#m84ae853ad0" x="419.563865" y="629.2" style="stroke: #000000; stroke-width: 1.5"/>
      </g>
     </g>
     <g id="text_6">
      <!-- 1000 -->
      <g transform="translate(394.113865 651.396875) scale(0.2 -0.2)">
       <defs>
        <path id="DejaVuSans-31" d="M 794 531 
L 1825 531 
L 1825 4091 
L 703 3866 
L 703 4441 
L 1819 4666 
L 2450 4666 
L 2450 531 
L 3481 531 
L 3481 0 
L 794 0 
L 794 531 
z
" transform="scale(0.015625)"/>
       </defs>
       <use xlink:href="#DejaVuSans-31"/>
       <use xlink:href="#DejaVuSans-30" x="63.623047"/>
       <use xlink:href="#DejaVuSans-30" x="127.246094"/>
       <use xlink:href="#DejaVuSans-30" x="190.869141"/>
      </g>
     </g>
    </g>
    <g id="text_7">
     <!-- Resistivity  [$\Omega m$] -->
     <g transform="translate(110.04 688.79625) scale(0.24 -0.24)">
      <defs>
       <path id="DejaVuSans-Bold-52" d="M 2297 2597 
Q 2675 2597 2839 2737 
Q 3003 2878 3003 3200 
Q 3003 3519 2839 3656 
Q 2675 3794 2297 3794 
L 1791 3794 
L 1791 2597 
L 2297 2597 
z
M 1791 1766 
L 1791 0 
L 588 0 
L 588 4666 
L 2425 4666 
Q 3347 4666 3776 4356 
Q 4206 4047 4206 3378 
Q 4206 2916 3982 2619 
Q 3759 2322 3309 2181 
Q 3556 2125 3751 1926 
Q 3947 1728 4147 1325 
L 4800 0 
L 3519 0 
L 2950 1159 
Q 2778 1509 2601 1637 
Q 2425 1766 2131 1766 
L 1791 1766 
z
" transform="scale(0.015625)"/>
       <path id="DejaVuSans-Bold-65" d="M 4031 1759 
L 4031 1441 
L 1416 1441 
Q 1456 1047 1700 850 
Q 1944 653 2381 653 
Q 2734 653 3104 758 
Q 3475 863 3866 1075 
L 3866 213 
Q 3469 63 3072 -14 
Q 2675 -91 2278 -91 
Q 1328 -91 801 392 
Q 275 875 275 1747 
Q 275 2603 792 3093 
Q 1309 3584 2216 3584 
Q 3041 3584 3536 3087 
Q 4031 2591 4031 1759 
z
M 2881 2131 
Q 2881 2450 2695 2645 
Q 2509 2841 2209 2841 
Q 1884 2841 1681 2658 
Q 1478 2475 1428 2131 
L 2881 2131 
z
" transform="scale(0.015625)"/>
       <path id="DejaVuSans-Bold-73" d="M 3272 3391 
L 3272 2541 
Q 2913 2691 2578 2766 
Q 2244 2841 1947 2841 
Q 1628 2841 1473 2761 
Q 1319 2681 1319 2516 
Q 1319 2381 1436 2309 
Q 1553 2238 1856 2203 
L 2053 2175 
Q 2913 2066 3209 1816 
Q 3506 1566 3506 1031 
Q 3506 472 3093 190 
Q 2681 -91 1863 -91 
Q 1516 -91 1145 -36 
Q 775 19 384 128 
L 384 978 
Q 719 816 1070 734 
Q 1422 653 1784 653 
Q 2113 653 2278 743 
Q 2444 834 2444 1013 
Q 2444 1163 2330 1236 
Q 2216 1309 1875 1350 
L 1678 1375 
Q 931 1469 631 1722 
Q 331 1975 331 2491 
Q 331 3047 712 3315 
Q 1094 3584 1881 3584 
Q 2191 3584 2531 3537 
Q 2872 3491 3272 3391 
z
" transform="scale(0.015625)"/>
       <path id="DejaVuSans-Bold-69" d="M 538 3500 
L 1656 3500 
L 1656 0 
L 538 0 
L 538 3500 
z
M 538 4863 
L 1656 4863 
L 1656 3950 
L 538 3950 
L 538 4863 
z
" transform="scale(0.015625)"/>
       <path id="DejaVuSans-Bold-74" d="M 1759 4494 
L 1759 3500 
L 2913 3500 
L 2913 2700 
L 1759 2700 
L 1759 1216 
Q 1759 972 1856 886 
Q 1953 800 2241 800 
L 2816 800 
L 2816 0 
L 1856 0 
Q 1194 0 917 276 
Q 641 553 641 1216 
L 641 2700 
L 84 2700 
L 84 3500 
L 641 3500 
L 641 4494 
L 1759 4494 
z
" transform="scale(0.015625)"/>
       <path id="DejaVuSans-Bold-76" d="M 97 3500 
L 1216 3500 
L 2088 1081 
L 2956 3500 
L 4078 3500 
L 2700 0 
L 1472 0 
L 97 3500 
z
" transform="scale(0.015625)"/>
       <path id="DejaVuSans-Bold-79" d="M 78 3500 
L 1197 3500 
L 2138 1125 
L 2938 3500 
L 4056 3500 
L 2584 -331 
Q 2363 -916 2067 -1148 
Q 1772 -1381 1288 -1381 
L 641 -1381 
L 641 -647 
L 991 -647 
Q 1275 -647 1404 -556 
Q 1534 -466 1606 -231 
L 1638 -134 
L 78 3500 
z
" transform="scale(0.015625)"/>
       <path id="DejaVuSans-Bold-20" transform="scale(0.015625)"/>
       <path id="DejaVuSans-Bold-5b" d="M 550 4863 
L 2491 4863 
L 2491 4159 
L 1613 4159 
L 1613 -141 
L 2491 -141 
L 2491 -844 
L 550 -844 
L 550 4863 
z
" transform="scale(0.015625)"/>
       <path id="DejaVuSans-Bold-3a9" d="M 2719 4750 
Q 3841 4750 4480 4106 
Q 5119 3463 5119 2494 
Q 5119 1406 4306 909 
L 5266 909 
L 5266 0 
L 3125 0 
L 3125 975 
Q 3244 1041 3334 1131 
Q 3875 1678 3875 2466 
Q 3875 3066 3572 3472 
Q 3269 3878 2719 3878 
Q 2169 3878 1866 3472 
Q 1563 3066 1563 2466 
Q 1563 1678 2103 1131 
Q 2194 1041 2313 975 
L 2313 0 
L 172 0 
L 172 909 
L 1131 909 
Q 319 1406 319 2494 
Q 319 3463 958 4106 
Q 1597 4750 2719 4750 
z
" transform="scale(0.015625)"/>
       <path id="DejaVuSans-Bold-6d" d="M 3781 2919 
Q 3994 3244 4286 3414 
Q 4578 3584 4928 3584 
Q 5531 3584 5847 3212 
Q 6163 2841 6163 2131 
L 6163 0 
L 5038 0 
L 5038 1825 
Q 5041 1866 5042 1909 
Q 5044 1953 5044 2034 
Q 5044 2406 4934 2573 
Q 4825 2741 4581 2741 
Q 4263 2741 4089 2478 
Q 3916 2216 3909 1719 
L 3909 0 
L 2784 0 
L 2784 1825 
Q 2784 2406 2684 2573 
Q 2584 2741 2328 2741 
Q 2006 2741 1831 2477 
Q 1656 2213 1656 1722 
L 1656 0 
L 531 0 
L 531 3500 
L 1656 3500 
L 1656 2988 
Q 1863 3284 2130 3434 
Q 2397 3584 2719 3584 
Q 3081 3584 3359 3409 
Q 3638 3234 3781 2919 
z
" transform="scale(0.015625)"/>
       <path id="DejaVuSans-Bold-5d" d="M 2375 -844 
L 434 -844 
L 434 -141 
L 1313 -141 
L 1313 4159 
L 434 4159 
L 434 4863 
L 2375 4863 
L 2375 -844 
z
" transform="scale(0.015625)"/>
      </defs>
      <use xlink:href="#DejaVuSans-Bold-52" transform="translate(0 0.015625)"/>
      <use xlink:href="#DejaVuSans-Bold-65" transform="translate(77.001953 0.015625)"/>
      <use xlink:href="#DejaVuSans-Bold-73" transform="translate(144.824219 0.015625)"/>
      <use xlink:href="#DejaVuSans-Bold-69" transform="translate(204.345703 0.015625)"/>
      <use xlink:href="#DejaVuSans-Bold-73" transform="translate(238.623047 0.015625)"/>
      <use xlink:href="#DejaVuSans-Bold-74" transform="translate(298.144531 0.015625)"/>
      <use xlink:href="#DejaVuSans-Bold-69" transform="translate(345.947266 0.015625)"/>
      <use xlink:href="#DejaVuSans-Bold-76" transform="translate(380.224609 0.015625)"/>
      <use xlink:href="#DejaVuSans-Bold-69" transform="translate(445.410156 0.015625)"/>
      <use xlink:href="#DejaVuSans-Bold-74" transform="translate(479.6875 0.015625)"/>
      <use xlink:href="#DejaVuSans-Bold-79" transform="translate(527.490234 0.015625)"/>
      <use xlink:href="#DejaVuSans-Bold-20" transform="translate(592.675781 0.015625)"/>
      <use xlink:href="#DejaVuSans-Bold-20" transform="translate(627.490234 0.015625)"/>
      <use xlink:href="#DejaVuSans-Bold-5b" transform="translate(662.304688 0.015625)"/>
      <use xlink:href="#DejaVuSans-Bold-3a9" transform="translate(708.007812 0.015625)"/>
      <use xlink:href="#DejaVuSans-Bold-6d" transform="translate(793.017578 0.015625)"/>
      <use xlink:href="#DejaVuSans-Bold-5d" transform="translate(897.216797 0.015625)"/>
     </g>
    </g>
   </g>
   <g id="line2d_7">
    <path d="M 381.702753 35.018182 
L 329.503396 46.855706 
L 286.290317 58.69323 
L 251.19796 70.530754 
L 223.398298 82.368279 
L 202.100834 94.205803 
L 186.552603 106.043327 
L 176.038169 117.880851 
L 169.879627 129.718375 
L 167.436603 141.555899 
L 168.106251 153.393424 
L 171.323257 165.230948 
L 176.559838 177.068472 
L 183.32574 188.905996 
L 191.168239 200.74352 
L 199.672144 212.581044 
L 208.45979 224.418569 
L 217.191047 236.256093 
L 225.563311 248.093617 
L 233.311512 259.931141 
L 240.208108 271.768665 
L 246.063088 283.60619 
L 250.723971 295.443714 
L 254.075808 307.281238 
L 256.041178 319.118762 
L 256.580192 330.956286 
L 255.69049 342.79381 
L 253.407244 354.631335 
L 249.803155 366.468859 
L 244.988453 378.306383 
L 239.110903 390.143907 
L 232.355795 401.981431 
L 224.945952 413.818956 
L 217.141728 425.65648 
L 209.241006 437.494004 
L 201.5792 449.331528 
L 194.529252 461.169052 
L 188.501639 473.006576 
L 183.944363 484.844101 
L 181.342961 496.681625 
L 181.220498 508.519149 
L 184.137569 520.356673 
L 190.6923 532.194197 
L 201.520348 544.031721 
L 217.294899 555.869246 
L 238.726669 567.70677 
L 266.563907 579.544294 
L 301.59239 591.381818 
" clip-path="url(#p6b52d02b55)" style="fill: none; stroke: #000000; stroke-opacity: 0.5; stroke-width: 2; stroke-linecap: square"/>
   </g>
   <g id="line2d_8">
    <path d="M 365.961018 35.018182 
L 328.115719 46.855706 
L 298.710499 58.69323 
L 276.813285 70.530754 
L 261.535208 82.368279 
L 252.03061 94.205803 
L 247.497036 106.043327 
L 247.175241 117.880851 
L 250.349185 129.718375 
L 256.346037 141.555899 
L 264.536171 153.393424 
L 274.333171 165.230948 
L 285.193824 177.068472 
L 296.618128 188.905996 
L 308.149286 200.74352 
L 319.373709 212.581044 
L 329.921013 224.418569 
L 339.464025 236.256093 
L 347.718774 248.093617 
L 354.444501 259.931141 
L 359.443651 271.768665 
L 362.561877 283.60619 
L 363.688039 295.443714 
L 362.754204 307.281238 
L 359.735647 319.118762 
L 354.650848 330.956286 
L 347.561496 342.79381 
L 338.572486 354.631335 
L 327.831921 366.468859 
L 315.531111 378.306383 
L 301.904571 390.143907 
L 287.230026 401.981431 
L 271.828406 413.818956 
L 256.06385 425.65648 
L 240.343701 437.494004 
L 225.118513 449.331528 
L 210.882044 461.169052 
L 198.17126 473.006576 
L 187.566335 484.844101 
L 179.690649 496.681625 
L 175.210789 508.519149 
L 174.836549 520.356673 
L 179.320932 532.194197 
L 189.460145 544.031721 
L 206.093605 555.869246 
L 230.103934 567.70677 
L 262.416962 579.544294 
L 304.001726 591.381818 
" clip-path="url(#p6b52d02b55)" style="fill: none; stroke: #000000; stroke-opacity: 0.5; stroke-width: 2; stroke-linecap: square"/>
   </g>
   <g id="line2d_9">
    <path d="M 259.229256 35.018182 
L 243.045208 46.855706 
L 230.50134 58.69323 
L 221.151827 70.530754 
L 214.573977 82.368279 
L 210.36823 94.205803 
L 208.158162 106.043327 
L 207.590481 117.880851 
L 208.335029 129.718375 
L 210.084781 141.555899 
L 212.555846 153.393424 
L 215.487466 165.230948 
L 218.642018 177.068472 
L 221.80501 188.905996 
L 224.785086 200.74352 
L 227.414021 212.581044 
L 229.546727 224.418569 
L 231.061245 236.256093 
L 231.858754 248.093617 
L 231.863563 259.931141 
L 231.023116 271.768665 
L 229.307992 283.60619 
L 226.711899 295.443714 
L 223.251684 307.281238 
L 218.967324 319.118762 
L 213.92193 330.956286 
L 208.201748 342.79381 
L 201.916155 354.631335 
L 195.197664 366.468859 
L 188.20192 378.306383 
L 181.107702 390.143907 
L 174.116922 401.981431 
L 167.454627 413.818956 
L 161.368996 425.65648 
L 156.131342 437.494004 
L 152.036111 449.331528 
L 149.400883 461.169052 
L 148.566372 473.006576 
L 149.896424 484.844101 
L 153.778021 496.681625 
L 160.621276 508.519149 
L 170.859437 520.356673 
L 184.948884 532.194197 
L 203.369132 544.031721 
L 226.62283 555.869246 
L 255.235758 567.70677 
L 289.756832 579.544294 
L 330.758099 591.381818 
" clip-path="url(#p6b52d02b55)" style="fill: none; stroke: #000000; stroke-opacity: 0.5; stroke-width: 2; stroke-linecap: square"/>
   </g>
   <g id="line2d_10">
    <path d="M 218.380889 35.018182 
L 257.16007 46.855706 
L 287.333304 58.69323 
L 309.849704 70.530754 
L 325.613529 82.368279 
L 335.484182 94.205803 
L 340.276217 106.043327 
L 340.759332 117.880851 
L 337.658371 129.718375 
L 331.653327 141.555899 
L 323.379339 153.393424 
L 313.426691 165.230948 
L 302.340816 177.068472 
L 290.622291 188.905996 
L 278.726843 200.74352 
L 267.065344 212.581044 
L 256.00381 224.418569 
L 245.863409 236.256093 
L 236.920452 248.093617 
L 229.406397 259.931141 
L 223.50785 271.768665 
L 219.366563 283.60619 
L 217.079434 295.443714 
L 216.698509 307.281238 
L 218.230979 319.118762 
L 221.639183 330.956286 
L 226.840607 342.79381 
L 233.707882 354.631335 
L 242.068787 366.468859 
L 251.706248 378.306383 
L 262.358336 390.143907 
L 273.71827 401.981431 
L 285.434415 413.818956 
L 297.110284 425.65648 
L 308.304535 437.494004 
L 318.530973 449.331528 
L 327.25855 461.169052 
L 333.911366 473.006576 
L 337.868665 484.844101 
L 338.464839 496.681625 
L 334.989427 508.519149 
L 326.687115 520.356673 
L 312.757735 532.194197 
L 292.356264 544.031721 
L 264.59283 555.869246 
L 228.532703 567.70677 
L 183.196302 579.544294 
L 127.559194 591.381818 
" clip-path="url(#p6b52d02b55)" style="fill: none; stroke: #000000; stroke-opacity: 0.5; stroke-width: 2; stroke-linecap: square"/>
   </g>
   <g id="line2d_11">
    <path d="M 335.281237 35.018182 
L 339.098547 46.855706 
L 338.766279 58.69323 
L 334.950075 70.530754 
L 328.278048 82.368279 
L 319.340789 94.205803 
L 308.691365 106.043327 
L 296.845316 117.880851 
L 284.280661 129.718375 
L 271.437891 141.555899 
L 258.719974 153.393424 
L 246.492353 165.230948 
L 235.082948 177.068472 
L 224.782153 188.905996 
L 215.842836 200.74352 
L 208.480344 212.581044 
L 202.872497 224.418569 
L 199.159591 236.256093 
L 197.444397 248.093617 
L 197.792162 259.931141 
L 200.230609 271.768665 
L 204.749936 283.60619 
L 211.302815 295.443714 
L 219.804396 307.281238 
L 230.132303 319.118762 
L 242.126634 330.956286 
L 255.589967 342.79381 
L 270.28735 354.631335 
L 285.94631 366.468859 
L 302.256848 378.306383 
L 318.871441 390.143907 
L 335.405042 401.981431 
L 351.435079 413.818956 
L 366.501453 425.65648 
L 380.106545 437.494004 
L 391.715209 449.331528 
L 400.754773 461.169052 
L 406.615043 473.006576 
L 408.648299 484.844101 
L 406.169298 496.681625 
L 398.455271 508.519149 
L 384.745924 520.356673 
L 364.243439 532.194197 
L 336.112476 544.031721 
L 299.480166 555.869246 
L 253.436118 567.70677 
L 197.032417 579.544294 
L 129.283622 591.381818 
" clip-path="url(#p6b52d02b55)" style="fill: none; stroke: #000000; stroke-opacity: 0.5; stroke-width: 2; stroke-linecap: square"/>
   </g>
   <g id="line2d_12">
    <path d="M 127.485843 35.018182 
L 150.337964 46.855706 
L 172.544194 58.69323 
L 194.034134 70.530754 
L 214.742278 82.368279 
L 234.608014 94.205803 
L 253.57562 106.043327 
L 271.594269 117.880851 
L 288.618026 129.718375 
L 304.60585 141.555899 
L 319.521591 153.393424 
L 333.333994 165.230948 
L 346.016693 177.068472 
L 357.548221 188.905996 
L 367.911997 200.74352 
L 377.096338 212.581044 
L 385.094451 224.418569 
L 391.904437 236.256093 
L 397.529289 248.093617 
L 401.976894 259.931141 
L 405.260031 271.768665 
L 407.396372 283.60619 
L 408.408481 295.443714 
L 408.323817 307.281238 
L 407.17473 319.118762 
L 404.998463 330.956286 
L 401.837152 342.79381 
L 397.737826 354.631335 
L 392.752408 366.468859 
L 386.93771 378.306383 
L 380.355442 390.143907 
L 373.072202 401.981431 
L 365.159485 413.818956 
L 356.693675 425.65648 
L 347.756052 437.494004 
L 338.432788 449.331528 
L 328.814946 461.169052 
L 318.998483 473.006576 
L 309.084251 484.844101 
L 299.177991 496.681625 
L 289.390338 508.519149 
L 279.836823 520.356673 
L 270.637865 532.194197 
L 261.91878 544.031721 
L 253.809773 555.869246 
L 246.445945 567.70677 
L 239.967288 579.544294 
L 234.518687 591.381818 
" clip-path="url(#p6b52d02b55)" style="fill: none; stroke: #000000; stroke-opacity: 0.5; stroke-width: 2; stroke-linecap: square"/>
   </g>
   <g id="line2d_13">
    <path d="M 252.832606 35.018182 
L 291.951122 46.855706 
L 320.268084 58.69323 
L 339.017935 70.530754 
L 349.377497 82.368279 
L 352.465964 94.205803 
L 349.344908 106.043327 
L 341.01828 117.880851 
L 328.432402 129.718375 
L 312.475976 141.555899 
L 293.980079 153.393424 
L 273.718165 165.230948 
L 252.406064 177.068472 
L 230.701981 188.905996 
L 209.206498 200.74352 
L 188.462574 212.581044 
L 168.955544 224.418569 
L 151.113119 236.256093 
L 135.305385 248.093617 
L 121.844806 259.931141 
L 110.986222 271.768665 
L 102.926848 283.60619 
L 97.806278 295.443714 
L 95.706478 307.281238 
L 96.651794 319.118762 
L 100.608947 330.956286 
L 107.487033 342.79381 
L 117.137527 354.631335 
L 129.354277 366.468859 
L 143.87351 378.306383 
L 160.373827 390.143907 
L 178.476207 401.981431 
L 197.744005 413.818956 
L 217.682951 425.65648 
L 237.741152 437.494004 
L 257.309092 449.331528 
L 275.71963 461.169052 
L 292.248001 473.006576 
L 306.111819 484.844101 
L 316.471071 496.681625 
L 322.428122 508.519149 
L 323.027712 520.356673 
L 317.256959 532.194197 
L 304.045356 544.031721 
L 282.264772 555.869246 
L 250.729452 567.70677 
L 208.19602 579.544294 
L 153.363473 591.381818 
" clip-path="url(#p6b52d02b55)" style="fill: none; stroke: #000000; stroke-opacity: 0.5; stroke-width: 2; stroke-linecap: square"/>
   </g>
   <g id="line2d_14">
    <path d="M 220.425828 35.018182 
L 230.009054 46.855706 
L 237.381919 58.69323 
L 242.839429 70.530754 
L 246.659877 82.368279 
L 249.10484 94.205803 
L 250.419181 106.043327 
L 250.831049 117.880851 
L 250.551879 129.718375 
L 249.776393 141.555899 
L 248.682595 153.393424 
L 247.431778 165.230948 
L 246.168519 177.068472 
L 245.020683 188.905996 
L 244.099418 200.74352 
L 243.499159 212.581044 
L 243.297627 224.418569 
L 243.555828 236.256093 
L 244.318055 248.093617 
L 245.611884 259.931141 
L 247.448181 271.768665 
L 249.821093 283.60619 
L 252.708057 295.443714 
L 256.069792 307.281238 
L 259.850306 319.118762 
L 263.976891 330.956286 
L 268.360124 342.79381 
L 272.893869 354.631335 
L 277.455277 366.468859 
L 281.904781 378.306383 
L 286.086103 390.143907 
L 289.826249 401.981431 
L 292.935512 413.818956 
L 295.20747 425.65648 
L 296.418987 437.494004 
L 296.330212 449.331528 
L 294.684581 461.169052 
L 291.208814 473.006576 
L 285.612919 484.844101 
L 277.590187 496.681625 
L 266.817198 508.519149 
L 252.953814 520.356673 
L 235.643187 532.194197 
L 214.51175 544.031721 
L 189.169226 555.869246 
L 159.208621 567.70677 
L 124.206227 579.544294 
L 83.721624 591.381818 
" clip-path="url(#p6b52d02b55)" style="fill: none; stroke: #000000; stroke-opacity: 0.5; stroke-width: 2; stroke-linecap: square"/>
   </g>
   <g id="line2d_15">
    <path d="M 213.423293 35.018182 
L 253.18673 46.855706 
L 283.564454 58.69323 
L 305.568997 70.530754 
L 320.167807 82.368279 
L 328.283243 94.205803 
L 330.792582 106.043327 
L 328.528012 117.880851 
L 322.276636 129.718375 
L 312.780472 141.555899 
L 300.73645 153.393424 
L 286.796418 165.230948 
L 271.567133 177.068472 
L 255.61027 188.905996 
L 239.442417 200.74352 
L 223.535076 212.581044 
L 208.314662 224.418569 
L 194.162506 236.256093 
L 181.414852 248.093617 
L 170.362859 259.931141 
L 161.252598 271.768665 
L 154.285057 283.60619 
L 149.616136 295.443714 
L 147.35665 307.281238 
L 147.572328 319.118762 
L 150.283813 330.956286 
L 155.466662 342.79381 
L 163.051345 354.631335 
L 172.92325 366.468859 
L 184.922674 378.306383 
L 198.844831 390.143907 
L 214.439849 401.981431 
L 231.412771 413.818956 
L 249.423551 425.65648 
L 268.087059 437.494004 
L 286.97308 449.331528 
L 305.606312 461.169052 
L 323.466367 473.006576 
L 339.987771 484.844101 
L 354.559965 496.681625 
L 366.527304 508.519149 
L 375.189056 520.356673 
L 379.799404 532.194197 
L 379.567444 544.031721 
L 373.657189 555.869246 
L 361.187563 567.70677 
L 341.232405 579.544294 
L 312.820468 591.381818 
" clip-path="url(#p6b52d02b55)" style="fill: none; stroke: #000000; stroke-opacity: 0.5; stroke-width: 2; stroke-linecap: square"/>
   </g>
   <g id="line2d_16">
    <path d="M 359.629234 35.018182 
L 322.168571 46.855706 
L 289.012622 58.69323 
L 259.836314 70.530754 
L 234.326209 82.368279 
L 212.180499 94.205803 
L 193.10901 106.043327 
L 176.833202 117.880851 
L 163.086165 129.718375 
L 151.612625 141.555899 
L 142.168939 153.393424 
L 134.523098 165.230948 
L 128.454724 177.068472 
L 123.755074 188.905996 
L 120.227037 200.74352 
L 117.685134 212.581044 
L 115.95552 224.418569 
L 114.875982 236.256093 
L 114.295941 248.093617 
L 114.07645 259.931141 
L 114.090196 271.768665 
L 114.221496 283.60619 
L 114.366303 295.443714 
L 114.432202 307.281238 
L 114.338409 319.118762 
L 114.015776 330.956286 
L 113.406786 342.79381 
L 112.465553 354.631335 
L 111.157829 366.468859 
L 109.460993 378.306383 
L 107.364062 390.143907 
L 104.867681 401.981431 
L 101.984133 413.818956 
L 98.73733 425.65648 
L 95.162817 437.494004 
L 91.307775 449.331528 
L 87.231014 461.169052 
L 83.00298 473.006576 
L 78.70575 484.844101 
L 74.433033 496.681625 
L 70.290175 508.519149 
L 66.39415 520.356673 
L 62.873567 532.194197 
L 59.868669 544.031721 
L 57.53133 555.869246 
L 56.025057 567.70677 
L 55.524992 579.544294 
L 56.217906 591.381818 
" clip-path="url(#p6b52d02b55)" style="fill: none; stroke: #000000; stroke-opacity: 0.5; stroke-width: 2; stroke-linecap: square"/>
   </g>
   <g id="patch_3">
    <path d="M 7.2 629.2 
L 439.2 629.2 
" style="fill: none; stroke: #000000; stroke-width: 2; stroke-linejoin: miter; stroke-linecap: square"/>
   </g>
  </g>
 </g>
 <defs>
  <clipPath id="p6b52d02b55">
   <rect x="7.2" y="7.2" width="432" height="612"/>
  </clipPath>
 </defs>
</svg>
