<?xml version="1.0" encoding="utf-8" standalone="no"?>
<!DOCTYPE svg PUBLIC "-//W3C//DTD SVG 1.1//EN"
  "http://www.w3.org/Graphics/SVG/1.1/DTD/svg11.dtd">
<svg xmlns:xlink="http://www.w3.org/1999/xlink" width="446.4pt" height="563.129375pt" viewBox="0 0 446.4 563.129375" xmlns="http://www.w3.org/2000/svg" version="1.1">
 <metadata>
  <rdf:RDF xmlns:dc="http://purl.org/dc/elements/1.1/" xmlns:cc="http://creativecommons.org/ns#" xmlns:rdf="http://www.w3.org/1999/02/22-rdf-syntax-ns#">
   <cc:Work>
    <dc:type rdf:resource="http://purl.org/dc/dcmitype/StillImage"/>
    <dc:date>2024-07-01T11:48:32.886362</dc:date>
    <dc:format>image/svg+xml</dc:format>
    <dc:creator>
     <cc:Agent>
      <dc:title>Matplotlib v3.8.0, https://matplotlib.org/</dc:title>
     </cc:Agent>
    </dc:creator>
   </cc:Work>
  </rdf:RDF>
 </metadata>
 <defs>
  <style type="text/css">*{stroke-linejoin: round; stroke-linecap: butt}</style>
 </defs>
 <g id="figure_1">
  <g id="patch_1">
   <path d="M 0 563.129375 
L 446.4 563.129375 
L 446.4 0 
L 0 0 
z
" style="fill: #ffffff"/>
  </g>
  <g id="axes_1">
   <g id="patch_2">
    <path d="M 7.2 496.8 
L 439.2 496.8 
L 439.2 7.2 
L 7.2 7.2 
z
" style="fill: #ffffff"/>
   </g>
   <g id="PolyCollection_1">
    <defs>
     <path id="m75e87cfdc2" d="M 419.499989 -533.67483 
L 26.860128 -533.67483 
L 27.108677 -524.20481 
L 27.020571 -514.734791 
L 26.900481 -505.264772 
L 26.96478 -495.794752 
L 27.120302 -486.324733 
L 27.113962 -476.854713 
L 27.573844 -467.384694 
L 26.920865 -457.914675 
L 26.958575 -448.444655 
L 26.950476 -438.974636 
L 27.162785 -429.504617 
L 27.483628 -420.034597 
L 26.897315 -410.564578 
L 26.919348 -401.094559 
L 26.836364 -391.624539 
L 27.478732 -382.15452 
L 28.334979 -372.684501 
L 27.311575 -363.214481 
L 27.592049 -353.744462 
L 27.103993 -344.274443 
L 26.957749 -334.804423 
L 26.919063 -325.334404 
L 27.702389 -315.864385 
L 27.373912 -306.394365 
L 28.142782 -296.924346 
L 26.981679 -287.454327 
L 27.31666 -277.984307 
L 27.872138 -268.514288 
L 27.682039 -259.044269 
L 27.265956 -249.574249 
L 26.908401 -240.10423 
L 27.265251 -230.634211 
L 27.461199 -221.164191 
L 27.470529 -211.694172 
L 27.124071 -202.224153 
L 27.40585 -192.754133 
L 26.888262 -183.284114 
L 27.034427 -173.814095 
L 27.094944 -164.344075 
L 27.092146 -154.874056 
L 27.518002 -145.404037 
L 27.229879 -135.934017 
L 27.41081 -126.463998 
L 27.218826 -116.993978 
L 27.788158 -107.523959 
L 28.31812 -98.05394 
L 26.883566 -88.58392 
L 419.535072 -88.58392 
L 419.535072 -88.58392 
L 419.371013 -98.05394 
L 418.824127 -107.523959 
L 419.450777 -116.993978 
L 419.104278 -126.463998 
L 418.983982 -135.934017 
L 418.379034 -145.404037 
L 419.563636 -154.874056 
L 419.375077 -164.344075 
L 419.191964 -173.814095 
L 419.197399 -183.284114 
L 419.416986 -192.754133 
L 418.884022 -202.224153 
L 419.097219 -211.694172 
L 419.471242 -221.164191 
L 419.410007 -230.634211 
L 419.233529 -240.10423 
L 419.040955 -249.574249 
L 419.107608 -259.044269 
L 418.980077 -268.514288 
L 418.33212 -277.984307 
L 419.238041 -287.454327 
L 418.769825 -296.924346 
L 419.557011 -306.394365 
L 419.553363 -315.864385 
L 418.686787 -325.334404 
L 417.712581 -334.804423 
L 419.257581 -344.274443 
L 419.465152 -353.744462 
L 419.191645 -363.214481 
L 419.523092 -372.684501 
L 419.302293 -382.15452 
L 419.34848 -391.624539 
L 419.079195 -401.094559 
L 419.102564 -410.564578 
L 419.53886 -420.034597 
L 419.102263 -429.504617 
L 419.472451 -438.974636 
L 419.093978 -448.444655 
L 419.276753 -457.914675 
L 418.559039 -467.384694 
L 417.948938 -476.854713 
L 419.138108 -486.324733 
L 419.307296 -495.794752 
L 418.266197 -505.264772 
L 419.529183 -514.734791 
L 419.23116 -524.20481 
L 419.499989 -533.67483 
z
" style="stroke: #228b22; stroke-opacity: 0.4"/>
    </defs>
    <g clip-path="url(#pcb0a6c40a7)">
     <use xlink:href="#m75e87cfdc2" x="0" y="563.129375" style="fill: #228b22; fill-opacity: 0.4; stroke: #228b22; stroke-opacity: 0.4"/>
    </g>
   </g>
   <g id="matplotlib.axis_1">
    <g id="xtick_1">
     <g id="line2d_1">
      <defs>
       <path id="m7e98788b0f" d="M 0 0 
L 0 3.5 
" style="stroke: #000000; stroke-width: 1.5"/>
      </defs>
      <g>
       <use xlink:href="#m7e98788b0f" x="26.831804" y="506.8" style="stroke: #000000; stroke-width: 1.5"/>
      </g>
     </g>
     <g id="text_1">
      <!-- 0 -->
      <g transform="translate(22.378054 524.437812) scale(0.14 -0.14)">
       <defs>
        <path id="DejaVuSans-30" d="M 2034 4250 
Q 1547 4250 1301 3770 
Q 1056 3291 1056 2328 
Q 1056 1369 1301 889 
Q 1547 409 2034 409 
Q 2525 409 2770 889 
Q 3016 1369 3016 2328 
Q 3016 3291 2770 3770 
Q 2525 4250 2034 4250 
z
M 2034 4750 
Q 2819 4750 3233 4129 
Q 3647 3509 3647 2328 
Q 3647 1150 3233 529 
Q 2819 -91 2034 -91 
Q 1250 -91 836 529 
Q 422 1150 422 2328 
Q 422 3509 836 4129 
Q 1250 4750 2034 4750 
z
" transform="scale(0.015625)"/>
       </defs>
       <use xlink:href="#DejaVuSans-30"/>
      </g>
     </g>
    </g>
    <g id="xtick_2">
     <g id="line2d_2">
      <g>
       <use xlink:href="#m7e98788b0f" x="105.378216" y="506.8" style="stroke: #000000; stroke-width: 1.5"/>
      </g>
     </g>
     <g id="text_2">
      <!-- 200 -->
      <g transform="translate(92.016966 524.437812) scale(0.14 -0.14)">
       <defs>
        <path id="DejaVuSans-32" d="M 1228 531 
L 3431 531 
L 3431 0 
L 469 0 
L 469 531 
Q 828 903 1448 1529 
Q 2069 2156 2228 2338 
Q 2531 2678 2651 2914 
Q 2772 3150 2772 3378 
Q 2772 3750 2511 3984 
Q 2250 4219 1831 4219 
Q 1534 4219 1204 4116 
Q 875 4013 500 3803 
L 500 4441 
Q 881 4594 1212 4672 
Q 1544 4750 1819 4750 
Q 2544 4750 2975 4387 
Q 3406 4025 3406 3419 
Q 3406 3131 3298 2873 
Q 3191 2616 2906 2266 
Q 2828 2175 2409 1742 
Q 1991 1309 1228 531 
z
" transform="scale(0.015625)"/>
       </defs>
       <use xlink:href="#DejaVuSans-32"/>
       <use xlink:href="#DejaVuSans-30" x="63.623047"/>
       <use xlink:href="#DejaVuSans-30" x="127.246094"/>
      </g>
     </g>
    </g>
    <g id="xtick_3">
     <g id="line2d_3">
      <g>
       <use xlink:href="#m7e98788b0f" x="183.924628" y="506.8" style="stroke: #000000; stroke-width: 1.5"/>
      </g>
     </g>
     <g id="text_3">
      <!-- 400 -->
      <g transform="translate(170.563378 524.437812) scale(0.14 -0.14)">
       <defs>
        <path id="DejaVuSans-34" d="M 2419 4116 
L 825 1625 
L 2419 1625 
L 2419 4116 
z
M 2253 4666 
L 3047 4666 
L 3047 1625 
L 3713 1625 
L 3713 1100 
L 3047 1100 
L 3047 0 
L 2419 0 
L 2419 1100 
L 313 1100 
L 313 1709 
L 2253 4666 
z
" transform="scale(0.015625)"/>
       </defs>
       <use xlink:href="#DejaVuSans-34"/>
       <use xlink:href="#DejaVuSans-30" x="63.623047"/>
       <use xlink:href="#DejaVuSans-30" x="127.246094"/>
      </g>
     </g>
    </g>
    <g id="xtick_4">
     <g id="line2d_4">
      <g>
       <use xlink:href="#m7e98788b0f" x="262.471041" y="506.8" style="stroke: #000000; stroke-width: 1.5"/>
      </g>
     </g>
     <g id="text_4">
      <!-- 600 -->
      <g transform="translate(249.109791 524.437812) scale(0.14 -0.14)">
       <defs>
        <path id="DejaVuSans-36" d="M 2113 2584 
Q 1688 2584 1439 2293 
Q 1191 2003 1191 1497 
Q 1191 994 1439 701 
Q 1688 409 2113 409 
Q 2538 409 2786 701 
Q 3034 994 3034 1497 
Q 3034 2003 2786 2293 
Q 2538 2584 2113 2584 
z
M 3366 4563 
L 3366 3988 
Q 3128 4100 2886 4159 
Q 2644 4219 2406 4219 
Q 1781 4219 1451 3797 
Q 1122 3375 1075 2522 
Q 1259 2794 1537 2939 
Q 1816 3084 2150 3084 
Q 2853 3084 3261 2657 
Q 3669 2231 3669 1497 
Q 3669 778 3244 343 
Q 2819 -91 2113 -91 
Q 1303 -91 875 529 
Q 447 1150 447 2328 
Q 447 3434 972 4092 
Q 1497 4750 2381 4750 
Q 2619 4750 2861 4703 
Q 3103 4656 3366 4563 
z
" transform="scale(0.015625)"/>
       </defs>
       <use xlink:href="#DejaVuSans-36"/>
       <use xlink:href="#DejaVuSans-30" x="63.623047"/>
       <use xlink:href="#DejaVuSans-30" x="127.246094"/>
      </g>
     </g>
    </g>
    <g id="xtick_5">
     <g id="line2d_5">
      <g>
       <use xlink:href="#m7e98788b0f" x="341.017453" y="506.8" style="stroke: #000000; stroke-width: 1.5"/>
      </g>
     </g>
     <g id="text_5">
      <!-- 800 -->
      <g transform="translate(327.656203 524.437812) scale(0.14 -0.14)">
       <defs>
        <path id="DejaVuSans-38" d="M 2034 2216 
Q 1584 2216 1326 1975 
Q 1069 1734 1069 1313 
Q 1069 891 1326 650 
Q 1584 409 2034 409 
Q 2484 409 2743 651 
Q 3003 894 3003 1313 
Q 3003 1734 2745 1975 
Q 2488 2216 2034 2216 
z
M 1403 2484 
Q 997 2584 770 2862 
Q 544 3141 544 3541 
Q 544 4100 942 4425 
Q 1341 4750 2034 4750 
Q 2731 4750 3128 4425 
Q 3525 4100 3525 3541 
Q 3525 3141 3298 2862 
Q 3072 2584 2669 2484 
Q 3125 2378 3379 2068 
Q 3634 1759 3634 1313 
Q 3634 634 3220 271 
Q 2806 -91 2034 -91 
Q 1263 -91 848 271 
Q 434 634 434 1313 
Q 434 1759 690 2068 
Q 947 2378 1403 2484 
z
M 1172 3481 
Q 1172 3119 1398 2916 
Q 1625 2713 2034 2713 
Q 2441 2713 2670 2916 
Q 2900 3119 2900 3481 
Q 2900 3844 2670 4047 
Q 2441 4250 2034 4250 
Q 1625 4250 1398 4047 
Q 1172 3844 1172 3481 
z
" transform="scale(0.015625)"/>
       </defs>
       <use xlink:href="#DejaVuSans-38"/>
       <use xlink:href="#DejaVuSans-30" x="63.623047"/>
       <use xlink:href="#DejaVuSans-30" x="127.246094"/>
      </g>
     </g>
    </g>
    <g id="xtick_6">
     <g id="line2d_6">
      <g>
       <use xlink:href="#m7e98788b0f" x="419.563865" y="506.8" style="stroke: #000000; stroke-width: 1.5"/>
      </g>
     </g>
     <g id="text_6">
      <!-- 1000 -->
      <g transform="translate(401.748865 524.437812) scale(0.14 -0.14)">
       <defs>
        <path id="DejaVuSans-31" d="M 794 531 
L 1825 531 
L 1825 4091 
L 703 3866 
L 703 4441 
L 1819 4666 
L 2450 4666 
L 2450 531 
L 3481 531 
L 3481 0 
L 794 0 
L 794 531 
z
" transform="scale(0.015625)"/>
       </defs>
       <use xlink:href="#DejaVuSans-31"/>
       <use xlink:href="#DejaVuSans-30" x="63.623047"/>
       <use xlink:href="#DejaVuSans-30" x="127.246094"/>
       <use xlink:href="#DejaVuSans-30" x="190.869141"/>
      </g>
     </g>
    </g>
    <g id="text_7">
     <!-- Resistivity  [$\Omega m$] -->
     <g transform="translate(165.03 552.989375) scale(0.14 -0.14)">
      <defs>
       <path id="DejaVuSans-52" d="M 2841 2188 
Q 3044 2119 3236 1894 
Q 3428 1669 3622 1275 
L 4263 0 
L 3584 0 
L 2988 1197 
Q 2756 1666 2539 1819 
Q 2322 1972 1947 1972 
L 1259 1972 
L 1259 0 
L 628 0 
L 628 4666 
L 2053 4666 
Q 2853 4666 3247 4331 
Q 3641 3997 3641 3322 
Q 3641 2881 3436 2590 
Q 3231 2300 2841 2188 
z
M 1259 4147 
L 1259 2491 
L 2053 2491 
Q 2509 2491 2742 2702 
Q 2975 2913 2975 3322 
Q 2975 3731 2742 3939 
Q 2509 4147 2053 4147 
L 1259 4147 
z
" transform="scale(0.015625)"/>
       <path id="DejaVuSans-65" d="M 3597 1894 
L 3597 1613 
L 953 1613 
Q 991 1019 1311 708 
Q 1631 397 2203 397 
Q 2534 397 2845 478 
Q 3156 559 3463 722 
L 3463 178 
Q 3153 47 2828 -22 
Q 2503 -91 2169 -91 
Q 1331 -91 842 396 
Q 353 884 353 1716 
Q 353 2575 817 3079 
Q 1281 3584 2069 3584 
Q 2775 3584 3186 3129 
Q 3597 2675 3597 1894 
z
M 3022 2063 
Q 3016 2534 2758 2815 
Q 2500 3097 2075 3097 
Q 1594 3097 1305 2825 
Q 1016 2553 972 2059 
L 3022 2063 
z
" transform="scale(0.015625)"/>
       <path id="DejaVuSans-73" d="M 2834 3397 
L 2834 2853 
Q 2591 2978 2328 3040 
Q 2066 3103 1784 3103 
Q 1356 3103 1142 2972 
Q 928 2841 928 2578 
Q 928 2378 1081 2264 
Q 1234 2150 1697 2047 
L 1894 2003 
Q 2506 1872 2764 1633 
Q 3022 1394 3022 966 
Q 3022 478 2636 193 
Q 2250 -91 1575 -91 
Q 1294 -91 989 -36 
Q 684 19 347 128 
L 347 722 
Q 666 556 975 473 
Q 1284 391 1588 391 
Q 1994 391 2212 530 
Q 2431 669 2431 922 
Q 2431 1156 2273 1281 
Q 2116 1406 1581 1522 
L 1381 1569 
Q 847 1681 609 1914 
Q 372 2147 372 2553 
Q 372 3047 722 3315 
Q 1072 3584 1716 3584 
Q 2034 3584 2315 3537 
Q 2597 3491 2834 3397 
z
" transform="scale(0.015625)"/>
       <path id="DejaVuSans-69" d="M 603 3500 
L 1178 3500 
L 1178 0 
L 603 0 
L 603 3500 
z
M 603 4863 
L 1178 4863 
L 1178 4134 
L 603 4134 
L 603 4863 
z
" transform="scale(0.015625)"/>
       <path id="DejaVuSans-74" d="M 1172 4494 
L 1172 3500 
L 2356 3500 
L 2356 3053 
L 1172 3053 
L 1172 1153 
Q 1172 725 1289 603 
Q 1406 481 1766 481 
L 2356 481 
L 2356 0 
L 1766 0 
Q 1100 0 847 248 
Q 594 497 594 1153 
L 594 3053 
L 172 3053 
L 172 3500 
L 594 3500 
L 594 4494 
L 1172 4494 
z
" transform="scale(0.015625)"/>
       <path id="DejaVuSans-76" d="M 191 3500 
L 800 3500 
L 1894 563 
L 2988 3500 
L 3597 3500 
L 2284 0 
L 1503 0 
L 191 3500 
z
" transform="scale(0.015625)"/>
       <path id="DejaVuSans-79" d="M 2059 -325 
Q 1816 -950 1584 -1140 
Q 1353 -1331 966 -1331 
L 506 -1331 
L 506 -850 
L 844 -850 
Q 1081 -850 1212 -737 
Q 1344 -625 1503 -206 
L 1606 56 
L 191 3500 
L 800 3500 
L 1894 763 
L 2988 3500 
L 3597 3500 
L 2059 -325 
z
" transform="scale(0.015625)"/>
       <path id="DejaVuSans-20" transform="scale(0.015625)"/>
       <path id="DejaVuSans-5b" d="M 550 4863 
L 1875 4863 
L 1875 4416 
L 1125 4416 
L 1125 -397 
L 1875 -397 
L 1875 -844 
L 550 -844 
L 550 4863 
z
" transform="scale(0.015625)"/>
       <path id="DejaVuSans-3a9" d="M 4647 556 
L 4647 0 
L 2772 0 
L 2772 556 
Q 3325 859 3634 1378 
Q 3944 1897 3944 2528 
Q 3944 3278 3531 3731 
Q 3119 4184 2444 4184 
Q 1769 4184 1355 3729 
Q 941 3275 941 2528 
Q 941 1897 1250 1378 
Q 1563 859 2119 556 
L 2119 0 
L 244 0 
L 244 556 
L 1241 556 
Q 747 991 519 1456 
Q 294 1922 294 2497 
Q 294 3491 894 4106 
Q 1491 4722 2444 4722 
Q 3391 4722 3994 4106 
Q 4594 3494 4594 2528 
Q 4594 1922 4372 1459 
Q 4150 997 3647 556 
L 4647 556 
z
" transform="scale(0.015625)"/>
       <path id="DejaVuSans-6d" d="M 3328 2828 
Q 3544 3216 3844 3400 
Q 4144 3584 4550 3584 
Q 5097 3584 5394 3201 
Q 5691 2819 5691 2113 
L 5691 0 
L 5113 0 
L 5113 2094 
Q 5113 2597 4934 2840 
Q 4756 3084 4391 3084 
Q 3944 3084 3684 2787 
Q 3425 2491 3425 1978 
L 3425 0 
L 2847 0 
L 2847 2094 
Q 2847 2600 2669 2842 
Q 2491 3084 2119 3084 
Q 1678 3084 1418 2786 
Q 1159 2488 1159 1978 
L 1159 0 
L 581 0 
L 581 3500 
L 1159 3500 
L 1159 2956 
Q 1356 3278 1631 3431 
Q 1906 3584 2284 3584 
Q 2666 3584 2933 3390 
Q 3200 3197 3328 2828 
z
" transform="scale(0.015625)"/>
       <path id="DejaVuSans-5d" d="M 1947 4863 
L 1947 -844 
L 622 -844 
L 622 -397 
L 1369 -397 
L 1369 4416 
L 622 4416 
L 622 4863 
L 1947 4863 
z
" transform="scale(0.015625)"/>
      </defs>
      <use xlink:href="#DejaVuSans-52" transform="translate(0 0.015625)"/>
      <use xlink:href="#DejaVuSans-65" transform="translate(69.482422 0.015625)"/>
      <use xlink:href="#DejaVuSans-73" transform="translate(131.005859 0.015625)"/>
      <use xlink:href="#DejaVuSans-69" transform="translate(183.105469 0.015625)"/>
      <use xlink:href="#DejaVuSans-73" transform="translate(210.888672 0.015625)"/>
      <use xlink:href="#DejaVuSans-74" transform="translate(262.988281 0.015625)"/>
      <use xlink:href="#DejaVuSans-69" transform="translate(302.197266 0.015625)"/>
      <use xlink:href="#DejaVuSans-76" transform="translate(329.980469 0.015625)"/>
      <use xlink:href="#DejaVuSans-69" transform="translate(389.160156 0.015625)"/>
      <use xlink:href="#DejaVuSans-74" transform="translate(416.943359 0.015625)"/>
      <use xlink:href="#DejaVuSans-79" transform="translate(456.152344 0.015625)"/>
      <use xlink:href="#DejaVuSans-20" transform="translate(515.332031 0.015625)"/>
      <use xlink:href="#DejaVuSans-20" transform="translate(547.119141 0.015625)"/>
      <use xlink:href="#DejaVuSans-5b" transform="translate(578.90625 0.015625)"/>
      <use xlink:href="#DejaVuSans-3a9" transform="translate(617.919922 0.015625)"/>
      <use xlink:href="#DejaVuSans-6d" transform="translate(694.335938 0.015625)"/>
      <use xlink:href="#DejaVuSans-5d" transform="translate(791.748047 0.015625)"/>
     </g>
    </g>
   </g>
   <g id="line2d_7">
    <path d="M 381.702753 29.454545 
L 329.503396 38.924565 
L 286.290317 48.394584 
L 251.19796 57.864603 
L 223.398298 67.334623 
L 202.100834 76.804642 
L 186.552603 86.274662 
L 176.038169 95.744681 
L 169.879627 105.2147 
L 167.436603 114.68472 
L 168.106251 124.154739 
L 171.323257 133.624758 
L 176.559838 143.094778 
L 183.32574 152.564797 
L 191.168239 162.034816 
L 199.672144 171.504836 
L 208.45979 180.974855 
L 217.191047 190.444874 
L 225.563311 199.914894 
L 233.311512 209.384913 
L 240.208108 218.854932 
L 246.063088 228.324952 
L 250.723971 237.794971 
L 254.075808 247.26499 
L 256.041178 256.73501 
L 256.580192 266.205029 
L 255.69049 275.675048 
L 253.407244 285.145068 
L 249.803155 294.615087 
L 244.988453 304.085106 
L 239.110903 313.555126 
L 232.355795 323.025145 
L 224.945952 332.495164 
L 217.141728 341.965184 
L 209.241006 351.435203 
L 201.5792 360.905222 
L 194.529252 370.375242 
L 188.501639 379.845261 
L 183.944363 389.31528 
L 181.342961 398.7853 
L 181.220498 408.255319 
L 184.137569 417.725338 
L 190.6923 427.195358 
L 201.520348 436.665377 
L 217.294899 446.135397 
L 238.726669 455.605416 
L 266.563907 465.075435 
L 301.59239 474.545455 
" clip-path="url(#pcb0a6c40a7)" style="fill: none; stroke: #000000; stroke-opacity: 0.5; stroke-width: 2; stroke-linecap: square"/>
   </g>
   <g id="line2d_8">
    <path d="M 365.961018 29.454545 
L 328.115719 38.924565 
L 298.710499 48.394584 
L 276.813285 57.864603 
L 261.535208 67.334623 
L 252.03061 76.804642 
L 247.497036 86.274662 
L 247.175241 95.744681 
L 250.349185 105.2147 
L 256.346037 114.68472 
L 264.536171 124.154739 
L 274.333171 133.624758 
L 285.193824 143.094778 
L 296.618128 152.564797 
L 308.149286 162.034816 
L 319.373709 171.504836 
L 329.921013 180.974855 
L 339.464025 190.444874 
L 347.718774 199.914894 
L 354.444501 209.384913 
L 359.443651 218.854932 
L 362.561877 228.324952 
L 363.688039 237.794971 
L 362.754204 247.26499 
L 359.735647 256.73501 
L 354.650848 266.205029 
L 347.561496 275.675048 
L 338.572486 285.145068 
L 327.831921 294.615087 
L 315.531111 304.085106 
L 301.904571 313.555126 
L 287.230026 323.025145 
L 271.828406 332.495164 
L 256.06385 341.965184 
L 240.343701 351.435203 
L 225.118513 360.905222 
L 210.882044 370.375242 
L 198.17126 379.845261 
L 187.566335 389.31528 
L 179.690649 398.7853 
L 175.210789 408.255319 
L 174.836549 417.725338 
L 179.320932 427.195358 
L 189.460145 436.665377 
L 206.093605 446.135397 
L 230.103934 455.605416 
L 262.416962 465.075435 
L 304.001726 474.545455 
" clip-path="url(#pcb0a6c40a7)" style="fill: none; stroke: #000000; stroke-opacity: 0.5; stroke-width: 2; stroke-linecap: square"/>
   </g>
   <g id="line2d_9">
    <path d="M 259.229256 29.454545 
L 243.045208 38.924565 
L 230.50134 48.394584 
L 221.151827 57.864603 
L 214.573977 67.334623 
L 210.36823 76.804642 
L 208.158162 86.274662 
L 207.590481 95.744681 
L 208.335029 105.2147 
L 210.084781 114.68472 
L 212.555846 124.154739 
L 215.487466 133.624758 
L 218.642018 143.094778 
L 221.80501 152.564797 
L 224.785086 162.034816 
L 227.414021 171.504836 
L 229.546727 180.974855 
L 231.061245 190.444874 
L 231.858754 199.914894 
L 231.863563 209.384913 
L 231.023116 218.854932 
L 229.307992 228.324952 
L 226.711899 237.794971 
L 223.251684 247.26499 
L 218.967324 256.73501 
L 213.92193 266.205029 
L 208.201748 275.675048 
L 201.916155 285.145068 
L 195.197664 294.615087 
L 188.20192 304.085106 
L 181.107702 313.555126 
L 174.116922 323.025145 
L 167.454627 332.495164 
L 161.368996 341.965184 
L 156.131342 351.435203 
L 152.036111 360.905222 
L 149.400883 370.375242 
L 148.566372 379.845261 
L 149.896424 389.31528 
L 153.778021 398.7853 
L 160.621276 408.255319 
L 170.859437 417.725338 
L 184.948884 427.195358 
L 203.369132 436.665377 
L 226.62283 446.135397 
L 255.235758 455.605416 
L 289.756832 465.075435 
L 330.758099 474.545455 
" clip-path="url(#pcb0a6c40a7)" style="fill: none; stroke: #000000; stroke-opacity: 0.5; stroke-width: 2; stroke-linecap: square"/>
   </g>
   <g id="line2d_10">
    <path d="M 218.380889 29.454545 
L 257.16007 38.924565 
L 287.333304 48.394584 
L 309.849704 57.864603 
L 325.613529 67.334623 
L 335.484182 76.804642 
L 340.276217 86.274662 
L 340.759332 95.744681 
L 337.658371 105.2147 
L 331.653327 114.68472 
L 323.379339 124.154739 
L 313.426691 133.624758 
L 302.340816 143.094778 
L 290.622291 152.564797 
L 278.726843 162.034816 
L 267.065344 171.504836 
L 256.00381 180.974855 
L 245.863409 190.444874 
L 236.920452 199.914894 
L 229.406397 209.384913 
L 223.50785 218.854932 
L 219.366563 228.324952 
L 217.079434 237.794971 
L 216.698509 247.26499 
L 218.230979 256.73501 
L 221.639183 266.205029 
L 226.840607 275.675048 
L 233.707882 285.145068 
L 242.068787 294.615087 
L 251.706248 304.085106 
L 262.358336 313.555126 
L 273.71827 323.025145 
L 285.434415 332.495164 
L 297.110284 341.965184 
L 308.304535 351.435203 
L 318.530973 360.905222 
L 327.25855 370.375242 
L 333.911366 379.845261 
L 337.868665 389.31528 
L 338.464839 398.7853 
L 334.989427 408.255319 
L 326.687115 417.725338 
L 312.757735 427.195358 
L 292.356264 436.665377 
L 264.59283 446.135397 
L 228.532703 455.605416 
L 183.196302 465.075435 
L 127.559194 474.545455 
" clip-path="url(#pcb0a6c40a7)" style="fill: none; stroke: #000000; stroke-opacity: 0.5; stroke-width: 2; stroke-linecap: square"/>
   </g>
   <g id="line2d_11">
    <path d="M 335.281237 29.454545 
L 339.098547 38.924565 
L 338.766279 48.394584 
L 334.950075 57.864603 
L 328.278048 67.334623 
L 319.340789 76.804642 
L 308.691365 86.274662 
L 296.845316 95.744681 
L 284.280661 105.2147 
L 271.437891 114.68472 
L 258.719974 124.154739 
L 246.492353 133.624758 
L 235.082948 143.094778 
L 224.782153 152.564797 
L 215.842836 162.034816 
L 208.480344 171.504836 
L 202.872497 180.974855 
L 199.159591 190.444874 
L 197.444397 199.914894 
L 197.792162 209.384913 
L 200.230609 218.854932 
L 204.749936 228.324952 
L 211.302815 237.794971 
L 219.804396 247.26499 
L 230.132303 256.73501 
L 242.126634 266.205029 
L 255.589967 275.675048 
L 270.28735 285.145068 
L 285.94631 294.615087 
L 302.256848 304.085106 
L 318.871441 313.555126 
L 335.405042 323.025145 
L 351.435079 332.495164 
L 366.501453 341.965184 
L 380.106545 351.435203 
L 391.715209 360.905222 
L 400.754773 370.375242 
L 406.615043 379.845261 
L 408.648299 389.31528 
L 406.169298 398.7853 
L 398.455271 408.255319 
L 384.745924 417.725338 
L 364.243439 427.195358 
L 336.112476 436.665377 
L 299.480166 446.135397 
L 253.436118 455.605416 
L 197.032417 465.075435 
L 129.283622 474.545455 
" clip-path="url(#pcb0a6c40a7)" style="fill: none; stroke: #000000; stroke-opacity: 0.5; stroke-width: 2; stroke-linecap: square"/>
   </g>
   <g id="line2d_12">
    <path d="M 127.485843 29.454545 
L 150.337964 38.924565 
L 172.544194 48.394584 
L 194.034134 57.864603 
L 214.742278 67.334623 
L 234.608014 76.804642 
L 253.57562 86.274662 
L 271.594269 95.744681 
L 288.618026 105.2147 
L 304.60585 114.68472 
L 319.521591 124.154739 
L 333.333994 133.624758 
L 346.016693 143.094778 
L 357.548221 152.564797 
L 367.911997 162.034816 
L 377.096338 171.504836 
L 385.094451 180.974855 
L 391.904437 190.444874 
L 397.529289 199.914894 
L 401.976894 209.384913 
L 405.260031 218.854932 
L 407.396372 228.324952 
L 408.408481 237.794971 
L 408.323817 247.26499 
L 407.17473 256.73501 
L 404.998463 266.205029 
L 401.837152 275.675048 
L 397.737826 285.145068 
L 392.752408 294.615087 
L 386.93771 304.085106 
L 380.355442 313.555126 
L 373.072202 323.025145 
L 365.159485 332.495164 
L 356.693675 341.965184 
L 347.756052 351.435203 
L 338.432788 360.905222 
L 328.814946 370.375242 
L 318.998483 379.845261 
L 309.084251 389.31528 
L 299.177991 398.7853 
L 289.390338 408.255319 
L 279.836823 417.725338 
L 270.637865 427.195358 
L 261.91878 436.665377 
L 253.809773 446.135397 
L 246.445945 455.605416 
L 239.967288 465.075435 
L 234.518687 474.545455 
" clip-path="url(#pcb0a6c40a7)" style="fill: none; stroke: #000000; stroke-opacity: 0.5; stroke-width: 2; stroke-linecap: square"/>
   </g>
   <g id="line2d_13">
    <path d="M 252.832606 29.454545 
L 291.951122 38.924565 
L 320.268084 48.394584 
L 339.017935 57.864603 
L 349.377497 67.334623 
L 352.465964 76.804642 
L 349.344908 86.274662 
L 341.01828 95.744681 
L 328.432402 105.2147 
L 312.475976 114.68472 
L 293.980079 124.154739 
L 273.718165 133.624758 
L 252.406064 143.094778 
L 230.701981 152.564797 
L 209.206498 162.034816 
L 188.462574 171.504836 
L 168.955544 180.974855 
L 151.113119 190.444874 
L 135.305385 199.914894 
L 121.844806 209.384913 
L 110.986222 218.854932 
L 102.926848 228.324952 
L 97.806278 237.794971 
L 95.706478 247.26499 
L 96.651794 256.73501 
L 100.608947 266.205029 
L 107.487033 275.675048 
L 117.137527 285.145068 
L 129.354277 294.615087 
L 143.87351 304.085106 
L 160.373827 313.555126 
L 178.476207 323.025145 
L 197.744005 332.495164 
L 217.682951 341.965184 
L 237.741152 351.435203 
L 257.309092 360.905222 
L 275.71963 370.375242 
L 292.248001 379.845261 
L 306.111819 389.31528 
L 316.471071 398.7853 
L 322.428122 408.255319 
L 323.027712 417.725338 
L 317.256959 427.195358 
L 304.045356 436.665377 
L 282.264772 446.135397 
L 250.729452 455.605416 
L 208.19602 465.075435 
L 153.363473 474.545455 
" clip-path="url(#pcb0a6c40a7)" style="fill: none; stroke: #000000; stroke-opacity: 0.5; stroke-width: 2; stroke-linecap: square"/>
   </g>
   <g id="line2d_14">
    <path d="M 220.425828 29.454545 
L 230.009054 38.924565 
L 237.381919 48.394584 
L 242.839429 57.864603 
L 246.659877 67.334623 
L 249.10484 76.804642 
L 250.419181 86.274662 
L 250.831049 95.744681 
L 250.551879 105.2147 
L 249.776393 114.68472 
L 248.682595 124.154739 
L 247.431778 133.624758 
L 246.168519 143.094778 
L 245.020683 152.564797 
L 244.099418 162.034816 
L 243.499159 171.504836 
L 243.297627 180.974855 
L 243.555828 190.444874 
L 244.318055 199.914894 
L 245.611884 209.384913 
L 247.448181 218.854932 
L 249.821093 228.324952 
L 252.708057 237.794971 
L 256.069792 247.26499 
L 259.850306 256.73501 
L 263.976891 266.205029 
L 268.360124 275.675048 
L 272.893869 285.145068 
L 277.455277 294.615087 
L 281.904781 304.085106 
L 286.086103 313.555126 
L 289.826249 323.025145 
L 292.935512 332.495164 
L 295.20747 341.965184 
L 296.418987 351.435203 
L 296.330212 360.905222 
L 294.684581 370.375242 
L 291.208814 379.845261 
L 285.612919 389.31528 
L 277.590187 398.7853 
L 266.817198 408.255319 
L 252.953814 417.725338 
L 235.643187 427.195358 
L 214.51175 436.665377 
L 189.169226 446.135397 
L 159.208621 455.605416 
L 124.206227 465.075435 
L 83.721624 474.545455 
" clip-path="url(#pcb0a6c40a7)" style="fill: none; stroke: #000000; stroke-opacity: 0.5; stroke-width: 2; stroke-linecap: square"/>
   </g>
   <g id="line2d_15">
    <path d="M 213.423293 29.454545 
L 253.18673 38.924565 
L 283.564454 48.394584 
L 305.568997 57.864603 
L 320.167807 67.334623 
L 328.283243 76.804642 
L 330.792582 86.274662 
L 328.528012 95.744681 
L 322.276636 105.2147 
L 312.780472 114.68472 
L 300.73645 124.154739 
L 286.796418 133.624758 
L 271.567133 143.094778 
L 255.61027 152.564797 
L 239.442417 162.034816 
L 223.535076 171.504836 
L 208.314662 180.974855 
L 194.162506 190.444874 
L 181.414852 199.914894 
L 170.362859 209.384913 
L 161.252598 218.854932 
L 154.285057 228.324952 
L 149.616136 237.794971 
L 147.35665 247.26499 
L 147.572328 256.73501 
L 150.283813 266.205029 
L 155.466662 275.675048 
L 163.051345 285.145068 
L 172.92325 294.615087 
L 184.922674 304.085106 
L 198.844831 313.555126 
L 214.439849 323.025145 
L 231.412771 332.495164 
L 249.423551 341.965184 
L 268.087059 351.435203 
L 286.97308 360.905222 
L 305.606312 370.375242 
L 323.466367 379.845261 
L 339.987771 389.31528 
L 354.559965 398.7853 
L 366.527304 408.255319 
L 375.189056 417.725338 
L 379.799404 427.195358 
L 379.567444 436.665377 
L 373.657189 446.135397 
L 361.187563 455.605416 
L 341.232405 465.075435 
L 312.820468 474.545455 
" clip-path="url(#pcb0a6c40a7)" style="fill: none; stroke: #000000; stroke-opacity: 0.5; stroke-width: 2; stroke-linecap: square"/>
   </g>
   <g id="line2d_16">
    <path d="M 359.629234 29.454545 
L 322.168571 38.924565 
L 289.012622 48.394584 
L 259.836314 57.864603 
L 234.326209 67.334623 
L 212.180499 76.804642 
L 193.10901 86.274662 
L 176.833202 95.744681 
L 163.086165 105.2147 
L 151.612625 114.68472 
L 142.168939 124.154739 
L 134.523098 133.624758 
L 128.454724 143.094778 
L 123.755074 152.564797 
L 120.227037 162.034816 
L 117.685134 171.504836 
L 115.95552 180.974855 
L 114.875982 190.444874 
L 114.295941 199.914894 
L 114.07645 209.384913 
L 114.090196 218.854932 
L 114.221496 228.324952 
L 114.366303 237.794971 
L 114.432202 247.26499 
L 114.338409 256.73501 
L 114.015776 266.205029 
L 113.406786 275.675048 
L 112.465553 285.145068 
L 111.157829 294.615087 
L 109.460993 304.085106 
L 107.364062 313.555126 
L 104.867681 323.025145 
L 101.984133 332.495164 
L 98.73733 341.965184 
L 95.162817 351.435203 
L 91.307775 360.905222 
L 87.231014 370.375242 
L 83.00298 379.845261 
L 78.70575 389.31528 
L 74.433033 398.7853 
L 70.290175 408.255319 
L 66.39415 417.725338 
L 62.873567 427.195358 
L 59.868669 436.665377 
L 57.53133 446.135397 
L 56.025057 455.605416 
L 55.524992 465.075435 
L 56.217906 474.545455 
" clip-path="url(#pcb0a6c40a7)" style="fill: none; stroke: #000000; stroke-opacity: 0.5; stroke-width: 2; stroke-linecap: square"/>
   </g>
   <g id="patch_3">
    <path d="M 7.2 506.8 
L 439.2 506.8 
" style="fill: none; stroke: #000000; stroke-width: 1.5; stroke-linejoin: miter; stroke-linecap: square"/>
   </g>
  </g>
 </g>
 <defs>
  <clipPath id="pcb0a6c40a7">
   <rect x="7.2" y="7.2" width="432" height="489.6"/>
  </clipPath>
 </defs>
</svg>
