<?xml version="1.0" encoding="utf-8" standalone="no"?>
<!DOCTYPE svg PUBLIC "-//W3C//DTD SVG 1.1//EN"
  "http://www.w3.org/Graphics/SVG/1.1/DTD/svg11.dtd">
<svg xmlns:xlink="http://www.w3.org/1999/xlink" width="509.764375pt" height="563.129375pt" viewBox="0 0 509.764375 563.129375" xmlns="http://www.w3.org/2000/svg" version="1.1">
 <metadata>
  <rdf:RDF xmlns:dc="http://purl.org/dc/elements/1.1/" xmlns:cc="http://creativecommons.org/ns#" xmlns:rdf="http://www.w3.org/1999/02/22-rdf-syntax-ns#">
   <cc:Work>
    <dc:type rdf:resource="http://purl.org/dc/dcmitype/StillImage"/>
    <dc:date>2024-07-01T11:48:13.890230</dc:date>
    <dc:format>image/svg+xml</dc:format>
    <dc:creator>
     <cc:Agent>
      <dc:title>Matplotlib v3.8.0, https://matplotlib.org/</dc:title>
     </cc:Agent>
    </dc:creator>
   </cc:Work>
  </rdf:RDF>
 </metadata>
 <defs>
  <style type="text/css">*{stroke-linejoin: round; stroke-linecap: butt}</style>
 </defs>
 <g id="figure_1">
  <g id="patch_1">
   <path d="M 0 563.129375 
L 509.764375 563.129375 
L 509.764375 0 
L 0 0 
z
" style="fill: #ffffff"/>
  </g>
  <g id="axes_1">
   <g id="patch_2">
    <path d="M 70.564375 496.8 
L 502.564375 496.8 
L 502.564375 7.2 
L 70.564375 7.2 
z
" style="fill: #ffffff"/>
   </g>
   <g id="PolyCollection_1">
    <defs>
     <path id="ma6ca4e0d50" d="M 482.905721 -533.67483 
L 90.232036 -533.67483 
L 90.200739 -524.20481 
L 90.200739 -514.734791 
L 90.200739 -505.264772 
L 90.200739 -495.794752 
L 90.200739 -486.324733 
L 90.200739 -476.854713 
L 90.200739 -467.384694 
L 90.200739 -457.914675 
L 90.200739 -448.444655 
L 90.200739 -438.974636 
L 90.200739 -429.504617 
L 90.200739 -420.034597 
L 90.200739 -410.564578 
L 90.200739 -401.094559 
L 90.200739 -391.624539 
L 90.200739 -382.15452 
L 90.200739 -372.684501 
L 90.200739 -363.214481 
L 90.200739 -353.744462 
L 90.200739 -344.274443 
L 90.200739 -334.804423 
L 90.200739 -325.334404 
L 90.200739 -315.864385 
L 90.200739 -306.394365 
L 90.200739 -296.924346 
L 90.200739 -287.454327 
L 90.200739 -277.984307 
L 90.200739 -268.514288 
L 90.200739 -259.044269 
L 90.200739 -249.574249 
L 90.200739 -240.10423 
L 90.200739 -230.634211 
L 90.200739 -221.164191 
L 90.200739 -211.694172 
L 90.200739 -202.224153 
L 90.200739 -192.754133 
L 90.200739 -183.284114 
L 90.200739 -173.814095 
L 90.200739 -164.344075 
L 90.200739 -154.874056 
L 90.200739 -145.404037 
L 90.200739 -135.934017 
L 90.200739 -126.463998 
L 90.200739 -116.993978 
L 90.200739 -107.523959 
L 90.200739 -98.05394 
L 90.200739 -88.58392 
L 482.928011 -88.58392 
L 482.928011 -88.58392 
L 482.928011 -98.05394 
L 482.928011 -107.523959 
L 482.928011 -116.993978 
L 482.928011 -126.463998 
L 482.928011 -135.934017 
L 482.928011 -145.404037 
L 482.928011 -154.874056 
L 482.928011 -164.344075 
L 482.928011 -173.814095 
L 482.928011 -183.284114 
L 482.928011 -192.754133 
L 482.928011 -202.224153 
L 482.928011 -211.694172 
L 482.928011 -221.164191 
L 482.928011 -230.634211 
L 482.928011 -240.10423 
L 482.928011 -249.574249 
L 482.928011 -259.044269 
L 482.928011 -268.514288 
L 482.928011 -277.984307 
L 482.928011 -287.454327 
L 482.928011 -296.924346 
L 482.928011 -306.394365 
L 482.928011 -315.864385 
L 482.928011 -325.334404 
L 482.928011 -334.804423 
L 482.928011 -344.274443 
L 482.928011 -353.744462 
L 482.928011 -363.214481 
L 482.928011 -372.684501 
L 482.928011 -382.15452 
L 482.928011 -391.624539 
L 482.928011 -401.094559 
L 482.928011 -410.564578 
L 482.928011 -420.034597 
L 482.928011 -429.504617 
L 482.928011 -438.974636 
L 482.928011 -448.444655 
L 482.928011 -457.914675 
L 482.928011 -467.384694 
L 482.928011 -476.854713 
L 482.928011 -486.324733 
L 482.928011 -495.794752 
L 482.928011 -505.264772 
L 482.928011 -514.734791 
L 482.928011 -524.20481 
L 482.905721 -533.67483 
z
" style="stroke: #228b22; stroke-opacity: 0.4"/>
    </defs>
    <g clip-path="url(#p824c79b505)">
     <use xlink:href="#ma6ca4e0d50" x="0" y="563.129375" style="fill: #228b22; fill-opacity: 0.4; stroke: #228b22; stroke-opacity: 0.4"/>
    </g>
   </g>
   <g id="matplotlib.axis_1">
    <g id="xtick_1">
     <g id="line2d_1">
      <defs>
       <path id="m2a5591ea1b" d="M 0 0 
L 0 3.5 
" style="stroke: #000000; stroke-width: 1.5"/>
      </defs>
      <g>
       <use xlink:href="#m2a5591ea1b" x="89.807618" y="506.8" style="stroke: #000000; stroke-width: 1.5"/>
      </g>
     </g>
     <g id="text_1">
      <!-- 0 -->
      <g transform="translate(85.353868 524.437812) scale(0.14 -0.14)">
       <defs>
        <path id="DejaVuSans-30" d="M 2034 4250 
Q 1547 4250 1301 3770 
Q 1056 3291 1056 2328 
Q 1056 1369 1301 889 
Q 1547 409 2034 409 
Q 2525 409 2770 889 
Q 3016 1369 3016 2328 
Q 3016 3291 2770 3770 
Q 2525 4250 2034 4250 
z
M 2034 4750 
Q 2819 4750 3233 4129 
Q 3647 3509 3647 2328 
Q 3647 1150 3233 529 
Q 2819 -91 2034 -91 
Q 1250 -91 836 529 
Q 422 1150 422 2328 
Q 422 3509 836 4129 
Q 1250 4750 2034 4750 
z
" transform="scale(0.015625)"/>
       </defs>
       <use xlink:href="#DejaVuSans-30"/>
      </g>
     </g>
    </g>
    <g id="xtick_2">
     <g id="line2d_2">
      <g>
       <use xlink:href="#m2a5591ea1b" x="168.431697" y="506.8" style="stroke: #000000; stroke-width: 1.5"/>
      </g>
     </g>
     <g id="text_2">
      <!-- 200 -->
      <g transform="translate(155.070447 524.437812) scale(0.14 -0.14)">
       <defs>
        <path id="DejaVuSans-32" d="M 1228 531 
L 3431 531 
L 3431 0 
L 469 0 
L 469 531 
Q 828 903 1448 1529 
Q 2069 2156 2228 2338 
Q 2531 2678 2651 2914 
Q 2772 3150 2772 3378 
Q 2772 3750 2511 3984 
Q 2250 4219 1831 4219 
Q 1534 4219 1204 4116 
Q 875 4013 500 3803 
L 500 4441 
Q 881 4594 1212 4672 
Q 1544 4750 1819 4750 
Q 2544 4750 2975 4387 
Q 3406 4025 3406 3419 
Q 3406 3131 3298 2873 
Q 3191 2616 2906 2266 
Q 2828 2175 2409 1742 
Q 1991 1309 1228 531 
z
" transform="scale(0.015625)"/>
       </defs>
       <use xlink:href="#DejaVuSans-32"/>
       <use xlink:href="#DejaVuSans-30" x="63.623047"/>
       <use xlink:href="#DejaVuSans-30" x="127.246094"/>
      </g>
     </g>
    </g>
    <g id="xtick_3">
     <g id="line2d_3">
      <g>
       <use xlink:href="#m2a5591ea1b" x="247.055775" y="506.8" style="stroke: #000000; stroke-width: 1.5"/>
      </g>
     </g>
     <g id="text_3">
      <!-- 400 -->
      <g transform="translate(233.694525 524.437812) scale(0.14 -0.14)">
       <defs>
        <path id="DejaVuSans-34" d="M 2419 4116 
L 825 1625 
L 2419 1625 
L 2419 4116 
z
M 2253 4666 
L 3047 4666 
L 3047 1625 
L 3713 1625 
L 3713 1100 
L 3047 1100 
L 3047 0 
L 2419 0 
L 2419 1100 
L 313 1100 
L 313 1709 
L 2253 4666 
z
" transform="scale(0.015625)"/>
       </defs>
       <use xlink:href="#DejaVuSans-34"/>
       <use xlink:href="#DejaVuSans-30" x="63.623047"/>
       <use xlink:href="#DejaVuSans-30" x="127.246094"/>
      </g>
     </g>
    </g>
    <g id="xtick_4">
     <g id="line2d_4">
      <g>
       <use xlink:href="#m2a5591ea1b" x="325.679854" y="506.8" style="stroke: #000000; stroke-width: 1.5"/>
      </g>
     </g>
     <g id="text_4">
      <!-- 600 -->
      <g transform="translate(312.318604 524.437812) scale(0.14 -0.14)">
       <defs>
        <path id="DejaVuSans-36" d="M 2113 2584 
Q 1688 2584 1439 2293 
Q 1191 2003 1191 1497 
Q 1191 994 1439 701 
Q 1688 409 2113 409 
Q 2538 409 2786 701 
Q 3034 994 3034 1497 
Q 3034 2003 2786 2293 
Q 2538 2584 2113 2584 
z
M 3366 4563 
L 3366 3988 
Q 3128 4100 2886 4159 
Q 2644 4219 2406 4219 
Q 1781 4219 1451 3797 
Q 1122 3375 1075 2522 
Q 1259 2794 1537 2939 
Q 1816 3084 2150 3084 
Q 2853 3084 3261 2657 
Q 3669 2231 3669 1497 
Q 3669 778 3244 343 
Q 2819 -91 2113 -91 
Q 1303 -91 875 529 
Q 447 1150 447 2328 
Q 447 3434 972 4092 
Q 1497 4750 2381 4750 
Q 2619 4750 2861 4703 
Q 3103 4656 3366 4563 
z
" transform="scale(0.015625)"/>
       </defs>
       <use xlink:href="#DejaVuSans-36"/>
       <use xlink:href="#DejaVuSans-30" x="63.623047"/>
       <use xlink:href="#DejaVuSans-30" x="127.246094"/>
      </g>
     </g>
    </g>
    <g id="xtick_5">
     <g id="line2d_5">
      <g>
       <use xlink:href="#m2a5591ea1b" x="404.303933" y="506.8" style="stroke: #000000; stroke-width: 1.5"/>
      </g>
     </g>
     <g id="text_5">
      <!-- 800 -->
      <g transform="translate(390.942683 524.437812) scale(0.14 -0.14)">
       <defs>
        <path id="DejaVuSans-38" d="M 2034 2216 
Q 1584 2216 1326 1975 
Q 1069 1734 1069 1313 
Q 1069 891 1326 650 
Q 1584 409 2034 409 
Q 2484 409 2743 651 
Q 3003 894 3003 1313 
Q 3003 1734 2745 1975 
Q 2488 2216 2034 2216 
z
M 1403 2484 
Q 997 2584 770 2862 
Q 544 3141 544 3541 
Q 544 4100 942 4425 
Q 1341 4750 2034 4750 
Q 2731 4750 3128 4425 
Q 3525 4100 3525 3541 
Q 3525 3141 3298 2862 
Q 3072 2584 2669 2484 
Q 3125 2378 3379 2068 
Q 3634 1759 3634 1313 
Q 3634 634 3220 271 
Q 2806 -91 2034 -91 
Q 1263 -91 848 271 
Q 434 634 434 1313 
Q 434 1759 690 2068 
Q 947 2378 1403 2484 
z
M 1172 3481 
Q 1172 3119 1398 2916 
Q 1625 2713 2034 2713 
Q 2441 2713 2670 2916 
Q 2900 3119 2900 3481 
Q 2900 3844 2670 4047 
Q 2441 4250 2034 4250 
Q 1625 4250 1398 4047 
Q 1172 3844 1172 3481 
z
" transform="scale(0.015625)"/>
       </defs>
       <use xlink:href="#DejaVuSans-38"/>
       <use xlink:href="#DejaVuSans-30" x="63.623047"/>
       <use xlink:href="#DejaVuSans-30" x="127.246094"/>
      </g>
     </g>
    </g>
    <g id="xtick_6">
     <g id="line2d_6">
      <g>
       <use xlink:href="#m2a5591ea1b" x="482.928011" y="506.8" style="stroke: #000000; stroke-width: 1.5"/>
      </g>
     </g>
     <g id="text_6">
      <!-- 1000 -->
      <g transform="translate(465.113011 524.437812) scale(0.14 -0.14)">
       <defs>
        <path id="DejaVuSans-31" d="M 794 531 
L 1825 531 
L 1825 4091 
L 703 3866 
L 703 4441 
L 1819 4666 
L 2450 4666 
L 2450 531 
L 3481 531 
L 3481 0 
L 794 0 
L 794 531 
z
" transform="scale(0.015625)"/>
       </defs>
       <use xlink:href="#DejaVuSans-31"/>
       <use xlink:href="#DejaVuSans-30" x="63.623047"/>
       <use xlink:href="#DejaVuSans-30" x="127.246094"/>
       <use xlink:href="#DejaVuSans-30" x="190.869141"/>
      </g>
     </g>
    </g>
    <g id="text_7">
     <!-- Resistivity  [$\Omega m$] -->
     <g transform="translate(228.394375 552.989375) scale(0.14 -0.14)">
      <defs>
       <path id="DejaVuSans-52" d="M 2841 2188 
Q 3044 2119 3236 1894 
Q 3428 1669 3622 1275 
L 4263 0 
L 3584 0 
L 2988 1197 
Q 2756 1666 2539 1819 
Q 2322 1972 1947 1972 
L 1259 1972 
L 1259 0 
L 628 0 
L 628 4666 
L 2053 4666 
Q 2853 4666 3247 4331 
Q 3641 3997 3641 3322 
Q 3641 2881 3436 2590 
Q 3231 2300 2841 2188 
z
M 1259 4147 
L 1259 2491 
L 2053 2491 
Q 2509 2491 2742 2702 
Q 2975 2913 2975 3322 
Q 2975 3731 2742 3939 
Q 2509 4147 2053 4147 
L 1259 4147 
z
" transform="scale(0.015625)"/>
       <path id="DejaVuSans-65" d="M 3597 1894 
L 3597 1613 
L 953 1613 
Q 991 1019 1311 708 
Q 1631 397 2203 397 
Q 2534 397 2845 478 
Q 3156 559 3463 722 
L 3463 178 
Q 3153 47 2828 -22 
Q 2503 -91 2169 -91 
Q 1331 -91 842 396 
Q 353 884 353 1716 
Q 353 2575 817 3079 
Q 1281 3584 2069 3584 
Q 2775 3584 3186 3129 
Q 3597 2675 3597 1894 
z
M 3022 2063 
Q 3016 2534 2758 2815 
Q 2500 3097 2075 3097 
Q 1594 3097 1305 2825 
Q 1016 2553 972 2059 
L 3022 2063 
z
" transform="scale(0.015625)"/>
       <path id="DejaVuSans-73" d="M 2834 3397 
L 2834 2853 
Q 2591 2978 2328 3040 
Q 2066 3103 1784 3103 
Q 1356 3103 1142 2972 
Q 928 2841 928 2578 
Q 928 2378 1081 2264 
Q 1234 2150 1697 2047 
L 1894 2003 
Q 2506 1872 2764 1633 
Q 3022 1394 3022 966 
Q 3022 478 2636 193 
Q 2250 -91 1575 -91 
Q 1294 -91 989 -36 
Q 684 19 347 128 
L 347 722 
Q 666 556 975 473 
Q 1284 391 1588 391 
Q 1994 391 2212 530 
Q 2431 669 2431 922 
Q 2431 1156 2273 1281 
Q 2116 1406 1581 1522 
L 1381 1569 
Q 847 1681 609 1914 
Q 372 2147 372 2553 
Q 372 3047 722 3315 
Q 1072 3584 1716 3584 
Q 2034 3584 2315 3537 
Q 2597 3491 2834 3397 
z
" transform="scale(0.015625)"/>
       <path id="DejaVuSans-69" d="M 603 3500 
L 1178 3500 
L 1178 0 
L 603 0 
L 603 3500 
z
M 603 4863 
L 1178 4863 
L 1178 4134 
L 603 4134 
L 603 4863 
z
" transform="scale(0.015625)"/>
       <path id="DejaVuSans-74" d="M 1172 4494 
L 1172 3500 
L 2356 3500 
L 2356 3053 
L 1172 3053 
L 1172 1153 
Q 1172 725 1289 603 
Q 1406 481 1766 481 
L 2356 481 
L 2356 0 
L 1766 0 
Q 1100 0 847 248 
Q 594 497 594 1153 
L 594 3053 
L 172 3053 
L 172 3500 
L 594 3500 
L 594 4494 
L 1172 4494 
z
" transform="scale(0.015625)"/>
       <path id="DejaVuSans-76" d="M 191 3500 
L 800 3500 
L 1894 563 
L 2988 3500 
L 3597 3500 
L 2284 0 
L 1503 0 
L 191 3500 
z
" transform="scale(0.015625)"/>
       <path id="DejaVuSans-79" d="M 2059 -325 
Q 1816 -950 1584 -1140 
Q 1353 -1331 966 -1331 
L 506 -1331 
L 506 -850 
L 844 -850 
Q 1081 -850 1212 -737 
Q 1344 -625 1503 -206 
L 1606 56 
L 191 3500 
L 800 3500 
L 1894 763 
L 2988 3500 
L 3597 3500 
L 2059 -325 
z
" transform="scale(0.015625)"/>
       <path id="DejaVuSans-20" transform="scale(0.015625)"/>
       <path id="DejaVuSans-5b" d="M 550 4863 
L 1875 4863 
L 1875 4416 
L 1125 4416 
L 1125 -397 
L 1875 -397 
L 1875 -844 
L 550 -844 
L 550 4863 
z
" transform="scale(0.015625)"/>
       <path id="DejaVuSans-3a9" d="M 4647 556 
L 4647 0 
L 2772 0 
L 2772 556 
Q 3325 859 3634 1378 
Q 3944 1897 3944 2528 
Q 3944 3278 3531 3731 
Q 3119 4184 2444 4184 
Q 1769 4184 1355 3729 
Q 941 3275 941 2528 
Q 941 1897 1250 1378 
Q 1563 859 2119 556 
L 2119 0 
L 244 0 
L 244 556 
L 1241 556 
Q 747 991 519 1456 
Q 294 1922 294 2497 
Q 294 3491 894 4106 
Q 1491 4722 2444 4722 
Q 3391 4722 3994 4106 
Q 4594 3494 4594 2528 
Q 4594 1922 4372 1459 
Q 4150 997 3647 556 
L 4647 556 
z
" transform="scale(0.015625)"/>
       <path id="DejaVuSans-6d" d="M 3328 2828 
Q 3544 3216 3844 3400 
Q 4144 3584 4550 3584 
Q 5097 3584 5394 3201 
Q 5691 2819 5691 2113 
L 5691 0 
L 5113 0 
L 5113 2094 
Q 5113 2597 4934 2840 
Q 4756 3084 4391 3084 
Q 3944 3084 3684 2787 
Q 3425 2491 3425 1978 
L 3425 0 
L 2847 0 
L 2847 2094 
Q 2847 2600 2669 2842 
Q 2491 3084 2119 3084 
Q 1678 3084 1418 2786 
Q 1159 2488 1159 1978 
L 1159 0 
L 581 0 
L 581 3500 
L 1159 3500 
L 1159 2956 
Q 1356 3278 1631 3431 
Q 1906 3584 2284 3584 
Q 2666 3584 2933 3390 
Q 3200 3197 3328 2828 
z
" transform="scale(0.015625)"/>
       <path id="DejaVuSans-5d" d="M 1947 4863 
L 1947 -844 
L 622 -844 
L 622 -397 
L 1369 -397 
L 1369 4416 
L 622 4416 
L 622 4863 
L 1947 4863 
z
" transform="scale(0.015625)"/>
      </defs>
      <use xlink:href="#DejaVuSans-52" transform="translate(0 0.015625)"/>
      <use xlink:href="#DejaVuSans-65" transform="translate(69.482422 0.015625)"/>
      <use xlink:href="#DejaVuSans-73" transform="translate(131.005859 0.015625)"/>
      <use xlink:href="#DejaVuSans-69" transform="translate(183.105469 0.015625)"/>
      <use xlink:href="#DejaVuSans-73" transform="translate(210.888672 0.015625)"/>
      <use xlink:href="#DejaVuSans-74" transform="translate(262.988281 0.015625)"/>
      <use xlink:href="#DejaVuSans-69" transform="translate(302.197266 0.015625)"/>
      <use xlink:href="#DejaVuSans-76" transform="translate(329.980469 0.015625)"/>
      <use xlink:href="#DejaVuSans-69" transform="translate(389.160156 0.015625)"/>
      <use xlink:href="#DejaVuSans-74" transform="translate(416.943359 0.015625)"/>
      <use xlink:href="#DejaVuSans-79" transform="translate(456.152344 0.015625)"/>
      <use xlink:href="#DejaVuSans-20" transform="translate(515.332031 0.015625)"/>
      <use xlink:href="#DejaVuSans-20" transform="translate(547.119141 0.015625)"/>
      <use xlink:href="#DejaVuSans-5b" transform="translate(578.90625 0.015625)"/>
      <use xlink:href="#DejaVuSans-3a9" transform="translate(617.919922 0.015625)"/>
      <use xlink:href="#DejaVuSans-6d" transform="translate(694.335938 0.015625)"/>
      <use xlink:href="#DejaVuSans-5d" transform="translate(791.748047 0.015625)"/>
     </g>
    </g>
   </g>
   <g id="matplotlib.axis_2">
    <g id="ytick_1">
     <g id="line2d_7">
      <defs>
       <path id="m871d67058d" d="M 0 0 
L -3.5 0 
" style="stroke: #000000; stroke-width: 1.5"/>
      </defs>
      <g>
       <use xlink:href="#m871d67058d" x="60.564375" y="29.454545" style="stroke: #000000; stroke-width: 1.5"/>
      </g>
     </g>
     <g id="text_8">
      <!-- 0 -->
      <g transform="translate(44.656875 34.773452) scale(0.14 -0.14)">
       <use xlink:href="#DejaVuSans-30"/>
      </g>
     </g>
    </g>
    <g id="ytick_2">
     <g id="line2d_8">
      <g>
       <use xlink:href="#m871d67058d" x="60.564375" y="124.154739" style="stroke: #000000; stroke-width: 1.5"/>
      </g>
     </g>
     <g id="text_9">
      <!-- 5 -->
      <g transform="translate(44.656875 129.473645) scale(0.14 -0.14)">
       <defs>
        <path id="DejaVuSans-35" d="M 691 4666 
L 3169 4666 
L 3169 4134 
L 1269 4134 
L 1269 2991 
Q 1406 3038 1543 3061 
Q 1681 3084 1819 3084 
Q 2600 3084 3056 2656 
Q 3513 2228 3513 1497 
Q 3513 744 3044 326 
Q 2575 -91 1722 -91 
Q 1428 -91 1123 -41 
Q 819 9 494 109 
L 494 744 
Q 775 591 1075 516 
Q 1375 441 1709 441 
Q 2250 441 2565 725 
Q 2881 1009 2881 1497 
Q 2881 1984 2565 2268 
Q 2250 2553 1709 2553 
Q 1456 2553 1204 2497 
Q 953 2441 691 2322 
L 691 4666 
z
" transform="scale(0.015625)"/>
       </defs>
       <use xlink:href="#DejaVuSans-35"/>
      </g>
     </g>
    </g>
    <g id="ytick_3">
     <g id="line2d_9">
      <g>
       <use xlink:href="#m871d67058d" x="60.564375" y="218.854932" style="stroke: #000000; stroke-width: 1.5"/>
      </g>
     </g>
     <g id="text_10">
      <!-- 10 -->
      <g transform="translate(35.749375 224.173839) scale(0.14 -0.14)">
       <use xlink:href="#DejaVuSans-31"/>
       <use xlink:href="#DejaVuSans-30" x="63.623047"/>
      </g>
     </g>
    </g>
    <g id="ytick_4">
     <g id="line2d_10">
      <g>
       <use xlink:href="#m871d67058d" x="60.564375" y="313.555126" style="stroke: #000000; stroke-width: 1.5"/>
      </g>
     </g>
     <g id="text_11">
      <!-- 15 -->
      <g transform="translate(35.749375 318.874032) scale(0.14 -0.14)">
       <use xlink:href="#DejaVuSans-31"/>
       <use xlink:href="#DejaVuSans-35" x="63.623047"/>
      </g>
     </g>
    </g>
    <g id="ytick_5">
     <g id="line2d_11">
      <g>
       <use xlink:href="#m871d67058d" x="60.564375" y="408.255319" style="stroke: #000000; stroke-width: 1.5"/>
      </g>
     </g>
     <g id="text_12">
      <!-- 20 -->
      <g transform="translate(35.749375 413.574225) scale(0.14 -0.14)">
       <use xlink:href="#DejaVuSans-32"/>
       <use xlink:href="#DejaVuSans-30" x="63.623047"/>
      </g>
     </g>
    </g>
    <g id="text_13">
     <!-- Depth [m] -->
     <g transform="translate(17.837812 287.826875) rotate(-90) scale(0.14 -0.14)">
      <defs>
       <path id="DejaVuSans-44" d="M 1259 4147 
L 1259 519 
L 2022 519 
Q 2988 519 3436 956 
Q 3884 1394 3884 2338 
Q 3884 3275 3436 3711 
Q 2988 4147 2022 4147 
L 1259 4147 
z
M 628 4666 
L 1925 4666 
Q 3281 4666 3915 4102 
Q 4550 3538 4550 2338 
Q 4550 1131 3912 565 
Q 3275 0 1925 0 
L 628 0 
L 628 4666 
z
" transform="scale(0.015625)"/>
       <path id="DejaVuSans-70" d="M 1159 525 
L 1159 -1331 
L 581 -1331 
L 581 3500 
L 1159 3500 
L 1159 2969 
Q 1341 3281 1617 3432 
Q 1894 3584 2278 3584 
Q 2916 3584 3314 3078 
Q 3713 2572 3713 1747 
Q 3713 922 3314 415 
Q 2916 -91 2278 -91 
Q 1894 -91 1617 61 
Q 1341 213 1159 525 
z
M 3116 1747 
Q 3116 2381 2855 2742 
Q 2594 3103 2138 3103 
Q 1681 3103 1420 2742 
Q 1159 2381 1159 1747 
Q 1159 1113 1420 752 
Q 1681 391 2138 391 
Q 2594 391 2855 752 
Q 3116 1113 3116 1747 
z
" transform="scale(0.015625)"/>
       <path id="DejaVuSans-68" d="M 3513 2113 
L 3513 0 
L 2938 0 
L 2938 2094 
Q 2938 2591 2744 2837 
Q 2550 3084 2163 3084 
Q 1697 3084 1428 2787 
Q 1159 2491 1159 1978 
L 1159 0 
L 581 0 
L 581 4863 
L 1159 4863 
L 1159 2956 
Q 1366 3272 1645 3428 
Q 1925 3584 2291 3584 
Q 2894 3584 3203 3211 
Q 3513 2838 3513 2113 
z
" transform="scale(0.015625)"/>
      </defs>
      <use xlink:href="#DejaVuSans-44"/>
      <use xlink:href="#DejaVuSans-65" x="77.001953"/>
      <use xlink:href="#DejaVuSans-70" x="138.525391"/>
      <use xlink:href="#DejaVuSans-74" x="202.001953"/>
      <use xlink:href="#DejaVuSans-68" x="241.210938"/>
      <use xlink:href="#DejaVuSans-20" x="304.589844"/>
      <use xlink:href="#DejaVuSans-5b" x="336.376953"/>
      <use xlink:href="#DejaVuSans-6d" x="375.390625"/>
      <use xlink:href="#DejaVuSans-5d" x="472.802734"/>
     </g>
    </g>
   </g>
   <g id="line2d_12">
    <path d="M 378.189212 29.454545 
L 378.189212 38.924565 
L 403.400336 38.924565 
L 403.400336 48.394584 
L 427.256391 48.394584 
L 427.256391 57.864603 
L 410.700465 57.864603 
L 410.700465 67.334623 
L 418.059523 67.334623 
L 418.059523 76.804642 
L 440.100083 76.804642 
L 440.100083 86.274662 
L 430.221614 86.274662 
L 430.221614 95.744681 
L 437.326622 95.744681 
L 437.326622 105.2147 
L 464.926149 105.2147 
L 464.926149 114.68472 
L 470.683045 114.68472 
L 470.683045 124.154739 
L 466.004615 124.154739 
L 466.004615 133.624758 
L 482.928011 133.624758 
L 482.928011 143.094778 
L 479.482017 143.094778 
L 479.482017 152.564797 
L 474.042156 152.564797 
L 474.042156 162.034816 
L 482.928011 162.034816 
L 482.928011 171.504836 
L 482.928011 171.504836 
L 482.928011 180.974855 
L 471.592592 180.974855 
L 471.592592 190.444874 
L 475.97623 190.444874 
L 475.97623 199.914894 
L 472.934418 199.914894 
L 472.934418 209.384913 
L 482.928011 209.384913 
L 482.928011 218.854932 
L 477.905145 218.854932 
L 477.905145 228.324952 
L 482.928011 228.324952 
L 482.928011 237.794971 
L 482.928011 237.794971 
L 482.928011 247.26499 
L 465.799009 247.26499 
L 465.799009 256.73501 
L 476.543716 256.73501 
L 476.543716 266.205029 
L 481.250027 266.205029 
L 481.250027 275.675048 
L 462.433996 275.675048 
L 462.433996 285.145068 
L 468.256443 285.145068 
L 468.256443 294.615087 
L 455.335346 294.615087 
L 455.335346 304.085106 
L 482.928011 304.085106 
L 482.928011 313.555126 
L 482.913255 313.555126 
L 482.913255 323.025145 
L 480.806975 323.025145 
L 480.806975 332.495164 
L 481.687009 332.495164 
L 481.687009 341.965184 
L 461.148724 341.965184 
L 461.148724 351.435203 
L 470.880781 351.435203 
L 470.880781 360.905222 
L 466.321938 360.905222 
L 466.321938 370.375242 
L 475.85314 370.375242 
L 475.85314 379.845261 
L 475.734225 379.845261 
L 475.734225 389.31528 
L 482.928011 389.31528 
L 482.928011 398.7853 
L 482.928011 398.7853 
L 482.928011 408.255319 
L 482.518311 408.255319 
L 482.518311 417.725338 
L 482.928011 417.725338 
L 482.928011 427.195358 
L 482.928011 427.195358 
L 482.928011 436.665377 
L 460.906959 436.665377 
L 460.906959 446.135397 
L 471.641612 446.135397 
L 471.641612 455.605416 
L 471.248396 455.605416 
L 471.248396 465.075435 
L 470.29542 465.075435 
L 470.29542 474.545455 
L 482.928011 474.545455 
" clip-path="url(#p824c79b505)" style="fill: none; stroke: #000000; stroke-opacity: 0.5; stroke-width: 2; stroke-linecap: square"/>
   </g>
   <g id="line2d_13">
    <path d="M 175.341027 29.454545 
L 175.341027 38.924565 
L 178.811524 38.924565 
L 178.811524 48.394584 
L 177.210604 48.394584 
L 177.210604 57.864603 
L 164.512442 57.864603 
L 164.512442 67.334623 
L 152.94242 67.334623 
L 152.94242 76.804642 
L 169.883896 76.804642 
L 169.883896 86.274662 
L 171.222872 86.274662 
L 171.222872 95.744681 
L 196.677975 95.744681 
L 196.677975 105.2147 
L 222.164937 105.2147 
L 222.164937 114.68472 
L 227.367088 114.68472 
L 227.367088 124.154739 
L 202.234376 124.154739 
L 202.234376 133.624758 
L 206.997446 133.624758 
L 206.997446 143.094778 
L 196.707008 143.094778 
L 196.707008 152.564797 
L 222.445873 152.564797 
L 222.445873 162.034816 
L 247.830475 162.034816 
L 247.830475 171.504836 
L 235.076689 171.504836 
L 235.076689 180.974855 
L 261.220875 180.974855 
L 261.220875 190.444874 
L 269.45608 190.444874 
L 269.45608 199.914894 
L 266.675996 199.914894 
L 266.675996 209.384913 
L 273.78933 209.384913 
L 273.78933 218.854932 
L 262.804105 218.854932 
L 262.804105 228.324952 
L 275.728346 228.324952 
L 275.728346 237.794971 
L 268.65609 237.794971 
L 268.65609 247.26499 
L 230.220126 247.26499 
L 230.220126 256.73501 
L 238.382653 256.73501 
L 238.382653 266.205029 
L 261.464127 266.205029 
L 261.464127 275.675048 
L 249.926485 275.675048 
L 249.926485 285.145068 
L 237.739129 285.145068 
L 237.739129 294.615087 
L 239.709878 294.615087 
L 239.709878 304.085106 
L 229.744526 304.085106 
L 229.744526 313.555126 
L 225.107677 313.555126 
L 225.107677 323.025145 
L 223.854522 323.025145 
L 223.854522 332.495164 
L 219.137449 332.495164 
L 219.137449 341.965184 
L 208.594173 341.965184 
L 208.594173 351.435203 
L 221.154519 351.435203 
L 221.154519 360.905222 
L 227.028926 360.905222 
L 227.028926 370.375242 
L 235.838923 370.375242 
L 235.838923 379.845261 
L 212.339626 379.845261 
L 212.339626 389.31528 
L 202.57892 389.31528 
L 202.57892 398.7853 
L 238.627693 398.7853 
L 238.627693 408.255319 
L 248.30166 408.255319 
L 248.30166 417.725338 
L 252.105143 417.725338 
L 252.105143 427.195358 
L 248.466284 427.195358 
L 248.466284 436.665377 
L 247.90878 436.665377 
L 247.90878 446.135397 
L 232.529276 446.135397 
L 232.529276 455.605416 
L 246.380112 455.605416 
L 246.380112 465.075435 
L 246.497887 465.075435 
L 246.497887 474.545455 
L 259.18467 474.545455 
" clip-path="url(#p824c79b505)" style="fill: none; stroke: #000000; stroke-opacity: 0.5; stroke-width: 2; stroke-linecap: square"/>
   </g>
   <g id="line2d_14">
    <path d="M 381.03408 29.454545 
L 381.03408 38.924565 
L 395.236442 38.924565 
L 395.236442 48.394584 
L 397.343609 48.394584 
L 397.343609 57.864603 
L 399.624279 57.864603 
L 399.624279 67.334623 
L 416.483851 67.334623 
L 416.483851 76.804642 
L 413.42793 76.804642 
L 413.42793 86.274662 
L 389.520768 86.274662 
L 389.520768 95.744681 
L 371.298712 95.744681 
L 371.298712 105.2147 
L 344.52991 105.2147 
L 344.52991 114.68472 
L 376.012605 114.68472 
L 376.012605 124.154739 
L 368.382197 124.154739 
L 368.382197 133.624758 
L 370.79745 133.624758 
L 370.79745 143.094778 
L 338.122148 143.094778 
L 338.122148 152.564797 
L 344.748017 152.564797 
L 344.748017 162.034816 
L 319.078364 162.034816 
L 319.078364 171.504836 
L 325.857915 171.504836 
L 325.857915 180.974855 
L 340.768177 180.974855 
L 340.768177 190.444874 
L 327.179465 190.444874 
L 327.179465 199.914894 
L 305.382111 199.914894 
L 305.382111 209.384913 
L 309.234494 209.384913 
L 309.234494 218.854932 
L 317.767394 218.854932 
L 317.767394 228.324952 
L 335.438521 228.324952 
L 335.438521 237.794971 
L 320.024597 237.794971 
L 320.024597 247.26499 
L 346.695359 247.26499 
L 346.695359 256.73501 
L 356.658408 256.73501 
L 356.658408 266.205029 
L 353.471599 266.205029 
L 353.471599 275.675048 
L 381.761799 275.675048 
L 381.761799 285.145068 
L 372.392606 285.145068 
L 372.392606 294.615087 
L 380.338561 294.615087 
L 380.338561 304.085106 
L 384.656719 304.085106 
L 384.656719 313.555126 
L 401.845707 313.555126 
L 401.845707 323.025145 
L 459.874826 323.025145 
L 459.874826 332.495164 
L 482.928011 332.495164 
L 482.928011 341.965184 
L 455.785284 341.965184 
L 455.785284 351.435203 
L 446.599646 351.435203 
L 446.599646 360.905222 
L 444.33906 360.905222 
L 444.33906 370.375242 
L 423.018925 370.375242 
L 423.018925 379.845261 
L 401.133896 379.845261 
L 401.133896 389.31528 
L 415.534761 389.31528 
L 415.534761 398.7853 
L 431.406205 398.7853 
L 431.406205 408.255319 
L 444.422296 408.255319 
L 444.422296 417.725338 
L 451.639693 417.725338 
L 451.639693 427.195358 
L 441.599478 427.195358 
L 441.599478 436.665377 
L 419.014539 436.665377 
L 419.014539 446.135397 
L 402.305723 446.135397 
L 402.305723 455.605416 
L 406.964142 455.605416 
L 406.964142 465.075435 
L 410.942782 465.075435 
L 410.942782 474.545455 
L 427.11828 474.545455 
" clip-path="url(#p824c79b505)" style="fill: none; stroke: #000000; stroke-opacity: 0.5; stroke-width: 2; stroke-linecap: square"/>
   </g>
   <g id="line2d_15">
    <path d="M 147.944975 29.454545 
L 147.944975 38.924565 
L 163.151619 38.924565 
L 163.151619 48.394584 
L 131.273281 48.394584 
L 131.273281 57.864603 
L 132.321787 57.864603 
L 132.321787 67.334623 
L 162.539948 67.334623 
L 162.539948 76.804642 
L 157.860552 76.804642 
L 157.860552 86.274662 
L 171.980884 86.274662 
L 171.980884 95.744681 
L 199.618316 95.744681 
L 199.618316 105.2147 
L 168.727341 105.2147 
L 168.727341 114.68472 
L 155.660053 114.68472 
L 155.660053 124.154739 
L 160.058501 124.154739 
L 160.058501 133.624758 
L 162.539018 133.624758 
L 162.539018 143.094778 
L 173.019621 143.094778 
L 173.019621 152.564797 
L 133.552226 152.564797 
L 133.552226 162.034816 
L 155.928512 162.034816 
L 155.928512 171.504836 
L 147.957914 171.504836 
L 147.957914 180.974855 
L 128.783697 180.974855 
L 128.783697 190.444874 
L 141.756832 190.444874 
L 141.756832 199.914894 
L 128.480906 199.914894 
L 128.480906 209.384913 
L 109.773794 209.384913 
L 109.773794 218.854932 
L 90.200739 218.854932 
L 90.200739 228.324952 
L 90.200739 228.324952 
L 90.200739 237.794971 
L 90.200739 237.794971 
L 90.200739 247.26499 
L 90.200739 247.26499 
L 90.200739 256.73501 
L 90.200739 256.73501 
L 90.200739 266.205029 
L 109.746498 266.205029 
L 109.746498 275.675048 
L 133.522029 275.675048 
L 133.522029 285.145068 
L 170.38535 285.145068 
L 170.38535 294.615087 
L 158.610225 294.615087 
L 158.610225 304.085106 
L 155.538522 304.085106 
L 155.538522 313.555126 
L 179.548637 313.555126 
L 179.548637 323.025145 
L 176.79172 323.025145 
L 176.79172 332.495164 
L 142.823673 332.495164 
L 142.823673 341.965184 
L 147.895589 341.965184 
L 147.895589 351.435203 
L 176.225181 351.435203 
L 176.225181 360.905222 
L 196.322658 360.905222 
L 196.322658 370.375242 
L 207.155855 370.375242 
L 207.155855 379.845261 
L 218.867611 379.845261 
L 218.867611 389.31528 
L 216.94509 389.31528 
L 216.94509 398.7853 
L 206.942199 398.7853 
L 206.942199 408.255319 
L 219.71079 408.255319 
L 219.71079 417.725338 
L 233.900987 417.725338 
L 233.900987 427.195358 
L 244.392639 427.195358 
L 244.392639 436.665377 
L 257.721614 436.665377 
L 257.721614 446.135397 
L 249.418649 446.135397 
L 249.418649 455.605416 
L 225.893558 455.605416 
L 225.893558 465.075435 
L 222.695472 465.075435 
L 222.695472 474.545455 
L 224.052474 474.545455 
" clip-path="url(#p824c79b505)" style="fill: none; stroke: #000000; stroke-opacity: 0.5; stroke-width: 2; stroke-linecap: square"/>
   </g>
   <g id="line2d_16">
    <path d="M 189.303327 29.454545 
L 189.303327 38.924565 
L 171.108372 38.924565 
L 171.108372 48.394584 
L 159.658411 48.394584 
L 159.658411 57.864603 
L 146.580727 57.864603 
L 146.580727 67.334623 
L 111.375094 67.334623 
L 111.375094 76.804642 
L 93.471467 76.804642 
L 93.471467 86.274662 
L 112.23765 86.274662 
L 112.23765 95.744681 
L 90.200739 95.744681 
L 90.200739 105.2147 
L 90.200739 105.2147 
L 90.200739 114.68472 
L 110.295027 114.68472 
L 110.295027 124.154739 
L 97.388948 124.154739 
L 97.388948 133.624758 
L 90.200739 133.624758 
L 90.200739 143.094778 
L 111.409418 143.094778 
L 111.409418 152.564797 
L 97.258108 152.564797 
L 97.258108 162.034816 
L 106.846681 162.034816 
L 106.846681 171.504836 
L 90.200739 171.504836 
L 90.200739 180.974855 
L 90.200739 180.974855 
L 90.200739 190.444874 
L 98.294763 190.444874 
L 98.294763 199.914894 
L 97.60681 199.914894 
L 97.60681 209.384913 
L 112.895427 209.384913 
L 112.895427 218.854932 
L 188.157696 218.854932 
L 188.157696 228.324952 
L 169.586536 228.324952 
L 169.586536 237.794971 
L 199.021162 237.794971 
L 199.021162 247.26499 
L 199.258416 247.26499 
L 199.258416 256.73501 
L 201.003979 256.73501 
L 201.003979 266.205029 
L 233.945412 266.205029 
L 233.945412 275.675048 
L 197.795576 275.675048 
L 197.795576 285.145068 
L 189.421 285.145068 
L 189.421 294.615087 
L 176.985329 294.615087 
L 176.985329 304.085106 
L 175.847597 304.085106 
L 175.847597 313.555126 
L 157.518317 313.555126 
L 157.518317 323.025145 
L 151.982743 323.025145 
L 151.982743 332.495164 
L 144.063295 332.495164 
L 144.063295 341.965184 
L 154.157436 341.965184 
L 154.157436 351.435203 
L 169.148313 351.435203 
L 169.148313 360.905222 
L 143.386708 360.905222 
L 143.386708 370.375242 
L 159.064153 370.375242 
L 159.064153 379.845261 
L 153.986898 379.845261 
L 153.986898 389.31528 
L 136.484222 389.31528 
L 136.484222 398.7853 
L 181.497539 398.7853 
L 181.497539 408.255319 
L 194.644158 408.255319 
L 194.644158 417.725338 
L 170.81872 417.725338 
L 170.81872 427.195358 
L 144.20041 427.195358 
L 144.20041 436.665377 
L 163.462217 436.665377 
L 163.462217 446.135397 
L 155.732857 446.135397 
L 155.732857 455.605416 
L 201.351595 455.605416 
L 201.351595 465.075435 
L 202.247957 465.075435 
L 202.247957 474.545455 
L 209.824138 474.545455 
" clip-path="url(#p824c79b505)" style="fill: none; stroke: #000000; stroke-opacity: 0.5; stroke-width: 2; stroke-linecap: square"/>
   </g>
   <g id="patch_3">
    <path d="M 60.564375 496.8 
L 60.564375 7.2 
" style="fill: none; stroke: #000000; stroke-width: 1.5; stroke-linejoin: miter; stroke-linecap: square"/>
   </g>
   <g id="patch_4">
    <path d="M 70.564375 506.8 
L 502.564375 506.8 
" style="fill: none; stroke: #000000; stroke-width: 1.5; stroke-linejoin: miter; stroke-linecap: square"/>
   </g>
  </g>
 </g>
 <defs>
  <clipPath id="p824c79b505">
   <rect x="70.564375" y="7.2" width="432" height="489.6"/>
  </clipPath>
 </defs>
</svg>
