<?xml version="1.0" encoding="utf-8" standalone="no"?>
<!DOCTYPE svg PUBLIC "-//W3C//DTD SVG 1.1//EN"
  "http://www.w3.org/Graphics/SVG/1.1/DTD/svg11.dtd">
<svg xmlns:xlink="http://www.w3.org/1999/xlink" width="532.891136pt" height="701.27625pt" viewBox="0 0 532.891136 701.27625" xmlns="http://www.w3.org/2000/svg" version="1.1">
 <metadata>
  <rdf:RDF xmlns:dc="http://purl.org/dc/elements/1.1/" xmlns:cc="http://creativecommons.org/ns#" xmlns:rdf="http://www.w3.org/1999/02/22-rdf-syntax-ns#">
   <cc:Work>
    <dc:type rdf:resource="http://purl.org/dc/dcmitype/StillImage"/>
    <dc:date>2024-07-03T18:47:36.856226</dc:date>
    <dc:format>image/svg+xml</dc:format>
    <dc:creator>
     <cc:Agent>
      <dc:title>Matplotlib v3.8.0, https://matplotlib.org/</dc:title>
     </cc:Agent>
    </dc:creator>
   </cc:Work>
  </rdf:RDF>
 </metadata>
 <defs>
  <style type="text/css">*{stroke-linejoin: round; stroke-linecap: butt}</style>
 </defs>
 <g id="figure_1">
  <g id="patch_1">
   <path d="M 0 701.27625 
L 532.891136 701.27625 
L 532.891136 0 
L 0 0 
z
" style="fill: #ffffff"/>
  </g>
  <g id="axes_1">
   <g id="patch_2">
    <path d="M 87.8775 619.2 
L 519.8775 619.2 
L 519.8775 7.2 
L 87.8775 7.2 
z
" style="fill: #ffffff"/>
   </g>
   <g id="PolyCollection_1">
    <defs>
     <path id="mddda141b64" d="M 500.218846 -666.258068 
L 107.545161 -666.258068 
L 107.513864 -654.420544 
L 107.513864 -642.58302 
L 107.513864 -630.745496 
L 107.513864 -618.907971 
L 107.513864 -607.070447 
L 107.513864 -595.232923 
L 107.513864 -583.395399 
L 107.513864 -571.557875 
L 107.513864 -559.720351 
L 107.513864 -547.882826 
L 107.513864 -536.045302 
L 107.513864 -524.207778 
L 107.513864 -512.370254 
L 107.513864 -500.53273 
L 107.513864 -488.695206 
L 107.513864 -476.857681 
L 107.513864 -465.020157 
L 107.513864 -453.182633 
L 107.513864 -441.345109 
L 107.513864 -429.507585 
L 107.513864 -417.67006 
L 107.513864 -405.832536 
L 107.513864 -393.995012 
L 107.513864 -382.157488 
L 107.513864 -370.319964 
L 107.513864 -358.48244 
L 107.513864 -346.644915 
L 107.513864 -334.807391 
L 107.513864 -322.969867 
L 107.513864 -311.132343 
L 107.513864 -299.294819 
L 107.513864 -287.457294 
L 107.513864 -275.61977 
L 107.513864 -263.782246 
L 107.513864 -251.944722 
L 107.513864 -240.107198 
L 107.513864 -228.269674 
L 107.513864 -216.432149 
L 107.513864 -204.594625 
L 107.513864 -192.757101 
L 107.513864 -180.919577 
L 107.513864 -169.082053 
L 107.513864 -157.244529 
L 107.513864 -145.407004 
L 107.513864 -133.56948 
L 107.513864 -121.731956 
L 107.513864 -109.894432 
L 500.241136 -109.894432 
L 500.241136 -109.894432 
L 500.241136 -121.731956 
L 500.241136 -133.56948 
L 500.241136 -145.407004 
L 500.241136 -157.244529 
L 500.241136 -169.082053 
L 500.241136 -180.919577 
L 500.241136 -192.757101 
L 500.241136 -204.594625 
L 500.241136 -216.432149 
L 500.241136 -228.269674 
L 500.241136 -240.107198 
L 500.241136 -251.944722 
L 500.241136 -263.782246 
L 500.241136 -275.61977 
L 500.241136 -287.457294 
L 500.241136 -299.294819 
L 500.241136 -311.132343 
L 500.241136 -322.969867 
L 500.241136 -334.807391 
L 500.241136 -346.644915 
L 500.241136 -358.48244 
L 500.241136 -370.319964 
L 500.241136 -382.157488 
L 500.241136 -393.995012 
L 500.241136 -405.832536 
L 500.241136 -417.67006 
L 500.241136 -429.507585 
L 500.241136 -441.345109 
L 500.241136 -453.182633 
L 500.241136 -465.020157 
L 500.241136 -476.857681 
L 500.241136 -488.695206 
L 500.241136 -500.53273 
L 500.241136 -512.370254 
L 500.241136 -524.207778 
L 500.241136 -536.045302 
L 500.241136 -547.882826 
L 500.241136 -559.720351 
L 500.241136 -571.557875 
L 500.241136 -583.395399 
L 500.241136 -595.232923 
L 500.241136 -607.070447 
L 500.241136 -618.907971 
L 500.241136 -630.745496 
L 500.241136 -642.58302 
L 500.241136 -654.420544 
L 500.218846 -666.258068 
z
" style="stroke: #228b22; stroke-opacity: 0.4"/>
    </defs>
    <g clip-path="url(#pc72fe35cd8)">
     <use xlink:href="#mddda141b64" x="0" y="701.27625" style="fill: #228b22; fill-opacity: 0.4; stroke: #228b22; stroke-opacity: 0.4"/>
    </g>
   </g>
   <g id="matplotlib.axis_1">
    <g id="xtick_1">
     <g id="line2d_1">
      <defs>
       <path id="m0dc65aceb7" d="M 0 0 
L 0 3.5 
" style="stroke: #000000; stroke-width: 1.5"/>
      </defs>
      <g>
       <use xlink:href="#m0dc65aceb7" x="107.120743" y="629.2" style="stroke: #000000; stroke-width: 1.5"/>
      </g>
     </g>
     <g id="text_1">
      <!-- 0 -->
      <g transform="translate(100.758243 651.396875) scale(0.2 -0.2)">
       <defs>
        <path id="DejaVuSans-30" d="M 2034 4250 
Q 1547 4250 1301 3770 
Q 1056 3291 1056 2328 
Q 1056 1369 1301 889 
Q 1547 409 2034 409 
Q 2525 409 2770 889 
Q 3016 1369 3016 2328 
Q 3016 3291 2770 3770 
Q 2525 4250 2034 4250 
z
M 2034 4750 
Q 2819 4750 3233 4129 
Q 3647 3509 3647 2328 
Q 3647 1150 3233 529 
Q 2819 -91 2034 -91 
Q 1250 -91 836 529 
Q 422 1150 422 2328 
Q 422 3509 836 4129 
Q 1250 4750 2034 4750 
z
" transform="scale(0.015625)"/>
       </defs>
       <use xlink:href="#DejaVuSans-30"/>
      </g>
     </g>
    </g>
    <g id="xtick_2">
     <g id="line2d_2">
      <g>
       <use xlink:href="#m0dc65aceb7" x="185.744822" y="629.2" style="stroke: #000000; stroke-width: 1.5"/>
      </g>
     </g>
     <g id="text_2">
      <!-- 200 -->
      <g transform="translate(166.657322 651.396875) scale(0.2 -0.2)">
       <defs>
        <path id="DejaVuSans-32" d="M 1228 531 
L 3431 531 
L 3431 0 
L 469 0 
L 469 531 
Q 828 903 1448 1529 
Q 2069 2156 2228 2338 
Q 2531 2678 2651 2914 
Q 2772 3150 2772 3378 
Q 2772 3750 2511 3984 
Q 2250 4219 1831 4219 
Q 1534 4219 1204 4116 
Q 875 4013 500 3803 
L 500 4441 
Q 881 4594 1212 4672 
Q 1544 4750 1819 4750 
Q 2544 4750 2975 4387 
Q 3406 4025 3406 3419 
Q 3406 3131 3298 2873 
Q 3191 2616 2906 2266 
Q 2828 2175 2409 1742 
Q 1991 1309 1228 531 
z
" transform="scale(0.015625)"/>
       </defs>
       <use xlink:href="#DejaVuSans-32"/>
       <use xlink:href="#DejaVuSans-30" x="63.623047"/>
       <use xlink:href="#DejaVuSans-30" x="127.246094"/>
      </g>
     </g>
    </g>
    <g id="xtick_3">
     <g id="line2d_3">
      <g>
       <use xlink:href="#m0dc65aceb7" x="264.3689" y="629.2" style="stroke: #000000; stroke-width: 1.5"/>
      </g>
     </g>
     <g id="text_3">
      <!-- 400 -->
      <g transform="translate(245.2814 651.396875) scale(0.2 -0.2)">
       <defs>
        <path id="DejaVuSans-34" d="M 2419 4116 
L 825 1625 
L 2419 1625 
L 2419 4116 
z
M 2253 4666 
L 3047 4666 
L 3047 1625 
L 3713 1625 
L 3713 1100 
L 3047 1100 
L 3047 0 
L 2419 0 
L 2419 1100 
L 313 1100 
L 313 1709 
L 2253 4666 
z
" transform="scale(0.015625)"/>
       </defs>
       <use xlink:href="#DejaVuSans-34"/>
       <use xlink:href="#DejaVuSans-30" x="63.623047"/>
       <use xlink:href="#DejaVuSans-30" x="127.246094"/>
      </g>
     </g>
    </g>
    <g id="xtick_4">
     <g id="line2d_4">
      <g>
       <use xlink:href="#m0dc65aceb7" x="342.992979" y="629.2" style="stroke: #000000; stroke-width: 1.5"/>
      </g>
     </g>
     <g id="text_4">
      <!-- 600 -->
      <g transform="translate(323.905479 651.396875) scale(0.2 -0.2)">
       <defs>
        <path id="DejaVuSans-36" d="M 2113 2584 
Q 1688 2584 1439 2293 
Q 1191 2003 1191 1497 
Q 1191 994 1439 701 
Q 1688 409 2113 409 
Q 2538 409 2786 701 
Q 3034 994 3034 1497 
Q 3034 2003 2786 2293 
Q 2538 2584 2113 2584 
z
M 3366 4563 
L 3366 3988 
Q 3128 4100 2886 4159 
Q 2644 4219 2406 4219 
Q 1781 4219 1451 3797 
Q 1122 3375 1075 2522 
Q 1259 2794 1537 2939 
Q 1816 3084 2150 3084 
Q 2853 3084 3261 2657 
Q 3669 2231 3669 1497 
Q 3669 778 3244 343 
Q 2819 -91 2113 -91 
Q 1303 -91 875 529 
Q 447 1150 447 2328 
Q 447 3434 972 4092 
Q 1497 4750 2381 4750 
Q 2619 4750 2861 4703 
Q 3103 4656 3366 4563 
z
" transform="scale(0.015625)"/>
       </defs>
       <use xlink:href="#DejaVuSans-36"/>
       <use xlink:href="#DejaVuSans-30" x="63.623047"/>
       <use xlink:href="#DejaVuSans-30" x="127.246094"/>
      </g>
     </g>
    </g>
    <g id="xtick_5">
     <g id="line2d_5">
      <g>
       <use xlink:href="#m0dc65aceb7" x="421.617058" y="629.2" style="stroke: #000000; stroke-width: 1.5"/>
      </g>
     </g>
     <g id="text_5">
      <!-- 800 -->
      <g transform="translate(402.529558 651.396875) scale(0.2 -0.2)">
       <defs>
        <path id="DejaVuSans-38" d="M 2034 2216 
Q 1584 2216 1326 1975 
Q 1069 1734 1069 1313 
Q 1069 891 1326 650 
Q 1584 409 2034 409 
Q 2484 409 2743 651 
Q 3003 894 3003 1313 
Q 3003 1734 2745 1975 
Q 2488 2216 2034 2216 
z
M 1403 2484 
Q 997 2584 770 2862 
Q 544 3141 544 3541 
Q 544 4100 942 4425 
Q 1341 4750 2034 4750 
Q 2731 4750 3128 4425 
Q 3525 4100 3525 3541 
Q 3525 3141 3298 2862 
Q 3072 2584 2669 2484 
Q 3125 2378 3379 2068 
Q 3634 1759 3634 1313 
Q 3634 634 3220 271 
Q 2806 -91 2034 -91 
Q 1263 -91 848 271 
Q 434 634 434 1313 
Q 434 1759 690 2068 
Q 947 2378 1403 2484 
z
M 1172 3481 
Q 1172 3119 1398 2916 
Q 1625 2713 2034 2713 
Q 2441 2713 2670 2916 
Q 2900 3119 2900 3481 
Q 2900 3844 2670 4047 
Q 2441 4250 2034 4250 
Q 1625 4250 1398 4047 
Q 1172 3844 1172 3481 
z
" transform="scale(0.015625)"/>
       </defs>
       <use xlink:href="#DejaVuSans-38"/>
       <use xlink:href="#DejaVuSans-30" x="63.623047"/>
       <use xlink:href="#DejaVuSans-30" x="127.246094"/>
      </g>
     </g>
    </g>
    <g id="xtick_6">
     <g id="line2d_6">
      <g>
       <use xlink:href="#m0dc65aceb7" x="500.241136" y="629.2" style="stroke: #000000; stroke-width: 1.5"/>
      </g>
     </g>
     <g id="text_6">
      <!-- 1000 -->
      <g transform="translate(474.791136 651.396875) scale(0.2 -0.2)">
       <defs>
        <path id="DejaVuSans-31" d="M 794 531 
L 1825 531 
L 1825 4091 
L 703 3866 
L 703 4441 
L 1819 4666 
L 2450 4666 
L 2450 531 
L 3481 531 
L 3481 0 
L 794 0 
L 794 531 
z
" transform="scale(0.015625)"/>
       </defs>
       <use xlink:href="#DejaVuSans-31"/>
       <use xlink:href="#DejaVuSans-30" x="63.623047"/>
       <use xlink:href="#DejaVuSans-30" x="127.246094"/>
       <use xlink:href="#DejaVuSans-30" x="190.869141"/>
      </g>
     </g>
    </g>
    <g id="text_7">
     <!-- Resistivity  [$\Omega m$] -->
     <g transform="translate(190.7175 688.79625) scale(0.24 -0.24)">
      <defs>
       <path id="DejaVuSans-Bold-52" d="M 2297 2597 
Q 2675 2597 2839 2737 
Q 3003 2878 3003 3200 
Q 3003 3519 2839 3656 
Q 2675 3794 2297 3794 
L 1791 3794 
L 1791 2597 
L 2297 2597 
z
M 1791 1766 
L 1791 0 
L 588 0 
L 588 4666 
L 2425 4666 
Q 3347 4666 3776 4356 
Q 4206 4047 4206 3378 
Q 4206 2916 3982 2619 
Q 3759 2322 3309 2181 
Q 3556 2125 3751 1926 
Q 3947 1728 4147 1325 
L 4800 0 
L 3519 0 
L 2950 1159 
Q 2778 1509 2601 1637 
Q 2425 1766 2131 1766 
L 1791 1766 
z
" transform="scale(0.015625)"/>
       <path id="DejaVuSans-Bold-65" d="M 4031 1759 
L 4031 1441 
L 1416 1441 
Q 1456 1047 1700 850 
Q 1944 653 2381 653 
Q 2734 653 3104 758 
Q 3475 863 3866 1075 
L 3866 213 
Q 3469 63 3072 -14 
Q 2675 -91 2278 -91 
Q 1328 -91 801 392 
Q 275 875 275 1747 
Q 275 2603 792 3093 
Q 1309 3584 2216 3584 
Q 3041 3584 3536 3087 
Q 4031 2591 4031 1759 
z
M 2881 2131 
Q 2881 2450 2695 2645 
Q 2509 2841 2209 2841 
Q 1884 2841 1681 2658 
Q 1478 2475 1428 2131 
L 2881 2131 
z
" transform="scale(0.015625)"/>
       <path id="DejaVuSans-Bold-73" d="M 3272 3391 
L 3272 2541 
Q 2913 2691 2578 2766 
Q 2244 2841 1947 2841 
Q 1628 2841 1473 2761 
Q 1319 2681 1319 2516 
Q 1319 2381 1436 2309 
Q 1553 2238 1856 2203 
L 2053 2175 
Q 2913 2066 3209 1816 
Q 3506 1566 3506 1031 
Q 3506 472 3093 190 
Q 2681 -91 1863 -91 
Q 1516 -91 1145 -36 
Q 775 19 384 128 
L 384 978 
Q 719 816 1070 734 
Q 1422 653 1784 653 
Q 2113 653 2278 743 
Q 2444 834 2444 1013 
Q 2444 1163 2330 1236 
Q 2216 1309 1875 1350 
L 1678 1375 
Q 931 1469 631 1722 
Q 331 1975 331 2491 
Q 331 3047 712 3315 
Q 1094 3584 1881 3584 
Q 2191 3584 2531 3537 
Q 2872 3491 3272 3391 
z
" transform="scale(0.015625)"/>
       <path id="DejaVuSans-Bold-69" d="M 538 3500 
L 1656 3500 
L 1656 0 
L 538 0 
L 538 3500 
z
M 538 4863 
L 1656 4863 
L 1656 3950 
L 538 3950 
L 538 4863 
z
" transform="scale(0.015625)"/>
       <path id="DejaVuSans-Bold-74" d="M 1759 4494 
L 1759 3500 
L 2913 3500 
L 2913 2700 
L 1759 2700 
L 1759 1216 
Q 1759 972 1856 886 
Q 1953 800 2241 800 
L 2816 800 
L 2816 0 
L 1856 0 
Q 1194 0 917 276 
Q 641 553 641 1216 
L 641 2700 
L 84 2700 
L 84 3500 
L 641 3500 
L 641 4494 
L 1759 4494 
z
" transform="scale(0.015625)"/>
       <path id="DejaVuSans-Bold-76" d="M 97 3500 
L 1216 3500 
L 2088 1081 
L 2956 3500 
L 4078 3500 
L 2700 0 
L 1472 0 
L 97 3500 
z
" transform="scale(0.015625)"/>
       <path id="DejaVuSans-Bold-79" d="M 78 3500 
L 1197 3500 
L 2138 1125 
L 2938 3500 
L 4056 3500 
L 2584 -331 
Q 2363 -916 2067 -1148 
Q 1772 -1381 1288 -1381 
L 641 -1381 
L 641 -647 
L 991 -647 
Q 1275 -647 1404 -556 
Q 1534 -466 1606 -231 
L 1638 -134 
L 78 3500 
z
" transform="scale(0.015625)"/>
       <path id="DejaVuSans-Bold-20" transform="scale(0.015625)"/>
       <path id="DejaVuSans-Bold-5b" d="M 550 4863 
L 2491 4863 
L 2491 4159 
L 1613 4159 
L 1613 -141 
L 2491 -141 
L 2491 -844 
L 550 -844 
L 550 4863 
z
" transform="scale(0.015625)"/>
       <path id="DejaVuSans-Bold-3a9" d="M 2719 4750 
Q 3841 4750 4480 4106 
Q 5119 3463 5119 2494 
Q 5119 1406 4306 909 
L 5266 909 
L 5266 0 
L 3125 0 
L 3125 975 
Q 3244 1041 3334 1131 
Q 3875 1678 3875 2466 
Q 3875 3066 3572 3472 
Q 3269 3878 2719 3878 
Q 2169 3878 1866 3472 
Q 1563 3066 1563 2466 
Q 1563 1678 2103 1131 
Q 2194 1041 2313 975 
L 2313 0 
L 172 0 
L 172 909 
L 1131 909 
Q 319 1406 319 2494 
Q 319 3463 958 4106 
Q 1597 4750 2719 4750 
z
" transform="scale(0.015625)"/>
       <path id="DejaVuSans-Bold-6d" d="M 3781 2919 
Q 3994 3244 4286 3414 
Q 4578 3584 4928 3584 
Q 5531 3584 5847 3212 
Q 6163 2841 6163 2131 
L 6163 0 
L 5038 0 
L 5038 1825 
Q 5041 1866 5042 1909 
Q 5044 1953 5044 2034 
Q 5044 2406 4934 2573 
Q 4825 2741 4581 2741 
Q 4263 2741 4089 2478 
Q 3916 2216 3909 1719 
L 3909 0 
L 2784 0 
L 2784 1825 
Q 2784 2406 2684 2573 
Q 2584 2741 2328 2741 
Q 2006 2741 1831 2477 
Q 1656 2213 1656 1722 
L 1656 0 
L 531 0 
L 531 3500 
L 1656 3500 
L 1656 2988 
Q 1863 3284 2130 3434 
Q 2397 3584 2719 3584 
Q 3081 3584 3359 3409 
Q 3638 3234 3781 2919 
z
" transform="scale(0.015625)"/>
       <path id="DejaVuSans-Bold-5d" d="M 2375 -844 
L 434 -844 
L 434 -141 
L 1313 -141 
L 1313 4159 
L 434 4159 
L 434 4863 
L 2375 4863 
L 2375 -844 
z
" transform="scale(0.015625)"/>
      </defs>
      <use xlink:href="#DejaVuSans-Bold-52" transform="translate(0 0.015625)"/>
      <use xlink:href="#DejaVuSans-Bold-65" transform="translate(77.001953 0.015625)"/>
      <use xlink:href="#DejaVuSans-Bold-73" transform="translate(144.824219 0.015625)"/>
      <use xlink:href="#DejaVuSans-Bold-69" transform="translate(204.345703 0.015625)"/>
      <use xlink:href="#DejaVuSans-Bold-73" transform="translate(238.623047 0.015625)"/>
      <use xlink:href="#DejaVuSans-Bold-74" transform="translate(298.144531 0.015625)"/>
      <use xlink:href="#DejaVuSans-Bold-69" transform="translate(345.947266 0.015625)"/>
      <use xlink:href="#DejaVuSans-Bold-76" transform="translate(380.224609 0.015625)"/>
      <use xlink:href="#DejaVuSans-Bold-69" transform="translate(445.410156 0.015625)"/>
      <use xlink:href="#DejaVuSans-Bold-74" transform="translate(479.6875 0.015625)"/>
      <use xlink:href="#DejaVuSans-Bold-79" transform="translate(527.490234 0.015625)"/>
      <use xlink:href="#DejaVuSans-Bold-20" transform="translate(592.675781 0.015625)"/>
      <use xlink:href="#DejaVuSans-Bold-20" transform="translate(627.490234 0.015625)"/>
      <use xlink:href="#DejaVuSans-Bold-5b" transform="translate(662.304688 0.015625)"/>
      <use xlink:href="#DejaVuSans-Bold-3a9" transform="translate(708.007812 0.015625)"/>
      <use xlink:href="#DejaVuSans-Bold-6d" transform="translate(793.017578 0.015625)"/>
      <use xlink:href="#DejaVuSans-Bold-5d" transform="translate(897.216797 0.015625)"/>
     </g>
    </g>
   </g>
   <g id="matplotlib.axis_2">
    <g id="ytick_1">
     <g id="line2d_7">
      <defs>
       <path id="m2e825f03b8" d="M 0 0 
L -3.5 0 
" style="stroke: #000000; stroke-width: 1.5"/>
      </defs>
      <g>
       <use xlink:href="#m2e825f03b8" x="77.8775" y="35.018182" style="stroke: #000000; stroke-width: 1.5"/>
      </g>
     </g>
     <g id="text_8">
      <!-- 0 -->
      <g transform="translate(58.1525 42.616619) scale(0.2 -0.2)">
       <use xlink:href="#DejaVuSans-30"/>
      </g>
     </g>
    </g>
    <g id="ytick_2">
     <g id="line2d_8">
      <g>
       <use xlink:href="#m2e825f03b8" x="77.8775" y="153.393424" style="stroke: #000000; stroke-width: 1.5"/>
      </g>
     </g>
     <g id="text_9">
      <!-- 5 -->
      <g transform="translate(58.1525 160.991861) scale(0.2 -0.2)">
       <defs>
        <path id="DejaVuSans-35" d="M 691 4666 
L 3169 4666 
L 3169 4134 
L 1269 4134 
L 1269 2991 
Q 1406 3038 1543 3061 
Q 1681 3084 1819 3084 
Q 2600 3084 3056 2656 
Q 3513 2228 3513 1497 
Q 3513 744 3044 326 
Q 2575 -91 1722 -91 
Q 1428 -91 1123 -41 
Q 819 9 494 109 
L 494 744 
Q 775 591 1075 516 
Q 1375 441 1709 441 
Q 2250 441 2565 725 
Q 2881 1009 2881 1497 
Q 2881 1984 2565 2268 
Q 2250 2553 1709 2553 
Q 1456 2553 1204 2497 
Q 953 2441 691 2322 
L 691 4666 
z
" transform="scale(0.015625)"/>
       </defs>
       <use xlink:href="#DejaVuSans-35"/>
      </g>
     </g>
    </g>
    <g id="ytick_3">
     <g id="line2d_9">
      <g>
       <use xlink:href="#m2e825f03b8" x="77.8775" y="271.768665" style="stroke: #000000; stroke-width: 1.5"/>
      </g>
     </g>
     <g id="text_10">
      <!-- 10 -->
      <g transform="translate(45.4275 279.367103) scale(0.2 -0.2)">
       <use xlink:href="#DejaVuSans-31"/>
       <use xlink:href="#DejaVuSans-30" x="63.623047"/>
      </g>
     </g>
    </g>
    <g id="ytick_4">
     <g id="line2d_10">
      <g>
       <use xlink:href="#m2e825f03b8" x="77.8775" y="390.143907" style="stroke: #000000; stroke-width: 1.5"/>
      </g>
     </g>
     <g id="text_11">
      <!-- 15 -->
      <g transform="translate(45.4275 397.742345) scale(0.2 -0.2)">
       <use xlink:href="#DejaVuSans-31"/>
       <use xlink:href="#DejaVuSans-35" x="63.623047"/>
      </g>
     </g>
    </g>
    <g id="ytick_5">
     <g id="line2d_11">
      <g>
       <use xlink:href="#m2e825f03b8" x="77.8775" y="508.519149" style="stroke: #000000; stroke-width: 1.5"/>
      </g>
     </g>
     <g id="text_12">
      <!-- 20 -->
      <g transform="translate(45.4275 516.117586) scale(0.2 -0.2)">
       <use xlink:href="#DejaVuSans-32"/>
       <use xlink:href="#DejaVuSans-30" x="63.623047"/>
      </g>
     </g>
    </g>
    <g id="text_13">
     <!-- Depth [m] -->
     <g transform="translate(25.43625 381.819375) rotate(-90) scale(0.24 -0.24)">
      <defs>
       <path id="DejaVuSans-Bold-44" d="M 1791 3756 
L 1791 909 
L 2222 909 
Q 2959 909 3348 1275 
Q 3738 1641 3738 2338 
Q 3738 3031 3350 3393 
Q 2963 3756 2222 3756 
L 1791 3756 
z
M 588 4666 
L 1856 4666 
Q 2919 4666 3439 4514 
Q 3959 4363 4331 4000 
Q 4659 3684 4818 3271 
Q 4978 2859 4978 2338 
Q 4978 1809 4818 1395 
Q 4659 981 4331 666 
Q 3956 303 3431 151 
Q 2906 0 1856 0 
L 588 0 
L 588 4666 
z
" transform="scale(0.015625)"/>
       <path id="DejaVuSans-Bold-70" d="M 1656 506 
L 1656 -1331 
L 538 -1331 
L 538 3500 
L 1656 3500 
L 1656 2988 
Q 1888 3294 2169 3439 
Q 2450 3584 2816 3584 
Q 3463 3584 3878 3070 
Q 4294 2556 4294 1747 
Q 4294 938 3878 423 
Q 3463 -91 2816 -91 
Q 2450 -91 2169 54 
Q 1888 200 1656 506 
z
M 2400 2772 
Q 2041 2772 1848 2508 
Q 1656 2244 1656 1747 
Q 1656 1250 1848 986 
Q 2041 722 2400 722 
Q 2759 722 2948 984 
Q 3138 1247 3138 1747 
Q 3138 2247 2948 2509 
Q 2759 2772 2400 2772 
z
" transform="scale(0.015625)"/>
       <path id="DejaVuSans-Bold-68" d="M 4056 2131 
L 4056 0 
L 2931 0 
L 2931 347 
L 2931 1625 
Q 2931 2084 2911 2256 
Q 2891 2428 2841 2509 
Q 2775 2619 2662 2680 
Q 2550 2741 2406 2741 
Q 2056 2741 1856 2470 
Q 1656 2200 1656 1722 
L 1656 0 
L 538 0 
L 538 4863 
L 1656 4863 
L 1656 2988 
Q 1909 3294 2193 3439 
Q 2478 3584 2822 3584 
Q 3428 3584 3742 3212 
Q 4056 2841 4056 2131 
z
" transform="scale(0.015625)"/>
      </defs>
      <use xlink:href="#DejaVuSans-Bold-44"/>
      <use xlink:href="#DejaVuSans-Bold-65" x="83.007812"/>
      <use xlink:href="#DejaVuSans-Bold-70" x="150.830078"/>
      <use xlink:href="#DejaVuSans-Bold-74" x="222.412109"/>
      <use xlink:href="#DejaVuSans-Bold-68" x="270.214844"/>
      <use xlink:href="#DejaVuSans-Bold-20" x="341.40625"/>
      <use xlink:href="#DejaVuSans-Bold-5b" x="376.220703"/>
      <use xlink:href="#DejaVuSans-Bold-6d" x="421.923828"/>
      <use xlink:href="#DejaVuSans-Bold-5d" x="526.123047"/>
     </g>
    </g>
   </g>
   <g id="line2d_12">
    <path d="M 395.502337 35.018182 
L 395.502337 46.855706 
L 420.713461 46.855706 
L 420.713461 58.69323 
L 444.569516 58.69323 
L 444.569516 70.530754 
L 428.01359 70.530754 
L 428.01359 82.368279 
L 435.372648 82.368279 
L 435.372648 94.205803 
L 457.413208 94.205803 
L 457.413208 106.043327 
L 447.534739 106.043327 
L 447.534739 117.880851 
L 454.639747 117.880851 
L 454.639747 129.718375 
L 482.239274 129.718375 
L 482.239274 141.555899 
L 487.99617 141.555899 
L 487.99617 153.393424 
L 483.31774 153.393424 
L 483.31774 165.230948 
L 500.241136 165.230948 
L 500.241136 177.068472 
L 496.795142 177.068472 
L 496.795142 188.905996 
L 491.355281 188.905996 
L 491.355281 200.74352 
L 500.241136 200.74352 
L 500.241136 212.581044 
L 500.241136 212.581044 
L 500.241136 224.418569 
L 488.905717 224.418569 
L 488.905717 236.256093 
L 493.289355 236.256093 
L 493.289355 248.093617 
L 490.247543 248.093617 
L 490.247543 259.931141 
L 500.241136 259.931141 
L 500.241136 271.768665 
L 495.21827 271.768665 
L 495.21827 283.60619 
L 500.241136 283.60619 
L 500.241136 295.443714 
L 500.241136 295.443714 
L 500.241136 307.281238 
L 483.112134 307.281238 
L 483.112134 319.118762 
L 493.856841 319.118762 
L 493.856841 330.956286 
L 498.563152 330.956286 
L 498.563152 342.79381 
L 479.747121 342.79381 
L 479.747121 354.631335 
L 485.569568 354.631335 
L 485.569568 366.468859 
L 472.648471 366.468859 
L 472.648471 378.306383 
L 500.241136 378.306383 
L 500.241136 390.143907 
L 500.22638 390.143907 
L 500.22638 401.981431 
L 498.1201 401.981431 
L 498.1201 413.818956 
L 499.000134 413.818956 
L 499.000134 425.65648 
L 478.461849 425.65648 
L 478.461849 437.494004 
L 488.193906 437.494004 
L 488.193906 449.331528 
L 483.635063 449.331528 
L 483.635063 461.169052 
L 493.166265 461.169052 
L 493.166265 473.006576 
L 493.04735 473.006576 
L 493.04735 484.844101 
L 500.241136 484.844101 
L 500.241136 496.681625 
L 500.241136 496.681625 
L 500.241136 508.519149 
L 499.831436 508.519149 
L 499.831436 520.356673 
L 500.241136 520.356673 
L 500.241136 532.194197 
L 500.241136 532.194197 
L 500.241136 544.031721 
L 478.220084 544.031721 
L 478.220084 555.869246 
L 488.954737 555.869246 
L 488.954737 567.70677 
L 488.561521 567.70677 
L 488.561521 579.544294 
L 487.608545 579.544294 
L 487.608545 591.381818 
L 500.241136 591.381818 
" clip-path="url(#pc72fe35cd8)" style="fill: none; stroke: #000000; stroke-opacity: 0.5; stroke-width: 2; stroke-linecap: square"/>
   </g>
   <g id="line2d_13">
    <path d="M 192.654152 35.018182 
L 192.654152 46.855706 
L 196.124649 46.855706 
L 196.124649 58.69323 
L 194.523729 58.69323 
L 194.523729 70.530754 
L 181.825567 70.530754 
L 181.825567 82.368279 
L 170.255545 82.368279 
L 170.255545 94.205803 
L 187.197021 94.205803 
L 187.197021 106.043327 
L 188.535997 106.043327 
L 188.535997 117.880851 
L 213.9911 117.880851 
L 213.9911 129.718375 
L 239.478062 129.718375 
L 239.478062 141.555899 
L 244.680213 141.555899 
L 244.680213 153.393424 
L 219.547501 153.393424 
L 219.547501 165.230948 
L 224.310571 165.230948 
L 224.310571 177.068472 
L 214.020133 177.068472 
L 214.020133 188.905996 
L 239.758998 188.905996 
L 239.758998 200.74352 
L 265.1436 200.74352 
L 265.1436 212.581044 
L 252.389814 212.581044 
L 252.389814 224.418569 
L 278.534 224.418569 
L 278.534 236.256093 
L 286.769205 236.256093 
L 286.769205 248.093617 
L 283.989121 248.093617 
L 283.989121 259.931141 
L 291.102455 259.931141 
L 291.102455 271.768665 
L 280.11723 271.768665 
L 280.11723 283.60619 
L 293.041471 283.60619 
L 293.041471 295.443714 
L 285.969215 295.443714 
L 285.969215 307.281238 
L 247.533251 307.281238 
L 247.533251 319.118762 
L 255.695778 319.118762 
L 255.695778 330.956286 
L 278.777252 330.956286 
L 278.777252 342.79381 
L 267.23961 342.79381 
L 267.23961 354.631335 
L 255.052254 354.631335 
L 255.052254 366.468859 
L 257.023003 366.468859 
L 257.023003 378.306383 
L 247.057651 378.306383 
L 247.057651 390.143907 
L 242.420802 390.143907 
L 242.420802 401.981431 
L 241.167647 401.981431 
L 241.167647 413.818956 
L 236.450574 413.818956 
L 236.450574 425.65648 
L 225.907298 425.65648 
L 225.907298 437.494004 
L 238.467644 437.494004 
L 238.467644 449.331528 
L 244.342051 449.331528 
L 244.342051 461.169052 
L 253.152048 461.169052 
L 253.152048 473.006576 
L 229.652751 473.006576 
L 229.652751 484.844101 
L 219.892045 484.844101 
L 219.892045 496.681625 
L 255.940818 496.681625 
L 255.940818 508.519149 
L 265.614785 508.519149 
L 265.614785 520.356673 
L 269.418268 520.356673 
L 269.418268 532.194197 
L 265.779409 532.194197 
L 265.779409 544.031721 
L 265.221905 544.031721 
L 265.221905 555.869246 
L 249.842401 555.869246 
L 249.842401 567.70677 
L 263.693237 567.70677 
L 263.693237 579.544294 
L 263.811012 579.544294 
L 263.811012 591.381818 
L 276.497795 591.381818 
" clip-path="url(#pc72fe35cd8)" style="fill: none; stroke: #000000; stroke-opacity: 0.5; stroke-width: 2; stroke-linecap: square"/>
   </g>
   <g id="line2d_14">
    <path d="M 398.347205 35.018182 
L 398.347205 46.855706 
L 412.549567 46.855706 
L 412.549567 58.69323 
L 414.656734 58.69323 
L 414.656734 70.530754 
L 416.937404 70.530754 
L 416.937404 82.368279 
L 433.796976 82.368279 
L 433.796976 94.205803 
L 430.741055 94.205803 
L 430.741055 106.043327 
L 406.833893 106.043327 
L 406.833893 117.880851 
L 388.611837 117.880851 
L 388.611837 129.718375 
L 361.843035 129.718375 
L 361.843035 141.555899 
L 393.32573 141.555899 
L 393.32573 153.393424 
L 385.695322 153.393424 
L 385.695322 165.230948 
L 388.110575 165.230948 
L 388.110575 177.068472 
L 355.435273 177.068472 
L 355.435273 188.905996 
L 362.061142 188.905996 
L 362.061142 200.74352 
L 336.391489 200.74352 
L 336.391489 212.581044 
L 343.17104 212.581044 
L 343.17104 224.418569 
L 358.081302 224.418569 
L 358.081302 236.256093 
L 344.49259 236.256093 
L 344.49259 248.093617 
L 322.695236 248.093617 
L 322.695236 259.931141 
L 326.547619 259.931141 
L 326.547619 271.768665 
L 335.080519 271.768665 
L 335.080519 283.60619 
L 352.751646 283.60619 
L 352.751646 295.443714 
L 337.337722 295.443714 
L 337.337722 307.281238 
L 364.008484 307.281238 
L 364.008484 319.118762 
L 373.971533 319.118762 
L 373.971533 330.956286 
L 370.784724 330.956286 
L 370.784724 342.79381 
L 399.074924 342.79381 
L 399.074924 354.631335 
L 389.705731 354.631335 
L 389.705731 366.468859 
L 397.651686 366.468859 
L 397.651686 378.306383 
L 401.969844 378.306383 
L 401.969844 390.143907 
L 419.158832 390.143907 
L 419.158832 401.981431 
L 477.187951 401.981431 
L 477.187951 413.818956 
L 500.241136 413.818956 
L 500.241136 425.65648 
L 473.098409 425.65648 
L 473.098409 437.494004 
L 463.912771 437.494004 
L 463.912771 449.331528 
L 461.652185 449.331528 
L 461.652185 461.169052 
L 440.33205 461.169052 
L 440.33205 473.006576 
L 418.447021 473.006576 
L 418.447021 484.844101 
L 432.847886 484.844101 
L 432.847886 496.681625 
L 448.71933 496.681625 
L 448.71933 508.519149 
L 461.735421 508.519149 
L 461.735421 520.356673 
L 468.952818 520.356673 
L 468.952818 532.194197 
L 458.912603 532.194197 
L 458.912603 544.031721 
L 436.327664 544.031721 
L 436.327664 555.869246 
L 419.618848 555.869246 
L 419.618848 567.70677 
L 424.277267 567.70677 
L 424.277267 579.544294 
L 428.255907 579.544294 
L 428.255907 591.381818 
L 444.431405 591.381818 
" clip-path="url(#pc72fe35cd8)" style="fill: none; stroke: #000000; stroke-opacity: 0.5; stroke-width: 2; stroke-linecap: square"/>
   </g>
   <g id="line2d_15">
    <path d="M 165.2581 35.018182 
L 165.2581 46.855706 
L 180.464744 46.855706 
L 180.464744 58.69323 
L 148.586406 58.69323 
L 148.586406 70.530754 
L 149.634912 70.530754 
L 149.634912 82.368279 
L 179.853073 82.368279 
L 179.853073 94.205803 
L 175.173677 94.205803 
L 175.173677 106.043327 
L 189.294009 106.043327 
L 189.294009 117.880851 
L 216.931441 117.880851 
L 216.931441 129.718375 
L 186.040466 129.718375 
L 186.040466 141.555899 
L 172.973178 141.555899 
L 172.973178 153.393424 
L 177.371626 153.393424 
L 177.371626 165.230948 
L 179.852143 165.230948 
L 179.852143 177.068472 
L 190.332746 177.068472 
L 190.332746 188.905996 
L 150.865351 188.905996 
L 150.865351 200.74352 
L 173.241637 200.74352 
L 173.241637 212.581044 
L 165.271039 212.581044 
L 165.271039 224.418569 
L 146.096822 224.418569 
L 146.096822 236.256093 
L 159.069957 236.256093 
L 159.069957 248.093617 
L 145.794031 248.093617 
L 145.794031 259.931141 
L 127.086919 259.931141 
L 127.086919 271.768665 
L 107.513864 271.768665 
L 107.513864 283.60619 
L 107.513864 283.60619 
L 107.513864 295.443714 
L 107.513864 295.443714 
L 107.513864 307.281238 
L 107.513864 307.281238 
L 107.513864 319.118762 
L 107.513864 319.118762 
L 107.513864 330.956286 
L 127.059623 330.956286 
L 127.059623 342.79381 
L 150.835154 342.79381 
L 150.835154 354.631335 
L 187.698475 354.631335 
L 187.698475 366.468859 
L 175.92335 366.468859 
L 175.92335 378.306383 
L 172.851647 378.306383 
L 172.851647 390.143907 
L 196.861762 390.143907 
L 196.861762 401.981431 
L 194.104845 401.981431 
L 194.104845 413.818956 
L 160.136798 413.818956 
L 160.136798 425.65648 
L 165.208714 425.65648 
L 165.208714 437.494004 
L 193.538306 437.494004 
L 193.538306 449.331528 
L 213.635783 449.331528 
L 213.635783 461.169052 
L 224.46898 461.169052 
L 224.46898 473.006576 
L 236.180736 473.006576 
L 236.180736 484.844101 
L 234.258215 484.844101 
L 234.258215 496.681625 
L 224.255324 496.681625 
L 224.255324 508.519149 
L 237.023915 508.519149 
L 237.023915 520.356673 
L 251.214112 520.356673 
L 251.214112 532.194197 
L 261.705764 532.194197 
L 261.705764 544.031721 
L 275.034739 544.031721 
L 275.034739 555.869246 
L 266.731774 555.869246 
L 266.731774 567.70677 
L 243.206683 567.70677 
L 243.206683 579.544294 
L 240.008597 579.544294 
L 240.008597 591.381818 
L 241.365599 591.381818 
" clip-path="url(#pc72fe35cd8)" style="fill: none; stroke: #000000; stroke-opacity: 0.5; stroke-width: 2; stroke-linecap: square"/>
   </g>
   <g id="line2d_16">
    <path d="M 206.616452 35.018182 
L 206.616452 46.855706 
L 188.421497 46.855706 
L 188.421497 58.69323 
L 176.971536 58.69323 
L 176.971536 70.530754 
L 163.893852 70.530754 
L 163.893852 82.368279 
L 128.688219 82.368279 
L 128.688219 94.205803 
L 110.784592 94.205803 
L 110.784592 106.043327 
L 129.550775 106.043327 
L 129.550775 117.880851 
L 107.513864 117.880851 
L 107.513864 129.718375 
L 107.513864 129.718375 
L 107.513864 141.555899 
L 127.608152 141.555899 
L 127.608152 153.393424 
L 114.702073 153.393424 
L 114.702073 165.230948 
L 107.513864 165.230948 
L 107.513864 177.068472 
L 128.722543 177.068472 
L 128.722543 188.905996 
L 114.571233 188.905996 
L 114.571233 200.74352 
L 124.159806 200.74352 
L 124.159806 212.581044 
L 107.513864 212.581044 
L 107.513864 224.418569 
L 107.513864 224.418569 
L 107.513864 236.256093 
L 115.607888 236.256093 
L 115.607888 248.093617 
L 114.919935 248.093617 
L 114.919935 259.931141 
L 130.208552 259.931141 
L 130.208552 271.768665 
L 205.470821 271.768665 
L 205.470821 283.60619 
L 186.899661 283.60619 
L 186.899661 295.443714 
L 216.334287 295.443714 
L 216.334287 307.281238 
L 216.571541 307.281238 
L 216.571541 319.118762 
L 218.317104 319.118762 
L 218.317104 330.956286 
L 251.258537 330.956286 
L 251.258537 342.79381 
L 215.108701 342.79381 
L 215.108701 354.631335 
L 206.734125 354.631335 
L 206.734125 366.468859 
L 194.298454 366.468859 
L 194.298454 378.306383 
L 193.160722 378.306383 
L 193.160722 390.143907 
L 174.831442 390.143907 
L 174.831442 401.981431 
L 169.295868 401.981431 
L 169.295868 413.818956 
L 161.37642 413.818956 
L 161.37642 425.65648 
L 171.470561 425.65648 
L 171.470561 437.494004 
L 186.461438 437.494004 
L 186.461438 449.331528 
L 160.699833 449.331528 
L 160.699833 461.169052 
L 176.377278 461.169052 
L 176.377278 473.006576 
L 171.300023 473.006576 
L 171.300023 484.844101 
L 153.797347 484.844101 
L 153.797347 496.681625 
L 198.810664 496.681625 
L 198.810664 508.519149 
L 211.957283 508.519149 
L 211.957283 520.356673 
L 188.131845 520.356673 
L 188.131845 532.194197 
L 161.513535 532.194197 
L 161.513535 544.031721 
L 180.775342 544.031721 
L 180.775342 555.869246 
L 173.045982 555.869246 
L 173.045982 567.70677 
L 218.66472 567.70677 
L 218.66472 579.544294 
L 219.561082 579.544294 
L 219.561082 591.381818 
L 227.137263 591.381818 
" clip-path="url(#pc72fe35cd8)" style="fill: none; stroke: #000000; stroke-opacity: 0.5; stroke-width: 2; stroke-linecap: square"/>
   </g>
   <g id="patch_3">
    <path d="M 77.8775 619.2 
L 77.8775 7.2 
" style="fill: none; stroke: #000000; stroke-width: 2; stroke-linejoin: miter; stroke-linecap: square"/>
   </g>
   <g id="patch_4">
    <path d="M 87.8775 629.2 
L 519.8775 629.2 
" style="fill: none; stroke: #000000; stroke-width: 2; stroke-linejoin: miter; stroke-linecap: square"/>
   </g>
  </g>
 </g>
 <defs>
  <clipPath id="pc72fe35cd8">
   <rect x="87.8775" y="7.2" width="432" height="612"/>
  </clipPath>
 </defs>
</svg>
