<?xml version="1.0" encoding="utf-8" standalone="no"?>
<!DOCTYPE svg PUBLIC "-//W3C//DTD SVG 1.1//EN"
  "http://www.w3.org/Graphics/SVG/1.1/DTD/svg11.dtd">
<svg xmlns:xlink="http://www.w3.org/1999/xlink" width="442.298437pt" height="544.35625pt" viewBox="0 0 442.298437 544.35625" xmlns="http://www.w3.org/2000/svg" version="1.1">
 <metadata>
  <rdf:RDF xmlns:dc="http://purl.org/dc/elements/1.1/" xmlns:cc="http://creativecommons.org/ns#" xmlns:rdf="http://www.w3.org/1999/02/22-rdf-syntax-ns#">
   <cc:Work>
    <dc:type rdf:resource="http://purl.org/dc/dcmitype/StillImage"/>
    <dc:date>2024-07-31T20:00:48.142047</dc:date>
    <dc:format>image/svg+xml</dc:format>
    <dc:creator>
     <cc:Agent>
      <dc:title>Matplotlib v3.8.0, https://matplotlib.org/</dc:title>
     </cc:Agent>
    </dc:creator>
   </cc:Work>
  </rdf:RDF>
 </metadata>
 <defs>
  <style type="text/css">*{stroke-linejoin: round; stroke-linecap: butt}</style>
 </defs>
 <g id="figure_1">
  <g id="patch_1">
   <path d="M -0 544.35625 
L 442.298437 544.35625 
L 442.298437 0 
L -0 0 
z
" style="fill: #ffffff"/>
  </g>
  <g id="axes_1">
   <g id="patch_2">
    <path d="M 93.75625 466.2 
L 363.75625 466.2 
L 363.75625 7.2 
L 93.75625 7.2 
z
" style="fill: #ffffff"/>
   </g>
   <g id="PolyCollection_1">
    <defs>
     <path id="mcc1828474a" d="M 109.922772 -516.292614 
L 126.00799 -516.292614 
L 126.520875 -497.325671 
L 128.128249 -478.358729 
L 130.151747 -459.391787 
L 132.648753 -440.424845 
L 137.313095 -421.457903 
L 144.274182 -402.490961 
L 152.68848 -383.524019 
L 164.582966 -364.557076 
L 178.682449 -345.590134 
L 194.743797 -326.623192 
L 213.286172 -307.65625 
L 233.70322 -288.689308 
L 255.115563 -269.722366 
L 275.647372 -250.755424 
L 296.191113 -231.788481 
L 314.204409 -212.821539 
L 328.186914 -193.854597 
L 338.65052 -174.887655 
L 343.890534 -155.920713 
L 344.450576 -136.953771 
L 340.144856 -117.986829 
L 334.950852 -99.019886 
L 312.739412 -99.019886 
L 312.739412 -99.019886 
L 320.507882 -117.986829 
L 323.323637 -136.953771 
L 322.430536 -155.920713 
L 316.579606 -174.887655 
L 305.955981 -193.854597 
L 290.606996 -212.821539 
L 272.365313 -231.788481 
L 253.242211 -250.755424 
L 232.959448 -269.722366 
L 212.821487 -288.689308 
L 193.325762 -307.65625 
L 175.584402 -326.623192 
L 159.060439 -345.590134 
L 145.206968 -364.557076 
L 134.76492 -383.524019 
L 127.043823 -402.490961 
L 120.97731 -421.457903 
L 116.682287 -440.424845 
L 114.196014 -459.391787 
L 112.537973 -478.358729 
L 110.95277 -497.325671 
L 109.922772 -516.292614 
z
" style="stroke: #756bb1; stroke-opacity: 0.5"/>
    </defs>
    <g clip-path="url(#p77bc27a719)">
     <use xlink:href="#mcc1828474a" x="0" y="544.35625" style="fill: #756bb1; fill-opacity: 0.5; stroke: #756bb1; stroke-opacity: 0.5"/>
    </g>
   </g>
   <g id="matplotlib.axis_1">
    <g id="xtick_1">
     <g id="line2d_1">
      <defs>
       <path id="m4eef2d634d" d="M 0 0 
L 0 3.5 
" style="stroke: #000000; stroke-width: 1.5"/>
      </defs>
      <g>
       <use xlink:href="#m4eef2d634d" x="158.435867" y="476.2" style="stroke: #000000; stroke-width: 1.5"/>
      </g>
     </g>
     <g id="text_1">
      <!-- 100 -->
      <g transform="translate(139.348367 498.396875) scale(0.2 -0.2)">
       <defs>
        <path id="DejaVuSans-31" d="M 794 531 
L 1825 531 
L 1825 4091 
L 703 3866 
L 703 4441 
L 1819 4666 
L 2450 4666 
L 2450 531 
L 3481 531 
L 3481 0 
L 794 0 
L 794 531 
z
" transform="scale(0.015625)"/>
        <path id="DejaVuSans-30" d="M 2034 4250 
Q 1547 4250 1301 3770 
Q 1056 3291 1056 2328 
Q 1056 1369 1301 889 
Q 1547 409 2034 409 
Q 2525 409 2770 889 
Q 3016 1369 3016 2328 
Q 3016 3291 2770 3770 
Q 2525 4250 2034 4250 
z
M 2034 4750 
Q 2819 4750 3233 4129 
Q 3647 3509 3647 2328 
Q 3647 1150 3233 529 
Q 2819 -91 2034 -91 
Q 1250 -91 836 529 
Q 422 1150 422 2328 
Q 422 3509 836 4129 
Q 1250 4750 2034 4750 
z
" transform="scale(0.015625)"/>
       </defs>
       <use xlink:href="#DejaVuSans-31"/>
       <use xlink:href="#DejaVuSans-30" x="63.623047"/>
       <use xlink:href="#DejaVuSans-30" x="127.246094"/>
      </g>
     </g>
    </g>
    <g id="xtick_2">
     <g id="line2d_2">
      <g>
       <use xlink:href="#m4eef2d634d" x="292.254142" y="476.2" style="stroke: #000000; stroke-width: 1.5"/>
      </g>
     </g>
     <g id="text_2">
      <!-- 200 -->
      <g transform="translate(273.166642 498.396875) scale(0.2 -0.2)">
       <defs>
        <path id="DejaVuSans-32" d="M 1228 531 
L 3431 531 
L 3431 0 
L 469 0 
L 469 531 
Q 828 903 1448 1529 
Q 2069 2156 2228 2338 
Q 2531 2678 2651 2914 
Q 2772 3150 2772 3378 
Q 2772 3750 2511 3984 
Q 2250 4219 1831 4219 
Q 1534 4219 1204 4116 
Q 875 4013 500 3803 
L 500 4441 
Q 881 4594 1212 4672 
Q 1544 4750 1819 4750 
Q 2544 4750 2975 4387 
Q 3406 4025 3406 3419 
Q 3406 3131 3298 2873 
Q 3191 2616 2906 2266 
Q 2828 2175 2409 1742 
Q 1991 1309 1228 531 
z
" transform="scale(0.015625)"/>
       </defs>
       <use xlink:href="#DejaVuSans-32"/>
       <use xlink:href="#DejaVuSans-30" x="63.623047"/>
       <use xlink:href="#DejaVuSans-30" x="127.246094"/>
      </g>
     </g>
    </g>
    <g id="text_3">
     <!-- Apparent Resistivity [$\Omega m$] -->
     <g transform="translate(81.95625 532.75625) scale(0.2 -0.2)">
      <defs>
       <path id="DejaVuSans-Bold-41" d="M 3419 850 
L 1538 850 
L 1241 0 
L 31 0 
L 1759 4666 
L 3194 4666 
L 4922 0 
L 3713 0 
L 3419 850 
z
M 1838 1716 
L 3116 1716 
L 2478 3572 
L 1838 1716 
z
" transform="scale(0.015625)"/>
       <path id="DejaVuSans-Bold-70" d="M 1656 506 
L 1656 -1331 
L 538 -1331 
L 538 3500 
L 1656 3500 
L 1656 2988 
Q 1888 3294 2169 3439 
Q 2450 3584 2816 3584 
Q 3463 3584 3878 3070 
Q 4294 2556 4294 1747 
Q 4294 938 3878 423 
Q 3463 -91 2816 -91 
Q 2450 -91 2169 54 
Q 1888 200 1656 506 
z
M 2400 2772 
Q 2041 2772 1848 2508 
Q 1656 2244 1656 1747 
Q 1656 1250 1848 986 
Q 2041 722 2400 722 
Q 2759 722 2948 984 
Q 3138 1247 3138 1747 
Q 3138 2247 2948 2509 
Q 2759 2772 2400 2772 
z
" transform="scale(0.015625)"/>
       <path id="DejaVuSans-Bold-61" d="M 2106 1575 
Q 1756 1575 1579 1456 
Q 1403 1338 1403 1106 
Q 1403 894 1545 773 
Q 1688 653 1941 653 
Q 2256 653 2472 879 
Q 2688 1106 2688 1447 
L 2688 1575 
L 2106 1575 
z
M 3816 1997 
L 3816 0 
L 2688 0 
L 2688 519 
Q 2463 200 2181 54 
Q 1900 -91 1497 -91 
Q 953 -91 614 226 
Q 275 544 275 1050 
Q 275 1666 698 1953 
Q 1122 2241 2028 2241 
L 2688 2241 
L 2688 2328 
Q 2688 2594 2478 2717 
Q 2269 2841 1825 2841 
Q 1466 2841 1156 2769 
Q 847 2697 581 2553 
L 581 3406 
Q 941 3494 1303 3539 
Q 1666 3584 2028 3584 
Q 2975 3584 3395 3211 
Q 3816 2838 3816 1997 
z
" transform="scale(0.015625)"/>
       <path id="DejaVuSans-Bold-72" d="M 3138 2547 
Q 2991 2616 2845 2648 
Q 2700 2681 2553 2681 
Q 2122 2681 1889 2404 
Q 1656 2128 1656 1613 
L 1656 0 
L 538 0 
L 538 3500 
L 1656 3500 
L 1656 2925 
Q 1872 3269 2151 3426 
Q 2431 3584 2822 3584 
Q 2878 3584 2943 3579 
Q 3009 3575 3134 3559 
L 3138 2547 
z
" transform="scale(0.015625)"/>
       <path id="DejaVuSans-Bold-65" d="M 4031 1759 
L 4031 1441 
L 1416 1441 
Q 1456 1047 1700 850 
Q 1944 653 2381 653 
Q 2734 653 3104 758 
Q 3475 863 3866 1075 
L 3866 213 
Q 3469 63 3072 -14 
Q 2675 -91 2278 -91 
Q 1328 -91 801 392 
Q 275 875 275 1747 
Q 275 2603 792 3093 
Q 1309 3584 2216 3584 
Q 3041 3584 3536 3087 
Q 4031 2591 4031 1759 
z
M 2881 2131 
Q 2881 2450 2695 2645 
Q 2509 2841 2209 2841 
Q 1884 2841 1681 2658 
Q 1478 2475 1428 2131 
L 2881 2131 
z
" transform="scale(0.015625)"/>
       <path id="DejaVuSans-Bold-6e" d="M 4056 2131 
L 4056 0 
L 2931 0 
L 2931 347 
L 2931 1631 
Q 2931 2084 2911 2256 
Q 2891 2428 2841 2509 
Q 2775 2619 2662 2680 
Q 2550 2741 2406 2741 
Q 2056 2741 1856 2470 
Q 1656 2200 1656 1722 
L 1656 0 
L 538 0 
L 538 3500 
L 1656 3500 
L 1656 2988 
Q 1909 3294 2193 3439 
Q 2478 3584 2822 3584 
Q 3428 3584 3742 3212 
Q 4056 2841 4056 2131 
z
" transform="scale(0.015625)"/>
       <path id="DejaVuSans-Bold-74" d="M 1759 4494 
L 1759 3500 
L 2913 3500 
L 2913 2700 
L 1759 2700 
L 1759 1216 
Q 1759 972 1856 886 
Q 1953 800 2241 800 
L 2816 800 
L 2816 0 
L 1856 0 
Q 1194 0 917 276 
Q 641 553 641 1216 
L 641 2700 
L 84 2700 
L 84 3500 
L 641 3500 
L 641 4494 
L 1759 4494 
z
" transform="scale(0.015625)"/>
       <path id="DejaVuSans-Bold-20" transform="scale(0.015625)"/>
       <path id="DejaVuSans-Bold-52" d="M 2297 2597 
Q 2675 2597 2839 2737 
Q 3003 2878 3003 3200 
Q 3003 3519 2839 3656 
Q 2675 3794 2297 3794 
L 1791 3794 
L 1791 2597 
L 2297 2597 
z
M 1791 1766 
L 1791 0 
L 588 0 
L 588 4666 
L 2425 4666 
Q 3347 4666 3776 4356 
Q 4206 4047 4206 3378 
Q 4206 2916 3982 2619 
Q 3759 2322 3309 2181 
Q 3556 2125 3751 1926 
Q 3947 1728 4147 1325 
L 4800 0 
L 3519 0 
L 2950 1159 
Q 2778 1509 2601 1637 
Q 2425 1766 2131 1766 
L 1791 1766 
z
" transform="scale(0.015625)"/>
       <path id="DejaVuSans-Bold-73" d="M 3272 3391 
L 3272 2541 
Q 2913 2691 2578 2766 
Q 2244 2841 1947 2841 
Q 1628 2841 1473 2761 
Q 1319 2681 1319 2516 
Q 1319 2381 1436 2309 
Q 1553 2238 1856 2203 
L 2053 2175 
Q 2913 2066 3209 1816 
Q 3506 1566 3506 1031 
Q 3506 472 3093 190 
Q 2681 -91 1863 -91 
Q 1516 -91 1145 -36 
Q 775 19 384 128 
L 384 978 
Q 719 816 1070 734 
Q 1422 653 1784 653 
Q 2113 653 2278 743 
Q 2444 834 2444 1013 
Q 2444 1163 2330 1236 
Q 2216 1309 1875 1350 
L 1678 1375 
Q 931 1469 631 1722 
Q 331 1975 331 2491 
Q 331 3047 712 3315 
Q 1094 3584 1881 3584 
Q 2191 3584 2531 3537 
Q 2872 3491 3272 3391 
z
" transform="scale(0.015625)"/>
       <path id="DejaVuSans-Bold-69" d="M 538 3500 
L 1656 3500 
L 1656 0 
L 538 0 
L 538 3500 
z
M 538 4863 
L 1656 4863 
L 1656 3950 
L 538 3950 
L 538 4863 
z
" transform="scale(0.015625)"/>
       <path id="DejaVuSans-Bold-76" d="M 97 3500 
L 1216 3500 
L 2088 1081 
L 2956 3500 
L 4078 3500 
L 2700 0 
L 1472 0 
L 97 3500 
z
" transform="scale(0.015625)"/>
       <path id="DejaVuSans-Bold-79" d="M 78 3500 
L 1197 3500 
L 2138 1125 
L 2938 3500 
L 4056 3500 
L 2584 -331 
Q 2363 -916 2067 -1148 
Q 1772 -1381 1288 -1381 
L 641 -1381 
L 641 -647 
L 991 -647 
Q 1275 -647 1404 -556 
Q 1534 -466 1606 -231 
L 1638 -134 
L 78 3500 
z
" transform="scale(0.015625)"/>
       <path id="DejaVuSans-Bold-5b" d="M 550 4863 
L 2491 4863 
L 2491 4159 
L 1613 4159 
L 1613 -141 
L 2491 -141 
L 2491 -844 
L 550 -844 
L 550 4863 
z
" transform="scale(0.015625)"/>
       <path id="DejaVuSans-Bold-3a9" d="M 2719 4750 
Q 3841 4750 4480 4106 
Q 5119 3463 5119 2494 
Q 5119 1406 4306 909 
L 5266 909 
L 5266 0 
L 3125 0 
L 3125 975 
Q 3244 1041 3334 1131 
Q 3875 1678 3875 2466 
Q 3875 3066 3572 3472 
Q 3269 3878 2719 3878 
Q 2169 3878 1866 3472 
Q 1563 3066 1563 2466 
Q 1563 1678 2103 1131 
Q 2194 1041 2313 975 
L 2313 0 
L 172 0 
L 172 909 
L 1131 909 
Q 319 1406 319 2494 
Q 319 3463 958 4106 
Q 1597 4750 2719 4750 
z
" transform="scale(0.015625)"/>
       <path id="DejaVuSans-Bold-6d" d="M 3781 2919 
Q 3994 3244 4286 3414 
Q 4578 3584 4928 3584 
Q 5531 3584 5847 3212 
Q 6163 2841 6163 2131 
L 6163 0 
L 5038 0 
L 5038 1825 
Q 5041 1866 5042 1909 
Q 5044 1953 5044 2034 
Q 5044 2406 4934 2573 
Q 4825 2741 4581 2741 
Q 4263 2741 4089 2478 
Q 3916 2216 3909 1719 
L 3909 0 
L 2784 0 
L 2784 1825 
Q 2784 2406 2684 2573 
Q 2584 2741 2328 2741 
Q 2006 2741 1831 2477 
Q 1656 2213 1656 1722 
L 1656 0 
L 531 0 
L 531 3500 
L 1656 3500 
L 1656 2988 
Q 1863 3284 2130 3434 
Q 2397 3584 2719 3584 
Q 3081 3584 3359 3409 
Q 3638 3234 3781 2919 
z
" transform="scale(0.015625)"/>
       <path id="DejaVuSans-Bold-5d" d="M 2375 -844 
L 434 -844 
L 434 -141 
L 1313 -141 
L 1313 4159 
L 434 4159 
L 434 4863 
L 2375 4863 
L 2375 -844 
z
" transform="scale(0.015625)"/>
      </defs>
      <use xlink:href="#DejaVuSans-Bold-41" transform="translate(0 0.015625)"/>
      <use xlink:href="#DejaVuSans-Bold-70" transform="translate(77.392578 0.015625)"/>
      <use xlink:href="#DejaVuSans-Bold-70" transform="translate(148.974609 0.015625)"/>
      <use xlink:href="#DejaVuSans-Bold-61" transform="translate(220.556641 0.015625)"/>
      <use xlink:href="#DejaVuSans-Bold-72" transform="translate(288.037109 0.015625)"/>
      <use xlink:href="#DejaVuSans-Bold-65" transform="translate(337.353516 0.015625)"/>
      <use xlink:href="#DejaVuSans-Bold-6e" transform="translate(405.175781 0.015625)"/>
      <use xlink:href="#DejaVuSans-Bold-74" transform="translate(476.367188 0.015625)"/>
      <use xlink:href="#DejaVuSans-Bold-20" transform="translate(524.169922 0.015625)"/>
      <use xlink:href="#DejaVuSans-Bold-52" transform="translate(558.984375 0.015625)"/>
      <use xlink:href="#DejaVuSans-Bold-65" transform="translate(635.986328 0.015625)"/>
      <use xlink:href="#DejaVuSans-Bold-73" transform="translate(703.808594 0.015625)"/>
      <use xlink:href="#DejaVuSans-Bold-69" transform="translate(763.330078 0.015625)"/>
      <use xlink:href="#DejaVuSans-Bold-73" transform="translate(797.607422 0.015625)"/>
      <use xlink:href="#DejaVuSans-Bold-74" transform="translate(857.128906 0.015625)"/>
      <use xlink:href="#DejaVuSans-Bold-69" transform="translate(904.931641 0.015625)"/>
      <use xlink:href="#DejaVuSans-Bold-76" transform="translate(939.208984 0.015625)"/>
      <use xlink:href="#DejaVuSans-Bold-69" transform="translate(1004.394531 0.015625)"/>
      <use xlink:href="#DejaVuSans-Bold-74" transform="translate(1038.671875 0.015625)"/>
      <use xlink:href="#DejaVuSans-Bold-79" transform="translate(1086.474609 0.015625)"/>
      <use xlink:href="#DejaVuSans-Bold-20" transform="translate(1151.660156 0.015625)"/>
      <use xlink:href="#DejaVuSans-Bold-5b" transform="translate(1186.474609 0.015625)"/>
      <use xlink:href="#DejaVuSans-Bold-3a9" transform="translate(1232.177734 0.015625)"/>
      <use xlink:href="#DejaVuSans-Bold-6d" transform="translate(1317.1875 0.015625)"/>
      <use xlink:href="#DejaVuSans-Bold-5d" transform="translate(1421.386719 0.015625)"/>
     </g>
    </g>
   </g>
   <g id="matplotlib.axis_2">
    <g id="ytick_1">
     <g id="line2d_3">
      <defs>
       <path id="mc3957d41ac" d="M 0 0 
L -3.5 0 
" style="stroke: #000000; stroke-width: 1.5"/>
      </defs>
      <g>
       <use xlink:href="#mc3957d41ac" x="83.75625" y="199.733012" style="stroke: #000000; stroke-width: 1.5"/>
      </g>
     </g>
     <g id="text_4">
      <!-- $\mathdefault{10^{1}}$ -->
      <g transform="translate(41.55625 207.33145) scale(0.2 -0.2)">
       <use xlink:href="#DejaVuSans-31" transform="translate(0 0.684375)"/>
       <use xlink:href="#DejaVuSans-30" transform="translate(63.623047 0.684375)"/>
       <use xlink:href="#DejaVuSans-31" transform="translate(128.203125 38.965625) scale(0.7)"/>
      </g>
     </g>
    </g>
    <g id="ytick_2">
     <g id="line2d_4">
      <g>
       <use xlink:href="#mc3957d41ac" x="83.75625" y="445.336364" style="stroke: #000000; stroke-width: 1.5"/>
      </g>
     </g>
     <g id="text_5">
      <!-- $\mathdefault{10^{2}}$ -->
      <g transform="translate(41.55625 452.934801) scale(0.2 -0.2)">
       <use xlink:href="#DejaVuSans-31" transform="translate(0 0.765625)"/>
       <use xlink:href="#DejaVuSans-30" transform="translate(63.623047 0.765625)"/>
       <use xlink:href="#DejaVuSans-32" transform="translate(128.203125 39.046875) scale(0.7)"/>
      </g>
     </g>
    </g>
    <g id="ytick_3">
     <g id="line2d_5">
      <defs>
       <path id="ma78faeeabb" d="M 0 0 
L -2 0 
" style="stroke: #000000; stroke-width: 1.5"/>
      </defs>
      <g>
       <use xlink:href="#ma78faeeabb" x="83.75625" y="28.063636" style="stroke: #000000; stroke-width: 1.5"/>
      </g>
     </g>
    </g>
    <g id="ytick_4">
     <g id="line2d_6">
      <g>
       <use xlink:href="#ma78faeeabb" x="83.75625" y="71.31224" style="stroke: #000000; stroke-width: 1.5"/>
      </g>
     </g>
    </g>
    <g id="ytick_5">
     <g id="line2d_7">
      <g>
       <use xlink:href="#ma78faeeabb" x="83.75625" y="101.997612" style="stroke: #000000; stroke-width: 1.5"/>
      </g>
     </g>
    </g>
    <g id="ytick_6">
     <g id="line2d_8">
      <g>
       <use xlink:href="#ma78faeeabb" x="83.75625" y="125.799036" style="stroke: #000000; stroke-width: 1.5"/>
      </g>
     </g>
    </g>
    <g id="ytick_7">
     <g id="line2d_9">
      <g>
       <use xlink:href="#ma78faeeabb" x="83.75625" y="145.246216" style="stroke: #000000; stroke-width: 1.5"/>
      </g>
     </g>
    </g>
    <g id="ytick_8">
     <g id="line2d_10">
      <g>
       <use xlink:href="#ma78faeeabb" x="83.75625" y="161.688572" style="stroke: #000000; stroke-width: 1.5"/>
      </g>
     </g>
    </g>
    <g id="ytick_9">
     <g id="line2d_11">
      <g>
       <use xlink:href="#ma78faeeabb" x="83.75625" y="175.931588" style="stroke: #000000; stroke-width: 1.5"/>
      </g>
     </g>
    </g>
    <g id="ytick_10">
     <g id="line2d_12">
      <g>
       <use xlink:href="#ma78faeeabb" x="83.75625" y="188.494819" style="stroke: #000000; stroke-width: 1.5"/>
      </g>
     </g>
    </g>
    <g id="ytick_11">
     <g id="line2d_13">
      <g>
       <use xlink:href="#ma78faeeabb" x="83.75625" y="273.666988" style="stroke: #000000; stroke-width: 1.5"/>
      </g>
     </g>
    </g>
    <g id="ytick_12">
     <g id="line2d_14">
      <g>
       <use xlink:href="#ma78faeeabb" x="83.75625" y="316.915591" style="stroke: #000000; stroke-width: 1.5"/>
      </g>
     </g>
    </g>
    <g id="ytick_13">
     <g id="line2d_15">
      <g>
       <use xlink:href="#ma78faeeabb" x="83.75625" y="347.600964" style="stroke: #000000; stroke-width: 1.5"/>
      </g>
     </g>
    </g>
    <g id="ytick_14">
     <g id="line2d_16">
      <g>
       <use xlink:href="#ma78faeeabb" x="83.75625" y="371.402388" style="stroke: #000000; stroke-width: 1.5"/>
      </g>
     </g>
    </g>
    <g id="ytick_15">
     <g id="line2d_17">
      <g>
       <use xlink:href="#ma78faeeabb" x="83.75625" y="390.849567" style="stroke: #000000; stroke-width: 1.5"/>
      </g>
     </g>
    </g>
    <g id="ytick_16">
     <g id="line2d_18">
      <g>
       <use xlink:href="#ma78faeeabb" x="83.75625" y="407.291923" style="stroke: #000000; stroke-width: 1.5"/>
      </g>
     </g>
    </g>
    <g id="ytick_17">
     <g id="line2d_19">
      <g>
       <use xlink:href="#ma78faeeabb" x="83.75625" y="421.53494" style="stroke: #000000; stroke-width: 1.5"/>
      </g>
     </g>
    </g>
    <g id="ytick_18">
     <g id="line2d_20">
      <g>
       <use xlink:href="#ma78faeeabb" x="83.75625" y="434.098171" style="stroke: #000000; stroke-width: 1.5"/>
      </g>
     </g>
    </g>
    <g id="text_6">
     <!-- AB/2 [m] -->
     <g transform="translate(22.396875 285.714062) rotate(-90) scale(0.2 -0.2)">
      <defs>
       <path id="DejaVuSans-Bold-42" d="M 2456 2859 
Q 2741 2859 2887 2984 
Q 3034 3109 3034 3353 
Q 3034 3594 2887 3720 
Q 2741 3847 2456 3847 
L 1791 3847 
L 1791 2859 
L 2456 2859 
z
M 2497 819 
Q 2859 819 3042 972 
Q 3225 1125 3225 1434 
Q 3225 1738 3044 1889 
Q 2863 2041 2497 2041 
L 1791 2041 
L 1791 819 
L 2497 819 
z
M 3616 2497 
Q 4003 2384 4215 2081 
Q 4428 1778 4428 1338 
Q 4428 663 3972 331 
Q 3516 0 2584 0 
L 588 0 
L 588 4666 
L 2394 4666 
Q 3366 4666 3802 4372 
Q 4238 4078 4238 3431 
Q 4238 3091 4078 2852 
Q 3919 2613 3616 2497 
z
" transform="scale(0.015625)"/>
       <path id="DejaVuSans-Bold-2f" d="M 1644 4666 
L 2338 4666 
L 691 -594 
L 0 -594 
L 1644 4666 
z
" transform="scale(0.015625)"/>
       <path id="DejaVuSans-Bold-32" d="M 1844 884 
L 3897 884 
L 3897 0 
L 506 0 
L 506 884 
L 2209 2388 
Q 2438 2594 2547 2791 
Q 2656 2988 2656 3200 
Q 2656 3528 2436 3728 
Q 2216 3928 1850 3928 
Q 1569 3928 1234 3808 
Q 900 3688 519 3450 
L 519 4475 
Q 925 4609 1322 4679 
Q 1719 4750 2100 4750 
Q 2938 4750 3402 4381 
Q 3866 4013 3866 3353 
Q 3866 2972 3669 2642 
Q 3472 2313 2841 1759 
L 1844 884 
z
" transform="scale(0.015625)"/>
      </defs>
      <use xlink:href="#DejaVuSans-Bold-41"/>
      <use xlink:href="#DejaVuSans-Bold-42" x="77.392578"/>
      <use xlink:href="#DejaVuSans-Bold-2f" x="153.613281"/>
      <use xlink:href="#DejaVuSans-Bold-32" x="190.136719"/>
      <use xlink:href="#DejaVuSans-Bold-20" x="259.716797"/>
      <use xlink:href="#DejaVuSans-Bold-5b" x="294.53125"/>
      <use xlink:href="#DejaVuSans-Bold-6d" x="340.234375"/>
      <use xlink:href="#DejaVuSans-Bold-5d" x="444.433594"/>
     </g>
    </g>
   </g>
   <g id="line2d_21">
    <path d="M 109.732538 28.063636 
L 110.644106 47.030579 
L 114.948519 65.997521 
L 118.061143 84.964463 
L 122.405496 103.931405 
L 122.029584 122.898347 
L 123.483792 141.865289 
L 140.361421 160.832231 
L 143.158321 179.799174 
L 164.952215 198.766116 
L 182.452472 217.733058 
L 197.412366 236.7 
L 214.284676 255.666942 
L 241.342098 274.633884 
L 263.531653 293.600826 
L 277.740939 312.567769 
L 301.43944 331.534711 
L 317.300317 350.501653 
L 326.118187 369.468595 
L 322.428225 388.435537 
L 323.295819 407.402479 
L 321.488541 426.369421 
L 325.191156 445.336364 
" clip-path="url(#p77bc27a719)" style="fill: none; stroke: #756bb1; stroke-opacity: 0.2; stroke-width: 2; stroke-linecap: square"/>
   </g>
   <g id="line2d_22">
    <path d="M 116.917301 28.063636 
L 113.967755 47.030579 
L 115.144958 65.997521 
L 119.161725 84.964463 
L 121.092109 103.931405 
L 134.948151 122.898347 
L 131.150907 141.865289 
L 140.918693 160.832231 
L 153.847745 179.799174 
L 173.788448 198.766116 
L 187.997856 217.733058 
L 210.218065 236.7 
L 232.734324 255.666942 
L 245.265074 274.633884 
L 275.646558 293.600826 
L 294.961481 312.567769 
L 316.557389 331.534711 
L 326.863301 350.501653 
L 332.571018 369.468595 
L 335.571155 388.435537 
L 334.096866 407.402479 
L 330.283382 426.369421 
L 323.394152 445.336364 
" clip-path="url(#p77bc27a719)" style="fill: none; stroke: #756bb1; stroke-opacity: 0.2; stroke-width: 2; stroke-linecap: square"/>
   </g>
   <g id="line2d_23">
    <path d="M 116.397735 28.063636 
L 114.504448 47.030579 
L 117.63324 65.997521 
L 123.961377 84.964463 
L 124.178889 103.931405 
L 123.241521 122.898347 
L 129.249042 141.865289 
L 138.6115 160.832231 
L 153.451675 179.799174 
L 163.102535 198.766116 
L 178.042235 217.733058 
L 205.725755 236.7 
L 219.358918 255.666942 
L 239.249527 274.633884 
L 259.141435 293.600826 
L 278.762828 312.567769 
L 292.308397 331.534711 
L 308.066646 350.501653 
L 318.012825 369.468595 
L 335.712271 388.435537 
L 337.584659 407.402479 
L 333.784412 426.369421 
L 323.207511 445.336364 
" clip-path="url(#p77bc27a719)" style="fill: none; stroke: #756bb1; stroke-opacity: 0.2; stroke-width: 2; stroke-linecap: square"/>
   </g>
   <g id="line2d_24">
    <path d="M 117.31531 28.063636 
L 121.573761 47.030579 
L 120.779245 65.997521 
L 120.968872 84.964463 
L 128.409353 103.931405 
L 128.651214 122.898347 
L 140.70336 141.865289 
L 147.466112 160.832231 
L 158.07031 179.799174 
L 173.079226 198.766116 
L 188.199428 217.733058 
L 209.80422 236.7 
L 220.036949 255.666942 
L 240.107322 274.633884 
L 267.177902 293.600826 
L 285.919225 312.567769 
L 305.791497 331.534711 
L 325.668238 350.501653 
L 332.956831 369.468595 
L 332.487931 388.435537 
L 338.668558 407.402479 
L 337.611067 426.369421 
L 323.613562 445.336364 
" clip-path="url(#p77bc27a719)" style="fill: none; stroke: #756bb1; stroke-opacity: 0.2; stroke-width: 2; stroke-linecap: square"/>
   </g>
   <g id="line2d_25">
    <path d="M 115.814152 28.063636 
L 119.619251 47.030579 
L 125.871272 65.997521 
L 125.348401 84.964463 
L 132.739039 103.931405 
L 132.176727 122.898347 
L 148.181417 141.865289 
L 153.186783 160.832231 
L 170.457251 179.799174 
L 176.467758 198.766116 
L 200.995094 217.733058 
L 215.906677 236.7 
L 245.09396 255.666942 
L 266.371037 274.633884 
L 281.822495 293.600826 
L 309.44138 312.567769 
L 321.626067 331.534711 
L 344.229518 350.501653 
L 345.754962 369.468595 
L 345.943922 388.435537 
L 351.483523 407.402479 
L 345.173785 426.369421 
L 338.551133 445.336364 
" clip-path="url(#p77bc27a719)" style="fill: none; stroke: #756bb1; stroke-opacity: 0.2; stroke-width: 2; stroke-linecap: square"/>
   </g>
   <g id="line2d_26">
    <path d="M 123.508708 28.063636 
L 115.983618 47.030579 
L 124.313738 65.997521 
L 120.34785 84.964463 
L 121.228109 103.931405 
L 123.291686 122.898347 
L 130.969657 141.865289 
L 146.093693 160.832231 
L 143.827089 179.799174 
L 169.049318 198.766116 
L 180.942632 217.733058 
L 195.642111 236.7 
L 224.724158 255.666942 
L 238.495965 274.633884 
L 263.720135 293.600826 
L 279.900369 312.567769 
L 298.309035 331.534711 
L 321.388831 350.501653 
L 331.46757 369.468595 
L 339.146791 388.435537 
L 345.56165 407.402479 
L 332.656028 426.369421 
L 329.627214 445.336364 
" clip-path="url(#p77bc27a719)" style="fill: none; stroke: #756bb1; stroke-opacity: 0.2; stroke-width: 2; stroke-linecap: square"/>
   </g>
   <g id="line2d_27">
    <path d="M 114.637092 28.063636 
L 117.249027 47.030579 
L 123.304143 65.997521 
L 120.77037 84.964463 
L 127.97948 103.931405 
L 134.29145 122.898347 
L 138.239868 141.865289 
L 149.23919 160.832231 
L 154.918807 179.799174 
L 170.537214 198.766116 
L 191.644605 217.733058 
L 212.696502 236.7 
L 222.9021 255.666942 
L 255.431783 274.633884 
L 272.524919 293.600826 
L 289.781287 312.567769 
L 308.571769 331.534711 
L 323.580594 350.501653 
L 340.862242 369.468595 
L 345.51769 388.435537 
L 338.83001 407.402479 
L 333.963254 426.369421 
L 320.715384 445.336364 
" clip-path="url(#p77bc27a719)" style="fill: none; stroke: #756bb1; stroke-opacity: 0.2; stroke-width: 2; stroke-linecap: square"/>
   </g>
   <g id="line2d_28">
    <path d="M 121.874741 28.063636 
L 111.894182 47.030579 
L 125.737893 65.997521 
L 124.960039 84.964463 
L 120.441218 103.931405 
L 128.370748 122.898347 
L 132.017026 141.865289 
L 141.816615 160.832231 
L 140.707012 179.799174 
L 162.140892 198.766116 
L 172.010398 217.733058 
L 191.890774 236.7 
L 217.591765 255.666942 
L 237.939876 274.633884 
L 254.385701 293.600826 
L 269.658291 312.567769 
L 287.717537 331.534711 
L 303.177263 350.501653 
L 312.203692 369.468595 
L 320.807595 388.435537 
L 328.821048 407.402479 
L 324.504525 426.369421 
L 322.690922 445.336364 
" clip-path="url(#p77bc27a719)" style="fill: none; stroke: #756bb1; stroke-opacity: 0.2; stroke-width: 2; stroke-linecap: square"/>
   </g>
   <g id="line2d_29">
    <path d="M 126.782004 28.063636 
L 116.371484 47.030579 
L 119.512413 65.997521 
L 126.017887 84.964463 
L 131.450936 103.931405 
L 137.554579 122.898347 
L 138.78897 141.865289 
L 147.406484 160.832231 
L 149.153627 179.799174 
L 163.21028 198.766116 
L 186.437062 217.733058 
L 197.360502 236.7 
L 229.687391 255.666942 
L 247.634837 274.633884 
L 271.749512 293.600826 
L 283.385116 312.567769 
L 307.97362 331.534711 
L 322.720672 350.501653 
L 327.173338 369.468595 
L 336.908189 388.435537 
L 332.277417 407.402479 
L 332.722542 426.369421 
L 323.106334 445.336364 
" clip-path="url(#p77bc27a719)" style="fill: none; stroke: #756bb1; stroke-opacity: 0.2; stroke-width: 2; stroke-linecap: square"/>
   </g>
   <g id="line2d_30">
    <path d="M 119.552728 28.063636 
L 118.20027 47.030579 
L 120.372159 65.997521 
L 125.805686 84.964463 
L 126.936541 103.931405 
L 126.422544 122.898347 
L 133.899881 141.865289 
L 147.074771 160.832231 
L 162.430532 179.799174 
L 175.062022 198.766116 
L 184.485693 217.733058 
L 210.173754 236.7 
L 224.823507 255.666942 
L 256.197669 274.633884 
L 269.613638 293.600826 
L 286.188086 312.567769 
L 309.81346 331.534711 
L 329.179609 350.501653 
L 329.325413 369.468595 
L 336.512306 388.435537 
L 340.709897 407.402479 
L 332.409304 426.369421 
L 330.384116 445.336364 
" clip-path="url(#p77bc27a719)" style="fill: none; stroke: #756bb1; stroke-opacity: 0.2; stroke-width: 2; stroke-linecap: square"/>
   </g>
   <g id="line2d_31">
    <path d="M 118.798091 28.063636 
L 128.378446 47.030579 
L 118.796603 65.997521 
L 128.499952 84.964463 
L 123.416849 103.931405 
L 137.467803 122.898347 
L 140.444828 141.865289 
L 150.854924 160.832231 
L 166.416333 179.799174 
L 168.596122 198.766116 
L 194.309831 217.733058 
L 209.999279 236.7 
L 233.133433 255.666942 
L 252.207879 274.633884 
L 273.0677 293.600826 
L 301.532874 312.567769 
L 316.367628 331.534711 
L 332.194016 350.501653 
L 344.901737 369.468595 
L 345.282453 388.435537 
L 343.023093 407.402479 
L 345.725603 426.369421 
L 332.669334 445.336364 
" clip-path="url(#p77bc27a719)" style="fill: none; stroke: #756bb1; stroke-opacity: 0.2; stroke-width: 2; stroke-linecap: square"/>
   </g>
   <g id="line2d_32">
    <path d="M 120.876087 28.063636 
L 115.555588 47.030579 
L 128.693111 65.997521 
L 122.261208 84.964463 
L 132.940997 103.931405 
L 137.836824 122.898347 
L 148.522573 141.865289 
L 159.825655 160.832231 
L 167.186499 179.799174 
L 177.743005 198.766116 
L 197.825321 217.733058 
L 208.643842 236.7 
L 227.437448 255.666942 
L 239.941723 274.633884 
L 265.843067 293.600826 
L 283.801438 312.567769 
L 306.5103 331.534711 
L 323.861348 350.501653 
L 337.703812 369.468595 
L 341.714879 388.435537 
L 338.76637 407.402479 
L 333.987535 426.369421 
L 322.040703 445.336364 
" clip-path="url(#p77bc27a719)" style="fill: none; stroke: #756bb1; stroke-opacity: 0.2; stroke-width: 2; stroke-linecap: square"/>
   </g>
   <g id="line2d_33">
    <path d="M 117.479093 28.063636 
L 124.527967 47.030579 
L 128.182842 65.997521 
L 124.80256 84.964463 
L 126.936367 103.931405 
L 125.094912 122.898347 
L 134.396794 141.865289 
L 148.604592 160.832231 
L 151.300077 179.799174 
L 174.355228 198.766116 
L 192.439963 217.733058 
L 205.420596 236.7 
L 226.974964 255.666942 
L 242.750569 274.633884 
L 264.505317 293.600826 
L 295.976187 312.567769 
L 308.266132 331.534711 
L 321.106688 350.501653 
L 321.832609 369.468595 
L 328.790568 388.435537 
L 329.396909 407.402479 
L 324.911731 426.369421 
L 328.413567 445.336364 
" clip-path="url(#p77bc27a719)" style="fill: none; stroke: #756bb1; stroke-opacity: 0.2; stroke-width: 2; stroke-linecap: square"/>
   </g>
   <g id="line2d_34">
    <path d="M 106.028977 28.063636 
L 111.764773 47.030579 
L 110.075862 65.997521 
L 117.324138 84.964463 
L 124.824595 103.931405 
L 133.147079 122.898347 
L 137.078598 141.865289 
L 153.195147 160.832231 
L 164.580322 179.799174 
L 185.371557 198.766116 
L 198.813016 217.733058 
L 219.309124 236.7 
L 237.74081 255.666942 
L 261.16457 274.633884 
L 267.287445 293.600826 
L 287.54099 312.567769 
L 296.284937 331.534711 
L 313.880675 350.501653 
L 318.654754 369.468595 
L 326.403226 388.435537 
L 327.033249 407.402479 
L 339.011524 426.369421 
L 341.376474 445.336364 
" clip-path="url(#p77bc27a719)" style="fill: none; stroke: #756bb1; stroke-opacity: 0.2; stroke-width: 2; stroke-linecap: square"/>
   </g>
   <g id="line2d_35">
    <path d="M 120.925745 28.063636 
L 130.82209 47.030579 
L 128.261965 65.997521 
L 130.883714 84.964463 
L 129.49123 103.931405 
L 130.42271 122.898347 
L 141.926569 141.865289 
L 148.23309 160.832231 
L 162.177023 179.799174 
L 169.788523 198.766116 
L 185.5144 217.733058 
L 206.426923 236.7 
L 228.843602 255.666942 
L 243.227722 274.633884 
L 259.531385 293.600826 
L 285.766704 312.567769 
L 300.360058 331.534711 
L 312.510307 350.501653 
L 332.894452 369.468595 
L 338.113205 388.435537 
L 329.22557 407.402479 
L 328.194796 426.369421 
L 315.730407 445.336364 
" clip-path="url(#p77bc27a719)" style="fill: none; stroke: #756bb1; stroke-opacity: 0.2; stroke-width: 2; stroke-linecap: square"/>
   </g>
   <g id="line2d_36">
    <path d="M 117.073388 28.063636 
L 124.674567 47.030579 
L 118.756052 65.997521 
L 127.51237 84.964463 
L 120.126536 103.931405 
L 131.065641 122.898347 
L 135.119997 141.865289 
L 140.915068 160.832231 
L 151.593485 179.799174 
L 173.438028 198.766116 
L 185.818847 217.733058 
L 210.486995 236.7 
L 232.908302 255.666942 
L 257.506617 274.633884 
L 271.758471 293.600826 
L 292.958706 312.567769 
L 318.629211 331.534711 
L 328.492875 350.501653 
L 341.634861 369.468595 
L 341.748134 388.435537 
L 341.943729 407.402479 
L 343.70863 426.369421 
L 346.444866 445.336364 
" clip-path="url(#p77bc27a719)" style="fill: none; stroke: #756bb1; stroke-opacity: 0.2; stroke-width: 2; stroke-linecap: square"/>
   </g>
   <g id="line2d_37">
    <path d="M 116.043767 28.063636 
L 112.235347 47.030579 
L 113.298297 65.997521 
L 123.428331 84.964463 
L 129.924801 103.931405 
L 133.092069 122.898347 
L 139.686465 141.865289 
L 148.412319 160.832231 
L 161.263506 179.799174 
L 167.351741 198.766116 
L 189.897886 217.733058 
L 202.024917 236.7 
L 220.534116 255.666942 
L 243.519907 274.633884 
L 263.859799 293.600826 
L 271.882878 312.567769 
L 289.511337 331.534711 
L 308.933577 350.501653 
L 318.693966 369.468595 
L 326.235548 388.435537 
L 337.959977 407.402479 
L 337.265753 426.369421 
L 330.999112 445.336364 
" clip-path="url(#p77bc27a719)" style="fill: none; stroke: #756bb1; stroke-opacity: 0.2; stroke-width: 2; stroke-linecap: square"/>
   </g>
   <g id="line2d_38">
    <path d="M 127.834295 28.063636 
L 116.819278 47.030579 
L 128.939465 65.997521 
L 130.509061 84.964463 
L 133.789769 103.931405 
L 133.248817 122.898347 
L 133.479381 141.865289 
L 148.940469 160.832231 
L 161.369554 179.799174 
L 166.25877 198.766116 
L 185.273031 217.733058 
L 203.665956 236.7 
L 228.90086 255.666942 
L 242.763373 274.633884 
L 259.072258 293.600826 
L 283.591109 312.567769 
L 292.613396 331.534711 
L 316.115583 350.501653 
L 324.840636 369.468595 
L 328.875496 388.435537 
L 341.284882 407.402479 
L 329.858351 426.369421 
L 321.592311 445.336364 
" clip-path="url(#p77bc27a719)" style="fill: none; stroke: #756bb1; stroke-opacity: 0.2; stroke-width: 2; stroke-linecap: square"/>
   </g>
   <g id="line2d_39">
    <path d="M 115.332658 28.063636 
L 115.228999 47.030579 
L 114.975719 65.997521 
L 118.233838 84.964463 
L 117.107051 103.931405 
L 127.162311 122.898347 
L 133.854154 141.865289 
L 141.371605 160.832231 
L 156.252409 179.799174 
L 170.499501 198.766116 
L 186.636751 217.733058 
L 205.525201 236.7 
L 223.796685 255.666942 
L 249.579465 274.633884 
L 268.878136 293.600826 
L 293.430281 312.567769 
L 304.659749 331.534711 
L 319.744151 350.501653 
L 332.911662 369.468595 
L 327.486936 388.435537 
L 339.273456 407.402479 
L 325.247314 426.369421 
L 322.195162 445.336364 
" clip-path="url(#p77bc27a719)" style="fill: none; stroke: #756bb1; stroke-opacity: 0.2; stroke-width: 2; stroke-linecap: square"/>
   </g>
   <g id="line2d_40">
    <path d="M 116.75159 28.063636 
L 120.006181 47.030579 
L 122.684293 65.997521 
L 120.619128 84.964463 
L 131.868288 103.931405 
L 135.425177 122.898347 
L 138.720123 141.865289 
L 147.150601 160.832231 
L 162.250128 179.799174 
L 172.751563 198.766116 
L 192.909017 217.733058 
L 216.927074 236.7 
L 232.210799 255.666942 
L 255.530551 274.633884 
L 287.820375 293.600826 
L 306.185701 312.567769 
L 325.96642 331.534711 
L 338.669456 350.501653 
L 348.423289 369.468595 
L 349.38306 388.435537 
L 337.885587 407.402479 
L 329.800681 426.369421 
L 325.794 445.336364 
" clip-path="url(#p77bc27a719)" style="fill: none; stroke: #756bb1; stroke-opacity: 0.2; stroke-width: 2; stroke-linecap: square"/>
   </g>
   <g id="line2d_41">
    <path d="M 113.254169 28.063636 
L 110.676517 47.030579 
L 116.784643 65.997521 
L 121.937872 84.964463 
L 123.858822 103.931405 
L 128.226969 122.898347 
L 138.17461 141.865289 
L 145.881896 160.832231 
L 156.14995 179.799174 
L 169.137322 198.766116 
L 191.349874 217.733058 
L 197.365885 236.7 
L 229.028232 255.666942 
L 239.91607 274.633884 
L 267.702909 293.600826 
L 280.821326 312.567769 
L 304.213639 331.534711 
L 307.298183 350.501653 
L 319.564253 369.468595 
L 332.277574 388.435537 
L 325.651337 407.402479 
L 335.694453 426.369421 
L 330.67269 445.336364 
" clip-path="url(#p77bc27a719)" style="fill: none; stroke: #756bb1; stroke-opacity: 0.2; stroke-width: 2; stroke-linecap: square"/>
   </g>
   <g id="line2d_42">
    <path d="M 126.461763 28.063636 
L 121.582842 47.030579 
L 127.885399 65.997521 
L 126.465035 84.964463 
L 132.853125 103.931405 
L 140.361488 122.898347 
L 141.155195 141.865289 
L 146.142127 160.832231 
L 168.022646 179.799174 
L 168.751394 198.766116 
L 185.838623 217.733058 
L 205.607738 236.7 
L 218.547036 255.666942 
L 247.71275 274.633884 
L 264.423972 293.600826 
L 287.823088 312.567769 
L 297.129213 331.534711 
L 321.965802 350.501653 
L 328.609021 369.468595 
L 340.82901 388.435537 
L 337.974338 407.402479 
L 333.371254 426.369421 
L 322.761356 445.336364 
" clip-path="url(#p77bc27a719)" style="fill: none; stroke: #756bb1; stroke-opacity: 0.2; stroke-width: 2; stroke-linecap: square"/>
   </g>
   <g id="line2d_43">
    <path d="M 108.417656 28.063636 
L 113.752542 47.030579 
L 115.798263 65.997521 
L 123.928474 84.964463 
L 125.586567 103.931405 
L 132.622974 122.898347 
L 139.819319 141.865289 
L 149.746496 160.832231 
L 159.17033 179.799174 
L 166.355815 198.766116 
L 185.369721 217.733058 
L 198.021127 236.7 
L 228.257076 255.666942 
L 236.335035 274.633884 
L 268.57171 293.600826 
L 282.098575 312.567769 
L 298.93555 331.534711 
L 313.736125 350.501653 
L 317.347066 369.468595 
L 330.431998 388.435537 
L 327.166346 407.402479 
L 323.184919 426.369421 
L 318.663113 445.336364 
" clip-path="url(#p77bc27a719)" style="fill: none; stroke: #756bb1; stroke-opacity: 0.2; stroke-width: 2; stroke-linecap: square"/>
   </g>
   <g id="line2d_44">
    <path d="M 121.56684 28.063636 
L 125.727143 47.030579 
L 130.095997 65.997521 
L 128.524493 84.964463 
L 135.423284 103.931405 
L 136.922766 122.898347 
L 136.679368 141.865289 
L 151.10007 160.832231 
L 162.35537 179.799174 
L 176.227049 198.766116 
L 186.422432 217.733058 
L 198.792876 236.7 
L 219.048828 255.666942 
L 243.29229 274.633884 
L 263.077799 293.600826 
L 274.083481 312.567769 
L 292.015734 331.534711 
L 312.596939 350.501653 
L 322.869019 369.468595 
L 324.38412 388.435537 
L 336.314908 407.402479 
L 330.952558 426.369421 
L 317.925802 445.336364 
" clip-path="url(#p77bc27a719)" style="fill: none; stroke: #756bb1; stroke-opacity: 0.2; stroke-width: 2; stroke-linecap: square"/>
   </g>
   <g id="line2d_45">
    <path d="M 121.616721 28.063636 
L 123.520155 47.030579 
L 124.596568 65.997521 
L 127.064622 84.964463 
L 129.640813 103.931405 
L 127.744814 122.898347 
L 140.525272 141.865289 
L 149.159668 160.832231 
L 161.724649 179.799174 
L 165.675639 198.766116 
L 192.040952 217.733058 
L 203.51842 236.7 
L 228.01084 255.666942 
L 244.697412 274.633884 
L 266.777677 293.600826 
L 276.097243 312.567769 
L 297.175468 331.534711 
L 318.379602 350.501653 
L 322.846543 369.468595 
L 330.449684 388.435537 
L 332.380358 407.402479 
L 330.743085 426.369421 
L 334.638161 445.336364 
" clip-path="url(#p77bc27a719)" style="fill: none; stroke: #756bb1; stroke-opacity: 0.2; stroke-width: 2; stroke-linecap: square"/>
   </g>
   <g id="line2d_46">
    <path d="M 117.008702 28.063636 
L 124.124587 47.030579 
L 124.439356 65.997521 
L 126.354699 84.964463 
L 131.328557 103.931405 
L 127.290748 122.898347 
L 134.146669 141.865289 
L 152.683659 160.832231 
L 154.39581 179.799174 
L 178.365017 198.766116 
L 191.55577 217.733058 
L 211.825564 236.7 
L 231.597622 255.666942 
L 250.365247 274.633884 
L 263.02395 293.600826 
L 286.110508 312.567769 
L 303.043215 331.534711 
L 314.982907 350.501653 
L 331.613463 369.468595 
L 341.524437 388.435537 
L 336.8852 407.402479 
L 334.82416 426.369421 
L 331.999878 445.336364 
" clip-path="url(#p77bc27a719)" style="fill: none; stroke: #756bb1; stroke-opacity: 0.2; stroke-width: 2; stroke-linecap: square"/>
   </g>
   <g id="line2d_47">
    <path d="M 112.823763 28.063636 
L 112.033197 47.030579 
L 116.659178 65.997521 
L 119.528903 84.964463 
L 122.719704 103.931405 
L 130.535121 122.898347 
L 130.433604 141.865289 
L 147.636581 160.832231 
L 159.110682 179.799174 
L 174.34794 198.766116 
L 182.695983 217.733058 
L 206.388549 236.7 
L 228.38495 255.666942 
L 245.784107 274.633884 
L 261.059547 293.600826 
L 290.577274 312.567769 
L 301.730852 331.534711 
L 324.33253 350.501653 
L 337.358163 369.468595 
L 338.554329 388.435537 
L 342.770423 407.402479 
L 333.470788 426.369421 
L 327.794079 445.336364 
" clip-path="url(#p77bc27a719)" style="fill: none; stroke: #756bb1; stroke-opacity: 0.2; stroke-width: 2; stroke-linecap: square"/>
   </g>
   <g id="line2d_48">
    <path d="M 118.686924 28.063636 
L 110.418938 47.030579 
L 116.446243 65.997521 
L 122.429904 84.964463 
L 129.193245 103.931405 
L 133.605745 122.898347 
L 130.078484 141.865289 
L 149.318903 160.832231 
L 159.6485 179.799174 
L 165.445826 198.766116 
L 188.244236 217.733058 
L 192.299855 236.7 
L 215.002769 255.666942 
L 231.192154 274.633884 
L 255.331666 293.600826 
L 273.173498 312.567769 
L 293.201776 331.534711 
L 307.804303 350.501653 
L 327.472954 369.468595 
L 332.973514 388.435537 
L 335.762742 407.402479 
L 323.7932 426.369421 
L 316.598108 445.336364 
" clip-path="url(#p77bc27a719)" style="fill: none; stroke: #756bb1; stroke-opacity: 0.2; stroke-width: 2; stroke-linecap: square"/>
   </g>
   <g id="line2d_49">
    <path d="M 125.269205 28.063636 
L 124.489367 47.030579 
L 115.466481 65.997521 
L 116.745787 84.964463 
L 126.317263 103.931405 
L 129.27312 122.898347 
L 132.617187 141.865289 
L 145.149817 160.832231 
L 150.854335 179.799174 
L 163.216044 198.766116 
L 184.145658 217.733058 
L 196.54119 236.7 
L 222.591156 255.666942 
L 243.431925 274.633884 
L 268.929397 293.600826 
L 281.795604 312.567769 
L 306.092162 331.534711 
L 316.485979 350.501653 
L 324.998175 369.468595 
L 339.32689 388.435537 
L 338.070841 407.402479 
L 327.070714 426.369421 
L 322.221348 445.336364 
" clip-path="url(#p77bc27a719)" style="fill: none; stroke: #756bb1; stroke-opacity: 0.2; stroke-width: 2; stroke-linecap: square"/>
   </g>
   <g id="line2d_50">
    <path d="M 116.518142 28.063636 
L 121.796207 47.030579 
L 122.91755 65.997521 
L 115.009655 84.964463 
L 126.70612 103.931405 
L 124.148354 122.898347 
L 130.615838 141.865289 
L 141.300371 160.832231 
L 143.350455 179.799174 
L 153.302529 198.766116 
L 179.144481 217.733058 
L 196.36164 236.7 
L 211.81507 255.666942 
L 240.015878 274.633884 
L 259.979471 293.600826 
L 279.070299 312.567769 
L 294.722941 331.534711 
L 310.803562 350.501653 
L 327.271072 369.468595 
L 336.189086 388.435537 
L 334.818046 407.402479 
L 327.82815 426.369421 
L 324.182596 445.336364 
" clip-path="url(#p77bc27a719)" style="fill: none; stroke: #756bb1; stroke-opacity: 0.2; stroke-width: 2; stroke-linecap: square"/>
   </g>
   <g id="line2d_51">
    <path d="M 117.733373 28.063636 
L 119.940374 47.030579 
L 113.882885 65.997521 
L 117.664571 84.964463 
L 118.688672 103.931405 
L 127.726024 122.898347 
L 131.174233 141.865289 
L 147.999622 160.832231 
L 158.867626 179.799174 
L 167.445124 198.766116 
L 181.174119 217.733058 
L 205.158452 236.7 
L 218.514349 255.666942 
L 243.916917 274.633884 
L 260.844459 293.600826 
L 282.593475 312.567769 
L 295.545887 331.534711 
L 312.263892 350.501653 
L 320.561845 369.468595 
L 337.613656 388.435537 
L 328.829423 407.402479 
L 326.146357 426.369421 
L 328.252575 445.336364 
" clip-path="url(#p77bc27a719)" style="fill: none; stroke: #756bb1; stroke-opacity: 0.2; stroke-width: 2; stroke-linecap: square"/>
   </g>
   <g id="line2d_52">
    <path d="M 115.503208 28.063636 
L 112.293539 47.030579 
L 119.939215 65.997521 
L 126.530313 84.964463 
L 121.340651 103.931405 
L 134.933119 122.898347 
L 148.114825 141.865289 
L 144.608069 160.832231 
L 162.187684 179.799174 
L 167.313472 198.766116 
L 178.220737 217.733058 
L 201.321929 236.7 
L 218.391581 255.666942 
L 234.311448 274.633884 
L 261.746129 293.600826 
L 284.269728 312.567769 
L 301.045092 331.534711 
L 316.322933 350.501653 
L 326.355258 369.468595 
L 321.436328 388.435537 
L 324.693408 407.402479 
L 318.927976 426.369421 
L 313.297179 445.336364 
" clip-path="url(#p77bc27a719)" style="fill: none; stroke: #756bb1; stroke-opacity: 0.2; stroke-width: 2; stroke-linecap: square"/>
   </g>
   <g id="line2d_53">
    <path d="M 116.661423 28.063636 
L 122.787445 47.030579 
L 122.727124 65.997521 
L 115.74524 84.964463 
L 128.996173 103.931405 
L 133.708517 122.898347 
L 132.536078 141.865289 
L 143.69247 160.832231 
L 148.87529 179.799174 
L 163.674859 198.766116 
L 188.082457 217.733058 
L 202.904772 236.7 
L 215.910741 255.666942 
L 235.679131 274.633884 
L 258.236733 293.600826 
L 275.259901 312.567769 
L 296.878167 331.534711 
L 316.75231 350.501653 
L 329.563929 369.468595 
L 333.821821 388.435537 
L 329.7798 407.402479 
L 331.559593 426.369421 
L 321.663139 445.336364 
" clip-path="url(#p77bc27a719)" style="fill: none; stroke: #756bb1; stroke-opacity: 0.2; stroke-width: 2; stroke-linecap: square"/>
   </g>
   <g id="line2d_54">
    <path d="M 106.428214 28.063636 
L 109.779033 47.030579 
L 115.910928 65.997521 
L 114.078181 84.964463 
L 118.930216 103.931405 
L 127.746149 122.898347 
L 133.793871 141.865289 
L 134.456171 160.832231 
L 153.585223 179.799174 
L 166.519557 198.766116 
L 188.787285 217.733058 
L 203.538685 236.7 
L 231.337152 255.666942 
L 244.828821 274.633884 
L 268.949338 293.600826 
L 295.907716 312.567769 
L 312.242945 331.534711 
L 324.650262 350.501653 
L 334.589271 369.468595 
L 343.533389 388.435537 
L 336.448206 407.402479 
L 341.671034 426.369421 
L 344.127957 445.336364 
" clip-path="url(#p77bc27a719)" style="fill: none; stroke: #756bb1; stroke-opacity: 0.2; stroke-width: 2; stroke-linecap: square"/>
   </g>
   <g id="line2d_55">
    <path d="M 119.097004 28.063636 
L 117.471596 47.030579 
L 118.369454 65.997521 
L 127.937359 84.964463 
L 130.364367 103.931405 
L 126.167335 122.898347 
L 137.268768 141.865289 
L 140.836015 160.832231 
L 147.476648 179.799174 
L 161.634035 198.766116 
L 183.380556 217.733058 
L 201.745176 236.7 
L 227.659713 255.666942 
L 249.326902 274.633884 
L 267.019678 293.600826 
L 292.135779 312.567769 
L 301.961939 331.534711 
L 314.880295 350.501653 
L 335.61129 369.468595 
L 339.174603 388.435537 
L 337.530457 407.402479 
L 330.052867 426.369421 
L 322.314422 445.336364 
" clip-path="url(#p77bc27a719)" style="fill: none; stroke: #756bb1; stroke-opacity: 0.2; stroke-width: 2; stroke-linecap: square"/>
   </g>
   <g id="line2d_56">
    <path d="M 116.65774 28.063636 
L 112.321057 47.030579 
L 117.110794 65.997521 
L 124.608809 84.964463 
L 127.600746 103.931405 
L 128.387478 122.898347 
L 136.28479 141.865289 
L 137.515419 160.832231 
L 154.185311 179.799174 
L 163.988374 198.766116 
L 181.695993 217.733058 
L 206.475526 236.7 
L 218.143452 255.666942 
L 233.18521 274.633884 
L 257.644472 293.600826 
L 280.803842 312.567769 
L 293.651192 331.534711 
L 304.190368 350.501653 
L 316.941741 369.468595 
L 316.777969 388.435537 
L 318.426695 407.402479 
L 326.552715 426.369421 
L 322.641604 445.336364 
" clip-path="url(#p77bc27a719)" style="fill: none; stroke: #756bb1; stroke-opacity: 0.2; stroke-width: 2; stroke-linecap: square"/>
   </g>
   <g id="line2d_57">
    <path d="M 123.193406 28.063636 
L 118.744202 47.030579 
L 129.22297 65.997521 
L 132.991512 84.964463 
L 130.434085 103.931405 
L 140.996691 122.898347 
L 139.619213 141.865289 
L 152.96586 160.832231 
L 159.705787 179.799174 
L 175.697051 198.766116 
L 189.759069 217.733058 
L 203.714931 236.7 
L 230.32346 255.666942 
L 242.931627 274.633884 
L 262.474417 293.600826 
L 281.50923 312.567769 
L 302.784481 331.534711 
L 311.688755 350.501653 
L 333.763322 369.468595 
L 342.340075 388.435537 
L 337.1284 407.402479 
L 336.917555 426.369421 
L 318.191257 445.336364 
" clip-path="url(#p77bc27a719)" style="fill: none; stroke: #756bb1; stroke-opacity: 0.2; stroke-width: 2; stroke-linecap: square"/>
   </g>
   <g id="line2d_58">
    <path d="M 128.224051 28.063636 
L 127.088174 47.030579 
L 124.016726 65.997521 
L 128.917407 84.964463 
L 123.048415 103.931405 
L 135.172212 122.898347 
L 137.291772 141.865289 
L 143.668033 160.832231 
L 150.595413 179.799174 
L 161.61613 198.766116 
L 185.936541 217.733058 
L 200.051441 236.7 
L 223.410161 255.666942 
L 234.918848 274.633884 
L 262.831097 293.600826 
L 280.11952 312.567769 
L 303.13029 331.534711 
L 309.933046 350.501653 
L 327.400825 369.468595 
L 322.010276 388.435537 
L 329.974154 407.402479 
L 324.488474 426.369421 
L 320.005996 445.336364 
" clip-path="url(#p77bc27a719)" style="fill: none; stroke: #756bb1; stroke-opacity: 0.2; stroke-width: 2; stroke-linecap: square"/>
   </g>
   <g id="line2d_59">
    <path d="M 119.181352 28.063636 
L 118.088664 47.030579 
L 117.304522 65.997521 
L 118.176622 84.964463 
L 124.644842 103.931405 
L 128.904864 122.898347 
L 127.688218 141.865289 
L 141.575804 160.832231 
L 151.829282 179.799174 
L 165.767148 198.766116 
L 180.294723 217.733058 
L 195.37858 236.7 
L 220.549397 255.666942 
L 241.552484 274.633884 
L 260.260269 293.600826 
L 275.225504 312.567769 
L 292.828884 331.534711 
L 317.239809 350.501653 
L 320.979214 369.468595 
L 328.673733 388.435537 
L 340.617 407.402479 
L 336.110392 426.369421 
L 322.212081 445.336364 
" clip-path="url(#p77bc27a719)" style="fill: none; stroke: #756bb1; stroke-opacity: 0.2; stroke-width: 2; stroke-linecap: square"/>
   </g>
   <g id="line2d_60">
    <path d="M 120.575778 28.063636 
L 122.319444 47.030579 
L 119.554909 65.997521 
L 129.748414 84.964463 
L 122.046915 103.931405 
L 131.700744 122.898347 
L 133.175186 141.865289 
L 140.578784 160.832231 
L 153.744978 179.799174 
L 171.282295 198.766116 
L 182.811324 217.733058 
L 211.951281 236.7 
L 223.704528 255.666942 
L 252.221268 274.633884 
L 276.378022 293.600826 
L 293.271972 312.567769 
L 309.249758 331.534711 
L 319.373655 350.501653 
L 331.442554 369.468595 
L 329.199161 388.435537 
L 334.640941 407.402479 
L 329.315942 426.369421 
L 321.356283 445.336364 
" clip-path="url(#p77bc27a719)" style="fill: none; stroke: #756bb1; stroke-opacity: 0.2; stroke-width: 2; stroke-linecap: square"/>
   </g>
   <g id="line2d_61"/>
   <g id="line2d_62">
    <path d="M 118.054149 28.063636 
L 118.839733 47.030579 
L 120.091608 65.997521 
L 122.022195 84.964463 
L 124.688929 103.931405 
L 128.926543 122.898347 
L 135.313661 141.865289 
L 143.632529 160.832231 
L 154.896242 179.799174 
L 168.343758 198.766116 
L 184.794352 217.733058 
L 203.044384 236.7 
L 222.913515 255.666942 
L 243.540417 274.633884 
L 264.148162 293.600826 
L 284.171819 312.567769 
L 301.977089 331.534711 
L 316.781133 350.501653 
L 327.395766 369.468595 
L 333.129473 388.435537 
L 334.206698 407.402479 
L 330.451968 426.369421 
L 323.602608 445.336364 
" clip-path="url(#p77bc27a719)" style="fill: none; stroke: #39146b; stroke-width: 4; stroke-linecap: square"/>
   </g>
   <g id="line2d_63">
    <path d="M 114.275837 28.063636 
L 111.064198 47.030579 
L 112.937654 65.997521 
L 119.360931 84.964463 
L 127.390028 103.931405 
L 133.278032 122.898347 
L 142.377674 141.865289 
L 150.406771 160.832231 
L 158.435867 179.799174 
L 166.464964 198.766116 
L 177.170426 217.733058 
L 195.904984 236.7 
L 214.639542 255.666942 
L 236.050466 274.633884 
L 260.137756 293.600826 
L 284.225045 312.567769 
L 305.635969 331.534711 
L 316.341431 350.501653 
L 319.017796 369.468595 
L 327.046893 388.435537 
L 329.723258 407.402479 
L 324.370527 426.369421 
L 322.095617 445.336364 
" clip-path="url(#p77bc27a719)" style="fill: none; stroke: #e40000; stroke-width: 4; stroke-linecap: square"/>
    <defs>
     <path id="m6235285f56" d="M -5 5 
L 5 -5 
M -5 -5 
L 5 5 
" style="stroke: #e40000"/>
    </defs>
    <g clip-path="url(#p77bc27a719)">
     <use xlink:href="#m6235285f56" x="114.275837" y="28.063636" style="fill: #e40000; stroke: #e40000"/>
     <use xlink:href="#m6235285f56" x="111.064198" y="47.030579" style="fill: #e40000; stroke: #e40000"/>
     <use xlink:href="#m6235285f56" x="112.937654" y="65.997521" style="fill: #e40000; stroke: #e40000"/>
     <use xlink:href="#m6235285f56" x="119.360931" y="84.964463" style="fill: #e40000; stroke: #e40000"/>
     <use xlink:href="#m6235285f56" x="127.390028" y="103.931405" style="fill: #e40000; stroke: #e40000"/>
     <use xlink:href="#m6235285f56" x="133.278032" y="122.898347" style="fill: #e40000; stroke: #e40000"/>
     <use xlink:href="#m6235285f56" x="142.377674" y="141.865289" style="fill: #e40000; stroke: #e40000"/>
     <use xlink:href="#m6235285f56" x="150.406771" y="160.832231" style="fill: #e40000; stroke: #e40000"/>
     <use xlink:href="#m6235285f56" x="158.435867" y="179.799174" style="fill: #e40000; stroke: #e40000"/>
     <use xlink:href="#m6235285f56" x="166.464964" y="198.766116" style="fill: #e40000; stroke: #e40000"/>
     <use xlink:href="#m6235285f56" x="177.170426" y="217.733058" style="fill: #e40000; stroke: #e40000"/>
     <use xlink:href="#m6235285f56" x="195.904984" y="236.7" style="fill: #e40000; stroke: #e40000"/>
     <use xlink:href="#m6235285f56" x="214.639542" y="255.666942" style="fill: #e40000; stroke: #e40000"/>
     <use xlink:href="#m6235285f56" x="236.050466" y="274.633884" style="fill: #e40000; stroke: #e40000"/>
     <use xlink:href="#m6235285f56" x="260.137756" y="293.600826" style="fill: #e40000; stroke: #e40000"/>
     <use xlink:href="#m6235285f56" x="284.225045" y="312.567769" style="fill: #e40000; stroke: #e40000"/>
     <use xlink:href="#m6235285f56" x="305.635969" y="331.534711" style="fill: #e40000; stroke: #e40000"/>
     <use xlink:href="#m6235285f56" x="316.341431" y="350.501653" style="fill: #e40000; stroke: #e40000"/>
     <use xlink:href="#m6235285f56" x="319.017796" y="369.468595" style="fill: #e40000; stroke: #e40000"/>
     <use xlink:href="#m6235285f56" x="327.046893" y="388.435537" style="fill: #e40000; stroke: #e40000"/>
     <use xlink:href="#m6235285f56" x="329.723258" y="407.402479" style="fill: #e40000; stroke: #e40000"/>
     <use xlink:href="#m6235285f56" x="324.370527" y="426.369421" style="fill: #e40000; stroke: #e40000"/>
     <use xlink:href="#m6235285f56" x="322.095617" y="445.336364" style="fill: #e40000; stroke: #e40000"/>
    </g>
   </g>
   <g id="patch_3">
    <path d="M 83.75625 466.2 
L 83.75625 7.2 
" style="fill: none; stroke: #000000; stroke-width: 2; stroke-linejoin: miter; stroke-linecap: square"/>
   </g>
   <g id="patch_4">
    <path d="M 93.75625 476.2 
L 363.75625 476.2 
" style="fill: none; stroke: #000000; stroke-width: 2; stroke-linejoin: miter; stroke-linecap: square"/>
   </g>
   <g id="legend_1">
    <g id="line2d_64">
     <path d="M 30.414063 191.184375 
L 48.414063 191.184375 
L 66.414063 191.184375 
" style="fill: none; stroke: #6b3914; stroke-width: 4; stroke-linecap: square"/>
    </g>
    <g id="line2d_65">
     <path d="M 74.414063 191.184375 
L 92.414063 191.184375 
L 110.414063 191.184375 
" style="fill: none; stroke: #39146b; stroke-width: 4; stroke-linecap: square"/>
    </g>
    <g id="text_7">
     <!-- Mean -->
     <g transform="translate(126.414063 198.184375) scale(0.2 -0.2)">
      <defs>
       <path id="DejaVuSans-4d" d="M 628 4666 
L 1569 4666 
L 2759 1491 
L 3956 4666 
L 4897 4666 
L 4897 0 
L 4281 0 
L 4281 4097 
L 3078 897 
L 2444 897 
L 1241 4097 
L 1241 0 
L 628 0 
L 628 4666 
z
" transform="scale(0.015625)"/>
       <path id="DejaVuSans-65" d="M 3597 1894 
L 3597 1613 
L 953 1613 
Q 991 1019 1311 708 
Q 1631 397 2203 397 
Q 2534 397 2845 478 
Q 3156 559 3463 722 
L 3463 178 
Q 3153 47 2828 -22 
Q 2503 -91 2169 -91 
Q 1331 -91 842 396 
Q 353 884 353 1716 
Q 353 2575 817 3079 
Q 1281 3584 2069 3584 
Q 2775 3584 3186 3129 
Q 3597 2675 3597 1894 
z
M 3022 2063 
Q 3016 2534 2758 2815 
Q 2500 3097 2075 3097 
Q 1594 3097 1305 2825 
Q 1016 2553 972 2059 
L 3022 2063 
z
" transform="scale(0.015625)"/>
       <path id="DejaVuSans-61" d="M 2194 1759 
Q 1497 1759 1228 1600 
Q 959 1441 959 1056 
Q 959 750 1161 570 
Q 1363 391 1709 391 
Q 2188 391 2477 730 
Q 2766 1069 2766 1631 
L 2766 1759 
L 2194 1759 
z
M 3341 1997 
L 3341 0 
L 2766 0 
L 2766 531 
Q 2569 213 2275 61 
Q 1981 -91 1556 -91 
Q 1019 -91 701 211 
Q 384 513 384 1019 
Q 384 1609 779 1909 
Q 1175 2209 1959 2209 
L 2766 2209 
L 2766 2266 
Q 2766 2663 2505 2880 
Q 2244 3097 1772 3097 
Q 1472 3097 1187 3025 
Q 903 2953 641 2809 
L 641 3341 
Q 956 3463 1253 3523 
Q 1550 3584 1831 3584 
Q 2591 3584 2966 3190 
Q 3341 2797 3341 1997 
z
" transform="scale(0.015625)"/>
       <path id="DejaVuSans-6e" d="M 3513 2113 
L 3513 0 
L 2938 0 
L 2938 2094 
Q 2938 2591 2744 2837 
Q 2550 3084 2163 3084 
Q 1697 3084 1428 2787 
Q 1159 2491 1159 1978 
L 1159 0 
L 581 0 
L 581 3500 
L 1159 3500 
L 1159 2956 
Q 1366 3272 1645 3428 
Q 1925 3584 2291 3584 
Q 2894 3584 3203 3211 
Q 3513 2838 3513 2113 
z
" transform="scale(0.015625)"/>
      </defs>
      <use xlink:href="#DejaVuSans-4d"/>
      <use xlink:href="#DejaVuSans-65" x="86.279297"/>
      <use xlink:href="#DejaVuSans-61" x="147.802734"/>
      <use xlink:href="#DejaVuSans-6e" x="209.082031"/>
     </g>
    </g>
    <g id="line2d_66">
     <path d="M 30.414063 220.540625 
L 48.414063 220.540625 
L 66.414063 220.540625 
" style="fill: none; stroke: #fecc5c; stroke-opacity: 0.8; stroke-width: 8; stroke-linecap: square"/>
    </g>
    <g id="line2d_67">
     <path d="M 74.414063 220.540625 
L 92.414063 220.540625 
L 110.414063 220.540625 
" style="fill: none; stroke: #756bb1; stroke-opacity: 0.8; stroke-width: 8; stroke-linecap: square"/>
    </g>
    <g id="text_8">
     <!-- 95% confidence -->
     <g transform="translate(126.414063 227.540625) scale(0.2 -0.2)">
      <defs>
       <path id="DejaVuSans-39" d="M 703 97 
L 703 672 
Q 941 559 1184 500 
Q 1428 441 1663 441 
Q 2288 441 2617 861 
Q 2947 1281 2994 2138 
Q 2813 1869 2534 1725 
Q 2256 1581 1919 1581 
Q 1219 1581 811 2004 
Q 403 2428 403 3163 
Q 403 3881 828 4315 
Q 1253 4750 1959 4750 
Q 2769 4750 3195 4129 
Q 3622 3509 3622 2328 
Q 3622 1225 3098 567 
Q 2575 -91 1691 -91 
Q 1453 -91 1209 -44 
Q 966 3 703 97 
z
M 1959 2075 
Q 2384 2075 2632 2365 
Q 2881 2656 2881 3163 
Q 2881 3666 2632 3958 
Q 2384 4250 1959 4250 
Q 1534 4250 1286 3958 
Q 1038 3666 1038 3163 
Q 1038 2656 1286 2365 
Q 1534 2075 1959 2075 
z
" transform="scale(0.015625)"/>
       <path id="DejaVuSans-35" d="M 691 4666 
L 3169 4666 
L 3169 4134 
L 1269 4134 
L 1269 2991 
Q 1406 3038 1543 3061 
Q 1681 3084 1819 3084 
Q 2600 3084 3056 2656 
Q 3513 2228 3513 1497 
Q 3513 744 3044 326 
Q 2575 -91 1722 -91 
Q 1428 -91 1123 -41 
Q 819 9 494 109 
L 494 744 
Q 775 591 1075 516 
Q 1375 441 1709 441 
Q 2250 441 2565 725 
Q 2881 1009 2881 1497 
Q 2881 1984 2565 2268 
Q 2250 2553 1709 2553 
Q 1456 2553 1204 2497 
Q 953 2441 691 2322 
L 691 4666 
z
" transform="scale(0.015625)"/>
       <path id="DejaVuSans-25" d="M 4653 2053 
Q 4381 2053 4226 1822 
Q 4072 1591 4072 1178 
Q 4072 772 4226 539 
Q 4381 306 4653 306 
Q 4919 306 5073 539 
Q 5228 772 5228 1178 
Q 5228 1588 5073 1820 
Q 4919 2053 4653 2053 
z
M 4653 2450 
Q 5147 2450 5437 2106 
Q 5728 1763 5728 1178 
Q 5728 594 5436 251 
Q 5144 -91 4653 -91 
Q 4153 -91 3862 251 
Q 3572 594 3572 1178 
Q 3572 1766 3864 2108 
Q 4156 2450 4653 2450 
z
M 1428 4353 
Q 1159 4353 1004 4120 
Q 850 3888 850 3481 
Q 850 3069 1003 2837 
Q 1156 2606 1428 2606 
Q 1700 2606 1854 2837 
Q 2009 3069 2009 3481 
Q 2009 3884 1853 4118 
Q 1697 4353 1428 4353 
z
M 4250 4750 
L 4750 4750 
L 1831 -91 
L 1331 -91 
L 4250 4750 
z
M 1428 4750 
Q 1922 4750 2215 4408 
Q 2509 4066 2509 3481 
Q 2509 2891 2217 2550 
Q 1925 2209 1428 2209 
Q 931 2209 642 2551 
Q 353 2894 353 3481 
Q 353 4063 643 4406 
Q 934 4750 1428 4750 
z
" transform="scale(0.015625)"/>
       <path id="DejaVuSans-20" transform="scale(0.015625)"/>
       <path id="DejaVuSans-63" d="M 3122 3366 
L 3122 2828 
Q 2878 2963 2633 3030 
Q 2388 3097 2138 3097 
Q 1578 3097 1268 2742 
Q 959 2388 959 1747 
Q 959 1106 1268 751 
Q 1578 397 2138 397 
Q 2388 397 2633 464 
Q 2878 531 3122 666 
L 3122 134 
Q 2881 22 2623 -34 
Q 2366 -91 2075 -91 
Q 1284 -91 818 406 
Q 353 903 353 1747 
Q 353 2603 823 3093 
Q 1294 3584 2113 3584 
Q 2378 3584 2631 3529 
Q 2884 3475 3122 3366 
z
" transform="scale(0.015625)"/>
       <path id="DejaVuSans-6f" d="M 1959 3097 
Q 1497 3097 1228 2736 
Q 959 2375 959 1747 
Q 959 1119 1226 758 
Q 1494 397 1959 397 
Q 2419 397 2687 759 
Q 2956 1122 2956 1747 
Q 2956 2369 2687 2733 
Q 2419 3097 1959 3097 
z
M 1959 3584 
Q 2709 3584 3137 3096 
Q 3566 2609 3566 1747 
Q 3566 888 3137 398 
Q 2709 -91 1959 -91 
Q 1206 -91 779 398 
Q 353 888 353 1747 
Q 353 2609 779 3096 
Q 1206 3584 1959 3584 
z
" transform="scale(0.015625)"/>
       <path id="DejaVuSans-66" d="M 2375 4863 
L 2375 4384 
L 1825 4384 
Q 1516 4384 1395 4259 
Q 1275 4134 1275 3809 
L 1275 3500 
L 2222 3500 
L 2222 3053 
L 1275 3053 
L 1275 0 
L 697 0 
L 697 3053 
L 147 3053 
L 147 3500 
L 697 3500 
L 697 3744 
Q 697 4328 969 4595 
Q 1241 4863 1831 4863 
L 2375 4863 
z
" transform="scale(0.015625)"/>
       <path id="DejaVuSans-69" d="M 603 3500 
L 1178 3500 
L 1178 0 
L 603 0 
L 603 3500 
z
M 603 4863 
L 1178 4863 
L 1178 4134 
L 603 4134 
L 603 4863 
z
" transform="scale(0.015625)"/>
       <path id="DejaVuSans-64" d="M 2906 2969 
L 2906 4863 
L 3481 4863 
L 3481 0 
L 2906 0 
L 2906 525 
Q 2725 213 2448 61 
Q 2172 -91 1784 -91 
Q 1150 -91 751 415 
Q 353 922 353 1747 
Q 353 2572 751 3078 
Q 1150 3584 1784 3584 
Q 2172 3584 2448 3432 
Q 2725 3281 2906 2969 
z
M 947 1747 
Q 947 1113 1208 752 
Q 1469 391 1925 391 
Q 2381 391 2643 752 
Q 2906 1113 2906 1747 
Q 2906 2381 2643 2742 
Q 2381 3103 1925 3103 
Q 1469 3103 1208 2742 
Q 947 2381 947 1747 
z
" transform="scale(0.015625)"/>
      </defs>
      <use xlink:href="#DejaVuSans-39"/>
      <use xlink:href="#DejaVuSans-35" x="63.623047"/>
      <use xlink:href="#DejaVuSans-25" x="127.246094"/>
      <use xlink:href="#DejaVuSans-20" x="222.265625"/>
      <use xlink:href="#DejaVuSans-63" x="254.052734"/>
      <use xlink:href="#DejaVuSans-6f" x="309.033203"/>
      <use xlink:href="#DejaVuSans-6e" x="370.214844"/>
      <use xlink:href="#DejaVuSans-66" x="433.59375"/>
      <use xlink:href="#DejaVuSans-69" x="468.798828"/>
      <use xlink:href="#DejaVuSans-64" x="496.582031"/>
      <use xlink:href="#DejaVuSans-65" x="560.058594"/>
      <use xlink:href="#DejaVuSans-6e" x="621.582031"/>
      <use xlink:href="#DejaVuSans-63" x="684.960938"/>
      <use xlink:href="#DejaVuSans-65" x="739.941406"/>
     </g>
    </g>
    <g id="line2d_68">
     <path d="M 30.414063 249.896875 
L 48.414063 249.896875 
L 66.414063 249.896875 
" style="fill: none; stroke: #fecc5c; stroke-opacity: 0.8; stroke-width: 3; stroke-linecap: square"/>
    </g>
    <g id="line2d_69">
     <path d="M 74.414063 249.896875 
L 92.414063 249.896875 
L 110.414063 249.896875 
" style="fill: none; stroke: #756bb1; stroke-opacity: 0.8; stroke-width: 3; stroke-linecap: square"/>
    </g>
    <g id="text_9">
     <!-- (Predictive) Posterior Samples -->
     <g transform="translate(126.414063 256.896875) scale(0.2 -0.2)">
      <defs>
       <path id="DejaVuSans-28" d="M 1984 4856 
Q 1566 4138 1362 3434 
Q 1159 2731 1159 2009 
Q 1159 1288 1364 580 
Q 1569 -128 1984 -844 
L 1484 -844 
Q 1016 -109 783 600 
Q 550 1309 550 2009 
Q 550 2706 781 3412 
Q 1013 4119 1484 4856 
L 1984 4856 
z
" transform="scale(0.015625)"/>
       <path id="DejaVuSans-50" d="M 1259 4147 
L 1259 2394 
L 2053 2394 
Q 2494 2394 2734 2622 
Q 2975 2850 2975 3272 
Q 2975 3691 2734 3919 
Q 2494 4147 2053 4147 
L 1259 4147 
z
M 628 4666 
L 2053 4666 
Q 2838 4666 3239 4311 
Q 3641 3956 3641 3272 
Q 3641 2581 3239 2228 
Q 2838 1875 2053 1875 
L 1259 1875 
L 1259 0 
L 628 0 
L 628 4666 
z
" transform="scale(0.015625)"/>
       <path id="DejaVuSans-72" d="M 2631 2963 
Q 2534 3019 2420 3045 
Q 2306 3072 2169 3072 
Q 1681 3072 1420 2755 
Q 1159 2438 1159 1844 
L 1159 0 
L 581 0 
L 581 3500 
L 1159 3500 
L 1159 2956 
Q 1341 3275 1631 3429 
Q 1922 3584 2338 3584 
Q 2397 3584 2469 3576 
Q 2541 3569 2628 3553 
L 2631 2963 
z
" transform="scale(0.015625)"/>
       <path id="DejaVuSans-74" d="M 1172 4494 
L 1172 3500 
L 2356 3500 
L 2356 3053 
L 1172 3053 
L 1172 1153 
Q 1172 725 1289 603 
Q 1406 481 1766 481 
L 2356 481 
L 2356 0 
L 1766 0 
Q 1100 0 847 248 
Q 594 497 594 1153 
L 594 3053 
L 172 3053 
L 172 3500 
L 594 3500 
L 594 4494 
L 1172 4494 
z
" transform="scale(0.015625)"/>
       <path id="DejaVuSans-76" d="M 191 3500 
L 800 3500 
L 1894 563 
L 2988 3500 
L 3597 3500 
L 2284 0 
L 1503 0 
L 191 3500 
z
" transform="scale(0.015625)"/>
       <path id="DejaVuSans-29" d="M 513 4856 
L 1013 4856 
Q 1481 4119 1714 3412 
Q 1947 2706 1947 2009 
Q 1947 1309 1714 600 
Q 1481 -109 1013 -844 
L 513 -844 
Q 928 -128 1133 580 
Q 1338 1288 1338 2009 
Q 1338 2731 1133 3434 
Q 928 4138 513 4856 
z
" transform="scale(0.015625)"/>
       <path id="DejaVuSans-73" d="M 2834 3397 
L 2834 2853 
Q 2591 2978 2328 3040 
Q 2066 3103 1784 3103 
Q 1356 3103 1142 2972 
Q 928 2841 928 2578 
Q 928 2378 1081 2264 
Q 1234 2150 1697 2047 
L 1894 2003 
Q 2506 1872 2764 1633 
Q 3022 1394 3022 966 
Q 3022 478 2636 193 
Q 2250 -91 1575 -91 
Q 1294 -91 989 -36 
Q 684 19 347 128 
L 347 722 
Q 666 556 975 473 
Q 1284 391 1588 391 
Q 1994 391 2212 530 
Q 2431 669 2431 922 
Q 2431 1156 2273 1281 
Q 2116 1406 1581 1522 
L 1381 1569 
Q 847 1681 609 1914 
Q 372 2147 372 2553 
Q 372 3047 722 3315 
Q 1072 3584 1716 3584 
Q 2034 3584 2315 3537 
Q 2597 3491 2834 3397 
z
" transform="scale(0.015625)"/>
       <path id="DejaVuSans-53" d="M 3425 4513 
L 3425 3897 
Q 3066 4069 2747 4153 
Q 2428 4238 2131 4238 
Q 1616 4238 1336 4038 
Q 1056 3838 1056 3469 
Q 1056 3159 1242 3001 
Q 1428 2844 1947 2747 
L 2328 2669 
Q 3034 2534 3370 2195 
Q 3706 1856 3706 1288 
Q 3706 609 3251 259 
Q 2797 -91 1919 -91 
Q 1588 -91 1214 -16 
Q 841 59 441 206 
L 441 856 
Q 825 641 1194 531 
Q 1563 422 1919 422 
Q 2459 422 2753 634 
Q 3047 847 3047 1241 
Q 3047 1584 2836 1778 
Q 2625 1972 2144 2069 
L 1759 2144 
Q 1053 2284 737 2584 
Q 422 2884 422 3419 
Q 422 4038 858 4394 
Q 1294 4750 2059 4750 
Q 2388 4750 2728 4690 
Q 3069 4631 3425 4513 
z
" transform="scale(0.015625)"/>
       <path id="DejaVuSans-6d" d="M 3328 2828 
Q 3544 3216 3844 3400 
Q 4144 3584 4550 3584 
Q 5097 3584 5394 3201 
Q 5691 2819 5691 2113 
L 5691 0 
L 5113 0 
L 5113 2094 
Q 5113 2597 4934 2840 
Q 4756 3084 4391 3084 
Q 3944 3084 3684 2787 
Q 3425 2491 3425 1978 
L 3425 0 
L 2847 0 
L 2847 2094 
Q 2847 2600 2669 2842 
Q 2491 3084 2119 3084 
Q 1678 3084 1418 2786 
Q 1159 2488 1159 1978 
L 1159 0 
L 581 0 
L 581 3500 
L 1159 3500 
L 1159 2956 
Q 1356 3278 1631 3431 
Q 1906 3584 2284 3584 
Q 2666 3584 2933 3390 
Q 3200 3197 3328 2828 
z
" transform="scale(0.015625)"/>
       <path id="DejaVuSans-70" d="M 1159 525 
L 1159 -1331 
L 581 -1331 
L 581 3500 
L 1159 3500 
L 1159 2969 
Q 1341 3281 1617 3432 
Q 1894 3584 2278 3584 
Q 2916 3584 3314 3078 
Q 3713 2572 3713 1747 
Q 3713 922 3314 415 
Q 2916 -91 2278 -91 
Q 1894 -91 1617 61 
Q 1341 213 1159 525 
z
M 3116 1747 
Q 3116 2381 2855 2742 
Q 2594 3103 2138 3103 
Q 1681 3103 1420 2742 
Q 1159 2381 1159 1747 
Q 1159 1113 1420 752 
Q 1681 391 2138 391 
Q 2594 391 2855 752 
Q 3116 1113 3116 1747 
z
" transform="scale(0.015625)"/>
       <path id="DejaVuSans-6c" d="M 603 4863 
L 1178 4863 
L 1178 0 
L 603 0 
L 603 4863 
z
" transform="scale(0.015625)"/>
      </defs>
      <use xlink:href="#DejaVuSans-28"/>
      <use xlink:href="#DejaVuSans-50" x="39.013672"/>
      <use xlink:href="#DejaVuSans-72" x="97.566406"/>
      <use xlink:href="#DejaVuSans-65" x="136.429688"/>
      <use xlink:href="#DejaVuSans-64" x="197.953125"/>
      <use xlink:href="#DejaVuSans-69" x="261.429688"/>
      <use xlink:href="#DejaVuSans-63" x="289.212891"/>
      <use xlink:href="#DejaVuSans-74" x="344.193359"/>
      <use xlink:href="#DejaVuSans-69" x="383.402344"/>
      <use xlink:href="#DejaVuSans-76" x="411.185547"/>
      <use xlink:href="#DejaVuSans-65" x="470.365234"/>
      <use xlink:href="#DejaVuSans-29" x="531.888672"/>
      <use xlink:href="#DejaVuSans-20" x="570.902344"/>
      <use xlink:href="#DejaVuSans-50" x="602.689453"/>
      <use xlink:href="#DejaVuSans-6f" x="659.367188"/>
      <use xlink:href="#DejaVuSans-73" x="720.548828"/>
      <use xlink:href="#DejaVuSans-74" x="772.648438"/>
      <use xlink:href="#DejaVuSans-65" x="811.857422"/>
      <use xlink:href="#DejaVuSans-72" x="873.380859"/>
      <use xlink:href="#DejaVuSans-69" x="914.494141"/>
      <use xlink:href="#DejaVuSans-6f" x="942.277344"/>
      <use xlink:href="#DejaVuSans-72" x="1003.458984"/>
      <use xlink:href="#DejaVuSans-20" x="1044.572266"/>
      <use xlink:href="#DejaVuSans-53" x="1076.359375"/>
      <use xlink:href="#DejaVuSans-61" x="1139.835938"/>
      <use xlink:href="#DejaVuSans-6d" x="1201.115234"/>
      <use xlink:href="#DejaVuSans-70" x="1298.527344"/>
      <use xlink:href="#DejaVuSans-6c" x="1362.003906"/>
      <use xlink:href="#DejaVuSans-65" x="1389.787109"/>
      <use xlink:href="#DejaVuSans-73" x="1451.310547"/>
     </g>
    </g>
    <g id="line2d_70">
     <path d="M 30.414063 279.253125 
L 70.414063 279.253125 
L 110.414063 279.253125 
" style="fill: none; stroke: #e40000; stroke-opacity: 0.8; stroke-width: 4; stroke-linecap: square"/>
     <defs>
      <path id="m112a94e77f" d="M -4 4 
L 4 -4 
M -4 -4 
L 4 4 
" style="stroke: #e40000; stroke-opacity: 0.8"/>
     </defs>
     <g>
      <use xlink:href="#m112a94e77f" x="70.414063" y="279.253125" style="fill: #e40000; fill-opacity: 0.8; stroke: #e40000; stroke-opacity: 0.8"/>
     </g>
    </g>
    <g id="text_10">
     <!-- Observation -->
     <g transform="translate(126.414063 286.253125) scale(0.2 -0.2)">
      <defs>
       <path id="DejaVuSans-4f" d="M 2522 4238 
Q 1834 4238 1429 3725 
Q 1025 3213 1025 2328 
Q 1025 1447 1429 934 
Q 1834 422 2522 422 
Q 3209 422 3611 934 
Q 4013 1447 4013 2328 
Q 4013 3213 3611 3725 
Q 3209 4238 2522 4238 
z
M 2522 4750 
Q 3503 4750 4090 4092 
Q 4678 3434 4678 2328 
Q 4678 1225 4090 567 
Q 3503 -91 2522 -91 
Q 1538 -91 948 565 
Q 359 1222 359 2328 
Q 359 3434 948 4092 
Q 1538 4750 2522 4750 
z
" transform="scale(0.015625)"/>
       <path id="DejaVuSans-62" d="M 3116 1747 
Q 3116 2381 2855 2742 
Q 2594 3103 2138 3103 
Q 1681 3103 1420 2742 
Q 1159 2381 1159 1747 
Q 1159 1113 1420 752 
Q 1681 391 2138 391 
Q 2594 391 2855 752 
Q 3116 1113 3116 1747 
z
M 1159 2969 
Q 1341 3281 1617 3432 
Q 1894 3584 2278 3584 
Q 2916 3584 3314 3078 
Q 3713 2572 3713 1747 
Q 3713 922 3314 415 
Q 2916 -91 2278 -91 
Q 1894 -91 1617 61 
Q 1341 213 1159 525 
L 1159 0 
L 581 0 
L 581 4863 
L 1159 4863 
L 1159 2969 
z
" transform="scale(0.015625)"/>
      </defs>
      <use xlink:href="#DejaVuSans-4f"/>
      <use xlink:href="#DejaVuSans-62" x="78.710938"/>
      <use xlink:href="#DejaVuSans-73" x="142.1875"/>
      <use xlink:href="#DejaVuSans-65" x="194.287109"/>
      <use xlink:href="#DejaVuSans-72" x="255.810547"/>
      <use xlink:href="#DejaVuSans-76" x="296.923828"/>
      <use xlink:href="#DejaVuSans-61" x="356.103516"/>
      <use xlink:href="#DejaVuSans-74" x="417.382812"/>
      <use xlink:href="#DejaVuSans-69" x="456.591797"/>
      <use xlink:href="#DejaVuSans-6f" x="484.375"/>
      <use xlink:href="#DejaVuSans-6e" x="545.556641"/>
     </g>
    </g>
   </g>
  </g>
 </g>
 <defs>
  <clipPath id="p77bc27a719">
   <rect x="93.75625" y="7.2" width="270" height="459"/>
  </clipPath>
 </defs>
</svg>
