<?xml version="1.0" encoding="utf-8" standalone="no"?>
<!DOCTYPE svg PUBLIC "-//W3C//DTD SVG 1.1//EN"
  "http://www.w3.org/Graphics/SVG/1.1/DTD/svg11.dtd">
<svg xmlns:xlink="http://www.w3.org/1999/xlink" width="442.298437pt" height="544.35625pt" viewBox="0 0 442.298437 544.35625" xmlns="http://www.w3.org/2000/svg" version="1.1">
 <metadata>
  <rdf:RDF xmlns:dc="http://purl.org/dc/elements/1.1/" xmlns:cc="http://creativecommons.org/ns#" xmlns:rdf="http://www.w3.org/1999/02/22-rdf-syntax-ns#">
   <cc:Work>
    <dc:type rdf:resource="http://purl.org/dc/dcmitype/StillImage"/>
    <dc:date>2024-07-31T19:17:35.842162</dc:date>
    <dc:format>image/svg+xml</dc:format>
    <dc:creator>
     <cc:Agent>
      <dc:title>Matplotlib v3.8.0, https://matplotlib.org/</dc:title>
     </cc:Agent>
    </dc:creator>
   </cc:Work>
  </rdf:RDF>
 </metadata>
 <defs>
  <style type="text/css">*{stroke-linejoin: round; stroke-linecap: butt}</style>
 </defs>
 <g id="figure_1">
  <g id="patch_1">
   <path d="M -0 544.35625 
L 442.298437 544.35625 
L 442.298437 0 
L -0 0 
z
" style="fill: #ffffff"/>
  </g>
  <g id="axes_1">
   <g id="patch_2">
    <path d="M 93.75625 466.2 
L 363.75625 466.2 
L 363.75625 7.2 
L 93.75625 7.2 
z
" style="fill: #ffffff"/>
   </g>
   <g id="PolyCollection_1">
    <defs>
     <path id="m619ceb0f67" d="M 134.447046 -516.292614 
L 162.805616 -516.292614 
L 164.540817 -497.325671 
L 167.67333 -478.358729 
L 172.335249 -459.391787 
L 177.631172 -440.424845 
L 185.773607 -421.457903 
L 193.426119 -402.490961 
L 204.340067 -383.524019 
L 215.760764 -364.557076 
L 228.918947 -345.590134 
L 244.737475 -326.623192 
L 260.499474 -307.65625 
L 276.932237 -288.689308 
L 293.945708 -269.722366 
L 309.238816 -250.755424 
L 321.965681 -231.788481 
L 332.566927 -212.821539 
L 340.470127 -193.854597 
L 343.094756 -174.887655 
L 341.383971 -155.920713 
L 338.36296 -136.953771 
L 331.917783 -117.986829 
L 327.817051 -99.019886 
L 299.544132 -99.019886 
L 299.544132 -99.019886 
L 300.996089 -117.986829 
L 302.817129 -136.953771 
L 295.300481 -155.920713 
L 289.008672 -174.887655 
L 277.865299 -193.854597 
L 266.311049 -212.821539 
L 251.502402 -231.788481 
L 237.545556 -250.755424 
L 222.403716 -269.722366 
L 209.734902 -288.689308 
L 196.334681 -307.65625 
L 185.047063 -326.623192 
L 174.002625 -345.590134 
L 165.424917 -364.557076 
L 158.877206 -383.524019 
L 150.622748 -402.490961 
L 145.701231 -421.457903 
L 141.133614 -440.424845 
L 137.313864 -459.391787 
L 135.465679 -478.358729 
L 134.311718 -497.325671 
L 134.447046 -516.292614 
z
" style="stroke: #756bb1; stroke-opacity: 0.5"/>
    </defs>
    <g clip-path="url(#pe3438ef0b6)">
     <use xlink:href="#m619ceb0f67" x="0" y="544.35625" style="fill: #756bb1; fill-opacity: 0.5; stroke: #756bb1; stroke-opacity: 0.5"/>
    </g>
   </g>
   <g id="matplotlib.axis_1">
    <g id="xtick_1">
     <g id="line2d_1">
      <defs>
       <path id="me1b9abb5b6" d="M 0 0 
L 0 3.5 
" style="stroke: #000000; stroke-width: 1.5"/>
      </defs>
      <g>
       <use xlink:href="#me1b9abb5b6" x="187.716062" y="476.2" style="stroke: #000000; stroke-width: 1.5"/>
      </g>
     </g>
     <g id="text_1">
      <!-- 100 -->
      <g transform="translate(168.628562 498.396875) scale(0.2 -0.2)">
       <defs>
        <path id="DejaVuSans-31" d="M 794 531 
L 1825 531 
L 1825 4091 
L 703 3866 
L 703 4441 
L 1819 4666 
L 2450 4666 
L 2450 531 
L 3481 531 
L 3481 0 
L 794 0 
L 794 531 
z
" transform="scale(0.015625)"/>
        <path id="DejaVuSans-30" d="M 2034 4250 
Q 1547 4250 1301 3770 
Q 1056 3291 1056 2328 
Q 1056 1369 1301 889 
Q 1547 409 2034 409 
Q 2525 409 2770 889 
Q 3016 1369 3016 2328 
Q 3016 3291 2770 3770 
Q 2525 4250 2034 4250 
z
M 2034 4750 
Q 2819 4750 3233 4129 
Q 3647 3509 3647 2328 
Q 3647 1150 3233 529 
Q 2819 -91 2034 -91 
Q 1250 -91 836 529 
Q 422 1150 422 2328 
Q 422 3509 836 4129 
Q 1250 4750 2034 4750 
z
" transform="scale(0.015625)"/>
       </defs>
       <use xlink:href="#DejaVuSans-31"/>
       <use xlink:href="#DejaVuSans-30" x="63.623047"/>
       <use xlink:href="#DejaVuSans-30" x="127.246094"/>
      </g>
     </g>
    </g>
    <g id="xtick_2">
     <g id="line2d_2">
      <g>
       <use xlink:href="#me1b9abb5b6" x="291.637135" y="476.2" style="stroke: #000000; stroke-width: 1.5"/>
      </g>
     </g>
     <g id="text_2">
      <!-- 200 -->
      <g transform="translate(272.549635 498.396875) scale(0.2 -0.2)">
       <defs>
        <path id="DejaVuSans-32" d="M 1228 531 
L 3431 531 
L 3431 0 
L 469 0 
L 469 531 
Q 828 903 1448 1529 
Q 2069 2156 2228 2338 
Q 2531 2678 2651 2914 
Q 2772 3150 2772 3378 
Q 2772 3750 2511 3984 
Q 2250 4219 1831 4219 
Q 1534 4219 1204 4116 
Q 875 4013 500 3803 
L 500 4441 
Q 881 4594 1212 4672 
Q 1544 4750 1819 4750 
Q 2544 4750 2975 4387 
Q 3406 4025 3406 3419 
Q 3406 3131 3298 2873 
Q 3191 2616 2906 2266 
Q 2828 2175 2409 1742 
Q 1991 1309 1228 531 
z
" transform="scale(0.015625)"/>
       </defs>
       <use xlink:href="#DejaVuSans-32"/>
       <use xlink:href="#DejaVuSans-30" x="63.623047"/>
       <use xlink:href="#DejaVuSans-30" x="127.246094"/>
      </g>
     </g>
    </g>
    <g id="text_3">
     <!-- Apparent Resistivity [$\Omega m$] -->
     <g transform="translate(81.95625 532.75625) scale(0.2 -0.2)">
      <defs>
       <path id="DejaVuSans-Bold-41" d="M 3419 850 
L 1538 850 
L 1241 0 
L 31 0 
L 1759 4666 
L 3194 4666 
L 4922 0 
L 3713 0 
L 3419 850 
z
M 1838 1716 
L 3116 1716 
L 2478 3572 
L 1838 1716 
z
" transform="scale(0.015625)"/>
       <path id="DejaVuSans-Bold-70" d="M 1656 506 
L 1656 -1331 
L 538 -1331 
L 538 3500 
L 1656 3500 
L 1656 2988 
Q 1888 3294 2169 3439 
Q 2450 3584 2816 3584 
Q 3463 3584 3878 3070 
Q 4294 2556 4294 1747 
Q 4294 938 3878 423 
Q 3463 -91 2816 -91 
Q 2450 -91 2169 54 
Q 1888 200 1656 506 
z
M 2400 2772 
Q 2041 2772 1848 2508 
Q 1656 2244 1656 1747 
Q 1656 1250 1848 986 
Q 2041 722 2400 722 
Q 2759 722 2948 984 
Q 3138 1247 3138 1747 
Q 3138 2247 2948 2509 
Q 2759 2772 2400 2772 
z
" transform="scale(0.015625)"/>
       <path id="DejaVuSans-Bold-61" d="M 2106 1575 
Q 1756 1575 1579 1456 
Q 1403 1338 1403 1106 
Q 1403 894 1545 773 
Q 1688 653 1941 653 
Q 2256 653 2472 879 
Q 2688 1106 2688 1447 
L 2688 1575 
L 2106 1575 
z
M 3816 1997 
L 3816 0 
L 2688 0 
L 2688 519 
Q 2463 200 2181 54 
Q 1900 -91 1497 -91 
Q 953 -91 614 226 
Q 275 544 275 1050 
Q 275 1666 698 1953 
Q 1122 2241 2028 2241 
L 2688 2241 
L 2688 2328 
Q 2688 2594 2478 2717 
Q 2269 2841 1825 2841 
Q 1466 2841 1156 2769 
Q 847 2697 581 2553 
L 581 3406 
Q 941 3494 1303 3539 
Q 1666 3584 2028 3584 
Q 2975 3584 3395 3211 
Q 3816 2838 3816 1997 
z
" transform="scale(0.015625)"/>
       <path id="DejaVuSans-Bold-72" d="M 3138 2547 
Q 2991 2616 2845 2648 
Q 2700 2681 2553 2681 
Q 2122 2681 1889 2404 
Q 1656 2128 1656 1613 
L 1656 0 
L 538 0 
L 538 3500 
L 1656 3500 
L 1656 2925 
Q 1872 3269 2151 3426 
Q 2431 3584 2822 3584 
Q 2878 3584 2943 3579 
Q 3009 3575 3134 3559 
L 3138 2547 
z
" transform="scale(0.015625)"/>
       <path id="DejaVuSans-Bold-65" d="M 4031 1759 
L 4031 1441 
L 1416 1441 
Q 1456 1047 1700 850 
Q 1944 653 2381 653 
Q 2734 653 3104 758 
Q 3475 863 3866 1075 
L 3866 213 
Q 3469 63 3072 -14 
Q 2675 -91 2278 -91 
Q 1328 -91 801 392 
Q 275 875 275 1747 
Q 275 2603 792 3093 
Q 1309 3584 2216 3584 
Q 3041 3584 3536 3087 
Q 4031 2591 4031 1759 
z
M 2881 2131 
Q 2881 2450 2695 2645 
Q 2509 2841 2209 2841 
Q 1884 2841 1681 2658 
Q 1478 2475 1428 2131 
L 2881 2131 
z
" transform="scale(0.015625)"/>
       <path id="DejaVuSans-Bold-6e" d="M 4056 2131 
L 4056 0 
L 2931 0 
L 2931 347 
L 2931 1631 
Q 2931 2084 2911 2256 
Q 2891 2428 2841 2509 
Q 2775 2619 2662 2680 
Q 2550 2741 2406 2741 
Q 2056 2741 1856 2470 
Q 1656 2200 1656 1722 
L 1656 0 
L 538 0 
L 538 3500 
L 1656 3500 
L 1656 2988 
Q 1909 3294 2193 3439 
Q 2478 3584 2822 3584 
Q 3428 3584 3742 3212 
Q 4056 2841 4056 2131 
z
" transform="scale(0.015625)"/>
       <path id="DejaVuSans-Bold-74" d="M 1759 4494 
L 1759 3500 
L 2913 3500 
L 2913 2700 
L 1759 2700 
L 1759 1216 
Q 1759 972 1856 886 
Q 1953 800 2241 800 
L 2816 800 
L 2816 0 
L 1856 0 
Q 1194 0 917 276 
Q 641 553 641 1216 
L 641 2700 
L 84 2700 
L 84 3500 
L 641 3500 
L 641 4494 
L 1759 4494 
z
" transform="scale(0.015625)"/>
       <path id="DejaVuSans-Bold-20" transform="scale(0.015625)"/>
       <path id="DejaVuSans-Bold-52" d="M 2297 2597 
Q 2675 2597 2839 2737 
Q 3003 2878 3003 3200 
Q 3003 3519 2839 3656 
Q 2675 3794 2297 3794 
L 1791 3794 
L 1791 2597 
L 2297 2597 
z
M 1791 1766 
L 1791 0 
L 588 0 
L 588 4666 
L 2425 4666 
Q 3347 4666 3776 4356 
Q 4206 4047 4206 3378 
Q 4206 2916 3982 2619 
Q 3759 2322 3309 2181 
Q 3556 2125 3751 1926 
Q 3947 1728 4147 1325 
L 4800 0 
L 3519 0 
L 2950 1159 
Q 2778 1509 2601 1637 
Q 2425 1766 2131 1766 
L 1791 1766 
z
" transform="scale(0.015625)"/>
       <path id="DejaVuSans-Bold-73" d="M 3272 3391 
L 3272 2541 
Q 2913 2691 2578 2766 
Q 2244 2841 1947 2841 
Q 1628 2841 1473 2761 
Q 1319 2681 1319 2516 
Q 1319 2381 1436 2309 
Q 1553 2238 1856 2203 
L 2053 2175 
Q 2913 2066 3209 1816 
Q 3506 1566 3506 1031 
Q 3506 472 3093 190 
Q 2681 -91 1863 -91 
Q 1516 -91 1145 -36 
Q 775 19 384 128 
L 384 978 
Q 719 816 1070 734 
Q 1422 653 1784 653 
Q 2113 653 2278 743 
Q 2444 834 2444 1013 
Q 2444 1163 2330 1236 
Q 2216 1309 1875 1350 
L 1678 1375 
Q 931 1469 631 1722 
Q 331 1975 331 2491 
Q 331 3047 712 3315 
Q 1094 3584 1881 3584 
Q 2191 3584 2531 3537 
Q 2872 3491 3272 3391 
z
" transform="scale(0.015625)"/>
       <path id="DejaVuSans-Bold-69" d="M 538 3500 
L 1656 3500 
L 1656 0 
L 538 0 
L 538 3500 
z
M 538 4863 
L 1656 4863 
L 1656 3950 
L 538 3950 
L 538 4863 
z
" transform="scale(0.015625)"/>
       <path id="DejaVuSans-Bold-76" d="M 97 3500 
L 1216 3500 
L 2088 1081 
L 2956 3500 
L 4078 3500 
L 2700 0 
L 1472 0 
L 97 3500 
z
" transform="scale(0.015625)"/>
       <path id="DejaVuSans-Bold-79" d="M 78 3500 
L 1197 3500 
L 2138 1125 
L 2938 3500 
L 4056 3500 
L 2584 -331 
Q 2363 -916 2067 -1148 
Q 1772 -1381 1288 -1381 
L 641 -1381 
L 641 -647 
L 991 -647 
Q 1275 -647 1404 -556 
Q 1534 -466 1606 -231 
L 1638 -134 
L 78 3500 
z
" transform="scale(0.015625)"/>
       <path id="DejaVuSans-Bold-5b" d="M 550 4863 
L 2491 4863 
L 2491 4159 
L 1613 4159 
L 1613 -141 
L 2491 -141 
L 2491 -844 
L 550 -844 
L 550 4863 
z
" transform="scale(0.015625)"/>
       <path id="DejaVuSans-Bold-3a9" d="M 2719 4750 
Q 3841 4750 4480 4106 
Q 5119 3463 5119 2494 
Q 5119 1406 4306 909 
L 5266 909 
L 5266 0 
L 3125 0 
L 3125 975 
Q 3244 1041 3334 1131 
Q 3875 1678 3875 2466 
Q 3875 3066 3572 3472 
Q 3269 3878 2719 3878 
Q 2169 3878 1866 3472 
Q 1563 3066 1563 2466 
Q 1563 1678 2103 1131 
Q 2194 1041 2313 975 
L 2313 0 
L 172 0 
L 172 909 
L 1131 909 
Q 319 1406 319 2494 
Q 319 3463 958 4106 
Q 1597 4750 2719 4750 
z
" transform="scale(0.015625)"/>
       <path id="DejaVuSans-Bold-6d" d="M 3781 2919 
Q 3994 3244 4286 3414 
Q 4578 3584 4928 3584 
Q 5531 3584 5847 3212 
Q 6163 2841 6163 2131 
L 6163 0 
L 5038 0 
L 5038 1825 
Q 5041 1866 5042 1909 
Q 5044 1953 5044 2034 
Q 5044 2406 4934 2573 
Q 4825 2741 4581 2741 
Q 4263 2741 4089 2478 
Q 3916 2216 3909 1719 
L 3909 0 
L 2784 0 
L 2784 1825 
Q 2784 2406 2684 2573 
Q 2584 2741 2328 2741 
Q 2006 2741 1831 2477 
Q 1656 2213 1656 1722 
L 1656 0 
L 531 0 
L 531 3500 
L 1656 3500 
L 1656 2988 
Q 1863 3284 2130 3434 
Q 2397 3584 2719 3584 
Q 3081 3584 3359 3409 
Q 3638 3234 3781 2919 
z
" transform="scale(0.015625)"/>
       <path id="DejaVuSans-Bold-5d" d="M 2375 -844 
L 434 -844 
L 434 -141 
L 1313 -141 
L 1313 4159 
L 434 4159 
L 434 4863 
L 2375 4863 
L 2375 -844 
z
" transform="scale(0.015625)"/>
      </defs>
      <use xlink:href="#DejaVuSans-Bold-41" transform="translate(0 0.015625)"/>
      <use xlink:href="#DejaVuSans-Bold-70" transform="translate(77.392578 0.015625)"/>
      <use xlink:href="#DejaVuSans-Bold-70" transform="translate(148.974609 0.015625)"/>
      <use xlink:href="#DejaVuSans-Bold-61" transform="translate(220.556641 0.015625)"/>
      <use xlink:href="#DejaVuSans-Bold-72" transform="translate(288.037109 0.015625)"/>
      <use xlink:href="#DejaVuSans-Bold-65" transform="translate(337.353516 0.015625)"/>
      <use xlink:href="#DejaVuSans-Bold-6e" transform="translate(405.175781 0.015625)"/>
      <use xlink:href="#DejaVuSans-Bold-74" transform="translate(476.367188 0.015625)"/>
      <use xlink:href="#DejaVuSans-Bold-20" transform="translate(524.169922 0.015625)"/>
      <use xlink:href="#DejaVuSans-Bold-52" transform="translate(558.984375 0.015625)"/>
      <use xlink:href="#DejaVuSans-Bold-65" transform="translate(635.986328 0.015625)"/>
      <use xlink:href="#DejaVuSans-Bold-73" transform="translate(703.808594 0.015625)"/>
      <use xlink:href="#DejaVuSans-Bold-69" transform="translate(763.330078 0.015625)"/>
      <use xlink:href="#DejaVuSans-Bold-73" transform="translate(797.607422 0.015625)"/>
      <use xlink:href="#DejaVuSans-Bold-74" transform="translate(857.128906 0.015625)"/>
      <use xlink:href="#DejaVuSans-Bold-69" transform="translate(904.931641 0.015625)"/>
      <use xlink:href="#DejaVuSans-Bold-76" transform="translate(939.208984 0.015625)"/>
      <use xlink:href="#DejaVuSans-Bold-69" transform="translate(1004.394531 0.015625)"/>
      <use xlink:href="#DejaVuSans-Bold-74" transform="translate(1038.671875 0.015625)"/>
      <use xlink:href="#DejaVuSans-Bold-79" transform="translate(1086.474609 0.015625)"/>
      <use xlink:href="#DejaVuSans-Bold-20" transform="translate(1151.660156 0.015625)"/>
      <use xlink:href="#DejaVuSans-Bold-5b" transform="translate(1186.474609 0.015625)"/>
      <use xlink:href="#DejaVuSans-Bold-3a9" transform="translate(1232.177734 0.015625)"/>
      <use xlink:href="#DejaVuSans-Bold-6d" transform="translate(1317.1875 0.015625)"/>
      <use xlink:href="#DejaVuSans-Bold-5d" transform="translate(1421.386719 0.015625)"/>
     </g>
    </g>
   </g>
   <g id="matplotlib.axis_2">
    <g id="ytick_1">
     <g id="line2d_3">
      <defs>
       <path id="m0203c8670a" d="M 0 0 
L -3.5 0 
" style="stroke: #000000; stroke-width: 1.5"/>
      </defs>
      <g>
       <use xlink:href="#m0203c8670a" x="83.75625" y="199.733012" style="stroke: #000000; stroke-width: 1.5"/>
      </g>
     </g>
     <g id="text_4">
      <!-- $\mathdefault{10^{1}}$ -->
      <g transform="translate(41.55625 207.33145) scale(0.2 -0.2)">
       <use xlink:href="#DejaVuSans-31" transform="translate(0 0.684375)"/>
       <use xlink:href="#DejaVuSans-30" transform="translate(63.623047 0.684375)"/>
       <use xlink:href="#DejaVuSans-31" transform="translate(128.203125 38.965625) scale(0.7)"/>
      </g>
     </g>
    </g>
    <g id="ytick_2">
     <g id="line2d_4">
      <g>
       <use xlink:href="#m0203c8670a" x="83.75625" y="445.336364" style="stroke: #000000; stroke-width: 1.5"/>
      </g>
     </g>
     <g id="text_5">
      <!-- $\mathdefault{10^{2}}$ -->
      <g transform="translate(41.55625 452.934801) scale(0.2 -0.2)">
       <use xlink:href="#DejaVuSans-31" transform="translate(0 0.765625)"/>
       <use xlink:href="#DejaVuSans-30" transform="translate(63.623047 0.765625)"/>
       <use xlink:href="#DejaVuSans-32" transform="translate(128.203125 39.046875) scale(0.7)"/>
      </g>
     </g>
    </g>
    <g id="ytick_3">
     <g id="line2d_5">
      <defs>
       <path id="m1eacbe0923" d="M 0 0 
L -2 0 
" style="stroke: #000000; stroke-width: 1.5"/>
      </defs>
      <g>
       <use xlink:href="#m1eacbe0923" x="83.75625" y="28.063636" style="stroke: #000000; stroke-width: 1.5"/>
      </g>
     </g>
    </g>
    <g id="ytick_4">
     <g id="line2d_6">
      <g>
       <use xlink:href="#m1eacbe0923" x="83.75625" y="71.31224" style="stroke: #000000; stroke-width: 1.5"/>
      </g>
     </g>
    </g>
    <g id="ytick_5">
     <g id="line2d_7">
      <g>
       <use xlink:href="#m1eacbe0923" x="83.75625" y="101.997612" style="stroke: #000000; stroke-width: 1.5"/>
      </g>
     </g>
    </g>
    <g id="ytick_6">
     <g id="line2d_8">
      <g>
       <use xlink:href="#m1eacbe0923" x="83.75625" y="125.799036" style="stroke: #000000; stroke-width: 1.5"/>
      </g>
     </g>
    </g>
    <g id="ytick_7">
     <g id="line2d_9">
      <g>
       <use xlink:href="#m1eacbe0923" x="83.75625" y="145.246216" style="stroke: #000000; stroke-width: 1.5"/>
      </g>
     </g>
    </g>
    <g id="ytick_8">
     <g id="line2d_10">
      <g>
       <use xlink:href="#m1eacbe0923" x="83.75625" y="161.688572" style="stroke: #000000; stroke-width: 1.5"/>
      </g>
     </g>
    </g>
    <g id="ytick_9">
     <g id="line2d_11">
      <g>
       <use xlink:href="#m1eacbe0923" x="83.75625" y="175.931588" style="stroke: #000000; stroke-width: 1.5"/>
      </g>
     </g>
    </g>
    <g id="ytick_10">
     <g id="line2d_12">
      <g>
       <use xlink:href="#m1eacbe0923" x="83.75625" y="188.494819" style="stroke: #000000; stroke-width: 1.5"/>
      </g>
     </g>
    </g>
    <g id="ytick_11">
     <g id="line2d_13">
      <g>
       <use xlink:href="#m1eacbe0923" x="83.75625" y="273.666988" style="stroke: #000000; stroke-width: 1.5"/>
      </g>
     </g>
    </g>
    <g id="ytick_12">
     <g id="line2d_14">
      <g>
       <use xlink:href="#m1eacbe0923" x="83.75625" y="316.915591" style="stroke: #000000; stroke-width: 1.5"/>
      </g>
     </g>
    </g>
    <g id="ytick_13">
     <g id="line2d_15">
      <g>
       <use xlink:href="#m1eacbe0923" x="83.75625" y="347.600964" style="stroke: #000000; stroke-width: 1.5"/>
      </g>
     </g>
    </g>
    <g id="ytick_14">
     <g id="line2d_16">
      <g>
       <use xlink:href="#m1eacbe0923" x="83.75625" y="371.402388" style="stroke: #000000; stroke-width: 1.5"/>
      </g>
     </g>
    </g>
    <g id="ytick_15">
     <g id="line2d_17">
      <g>
       <use xlink:href="#m1eacbe0923" x="83.75625" y="390.849567" style="stroke: #000000; stroke-width: 1.5"/>
      </g>
     </g>
    </g>
    <g id="ytick_16">
     <g id="line2d_18">
      <g>
       <use xlink:href="#m1eacbe0923" x="83.75625" y="407.291923" style="stroke: #000000; stroke-width: 1.5"/>
      </g>
     </g>
    </g>
    <g id="ytick_17">
     <g id="line2d_19">
      <g>
       <use xlink:href="#m1eacbe0923" x="83.75625" y="421.53494" style="stroke: #000000; stroke-width: 1.5"/>
      </g>
     </g>
    </g>
    <g id="ytick_18">
     <g id="line2d_20">
      <g>
       <use xlink:href="#m1eacbe0923" x="83.75625" y="434.098171" style="stroke: #000000; stroke-width: 1.5"/>
      </g>
     </g>
    </g>
    <g id="text_6">
     <!-- AB/2 [m] -->
     <g transform="translate(22.396875 285.714062) rotate(-90) scale(0.2 -0.2)">
      <defs>
       <path id="DejaVuSans-Bold-42" d="M 2456 2859 
Q 2741 2859 2887 2984 
Q 3034 3109 3034 3353 
Q 3034 3594 2887 3720 
Q 2741 3847 2456 3847 
L 1791 3847 
L 1791 2859 
L 2456 2859 
z
M 2497 819 
Q 2859 819 3042 972 
Q 3225 1125 3225 1434 
Q 3225 1738 3044 1889 
Q 2863 2041 2497 2041 
L 1791 2041 
L 1791 819 
L 2497 819 
z
M 3616 2497 
Q 4003 2384 4215 2081 
Q 4428 1778 4428 1338 
Q 4428 663 3972 331 
Q 3516 0 2584 0 
L 588 0 
L 588 4666 
L 2394 4666 
Q 3366 4666 3802 4372 
Q 4238 4078 4238 3431 
Q 4238 3091 4078 2852 
Q 3919 2613 3616 2497 
z
" transform="scale(0.015625)"/>
       <path id="DejaVuSans-Bold-2f" d="M 1644 4666 
L 2338 4666 
L 691 -594 
L 0 -594 
L 1644 4666 
z
" transform="scale(0.015625)"/>
       <path id="DejaVuSans-Bold-32" d="M 1844 884 
L 3897 884 
L 3897 0 
L 506 0 
L 506 884 
L 2209 2388 
Q 2438 2594 2547 2791 
Q 2656 2988 2656 3200 
Q 2656 3528 2436 3728 
Q 2216 3928 1850 3928 
Q 1569 3928 1234 3808 
Q 900 3688 519 3450 
L 519 4475 
Q 925 4609 1322 4679 
Q 1719 4750 2100 4750 
Q 2938 4750 3402 4381 
Q 3866 4013 3866 3353 
Q 3866 2972 3669 2642 
Q 3472 2313 2841 1759 
L 1844 884 
z
" transform="scale(0.015625)"/>
      </defs>
      <use xlink:href="#DejaVuSans-Bold-41"/>
      <use xlink:href="#DejaVuSans-Bold-42" x="77.392578"/>
      <use xlink:href="#DejaVuSans-Bold-2f" x="153.613281"/>
      <use xlink:href="#DejaVuSans-Bold-32" x="190.136719"/>
      <use xlink:href="#DejaVuSans-Bold-20" x="259.716797"/>
      <use xlink:href="#DejaVuSans-Bold-5b" x="294.53125"/>
      <use xlink:href="#DejaVuSans-Bold-6d" x="340.234375"/>
      <use xlink:href="#DejaVuSans-Bold-5d" x="444.433594"/>
     </g>
    </g>
   </g>
   <g id="line2d_21">
    <path d="M 143.149992 28.063636 
L 141.947367 47.030579 
L 149.344318 65.997521 
L 157.020331 84.964463 
L 153.194985 103.931405 
L 162.476688 122.898347 
L 174.803901 141.865289 
L 177.675994 160.832231 
L 183.977375 179.799174 
L 198.861936 198.766116 
L 205.899515 217.733058 
L 219.1491 236.7 
L 242.328676 255.666942 
L 251.23843 274.633884 
L 265.263743 293.600826 
L 278.679587 312.567769 
L 296.085819 331.534711 
L 305.714197 350.501653 
L 315.108482 369.468595 
L 318.69409 388.435537 
L 313.532315 407.402479 
L 314.727489 426.369421 
L 316.845733 445.336364 
" clip-path="url(#pe3438ef0b6)" style="fill: none; stroke: #756bb1; stroke-opacity: 0.2; stroke-width: 2; stroke-linecap: square"/>
   </g>
   <g id="line2d_22">
    <path d="M 153.167556 28.063636 
L 150.308048 47.030579 
L 151.05085 65.997521 
L 160.368692 84.964463 
L 164.990718 103.931405 
L 168.862818 122.898347 
L 173.862674 141.865289 
L 176.296181 160.832231 
L 188.190502 179.799174 
L 197.435662 198.766116 
L 214.591274 217.733058 
L 227.720931 236.7 
L 246.223997 255.666942 
L 258.347935 274.633884 
L 275.684632 293.600826 
L 293.145682 312.567769 
L 306.455573 331.534711 
L 312.625606 350.501653 
L 315.423796 369.468595 
L 319.582897 388.435537 
L 321.36482 407.402479 
L 318.792395 426.369421 
L 310.344304 445.336364 
" clip-path="url(#pe3438ef0b6)" style="fill: none; stroke: #756bb1; stroke-opacity: 0.2; stroke-width: 2; stroke-linecap: square"/>
   </g>
   <g id="line2d_23">
    <path d="M 145.003494 28.063636 
L 148.064241 47.030579 
L 153.846053 65.997521 
L 157.71804 84.964463 
L 163.542903 103.931405 
L 179.078257 122.898347 
L 188.170946 141.865289 
L 189.839464 160.832231 
L 199.850322 179.799174 
L 211.941893 198.766116 
L 227.737785 217.733058 
L 244.326147 236.7 
L 256.932701 255.666942 
L 275.266624 274.633884 
L 284.572724 293.600826 
L 302.581973 312.567769 
L 305.184936 331.534711 
L 318.25371 350.501653 
L 322.386163 369.468595 
L 327.497204 388.435537 
L 321.641861 407.402479 
L 311.636871 426.369421 
L 315.000251 445.336364 
" clip-path="url(#pe3438ef0b6)" style="fill: none; stroke: #756bb1; stroke-opacity: 0.2; stroke-width: 2; stroke-linecap: square"/>
   </g>
   <g id="line2d_24">
    <path clip-path="url(#pe3438ef0b6)" style="fill: none; stroke: #756bb1; stroke-opacity: 0.2; stroke-width: 2; stroke-linecap: square"/>
   </g>
   <g id="line2d_25">
    <path d="M 144.232552 28.063636 
L 151.481301 47.030579 
L 144.959985 65.997521 
L 148.431187 84.964463 
L 156.903383 103.931405 
L 165.202276 122.898347 
L 173.674847 141.865289 
L 180.937457 160.832231 
L 191.315562 179.799174 
L 194.459824 198.766116 
L 215.601204 217.733058 
L 222.399522 236.7 
L 243.927517 255.666942 
L 257.814382 274.633884 
L 272.728036 293.600826 
L 284.805915 312.567769 
L 298.093839 331.534711 
L 308.016895 350.501653 
L 314.90715 369.468595 
L 320.305217 388.435537 
L 315.215238 407.402479 
L 310.939281 426.369421 
L 315.909486 445.336364 
" clip-path="url(#pe3438ef0b6)" style="fill: none; stroke: #756bb1; stroke-opacity: 0.2; stroke-width: 2; stroke-linecap: square"/>
   </g>
   <g id="line2d_26">
    <path d="M 159.534739 28.063636 
L 151.625948 47.030579 
L 163.735398 65.997521 
L 165.684131 84.964463 
L 171.151941 103.931405 
L 175.671376 122.898347 
L 174.333073 141.865289 
L 178.458612 160.832231 
L 192.991194 179.799174 
L 192.233263 198.766116 
L 206.299557 217.733058 
L 214.130518 236.7 
L 225.149348 255.666942 
L 241.889371 274.633884 
L 258.600613 293.600826 
L 276.420144 312.567769 
L 291.856035 331.534711 
L 298.377068 350.501653 
L 313.365604 369.468595 
L 316.429696 388.435537 
L 319.011213 407.402479 
L 316.382926 426.369421 
L 310.745219 445.336364 
" clip-path="url(#pe3438ef0b6)" style="fill: none; stroke: #756bb1; stroke-opacity: 0.2; stroke-width: 2; stroke-linecap: square"/>
   </g>
   <g id="line2d_27">
    <path d="M 136.743895 28.063636 
L 126.523796 47.030579 
L 130.207406 65.997521 
L 135.765945 84.964463 
L 138.7593 103.931405 
L 142.803569 122.898347 
L 145.586113 141.865289 
L 154.523941 160.832231 
L 160.968319 179.799174 
L 172.760722 198.766116 
L 183.689829 217.733058 
L 199.411707 236.7 
L 208.226552 255.666942 
L 221.853641 274.633884 
L 245.575046 293.600826 
L 251.376128 312.567769 
L 267.20691 331.534711 
L 286.061785 350.501653 
L 296.654625 369.468595 
L 299.040146 388.435537 
L 300.672465 407.402479 
L 302.748279 426.369421 
L 305.28724 445.336364 
" clip-path="url(#pe3438ef0b6)" style="fill: none; stroke: #756bb1; stroke-opacity: 0.2; stroke-width: 2; stroke-linecap: square"/>
   </g>
   <g id="line2d_28">
    <path d="M 152.80711 28.063636 
L 165.032102 47.030579 
L 167.669107 65.997521 
L 166.544255 84.964463 
L 171.266552 103.931405 
L 177.140576 122.898347 
L 182.450877 141.865289 
L 195.029346 160.832231 
L 203.488115 179.799174 
L 216.922309 198.766116 
L 223.077398 217.733058 
L 240.399313 236.7 
L 254.343804 255.666942 
L 269.373245 274.633884 
L 282.889429 293.600826 
L 303.282161 312.567769 
L 314.814581 331.534711 
L 326.19767 350.501653 
L 330.214704 369.468595 
L 324.765011 388.435537 
L 324.736924 407.402479 
L 319.822946 426.369421 
L 315.841322 445.336364 
" clip-path="url(#pe3438ef0b6)" style="fill: none; stroke: #756bb1; stroke-opacity: 0.2; stroke-width: 2; stroke-linecap: square"/>
   </g>
   <g id="line2d_29">
    <path d="M 156.260714 28.063636 
L 151.765482 47.030579 
L 154.99163 65.997521 
L 152.439017 84.964463 
L 158.781871 103.931405 
L 162.762634 122.898347 
L 167.828493 141.865289 
L 171.35167 160.832231 
L 188.114858 179.799174 
L 194.20137 198.766116 
L 208.0834 217.733058 
L 233.447564 236.7 
L 249.524485 255.666942 
L 268.233767 274.633884 
L 288.612434 293.600826 
L 299.864623 312.567769 
L 315.566707 331.534711 
L 326.509021 350.501653 
L 336.201136 369.468595 
L 336.257722 388.435537 
L 340.636252 407.402479 
L 342.182487 426.369421 
L 333.178504 445.336364 
" clip-path="url(#pe3438ef0b6)" style="fill: none; stroke: #756bb1; stroke-opacity: 0.2; stroke-width: 2; stroke-linecap: square"/>
   </g>
   <g id="line2d_30">
    <path d="M 151.591948 28.063636 
L 155.178354 47.030579 
L 150.744032 65.997521 
L 153.522123 84.964463 
L 164.693417 103.931405 
L 162.396599 122.898347 
L 171.292519 141.865289 
L 180.333223 160.832231 
L 187.334121 179.799174 
L 201.202255 198.766116 
L 221.900459 217.733058 
L 231.367675 236.7 
L 246.621272 255.666942 
L 266.390577 274.633884 
L 278.317022 293.600826 
L 301.218992 312.567769 
L 316.502685 331.534711 
L 318.511188 350.501653 
L 325.835541 369.468595 
L 328.446137 388.435537 
L 326.546113 407.402479 
L 326.239704 426.369421 
L 317.802597 445.336364 
" clip-path="url(#pe3438ef0b6)" style="fill: none; stroke: #756bb1; stroke-opacity: 0.2; stroke-width: 2; stroke-linecap: square"/>
   </g>
   <g id="line2d_31">
    <path d="M 158.172626 28.063636 
L 154.829266 47.030579 
L 160.853867 65.997521 
L 159.919041 84.964463 
L 171.700971 103.931405 
L 174.46543 122.898347 
L 180.018842 141.865289 
L 190.790691 160.832231 
L 205.815008 179.799174 
L 215.573148 198.766116 
L 228.449799 217.733058 
L 245.314445 236.7 
L 258.56139 255.666942 
L 274.462515 274.633884 
L 286.290623 293.600826 
L 307.749728 312.567769 
L 312.211261 331.534711 
L 319.497578 350.501653 
L 331.800096 369.468595 
L 332.83485 388.435537 
L 335.660672 407.402479 
L 328.741517 426.369421 
L 331.382589 445.336364 
" clip-path="url(#pe3438ef0b6)" style="fill: none; stroke: #756bb1; stroke-opacity: 0.2; stroke-width: 2; stroke-linecap: square"/>
   </g>
   <g id="line2d_32">
    <path d="M 166.326265 28.063636 
L 159.31967 47.030579 
L 167.077762 65.997521 
L 159.49884 84.964463 
L 165.84965 103.931405 
L 171.056029 122.898347 
L 171.966916 141.865289 
L 185.799569 160.832231 
L 191.092931 179.799174 
L 197.48604 198.766116 
L 211.864774 217.733058 
L 222.53516 236.7 
L 233.889636 255.666942 
L 252.284936 274.633884 
L 270.048776 293.600826 
L 286.914212 312.567769 
L 299.877883 331.534711 
L 310.418518 350.501653 
L 317.547464 369.468595 
L 328.995365 388.435537 
L 331.328213 407.402479 
L 329.187202 426.369421 
L 319.559883 445.336364 
" clip-path="url(#pe3438ef0b6)" style="fill: none; stroke: #756bb1; stroke-opacity: 0.2; stroke-width: 2; stroke-linecap: square"/>
   </g>
   <g id="line2d_33">
    <path d="M 157.643842 28.063636 
L 157.64263 47.030579 
L 166.918279 65.997521 
L 169.460061 84.964463 
L 175.830151 103.931405 
L 178.498277 122.898347 
L 183.788772 141.865289 
L 193.029968 160.832231 
L 211.979248 179.799174 
L 224.608012 198.766116 
L 236.115337 217.733058 
L 248.520922 236.7 
L 273.525906 255.666942 
L 290.469471 274.633884 
L 297.512927 293.600826 
L 315.581655 312.567769 
L 332.043481 331.534711 
L 336.27719 350.501653 
L 335.599115 369.468595 
L 340.200561 388.435537 
L 332.13333 407.402479 
L 318.934399 426.369421 
L 316.987171 445.336364 
" clip-path="url(#pe3438ef0b6)" style="fill: none; stroke: #756bb1; stroke-opacity: 0.2; stroke-width: 2; stroke-linecap: square"/>
   </g>
   <g id="line2d_34">
    <path d="M 158.076858 28.063636 
L 155.966035 47.030579 
L 163.856223 65.997521 
L 164.742487 84.964463 
L 167.957377 103.931405 
L 176.034954 122.898347 
L 175.889281 141.865289 
L 184.018422 160.832231 
L 200.352871 179.799174 
L 215.390714 198.766116 
L 227.734334 217.733058 
L 243.161126 236.7 
L 266.587131 255.666942 
L 281.442769 274.633884 
L 298.263412 293.600826 
L 315.278948 312.567769 
L 328.97725 331.534711 
L 329.682684 350.501653 
L 335.193185 369.468595 
L 335.035349 388.435537 
L 342.44129 407.402479 
L 340.290131 426.369421 
L 329.812072 445.336364 
" clip-path="url(#pe3438ef0b6)" style="fill: none; stroke: #756bb1; stroke-opacity: 0.2; stroke-width: 2; stroke-linecap: square"/>
   </g>
   <g id="line2d_35">
    <path d="M 138.947839 28.063636 
L 134.721564 47.030579 
L 139.525409 65.997521 
L 146.567715 84.964463 
L 150.629915 103.931405 
L 163.341298 122.898347 
L 164.503834 141.865289 
L 181.909226 160.832231 
L 189.492499 179.799174 
L 206.184655 198.766116 
L 218.448791 217.733058 
L 230.626041 236.7 
L 245.892723 255.666942 
L 264.950495 274.633884 
L 272.917932 293.600826 
L 288.744323 312.567769 
L 306.231299 331.534711 
L 316.507325 350.501653 
L 316.193624 369.468595 
L 313.632489 388.435537 
L 315.236848 407.402479 
L 311.460709 426.369421 
L 309.352124 445.336364 
" clip-path="url(#pe3438ef0b6)" style="fill: none; stroke: #756bb1; stroke-opacity: 0.2; stroke-width: 2; stroke-linecap: square"/>
   </g>
   <g id="line2d_36">
    <path d="M 153.577786 28.063636 
L 153.152318 47.030579 
L 154.911453 65.997521 
L 167.937535 84.964463 
L 173.047544 103.931405 
L 174.199007 122.898347 
L 186.500863 141.865289 
L 190.308759 160.832231 
L 200.305819 179.799174 
L 216.235806 198.766116 
L 226.292602 217.733058 
L 239.179452 236.7 
L 255.941169 255.666942 
L 271.015892 274.633884 
L 286.955567 293.600826 
L 297.9423 312.567769 
L 311.884366 331.534711 
L 323.23122 350.501653 
L 324.174344 369.468595 
L 327.656826 388.435537 
L 326.107185 407.402479 
L 326.946955 426.369421 
L 314.353472 445.336364 
" clip-path="url(#pe3438ef0b6)" style="fill: none; stroke: #756bb1; stroke-opacity: 0.2; stroke-width: 2; stroke-linecap: square"/>
   </g>
   <g id="line2d_37">
    <path d="M 143.293594 28.063636 
L 151.506109 47.030579 
L 157.147977 65.997521 
L 157.660487 84.964463 
L 158.754416 103.931405 
L 167.165299 122.898347 
L 179.762322 141.865289 
L 187.253298 160.832231 
L 191.617061 179.799174 
L 207.575581 198.766116 
L 224.312239 217.733058 
L 237.791413 236.7 
L 257.384146 255.666942 
L 279.880509 274.633884 
L 292.113348 293.600826 
L 303.867393 312.567769 
L 320.806246 331.534711 
L 329.275363 350.501653 
L 336.616603 369.468595 
L 329.84105 388.435537 
L 333.695762 407.402479 
L 325.360171 426.369421 
L 319.599987 445.336364 
" clip-path="url(#pe3438ef0b6)" style="fill: none; stroke: #756bb1; stroke-opacity: 0.2; stroke-width: 2; stroke-linecap: square"/>
   </g>
   <g id="line2d_38">
    <path d="M 148.129845 28.063636 
L 141.047616 47.030579 
L 151.698087 65.997521 
L 153.72647 84.964463 
L 156.466606 103.931405 
L 161.473537 122.898347 
L 165.520153 141.865289 
L 178.507258 160.832231 
L 178.839463 179.799174 
L 189.305511 198.766116 
L 191.074581 217.733058 
L 201.616501 236.7 
L 215.039784 255.666942 
L 234.257526 274.633884 
L 245.543984 293.600826 
L 260.091822 312.567769 
L 278.268828 331.534711 
L 287.247084 350.501653 
L 301.208345 369.468595 
L 307.563188 388.435537 
L 306.496705 407.402479 
L 311.19459 426.369421 
L 308.431592 445.336364 
" clip-path="url(#pe3438ef0b6)" style="fill: none; stroke: #756bb1; stroke-opacity: 0.2; stroke-width: 2; stroke-linecap: square"/>
   </g>
   <g id="line2d_39">
    <path clip-path="url(#pe3438ef0b6)" style="fill: none; stroke: #756bb1; stroke-opacity: 0.2; stroke-width: 2; stroke-linecap: square"/>
   </g>
   <g id="line2d_40">
    <path d="M 122.161795 28.063636 
L 119.812207 47.030579 
L 117.237318 65.997521 
L 118.607026 84.964463 
L 131.572942 103.931405 
L 127.335314 122.898347 
L 133.032445 141.865289 
L 144.597681 160.832231 
L 146.583108 179.799174 
L 160.217592 198.766116 
L 174.314433 217.733058 
L 181.235997 236.7 
L 188.802253 255.666942 
L 201.29673 274.633884 
L 217.696323 293.600826 
L 232.578124 312.567769 
L 248.908866 331.534711 
L 257.464972 350.501653 
L 270.471135 369.468595 
L 285.494818 388.435537 
L 283.901572 407.402479 
L 294.409805 426.369421 
L 295.669868 445.336364 
" clip-path="url(#pe3438ef0b6)" style="fill: none; stroke: #756bb1; stroke-opacity: 0.2; stroke-width: 2; stroke-linecap: square"/>
   </g>
   <g id="line2d_41">
    <path clip-path="url(#pe3438ef0b6)" style="fill: none; stroke: #756bb1; stroke-opacity: 0.2; stroke-width: 2; stroke-linecap: square"/>
   </g>
   <g id="line2d_42">
    <path d="M 155.461352 28.063636 
L 163.14627 47.030579 
L 163.919959 65.997521 
L 165.774055 84.964463 
L 175.980179 103.931405 
L 174.568997 122.898347 
L 182.573387 141.865289 
L 193.480079 160.832231 
L 198.508654 179.799174 
L 215.396679 198.766116 
L 229.014917 217.733058 
L 247.479906 236.7 
L 264.167758 255.666942 
L 279.572646 274.633884 
L 293.716822 293.600826 
L 307.251515 312.567769 
L 326.003103 331.534711 
L 331.792716 350.501653 
L 338.148287 369.468595 
L 346.455983 388.435537 
L 351.483523 407.402479 
L 351.200978 426.369421 
L 343.880467 445.336364 
" clip-path="url(#pe3438ef0b6)" style="fill: none; stroke: #756bb1; stroke-opacity: 0.2; stroke-width: 2; stroke-linecap: square"/>
   </g>
   <g id="line2d_43">
    <path d="M 159.811236 28.063636 
L 163.866669 47.030579 
L 158.342341 65.997521 
L 171.170575 84.964463 
L 177.78751 103.931405 
L 181.253778 122.898347 
L 191.188384 141.865289 
L 200.802955 160.832231 
L 209.437173 179.799174 
L 226.066862 198.766116 
L 240.00329 217.733058 
L 257.60583 236.7 
L 273.467379 255.666942 
L 282.614801 274.633884 
L 301.181908 293.600826 
L 317.645046 312.567769 
L 334.406592 331.534711 
L 337.45053 350.501653 
L 343.213595 369.468595 
L 340.622298 388.435537 
L 344.044674 407.402479 
L 333.835709 426.369421 
L 332.147886 445.336364 
" clip-path="url(#pe3438ef0b6)" style="fill: none; stroke: #756bb1; stroke-opacity: 0.2; stroke-width: 2; stroke-linecap: square"/>
   </g>
   <g id="line2d_44">
    <path clip-path="url(#pe3438ef0b6)" style="fill: none; stroke: #756bb1; stroke-opacity: 0.2; stroke-width: 2; stroke-linecap: square"/>
   </g>
   <g id="line2d_45">
    <path d="M 119.859165 28.063636 
L 117.520638 47.030579 
L 119.845354 65.997521 
L 124.077287 84.964463 
L 115.328742 103.931405 
L 113.659735 122.898347 
L 110.934619 141.865289 
L 106.028977 160.832231 
L 107.334556 179.799174 
L 112.264174 198.766116 
L 113.962558 217.733058 
L 113.499533 236.7 
L 112.800946 255.666942 
L 120.841943 274.633884 
L 126.373858 293.600826 
L 135.972738 312.567769 
L 145.09589 331.534711 
L 153.947765 350.501653 
L 170.513662 369.468595 
L 175.770297 388.435537 
L 189.192788 407.402479 
L 203.998146 426.369421 
L 210.428036 445.336364 
" clip-path="url(#pe3438ef0b6)" style="fill: none; stroke: #756bb1; stroke-opacity: 0.2; stroke-width: 2; stroke-linecap: square"/>
   </g>
   <g id="line2d_46">
    <path d="M 155.612071 28.063636 
L 155.537225 47.030579 
L 154.884245 65.997521 
L 160.810049 84.964463 
L 167.632694 103.931405 
L 183.080996 122.898347 
L 192.280538 141.865289 
L 196.357181 160.832231 
L 207.507351 179.799174 
L 225.214787 198.766116 
L 238.362264 217.733058 
L 253.114337 236.7 
L 272.811994 255.666942 
L 290.004711 274.633884 
L 301.519064 293.600826 
L 319.49451 312.567769 
L 327.791975 331.534711 
L 329.710822 350.501653 
L 335.784299 369.468595 
L 339.06522 388.435537 
L 336.257505 407.402479 
L 323.984082 426.369421 
L 324.991496 445.336364 
" clip-path="url(#pe3438ef0b6)" style="fill: none; stroke: #756bb1; stroke-opacity: 0.2; stroke-width: 2; stroke-linecap: square"/>
   </g>
   <g id="line2d_47">
    <path d="M 156.080019 28.063636 
L 152.875704 47.030579 
L 160.741938 65.997521 
L 160.967757 84.964463 
L 162.162237 103.931405 
L 168.363734 122.898347 
L 175.967107 141.865289 
L 177.124025 160.832231 
L 183.010622 179.799174 
L 189.424372 198.766116 
L 202.809134 217.733058 
L 212.198713 236.7 
L 234.410837 255.666942 
L 247.853701 274.633884 
L 257.682658 293.600826 
L 270.81107 312.567769 
L 288.54096 331.534711 
L 301.496789 350.501653 
L 301.380488 369.468595 
L 308.085382 388.435537 
L 316.182446 407.402479 
L 307.13012 426.369421 
L 316.599391 445.336364 
" clip-path="url(#pe3438ef0b6)" style="fill: none; stroke: #756bb1; stroke-opacity: 0.2; stroke-width: 2; stroke-linecap: square"/>
   </g>
   <g id="line2d_48">
    <path d="M 159.585476 28.063636 
L 157.124436 47.030579 
L 160.957058 65.997521 
L 167.004748 84.964463 
L 173.224384 103.931405 
L 168.695031 122.898347 
L 177.218216 141.865289 
L 179.606453 160.832231 
L 188.495445 179.799174 
L 189.794786 198.766116 
L 206.1777 217.733058 
L 207.965957 236.7 
L 226.616659 255.666942 
L 239.54485 274.633884 
L 253.416263 293.600826 
L 265.794827 312.567769 
L 283.326396 331.534711 
L 293.254486 350.501653 
L 295.354333 369.468595 
L 301.475663 388.435537 
L 308.339198 407.402479 
L 309.742474 426.369421 
L 307.271643 445.336364 
" clip-path="url(#pe3438ef0b6)" style="fill: none; stroke: #756bb1; stroke-opacity: 0.2; stroke-width: 2; stroke-linecap: square"/>
   </g>
   <g id="line2d_49">
    <path d="M 147.238492 28.063636 
L 148.063236 47.030579 
L 153.26106 65.997521 
L 163.751847 84.964463 
L 167.032968 103.931405 
L 172.010054 122.898347 
L 180.959675 141.865289 
L 185.0197 160.832231 
L 194.688135 179.799174 
L 212.447396 198.766116 
L 221.003636 217.733058 
L 239.652054 236.7 
L 252.89853 255.666942 
L 265.857025 274.633884 
L 282.876646 293.600826 
L 293.541078 312.567769 
L 305.880499 331.534711 
L 313.028778 350.501653 
L 316.786366 369.468595 
L 326.520828 388.435537 
L 327.517737 407.402479 
L 323.092548 426.369421 
L 322.248545 445.336364 
" clip-path="url(#pe3438ef0b6)" style="fill: none; stroke: #756bb1; stroke-opacity: 0.2; stroke-width: 2; stroke-linecap: square"/>
   </g>
   <g id="line2d_50">
    <path d="M 139.328379 28.063636 
L 139.908317 47.030579 
L 146.589469 65.997521 
L 146.033335 84.964463 
L 149.700782 103.931405 
L 156.790756 122.898347 
L 165.157135 141.865289 
L 169.833497 160.832231 
L 186.900407 179.799174 
L 192.859224 198.766116 
L 205.722542 217.733058 
L 216.681096 236.7 
L 238.288769 255.666942 
L 249.829329 274.633884 
L 267.34031 293.600826 
L 282.294712 312.567769 
L 300.448604 331.534711 
L 303.694721 350.501653 
L 310.656077 369.468595 
L 315.23375 388.435537 
L 317.430178 407.402479 
L 305.926614 426.369421 
L 304.401362 445.336364 
" clip-path="url(#pe3438ef0b6)" style="fill: none; stroke: #756bb1; stroke-opacity: 0.2; stroke-width: 2; stroke-linecap: square"/>
   </g>
   <g id="line2d_51">
    <path d="M 136.753377 28.063636 
L 142.869631 47.030579 
L 151.074008 65.997521 
L 150.399726 84.964463 
L 164.957067 103.931405 
L 171.342625 122.898347 
L 179.004162 141.865289 
L 187.074259 160.832231 
L 195.902048 179.799174 
L 201.980372 198.766116 
L 213.219189 217.733058 
L 228.450059 236.7 
L 241.889568 255.666942 
L 247.565073 274.633884 
L 266.999891 293.600826 
L 280.758435 312.567769 
L 292.374752 331.534711 
L 303.952141 350.501653 
L 311.55705 369.468595 
L 321.975348 388.435537 
L 323.021448 407.402479 
L 314.681372 426.369421 
L 315.910022 445.336364 
" clip-path="url(#pe3438ef0b6)" style="fill: none; stroke: #756bb1; stroke-opacity: 0.2; stroke-width: 2; stroke-linecap: square"/>
   </g>
   <g id="line2d_52">
    <path d="M 151.624169 28.063636 
L 149.386966 47.030579 
L 157.414841 65.997521 
L 155.695593 84.964463 
L 163.621433 103.931405 
L 177.592752 122.898347 
L 177.005078 141.865289 
L 193.613375 160.832231 
L 201.35646 179.799174 
L 218.814238 198.766116 
L 228.474684 217.733058 
L 247.233034 236.7 
L 264.622282 255.666942 
L 279.095194 274.633884 
L 293.383402 293.600826 
L 306.31191 312.567769 
L 314.926225 331.534711 
L 323.540008 350.501653 
L 324.512012 369.468595 
L 332.77148 388.435537 
L 323.731614 407.402479 
L 323.146947 426.369421 
L 318.052884 445.336364 
" clip-path="url(#pe3438ef0b6)" style="fill: none; stroke: #756bb1; stroke-opacity: 0.2; stroke-width: 2; stroke-linecap: square"/>
   </g>
   <g id="line2d_53">
    <path d="M 142.109988 28.063636 
L 148.315155 47.030579 
L 144.181095 65.997521 
L 153.437817 84.964463 
L 154.519107 103.931405 
L 156.341084 122.898347 
L 161.77526 141.865289 
L 166.413849 160.832231 
L 181.868719 179.799174 
L 188.041553 198.766116 
L 201.846167 217.733058 
L 213.00951 236.7 
L 227.600581 255.666942 
L 251.327748 274.633884 
L 260.102865 293.600826 
L 282.542767 312.567769 
L 295.179136 331.534711 
L 301.852237 350.501653 
L 314.262364 369.468595 
L 319.769791 388.435537 
L 323.33041 407.402479 
L 317.415059 426.369421 
L 326.973179 445.336364 
" clip-path="url(#pe3438ef0b6)" style="fill: none; stroke: #756bb1; stroke-opacity: 0.2; stroke-width: 2; stroke-linecap: square"/>
   </g>
   <g id="line2d_54">
    <path clip-path="url(#pe3438ef0b6)" style="fill: none; stroke: #756bb1; stroke-opacity: 0.2; stroke-width: 2; stroke-linecap: square"/>
   </g>
   <g id="line2d_55">
    <path d="M 149.228993 28.063636 
L 152.025455 47.030579 
L 154.356387 65.997521 
L 161.14631 84.964463 
L 168.822333 103.931405 
L 176.551921 122.898347 
L 183.056821 141.865289 
L 189.833586 160.832231 
L 197.069562 179.799174 
L 216.021358 198.766116 
L 228.801214 217.733058 
L 237.330083 236.7 
L 257.48304 255.666942 
L 270.53324 274.633884 
L 291.829097 293.600826 
L 300.484663 312.567769 
L 309.180011 331.534711 
L 315.486198 350.501653 
L 325.445021 369.468595 
L 317.694033 388.435537 
L 322.18791 407.402479 
L 314.792602 426.369421 
L 318.141748 445.336364 
" clip-path="url(#pe3438ef0b6)" style="fill: none; stroke: #756bb1; stroke-opacity: 0.2; stroke-width: 2; stroke-linecap: square"/>
   </g>
   <g id="line2d_56">
    <path d="M 149.948111 28.063636 
L 153.690593 47.030579 
L 164.274154 65.997521 
L 163.440228 84.964463 
L 168.255483 103.931405 
L 182.927858 122.898347 
L 192.700658 141.865289 
L 199.106962 160.832231 
L 209.914608 179.799174 
L 221.900519 198.766116 
L 239.011795 217.733058 
L 253.004153 236.7 
L 267.013023 255.666942 
L 283.451646 274.633884 
L 308.106478 293.600826 
L 321.03273 312.567769 
L 330.170398 331.534711 
L 339.122585 350.501653 
L 335.853909 369.468595 
L 342.027362 388.435537 
L 331.58408 407.402479 
L 326.660644 426.369421 
L 318.76676 445.336364 
" clip-path="url(#pe3438ef0b6)" style="fill: none; stroke: #756bb1; stroke-opacity: 0.2; stroke-width: 2; stroke-linecap: square"/>
   </g>
   <g id="line2d_57">
    <path d="M 154.519552 28.063636 
L 157.285042 47.030579 
L 163.385728 65.997521 
L 169.87174 84.964463 
L 169.665059 103.931405 
L 185.50673 122.898347 
L 188.866151 141.865289 
L 205.535262 160.832231 
L 217.072264 179.799174 
L 234.298971 198.766116 
L 244.778644 217.733058 
L 270.56295 236.7 
L 287.731285 255.666942 
L 299.018175 274.633884 
L 317.494929 293.600826 
L 330.270248 312.567769 
L 337.405939 331.534711 
L 348.92271 350.501653 
L 343.48701 369.468595 
L 347.157106 388.435537 
L 340.31246 407.402479 
L 326.191491 426.369421 
L 323.803668 445.336364 
" clip-path="url(#pe3438ef0b6)" style="fill: none; stroke: #756bb1; stroke-opacity: 0.2; stroke-width: 2; stroke-linecap: square"/>
   </g>
   <g id="line2d_58">
    <path d="M 167.941371 28.063636 
L 176.964416 47.030579 
L 174.778297 65.997521 
L 177.673078 84.964463 
L 182.30305 103.931405 
L 190.814034 122.898347 
L 191.251986 141.865289 
L 204.374011 160.832231 
L 206.899841 179.799174 
L 226.916862 198.766116 
L 237.601897 217.733058 
L 247.049517 236.7 
L 266.886914 255.666942 
L 287.611055 274.633884 
L 296.223211 293.600826 
L 317.637738 312.567769 
L 326.588283 331.534711 
L 328.293332 350.501653 
L 336.301987 369.468595 
L 331.147646 388.435537 
L 328.061003 407.402479 
L 324.785182 426.369421 
L 322.736543 445.336364 
" clip-path="url(#pe3438ef0b6)" style="fill: none; stroke: #756bb1; stroke-opacity: 0.2; stroke-width: 2; stroke-linecap: square"/>
   </g>
   <g id="line2d_59">
    <path d="M 153.104036 28.063636 
L 159.502589 47.030579 
L 164.645552 65.997521 
L 163.24528 84.964463 
L 168.955057 103.931405 
L 172.547646 122.898347 
L 175.827086 141.865289 
L 191.391827 160.832231 
L 191.617017 179.799174 
L 206.601405 198.766116 
L 211.802932 217.733058 
L 221.257667 236.7 
L 235.570529 255.666942 
L 249.826305 274.633884 
L 269.37956 293.600826 
L 290.22745 312.567769 
L 302.943355 331.534711 
L 314.993063 350.501653 
L 320.895887 369.468595 
L 320.202406 388.435537 
L 322.419394 407.402479 
L 320.595218 426.369421 
L 311.562518 445.336364 
" clip-path="url(#pe3438ef0b6)" style="fill: none; stroke: #756bb1; stroke-opacity: 0.2; stroke-width: 2; stroke-linecap: square"/>
   </g>
   <g id="line2d_60">
    <path d="M 152.100076 28.063636 
L 149.613856 47.030579 
L 143.893486 65.997521 
L 152.052972 84.964463 
L 151.527179 103.931405 
L 159.671379 122.898347 
L 158.395288 141.865289 
L 167.662693 160.832231 
L 183.662541 179.799174 
L 188.58873 198.766116 
L 205.551111 217.733058 
L 216.592731 236.7 
L 229.550482 255.666942 
L 241.448125 274.633884 
L 258.232908 293.600826 
L 276.631741 312.567769 
L 285.958418 331.534711 
L 294.478464 350.501653 
L 303.812924 369.468595 
L 309.489674 388.435537 
L 315.14864 407.402479 
L 312.444363 426.369421 
L 302.854512 445.336364 
" clip-path="url(#pe3438ef0b6)" style="fill: none; stroke: #756bb1; stroke-opacity: 0.2; stroke-width: 2; stroke-linecap: square"/>
   </g>
   <g id="line2d_61"/>
   <g id="line2d_62">
    <path d="M 149.792875 28.063636 
L 150.679842 47.030579 
L 152.967164 65.997521 
L 156.482093 84.964463 
L 161.200049 103.931405 
L 167.050433 122.898347 
L 173.926839 141.865289 
L 182.108375 160.832231 
L 191.584219 179.799174 
L 202.533024 198.766116 
L 214.988627 217.733058 
L 229.110239 236.7 
L 244.182042 255.666942 
L 259.809056 274.633884 
L 275.254691 293.600826 
L 289.459949 312.567769 
L 302.017877 331.534711 
L 311.477806 350.501653 
L 317.80362 369.468595 
L 320.304941 388.435537 
L 320.180424 407.402479 
L 317.03318 426.369421 
L 312.918586 445.336364 
" clip-path="url(#pe3438ef0b6)" style="fill: none; stroke: #39146b; stroke-width: 4; stroke-linecap: square"/>
   </g>
   <g id="line2d_63">
    <path d="M 153.422108 28.063636 
L 150.928002 47.030579 
L 152.382897 65.997521 
L 157.371109 84.964463 
L 163.606373 103.931405 
L 168.1789 122.898347 
L 175.245533 141.865289 
L 181.480798 160.832231 
L 187.716062 179.799174 
L 193.951326 198.766116 
L 202.265012 217.733058 
L 216.813962 236.7 
L 231.362913 255.666942 
L 247.990284 274.633884 
L 266.696077 293.600826 
L 285.40187 312.567769 
L 302.029242 331.534711 
L 310.342928 350.501653 
L 312.421349 369.468595 
L 318.656614 388.435537 
L 320.735035 407.402479 
L 316.578192 426.369421 
L 314.811534 445.336364 
" clip-path="url(#pe3438ef0b6)" style="fill: none; stroke: #e40000; stroke-width: 4; stroke-linecap: square"/>
    <defs>
     <path id="m99a03b4dd1" d="M -5 5 
L 5 -5 
M -5 -5 
L 5 5 
" style="stroke: #e40000"/>
    </defs>
    <g clip-path="url(#pe3438ef0b6)">
     <use xlink:href="#m99a03b4dd1" x="153.422108" y="28.063636" style="fill: #e40000; stroke: #e40000"/>
     <use xlink:href="#m99a03b4dd1" x="150.928002" y="47.030579" style="fill: #e40000; stroke: #e40000"/>
     <use xlink:href="#m99a03b4dd1" x="152.382897" y="65.997521" style="fill: #e40000; stroke: #e40000"/>
     <use xlink:href="#m99a03b4dd1" x="157.371109" y="84.964463" style="fill: #e40000; stroke: #e40000"/>
     <use xlink:href="#m99a03b4dd1" x="163.606373" y="103.931405" style="fill: #e40000; stroke: #e40000"/>
     <use xlink:href="#m99a03b4dd1" x="168.1789" y="122.898347" style="fill: #e40000; stroke: #e40000"/>
     <use xlink:href="#m99a03b4dd1" x="175.245533" y="141.865289" style="fill: #e40000; stroke: #e40000"/>
     <use xlink:href="#m99a03b4dd1" x="181.480798" y="160.832231" style="fill: #e40000; stroke: #e40000"/>
     <use xlink:href="#m99a03b4dd1" x="187.716062" y="179.799174" style="fill: #e40000; stroke: #e40000"/>
     <use xlink:href="#m99a03b4dd1" x="193.951326" y="198.766116" style="fill: #e40000; stroke: #e40000"/>
     <use xlink:href="#m99a03b4dd1" x="202.265012" y="217.733058" style="fill: #e40000; stroke: #e40000"/>
     <use xlink:href="#m99a03b4dd1" x="216.813962" y="236.7" style="fill: #e40000; stroke: #e40000"/>
     <use xlink:href="#m99a03b4dd1" x="231.362913" y="255.666942" style="fill: #e40000; stroke: #e40000"/>
     <use xlink:href="#m99a03b4dd1" x="247.990284" y="274.633884" style="fill: #e40000; stroke: #e40000"/>
     <use xlink:href="#m99a03b4dd1" x="266.696077" y="293.600826" style="fill: #e40000; stroke: #e40000"/>
     <use xlink:href="#m99a03b4dd1" x="285.40187" y="312.567769" style="fill: #e40000; stroke: #e40000"/>
     <use xlink:href="#m99a03b4dd1" x="302.029242" y="331.534711" style="fill: #e40000; stroke: #e40000"/>
     <use xlink:href="#m99a03b4dd1" x="310.342928" y="350.501653" style="fill: #e40000; stroke: #e40000"/>
     <use xlink:href="#m99a03b4dd1" x="312.421349" y="369.468595" style="fill: #e40000; stroke: #e40000"/>
     <use xlink:href="#m99a03b4dd1" x="318.656614" y="388.435537" style="fill: #e40000; stroke: #e40000"/>
     <use xlink:href="#m99a03b4dd1" x="320.735035" y="407.402479" style="fill: #e40000; stroke: #e40000"/>
     <use xlink:href="#m99a03b4dd1" x="316.578192" y="426.369421" style="fill: #e40000; stroke: #e40000"/>
     <use xlink:href="#m99a03b4dd1" x="314.811534" y="445.336364" style="fill: #e40000; stroke: #e40000"/>
    </g>
   </g>
   <g id="patch_3">
    <path d="M 83.75625 466.2 
L 83.75625 7.2 
" style="fill: none; stroke: #000000; stroke-width: 2; stroke-linejoin: miter; stroke-linecap: square"/>
   </g>
   <g id="patch_4">
    <path d="M 93.75625 476.2 
L 363.75625 476.2 
" style="fill: none; stroke: #000000; stroke-width: 2; stroke-linejoin: miter; stroke-linecap: square"/>
   </g>
   <g id="legend_1">
    <g id="line2d_64">
     <path d="M 30.414063 191.184375 
L 48.414063 191.184375 
L 66.414063 191.184375 
" style="fill: none; stroke: #6b3914; stroke-width: 4; stroke-linecap: square"/>
    </g>
    <g id="line2d_65">
     <path d="M 74.414063 191.184375 
L 92.414063 191.184375 
L 110.414063 191.184375 
" style="fill: none; stroke: #39146b; stroke-width: 4; stroke-linecap: square"/>
    </g>
    <g id="text_7">
     <!-- Mean -->
     <g transform="translate(126.414063 198.184375) scale(0.2 -0.2)">
      <defs>
       <path id="DejaVuSans-4d" d="M 628 4666 
L 1569 4666 
L 2759 1491 
L 3956 4666 
L 4897 4666 
L 4897 0 
L 4281 0 
L 4281 4097 
L 3078 897 
L 2444 897 
L 1241 4097 
L 1241 0 
L 628 0 
L 628 4666 
z
" transform="scale(0.015625)"/>
       <path id="DejaVuSans-65" d="M 3597 1894 
L 3597 1613 
L 953 1613 
Q 991 1019 1311 708 
Q 1631 397 2203 397 
Q 2534 397 2845 478 
Q 3156 559 3463 722 
L 3463 178 
Q 3153 47 2828 -22 
Q 2503 -91 2169 -91 
Q 1331 -91 842 396 
Q 353 884 353 1716 
Q 353 2575 817 3079 
Q 1281 3584 2069 3584 
Q 2775 3584 3186 3129 
Q 3597 2675 3597 1894 
z
M 3022 2063 
Q 3016 2534 2758 2815 
Q 2500 3097 2075 3097 
Q 1594 3097 1305 2825 
Q 1016 2553 972 2059 
L 3022 2063 
z
" transform="scale(0.015625)"/>
       <path id="DejaVuSans-61" d="M 2194 1759 
Q 1497 1759 1228 1600 
Q 959 1441 959 1056 
Q 959 750 1161 570 
Q 1363 391 1709 391 
Q 2188 391 2477 730 
Q 2766 1069 2766 1631 
L 2766 1759 
L 2194 1759 
z
M 3341 1997 
L 3341 0 
L 2766 0 
L 2766 531 
Q 2569 213 2275 61 
Q 1981 -91 1556 -91 
Q 1019 -91 701 211 
Q 384 513 384 1019 
Q 384 1609 779 1909 
Q 1175 2209 1959 2209 
L 2766 2209 
L 2766 2266 
Q 2766 2663 2505 2880 
Q 2244 3097 1772 3097 
Q 1472 3097 1187 3025 
Q 903 2953 641 2809 
L 641 3341 
Q 956 3463 1253 3523 
Q 1550 3584 1831 3584 
Q 2591 3584 2966 3190 
Q 3341 2797 3341 1997 
z
" transform="scale(0.015625)"/>
       <path id="DejaVuSans-6e" d="M 3513 2113 
L 3513 0 
L 2938 0 
L 2938 2094 
Q 2938 2591 2744 2837 
Q 2550 3084 2163 3084 
Q 1697 3084 1428 2787 
Q 1159 2491 1159 1978 
L 1159 0 
L 581 0 
L 581 3500 
L 1159 3500 
L 1159 2956 
Q 1366 3272 1645 3428 
Q 1925 3584 2291 3584 
Q 2894 3584 3203 3211 
Q 3513 2838 3513 2113 
z
" transform="scale(0.015625)"/>
      </defs>
      <use xlink:href="#DejaVuSans-4d"/>
      <use xlink:href="#DejaVuSans-65" x="86.279297"/>
      <use xlink:href="#DejaVuSans-61" x="147.802734"/>
      <use xlink:href="#DejaVuSans-6e" x="209.082031"/>
     </g>
    </g>
    <g id="line2d_66">
     <path d="M 30.414063 220.540625 
L 48.414063 220.540625 
L 66.414063 220.540625 
" style="fill: none; stroke: #fecc5c; stroke-opacity: 0.8; stroke-width: 8; stroke-linecap: square"/>
    </g>
    <g id="line2d_67">
     <path d="M 74.414063 220.540625 
L 92.414063 220.540625 
L 110.414063 220.540625 
" style="fill: none; stroke: #756bb1; stroke-opacity: 0.8; stroke-width: 8; stroke-linecap: square"/>
    </g>
    <g id="text_8">
     <!-- 95% confidence -->
     <g transform="translate(126.414063 227.540625) scale(0.2 -0.2)">
      <defs>
       <path id="DejaVuSans-39" d="M 703 97 
L 703 672 
Q 941 559 1184 500 
Q 1428 441 1663 441 
Q 2288 441 2617 861 
Q 2947 1281 2994 2138 
Q 2813 1869 2534 1725 
Q 2256 1581 1919 1581 
Q 1219 1581 811 2004 
Q 403 2428 403 3163 
Q 403 3881 828 4315 
Q 1253 4750 1959 4750 
Q 2769 4750 3195 4129 
Q 3622 3509 3622 2328 
Q 3622 1225 3098 567 
Q 2575 -91 1691 -91 
Q 1453 -91 1209 -44 
Q 966 3 703 97 
z
M 1959 2075 
Q 2384 2075 2632 2365 
Q 2881 2656 2881 3163 
Q 2881 3666 2632 3958 
Q 2384 4250 1959 4250 
Q 1534 4250 1286 3958 
Q 1038 3666 1038 3163 
Q 1038 2656 1286 2365 
Q 1534 2075 1959 2075 
z
" transform="scale(0.015625)"/>
       <path id="DejaVuSans-35" d="M 691 4666 
L 3169 4666 
L 3169 4134 
L 1269 4134 
L 1269 2991 
Q 1406 3038 1543 3061 
Q 1681 3084 1819 3084 
Q 2600 3084 3056 2656 
Q 3513 2228 3513 1497 
Q 3513 744 3044 326 
Q 2575 -91 1722 -91 
Q 1428 -91 1123 -41 
Q 819 9 494 109 
L 494 744 
Q 775 591 1075 516 
Q 1375 441 1709 441 
Q 2250 441 2565 725 
Q 2881 1009 2881 1497 
Q 2881 1984 2565 2268 
Q 2250 2553 1709 2553 
Q 1456 2553 1204 2497 
Q 953 2441 691 2322 
L 691 4666 
z
" transform="scale(0.015625)"/>
       <path id="DejaVuSans-25" d="M 4653 2053 
Q 4381 2053 4226 1822 
Q 4072 1591 4072 1178 
Q 4072 772 4226 539 
Q 4381 306 4653 306 
Q 4919 306 5073 539 
Q 5228 772 5228 1178 
Q 5228 1588 5073 1820 
Q 4919 2053 4653 2053 
z
M 4653 2450 
Q 5147 2450 5437 2106 
Q 5728 1763 5728 1178 
Q 5728 594 5436 251 
Q 5144 -91 4653 -91 
Q 4153 -91 3862 251 
Q 3572 594 3572 1178 
Q 3572 1766 3864 2108 
Q 4156 2450 4653 2450 
z
M 1428 4353 
Q 1159 4353 1004 4120 
Q 850 3888 850 3481 
Q 850 3069 1003 2837 
Q 1156 2606 1428 2606 
Q 1700 2606 1854 2837 
Q 2009 3069 2009 3481 
Q 2009 3884 1853 4118 
Q 1697 4353 1428 4353 
z
M 4250 4750 
L 4750 4750 
L 1831 -91 
L 1331 -91 
L 4250 4750 
z
M 1428 4750 
Q 1922 4750 2215 4408 
Q 2509 4066 2509 3481 
Q 2509 2891 2217 2550 
Q 1925 2209 1428 2209 
Q 931 2209 642 2551 
Q 353 2894 353 3481 
Q 353 4063 643 4406 
Q 934 4750 1428 4750 
z
" transform="scale(0.015625)"/>
       <path id="DejaVuSans-20" transform="scale(0.015625)"/>
       <path id="DejaVuSans-63" d="M 3122 3366 
L 3122 2828 
Q 2878 2963 2633 3030 
Q 2388 3097 2138 3097 
Q 1578 3097 1268 2742 
Q 959 2388 959 1747 
Q 959 1106 1268 751 
Q 1578 397 2138 397 
Q 2388 397 2633 464 
Q 2878 531 3122 666 
L 3122 134 
Q 2881 22 2623 -34 
Q 2366 -91 2075 -91 
Q 1284 -91 818 406 
Q 353 903 353 1747 
Q 353 2603 823 3093 
Q 1294 3584 2113 3584 
Q 2378 3584 2631 3529 
Q 2884 3475 3122 3366 
z
" transform="scale(0.015625)"/>
       <path id="DejaVuSans-6f" d="M 1959 3097 
Q 1497 3097 1228 2736 
Q 959 2375 959 1747 
Q 959 1119 1226 758 
Q 1494 397 1959 397 
Q 2419 397 2687 759 
Q 2956 1122 2956 1747 
Q 2956 2369 2687 2733 
Q 2419 3097 1959 3097 
z
M 1959 3584 
Q 2709 3584 3137 3096 
Q 3566 2609 3566 1747 
Q 3566 888 3137 398 
Q 2709 -91 1959 -91 
Q 1206 -91 779 398 
Q 353 888 353 1747 
Q 353 2609 779 3096 
Q 1206 3584 1959 3584 
z
" transform="scale(0.015625)"/>
       <path id="DejaVuSans-66" d="M 2375 4863 
L 2375 4384 
L 1825 4384 
Q 1516 4384 1395 4259 
Q 1275 4134 1275 3809 
L 1275 3500 
L 2222 3500 
L 2222 3053 
L 1275 3053 
L 1275 0 
L 697 0 
L 697 3053 
L 147 3053 
L 147 3500 
L 697 3500 
L 697 3744 
Q 697 4328 969 4595 
Q 1241 4863 1831 4863 
L 2375 4863 
z
" transform="scale(0.015625)"/>
       <path id="DejaVuSans-69" d="M 603 3500 
L 1178 3500 
L 1178 0 
L 603 0 
L 603 3500 
z
M 603 4863 
L 1178 4863 
L 1178 4134 
L 603 4134 
L 603 4863 
z
" transform="scale(0.015625)"/>
       <path id="DejaVuSans-64" d="M 2906 2969 
L 2906 4863 
L 3481 4863 
L 3481 0 
L 2906 0 
L 2906 525 
Q 2725 213 2448 61 
Q 2172 -91 1784 -91 
Q 1150 -91 751 415 
Q 353 922 353 1747 
Q 353 2572 751 3078 
Q 1150 3584 1784 3584 
Q 2172 3584 2448 3432 
Q 2725 3281 2906 2969 
z
M 947 1747 
Q 947 1113 1208 752 
Q 1469 391 1925 391 
Q 2381 391 2643 752 
Q 2906 1113 2906 1747 
Q 2906 2381 2643 2742 
Q 2381 3103 1925 3103 
Q 1469 3103 1208 2742 
Q 947 2381 947 1747 
z
" transform="scale(0.015625)"/>
      </defs>
      <use xlink:href="#DejaVuSans-39"/>
      <use xlink:href="#DejaVuSans-35" x="63.623047"/>
      <use xlink:href="#DejaVuSans-25" x="127.246094"/>
      <use xlink:href="#DejaVuSans-20" x="222.265625"/>
      <use xlink:href="#DejaVuSans-63" x="254.052734"/>
      <use xlink:href="#DejaVuSans-6f" x="309.033203"/>
      <use xlink:href="#DejaVuSans-6e" x="370.214844"/>
      <use xlink:href="#DejaVuSans-66" x="433.59375"/>
      <use xlink:href="#DejaVuSans-69" x="468.798828"/>
      <use xlink:href="#DejaVuSans-64" x="496.582031"/>
      <use xlink:href="#DejaVuSans-65" x="560.058594"/>
      <use xlink:href="#DejaVuSans-6e" x="621.582031"/>
      <use xlink:href="#DejaVuSans-63" x="684.960938"/>
      <use xlink:href="#DejaVuSans-65" x="739.941406"/>
     </g>
    </g>
    <g id="line2d_68">
     <path d="M 30.414063 249.896875 
L 48.414063 249.896875 
L 66.414063 249.896875 
" style="fill: none; stroke: #fecc5c; stroke-opacity: 0.8; stroke-width: 3; stroke-linecap: square"/>
    </g>
    <g id="line2d_69">
     <path d="M 74.414063 249.896875 
L 92.414063 249.896875 
L 110.414063 249.896875 
" style="fill: none; stroke: #756bb1; stroke-opacity: 0.8; stroke-width: 3; stroke-linecap: square"/>
    </g>
    <g id="text_9">
     <!-- (Predictive) Posterior Samples -->
     <g transform="translate(126.414063 256.896875) scale(0.2 -0.2)">
      <defs>
       <path id="DejaVuSans-28" d="M 1984 4856 
Q 1566 4138 1362 3434 
Q 1159 2731 1159 2009 
Q 1159 1288 1364 580 
Q 1569 -128 1984 -844 
L 1484 -844 
Q 1016 -109 783 600 
Q 550 1309 550 2009 
Q 550 2706 781 3412 
Q 1013 4119 1484 4856 
L 1984 4856 
z
" transform="scale(0.015625)"/>
       <path id="DejaVuSans-50" d="M 1259 4147 
L 1259 2394 
L 2053 2394 
Q 2494 2394 2734 2622 
Q 2975 2850 2975 3272 
Q 2975 3691 2734 3919 
Q 2494 4147 2053 4147 
L 1259 4147 
z
M 628 4666 
L 2053 4666 
Q 2838 4666 3239 4311 
Q 3641 3956 3641 3272 
Q 3641 2581 3239 2228 
Q 2838 1875 2053 1875 
L 1259 1875 
L 1259 0 
L 628 0 
L 628 4666 
z
" transform="scale(0.015625)"/>
       <path id="DejaVuSans-72" d="M 2631 2963 
Q 2534 3019 2420 3045 
Q 2306 3072 2169 3072 
Q 1681 3072 1420 2755 
Q 1159 2438 1159 1844 
L 1159 0 
L 581 0 
L 581 3500 
L 1159 3500 
L 1159 2956 
Q 1341 3275 1631 3429 
Q 1922 3584 2338 3584 
Q 2397 3584 2469 3576 
Q 2541 3569 2628 3553 
L 2631 2963 
z
" transform="scale(0.015625)"/>
       <path id="DejaVuSans-74" d="M 1172 4494 
L 1172 3500 
L 2356 3500 
L 2356 3053 
L 1172 3053 
L 1172 1153 
Q 1172 725 1289 603 
Q 1406 481 1766 481 
L 2356 481 
L 2356 0 
L 1766 0 
Q 1100 0 847 248 
Q 594 497 594 1153 
L 594 3053 
L 172 3053 
L 172 3500 
L 594 3500 
L 594 4494 
L 1172 4494 
z
" transform="scale(0.015625)"/>
       <path id="DejaVuSans-76" d="M 191 3500 
L 800 3500 
L 1894 563 
L 2988 3500 
L 3597 3500 
L 2284 0 
L 1503 0 
L 191 3500 
z
" transform="scale(0.015625)"/>
       <path id="DejaVuSans-29" d="M 513 4856 
L 1013 4856 
Q 1481 4119 1714 3412 
Q 1947 2706 1947 2009 
Q 1947 1309 1714 600 
Q 1481 -109 1013 -844 
L 513 -844 
Q 928 -128 1133 580 
Q 1338 1288 1338 2009 
Q 1338 2731 1133 3434 
Q 928 4138 513 4856 
z
" transform="scale(0.015625)"/>
       <path id="DejaVuSans-73" d="M 2834 3397 
L 2834 2853 
Q 2591 2978 2328 3040 
Q 2066 3103 1784 3103 
Q 1356 3103 1142 2972 
Q 928 2841 928 2578 
Q 928 2378 1081 2264 
Q 1234 2150 1697 2047 
L 1894 2003 
Q 2506 1872 2764 1633 
Q 3022 1394 3022 966 
Q 3022 478 2636 193 
Q 2250 -91 1575 -91 
Q 1294 -91 989 -36 
Q 684 19 347 128 
L 347 722 
Q 666 556 975 473 
Q 1284 391 1588 391 
Q 1994 391 2212 530 
Q 2431 669 2431 922 
Q 2431 1156 2273 1281 
Q 2116 1406 1581 1522 
L 1381 1569 
Q 847 1681 609 1914 
Q 372 2147 372 2553 
Q 372 3047 722 3315 
Q 1072 3584 1716 3584 
Q 2034 3584 2315 3537 
Q 2597 3491 2834 3397 
z
" transform="scale(0.015625)"/>
       <path id="DejaVuSans-53" d="M 3425 4513 
L 3425 3897 
Q 3066 4069 2747 4153 
Q 2428 4238 2131 4238 
Q 1616 4238 1336 4038 
Q 1056 3838 1056 3469 
Q 1056 3159 1242 3001 
Q 1428 2844 1947 2747 
L 2328 2669 
Q 3034 2534 3370 2195 
Q 3706 1856 3706 1288 
Q 3706 609 3251 259 
Q 2797 -91 1919 -91 
Q 1588 -91 1214 -16 
Q 841 59 441 206 
L 441 856 
Q 825 641 1194 531 
Q 1563 422 1919 422 
Q 2459 422 2753 634 
Q 3047 847 3047 1241 
Q 3047 1584 2836 1778 
Q 2625 1972 2144 2069 
L 1759 2144 
Q 1053 2284 737 2584 
Q 422 2884 422 3419 
Q 422 4038 858 4394 
Q 1294 4750 2059 4750 
Q 2388 4750 2728 4690 
Q 3069 4631 3425 4513 
z
" transform="scale(0.015625)"/>
       <path id="DejaVuSans-6d" d="M 3328 2828 
Q 3544 3216 3844 3400 
Q 4144 3584 4550 3584 
Q 5097 3584 5394 3201 
Q 5691 2819 5691 2113 
L 5691 0 
L 5113 0 
L 5113 2094 
Q 5113 2597 4934 2840 
Q 4756 3084 4391 3084 
Q 3944 3084 3684 2787 
Q 3425 2491 3425 1978 
L 3425 0 
L 2847 0 
L 2847 2094 
Q 2847 2600 2669 2842 
Q 2491 3084 2119 3084 
Q 1678 3084 1418 2786 
Q 1159 2488 1159 1978 
L 1159 0 
L 581 0 
L 581 3500 
L 1159 3500 
L 1159 2956 
Q 1356 3278 1631 3431 
Q 1906 3584 2284 3584 
Q 2666 3584 2933 3390 
Q 3200 3197 3328 2828 
z
" transform="scale(0.015625)"/>
       <path id="DejaVuSans-70" d="M 1159 525 
L 1159 -1331 
L 581 -1331 
L 581 3500 
L 1159 3500 
L 1159 2969 
Q 1341 3281 1617 3432 
Q 1894 3584 2278 3584 
Q 2916 3584 3314 3078 
Q 3713 2572 3713 1747 
Q 3713 922 3314 415 
Q 2916 -91 2278 -91 
Q 1894 -91 1617 61 
Q 1341 213 1159 525 
z
M 3116 1747 
Q 3116 2381 2855 2742 
Q 2594 3103 2138 3103 
Q 1681 3103 1420 2742 
Q 1159 2381 1159 1747 
Q 1159 1113 1420 752 
Q 1681 391 2138 391 
Q 2594 391 2855 752 
Q 3116 1113 3116 1747 
z
" transform="scale(0.015625)"/>
       <path id="DejaVuSans-6c" d="M 603 4863 
L 1178 4863 
L 1178 0 
L 603 0 
L 603 4863 
z
" transform="scale(0.015625)"/>
      </defs>
      <use xlink:href="#DejaVuSans-28"/>
      <use xlink:href="#DejaVuSans-50" x="39.013672"/>
      <use xlink:href="#DejaVuSans-72" x="97.566406"/>
      <use xlink:href="#DejaVuSans-65" x="136.429688"/>
      <use xlink:href="#DejaVuSans-64" x="197.953125"/>
      <use xlink:href="#DejaVuSans-69" x="261.429688"/>
      <use xlink:href="#DejaVuSans-63" x="289.212891"/>
      <use xlink:href="#DejaVuSans-74" x="344.193359"/>
      <use xlink:href="#DejaVuSans-69" x="383.402344"/>
      <use xlink:href="#DejaVuSans-76" x="411.185547"/>
      <use xlink:href="#DejaVuSans-65" x="470.365234"/>
      <use xlink:href="#DejaVuSans-29" x="531.888672"/>
      <use xlink:href="#DejaVuSans-20" x="570.902344"/>
      <use xlink:href="#DejaVuSans-50" x="602.689453"/>
      <use xlink:href="#DejaVuSans-6f" x="659.367188"/>
      <use xlink:href="#DejaVuSans-73" x="720.548828"/>
      <use xlink:href="#DejaVuSans-74" x="772.648438"/>
      <use xlink:href="#DejaVuSans-65" x="811.857422"/>
      <use xlink:href="#DejaVuSans-72" x="873.380859"/>
      <use xlink:href="#DejaVuSans-69" x="914.494141"/>
      <use xlink:href="#DejaVuSans-6f" x="942.277344"/>
      <use xlink:href="#DejaVuSans-72" x="1003.458984"/>
      <use xlink:href="#DejaVuSans-20" x="1044.572266"/>
      <use xlink:href="#DejaVuSans-53" x="1076.359375"/>
      <use xlink:href="#DejaVuSans-61" x="1139.835938"/>
      <use xlink:href="#DejaVuSans-6d" x="1201.115234"/>
      <use xlink:href="#DejaVuSans-70" x="1298.527344"/>
      <use xlink:href="#DejaVuSans-6c" x="1362.003906"/>
      <use xlink:href="#DejaVuSans-65" x="1389.787109"/>
      <use xlink:href="#DejaVuSans-73" x="1451.310547"/>
     </g>
    </g>
    <g id="line2d_70">
     <path d="M 30.414063 279.253125 
L 70.414063 279.253125 
L 110.414063 279.253125 
" style="fill: none; stroke: #e40000; stroke-opacity: 0.8; stroke-width: 4; stroke-linecap: square"/>
     <defs>
      <path id="m46dfcdcdfe" d="M -4 4 
L 4 -4 
M -4 -4 
L 4 4 
" style="stroke: #e40000; stroke-opacity: 0.8"/>
     </defs>
     <g>
      <use xlink:href="#m46dfcdcdfe" x="70.414063" y="279.253125" style="fill: #e40000; fill-opacity: 0.8; stroke: #e40000; stroke-opacity: 0.8"/>
     </g>
    </g>
    <g id="text_10">
     <!-- Observation -->
     <g transform="translate(126.414063 286.253125) scale(0.2 -0.2)">
      <defs>
       <path id="DejaVuSans-4f" d="M 2522 4238 
Q 1834 4238 1429 3725 
Q 1025 3213 1025 2328 
Q 1025 1447 1429 934 
Q 1834 422 2522 422 
Q 3209 422 3611 934 
Q 4013 1447 4013 2328 
Q 4013 3213 3611 3725 
Q 3209 4238 2522 4238 
z
M 2522 4750 
Q 3503 4750 4090 4092 
Q 4678 3434 4678 2328 
Q 4678 1225 4090 567 
Q 3503 -91 2522 -91 
Q 1538 -91 948 565 
Q 359 1222 359 2328 
Q 359 3434 948 4092 
Q 1538 4750 2522 4750 
z
" transform="scale(0.015625)"/>
       <path id="DejaVuSans-62" d="M 3116 1747 
Q 3116 2381 2855 2742 
Q 2594 3103 2138 3103 
Q 1681 3103 1420 2742 
Q 1159 2381 1159 1747 
Q 1159 1113 1420 752 
Q 1681 391 2138 391 
Q 2594 391 2855 752 
Q 3116 1113 3116 1747 
z
M 1159 2969 
Q 1341 3281 1617 3432 
Q 1894 3584 2278 3584 
Q 2916 3584 3314 3078 
Q 3713 2572 3713 1747 
Q 3713 922 3314 415 
Q 2916 -91 2278 -91 
Q 1894 -91 1617 61 
Q 1341 213 1159 525 
L 1159 0 
L 581 0 
L 581 4863 
L 1159 4863 
L 1159 2969 
z
" transform="scale(0.015625)"/>
      </defs>
      <use xlink:href="#DejaVuSans-4f"/>
      <use xlink:href="#DejaVuSans-62" x="78.710938"/>
      <use xlink:href="#DejaVuSans-73" x="142.1875"/>
      <use xlink:href="#DejaVuSans-65" x="194.287109"/>
      <use xlink:href="#DejaVuSans-72" x="255.810547"/>
      <use xlink:href="#DejaVuSans-76" x="296.923828"/>
      <use xlink:href="#DejaVuSans-61" x="356.103516"/>
      <use xlink:href="#DejaVuSans-74" x="417.382812"/>
      <use xlink:href="#DejaVuSans-69" x="456.591797"/>
      <use xlink:href="#DejaVuSans-6f" x="484.375"/>
      <use xlink:href="#DejaVuSans-6e" x="545.556641"/>
     </g>
    </g>
   </g>
  </g>
 </g>
 <defs>
  <clipPath id="pe3438ef0b6">
   <rect x="93.75625" y="7.2" width="270" height="459"/>
  </clipPath>
 </defs>
</svg>
