<?xml version="1.0" encoding="utf-8" standalone="no"?>
<!DOCTYPE svg PUBLIC "-//W3C//DTD SVG 1.1//EN"
  "http://www.w3.org/Graphics/SVG/1.1/DTD/svg11.dtd">
<svg xmlns:xlink="http://www.w3.org/1999/xlink" width="284.4pt" height="544.35625pt" viewBox="0 0 284.4 544.35625" xmlns="http://www.w3.org/2000/svg" version="1.1">
 <metadata>
  <rdf:RDF xmlns:dc="http://purl.org/dc/elements/1.1/" xmlns:cc="http://creativecommons.org/ns#" xmlns:rdf="http://www.w3.org/1999/02/22-rdf-syntax-ns#">
   <cc:Work>
    <dc:type rdf:resource="http://purl.org/dc/dcmitype/StillImage"/>
    <dc:date>2024-07-31T20:00:16.433173</dc:date>
    <dc:format>image/svg+xml</dc:format>
    <dc:creator>
     <cc:Agent>
      <dc:title>Matplotlib v3.8.0, https://matplotlib.org/</dc:title>
     </cc:Agent>
    </dc:creator>
   </cc:Work>
  </rdf:RDF>
 </metadata>
 <defs>
  <style type="text/css">*{stroke-linejoin: round; stroke-linecap: butt}</style>
 </defs>
 <g id="figure_1">
  <g id="patch_1">
   <path d="M 0 544.35625 
L 284.4 544.35625 
L 284.4 0 
L 0 0 
z
" style="fill: #ffffff"/>
  </g>
  <g id="axes_1">
   <g id="patch_2">
    <path d="M 7.2 466.2 
L 277.2 466.2 
L 277.2 7.2 
L 7.2 7.2 
z
" style="fill: #ffffff"/>
   </g>
   <g id="PolyCollection_1">
    <defs>
     <path id="md71d620d2c" d="M 28.112872 -516.292614 
L 42.409496 -516.292614 
L 38.072605 -497.325671 
L 39.96529 -478.358729 
L 44.031775 -459.391787 
L 49.378693 -440.424845 
L 55.930919 -421.457903 
L 63.733531 -402.490961 
L 72.050579 -383.524019 
L 82.036946 -364.557076 
L 92.629831 -345.590134 
L 103.581905 -326.623192 
L 115.277156 -307.65625 
L 127.549946 -288.689308 
L 139.401455 -269.722366 
L 151.734849 -250.755424 
L 162.889835 -231.788481 
L 170.929359 -212.821539 
L 179.847042 -193.854597 
L 187.700211 -174.887655 
L 192.844786 -155.920713 
L 198.861808 -136.953771 
L 204.309198 -117.986829 
L 213.911821 -99.019886 
L 94.571785 -99.019886 
L 94.571785 -99.019886 
L 98.085559 -117.986829 
L 97.060037 -136.953771 
L 94.754274 -155.920713 
L 87.30614 -174.887655 
L 79.695883 -193.854597 
L 69.942322 -212.821539 
L 62.516032 -231.788481 
L 55.213021 -250.755424 
L 48.868104 -269.722366 
L 42.798813 -288.689308 
L 40.389551 -307.65625 
L 37.939486 -326.623192 
L 36.007242 -345.590134 
L 34.098486 -364.557076 
L 33.29211 -383.524019 
L 31.731108 -402.490961 
L 30.145442 -421.457903 
L 29.483236 -440.424845 
L 28.335045 -459.391787 
L 27.270161 -478.358729 
L 26.761401 -497.325671 
L 28.112872 -516.292614 
z
" style="stroke: #756bb1; stroke-opacity: 0.5"/>
    </defs>
    <g clip-path="url(#pdb681019ac)">
     <use xlink:href="#md71d620d2c" x="0" y="544.35625" style="fill: #756bb1; fill-opacity: 0.5; stroke: #756bb1; stroke-opacity: 0.5"/>
    </g>
   </g>
   <g id="matplotlib.axis_1">
    <g id="xtick_1">
     <g id="line2d_1">
      <defs>
       <path id="md9a63cdcca" d="M 0 0 
L 0 3.5 
" style="stroke: #000000; stroke-width: 1.5"/>
      </defs>
      <g>
       <use xlink:href="#md9a63cdcca" x="114.221651" y="476.2" style="stroke: #000000; stroke-width: 1.5"/>
      </g>
     </g>
     <g id="text_1">
      <!-- 200 -->
      <g transform="translate(95.134151 498.396875) scale(0.2 -0.2)">
       <defs>
        <path id="DejaVuSans-32" d="M 1228 531 
L 3431 531 
L 3431 0 
L 469 0 
L 469 531 
Q 828 903 1448 1529 
Q 2069 2156 2228 2338 
Q 2531 2678 2651 2914 
Q 2772 3150 2772 3378 
Q 2772 3750 2511 3984 
Q 2250 4219 1831 4219 
Q 1534 4219 1204 4116 
Q 875 4013 500 3803 
L 500 4441 
Q 881 4594 1212 4672 
Q 1544 4750 1819 4750 
Q 2544 4750 2975 4387 
Q 3406 4025 3406 3419 
Q 3406 3131 3298 2873 
Q 3191 2616 2906 2266 
Q 2828 2175 2409 1742 
Q 1991 1309 1228 531 
z
" transform="scale(0.015625)"/>
        <path id="DejaVuSans-30" d="M 2034 4250 
Q 1547 4250 1301 3770 
Q 1056 3291 1056 2328 
Q 1056 1369 1301 889 
Q 1547 409 2034 409 
Q 2525 409 2770 889 
Q 3016 1369 3016 2328 
Q 3016 3291 2770 3770 
Q 2525 4250 2034 4250 
z
M 2034 4750 
Q 2819 4750 3233 4129 
Q 3647 3509 3647 2328 
Q 3647 1150 3233 529 
Q 2819 -91 2034 -91 
Q 1250 -91 836 529 
Q 422 1150 422 2328 
Q 422 3509 836 4129 
Q 1250 4750 2034 4750 
z
" transform="scale(0.015625)"/>
       </defs>
       <use xlink:href="#DejaVuSans-32"/>
       <use xlink:href="#DejaVuSans-30" x="63.623047"/>
       <use xlink:href="#DejaVuSans-30" x="127.246094"/>
      </g>
     </g>
    </g>
    <g id="xtick_2">
     <g id="line2d_2">
      <g>
       <use xlink:href="#md9a63cdcca" x="237.04069" y="476.2" style="stroke: #000000; stroke-width: 1.5"/>
      </g>
     </g>
     <g id="text_2">
      <!-- 400 -->
      <g transform="translate(217.95319 498.396875) scale(0.2 -0.2)">
       <defs>
        <path id="DejaVuSans-34" d="M 2419 4116 
L 825 1625 
L 2419 1625 
L 2419 4116 
z
M 2253 4666 
L 3047 4666 
L 3047 1625 
L 3713 1625 
L 3713 1100 
L 3047 1100 
L 3047 0 
L 2419 0 
L 2419 1100 
L 313 1100 
L 313 1709 
L 2253 4666 
z
" transform="scale(0.015625)"/>
       </defs>
       <use xlink:href="#DejaVuSans-34"/>
       <use xlink:href="#DejaVuSans-30" x="63.623047"/>
       <use xlink:href="#DejaVuSans-30" x="127.246094"/>
      </g>
     </g>
    </g>
    <g id="text_3">
     <!-- Apparent Resistivity [$\Omega m$] -->
     <g transform="translate(-4.6 532.75625) scale(0.2 -0.2)">
      <defs>
       <path id="DejaVuSans-Bold-41" d="M 3419 850 
L 1538 850 
L 1241 0 
L 31 0 
L 1759 4666 
L 3194 4666 
L 4922 0 
L 3713 0 
L 3419 850 
z
M 1838 1716 
L 3116 1716 
L 2478 3572 
L 1838 1716 
z
" transform="scale(0.015625)"/>
       <path id="DejaVuSans-Bold-70" d="M 1656 506 
L 1656 -1331 
L 538 -1331 
L 538 3500 
L 1656 3500 
L 1656 2988 
Q 1888 3294 2169 3439 
Q 2450 3584 2816 3584 
Q 3463 3584 3878 3070 
Q 4294 2556 4294 1747 
Q 4294 938 3878 423 
Q 3463 -91 2816 -91 
Q 2450 -91 2169 54 
Q 1888 200 1656 506 
z
M 2400 2772 
Q 2041 2772 1848 2508 
Q 1656 2244 1656 1747 
Q 1656 1250 1848 986 
Q 2041 722 2400 722 
Q 2759 722 2948 984 
Q 3138 1247 3138 1747 
Q 3138 2247 2948 2509 
Q 2759 2772 2400 2772 
z
" transform="scale(0.015625)"/>
       <path id="DejaVuSans-Bold-61" d="M 2106 1575 
Q 1756 1575 1579 1456 
Q 1403 1338 1403 1106 
Q 1403 894 1545 773 
Q 1688 653 1941 653 
Q 2256 653 2472 879 
Q 2688 1106 2688 1447 
L 2688 1575 
L 2106 1575 
z
M 3816 1997 
L 3816 0 
L 2688 0 
L 2688 519 
Q 2463 200 2181 54 
Q 1900 -91 1497 -91 
Q 953 -91 614 226 
Q 275 544 275 1050 
Q 275 1666 698 1953 
Q 1122 2241 2028 2241 
L 2688 2241 
L 2688 2328 
Q 2688 2594 2478 2717 
Q 2269 2841 1825 2841 
Q 1466 2841 1156 2769 
Q 847 2697 581 2553 
L 581 3406 
Q 941 3494 1303 3539 
Q 1666 3584 2028 3584 
Q 2975 3584 3395 3211 
Q 3816 2838 3816 1997 
z
" transform="scale(0.015625)"/>
       <path id="DejaVuSans-Bold-72" d="M 3138 2547 
Q 2991 2616 2845 2648 
Q 2700 2681 2553 2681 
Q 2122 2681 1889 2404 
Q 1656 2128 1656 1613 
L 1656 0 
L 538 0 
L 538 3500 
L 1656 3500 
L 1656 2925 
Q 1872 3269 2151 3426 
Q 2431 3584 2822 3584 
Q 2878 3584 2943 3579 
Q 3009 3575 3134 3559 
L 3138 2547 
z
" transform="scale(0.015625)"/>
       <path id="DejaVuSans-Bold-65" d="M 4031 1759 
L 4031 1441 
L 1416 1441 
Q 1456 1047 1700 850 
Q 1944 653 2381 653 
Q 2734 653 3104 758 
Q 3475 863 3866 1075 
L 3866 213 
Q 3469 63 3072 -14 
Q 2675 -91 2278 -91 
Q 1328 -91 801 392 
Q 275 875 275 1747 
Q 275 2603 792 3093 
Q 1309 3584 2216 3584 
Q 3041 3584 3536 3087 
Q 4031 2591 4031 1759 
z
M 2881 2131 
Q 2881 2450 2695 2645 
Q 2509 2841 2209 2841 
Q 1884 2841 1681 2658 
Q 1478 2475 1428 2131 
L 2881 2131 
z
" transform="scale(0.015625)"/>
       <path id="DejaVuSans-Bold-6e" d="M 4056 2131 
L 4056 0 
L 2931 0 
L 2931 347 
L 2931 1631 
Q 2931 2084 2911 2256 
Q 2891 2428 2841 2509 
Q 2775 2619 2662 2680 
Q 2550 2741 2406 2741 
Q 2056 2741 1856 2470 
Q 1656 2200 1656 1722 
L 1656 0 
L 538 0 
L 538 3500 
L 1656 3500 
L 1656 2988 
Q 1909 3294 2193 3439 
Q 2478 3584 2822 3584 
Q 3428 3584 3742 3212 
Q 4056 2841 4056 2131 
z
" transform="scale(0.015625)"/>
       <path id="DejaVuSans-Bold-74" d="M 1759 4494 
L 1759 3500 
L 2913 3500 
L 2913 2700 
L 1759 2700 
L 1759 1216 
Q 1759 972 1856 886 
Q 1953 800 2241 800 
L 2816 800 
L 2816 0 
L 1856 0 
Q 1194 0 917 276 
Q 641 553 641 1216 
L 641 2700 
L 84 2700 
L 84 3500 
L 641 3500 
L 641 4494 
L 1759 4494 
z
" transform="scale(0.015625)"/>
       <path id="DejaVuSans-Bold-20" transform="scale(0.015625)"/>
       <path id="DejaVuSans-Bold-52" d="M 2297 2597 
Q 2675 2597 2839 2737 
Q 3003 2878 3003 3200 
Q 3003 3519 2839 3656 
Q 2675 3794 2297 3794 
L 1791 3794 
L 1791 2597 
L 2297 2597 
z
M 1791 1766 
L 1791 0 
L 588 0 
L 588 4666 
L 2425 4666 
Q 3347 4666 3776 4356 
Q 4206 4047 4206 3378 
Q 4206 2916 3982 2619 
Q 3759 2322 3309 2181 
Q 3556 2125 3751 1926 
Q 3947 1728 4147 1325 
L 4800 0 
L 3519 0 
L 2950 1159 
Q 2778 1509 2601 1637 
Q 2425 1766 2131 1766 
L 1791 1766 
z
" transform="scale(0.015625)"/>
       <path id="DejaVuSans-Bold-73" d="M 3272 3391 
L 3272 2541 
Q 2913 2691 2578 2766 
Q 2244 2841 1947 2841 
Q 1628 2841 1473 2761 
Q 1319 2681 1319 2516 
Q 1319 2381 1436 2309 
Q 1553 2238 1856 2203 
L 2053 2175 
Q 2913 2066 3209 1816 
Q 3506 1566 3506 1031 
Q 3506 472 3093 190 
Q 2681 -91 1863 -91 
Q 1516 -91 1145 -36 
Q 775 19 384 128 
L 384 978 
Q 719 816 1070 734 
Q 1422 653 1784 653 
Q 2113 653 2278 743 
Q 2444 834 2444 1013 
Q 2444 1163 2330 1236 
Q 2216 1309 1875 1350 
L 1678 1375 
Q 931 1469 631 1722 
Q 331 1975 331 2491 
Q 331 3047 712 3315 
Q 1094 3584 1881 3584 
Q 2191 3584 2531 3537 
Q 2872 3491 3272 3391 
z
" transform="scale(0.015625)"/>
       <path id="DejaVuSans-Bold-69" d="M 538 3500 
L 1656 3500 
L 1656 0 
L 538 0 
L 538 3500 
z
M 538 4863 
L 1656 4863 
L 1656 3950 
L 538 3950 
L 538 4863 
z
" transform="scale(0.015625)"/>
       <path id="DejaVuSans-Bold-76" d="M 97 3500 
L 1216 3500 
L 2088 1081 
L 2956 3500 
L 4078 3500 
L 2700 0 
L 1472 0 
L 97 3500 
z
" transform="scale(0.015625)"/>
       <path id="DejaVuSans-Bold-79" d="M 78 3500 
L 1197 3500 
L 2138 1125 
L 2938 3500 
L 4056 3500 
L 2584 -331 
Q 2363 -916 2067 -1148 
Q 1772 -1381 1288 -1381 
L 641 -1381 
L 641 -647 
L 991 -647 
Q 1275 -647 1404 -556 
Q 1534 -466 1606 -231 
L 1638 -134 
L 78 3500 
z
" transform="scale(0.015625)"/>
       <path id="DejaVuSans-Bold-5b" d="M 550 4863 
L 2491 4863 
L 2491 4159 
L 1613 4159 
L 1613 -141 
L 2491 -141 
L 2491 -844 
L 550 -844 
L 550 4863 
z
" transform="scale(0.015625)"/>
       <path id="DejaVuSans-Bold-3a9" d="M 2719 4750 
Q 3841 4750 4480 4106 
Q 5119 3463 5119 2494 
Q 5119 1406 4306 909 
L 5266 909 
L 5266 0 
L 3125 0 
L 3125 975 
Q 3244 1041 3334 1131 
Q 3875 1678 3875 2466 
Q 3875 3066 3572 3472 
Q 3269 3878 2719 3878 
Q 2169 3878 1866 3472 
Q 1563 3066 1563 2466 
Q 1563 1678 2103 1131 
Q 2194 1041 2313 975 
L 2313 0 
L 172 0 
L 172 909 
L 1131 909 
Q 319 1406 319 2494 
Q 319 3463 958 4106 
Q 1597 4750 2719 4750 
z
" transform="scale(0.015625)"/>
       <path id="DejaVuSans-Bold-6d" d="M 3781 2919 
Q 3994 3244 4286 3414 
Q 4578 3584 4928 3584 
Q 5531 3584 5847 3212 
Q 6163 2841 6163 2131 
L 6163 0 
L 5038 0 
L 5038 1825 
Q 5041 1866 5042 1909 
Q 5044 1953 5044 2034 
Q 5044 2406 4934 2573 
Q 4825 2741 4581 2741 
Q 4263 2741 4089 2478 
Q 3916 2216 3909 1719 
L 3909 0 
L 2784 0 
L 2784 1825 
Q 2784 2406 2684 2573 
Q 2584 2741 2328 2741 
Q 2006 2741 1831 2477 
Q 1656 2213 1656 1722 
L 1656 0 
L 531 0 
L 531 3500 
L 1656 3500 
L 1656 2988 
Q 1863 3284 2130 3434 
Q 2397 3584 2719 3584 
Q 3081 3584 3359 3409 
Q 3638 3234 3781 2919 
z
" transform="scale(0.015625)"/>
       <path id="DejaVuSans-Bold-5d" d="M 2375 -844 
L 434 -844 
L 434 -141 
L 1313 -141 
L 1313 4159 
L 434 4159 
L 434 4863 
L 2375 4863 
L 2375 -844 
z
" transform="scale(0.015625)"/>
      </defs>
      <use xlink:href="#DejaVuSans-Bold-41" transform="translate(0 0.015625)"/>
      <use xlink:href="#DejaVuSans-Bold-70" transform="translate(77.392578 0.015625)"/>
      <use xlink:href="#DejaVuSans-Bold-70" transform="translate(148.974609 0.015625)"/>
      <use xlink:href="#DejaVuSans-Bold-61" transform="translate(220.556641 0.015625)"/>
      <use xlink:href="#DejaVuSans-Bold-72" transform="translate(288.037109 0.015625)"/>
      <use xlink:href="#DejaVuSans-Bold-65" transform="translate(337.353516 0.015625)"/>
      <use xlink:href="#DejaVuSans-Bold-6e" transform="translate(405.175781 0.015625)"/>
      <use xlink:href="#DejaVuSans-Bold-74" transform="translate(476.367188 0.015625)"/>
      <use xlink:href="#DejaVuSans-Bold-20" transform="translate(524.169922 0.015625)"/>
      <use xlink:href="#DejaVuSans-Bold-52" transform="translate(558.984375 0.015625)"/>
      <use xlink:href="#DejaVuSans-Bold-65" transform="translate(635.986328 0.015625)"/>
      <use xlink:href="#DejaVuSans-Bold-73" transform="translate(703.808594 0.015625)"/>
      <use xlink:href="#DejaVuSans-Bold-69" transform="translate(763.330078 0.015625)"/>
      <use xlink:href="#DejaVuSans-Bold-73" transform="translate(797.607422 0.015625)"/>
      <use xlink:href="#DejaVuSans-Bold-74" transform="translate(857.128906 0.015625)"/>
      <use xlink:href="#DejaVuSans-Bold-69" transform="translate(904.931641 0.015625)"/>
      <use xlink:href="#DejaVuSans-Bold-76" transform="translate(939.208984 0.015625)"/>
      <use xlink:href="#DejaVuSans-Bold-69" transform="translate(1004.394531 0.015625)"/>
      <use xlink:href="#DejaVuSans-Bold-74" transform="translate(1038.671875 0.015625)"/>
      <use xlink:href="#DejaVuSans-Bold-79" transform="translate(1086.474609 0.015625)"/>
      <use xlink:href="#DejaVuSans-Bold-20" transform="translate(1151.660156 0.015625)"/>
      <use xlink:href="#DejaVuSans-Bold-5b" transform="translate(1186.474609 0.015625)"/>
      <use xlink:href="#DejaVuSans-Bold-3a9" transform="translate(1232.177734 0.015625)"/>
      <use xlink:href="#DejaVuSans-Bold-6d" transform="translate(1317.1875 0.015625)"/>
      <use xlink:href="#DejaVuSans-Bold-5d" transform="translate(1421.386719 0.015625)"/>
     </g>
    </g>
   </g>
   <g id="line2d_3">
    <path d="M 27.414302 28.063636 
L 27.845683 47.030579 
L 33.763889 65.997521 
L 31.50042 84.964463 
L 34.650857 103.931405 
L 41.010727 122.898347 
L 45.408526 141.865289 
L 45.762999 160.832231 
L 54.125466 179.799174 
L 59.202654 198.766116 
L 71.788263 217.733058 
L 78.119259 236.7 
L 90.071934 255.666942 
L 101.113463 274.633884 
L 111.266874 293.600826 
L 126.837123 312.567769 
L 129.466431 331.534711 
L 140.501813 350.501653 
L 138.510147 369.468595 
L 137.12675 388.435537 
L 133.533492 407.402479 
L 127.72536 426.369421 
L 118.696939 445.336364 
" clip-path="url(#pdb681019ac)" style="fill: none; stroke: #756bb1; stroke-opacity: 0.2; stroke-width: 2; stroke-linecap: square"/>
   </g>
   <g id="line2d_4">
    <path d="M 32.39955 28.063636 
L 23.639254 47.030579 
L 19.472727 65.997521 
L 25.077251 84.964463 
L 27.254196 103.931405 
L 32.454741 122.898347 
L 39.029455 141.865289 
L 45.884812 160.832231 
L 55.345908 179.799174 
L 60.081493 198.766116 
L 73.264957 217.733058 
L 82.981109 236.7 
L 95.05687 255.666942 
L 103.163496 274.633884 
L 118.497136 293.600826 
L 128.33854 312.567769 
L 137.753862 331.534711 
L 151.951032 350.501653 
L 156.805283 369.468595 
L 163.996771 388.435537 
L 167.326476 407.402479 
L 168.875527 426.369421 
L 163.692335 445.336364 
" clip-path="url(#pdb681019ac)" style="fill: none; stroke: #756bb1; stroke-opacity: 0.2; stroke-width: 2; stroke-linecap: square"/>
   </g>
   <g id="line2d_5">
    <path d="M 28.05521 28.063636 
L 27.729329 47.030579 
L 32.312791 65.997521 
L 34.540178 84.964463 
L 36.096663 103.931405 
L 38.2577 122.898347 
L 46.390457 141.865289 
L 50.894007 160.832231 
L 51.612553 179.799174 
L 61.865656 198.766116 
L 68.880733 217.733058 
L 78.34414 236.7 
L 90.516252 255.666942 
L 96.623315 274.633884 
L 111.635885 293.600826 
L 118.568317 312.567769 
L 131.345072 331.534711 
L 138.956519 350.501653 
L 141.54429 369.468595 
L 148.542537 388.435537 
L 145.296104 407.402479 
L 144.456506 426.369421 
L 142.016516 445.336364 
" clip-path="url(#pdb681019ac)" style="fill: none; stroke: #756bb1; stroke-opacity: 0.2; stroke-width: 2; stroke-linecap: square"/>
   </g>
   <g id="line2d_6">
    <path d="M 31.297548 28.063636 
L 31.26361 47.030579 
L 37.196871 65.997521 
L 39.298649 84.964463 
L 47.464621 103.931405 
L 54.69321 122.898347 
L 64.594123 141.865289 
L 75.499258 160.832231 
L 84.663623 179.799174 
L 93.121355 198.766116 
L 107.174214 217.733058 
L 123.697041 236.7 
L 134.380407 255.666942 
L 149.905445 274.633884 
L 157.359014 293.600826 
L 173.022852 312.567769 
L 178.227306 331.534711 
L 185.941079 350.501653 
L 188.893875 369.468595 
L 198.483995 388.435537 
L 202.401186 407.402479 
L 201.993722 426.369421 
L 211.510528 445.336364 
" clip-path="url(#pdb681019ac)" style="fill: none; stroke: #756bb1; stroke-opacity: 0.2; stroke-width: 2; stroke-linecap: square"/>
   </g>
   <g id="line2d_7">
    <path d="M 34.47032 28.063636 
L 32.370648 47.030579 
L 33.463842 65.997521 
L 40.796872 84.964463 
L 46.73672 103.931405 
L 54.080317 122.898347 
L 63.403714 141.865289 
L 72.219656 160.832231 
L 81.024044 179.799174 
L 90.80774 198.766116 
L 103.221277 217.733058 
L 114.018792 236.7 
L 126.087497 255.666942 
L 137.038651 274.633884 
L 145.365564 293.600826 
L 154.345394 312.567769 
L 155.36636 331.534711 
L 155.561967 350.501653 
L 150.547672 369.468595 
L 141.745979 388.435537 
L 134.916092 407.402479 
L 123.104245 426.369421 
L 108.199832 445.336364 
" clip-path="url(#pdb681019ac)" style="fill: none; stroke: #756bb1; stroke-opacity: 0.2; stroke-width: 2; stroke-linecap: square"/>
   </g>
   <g id="line2d_8">
    <path d="M 31.663204 28.063636 
L 28.526303 47.030579 
L 27.421996 65.997521 
L 35.453307 84.964463 
L 37.592401 103.931405 
L 39.497589 122.898347 
L 44.045232 141.865289 
L 42.436755 160.832231 
L 48.469857 179.799174 
L 48.477555 198.766116 
L 48.996574 217.733058 
L 52.536596 236.7 
L 59.921278 255.666942 
L 66.744156 274.633884 
L 74.043675 293.600826 
L 83.575332 312.567769 
L 91.927848 331.534711 
L 102.408876 350.501653 
L 109.443489 369.468595 
L 118.004555 388.435537 
L 120.880018 407.402479 
L 123.75767 426.369421 
L 127.564799 445.336364 
" clip-path="url(#pdb681019ac)" style="fill: none; stroke: #756bb1; stroke-opacity: 0.2; stroke-width: 2; stroke-linecap: square"/>
   </g>
   <g id="line2d_9">
    <path d="M 36.527969 28.063636 
L 29.226223 47.030579 
L 22.952949 65.997521 
L 21.648736 84.964463 
L 28.02665 103.931405 
L 32.592243 122.898347 
L 34.042591 141.865289 
L 39.182263 160.832231 
L 45.088655 179.799174 
L 52.914016 198.766116 
L 59.964969 217.733058 
L 72.160012 236.7 
L 80.233016 255.666942 
L 88.965068 274.633884 
L 96.247701 293.600826 
L 106.974082 312.567769 
L 113.777963 331.534711 
L 120.646359 350.501653 
L 125.714621 369.468595 
L 130.339664 388.435537 
L 129.211683 407.402479 
L 128.163791 426.369421 
L 119.949251 445.336364 
" clip-path="url(#pdb681019ac)" style="fill: none; stroke: #756bb1; stroke-opacity: 0.2; stroke-width: 2; stroke-linecap: square"/>
   </g>
   <g id="line2d_10">
    <path d="M 36.415913 28.063636 
L 33.00076 47.030579 
L 35.664134 65.997521 
L 37.969653 84.964463 
L 46.252768 103.931405 
L 51.507517 122.898347 
L 59.435434 141.865289 
L 67.279629 160.832231 
L 76.705245 179.799174 
L 81.989381 198.766116 
L 95.507441 217.733058 
L 102.626609 236.7 
L 117.523429 255.666942 
L 129.745047 274.633884 
L 139.326087 293.600826 
L 149.788227 312.567769 
L 156.399539 331.534711 
L 161.593563 350.501653 
L 168.106236 369.468595 
L 167.399037 388.435537 
L 166.251632 407.402479 
L 161.783197 426.369421 
L 150.543057 445.336364 
" clip-path="url(#pdb681019ac)" style="fill: none; stroke: #756bb1; stroke-opacity: 0.2; stroke-width: 2; stroke-linecap: square"/>
   </g>
   <g id="line2d_11">
    <path d="M 34.231599 28.063636 
L 32.192131 47.030579 
L 34.683293 65.997521 
L 36.769065 84.964463 
L 39.827628 103.931405 
L 43.410217 122.898347 
L 51.650898 141.865289 
L 57.697831 160.832231 
L 70.792766 179.799174 
L 80.839969 198.766116 
L 91.318552 217.733058 
L 100.139415 236.7 
L 114.958868 255.666942 
L 127.728946 274.633884 
L 140.91238 293.600826 
L 152.255454 312.567769 
L 163.298872 331.534711 
L 175.157006 350.501653 
L 179.129392 369.468595 
L 179.514772 388.435537 
L 177.80728 407.402479 
L 174.403942 426.369421 
L 171.406008 445.336364 
" clip-path="url(#pdb681019ac)" style="fill: none; stroke: #756bb1; stroke-opacity: 0.2; stroke-width: 2; stroke-linecap: square"/>
   </g>
   <g id="line2d_12">
    <path d="M 35.473197 28.063636 
L 31.94826 47.030579 
L 31.743887 65.997521 
L 36.091017 84.964463 
L 39.698535 103.931405 
L 47.752025 122.898347 
L 55.020761 141.865289 
L 56.237898 160.832231 
L 67.592827 179.799174 
L 73.329731 198.766116 
L 79.005184 217.733058 
L 83.722315 236.7 
L 91.91239 255.666942 
L 104.472891 274.633884 
L 111.296861 293.600826 
L 118.093961 312.567769 
L 131.404716 331.534711 
L 136.610844 350.501653 
L 140.312253 369.468595 
L 147.165388 388.435537 
L 144.431517 407.402479 
L 141.879638 426.369421 
L 133.133108 445.336364 
" clip-path="url(#pdb681019ac)" style="fill: none; stroke: #756bb1; stroke-opacity: 0.2; stroke-width: 2; stroke-linecap: square"/>
   </g>
   <g id="line2d_13">
    <path d="M 35.644376 28.063636 
L 31.203657 47.030579 
L 30.719634 65.997521 
L 32.544152 84.964463 
L 35.33504 103.931405 
L 41.102981 122.898347 
L 44.490474 141.865289 
L 43.493443 160.832231 
L 48.033403 179.799174 
L 50.302126 198.766116 
L 52.277031 217.733058 
L 57.31435 236.7 
L 66.008412 255.666942 
L 73.231908 274.633884 
L 87.278317 293.600826 
L 94.829492 312.567769 
L 106.089906 331.534711 
L 118.715241 350.501653 
L 124.084843 369.468595 
L 137.673514 388.435537 
L 146.561633 407.402479 
L 150.209866 426.369421 
L 158.294289 445.336364 
" clip-path="url(#pdb681019ac)" style="fill: none; stroke: #756bb1; stroke-opacity: 0.2; stroke-width: 2; stroke-linecap: square"/>
   </g>
   <g id="line2d_14">
    <path d="M 34.738747 28.063636 
L 36.043294 47.030579 
L 36.72815 65.997521 
L 41.365716 84.964463 
L 39.964673 103.931405 
L 44.887651 122.898347 
L 51.143444 141.865289 
L 55.254393 160.832231 
L 61.710668 179.799174 
L 71.970114 198.766116 
L 81.453229 217.733058 
L 91.420361 236.7 
L 104.589715 255.666942 
L 117.912172 274.633884 
L 129.062464 293.600826 
L 140.736744 312.567769 
L 148.678031 331.534711 
L 150.387699 350.501653 
L 151.003212 369.468595 
L 147.07863 388.435537 
L 133.75739 407.402479 
L 123.181502 426.369421 
L 106.665933 445.336364 
" clip-path="url(#pdb681019ac)" style="fill: none; stroke: #756bb1; stroke-opacity: 0.2; stroke-width: 2; stroke-linecap: square"/>
   </g>
   <g id="line2d_15">
    <path d="M 34.313427 28.063636 
L 29.348052 47.030579 
L 35.768256 65.997521 
L 39.077162 84.964463 
L 46.011264 103.931405 
L 48.238713 122.898347 
L 56.919396 141.865289 
L 61.27405 160.832231 
L 64.320799 179.799174 
L 72.733728 198.766116 
L 73.938439 217.733058 
L 76.968382 236.7 
L 81.31769 255.666942 
L 89.653007 274.633884 
L 94.175116 293.600826 
L 97.624302 312.567769 
L 105.691016 331.534711 
L 112.584625 350.501653 
L 121.491544 369.468595 
L 124.339328 388.435537 
L 130.96328 407.402479 
L 131.417088 426.369421 
L 132.49719 445.336364 
" clip-path="url(#pdb681019ac)" style="fill: none; stroke: #756bb1; stroke-opacity: 0.2; stroke-width: 2; stroke-linecap: square"/>
   </g>
   <g id="line2d_16">
    <path d="M 31.686733 28.063636 
L 31.49966 47.030579 
L 32.596071 65.997521 
L 40.31533 84.964463 
L 47.542373 103.931405 
L 53.802433 122.898347 
L 57.085822 141.865289 
L 61.681952 160.832231 
L 75.553345 179.799174 
L 83.667693 198.766116 
L 88.685204 217.733058 
L 101.666336 236.7 
L 109.927517 255.666942 
L 126.446129 274.633884 
L 132.663286 293.600826 
L 141.489307 312.567769 
L 149.388891 331.534711 
L 153.544873 350.501653 
L 158.06161 369.468595 
L 157.057153 388.435537 
L 152.811759 407.402479 
L 146.126143 426.369421 
L 135.863756 445.336364 
" clip-path="url(#pdb681019ac)" style="fill: none; stroke: #756bb1; stroke-opacity: 0.2; stroke-width: 2; stroke-linecap: square"/>
   </g>
   <g id="line2d_17">
    <path d="M 32.966616 28.063636 
L 32.375137 47.030579 
L 33.163683 65.997521 
L 39.93686 84.964463 
L 40.76626 103.931405 
L 47.018999 122.898347 
L 44.671465 141.865289 
L 51.798876 160.832231 
L 48.93934 179.799174 
L 55.564945 198.766116 
L 58.20493 217.733058 
L 65.242913 236.7 
L 70.014076 255.666942 
L 76.449582 274.633884 
L 87.633061 293.600826 
L 97.53144 312.567769 
L 109.924311 331.534711 
L 119.300202 350.501653 
L 122.046911 369.468595 
L 127.179369 388.435537 
L 129.354023 407.402479 
L 126.321617 426.369421 
L 124.81781 445.336364 
" clip-path="url(#pdb681019ac)" style="fill: none; stroke: #756bb1; stroke-opacity: 0.2; stroke-width: 2; stroke-linecap: square"/>
   </g>
   <g id="line2d_18">
    <path d="M 28.239632 28.063636 
L 26.380637 47.030579 
L 27.353801 65.997521 
L 23.77977 84.964463 
L 26.879753 103.931405 
L 27.428142 122.898347 
L 27.116431 141.865289 
L 31.394214 160.832231 
L 30.233585 179.799174 
L 35.614518 198.766116 
L 40.768741 217.733058 
L 47.359723 236.7 
L 57.450332 255.666942 
L 64.209619 274.633884 
L 76.563697 293.600826 
L 87.166293 312.567769 
L 93.915957 331.534711 
L 104.661561 350.501653 
L 117.290207 369.468595 
L 123.073764 388.435537 
L 135.566973 407.402479 
L 140.949719 426.369421 
L 143.758793 445.336364 
" clip-path="url(#pdb681019ac)" style="fill: none; stroke: #756bb1; stroke-opacity: 0.2; stroke-width: 2; stroke-linecap: square"/>
   </g>
   <g id="line2d_19">
    <path d="M 38.996119 28.063636 
L 33.44959 47.030579 
L 37.271162 65.997521 
L 42.286342 84.964463 
L 49.1264 103.931405 
L 55.443853 122.898347 
L 63.927599 141.865289 
L 70.733846 160.832231 
L 79.129015 179.799174 
L 86.148736 198.766116 
L 95.444995 217.733058 
L 102.450186 236.7 
L 110.664262 255.666942 
L 121.229501 274.633884 
L 130.734407 293.600826 
L 142.617432 312.567769 
L 150.28595 331.534711 
L 158.598921 350.501653 
L 166.258239 369.468595 
L 170.688662 388.435537 
L 172.969907 407.402479 
L 166.907409 426.369421 
L 166.284201 445.336364 
" clip-path="url(#pdb681019ac)" style="fill: none; stroke: #756bb1; stroke-opacity: 0.2; stroke-width: 2; stroke-linecap: square"/>
   </g>
   <g id="line2d_20">
    <path d="M 33.450486 28.063636 
L 35.311248 47.030579 
L 34.767838 65.997521 
L 39.808145 84.964463 
L 41.373922 103.931405 
L 48.051408 122.898347 
L 52.236023 141.865289 
L 57.737975 160.832231 
L 64.42439 179.799174 
L 70.977749 198.766116 
L 80.169744 217.733058 
L 92.017005 236.7 
L 102.977806 255.666942 
L 119.09801 274.633884 
L 131.676393 293.600826 
L 145.676132 312.567769 
L 154.66188 331.534711 
L 163.719154 350.501653 
L 175.641045 369.468595 
L 178.67723 388.435537 
L 182.902294 407.402479 
L 179.502381 426.369421 
L 179.374082 445.336364 
" clip-path="url(#pdb681019ac)" style="fill: none; stroke: #756bb1; stroke-opacity: 0.2; stroke-width: 2; stroke-linecap: square"/>
   </g>
   <g id="line2d_21">
    <path d="M 33.811805 28.063636 
L 33.875588 47.030579 
L 35.020788 65.997521 
L 40.213784 84.964463 
L 43.803084 103.931405 
L 47.831898 122.898347 
L 49.428642 141.865289 
L 52.578319 160.832231 
L 58.121464 179.799174 
L 61.496348 198.766116 
L 68.417508 217.733058 
L 77.42567 236.7 
L 84.396406 255.666942 
L 96.957874 274.633884 
L 111.537634 293.600826 
L 125.060119 312.567769 
L 136.694972 331.534711 
L 152.312154 350.501653 
L 163.341353 369.468595 
L 175.606398 388.435537 
L 191.437196 407.402479 
L 204.305136 426.369421 
L 216.032375 445.336364 
" clip-path="url(#pdb681019ac)" style="fill: none; stroke: #756bb1; stroke-opacity: 0.2; stroke-width: 2; stroke-linecap: square"/>
   </g>
   <g id="line2d_22">
    <path d="M 39.931843 28.063636 
L 39.941368 47.030579 
L 39.083142 65.997521 
L 47.213249 84.964463 
L 49.146133 103.931405 
L 54.828995 122.898347 
L 63.506927 141.865289 
L 70.400211 160.832231 
L 76.160358 179.799174 
L 89.937535 198.766116 
L 100.709065 217.733058 
L 110.506717 236.7 
L 121.935721 255.666942 
L 137.757513 274.633884 
L 146.359423 293.600826 
L 158.025773 312.567769 
L 166.817072 331.534711 
L 176.458522 350.501653 
L 183.67066 369.468595 
L 191.896885 388.435537 
L 198.848889 407.402479 
L 197.744758 426.369421 
L 202.364234 445.336364 
" clip-path="url(#pdb681019ac)" style="fill: none; stroke: #756bb1; stroke-opacity: 0.2; stroke-width: 2; stroke-linecap: square"/>
   </g>
   <g id="line2d_23">
    <path d="M 33.700803 28.063636 
L 34.990055 47.030579 
L 35.906962 65.997521 
L 36.2456 84.964463 
L 41.3992 103.931405 
L 44.628905 122.898347 
L 47.247247 141.865289 
L 52.274176 160.832231 
L 52.186433 179.799174 
L 59.13819 198.766116 
L 63.743902 217.733058 
L 72.109227 236.7 
L 83.548551 255.666942 
L 91.105915 274.633884 
L 100.961738 293.600826 
L 110.306568 312.567769 
L 117.707618 331.534711 
L 124.191279 350.501653 
L 123.716739 369.468595 
L 122.753156 388.435537 
L 122.908288 407.402479 
L 120.425197 426.369421 
L 112.88268 445.336364 
" clip-path="url(#pdb681019ac)" style="fill: none; stroke: #756bb1; stroke-opacity: 0.2; stroke-width: 2; stroke-linecap: square"/>
   </g>
   <g id="line2d_24">
    <path d="M 34.952431 28.063636 
L 29.068751 47.030579 
L 33.520147 65.997521 
L 35.183786 84.964463 
L 33.486017 103.931405 
L 41.08055 122.898347 
L 46.923888 141.865289 
L 46.693711 160.832231 
L 53.106781 179.799174 
L 65.15057 198.766116 
L 72.936443 217.733058 
L 80.923383 236.7 
L 89.215328 255.666942 
L 99.017746 274.633884 
L 109.199399 293.600826 
L 123.516518 312.567769 
L 131.429462 331.534711 
L 142.193355 350.501653 
L 143.671998 369.468595 
L 150.937112 388.435537 
L 150.970315 407.402479 
L 146.898301 426.369421 
L 142.490917 445.336364 
" clip-path="url(#pdb681019ac)" style="fill: none; stroke: #756bb1; stroke-opacity: 0.2; stroke-width: 2; stroke-linecap: square"/>
   </g>
   <g id="line2d_25">
    <path d="M 34.674798 28.063636 
L 36.006484 47.030579 
L 37.495354 65.997521 
L 41.18021 84.964463 
L 43.594689 103.931405 
L 52.528979 122.898347 
L 57.380946 141.865289 
L 64.223367 160.832231 
L 72.048193 179.799174 
L 82.574408 198.766116 
L 93.571109 217.733058 
L 102.529407 236.7 
L 115.000119 255.666942 
L 120.560818 274.633884 
L 134.63267 293.600826 
L 139.875372 312.567769 
L 144.678606 331.534711 
L 149.157886 350.501653 
L 150.402942 369.468595 
L 144.913041 388.435537 
L 141.608106 407.402479 
L 130.747778 426.369421 
L 118.618604 445.336364 
" clip-path="url(#pdb681019ac)" style="fill: none; stroke: #756bb1; stroke-opacity: 0.2; stroke-width: 2; stroke-linecap: square"/>
   </g>
   <g id="line2d_26">
    <path d="M 32.178254 28.063636 
L 27.815242 47.030579 
L 32.398858 65.997521 
L 38.026294 84.964463 
L 44.069098 103.931405 
L 49.092546 122.898347 
L 54.721038 141.865289 
L 60.084828 160.832231 
L 69.507078 179.799174 
L 72.923366 198.766116 
L 79.133714 217.733058 
L 87.568656 236.7 
L 96.165905 255.666942 
L 110.490018 274.633884 
L 119.946137 293.600826 
L 128.358991 312.567769 
L 132.840346 331.534711 
L 136.162432 350.501653 
L 139.544517 369.468595 
L 134.547879 388.435537 
L 130.841036 407.402479 
L 125.54411 426.369421 
L 121.847215 445.336364 
" clip-path="url(#pdb681019ac)" style="fill: none; stroke: #756bb1; stroke-opacity: 0.2; stroke-width: 2; stroke-linecap: square"/>
   </g>
   <g id="line2d_27">
    <path d="M 28.352417 28.063636 
L 30.661636 47.030579 
L 31.809991 65.997521 
L 33.409578 84.964463 
L 35.888582 103.931405 
L 44.050726 122.898347 
L 45.393695 141.865289 
L 52.629851 160.832231 
L 60.03323 179.799174 
L 68.591183 198.766116 
L 82.680423 217.733058 
L 94.235974 236.7 
L 104.950434 255.666942 
L 117.090219 274.633884 
L 130.455482 293.600826 
L 144.171514 312.567769 
L 157.249715 331.534711 
L 173.965805 350.501653 
L 192.508261 369.468595 
L 210.635043 388.435537 
L 229.39758 407.402479 
L 249.242196 426.369421 
L 264.927273 445.336364 
" clip-path="url(#pdb681019ac)" style="fill: none; stroke: #756bb1; stroke-opacity: 0.2; stroke-width: 2; stroke-linecap: square"/>
   </g>
   <g id="line2d_28">
    <path d="M 41.055875 28.063636 
L 32.755798 47.030579 
L 29.986651 65.997521 
L 29.121337 84.964463 
L 34.34364 103.931405 
L 43.818955 122.898347 
L 49.002858 141.865289 
L 58.921768 160.832231 
L 66.471119 179.799174 
L 74.07974 198.766116 
L 87.090258 217.733058 
L 97.616727 236.7 
L 108.10918 255.666942 
L 118.153129 274.633884 
L 128.702354 293.600826 
L 139.223139 312.567769 
L 143.746357 331.534711 
L 149.030206 350.501653 
L 147.401351 369.468595 
L 145.207096 388.435537 
L 139.379432 407.402479 
L 134.280614 426.369421 
L 125.472999 445.336364 
" clip-path="url(#pdb681019ac)" style="fill: none; stroke: #756bb1; stroke-opacity: 0.2; stroke-width: 2; stroke-linecap: square"/>
   </g>
   <g id="line2d_29">
    <path d="M 32.680866 28.063636 
L 35.1121 47.030579 
L 35.818271 65.997521 
L 44.16524 84.964463 
L 47.983352 103.931405 
L 55.500344 122.898347 
L 62.585571 141.865289 
L 68.67471 160.832231 
L 78.29414 179.799174 
L 95.484965 198.766116 
L 102.269992 217.733058 
L 118.129907 236.7 
L 127.283654 255.666942 
L 142.627707 274.633884 
L 151.231217 293.600826 
L 164.557533 312.567769 
L 166.245971 331.534711 
L 172.555117 350.501653 
L 168.638383 369.468595 
L 166.383976 388.435537 
L 154.873228 407.402479 
L 145.044225 426.369421 
L 129.165663 445.336364 
" clip-path="url(#pdb681019ac)" style="fill: none; stroke: #756bb1; stroke-opacity: 0.2; stroke-width: 2; stroke-linecap: square"/>
   </g>
   <g id="line2d_30">
    <path d="M 38.032522 28.063636 
L 28.887821 47.030579 
L 33.896558 65.997521 
L 37.122783 84.964463 
L 38.666807 103.931405 
L 46.052713 122.898347 
L 46.576296 141.865289 
L 51.854384 160.832231 
L 59.647125 179.799174 
L 66.581965 198.766116 
L 73.888449 217.733058 
L 86.642218 236.7 
L 96.093613 255.666942 
L 106.764594 274.633884 
L 118.936409 293.600826 
L 132.22377 312.567769 
L 142.036053 331.534711 
L 151.586037 350.501653 
L 160.060671 369.468595 
L 170.682631 388.435537 
L 183.614455 407.402479 
L 193.67508 426.369421 
L 202.444832 445.336364 
" clip-path="url(#pdb681019ac)" style="fill: none; stroke: #756bb1; stroke-opacity: 0.2; stroke-width: 2; stroke-linecap: square"/>
   </g>
   <g id="line2d_31">
    <path d="M 36.250549 28.063636 
L 38.085938 47.030579 
L 39.447792 65.997521 
L 43.340186 84.964463 
L 49.985868 103.931405 
L 50.836933 122.898347 
L 59.660513 141.865289 
L 64.372253 160.832231 
L 73.488311 179.799174 
L 80.11232 198.766116 
L 89.081632 217.733058 
L 98.432116 236.7 
L 110.009779 255.666942 
L 121.779094 274.633884 
L 135.0637 293.600826 
L 141.883547 312.567769 
L 152.881469 331.534711 
L 156.203922 350.501653 
L 161.138469 369.468595 
L 157.227246 388.435537 
L 149.650298 407.402479 
L 141.748592 426.369421 
L 131.233229 445.336364 
" clip-path="url(#pdb681019ac)" style="fill: none; stroke: #756bb1; stroke-opacity: 0.2; stroke-width: 2; stroke-linecap: square"/>
   </g>
   <g id="line2d_32">
    <path d="M 37.673344 28.063636 
L 40.92546 47.030579 
L 40.979657 65.997521 
L 44.342524 84.964463 
L 49.004306 103.931405 
L 56.356555 122.898347 
L 60.725447 141.865289 
L 68.230901 160.832231 
L 81.429718 179.799174 
L 88.278238 198.766116 
L 103.756237 217.733058 
L 114.753006 236.7 
L 125.358816 255.666942 
L 133.996456 274.633884 
L 141.943743 293.600826 
L 155.8757 312.567769 
L 160.660886 331.534711 
L 164.843249 350.501653 
L 164.243406 369.468595 
L 167.88408 388.435537 
L 159.891412 407.402479 
L 152.337369 426.369421 
L 145.198139 445.336364 
" clip-path="url(#pdb681019ac)" style="fill: none; stroke: #756bb1; stroke-opacity: 0.2; stroke-width: 2; stroke-linecap: square"/>
   </g>
   <g id="line2d_33">
    <path d="M 38.327469 28.063636 
L 34.56367 47.030579 
L 32.81393 65.997521 
L 37.688601 84.964463 
L 37.597735 103.931405 
L 42.986119 122.898347 
L 42.30104 141.865289 
L 41.771961 160.832231 
L 47.380839 179.799174 
L 43.795344 198.766116 
L 47.310985 217.733058 
L 49.899918 236.7 
L 58.894749 255.666942 
L 65.456119 274.633884 
L 73.908668 293.600826 
L 84.337072 312.567769 
L 97.217684 331.534711 
L 103.690083 350.501653 
L 115.747453 369.468595 
L 125.370663 388.435537 
L 128.3425 407.402479 
L 131.007325 426.369421 
L 136.207831 445.336364 
" clip-path="url(#pdb681019ac)" style="fill: none; stroke: #756bb1; stroke-opacity: 0.2; stroke-width: 2; stroke-linecap: square"/>
   </g>
   <g id="line2d_34">
    <path d="M 29.470462 28.063636 
L 27.947185 47.030579 
L 25.66492 65.997521 
L 32.202695 84.964463 
L 30.132985 103.931405 
L 31.309618 122.898347 
L 35.353967 141.865289 
L 34.449554 160.832231 
L 42.169162 179.799174 
L 49.634115 198.766116 
L 54.703076 217.733058 
L 60.690872 236.7 
L 70.604929 255.666942 
L 79.984982 274.633884 
L 90.876206 293.600826 
L 101.95655 312.567769 
L 111.772455 331.534711 
L 118.829897 350.501653 
L 124.57126 369.468595 
L 126.615396 388.435537 
L 125.777718 407.402479 
L 124.040151 426.369421 
L 119.698237 445.336364 
" clip-path="url(#pdb681019ac)" style="fill: none; stroke: #756bb1; stroke-opacity: 0.2; stroke-width: 2; stroke-linecap: square"/>
   </g>
   <g id="line2d_35">
    <path d="M 40.291523 28.063636 
L 38.126654 47.030579 
L 39.582688 65.997521 
L 43.260964 84.964463 
L 49.164415 103.931405 
L 50.353502 122.898347 
L 58.956672 141.865289 
L 65.872038 160.832231 
L 76.415093 179.799174 
L 84.521154 198.766116 
L 92.773026 217.733058 
L 100.624516 236.7 
L 109.094963 255.666942 
L 123.546961 274.633884 
L 133.843318 293.600826 
L 144.165959 312.567769 
L 152.694329 331.534711 
L 158.943078 350.501653 
L 160.930942 369.468595 
L 167.28924 388.435537 
L 161.215127 407.402479 
L 156.037649 426.369421 
L 150.128495 445.336364 
" clip-path="url(#pdb681019ac)" style="fill: none; stroke: #756bb1; stroke-opacity: 0.2; stroke-width: 2; stroke-linecap: square"/>
   </g>
   <g id="line2d_36">
    <path d="M 38.102938 28.063636 
L 32.017208 47.030579 
L 37.800571 65.997521 
L 43.21011 84.964463 
L 47.494754 103.931405 
L 53.270976 122.898347 
L 61.703891 141.865289 
L 67.853941 160.832231 
L 78.910841 179.799174 
L 87.746871 198.766116 
L 103.407758 217.733058 
L 114.842709 236.7 
L 126.864745 255.666942 
L 134.272742 274.633884 
L 146.667983 293.600826 
L 159.004772 312.567769 
L 168.740786 331.534711 
L 173.550782 350.501653 
L 174.136874 369.468595 
L 176.271177 388.435537 
L 170.580956 407.402479 
L 167.230431 426.369421 
L 160.022982 445.336364 
" clip-path="url(#pdb681019ac)" style="fill: none; stroke: #756bb1; stroke-opacity: 0.2; stroke-width: 2; stroke-linecap: square"/>
   </g>
   <g id="line2d_37">
    <path d="M 30.708526 28.063636 
L 31.164647 47.030579 
L 37.839978 65.997521 
L 41.674477 84.964463 
L 41.333225 103.931405 
L 50.020555 122.898347 
L 50.823679 141.865289 
L 56.557289 160.832231 
L 67.866296 179.799174 
L 76.627743 198.766116 
L 83.785149 217.733058 
L 94.437574 236.7 
L 104.769877 255.666942 
L 117.234076 274.633884 
L 133.193971 293.600826 
L 144.912299 312.567769 
L 152.797141 331.534711 
L 158.15776 350.501653 
L 162.970467 369.468595 
L 165.904251 388.435537 
L 160.456209 407.402479 
L 159.871078 426.369421 
L 152.382114 445.336364 
" clip-path="url(#pdb681019ac)" style="fill: none; stroke: #756bb1; stroke-opacity: 0.2; stroke-width: 2; stroke-linecap: square"/>
   </g>
   <g id="line2d_38">
    <path d="M 37.217305 28.063636 
L 35.055998 47.030579 
L 35.319506 65.997521 
L 39.622917 84.964463 
L 44.41037 103.931405 
L 50.247035 122.898347 
L 61.959042 141.865289 
L 69.671657 160.832231 
L 82.212821 179.799174 
L 92.99219 198.766116 
L 100.860683 217.733058 
L 115.614094 236.7 
L 124.005095 255.666942 
L 135.68407 274.633884 
L 143.732773 293.600826 
L 145.374719 312.567769 
L 147.725173 331.534711 
L 147.818885 350.501653 
L 143.012354 369.468595 
L 135.888057 388.435537 
L 124.942873 407.402479 
L 119.760976 426.369421 
L 113.131951 445.336364 
" clip-path="url(#pdb681019ac)" style="fill: none; stroke: #756bb1; stroke-opacity: 0.2; stroke-width: 2; stroke-linecap: square"/>
   </g>
   <g id="line2d_39">
    <path d="M 38.44817 28.063636 
L 35.39223 47.030579 
L 38.958457 65.997521 
L 45.38743 84.964463 
L 48.186258 103.931405 
L 55.022604 122.898347 
L 63.650832 141.865289 
L 74.757662 160.832231 
L 83.865535 179.799174 
L 99.89945 198.766116 
L 110.415599 217.733058 
L 122.075476 236.7 
L 135.374386 255.666942 
L 148.879758 274.633884 
L 156.985098 293.600826 
L 167.722968 312.567769 
L 177.474867 331.534711 
L 179.608188 350.501653 
L 178.008706 369.468595 
L 171.406023 388.435537 
L 165.486748 407.402479 
L 157.257557 426.369421 
L 147.954934 445.336364 
" clip-path="url(#pdb681019ac)" style="fill: none; stroke: #756bb1; stroke-opacity: 0.2; stroke-width: 2; stroke-linecap: square"/>
   </g>
   <g id="line2d_40">
    <path d="M 38.341848 28.063636 
L 32.409543 47.030579 
L 34.811461 65.997521 
L 39.288556 84.964463 
L 45.318791 103.931405 
L 46.807215 122.898347 
L 51.956334 141.865289 
L 59.89596 160.832231 
L 68.419236 179.799174 
L 75.496093 198.766116 
L 87.849871 217.733058 
L 95.015921 236.7 
L 106.947457 255.666942 
L 121.04789 274.633884 
L 133.636646 293.600826 
L 148.04314 312.567769 
L 162.531982 331.534711 
L 167.274507 350.501653 
L 174.947606 369.468595 
L 178.79501 388.435537 
L 178.609556 407.402479 
L 177.951554 426.369421 
L 169.672745 445.336364 
" clip-path="url(#pdb681019ac)" style="fill: none; stroke: #756bb1; stroke-opacity: 0.2; stroke-width: 2; stroke-linecap: square"/>
   </g>
   <g id="line2d_41">
    <path d="M 27.292439 28.063636 
L 33.207104 47.030579 
L 35.692285 65.997521 
L 37.77314 84.964463 
L 43.200188 103.931405 
L 45.83959 122.898347 
L 48.744376 141.865289 
L 46.144203 160.832231 
L 53.54304 179.799174 
L 54.946672 198.766116 
L 53.014994 217.733058 
L 58.088827 236.7 
L 61.791193 255.666942 
L 69.59572 274.633884 
L 78.583694 293.600826 
L 88.239444 312.567769 
L 98.362736 331.534711 
L 106.076933 350.501653 
L 117.335773 369.468595 
L 125.060177 388.435537 
L 126.410941 407.402479 
L 133.229507 426.369421 
L 127.45114 445.336364 
" clip-path="url(#pdb681019ac)" style="fill: none; stroke: #756bb1; stroke-opacity: 0.2; stroke-width: 2; stroke-linecap: square"/>
   </g>
   <g id="line2d_42">
    <path d="M 31.934198 28.063636 
L 35.113541 47.030579 
L 32.572791 65.997521 
L 36.903953 84.964463 
L 40.994989 103.931405 
L 43.614948 122.898347 
L 47.723485 141.865289 
L 52.114848 160.832231 
L 59.028359 179.799174 
L 68.278928 198.766116 
L 73.263613 217.733058 
L 87.552788 236.7 
L 100.030591 255.666942 
L 113.48614 274.633884 
L 123.418825 293.600826 
L 140.860451 312.567769 
L 153.542956 331.534711 
L 165.813434 350.501653 
L 171.927725 369.468595 
L 179.808494 388.435537 
L 186.087033 407.402479 
L 187.573569 426.369421 
L 186.729367 445.336364 
" clip-path="url(#pdb681019ac)" style="fill: none; stroke: #756bb1; stroke-opacity: 0.2; stroke-width: 2; stroke-linecap: square"/>
   </g>
   <g id="line2d_43"/>
   <g id="line2d_44">
    <path d="M 34.859104 28.063636 
L 32.623907 47.030579 
L 33.684913 65.997521 
L 36.757716 84.964463 
L 40.607859 103.931405 
L 44.960395 122.898347 
L 49.832641 141.865289 
L 55.122152 160.832231 
L 61.298957 179.799174 
L 68.183881 198.766116 
L 75.837887 217.733058 
L 84.450293 236.7 
L 93.880331 255.666942 
L 103.667522 274.633884 
L 113.668624 293.600826 
L 123.174515 312.567769 
L 131.844423 331.534711 
L 139.165764 350.501653 
L 144.7335 369.468595 
L 148.169837 388.435537 
L 149.628974 407.402479 
L 149.109784 426.369421 
L 147.104483 445.336364 
" clip-path="url(#pdb681019ac)" style="fill: none; stroke: #39146b; stroke-width: 4; stroke-linecap: square"/>
   </g>
   <g id="line2d_45">
    <path d="M 32.54699 28.063636 
L 31.073162 47.030579 
L 31.932895 65.997521 
L 34.880552 84.964463 
L 38.565123 103.931405 
L 41.267142 122.898347 
L 45.442989 141.865289 
L 49.12756 160.832231 
L 52.812132 179.799174 
L 56.496703 198.766116 
L 61.409464 217.733058 
L 70.006797 236.7 
L 78.60413 255.666942 
L 88.429653 274.633884 
L 99.483366 293.600826 
L 110.53708 312.567769 
L 120.362603 331.534711 
L 125.275364 350.501653 
L 126.503555 369.468595 
L 130.188126 388.435537 
L 131.416316 407.402479 
L 128.959936 426.369421 
L 127.915974 445.336364 
" clip-path="url(#pdb681019ac)" style="fill: none; stroke: #e40000; stroke-width: 4; stroke-linecap: square"/>
    <defs>
     <path id="m4978a555db" d="M -5 5 
L 5 -5 
M -5 -5 
L 5 5 
" style="stroke: #e40000"/>
    </defs>
    <g clip-path="url(#pdb681019ac)">
     <use xlink:href="#m4978a555db" x="32.54699" y="28.063636" style="fill: #e40000; stroke: #e40000"/>
     <use xlink:href="#m4978a555db" x="31.073162" y="47.030579" style="fill: #e40000; stroke: #e40000"/>
     <use xlink:href="#m4978a555db" x="31.932895" y="65.997521" style="fill: #e40000; stroke: #e40000"/>
     <use xlink:href="#m4978a555db" x="34.880552" y="84.964463" style="fill: #e40000; stroke: #e40000"/>
     <use xlink:href="#m4978a555db" x="38.565123" y="103.931405" style="fill: #e40000; stroke: #e40000"/>
     <use xlink:href="#m4978a555db" x="41.267142" y="122.898347" style="fill: #e40000; stroke: #e40000"/>
     <use xlink:href="#m4978a555db" x="45.442989" y="141.865289" style="fill: #e40000; stroke: #e40000"/>
     <use xlink:href="#m4978a555db" x="49.12756" y="160.832231" style="fill: #e40000; stroke: #e40000"/>
     <use xlink:href="#m4978a555db" x="52.812132" y="179.799174" style="fill: #e40000; stroke: #e40000"/>
     <use xlink:href="#m4978a555db" x="56.496703" y="198.766116" style="fill: #e40000; stroke: #e40000"/>
     <use xlink:href="#m4978a555db" x="61.409464" y="217.733058" style="fill: #e40000; stroke: #e40000"/>
     <use xlink:href="#m4978a555db" x="70.006797" y="236.7" style="fill: #e40000; stroke: #e40000"/>
     <use xlink:href="#m4978a555db" x="78.60413" y="255.666942" style="fill: #e40000; stroke: #e40000"/>
     <use xlink:href="#m4978a555db" x="88.429653" y="274.633884" style="fill: #e40000; stroke: #e40000"/>
     <use xlink:href="#m4978a555db" x="99.483366" y="293.600826" style="fill: #e40000; stroke: #e40000"/>
     <use xlink:href="#m4978a555db" x="110.53708" y="312.567769" style="fill: #e40000; stroke: #e40000"/>
     <use xlink:href="#m4978a555db" x="120.362603" y="331.534711" style="fill: #e40000; stroke: #e40000"/>
     <use xlink:href="#m4978a555db" x="125.275364" y="350.501653" style="fill: #e40000; stroke: #e40000"/>
     <use xlink:href="#m4978a555db" x="126.503555" y="369.468595" style="fill: #e40000; stroke: #e40000"/>
     <use xlink:href="#m4978a555db" x="130.188126" y="388.435537" style="fill: #e40000; stroke: #e40000"/>
     <use xlink:href="#m4978a555db" x="131.416316" y="407.402479" style="fill: #e40000; stroke: #e40000"/>
     <use xlink:href="#m4978a555db" x="128.959936" y="426.369421" style="fill: #e40000; stroke: #e40000"/>
     <use xlink:href="#m4978a555db" x="127.915974" y="445.336364" style="fill: #e40000; stroke: #e40000"/>
    </g>
   </g>
   <g id="patch_3">
    <path d="M 7.2 476.2 
L 277.2 476.2 
" style="fill: none; stroke: #000000; stroke-width: 2; stroke-linejoin: miter; stroke-linecap: square"/>
   </g>
  </g>
 </g>
 <defs>
  <clipPath id="pdb681019ac">
   <rect x="7.2" y="7.2" width="270" height="459"/>
  </clipPath>
 </defs>
</svg>
