<?xml version="1.0" encoding="utf-8" standalone="no"?>
<!DOCTYPE svg PUBLIC "-//W3C//DTD SVG 1.1//EN"
  "http://www.w3.org/Graphics/SVG/1.1/DTD/svg11.dtd">
<svg xmlns:xlink="http://www.w3.org/1999/xlink" width="284.4pt" height="544.35625pt" viewBox="0 0 284.4 544.35625" xmlns="http://www.w3.org/2000/svg" version="1.1">
 <metadata>
  <rdf:RDF xmlns:dc="http://purl.org/dc/elements/1.1/" xmlns:cc="http://creativecommons.org/ns#" xmlns:rdf="http://www.w3.org/1999/02/22-rdf-syntax-ns#">
   <cc:Work>
    <dc:type rdf:resource="http://purl.org/dc/dcmitype/StillImage"/>
    <dc:date>2024-07-31T19:18:05.844130</dc:date>
    <dc:format>image/svg+xml</dc:format>
    <dc:creator>
     <cc:Agent>
      <dc:title>Matplotlib v3.8.0, https://matplotlib.org/</dc:title>
     </cc:Agent>
    </dc:creator>
   </cc:Work>
  </rdf:RDF>
 </metadata>
 <defs>
  <style type="text/css">*{stroke-linejoin: round; stroke-linecap: butt}</style>
 </defs>
 <g id="figure_1">
  <g id="patch_1">
   <path d="M 0 544.35625 
L 284.4 544.35625 
L 284.4 0 
L 0 0 
z
" style="fill: #ffffff"/>
  </g>
  <g id="axes_1">
   <g id="patch_2">
    <path d="M 7.2 466.2 
L 277.2 466.2 
L 277.2 7.2 
L 7.2 7.2 
z
" style="fill: #ffffff"/>
   </g>
   <g id="PolyCollection_1">
    <defs>
     <path id="mfc8886168c" d="M 21.979889 -516.292614 
L 42.759067 -516.292614 
L 45.017093 -497.325671 
L 47.428533 -478.358729 
L 50.947308 -459.391787 
L 55.568429 -440.424845 
L 61.001662 -421.457903 
L 67.838307 -402.490961 
L 76.680045 -383.524019 
L 86.937806 -364.557076 
L 98.977374 -345.590134 
L 113.484284 -326.623192 
L 130.996701 -307.65625 
L 150.407916 -288.689308 
L 170.38179 -269.722366 
L 191.270653 -250.755424 
L 211.792189 -231.788481 
L 229.673152 -212.821539 
L 244.479946 -193.854597 
L 255.087528 -174.887655 
L 259.913415 -155.920713 
L 259.339448 -136.953771 
L 254.346935 -117.986829 
L 247.425671 -99.019886 
L 227.442657 -99.019886 
L 227.442657 -99.019886 
L 238.007431 -117.986829 
L 242.799463 -136.953771 
L 242.23649 -155.920713 
L 236.439731 -174.887655 
L 224.663087 -193.854597 
L 208.881405 -212.821539 
L 189.890016 -231.788481 
L 169.163447 -250.755424 
L 148.649021 -269.722366 
L 129.312524 -288.689308 
L 110.282629 -307.65625 
L 94.929002 -326.623192 
L 80.8895 -345.590134 
L 69.094243 -364.557076 
L 58.936883 -383.524019 
L 50.298032 -402.490961 
L 43.395997 -421.457903 
L 38.297823 -440.424845 
L 32.930755 -459.391787 
L 29.050062 -478.358729 
L 25.647095 -497.325671 
L 21.979889 -516.292614 
z
" style="stroke: #756bb1; stroke-opacity: 0.5"/>
    </defs>
    <g clip-path="url(#p87d31de5ba)">
     <use xlink:href="#mfc8886168c" x="0" y="544.35625" style="fill: #756bb1; fill-opacity: 0.5; stroke: #756bb1; stroke-opacity: 0.5"/>
    </g>
   </g>
   <g id="matplotlib.axis_1">
    <g id="xtick_1">
     <g id="line2d_1">
      <defs>
       <path id="m6b0236ea98" d="M 0 0 
L 0 3.5 
" style="stroke: #000000; stroke-width: 1.5"/>
      </defs>
      <g>
       <use xlink:href="#m6b0236ea98" x="77.051278" y="476.2" style="stroke: #000000; stroke-width: 1.5"/>
      </g>
     </g>
     <g id="text_1">
      <!-- 100 -->
      <g transform="translate(57.963778 498.396875) scale(0.2 -0.2)">
       <defs>
        <path id="DejaVuSans-31" d="M 794 531 
L 1825 531 
L 1825 4091 
L 703 3866 
L 703 4441 
L 1819 4666 
L 2450 4666 
L 2450 531 
L 3481 531 
L 3481 0 
L 794 0 
L 794 531 
z
" transform="scale(0.015625)"/>
        <path id="DejaVuSans-30" d="M 2034 4250 
Q 1547 4250 1301 3770 
Q 1056 3291 1056 2328 
Q 1056 1369 1301 889 
Q 1547 409 2034 409 
Q 2525 409 2770 889 
Q 3016 1369 3016 2328 
Q 3016 3291 2770 3770 
Q 2525 4250 2034 4250 
z
M 2034 4750 
Q 2819 4750 3233 4129 
Q 3647 3509 3647 2328 
Q 3647 1150 3233 529 
Q 2819 -91 2034 -91 
Q 1250 -91 836 529 
Q 422 1150 422 2328 
Q 422 3509 836 4129 
Q 1250 4750 2034 4750 
z
" transform="scale(0.015625)"/>
       </defs>
       <use xlink:href="#DejaVuSans-31"/>
       <use xlink:href="#DejaVuSans-30" x="63.623047"/>
       <use xlink:href="#DejaVuSans-30" x="127.246094"/>
      </g>
     </g>
    </g>
    <g id="xtick_2">
     <g id="line2d_2">
      <g>
       <use xlink:href="#m6b0236ea98" x="209.683902" y="476.2" style="stroke: #000000; stroke-width: 1.5"/>
      </g>
     </g>
     <g id="text_2">
      <!-- 200 -->
      <g transform="translate(190.596402 498.396875) scale(0.2 -0.2)">
       <defs>
        <path id="DejaVuSans-32" d="M 1228 531 
L 3431 531 
L 3431 0 
L 469 0 
L 469 531 
Q 828 903 1448 1529 
Q 2069 2156 2228 2338 
Q 2531 2678 2651 2914 
Q 2772 3150 2772 3378 
Q 2772 3750 2511 3984 
Q 2250 4219 1831 4219 
Q 1534 4219 1204 4116 
Q 875 4013 500 3803 
L 500 4441 
Q 881 4594 1212 4672 
Q 1544 4750 1819 4750 
Q 2544 4750 2975 4387 
Q 3406 4025 3406 3419 
Q 3406 3131 3298 2873 
Q 3191 2616 2906 2266 
Q 2828 2175 2409 1742 
Q 1991 1309 1228 531 
z
" transform="scale(0.015625)"/>
       </defs>
       <use xlink:href="#DejaVuSans-32"/>
       <use xlink:href="#DejaVuSans-30" x="63.623047"/>
       <use xlink:href="#DejaVuSans-30" x="127.246094"/>
      </g>
     </g>
    </g>
    <g id="text_3">
     <!-- Apparent Resistivity [$\Omega m$] -->
     <g transform="translate(-4.6 532.75625) scale(0.2 -0.2)">
      <defs>
       <path id="DejaVuSans-Bold-41" d="M 3419 850 
L 1538 850 
L 1241 0 
L 31 0 
L 1759 4666 
L 3194 4666 
L 4922 0 
L 3713 0 
L 3419 850 
z
M 1838 1716 
L 3116 1716 
L 2478 3572 
L 1838 1716 
z
" transform="scale(0.015625)"/>
       <path id="DejaVuSans-Bold-70" d="M 1656 506 
L 1656 -1331 
L 538 -1331 
L 538 3500 
L 1656 3500 
L 1656 2988 
Q 1888 3294 2169 3439 
Q 2450 3584 2816 3584 
Q 3463 3584 3878 3070 
Q 4294 2556 4294 1747 
Q 4294 938 3878 423 
Q 3463 -91 2816 -91 
Q 2450 -91 2169 54 
Q 1888 200 1656 506 
z
M 2400 2772 
Q 2041 2772 1848 2508 
Q 1656 2244 1656 1747 
Q 1656 1250 1848 986 
Q 2041 722 2400 722 
Q 2759 722 2948 984 
Q 3138 1247 3138 1747 
Q 3138 2247 2948 2509 
Q 2759 2772 2400 2772 
z
" transform="scale(0.015625)"/>
       <path id="DejaVuSans-Bold-61" d="M 2106 1575 
Q 1756 1575 1579 1456 
Q 1403 1338 1403 1106 
Q 1403 894 1545 773 
Q 1688 653 1941 653 
Q 2256 653 2472 879 
Q 2688 1106 2688 1447 
L 2688 1575 
L 2106 1575 
z
M 3816 1997 
L 3816 0 
L 2688 0 
L 2688 519 
Q 2463 200 2181 54 
Q 1900 -91 1497 -91 
Q 953 -91 614 226 
Q 275 544 275 1050 
Q 275 1666 698 1953 
Q 1122 2241 2028 2241 
L 2688 2241 
L 2688 2328 
Q 2688 2594 2478 2717 
Q 2269 2841 1825 2841 
Q 1466 2841 1156 2769 
Q 847 2697 581 2553 
L 581 3406 
Q 941 3494 1303 3539 
Q 1666 3584 2028 3584 
Q 2975 3584 3395 3211 
Q 3816 2838 3816 1997 
z
" transform="scale(0.015625)"/>
       <path id="DejaVuSans-Bold-72" d="M 3138 2547 
Q 2991 2616 2845 2648 
Q 2700 2681 2553 2681 
Q 2122 2681 1889 2404 
Q 1656 2128 1656 1613 
L 1656 0 
L 538 0 
L 538 3500 
L 1656 3500 
L 1656 2925 
Q 1872 3269 2151 3426 
Q 2431 3584 2822 3584 
Q 2878 3584 2943 3579 
Q 3009 3575 3134 3559 
L 3138 2547 
z
" transform="scale(0.015625)"/>
       <path id="DejaVuSans-Bold-65" d="M 4031 1759 
L 4031 1441 
L 1416 1441 
Q 1456 1047 1700 850 
Q 1944 653 2381 653 
Q 2734 653 3104 758 
Q 3475 863 3866 1075 
L 3866 213 
Q 3469 63 3072 -14 
Q 2675 -91 2278 -91 
Q 1328 -91 801 392 
Q 275 875 275 1747 
Q 275 2603 792 3093 
Q 1309 3584 2216 3584 
Q 3041 3584 3536 3087 
Q 4031 2591 4031 1759 
z
M 2881 2131 
Q 2881 2450 2695 2645 
Q 2509 2841 2209 2841 
Q 1884 2841 1681 2658 
Q 1478 2475 1428 2131 
L 2881 2131 
z
" transform="scale(0.015625)"/>
       <path id="DejaVuSans-Bold-6e" d="M 4056 2131 
L 4056 0 
L 2931 0 
L 2931 347 
L 2931 1631 
Q 2931 2084 2911 2256 
Q 2891 2428 2841 2509 
Q 2775 2619 2662 2680 
Q 2550 2741 2406 2741 
Q 2056 2741 1856 2470 
Q 1656 2200 1656 1722 
L 1656 0 
L 538 0 
L 538 3500 
L 1656 3500 
L 1656 2988 
Q 1909 3294 2193 3439 
Q 2478 3584 2822 3584 
Q 3428 3584 3742 3212 
Q 4056 2841 4056 2131 
z
" transform="scale(0.015625)"/>
       <path id="DejaVuSans-Bold-74" d="M 1759 4494 
L 1759 3500 
L 2913 3500 
L 2913 2700 
L 1759 2700 
L 1759 1216 
Q 1759 972 1856 886 
Q 1953 800 2241 800 
L 2816 800 
L 2816 0 
L 1856 0 
Q 1194 0 917 276 
Q 641 553 641 1216 
L 641 2700 
L 84 2700 
L 84 3500 
L 641 3500 
L 641 4494 
L 1759 4494 
z
" transform="scale(0.015625)"/>
       <path id="DejaVuSans-Bold-20" transform="scale(0.015625)"/>
       <path id="DejaVuSans-Bold-52" d="M 2297 2597 
Q 2675 2597 2839 2737 
Q 3003 2878 3003 3200 
Q 3003 3519 2839 3656 
Q 2675 3794 2297 3794 
L 1791 3794 
L 1791 2597 
L 2297 2597 
z
M 1791 1766 
L 1791 0 
L 588 0 
L 588 4666 
L 2425 4666 
Q 3347 4666 3776 4356 
Q 4206 4047 4206 3378 
Q 4206 2916 3982 2619 
Q 3759 2322 3309 2181 
Q 3556 2125 3751 1926 
Q 3947 1728 4147 1325 
L 4800 0 
L 3519 0 
L 2950 1159 
Q 2778 1509 2601 1637 
Q 2425 1766 2131 1766 
L 1791 1766 
z
" transform="scale(0.015625)"/>
       <path id="DejaVuSans-Bold-73" d="M 3272 3391 
L 3272 2541 
Q 2913 2691 2578 2766 
Q 2244 2841 1947 2841 
Q 1628 2841 1473 2761 
Q 1319 2681 1319 2516 
Q 1319 2381 1436 2309 
Q 1553 2238 1856 2203 
L 2053 2175 
Q 2913 2066 3209 1816 
Q 3506 1566 3506 1031 
Q 3506 472 3093 190 
Q 2681 -91 1863 -91 
Q 1516 -91 1145 -36 
Q 775 19 384 128 
L 384 978 
Q 719 816 1070 734 
Q 1422 653 1784 653 
Q 2113 653 2278 743 
Q 2444 834 2444 1013 
Q 2444 1163 2330 1236 
Q 2216 1309 1875 1350 
L 1678 1375 
Q 931 1469 631 1722 
Q 331 1975 331 2491 
Q 331 3047 712 3315 
Q 1094 3584 1881 3584 
Q 2191 3584 2531 3537 
Q 2872 3491 3272 3391 
z
" transform="scale(0.015625)"/>
       <path id="DejaVuSans-Bold-69" d="M 538 3500 
L 1656 3500 
L 1656 0 
L 538 0 
L 538 3500 
z
M 538 4863 
L 1656 4863 
L 1656 3950 
L 538 3950 
L 538 4863 
z
" transform="scale(0.015625)"/>
       <path id="DejaVuSans-Bold-76" d="M 97 3500 
L 1216 3500 
L 2088 1081 
L 2956 3500 
L 4078 3500 
L 2700 0 
L 1472 0 
L 97 3500 
z
" transform="scale(0.015625)"/>
       <path id="DejaVuSans-Bold-79" d="M 78 3500 
L 1197 3500 
L 2138 1125 
L 2938 3500 
L 4056 3500 
L 2584 -331 
Q 2363 -916 2067 -1148 
Q 1772 -1381 1288 -1381 
L 641 -1381 
L 641 -647 
L 991 -647 
Q 1275 -647 1404 -556 
Q 1534 -466 1606 -231 
L 1638 -134 
L 78 3500 
z
" transform="scale(0.015625)"/>
       <path id="DejaVuSans-Bold-5b" d="M 550 4863 
L 2491 4863 
L 2491 4159 
L 1613 4159 
L 1613 -141 
L 2491 -141 
L 2491 -844 
L 550 -844 
L 550 4863 
z
" transform="scale(0.015625)"/>
       <path id="DejaVuSans-Bold-3a9" d="M 2719 4750 
Q 3841 4750 4480 4106 
Q 5119 3463 5119 2494 
Q 5119 1406 4306 909 
L 5266 909 
L 5266 0 
L 3125 0 
L 3125 975 
Q 3244 1041 3334 1131 
Q 3875 1678 3875 2466 
Q 3875 3066 3572 3472 
Q 3269 3878 2719 3878 
Q 2169 3878 1866 3472 
Q 1563 3066 1563 2466 
Q 1563 1678 2103 1131 
Q 2194 1041 2313 975 
L 2313 0 
L 172 0 
L 172 909 
L 1131 909 
Q 319 1406 319 2494 
Q 319 3463 958 4106 
Q 1597 4750 2719 4750 
z
" transform="scale(0.015625)"/>
       <path id="DejaVuSans-Bold-6d" d="M 3781 2919 
Q 3994 3244 4286 3414 
Q 4578 3584 4928 3584 
Q 5531 3584 5847 3212 
Q 6163 2841 6163 2131 
L 6163 0 
L 5038 0 
L 5038 1825 
Q 5041 1866 5042 1909 
Q 5044 1953 5044 2034 
Q 5044 2406 4934 2573 
Q 4825 2741 4581 2741 
Q 4263 2741 4089 2478 
Q 3916 2216 3909 1719 
L 3909 0 
L 2784 0 
L 2784 1825 
Q 2784 2406 2684 2573 
Q 2584 2741 2328 2741 
Q 2006 2741 1831 2477 
Q 1656 2213 1656 1722 
L 1656 0 
L 531 0 
L 531 3500 
L 1656 3500 
L 1656 2988 
Q 1863 3284 2130 3434 
Q 2397 3584 2719 3584 
Q 3081 3584 3359 3409 
Q 3638 3234 3781 2919 
z
" transform="scale(0.015625)"/>
       <path id="DejaVuSans-Bold-5d" d="M 2375 -844 
L 434 -844 
L 434 -141 
L 1313 -141 
L 1313 4159 
L 434 4159 
L 434 4863 
L 2375 4863 
L 2375 -844 
z
" transform="scale(0.015625)"/>
      </defs>
      <use xlink:href="#DejaVuSans-Bold-41" transform="translate(0 0.015625)"/>
      <use xlink:href="#DejaVuSans-Bold-70" transform="translate(77.392578 0.015625)"/>
      <use xlink:href="#DejaVuSans-Bold-70" transform="translate(148.974609 0.015625)"/>
      <use xlink:href="#DejaVuSans-Bold-61" transform="translate(220.556641 0.015625)"/>
      <use xlink:href="#DejaVuSans-Bold-72" transform="translate(288.037109 0.015625)"/>
      <use xlink:href="#DejaVuSans-Bold-65" transform="translate(337.353516 0.015625)"/>
      <use xlink:href="#DejaVuSans-Bold-6e" transform="translate(405.175781 0.015625)"/>
      <use xlink:href="#DejaVuSans-Bold-74" transform="translate(476.367188 0.015625)"/>
      <use xlink:href="#DejaVuSans-Bold-20" transform="translate(524.169922 0.015625)"/>
      <use xlink:href="#DejaVuSans-Bold-52" transform="translate(558.984375 0.015625)"/>
      <use xlink:href="#DejaVuSans-Bold-65" transform="translate(635.986328 0.015625)"/>
      <use xlink:href="#DejaVuSans-Bold-73" transform="translate(703.808594 0.015625)"/>
      <use xlink:href="#DejaVuSans-Bold-69" transform="translate(763.330078 0.015625)"/>
      <use xlink:href="#DejaVuSans-Bold-73" transform="translate(797.607422 0.015625)"/>
      <use xlink:href="#DejaVuSans-Bold-74" transform="translate(857.128906 0.015625)"/>
      <use xlink:href="#DejaVuSans-Bold-69" transform="translate(904.931641 0.015625)"/>
      <use xlink:href="#DejaVuSans-Bold-76" transform="translate(939.208984 0.015625)"/>
      <use xlink:href="#DejaVuSans-Bold-69" transform="translate(1004.394531 0.015625)"/>
      <use xlink:href="#DejaVuSans-Bold-74" transform="translate(1038.671875 0.015625)"/>
      <use xlink:href="#DejaVuSans-Bold-79" transform="translate(1086.474609 0.015625)"/>
      <use xlink:href="#DejaVuSans-Bold-20" transform="translate(1151.660156 0.015625)"/>
      <use xlink:href="#DejaVuSans-Bold-5b" transform="translate(1186.474609 0.015625)"/>
      <use xlink:href="#DejaVuSans-Bold-3a9" transform="translate(1232.177734 0.015625)"/>
      <use xlink:href="#DejaVuSans-Bold-6d" transform="translate(1317.1875 0.015625)"/>
      <use xlink:href="#DejaVuSans-Bold-5d" transform="translate(1421.386719 0.015625)"/>
     </g>
    </g>
   </g>
   <g id="line2d_3">
    <path d="M 24.198819 28.063636 
L 27.42635 47.030579 
L 30.971683 65.997521 
L 42.573337 84.964463 
L 38.737364 103.931405 
L 56.201273 122.898347 
L 62.986804 141.865289 
L 63.819879 160.832231 
L 84.005241 179.799174 
L 95.539495 198.766116 
L 100.369566 217.733058 
L 115.972732 236.7 
L 144.990645 255.666942 
L 155.628669 274.633884 
L 175.59528 293.600826 
L 200.9078 312.567769 
L 218.390557 331.534711 
L 225.334357 350.501653 
L 245.034255 369.468595 
L 253.067797 388.435537 
L 245.812047 407.402479 
L 246.35515 426.369421 
L 237.794935 445.336364 
" clip-path="url(#p87d31de5ba)" style="fill: none; stroke: #756bb1; stroke-opacity: 0.2; stroke-width: 2; stroke-linecap: square"/>
   </g>
   <g id="line2d_4">
    <path d="M 30.658593 28.063636 
L 24.712757 47.030579 
L 26.61695 65.997521 
L 42.241944 84.964463 
L 45.661702 103.931405 
L 42.949536 122.898347 
L 51.486137 141.865289 
L 66.622587 160.832231 
L 72.191858 179.799174 
L 81.190857 198.766116 
L 101.967285 217.733058 
L 110.364808 236.7 
L 130.863664 255.666942 
L 154.52895 274.633884 
L 180.885062 293.600826 
L 203.607364 312.567769 
L 221.946802 331.534711 
L 233.068566 350.501653 
L 245.405958 369.468595 
L 247.625337 388.435537 
L 246.928049 407.402479 
L 246.76179 426.369421 
L 233.431811 445.336364 
" clip-path="url(#p87d31de5ba)" style="fill: none; stroke: #756bb1; stroke-opacity: 0.2; stroke-width: 2; stroke-linecap: square"/>
   </g>
   <g id="line2d_5">
    <path d="M 30.76912 28.063636 
L 24.969788 47.030579 
L 31.098663 65.997521 
L 38.25016 84.964463 
L 41.425884 103.931405 
L 43.851699 122.898347 
L 60.045703 141.865289 
L 61.57148 160.832231 
L 77.934469 179.799174 
L 89.843305 198.766116 
L 102.854329 217.733058 
L 114.055316 236.7 
L 131.453478 255.666942 
L 152.961148 274.633884 
L 180.426734 293.600826 
L 199.812789 312.567769 
L 212.512848 331.534711 
L 236.20177 350.501653 
L 242.416506 369.468595 
L 248.444891 388.435537 
L 252.613492 407.402479 
L 248.994227 426.369421 
L 243.120569 445.336364 
" clip-path="url(#p87d31de5ba)" style="fill: none; stroke: #756bb1; stroke-opacity: 0.2; stroke-width: 2; stroke-linecap: square"/>
   </g>
   <g id="line2d_6">
    <path d="M 30.193759 28.063636 
L 33.913642 47.030579 
L 33.165288 65.997521 
L 35.92153 84.964463 
L 48.201934 103.931405 
L 54.255912 122.898347 
L 61.815 141.865289 
L 62.712142 160.832231 
L 72.978663 179.799174 
L 85.716735 198.766116 
L 101.985034 217.733058 
L 110.68694 236.7 
L 135.921413 255.666942 
L 154.182158 274.633884 
L 163.246498 293.600826 
L 190.782219 312.567769 
L 210.270337 331.534711 
L 222.377049 350.501653 
L 238.702052 369.468595 
L 241.321596 388.435537 
L 242.455518 407.402479 
L 247.079103 426.369421 
L 238.222504 445.336364 
" clip-path="url(#p87d31de5ba)" style="fill: none; stroke: #756bb1; stroke-opacity: 0.2; stroke-width: 2; stroke-linecap: square"/>
   </g>
   <g id="line2d_7">
    <path d="M 30.965246 28.063636 
L 24.179298 47.030579 
L 37.915046 65.997521 
L 40.043384 84.964463 
L 45.392892 103.931405 
L 51.160839 122.898347 
L 61.041107 141.865289 
L 65.521311 160.832231 
L 72.644067 179.799174 
L 82.803651 198.766116 
L 94.451556 217.733058 
L 114.693793 236.7 
L 137.284656 255.666942 
L 162.022432 274.633884 
L 183.115885 293.600826 
L 204.206711 312.567769 
L 219.226621 331.534711 
L 237.478367 350.501653 
L 244.942115 369.468595 
L 245.109287 388.435537 
L 253.655358 407.402479 
L 246.749666 426.369421 
L 239.673148 445.336364 
" clip-path="url(#p87d31de5ba)" style="fill: none; stroke: #756bb1; stroke-opacity: 0.2; stroke-width: 2; stroke-linecap: square"/>
   </g>
   <g id="line2d_8">
    <path d="M 37.14584 28.063636 
L 40.325444 47.030579 
L 41.673175 65.997521 
L 37.687325 84.964463 
L 51.471602 103.931405 
L 47.230075 122.898347 
L 62.013074 141.865289 
L 68.781934 160.832231 
L 78.067886 179.799174 
L 95.023912 198.766116 
L 104.629975 217.733058 
L 115.640667 236.7 
L 146.929467 255.666942 
L 168.080735 274.633884 
L 184.245789 293.600826 
L 208.895067 312.567769 
L 216.880713 331.534711 
L 237.310163 350.501653 
L 241.702373 369.468595 
L 245.586772 388.435537 
L 256.829881 407.402479 
L 248.208947 426.369421 
L 231.552292 445.336364 
" clip-path="url(#p87d31de5ba)" style="fill: none; stroke: #756bb1; stroke-opacity: 0.2; stroke-width: 2; stroke-linecap: square"/>
   </g>
   <g id="line2d_9">
    <path d="M 36.412631 28.063636 
L 42.976898 47.030579 
L 35.673707 65.997521 
L 43.12366 84.964463 
L 43.510447 103.931405 
L 51.530751 122.898347 
L 51.879285 141.865289 
L 62.826115 160.832231 
L 69.287074 179.799174 
L 81.983421 198.766116 
L 102.965888 217.733058 
L 113.334739 236.7 
L 133.358809 255.666942 
L 154.496224 274.633884 
L 180.46566 293.600826 
L 194.469822 312.567769 
L 220.401021 331.534711 
L 233.085315 350.501653 
L 243.769289 369.468595 
L 254.105915 388.435537 
L 247.931585 407.402479 
L 245.993041 426.369421 
L 230.6823 445.336364 
" clip-path="url(#p87d31de5ba)" style="fill: none; stroke: #756bb1; stroke-opacity: 0.2; stroke-width: 2; stroke-linecap: square"/>
   </g>
   <g id="line2d_10">
    <path d="M 38.116921 28.063636 
L 42.036394 47.030579 
L 41.997365 65.997521 
L 48.502945 84.964463 
L 47.406377 103.931405 
L 58.034775 122.898347 
L 66.924029 141.865289 
L 65.174136 160.832231 
L 84.901181 179.799174 
L 88.121084 198.766116 
L 100.604928 217.733058 
L 126.304438 236.7 
L 141.398739 255.666942 
L 156.477083 274.633884 
L 175.977249 293.600826 
L 202.498183 312.567769 
L 218.900822 331.534711 
L 235.111742 350.501653 
L 246.207119 369.468595 
L 243.823343 388.435537 
L 247.302316 407.402479 
L 248.232644 426.369421 
L 236.954087 445.336364 
" clip-path="url(#p87d31de5ba)" style="fill: none; stroke: #756bb1; stroke-opacity: 0.2; stroke-width: 2; stroke-linecap: square"/>
   </g>
   <g id="line2d_11">
    <path d="M 31.620482 28.063636 
L 36.339389 47.030579 
L 33.02862 65.997521 
L 44.024696 84.964463 
L 42.115868 103.931405 
L 49.531047 122.898347 
L 56.147247 141.865289 
L 62.813889 160.832231 
L 80.592014 179.799174 
L 91.257006 198.766116 
L 109.644387 217.733058 
L 126.554173 236.7 
L 145.362849 255.666942 
L 165.596054 274.633884 
L 191.248716 293.600826 
L 211.904945 312.567769 
L 228.405627 331.534711 
L 233.852275 350.501653 
L 245.034373 369.468595 
L 254.446831 388.435537 
L 256.488067 407.402479 
L 252.064178 426.369421 
L 230.859401 445.336364 
" clip-path="url(#p87d31de5ba)" style="fill: none; stroke: #756bb1; stroke-opacity: 0.2; stroke-width: 2; stroke-linecap: square"/>
   </g>
   <g id="line2d_12">
    <path d="M 29.95975 28.063636 
L 33.396943 47.030579 
L 31.316549 65.997521 
L 44.722481 84.964463 
L 40.834655 103.931405 
L 53.481747 122.898347 
L 62.640441 141.865289 
L 70.721451 160.832231 
L 76.65949 179.799174 
L 97.440852 198.766116 
L 112.584065 217.733058 
L 132.255106 236.7 
L 138.395412 255.666942 
L 160.096812 274.633884 
L 182.57411 293.600826 
L 207.095103 312.567769 
L 229.889816 331.534711 
L 242.587297 350.501653 
L 252.326075 369.468595 
L 255.361138 388.435537 
L 249.948778 407.402479 
L 254.61834 426.369421 
L 249.805277 445.336364 
" clip-path="url(#p87d31de5ba)" style="fill: none; stroke: #756bb1; stroke-opacity: 0.2; stroke-width: 2; stroke-linecap: square"/>
   </g>
   <g id="line2d_13">
    <path d="M 28.74961 28.063636 
L 30.638249 47.030579 
L 37.325764 65.997521 
L 39.511496 84.964463 
L 43.653557 103.931405 
L 49.139181 122.898347 
L 46.731902 141.865289 
L 65.003691 160.832231 
L 67.102716 179.799174 
L 79.469936 198.766116 
L 97.067738 217.733058 
L 110.222552 236.7 
L 134.827441 255.666942 
L 153.627186 274.633884 
L 174.924015 293.600826 
L 194.020501 312.567769 
L 213.636344 331.534711 
L 239.930888 350.501653 
L 239.676852 369.468595 
L 251.323135 388.435537 
L 248.35772 407.402479 
L 248.12274 426.369421 
L 235.319619 445.336364 
" clip-path="url(#p87d31de5ba)" style="fill: none; stroke: #756bb1; stroke-opacity: 0.2; stroke-width: 2; stroke-linecap: square"/>
   </g>
   <g id="line2d_14">
    <path d="M 40.658481 28.063636 
L 41.83445 47.030579 
L 40.089172 65.997521 
L 40.615277 84.964463 
L 51.63498 103.931405 
L 46.980664 122.898347 
L 65.517747 141.865289 
L 69.950604 160.832231 
L 78.701659 179.799174 
L 87.227757 198.766116 
L 111.859192 217.733058 
L 126.00691 236.7 
L 146.685671 255.666942 
L 165.485817 274.633884 
L 175.86208 293.600826 
L 206.267926 312.567769 
L 215.893952 331.534711 
L 232.2894 350.501653 
L 236.233467 369.468595 
L 248.642371 388.435537 
L 249.830248 407.402479 
L 247.234843 426.369421 
L 236.524479 445.336364 
" clip-path="url(#p87d31de5ba)" style="fill: none; stroke: #756bb1; stroke-opacity: 0.2; stroke-width: 2; stroke-linecap: square"/>
   </g>
   <g id="line2d_15">
    <path d="M 41.015691 28.063636 
L 40.764488 47.030579 
L 38.154769 65.997521 
L 34.728668 84.964463 
L 45.912455 103.931405 
L 53.870786 122.898347 
L 58.967104 141.865289 
L 65.882832 160.832231 
L 72.672746 179.799174 
L 88.935368 198.766116 
L 105.607783 217.733058 
L 128.04088 236.7 
L 148.140351 255.666942 
L 172.113847 274.633884 
L 188.407578 293.600826 
L 203.937252 312.567769 
L 224.847218 331.534711 
L 242.42989 350.501653 
L 244.519261 369.468595 
L 246.063285 388.435537 
L 242.871979 407.402479 
L 247.793401 426.369421 
L 230.344478 445.336364 
" clip-path="url(#p87d31de5ba)" style="fill: none; stroke: #756bb1; stroke-opacity: 0.2; stroke-width: 2; stroke-linecap: square"/>
   </g>
   <g id="line2d_16">
    <path d="M 32.175159 28.063636 
L 41.219932 47.030579 
L 38.147499 65.997521 
L 43.222736 84.964463 
L 55.465741 103.931405 
L 56.863416 122.898347 
L 65.723168 141.865289 
L 70.30612 160.832231 
L 79.355003 179.799174 
L 87.390935 198.766116 
L 105.578799 217.733058 
L 126.567495 236.7 
L 144.062322 255.666942 
L 155.47129 274.633884 
L 187.625931 293.600826 
L 198.26856 312.567769 
L 222.812158 331.534711 
L 235.503402 350.501653 
L 243.038063 369.468595 
L 252.329857 388.435537 
L 251.467551 407.402479 
L 249.285639 426.369421 
L 236.966793 445.336364 
" clip-path="url(#p87d31de5ba)" style="fill: none; stroke: #756bb1; stroke-opacity: 0.2; stroke-width: 2; stroke-linecap: square"/>
   </g>
   <g id="line2d_17">
    <path d="M 34.07777 28.063636 
L 42.872201 47.030579 
L 50.070635 65.997521 
L 53.24416 84.964463 
L 48.721848 103.931405 
L 54.277947 122.898347 
L 66.385097 141.865289 
L 78.220397 160.832231 
L 82.531061 179.799174 
L 90.901617 198.766116 
L 108.797316 217.733058 
L 130.10044 236.7 
L 147.953099 255.666942 
L 162.089915 274.633884 
L 191.012894 293.600826 
L 210.891761 312.567769 
L 229.1609 331.534711 
L 241.141614 350.501653 
L 252.812629 369.468595 
L 255.031343 388.435537 
L 249.862779 407.402479 
L 238.296051 426.369421 
L 224.847123 445.336364 
" clip-path="url(#p87d31de5ba)" style="fill: none; stroke: #756bb1; stroke-opacity: 0.2; stroke-width: 2; stroke-linecap: square"/>
   </g>
   <g id="line2d_18">
    <path d="M 20.372209 28.063636 
L 35.665964 47.030579 
L 32.55356 65.997521 
L 36.308336 84.964463 
L 47.903706 103.931405 
L 48.930578 122.898347 
L 58.085949 141.865289 
L 64.822733 160.832231 
L 68.42047 179.799174 
L 82.20135 198.766116 
L 94.849174 217.733058 
L 104.351827 236.7 
L 133.430947 255.666942 
L 142.860339 274.633884 
L 175.921362 293.600826 
L 189.892366 312.567769 
L 210.644555 331.534711 
L 226.350378 350.501653 
L 241.723146 369.468595 
L 250.595982 388.435537 
L 247.465731 407.402479 
L 242.3517 426.369421 
L 238.671333 445.336364 
" clip-path="url(#p87d31de5ba)" style="fill: none; stroke: #756bb1; stroke-opacity: 0.2; stroke-width: 2; stroke-linecap: square"/>
   </g>
   <g id="line2d_19">
    <path d="M 35.522733 28.063636 
L 39.728488 47.030579 
L 36.118422 65.997521 
L 41.801811 84.964463 
L 44.382818 103.931405 
L 55.759264 122.898347 
L 56.139933 141.865289 
L 70.666255 160.832231 
L 71.272509 179.799174 
L 92.827075 198.766116 
L 99.283746 217.733058 
L 118.156753 236.7 
L 143.345884 255.666942 
L 163.977313 274.633884 
L 183.985762 293.600826 
L 202.107978 312.567769 
L 224.01364 331.534711 
L 229.550804 350.501653 
L 252.228476 369.468595 
L 250.148796 388.435537 
L 248.054834 407.402479 
L 252.286903 426.369421 
L 234.833322 445.336364 
" clip-path="url(#p87d31de5ba)" style="fill: none; stroke: #756bb1; stroke-opacity: 0.2; stroke-width: 2; stroke-linecap: square"/>
   </g>
   <g id="line2d_20">
    <path d="M 35.706781 28.063636 
L 45.126075 47.030579 
L 48.885546 65.997521 
L 56.040879 84.964463 
L 55.022918 103.931405 
L 67.867707 122.898347 
L 65.642521 141.865289 
L 73.79173 160.832231 
L 94.623934 179.799174 
L 103.522953 198.766116 
L 124.128028 217.733058 
L 140.92035 236.7 
L 163.336558 255.666942 
L 179.538495 274.633884 
L 202.044816 293.600826 
L 216.720572 312.567769 
L 235.757166 331.534711 
L 253.299122 350.501653 
L 259.386268 369.468595 
L 256.905036 388.435537 
L 256.081294 407.402479 
L 246.16421 426.369421 
L 235.839696 445.336364 
" clip-path="url(#p87d31de5ba)" style="fill: none; stroke: #756bb1; stroke-opacity: 0.2; stroke-width: 2; stroke-linecap: square"/>
   </g>
   <g id="line2d_21">
    <path d="M 34.865264 28.063636 
L 37.639963 47.030579 
L 35.215816 65.997521 
L 42.900867 84.964463 
L 40.786192 103.931405 
L 47.795342 122.898347 
L 63.058169 141.865289 
L 63.093687 160.832231 
L 78.904633 179.799174 
L 82.891721 198.766116 
L 104.33686 217.733058 
L 120.905471 236.7 
L 134.99137 255.666942 
L 155.148698 274.633884 
L 184.094538 293.600826 
L 198.281597 312.567769 
L 217.339776 331.534711 
L 241.079362 350.501653 
L 242.074674 369.468595 
L 255.609191 388.435537 
L 244.730345 407.402479 
L 242.992681 426.369421 
L 228.598583 445.336364 
" clip-path="url(#p87d31de5ba)" style="fill: none; stroke: #756bb1; stroke-opacity: 0.2; stroke-width: 2; stroke-linecap: square"/>
   </g>
   <g id="line2d_22">
    <path d="M 31.377211 28.063636 
L 42.139079 47.030579 
L 40.862851 65.997521 
L 49.047669 84.964463 
L 46.766967 103.931405 
L 59.023273 122.898347 
L 61.813048 141.865289 
L 64.258424 160.832231 
L 77.071316 179.799174 
L 94.597753 198.766116 
L 103.548069 217.733058 
L 124.620142 236.7 
L 144.092497 255.666942 
L 157.293675 274.633884 
L 184.177698 293.600826 
L 198.893577 312.567769 
L 214.443138 331.534711 
L 231.332923 350.501653 
L 238.781604 369.468595 
L 243.354976 388.435537 
L 254.779837 407.402479 
L 244.541052 426.369421 
L 244.295083 445.336364 
" clip-path="url(#p87d31de5ba)" style="fill: none; stroke: #756bb1; stroke-opacity: 0.2; stroke-width: 2; stroke-linecap: square"/>
   </g>
   <g id="line2d_23">
    <path d="M 28.274392 28.063636 
L 26.830932 47.030579 
L 37.270327 65.997521 
L 46.960099 84.964463 
L 44.202683 103.931405 
L 55.193736 122.898347 
L 51.897061 141.865289 
L 71.564382 160.832231 
L 71.461006 179.799174 
L 90.841419 198.766116 
L 103.977369 217.733058 
L 109.576149 236.7 
L 135.106028 255.666942 
L 156.745818 274.633884 
L 172.427046 293.600826 
L 195.296918 312.567769 
L 216.075111 331.534711 
L 234.002572 350.501653 
L 235.68029 369.468595 
L 240.834642 388.435537 
L 243.874968 407.402479 
L 237.718573 426.369421 
L 229.162858 445.336364 
" clip-path="url(#p87d31de5ba)" style="fill: none; stroke: #756bb1; stroke-opacity: 0.2; stroke-width: 2; stroke-linecap: square"/>
   </g>
   <g id="line2d_24">
    <path d="M 43.592471 28.063636 
L 37.853335 47.030579 
L 44.173868 65.997521 
L 53.23845 84.964463 
L 60.150325 103.931405 
L 60.95946 122.898347 
L 60.092209 141.865289 
L 70.135198 160.832231 
L 82.021024 179.799174 
L 97.297089 198.766116 
L 114.956906 217.733058 
L 130.072595 236.7 
L 146.284457 255.666942 
L 161.603856 274.633884 
L 182.335587 293.600826 
L 208.31851 312.567769 
L 226.176364 331.534711 
L 233.959161 350.501653 
L 253.850238 369.468595 
L 256.12698 388.435537 
L 254.064739 407.402479 
L 254.432282 426.369421 
L 235.551444 445.336364 
" clip-path="url(#p87d31de5ba)" style="fill: none; stroke: #756bb1; stroke-opacity: 0.2; stroke-width: 2; stroke-linecap: square"/>
   </g>
   <g id="line2d_25">
    <path d="M 52.179344 28.063636 
L 53.444816 47.030579 
L 56.944053 65.997521 
L 56.302155 84.964463 
L 60.098026 103.931405 
L 58.090942 122.898347 
L 65.565441 141.865289 
L 84.249825 160.832231 
L 85.509647 179.799174 
L 106.265879 198.766116 
L 112.745198 217.733058 
L 130.48756 236.7 
L 143.427128 255.666942 
L 165.875273 274.633884 
L 190.404804 293.600826 
L 211.001923 312.567769 
L 221.261953 331.534711 
L 241.737645 350.501653 
L 243.769529 369.468595 
L 256.130944 388.435537 
L 261.994095 407.402479 
L 250.774153 426.369421 
L 245.311873 445.336364 
" clip-path="url(#p87d31de5ba)" style="fill: none; stroke: #756bb1; stroke-opacity: 0.2; stroke-width: 2; stroke-linecap: square"/>
   </g>
   <g id="line2d_26">
    <path d="M 30.026635 28.063636 
L 34.213248 47.030579 
L 42.418642 65.997521 
L 46.641164 84.964463 
L 43.652381 103.931405 
L 60.077992 122.898347 
L 61.330334 141.865289 
L 73.425084 160.832231 
L 80.863577 179.799174 
L 88.362711 198.766116 
L 104.106459 217.733058 
L 121.404026 236.7 
L 138.340145 255.666942 
L 155.51668 274.633884 
L 180.950439 293.600826 
L 200.657802 312.567769 
L 216.001961 331.534711 
L 238.810895 350.501653 
L 250.074913 369.468595 
L 247.235803 388.435537 
L 242.800885 407.402479 
L 244.675267 426.369421 
L 227.000116 445.336364 
" clip-path="url(#p87d31de5ba)" style="fill: none; stroke: #756bb1; stroke-opacity: 0.2; stroke-width: 2; stroke-linecap: square"/>
   </g>
   <g id="line2d_27">
    <path d="M 33.199011 28.063636 
L 35.076441 47.030579 
L 44.511081 65.997521 
L 48.308536 84.964463 
L 43.630215 103.931405 
L 50.781561 122.898347 
L 60.077192 141.865289 
L 65.422883 160.832231 
L 70.044224 179.799174 
L 82.16275 198.766116 
L 98.15539 217.733058 
L 117.838184 236.7 
L 132.227411 255.666942 
L 153.532658 274.633884 
L 172.9199 293.600826 
L 191.023187 312.567769 
L 213.560287 331.534711 
L 232.991618 350.501653 
L 242.591811 369.468595 
L 251.89169 388.435537 
L 254.934787 407.402479 
L 246.866706 426.369421 
L 236.704395 445.336364 
" clip-path="url(#p87d31de5ba)" style="fill: none; stroke: #756bb1; stroke-opacity: 0.2; stroke-width: 2; stroke-linecap: square"/>
   </g>
   <g id="line2d_28">
    <path d="M 41.011669 28.063636 
L 46.918477 47.030579 
L 51.747726 65.997521 
L 48.2375 84.964463 
L 56.35044 103.931405 
L 57.496517 122.898347 
L 62.594616 141.865289 
L 70.2911 160.832231 
L 82.05996 179.799174 
L 102.905484 198.766116 
L 117.725239 217.733058 
L 130.247998 236.7 
L 152.545948 255.666942 
L 169.578555 274.633884 
L 188.89367 293.600826 
L 214.353323 312.567769 
L 225.558123 331.534711 
L 249.259359 350.501653 
L 248.662386 369.468595 
L 251.883384 388.435537 
L 252.637075 407.402479 
L 238.651704 426.369421 
L 228.408551 445.336364 
" clip-path="url(#p87d31de5ba)" style="fill: none; stroke: #756bb1; stroke-opacity: 0.2; stroke-width: 2; stroke-linecap: square"/>
   </g>
   <g id="line2d_29">
    <path d="M 22.376555 28.063636 
L 30.797732 47.030579 
L 38.74779 65.997521 
L 38.872451 84.964463 
L 40.254326 103.931405 
L 47.262812 122.898347 
L 57.54695 141.865289 
L 67.927997 160.832231 
L 80.92804 179.799174 
L 85.632414 198.766116 
L 110.23463 217.733058 
L 127.390552 236.7 
L 137.056358 255.666942 
L 156.695495 274.633884 
L 187.847408 293.600826 
L 205.937409 312.567769 
L 216.551503 331.534711 
L 235.055866 350.501653 
L 244.3599 369.468595 
L 248.840917 388.435537 
L 246.597533 407.402479 
L 249.356139 426.369421 
L 240.70941 445.336364 
" clip-path="url(#p87d31de5ba)" style="fill: none; stroke: #756bb1; stroke-opacity: 0.2; stroke-width: 2; stroke-linecap: square"/>
   </g>
   <g id="line2d_30">
    <path d="M 27.393382 28.063636 
L 38.834445 47.030579 
L 40.099914 65.997521 
L 34.269803 84.964463 
L 46.944276 103.931405 
L 45.873275 122.898347 
L 54.520434 141.865289 
L 62.289908 160.832231 
L 81.35973 179.799174 
L 89.353904 198.766116 
L 108.172257 217.733058 
L 122.902918 236.7 
L 143.162884 255.666942 
L 161.245862 274.633884 
L 176.585783 293.600826 
L 198.665761 312.567769 
L 218.209957 331.534711 
L 230.512056 350.501653 
L 244.817197 369.468595 
L 249.955414 388.435537 
L 249.76492 407.402479 
L 252.35038 426.369421 
L 244.08948 445.336364 
" clip-path="url(#p87d31de5ba)" style="fill: none; stroke: #756bb1; stroke-opacity: 0.2; stroke-width: 2; stroke-linecap: square"/>
   </g>
   <g id="line2d_31">
    <path d="M 38.728393 28.063636 
L 46.830248 47.030579 
L 47.06669 65.997521 
L 49.772368 84.964463 
L 44.619596 103.931405 
L 61.285882 122.898347 
L 69.500213 141.865289 
L 78.19955 160.832231 
L 81.825885 179.799174 
L 94.156712 198.766116 
L 115.638256 217.733058 
L 129.994733 236.7 
L 153.348003 255.666942 
L 177.508881 274.633884 
L 188.05737 293.600826 
L 208.951213 312.567769 
L 229.669121 331.534711 
L 238.706906 350.501653 
L 255.859602 369.468595 
L 256.936511 388.435537 
L 256.068492 407.402479 
L 251.78719 426.369421 
L 242.323313 445.336364 
" clip-path="url(#p87d31de5ba)" style="fill: none; stroke: #756bb1; stroke-opacity: 0.2; stroke-width: 2; stroke-linecap: square"/>
   </g>
   <g id="line2d_32">
    <path d="M 30.284814 28.063636 
L 36.194953 47.030579 
L 45.618484 65.997521 
L 47.652858 84.964463 
L 48.350943 103.931405 
L 59.534061 122.898347 
L 58.427578 141.865289 
L 72.114984 160.832231 
L 85.603703 179.799174 
L 100.730919 198.766116 
L 112.643812 217.733058 
L 136.951554 236.7 
L 153.194505 255.666942 
L 169.147831 274.633884 
L 188.719348 293.600826 
L 211.415109 312.567769 
L 233.722619 331.534711 
L 239.520483 350.501653 
L 247.677359 369.468595 
L 260.927327 388.435537 
L 259.824788 407.402479 
L 251.428184 426.369421 
L 233.417997 445.336364 
" clip-path="url(#p87d31de5ba)" style="fill: none; stroke: #756bb1; stroke-opacity: 0.2; stroke-width: 2; stroke-linecap: square"/>
   </g>
   <g id="line2d_33">
    <path d="M 21.982281 28.063636 
L 24.738201 47.030579 
L 37.556238 65.997521 
L 33.686301 84.964463 
L 42.765765 103.931405 
L 49.224877 122.898347 
L 57.971339 141.865289 
L 65.401531 160.832231 
L 84.833692 179.799174 
L 85.136724 198.766116 
L 104.026733 217.733058 
L 123.595302 236.7 
L 147.298911 255.666942 
L 163.285732 274.633884 
L 184.177514 293.600826 
L 199.841413 312.567769 
L 222.557224 331.534711 
L 233.652905 350.501653 
L 249.773239 369.468595 
L 251.561574 388.435537 
L 254.490579 407.402479 
L 254.706555 426.369421 
L 240.645572 445.336364 
" clip-path="url(#p87d31de5ba)" style="fill: none; stroke: #756bb1; stroke-opacity: 0.2; stroke-width: 2; stroke-linecap: square"/>
   </g>
   <g id="line2d_34">
    <path d="M 27.976446 28.063636 
L 38.288462 47.030579 
L 40.132416 65.997521 
L 37.619968 84.964463 
L 40.296506 103.931405 
L 58.114212 122.898347 
L 54.578849 141.865289 
L 62.669627 160.832231 
L 82.068921 179.799174 
L 94.211241 198.766116 
L 100.85471 217.733058 
L 122.935962 236.7 
L 144.974749 255.666942 
L 165.902942 274.633884 
L 180.309243 293.600826 
L 204.856166 312.567769 
L 227.38658 331.534711 
L 232.775369 350.501653 
L 241.603246 369.468595 
L 250.715432 388.435537 
L 251.82761 407.402479 
L 247.038812 426.369421 
L 237.840053 445.336364 
" clip-path="url(#p87d31de5ba)" style="fill: none; stroke: #756bb1; stroke-opacity: 0.2; stroke-width: 2; stroke-linecap: square"/>
   </g>
   <g id="line2d_35">
    <path d="M 19.472727 28.063636 
L 26.985487 47.030579 
L 36.260838 65.997521 
L 38.966243 84.964463 
L 42.843513 103.931405 
L 48.465566 122.898347 
L 57.87231 141.865289 
L 60.899229 160.832231 
L 72.398263 179.799174 
L 83.008985 198.766116 
L 102.704156 217.733058 
L 122.943461 236.7 
L 135.967239 255.666942 
L 161.415766 274.633884 
L 180.835279 293.600826 
L 200.635765 312.567769 
L 213.270464 331.534711 
L 235.881098 350.501653 
L 245.200984 369.468595 
L 262.168482 388.435537 
L 256.210197 407.402479 
L 250.787474 426.369421 
L 241.959343 445.336364 
" clip-path="url(#p87d31de5ba)" style="fill: none; stroke: #756bb1; stroke-opacity: 0.2; stroke-width: 2; stroke-linecap: square"/>
   </g>
   <g id="line2d_36">
    <path d="M 35.146337 28.063636 
L 35.294648 47.030579 
L 35.92534 65.997521 
L 45.554895 84.964463 
L 45.961477 103.931405 
L 59.11436 122.898347 
L 56.550801 141.865289 
L 69.848031 160.832231 
L 84.526391 179.799174 
L 93.524948 198.766116 
L 106.756603 217.733058 
L 121.669177 236.7 
L 144.962267 255.666942 
L 158.917028 274.633884 
L 187.87979 293.600826 
L 198.964577 312.567769 
L 219.844872 331.534711 
L 239.262027 350.501653 
L 253.12673 369.468595 
L 257.897501 388.435537 
L 254.281944 407.402479 
L 247.728266 426.369421 
L 236.560317 445.336364 
" clip-path="url(#p87d31de5ba)" style="fill: none; stroke: #756bb1; stroke-opacity: 0.2; stroke-width: 2; stroke-linecap: square"/>
   </g>
   <g id="line2d_37">
    <path d="M 29.908068 28.063636 
L 40.671583 47.030579 
L 39.063554 65.997521 
L 45.915568 84.964463 
L 57.533851 103.931405 
L 51.880186 122.898347 
L 60.366243 141.865289 
L 68.918573 160.832231 
L 85.494949 179.799174 
L 94.45283 198.766116 
L 111.619321 217.733058 
L 128.580688 236.7 
L 136.905746 255.666942 
L 166.117479 274.633884 
L 182.821576 293.600826 
L 205.224662 312.567769 
L 220.339041 331.534711 
L 240.416405 350.501653 
L 260.395939 369.468595 
L 264.927273 388.435537 
L 262.131454 407.402479 
L 247.436872 426.369421 
L 240.731813 445.336364 
" clip-path="url(#p87d31de5ba)" style="fill: none; stroke: #756bb1; stroke-opacity: 0.2; stroke-width: 2; stroke-linecap: square"/>
   </g>
   <g id="line2d_38">
    <path d="M 35.625043 28.063636 
L 39.761283 47.030579 
L 38.428258 65.997521 
L 36.21439 84.964463 
L 41.588222 103.931405 
L 50.236211 122.898347 
L 54.515342 141.865289 
L 61.995217 160.832231 
L 74.917575 179.799174 
L 93.466163 198.766116 
L 108.85314 217.733058 
L 116.868525 236.7 
L 143.905599 255.666942 
L 157.36554 274.633884 
L 189.05028 293.600826 
L 202.713819 312.567769 
L 220.763996 331.534711 
L 232.221516 350.501653 
L 237.412888 369.468595 
L 250.439485 388.435537 
L 248.668672 407.402479 
L 242.80866 426.369421 
L 237.107398 445.336364 
" clip-path="url(#p87d31de5ba)" style="fill: none; stroke: #756bb1; stroke-opacity: 0.2; stroke-width: 2; stroke-linecap: square"/>
   </g>
   <g id="line2d_39">
    <path d="M 37.156704 28.063636 
L 44.540766 47.030579 
L 36.148847 65.997521 
L 41.937957 84.964463 
L 53.318364 103.931405 
L 47.217839 122.898347 
L 64.331307 141.865289 
L 69.389714 160.832231 
L 71.855303 179.799174 
L 85.781764 198.766116 
L 103.416318 217.733058 
L 121.660274 236.7 
L 146.18719 255.666942 
L 159.54176 274.633884 
L 180.819361 293.600826 
L 207.884424 312.567769 
L 218.248358 331.534711 
L 245.744029 350.501653 
L 251.113012 369.468595 
L 262.754242 388.435537 
L 254.899581 407.402479 
L 249.997564 426.369421 
L 249.545604 445.336364 
" clip-path="url(#p87d31de5ba)" style="fill: none; stroke: #756bb1; stroke-opacity: 0.2; stroke-width: 2; stroke-linecap: square"/>
   </g>
   <g id="line2d_40">
    <path d="M 34.225801 28.063636 
L 41.648399 47.030579 
L 42.052403 65.997521 
L 37.046643 84.964463 
L 44.280566 103.931405 
L 57.549899 122.898347 
L 58.995309 141.865289 
L 66.670792 160.832231 
L 72.796232 179.799174 
L 92.458088 198.766116 
L 104.747694 217.733058 
L 123.825629 236.7 
L 140.782451 255.666942 
L 163.968047 274.633884 
L 177.296979 293.600826 
L 204.532593 312.567769 
L 224.395715 331.534711 
L 244.203695 350.501653 
L 249.873578 369.468595 
L 250.421819 388.435537 
L 259.435352 407.402479 
L 254.862711 426.369421 
L 242.825064 445.336364 
" clip-path="url(#p87d31de5ba)" style="fill: none; stroke: #756bb1; stroke-opacity: 0.2; stroke-width: 2; stroke-linecap: square"/>
   </g>
   <g id="line2d_41">
    <path d="M 38.656347 28.063636 
L 43.642658 47.030579 
L 38.533891 65.997521 
L 40.511996 84.964463 
L 44.060358 103.931405 
L 55.133492 122.898347 
L 66.452435 141.865289 
L 64.607901 160.832231 
L 74.460419 179.799174 
L 89.949422 198.766116 
L 110.807021 217.733058 
L 128.767308 236.7 
L 152.358271 255.666942 
L 170.042024 274.633884 
L 190.934683 293.600826 
L 200.543584 312.567769 
L 217.929955 331.534711 
L 234.298302 350.501653 
L 249.157332 369.468595 
L 255.779904 388.435537 
L 240.66905 407.402479 
L 244.578172 426.369421 
L 225.878013 445.336364 
" clip-path="url(#p87d31de5ba)" style="fill: none; stroke: #756bb1; stroke-opacity: 0.2; stroke-width: 2; stroke-linecap: square"/>
   </g>
   <g id="line2d_42">
    <path d="M 34.679753 28.063636 
L 36.696811 47.030579 
L 39.986772 65.997521 
L 42.177728 84.964463 
L 51.12196 103.931405 
L 60.257206 122.898347 
L 61.100557 141.865289 
L 73.681114 160.832231 
L 86.695166 179.799174 
L 92.017728 198.766116 
L 115.544336 217.733058 
L 123.678714 236.7 
L 154.019204 255.666942 
L 170.914778 274.633884 
L 192.518269 293.600826 
L 209.868228 312.567769 
L 231.51013 331.534711 
L 237.373685 350.501653 
L 247.618671 369.468595 
L 263.163715 388.435537 
L 261.893555 407.402479 
L 250.374302 426.369421 
L 243.723046 445.336364 
" clip-path="url(#p87d31de5ba)" style="fill: none; stroke: #756bb1; stroke-opacity: 0.2; stroke-width: 2; stroke-linecap: square"/>
   </g>
   <g id="line2d_43"/>
   <g id="line2d_44">
    <path d="M 32.260245 28.063636 
L 34.756896 47.030579 
L 37.759388 65.997521 
L 41.876317 84.964463 
L 46.640024 103.931405 
L 52.218043 122.898347 
L 59.208236 141.865289 
L 67.618121 160.832231 
L 77.766975 179.799174 
L 89.7024 198.766116 
L 104.124858 217.733058 
L 120.539149 236.7 
L 139.34011 255.666942 
L 159.136315 274.633884 
L 180.292555 293.600826 
L 200.476464 312.567769 
L 219.33432 331.534711 
L 234.686584 350.501653 
L 245.592229 369.468595 
L 250.918081 388.435537 
L 250.919665 407.402479 
L 245.955102 426.369421 
L 237.411621 445.336364 
" clip-path="url(#p87d31de5ba)" style="fill: none; stroke: #39146b; stroke-width: 4; stroke-linecap: square"/>
   </g>
   <g id="line2d_45">
    <path d="M 33.282512 28.063636 
L 30.099329 47.030579 
L 31.956186 65.997521 
L 38.322552 84.964463 
L 46.280509 103.931405 
L 52.116344 122.898347 
L 61.135363 141.865289 
L 69.09332 160.832231 
L 77.051278 179.799174 
L 85.009235 198.766116 
L 95.619845 217.733058 
L 114.188413 236.7 
L 132.75698 255.666942 
L 153.9782 274.633884 
L 177.852073 293.600826 
L 201.725945 312.567769 
L 222.947165 331.534711 
L 233.557775 350.501653 
L 236.210427 369.468595 
L 244.168385 388.435537 
L 246.821037 407.402479 
L 241.515732 426.369421 
L 239.260978 445.336364 
" clip-path="url(#p87d31de5ba)" style="fill: none; stroke: #e40000; stroke-width: 4; stroke-linecap: square"/>
    <defs>
     <path id="m8c3487b815" d="M -5 5 
L 5 -5 
M -5 -5 
L 5 5 
" style="stroke: #e40000"/>
    </defs>
    <g clip-path="url(#p87d31de5ba)">
     <use xlink:href="#m8c3487b815" x="33.282512" y="28.063636" style="fill: #e40000; stroke: #e40000"/>
     <use xlink:href="#m8c3487b815" x="30.099329" y="47.030579" style="fill: #e40000; stroke: #e40000"/>
     <use xlink:href="#m8c3487b815" x="31.956186" y="65.997521" style="fill: #e40000; stroke: #e40000"/>
     <use xlink:href="#m8c3487b815" x="38.322552" y="84.964463" style="fill: #e40000; stroke: #e40000"/>
     <use xlink:href="#m8c3487b815" x="46.280509" y="103.931405" style="fill: #e40000; stroke: #e40000"/>
     <use xlink:href="#m8c3487b815" x="52.116344" y="122.898347" style="fill: #e40000; stroke: #e40000"/>
     <use xlink:href="#m8c3487b815" x="61.135363" y="141.865289" style="fill: #e40000; stroke: #e40000"/>
     <use xlink:href="#m8c3487b815" x="69.09332" y="160.832231" style="fill: #e40000; stroke: #e40000"/>
     <use xlink:href="#m8c3487b815" x="77.051278" y="179.799174" style="fill: #e40000; stroke: #e40000"/>
     <use xlink:href="#m8c3487b815" x="85.009235" y="198.766116" style="fill: #e40000; stroke: #e40000"/>
     <use xlink:href="#m8c3487b815" x="95.619845" y="217.733058" style="fill: #e40000; stroke: #e40000"/>
     <use xlink:href="#m8c3487b815" x="114.188413" y="236.7" style="fill: #e40000; stroke: #e40000"/>
     <use xlink:href="#m8c3487b815" x="132.75698" y="255.666942" style="fill: #e40000; stroke: #e40000"/>
     <use xlink:href="#m8c3487b815" x="153.9782" y="274.633884" style="fill: #e40000; stroke: #e40000"/>
     <use xlink:href="#m8c3487b815" x="177.852073" y="293.600826" style="fill: #e40000; stroke: #e40000"/>
     <use xlink:href="#m8c3487b815" x="201.725945" y="312.567769" style="fill: #e40000; stroke: #e40000"/>
     <use xlink:href="#m8c3487b815" x="222.947165" y="331.534711" style="fill: #e40000; stroke: #e40000"/>
     <use xlink:href="#m8c3487b815" x="233.557775" y="350.501653" style="fill: #e40000; stroke: #e40000"/>
     <use xlink:href="#m8c3487b815" x="236.210427" y="369.468595" style="fill: #e40000; stroke: #e40000"/>
     <use xlink:href="#m8c3487b815" x="244.168385" y="388.435537" style="fill: #e40000; stroke: #e40000"/>
     <use xlink:href="#m8c3487b815" x="246.821037" y="407.402479" style="fill: #e40000; stroke: #e40000"/>
     <use xlink:href="#m8c3487b815" x="241.515732" y="426.369421" style="fill: #e40000; stroke: #e40000"/>
     <use xlink:href="#m8c3487b815" x="239.260978" y="445.336364" style="fill: #e40000; stroke: #e40000"/>
    </g>
   </g>
   <g id="patch_3">
    <path d="M 7.2 476.2 
L 277.2 476.2 
" style="fill: none; stroke: #000000; stroke-width: 2; stroke-linejoin: miter; stroke-linecap: square"/>
   </g>
  </g>
 </g>
 <defs>
  <clipPath id="p87d31de5ba">
   <rect x="7.2" y="7.2" width="270" height="459"/>
  </clipPath>
 </defs>
</svg>
