<?xml version="1.0" encoding="utf-8" standalone="no"?>
<!DOCTYPE svg PUBLIC "-//W3C//DTD SVG 1.1//EN"
  "http://www.w3.org/Graphics/SVG/1.1/DTD/svg11.dtd">
<svg xmlns:xlink="http://www.w3.org/1999/xlink" width="361.20625pt" height="544.35625pt" viewBox="0 0 361.20625 544.35625" xmlns="http://www.w3.org/2000/svg" version="1.1">
 <metadata>
  <rdf:RDF xmlns:dc="http://purl.org/dc/elements/1.1/" xmlns:cc="http://creativecommons.org/ns#" xmlns:rdf="http://www.w3.org/1999/02/22-rdf-syntax-ns#">
   <cc:Work>
    <dc:type rdf:resource="http://purl.org/dc/dcmitype/StillImage"/>
    <dc:date>2024-07-31T20:00:47.937981</dc:date>
    <dc:format>image/svg+xml</dc:format>
    <dc:creator>
     <cc:Agent>
      <dc:title>Matplotlib v3.8.0, https://matplotlib.org/</dc:title>
     </cc:Agent>
    </dc:creator>
   </cc:Work>
  </rdf:RDF>
 </metadata>
 <defs>
  <style type="text/css">*{stroke-linejoin: round; stroke-linecap: butt}</style>
 </defs>
 <g id="figure_1">
  <g id="patch_1">
   <path d="M 0 544.35625 
L 361.20625 544.35625 
L 361.20625 0 
L 0 0 
z
" style="fill: #ffffff"/>
  </g>
  <g id="axes_1">
   <g id="patch_2">
    <path d="M 84.00625 466.2 
L 354.00625 466.2 
L 354.00625 7.2 
L 84.00625 7.2 
z
" style="fill: #ffffff"/>
   </g>
   <g id="PolyCollection_1">
    <defs>
     <path id="m5748e06bb4" d="M 97.304913 -516.292614 
L 100.025911 -516.292614 
L 100.025911 -515.371482 
L 100.030147 -514.45035 
L 100.021403 -513.529218 
L 100.021403 -512.608086 
L 100.021403 -511.686954 
L 100.021403 -510.765823 
L 100.025911 -509.844691 
L 100.030147 -508.923559 
L 100.030147 -508.002427 
L 100.030147 -507.081295 
L 100.05352 -506.160163 
L 100.05352 -505.239031 
L 100.05352 -504.3179 
L 100.054422 -503.396768 
L 100.076365 -502.475636 
L 100.102761 -501.554504 
L 100.102761 -500.633372 
L 100.107601 -499.71224 
L 100.107601 -498.791109 
L 100.147199 -497.869977 
L 100.147199 -496.948845 
L 100.157558 -496.027713 
L 100.184092 -495.106581 
L 100.247162 -494.185449 
L 100.257248 -493.264317 
L 100.257248 -492.343186 
L 100.291335 -491.422054 
L 100.323331 -490.500922 
L 100.348497 -489.57979 
L 100.615996 -488.658658 
L 100.615996 -487.737526 
L 100.907069 -486.816394 
L 101.642938 -485.895263 
L 103.652138 -484.974131 
L 109.034611 -484.052999 
L 112.789313 -483.131867 
L 116.146992 -482.210735 
L 118.194072 -481.289603 
L 126.814558 -480.368472 
L 132.752602 -479.44734 
L 146.267508 -478.526208 
L 146.267508 -477.605076 
L 153.979346 -476.683944 
L 159.690592 -475.762812 
L 165.143575 -474.84168 
L 173.784733 -473.920549 
L 174.291624 -472.999417 
L 179.951736 -472.078285 
L 185.598804 -471.157153 
L 189.596243 -470.236021 
L 200.991006 -469.314889 
L 200.991006 -468.393758 
L 206.141872 -467.472626 
L 211.169883 -466.551494 
L 217.195588 -465.630362 
L 228.732345 -464.70923 
L 229.114586 -463.788098 
L 234.162944 -462.866966 
L 235.032893 -461.945835 
L 238.95995 -461.024703 
L 240.098816 -460.103571 
L 240.098816 -459.182439 
L 243.468033 -458.261307 
L 245.127902 -457.340175 
L 245.160826 -456.419043 
L 245.300775 -455.497912 
L 245.300775 -454.57678 
L 246.000702 -453.655648 
L 248.046821 -452.734516 
L 249.227052 -451.813384 
L 249.6442 -450.892252 
L 249.6442 -449.971121 
L 250.365129 -449.049989 
L 250.827414 -448.128857 
L 252.459807 -447.207725 
L 252.459807 -446.286593 
L 253.580316 -445.365461 
L 258.960321 -444.444329 
L 255.021249 -443.523198 
L 260.770317 -442.602066 
L 261.082189 -441.680934 
L 261.082189 -440.759802 
L 263.877223 -439.83867 
L 265.269798 -438.917538 
L 265.122471 -437.996407 
L 265.543729 -437.075275 
L 265.543729 -436.154143 
L 269.187394 -435.233011 
L 269.187394 -434.311879 
L 269.580291 -433.390747 
L 269.859043 -432.469615 
L 275.016329 -431.548484 
L 276.2762 -430.627352 
L 277.77373 -429.70622 
L 277.970333 -428.785088 
L 280.468579 -427.863956 
L 284.07404 -426.942824 
L 284.07404 -426.021693 
L 284.656417 -425.100561 
L 285.218066 -424.179429 
L 286.712567 -423.258297 
L 287.345341 -422.337165 
L 288.734082 -421.416033 
L 288.997698 -420.494901 
L 288.997698 -419.57377 
L 296.317314 -418.652638 
L 299.950114 -417.731506 
L 300.098565 -416.810374 
L 300.510291 -415.889242 
L 301.508944 -414.96811 
L 302.214438 -414.046978 
L 302.630667 -413.125847 
L 303.334746 -412.204715 
L 303.334746 -411.283583 
L 304.750916 -410.362451 
L 305.635499 -409.441319 
L 308.414872 -408.520187 
L 307.594045 -407.599056 
L 307.594045 -406.677924 
L 307.594045 -405.756792 
L 305.635499 -404.83566 
L 307.594045 -403.914528 
L 307.594045 -402.993396 
L 308.414872 -402.072264 
L 308.771905 -401.151133 
L 312.00598 -400.230001 
L 312.00598 -399.308869 
L 311.242111 -398.387737 
L 312.186471 -397.466605 
L 313.204782 -396.545473 
L 312.186471 -395.624342 
L 312.186471 -394.70321 
L 312.00598 -393.782078 
L 311.242111 -392.860946 
L 309.31193 -391.939814 
L 311.242111 -391.018682 
L 312.00598 -390.09755 
L 312.186471 -389.176419 
L 313.433679 -388.255287 
L 313.910185 -387.334155 
L 315.58524 -386.413023 
L 313.990227 -385.491891 
L 313.990227 -384.570759 
L 313.910185 -383.649627 
L 315.008517 -382.728496 
L 315.008517 -381.807364 
L 313.990227 -380.886232 
L 313.990227 -379.9651 
L 313.990227 -379.043968 
L 313.990227 -378.122836 
L 315.008517 -377.201705 
L 315.008517 -376.280573 
L 315.008517 -375.359441 
L 315.58524 -374.438309 
L 315.915723 -373.517177 
L 315.915723 -372.596045 
L 315.915723 -371.674913 
L 316.491063 -370.753782 
L 316.491063 -369.83265 
L 315.58524 -368.911518 
L 315.58524 -367.990386 
L 313.990227 -367.069254 
L 315.008517 -366.148122 
L 315.915723 -365.226991 
L 315.58524 -364.305859 
L 315.58524 -363.384727 
L 315.58524 -362.463595 
L 313.990227 -361.542463 
L 313.910185 -360.621331 
L 313.990227 -359.700199 
L 313.910185 -358.779068 
L 315.58524 -357.857936 
L 315.008517 -356.936804 
L 313.433679 -356.015672 
L 311.161565 -355.09454 
L 311.161565 -354.173408 
L 311.312582 -353.252276 
L 311.257015 -352.331145 
L 311.257015 -351.410013 
L 310.470865 -350.488881 
L 310.470865 -349.567749 
L 310.470865 -348.646617 
L 308.816948 -347.725485 
L 307.897304 -346.804354 
L 308.816948 -345.883222 
L 308.816948 -344.96209 
L 308.816948 -344.040958 
L 307.897304 -343.119826 
L 306.439799 -342.198694 
L 306.427296 -341.277562 
L 303.817549 -340.356431 
L 301.212948 -339.435299 
L 301.185194 -338.514167 
L 301.517439 -337.593035 
L 301.517439 -336.671903 
L 302.122475 -335.750771 
L 301.517439 -334.82964 
L 301.185194 -333.908508 
L 302.122475 -332.987376 
L 302.122475 -332.066244 
L 302.122475 -331.145112 
L 302.122475 -330.22398 
L 302.122475 -329.302848 
L 303.606128 -328.381717 
L 301.517439 -327.460585 
L 301.185194 -326.539453 
L 301.185194 -325.618321 
L 300.224288 -324.697189 
L 299.851374 -323.776057 
L 299.851374 -322.854925 
L 299.851374 -321.933794 
L 299.411267 -321.012662 
L 299.411267 -320.09153 
L 297.322958 -319.170398 
L 289.041111 -318.249266 
L 292.593797 -317.328134 
L 287.809825 -316.407003 
L 287.443032 -315.485871 
L 286.006159 -314.564739 
L 286.006159 -313.643607 
L 286.006159 -312.722475 
L 283.619391 -311.801343 
L 284.804385 -310.880211 
L 282.82546 -309.95908 
L 282.82546 -309.037948 
L 281.720006 -308.116816 
L 281.682142 -307.195684 
L 281.05477 -306.274552 
L 279.153446 -305.35342 
L 276.568369 -304.432289 
L 276.423462 -303.511157 
L 274.23068 -302.590025 
L 275.23283 -301.668893 
L 274.23068 -300.747761 
L 275.23283 -299.826629 
L 273.679358 -298.905497 
L 274.23068 -297.984366 
L 277.597455 -297.063234 
L 277.244038 -296.142102 
L 276.458257 -295.22097 
L 275.23283 -294.299838 
L 275.23283 -293.378706 
L 268.648093 -292.457575 
L 268.222369 -291.536443 
L 268.222369 -290.615311 
L 268.222369 -289.694179 
L 268.222369 -288.773047 
L 264.517963 -287.851915 
L 262.609208 -286.930783 
L 262.609208 -286.009652 
L 262.234749 -285.08852 
L 262.234749 -284.167388 
L 262.234749 -283.246256 
L 260.319661 -282.325124 
L 260.319661 -281.403992 
L 259.37444 -280.48286 
L 256.531722 -279.561729 
L 256.343494 -278.640597 
L 254.944306 -277.719465 
L 254.844817 -276.798333 
L 254.12154 -275.877201 
L 254.051579 -274.956069 
L 254.051579 -274.034938 
L 254.051579 -273.113806 
L 253.8921 -272.192674 
L 251.567426 -271.271542 
L 251.031438 -270.35041 
L 250.188097 -269.429278 
L 250.188097 -268.508146 
L 250.188097 -267.587015 
L 250.188097 -266.665883 
L 247.182798 -265.744751 
L 247.182798 -264.823619 
L 246.618818 -263.902487 
L 246.405442 -262.981355 
L 245.900772 -262.060224 
L 245.900772 -261.139092 
L 245.014455 -260.21796 
L 245.014455 -259.296828 
L 243.036409 -258.375696 
L 243.036409 -257.454564 
L 242.793375 -256.533432 
L 239.478437 -255.612301 
L 239.005241 -254.691169 
L 234.765702 -253.770037 
L 233.816886 -252.848905 
L 233.816886 -251.927773 
L 233.816886 -251.006641 
L 233.816886 -250.085509 
L 231.045227 -249.164378 
L 231.045227 -248.243246 
L 231.045227 -247.322114 
L 230.692031 -246.400982 
L 230.692031 -245.47985 
L 230.692031 -244.558718 
L 230.692031 -243.637587 
L 230.692031 -242.716455 
L 230.363781 -241.795323 
L 230.363781 -240.874191 
L 229.750092 -239.953059 
L 229.190892 -239.031927 
L 228.586511 -238.110795 
L 228.4503 -237.189664 
L 228.291394 -236.268532 
L 227.914989 -235.3474 
L 227.874886 -234.426268 
L 226.549191 -233.505136 
L 226.549191 -232.584004 
L 226.356867 -231.662873 
L 226.356867 -230.741741 
L 224.021898 -229.820609 
L 222.751703 -228.899477 
L 222.104213 -227.978345 
L 222.104213 -227.057213 
L 221.120676 -226.136081 
L 220.969496 -225.21495 
L 219.66802 -224.293818 
L 219.402652 -223.372686 
L 219.402652 -222.451554 
L 217.832109 -221.530422 
L 217.275542 -220.60929 
L 217.275542 -219.688158 
L 215.274415 -218.767027 
L 214.322725 -217.845895 
L 210.268892 -216.924763 
L 210.268892 -216.003631 
L 210.042101 -215.082499 
L 208.437637 -214.161367 
L 208.252549 -213.240236 
L 207.980755 -212.319104 
L 204.627667 -211.397972 
L 204.627667 -210.47684 
L 203.832441 -209.555708 
L 202.107067 -208.634576 
L 201.650849 -207.713444 
L 199.696161 -206.792313 
L 199.274416 -205.871181 
L 197.14211 -204.950049 
L 194.988958 -204.028917 
L 190.517 -203.107785 
L 190.517 -202.186653 
L 190.086787 -201.265522 
L 187.574753 -200.34439 
L 186.174007 -199.423258 
L 182.177504 -198.502126 
L 182.043214 -197.580994 
L 178.90232 -196.659862 
L 178.90232 -195.73873 
L 178.90232 -194.817599 
L 174.384536 -193.896467 
L 173.090388 -192.975335 
L 172.366587 -192.054203 
L 171.876971 -191.133071 
L 171.876971 -190.211939 
L 170.051493 -189.290807 
L 165.14458 -188.369676 
L 164.842263 -187.448544 
L 160.146584 -186.527412 
L 160.146584 -185.60628 
L 158.734044 -184.685148 
L 158.734044 -183.764016 
L 156.326112 -182.842885 
L 155.67354 -181.921753 
L 155.095428 -181.000621 
L 152.433049 -180.079489 
L 149.624039 -179.158357 
L 149.418537 -178.237225 
L 148.6333 -177.316093 
L 148.6333 -176.394962 
L 148.381783 -175.47383 
L 148.153079 -174.552698 
L 148.153079 -173.631566 
L 148.003563 -172.710434 
L 147.996968 -171.789302 
L 147.974489 -170.868171 
L 147.969993 -169.947039 
L 147.969993 -169.025907 
L 147.747133 -168.104775 
L 147.693403 -167.183643 
L 147.693403 -166.262511 
L 147.693403 -165.341379 
L 147.563973 -164.420248 
L 147.351357 -163.499116 
L 147.160107 -162.577984 
L 147.137101 -161.656852 
L 147.08562 -160.73572 
L 147.08562 -159.814588 
L 147.066703 -158.893457 
L 147.066703 -157.972325 
L 147.066703 -157.051193 
L 147.066703 -156.130061 
L 147.066703 -155.208929 
L 147.025338 -154.287797 
L 147.025338 -153.366665 
L 146.700705 -152.445534 
L 146.575493 -151.524402 
L 146.575493 -150.60327 
L 146.642936 -149.682138 
L 146.349376 -148.761006 
L 146.33659 -147.839874 
L 146.330574 -146.918742 
L 146.226647 -145.997611 
L 146.226647 -145.076479 
L 146.226647 -144.155347 
L 146.226647 -143.234215 
L 146.226647 -142.313083 
L 146.330574 -141.391951 
L 146.33659 -140.47082 
L 146.330574 -139.549688 
L 146.226647 -138.628556 
L 146.226647 -137.707424 
L 146.330574 -136.786292 
L 146.330574 -135.86516 
L 146.330574 -134.944028 
L 146.330574 -134.022897 
L 146.226647 -133.101765 
L 146.226647 -132.180633 
L 146.226647 -131.259501 
L 146.202038 -130.338369 
L 146.202038 -129.417237 
L 146.202038 -128.496106 
L 146.202038 -127.574974 
L 146.202038 -126.653842 
L 146.202038 -125.73271 
L 146.202038 -124.811578 
L 146.202038 -123.890446 
L 146.202038 -122.969314 
L 146.202038 -122.048183 
L 146.202038 -121.127051 
L 146.202038 -120.205919 
L 146.202038 -119.284787 
L 146.202038 -118.363655 
L 146.202038 -117.442523 
L 146.202038 -116.521391 
L 146.202038 -115.60026 
L 146.202038 -114.679128 
L 146.16697 -113.757996 
L 146.16697 -112.836864 
L 146.093321 -111.915732 
L 146.093321 -110.9946 
L 146.093321 -110.073469 
L 146.093321 -109.152337 
L 146.093321 -108.231205 
L 146.093321 -107.310073 
L 146.093321 -106.388941 
L 146.093321 -105.467809 
L 146.093321 -104.546677 
L 146.093321 -103.625546 
L 146.093321 -102.704414 
L 146.093321 -101.783282 
L 146.093321 -100.86215 
L 146.093321 -99.941018 
L 146.093321 -99.019886 
L 122.758716 -99.019886 
L 122.758716 -99.019886 
L 122.758716 -99.941018 
L 122.758716 -100.86215 
L 122.758716 -101.783282 
L 122.758716 -102.704414 
L 122.758716 -103.625546 
L 122.758716 -104.546677 
L 122.758716 -105.467809 
L 122.758716 -106.388941 
L 122.758716 -107.310073 
L 122.758716 -108.231205 
L 122.758716 -109.152337 
L 122.758716 -110.073469 
L 122.758716 -110.9946 
L 122.758716 -111.915732 
L 122.853192 -112.836864 
L 122.853192 -113.757996 
L 122.853192 -114.679128 
L 122.853192 -115.60026 
L 122.853192 -116.521391 
L 122.853192 -117.442523 
L 122.853192 -118.363655 
L 122.853192 -119.284787 
L 122.853192 -120.205919 
L 122.853192 -121.127051 
L 122.853192 -122.048183 
L 122.853192 -122.969314 
L 122.853192 -123.890446 
L 122.853192 -124.811578 
L 122.853192 -125.73271 
L 122.853192 -126.653842 
L 122.853192 -127.574974 
L 122.853192 -128.496106 
L 122.853192 -129.417237 
L 122.853192 -130.338369 
L 122.916542 -131.259501 
L 122.916542 -132.180633 
L 122.916542 -133.101765 
L 122.916542 -134.022897 
L 122.916542 -134.944028 
L 122.916542 -135.86516 
L 122.916542 -136.786292 
L 122.853192 -137.707424 
L 122.853192 -138.628556 
L 122.853192 -139.549688 
L 122.853192 -140.47082 
L 122.853192 -141.391951 
L 122.853192 -142.313083 
L 122.853192 -143.234215 
L 122.853192 -144.155347 
L 122.853192 -145.076479 
L 122.853192 -145.997611 
L 122.853192 -146.918742 
L 122.916542 -147.839874 
L 122.916542 -148.761006 
L 122.966836 -149.682138 
L 122.916542 -150.60327 
L 122.916542 -151.524402 
L 122.916542 -152.445534 
L 122.916542 -153.366665 
L 122.853192 -154.287797 
L 122.916542 -155.208929 
L 122.916542 -156.130061 
L 122.916542 -157.051193 
L 122.916542 -157.972325 
L 122.916542 -158.893457 
L 122.966836 -159.814588 
L 122.966836 -160.73572 
L 123.00094 -161.656852 
L 123.079611 -162.577984 
L 123.40348 -163.499116 
L 123.435803 -164.420248 
L 123.435803 -165.341379 
L 123.435803 -166.262511 
L 123.40348 -167.183643 
L 123.435803 -168.104775 
L 123.435803 -169.025907 
L 123.435803 -169.947039 
L 123.435803 -170.868171 
L 123.456716 -171.789302 
L 123.456716 -172.710434 
L 123.456716 -173.631566 
L 123.456716 -174.552698 
L 123.456716 -175.47383 
L 123.456716 -176.394962 
L 123.456716 -177.316093 
L 123.72175 -178.237225 
L 123.72175 -179.158357 
L 123.72175 -180.079489 
L 123.72175 -181.000621 
L 123.72175 -181.921753 
L 123.72175 -182.842885 
L 123.794539 -183.764016 
L 123.794539 -184.685148 
L 123.72175 -185.60628 
L 123.72175 -186.527412 
L 123.794539 -187.448544 
L 123.794539 -188.369676 
L 124.401514 -189.290807 
L 124.612374 -190.211939 
L 124.612374 -191.133071 
L 124.67589 -192.054203 
L 124.67589 -192.975335 
L 124.67589 -193.896467 
L 124.67589 -194.817599 
L 124.67589 -195.73873 
L 124.67589 -196.659862 
L 124.879493 -197.580994 
L 124.741701 -198.502126 
L 125.002641 -199.423258 
L 125.469038 -200.34439 
L 125.584685 -201.265522 
L 125.664271 -202.186653 
L 125.664271 -203.107785 
L 125.676388 -204.028917 
L 125.676388 -204.950049 
L 125.817771 -205.871181 
L 125.817771 -206.792313 
L 125.817771 -207.713444 
L 125.871113 -208.634576 
L 126.322723 -209.555708 
L 126.476272 -210.47684 
L 126.476272 -211.397972 
L 126.745015 -212.319104 
L 126.745015 -213.240236 
L 126.794722 -214.161367 
L 126.794722 -215.082499 
L 126.887769 -216.003631 
L 126.887769 -216.924763 
L 126.955764 -217.845895 
L 127.280945 -218.767027 
L 127.303826 -219.688158 
L 127.303826 -220.60929 
L 127.280945 -221.530422 
L 127.419186 -222.451554 
L 127.303826 -223.372686 
L 127.419186 -224.293818 
L 127.427441 -225.21495 
L 127.427441 -226.136081 
L 127.435484 -227.057213 
L 127.473281 -227.978345 
L 127.478602 -228.899477 
L 127.715654 -229.820609 
L 127.89896 -230.741741 
L 127.89896 -231.662873 
L 128.246736 -232.584004 
L 127.89896 -233.505136 
L 128.246736 -234.426268 
L 128.246736 -235.3474 
L 128.448646 -236.268532 
L 128.582073 -237.189664 
L 128.639154 -238.110795 
L 128.639154 -239.031927 
L 128.809687 -239.953059 
L 128.854019 -240.874191 
L 128.854019 -241.795323 
L 128.854019 -242.716455 
L 128.854019 -243.637587 
L 128.809687 -244.558718 
L 128.809687 -245.47985 
L 128.809687 -246.400982 
L 128.865353 -247.322114 
L 128.865353 -248.243246 
L 128.865353 -249.164378 
L 128.943736 -250.085509 
L 128.943736 -251.006641 
L 128.943736 -251.927773 
L 128.943736 -252.848905 
L 129.060965 -253.770037 
L 129.122106 -254.691169 
L 129.071683 -255.612301 
L 129.382422 -256.533432 
L 129.655172 -257.454564 
L 129.655172 -258.375696 
L 129.761504 -259.296828 
L 129.761504 -260.21796 
L 129.765265 -261.139092 
L 129.765265 -262.060224 
L 129.765265 -262.981355 
L 129.792482 -263.902487 
L 129.911096 -264.823619 
L 129.792482 -265.744751 
L 130.079469 -266.665883 
L 130.079469 -267.587015 
L 130.079469 -268.508146 
L 130.217536 -269.429278 
L 130.293551 -270.35041 
L 130.373525 -271.271542 
L 130.510049 -272.192674 
L 130.792159 -273.113806 
L 130.792159 -274.034938 
L 130.792159 -274.956069 
L 130.792159 -275.877201 
L 130.854232 -276.798333 
L 130.908942 -277.719465 
L 131.128794 -278.640597 
L 131.128794 -279.561729 
L 131.299196 -280.48286 
L 131.299196 -281.403992 
L 131.299196 -282.325124 
L 131.40084 -283.246256 
L 131.555193 -284.167388 
L 131.555193 -285.08852 
L 131.56779 -286.009652 
L 131.628466 -286.930783 
L 131.718813 -287.851915 
L 131.814468 -288.773047 
L 131.718813 -289.694179 
L 131.718813 -290.615311 
L 131.814468 -291.536443 
L 131.868191 -292.457575 
L 132.241874 -293.378706 
L 132.241874 -294.299838 
L 132.292147 -295.22097 
L 132.34389 -296.142102 
L 132.380716 -297.063234 
L 132.380716 -297.984366 
L 132.509208 -298.905497 
L 132.751185 -299.826629 
L 132.751185 -300.747761 
L 132.928544 -301.668893 
L 132.928544 -302.590025 
L 133.09056 -303.511157 
L 133.09056 -304.432289 
L 133.13936 -305.35342 
L 133.16925 -306.274552 
L 133.343742 -307.195684 
L 133.356646 -308.116816 
L 133.563401 -309.037948 
L 133.563401 -309.95908 
L 133.576094 -310.880211 
L 133.58557 -311.801343 
L 133.687627 -312.722475 
L 133.726918 -313.643607 
L 133.980991 -314.564739 
L 133.980991 -315.485871 
L 134.059202 -316.407003 
L 134.619726 -317.328134 
L 134.720856 -318.249266 
L 134.744809 -319.170398 
L 134.799804 -320.09153 
L 134.799804 -321.012662 
L 134.895619 -321.933794 
L 134.895619 -322.854925 
L 135.195677 -323.776057 
L 135.371625 -324.697189 
L 135.629378 -325.618321 
L 135.629378 -326.539453 
L 135.866456 -327.460585 
L 135.928802 -328.381717 
L 136.175362 -329.302848 
L 136.363571 -330.22398 
L 136.445193 -331.145112 
L 136.445193 -332.066244 
L 136.846974 -332.987376 
L 136.957745 -333.908508 
L 137.06874 -334.82964 
L 137.198313 -335.750771 
L 137.260668 -336.671903 
L 137.260668 -337.593035 
L 137.297676 -338.514167 
L 137.297676 -339.435299 
L 137.350628 -340.356431 
L 137.470269 -341.277562 
L 137.815364 -342.198694 
L 138.074147 -343.119826 
L 138.110904 -344.040958 
L 138.129601 -344.96209 
L 138.365985 -345.883222 
L 138.401877 -346.804354 
L 138.443172 -347.725485 
L 138.448755 -348.646617 
L 138.63225 -349.567749 
L 138.639814 -350.488881 
L 138.889916 -351.410013 
L 138.889916 -352.331145 
L 139.018353 -353.252276 
L 139.307354 -354.173408 
L 139.353656 -355.09454 
L 139.473145 -356.015672 
L 139.560554 -356.936804 
L 139.560554 -357.857936 
L 139.666539 -358.779068 
L 139.959844 -359.700199 
L 140.130413 -360.621331 
L 140.281811 -361.542463 
L 140.771062 -362.463595 
L 140.771062 -363.384727 
L 140.897842 -364.305859 
L 141.221801 -365.226991 
L 141.221801 -366.148122 
L 141.471011 -367.069254 
L 141.639838 -367.990386 
L 141.748579 -368.911518 
L 141.959017 -369.83265 
L 142.206857 -370.753782 
L 142.507105 -371.674913 
L 142.566157 -372.596045 
L 142.80406 -373.517177 
L 143.128331 -374.438309 
L 143.218039 -375.359441 
L 143.605256 -376.280573 
L 143.839307 -377.201705 
L 143.839307 -378.122836 
L 144.397338 -379.043968 
L 144.815653 -379.9651 
L 145.354565 -380.886232 
L 145.596351 -381.807364 
L 145.833425 -382.728496 
L 145.85578 -383.649627 
L 146.035905 -384.570759 
L 146.245625 -385.491891 
L 147.037818 -386.413023 
L 147.037818 -387.334155 
L 147.037818 -388.255287 
L 146.96024 -389.176419 
L 146.926431 -390.09755 
L 146.926431 -391.018682 
L 146.96024 -391.939814 
L 147.962928 -392.860946 
L 147.962928 -393.782078 
L 147.824968 -394.70321 
L 147.962928 -395.624342 
L 148.133075 -396.545473 
L 147.824968 -397.466605 
L 147.654325 -398.387737 
L 147.654325 -399.308869 
L 146.926431 -400.230001 
L 146.926431 -401.151133 
L 146.33253 -402.072264 
L 146.247134 -402.993396 
L 146.059186 -403.914528 
L 146.059186 -404.83566 
L 146.247134 -405.756792 
L 146.247134 -406.677924 
L 146.247134 -407.599056 
L 146.470299 -408.520187 
L 146.96024 -409.441319 
L 147.488638 -410.362451 
L 147.488638 -411.283583 
L 146.96024 -412.204715 
L 146.921694 -413.125847 
L 146.921694 -414.046978 
L 146.466296 -414.96811 
L 145.834486 -415.889242 
L 145.834486 -416.810374 
L 145.330999 -417.731506 
L 145.290905 -418.652638 
L 145.061672 -419.57377 
L 144.99449 -420.494901 
L 144.935837 -421.416033 
L 144.553743 -422.337165 
L 144.526489 -423.258297 
L 143.736293 -424.179429 
L 143.221295 -425.100561 
L 143.221295 -426.021693 
L 143.195162 -426.942824 
L 143.169933 -427.863956 
L 142.712951 -428.785088 
L 142.516389 -429.70622 
L 142.391476 -430.627352 
L 142.391476 -431.548484 
L 142.060435 -432.469615 
L 141.632974 -433.390747 
L 141.632974 -434.311879 
L 141.289663 -435.233011 
L 140.998543 -436.154143 
L 140.998543 -437.075275 
L 139.454962 -437.996407 
L 139.454962 -438.917538 
L 139.353352 -439.83867 
L 138.151886 -440.759802 
L 137.872356 -441.680934 
L 137.872356 -442.602066 
L 136.15035 -443.523198 
L 136.15035 -444.444329 
L 135.38556 -445.365461 
L 135.368341 -446.286593 
L 135.368341 -447.207725 
L 134.708846 -448.128857 
L 134.277541 -449.049989 
L 133.359006 -449.971121 
L 133.292579 -450.892252 
L 133.247967 -451.813384 
L 133.045897 -452.734516 
L 131.143694 -453.655648 
L 130.088384 -454.57678 
L 129.97186 -455.497912 
L 129.97186 -456.419043 
L 129.473007 -457.340175 
L 127.766253 -458.261307 
L 122.686812 -459.182439 
L 121.948452 -460.103571 
L 119.267709 -461.024703 
L 116.048876 -461.945835 
L 111.256517 -462.866966 
L 100.320424 -463.788098 
L 100.28892 -464.70923 
L 99.274125 -465.630362 
L 99.023085 -466.551494 
L 98.778298 -467.472626 
L 98.603832 -468.393758 
L 98.603832 -469.314889 
L 98.402432 -470.236021 
L 98.297677 -471.157153 
L 98.188207 -472.078285 
L 98.088963 -472.999417 
L 98.076885 -473.920549 
L 97.934076 -474.84168 
L 97.887883 -475.762812 
L 97.846658 -476.683944 
L 97.816314 -477.605076 
L 97.816314 -478.526208 
L 97.741062 -479.44734 
L 97.707952 -480.368472 
L 97.646105 -481.289603 
L 97.613314 -482.210735 
L 97.596173 -483.131867 
L 97.584056 -484.052999 
L 97.537815 -484.974131 
L 97.537815 -485.895263 
L 97.531347 -486.816394 
L 97.531347 -487.737526 
L 97.531347 -488.658658 
L 97.52863 -489.57979 
L 97.52863 -490.500922 
L 97.52863 -491.422054 
L 97.52547 -492.343186 
L 97.52547 -493.264317 
L 97.52547 -494.185449 
L 97.449094 -495.106581 
L 97.423221 -496.027713 
L 97.423221 -496.948845 
L 97.423221 -497.869977 
L 97.380045 -498.791109 
L 97.38455 -499.71224 
L 97.371126 -500.633372 
L 97.371126 -501.554504 
L 97.368104 -502.475636 
L 97.344327 -503.396768 
L 97.329879 -504.3179 
L 97.329879 -505.239031 
L 97.344327 -506.160163 
L 97.304913 -507.081295 
L 97.304913 -508.002427 
L 97.304913 -508.923559 
L 97.304913 -509.844691 
L 97.28445 -510.765823 
L 97.28445 -511.686954 
L 97.28445 -512.608086 
L 97.28445 -513.529218 
L 97.31028 -514.45035 
L 97.304913 -515.371482 
L 97.304913 -516.292614 
z
" style="stroke: #fecc5c; stroke-opacity: 0.5"/>
    </defs>
    <g clip-path="url(#p33fc5e2ffa)">
     <use xlink:href="#m5748e06bb4" x="0" y="544.35625" style="fill: #fecc5c; fill-opacity: 0.5; stroke: #fecc5c; stroke-opacity: 0.5"/>
    </g>
   </g>
   <g id="matplotlib.axis_1">
    <g id="xtick_1">
     <g id="line2d_1">
      <defs>
       <path id="md1db46dcdf" d="M 0 0 
L 0 3.5 
" style="stroke: #000000; stroke-width: 1.5"/>
      </defs>
      <g>
       <use xlink:href="#md1db46dcdf" x="157.819939" y="476.2" style="stroke: #000000; stroke-width: 1.5"/>
      </g>
     </g>
     <g id="text_1">
      <!-- 250 -->
      <g transform="translate(138.732439 498.396875) scale(0.2 -0.2)">
       <defs>
        <path id="DejaVuSans-32" d="M 1228 531 
L 3431 531 
L 3431 0 
L 469 0 
L 469 531 
Q 828 903 1448 1529 
Q 2069 2156 2228 2338 
Q 2531 2678 2651 2914 
Q 2772 3150 2772 3378 
Q 2772 3750 2511 3984 
Q 2250 4219 1831 4219 
Q 1534 4219 1204 4116 
Q 875 4013 500 3803 
L 500 4441 
Q 881 4594 1212 4672 
Q 1544 4750 1819 4750 
Q 2544 4750 2975 4387 
Q 3406 4025 3406 3419 
Q 3406 3131 3298 2873 
Q 3191 2616 2906 2266 
Q 2828 2175 2409 1742 
Q 1991 1309 1228 531 
z
" transform="scale(0.015625)"/>
        <path id="DejaVuSans-35" d="M 691 4666 
L 3169 4666 
L 3169 4134 
L 1269 4134 
L 1269 2991 
Q 1406 3038 1543 3061 
Q 1681 3084 1819 3084 
Q 2600 3084 3056 2656 
Q 3513 2228 3513 1497 
Q 3513 744 3044 326 
Q 2575 -91 1722 -91 
Q 1428 -91 1123 -41 
Q 819 9 494 109 
L 494 744 
Q 775 591 1075 516 
Q 1375 441 1709 441 
Q 2250 441 2565 725 
Q 2881 1009 2881 1497 
Q 2881 1984 2565 2268 
Q 2250 2553 1709 2553 
Q 1456 2553 1204 2497 
Q 953 2441 691 2322 
L 691 4666 
z
" transform="scale(0.015625)"/>
        <path id="DejaVuSans-30" d="M 2034 4250 
Q 1547 4250 1301 3770 
Q 1056 3291 1056 2328 
Q 1056 1369 1301 889 
Q 1547 409 2034 409 
Q 2525 409 2770 889 
Q 3016 1369 3016 2328 
Q 3016 3291 2770 3770 
Q 2525 4250 2034 4250 
z
M 2034 4750 
Q 2819 4750 3233 4129 
Q 3647 3509 3647 2328 
Q 3647 1150 3233 529 
Q 2819 -91 2034 -91 
Q 1250 -91 836 529 
Q 422 1150 422 2328 
Q 422 3509 836 4129 
Q 1250 4750 2034 4750 
z
" transform="scale(0.015625)"/>
       </defs>
       <use xlink:href="#DejaVuSans-32"/>
       <use xlink:href="#DejaVuSans-35" x="63.623047"/>
       <use xlink:href="#DejaVuSans-30" x="127.246094"/>
      </g>
     </g>
    </g>
    <g id="xtick_2">
     <g id="line2d_2">
      <g>
       <use xlink:href="#md1db46dcdf" x="239.393039" y="476.2" style="stroke: #000000; stroke-width: 1.5"/>
      </g>
     </g>
     <g id="text_2">
      <!-- 500 -->
      <g transform="translate(220.305539 498.396875) scale(0.2 -0.2)">
       <use xlink:href="#DejaVuSans-35"/>
       <use xlink:href="#DejaVuSans-30" x="63.623047"/>
       <use xlink:href="#DejaVuSans-30" x="127.246094"/>
      </g>
     </g>
    </g>
    <g id="xtick_3">
     <g id="line2d_3">
      <g>
       <use xlink:href="#md1db46dcdf" x="320.966139" y="476.2" style="stroke: #000000; stroke-width: 1.5"/>
      </g>
     </g>
     <g id="text_3">
      <!-- 750 -->
      <g transform="translate(301.878639 498.396875) scale(0.2 -0.2)">
       <defs>
        <path id="DejaVuSans-37" d="M 525 4666 
L 3525 4666 
L 3525 4397 
L 1831 0 
L 1172 0 
L 2766 4134 
L 525 4134 
L 525 4666 
z
" transform="scale(0.015625)"/>
       </defs>
       <use xlink:href="#DejaVuSans-37"/>
       <use xlink:href="#DejaVuSans-35" x="63.623047"/>
       <use xlink:href="#DejaVuSans-30" x="127.246094"/>
      </g>
     </g>
    </g>
    <g id="text_4">
     <!-- Resistivity  [$\Omega m$] -->
     <g transform="translate(124.70625 532.75625) scale(0.2 -0.2)">
      <defs>
       <path id="DejaVuSans-Bold-52" d="M 2297 2597 
Q 2675 2597 2839 2737 
Q 3003 2878 3003 3200 
Q 3003 3519 2839 3656 
Q 2675 3794 2297 3794 
L 1791 3794 
L 1791 2597 
L 2297 2597 
z
M 1791 1766 
L 1791 0 
L 588 0 
L 588 4666 
L 2425 4666 
Q 3347 4666 3776 4356 
Q 4206 4047 4206 3378 
Q 4206 2916 3982 2619 
Q 3759 2322 3309 2181 
Q 3556 2125 3751 1926 
Q 3947 1728 4147 1325 
L 4800 0 
L 3519 0 
L 2950 1159 
Q 2778 1509 2601 1637 
Q 2425 1766 2131 1766 
L 1791 1766 
z
" transform="scale(0.015625)"/>
       <path id="DejaVuSans-Bold-65" d="M 4031 1759 
L 4031 1441 
L 1416 1441 
Q 1456 1047 1700 850 
Q 1944 653 2381 653 
Q 2734 653 3104 758 
Q 3475 863 3866 1075 
L 3866 213 
Q 3469 63 3072 -14 
Q 2675 -91 2278 -91 
Q 1328 -91 801 392 
Q 275 875 275 1747 
Q 275 2603 792 3093 
Q 1309 3584 2216 3584 
Q 3041 3584 3536 3087 
Q 4031 2591 4031 1759 
z
M 2881 2131 
Q 2881 2450 2695 2645 
Q 2509 2841 2209 2841 
Q 1884 2841 1681 2658 
Q 1478 2475 1428 2131 
L 2881 2131 
z
" transform="scale(0.015625)"/>
       <path id="DejaVuSans-Bold-73" d="M 3272 3391 
L 3272 2541 
Q 2913 2691 2578 2766 
Q 2244 2841 1947 2841 
Q 1628 2841 1473 2761 
Q 1319 2681 1319 2516 
Q 1319 2381 1436 2309 
Q 1553 2238 1856 2203 
L 2053 2175 
Q 2913 2066 3209 1816 
Q 3506 1566 3506 1031 
Q 3506 472 3093 190 
Q 2681 -91 1863 -91 
Q 1516 -91 1145 -36 
Q 775 19 384 128 
L 384 978 
Q 719 816 1070 734 
Q 1422 653 1784 653 
Q 2113 653 2278 743 
Q 2444 834 2444 1013 
Q 2444 1163 2330 1236 
Q 2216 1309 1875 1350 
L 1678 1375 
Q 931 1469 631 1722 
Q 331 1975 331 2491 
Q 331 3047 712 3315 
Q 1094 3584 1881 3584 
Q 2191 3584 2531 3537 
Q 2872 3491 3272 3391 
z
" transform="scale(0.015625)"/>
       <path id="DejaVuSans-Bold-69" d="M 538 3500 
L 1656 3500 
L 1656 0 
L 538 0 
L 538 3500 
z
M 538 4863 
L 1656 4863 
L 1656 3950 
L 538 3950 
L 538 4863 
z
" transform="scale(0.015625)"/>
       <path id="DejaVuSans-Bold-74" d="M 1759 4494 
L 1759 3500 
L 2913 3500 
L 2913 2700 
L 1759 2700 
L 1759 1216 
Q 1759 972 1856 886 
Q 1953 800 2241 800 
L 2816 800 
L 2816 0 
L 1856 0 
Q 1194 0 917 276 
Q 641 553 641 1216 
L 641 2700 
L 84 2700 
L 84 3500 
L 641 3500 
L 641 4494 
L 1759 4494 
z
" transform="scale(0.015625)"/>
       <path id="DejaVuSans-Bold-76" d="M 97 3500 
L 1216 3500 
L 2088 1081 
L 2956 3500 
L 4078 3500 
L 2700 0 
L 1472 0 
L 97 3500 
z
" transform="scale(0.015625)"/>
       <path id="DejaVuSans-Bold-79" d="M 78 3500 
L 1197 3500 
L 2138 1125 
L 2938 3500 
L 4056 3500 
L 2584 -331 
Q 2363 -916 2067 -1148 
Q 1772 -1381 1288 -1381 
L 641 -1381 
L 641 -647 
L 991 -647 
Q 1275 -647 1404 -556 
Q 1534 -466 1606 -231 
L 1638 -134 
L 78 3500 
z
" transform="scale(0.015625)"/>
       <path id="DejaVuSans-Bold-20" transform="scale(0.015625)"/>
       <path id="DejaVuSans-Bold-5b" d="M 550 4863 
L 2491 4863 
L 2491 4159 
L 1613 4159 
L 1613 -141 
L 2491 -141 
L 2491 -844 
L 550 -844 
L 550 4863 
z
" transform="scale(0.015625)"/>
       <path id="DejaVuSans-Bold-3a9" d="M 2719 4750 
Q 3841 4750 4480 4106 
Q 5119 3463 5119 2494 
Q 5119 1406 4306 909 
L 5266 909 
L 5266 0 
L 3125 0 
L 3125 975 
Q 3244 1041 3334 1131 
Q 3875 1678 3875 2466 
Q 3875 3066 3572 3472 
Q 3269 3878 2719 3878 
Q 2169 3878 1866 3472 
Q 1563 3066 1563 2466 
Q 1563 1678 2103 1131 
Q 2194 1041 2313 975 
L 2313 0 
L 172 0 
L 172 909 
L 1131 909 
Q 319 1406 319 2494 
Q 319 3463 958 4106 
Q 1597 4750 2719 4750 
z
" transform="scale(0.015625)"/>
       <path id="DejaVuSans-Bold-6d" d="M 3781 2919 
Q 3994 3244 4286 3414 
Q 4578 3584 4928 3584 
Q 5531 3584 5847 3212 
Q 6163 2841 6163 2131 
L 6163 0 
L 5038 0 
L 5038 1825 
Q 5041 1866 5042 1909 
Q 5044 1953 5044 2034 
Q 5044 2406 4934 2573 
Q 4825 2741 4581 2741 
Q 4263 2741 4089 2478 
Q 3916 2216 3909 1719 
L 3909 0 
L 2784 0 
L 2784 1825 
Q 2784 2406 2684 2573 
Q 2584 2741 2328 2741 
Q 2006 2741 1831 2477 
Q 1656 2213 1656 1722 
L 1656 0 
L 531 0 
L 531 3500 
L 1656 3500 
L 1656 2988 
Q 1863 3284 2130 3434 
Q 2397 3584 2719 3584 
Q 3081 3584 3359 3409 
Q 3638 3234 3781 2919 
z
" transform="scale(0.015625)"/>
       <path id="DejaVuSans-Bold-5d" d="M 2375 -844 
L 434 -844 
L 434 -141 
L 1313 -141 
L 1313 4159 
L 434 4159 
L 434 4863 
L 2375 4863 
L 2375 -844 
z
" transform="scale(0.015625)"/>
      </defs>
      <use xlink:href="#DejaVuSans-Bold-52" transform="translate(0 0.015625)"/>
      <use xlink:href="#DejaVuSans-Bold-65" transform="translate(77.001953 0.015625)"/>
      <use xlink:href="#DejaVuSans-Bold-73" transform="translate(144.824219 0.015625)"/>
      <use xlink:href="#DejaVuSans-Bold-69" transform="translate(204.345703 0.015625)"/>
      <use xlink:href="#DejaVuSans-Bold-73" transform="translate(238.623047 0.015625)"/>
      <use xlink:href="#DejaVuSans-Bold-74" transform="translate(298.144531 0.015625)"/>
      <use xlink:href="#DejaVuSans-Bold-69" transform="translate(345.947266 0.015625)"/>
      <use xlink:href="#DejaVuSans-Bold-76" transform="translate(380.224609 0.015625)"/>
      <use xlink:href="#DejaVuSans-Bold-69" transform="translate(445.410156 0.015625)"/>
      <use xlink:href="#DejaVuSans-Bold-74" transform="translate(479.6875 0.015625)"/>
      <use xlink:href="#DejaVuSans-Bold-79" transform="translate(527.490234 0.015625)"/>
      <use xlink:href="#DejaVuSans-Bold-20" transform="translate(592.675781 0.015625)"/>
      <use xlink:href="#DejaVuSans-Bold-20" transform="translate(627.490234 0.015625)"/>
      <use xlink:href="#DejaVuSans-Bold-5b" transform="translate(662.304688 0.015625)"/>
      <use xlink:href="#DejaVuSans-Bold-3a9" transform="translate(708.007812 0.015625)"/>
      <use xlink:href="#DejaVuSans-Bold-6d" transform="translate(793.017578 0.015625)"/>
      <use xlink:href="#DejaVuSans-Bold-5d" transform="translate(897.216797 0.015625)"/>
     </g>
    </g>
   </g>
   <g id="matplotlib.axis_2">
    <g id="ytick_1">
     <g id="line2d_4">
      <defs>
       <path id="m90f4dba682" d="M 0 0 
L -3.5 0 
" style="stroke: #000000; stroke-width: 1.5"/>
      </defs>
      <g>
       <use xlink:href="#m90f4dba682" x="74.00625" y="28.063636" style="stroke: #000000; stroke-width: 1.5"/>
      </g>
     </g>
     <g id="text_5">
      <!-- 0 -->
      <g transform="translate(54.28125 35.662074) scale(0.2 -0.2)">
       <use xlink:href="#DejaVuSans-30"/>
      </g>
     </g>
    </g>
    <g id="ytick_2">
     <g id="line2d_5">
      <g>
       <use xlink:href="#m90f4dba682" x="74.00625" y="120.176821" style="stroke: #000000; stroke-width: 1.5"/>
      </g>
     </g>
     <g id="text_6">
      <!-- 10 -->
      <g transform="translate(41.55625 127.775259) scale(0.2 -0.2)">
       <defs>
        <path id="DejaVuSans-31" d="M 794 531 
L 1825 531 
L 1825 4091 
L 703 3866 
L 703 4441 
L 1819 4666 
L 2450 4666 
L 2450 531 
L 3481 531 
L 3481 0 
L 794 0 
L 794 531 
z
" transform="scale(0.015625)"/>
       </defs>
       <use xlink:href="#DejaVuSans-31"/>
       <use xlink:href="#DejaVuSans-30" x="63.623047"/>
      </g>
     </g>
    </g>
    <g id="ytick_3">
     <g id="line2d_6">
      <g>
       <use xlink:href="#m90f4dba682" x="74.00625" y="212.290006" style="stroke: #000000; stroke-width: 1.5"/>
      </g>
     </g>
     <g id="text_7">
      <!-- 20 -->
      <g transform="translate(41.55625 219.888444) scale(0.2 -0.2)">
       <use xlink:href="#DejaVuSans-32"/>
       <use xlink:href="#DejaVuSans-30" x="63.623047"/>
      </g>
     </g>
    </g>
    <g id="ytick_4">
     <g id="line2d_7">
      <g>
       <use xlink:href="#m90f4dba682" x="74.00625" y="304.403191" style="stroke: #000000; stroke-width: 1.5"/>
      </g>
     </g>
     <g id="text_8">
      <!-- 30 -->
      <g transform="translate(41.55625 312.001628) scale(0.2 -0.2)">
       <defs>
        <path id="DejaVuSans-33" d="M 2597 2516 
Q 3050 2419 3304 2112 
Q 3559 1806 3559 1356 
Q 3559 666 3084 287 
Q 2609 -91 1734 -91 
Q 1441 -91 1130 -33 
Q 819 25 488 141 
L 488 750 
Q 750 597 1062 519 
Q 1375 441 1716 441 
Q 2309 441 2620 675 
Q 2931 909 2931 1356 
Q 2931 1769 2642 2001 
Q 2353 2234 1838 2234 
L 1294 2234 
L 1294 2753 
L 1863 2753 
Q 2328 2753 2575 2939 
Q 2822 3125 2822 3475 
Q 2822 3834 2567 4026 
Q 2313 4219 1838 4219 
Q 1578 4219 1281 4162 
Q 984 4106 628 3988 
L 628 4550 
Q 988 4650 1302 4700 
Q 1616 4750 1894 4750 
Q 2613 4750 3031 4423 
Q 3450 4097 3450 3541 
Q 3450 3153 3228 2886 
Q 3006 2619 2597 2516 
z
" transform="scale(0.015625)"/>
       </defs>
       <use xlink:href="#DejaVuSans-33"/>
       <use xlink:href="#DejaVuSans-30" x="63.623047"/>
      </g>
     </g>
    </g>
    <g id="ytick_5">
     <g id="line2d_8">
      <g>
       <use xlink:href="#m90f4dba682" x="74.00625" y="396.516376" style="stroke: #000000; stroke-width: 1.5"/>
      </g>
     </g>
     <g id="text_9">
      <!-- 40 -->
      <g transform="translate(41.55625 404.114813) scale(0.2 -0.2)">
       <defs>
        <path id="DejaVuSans-34" d="M 2419 4116 
L 825 1625 
L 2419 1625 
L 2419 4116 
z
M 2253 4666 
L 3047 4666 
L 3047 1625 
L 3713 1625 
L 3713 1100 
L 3047 1100 
L 3047 0 
L 2419 0 
L 2419 1100 
L 313 1100 
L 313 1709 
L 2253 4666 
z
" transform="scale(0.015625)"/>
       </defs>
       <use xlink:href="#DejaVuSans-34"/>
       <use xlink:href="#DejaVuSans-30" x="63.623047"/>
      </g>
     </g>
    </g>
    <g id="text_10">
     <!-- Depth [m] -->
     <g transform="translate(22.396875 293.882812) rotate(-90) scale(0.2 -0.2)">
      <defs>
       <path id="DejaVuSans-Bold-44" d="M 1791 3756 
L 1791 909 
L 2222 909 
Q 2959 909 3348 1275 
Q 3738 1641 3738 2338 
Q 3738 3031 3350 3393 
Q 2963 3756 2222 3756 
L 1791 3756 
z
M 588 4666 
L 1856 4666 
Q 2919 4666 3439 4514 
Q 3959 4363 4331 4000 
Q 4659 3684 4818 3271 
Q 4978 2859 4978 2338 
Q 4978 1809 4818 1395 
Q 4659 981 4331 666 
Q 3956 303 3431 151 
Q 2906 0 1856 0 
L 588 0 
L 588 4666 
z
" transform="scale(0.015625)"/>
       <path id="DejaVuSans-Bold-70" d="M 1656 506 
L 1656 -1331 
L 538 -1331 
L 538 3500 
L 1656 3500 
L 1656 2988 
Q 1888 3294 2169 3439 
Q 2450 3584 2816 3584 
Q 3463 3584 3878 3070 
Q 4294 2556 4294 1747 
Q 4294 938 3878 423 
Q 3463 -91 2816 -91 
Q 2450 -91 2169 54 
Q 1888 200 1656 506 
z
M 2400 2772 
Q 2041 2772 1848 2508 
Q 1656 2244 1656 1747 
Q 1656 1250 1848 986 
Q 2041 722 2400 722 
Q 2759 722 2948 984 
Q 3138 1247 3138 1747 
Q 3138 2247 2948 2509 
Q 2759 2772 2400 2772 
z
" transform="scale(0.015625)"/>
       <path id="DejaVuSans-Bold-68" d="M 4056 2131 
L 4056 0 
L 2931 0 
L 2931 347 
L 2931 1625 
Q 2931 2084 2911 2256 
Q 2891 2428 2841 2509 
Q 2775 2619 2662 2680 
Q 2550 2741 2406 2741 
Q 2056 2741 1856 2470 
Q 1656 2200 1656 1722 
L 1656 0 
L 538 0 
L 538 4863 
L 1656 4863 
L 1656 2988 
Q 1909 3294 2193 3439 
Q 2478 3584 2822 3584 
Q 3428 3584 3742 3212 
Q 4056 2841 4056 2131 
z
" transform="scale(0.015625)"/>
      </defs>
      <use xlink:href="#DejaVuSans-Bold-44"/>
      <use xlink:href="#DejaVuSans-Bold-65" x="83.007812"/>
      <use xlink:href="#DejaVuSans-Bold-70" x="150.830078"/>
      <use xlink:href="#DejaVuSans-Bold-74" x="222.412109"/>
      <use xlink:href="#DejaVuSans-Bold-68" x="270.214844"/>
      <use xlink:href="#DejaVuSans-Bold-20" x="341.40625"/>
      <use xlink:href="#DejaVuSans-Bold-5b" x="376.220703"/>
      <use xlink:href="#DejaVuSans-Bold-6d" x="421.923828"/>
      <use xlink:href="#DejaVuSans-Bold-5d" x="526.123047"/>
     </g>
    </g>
   </g>
   <g id="line2d_9">
    <path d="M 97.889025 28.063636 
L 97.889025 75.041361 
L 169.258346 75.041361 
L 169.258346 130.309272 
L 325.039237 130.309272 
L 325.039237 175.444732 
L 139.563437 175.444732 
L 139.563437 445.336364 
L 139.563437 445.336364 
" clip-path="url(#p33fc5e2ffa)" style="fill: none; stroke: #fecc5c; stroke-opacity: 0.3; stroke-width: 2; stroke-linecap: square"/>
   </g>
   <g id="line2d_10">
    <path d="M 99.038664 28.063636 
L 99.038664 73.199097 
L 131.832817 73.199097 
L 131.832817 91.621734 
L 269.182216 91.621734 
L 269.182216 168.075677 
L 139.47455 168.075677 
L 139.47455 445.336364 
L 139.47455 445.336364 
" clip-path="url(#p33fc5e2ffa)" style="fill: none; stroke: #fecc5c; stroke-opacity: 0.3; stroke-width: 2; stroke-linecap: square"/>
   </g>
   <g id="line2d_11">
    <path d="M 98.569387 28.063636 
L 98.569387 73.199097 
L 176.240155 73.199097 
L 176.240155 184.656051 
L 204.577237 184.656051 
L 204.577237 260.188862 
L 139.716247 260.188862 
L 139.716247 445.336364 
L 139.716247 445.336364 
" clip-path="url(#p33fc5e2ffa)" style="fill: none; stroke: #fecc5c; stroke-opacity: 0.3; stroke-width: 2; stroke-linecap: square"/>
   </g>
   <g id="line2d_12">
    <path d="M 99.021569 28.063636 
L 99.021569 72.277965 
L 178.50336 72.277965 
L 178.50336 204.920951 
L 229.642046 204.920951 
L 229.642046 264.794521 
L 136.47173 264.794521 
L 136.47173 445.336364 
L 136.47173 445.336364 
" clip-path="url(#p33fc5e2ffa)" style="fill: none; stroke: #fecc5c; stroke-opacity: 0.3; stroke-width: 2; stroke-linecap: square"/>
   </g>
   <g id="line2d_13">
    <path d="M 96.278977 28.063636 
L 96.278977 44.64401 
L 111.278007 44.64401 
L 111.278007 96.227393 
L 341.733523 96.227393 
L 341.733523 155.179831 
L 140.968572 155.179831 
L 140.968572 445.336364 
L 140.968572 445.336364 
" clip-path="url(#p33fc5e2ffa)" style="fill: none; stroke: #fecc5c; stroke-opacity: 0.3; stroke-width: 2; stroke-linecap: square"/>
   </g>
   <g id="line2d_14">
    <path d="M 99.497214 28.063636 
L 99.497214 83.331547 
L 223.887817 83.331547 
L 223.887817 196.630765 
L 168.466991 196.630765 
L 168.466991 282.296026 
L 135.990606 282.296026 
L 135.990606 445.336364 
L 135.990606 445.336364 
" clip-path="url(#p33fc5e2ffa)" style="fill: none; stroke: #fecc5c; stroke-opacity: 0.3; stroke-width: 2; stroke-linecap: square"/>
   </g>
   <g id="line2d_15">
    <path d="M 99.375116 28.063636 
L 99.375116 70.435701 
L 173.771881 70.435701 
L 173.771881 174.5236 
L 206.053609 174.5236 
L 206.053609 322.825828 
L 128.724063 322.825828 
L 128.724063 445.336364 
L 128.724063 445.336364 
" clip-path="url(#p33fc5e2ffa)" style="fill: none; stroke: #fecc5c; stroke-opacity: 0.3; stroke-width: 2; stroke-linecap: square"/>
   </g>
   <g id="line2d_16">
    <path d="M 98.812954 28.063636 
L 98.812954 74.120229 
L 121.95009 74.120229 
L 121.95009 97.148525 
L 277.852624 97.148525 
L 277.852624 153.337568 
L 143.591492 153.337568 
L 143.591492 445.336364 
L 143.591492 445.336364 
" clip-path="url(#p33fc5e2ffa)" style="fill: none; stroke: #fecc5c; stroke-opacity: 0.3; stroke-width: 2; stroke-linecap: square"/>
   </g>
   <g id="line2d_17">
    <path d="M 99.758931 28.063636 
L 99.758931 78.725888 
L 198.726837 78.725888 
L 198.726837 237.160566 
L 211.777746 237.160566 
L 211.777746 255.583203 
L 134.764893 255.583203 
L 134.764893 445.336364 
L 134.764893 445.336364 
" clip-path="url(#p33fc5e2ffa)" style="fill: none; stroke: #fecc5c; stroke-opacity: 0.3; stroke-width: 2; stroke-linecap: square"/>
   </g>
   <g id="line2d_18">
    <path d="M 99.117817 28.063636 
L 99.117817 75.041361 
L 199.420637 75.041361 
L 199.420637 235.318302 
L 142.320134 235.318302 
L 142.320134 390.989585 
L 138.184929 390.989585 
L 138.184929 445.336364 
L 138.184929 445.336364 
" clip-path="url(#p33fc5e2ffa)" style="fill: none; stroke: #fecc5c; stroke-opacity: 0.3; stroke-width: 2; stroke-linecap: square"/>
   </g>
   <g id="line2d_19">
    <path d="M 99.890578 28.063636 
L 99.890578 75.041361 
L 192.869974 75.041361 
L 192.869974 203.078688 
L 201.979853 203.078688 
L 201.979853 272.163576 
L 136.903827 272.163576 
L 136.903827 445.336364 
L 136.903827 445.336364 
" clip-path="url(#p33fc5e2ffa)" style="fill: none; stroke: #fecc5c; stroke-opacity: 0.3; stroke-width: 2; stroke-linecap: square"/>
   </g>
   <g id="line2d_20">
    <path d="M 99.261663 28.063636 
L 99.261663 60.303251 
L 134.526547 60.303251 
L 134.526547 148.731908 
L 285.932902 148.731908 
L 285.932902 241.766225 
L 131.129274 241.766225 
L 131.129274 445.336364 
L 131.129274 445.336364 
" clip-path="url(#p33fc5e2ffa)" style="fill: none; stroke: #fecc5c; stroke-opacity: 0.3; stroke-width: 2; stroke-linecap: square"/>
   </g>
   <g id="line2d_21">
    <path d="M 99.743516 28.063636 
L 99.743516 81.489284 
L 285.141269 81.489284 
L 285.141269 134.914931 
L 168.06502 134.914931 
L 168.06502 169.917941 
L 143.468321 169.917941 
L 143.468321 445.336364 
L 143.468321 445.336364 
" clip-path="url(#p33fc5e2ffa)" style="fill: none; stroke: #fecc5c; stroke-opacity: 0.3; stroke-width: 2; stroke-linecap: square"/>
   </g>
   <g id="line2d_22">
    <path d="M 96.453974 28.063636 
L 96.453974 41.880614 
L 101.081327 41.880614 
L 101.081327 69.51457 
L 195.360075 69.51457 
L 195.360075 132.151535 
L 152.433939 132.151535 
L 152.433939 445.336364 
L 152.433939 445.336364 
" clip-path="url(#p33fc5e2ffa)" style="fill: none; stroke: #fecc5c; stroke-opacity: 0.3; stroke-width: 2; stroke-linecap: square"/>
   </g>
   <g id="line2d_23">
    <path d="M 100.668017 28.063636 
L 100.668017 79.64702 
L 194.179017 79.64702 
L 194.179017 181.892655 
L 186.361751 181.892655 
L 186.361751 284.13829 
L 135.232216 284.13829 
L 135.232216 445.336364 
L 135.232216 445.336364 
" clip-path="url(#p33fc5e2ffa)" style="fill: none; stroke: #fecc5c; stroke-opacity: 0.3; stroke-width: 2; stroke-linecap: square"/>
   </g>
   <g id="line2d_24">
    <path d="M 98.647092 28.063636 
L 98.647092 75.041361 
L 234.125032 75.041361 
L 234.125032 110.044371 
L 207.046636 110.044371 
L 207.046636 191.103974 
L 147.159927 191.103974 
L 147.159927 445.336364 
L 147.159927 445.336364 
" clip-path="url(#p33fc5e2ffa)" style="fill: none; stroke: #fecc5c; stroke-opacity: 0.3; stroke-width: 2; stroke-linecap: square"/>
   </g>
   <g id="line2d_25">
    <path d="M 98.548725 28.063636 
L 98.548725 65.830042 
L 151.963584 65.830042 
L 151.963584 173.602468 
L 245.245988 173.602468 
L 245.245988 262.952258 
L 135.821739 262.952258 
L 135.821739 445.336364 
L 135.821739 445.336364 
" clip-path="url(#p33fc5e2ffa)" style="fill: none; stroke: #fecc5c; stroke-opacity: 0.3; stroke-width: 2; stroke-linecap: square"/>
   </g>
   <g id="line2d_26">
    <path d="M 99.824587 28.063636 
L 99.824587 73.199097 
L 167.861187 73.199097 
L 167.861187 254.662071 
L 219.599802 254.662071 
L 219.599802 397.437508 
L 117.632708 397.437508 
L 117.632708 445.336364 
L 117.632708 445.336364 
" clip-path="url(#p33fc5e2ffa)" style="fill: none; stroke: #fecc5c; stroke-opacity: 0.3; stroke-width: 2; stroke-linecap: square"/>
   </g>
   <g id="line2d_27">
    <path d="M 98.458307 28.063636 
L 98.458307 74.120229 
L 174.628 74.120229 
L 174.628 85.173811 
L 201.276534 85.173811 
L 201.276534 225.185852 
L 140.114041 225.185852 
L 140.114041 445.336364 
L 140.114041 445.336364 
" clip-path="url(#p33fc5e2ffa)" style="fill: none; stroke: #fecc5c; stroke-opacity: 0.3; stroke-width: 2; stroke-linecap: square"/>
   </g>
   <g id="line2d_28">
    <path d="M 99.244902 28.063636 
L 99.244902 61.224383 
L 102.525906 61.224383 
L 102.525906 78.725888 
L 228.257265 78.725888 
L 228.257265 217.816797 
L 133.228233 217.816797 
L 133.228233 445.336364 
L 133.228233 445.336364 
" clip-path="url(#p33fc5e2ffa)" style="fill: none; stroke: #fecc5c; stroke-opacity: 0.3; stroke-width: 2; stroke-linecap: square"/>
   </g>
   <g id="line2d_29"/>
   <g id="line2d_30">
    <path d="M 98.887359 28.063636 
L 98.783347 33.590427 
L 98.742725 33.590427 
L 98.83156 42.801746 
L 98.871753 42.801746 
L 98.956985 48.328537 
L 98.997087 48.328537 
L 98.997087 49.249669 
L 99.118035 49.249669 
L 99.203883 52.934196 
L 99.238499 52.934196 
L 99.277475 55.697592 
L 99.479297 55.697592 
L 99.523593 58.460987 
L 99.715058 58.460987 
L 99.763522 60.303251 
L 100.083033 60.303251 
L 100.083033 61.224383 
L 100.405626 61.224383 
L 100.405626 62.145515 
L 100.742902 62.145515 
L 100.742902 63.066647 
L 101.189136 63.066647 
L 101.189136 63.987778 
L 102.028414 63.987778 
L 102.028414 64.90891 
L 102.713597 64.90891 
L 102.713597 65.830042 
L 105.419779 65.830042 
L 105.419779 67.672306 
L 107.44142 67.672306 
L 107.44142 68.593438 
L 110.222441 68.593438 
L 110.222441 69.51457 
L 113.157605 69.51457 
L 113.157605 70.435701 
L 120.140823 70.435701 
L 120.140823 71.356833 
L 120.584436 71.356833 
L 120.584436 72.277965 
L 125.221463 72.277965 
L 125.221463 73.199097 
L 130.265119 73.199097 
L 130.265119 74.120229 
L 135.461833 74.120229 
L 135.461833 75.041361 
L 147.553591 75.041361 
L 147.553591 76.883624 
L 154.134869 76.883624 
L 154.134869 77.804756 
L 158.751351 77.804756 
L 158.751351 78.725888 
L 163.718558 78.725888 
L 163.718558 79.64702 
L 172.307709 79.64702 
L 172.307709 80.568152 
L 172.848936 80.568152 
L 172.848936 81.489284 
L 176.104255 81.489284 
L 176.104255 82.410415 
L 177.993893 82.410415 
L 177.993893 83.331547 
L 179.277717 83.331547 
L 179.277717 84.252679 
L 180.594469 84.252679 
L 180.594469 85.173811 
L 180.968991 85.173811 
L 180.968991 86.094943 
L 182.10761 86.094943 
L 182.10761 87.016075 
L 182.73056 87.016075 
L 182.73056 87.937207 
L 183.186369 87.937207 
L 183.186369 88.858338 
L 183.362935 88.858338 
L 183.362935 89.77947 
L 183.528608 89.77947 
L 183.528608 90.700602 
L 184.204846 90.700602 
L 184.204846 91.621734 
L 185.061105 91.621734 
L 185.061105 92.542866 
L 185.526439 92.542866 
L 185.526439 93.463998 
L 185.732591 93.463998 
L 185.732591 94.385129 
L 185.973952 94.385129 
L 185.973952 95.306261 
L 186.478158 95.306261 
L 186.478158 96.227393 
L 186.865502 96.227393 
L 186.865502 97.148525 
L 187.416973 97.148525 
L 187.416973 98.069657 
L 187.550845 98.069657 
L 187.550845 98.990789 
L 187.763478 98.990789 
L 187.763478 99.911921 
L 188.421235 99.911921 
L 188.350025 101.754184 
L 189.00263 101.754184 
L 189.00263 102.675316 
L 189.223205 102.675316 
L 189.223205 103.596448 
L 189.436476 103.596448 
L 189.436476 104.51758 
L 189.829215 104.51758 
L 189.829215 105.438712 
L 190.162408 105.438712 
L 190.175363 107.280975 
L 190.803335 107.280975 
L 190.836083 109.123239 
L 191.598473 109.123239 
L 191.598473 110.044371 
L 191.799326 110.044371 
L 191.799326 110.965503 
L 192.008861 110.965503 
L 192.008861 111.886635 
L 192.240213 111.886635 
L 192.240213 112.807766 
L 193.13682 112.807766 
L 193.246037 114.65003 
L 194.010854 114.65003 
L 194.010854 115.571162 
L 194.368175 115.571162 
L 194.368175 116.492294 
L 194.776662 116.492294 
L 194.882565 118.334557 
L 195.09514 118.334557 
L 195.09514 119.255689 
L 195.239161 119.255689 
L 195.239161 120.176821 
L 195.49769 120.176821 
L 195.49769 121.097953 
L 196.186295 121.097953 
L 196.186295 122.019085 
L 196.495259 122.019085 
L 196.495259 122.940217 
L 196.912747 122.940217 
L 196.912747 123.861349 
L 197.214325 123.861349 
L 197.214325 124.78248 
L 197.407983 124.78248 
L 197.407983 125.703612 
L 198.003698 125.703612 
L 198.003698 126.624744 
L 198.453967 126.624744 
L 198.453967 127.545876 
L 198.92099 127.545876 
L 198.92099 128.467008 
L 199.694599 128.467008 
L 199.694599 129.38814 
L 200.137926 129.38814 
L 200.137926 130.309272 
L 200.527029 130.309272 
L 200.527029 131.230403 
L 200.751318 131.230403 
L 200.751318 132.151535 
L 201.38582 132.151535 
L 201.38582 133.072667 
L 201.585007 133.072667 
L 201.585007 133.993799 
L 201.775113 133.993799 
L 201.717767 135.836063 
L 201.981976 135.836063 
L 201.981976 136.757194 
L 201.667722 136.757194 
L 201.667722 137.678326 
L 201.85151 137.678326 
L 201.85151 138.599458 
L 201.987764 138.599458 
L 201.987764 139.52059 
L 201.678917 139.52059 
L 201.678917 140.441722 
L 202.019374 140.441722 
L 202.070133 142.283986 
L 202.665394 142.283986 
L 202.665394 143.205117 
L 203.018323 143.205117 
L 203.018323 144.126249 
L 203.621233 144.126249 
L 203.621233 145.047381 
L 203.831645 145.047381 
L 203.747682 146.889645 
L 204.516174 146.889645 
L 204.516174 147.810777 
L 205.010512 147.810777 
L 205.010512 148.731908 
L 204.882048 148.731908 
L 204.850602 150.574172 
L 205.327755 150.574172 
L 205.321912 152.416436 
L 204.700967 152.416436 
L 204.700967 153.337568 
L 204.974865 153.337568 
L 204.974865 154.2587 
L 205.201436 154.2587 
L 205.201436 155.179831 
L 205.361016 155.179831 
L 205.361016 156.100963 
L 205.573308 156.100963 
L 205.573308 157.022095 
L 205.760626 157.022095 
L 205.760626 157.943227 
L 206.533695 157.943227 
L 206.533695 158.864359 
L 205.812069 158.864359 
L 205.829823 161.627754 
L 206.0566 161.627754 
L 206.0566 162.548886 
L 206.292909 162.548886 
L 206.292909 163.470018 
L 206.045066 163.470018 
L 206.045066 164.39115 
L 205.51291 164.39115 
L 205.51291 165.312282 
L 205.392413 165.312282 
L 205.392413 166.233414 
L 205.043534 166.233414 
L 205.043534 167.154545 
L 205.54432 167.154545 
L 205.54432 168.075677 
L 205.26333 168.075677 
L 205.26333 168.996809 
L 205.112139 168.996809 
L 205.112139 169.917941 
L 205.285416 169.917941 
L 205.285416 170.839073 
L 205.168933 170.839073 
L 205.12881 173.602468 
L 204.664669 173.602468 
L 204.664669 174.5236 
L 204.052655 174.5236 
L 204.052655 175.444732 
L 203.346918 175.444732 
L 203.382295 177.286996 
L 202.801334 177.286996 
L 202.693632 179.129259 
L 203.129165 179.129259 
L 203.129165 180.050391 
L 202.042224 180.050391 
L 202.042224 180.971523 
L 202.332475 180.971523 
L 202.332475 181.892655 
L 202.11521 181.892655 
L 202.11521 182.813787 
L 200.962964 182.813787 
L 200.962964 183.734919 
L 200.680328 183.734919 
L 200.686153 185.577182 
L 199.823492 185.577182 
L 199.823492 186.498314 
L 199.976445 186.498314 
L 199.976445 187.419446 
L 199.425925 187.419446 
L 199.425925 188.340578 
L 198.428129 188.340578 
L 198.428129 189.26171 
L 197.913902 189.26171 
L 197.913902 190.182842 
L 197.771468 190.182842 
L 197.771468 191.103974 
L 197.615036 191.103974 
L 197.615036 192.025105 
L 197.108827 192.025105 
L 197.108827 192.946237 
L 196.859225 192.946237 
L 196.859225 193.867369 
L 195.914155 193.867369 
L 195.964005 195.709633 
L 195.641166 195.709633 
L 195.641166 196.630765 
L 195.204317 196.630765 
L 195.204317 197.551896 
L 195.000283 197.551896 
L 195.000283 198.473028 
L 194.820584 198.473028 
L 194.820584 199.39416 
L 194.63309 199.39416 
L 194.63309 200.315292 
L 194.161143 200.315292 
L 194.161143 201.236424 
L 193.907998 201.236424 
L 193.907998 202.157556 
L 193.035228 202.157556 
L 193.035228 203.078688 
L 192.583954 203.078688 
L 192.583954 203.999819 
L 192.034648 203.999819 
L 192.034648 204.920951 
L 191.341174 204.920951 
L 191.341174 205.842083 
L 190.663865 205.842083 
L 190.640467 207.684347 
L 190.944229 207.684347 
L 190.944229 208.605479 
L 190.778699 208.605479 
L 190.778699 209.52661 
L 190.197301 209.52661 
L 190.197301 210.447742 
L 189.92426 210.447742 
L 189.92426 211.368874 
L 189.637305 211.368874 
L 189.637305 212.290006 
L 189.492843 212.290006 
L 189.492843 213.211138 
L 189.214188 213.211138 
L 189.214188 214.13227 
L 188.892972 214.13227 
L 188.892972 215.053402 
L 188.11351 215.053402 
L 188.11351 215.974533 
L 188.333689 215.974533 
L 188.333689 216.895665 
L 187.066709 216.895665 
L 187.066709 217.816797 
L 186.221214 217.816797 
L 186.161014 219.659061 
L 185.873279 219.659061 
L 185.873279 220.580193 
L 185.571097 220.580193 
L 185.571097 221.501325 
L 185.385075 221.501325 
L 185.275133 223.343588 
L 184.867538 223.343588 
L 184.759762 225.185852 
L 183.88612 225.185852 
L 183.88612 226.106984 
L 183.466885 226.106984 
L 183.466885 227.028116 
L 183.2978 227.028116 
L 183.2978 227.949247 
L 182.330889 227.949247 
L 182.219858 229.791511 
L 181.752986 229.791511 
L 181.752986 230.712643 
L 181.538764 230.712643 
L 181.469757 232.554907 
L 180.383227 232.554907 
L 180.350109 234.39717 
L 179.328689 234.39717 
L 179.328689 235.318302 
L 179.112495 235.318302 
L 179.112495 236.239434 
L 178.06473 236.239434 
L 178.06473 237.160566 
L 177.486895 237.160566 
L 177.486895 238.081698 
L 177.055125 238.081698 
L 177.055125 239.00283 
L 176.718021 239.00283 
L 176.718021 239.923961 
L 175.991479 239.923961 
L 175.991479 240.845093 
L 175.279145 240.845093 
L 175.279145 241.766225 
L 174.647336 241.766225 
L 174.647336 242.687357 
L 174.951006 242.687357 
L 174.951006 243.608489 
L 174.272994 243.608489 
L 174.272994 244.529621 
L 174.436812 244.529621 
L 174.436812 245.450753 
L 173.905992 245.450753 
L 173.864315 247.293016 
L 174.294509 247.293016 
L 174.294509 248.214148 
L 173.769001 248.214148 
L 173.769001 249.13528 
L 173.126944 249.13528 
L 173.126944 250.056412 
L 172.799946 250.056412 
L 172.692131 251.898675 
L 171.540918 251.898675 
L 171.540918 252.819807 
L 171.161382 252.819807 
L 171.161382 253.740939 
L 170.988424 253.740939 
L 171.002654 255.583203 
L 170.596826 255.583203 
L 170.596826 256.504335 
L 170.164228 256.504335 
L 170.164228 257.425467 
L 169.596215 257.425467 
L 169.596215 258.346598 
L 169.303533 258.346598 
L 169.303533 259.26773 
L 168.612456 259.26773 
L 168.612456 260.188862 
L 168.220548 260.188862 
L 168.220548 261.109994 
L 167.973128 261.109994 
L 167.973128 262.031126 
L 167.506106 262.031126 
L 167.506106 262.952258 
L 167.321143 262.952258 
L 167.321143 263.87339 
L 167.092481 263.87339 
L 167.092481 264.794521 
L 166.545892 264.794521 
L 166.545892 265.715653 
L 166.1399 265.715653 
L 166.1399 266.636785 
L 164.911263 266.636785 
L 164.911263 267.557917 
L 164.55376 267.557917 
L 164.55376 268.479049 
L 164.248279 268.479049 
L 164.248279 269.400181 
L 164.126287 269.400181 
L 164.04067 271.242444 
L 164.011616 271.242444 
L 164.011616 272.163576 
L 163.334511 272.163576 
L 163.334511 273.084708 
L 162.616798 273.084708 
L 162.616798 274.00584 
L 161.818611 274.00584 
L 161.818611 274.926972 
L 161.294587 274.926972 
L 161.294587 275.848104 
L 160.795459 275.848104 
L 160.795459 276.769235 
L 160.636959 276.769235 
L 160.636959 277.690367 
L 160.469614 277.690367 
L 160.469614 278.611499 
L 159.975636 278.611499 
L 159.99564 280.453763 
L 159.859552 280.453763 
L 159.859552 281.374895 
L 159.393597 281.374895 
L 159.393597 282.296026 
L 158.957968 282.296026 
L 158.957968 283.217158 
L 158.83715 283.217158 
L 158.83715 284.13829 
L 158.513406 284.13829 
L 158.513406 285.059422 
L 158.360961 285.059422 
L 158.360961 285.980554 
L 157.762846 285.980554 
L 157.728734 287.822818 
L 157.127472 287.822818 
L 157.127472 288.743949 
L 156.25744 288.743949 
L 156.25744 289.665081 
L 156.008329 289.665081 
L 156.008329 290.586213 
L 155.389644 290.586213 
L 155.389644 291.507345 
L 154.919176 291.507345 
L 154.919176 292.428477 
L 154.796699 292.428477 
L 154.796699 293.349609 
L 154.684048 293.349609 
L 154.608891 295.191872 
L 154.044749 295.191872 
L 153.983893 297.034136 
L 153.879697 297.034136 
L 153.879697 297.955268 
L 153.373575 297.955268 
L 153.377756 299.797532 
L 153.15382 299.797532 
L 153.15382 300.718663 
L 153.038404 300.718663 
L 153.032798 302.560927 
L 152.844267 302.560927 
L 152.757045 304.403191 
L 152.414977 304.403191 
L 152.414977 305.324323 
L 152.14704 305.324323 
L 152.14704 306.245455 
L 152.023813 306.245455 
L 152.023813 307.166586 
L 151.612069 307.166586 
L 151.612069 308.087718 
L 151.398056 308.087718 
L 151.398056 309.00885 
L 151.090341 309.00885 
L 151.090341 309.929982 
L 150.976641 309.929982 
L 150.976641 310.851114 
L 150.850079 310.851114 
L 150.812031 312.693377 
L 150.579005 312.693377 
L 150.500058 314.535641 
L 150.096249 314.535641 
L 150.096249 315.456773 
L 149.528754 315.456773 
L 149.528754 316.377905 
L 149.257085 316.377905 
L 149.257085 317.299037 
L 149.126505 317.299037 
L 149.126505 318.220169 
L 148.944462 318.220169 
L 148.944462 319.1413 
L 148.745296 319.1413 
L 148.745296 320.062432 
L 148.57592 320.062432 
L 148.57592 320.983564 
L 148.173535 320.983564 
L 148.118599 322.825828 
L 147.640896 322.825828 
L 147.547735 325.589223 
L 147.25055 325.589223 
L 147.25055 326.510355 
L 146.987921 326.510355 
L 146.987921 327.431487 
L 146.688988 327.431487 
L 146.587183 329.273751 
L 146.38156 329.273751 
L 146.38156 330.194883 
L 146.001981 330.194883 
L 146.001981 331.116014 
L 145.814171 331.116014 
L 145.720557 332.958278 
L 145.338488 332.958278 
L 145.303422 334.800542 
L 144.944354 334.800542 
L 144.944354 335.721674 
L 144.358279 335.721674 
L 144.26035 337.563937 
L 144.133177 337.563937 
L 144.133177 338.485069 
L 143.978431 338.485069 
L 143.978431 339.406201 
L 143.678899 339.406201 
L 143.678899 340.327333 
L 143.455018 340.327333 
L 143.455018 341.248465 
L 142.8784 341.248465 
L 142.8784 342.169597 
L 142.747506 342.169597 
L 142.747506 343.090728 
L 142.589351 343.090728 
L 142.589351 344.01186 
L 142.410351 344.01186 
L 142.410351 344.932992 
L 141.972588 344.932992 
L 141.972588 345.854124 
L 141.654209 345.854124 
L 141.654209 346.775256 
L 141.535342 346.775256 
L 141.535342 347.696388 
L 141.274455 347.696388 
L 141.205589 350.459783 
L 141.116513 350.459783 
L 141.029721 352.302047 
L 140.93917 352.302047 
L 140.93917 353.223179 
L 140.804627 353.223179 
L 140.804627 355.065443 
L 140.373188 355.065443 
L 140.373188 355.986574 
L 139.857766 355.986574 
L 139.782414 357.828838 
L 139.517546 357.828838 
L 139.432861 361.513365 
L 139.189908 361.513365 
L 139.110955 364.276761 
L 139.028615 364.276761 
L 139.028615 365.197893 
L 138.800604 365.197893 
L 138.735244 367.040157 
L 138.541672 367.040157 
L 138.441604 371.645816 
L 138.326892 371.645816 
L 138.291912 373.488079 
L 138.12452 373.488079 
L 138.054262 376.251475 
L 137.907519 376.251475 
L 137.907519 377.172607 
L 137.761974 377.172607 
L 137.727708 379.936002 
L 137.62926 379.936002 
L 137.62926 380.857134 
L 137.487314 380.857134 
L 137.487314 381.778266 
L 137.315672 381.778266 
L 137.260463 383.62053 
L 137.129038 383.62053 
L 137.129038 385.462793 
L 136.967104 385.462793 
L 136.967104 390.068453 
L 136.820587 390.068453 
L 136.763844 392.831848 
L 136.708318 392.831848 
L 136.739224 395.595244 
L 136.584612 395.595244 
L 136.542825 397.437508 
L 136.440858 397.437508 
L 136.367182 405.727694 
L 136.32311 405.727694 
L 136.343601 414.017881 
L 136.13122 414.017881 
L 136.062402 445.336364 
L 136.062402 445.336364 
" clip-path="url(#p33fc5e2ffa)" style="fill: none; stroke: #6b3914; stroke-width: 3; stroke-linecap: square"/>
   </g>
   <g id="patch_3">
    <path d="M 74.00625 466.2 
L 74.00625 7.2 
" style="fill: none; stroke: #000000; stroke-width: 2; stroke-linejoin: miter; stroke-linecap: square"/>
   </g>
   <g id="patch_4">
    <path d="M 84.00625 476.2 
L 354.00625 476.2 
" style="fill: none; stroke: #000000; stroke-width: 2; stroke-linejoin: miter; stroke-linecap: square"/>
   </g>
  </g>
 </g>
 <defs>
  <clipPath id="p33fc5e2ffa">
   <rect x="84.00625" y="7.2" width="270" height="459"/>
  </clipPath>
 </defs>
</svg>
