<?xml version="1.0" encoding="utf-8" standalone="no"?>
<!DOCTYPE svg PUBLIC "-//W3C//DTD SVG 1.1//EN"
  "http://www.w3.org/Graphics/SVG/1.1/DTD/svg11.dtd">
<svg xmlns:xlink="http://www.w3.org/1999/xlink" width="376.787609pt" height="544.35625pt" viewBox="0 0 376.787609 544.35625" xmlns="http://www.w3.org/2000/svg" version="1.1">
 <metadata>
  <rdf:RDF xmlns:dc="http://purl.org/dc/elements/1.1/" xmlns:cc="http://creativecommons.org/ns#" xmlns:rdf="http://www.w3.org/1999/02/22-rdf-syntax-ns#">
   <cc:Work>
    <dc:type rdf:resource="http://purl.org/dc/dcmitype/StillImage"/>
    <dc:date>2024-07-31T19:17:35.626467</dc:date>
    <dc:format>image/svg+xml</dc:format>
    <dc:creator>
     <cc:Agent>
      <dc:title>Matplotlib v3.8.0, https://matplotlib.org/</dc:title>
     </cc:Agent>
    </dc:creator>
   </cc:Work>
  </rdf:RDF>
 </metadata>
 <defs>
  <style type="text/css">*{stroke-linejoin: round; stroke-linecap: butt}</style>
 </defs>
 <g id="figure_1">
  <g id="patch_1">
   <path d="M 0 544.35625 
L 376.787609 544.35625 
L 376.787609 0 
L 0 0 
z
" style="fill: #ffffff"/>
  </g>
  <g id="axes_1">
   <g id="patch_2">
    <path d="M 84.00625 466.2 
L 354.00625 466.2 
L 354.00625 7.2 
L 84.00625 7.2 
z
" style="fill: #ffffff"/>
   </g>
   <g id="PolyCollection_1">
    <defs>
     <path id="m929e985c0f" d="M 113.800612 -516.292614 
L 141.874439 -516.292614 
L 132.264694 -507.414471 
L 136.840187 -498.536327 
L 147.307742 -489.658184 
L 154.148112 -480.780041 
L 164.0937 -471.901898 
L 166.622822 -463.023755 
L 173.69681 -454.145612 
L 177.878948 -445.267469 
L 190.031366 -436.389325 
L 207.52066 -427.511182 
L 214.507856 -418.633039 
L 225.54502 -409.754896 
L 239.133279 -400.876753 
L 242.816989 -391.99861 
L 252.38202 -383.120467 
L 260.232985 -374.242324 
L 282.386635 -365.36418 
L 284.673382 -356.486037 
L 302.374748 -347.607894 
L 301.658313 -338.729751 
L 304.509214 -329.851608 
L 300.437122 -320.973465 
L 302.15512 -312.095322 
L 310.206223 -303.217178 
L 307.491967 -294.339035 
L 300.429188 -285.460892 
L 290.826166 -276.582749 
L 288.390026 -267.704606 
L 291.919593 -258.826463 
L 291.113121 -249.94832 
L 287.71708 -241.070176 
L 286.55342 -232.192033 
L 278.415022 -223.31389 
L 277.08466 -214.435747 
L 270.862457 -205.557604 
L 270.330649 -196.679461 
L 260.471533 -187.801318 
L 255.266751 -178.923175 
L 250.827816 -170.045031 
L 240.267538 -161.166888 
L 233.07527 -152.288745 
L 230.45304 -143.410602 
L 219.793676 -134.532459 
L 215.118291 -125.654316 
L 205.39742 -116.776173 
L 195.57665 -107.898029 
L 173.696285 -99.019886 
L 158.389816 -99.019886 
L 158.389816 -99.019886 
L 143.474306 -107.898029 
L 140.089777 -116.776173 
L 139.119474 -125.654316 
L 137.528933 -134.532459 
L 134.15992 -143.410602 
L 137.054181 -152.288745 
L 135.569829 -161.166888 
L 145.690437 -170.045031 
L 149.429732 -178.923175 
L 155.717468 -187.801318 
L 161.770587 -196.679461 
L 165.097596 -205.557604 
L 168.470866 -214.435747 
L 177.587814 -223.31389 
L 184.209868 -232.192033 
L 186.861868 -241.070176 
L 190.884036 -249.94832 
L 195.303687 -258.826463 
L 196.70059 -267.704606 
L 201.850282 -276.582749 
L 205.95109 -285.460892 
L 203.200087 -294.339035 
L 211.251074 -303.217178 
L 202.937997 -312.095322 
L 197.067933 -320.973465 
L 199.317954 -329.851608 
L 193.557256 -338.729751 
L 194.521525 -347.607894 
L 188.758834 -356.486037 
L 183.268295 -365.36418 
L 166.725711 -374.242324 
L 161.101954 -383.120467 
L 153.772425 -391.99861 
L 144.736861 -400.876753 
L 136.088153 -409.754896 
L 126.789849 -418.633039 
L 124.182961 -427.511182 
L 119.294683 -436.389325 
L 116.044589 -445.267469 
L 119.871642 -454.145612 
L 117.009648 -463.023755 
L 116.966845 -471.901898 
L 115.376254 -480.780041 
L 112.994706 -489.658184 
L 105.438405 -498.536327 
L 109.44601 -507.414471 
L 113.800612 -516.292614 
z
" style="stroke: #fecc5c; stroke-opacity: 0.5"/>
    </defs>
    <g clip-path="url(#pa3363a3bfd)">
     <use xlink:href="#m929e985c0f" x="0" y="544.35625" style="fill: #fecc5c; fill-opacity: 0.5; stroke: #fecc5c; stroke-opacity: 0.5"/>
    </g>
   </g>
   <g id="matplotlib.axis_1">
    <g id="xtick_1">
     <g id="line2d_1">
      <defs>
       <path id="ma90b6b041a" d="M 0 0 
L 0 3.5 
" style="stroke: #000000; stroke-width: 1.5"/>
      </defs>
      <g>
       <use xlink:href="#ma90b6b041a" x="100.591027" y="476.2" style="stroke: #000000; stroke-width: 1.5"/>
      </g>
     </g>
     <g id="text_1">
      <!-- 0 -->
      <g transform="translate(94.228527 498.396875) scale(0.2 -0.2)">
       <defs>
        <path id="DejaVuSans-30" d="M 2034 4250 
Q 1547 4250 1301 3770 
Q 1056 3291 1056 2328 
Q 1056 1369 1301 889 
Q 1547 409 2034 409 
Q 2525 409 2770 889 
Q 3016 1369 3016 2328 
Q 3016 3291 2770 3770 
Q 2525 4250 2034 4250 
z
M 2034 4750 
Q 2819 4750 3233 4129 
Q 3647 3509 3647 2328 
Q 3647 1150 3233 529 
Q 2819 -91 2034 -91 
Q 1250 -91 836 529 
Q 422 1150 422 2328 
Q 422 3509 836 4129 
Q 1250 4750 2034 4750 
z
" transform="scale(0.015625)"/>
       </defs>
       <use xlink:href="#DejaVuSans-30"/>
      </g>
     </g>
    </g>
    <g id="xtick_2">
     <g id="line2d_2">
      <g>
       <use xlink:href="#ma90b6b041a" x="183.894054" y="476.2" style="stroke: #000000; stroke-width: 1.5"/>
      </g>
     </g>
     <g id="text_2">
      <!-- 250 -->
      <g transform="translate(164.806554 498.396875) scale(0.2 -0.2)">
       <defs>
        <path id="DejaVuSans-32" d="M 1228 531 
L 3431 531 
L 3431 0 
L 469 0 
L 469 531 
Q 828 903 1448 1529 
Q 2069 2156 2228 2338 
Q 2531 2678 2651 2914 
Q 2772 3150 2772 3378 
Q 2772 3750 2511 3984 
Q 2250 4219 1831 4219 
Q 1534 4219 1204 4116 
Q 875 4013 500 3803 
L 500 4441 
Q 881 4594 1212 4672 
Q 1544 4750 1819 4750 
Q 2544 4750 2975 4387 
Q 3406 4025 3406 3419 
Q 3406 3131 3298 2873 
Q 3191 2616 2906 2266 
Q 2828 2175 2409 1742 
Q 1991 1309 1228 531 
z
" transform="scale(0.015625)"/>
        <path id="DejaVuSans-35" d="M 691 4666 
L 3169 4666 
L 3169 4134 
L 1269 4134 
L 1269 2991 
Q 1406 3038 1543 3061 
Q 1681 3084 1819 3084 
Q 2600 3084 3056 2656 
Q 3513 2228 3513 1497 
Q 3513 744 3044 326 
Q 2575 -91 1722 -91 
Q 1428 -91 1123 -41 
Q 819 9 494 109 
L 494 744 
Q 775 591 1075 516 
Q 1375 441 1709 441 
Q 2250 441 2565 725 
Q 2881 1009 2881 1497 
Q 2881 1984 2565 2268 
Q 2250 2553 1709 2553 
Q 1456 2553 1204 2497 
Q 953 2441 691 2322 
L 691 4666 
z
" transform="scale(0.015625)"/>
       </defs>
       <use xlink:href="#DejaVuSans-32"/>
       <use xlink:href="#DejaVuSans-35" x="63.623047"/>
       <use xlink:href="#DejaVuSans-30" x="127.246094"/>
      </g>
     </g>
    </g>
    <g id="xtick_3">
     <g id="line2d_3">
      <g>
       <use xlink:href="#ma90b6b041a" x="267.197081" y="476.2" style="stroke: #000000; stroke-width: 1.5"/>
      </g>
     </g>
     <g id="text_3">
      <!-- 500 -->
      <g transform="translate(248.109581 498.396875) scale(0.2 -0.2)">
       <use xlink:href="#DejaVuSans-35"/>
       <use xlink:href="#DejaVuSans-30" x="63.623047"/>
       <use xlink:href="#DejaVuSans-30" x="127.246094"/>
      </g>
     </g>
    </g>
    <g id="xtick_4">
     <g id="line2d_4">
      <g>
       <use xlink:href="#ma90b6b041a" x="350.500109" y="476.2" style="stroke: #000000; stroke-width: 1.5"/>
      </g>
     </g>
     <g id="text_4">
      <!-- 750 -->
      <g transform="translate(331.412609 498.396875) scale(0.2 -0.2)">
       <defs>
        <path id="DejaVuSans-37" d="M 525 4666 
L 3525 4666 
L 3525 4397 
L 1831 0 
L 1172 0 
L 2766 4134 
L 525 4134 
L 525 4666 
z
" transform="scale(0.015625)"/>
       </defs>
       <use xlink:href="#DejaVuSans-37"/>
       <use xlink:href="#DejaVuSans-35" x="63.623047"/>
       <use xlink:href="#DejaVuSans-30" x="127.246094"/>
      </g>
     </g>
    </g>
    <g id="text_5">
     <!-- Resistivity  [$\Omega m$] -->
     <g transform="translate(124.70625 532.75625) scale(0.2 -0.2)">
      <defs>
       <path id="DejaVuSans-Bold-52" d="M 2297 2597 
Q 2675 2597 2839 2737 
Q 3003 2878 3003 3200 
Q 3003 3519 2839 3656 
Q 2675 3794 2297 3794 
L 1791 3794 
L 1791 2597 
L 2297 2597 
z
M 1791 1766 
L 1791 0 
L 588 0 
L 588 4666 
L 2425 4666 
Q 3347 4666 3776 4356 
Q 4206 4047 4206 3378 
Q 4206 2916 3982 2619 
Q 3759 2322 3309 2181 
Q 3556 2125 3751 1926 
Q 3947 1728 4147 1325 
L 4800 0 
L 3519 0 
L 2950 1159 
Q 2778 1509 2601 1637 
Q 2425 1766 2131 1766 
L 1791 1766 
z
" transform="scale(0.015625)"/>
       <path id="DejaVuSans-Bold-65" d="M 4031 1759 
L 4031 1441 
L 1416 1441 
Q 1456 1047 1700 850 
Q 1944 653 2381 653 
Q 2734 653 3104 758 
Q 3475 863 3866 1075 
L 3866 213 
Q 3469 63 3072 -14 
Q 2675 -91 2278 -91 
Q 1328 -91 801 392 
Q 275 875 275 1747 
Q 275 2603 792 3093 
Q 1309 3584 2216 3584 
Q 3041 3584 3536 3087 
Q 4031 2591 4031 1759 
z
M 2881 2131 
Q 2881 2450 2695 2645 
Q 2509 2841 2209 2841 
Q 1884 2841 1681 2658 
Q 1478 2475 1428 2131 
L 2881 2131 
z
" transform="scale(0.015625)"/>
       <path id="DejaVuSans-Bold-73" d="M 3272 3391 
L 3272 2541 
Q 2913 2691 2578 2766 
Q 2244 2841 1947 2841 
Q 1628 2841 1473 2761 
Q 1319 2681 1319 2516 
Q 1319 2381 1436 2309 
Q 1553 2238 1856 2203 
L 2053 2175 
Q 2913 2066 3209 1816 
Q 3506 1566 3506 1031 
Q 3506 472 3093 190 
Q 2681 -91 1863 -91 
Q 1516 -91 1145 -36 
Q 775 19 384 128 
L 384 978 
Q 719 816 1070 734 
Q 1422 653 1784 653 
Q 2113 653 2278 743 
Q 2444 834 2444 1013 
Q 2444 1163 2330 1236 
Q 2216 1309 1875 1350 
L 1678 1375 
Q 931 1469 631 1722 
Q 331 1975 331 2491 
Q 331 3047 712 3315 
Q 1094 3584 1881 3584 
Q 2191 3584 2531 3537 
Q 2872 3491 3272 3391 
z
" transform="scale(0.015625)"/>
       <path id="DejaVuSans-Bold-69" d="M 538 3500 
L 1656 3500 
L 1656 0 
L 538 0 
L 538 3500 
z
M 538 4863 
L 1656 4863 
L 1656 3950 
L 538 3950 
L 538 4863 
z
" transform="scale(0.015625)"/>
       <path id="DejaVuSans-Bold-74" d="M 1759 4494 
L 1759 3500 
L 2913 3500 
L 2913 2700 
L 1759 2700 
L 1759 1216 
Q 1759 972 1856 886 
Q 1953 800 2241 800 
L 2816 800 
L 2816 0 
L 1856 0 
Q 1194 0 917 276 
Q 641 553 641 1216 
L 641 2700 
L 84 2700 
L 84 3500 
L 641 3500 
L 641 4494 
L 1759 4494 
z
" transform="scale(0.015625)"/>
       <path id="DejaVuSans-Bold-76" d="M 97 3500 
L 1216 3500 
L 2088 1081 
L 2956 3500 
L 4078 3500 
L 2700 0 
L 1472 0 
L 97 3500 
z
" transform="scale(0.015625)"/>
       <path id="DejaVuSans-Bold-79" d="M 78 3500 
L 1197 3500 
L 2138 1125 
L 2938 3500 
L 4056 3500 
L 2584 -331 
Q 2363 -916 2067 -1148 
Q 1772 -1381 1288 -1381 
L 641 -1381 
L 641 -647 
L 991 -647 
Q 1275 -647 1404 -556 
Q 1534 -466 1606 -231 
L 1638 -134 
L 78 3500 
z
" transform="scale(0.015625)"/>
       <path id="DejaVuSans-Bold-20" transform="scale(0.015625)"/>
       <path id="DejaVuSans-Bold-5b" d="M 550 4863 
L 2491 4863 
L 2491 4159 
L 1613 4159 
L 1613 -141 
L 2491 -141 
L 2491 -844 
L 550 -844 
L 550 4863 
z
" transform="scale(0.015625)"/>
       <path id="DejaVuSans-Bold-3a9" d="M 2719 4750 
Q 3841 4750 4480 4106 
Q 5119 3463 5119 2494 
Q 5119 1406 4306 909 
L 5266 909 
L 5266 0 
L 3125 0 
L 3125 975 
Q 3244 1041 3334 1131 
Q 3875 1678 3875 2466 
Q 3875 3066 3572 3472 
Q 3269 3878 2719 3878 
Q 2169 3878 1866 3472 
Q 1563 3066 1563 2466 
Q 1563 1678 2103 1131 
Q 2194 1041 2313 975 
L 2313 0 
L 172 0 
L 172 909 
L 1131 909 
Q 319 1406 319 2494 
Q 319 3463 958 4106 
Q 1597 4750 2719 4750 
z
" transform="scale(0.015625)"/>
       <path id="DejaVuSans-Bold-6d" d="M 3781 2919 
Q 3994 3244 4286 3414 
Q 4578 3584 4928 3584 
Q 5531 3584 5847 3212 
Q 6163 2841 6163 2131 
L 6163 0 
L 5038 0 
L 5038 1825 
Q 5041 1866 5042 1909 
Q 5044 1953 5044 2034 
Q 5044 2406 4934 2573 
Q 4825 2741 4581 2741 
Q 4263 2741 4089 2478 
Q 3916 2216 3909 1719 
L 3909 0 
L 2784 0 
L 2784 1825 
Q 2784 2406 2684 2573 
Q 2584 2741 2328 2741 
Q 2006 2741 1831 2477 
Q 1656 2213 1656 1722 
L 1656 0 
L 531 0 
L 531 3500 
L 1656 3500 
L 1656 2988 
Q 1863 3284 2130 3434 
Q 2397 3584 2719 3584 
Q 3081 3584 3359 3409 
Q 3638 3234 3781 2919 
z
" transform="scale(0.015625)"/>
       <path id="DejaVuSans-Bold-5d" d="M 2375 -844 
L 434 -844 
L 434 -141 
L 1313 -141 
L 1313 4159 
L 434 4159 
L 434 4863 
L 2375 4863 
L 2375 -844 
z
" transform="scale(0.015625)"/>
      </defs>
      <use xlink:href="#DejaVuSans-Bold-52" transform="translate(0 0.015625)"/>
      <use xlink:href="#DejaVuSans-Bold-65" transform="translate(77.001953 0.015625)"/>
      <use xlink:href="#DejaVuSans-Bold-73" transform="translate(144.824219 0.015625)"/>
      <use xlink:href="#DejaVuSans-Bold-69" transform="translate(204.345703 0.015625)"/>
      <use xlink:href="#DejaVuSans-Bold-73" transform="translate(238.623047 0.015625)"/>
      <use xlink:href="#DejaVuSans-Bold-74" transform="translate(298.144531 0.015625)"/>
      <use xlink:href="#DejaVuSans-Bold-69" transform="translate(345.947266 0.015625)"/>
      <use xlink:href="#DejaVuSans-Bold-76" transform="translate(380.224609 0.015625)"/>
      <use xlink:href="#DejaVuSans-Bold-69" transform="translate(445.410156 0.015625)"/>
      <use xlink:href="#DejaVuSans-Bold-74" transform="translate(479.6875 0.015625)"/>
      <use xlink:href="#DejaVuSans-Bold-79" transform="translate(527.490234 0.015625)"/>
      <use xlink:href="#DejaVuSans-Bold-20" transform="translate(592.675781 0.015625)"/>
      <use xlink:href="#DejaVuSans-Bold-20" transform="translate(627.490234 0.015625)"/>
      <use xlink:href="#DejaVuSans-Bold-5b" transform="translate(662.304688 0.015625)"/>
      <use xlink:href="#DejaVuSans-Bold-3a9" transform="translate(708.007812 0.015625)"/>
      <use xlink:href="#DejaVuSans-Bold-6d" transform="translate(793.017578 0.015625)"/>
      <use xlink:href="#DejaVuSans-Bold-5d" transform="translate(897.216797 0.015625)"/>
     </g>
    </g>
   </g>
   <g id="matplotlib.axis_2">
    <g id="ytick_1">
     <g id="line2d_5">
      <defs>
       <path id="m99164c848b" d="M 0 0 
L -3.5 0 
" style="stroke: #000000; stroke-width: 1.5"/>
      </defs>
      <g>
       <use xlink:href="#m99164c848b" x="74.00625" y="28.063636" style="stroke: #000000; stroke-width: 1.5"/>
      </g>
     </g>
     <g id="text_6">
      <!-- 0 -->
      <g transform="translate(54.28125 35.662074) scale(0.2 -0.2)">
       <use xlink:href="#DejaVuSans-30"/>
      </g>
     </g>
    </g>
    <g id="ytick_2">
     <g id="line2d_6">
      <g>
       <use xlink:href="#m99164c848b" x="74.00625" y="116.845068" style="stroke: #000000; stroke-width: 1.5"/>
      </g>
     </g>
     <g id="text_7">
      <!-- 5 -->
      <g transform="translate(54.28125 124.443505) scale(0.2 -0.2)">
       <use xlink:href="#DejaVuSans-35"/>
      </g>
     </g>
    </g>
    <g id="ytick_3">
     <g id="line2d_7">
      <g>
       <use xlink:href="#m99164c848b" x="74.00625" y="205.626499" style="stroke: #000000; stroke-width: 1.5"/>
      </g>
     </g>
     <g id="text_8">
      <!-- 10 -->
      <g transform="translate(41.55625 213.224937) scale(0.2 -0.2)">
       <defs>
        <path id="DejaVuSans-31" d="M 794 531 
L 1825 531 
L 1825 4091 
L 703 3866 
L 703 4441 
L 1819 4666 
L 2450 4666 
L 2450 531 
L 3481 531 
L 3481 0 
L 794 0 
L 794 531 
z
" transform="scale(0.015625)"/>
       </defs>
       <use xlink:href="#DejaVuSans-31"/>
       <use xlink:href="#DejaVuSans-30" x="63.623047"/>
      </g>
     </g>
    </g>
    <g id="ytick_4">
     <g id="line2d_8">
      <g>
       <use xlink:href="#m99164c848b" x="74.00625" y="294.40793" style="stroke: #000000; stroke-width: 1.5"/>
      </g>
     </g>
     <g id="text_9">
      <!-- 15 -->
      <g transform="translate(41.55625 302.006368) scale(0.2 -0.2)">
       <use xlink:href="#DejaVuSans-31"/>
       <use xlink:href="#DejaVuSans-35" x="63.623047"/>
      </g>
     </g>
    </g>
    <g id="ytick_5">
     <g id="line2d_9">
      <g>
       <use xlink:href="#m99164c848b" x="74.00625" y="383.189362" style="stroke: #000000; stroke-width: 1.5"/>
      </g>
     </g>
     <g id="text_10">
      <!-- 20 -->
      <g transform="translate(41.55625 390.787799) scale(0.2 -0.2)">
       <use xlink:href="#DejaVuSans-32"/>
       <use xlink:href="#DejaVuSans-30" x="63.623047"/>
      </g>
     </g>
    </g>
    <g id="text_11">
     <!-- Depth [m] -->
     <g transform="translate(22.396875 293.882812) rotate(-90) scale(0.2 -0.2)">
      <defs>
       <path id="DejaVuSans-Bold-44" d="M 1791 3756 
L 1791 909 
L 2222 909 
Q 2959 909 3348 1275 
Q 3738 1641 3738 2338 
Q 3738 3031 3350 3393 
Q 2963 3756 2222 3756 
L 1791 3756 
z
M 588 4666 
L 1856 4666 
Q 2919 4666 3439 4514 
Q 3959 4363 4331 4000 
Q 4659 3684 4818 3271 
Q 4978 2859 4978 2338 
Q 4978 1809 4818 1395 
Q 4659 981 4331 666 
Q 3956 303 3431 151 
Q 2906 0 1856 0 
L 588 0 
L 588 4666 
z
" transform="scale(0.015625)"/>
       <path id="DejaVuSans-Bold-70" d="M 1656 506 
L 1656 -1331 
L 538 -1331 
L 538 3500 
L 1656 3500 
L 1656 2988 
Q 1888 3294 2169 3439 
Q 2450 3584 2816 3584 
Q 3463 3584 3878 3070 
Q 4294 2556 4294 1747 
Q 4294 938 3878 423 
Q 3463 -91 2816 -91 
Q 2450 -91 2169 54 
Q 1888 200 1656 506 
z
M 2400 2772 
Q 2041 2772 1848 2508 
Q 1656 2244 1656 1747 
Q 1656 1250 1848 986 
Q 2041 722 2400 722 
Q 2759 722 2948 984 
Q 3138 1247 3138 1747 
Q 3138 2247 2948 2509 
Q 2759 2772 2400 2772 
z
" transform="scale(0.015625)"/>
       <path id="DejaVuSans-Bold-68" d="M 4056 2131 
L 4056 0 
L 2931 0 
L 2931 347 
L 2931 1625 
Q 2931 2084 2911 2256 
Q 2891 2428 2841 2509 
Q 2775 2619 2662 2680 
Q 2550 2741 2406 2741 
Q 2056 2741 1856 2470 
Q 1656 2200 1656 1722 
L 1656 0 
L 538 0 
L 538 4863 
L 1656 4863 
L 1656 2988 
Q 1909 3294 2193 3439 
Q 2478 3584 2822 3584 
Q 3428 3584 3742 3212 
Q 4056 2841 4056 2131 
z
" transform="scale(0.015625)"/>
      </defs>
      <use xlink:href="#DejaVuSans-Bold-44"/>
      <use xlink:href="#DejaVuSans-Bold-65" x="83.007812"/>
      <use xlink:href="#DejaVuSans-Bold-70" x="150.830078"/>
      <use xlink:href="#DejaVuSans-Bold-74" x="222.412109"/>
      <use xlink:href="#DejaVuSans-Bold-68" x="270.214844"/>
      <use xlink:href="#DejaVuSans-Bold-20" x="341.40625"/>
      <use xlink:href="#DejaVuSans-Bold-5b" x="376.220703"/>
      <use xlink:href="#DejaVuSans-Bold-6d" x="421.923828"/>
      <use xlink:href="#DejaVuSans-Bold-5d" x="526.123047"/>
     </g>
    </g>
   </g>
   <g id="line2d_10">
    <path d="M 127.896886 28.063636 
L 127.896886 36.941779 
L 117.163992 36.941779 
L 117.163992 45.819923 
L 113.23206 45.819923 
L 113.23206 54.698066 
L 129.06927 54.698066 
L 129.06927 63.576209 
L 134.740079 63.576209 
L 134.740079 72.454352 
L 132.158883 72.454352 
L 132.158883 81.332495 
L 134.45673 81.332495 
L 134.45673 90.210638 
L 126.426364 90.210638 
L 126.426364 99.088781 
L 134.655612 99.088781 
L 134.655612 107.966925 
L 158.754584 107.966925 
L 158.754584 116.845068 
L 174.0702 116.845068 
L 174.0702 125.723211 
L 160.00445 125.723211 
L 160.00445 134.601354 
L 152.462125 134.601354 
L 152.462125 143.479497 
L 166.293605 143.479497 
L 166.293605 152.35764 
L 157.791835 152.35764 
L 157.791835 161.235783 
L 183.25354 161.235783 
L 183.25354 170.113926 
L 206.384143 170.113926 
L 206.384143 178.99207 
L 211.563238 178.99207 
L 211.563238 187.870213 
L 211.410299 187.870213 
L 211.410299 196.748356 
L 199.306283 196.748356 
L 199.306283 205.626499 
L 191.291082 205.626499 
L 191.291082 214.504642 
L 209.750685 214.504642 
L 209.750685 223.382785 
L 186.083311 223.382785 
L 186.083311 232.260928 
L 190.814042 232.260928 
L 190.814042 241.139072 
L 218.408495 241.139072 
L 218.408495 250.017215 
L 237.682855 250.017215 
L 237.682855 258.895358 
L 247.02336 258.895358 
L 247.02336 267.773501 
L 242.293706 267.773501 
L 242.293706 276.651644 
L 235.83761 276.651644 
L 235.83761 285.529787 
L 238.816385 285.529787 
L 238.816385 294.40793 
L 233.520663 294.40793 
L 233.520663 303.286074 
L 254.186485 303.286074 
L 254.186485 312.164217 
L 273.781559 312.164217 
L 273.781559 321.04236 
L 239.22388 321.04236 
L 239.22388 329.920503 
L 259.614604 329.920503 
L 259.614604 338.798646 
L 235.94603 338.798646 
L 235.94603 347.676789 
L 240.003595 347.676789 
L 240.003595 356.554932 
L 223.849153 356.554932 
L 223.849153 365.433075 
L 204.237361 365.433075 
L 204.237361 374.311219 
L 173.750207 374.311219 
L 173.750207 383.189362 
L 158.469883 383.189362 
L 158.469883 392.067505 
L 181.524926 392.067505 
L 181.524926 400.945648 
L 173.06551 400.945648 
L 173.06551 409.823791 
L 205.861607 409.823791 
L 205.861607 418.701934 
L 181.003509 418.701934 
L 181.003509 427.580077 
L 189.152527 427.580077 
L 189.152527 436.458221 
L 174.074867 436.458221 
L 174.074867 445.336364 
L 167.739048 445.336364 
" clip-path="url(#pa3363a3bfd)" style="fill: none; stroke: #fecc5c; stroke-opacity: 0.3; stroke-width: 2; stroke-linecap: square"/>
   </g>
   <g id="line2d_11">
    <path d="M 130.29046 28.063636 
L 130.29046 36.941779 
L 116.329836 36.941779 
L 116.329836 45.819923 
L 119.838212 45.819923 
L 119.838212 54.698066 
L 127.228868 54.698066 
L 127.228868 63.576209 
L 124.213556 63.576209 
L 124.213556 72.454352 
L 129.865655 72.454352 
L 129.865655 81.332495 
L 133.175435 81.332495 
L 133.175435 90.210638 
L 127.671646 90.210638 
L 127.671646 99.088781 
L 140.204372 99.088781 
L 140.204372 107.966925 
L 148.869748 107.966925 
L 148.869748 116.845068 
L 136.928703 116.845068 
L 136.928703 125.723211 
L 163.512268 125.723211 
L 163.512268 134.601354 
L 170.667761 134.601354 
L 170.667761 143.479497 
L 203.115292 143.479497 
L 203.115292 152.35764 
L 241.188457 152.35764 
L 241.188457 161.235783 
L 224.852471 161.235783 
L 224.852471 170.113926 
L 217.103774 170.113926 
L 217.103774 178.99207 
L 247.807987 178.99207 
L 247.807987 187.870213 
L 251.734811 187.870213 
L 251.734811 196.748356 
L 220.216503 196.748356 
L 220.216503 205.626499 
L 223.155771 205.626499 
L 223.155771 214.504642 
L 211.474789 214.504642 
L 211.474789 223.382785 
L 221.751995 223.382785 
L 221.751995 232.260928 
L 198.9808 232.260928 
L 198.9808 241.139072 
L 192.269903 241.139072 
L 192.269903 250.017215 
L 182.909269 250.017215 
L 182.909269 258.895358 
L 192.673249 258.895358 
L 192.673249 267.773501 
L 183.081336 267.773501 
L 183.081336 276.651644 
L 190.737766 276.651644 
L 190.737766 285.529787 
L 223.478977 285.529787 
L 223.478977 294.40793 
L 223.418422 294.40793 
L 223.418422 303.286074 
L 217.196361 303.286074 
L 217.196361 312.164217 
L 220.746614 312.164217 
L 220.746614 321.04236 
L 209.9335 321.04236 
L 209.9335 329.920503 
L 210.807237 329.920503 
L 210.807237 338.798646 
L 231.046608 338.798646 
L 231.046608 347.676789 
L 238.936224 347.676789 
L 238.936224 356.554932 
L 236.326842 356.554932 
L 236.326842 365.433075 
L 280.287839 365.433075 
L 280.287839 374.311219 
L 285.142538 374.311219 
L 285.142538 383.189362 
L 285.957977 383.189362 
L 285.957977 392.067505 
L 285.634852 392.067505 
L 285.634852 400.945648 
L 269.162065 400.945648 
L 269.162065 409.823791 
L 254.673388 409.823791 
L 254.673388 418.701934 
L 219.892005 418.701934 
L 219.892005 427.580077 
L 197.830146 427.580077 
L 197.830146 436.458221 
L 185.54119 436.458221 
L 185.54119 445.336364 
L 161.029 445.336364 
" clip-path="url(#pa3363a3bfd)" style="fill: none; stroke: #fecc5c; stroke-opacity: 0.3; stroke-width: 2; stroke-linecap: square"/>
   </g>
   <g id="line2d_12">
    <path d="M 120.028808 28.063636 
L 120.028808 36.941779 
L 114.776386 36.941779 
L 114.776386 45.819923 
L 127.442604 45.819923 
L 127.442604 54.698066 
L 138.60943 54.698066 
L 138.60943 63.576209 
L 124.301761 63.576209 
L 124.301761 72.454352 
L 151.065624 72.454352 
L 151.065624 81.332495 
L 171.216588 81.332495 
L 171.216588 90.210638 
L 143.091759 90.210638 
L 143.091759 99.088781 
L 127.682669 99.088781 
L 127.682669 107.966925 
L 125.435537 107.966925 
L 125.435537 116.845068 
L 154.833215 116.845068 
L 154.833215 125.723211 
L 173.655556 125.723211 
L 173.655556 134.601354 
L 190.590877 134.601354 
L 190.590877 143.479497 
L 209.308189 143.479497 
L 209.308189 152.35764 
L 206.392054 152.35764 
L 206.392054 161.235783 
L 237.593705 161.235783 
L 237.593705 170.113926 
L 234.526106 170.113926 
L 234.526106 178.99207 
L 235.695795 178.99207 
L 235.695795 187.870213 
L 240.610796 187.870213 
L 240.610796 196.748356 
L 248.626364 196.748356 
L 248.626364 205.626499 
L 231.430227 205.626499 
L 231.430227 214.504642 
L 216.670511 214.504642 
L 216.670511 223.382785 
L 213.683286 223.382785 
L 213.683286 232.260928 
L 198.559424 232.260928 
L 198.559424 241.139072 
L 199.23319 241.139072 
L 199.23319 250.017215 
L 196.245507 250.017215 
L 196.245507 258.895358 
L 205.95996 258.895358 
L 205.95996 267.773501 
L 226.745367 267.773501 
L 226.745367 276.651644 
L 236.298644 276.651644 
L 236.298644 285.529787 
L 220.314967 285.529787 
L 220.314967 294.40793 
L 217.20109 294.40793 
L 217.20109 303.286074 
L 221.853623 303.286074 
L 221.853623 312.164217 
L 217.943292 312.164217 
L 217.943292 321.04236 
L 216.015598 321.04236 
L 216.015598 329.920503 
L 225.451455 329.920503 
L 225.451455 338.798646 
L 220.226763 338.798646 
L 220.226763 347.676789 
L 223.352762 347.676789 
L 223.352762 356.554932 
L 186.467804 356.554932 
L 186.467804 365.433075 
L 192.912898 365.433075 
L 192.912898 374.311219 
L 190.827333 374.311219 
L 190.827333 383.189362 
L 207.280179 383.189362 
L 207.280179 392.067505 
L 204.607211 392.067505 
L 204.607211 400.945648 
L 204.419922 400.945648 
L 204.419922 409.823791 
L 212.589435 409.823791 
L 212.589435 418.701934 
L 189.176709 418.701934 
L 189.176709 427.580077 
L 184.48227 427.580077 
L 184.48227 436.458221 
L 173.876575 436.458221 
L 173.876575 445.336364 
L 164.020298 445.336364 
" clip-path="url(#pa3363a3bfd)" style="fill: none; stroke: #fecc5c; stroke-opacity: 0.3; stroke-width: 2; stroke-linecap: square"/>
   </g>
   <g id="line2d_13">
    <path d="M 113.359576 28.063636 
L 113.359576 36.941779 
L 137.466929 36.941779 
L 137.466929 45.819923 
L 96.278977 45.819923 
L 96.278977 54.698066 
L 141.215784 54.698066 
L 141.215784 63.576209 
L 147.425489 63.576209 
L 147.425489 72.454352 
L 137.100943 72.454352 
L 137.100943 81.332495 
L 142.470434 81.332495 
L 142.470434 90.210638 
L 134.608868 90.210638 
L 134.608868 99.088781 
L 145.838837 99.088781 
L 145.838837 107.966925 
L 119.050136 107.966925 
L 119.050136 116.845068 
L 133.528685 116.845068 
L 133.528685 125.723211 
L 163.687441 125.723211 
L 163.687441 134.601354 
L 170.139648 134.601354 
L 170.139648 143.479497 
L 180.558201 143.479497 
L 180.558201 152.35764 
L 196.113801 152.35764 
L 196.113801 161.235783 
L 188.643648 161.235783 
L 188.643648 170.113926 
L 196.285328 170.113926 
L 196.285328 178.99207 
L 226.256664 178.99207 
L 226.256664 187.870213 
L 241.085182 187.870213 
L 241.085182 196.748356 
L 217.574845 196.748356 
L 217.574845 205.626499 
L 231.480227 205.626499 
L 231.480227 214.504642 
L 241.367733 214.504642 
L 241.367733 223.382785 
L 236.478551 223.382785 
L 236.478551 232.260928 
L 231.175935 232.260928 
L 231.175935 241.139072 
L 264.993181 241.139072 
L 264.993181 250.017215 
L 292.394051 250.017215 
L 292.394051 258.895358 
L 310.275424 258.895358 
L 310.275424 267.773501 
L 300.807046 267.773501 
L 300.807046 276.651644 
L 340.297827 276.651644 
L 340.297827 285.529787 
L 302.438472 285.529787 
L 302.438472 294.40793 
L 314.308075 294.40793 
L 314.308075 303.286074 
L 288.664166 303.286074 
L 288.664166 312.164217 
L 286.261801 312.164217 
L 286.261801 321.04236 
L 274.401166 321.04236 
L 274.401166 329.920503 
L 233.553295 329.920503 
L 233.553295 338.798646 
L 274.55014 338.798646 
L 274.55014 347.676789 
L 245.294212 347.676789 
L 245.294212 356.554932 
L 244.680788 356.554932 
L 244.680788 365.433075 
L 212.68548 365.433075 
L 212.68548 374.311219 
L 172.514364 374.311219 
L 172.514364 383.189362 
L 175.617712 383.189362 
L 175.617712 392.067505 
L 157.2127 392.067505 
L 157.2127 400.945648 
L 181.761976 400.945648 
L 181.761976 409.823791 
L 189.948929 409.823791 
L 189.948929 418.701934 
L 196.230417 418.701934 
L 196.230417 427.580077 
L 184.620815 427.580077 
L 184.620815 436.458221 
L 159.763393 436.458221 
L 159.763393 445.336364 
L 154.12066 445.336364 
" clip-path="url(#pa3363a3bfd)" style="fill: none; stroke: #fecc5c; stroke-opacity: 0.3; stroke-width: 2; stroke-linecap: square"/>
   </g>
   <g id="line2d_14">
    <path d="M 124.03472 28.063636 
L 124.03472 36.941779 
L 121.166007 36.941779 
L 121.166007 45.819923 
L 111.192439 45.819923 
L 111.192439 54.698066 
L 127.653215 54.698066 
L 127.653215 63.576209 
L 131.115032 63.576209 
L 131.115032 72.454352 
L 147.189664 72.454352 
L 147.189664 81.332495 
L 123.447854 81.332495 
L 123.447854 90.210638 
L 120.935901 90.210638 
L 120.935901 99.088781 
L 135.904511 99.088781 
L 135.904511 107.966925 
L 175.118616 107.966925 
L 175.118616 116.845068 
L 145.972481 116.845068 
L 145.972481 125.723211 
L 176.22953 125.723211 
L 176.22953 134.601354 
L 192.271571 134.601354 
L 192.271571 143.479497 
L 227.318482 143.479497 
L 227.318482 152.35764 
L 224.064234 152.35764 
L 224.064234 161.235783 
L 221.280508 161.235783 
L 221.280508 170.113926 
L 231.116875 170.113926 
L 231.116875 178.99207 
L 239.192774 178.99207 
L 239.192774 187.870213 
L 253.145827 187.870213 
L 253.145827 196.748356 
L 312.154643 196.748356 
L 312.154643 205.626499 
L 283.059658 205.626499 
L 283.059658 214.504642 
L 254.754414 214.504642 
L 254.754414 223.382785 
L 254.928067 223.382785 
L 254.928067 232.260928 
L 241.83794 232.260928 
L 241.83794 241.139072 
L 252.243924 241.139072 
L 252.243924 250.017215 
L 254.92583 250.017215 
L 254.92583 258.895358 
L 266.539545 258.895358 
L 266.539545 267.773501 
L 247.775131 267.773501 
L 247.775131 276.651644 
L 240.045877 276.651644 
L 240.045877 285.529787 
L 209.264941 285.529787 
L 209.264941 294.40793 
L 211.205529 294.40793 
L 211.205529 303.286074 
L 196.148354 303.286074 
L 196.148354 312.164217 
L 188.246535 312.164217 
L 188.246535 321.04236 
L 184.970394 321.04236 
L 184.970394 329.920503 
L 151.070109 329.920503 
L 151.070109 338.798646 
L 157.673384 338.798646 
L 157.673384 347.676789 
L 161.036159 347.676789 
L 161.036159 356.554932 
L 161.439226 356.554932 
L 161.439226 365.433075 
L 161.929073 365.433075 
L 161.929073 374.311219 
L 158.790501 374.311219 
L 158.790501 383.189362 
L 166.820792 383.189362 
L 166.820792 392.067505 
L 178.686852 392.067505 
L 178.686852 400.945648 
L 182.425218 400.945648 
L 182.425218 409.823791 
L 174.623496 409.823791 
L 174.623496 418.701934 
L 163.257727 418.701934 
L 163.257727 427.580077 
L 154.920896 427.580077 
L 154.920896 436.458221 
L 130.527233 436.458221 
L 130.527233 445.336364 
L 168.79449 445.336364 
" clip-path="url(#pa3363a3bfd)" style="fill: none; stroke: #fecc5c; stroke-opacity: 0.3; stroke-width: 2; stroke-linecap: square"/>
   </g>
   <g id="line2d_15">
    <path d="M 127.731071 28.063636 
L 127.731071 36.941779 
L 117.126528 36.941779 
L 117.126528 45.819923 
L 122.715315 45.819923 
L 122.715315 54.698066 
L 133.815501 54.698066 
L 133.815501 63.576209 
L 136.627352 63.576209 
L 136.627352 72.454352 
L 140.604007 72.454352 
L 140.604007 81.332495 
L 147.129104 81.332495 
L 147.129104 90.210638 
L 136.560027 90.210638 
L 136.560027 99.088781 
L 113.775083 99.088781 
L 113.775083 107.966925 
L 121.753323 107.966925 
L 121.753323 116.845068 
L 122.369524 116.845068 
L 122.369524 125.723211 
L 137.424853 125.723211 
L 137.424853 134.601354 
L 155.197239 134.601354 
L 155.197239 143.479497 
L 164.38816 143.479497 
L 164.38816 152.35764 
L 199.15127 152.35764 
L 199.15127 161.235783 
L 167.004604 161.235783 
L 167.004604 170.113926 
L 180.469768 170.113926 
L 180.469768 178.99207 
L 175.588355 178.99207 
L 175.588355 187.870213 
L 203.795922 187.870213 
L 203.795922 196.748356 
L 238.127579 196.748356 
L 238.127579 205.626499 
L 248.4045 205.626499 
L 248.4045 214.504642 
L 222.175832 214.504642 
L 222.175832 223.382785 
L 248.998248 223.382785 
L 248.998248 232.260928 
L 247.522873 232.260928 
L 247.522873 241.139072 
L 242.100295 241.139072 
L 242.100295 250.017215 
L 231.745918 250.017215 
L 231.745918 258.895358 
L 229.2572 258.895358 
L 229.2572 267.773501 
L 243.993975 267.773501 
L 243.993975 276.651644 
L 240.461538 276.651644 
L 240.461538 285.529787 
L 264.413152 285.529787 
L 264.413152 294.40793 
L 244.842858 294.40793 
L 244.842858 303.286074 
L 268.833642 303.286074 
L 268.833642 312.164217 
L 270.747293 312.164217 
L 270.747293 321.04236 
L 260.207223 321.04236 
L 260.207223 329.920503 
L 243.073188 329.920503 
L 243.073188 338.798646 
L 222.385513 338.798646 
L 222.385513 347.676789 
L 229.509254 347.676789 
L 229.509254 356.554932 
L 225.261196 356.554932 
L 225.261196 365.433075 
L 229.903449 365.433075 
L 229.903449 374.311219 
L 247.532442 374.311219 
L 247.532442 383.189362 
L 207.350639 383.189362 
L 207.350639 392.067505 
L 190.125124 392.067505 
L 190.125124 400.945648 
L 190.345249 400.945648 
L 190.345249 409.823791 
L 198.900822 409.823791 
L 198.900822 418.701934 
L 214.819388 418.701934 
L 214.819388 427.580077 
L 175.540754 427.580077 
L 175.540754 436.458221 
L 172.052923 436.458221 
L 172.052923 445.336364 
L 163.40907 445.336364 
" clip-path="url(#pa3363a3bfd)" style="fill: none; stroke: #fecc5c; stroke-opacity: 0.3; stroke-width: 2; stroke-linecap: square"/>
   </g>
   <g id="line2d_16">
    <path d="M 133.881835 28.063636 
L 133.881835 36.941779 
L 119.604165 36.941779 
L 119.604165 45.819923 
L 104.382195 45.819923 
L 104.382195 54.698066 
L 136.944777 54.698066 
L 136.944777 63.576209 
L 143.000789 63.576209 
L 143.000789 72.454352 
L 128.454916 72.454352 
L 128.454916 81.332495 
L 145.95977 81.332495 
L 145.95977 90.210638 
L 128.484598 90.210638 
L 128.484598 99.088781 
L 139.83923 99.088781 
L 139.83923 107.966925 
L 127.133487 107.966925 
L 127.133487 116.845068 
L 143.002187 116.845068 
L 143.002187 125.723211 
L 159.039825 125.723211 
L 159.039825 134.601354 
L 149.818006 134.601354 
L 149.818006 143.479497 
L 185.91761 143.479497 
L 185.91761 152.35764 
L 195.48253 152.35764 
L 195.48253 161.235783 
L 230.82206 161.235783 
L 230.82206 170.113926 
L 217.440881 170.113926 
L 217.440881 178.99207 
L 241.365445 178.99207 
L 241.365445 187.870213 
L 280.679257 187.870213 
L 280.679257 196.748356 
L 278.47669 196.748356 
L 278.47669 205.626499 
L 229.258135 205.626499 
L 229.258135 214.504642 
L 224.373356 214.504642 
L 224.373356 223.382785 
L 237.465049 223.382785 
L 237.465049 232.260928 
L 228.067355 232.260928 
L 228.067355 241.139072 
L 209.683012 241.139072 
L 209.683012 250.017215 
L 216.897398 250.017215 
L 216.897398 258.895358 
L 210.671717 258.895358 
L 210.671717 267.773501 
L 214.945501 267.773501 
L 214.945501 276.651644 
L 231.393436 276.651644 
L 231.393436 285.529787 
L 232.891467 285.529787 
L 232.891467 294.40793 
L 228.984156 294.40793 
L 228.984156 303.286074 
L 248.305822 303.286074 
L 248.305822 312.164217 
L 235.495927 312.164217 
L 235.495927 321.04236 
L 234.129359 321.04236 
L 234.129359 329.920503 
L 236.095329 329.920503 
L 236.095329 338.798646 
L 225.633559 338.798646 
L 225.633559 347.676789 
L 209.53953 347.676789 
L 209.53953 356.554932 
L 208.508685 356.554932 
L 208.508685 365.433075 
L 216.975576 365.433075 
L 216.975576 374.311219 
L 204.46436 374.311219 
L 204.46436 383.189362 
L 183.933662 383.189362 
L 183.933662 392.067505 
L 198.525358 392.067505 
L 198.525358 400.945648 
L 207.488548 400.945648 
L 207.488548 409.823791 
L 194.432375 409.823791 
L 194.432375 418.701934 
L 191.309356 418.701934 
L 191.309356 427.580077 
L 208.202105 427.580077 
L 208.202105 436.458221 
L 198.397312 436.458221 
L 198.397312 445.336364 
L 160.834994 445.336364 
" clip-path="url(#pa3363a3bfd)" style="fill: none; stroke: #fecc5c; stroke-opacity: 0.3; stroke-width: 2; stroke-linecap: square"/>
   </g>
   <g id="line2d_17">
    <path d="M 120.806443 28.063636 
L 120.806443 36.941779 
L 123.884562 36.941779 
L 123.884562 45.819923 
L 119.676953 45.819923 
L 119.676953 54.698066 
L 138.117884 54.698066 
L 138.117884 63.576209 
L 139.722425 63.576209 
L 139.722425 72.454352 
L 139.941503 72.454352 
L 139.941503 81.332495 
L 140.108597 81.332495 
L 140.108597 90.210638 
L 146.073203 90.210638 
L 146.073203 99.088781 
L 130.423049 99.088781 
L 130.423049 107.966925 
L 127.274912 107.966925 
L 127.274912 116.845068 
L 141.277282 116.845068 
L 141.277282 125.723211 
L 136.007206 125.723211 
L 136.007206 134.601354 
L 168.045429 134.601354 
L 168.045429 143.479497 
L 201.758455 143.479497 
L 201.758455 152.35764 
L 201.272162 152.35764 
L 201.272162 161.235783 
L 185.470192 161.235783 
L 185.470192 170.113926 
L 198.532039 170.113926 
L 198.532039 178.99207 
L 236.467955 178.99207 
L 236.467955 187.870213 
L 241.299734 187.870213 
L 241.299734 196.748356 
L 243.591228 196.748356 
L 243.591228 205.626499 
L 233.506122 205.626499 
L 233.506122 214.504642 
L 258.740085 214.504642 
L 258.740085 223.382785 
L 279.048239 223.382785 
L 279.048239 232.260928 
L 297.367766 232.260928 
L 297.367766 241.139072 
L 284.606906 241.139072 
L 284.606906 250.017215 
L 279.3989 250.017215 
L 279.3989 258.895358 
L 273.7623 258.895358 
L 273.7623 267.773501 
L 271.902787 267.773501 
L 271.902787 276.651644 
L 234.050459 276.651644 
L 234.050459 285.529787 
L 249.764916 285.529787 
L 249.764916 294.40793 
L 194.76036 294.40793 
L 194.76036 303.286074 
L 192.050958 303.286074 
L 192.050958 312.164217 
L 198.521453 312.164217 
L 198.521453 321.04236 
L 225.252644 321.04236 
L 225.252644 329.920503 
L 208.605991 329.920503 
L 208.605991 338.798646 
L 202.557318 338.798646 
L 202.557318 347.676789 
L 215.05503 347.676789 
L 215.05503 356.554932 
L 225.834698 356.554932 
L 225.834698 365.433075 
L 219.956872 365.433075 
L 219.956872 374.311219 
L 208.707343 374.311219 
L 208.707343 383.189362 
L 189.017932 383.189362 
L 189.017932 392.067505 
L 192.622415 392.067505 
L 192.622415 400.945648 
L 192.914342 400.945648 
L 192.914342 409.823791 
L 179.765139 409.823791 
L 179.765139 418.701934 
L 157.064251 418.701934 
L 157.064251 427.580077 
L 168.836289 427.580077 
L 168.836289 436.458221 
L 182.79033 436.458221 
L 182.79033 445.336364 
L 165.552379 445.336364 
" clip-path="url(#pa3363a3bfd)" style="fill: none; stroke: #fecc5c; stroke-opacity: 0.3; stroke-width: 2; stroke-linecap: square"/>
   </g>
   <g id="line2d_18">
    <path d="M 119.46525 28.063636 
L 119.46525 36.941779 
L 124.382725 36.941779 
L 124.382725 45.819923 
L 129.595299 45.819923 
L 129.595299 54.698066 
L 129.54838 54.698066 
L 129.54838 63.576209 
L 107.671163 63.576209 
L 107.671163 72.454352 
L 115.441305 72.454352 
L 115.441305 81.332495 
L 136.945644 81.332495 
L 136.945644 90.210638 
L 184.185589 90.210638 
L 184.185589 99.088781 
L 188.138258 99.088781 
L 188.138258 107.966925 
L 166.722684 107.966925 
L 166.722684 116.845068 
L 188.0047 116.845068 
L 188.0047 125.723211 
L 196.234169 125.723211 
L 196.234169 134.601354 
L 196.510009 134.601354 
L 196.510009 143.479497 
L 211.795148 143.479497 
L 211.795148 152.35764 
L 220.520398 152.35764 
L 220.520398 161.235783 
L 259.156753 161.235783 
L 259.156753 170.113926 
L 257.189034 170.113926 
L 257.189034 178.99207 
L 282.530431 178.99207 
L 282.530431 187.870213 
L 275.97707 187.870213 
L 275.97707 196.748356 
L 264.466884 196.748356 
L 264.466884 205.626499 
L 303.884682 205.626499 
L 303.884682 214.504642 
L 332.927482 214.504642 
L 332.927482 223.382785 
L 324.782129 223.382785 
L 324.782129 232.260928 
L 307.997485 232.260928 
L 307.997485 241.139072 
L 340.135166 241.139072 
L 340.135166 250.017215 
L 331.311838 250.017215 
L 331.311838 258.895358 
L 320.720517 258.895358 
L 320.720517 267.773501 
L 292.09588 267.773501 
L 292.09588 276.651644 
L 262.23443 276.651644 
L 262.23443 285.529787 
L 232.893735 285.529787 
L 232.893735 294.40793 
L 256.753707 294.40793 
L 256.753707 303.286074 
L 241.773042 303.286074 
L 241.773042 312.164217 
L 215.543825 312.164217 
L 215.543825 321.04236 
L 210.817273 321.04236 
L 210.817273 329.920503 
L 206.834001 329.920503 
L 206.834001 338.798646 
L 177.151705 338.798646 
L 177.151705 347.676789 
L 189.714284 347.676789 
L 189.714284 356.554932 
L 171.892439 356.554932 
L 171.892439 365.433075 
L 174.764868 365.433075 
L 174.764868 374.311219 
L 158.517996 374.311219 
L 158.517996 383.189362 
L 167.897392 383.189362 
L 167.897392 392.067505 
L 148.853549 392.067505 
L 148.853549 400.945648 
L 149.44118 400.945648 
L 149.44118 409.823791 
L 152.252764 409.823791 
L 152.252764 418.701934 
L 152.832544 418.701934 
L 152.832544 427.580077 
L 154.92894 427.580077 
L 154.92894 436.458221 
L 170.171385 436.458221 
L 170.171385 445.336364 
L 171.956746 445.336364 
" clip-path="url(#pa3363a3bfd)" style="fill: none; stroke: #fecc5c; stroke-opacity: 0.3; stroke-width: 2; stroke-linecap: square"/>
   </g>
   <g id="line2d_19">
    <path d="M 129.428581 28.063636 
L 129.428581 36.941779 
L 128.195061 36.941779 
L 128.195061 45.819923 
L 109.176416 45.819923 
L 109.176416 54.698066 
L 137.163407 54.698066 
L 137.163407 63.576209 
L 140.004315 63.576209 
L 140.004315 72.454352 
L 128.690484 72.454352 
L 128.690484 81.332495 
L 128.160942 81.332495 
L 128.160942 90.210638 
L 123.879643 90.210638 
L 123.879643 99.088781 
L 146.712711 99.088781 
L 146.712711 107.966925 
L 165.912376 107.966925 
L 165.912376 116.845068 
L 179.677626 116.845068 
L 179.677626 125.723211 
L 197.52377 125.723211 
L 197.52377 134.601354 
L 195.50843 134.601354 
L 195.50843 143.479497 
L 233.898099 143.479497 
L 233.898099 152.35764 
L 214.731438 152.35764 
L 214.731438 161.235783 
L 223.82426 161.235783 
L 223.82426 170.113926 
L 194.366522 170.113926 
L 194.366522 178.99207 
L 175.53446 178.99207 
L 175.53446 187.870213 
L 169.636637 187.870213 
L 169.636637 196.748356 
L 191.625321 196.748356 
L 191.625321 205.626499 
L 203.712609 205.626499 
L 203.712609 214.504642 
L 205.930949 214.504642 
L 205.930949 223.382785 
L 208.967736 223.382785 
L 208.967736 232.260928 
L 214.337507 232.260928 
L 214.337507 241.139072 
L 235.02445 241.139072 
L 235.02445 250.017215 
L 265.354948 250.017215 
L 265.354948 258.895358 
L 250.995853 258.895358 
L 250.995853 267.773501 
L 249.787898 267.773501 
L 249.787898 276.651644 
L 253.909547 276.651644 
L 253.909547 285.529787 
L 259.410079 285.529787 
L 259.410079 294.40793 
L 269.377746 294.40793 
L 269.377746 303.286074 
L 330.993676 303.286074 
L 330.993676 312.164217 
L 299.399721 312.164217 
L 299.399721 321.04236 
L 302.819701 321.04236 
L 302.819701 329.920503 
L 305.142058 329.920503 
L 305.142058 338.798646 
L 282.888354 338.798646 
L 282.888354 347.676789 
L 290.366183 347.676789 
L 290.366183 356.554932 
L 299.663928 356.554932 
L 299.663928 365.433075 
L 288.212121 365.433075 
L 288.212121 374.311219 
L 255.18905 374.311219 
L 255.18905 383.189362 
L 218.919652 383.189362 
L 218.919652 392.067505 
L 219.177635 392.067505 
L 219.177635 400.945648 
L 179.431963 400.945648 
L 179.431963 409.823791 
L 159.199343 409.823791 
L 159.199343 418.701934 
L 165.233372 418.701934 
L 165.233372 427.580077 
L 138.56671 427.580077 
L 138.56671 436.458221 
L 162.81246 436.458221 
L 162.81246 445.336364 
L 160.246061 445.336364 
" clip-path="url(#pa3363a3bfd)" style="fill: none; stroke: #fecc5c; stroke-opacity: 0.3; stroke-width: 2; stroke-linecap: square"/>
   </g>
   <g id="line2d_20">
    <path d="M 125.105708 28.063636 
L 125.105708 36.941779 
L 121.487755 36.941779 
L 121.487755 45.819923 
L 115.92933 45.819923 
L 115.92933 54.698066 
L 130.623875 54.698066 
L 130.623875 63.576209 
L 133.358657 63.576209 
L 133.358657 72.454352 
L 151.702722 72.454352 
L 151.702722 81.332495 
L 130.349137 81.332495 
L 130.349137 90.210638 
L 128.048676 90.210638 
L 128.048676 99.088781 
L 146.903819 99.088781 
L 146.903819 107.966925 
L 172.834799 107.966925 
L 172.834799 116.845068 
L 193.78396 116.845068 
L 193.78396 125.723211 
L 192.829524 125.723211 
L 192.829524 134.601354 
L 186.349998 134.601354 
L 186.349998 143.479497 
L 200.238002 143.479497 
L 200.238002 152.35764 
L 174.60179 152.35764 
L 174.60179 161.235783 
L 187.39151 161.235783 
L 187.39151 170.113926 
L 187.61436 170.113926 
L 187.61436 178.99207 
L 200.131921 178.99207 
L 200.131921 187.870213 
L 214.867161 187.870213 
L 214.867161 196.748356 
L 202.268341 196.748356 
L 202.268341 205.626499 
L 236.718637 205.626499 
L 236.718637 214.504642 
L 231.053757 214.504642 
L 231.053757 223.382785 
L 244.088382 223.382785 
L 244.088382 232.260928 
L 255.659012 232.260928 
L 255.659012 241.139072 
L 251.852312 241.139072 
L 251.852312 250.017215 
L 215.378063 250.017215 
L 215.378063 258.895358 
L 231.589339 258.895358 
L 231.589339 267.773501 
L 219.277605 267.773501 
L 219.277605 276.651644 
L 218.174246 276.651644 
L 218.174246 285.529787 
L 195.875921 285.529787 
L 195.875921 294.40793 
L 189.53699 294.40793 
L 189.53699 303.286074 
L 185.665753 303.286074 
L 185.665753 312.164217 
L 201.619539 312.164217 
L 201.619539 321.04236 
L 210.647067 321.04236 
L 210.647067 329.920503 
L 203.008448 329.920503 
L 203.008448 338.798646 
L 222.541503 338.798646 
L 222.541503 347.676789 
L 227.064404 347.676789 
L 227.064404 356.554932 
L 207.855958 356.554932 
L 207.855958 365.433075 
L 166.159509 365.433075 
L 166.159509 374.311219 
L 191.15064 374.311219 
L 191.15064 383.189362 
L 207.670184 383.189362 
L 207.670184 392.067505 
L 203.032142 392.067505 
L 203.032142 400.945648 
L 217.028616 400.945648 
L 217.028616 409.823791 
L 193.955935 409.823791 
L 193.955935 418.701934 
L 168.905727 418.701934 
L 168.905727 427.580077 
L 192.183478 427.580077 
L 192.183478 436.458221 
L 201.907073 436.458221 
L 201.907073 445.336364 
L 172.599218 445.336364 
" clip-path="url(#pa3363a3bfd)" style="fill: none; stroke: #fecc5c; stroke-opacity: 0.3; stroke-width: 2; stroke-linecap: square"/>
   </g>
   <g id="line2d_21">
    <path d="M 126.704039 28.063636 
L 126.704039 36.941779 
L 128.689665 36.941779 
L 128.689665 45.819923 
L 114.516893 45.819923 
L 114.516893 54.698066 
L 138.030096 54.698066 
L 138.030096 63.576209 
L 137.611929 63.576209 
L 137.611929 72.454352 
L 125.948646 72.454352 
L 125.948646 81.332495 
L 138.062614 81.332495 
L 138.062614 90.210638 
L 121.27021 90.210638 
L 121.27021 99.088781 
L 122.548576 99.088781 
L 122.548576 107.966925 
L 146.806081 107.966925 
L 146.806081 116.845068 
L 139.256767 116.845068 
L 139.256767 125.723211 
L 121.460486 125.723211 
L 121.460486 134.601354 
L 160.394109 134.601354 
L 160.394109 143.479497 
L 186.276671 143.479497 
L 186.276671 152.35764 
L 216.817959 152.35764 
L 216.817959 161.235783 
L 193.910033 161.235783 
L 193.910033 170.113926 
L 227.090456 170.113926 
L 227.090456 178.99207 
L 223.178397 178.99207 
L 223.178397 187.870213 
L 205.828203 187.870213 
L 205.828203 196.748356 
L 240.560033 196.748356 
L 240.560033 205.626499 
L 217.525251 205.626499 
L 217.525251 214.504642 
L 274.094535 214.504642 
L 274.094535 223.382785 
L 233.180404 223.382785 
L 233.180404 232.260928 
L 226.014198 232.260928 
L 226.014198 241.139072 
L 223.088545 241.139072 
L 223.088545 250.017215 
L 245.175165 250.017215 
L 245.175165 258.895358 
L 234.603725 258.895358 
L 234.603725 267.773501 
L 234.805169 267.773501 
L 234.805169 276.651644 
L 244.516602 276.651644 
L 244.516602 285.529787 
L 246.675423 285.529787 
L 246.675423 294.40793 
L 265.690438 294.40793 
L 265.690438 303.286074 
L 258.189728 303.286074 
L 258.189728 312.164217 
L 226.660427 312.164217 
L 226.660427 321.04236 
L 227.730838 321.04236 
L 227.730838 329.920503 
L 240.521056 329.920503 
L 240.521056 338.798646 
L 281.503929 338.798646 
L 281.503929 347.676789 
L 284.847398 347.676789 
L 284.847398 356.554932 
L 298.145478 356.554932 
L 298.145478 365.433075 
L 278.400952 365.433075 
L 278.400952 374.311219 
L 261.001073 374.311219 
L 261.001073 383.189362 
L 241.002479 383.189362 
L 241.002479 392.067505 
L 224.919615 392.067505 
L 224.919615 400.945648 
L 228.393693 400.945648 
L 228.393693 409.823791 
L 193.816378 409.823791 
L 193.816378 418.701934 
L 169.435482 418.701934 
L 169.435482 427.580077 
L 168.115406 427.580077 
L 168.115406 436.458221 
L 148.853147 436.458221 
L 148.853147 445.336364 
L 165.234893 445.336364 
" clip-path="url(#pa3363a3bfd)" style="fill: none; stroke: #fecc5c; stroke-opacity: 0.3; stroke-width: 2; stroke-linecap: square"/>
   </g>
   <g id="line2d_22">
    <path d="M 126.055675 28.063636 
L 126.055675 36.941779 
L 115.470797 36.941779 
L 115.470797 45.819923 
L 128.676469 45.819923 
L 128.676469 54.698066 
L 140.314315 54.698066 
L 140.314315 63.576209 
L 135.867352 63.576209 
L 135.867352 72.454352 
L 140.07614 72.454352 
L 140.07614 81.332495 
L 126.152665 81.332495 
L 126.152665 90.210638 
L 130.124024 90.210638 
L 130.124024 99.088781 
L 144.620159 99.088781 
L 144.620159 107.966925 
L 178.92823 107.966925 
L 178.92823 116.845068 
L 168.069163 116.845068 
L 168.069163 125.723211 
L 182.43951 125.723211 
L 182.43951 134.601354 
L 183.663201 134.601354 
L 183.663201 143.479497 
L 192.935534 143.479497 
L 192.935534 152.35764 
L 189.854135 152.35764 
L 189.854135 161.235783 
L 217.797939 161.235783 
L 217.797939 170.113926 
L 227.316286 170.113926 
L 227.316286 178.99207 
L 233.041396 178.99207 
L 233.041396 187.870213 
L 209.355972 187.870213 
L 209.355972 196.748356 
L 216.201535 196.748356 
L 216.201535 205.626499 
L 239.844972 205.626499 
L 239.844972 214.504642 
L 239.169772 214.504642 
L 239.169772 223.382785 
L 280.173785 223.382785 
L 280.173785 232.260928 
L 276.768611 232.260928 
L 276.768611 241.139072 
L 281.875559 241.139072 
L 281.875559 250.017215 
L 295.109758 250.017215 
L 295.109758 258.895358 
L 301.248414 258.895358 
L 301.248414 267.773501 
L 294.783094 267.773501 
L 294.783094 276.651644 
L 282.273485 276.651644 
L 282.273485 285.529787 
L 297.017979 285.529787 
L 297.017979 294.40793 
L 218.259847 294.40793 
L 218.259847 303.286074 
L 203.400101 303.286074 
L 203.400101 312.164217 
L 197.290273 312.164217 
L 197.290273 321.04236 
L 214.219041 321.04236 
L 214.219041 329.920503 
L 194.639341 329.920503 
L 194.639341 338.798646 
L 203.188335 338.798646 
L 203.188335 347.676789 
L 195.562467 347.676789 
L 195.562467 356.554932 
L 229.369118 356.554932 
L 229.369118 365.433075 
L 234.42215 365.433075 
L 234.42215 374.311219 
L 216.665772 374.311219 
L 216.665772 383.189362 
L 183.360211 383.189362 
L 183.360211 392.067505 
L 161.405394 392.067505 
L 161.405394 400.945648 
L 164.695325 400.945648 
L 164.695325 409.823791 
L 167.032304 409.823791 
L 167.032304 418.701934 
L 176.264988 418.701934 
L 176.264988 427.580077 
L 156.679015 427.580077 
L 156.679015 436.458221 
L 166.478977 436.458221 
L 166.478977 445.336364 
L 163.691667 445.336364 
" clip-path="url(#pa3363a3bfd)" style="fill: none; stroke: #fecc5c; stroke-opacity: 0.3; stroke-width: 2; stroke-linecap: square"/>
   </g>
   <g id="line2d_23">
    <path d="M 124.740177 28.063636 
L 124.740177 36.941779 
L 121.677886 36.941779 
L 121.677886 45.819923 
L 124.461389 45.819923 
L 124.461389 54.698066 
L 130.754486 54.698066 
L 130.754486 63.576209 
L 119.237395 63.576209 
L 119.237395 72.454352 
L 134.930147 72.454352 
L 134.930147 81.332495 
L 118.982035 81.332495 
L 118.982035 90.210638 
L 155.408481 90.210638 
L 155.408481 99.088781 
L 163.264647 99.088781 
L 163.264647 107.966925 
L 147.860619 107.966925 
L 147.860619 116.845068 
L 156.199031 116.845068 
L 156.199031 125.723211 
L 171.740664 125.723211 
L 171.740664 134.601354 
L 191.096959 134.601354 
L 191.096959 143.479497 
L 209.798662 143.479497 
L 209.798662 152.35764 
L 198.911977 152.35764 
L 198.911977 161.235783 
L 196.679025 161.235783 
L 196.679025 170.113926 
L 246.055745 170.113926 
L 246.055745 178.99207 
L 245.57479 178.99207 
L 245.57479 187.870213 
L 250.450346 187.870213 
L 250.450346 196.748356 
L 341.733523 196.748356 
L 341.733523 205.626499 
L 320.397982 205.626499 
L 320.397982 214.504642 
L 305.50838 214.504642 
L 305.50838 223.382785 
L 294.433124 223.382785 
L 294.433124 232.260928 
L 275.279366 232.260928 
L 275.279366 241.139072 
L 281.292051 241.139072 
L 281.292051 250.017215 
L 307.349568 250.017215 
L 307.349568 258.895358 
L 288.822433 258.895358 
L 288.822433 267.773501 
L 268.623707 267.773501 
L 268.623707 276.651644 
L 273.185178 276.651644 
L 273.185178 285.529787 
L 257.194739 285.529787 
L 257.194739 294.40793 
L 251.284149 294.40793 
L 251.284149 303.286074 
L 236.974454 303.286074 
L 236.974454 312.164217 
L 244.390956 312.164217 
L 244.390956 321.04236 
L 218.974075 321.04236 
L 218.974075 329.920503 
L 203.909742 329.920503 
L 203.909742 338.798646 
L 201.203329 338.798646 
L 201.203329 347.676789 
L 195.443797 347.676789 
L 195.443797 356.554932 
L 188.182807 356.554932 
L 188.182807 365.433075 
L 164.676222 365.433075 
L 164.676222 374.311219 
L 171.383174 374.311219 
L 171.383174 383.189362 
L 148.220315 383.189362 
L 148.220315 392.067505 
L 117.854096 392.067505 
L 117.854096 400.945648 
L 129.678126 400.945648 
L 129.678126 409.823791 
L 126.601052 409.823791 
L 126.601052 418.701934 
L 130.543687 418.701934 
L 130.543687 427.580077 
L 136.405179 427.580077 
L 136.405179 436.458221 
L 152.389504 436.458221 
L 152.389504 445.336364 
L 177.115423 445.336364 
" clip-path="url(#pa3363a3bfd)" style="fill: none; stroke: #fecc5c; stroke-opacity: 0.3; stroke-width: 2; stroke-linecap: square"/>
   </g>
   <g id="line2d_24">
    <path d="M 138.862562 28.063636 
L 138.862562 36.941779 
L 107.684399 36.941779 
L 107.684399 45.819923 
L 131.10751 45.819923 
L 131.10751 54.698066 
L 129.410467 54.698066 
L 129.410467 63.576209 
L 122.487225 63.576209 
L 122.487225 72.454352 
L 139.169813 72.454352 
L 139.169813 81.332495 
L 118.601907 81.332495 
L 118.601907 90.210638 
L 154.255026 90.210638 
L 154.255026 99.088781 
L 150.930323 99.088781 
L 150.930323 107.966925 
L 171.707625 107.966925 
L 171.707625 116.845068 
L 189.857328 116.845068 
L 189.857328 125.723211 
L 212.092373 125.723211 
L 212.092373 134.601354 
L 213.111686 134.601354 
L 213.111686 143.479497 
L 226.630795 143.479497 
L 226.630795 152.35764 
L 238.03791 152.35764 
L 238.03791 161.235783 
L 243.977522 161.235783 
L 243.977522 170.113926 
L 232.723753 170.113926 
L 232.723753 178.99207 
L 231.466021 178.99207 
L 231.466021 187.870213 
L 227.497484 187.870213 
L 227.497484 196.748356 
L 209.451508 196.748356 
L 209.451508 205.626499 
L 232.021707 205.626499 
L 232.021707 214.504642 
L 210.331396 214.504642 
L 210.331396 223.382785 
L 202.107826 223.382785 
L 202.107826 232.260928 
L 217.905149 232.260928 
L 217.905149 241.139072 
L 215.662119 241.139072 
L 215.662119 250.017215 
L 184.620815 250.017215 
L 184.620815 258.895358 
L 188.638218 258.895358 
L 188.638218 267.773501 
L 189.612351 267.773501 
L 189.612351 276.651644 
L 199.730507 276.651644 
L 199.730507 285.529787 
L 210.874869 285.529787 
L 210.874869 294.40793 
L 247.477001 294.40793 
L 247.477001 303.286074 
L 285.259073 303.286074 
L 285.259073 312.164217 
L 273.737813 312.164217 
L 273.737813 321.04236 
L 252.863714 321.04236 
L 252.863714 329.920503 
L 242.662337 329.920503 
L 242.662337 338.798646 
L 222.919956 338.798646 
L 222.919956 347.676789 
L 223.34785 347.676789 
L 223.34785 356.554932 
L 217.856084 356.554932 
L 217.856084 365.433075 
L 215.894304 365.433075 
L 215.894304 374.311219 
L 187.906409 374.311219 
L 187.906409 383.189362 
L 179.439737 383.189362 
L 179.439737 392.067505 
L 173.1354 392.067505 
L 173.1354 400.945648 
L 153.733635 400.945648 
L 153.733635 409.823791 
L 162.37643 409.823791 
L 162.37643 418.701934 
L 183.500551 418.701934 
L 183.500551 427.580077 
L 187.996586 427.580077 
L 187.996586 436.458221 
L 192.272252 436.458221 
L 192.272252 445.336364 
L 161.858929 445.336364 
" clip-path="url(#pa3363a3bfd)" style="fill: none; stroke: #fecc5c; stroke-opacity: 0.3; stroke-width: 2; stroke-linecap: square"/>
   </g>
   <g id="line2d_25">
    <path d="M 127.234481 28.063636 
L 127.234481 36.941779 
L 120.204054 36.941779 
L 120.204054 45.819923 
L 115.985513 45.819923 
L 115.985513 54.698066 
L 128.932929 54.698066 
L 128.932929 63.576209 
L 143.281652 63.576209 
L 143.281652 72.454352 
L 155.440701 72.454352 
L 155.440701 81.332495 
L 134.816175 81.332495 
L 134.816175 90.210638 
L 148.81541 90.210638 
L 148.81541 99.088781 
L 139.162047 99.088781 
L 139.162047 107.966925 
L 119.398218 107.966925 
L 119.398218 116.845068 
L 156.817708 116.845068 
L 156.817708 125.723211 
L 173.34258 125.723211 
L 173.34258 134.601354 
L 177.376914 134.601354 
L 177.376914 143.479497 
L 185.338292 143.479497 
L 185.338292 152.35764 
L 178.330923 152.35764 
L 178.330923 161.235783 
L 183.623106 161.235783 
L 183.623106 170.113926 
L 188.743303 170.113926 
L 188.743303 178.99207 
L 173.61634 178.99207 
L 173.61634 187.870213 
L 194.777454 187.870213 
L 194.777454 196.748356 
L 201.501072 196.748356 
L 201.501072 205.626499 
L 230.648753 205.626499 
L 230.648753 214.504642 
L 257.854004 214.504642 
L 257.854004 223.382785 
L 271.768457 223.382785 
L 271.768457 232.260928 
L 298.699313 232.260928 
L 298.699313 241.139072 
L 311.729952 241.139072 
L 311.729952 250.017215 
L 311.823384 250.017215 
L 311.823384 258.895358 
L 289.457944 258.895358 
L 289.457944 267.773501 
L 249.000098 267.773501 
L 249.000098 276.651644 
L 252.73281 276.651644 
L 252.73281 285.529787 
L 257.876894 285.529787 
L 257.876894 294.40793 
L 244.373282 294.40793 
L 244.373282 303.286074 
L 235.836695 303.286074 
L 235.836695 312.164217 
L 248.96046 312.164217 
L 248.96046 321.04236 
L 246.920645 321.04236 
L 246.920645 329.920503 
L 229.485642 329.920503 
L 229.485642 338.798646 
L 204.773604 338.798646 
L 204.773604 347.676789 
L 218.984356 347.676789 
L 218.984356 356.554932 
L 205.667993 356.554932 
L 205.667993 365.433075 
L 201.302099 365.433075 
L 201.302099 374.311219 
L 195.010707 374.311219 
L 195.010707 383.189362 
L 171.388233 383.189362 
L 171.388233 392.067505 
L 185.587753 392.067505 
L 185.587753 400.945648 
L 189.669114 400.945648 
L 189.669114 409.823791 
L 192.587038 409.823791 
L 192.587038 418.701934 
L 186.018261 418.701934 
L 186.018261 427.580077 
L 188.974501 427.580077 
L 188.974501 436.458221 
L 184.160798 436.458221 
L 184.160798 445.336364 
L 165.620657 445.336364 
" clip-path="url(#pa3363a3bfd)" style="fill: none; stroke: #fecc5c; stroke-opacity: 0.3; stroke-width: 2; stroke-linecap: square"/>
   </g>
   <g id="line2d_26">
    <path d="M 122.310125 28.063636 
L 122.310125 36.941779 
L 115.225585 36.941779 
L 115.225585 45.819923 
L 122.722156 45.819923 
L 122.722156 54.698066 
L 144.147919 54.698066 
L 144.147919 63.576209 
L 137.072259 63.576209 
L 137.072259 72.454352 
L 110.974124 72.454352 
L 110.974124 81.332495 
L 121.710624 81.332495 
L 121.710624 90.210638 
L 160.403398 90.210638 
L 160.403398 99.088781 
L 184.332224 99.088781 
L 184.332224 107.966925 
L 175.082786 107.966925 
L 175.082786 116.845068 
L 206.782171 116.845068 
L 206.782171 125.723211 
L 205.996039 125.723211 
L 205.996039 134.601354 
L 236.344556 134.601354 
L 236.344556 143.479497 
L 264.895327 143.479497 
L 264.895327 152.35764 
L 268.820758 152.35764 
L 268.820758 161.235783 
L 274.952886 161.235783 
L 274.952886 170.113926 
L 269.857551 170.113926 
L 269.857551 178.99207 
L 274.872024 178.99207 
L 274.872024 187.870213 
L 270.564814 187.870213 
L 270.564814 196.748356 
L 263.336913 196.748356 
L 263.336913 205.626499 
L 275.065719 205.626499 
L 275.065719 214.504642 
L 273.43228 214.504642 
L 273.43228 223.382785 
L 274.005436 223.382785 
L 274.005436 232.260928 
L 273.722845 232.260928 
L 273.722845 241.139072 
L 275.627425 241.139072 
L 275.627425 250.017215 
L 258.422686 250.017215 
L 258.422686 258.895358 
L 248.944058 258.895358 
L 248.944058 267.773501 
L 234.509185 267.773501 
L 234.509185 276.651644 
L 236.717 276.651644 
L 236.717 285.529787 
L 216.151677 285.529787 
L 216.151677 294.40793 
L 185.111771 294.40793 
L 185.111771 303.286074 
L 201.993548 303.286074 
L 201.993548 312.164217 
L 187.52039 312.164217 
L 187.52039 321.04236 
L 195.350264 321.04236 
L 195.350264 329.920503 
L 190.025317 329.920503 
L 190.025317 338.798646 
L 173.990034 338.798646 
L 173.990034 347.676789 
L 170.633391 347.676789 
L 170.633391 356.554932 
L 161.906122 356.554932 
L 161.906122 365.433075 
L 154.26129 365.433075 
L 154.26129 374.311219 
L 189.617314 374.311219 
L 189.617314 383.189362 
L 167.615608 383.189362 
L 167.615608 392.067505 
L 143.898574 392.067505 
L 143.898574 400.945648 
L 155.406818 400.945648 
L 155.406818 409.823791 
L 181.71372 409.823791 
L 181.71372 418.701934 
L 180.893223 418.701934 
L 180.893223 427.580077 
L 165.183449 427.580077 
L 165.183449 436.458221 
L 175.909634 436.458221 
L 175.909634 445.336364 
L 166.304958 445.336364 
" clip-path="url(#pa3363a3bfd)" style="fill: none; stroke: #fecc5c; stroke-opacity: 0.3; stroke-width: 2; stroke-linecap: square"/>
   </g>
   <g id="line2d_27">
    <path d="M 123.919296 28.063636 
L 123.919296 36.941779 
L 116.696264 36.941779 
L 116.696264 45.819923 
L 111.384358 45.819923 
L 111.384358 54.698066 
L 147.433787 54.698066 
L 147.433787 63.576209 
L 135.514987 63.576209 
L 135.514987 72.454352 
L 146.548708 72.454352 
L 146.548708 81.332495 
L 140.659155 81.332495 
L 140.659155 90.210638 
L 141.743503 90.210638 
L 141.743503 99.088781 
L 140.561631 99.088781 
L 140.561631 107.966925 
L 128.492843 107.966925 
L 128.492843 116.845068 
L 107.085902 116.845068 
L 107.085902 125.723211 
L 139.075014 125.723211 
L 139.075014 134.601354 
L 159.944139 134.601354 
L 159.944139 143.479497 
L 165.396862 143.479497 
L 165.396862 152.35764 
L 176.761939 152.35764 
L 176.761939 161.235783 
L 163.670317 161.235783 
L 163.670317 170.113926 
L 157.645104 170.113926 
L 157.645104 178.99207 
L 220.563575 178.99207 
L 220.563575 187.870213 
L 244.500789 187.870213 
L 244.500789 196.748356 
L 242.449462 196.748356 
L 242.449462 205.626499 
L 229.697855 205.626499 
L 229.697855 214.504642 
L 254.375747 214.504642 
L 254.375747 223.382785 
L 262.269156 223.382785 
L 262.269156 232.260928 
L 283.169949 232.260928 
L 283.169949 241.139072 
L 283.480139 241.139072 
L 283.480139 250.017215 
L 276.876604 250.017215 
L 276.876604 258.895358 
L 266.804849 258.895358 
L 266.804849 267.773501 
L 269.360926 267.773501 
L 269.360926 276.651644 
L 268.079339 276.651644 
L 268.079339 285.529787 
L 272.828903 285.529787 
L 272.828903 294.40793 
L 290.201286 294.40793 
L 290.201286 303.286074 
L 272.752901 303.286074 
L 272.752901 312.164217 
L 269.247463 312.164217 
L 269.247463 321.04236 
L 270.412658 321.04236 
L 270.412658 329.920503 
L 255.349392 329.920503 
L 255.349392 338.798646 
L 237.17117 338.798646 
L 237.17117 347.676789 
L 235.289246 347.676789 
L 235.289246 356.554932 
L 228.807443 356.554932 
L 228.807443 365.433075 
L 179.905983 365.433075 
L 179.905983 374.311219 
L 177.087326 374.311219 
L 177.087326 383.189362 
L 174.317338 383.189362 
L 174.317338 392.067505 
L 179.95493 392.067505 
L 179.95493 400.945648 
L 173.907 400.945648 
L 173.907 409.823791 
L 170.310566 409.823791 
L 170.310566 418.701934 
L 165.641966 418.701934 
L 165.641966 427.580077 
L 155.825235 427.580077 
L 155.825235 436.458221 
L 167.568262 436.458221 
L 167.568262 445.336364 
L 162.88809 445.336364 
" clip-path="url(#pa3363a3bfd)" style="fill: none; stroke: #fecc5c; stroke-opacity: 0.3; stroke-width: 2; stroke-linecap: square"/>
   </g>
   <g id="line2d_28">
    <path d="M 137.489112 28.063636 
L 137.489112 36.941779 
L 100.34519 36.941779 
L 100.34519 45.819923 
L 137.211752 45.819923 
L 137.211752 54.698066 
L 139.643566 54.698066 
L 139.643566 63.576209 
L 137.700715 63.576209 
L 137.700715 72.454352 
L 143.580397 72.454352 
L 143.580397 81.332495 
L 113.259074 81.332495 
L 113.259074 90.210638 
L 144.95628 90.210638 
L 144.95628 99.088781 
L 111.068176 99.088781 
L 111.068176 107.966925 
L 122.402275 107.966925 
L 122.402275 116.845068 
L 127.09485 116.845068 
L 127.09485 125.723211 
L 151.934088 125.723211 
L 151.934088 134.601354 
L 180.992389 134.601354 
L 180.992389 143.479497 
L 157.668838 143.479497 
L 157.668838 152.35764 
L 170.379592 152.35764 
L 170.379592 161.235783 
L 211.180595 161.235783 
L 211.180595 170.113926 
L 191.248729 170.113926 
L 191.248729 178.99207 
L 214.988546 178.99207 
L 214.988546 187.870213 
L 257.561467 187.870213 
L 257.561467 196.748356 
L 279.066421 196.748356 
L 279.066421 205.626499 
L 260.811587 205.626499 
L 260.811587 214.504642 
L 245.858043 214.504642 
L 245.858043 223.382785 
L 263.122565 223.382785 
L 263.122565 232.260928 
L 258.692719 232.260928 
L 258.692719 241.139072 
L 258.295484 241.139072 
L 258.295484 250.017215 
L 264.068855 250.017215 
L 264.068855 258.895358 
L 282.983188 258.895358 
L 282.983188 267.773501 
L 282.150829 267.773501 
L 282.150829 276.651644 
L 265.806627 276.651644 
L 265.806627 285.529787 
L 250.41804 285.529787 
L 250.41804 294.40793 
L 232.301421 294.40793 
L 232.301421 303.286074 
L 229.487859 303.286074 
L 229.487859 312.164217 
L 220.032915 312.164217 
L 220.032915 321.04236 
L 239.399984 321.04236 
L 239.399984 329.920503 
L 226.321317 329.920503 
L 226.321317 338.798646 
L 221.575627 338.798646 
L 221.575627 347.676789 
L 213.376208 347.676789 
L 213.376208 356.554932 
L 198.0424 356.554932 
L 198.0424 365.433075 
L 191.406468 365.433075 
L 191.406468 374.311219 
L 204.370105 374.311219 
L 204.370105 383.189362 
L 214.904247 383.189362 
L 214.904247 392.067505 
L 212.431279 392.067505 
L 212.431279 400.945648 
L 197.831854 400.945648 
L 197.831854 409.823791 
L 185.651166 409.823791 
L 185.651166 418.701934 
L 172.948044 418.701934 
L 172.948044 427.580077 
L 182.615329 427.580077 
L 182.615329 436.458221 
L 160.073837 436.458221 
L 160.073837 445.336364 
L 164.007048 445.336364 
" clip-path="url(#pa3363a3bfd)" style="fill: none; stroke: #fecc5c; stroke-opacity: 0.3; stroke-width: 2; stroke-linecap: square"/>
   </g>
   <g id="line2d_29">
    <path d="M 144.56175 28.063636 
L 144.56175 36.941779 
L 103.797873 36.941779 
L 103.797873 45.819923 
L 125.997024 45.819923 
L 125.997024 54.698066 
L 114.375537 54.698066 
L 114.375537 63.576209 
L 119.551856 63.576209 
L 119.551856 72.454352 
L 145.879238 72.454352 
L 145.879238 81.332495 
L 140.038216 81.332495 
L 140.038216 90.210638 
L 160.832945 90.210638 
L 160.832945 99.088781 
L 111.522754 99.088781 
L 111.522754 107.966925 
L 131.807621 107.966925 
L 131.807621 116.845068 
L 143.343636 116.845068 
L 143.343636 125.723211 
L 183.636081 125.723211 
L 183.636081 134.601354 
L 176.028345 134.601354 
L 176.028345 143.479497 
L 142.55726 143.479497 
L 142.55726 152.35764 
L 168.95857 152.35764 
L 168.95857 161.235783 
L 178.657851 161.235783 
L 178.657851 170.113926 
L 199.07898 170.113926 
L 199.07898 178.99207 
L 250.049592 178.99207 
L 250.049592 187.870213 
L 250.807485 187.870213 
L 250.807485 196.748356 
L 293.816426 196.748356 
L 293.816426 205.626499 
L 271.167195 205.626499 
L 271.167195 214.504642 
L 251.248294 214.504642 
L 251.248294 223.382785 
L 241.730923 223.382785 
L 241.730923 232.260928 
L 229.332286 232.260928 
L 229.332286 241.139072 
L 214.435372 241.139072 
L 214.435372 250.017215 
L 258.364835 250.017215 
L 258.364835 258.895358 
L 248.711629 258.895358 
L 248.711629 267.773501 
L 245.393633 267.773501 
L 245.393633 276.651644 
L 239.820394 276.651644 
L 239.820394 285.529787 
L 261.049782 285.529787 
L 261.049782 294.40793 
L 246.709885 294.40793 
L 246.709885 303.286074 
L 242.174894 303.286074 
L 242.174894 312.164217 
L 229.590961 312.164217 
L 229.590961 321.04236 
L 212.919668 321.04236 
L 212.919668 329.920503 
L 189.668076 329.920503 
L 189.668076 338.798646 
L 164.103977 338.798646 
L 164.103977 347.676789 
L 170.662987 347.676789 
L 170.662987 356.554932 
L 188.448773 356.554932 
L 188.448773 365.433075 
L 173.49801 365.433075 
L 173.49801 374.311219 
L 171.537486 374.311219 
L 171.537486 383.189362 
L 165.982424 383.189362 
L 165.982424 392.067505 
L 161.959066 392.067505 
L 161.959066 400.945648 
L 194.615068 400.945648 
L 194.615068 409.823791 
L 190.168057 409.823791 
L 190.168057 418.701934 
L 185.714411 418.701934 
L 185.714411 427.580077 
L 195.738164 427.580077 
L 195.738164 436.458221 
L 172.852986 436.458221 
L 172.852986 445.336364 
L 164.54505 445.336364 
" clip-path="url(#pa3363a3bfd)" style="fill: none; stroke: #fecc5c; stroke-opacity: 0.3; stroke-width: 2; stroke-linecap: square"/>
   </g>
   <g id="line2d_30"/>
   <g id="line2d_31">
    <path d="M 127.255441 28.063636 
L 127.255441 36.941779 
L 120.519307 36.941779 
L 120.519307 45.819923 
L 120.094307 45.819923 
L 120.094307 54.698066 
L 129.405719 54.698066 
L 129.405719 63.576209 
L 133.98349 63.576209 
L 133.98349 72.454352 
L 139.556127 72.454352 
L 139.556127 81.332495 
L 139.52633 81.332495 
L 139.52633 90.210638 
L 144.606742 90.210638 
L 144.606742 99.088781 
L 143.551126 99.088781 
L 143.551126 107.966925 
L 149.897104 107.966925 
L 149.897104 116.845068 
L 161.823028 116.845068 
L 161.823028 125.723211 
L 167.807138 125.723211 
L 167.807138 134.601354 
L 178.223311 134.601354 
L 178.223311 143.479497 
L 188.403532 143.479497 
L 188.403532 152.35764 
L 197.736145 152.35764 
L 197.736145 161.235783 
L 205.948561 161.235783 
L 205.948561 170.113926 
L 214.017444 170.113926 
L 214.017444 178.99207 
L 229.95592 178.99207 
L 229.95592 187.870213 
L 236.741741 187.870213 
L 236.741741 196.748356 
L 243.062521 196.748356 
L 243.062521 205.626499 
L 245.349673 205.626499 
L 245.349673 214.504642 
L 248.715259 214.504642 
L 248.715259 223.382785 
L 248.377176 223.382785 
L 248.377176 232.260928 
L 251.316801 232.260928 
L 251.316801 241.139072 
L 256.49911 241.139072 
L 256.49911 250.017215 
L 254.557271 250.017215 
L 254.557271 258.895358 
L 251.732381 258.895358 
L 251.732381 267.773501 
L 246.332408 267.773501 
L 246.332408 276.651644 
L 241.750935 276.651644 
L 241.750935 285.529787 
L 242.967239 285.529787 
L 242.967239 294.40793 
L 237.774446 294.40793 
L 237.774446 303.286074 
L 234.314127 303.286074 
L 234.314127 312.164217 
L 230.54979 312.164217 
L 230.54979 321.04236 
L 226.088176 321.04236 
L 226.088176 329.920503 
L 220.773897 329.920503 
L 220.773897 338.798646 
L 217.908321 338.798646 
L 217.908321 347.676789 
L 215.110674 347.676789 
L 215.110674 356.554932 
L 207.381237 356.554932 
L 207.381237 365.433075 
L 202.050412 365.433075 
L 202.050412 374.311219 
L 197.770699 374.311219 
L 197.770699 383.189362 
L 187.744114 383.189362 
L 187.744114 392.067505 
L 184.599882 392.067505 
L 184.599882 400.945648 
L 182.371287 400.945648 
L 182.371287 409.823791 
L 178.389007 409.823791 
L 178.389007 418.701934 
L 176.236719 418.701934 
L 176.236719 427.580077 
L 172.036501 427.580077 
L 172.036501 436.458221 
L 168.969201 436.458221 
L 168.969201 445.336364 
L 165.828498 445.336364 
" clip-path="url(#pa3363a3bfd)" style="fill: none; stroke: #6b3914; stroke-width: 3; stroke-linecap: square"/>
   </g>
   <g id="patch_3">
    <path d="M 74.00625 466.2 
L 74.00625 7.2 
" style="fill: none; stroke: #000000; stroke-width: 2; stroke-linejoin: miter; stroke-linecap: square"/>
   </g>
   <g id="patch_4">
    <path d="M 84.00625 476.2 
L 354.00625 476.2 
" style="fill: none; stroke: #000000; stroke-width: 2; stroke-linejoin: miter; stroke-linecap: square"/>
   </g>
  </g>
 </g>
 <defs>
  <clipPath id="pa3363a3bfd">
   <rect x="84.00625" y="7.2" width="270" height="459"/>
  </clipPath>
 </defs>
</svg>
