<?xml version="1.0" encoding="utf-8" standalone="no"?>
<!DOCTYPE svg PUBLIC "-//W3C//DTD SVG 1.1//EN"
  "http://www.w3.org/Graphics/SVG/1.1/DTD/svg11.dtd">
<svg xmlns:xlink="http://www.w3.org/1999/xlink" width="284.4pt" height="544.35625pt" viewBox="0 0 284.4 544.35625" xmlns="http://www.w3.org/2000/svg" version="1.1">
 <metadata>
  <rdf:RDF xmlns:dc="http://purl.org/dc/elements/1.1/" xmlns:cc="http://creativecommons.org/ns#" xmlns:rdf="http://www.w3.org/1999/02/22-rdf-syntax-ns#">
   <cc:Work>
    <dc:type rdf:resource="http://purl.org/dc/dcmitype/StillImage"/>
    <dc:date>2024-07-31T19:18:05.764416</dc:date>
    <dc:format>image/svg+xml</dc:format>
    <dc:creator>
     <cc:Agent>
      <dc:title>Matplotlib v3.8.0, https://matplotlib.org/</dc:title>
     </cc:Agent>
    </dc:creator>
   </cc:Work>
  </rdf:RDF>
 </metadata>
 <defs>
  <style type="text/css">*{stroke-linejoin: round; stroke-linecap: butt}</style>
 </defs>
 <g id="figure_1">
  <g id="patch_1">
   <path d="M 0 544.35625 
L 284.4 544.35625 
L 284.4 0 
L 0 0 
z
" style="fill: #ffffff"/>
  </g>
  <g id="axes_1">
   <g id="patch_2">
    <path d="M 7.2 466.2 
L 277.2 466.2 
L 277.2 7.2 
L 7.2 7.2 
z
" style="fill: #ffffff"/>
   </g>
   <g id="PolyCollection_1">
    <defs>
     <path id="m2c731f8354" d="M 19.472727 -516.292614 
L 29.057148 -516.292614 
L 28.864778 -507.414471 
L 30.968961 -498.536327 
L 33.831571 -489.658184 
L 36.361871 -480.780041 
L 38.477514 -471.901898 
L 40.627549 -463.023755 
L 43.108391 -454.145612 
L 46.261088 -445.267469 
L 50.536993 -436.389325 
L 55.505515 -427.511182 
L 61.422128 -418.633039 
L 67.452276 -409.754896 
L 74.335631 -400.876753 
L 81.108605 -391.99861 
L 88.108163 -383.120467 
L 95.984402 -374.242324 
L 103.558011 -365.36418 
L 111.186715 -356.486037 
L 118.805654 -347.607894 
L 126.705604 -338.729751 
L 135.004468 -329.851608 
L 143.428471 -320.973465 
L 152.121795 -312.095322 
L 161.121272 -303.217178 
L 170.468714 -294.339035 
L 180.536863 -285.460892 
L 191.44664 -276.582749 
L 202.364079 -267.704606 
L 213.246344 -258.826463 
L 223.605562 -249.94832 
L 233.978362 -241.070176 
L 243.035201 -232.192033 
L 251.18082 -223.31389 
L 257.195748 -214.435747 
L 261.459798 -205.557604 
L 264.295879 -196.679461 
L 264.927273 -187.801318 
L 263.288705 -178.923175 
L 258.301686 -170.045031 
L 249.812563 -161.166888 
L 237.792287 -152.288745 
L 221.876019 -143.410602 
L 201.393748 -134.532459 
L 176.419877 -125.654316 
L 145.164975 -116.776173 
L 108.613436 -107.898029 
L 75.005219 -99.019886 
L 63.255446 -99.019886 
L 63.255446 -99.019886 
L 90.34672 -107.898029 
L 106.418988 -116.776173 
L 120.779938 -125.654316 
L 132.877453 -134.532459 
L 143.38819 -143.410602 
L 152.785162 -152.288745 
L 160.155443 -161.166888 
L 166.852157 -170.045031 
L 172.033682 -178.923175 
L 175.922671 -187.801318 
L 178.732717 -196.679461 
L 179.908059 -205.557604 
L 181.171725 -214.435747 
L 180.538439 -223.31389 
L 179.246289 -232.192033 
L 177.236251 -241.070176 
L 173.788351 -249.94832 
L 169.468553 -258.826463 
L 163.977161 -267.704606 
L 157.845639 -276.582749 
L 150.775877 -285.460892 
L 142.849764 -294.339035 
L 135.336293 -303.217178 
L 126.99637 -312.095322 
L 117.975863 -320.973465 
L 108.984552 -329.851608 
L 100.237901 -338.729751 
L 92.199977 -347.607894 
L 84.141412 -356.486037 
L 76.725825 -365.36418 
L 70.324189 -374.242324 
L 64.44555 -383.120467 
L 59.535624 -391.99861 
L 55.421206 -400.876753 
L 51.568895 -409.754896 
L 48.273832 -418.633039 
L 45.27212 -427.511182 
L 42.630166 -436.389325 
L 40.05886 -445.267469 
L 37.236575 -454.145612 
L 34.355232 -463.023755 
L 31.647768 -471.901898 
L 29.353485 -480.780041 
L 27.710989 -489.658184 
L 26.435475 -498.536327 
L 24.337049 -507.414471 
L 19.472727 -516.292614 
z
" style="stroke: #fecc5c; stroke-opacity: 0.5"/>
    </defs>
    <g clip-path="url(#p8a258d9d6d)">
     <use xlink:href="#m2c731f8354" x="0" y="544.35625" style="fill: #fecc5c; fill-opacity: 0.5; stroke: #fecc5c; stroke-opacity: 0.5"/>
    </g>
   </g>
   <g id="matplotlib.axis_1">
    <g id="xtick_1">
     <g id="line2d_1">
      <defs>
       <path id="mb481108413" d="M 0 0 
L 0 3.5 
" style="stroke: #000000; stroke-width: 1.5"/>
      </defs>
      <g>
       <use xlink:href="#mb481108413" x="77.824279" y="476.2" style="stroke: #000000; stroke-width: 1.5"/>
      </g>
     </g>
     <g id="text_1">
      <!-- 200 -->
      <g transform="translate(58.736779 498.396875) scale(0.2 -0.2)">
       <defs>
        <path id="DejaVuSans-32" d="M 1228 531 
L 3431 531 
L 3431 0 
L 469 0 
L 469 531 
Q 828 903 1448 1529 
Q 2069 2156 2228 2338 
Q 2531 2678 2651 2914 
Q 2772 3150 2772 3378 
Q 2772 3750 2511 3984 
Q 2250 4219 1831 4219 
Q 1534 4219 1204 4116 
Q 875 4013 500 3803 
L 500 4441 
Q 881 4594 1212 4672 
Q 1544 4750 1819 4750 
Q 2544 4750 2975 4387 
Q 3406 4025 3406 3419 
Q 3406 3131 3298 2873 
Q 3191 2616 2906 2266 
Q 2828 2175 2409 1742 
Q 1991 1309 1228 531 
z
" transform="scale(0.015625)"/>
        <path id="DejaVuSans-30" d="M 2034 4250 
Q 1547 4250 1301 3770 
Q 1056 3291 1056 2328 
Q 1056 1369 1301 889 
Q 1547 409 2034 409 
Q 2525 409 2770 889 
Q 3016 1369 3016 2328 
Q 3016 3291 2770 3770 
Q 2525 4250 2034 4250 
z
M 2034 4750 
Q 2819 4750 3233 4129 
Q 3647 3509 3647 2328 
Q 3647 1150 3233 529 
Q 2819 -91 2034 -91 
Q 1250 -91 836 529 
Q 422 1150 422 2328 
Q 422 3509 836 4129 
Q 1250 4750 2034 4750 
z
" transform="scale(0.015625)"/>
       </defs>
       <use xlink:href="#DejaVuSans-32"/>
       <use xlink:href="#DejaVuSans-30" x="63.623047"/>
       <use xlink:href="#DejaVuSans-30" x="127.246094"/>
      </g>
     </g>
    </g>
    <g id="xtick_2">
     <g id="line2d_2">
      <g>
       <use xlink:href="#mb481108413" x="153.433478" y="476.2" style="stroke: #000000; stroke-width: 1.5"/>
      </g>
     </g>
     <g id="text_2">
      <!-- 400 -->
      <g transform="translate(134.345978 498.396875) scale(0.2 -0.2)">
       <defs>
        <path id="DejaVuSans-34" d="M 2419 4116 
L 825 1625 
L 2419 1625 
L 2419 4116 
z
M 2253 4666 
L 3047 4666 
L 3047 1625 
L 3713 1625 
L 3713 1100 
L 3047 1100 
L 3047 0 
L 2419 0 
L 2419 1100 
L 313 1100 
L 313 1709 
L 2253 4666 
z
" transform="scale(0.015625)"/>
       </defs>
       <use xlink:href="#DejaVuSans-34"/>
       <use xlink:href="#DejaVuSans-30" x="63.623047"/>
       <use xlink:href="#DejaVuSans-30" x="127.246094"/>
      </g>
     </g>
    </g>
    <g id="xtick_3">
     <g id="line2d_3">
      <g>
       <use xlink:href="#mb481108413" x="229.042676" y="476.2" style="stroke: #000000; stroke-width: 1.5"/>
      </g>
     </g>
     <g id="text_3">
      <!-- 600 -->
      <g transform="translate(209.955176 498.396875) scale(0.2 -0.2)">
       <defs>
        <path id="DejaVuSans-36" d="M 2113 2584 
Q 1688 2584 1439 2293 
Q 1191 2003 1191 1497 
Q 1191 994 1439 701 
Q 1688 409 2113 409 
Q 2538 409 2786 701 
Q 3034 994 3034 1497 
Q 3034 2003 2786 2293 
Q 2538 2584 2113 2584 
z
M 3366 4563 
L 3366 3988 
Q 3128 4100 2886 4159 
Q 2644 4219 2406 4219 
Q 1781 4219 1451 3797 
Q 1122 3375 1075 2522 
Q 1259 2794 1537 2939 
Q 1816 3084 2150 3084 
Q 2853 3084 3261 2657 
Q 3669 2231 3669 1497 
Q 3669 778 3244 343 
Q 2819 -91 2113 -91 
Q 1303 -91 875 529 
Q 447 1150 447 2328 
Q 447 3434 972 4092 
Q 1497 4750 2381 4750 
Q 2619 4750 2861 4703 
Q 3103 4656 3366 4563 
z
" transform="scale(0.015625)"/>
       </defs>
       <use xlink:href="#DejaVuSans-36"/>
       <use xlink:href="#DejaVuSans-30" x="63.623047"/>
       <use xlink:href="#DejaVuSans-30" x="127.246094"/>
      </g>
     </g>
    </g>
    <g id="text_4">
     <!-- Resistivity  [$\Omega m$] -->
     <g transform="translate(47.9 532.75625) scale(0.2 -0.2)">
      <defs>
       <path id="DejaVuSans-Bold-52" d="M 2297 2597 
Q 2675 2597 2839 2737 
Q 3003 2878 3003 3200 
Q 3003 3519 2839 3656 
Q 2675 3794 2297 3794 
L 1791 3794 
L 1791 2597 
L 2297 2597 
z
M 1791 1766 
L 1791 0 
L 588 0 
L 588 4666 
L 2425 4666 
Q 3347 4666 3776 4356 
Q 4206 4047 4206 3378 
Q 4206 2916 3982 2619 
Q 3759 2322 3309 2181 
Q 3556 2125 3751 1926 
Q 3947 1728 4147 1325 
L 4800 0 
L 3519 0 
L 2950 1159 
Q 2778 1509 2601 1637 
Q 2425 1766 2131 1766 
L 1791 1766 
z
" transform="scale(0.015625)"/>
       <path id="DejaVuSans-Bold-65" d="M 4031 1759 
L 4031 1441 
L 1416 1441 
Q 1456 1047 1700 850 
Q 1944 653 2381 653 
Q 2734 653 3104 758 
Q 3475 863 3866 1075 
L 3866 213 
Q 3469 63 3072 -14 
Q 2675 -91 2278 -91 
Q 1328 -91 801 392 
Q 275 875 275 1747 
Q 275 2603 792 3093 
Q 1309 3584 2216 3584 
Q 3041 3584 3536 3087 
Q 4031 2591 4031 1759 
z
M 2881 2131 
Q 2881 2450 2695 2645 
Q 2509 2841 2209 2841 
Q 1884 2841 1681 2658 
Q 1478 2475 1428 2131 
L 2881 2131 
z
" transform="scale(0.015625)"/>
       <path id="DejaVuSans-Bold-73" d="M 3272 3391 
L 3272 2541 
Q 2913 2691 2578 2766 
Q 2244 2841 1947 2841 
Q 1628 2841 1473 2761 
Q 1319 2681 1319 2516 
Q 1319 2381 1436 2309 
Q 1553 2238 1856 2203 
L 2053 2175 
Q 2913 2066 3209 1816 
Q 3506 1566 3506 1031 
Q 3506 472 3093 190 
Q 2681 -91 1863 -91 
Q 1516 -91 1145 -36 
Q 775 19 384 128 
L 384 978 
Q 719 816 1070 734 
Q 1422 653 1784 653 
Q 2113 653 2278 743 
Q 2444 834 2444 1013 
Q 2444 1163 2330 1236 
Q 2216 1309 1875 1350 
L 1678 1375 
Q 931 1469 631 1722 
Q 331 1975 331 2491 
Q 331 3047 712 3315 
Q 1094 3584 1881 3584 
Q 2191 3584 2531 3537 
Q 2872 3491 3272 3391 
z
" transform="scale(0.015625)"/>
       <path id="DejaVuSans-Bold-69" d="M 538 3500 
L 1656 3500 
L 1656 0 
L 538 0 
L 538 3500 
z
M 538 4863 
L 1656 4863 
L 1656 3950 
L 538 3950 
L 538 4863 
z
" transform="scale(0.015625)"/>
       <path id="DejaVuSans-Bold-74" d="M 1759 4494 
L 1759 3500 
L 2913 3500 
L 2913 2700 
L 1759 2700 
L 1759 1216 
Q 1759 972 1856 886 
Q 1953 800 2241 800 
L 2816 800 
L 2816 0 
L 1856 0 
Q 1194 0 917 276 
Q 641 553 641 1216 
L 641 2700 
L 84 2700 
L 84 3500 
L 641 3500 
L 641 4494 
L 1759 4494 
z
" transform="scale(0.015625)"/>
       <path id="DejaVuSans-Bold-76" d="M 97 3500 
L 1216 3500 
L 2088 1081 
L 2956 3500 
L 4078 3500 
L 2700 0 
L 1472 0 
L 97 3500 
z
" transform="scale(0.015625)"/>
       <path id="DejaVuSans-Bold-79" d="M 78 3500 
L 1197 3500 
L 2138 1125 
L 2938 3500 
L 4056 3500 
L 2584 -331 
Q 2363 -916 2067 -1148 
Q 1772 -1381 1288 -1381 
L 641 -1381 
L 641 -647 
L 991 -647 
Q 1275 -647 1404 -556 
Q 1534 -466 1606 -231 
L 1638 -134 
L 78 3500 
z
" transform="scale(0.015625)"/>
       <path id="DejaVuSans-Bold-20" transform="scale(0.015625)"/>
       <path id="DejaVuSans-Bold-5b" d="M 550 4863 
L 2491 4863 
L 2491 4159 
L 1613 4159 
L 1613 -141 
L 2491 -141 
L 2491 -844 
L 550 -844 
L 550 4863 
z
" transform="scale(0.015625)"/>
       <path id="DejaVuSans-Bold-3a9" d="M 2719 4750 
Q 3841 4750 4480 4106 
Q 5119 3463 5119 2494 
Q 5119 1406 4306 909 
L 5266 909 
L 5266 0 
L 3125 0 
L 3125 975 
Q 3244 1041 3334 1131 
Q 3875 1678 3875 2466 
Q 3875 3066 3572 3472 
Q 3269 3878 2719 3878 
Q 2169 3878 1866 3472 
Q 1563 3066 1563 2466 
Q 1563 1678 2103 1131 
Q 2194 1041 2313 975 
L 2313 0 
L 172 0 
L 172 909 
L 1131 909 
Q 319 1406 319 2494 
Q 319 3463 958 4106 
Q 1597 4750 2719 4750 
z
" transform="scale(0.015625)"/>
       <path id="DejaVuSans-Bold-6d" d="M 3781 2919 
Q 3994 3244 4286 3414 
Q 4578 3584 4928 3584 
Q 5531 3584 5847 3212 
Q 6163 2841 6163 2131 
L 6163 0 
L 5038 0 
L 5038 1825 
Q 5041 1866 5042 1909 
Q 5044 1953 5044 2034 
Q 5044 2406 4934 2573 
Q 4825 2741 4581 2741 
Q 4263 2741 4089 2478 
Q 3916 2216 3909 1719 
L 3909 0 
L 2784 0 
L 2784 1825 
Q 2784 2406 2684 2573 
Q 2584 2741 2328 2741 
Q 2006 2741 1831 2477 
Q 1656 2213 1656 1722 
L 1656 0 
L 531 0 
L 531 3500 
L 1656 3500 
L 1656 2988 
Q 1863 3284 2130 3434 
Q 2397 3584 2719 3584 
Q 3081 3584 3359 3409 
Q 3638 3234 3781 2919 
z
" transform="scale(0.015625)"/>
       <path id="DejaVuSans-Bold-5d" d="M 2375 -844 
L 434 -844 
L 434 -141 
L 1313 -141 
L 1313 4159 
L 434 4159 
L 434 4863 
L 2375 4863 
L 2375 -844 
z
" transform="scale(0.015625)"/>
      </defs>
      <use xlink:href="#DejaVuSans-Bold-52" transform="translate(0 0.015625)"/>
      <use xlink:href="#DejaVuSans-Bold-65" transform="translate(77.001953 0.015625)"/>
      <use xlink:href="#DejaVuSans-Bold-73" transform="translate(144.824219 0.015625)"/>
      <use xlink:href="#DejaVuSans-Bold-69" transform="translate(204.345703 0.015625)"/>
      <use xlink:href="#DejaVuSans-Bold-73" transform="translate(238.623047 0.015625)"/>
      <use xlink:href="#DejaVuSans-Bold-74" transform="translate(298.144531 0.015625)"/>
      <use xlink:href="#DejaVuSans-Bold-69" transform="translate(345.947266 0.015625)"/>
      <use xlink:href="#DejaVuSans-Bold-76" transform="translate(380.224609 0.015625)"/>
      <use xlink:href="#DejaVuSans-Bold-69" transform="translate(445.410156 0.015625)"/>
      <use xlink:href="#DejaVuSans-Bold-74" transform="translate(479.6875 0.015625)"/>
      <use xlink:href="#DejaVuSans-Bold-79" transform="translate(527.490234 0.015625)"/>
      <use xlink:href="#DejaVuSans-Bold-20" transform="translate(592.675781 0.015625)"/>
      <use xlink:href="#DejaVuSans-Bold-20" transform="translate(627.490234 0.015625)"/>
      <use xlink:href="#DejaVuSans-Bold-5b" transform="translate(662.304688 0.015625)"/>
      <use xlink:href="#DejaVuSans-Bold-3a9" transform="translate(708.007812 0.015625)"/>
      <use xlink:href="#DejaVuSans-Bold-6d" transform="translate(793.017578 0.015625)"/>
      <use xlink:href="#DejaVuSans-Bold-5d" transform="translate(897.216797 0.015625)"/>
     </g>
    </g>
   </g>
   <g id="line2d_4">
    <path d="M 21.734308 28.063636 
L 25.147688 36.941779 
L 28.268725 45.819923 
L 31.190927 54.698066 
L 34.000476 63.576209 
L 36.776226 72.454352 
L 39.589706 81.332495 
L 42.505117 90.210638 
L 45.579334 99.088781 
L 48.861906 107.966925 
L 52.395053 116.845068 
L 56.21367 125.723211 
L 60.345326 134.601354 
L 64.810261 143.479497 
L 69.621391 152.35764 
L 74.784303 161.235783 
L 80.297258 170.113926 
L 86.151191 178.99207 
L 92.32971 187.870213 
L 98.809096 196.748356 
L 105.558303 205.626499 
L 112.538959 214.504642 
L 119.705365 223.382785 
L 127.004496 232.260928 
L 134.375999 241.139072 
L 141.752194 250.017215 
L 149.058077 258.895358 
L 156.211314 267.773501 
L 163.122247 276.651644 
L 169.69389 285.529787 
L 175.82193 294.40793 
L 181.394728 303.286074 
L 186.293317 312.164217 
L 190.391406 321.04236 
L 193.555375 329.920503 
L 195.644278 338.798646 
L 196.509842 347.676789 
L 195.996468 356.554932 
L 193.941229 365.433075 
L 190.173873 374.311219 
L 184.51682 383.189362 
L 176.785164 392.067505 
L 166.786672 400.945648 
L 154.321784 409.823791 
L 139.183614 418.701934 
L 121.15795 427.580077 
L 100.02325 436.458221 
L 75.550649 445.336364 
" clip-path="url(#p8a258d9d6d)" style="fill: none; stroke: #fecc5c; stroke-opacity: 0.3; stroke-width: 2; stroke-linecap: square"/>
   </g>
   <g id="line2d_5">
    <path d="M 23.737462 28.063636 
L 25.067504 36.941779 
L 26.514437 45.819923 
L 28.15482 54.698066 
L 30.057425 63.576209 
L 32.283241 72.454352 
L 34.885471 81.332495 
L 37.909533 90.210638 
L 41.393059 99.088781 
L 45.365899 107.966925 
L 49.850115 116.845068 
L 54.859987 125.723211 
L 60.402007 134.601354 
L 66.474884 143.479497 
L 73.069543 152.35764 
L 80.169121 161.235783 
L 87.748973 170.113926 
L 95.776667 178.99207 
L 104.211988 187.870213 
L 113.006934 196.748356 
L 122.105721 205.626499 
L 131.444777 214.504642 
L 140.952746 223.382785 
L 150.550489 232.260928 
L 160.151079 241.139072 
L 169.659806 250.017215 
L 178.974175 258.895358 
L 187.983905 267.773501 
L 196.570932 276.651644 
L 204.609406 285.529787 
L 211.965691 294.40793 
L 218.498367 303.286074 
L 224.058231 312.164217 
L 228.488291 321.04236 
L 231.623774 329.920503 
L 233.292119 338.798646 
L 233.312983 347.676789 
L 231.498236 356.554932 
L 227.651963 365.433075 
L 221.570465 374.311219 
L 213.042259 383.189362 
L 201.848075 392.067505 
L 187.76086 400.945648 
L 170.545773 409.823791 
L 149.960192 418.701934 
L 125.753708 427.580077 
L 97.668126 436.458221 
L 65.437469 445.336364 
" clip-path="url(#p8a258d9d6d)" style="fill: none; stroke: #fecc5c; stroke-opacity: 0.3; stroke-width: 2; stroke-linecap: square"/>
   </g>
   <g id="line2d_6">
    <path d="M 22.301818 28.063636 
L 25.264681 36.941779 
L 27.846875 45.819923 
L 30.182581 54.698066 
L 32.395563 63.576209 
L 34.599168 72.454352 
L 36.896327 81.332495 
L 39.379556 90.210638 
L 42.130953 99.088781 
L 45.222199 107.966925 
L 48.71456 116.845068 
L 52.658885 125.723211 
L 57.095608 134.601354 
L 62.054744 143.479497 
L 67.555895 152.35764 
L 73.608242 161.235783 
L 80.210554 170.113926 
L 87.351182 178.99207 
L 95.00806 187.870213 
L 103.148707 196.748356 
L 111.730223 205.626499 
L 120.699295 214.504642 
L 129.992191 223.382785 
L 139.534765 232.260928 
L 149.242451 241.139072 
L 159.020271 250.017215 
L 168.762828 258.895358 
L 178.354308 267.773501 
L 187.668482 276.651644 
L 196.568705 285.529787 
L 204.907915 294.40793 
L 212.528633 303.286074 
L 219.262964 312.164217 
L 224.932597 321.04236 
L 229.348805 329.920503 
L 232.312443 338.798646 
L 233.613951 347.676789 
L 233.033352 356.554932 
L 230.340254 365.433075 
L 225.293847 374.311219 
L 217.642904 383.189362 
L 207.125783 392.067505 
L 193.470427 400.945648 
L 176.394359 409.823791 
L 155.604688 418.701934 
L 130.798107 427.580077 
L 101.660891 436.458221 
L 67.868899 445.336364 
" clip-path="url(#p8a258d9d6d)" style="fill: none; stroke: #fecc5c; stroke-opacity: 0.3; stroke-width: 2; stroke-linecap: square"/>
   </g>
   <g id="line2d_7">
    <path d="M 20.855833 28.063636 
L 25.531752 36.941779 
L 29.181336 45.819923 
L 32.026554 54.698066 
L 34.274443 63.576209 
L 36.11711 72.454352 
L 37.731729 81.332495 
L 39.280545 90.210638 
L 40.91087 99.088781 
L 42.755085 107.966925 
L 44.930642 116.845068 
L 47.540059 125.723211 
L 50.670925 134.601354 
L 54.395896 143.479497 
L 58.772699 152.35764 
L 63.844128 161.235783 
L 69.638046 170.113926 
L 76.167386 178.99207 
L 83.430149 187.870213 
L 91.409404 196.748356 
L 100.073291 205.626499 
L 109.375018 214.504642 
L 119.25286 223.382785 
L 129.630164 232.260928 
L 140.415342 241.139072 
L 151.50188 250.017215 
L 162.768327 258.895358 
L 174.078305 267.773501 
L 185.280503 276.651644 
L 196.20868 285.529787 
L 206.681664 294.40793 
L 216.503349 303.286074 
L 225.462701 312.164217 
L 233.333753 321.04236 
L 239.875609 329.920503 
L 244.832439 338.798646 
L 247.933484 347.676789 
L 248.893052 356.554932 
L 247.410523 365.433075 
L 243.170341 374.311219 
L 235.842024 383.189362 
L 225.080156 392.067505 
L 210.524389 400.945648 
L 191.799446 409.823791 
L 168.515117 418.701934 
L 140.266263 427.580077 
L 106.632813 436.458221 
L 67.179763 445.336364 
" clip-path="url(#p8a258d9d6d)" style="fill: none; stroke: #fecc5c; stroke-opacity: 0.3; stroke-width: 2; stroke-linecap: square"/>
   </g>
   <g id="line2d_8">
    <path d="M 21.479602 28.063636 
L 24.693416 36.941779 
L 27.518695 45.819923 
L 30.087984 54.698066 
L 32.52355 63.576209 
L 34.937372 72.454352 
L 37.431148 81.332495 
L 40.096296 90.210638 
L 43.013946 99.088781 
L 46.254948 107.966925 
L 49.87987 116.845068 
L 53.938996 125.723211 
L 58.472327 134.601354 
L 63.509582 143.479497 
L 69.070195 152.35764 
L 75.16332 161.235783 
L 81.787826 170.113926 
L 88.932301 178.99207 
L 96.575049 187.870213 
L 104.684091 196.748356 
L 113.217165 205.626499 
L 122.121728 214.504642 
L 131.334952 223.382785 
L 140.783727 232.260928 
L 150.38466 241.139072 
L 160.044076 250.017215 
L 169.658016 258.895358 
L 179.112239 267.773501 
L 188.28222 276.651644 
L 197.033152 285.529787 
L 205.219946 294.40793 
L 212.687228 303.286074 
L 219.269344 312.164217 
L 224.790355 321.04236 
L 229.064039 329.920503 
L 231.893892 338.798646 
L 233.073127 347.676789 
L 232.384676 356.554932 
L 229.601184 365.433075 
L 224.485016 374.311219 
L 216.788255 383.189362 
L 206.252699 392.067505 
L 192.609864 400.945648 
L 175.580982 409.823791 
L 154.877006 418.701934 
L 130.198601 427.580077 
L 101.236153 436.458221 
L 67.669763 445.336364 
" clip-path="url(#p8a258d9d6d)" style="fill: none; stroke: #fecc5c; stroke-opacity: 0.3; stroke-width: 2; stroke-linecap: square"/>
   </g>
   <g id="line2d_9">
    <path d="M 24.035456 28.063636 
L 26.321735 36.941779 
L 28.456495 45.819923 
L 30.543189 54.698066 
L 32.676418 63.576209 
L 34.941933 72.454352 
L 37.416632 81.332495 
L 40.16856 90.210638 
L 43.256912 99.088781 
L 46.732031 107.966925 
L 50.63541 116.845068 
L 54.999686 125.723211 
L 59.848648 134.601354 
L 65.197233 143.479497 
L 71.051525 152.35764 
L 77.408756 161.235783 
L 84.257309 170.113926 
L 91.576712 178.99207 
L 99.337644 187.870213 
L 107.50193 196.748356 
L 116.022546 205.626499 
L 124.843614 214.504642 
L 133.900405 223.382785 
L 143.119338 232.260928 
L 152.417982 241.139072 
L 161.705053 250.017215 
L 170.880414 258.895358 
L 179.83508 267.773501 
L 188.45121 276.651644 
L 196.602115 285.529787 
L 204.152251 294.40793 
L 210.957226 303.286074 
L 216.863793 312.164217 
L 221.709856 321.04236 
L 225.324464 329.920503 
L 227.527818 338.798646 
L 228.131265 347.676789 
L 226.937301 356.554932 
L 223.739571 365.433075 
L 218.322867 374.311219 
L 210.46313 383.189362 
L 199.927449 392.067505 
L 186.474062 400.945648 
L 169.852354 409.823791 
L 149.802861 418.701934 
L 126.057264 427.580077 
L 98.338395 436.458221 
L 66.360233 445.336364 
" clip-path="url(#p8a258d9d6d)" style="fill: none; stroke: #fecc5c; stroke-opacity: 0.3; stroke-width: 2; stroke-linecap: square"/>
   </g>
   <g id="line2d_10">
    <path d="M 25.919505 28.063636 
L 27.464367 36.941779 
L 28.870823 45.819923 
L 30.251484 54.698066 
L 31.709387 63.576209 
L 33.337995 72.454352 
L 35.221197 81.332495 
L 37.433308 90.210638 
L 40.039071 99.088781 
L 43.093652 107.966925 
L 46.642647 116.845068 
L 50.722075 125.723211 
L 55.358384 134.601354 
L 60.568445 143.479497 
L 66.359559 152.35764 
L 72.72945 161.235783 
L 79.66627 170.113926 
L 87.148597 178.99207 
L 95.145434 187.870213 
L 103.616213 196.748356 
L 112.510788 205.626499 
L 121.769444 214.504642 
L 131.322888 223.382785 
L 141.092257 232.260928 
L 150.989111 241.139072 
L 160.915438 250.017215 
L 170.763652 258.895358 
L 180.416593 267.773501 
L 189.747527 276.651644 
L 198.620146 285.529787 
L 206.88857 294.40793 
L 214.397344 303.286074 
L 220.981438 312.164217 
L 226.46625 321.04236 
L 230.667603 329.920503 
L 233.391749 338.798646 
L 234.435362 347.676789 
L 233.585545 356.554932 
L 230.619826 365.433075 
L 225.306161 374.311219 
L 217.402931 383.189362 
L 206.658942 392.067505 
L 192.813429 400.945648 
L 175.59605 409.823791 
L 154.726893 418.701934 
L 129.916468 427.580077 
L 100.865715 436.458221 
L 67.265999 445.336364 
" clip-path="url(#p8a258d9d6d)" style="fill: none; stroke: #fecc5c; stroke-opacity: 0.3; stroke-width: 2; stroke-linecap: square"/>
   </g>
   <g id="line2d_11">
    <path d="M 26.628278 28.063636 
L 28.053605 36.941779 
L 29.479054 45.819923 
L 30.984519 54.698066 
L 32.642498 63.576209 
L 34.518094 72.454352 
L 36.669013 81.332495 
L 39.145569 90.210638 
L 41.990678 99.088781 
L 45.239861 107.966925 
L 48.921245 116.845068 
L 53.05556 125.723211 
L 57.656143 134.601354 
L 62.728934 143.479497 
L 68.272476 152.35764 
L 74.277921 161.235783 
L 80.729023 170.113926 
L 87.60214 178.99207 
L 94.866236 187.870213 
L 102.48288 196.748356 
L 110.406245 205.626499 
L 118.583109 214.504642 
L 126.952853 223.382785 
L 135.447467 232.260928 
L 143.99154 241.139072 
L 152.50227 250.017215 
L 160.889459 258.895358 
L 169.055511 267.773501 
L 176.895439 276.651644 
L 184.296856 285.529787 
L 191.139983 294.40793 
L 197.297646 303.286074 
L 202.635273 312.164217 
L 207.010898 321.04236 
L 210.27516 329.920503 
L 212.271303 338.798646 
L 212.835175 347.676789 
L 211.795229 356.554932 
L 208.972522 365.433075 
L 204.180717 374.311219 
L 197.22608 383.189362 
L 187.907483 392.067505 
L 176.016403 400.945648 
L 161.336921 409.823791 
L 143.645722 418.701934 
L 122.712097 427.580077 
L 98.29794 436.458221 
L 70.157752 445.336364 
" clip-path="url(#p8a258d9d6d)" style="fill: none; stroke: #fecc5c; stroke-opacity: 0.3; stroke-width: 2; stroke-linecap: square"/>
   </g>
   <g id="line2d_12">
    <path d="M 26.188751 28.063636 
L 25.610903 36.941779 
L 25.996251 45.819923 
L 27.285328 54.698066 
L 29.41864 63.576209 
L 32.336665 72.454352 
L 35.979855 81.332495 
L 40.288635 90.210638 
L 45.2034 99.088781 
L 50.66452 107.966925 
L 56.612339 116.845068 
L 62.98717 125.723211 
L 69.729302 134.601354 
L 76.778996 143.479497 
L 84.076484 152.35764 
L 91.561974 161.235783 
L 99.175643 170.113926 
L 106.857643 178.99207 
L 114.5481 187.870213 
L 122.187109 196.748356 
L 129.714741 205.626499 
L 137.071039 214.504642 
L 144.196017 223.382785 
L 151.029665 232.260928 
L 157.511942 241.139072 
L 163.582783 250.017215 
L 169.182093 258.895358 
L 174.249753 267.773501 
L 178.725613 276.651644 
L 182.549499 285.529787 
L 185.661208 294.40793 
L 188.00051 303.286074 
L 189.507148 312.164217 
L 190.120837 321.04236 
L 189.781267 329.920503 
L 188.428097 338.798646 
L 186.000963 347.676789 
L 182.43947 356.554932 
L 177.683198 365.433075 
L 171.671699 374.311219 
L 164.344499 383.189362 
L 155.641094 392.067505 
L 145.500955 400.945648 
L 133.863525 409.823791 
L 120.668221 418.701934 
L 105.85443 427.580077 
L 89.361515 436.458221 
L 71.128809 445.336364 
" clip-path="url(#p8a258d9d6d)" style="fill: none; stroke: #fecc5c; stroke-opacity: 0.3; stroke-width: 2; stroke-linecap: square"/>
   </g>
   <g id="line2d_13">
    <path d="M 23.927009 28.063636 
L 25.963221 36.941779 
L 28.130854 45.819923 
L 30.475579 54.698066 
L 33.037856 63.576209 
L 35.852935 72.454352 
L 38.950862 81.332495 
L 42.356471 90.210638 
L 46.089388 99.088781 
L 50.164032 107.966925 
L 54.589612 116.845068 
L 59.370128 125.723211 
L 64.504373 134.601354 
L 69.985932 143.479497 
L 75.803179 152.35764 
L 81.939281 161.235783 
L 88.372197 170.113926 
L 95.074676 178.99207 
L 102.01426 187.870213 
L 109.153281 196.748356 
L 116.448863 205.626499 
L 123.852923 214.504642 
L 131.312168 223.382785 
L 138.768095 232.260928 
L 146.156996 241.139072 
L 153.409953 250.017215 
L 160.452837 258.895358 
L 167.206314 267.773501 
L 173.58584 276.651644 
L 179.501662 285.529787 
L 184.858819 294.40793 
L 189.557143 303.286074 
L 193.491255 312.164217 
L 196.550568 321.04236 
L 198.619287 329.920503 
L 199.57641 338.798646 
L 199.295723 347.676789 
L 197.645806 356.554932 
L 194.490031 365.433075 
L 189.686559 374.311219 
L 183.088344 383.189362 
L 174.543133 392.067505 
L 163.89346 400.945648 
L 150.976656 409.823791 
L 135.624839 418.701934 
L 117.664921 427.580077 
L 96.918604 436.458221 
L 73.202383 445.336364 
" clip-path="url(#p8a258d9d6d)" style="fill: none; stroke: #fecc5c; stroke-opacity: 0.3; stroke-width: 2; stroke-linecap: square"/>
   </g>
   <g id="line2d_14">
    <path d="M 27.471603 28.063636 
L 26.496914 36.941779 
L 26.269901 45.819923 
L 26.785041 54.698066 
L 28.033276 63.576209 
L 30.002009 72.454352 
L 32.675108 81.332495 
L 36.032905 90.210638 
L 40.052197 99.088781 
L 44.706242 107.966925 
L 49.964765 116.845068 
L 55.793952 125.723211 
L 62.156456 134.601354 
L 69.011392 143.479497 
L 76.314339 152.35764 
L 84.01734 161.235783 
L 92.068901 170.113926 
L 100.413994 178.99207 
L 108.994054 187.870213 
L 117.746978 196.748356 
L 126.607129 205.626499 
L 135.505335 214.504642 
L 144.368884 223.382785 
L 153.121531 232.260928 
L 161.683494 241.139072 
L 169.971456 250.017215 
L 177.89856 258.895358 
L 185.374418 267.773501 
L 192.305103 276.651644 
L 198.593151 285.529787 
L 204.137565 294.40793 
L 208.83381 303.286074 
L 212.573814 312.164217 
L 215.245971 321.04236 
L 216.735137 329.920503 
L 216.922633 338.798646 
L 215.686243 347.676789 
L 212.900217 356.554932 
L 208.435266 365.433075 
L 202.158566 374.311219 
L 193.933758 383.189362 
L 183.620945 392.067505 
L 171.076696 400.945648 
L 156.154042 409.823791 
L 138.702479 418.701934 
L 118.567966 427.580077 
L 95.592927 436.458221 
L 69.616249 445.336364 
" clip-path="url(#p8a258d9d6d)" style="fill: none; stroke: #fecc5c; stroke-opacity: 0.3; stroke-width: 2; stroke-linecap: square"/>
   </g>
   <g id="line2d_15">
    <path d="M 27.009508 28.063636 
L 27.136122 36.941779 
L 27.920794 45.819923 
L 29.335538 54.698066 
L 31.351147 63.576209 
L 33.937198 72.454352 
L 37.062049 81.332495 
L 40.69284 90.210638 
L 44.795493 99.088781 
L 49.334712 107.966925 
L 54.273982 116.845068 
L 59.575571 125.723211 
L 65.200527 134.601354 
L 71.108683 143.479497 
L 77.25865 152.35764 
L 83.607824 161.235783 
L 90.11238 170.113926 
L 96.727278 178.99207 
L 103.406258 187.870213 
L 110.101842 196.748356 
L 116.765333 205.626499 
L 123.346817 214.504642 
L 129.795163 223.382785 
L 136.058019 232.260928 
L 142.081817 241.139072 
L 147.81177 250.017215 
L 153.191872 258.895358 
L 158.164901 267.773501 
L 162.672415 276.651644 
L 166.654755 285.529787 
L 170.051042 294.40793 
L 172.799182 303.286074 
L 174.835859 312.164217 
L 176.096542 321.04236 
L 176.515481 329.920503 
L 176.025707 338.798646 
L 174.559033 347.676789 
L 172.046054 356.554932 
L 168.416147 365.433075 
L 163.597472 374.311219 
L 157.516968 383.189362 
L 150.100359 392.067505 
L 141.272149 400.945648 
L 130.955623 409.823791 
L 119.072851 418.701934 
L 105.544681 427.580077 
L 90.290745 436.458221 
L 73.229458 445.336364 
" clip-path="url(#p8a258d9d6d)" style="fill: none; stroke: #fecc5c; stroke-opacity: 0.3; stroke-width: 2; stroke-linecap: square"/>
   </g>
   <g id="line2d_16">
    <path d="M 30.352001 28.063636 
L 27.311167 36.941779 
L 25.969426 45.819923 
L 26.17424 54.698066 
L 27.777661 63.576209 
L 30.636336 72.454352 
L 34.611506 81.332495 
L 39.569004 90.210638 
L 45.379257 99.088781 
L 51.917284 107.966925 
L 59.062697 116.845068 
L 66.699704 125.723211 
L 74.717104 134.601354 
L 83.008289 143.479497 
L 91.471245 152.35764 
L 100.008552 161.235783 
L 108.52738 170.113926 
L 116.939496 178.99207 
L 125.161259 187.870213 
L 133.11362 196.748356 
L 140.722124 205.626499 
L 147.91691 214.504642 
L 154.632709 223.382785 
L 160.808845 232.260928 
L 166.389238 241.139072 
L 171.322397 250.017215 
L 175.561427 258.895358 
L 179.064026 267.773501 
L 181.792484 276.651644 
L 183.713686 285.529787 
L 184.799108 294.40793 
L 185.024821 303.286074 
L 184.371488 312.164217 
L 182.824367 321.04236 
L 180.373308 329.920503 
L 177.012752 338.798646 
L 172.741738 347.676789 
L 167.563895 356.554932 
L 161.487445 365.433075 
L 154.525204 374.311219 
L 146.694583 383.189362 
L 138.017583 392.067505 
L 128.5208 400.945648 
L 118.235423 409.823791 
L 107.197234 418.701934 
L 95.446608 427.580077 
L 83.028515 436.458221 
L 69.992515 445.336364 
" clip-path="url(#p8a258d9d6d)" style="fill: none; stroke: #fecc5c; stroke-opacity: 0.3; stroke-width: 2; stroke-linecap: square"/>
   </g>
   <g id="line2d_17">
    <path d="M 25.736229 28.063636 
L 27.679327 36.941779 
L 29.443481 45.819923 
L 31.140742 54.698066 
L 32.873775 63.576209 
L 34.73586 72.454352 
L 36.81089 81.332495 
L 39.173373 90.210638 
L 41.888428 99.088781 
L 45.011793 107.966925 
L 48.589815 116.845068 
L 52.659456 125.723211 
L 57.248295 134.601354 
L 62.374521 143.479497 
L 68.046939 152.35764 
L 74.264967 161.235783 
L 81.018637 170.113926 
L 88.288596 178.99207 
L 96.046103 187.870213 
L 104.253031 196.748356 
L 112.86187 205.626499 
L 121.815721 214.504642 
L 131.048298 223.382785 
L 140.483931 232.260928 
L 150.037565 241.139072 
L 159.614755 250.017215 
L 169.111672 258.895358 
L 178.415103 267.773501 
L 187.402445 276.651644 
L 195.941711 285.529787 
L 203.891527 294.40793 
L 211.101135 303.286074 
L 217.410389 312.164217 
L 222.649756 321.04236 
L 226.640319 329.920503 
L 229.193774 338.798646 
L 230.11243 347.676789 
L 229.189212 356.554932 
L 226.207657 365.433075 
L 220.941917 374.311219 
L 213.156756 383.189362 
L 202.607555 392.067505 
L 189.040307 400.945648 
L 172.191617 409.823791 
L 151.788709 418.701934 
L 127.549415 427.580077 
L 99.182185 436.458221 
L 66.386082 445.336364 
" clip-path="url(#p8a258d9d6d)" style="fill: none; stroke: #fecc5c; stroke-opacity: 0.3; stroke-width: 2; stroke-linecap: square"/>
   </g>
   <g id="line2d_18">
    <path d="M 25.44875 28.063636 
L 28.855938 36.941779 
L 31.60602 45.819923 
L 33.874938 54.698066 
L 35.825935 63.576209 
L 37.609555 72.454352 
L 39.363647 81.332495 
L 41.213359 90.210638 
L 43.271143 99.088781 
L 45.636753 107.966925 
L 48.397245 116.845068 
L 51.626978 125.723211 
L 55.387612 134.601354 
L 59.728109 143.479497 
L 64.684735 152.35764 
L 70.281057 161.235783 
L 76.527944 170.113926 
L 83.423567 178.99207 
L 90.953401 187.870213 
L 99.090221 196.748356 
L 107.794106 205.626499 
L 117.012435 214.504642 
L 126.679892 223.382785 
L 136.718462 232.260928 
L 147.03743 241.139072 
L 157.533386 250.017215 
L 168.090223 258.895358 
L 178.579133 267.773501 
L 188.858612 276.651644 
L 198.774458 285.529787 
L 208.159771 294.40793 
L 216.834954 303.286074 
L 224.607712 312.164217 
L 231.273051 321.04236 
L 236.61328 329.920503 
L 240.398011 338.798646 
L 242.384157 347.676789 
L 242.315933 356.554932 
L 239.924858 365.433075 
L 234.929751 374.311219 
L 227.036735 383.189362 
L 215.939235 392.067505 
L 201.317976 400.945648 
L 182.840989 409.823791 
L 160.163603 418.701934 
L 132.928453 427.580077 
L 100.765473 436.458221 
L 63.291902 445.336364 
" clip-path="url(#p8a258d9d6d)" style="fill: none; stroke: #fecc5c; stroke-opacity: 0.3; stroke-width: 2; stroke-linecap: square"/>
   </g>
   <g id="line2d_19">
    <path d="M 21.460916 28.063636 
L 25.147384 36.941779 
L 28.071632 45.819923 
L 30.429059 54.698066 
L 32.401201 63.576209 
L 34.155736 72.454352 
L 35.846478 81.332495 
L 37.613384 90.210638 
L 39.582546 99.088781 
L 41.866199 107.966925 
L 44.562714 116.845068 
L 47.756604 125.723211 
L 51.518519 134.601354 
L 55.905249 143.479497 
L 60.959724 152.35764 
L 66.711012 161.235783 
L 73.174322 170.113926 
L 80.350999 178.99207 
L 88.22853 187.870213 
L 96.780541 196.748356 
L 105.966796 205.626499 
L 115.733199 214.504642 
L 126.011793 223.382785 
L 136.720759 232.260928 
L 147.764421 241.139072 
L 159.033237 250.017215 
L 170.403808 258.895358 
L 181.738874 267.773501 
L 192.887311 276.651644 
L 203.684138 285.529787 
L 213.950512 294.40793 
L 223.493727 303.286074 
L 232.10722 312.164217 
L 239.570565 321.04236 
L 245.649474 329.920503 
L 250.095802 338.798646 
L 252.647539 347.676789 
L 253.028817 356.554932 
L 250.949906 365.433075 
L 246.107215 374.311219 
L 238.183295 383.189362 
L 226.846831 392.067505 
L 211.752652 400.945648 
L 192.541724 409.823791 
L 168.841153 418.701934 
L 140.264183 427.580077 
L 106.410198 436.458221 
L 66.864721 445.336364 
" clip-path="url(#p8a258d9d6d)" style="fill: none; stroke: #fecc5c; stroke-opacity: 0.3; stroke-width: 2; stroke-linecap: square"/>
   </g>
   <g id="line2d_20">
    <path d="M 25.598148 28.063636 
L 27.099454 36.941779 
L 28.578165 45.819923 
L 30.123983 54.698066 
L 31.81844 63.576209 
L 33.734893 72.454352 
L 35.938527 81.332495 
L 38.486359 90.210638 
L 41.427228 99.088781 
L 44.801804 107.966925 
L 48.642586 116.845068 
L 52.973897 125.723211 
L 57.811892 134.601354 
L 63.164551 143.479497 
L 69.031683 152.35764 
L 75.404923 161.235783 
L 82.267738 170.113926 
L 89.595418 178.99207 
L 97.355084 187.870213 
L 105.505684 196.748356 
L 113.997993 205.626499 
L 122.774615 214.504642 
L 131.769981 223.382785 
L 140.91035 232.260928 
L 150.113809 241.139072 
L 159.290274 250.017215 
L 168.341486 258.895358 
L 177.161016 267.773501 
L 185.634262 276.651644 
L 193.638451 285.529787 
L 201.042637 294.40793 
L 207.7077 303.286074 
L 213.486352 312.164217 
L 218.223128 321.04236 
L 221.754395 329.920503 
L 223.908345 338.798646 
L 224.505 347.676789 
L 223.356207 356.554932 
L 220.265645 365.433075 
L 215.028816 374.311219 
L 207.433054 383.189362 
L 197.257517 392.067505 
L 184.273195 400.945648 
L 168.242903 409.823791 
L 148.921283 418.701934 
L 126.054809 427.580077 
L 99.381778 436.458221 
L 68.632318 445.336364 
" clip-path="url(#p8a258d9d6d)" style="fill: none; stroke: #fecc5c; stroke-opacity: 0.3; stroke-width: 2; stroke-linecap: square"/>
   </g>
   <g id="line2d_21">
    <path d="M 27.566609 28.063636 
L 28.423821 36.941779 
L 29.809197 45.819923 
L 31.717858 54.698066 
L 34.142174 63.576209 
L 37.071772 72.454352 
L 40.49353 81.332495 
L 44.39158 90.210638 
L 48.747309 99.088781 
L 53.539353 107.966925 
L 58.743606 116.845068 
L 64.333211 125.723211 
L 70.278568 134.601354 
L 76.547327 143.479497 
L 83.104394 152.35764 
L 89.911926 161.235783 
L 96.929335 170.113926 
L 104.113284 178.99207 
L 111.417692 187.870213 
L 118.79373 196.748356 
L 126.189821 205.626499 
L 133.551643 214.504642 
L 140.822127 223.382785 
L 147.941456 232.260928 
L 154.847068 241.139072 
L 161.473653 250.017215 
L 167.753154 258.895358 
L 173.614769 267.773501 
L 178.984947 276.651644 
L 183.787391 285.529787 
L 187.943059 294.40793 
L 191.37016 303.286074 
L 193.984156 312.164217 
L 195.697765 321.04236 
L 196.420955 329.920503 
L 196.06095 338.798646 
L 194.522225 347.676789 
L 191.706509 356.554932 
L 187.512786 365.433075 
L 181.83729 374.311219 
L 174.57351 383.189362 
L 165.612189 392.067505 
L 154.841323 400.945648 
L 142.146159 409.823791 
L 127.409199 418.701934 
L 110.510199 427.580077 
L 91.326167 436.458221 
L 69.731365 445.336364 
" clip-path="url(#p8a258d9d6d)" style="fill: none; stroke: #fecc5c; stroke-opacity: 0.3; stroke-width: 2; stroke-linecap: square"/>
   </g>
   <g id="line2d_22">
    <path d="M 23.98873 28.063636 
L 26.494566 36.941779 
L 28.642128 45.819923 
L 30.578733 54.698066 
L 32.440031 63.576209 
L 34.349994 72.454352 
L 36.420925 81.332495 
L 38.753455 90.210638 
L 41.436542 99.088781 
L 44.547471 107.966925 
L 48.151856 116.845068 
L 52.30364 125.723211 
L 57.045091 134.601354 
L 62.406806 143.479497 
L 68.407711 152.35764 
L 75.055058 161.235783 
L 82.344428 170.113926 
L 90.25973 178.99207 
L 98.773199 187.870213 
L 107.8454 196.748356 
L 117.425225 205.626499 
L 127.449894 214.504642 
L 137.844954 223.382785 
L 148.524281 232.260928 
L 159.390077 241.139072 
L 170.332874 250.017215 
L 181.231531 258.895358 
L 191.953235 267.773501 
L 202.353499 276.651644 
L 212.276167 285.529787 
L 221.553408 294.40793 
L 230.00572 303.286074 
L 237.44193 312.164217 
L 243.65919 321.04236 
L 248.442983 329.920503 
L 251.567117 338.798646 
L 252.793729 347.676789 
L 251.873285 356.554932 
L 248.544577 365.433075 
L 242.534726 374.311219 
L 233.55918 383.189362 
L 221.321714 392.067505 
L 205.514434 400.945648 
L 185.817772 409.823791 
L 161.900485 418.701934 
L 133.419663 427.580077 
L 100.02072 436.458221 
L 61.337399 445.336364 
" clip-path="url(#p8a258d9d6d)" style="fill: none; stroke: #fecc5c; stroke-opacity: 0.3; stroke-width: 2; stroke-linecap: square"/>
   </g>
   <g id="line2d_23">
    <path d="M 25.046232 28.063636 
L 26.941185 36.941779 
L 28.860375 45.819923 
L 30.866689 54.698066 
L 33.016913 63.576209 
L 35.361736 72.454352 
L 37.945746 81.332495 
L 40.807433 90.210638 
L 43.979187 99.088781 
L 47.4873 107.966925 
L 51.351965 116.845068 
L 55.587274 125.723211 
L 60.201222 134.601354 
L 65.195703 143.479497 
L 70.566514 152.35764 
L 76.303351 161.235783 
L 82.389813 170.113926 
L 88.803398 178.99207 
L 95.515504 187.870213 
L 102.491434 196.748356 
L 109.690388 205.626499 
L 117.065467 214.504642 
L 124.563677 223.382785 
L 132.125919 232.260928 
L 139.687 241.139072 
L 147.175625 250.017215 
L 154.514401 258.895358 
L 161.619835 267.773501 
L 168.402336 276.651644 
L 174.766213 285.529787 
L 180.609676 294.40793 
L 185.824837 303.286074 
L 190.297708 312.164217 
L 193.908202 321.04236 
L 196.530132 329.920503 
L 198.031213 338.798646 
L 198.273061 347.676789 
L 197.111193 356.554932 
L 194.395025 365.433075 
L 189.967877 374.311219 
L 183.666967 383.189362 
L 175.323416 392.067505 
L 164.762244 400.945648 
L 151.802374 409.823791 
L 136.256629 418.701934 
L 117.931731 427.580077 
L 96.628306 436.458221 
L 72.140879 445.336364 
" clip-path="url(#p8a258d9d6d)" style="fill: none; stroke: #fecc5c; stroke-opacity: 0.3; stroke-width: 2; stroke-linecap: square"/>
   </g>
   <g id="line2d_24"/>
   <g id="line2d_25">
    <path d="M 24.224554 28.063636 
L 26.544734 36.941779 
L 28.692878 45.819923 
L 30.771073 54.698066 
L 32.872807 63.576209 
L 35.082971 72.454352 
L 37.477855 81.332495 
L 40.125154 90.210638 
L 43.08396 99.088781 
L 46.404771 107.966925 
L 50.129484 116.845068 
L 54.291398 125.723211 
L 58.915213 134.601354 
L 64.017032 143.479497 
L 69.604357 152.35764 
L 75.676095 161.235783 
L 82.222551 170.113926 
L 89.225433 178.99207 
L 96.657852 187.870213 
L 104.484317 196.748356 
L 112.660743 205.626499 
L 121.134442 214.504642 
L 129.844131 223.382785 
L 138.719926 232.260928 
L 147.683346 241.139072 
L 156.647311 250.017215 
L 165.516143 258.895358 
L 174.185564 267.773501 
L 182.542701 276.651644 
L 190.466077 285.529787 
L 197.825622 294.40793 
L 204.482665 303.286074 
L 210.289935 312.164217 
L 215.091565 321.04236 
L 218.72309 329.920503 
L 221.011443 338.798646 
L 221.774962 347.676789 
L 220.823384 356.554932 
L 217.95785 365.433075 
L 212.970901 374.311219 
L 205.646478 383.189362 
L 195.759928 392.067505 
L 183.077994 400.945648 
L 167.358826 409.823791 
L 148.35197 418.701934 
L 125.798377 427.580077 
L 99.4304 436.458221 
L 68.971791 445.336364 
" clip-path="url(#p8a258d9d6d)" style="fill: none; stroke: #6b3914; stroke-width: 3; stroke-linecap: square"/>
    <defs>
     <path id="m128d660493" d="M 5 0 
L -5 -0 
" style="stroke: #6b3914"/>
    </defs>
    <g clip-path="url(#p8a258d9d6d)">
     <use xlink:href="#m128d660493" x="24.224554" y="28.063636" style="fill: #6b3914; stroke: #6b3914"/>
     <use xlink:href="#m128d660493" x="26.544734" y="36.941779" style="fill: #6b3914; stroke: #6b3914"/>
     <use xlink:href="#m128d660493" x="28.692878" y="45.819923" style="fill: #6b3914; stroke: #6b3914"/>
     <use xlink:href="#m128d660493" x="30.771073" y="54.698066" style="fill: #6b3914; stroke: #6b3914"/>
     <use xlink:href="#m128d660493" x="32.872807" y="63.576209" style="fill: #6b3914; stroke: #6b3914"/>
     <use xlink:href="#m128d660493" x="35.082971" y="72.454352" style="fill: #6b3914; stroke: #6b3914"/>
     <use xlink:href="#m128d660493" x="37.477855" y="81.332495" style="fill: #6b3914; stroke: #6b3914"/>
     <use xlink:href="#m128d660493" x="40.125154" y="90.210638" style="fill: #6b3914; stroke: #6b3914"/>
     <use xlink:href="#m128d660493" x="43.08396" y="99.088781" style="fill: #6b3914; stroke: #6b3914"/>
     <use xlink:href="#m128d660493" x="46.404771" y="107.966925" style="fill: #6b3914; stroke: #6b3914"/>
     <use xlink:href="#m128d660493" x="50.129484" y="116.845068" style="fill: #6b3914; stroke: #6b3914"/>
     <use xlink:href="#m128d660493" x="54.291398" y="125.723211" style="fill: #6b3914; stroke: #6b3914"/>
     <use xlink:href="#m128d660493" x="58.915213" y="134.601354" style="fill: #6b3914; stroke: #6b3914"/>
     <use xlink:href="#m128d660493" x="64.017032" y="143.479497" style="fill: #6b3914; stroke: #6b3914"/>
     <use xlink:href="#m128d660493" x="69.604357" y="152.35764" style="fill: #6b3914; stroke: #6b3914"/>
     <use xlink:href="#m128d660493" x="75.676095" y="161.235783" style="fill: #6b3914; stroke: #6b3914"/>
     <use xlink:href="#m128d660493" x="82.222551" y="170.113926" style="fill: #6b3914; stroke: #6b3914"/>
     <use xlink:href="#m128d660493" x="89.225433" y="178.99207" style="fill: #6b3914; stroke: #6b3914"/>
     <use xlink:href="#m128d660493" x="96.657852" y="187.870213" style="fill: #6b3914; stroke: #6b3914"/>
     <use xlink:href="#m128d660493" x="104.484317" y="196.748356" style="fill: #6b3914; stroke: #6b3914"/>
     <use xlink:href="#m128d660493" x="112.660743" y="205.626499" style="fill: #6b3914; stroke: #6b3914"/>
     <use xlink:href="#m128d660493" x="121.134442" y="214.504642" style="fill: #6b3914; stroke: #6b3914"/>
     <use xlink:href="#m128d660493" x="129.844131" y="223.382785" style="fill: #6b3914; stroke: #6b3914"/>
     <use xlink:href="#m128d660493" x="138.719926" y="232.260928" style="fill: #6b3914; stroke: #6b3914"/>
     <use xlink:href="#m128d660493" x="147.683346" y="241.139072" style="fill: #6b3914; stroke: #6b3914"/>
     <use xlink:href="#m128d660493" x="156.647311" y="250.017215" style="fill: #6b3914; stroke: #6b3914"/>
     <use xlink:href="#m128d660493" x="165.516143" y="258.895358" style="fill: #6b3914; stroke: #6b3914"/>
     <use xlink:href="#m128d660493" x="174.185564" y="267.773501" style="fill: #6b3914; stroke: #6b3914"/>
     <use xlink:href="#m128d660493" x="182.542701" y="276.651644" style="fill: #6b3914; stroke: #6b3914"/>
     <use xlink:href="#m128d660493" x="190.466077" y="285.529787" style="fill: #6b3914; stroke: #6b3914"/>
     <use xlink:href="#m128d660493" x="197.825622" y="294.40793" style="fill: #6b3914; stroke: #6b3914"/>
     <use xlink:href="#m128d660493" x="204.482665" y="303.286074" style="fill: #6b3914; stroke: #6b3914"/>
     <use xlink:href="#m128d660493" x="210.289935" y="312.164217" style="fill: #6b3914; stroke: #6b3914"/>
     <use xlink:href="#m128d660493" x="215.091565" y="321.04236" style="fill: #6b3914; stroke: #6b3914"/>
     <use xlink:href="#m128d660493" x="218.72309" y="329.920503" style="fill: #6b3914; stroke: #6b3914"/>
     <use xlink:href="#m128d660493" x="221.011443" y="338.798646" style="fill: #6b3914; stroke: #6b3914"/>
     <use xlink:href="#m128d660493" x="221.774962" y="347.676789" style="fill: #6b3914; stroke: #6b3914"/>
     <use xlink:href="#m128d660493" x="220.823384" y="356.554932" style="fill: #6b3914; stroke: #6b3914"/>
     <use xlink:href="#m128d660493" x="217.95785" y="365.433075" style="fill: #6b3914; stroke: #6b3914"/>
     <use xlink:href="#m128d660493" x="212.970901" y="374.311219" style="fill: #6b3914; stroke: #6b3914"/>
     <use xlink:href="#m128d660493" x="205.646478" y="383.189362" style="fill: #6b3914; stroke: #6b3914"/>
     <use xlink:href="#m128d660493" x="195.759928" y="392.067505" style="fill: #6b3914; stroke: #6b3914"/>
     <use xlink:href="#m128d660493" x="183.077994" y="400.945648" style="fill: #6b3914; stroke: #6b3914"/>
     <use xlink:href="#m128d660493" x="167.358826" y="409.823791" style="fill: #6b3914; stroke: #6b3914"/>
     <use xlink:href="#m128d660493" x="148.35197" y="418.701934" style="fill: #6b3914; stroke: #6b3914"/>
     <use xlink:href="#m128d660493" x="125.798377" y="427.580077" style="fill: #6b3914; stroke: #6b3914"/>
     <use xlink:href="#m128d660493" x="99.4304" y="436.458221" style="fill: #6b3914; stroke: #6b3914"/>
     <use xlink:href="#m128d660493" x="68.971791" y="445.336364" style="fill: #6b3914; stroke: #6b3914"/>
    </g>
   </g>
   <g id="patch_3">
    <path d="M 7.2 476.2 
L 277.2 476.2 
" style="fill: none; stroke: #000000; stroke-width: 2; stroke-linejoin: miter; stroke-linecap: square"/>
   </g>
  </g>
 </g>
 <defs>
  <clipPath id="p8a258d9d6d">
   <rect x="7.2" y="7.2" width="270" height="459"/>
  </clipPath>
 </defs>
</svg>
