<?xml version="1.0" encoding="utf-8" standalone="no"?>
<!DOCTYPE svg PUBLIC "-//W3C//DTD SVG 1.1//EN"
  "http://www.w3.org/Graphics/SVG/1.1/DTD/svg11.dtd">
<svg xmlns:xlink="http://www.w3.org/1999/xlink" width="374.567875pt" height="544.35625pt" viewBox="0 0 374.567875 544.35625" xmlns="http://www.w3.org/2000/svg" version="1.1">
 <metadata>
  <rdf:RDF xmlns:dc="http://purl.org/dc/elements/1.1/" xmlns:cc="http://creativecommons.org/ns#" xmlns:rdf="http://www.w3.org/1999/02/22-rdf-syntax-ns#">
   <cc:Work>
    <dc:type rdf:resource="http://purl.org/dc/dcmitype/StillImage"/>
    <dc:date>2024-07-31T20:00:16.297642</dc:date>
    <dc:format>image/svg+xml</dc:format>
    <dc:creator>
     <cc:Agent>
      <dc:title>Matplotlib v3.8.0, https://matplotlib.org/</dc:title>
     </cc:Agent>
    </dc:creator>
   </cc:Work>
  </rdf:RDF>
 </metadata>
 <defs>
  <style type="text/css">*{stroke-linejoin: round; stroke-linecap: butt}</style>
 </defs>
 <g id="figure_1">
  <g id="patch_1">
   <path d="M 0 544.35625 
L 374.567875 544.35625 
L 374.567875 0 
L 0 0 
z
" style="fill: #ffffff"/>
  </g>
  <g id="axes_1">
   <g id="patch_2">
    <path d="M 84.00625 466.2 
L 354.00625 466.2 
L 354.00625 7.2 
L 84.00625 7.2 
z
" style="fill: #ffffff"/>
   </g>
   <g id="PolyCollection_1">
    <defs>
     <path id="mc837f8cd53" d="M 106.18729 -516.292614 
L 255.224206 -516.292614 
L 125.592105 -507.414471 
L 255.549013 -498.536327 
L 238.366383 -489.658184 
L 298.11768 -480.780041 
L 303.088311 -471.901898 
L 310.312492 -463.023755 
L 319.323991 -454.145612 
L 307.808048 -445.267469 
L 323.331925 -436.389325 
L 327.160415 -427.511182 
L 322.193589 -418.633039 
L 327.011351 -409.754896 
L 320.605774 -400.876753 
L 329.422884 -391.99861 
L 319.327713 -383.120467 
L 321.063706 -374.242324 
L 322.52149 -365.36418 
L 318.471699 -356.486037 
L 311.249265 -347.607894 
L 316.560584 -338.729751 
L 318.637207 -329.851608 
L 315.502097 -320.973465 
L 324.463858 -312.095322 
L 320.880445 -303.217178 
L 312.711566 -294.339035 
L 313.85072 -285.460892 
L 309.80028 -276.582749 
L 315.081961 -267.704606 
L 308.646967 -258.826463 
L 307.718006 -249.94832 
L 315.139272 -241.070176 
L 312.496693 -232.192033 
L 313.390225 -223.31389 
L 309.256822 -214.435747 
L 314.577385 -205.557604 
L 303.390303 -196.679461 
L 305.157877 -187.801318 
L 312.702756 -178.923175 
L 310.52107 -170.045031 
L 307.651647 -161.166888 
L 312.393568 -152.288745 
L 314.30818 -143.410602 
L 310.654442 -134.532459 
L 315.450183 -125.654316 
L 318.923297 -116.776173 
L 305.567131 -107.898029 
L 202.737711 -99.019886 
L 126.801489 -99.019886 
L 126.801489 -99.019886 
L 112.91978 -107.898029 
L 107.565262 -116.776173 
L 115.567218 -125.654316 
L 118.153905 -134.532459 
L 115.444086 -143.410602 
L 114.06697 -152.288745 
L 112.754223 -161.166888 
L 120.499833 -170.045031 
L 119.42569 -178.923175 
L 113.885671 -187.801318 
L 114.963558 -196.679461 
L 120.264737 -205.557604 
L 116.476265 -214.435747 
L 115.219156 -223.31389 
L 119.657777 -232.192033 
L 118.482155 -241.070176 
L 117.274617 -249.94832 
L 121.130928 -258.826463 
L 121.504976 -267.704606 
L 121.29499 -276.582749 
L 117.266778 -285.460892 
L 119.467735 -294.339035 
L 125.232451 -303.217178 
L 114.895963 -312.095322 
L 126.148814 -320.973465 
L 123.612739 -329.851608 
L 126.14641 -338.729751 
L 119.095231 -347.607894 
L 125.491393 -356.486037 
L 125.148904 -365.36418 
L 125.658969 -374.242324 
L 124.131896 -383.120467 
L 132.434557 -391.99861 
L 128.461867 -400.876753 
L 118.691066 -409.754896 
L 128.720689 -418.633039 
L 125.323888 -427.511182 
L 113.168621 -436.389325 
L 114.256132 -445.267469 
L 106.328742 -454.145612 
L 100.79408 -463.023755 
L 98.105715 -471.901898 
L 97.70247 -480.780041 
L 96.543986 -489.658184 
L 99.291111 -498.536327 
L 98.489668 -507.414471 
L 106.18729 -516.292614 
z
" style="stroke: #fecc5c; stroke-opacity: 0.5"/>
    </defs>
    <g clip-path="url(#paa83cce9c1)">
     <use xlink:href="#mc837f8cd53" x="0" y="544.35625" style="fill: #fecc5c; fill-opacity: 0.5; stroke: #fecc5c; stroke-opacity: 0.5"/>
    </g>
   </g>
   <g id="matplotlib.axis_1">
    <g id="xtick_1">
     <g id="line2d_1">
      <defs>
       <path id="m057c7266b7" d="M 0 0 
L 0 3.5 
" style="stroke: #000000; stroke-width: 1.5"/>
      </defs>
      <g>
       <use xlink:href="#m057c7266b7" x="94.990034" y="476.2" style="stroke: #000000; stroke-width: 1.5"/>
      </g>
     </g>
     <g id="text_1">
      <!-- 0 -->
      <g transform="translate(88.627534 498.396875) scale(0.2 -0.2)">
       <defs>
        <path id="DejaVuSans-30" d="M 2034 4250 
Q 1547 4250 1301 3770 
Q 1056 3291 1056 2328 
Q 1056 1369 1301 889 
Q 1547 409 2034 409 
Q 2525 409 2770 889 
Q 3016 1369 3016 2328 
Q 3016 3291 2770 3770 
Q 2525 4250 2034 4250 
z
M 2034 4750 
Q 2819 4750 3233 4129 
Q 3647 3509 3647 2328 
Q 3647 1150 3233 529 
Q 2819 -91 2034 -91 
Q 1250 -91 836 529 
Q 422 1150 422 2328 
Q 422 3509 836 4129 
Q 1250 4750 2034 4750 
z
" transform="scale(0.015625)"/>
       </defs>
       <use xlink:href="#DejaVuSans-30"/>
      </g>
     </g>
    </g>
    <g id="xtick_2">
     <g id="line2d_2">
      <g>
       <use xlink:href="#m057c7266b7" x="218.453954" y="476.2" style="stroke: #000000; stroke-width: 1.5"/>
      </g>
     </g>
     <g id="text_2">
      <!-- 500 -->
      <g transform="translate(199.366454 498.396875) scale(0.2 -0.2)">
       <defs>
        <path id="DejaVuSans-35" d="M 691 4666 
L 3169 4666 
L 3169 4134 
L 1269 4134 
L 1269 2991 
Q 1406 3038 1543 3061 
Q 1681 3084 1819 3084 
Q 2600 3084 3056 2656 
Q 3513 2228 3513 1497 
Q 3513 744 3044 326 
Q 2575 -91 1722 -91 
Q 1428 -91 1123 -41 
Q 819 9 494 109 
L 494 744 
Q 775 591 1075 516 
Q 1375 441 1709 441 
Q 2250 441 2565 725 
Q 2881 1009 2881 1497 
Q 2881 1984 2565 2268 
Q 2250 2553 1709 2553 
Q 1456 2553 1204 2497 
Q 953 2441 691 2322 
L 691 4666 
z
" transform="scale(0.015625)"/>
       </defs>
       <use xlink:href="#DejaVuSans-35"/>
       <use xlink:href="#DejaVuSans-30" x="63.623047"/>
       <use xlink:href="#DejaVuSans-30" x="127.246094"/>
      </g>
     </g>
    </g>
    <g id="xtick_3">
     <g id="line2d_3">
      <g>
       <use xlink:href="#m057c7266b7" x="341.917875" y="476.2" style="stroke: #000000; stroke-width: 1.5"/>
      </g>
     </g>
     <g id="text_3">
      <!-- 1000 -->
      <g transform="translate(316.467875 498.396875) scale(0.2 -0.2)">
       <defs>
        <path id="DejaVuSans-31" d="M 794 531 
L 1825 531 
L 1825 4091 
L 703 3866 
L 703 4441 
L 1819 4666 
L 2450 4666 
L 2450 531 
L 3481 531 
L 3481 0 
L 794 0 
L 794 531 
z
" transform="scale(0.015625)"/>
       </defs>
       <use xlink:href="#DejaVuSans-31"/>
       <use xlink:href="#DejaVuSans-30" x="63.623047"/>
       <use xlink:href="#DejaVuSans-30" x="127.246094"/>
       <use xlink:href="#DejaVuSans-30" x="190.869141"/>
      </g>
     </g>
    </g>
    <g id="text_4">
     <!-- Resistivity  [$\Omega m$] -->
     <g transform="translate(124.70625 532.75625) scale(0.2 -0.2)">
      <defs>
       <path id="DejaVuSans-Bold-52" d="M 2297 2597 
Q 2675 2597 2839 2737 
Q 3003 2878 3003 3200 
Q 3003 3519 2839 3656 
Q 2675 3794 2297 3794 
L 1791 3794 
L 1791 2597 
L 2297 2597 
z
M 1791 1766 
L 1791 0 
L 588 0 
L 588 4666 
L 2425 4666 
Q 3347 4666 3776 4356 
Q 4206 4047 4206 3378 
Q 4206 2916 3982 2619 
Q 3759 2322 3309 2181 
Q 3556 2125 3751 1926 
Q 3947 1728 4147 1325 
L 4800 0 
L 3519 0 
L 2950 1159 
Q 2778 1509 2601 1637 
Q 2425 1766 2131 1766 
L 1791 1766 
z
" transform="scale(0.015625)"/>
       <path id="DejaVuSans-Bold-65" d="M 4031 1759 
L 4031 1441 
L 1416 1441 
Q 1456 1047 1700 850 
Q 1944 653 2381 653 
Q 2734 653 3104 758 
Q 3475 863 3866 1075 
L 3866 213 
Q 3469 63 3072 -14 
Q 2675 -91 2278 -91 
Q 1328 -91 801 392 
Q 275 875 275 1747 
Q 275 2603 792 3093 
Q 1309 3584 2216 3584 
Q 3041 3584 3536 3087 
Q 4031 2591 4031 1759 
z
M 2881 2131 
Q 2881 2450 2695 2645 
Q 2509 2841 2209 2841 
Q 1884 2841 1681 2658 
Q 1478 2475 1428 2131 
L 2881 2131 
z
" transform="scale(0.015625)"/>
       <path id="DejaVuSans-Bold-73" d="M 3272 3391 
L 3272 2541 
Q 2913 2691 2578 2766 
Q 2244 2841 1947 2841 
Q 1628 2841 1473 2761 
Q 1319 2681 1319 2516 
Q 1319 2381 1436 2309 
Q 1553 2238 1856 2203 
L 2053 2175 
Q 2913 2066 3209 1816 
Q 3506 1566 3506 1031 
Q 3506 472 3093 190 
Q 2681 -91 1863 -91 
Q 1516 -91 1145 -36 
Q 775 19 384 128 
L 384 978 
Q 719 816 1070 734 
Q 1422 653 1784 653 
Q 2113 653 2278 743 
Q 2444 834 2444 1013 
Q 2444 1163 2330 1236 
Q 2216 1309 1875 1350 
L 1678 1375 
Q 931 1469 631 1722 
Q 331 1975 331 2491 
Q 331 3047 712 3315 
Q 1094 3584 1881 3584 
Q 2191 3584 2531 3537 
Q 2872 3491 3272 3391 
z
" transform="scale(0.015625)"/>
       <path id="DejaVuSans-Bold-69" d="M 538 3500 
L 1656 3500 
L 1656 0 
L 538 0 
L 538 3500 
z
M 538 4863 
L 1656 4863 
L 1656 3950 
L 538 3950 
L 538 4863 
z
" transform="scale(0.015625)"/>
       <path id="DejaVuSans-Bold-74" d="M 1759 4494 
L 1759 3500 
L 2913 3500 
L 2913 2700 
L 1759 2700 
L 1759 1216 
Q 1759 972 1856 886 
Q 1953 800 2241 800 
L 2816 800 
L 2816 0 
L 1856 0 
Q 1194 0 917 276 
Q 641 553 641 1216 
L 641 2700 
L 84 2700 
L 84 3500 
L 641 3500 
L 641 4494 
L 1759 4494 
z
" transform="scale(0.015625)"/>
       <path id="DejaVuSans-Bold-76" d="M 97 3500 
L 1216 3500 
L 2088 1081 
L 2956 3500 
L 4078 3500 
L 2700 0 
L 1472 0 
L 97 3500 
z
" transform="scale(0.015625)"/>
       <path id="DejaVuSans-Bold-79" d="M 78 3500 
L 1197 3500 
L 2138 1125 
L 2938 3500 
L 4056 3500 
L 2584 -331 
Q 2363 -916 2067 -1148 
Q 1772 -1381 1288 -1381 
L 641 -1381 
L 641 -647 
L 991 -647 
Q 1275 -647 1404 -556 
Q 1534 -466 1606 -231 
L 1638 -134 
L 78 3500 
z
" transform="scale(0.015625)"/>
       <path id="DejaVuSans-Bold-20" transform="scale(0.015625)"/>
       <path id="DejaVuSans-Bold-5b" d="M 550 4863 
L 2491 4863 
L 2491 4159 
L 1613 4159 
L 1613 -141 
L 2491 -141 
L 2491 -844 
L 550 -844 
L 550 4863 
z
" transform="scale(0.015625)"/>
       <path id="DejaVuSans-Bold-3a9" d="M 2719 4750 
Q 3841 4750 4480 4106 
Q 5119 3463 5119 2494 
Q 5119 1406 4306 909 
L 5266 909 
L 5266 0 
L 3125 0 
L 3125 975 
Q 3244 1041 3334 1131 
Q 3875 1678 3875 2466 
Q 3875 3066 3572 3472 
Q 3269 3878 2719 3878 
Q 2169 3878 1866 3472 
Q 1563 3066 1563 2466 
Q 1563 1678 2103 1131 
Q 2194 1041 2313 975 
L 2313 0 
L 172 0 
L 172 909 
L 1131 909 
Q 319 1406 319 2494 
Q 319 3463 958 4106 
Q 1597 4750 2719 4750 
z
" transform="scale(0.015625)"/>
       <path id="DejaVuSans-Bold-6d" d="M 3781 2919 
Q 3994 3244 4286 3414 
Q 4578 3584 4928 3584 
Q 5531 3584 5847 3212 
Q 6163 2841 6163 2131 
L 6163 0 
L 5038 0 
L 5038 1825 
Q 5041 1866 5042 1909 
Q 5044 1953 5044 2034 
Q 5044 2406 4934 2573 
Q 4825 2741 4581 2741 
Q 4263 2741 4089 2478 
Q 3916 2216 3909 1719 
L 3909 0 
L 2784 0 
L 2784 1825 
Q 2784 2406 2684 2573 
Q 2584 2741 2328 2741 
Q 2006 2741 1831 2477 
Q 1656 2213 1656 1722 
L 1656 0 
L 531 0 
L 531 3500 
L 1656 3500 
L 1656 2988 
Q 1863 3284 2130 3434 
Q 2397 3584 2719 3584 
Q 3081 3584 3359 3409 
Q 3638 3234 3781 2919 
z
" transform="scale(0.015625)"/>
       <path id="DejaVuSans-Bold-5d" d="M 2375 -844 
L 434 -844 
L 434 -141 
L 1313 -141 
L 1313 4159 
L 434 4159 
L 434 4863 
L 2375 4863 
L 2375 -844 
z
" transform="scale(0.015625)"/>
      </defs>
      <use xlink:href="#DejaVuSans-Bold-52" transform="translate(0 0.015625)"/>
      <use xlink:href="#DejaVuSans-Bold-65" transform="translate(77.001953 0.015625)"/>
      <use xlink:href="#DejaVuSans-Bold-73" transform="translate(144.824219 0.015625)"/>
      <use xlink:href="#DejaVuSans-Bold-69" transform="translate(204.345703 0.015625)"/>
      <use xlink:href="#DejaVuSans-Bold-73" transform="translate(238.623047 0.015625)"/>
      <use xlink:href="#DejaVuSans-Bold-74" transform="translate(298.144531 0.015625)"/>
      <use xlink:href="#DejaVuSans-Bold-69" transform="translate(345.947266 0.015625)"/>
      <use xlink:href="#DejaVuSans-Bold-76" transform="translate(380.224609 0.015625)"/>
      <use xlink:href="#DejaVuSans-Bold-69" transform="translate(445.410156 0.015625)"/>
      <use xlink:href="#DejaVuSans-Bold-74" transform="translate(479.6875 0.015625)"/>
      <use xlink:href="#DejaVuSans-Bold-79" transform="translate(527.490234 0.015625)"/>
      <use xlink:href="#DejaVuSans-Bold-20" transform="translate(592.675781 0.015625)"/>
      <use xlink:href="#DejaVuSans-Bold-20" transform="translate(627.490234 0.015625)"/>
      <use xlink:href="#DejaVuSans-Bold-5b" transform="translate(662.304688 0.015625)"/>
      <use xlink:href="#DejaVuSans-Bold-3a9" transform="translate(708.007812 0.015625)"/>
      <use xlink:href="#DejaVuSans-Bold-6d" transform="translate(793.017578 0.015625)"/>
      <use xlink:href="#DejaVuSans-Bold-5d" transform="translate(897.216797 0.015625)"/>
     </g>
    </g>
   </g>
   <g id="matplotlib.axis_2">
    <g id="ytick_1">
     <g id="line2d_4">
      <defs>
       <path id="m4c35d67920" d="M 0 0 
L -3.5 0 
" style="stroke: #000000; stroke-width: 1.5"/>
      </defs>
      <g>
       <use xlink:href="#m4c35d67920" x="74.00625" y="28.063636" style="stroke: #000000; stroke-width: 1.5"/>
      </g>
     </g>
     <g id="text_5">
      <!-- 0 -->
      <g transform="translate(54.28125 35.662074) scale(0.2 -0.2)">
       <use xlink:href="#DejaVuSans-30"/>
      </g>
     </g>
    </g>
    <g id="ytick_2">
     <g id="line2d_5">
      <g>
       <use xlink:href="#m4c35d67920" x="74.00625" y="116.845068" style="stroke: #000000; stroke-width: 1.5"/>
      </g>
     </g>
     <g id="text_6">
      <!-- 5 -->
      <g transform="translate(54.28125 124.443505) scale(0.2 -0.2)">
       <use xlink:href="#DejaVuSans-35"/>
      </g>
     </g>
    </g>
    <g id="ytick_3">
     <g id="line2d_6">
      <g>
       <use xlink:href="#m4c35d67920" x="74.00625" y="205.626499" style="stroke: #000000; stroke-width: 1.5"/>
      </g>
     </g>
     <g id="text_7">
      <!-- 10 -->
      <g transform="translate(41.55625 213.224937) scale(0.2 -0.2)">
       <use xlink:href="#DejaVuSans-31"/>
       <use xlink:href="#DejaVuSans-30" x="63.623047"/>
      </g>
     </g>
    </g>
    <g id="ytick_4">
     <g id="line2d_7">
      <g>
       <use xlink:href="#m4c35d67920" x="74.00625" y="294.40793" style="stroke: #000000; stroke-width: 1.5"/>
      </g>
     </g>
     <g id="text_8">
      <!-- 15 -->
      <g transform="translate(41.55625 302.006368) scale(0.2 -0.2)">
       <use xlink:href="#DejaVuSans-31"/>
       <use xlink:href="#DejaVuSans-35" x="63.623047"/>
      </g>
     </g>
    </g>
    <g id="ytick_5">
     <g id="line2d_8">
      <g>
       <use xlink:href="#m4c35d67920" x="74.00625" y="383.189362" style="stroke: #000000; stroke-width: 1.5"/>
      </g>
     </g>
     <g id="text_9">
      <!-- 20 -->
      <g transform="translate(41.55625 390.787799) scale(0.2 -0.2)">
       <defs>
        <path id="DejaVuSans-32" d="M 1228 531 
L 3431 531 
L 3431 0 
L 469 0 
L 469 531 
Q 828 903 1448 1529 
Q 2069 2156 2228 2338 
Q 2531 2678 2651 2914 
Q 2772 3150 2772 3378 
Q 2772 3750 2511 3984 
Q 2250 4219 1831 4219 
Q 1534 4219 1204 4116 
Q 875 4013 500 3803 
L 500 4441 
Q 881 4594 1212 4672 
Q 1544 4750 1819 4750 
Q 2544 4750 2975 4387 
Q 3406 4025 3406 3419 
Q 3406 3131 3298 2873 
Q 3191 2616 2906 2266 
Q 2828 2175 2409 1742 
Q 1991 1309 1228 531 
z
" transform="scale(0.015625)"/>
       </defs>
       <use xlink:href="#DejaVuSans-32"/>
       <use xlink:href="#DejaVuSans-30" x="63.623047"/>
      </g>
     </g>
    </g>
    <g id="text_10">
     <!-- Depth [m] -->
     <g transform="translate(22.396875 293.882812) rotate(-90) scale(0.2 -0.2)">
      <defs>
       <path id="DejaVuSans-Bold-44" d="M 1791 3756 
L 1791 909 
L 2222 909 
Q 2959 909 3348 1275 
Q 3738 1641 3738 2338 
Q 3738 3031 3350 3393 
Q 2963 3756 2222 3756 
L 1791 3756 
z
M 588 4666 
L 1856 4666 
Q 2919 4666 3439 4514 
Q 3959 4363 4331 4000 
Q 4659 3684 4818 3271 
Q 4978 2859 4978 2338 
Q 4978 1809 4818 1395 
Q 4659 981 4331 666 
Q 3956 303 3431 151 
Q 2906 0 1856 0 
L 588 0 
L 588 4666 
z
" transform="scale(0.015625)"/>
       <path id="DejaVuSans-Bold-70" d="M 1656 506 
L 1656 -1331 
L 538 -1331 
L 538 3500 
L 1656 3500 
L 1656 2988 
Q 1888 3294 2169 3439 
Q 2450 3584 2816 3584 
Q 3463 3584 3878 3070 
Q 4294 2556 4294 1747 
Q 4294 938 3878 423 
Q 3463 -91 2816 -91 
Q 2450 -91 2169 54 
Q 1888 200 1656 506 
z
M 2400 2772 
Q 2041 2772 1848 2508 
Q 1656 2244 1656 1747 
Q 1656 1250 1848 986 
Q 2041 722 2400 722 
Q 2759 722 2948 984 
Q 3138 1247 3138 1747 
Q 3138 2247 2948 2509 
Q 2759 2772 2400 2772 
z
" transform="scale(0.015625)"/>
       <path id="DejaVuSans-Bold-68" d="M 4056 2131 
L 4056 0 
L 2931 0 
L 2931 347 
L 2931 1625 
Q 2931 2084 2911 2256 
Q 2891 2428 2841 2509 
Q 2775 2619 2662 2680 
Q 2550 2741 2406 2741 
Q 2056 2741 1856 2470 
Q 1656 2200 1656 1722 
L 1656 0 
L 538 0 
L 538 4863 
L 1656 4863 
L 1656 2988 
Q 1909 3294 2193 3439 
Q 2478 3584 2822 3584 
Q 3428 3584 3742 3212 
Q 4056 2841 4056 2131 
z
" transform="scale(0.015625)"/>
      </defs>
      <use xlink:href="#DejaVuSans-Bold-44"/>
      <use xlink:href="#DejaVuSans-Bold-65" x="83.007812"/>
      <use xlink:href="#DejaVuSans-Bold-70" x="150.830078"/>
      <use xlink:href="#DejaVuSans-Bold-74" x="222.412109"/>
      <use xlink:href="#DejaVuSans-Bold-68" x="270.214844"/>
      <use xlink:href="#DejaVuSans-Bold-20" x="341.40625"/>
      <use xlink:href="#DejaVuSans-Bold-5b" x="376.220703"/>
      <use xlink:href="#DejaVuSans-Bold-6d" x="421.923828"/>
      <use xlink:href="#DejaVuSans-Bold-5d" x="526.123047"/>
     </g>
    </g>
   </g>
   <g id="line2d_9">
    <path d="M 123.299786 28.063636 
L 123.299786 36.941779 
L 101.74601 36.941779 
L 101.74601 45.819923 
L 121.35777 45.819923 
L 121.35777 54.698066 
L 120.633691 54.698066 
L 120.633691 63.576209 
L 130.4341 63.576209 
L 130.4341 72.454352 
L 98.619265 72.454352 
L 98.619265 81.332495 
L 226.756134 81.332495 
L 226.756134 90.210638 
L 190.263729 90.210638 
L 190.263729 99.088781 
L 165.153395 99.088781 
L 165.153395 107.966925 
L 284.618061 107.966925 
L 284.618061 116.845068 
L 149.411094 116.845068 
L 149.411094 125.723211 
L 239.551409 125.723211 
L 239.551409 134.601354 
L 318.03998 134.601354 
L 318.03998 143.479497 
L 186.719431 143.479497 
L 186.719431 152.35764 
L 221.088519 152.35764 
L 221.088519 161.235783 
L 201.96559 161.235783 
L 201.96559 170.113926 
L 243.182382 170.113926 
L 243.182382 178.99207 
L 143.991401 178.99207 
L 143.991401 187.870213 
L 275.082101 187.870213 
L 275.082101 196.748356 
L 251.30226 196.748356 
L 251.30226 205.626499 
L 315.720464 205.626499 
L 315.720464 214.504642 
L 158.63145 214.504642 
L 158.63145 223.382785 
L 139.906508 223.382785 
L 139.906508 232.260928 
L 242.668346 232.260928 
L 242.668346 241.139072 
L 335.042915 241.139072 
L 335.042915 250.017215 
L 254.52786 250.017215 
L 254.52786 258.895358 
L 141.6357 258.895358 
L 141.6357 267.773501 
L 162.193562 267.773501 
L 162.193562 276.651644 
L 173.651751 276.651644 
L 173.651751 285.529787 
L 237.314831 285.529787 
L 237.314831 294.40793 
L 272.098741 294.40793 
L 272.098741 303.286074 
L 264.629129 303.286074 
L 264.629129 312.164217 
L 228.580196 312.164217 
L 228.580196 321.04236 
L 230.404499 321.04236 
L 230.404499 329.920503 
L 251.2696 329.920503 
L 251.2696 338.798646 
L 295.517113 338.798646 
L 295.517113 347.676789 
L 160.514584 347.676789 
L 160.514584 356.554932 
L 238.088696 356.554932 
L 238.088696 365.433075 
L 152.997459 365.433075 
L 152.997459 374.311219 
L 212.016212 374.311219 
L 212.016212 383.189362 
L 207.057377 383.189362 
L 207.057377 392.067505 
L 98.477591 392.067505 
L 98.477591 400.945648 
L 232.815693 400.945648 
L 232.815693 409.823791 
L 121.812299 409.823791 
L 121.812299 418.701934 
L 308.558427 418.701934 
L 308.558427 427.580077 
L 151.923687 427.580077 
L 151.923687 436.458221 
L 109.693537 436.458221 
L 109.693537 445.336364 
L 128.884343 445.336364 
" clip-path="url(#paa83cce9c1)" style="fill: none; stroke: #fecc5c; stroke-opacity: 0.3; stroke-width: 2; stroke-linecap: square"/>
   </g>
   <g id="line2d_10">
    <path d="M 257.261248 28.063636 
L 257.261248 36.941779 
L 98.072814 36.941779 
L 98.072814 45.819923 
L 104.643963 45.819923 
L 104.643963 54.698066 
L 218.66248 54.698066 
L 218.66248 63.576209 
L 228.710955 63.576209 
L 228.710955 72.454352 
L 101.689667 72.454352 
L 101.689667 81.332495 
L 210.717437 81.332495 
L 210.717437 90.210638 
L 174.926464 90.210638 
L 174.926464 99.088781 
L 179.517877 99.088781 
L 179.517877 107.966925 
L 145.171516 107.966925 
L 145.171516 116.845068 
L 303.711096 116.845068 
L 303.711096 125.723211 
L 256.434588 125.723211 
L 256.434588 134.601354 
L 207.07926 134.601354 
L 207.07926 143.479497 
L 205.600866 143.479497 
L 205.600866 152.35764 
L 237.462862 152.35764 
L 237.462862 161.235783 
L 218.597508 161.235783 
L 218.597508 170.113926 
L 172.534419 170.113926 
L 172.534419 178.99207 
L 243.163272 178.99207 
L 243.163272 187.870213 
L 251.525782 187.870213 
L 251.525782 196.748356 
L 261.45676 196.748356 
L 261.45676 205.626499 
L 315.77864 205.626499 
L 315.77864 214.504642 
L 124.995821 214.504642 
L 124.995821 223.382785 
L 215.335413 223.382785 
L 215.335413 232.260928 
L 137.525272 232.260928 
L 137.525272 241.139072 
L 306.639401 241.139072 
L 306.639401 250.017215 
L 253.077671 250.017215 
L 253.077671 258.895358 
L 189.089699 258.895358 
L 189.089699 267.773501 
L 196.510367 267.773501 
L 196.510367 276.651644 
L 205.939555 276.651644 
L 205.939555 285.529787 
L 306.507633 285.529787 
L 306.507633 294.40793 
L 140.679506 294.40793 
L 140.679506 303.286074 
L 242.53602 303.286074 
L 242.53602 312.164217 
L 275.515611 312.164217 
L 275.515611 321.04236 
L 270.94609 321.04236 
L 270.94609 329.920503 
L 191.936114 329.920503 
L 191.936114 338.798646 
L 177.428432 338.798646 
L 177.428432 347.676789 
L 305.497344 347.676789 
L 305.497344 356.554932 
L 176.881262 356.554932 
L 176.881262 365.433075 
L 316.527155 365.433075 
L 316.527155 374.311219 
L 251.437389 374.311219 
L 251.437389 383.189362 
L 300.055331 383.189362 
L 300.055331 392.067505 
L 145.645953 392.067505 
L 145.645953 400.945648 
L 323.907319 400.945648 
L 323.907319 409.823791 
L 177.672331 409.823791 
L 177.672331 418.701934 
L 259.691069 418.701934 
L 259.691069 427.580077 
L 250.619109 427.580077 
L 250.619109 436.458221 
L 280.39854 436.458221 
L 280.39854 445.336364 
L 147.294347 445.336364 
" clip-path="url(#paa83cce9c1)" style="fill: none; stroke: #fecc5c; stroke-opacity: 0.3; stroke-width: 2; stroke-linecap: square"/>
   </g>
   <g id="line2d_11">
    <path d="M 125.189279 28.063636 
L 125.189279 36.941779 
L 100.85794 36.941779 
L 100.85794 45.819923 
L 151.755476 45.819923 
L 151.755476 54.698066 
L 106.386199 54.698066 
L 106.386199 63.576209 
L 117.218668 63.576209 
L 117.218668 72.454352 
L 99.872891 72.454352 
L 99.872891 81.332495 
L 147.969379 81.332495 
L 147.969379 90.210638 
L 248.017957 90.210638 
L 248.017957 99.088781 
L 197.06866 99.088781 
L 197.06866 107.966925 
L 210.138579 107.966925 
L 210.138579 116.845068 
L 282.530388 116.845068 
L 282.530388 125.723211 
L 242.85639 125.723211 
L 242.85639 134.601354 
L 132.4713 134.601354 
L 132.4713 143.479497 
L 309.368433 143.479497 
L 309.368433 152.35764 
L 299.679017 152.35764 
L 299.679017 161.235783 
L 124.17547 161.235783 
L 124.17547 170.113926 
L 199.900961 170.113926 
L 199.900961 178.99207 
L 132.914101 178.99207 
L 132.914101 187.870213 
L 197.572132 187.870213 
L 197.572132 196.748356 
L 215.436247 196.748356 
L 215.436247 205.626499 
L 196.649566 205.626499 
L 196.649566 214.504642 
L 139.314542 214.504642 
L 139.314542 223.382785 
L 176.988863 223.382785 
L 176.988863 232.260928 
L 114.130817 232.260928 
L 114.130817 241.139072 
L 246.232432 241.139072 
L 246.232432 250.017215 
L 151.071998 250.017215 
L 151.071998 258.895358 
L 113.637328 258.895358 
L 113.637328 267.773501 
L 285.362447 267.773501 
L 285.362447 276.651644 
L 175.372197 276.651644 
L 175.372197 285.529787 
L 314.745473 285.529787 
L 314.745473 294.40793 
L 255.14848 294.40793 
L 255.14848 303.286074 
L 195.127894 303.286074 
L 195.127894 312.164217 
L 325.032209 312.164217 
L 325.032209 321.04236 
L 213.652124 321.04236 
L 213.652124 329.920503 
L 201.000802 329.920503 
L 201.000802 338.798646 
L 243.33421 338.798646 
L 243.33421 347.676789 
L 236.183385 347.676789 
L 236.183385 356.554932 
L 194.800983 356.554932 
L 194.800983 365.433075 
L 304.571425 365.433075 
L 304.571425 374.311219 
L 254.425195 374.311219 
L 254.425195 383.189362 
L 264.424536 383.189362 
L 264.424536 392.067505 
L 250.303139 392.067505 
L 250.303139 400.945648 
L 312.401588 400.945648 
L 312.401588 409.823791 
L 314.20987 409.823791 
L 314.20987 418.701934 
L 186.915531 418.701934 
L 186.915531 427.580077 
L 116.603109 427.580077 
L 116.603109 436.458221 
L 222.818808 436.458221 
L 222.818808 445.336364 
L 139.339967 445.336364 
" clip-path="url(#paa83cce9c1)" style="fill: none; stroke: #fecc5c; stroke-opacity: 0.3; stroke-width: 2; stroke-linecap: square"/>
   </g>
   <g id="line2d_12">
    <path d="M 172.050307 28.063636 
L 172.050307 36.941779 
L 99.611767 36.941779 
L 99.611767 45.819923 
L 136.821214 45.819923 
L 136.821214 54.698066 
L 123.947883 54.698066 
L 123.947883 63.576209 
L 210.281975 63.576209 
L 210.281975 72.454352 
L 113.071189 72.454352 
L 113.071189 81.332495 
L 226.164074 81.332495 
L 226.164074 90.210638 
L 230.440896 90.210638 
L 230.440896 99.088781 
L 209.834946 99.088781 
L 209.834946 107.966925 
L 221.132588 107.966925 
L 221.132588 116.845068 
L 195.285314 116.845068 
L 195.285314 125.723211 
L 255.236195 125.723211 
L 255.236195 134.601354 
L 297.635879 134.601354 
L 297.635879 143.479497 
L 208.749301 143.479497 
L 208.749301 152.35764 
L 294.840262 152.35764 
L 294.840262 161.235783 
L 303.068924 161.235783 
L 303.068924 170.113926 
L 117.46085 170.113926 
L 117.46085 178.99207 
L 256.984343 178.99207 
L 256.984343 187.870213 
L 316.462348 187.870213 
L 316.462348 196.748356 
L 279.273786 196.748356 
L 279.273786 205.626499 
L 133.764306 205.626499 
L 133.764306 214.504642 
L 303.567331 214.504642 
L 303.567331 223.382785 
L 255.365492 223.382785 
L 255.365492 232.260928 
L 294.293747 232.260928 
L 294.293747 241.139072 
L 281.823047 241.139072 
L 281.823047 250.017215 
L 128.971266 250.017215 
L 128.971266 258.895358 
L 260.431295 258.895358 
L 260.431295 267.773501 
L 135.229314 267.773501 
L 135.229314 276.651644 
L 172.497705 276.651644 
L 172.497705 285.529787 
L 266.063161 285.529787 
L 266.063161 294.40793 
L 139.482794 294.40793 
L 139.482794 303.286074 
L 266.351384 303.286074 
L 266.351384 312.164217 
L 217.084382 312.164217 
L 217.084382 321.04236 
L 107.182486 321.04236 
L 107.182486 329.920503 
L 123.74917 329.920503 
L 123.74917 338.798646 
L 255.170349 338.798646 
L 255.170349 347.676789 
L 209.909956 347.676789 
L 209.909956 356.554932 
L 209.144018 356.554932 
L 209.144018 365.433075 
L 187.184524 365.433075 
L 187.184524 374.311219 
L 222.584419 374.311219 
L 222.584419 383.189362 
L 260.42162 383.189362 
L 260.42162 392.067505 
L 135.815462 392.067505 
L 135.815462 400.945648 
L 101.600302 400.945648 
L 101.600302 409.823791 
L 219.708164 409.823791 
L 219.708164 418.701934 
L 130.623112 418.701934 
L 130.623112 427.580077 
L 155.683783 427.580077 
L 155.683783 436.458221 
L 111.798561 436.458221 
L 111.798561 445.336364 
L 201.614332 445.336364 
" clip-path="url(#paa83cce9c1)" style="fill: none; stroke: #fecc5c; stroke-opacity: 0.3; stroke-width: 2; stroke-linecap: square"/>
   </g>
   <g id="line2d_13">
    <path d="M 184.004416 28.063636 
L 184.004416 36.941779 
L 99.176506 36.941779 
L 99.176506 45.819923 
L 175.666517 45.819923 
L 175.666517 54.698066 
L 114.413556 54.698066 
L 114.413556 63.576209 
L 144.331074 63.576209 
L 144.331074 72.454352 
L 135.326606 72.454352 
L 135.326606 81.332495 
L 174.362399 81.332495 
L 174.362399 90.210638 
L 306.739384 90.210638 
L 306.739384 99.088781 
L 270.953942 99.088781 
L 270.953942 107.966925 
L 153.434259 107.966925 
L 153.434259 116.845068 
L 200.238309 116.845068 
L 200.238309 125.723211 
L 202.514049 125.723211 
L 202.514049 134.601354 
L 309.603334 134.601354 
L 309.603334 143.479497 
L 263.86503 143.479497 
L 263.86503 152.35764 
L 128.513774 152.35764 
L 128.513774 161.235783 
L 216.065066 161.235783 
L 216.065066 170.113926 
L 201.142932 170.113926 
L 201.142932 178.99207 
L 284.035722 178.99207 
L 284.035722 187.870213 
L 178.529201 187.870213 
L 178.529201 196.748356 
L 170.674005 196.748356 
L 170.674005 205.626499 
L 264.923908 205.626499 
L 264.923908 214.504642 
L 206.784157 214.504642 
L 206.784157 223.382785 
L 242.309077 223.382785 
L 242.309077 232.260928 
L 130.833715 232.260928 
L 130.833715 241.139072 
L 237.406495 241.139072 
L 237.406495 250.017215 
L 261.077205 250.017215 
L 261.077205 258.895358 
L 258.064637 258.895358 
L 258.064637 267.773501 
L 207.717047 267.773501 
L 207.717047 276.651644 
L 265.574384 276.651644 
L 265.574384 285.529787 
L 188.682089 285.529787 
L 188.682089 294.40793 
L 239.456958 294.40793 
L 239.456958 303.286074 
L 132.685628 303.286074 
L 132.685628 312.164217 
L 235.368662 312.164217 
L 235.368662 321.04236 
L 197.655363 321.04236 
L 197.655363 329.920503 
L 119.255655 329.920503 
L 119.255655 338.798646 
L 200.159735 338.798646 
L 200.159735 347.676789 
L 160.245524 347.676789 
L 160.245524 356.554932 
L 167.029792 356.554932 
L 167.029792 365.433075 
L 270.066696 365.433075 
L 270.066696 374.311219 
L 167.276125 374.311219 
L 167.276125 383.189362 
L 241.913471 383.189362 
L 241.913471 392.067505 
L 192.184684 392.067505 
L 192.184684 400.945648 
L 153.395657 400.945648 
L 153.395657 409.823791 
L 98.046719 409.823791 
L 98.046719 418.701934 
L 209.29935 418.701934 
L 209.29935 427.580077 
L 104.037145 427.580077 
L 104.037145 436.458221 
L 264.616997 436.458221 
L 264.616997 445.336364 
L 126.541861 445.336364 
" clip-path="url(#paa83cce9c1)" style="fill: none; stroke: #fecc5c; stroke-opacity: 0.3; stroke-width: 2; stroke-linecap: square"/>
   </g>
   <g id="line2d_14">
    <path d="M 203.028138 28.063636 
L 203.028138 36.941779 
L 98.593259 36.941779 
L 98.593259 45.819923 
L 278.65211 45.819923 
L 278.65211 54.698066 
L 96.414943 54.698066 
L 96.414943 63.576209 
L 155.184938 63.576209 
L 155.184938 72.454352 
L 205.647986 72.454352 
L 205.647986 81.332495 
L 228.971266 81.332495 
L 228.971266 90.210638 
L 259.266542 90.210638 
L 259.266542 99.088781 
L 199.821407 99.088781 
L 199.821407 107.966925 
L 201.238996 107.966925 
L 201.238996 116.845068 
L 186.634151 116.845068 
L 186.634151 125.723211 
L 178.039324 125.723211 
L 178.039324 134.601354 
L 271.571337 134.601354 
L 271.571337 143.479497 
L 259.190447 143.479497 
L 259.190447 152.35764 
L 132.4609 152.35764 
L 132.4609 161.235783 
L 337.378044 161.235783 
L 337.378044 170.113926 
L 302.411379 170.113926 
L 302.411379 178.99207 
L 198.714444 178.99207 
L 198.714444 187.870213 
L 289.51582 187.870213 
L 289.51582 196.748356 
L 292.464561 196.748356 
L 292.464561 205.626499 
L 155.94354 205.626499 
L 155.94354 214.504642 
L 284.779188 214.504642 
L 284.779188 223.382785 
L 267.218164 223.382785 
L 267.218164 232.260928 
L 261.477559 232.260928 
L 261.477559 241.139072 
L 143.269449 241.139072 
L 143.269449 250.017215 
L 184.367928 250.017215 
L 184.367928 258.895358 
L 216.181424 258.895358 
L 216.181424 267.773501 
L 290.746239 267.773501 
L 290.746239 276.651644 
L 208.629281 276.651644 
L 208.629281 285.529787 
L 204.060106 285.529787 
L 204.060106 294.40793 
L 225.475784 294.40793 
L 225.475784 303.286074 
L 231.641595 303.286074 
L 231.641595 312.164217 
L 281.533242 312.164217 
L 281.533242 321.04236 
L 96.321997 321.04236 
L 96.321997 329.920503 
L 162.337297 329.920503 
L 162.337297 338.798646 
L 225.997552 338.798646 
L 225.997552 347.676789 
L 217.544109 347.676789 
L 217.544109 356.554932 
L 139.835277 356.554932 
L 139.835277 365.433075 
L 190.817463 365.433075 
L 190.817463 374.311219 
L 242.333598 374.311219 
L 242.333598 383.189362 
L 160.931244 383.189362 
L 160.931244 392.067505 
L 103.176379 392.067505 
L 103.176379 400.945648 
L 223.006747 400.945648 
L 223.006747 409.823791 
L 247.303457 409.823791 
L 247.303457 418.701934 
L 159.214369 418.701934 
L 159.214369 427.580077 
L 236.208976 427.580077 
L 236.208976 436.458221 
L 127.031672 436.458221 
L 127.031672 445.336364 
L 157.111832 445.336364 
" clip-path="url(#paa83cce9c1)" style="fill: none; stroke: #fecc5c; stroke-opacity: 0.3; stroke-width: 2; stroke-linecap: square"/>
   </g>
   <g id="line2d_15">
    <path d="M 136.295889 28.063636 
L 136.295889 36.941779 
L 120.851226 36.941779 
L 120.851226 45.819923 
L 97.150012 45.819923 
L 97.150012 54.698066 
L 275.394529 54.698066 
L 275.394529 63.576209 
L 259.873251 63.576209 
L 259.873251 72.454352 
L 103.454908 72.454352 
L 103.454908 81.332495 
L 194.176135 81.332495 
L 194.176135 90.210638 
L 117.309967 90.210638 
L 117.309967 99.088781 
L 187.577507 99.088781 
L 187.577507 107.966925 
L 286.463178 107.966925 
L 286.463178 116.845068 
L 173.486728 116.845068 
L 173.486728 125.723211 
L 210.919957 125.723211 
L 210.919957 134.601354 
L 103.839007 134.601354 
L 103.839007 143.479497 
L 230.57601 143.479497 
L 230.57601 152.35764 
L 330.724481 152.35764 
L 330.724481 161.235783 
L 206.231953 161.235783 
L 206.231953 170.113926 
L 307.733772 170.113926 
L 307.733772 178.99207 
L 215.003166 178.99207 
L 215.003166 187.870213 
L 281.38179 187.870213 
L 281.38179 196.748356 
L 145.313296 196.748356 
L 145.313296 205.626499 
L 215.989325 205.626499 
L 215.989325 214.504642 
L 254.705551 214.504642 
L 254.705551 223.382785 
L 187.365191 223.382785 
L 187.365191 232.260928 
L 216.793951 232.260928 
L 216.793951 241.139072 
L 197.9144 241.139072 
L 197.9144 250.017215 
L 278.628464 250.017215 
L 278.628464 258.895358 
L 115.517325 258.895358 
L 115.517325 267.773501 
L 160.987942 267.773501 
L 160.987942 276.651644 
L 178.414199 276.651644 
L 178.414199 285.529787 
L 264.740551 285.529787 
L 264.740551 294.40793 
L 246.982801 294.40793 
L 246.982801 303.286074 
L 269.239991 303.286074 
L 269.239991 312.164217 
L 171.016093 312.164217 
L 171.016093 321.04236 
L 162.943034 321.04236 
L 162.943034 329.920503 
L 172.515557 329.920503 
L 172.515557 338.798646 
L 247.577634 338.798646 
L 247.577634 347.676789 
L 127.920723 347.676789 
L 127.920723 356.554932 
L 292.048518 356.554932 
L 292.048518 365.433075 
L 197.246841 365.433075 
L 197.246841 374.311219 
L 219.212838 374.311219 
L 219.212838 383.189362 
L 335.502302 383.189362 
L 335.502302 392.067505 
L 265.763137 392.067505 
L 265.763137 400.945648 
L 108.182975 400.945648 
L 108.182975 409.823791 
L 280.901634 409.823791 
L 280.901634 418.701934 
L 258.646434 418.701934 
L 258.646434 427.580077 
L 236.936105 427.580077 
L 236.936105 436.458221 
L 227.63271 436.458221 
L 227.63271 445.336364 
L 126.411353 445.336364 
" clip-path="url(#paa83cce9c1)" style="fill: none; stroke: #fecc5c; stroke-opacity: 0.3; stroke-width: 2; stroke-linecap: square"/>
   </g>
   <g id="line2d_16">
    <path d="M 169.924661 28.063636 
L 169.924661 36.941779 
L 99.73998 36.941779 
L 99.73998 45.819923 
L 168.542398 45.819923 
L 168.542398 54.698066 
L 102.76102 54.698066 
L 102.76102 63.576209 
L 304.682395 63.576209 
L 304.682395 72.454352 
L 210.638094 72.454352 
L 210.638094 81.332495 
L 131.619053 81.332495 
L 131.619053 90.210638 
L 125.594836 90.210638 
L 125.594836 99.088781 
L 138.952014 99.088781 
L 138.952014 107.966925 
L 178.807228 107.966925 
L 178.807228 116.845068 
L 273.186918 116.845068 
L 273.186918 125.723211 
L 279.299814 125.723211 
L 279.299814 134.601354 
L 186.370222 134.601354 
L 186.370222 143.479497 
L 169.316241 143.479497 
L 169.316241 152.35764 
L 324.610982 152.35764 
L 324.610982 161.235783 
L 259.560281 161.235783 
L 259.560281 170.113926 
L 207.942754 170.113926 
L 207.942754 178.99207 
L 219.690681 178.99207 
L 219.690681 187.870213 
L 307.678083 187.870213 
L 307.678083 196.748356 
L 314.52816 196.748356 
L 314.52816 205.626499 
L 268.403429 205.626499 
L 268.403429 214.504642 
L 172.686993 214.504642 
L 172.686993 223.382785 
L 244.67691 223.382785 
L 244.67691 232.260928 
L 134.911875 232.260928 
L 134.911875 241.139072 
L 334.857101 241.139072 
L 334.857101 250.017215 
L 247.506829 250.017215 
L 247.506829 258.895358 
L 103.181087 258.895358 
L 103.181087 267.773501 
L 199.668441 267.773501 
L 199.668441 276.651644 
L 144.223782 276.651644 
L 144.223782 285.529787 
L 181.444024 285.529787 
L 181.444024 294.40793 
L 228.579895 294.40793 
L 228.579895 303.286074 
L 109.684778 303.286074 
L 109.684778 312.164217 
L 196.429118 312.164217 
L 196.429118 321.04236 
L 201.363485 321.04236 
L 201.363485 329.920503 
L 241.935007 329.920503 
L 241.935007 338.798646 
L 202.183717 338.798646 
L 202.183717 347.676789 
L 167.415617 347.676789 
L 167.415617 356.554932 
L 204.270931 356.554932 
L 204.270931 365.433075 
L 294.67166 365.433075 
L 294.67166 374.311219 
L 282.019064 374.311219 
L 282.019064 383.189362 
L 324.511165 383.189362 
L 324.511165 392.067505 
L 234.938061 392.067505 
L 234.938061 400.945648 
L 318.059361 400.945648 
L 318.059361 409.823791 
L 249.886343 409.823791 
L 249.886343 418.701934 
L 263.158353 418.701934 
L 263.158353 427.580077 
L 176.161563 427.580077 
L 176.161563 436.458221 
L 111.860396 436.458221 
L 111.860396 445.336364 
L 145.168773 445.336364 
" clip-path="url(#paa83cce9c1)" style="fill: none; stroke: #fecc5c; stroke-opacity: 0.3; stroke-width: 2; stroke-linecap: square"/>
   </g>
   <g id="line2d_17">
    <path d="M 113.281936 28.063636 
L 113.281936 36.941779 
L 119.860874 36.941779 
L 119.860874 45.819923 
L 98.580032 45.819923 
L 98.580032 54.698066 
L 165.107865 54.698066 
L 165.107865 63.576209 
L 230.254043 63.576209 
L 230.254043 72.454352 
L 144.949942 72.454352 
L 144.949942 81.332495 
L 134.50885 81.332495 
L 134.50885 90.210638 
L 276.788366 90.210638 
L 276.788366 99.088781 
L 135.470948 99.088781 
L 135.470948 107.966925 
L 143.701302 107.966925 
L 143.701302 116.845068 
L 238.879954 116.845068 
L 238.879954 125.723211 
L 287.462253 125.723211 
L 287.462253 134.601354 
L 282.653309 134.601354 
L 282.653309 143.479497 
L 221.381716 143.479497 
L 221.381716 152.35764 
L 157.714057 152.35764 
L 157.714057 161.235783 
L 180.210734 161.235783 
L 180.210734 170.113926 
L 271.032795 170.113926 
L 271.032795 178.99207 
L 234.383694 178.99207 
L 234.383694 187.870213 
L 224.08056 187.870213 
L 224.08056 196.748356 
L 163.208243 196.748356 
L 163.208243 205.626499 
L 257.634397 205.626499 
L 257.634397 214.504642 
L 278.229512 214.504642 
L 278.229512 223.382785 
L 278.336171 223.382785 
L 278.336171 232.260928 
L 320.131466 232.260928 
L 320.131466 241.139072 
L 239.766356 241.139072 
L 239.766356 250.017215 
L 303.661014 250.017215 
L 303.661014 258.895358 
L 166.499117 258.895358 
L 166.499117 267.773501 
L 229.900998 267.773501 
L 229.900998 276.651644 
L 126.147999 276.651644 
L 126.147999 285.529787 
L 199.812718 285.529787 
L 199.812718 294.40793 
L 207.132032 294.40793 
L 207.132032 303.286074 
L 302.158468 303.286074 
L 302.158468 312.164217 
L 285.761896 312.164217 
L 285.761896 321.04236 
L 186.310118 321.04236 
L 186.310118 329.920503 
L 251.333774 329.920503 
L 251.333774 338.798646 
L 265.7394 338.798646 
L 265.7394 347.676789 
L 177.424476 347.676789 
L 177.424476 356.554932 
L 235.431268 356.554932 
L 235.431268 365.433075 
L 235.352762 365.433075 
L 235.352762 374.311219 
L 329.416384 374.311219 
L 329.416384 383.189362 
L 196.908219 383.189362 
L 196.908219 392.067505 
L 263.456568 392.067505 
L 263.456568 400.945648 
L 142.114202 400.945648 
L 142.114202 409.823791 
L 135.303103 409.823791 
L 135.303103 418.701934 
L 109.003231 418.701934 
L 109.003231 427.580077 
L 184.920614 427.580077 
L 184.920614 436.458221 
L 218.226905 436.458221 
L 218.226905 445.336364 
L 152.883219 445.336364 
" clip-path="url(#paa83cce9c1)" style="fill: none; stroke: #fecc5c; stroke-opacity: 0.3; stroke-width: 2; stroke-linecap: square"/>
   </g>
   <g id="line2d_18">
    <path d="M 185.878251 28.063636 
L 185.878251 36.941779 
L 98.89392 36.941779 
L 98.89392 45.819923 
L 181.668601 45.819923 
L 181.668601 54.698066 
L 109.148836 54.698066 
L 109.148836 63.576209 
L 164.748076 63.576209 
L 164.748076 72.454352 
L 332.615414 72.454352 
L 332.615414 81.332495 
L 98.569486 81.332495 
L 98.569486 90.210638 
L 271.353436 90.210638 
L 271.353436 99.088781 
L 320.068197 99.088781 
L 320.068197 107.966925 
L 291.91571 107.966925 
L 291.91571 116.845068 
L 177.118672 116.845068 
L 177.118672 125.723211 
L 185.97852 125.723211 
L 185.97852 134.601354 
L 260.585761 134.601354 
L 260.585761 143.479497 
L 138.270848 143.479497 
L 138.270848 152.35764 
L 126.420646 152.35764 
L 126.420646 161.235783 
L 204.474891 161.235783 
L 204.474891 170.113926 
L 232.684859 170.113926 
L 232.684859 178.99207 
L 143.15091 178.99207 
L 143.15091 187.870213 
L 294.714417 187.870213 
L 294.714417 196.748356 
L 175.590445 196.748356 
L 175.590445 205.626499 
L 133.180309 205.626499 
L 133.180309 214.504642 
L 267.793193 214.504642 
L 267.793193 223.382785 
L 295.519434 223.382785 
L 295.519434 232.260928 
L 294.250056 232.260928 
L 294.250056 241.139072 
L 255.582036 241.139072 
L 255.582036 250.017215 
L 219.808832 250.017215 
L 219.808832 258.895358 
L 279.465507 258.895358 
L 279.465507 267.773501 
L 133.610639 267.773501 
L 133.610639 276.651644 
L 276.625475 276.651644 
L 276.625475 285.529787 
L 139.362604 285.529787 
L 139.362604 294.40793 
L 302.278405 294.40793 
L 302.278405 303.286074 
L 325.862622 303.286074 
L 325.862622 312.164217 
L 177.406195 312.164217 
L 177.406195 321.04236 
L 231.07169 321.04236 
L 231.07169 329.920503 
L 239.979886 329.920503 
L 239.979886 338.798646 
L 168.840064 338.798646 
L 168.840064 347.676789 
L 249.957133 347.676789 
L 249.957133 356.554932 
L 151.552922 356.554932 
L 151.552922 365.433075 
L 151.884 365.433075 
L 151.884 374.311219 
L 148.160701 374.311219 
L 148.160701 383.189362 
L 295.063935 383.189362 
L 295.063935 392.067505 
L 209.038692 392.067505 
L 209.038692 400.945648 
L 161.395244 400.945648 
L 161.395244 409.823791 
L 241.721312 409.823791 
L 241.721312 418.701934 
L 229.273852 418.701934 
L 229.273852 427.580077 
L 235.898855 427.580077 
L 235.898855 436.458221 
L 157.407214 436.458221 
L 157.407214 445.336364 
L 132.379757 445.336364 
" clip-path="url(#paa83cce9c1)" style="fill: none; stroke: #fecc5c; stroke-opacity: 0.3; stroke-width: 2; stroke-linecap: square"/>
   </g>
   <g id="line2d_19">
    <path d="M 204.641654 28.063636 
L 204.641654 36.941779 
L 99.032656 36.941779 
L 99.032656 45.819923 
L 249.113473 45.819923 
L 249.113473 54.698066 
L 96.649846 54.698066 
L 96.649846 63.576209 
L 199.849409 63.576209 
L 199.849409 72.454352 
L 175.306155 72.454352 
L 175.306155 81.332495 
L 170.074371 81.332495 
L 170.074371 90.210638 
L 161.366691 90.210638 
L 161.366691 99.088781 
L 183.277211 99.088781 
L 183.277211 107.966925 
L 292.580791 107.966925 
L 292.580791 116.845068 
L 169.772554 116.845068 
L 169.772554 125.723211 
L 208.255363 125.723211 
L 208.255363 134.601354 
L 216.259531 134.601354 
L 216.259531 143.479497 
L 226.815786 143.479497 
L 226.815786 152.35764 
L 278.904509 152.35764 
L 278.904509 161.235783 
L 282.129929 161.235783 
L 282.129929 170.113926 
L 265.48685 170.113926 
L 265.48685 178.99207 
L 225.188209 178.99207 
L 225.188209 187.870213 
L 252.763601 187.870213 
L 252.763601 196.748356 
L 247.607536 196.748356 
L 247.607536 205.626499 
L 184.740007 205.626499 
L 184.740007 214.504642 
L 155.148952 214.504642 
L 155.148952 223.382785 
L 204.899471 223.382785 
L 204.899471 232.260928 
L 280.043958 232.260928 
L 280.043958 241.139072 
L 235.163738 241.139072 
L 235.163738 250.017215 
L 119.754972 250.017215 
L 119.754972 258.895358 
L 107.61507 258.895358 
L 107.61507 267.773501 
L 146.737339 267.773501 
L 146.737339 276.651644 
L 211.667975 276.651644 
L 211.667975 285.529787 
L 200.575513 285.529787 
L 200.575513 294.40793 
L 240.001845 294.40793 
L 240.001845 303.286074 
L 236.181034 303.286074 
L 236.181034 312.164217 
L 300.576361 312.164217 
L 300.576361 321.04236 
L 192.140171 321.04236 
L 192.140171 329.920503 
L 228.755761 329.920503 
L 228.755761 338.798646 
L 242.575537 338.798646 
L 242.575537 347.676789 
L 267.852197 347.676789 
L 267.852197 356.554932 
L 256.025538 356.554932 
L 256.025538 365.433075 
L 169.239777 365.433075 
L 169.239777 374.311219 
L 115.240511 374.311219 
L 115.240511 383.189362 
L 292.913037 383.189362 
L 292.913037 392.067505 
L 137.508773 392.067505 
L 137.508773 400.945648 
L 245.813797 400.945648 
L 245.813797 409.823791 
L 105.436419 409.823791 
L 105.436419 418.701934 
L 102.307786 418.701934 
L 102.307786 427.580077 
L 314.53969 427.580077 
L 314.53969 436.458221 
L 218.412569 436.458221 
L 218.412569 445.336364 
L 171.045474 445.336364 
" clip-path="url(#paa83cce9c1)" style="fill: none; stroke: #fecc5c; stroke-opacity: 0.3; stroke-width: 2; stroke-linecap: square"/>
   </g>
   <g id="line2d_20">
    <path d="M 179.034217 28.063636 
L 179.034217 36.941779 
L 100.061144 36.941779 
L 100.061144 45.819923 
L 190.294836 45.819923 
L 190.294836 54.698066 
L 98.747969 54.698066 
L 98.747969 63.576209 
L 257.24586 63.576209 
L 257.24586 72.454352 
L 157.384335 72.454352 
L 157.384335 81.332495 
L 272.4156 81.332495 
L 272.4156 90.210638 
L 217.276322 90.210638 
L 217.276322 99.088781 
L 228.466393 99.088781 
L 228.466393 107.966925 
L 206.634967 107.966925 
L 206.634967 116.845068 
L 207.214774 116.845068 
L 207.214774 125.723211 
L 283.113164 125.723211 
L 283.113164 134.601354 
L 257.231211 134.601354 
L 257.231211 143.479497 
L 182.373922 143.479497 
L 182.373922 152.35764 
L 215.491476 152.35764 
L 215.491476 161.235783 
L 215.711057 161.235783 
L 215.711057 170.113926 
L 138.735406 170.113926 
L 138.735406 178.99207 
L 253.697613 178.99207 
L 253.697613 187.870213 
L 166.888152 187.870213 
L 166.888152 196.748356 
L 242.237729 196.748356 
L 242.237729 205.626499 
L 292.038707 205.626499 
L 292.038707 214.504642 
L 309.866855 214.504642 
L 309.866855 223.382785 
L 275.250116 223.382785 
L 275.250116 232.260928 
L 264.24977 232.260928 
L 264.24977 241.139072 
L 149.61274 241.139072 
L 149.61274 250.017215 
L 224.848578 250.017215 
L 224.848578 258.895358 
L 222.501331 258.895358 
L 222.501331 267.773501 
L 244.912821 267.773501 
L 244.912821 276.651644 
L 216.461614 276.651644 
L 216.461614 285.529787 
L 180.328116 285.529787 
L 180.328116 294.40793 
L 296.262478 294.40793 
L 296.262478 303.286074 
L 160.457712 303.286074 
L 160.457712 312.164217 
L 274.926083 312.164217 
L 274.926083 321.04236 
L 164.610415 321.04236 
L 164.610415 329.920503 
L 231.392587 329.920503 
L 231.392587 338.798646 
L 155.147038 338.798646 
L 155.147038 347.676789 
L 241.555889 347.676789 
L 241.555889 356.554932 
L 237.375493 356.554932 
L 237.375493 365.433075 
L 320.322148 365.433075 
L 320.322148 374.311219 
L 268.430889 374.311219 
L 268.430889 383.189362 
L 148.164085 383.189362 
L 148.164085 392.067505 
L 267.234335 392.067505 
L 267.234335 400.945648 
L 119.955131 400.945648 
L 119.955131 409.823791 
L 128.831446 409.823791 
L 128.831446 418.701934 
L 261.260713 418.701934 
L 261.260713 427.580077 
L 190.829625 427.580077 
L 190.829625 436.458221 
L 204.513285 436.458221 
L 204.513285 445.336364 
L 114.783316 445.336364 
" clip-path="url(#paa83cce9c1)" style="fill: none; stroke: #fecc5c; stroke-opacity: 0.3; stroke-width: 2; stroke-linecap: square"/>
   </g>
   <g id="line2d_21">
    <path d="M 204.262257 28.063636 
L 204.262257 36.941779 
L 98.874443 36.941779 
L 98.874443 45.819923 
L 183.138601 45.819923 
L 183.138601 54.698066 
L 117.646762 54.698066 
L 117.646762 63.576209 
L 275.107843 63.576209 
L 275.107843 72.454352 
L 282.338168 72.454352 
L 282.338168 81.332495 
L 97.440956 81.332495 
L 97.440956 90.210638 
L 101.227372 90.210638 
L 101.227372 99.088781 
L 301.415695 99.088781 
L 301.415695 107.966925 
L 336.156999 107.966925 
L 336.156999 116.845068 
L 339.358304 116.845068 
L 339.358304 125.723211 
L 184.461724 125.723211 
L 184.461724 134.601354 
L 230.51262 134.601354 
L 230.51262 143.479497 
L 173.611955 143.479497 
L 173.611955 152.35764 
L 146.691093 152.35764 
L 146.691093 161.235783 
L 329.14076 161.235783 
L 329.14076 170.113926 
L 204.996319 170.113926 
L 204.996319 178.99207 
L 201.343847 178.99207 
L 201.343847 187.870213 
L 298.8647 187.870213 
L 298.8647 196.748356 
L 190.266706 196.748356 
L 190.266706 205.626499 
L 136.727934 205.626499 
L 136.727934 214.504642 
L 179.414721 214.504642 
L 179.414721 223.382785 
L 112.054563 223.382785 
L 112.054563 232.260928 
L 187.154396 232.260928 
L 187.154396 241.139072 
L 227.609651 241.139072 
L 227.609651 250.017215 
L 173.109946 250.017215 
L 173.109946 258.895358 
L 257.05979 258.895358 
L 257.05979 267.773501 
L 267.370715 267.773501 
L 267.370715 276.651644 
L 166.104732 276.651644 
L 166.104732 285.529787 
L 144.565956 285.529787 
L 144.565956 294.40793 
L 211.650455 294.40793 
L 211.650455 303.286074 
L 209.680028 303.286074 
L 209.680028 312.164217 
L 190.809995 312.164217 
L 190.809995 321.04236 
L 132.629872 321.04236 
L 132.629872 329.920503 
L 215.233222 329.920503 
L 215.233222 338.798646 
L 271.600033 338.798646 
L 271.600033 347.676789 
L 205.264678 347.676789 
L 205.264678 356.554932 
L 207.141972 356.554932 
L 207.141972 365.433075 
L 104.619436 365.433075 
L 104.619436 374.311219 
L 194.3321 374.311219 
L 194.3321 383.189362 
L 193.167196 383.189362 
L 193.167196 392.067505 
L 112.158681 392.067505 
L 112.158681 400.945648 
L 178.046083 400.945648 
L 178.046083 409.823791 
L 251.026787 409.823791 
L 251.026787 418.701934 
L 183.731739 418.701934 
L 183.731739 427.580077 
L 186.76396 427.580077 
L 186.76396 436.458221 
L 227.523654 436.458221 
L 227.523654 445.336364 
L 142.393066 445.336364 
" clip-path="url(#paa83cce9c1)" style="fill: none; stroke: #fecc5c; stroke-opacity: 0.3; stroke-width: 2; stroke-linecap: square"/>
   </g>
   <g id="line2d_22">
    <path d="M 155.531412 28.063636 
L 155.531412 36.941779 
L 99.437255 36.941779 
L 99.437255 45.819923 
L 226.71499 45.819923 
L 226.71499 54.698066 
L 101.825237 54.698066 
L 101.825237 63.576209 
L 274.550115 63.576209 
L 274.550115 72.454352 
L 118.756931 72.454352 
L 118.756931 81.332495 
L 178.796098 81.332495 
L 178.796098 90.210638 
L 285.476823 90.210638 
L 285.476823 99.088781 
L 179.2378 99.088781 
L 179.2378 107.966925 
L 264.963455 107.966925 
L 264.963455 116.845068 
L 131.894703 116.845068 
L 131.894703 125.723211 
L 287.412744 125.723211 
L 287.412744 134.601354 
L 321.81856 134.601354 
L 321.81856 143.479497 
L 271.454067 143.479497 
L 271.454067 152.35764 
L 312.173122 152.35764 
L 312.173122 161.235783 
L 229.498308 161.235783 
L 229.498308 170.113926 
L 207.438575 170.113926 
L 207.438575 178.99207 
L 104.019672 178.99207 
L 104.019672 187.870213 
L 316.854533 187.870213 
L 316.854533 196.748356 
L 195.36914 196.748356 
L 195.36914 205.626499 
L 213.213678 205.626499 
L 213.213678 214.504642 
L 215.382314 214.504642 
L 215.382314 223.382785 
L 273.534145 223.382785 
L 273.534145 232.260928 
L 237.724529 232.260928 
L 237.724529 241.139072 
L 178.161861 241.139072 
L 178.161861 250.017215 
L 266.965042 250.017215 
L 266.965042 258.895358 
L 225.059515 258.895358 
L 225.059515 267.773501 
L 107.345436 267.773501 
L 107.345436 276.651644 
L 175.342537 276.651644 
L 175.342537 285.529787 
L 259.04953 285.529787 
L 259.04953 294.40793 
L 199.394347 294.40793 
L 199.394347 303.286074 
L 182.004261 303.286074 
L 182.004261 312.164217 
L 194.187944 312.164217 
L 194.187944 321.04236 
L 309.175746 321.04236 
L 309.175746 329.920503 
L 226.318359 329.920503 
L 226.318359 338.798646 
L 187.434616 338.798646 
L 187.434616 347.676789 
L 174.800506 347.676789 
L 174.800506 356.554932 
L 194.855782 356.554932 
L 194.855782 365.433075 
L 261.128553 365.433075 
L 261.128553 374.311219 
L 156.733655 374.311219 
L 156.733655 383.189362 
L 245.052939 383.189362 
L 245.052939 392.067505 
L 210.987439 392.067505 
L 210.987439 400.945648 
L 314.831244 400.945648 
L 314.831244 409.823791 
L 325.146841 409.823791 
L 325.146841 418.701934 
L 105.570776 418.701934 
L 105.570776 427.580077 
L 116.978723 427.580077 
L 116.978723 436.458221 
L 312.644386 436.458221 
L 312.644386 445.336364 
L 134.836368 445.336364 
" clip-path="url(#paa83cce9c1)" style="fill: none; stroke: #fecc5c; stroke-opacity: 0.3; stroke-width: 2; stroke-linecap: square"/>
   </g>
   <g id="line2d_23">
    <path d="M 139.449347 28.063636 
L 139.449347 36.941779 
L 100.964103 36.941779 
L 100.964103 45.819923 
L 113.017462 45.819923 
L 113.017462 54.698066 
L 185.095222 54.698066 
L 185.095222 63.576209 
L 133.319383 63.576209 
L 133.319383 72.454352 
L 140.218744 72.454352 
L 140.218744 81.332495 
L 96.941596 81.332495 
L 96.941596 90.210638 
L 148.754566 90.210638 
L 148.754566 99.088781 
L 218.557728 99.088781 
L 218.557728 107.966925 
L 160.314264 107.966925 
L 160.314264 116.845068 
L 130.081292 116.845068 
L 130.081292 125.723211 
L 186.017931 125.723211 
L 186.017931 134.601354 
L 131.555177 134.601354 
L 131.555177 143.479497 
L 273.444938 143.479497 
L 273.444938 152.35764 
L 229.374 152.35764 
L 229.374 161.235783 
L 279.634215 161.235783 
L 279.634215 170.113926 
L 277.457968 170.113926 
L 277.457968 178.99207 
L 216.805993 178.99207 
L 216.805993 187.870213 
L 276.102969 187.870213 
L 276.102969 196.748356 
L 236.271281 196.748356 
L 236.271281 205.626499 
L 273.080258 205.626499 
L 273.080258 214.504642 
L 228.462791 214.504642 
L 228.462791 223.382785 
L 341.596796 223.382785 
L 341.596796 232.260928 
L 122.026556 232.260928 
L 122.026556 241.139072 
L 289.882444 241.139072 
L 289.882444 250.017215 
L 218.076765 250.017215 
L 218.076765 258.895358 
L 219.32891 258.895358 
L 219.32891 267.773501 
L 212.125939 267.773501 
L 212.125939 276.651644 
L 137.170042 276.651644 
L 137.170042 285.529787 
L 321.858122 285.529787 
L 321.858122 294.40793 
L 266.926384 294.40793 
L 266.926384 303.286074 
L 124.342739 303.286074 
L 124.342739 312.164217 
L 284.778676 312.164217 
L 284.778676 321.04236 
L 131.876139 321.04236 
L 131.876139 329.920503 
L 215.609793 329.920503 
L 215.609793 338.798646 
L 315.929639 338.798646 
L 315.929639 347.676789 
L 317.879817 347.676789 
L 317.879817 356.554932 
L 278.441323 356.554932 
L 278.441323 365.433075 
L 214.276738 365.433075 
L 214.276738 374.311219 
L 183.903197 374.311219 
L 183.903197 383.189362 
L 252.410029 383.189362 
L 252.410029 392.067505 
L 186.208018 392.067505 
L 186.208018 400.945648 
L 179.075165 400.945648 
L 179.075165 409.823791 
L 298.168648 409.823791 
L 298.168648 418.701934 
L 306.46174 418.701934 
L 306.46174 427.580077 
L 297.911352 427.580077 
L 297.911352 436.458221 
L 204.991391 436.458221 
L 204.991391 445.336364 
L 126.931934 445.336364 
" clip-path="url(#paa83cce9c1)" style="fill: none; stroke: #fecc5c; stroke-opacity: 0.3; stroke-width: 2; stroke-linecap: square"/>
   </g>
   <g id="line2d_24">
    <path d="M 178.247127 28.063636 
L 178.247127 36.941779 
L 99.194453 36.941779 
L 99.194453 45.819923 
L 174.563473 45.819923 
L 174.563473 54.698066 
L 96.278977 54.698066 
L 96.278977 63.576209 
L 262.842097 63.576209 
L 262.842097 72.454352 
L 304.559745 72.454352 
L 304.559745 81.332495 
L 117.448889 81.332495 
L 117.448889 90.210638 
L 196.824136 90.210638 
L 196.824136 99.088781 
L 160.455044 99.088781 
L 160.455044 107.966925 
L 266.784879 107.966925 
L 266.784879 116.845068 
L 239.155351 116.845068 
L 239.155351 125.723211 
L 199.661463 125.723211 
L 199.661463 134.601354 
L 296.610203 134.601354 
L 296.610203 143.479497 
L 322.220677 143.479497 
L 322.220677 152.35764 
L 184.928881 152.35764 
L 184.928881 161.235783 
L 299.24406 161.235783 
L 299.24406 170.113926 
L 216.956562 170.113926 
L 216.956562 178.99207 
L 308.41644 178.99207 
L 308.41644 187.870213 
L 321.808312 187.870213 
L 321.808312 196.748356 
L 309.757543 196.748356 
L 309.757543 205.626499 
L 170.521378 205.626499 
L 170.521378 214.504642 
L 182.539374 214.504642 
L 182.539374 223.382785 
L 237.52818 223.382785 
L 237.52818 232.260928 
L 236.326397 232.260928 
L 236.326397 241.139072 
L 252.493373 241.139072 
L 252.493373 250.017215 
L 163.166805 250.017215 
L 163.166805 258.895358 
L 131.073521 258.895358 
L 131.073521 267.773501 
L 197.130385 267.773501 
L 197.130385 276.651644 
L 159.203171 276.651644 
L 159.203171 285.529787 
L 273.411796 285.529787 
L 273.411796 294.40793 
L 248.83164 294.40793 
L 248.83164 303.286074 
L 309.463608 303.286074 
L 309.463608 312.164217 
L 167.740109 312.164217 
L 167.740109 321.04236 
L 293.193679 321.04236 
L 293.193679 329.920503 
L 210.704212 329.920503 
L 210.704212 338.798646 
L 252.213243 338.798646 
L 252.213243 347.676789 
L 132.850565 347.676789 
L 132.850565 356.554932 
L 111.294383 356.554932 
L 111.294383 365.433075 
L 128.140345 365.433075 
L 128.140345 374.311219 
L 217.127139 374.311219 
L 217.127139 383.189362 
L 259.075845 383.189362 
L 259.075845 392.067505 
L 227.99418 392.067505 
L 227.99418 400.945648 
L 225.168631 400.945648 
L 225.168631 409.823791 
L 269.346032 409.823791 
L 269.346032 418.701934 
L 204.79404 418.701934 
L 204.79404 427.580077 
L 295.097348 427.580077 
L 295.097348 436.458221 
L 131.051397 436.458221 
L 131.051397 445.336364 
L 147.015284 445.336364 
" clip-path="url(#paa83cce9c1)" style="fill: none; stroke: #fecc5c; stroke-opacity: 0.3; stroke-width: 2; stroke-linecap: square"/>
   </g>
   <g id="line2d_25">
    <path d="M 224.884914 28.063636 
L 224.884914 36.941779 
L 99.091144 36.941779 
L 99.091144 45.819923 
L 164.120832 45.819923 
L 164.120832 54.698066 
L 234.021049 54.698066 
L 234.021049 63.576209 
L 205.667179 63.576209 
L 205.667179 72.454352 
L 103.810008 72.454352 
L 103.810008 81.332495 
L 124.684376 81.332495 
L 124.684376 90.210638 
L 171.643864 90.210638 
L 171.643864 99.088781 
L 156.634611 99.088781 
L 156.634611 107.966925 
L 152.841392 107.966925 
L 152.841392 116.845068 
L 188.249242 116.845068 
L 188.249242 125.723211 
L 139.670017 125.723211 
L 139.670017 134.601354 
L 318.518613 134.601354 
L 318.518613 143.479497 
L 293.441692 143.479497 
L 293.441692 152.35764 
L 108.85473 152.35764 
L 108.85473 161.235783 
L 246.914166 161.235783 
L 246.914166 170.113926 
L 264.726173 170.113926 
L 264.726173 178.99207 
L 341.733523 178.99207 
L 341.733523 187.870213 
L 236.170258 187.870213 
L 236.170258 196.748356 
L 252.870637 196.748356 
L 252.870637 205.626499 
L 274.278485 205.626499 
L 274.278485 214.504642 
L 185.277396 214.504642 
L 185.277396 223.382785 
L 254.942335 223.382785 
L 254.942335 232.260928 
L 169.71612 232.260928 
L 169.71612 241.139072 
L 282.55625 241.139072 
L 282.55625 250.017215 
L 153.92481 250.017215 
L 153.92481 258.895358 
L 234.823639 258.895358 
L 234.823639 267.773501 
L 301.51922 267.773501 
L 301.51922 276.651644 
L 178.487303 276.651644 
L 178.487303 285.529787 
L 214.051649 285.529787 
L 214.051649 294.40793 
L 129.35856 294.40793 
L 129.35856 303.286074 
L 152.884036 303.286074 
L 152.884036 312.164217 
L 125.767284 312.164217 
L 125.767284 321.04236 
L 150.72569 321.04236 
L 150.72569 329.920503 
L 139.619065 329.920503 
L 139.619065 338.798646 
L 218.058928 338.798646 
L 218.058928 347.676789 
L 140.462683 347.676789 
L 140.462683 356.554932 
L 250.932622 356.554932 
L 250.932622 365.433075 
L 131.106949 365.433075 
L 131.106949 374.311219 
L 322.842895 374.311219 
L 322.842895 383.189362 
L 209.093552 383.189362 
L 209.093552 392.067505 
L 293.53313 392.067505 
L 293.53313 400.945648 
L 258.938877 400.945648 
L 258.938877 409.823791 
L 283.766353 409.823791 
L 283.766353 418.701934 
L 265.019354 418.701934 
L 265.019354 427.580077 
L 206.918337 427.580077 
L 206.918337 436.458221 
L 239.523919 436.458221 
L 239.523919 445.336364 
L 154.266106 445.336364 
" clip-path="url(#paa83cce9c1)" style="fill: none; stroke: #fecc5c; stroke-opacity: 0.3; stroke-width: 2; stroke-linecap: square"/>
   </g>
   <g id="line2d_26">
    <path d="M 140.97785 28.063636 
L 140.97785 36.941779 
L 100.414059 36.941779 
L 100.414059 45.819923 
L 178.018774 45.819923 
L 178.018774 54.698066 
L 99.295626 54.698066 
L 99.295626 63.576209 
L 156.150698 63.576209 
L 156.150698 72.454352 
L 302.648963 72.454352 
L 302.648963 81.332495 
L 112.346545 81.332495 
L 112.346545 90.210638 
L 171.794607 90.210638 
L 171.794607 99.088781 
L 209.384654 99.088781 
L 209.384654 107.966925 
L 303.979923 107.966925 
L 303.979923 116.845068 
L 333.219772 116.845068 
L 333.219772 125.723211 
L 187.166393 125.723211 
L 187.166393 134.601354 
L 262.530182 134.601354 
L 262.530182 143.479497 
L 248.763081 143.479497 
L 248.763081 152.35764 
L 314.925259 152.35764 
L 314.925259 161.235783 
L 260.47981 161.235783 
L 260.47981 170.113926 
L 236.875082 170.113926 
L 236.875082 178.99207 
L 209.897838 178.99207 
L 209.897838 187.870213 
L 164.490395 187.870213 
L 164.490395 196.748356 
L 246.890339 196.748356 
L 246.890339 205.626499 
L 189.937556 205.626499 
L 189.937556 214.504642 
L 222.908211 214.504642 
L 222.908211 223.382785 
L 134.992231 223.382785 
L 134.992231 232.260928 
L 202.423539 232.260928 
L 202.423539 241.139072 
L 207.048123 241.139072 
L 207.048123 250.017215 
L 298.067822 250.017215 
L 298.067822 258.895358 
L 181.367831 258.895358 
L 181.367831 267.773501 
L 199.340196 267.773501 
L 199.340196 276.651644 
L 325.784176 276.651644 
L 325.784176 285.529787 
L 226.762615 285.529787 
L 226.762615 294.40793 
L 271.432078 294.40793 
L 271.432078 303.286074 
L 136.830761 303.286074 
L 136.830761 312.164217 
L 325.205454 312.164217 
L 325.205454 321.04236 
L 246.858448 321.04236 
L 246.858448 329.920503 
L 222.020753 329.920503 
L 222.020753 338.798646 
L 215.00288 338.798646 
L 215.00288 347.676789 
L 107.753742 347.676789 
L 107.753742 356.554932 
L 338.154365 356.554932 
L 338.154365 365.433075 
L 277.453069 365.433075 
L 277.453069 374.311219 
L 233.482929 374.311219 
L 233.482929 383.189362 
L 189.496631 383.189362 
L 189.496631 392.067505 
L 128.147587 392.067505 
L 128.147587 400.945648 
L 210.525602 400.945648 
L 210.525602 409.823791 
L 324.70156 409.823791 
L 324.70156 418.701934 
L 197.52202 418.701934 
L 197.52202 427.580077 
L 170.481846 427.580077 
L 170.481846 436.458221 
L 244.307739 436.458221 
L 244.307739 445.336364 
L 158.426609 445.336364 
" clip-path="url(#paa83cce9c1)" style="fill: none; stroke: #fecc5c; stroke-opacity: 0.3; stroke-width: 2; stroke-linecap: square"/>
   </g>
   <g id="line2d_27">
    <path d="M 199.996174 28.063636 
L 199.996174 36.941779 
L 99.191234 36.941779 
L 99.191234 45.819923 
L 256.424656 45.819923 
L 256.424656 54.698066 
L 99.174194 54.698066 
L 99.174194 63.576209 
L 100.366789 63.576209 
L 100.366789 72.454352 
L 267.018273 72.454352 
L 267.018273 81.332495 
L 240.690135 81.332495 
L 240.690135 90.210638 
L 167.80805 90.210638 
L 167.80805 99.088781 
L 226.26362 99.088781 
L 226.26362 107.966925 
L 323.518586 107.966925 
L 323.518586 116.845068 
L 328.355351 116.845068 
L 328.355351 125.723211 
L 235.15034 125.723211 
L 235.15034 134.601354 
L 186.232252 134.601354 
L 186.232252 143.479497 
L 308.513997 143.479497 
L 308.513997 152.35764 
L 194.515842 152.35764 
L 194.515842 161.235783 
L 165.379404 161.235783 
L 165.379404 170.113926 
L 257.065125 170.113926 
L 257.065125 178.99207 
L 251.825489 178.99207 
L 251.825489 187.870213 
L 238.488583 187.870213 
L 238.488583 196.748356 
L 291.569207 196.748356 
L 291.569207 205.626499 
L 209.570995 205.626499 
L 209.570995 214.504642 
L 128.092803 214.504642 
L 128.092803 223.382785 
L 223.441779 223.382785 
L 223.441779 232.260928 
L 114.898275 232.260928 
L 114.898275 241.139072 
L 277.467267 241.139072 
L 277.467267 250.017215 
L 227.941204 250.017215 
L 227.941204 258.895358 
L 123.474213 258.895358 
L 123.474213 267.773501 
L 230.58008 267.773501 
L 230.58008 276.651644 
L 214.475302 276.651644 
L 214.475302 285.529787 
L 257.360537 285.529787 
L 257.360537 294.40793 
L 260.141098 294.40793 
L 260.141098 303.286074 
L 153.367677 303.286074 
L 153.367677 312.164217 
L 272.882568 312.164217 
L 272.882568 321.04236 
L 166.862064 321.04236 
L 166.862064 329.920503 
L 225.987861 329.920503 
L 225.987861 338.798646 
L 309.361078 338.798646 
L 309.361078 347.676789 
L 229.25022 347.676789 
L 229.25022 356.554932 
L 230.928934 356.554932 
L 230.928934 365.433075 
L 169.544819 365.433075 
L 169.544819 374.311219 
L 201.367554 374.311219 
L 201.367554 383.189362 
L 108.402923 383.189362 
L 108.402923 392.067505 
L 185.10055 392.067505 
L 185.10055 400.945648 
L 110.736509 400.945648 
L 110.736509 409.823791 
L 282.193514 409.823791 
L 282.193514 418.701934 
L 270.202684 418.701934 
L 270.202684 427.580077 
L 273.175931 427.580077 
L 273.175931 436.458221 
L 278.347399 436.458221 
L 278.347399 445.336364 
L 221.890884 445.336364 
" clip-path="url(#paa83cce9c1)" style="fill: none; stroke: #fecc5c; stroke-opacity: 0.3; stroke-width: 2; stroke-linecap: square"/>
   </g>
   <g id="line2d_28">
    <path d="M 173.979038 28.063636 
L 173.979038 36.941779 
L 100.342372 36.941779 
L 100.342372 45.819923 
L 163.078389 45.819923 
L 163.078389 54.698066 
L 164.494667 54.698066 
L 164.494667 63.576209 
L 101.726081 63.576209 
L 101.726081 72.454352 
L 146.265137 72.454352 
L 146.265137 81.332495 
L 277.211929 81.332495 
L 277.211929 90.210638 
L 264.051206 90.210638 
L 264.051206 99.088781 
L 276.49642 99.088781 
L 276.49642 107.966925 
L 135.235316 107.966925 
L 135.235316 116.845068 
L 184.782237 116.845068 
L 184.782237 125.723211 
L 340.56577 125.723211 
L 340.56577 134.601354 
L 206.240318 134.601354 
L 206.240318 143.479497 
L 223.895364 143.479497 
L 223.895364 152.35764 
L 241.095326 152.35764 
L 241.095326 161.235783 
L 268.667132 161.235783 
L 268.667132 170.113926 
L 337.731631 170.113926 
L 337.731631 178.99207 
L 117.943634 178.99207 
L 117.943634 187.870213 
L 296.810364 187.870213 
L 296.810364 196.748356 
L 275.877774 196.748356 
L 275.877774 205.626499 
L 288.865735 205.626499 
L 288.865735 214.504642 
L 124.976543 214.504642 
L 124.976543 223.382785 
L 148.418718 223.382785 
L 148.418718 232.260928 
L 127.298995 232.260928 
L 127.298995 241.139072 
L 289.592096 241.139072 
L 289.592096 250.017215 
L 108.653916 250.017215 
L 108.653916 258.895358 
L 275.694613 258.895358 
L 275.694613 267.773501 
L 306.862034 267.773501 
L 306.862034 276.651644 
L 286.916431 276.651644 
L 286.916431 285.529787 
L 159.769964 285.529787 
L 159.769964 294.40793 
L 137.888825 294.40793 
L 137.888825 303.286074 
L 199.078966 303.286074 
L 199.078966 312.164217 
L 238.693447 312.164217 
L 238.693447 321.04236 
L 233.311026 321.04236 
L 233.311026 329.920503 
L 124.248604 329.920503 
L 124.248604 338.798646 
L 199.357686 338.798646 
L 199.357686 347.676789 
L 153.153285 347.676789 
L 153.153285 356.554932 
L 206.784459 356.554932 
L 206.784459 365.433075 
L 223.870346 365.433075 
L 223.870346 374.311219 
L 306.993531 374.311219 
L 306.993531 383.189362 
L 302.213448 383.189362 
L 302.213448 392.067505 
L 332.103834 392.067505 
L 332.103834 400.945648 
L 207.102561 400.945648 
L 207.102561 409.823791 
L 332.342669 409.823791 
L 332.342669 418.701934 
L 158.408877 418.701934 
L 158.408877 427.580077 
L 176.601019 427.580077 
L 176.601019 436.458221 
L 227.078012 436.458221 
L 227.078012 445.336364 
L 177.662241 445.336364 
" clip-path="url(#paa83cce9c1)" style="fill: none; stroke: #fecc5c; stroke-opacity: 0.3; stroke-width: 2; stroke-linecap: square"/>
   </g>
   <g id="line2d_29"/>
   <g id="line2d_30">
    <path d="M 173.501196 28.063636 
L 173.501196 36.941779 
L 104.352304 36.941779 
L 104.352304 45.819923 
L 162.240524 45.819923 
L 162.240524 54.698066 
L 135.116562 54.698066 
L 135.116562 63.576209 
L 178.265024 63.576209 
L 178.265024 72.454352 
L 166.357417 72.454352 
L 166.357417 81.332495 
L 188.202792 81.332495 
L 188.202792 90.210638 
L 206.77039 90.210638 
L 206.77039 99.088781 
L 208.495486 99.088781 
L 208.495486 107.966925 
L 212.057161 107.966925 
L 212.057161 116.845068 
L 231.722015 116.845068 
L 231.722015 125.723211 
L 227.533662 125.723211 
L 227.533662 134.601354 
L 221.80641 134.601354 
L 221.80641 143.479497 
L 230.571233 143.479497 
L 230.571233 152.35764 
L 240.783517 152.35764 
L 240.783517 161.235783 
L 226.171338 161.235783 
L 226.171338 170.113926 
L 225.868572 170.113926 
L 225.868572 178.99207 
L 224.943722 178.99207 
L 224.943722 187.870213 
L 223.272604 187.870213 
L 223.272604 196.748356 
L 216.162796 196.748356 
L 216.162796 205.626499 
L 223.481296 205.626499 
L 223.481296 214.504642 
L 221.987702 214.504642 
L 221.987702 223.382785 
L 222.71682 223.382785 
L 222.71682 232.260928 
L 217.487373 232.260928 
L 217.487373 241.139072 
L 227.073339 241.139072 
L 227.073339 250.017215 
L 216.203654 250.017215 
L 216.203654 258.895358 
L 214.939927 258.895358 
L 214.939927 267.773501 
L 215.093782 267.773501 
L 215.093782 276.651644 
L 215.423263 276.651644 
L 215.423263 285.529787 
L 215.533012 285.529787 
L 215.533012 294.40793 
L 209.038715 294.40793 
L 209.038715 303.286074 
L 215.613063 303.286074 
L 215.613063 312.164217 
L 216.367426 312.164217 
L 216.367426 321.04236 
L 210.08586 321.04236 
L 210.08586 329.920503 
L 211.030437 329.920503 
L 211.030437 338.798646 
L 212.176201 338.798646 
L 212.176201 347.676789 
L 207.777279 347.676789 
L 207.777279 356.554932 
L 209.145231 356.554932 
L 209.145231 365.433075 
L 212.056249 365.433075 
L 212.056249 374.311219 
L 211.399247 374.311219 
L 211.399247 383.189362 
L 210.75146 383.189362 
L 210.75146 392.067505 
L 207.741877 392.067505 
L 207.741877 400.945648 
L 210.468859 400.945648 
L 210.468859 409.823791 
L 211.099615 409.823791 
L 211.099615 418.701934 
L 214.392689 418.701934 
L 214.392689 427.580077 
L 210.705086 427.580077 
L 210.705086 436.458221 
L 206.359185 436.458221 
L 206.359185 445.336364 
L 152.42246 445.336364 
" clip-path="url(#paa83cce9c1)" style="fill: none; stroke: #6b3914; stroke-width: 3; stroke-linecap: square"/>
   </g>
   <g id="patch_3">
    <path d="M 74.00625 466.2 
L 74.00625 7.2 
" style="fill: none; stroke: #000000; stroke-width: 2; stroke-linejoin: miter; stroke-linecap: square"/>
   </g>
   <g id="patch_4">
    <path d="M 84.00625 476.2 
L 354.00625 476.2 
" style="fill: none; stroke: #000000; stroke-width: 2; stroke-linejoin: miter; stroke-linecap: square"/>
   </g>
  </g>
 </g>
 <defs>
  <clipPath id="paa83cce9c1">
   <rect x="84.00625" y="7.2" width="270" height="459"/>
  </clipPath>
 </defs>
</svg>
