<?xml version="1.0" encoding="utf-8" standalone="no"?>
<!DOCTYPE svg PUBLIC "-//W3C//DTD SVG 1.1//EN"
  "http://www.w3.org/Graphics/SVG/1.1/DTD/svg11.dtd">
<svg xmlns:xlink="http://www.w3.org/1999/xlink" width="300.062814pt" height="544.35625pt" viewBox="0 0 300.062814 544.35625" xmlns="http://www.w3.org/2000/svg" version="1.1">
 <metadata>
  <rdf:RDF xmlns:dc="http://purl.org/dc/elements/1.1/" xmlns:cc="http://creativecommons.org/ns#" xmlns:rdf="http://www.w3.org/1999/02/22-rdf-syntax-ns#">
   <cc:Work>
    <dc:type rdf:resource="http://purl.org/dc/dcmitype/StillImage"/>
    <dc:date>2024-07-31T19:18:06.131486</dc:date>
    <dc:format>image/svg+xml</dc:format>
    <dc:creator>
     <cc:Agent>
      <dc:title>Matplotlib v3.8.0, https://matplotlib.org/</dc:title>
     </cc:Agent>
    </dc:creator>
   </cc:Work>
  </rdf:RDF>
 </metadata>
 <defs>
  <style type="text/css">*{stroke-linejoin: round; stroke-linecap: butt}</style>
 </defs>
 <g id="figure_1">
  <g id="patch_1">
   <path d="M 0 544.35625 
L 300.062814 544.35625 
L 300.062814 0 
L 0 0 
z
" style="fill: #ffffff"/>
  </g>
  <g id="axes_1">
   <g id="patch_2">
    <path d="M 7.2 466.2 
L 277.2 466.2 
L 277.2 7.2 
L 7.2 7.2 
z
" style="fill: #ffffff"/>
   </g>
   <g id="matplotlib.axis_1">
    <g id="xtick_1">
     <g id="line2d_1">
      <defs>
       <path id="mb220a3dae0" d="M 0 0 
L 0 3.5 
" style="stroke: #000000; stroke-width: 1.5"/>
      </defs>
      <g>
       <use xlink:href="#mb220a3dae0" x="89.675263" y="476.2" style="stroke: #000000; stroke-width: 1.5"/>
      </g>
     </g>
     <g id="text_1">
      <!-- 200 -->
      <g transform="translate(70.587763 498.396875) scale(0.2 -0.2)">
       <defs>
        <path id="DejaVuSans-32" d="M 1228 531 
L 3431 531 
L 3431 0 
L 469 0 
L 469 531 
Q 828 903 1448 1529 
Q 2069 2156 2228 2338 
Q 2531 2678 2651 2914 
Q 2772 3150 2772 3378 
Q 2772 3750 2511 3984 
Q 2250 4219 1831 4219 
Q 1534 4219 1204 4116 
Q 875 4013 500 3803 
L 500 4441 
Q 881 4594 1212 4672 
Q 1544 4750 1819 4750 
Q 2544 4750 2975 4387 
Q 3406 4025 3406 3419 
Q 3406 3131 3298 2873 
Q 3191 2616 2906 2266 
Q 2828 2175 2409 1742 
Q 1991 1309 1228 531 
z
" transform="scale(0.015625)"/>
        <path id="DejaVuSans-30" d="M 2034 4250 
Q 1547 4250 1301 3770 
Q 1056 3291 1056 2328 
Q 1056 1369 1301 889 
Q 1547 409 2034 409 
Q 2525 409 2770 889 
Q 3016 1369 3016 2328 
Q 3016 3291 2770 3770 
Q 2525 4250 2034 4250 
z
M 2034 4750 
Q 2819 4750 3233 4129 
Q 3647 3509 3647 2328 
Q 3647 1150 3233 529 
Q 2819 -91 2034 -91 
Q 1250 -91 836 529 
Q 422 1150 422 2328 
Q 422 3509 836 4129 
Q 1250 4750 2034 4750 
z
" transform="scale(0.015625)"/>
       </defs>
       <use xlink:href="#DejaVuSans-32"/>
       <use xlink:href="#DejaVuSans-30" x="63.623047"/>
       <use xlink:href="#DejaVuSans-30" x="127.246094"/>
      </g>
     </g>
    </g>
    <g id="xtick_2">
     <g id="line2d_2">
      <g>
       <use xlink:href="#mb220a3dae0" x="181.725289" y="476.2" style="stroke: #000000; stroke-width: 1.5"/>
      </g>
     </g>
     <g id="text_2">
      <!-- 400 -->
      <g transform="translate(162.637789 498.396875) scale(0.2 -0.2)">
       <defs>
        <path id="DejaVuSans-34" d="M 2419 4116 
L 825 1625 
L 2419 1625 
L 2419 4116 
z
M 2253 4666 
L 3047 4666 
L 3047 1625 
L 3713 1625 
L 3713 1100 
L 3047 1100 
L 3047 0 
L 2419 0 
L 2419 1100 
L 313 1100 
L 313 1709 
L 2253 4666 
z
" transform="scale(0.015625)"/>
       </defs>
       <use xlink:href="#DejaVuSans-34"/>
       <use xlink:href="#DejaVuSans-30" x="63.623047"/>
       <use xlink:href="#DejaVuSans-30" x="127.246094"/>
      </g>
     </g>
    </g>
    <g id="xtick_3">
     <g id="line2d_3">
      <g>
       <use xlink:href="#mb220a3dae0" x="273.775314" y="476.2" style="stroke: #000000; stroke-width: 1.5"/>
      </g>
     </g>
     <g id="text_3">
      <!-- 600 -->
      <g transform="translate(254.687814 498.396875) scale(0.2 -0.2)">
       <defs>
        <path id="DejaVuSans-36" d="M 2113 2584 
Q 1688 2584 1439 2293 
Q 1191 2003 1191 1497 
Q 1191 994 1439 701 
Q 1688 409 2113 409 
Q 2538 409 2786 701 
Q 3034 994 3034 1497 
Q 3034 2003 2786 2293 
Q 2538 2584 2113 2584 
z
M 3366 4563 
L 3366 3988 
Q 3128 4100 2886 4159 
Q 2644 4219 2406 4219 
Q 1781 4219 1451 3797 
Q 1122 3375 1075 2522 
Q 1259 2794 1537 2939 
Q 1816 3084 2150 3084 
Q 2853 3084 3261 2657 
Q 3669 2231 3669 1497 
Q 3669 778 3244 343 
Q 2819 -91 2113 -91 
Q 1303 -91 875 529 
Q 447 1150 447 2328 
Q 447 3434 972 4092 
Q 1497 4750 2381 4750 
Q 2619 4750 2861 4703 
Q 3103 4656 3366 4563 
z
" transform="scale(0.015625)"/>
       </defs>
       <use xlink:href="#DejaVuSans-36"/>
       <use xlink:href="#DejaVuSans-30" x="63.623047"/>
       <use xlink:href="#DejaVuSans-30" x="127.246094"/>
      </g>
     </g>
    </g>
    <g id="text_4">
     <!-- Resistivity  [$\Omega m$] -->
     <g transform="translate(47.9 532.75625) scale(0.2 -0.2)">
      <defs>
       <path id="DejaVuSans-Bold-52" d="M 2297 2597 
Q 2675 2597 2839 2737 
Q 3003 2878 3003 3200 
Q 3003 3519 2839 3656 
Q 2675 3794 2297 3794 
L 1791 3794 
L 1791 2597 
L 2297 2597 
z
M 1791 1766 
L 1791 0 
L 588 0 
L 588 4666 
L 2425 4666 
Q 3347 4666 3776 4356 
Q 4206 4047 4206 3378 
Q 4206 2916 3982 2619 
Q 3759 2322 3309 2181 
Q 3556 2125 3751 1926 
Q 3947 1728 4147 1325 
L 4800 0 
L 3519 0 
L 2950 1159 
Q 2778 1509 2601 1637 
Q 2425 1766 2131 1766 
L 1791 1766 
z
" transform="scale(0.015625)"/>
       <path id="DejaVuSans-Bold-65" d="M 4031 1759 
L 4031 1441 
L 1416 1441 
Q 1456 1047 1700 850 
Q 1944 653 2381 653 
Q 2734 653 3104 758 
Q 3475 863 3866 1075 
L 3866 213 
Q 3469 63 3072 -14 
Q 2675 -91 2278 -91 
Q 1328 -91 801 392 
Q 275 875 275 1747 
Q 275 2603 792 3093 
Q 1309 3584 2216 3584 
Q 3041 3584 3536 3087 
Q 4031 2591 4031 1759 
z
M 2881 2131 
Q 2881 2450 2695 2645 
Q 2509 2841 2209 2841 
Q 1884 2841 1681 2658 
Q 1478 2475 1428 2131 
L 2881 2131 
z
" transform="scale(0.015625)"/>
       <path id="DejaVuSans-Bold-73" d="M 3272 3391 
L 3272 2541 
Q 2913 2691 2578 2766 
Q 2244 2841 1947 2841 
Q 1628 2841 1473 2761 
Q 1319 2681 1319 2516 
Q 1319 2381 1436 2309 
Q 1553 2238 1856 2203 
L 2053 2175 
Q 2913 2066 3209 1816 
Q 3506 1566 3506 1031 
Q 3506 472 3093 190 
Q 2681 -91 1863 -91 
Q 1516 -91 1145 -36 
Q 775 19 384 128 
L 384 978 
Q 719 816 1070 734 
Q 1422 653 1784 653 
Q 2113 653 2278 743 
Q 2444 834 2444 1013 
Q 2444 1163 2330 1236 
Q 2216 1309 1875 1350 
L 1678 1375 
Q 931 1469 631 1722 
Q 331 1975 331 2491 
Q 331 3047 712 3315 
Q 1094 3584 1881 3584 
Q 2191 3584 2531 3537 
Q 2872 3491 3272 3391 
z
" transform="scale(0.015625)"/>
       <path id="DejaVuSans-Bold-69" d="M 538 3500 
L 1656 3500 
L 1656 0 
L 538 0 
L 538 3500 
z
M 538 4863 
L 1656 4863 
L 1656 3950 
L 538 3950 
L 538 4863 
z
" transform="scale(0.015625)"/>
       <path id="DejaVuSans-Bold-74" d="M 1759 4494 
L 1759 3500 
L 2913 3500 
L 2913 2700 
L 1759 2700 
L 1759 1216 
Q 1759 972 1856 886 
Q 1953 800 2241 800 
L 2816 800 
L 2816 0 
L 1856 0 
Q 1194 0 917 276 
Q 641 553 641 1216 
L 641 2700 
L 84 2700 
L 84 3500 
L 641 3500 
L 641 4494 
L 1759 4494 
z
" transform="scale(0.015625)"/>
       <path id="DejaVuSans-Bold-76" d="M 97 3500 
L 1216 3500 
L 2088 1081 
L 2956 3500 
L 4078 3500 
L 2700 0 
L 1472 0 
L 97 3500 
z
" transform="scale(0.015625)"/>
       <path id="DejaVuSans-Bold-79" d="M 78 3500 
L 1197 3500 
L 2138 1125 
L 2938 3500 
L 4056 3500 
L 2584 -331 
Q 2363 -916 2067 -1148 
Q 1772 -1381 1288 -1381 
L 641 -1381 
L 641 -647 
L 991 -647 
Q 1275 -647 1404 -556 
Q 1534 -466 1606 -231 
L 1638 -134 
L 78 3500 
z
" transform="scale(0.015625)"/>
       <path id="DejaVuSans-Bold-20" transform="scale(0.015625)"/>
       <path id="DejaVuSans-Bold-5b" d="M 550 4863 
L 2491 4863 
L 2491 4159 
L 1613 4159 
L 1613 -141 
L 2491 -141 
L 2491 -844 
L 550 -844 
L 550 4863 
z
" transform="scale(0.015625)"/>
       <path id="DejaVuSans-Bold-3a9" d="M 2719 4750 
Q 3841 4750 4480 4106 
Q 5119 3463 5119 2494 
Q 5119 1406 4306 909 
L 5266 909 
L 5266 0 
L 3125 0 
L 3125 975 
Q 3244 1041 3334 1131 
Q 3875 1678 3875 2466 
Q 3875 3066 3572 3472 
Q 3269 3878 2719 3878 
Q 2169 3878 1866 3472 
Q 1563 3066 1563 2466 
Q 1563 1678 2103 1131 
Q 2194 1041 2313 975 
L 2313 0 
L 172 0 
L 172 909 
L 1131 909 
Q 319 1406 319 2494 
Q 319 3463 958 4106 
Q 1597 4750 2719 4750 
z
" transform="scale(0.015625)"/>
       <path id="DejaVuSans-Bold-6d" d="M 3781 2919 
Q 3994 3244 4286 3414 
Q 4578 3584 4928 3584 
Q 5531 3584 5847 3212 
Q 6163 2841 6163 2131 
L 6163 0 
L 5038 0 
L 5038 1825 
Q 5041 1866 5042 1909 
Q 5044 1953 5044 2034 
Q 5044 2406 4934 2573 
Q 4825 2741 4581 2741 
Q 4263 2741 4089 2478 
Q 3916 2216 3909 1719 
L 3909 0 
L 2784 0 
L 2784 1825 
Q 2784 2406 2684 2573 
Q 2584 2741 2328 2741 
Q 2006 2741 1831 2477 
Q 1656 2213 1656 1722 
L 1656 0 
L 531 0 
L 531 3500 
L 1656 3500 
L 1656 2988 
Q 1863 3284 2130 3434 
Q 2397 3584 2719 3584 
Q 3081 3584 3359 3409 
Q 3638 3234 3781 2919 
z
" transform="scale(0.015625)"/>
       <path id="DejaVuSans-Bold-5d" d="M 2375 -844 
L 434 -844 
L 434 -141 
L 1313 -141 
L 1313 4159 
L 434 4159 
L 434 4863 
L 2375 4863 
L 2375 -844 
z
" transform="scale(0.015625)"/>
      </defs>
      <use xlink:href="#DejaVuSans-Bold-52" transform="translate(0 0.015625)"/>
      <use xlink:href="#DejaVuSans-Bold-65" transform="translate(77.001953 0.015625)"/>
      <use xlink:href="#DejaVuSans-Bold-73" transform="translate(144.824219 0.015625)"/>
      <use xlink:href="#DejaVuSans-Bold-69" transform="translate(204.345703 0.015625)"/>
      <use xlink:href="#DejaVuSans-Bold-73" transform="translate(238.623047 0.015625)"/>
      <use xlink:href="#DejaVuSans-Bold-74" transform="translate(298.144531 0.015625)"/>
      <use xlink:href="#DejaVuSans-Bold-69" transform="translate(345.947266 0.015625)"/>
      <use xlink:href="#DejaVuSans-Bold-76" transform="translate(380.224609 0.015625)"/>
      <use xlink:href="#DejaVuSans-Bold-69" transform="translate(445.410156 0.015625)"/>
      <use xlink:href="#DejaVuSans-Bold-74" transform="translate(479.6875 0.015625)"/>
      <use xlink:href="#DejaVuSans-Bold-79" transform="translate(527.490234 0.015625)"/>
      <use xlink:href="#DejaVuSans-Bold-20" transform="translate(592.675781 0.015625)"/>
      <use xlink:href="#DejaVuSans-Bold-20" transform="translate(627.490234 0.015625)"/>
      <use xlink:href="#DejaVuSans-Bold-5b" transform="translate(662.304688 0.015625)"/>
      <use xlink:href="#DejaVuSans-Bold-3a9" transform="translate(708.007812 0.015625)"/>
      <use xlink:href="#DejaVuSans-Bold-6d" transform="translate(793.017578 0.015625)"/>
      <use xlink:href="#DejaVuSans-Bold-5d" transform="translate(897.216797 0.015625)"/>
     </g>
    </g>
   </g>
   <g id="line2d_4">
    <path d="M 34.455533 28.063636 
L 34.455533 36.756818 
L 25.151229 36.756818 
L 25.151229 45.45 
L 24.564197 45.45 
L 24.564197 54.143182 
L 37.425609 54.143182 
L 37.425609 62.836364 
L 43.748669 62.836364 
L 43.748669 71.529545 
L 51.445888 71.529545 
L 51.445888 80.222727 
L 51.404731 80.222727 
L 51.404731 88.915909 
L 58.422063 88.915909 
L 58.422063 97.609091 
L 56.963991 97.609091 
L 56.963991 106.302273 
L 65.729391 106.302273 
L 65.729391 114.995455 
L 82.202105 114.995455 
L 82.202105 123.688636 
L 90.467674 123.688636 
L 90.467674 132.381818 
L 104.855041 132.381818 
L 104.855041 141.075 
L 118.916498 141.075 
L 118.916498 149.768182 
L 131.807196 149.768182 
L 131.807196 158.461364 
L 143.150617 158.461364 
L 143.150617 167.154545 
L 154.295783 167.154545 
L 154.295783 175.847727 
L 176.310847 175.847727 
L 176.310847 184.540909 
L 185.68378 184.540909 
L 185.68378 193.234091 
L 194.414374 193.234091 
L 194.414374 201.927273 
L 197.573509 201.927273 
L 197.573509 210.620455 
L 202.222235 210.620455 
L 202.222235 219.313636 
L 201.755257 219.313636 
L 201.755257 228.006818 
L 205.815622 228.006818 
L 205.815622 236.7 
L 212.973699 236.7 
L 212.973699 245.393182 
L 210.291529 245.393182 
L 210.291529 254.086364 
L 206.389642 254.086364 
L 206.389642 262.779545 
L 198.930916 262.779545 
L 198.930916 271.472727 
L 192.602743 271.472727 
L 192.602743 280.165909 
L 194.282766 280.165909 
L 194.282766 288.859091 
L 187.110207 288.859091 
L 187.110207 297.552273 
L 182.330631 297.552273 
L 182.330631 306.245455 
L 177.131131 306.245455 
L 177.131131 314.938636 
L 170.968515 314.938636 
L 170.968515 323.631818 
L 163.628152 323.631818 
L 163.628152 332.325 
L 159.670068 332.325 
L 159.670068 341.018182 
L 155.80581 341.018182 
L 155.80581 349.711364 
L 145.129504 349.711364 
L 145.129504 358.404545 
L 137.766289 358.404545 
L 137.766289 367.097727 
L 131.854923 367.097727 
L 131.854923 375.790909 
L 118.005676 375.790909 
L 118.005676 384.484091 
L 113.662697 384.484091 
L 113.662697 393.177273 
L 110.584444 393.177273 
L 110.584444 401.870455 
L 105.083909 401.870455 
L 105.083909 410.563636 
L 102.111055 410.563636 
L 102.111055 419.256818 
L 96.309492 419.256818 
L 96.309492 427.95 
L 92.072776 427.95 
L 92.072776 436.643182 
L 87.734672 436.643182 
" clip-path="url(#pc76fd469e1)" style="fill: none; stroke: #cd853f; stroke-opacity: 0.6; stroke-width: 3; stroke-linecap: square"/>
   </g>
   <g id="line2d_5">
    <path d="M 24.420556 28.063636 
L 27.245247 36.756818 
L 29.860494 45.45 
L 32.390581 54.143182 
L 34.949327 62.836364 
L 37.640079 71.529545 
L 40.555719 80.222727 
L 43.778659 88.915909 
L 47.380843 97.609091 
L 51.423747 106.302273 
L 55.958379 114.995455 
L 61.025279 123.688636 
L 66.654519 132.381818 
L 72.865702 141.075 
L 79.667962 149.768182 
L 87.059967 158.461364 
L 95.029916 167.154545 
L 103.555539 175.847727 
L 112.604098 184.540909 
L 122.132388 193.234091 
L 132.086735 201.927273 
L 142.402996 210.620455 
L 153.006561 219.313636 
L 163.812351 228.006818 
L 174.72482 236.7 
L 185.637953 245.393182 
L 196.435266 254.086364 
L 206.989809 262.779545 
L 217.164161 271.472727 
L 226.810435 280.165909 
L 235.770274 288.859091 
L 243.874856 297.552273 
L 250.944887 306.245455 
L 256.790607 314.938636 
L 261.211787 323.631818 
L 263.997731 332.325 
L 264.927273 341.018182 
L 263.76878 349.711364 
L 260.28015 358.404545 
L 254.208814 367.097727 
L 245.291735 375.790909 
L 233.255405 384.484091 
L 217.815851 393.177273 
L 198.678631 401.870455 
L 175.538833 410.563636 
L 148.081079 419.256818 
L 115.979522 427.95 
L 78.897847 436.643182 
" clip-path="url(#pc76fd469e1)" style="fill: none; stroke: #cd853f; stroke-opacity: 0.6; stroke-width: 3; stroke-linecap: square"/>
    <defs>
     <path id="m0eb89bb288" d="M 5 0 
L -5 -0 
" style="stroke: #cd853f; stroke-opacity: 0.6"/>
    </defs>
    <g clip-path="url(#pc76fd469e1)">
     <use xlink:href="#m0eb89bb288" x="24.420556" y="28.063636" style="fill: #cd853f; fill-opacity: 0.6; stroke: #cd853f; stroke-opacity: 0.6"/>
     <use xlink:href="#m0eb89bb288" x="27.245247" y="36.756818" style="fill: #cd853f; fill-opacity: 0.6; stroke: #cd853f; stroke-opacity: 0.6"/>
     <use xlink:href="#m0eb89bb288" x="29.860494" y="45.45" style="fill: #cd853f; fill-opacity: 0.6; stroke: #cd853f; stroke-opacity: 0.6"/>
     <use xlink:href="#m0eb89bb288" x="32.390581" y="54.143182" style="fill: #cd853f; fill-opacity: 0.6; stroke: #cd853f; stroke-opacity: 0.6"/>
     <use xlink:href="#m0eb89bb288" x="34.949327" y="62.836364" style="fill: #cd853f; fill-opacity: 0.6; stroke: #cd853f; stroke-opacity: 0.6"/>
     <use xlink:href="#m0eb89bb288" x="37.640079" y="71.529545" style="fill: #cd853f; fill-opacity: 0.6; stroke: #cd853f; stroke-opacity: 0.6"/>
     <use xlink:href="#m0eb89bb288" x="40.555719" y="80.222727" style="fill: #cd853f; fill-opacity: 0.6; stroke: #cd853f; stroke-opacity: 0.6"/>
     <use xlink:href="#m0eb89bb288" x="43.778659" y="88.915909" style="fill: #cd853f; fill-opacity: 0.6; stroke: #cd853f; stroke-opacity: 0.6"/>
     <use xlink:href="#m0eb89bb288" x="47.380843" y="97.609091" style="fill: #cd853f; fill-opacity: 0.6; stroke: #cd853f; stroke-opacity: 0.6"/>
     <use xlink:href="#m0eb89bb288" x="51.423747" y="106.302273" style="fill: #cd853f; fill-opacity: 0.6; stroke: #cd853f; stroke-opacity: 0.6"/>
     <use xlink:href="#m0eb89bb288" x="55.958379" y="114.995455" style="fill: #cd853f; fill-opacity: 0.6; stroke: #cd853f; stroke-opacity: 0.6"/>
     <use xlink:href="#m0eb89bb288" x="61.025279" y="123.688636" style="fill: #cd853f; fill-opacity: 0.6; stroke: #cd853f; stroke-opacity: 0.6"/>
     <use xlink:href="#m0eb89bb288" x="66.654519" y="132.381818" style="fill: #cd853f; fill-opacity: 0.6; stroke: #cd853f; stroke-opacity: 0.6"/>
     <use xlink:href="#m0eb89bb288" x="72.865702" y="141.075" style="fill: #cd853f; fill-opacity: 0.6; stroke: #cd853f; stroke-opacity: 0.6"/>
     <use xlink:href="#m0eb89bb288" x="79.667962" y="149.768182" style="fill: #cd853f; fill-opacity: 0.6; stroke: #cd853f; stroke-opacity: 0.6"/>
     <use xlink:href="#m0eb89bb288" x="87.059967" y="158.461364" style="fill: #cd853f; fill-opacity: 0.6; stroke: #cd853f; stroke-opacity: 0.6"/>
     <use xlink:href="#m0eb89bb288" x="95.029916" y="167.154545" style="fill: #cd853f; fill-opacity: 0.6; stroke: #cd853f; stroke-opacity: 0.6"/>
     <use xlink:href="#m0eb89bb288" x="103.555539" y="175.847727" style="fill: #cd853f; fill-opacity: 0.6; stroke: #cd853f; stroke-opacity: 0.6"/>
     <use xlink:href="#m0eb89bb288" x="112.604098" y="184.540909" style="fill: #cd853f; fill-opacity: 0.6; stroke: #cd853f; stroke-opacity: 0.6"/>
     <use xlink:href="#m0eb89bb288" x="122.132388" y="193.234091" style="fill: #cd853f; fill-opacity: 0.6; stroke: #cd853f; stroke-opacity: 0.6"/>
     <use xlink:href="#m0eb89bb288" x="132.086735" y="201.927273" style="fill: #cd853f; fill-opacity: 0.6; stroke: #cd853f; stroke-opacity: 0.6"/>
     <use xlink:href="#m0eb89bb288" x="142.402996" y="210.620455" style="fill: #cd853f; fill-opacity: 0.6; stroke: #cd853f; stroke-opacity: 0.6"/>
     <use xlink:href="#m0eb89bb288" x="153.006561" y="219.313636" style="fill: #cd853f; fill-opacity: 0.6; stroke: #cd853f; stroke-opacity: 0.6"/>
     <use xlink:href="#m0eb89bb288" x="163.812351" y="228.006818" style="fill: #cd853f; fill-opacity: 0.6; stroke: #cd853f; stroke-opacity: 0.6"/>
     <use xlink:href="#m0eb89bb288" x="174.72482" y="236.7" style="fill: #cd853f; fill-opacity: 0.6; stroke: #cd853f; stroke-opacity: 0.6"/>
     <use xlink:href="#m0eb89bb288" x="185.637953" y="245.393182" style="fill: #cd853f; fill-opacity: 0.6; stroke: #cd853f; stroke-opacity: 0.6"/>
     <use xlink:href="#m0eb89bb288" x="196.435266" y="254.086364" style="fill: #cd853f; fill-opacity: 0.6; stroke: #cd853f; stroke-opacity: 0.6"/>
     <use xlink:href="#m0eb89bb288" x="206.989809" y="262.779545" style="fill: #cd853f; fill-opacity: 0.6; stroke: #cd853f; stroke-opacity: 0.6"/>
     <use xlink:href="#m0eb89bb288" x="217.164161" y="271.472727" style="fill: #cd853f; fill-opacity: 0.6; stroke: #cd853f; stroke-opacity: 0.6"/>
     <use xlink:href="#m0eb89bb288" x="226.810435" y="280.165909" style="fill: #cd853f; fill-opacity: 0.6; stroke: #cd853f; stroke-opacity: 0.6"/>
     <use xlink:href="#m0eb89bb288" x="235.770274" y="288.859091" style="fill: #cd853f; fill-opacity: 0.6; stroke: #cd853f; stroke-opacity: 0.6"/>
     <use xlink:href="#m0eb89bb288" x="243.874856" y="297.552273" style="fill: #cd853f; fill-opacity: 0.6; stroke: #cd853f; stroke-opacity: 0.6"/>
     <use xlink:href="#m0eb89bb288" x="250.944887" y="306.245455" style="fill: #cd853f; fill-opacity: 0.6; stroke: #cd853f; stroke-opacity: 0.6"/>
     <use xlink:href="#m0eb89bb288" x="256.790607" y="314.938636" style="fill: #cd853f; fill-opacity: 0.6; stroke: #cd853f; stroke-opacity: 0.6"/>
     <use xlink:href="#m0eb89bb288" x="261.211787" y="323.631818" style="fill: #cd853f; fill-opacity: 0.6; stroke: #cd853f; stroke-opacity: 0.6"/>
     <use xlink:href="#m0eb89bb288" x="263.997731" y="332.325" style="fill: #cd853f; fill-opacity: 0.6; stroke: #cd853f; stroke-opacity: 0.6"/>
     <use xlink:href="#m0eb89bb288" x="264.927273" y="341.018182" style="fill: #cd853f; fill-opacity: 0.6; stroke: #cd853f; stroke-opacity: 0.6"/>
     <use xlink:href="#m0eb89bb288" x="263.76878" y="349.711364" style="fill: #cd853f; fill-opacity: 0.6; stroke: #cd853f; stroke-opacity: 0.6"/>
     <use xlink:href="#m0eb89bb288" x="260.28015" y="358.404545" style="fill: #cd853f; fill-opacity: 0.6; stroke: #cd853f; stroke-opacity: 0.6"/>
     <use xlink:href="#m0eb89bb288" x="254.208814" y="367.097727" style="fill: #cd853f; fill-opacity: 0.6; stroke: #cd853f; stroke-opacity: 0.6"/>
     <use xlink:href="#m0eb89bb288" x="245.291735" y="375.790909" style="fill: #cd853f; fill-opacity: 0.6; stroke: #cd853f; stroke-opacity: 0.6"/>
     <use xlink:href="#m0eb89bb288" x="233.255405" y="384.484091" style="fill: #cd853f; fill-opacity: 0.6; stroke: #cd853f; stroke-opacity: 0.6"/>
     <use xlink:href="#m0eb89bb288" x="217.815851" y="393.177273" style="fill: #cd853f; fill-opacity: 0.6; stroke: #cd853f; stroke-opacity: 0.6"/>
     <use xlink:href="#m0eb89bb288" x="198.678631" y="401.870455" style="fill: #cd853f; fill-opacity: 0.6; stroke: #cd853f; stroke-opacity: 0.6"/>
     <use xlink:href="#m0eb89bb288" x="175.538833" y="410.563636" style="fill: #cd853f; fill-opacity: 0.6; stroke: #cd853f; stroke-opacity: 0.6"/>
     <use xlink:href="#m0eb89bb288" x="148.081079" y="419.256818" style="fill: #cd853f; fill-opacity: 0.6; stroke: #cd853f; stroke-opacity: 0.6"/>
     <use xlink:href="#m0eb89bb288" x="115.979522" y="427.95" style="fill: #cd853f; fill-opacity: 0.6; stroke: #cd853f; stroke-opacity: 0.6"/>
     <use xlink:href="#m0eb89bb288" x="78.897847" y="436.643182" style="fill: #cd853f; fill-opacity: 0.6; stroke: #cd853f; stroke-opacity: 0.6"/>
    </g>
   </g>
   <g id="line2d_6">
    <path d="M 19.472727 28.063636 
L 19.472727 36.941779 
L 33.506934 36.941779 
L 33.506934 45.819923 
L 33.506934 45.819923 
L 33.506934 54.698066 
L 33.506934 54.698066 
L 33.506934 63.576209 
L 33.506934 63.576209 
L 33.506934 72.454352 
L 33.506934 72.454352 
L 33.506934 81.332495 
L 33.506934 81.332495 
L 33.506934 90.210638 
L 33.506934 90.210638 
L 33.506934 99.088781 
L 33.506934 99.088781 
L 33.506934 107.966925 
L 33.506934 107.966925 
L 33.506934 116.845068 
L 33.506934 116.845068 
L 33.506934 125.723211 
L 164.442734 125.723211 
L 164.442734 134.601354 
L 164.442734 134.601354 
L 164.442734 143.479497 
L 164.442734 143.479497 
L 164.442734 152.35764 
L 164.442734 152.35764 
L 164.442734 161.235783 
L 164.442734 161.235783 
L 164.442734 170.113926 
L 164.442734 170.113926 
L 164.442734 178.99207 
L 164.442734 178.99207 
L 164.442734 187.870213 
L 164.442734 187.870213 
L 164.442734 196.748356 
L 164.442734 196.748356 
L 164.442734 205.626499 
L 164.442734 205.626499 
L 164.442734 214.504642 
L 164.442734 214.504642 
L 164.442734 223.382785 
L 164.442734 223.382785 
L 164.442734 232.260928 
L 164.442734 232.260928 
L 164.442734 241.139072 
L 164.442734 241.139072 
L 164.442734 250.017215 
L 164.442734 250.017215 
L 164.442734 258.895358 
L 164.442734 258.895358 
L 164.442734 267.773501 
L 164.442734 267.773501 
L 164.442734 276.651644 
L 164.442734 276.651644 
L 164.442734 285.529787 
L 164.442734 285.529787 
L 164.442734 294.40793 
L 164.442734 294.40793 
L 164.442734 303.286074 
L 164.442734 303.286074 
L 164.442734 312.164217 
L 164.442734 312.164217 
L 164.442734 321.04236 
L 164.442734 321.04236 
L 164.442734 329.920503 
L 164.442734 329.920503 
L 164.442734 338.798646 
L 164.442734 338.798646 
L 164.442734 347.676789 
L 164.442734 347.676789 
L 164.442734 356.554932 
L 164.442734 356.554932 
L 164.442734 365.433075 
L 164.442734 365.433075 
L 164.442734 374.311219 
L 164.442734 374.311219 
L 164.442734 383.189362 
L 164.442734 383.189362 
L 164.442734 392.067505 
L 164.442734 392.067505 
L 164.442734 400.945648 
L 164.442734 400.945648 
L 164.442734 409.823791 
L 164.442734 409.823791 
L 164.442734 418.701934 
L 164.442734 418.701934 
L 164.442734 427.580077 
L 87.965014 427.580077 
L 87.965014 436.458221 
L 87.965014 436.458221 
L 87.965014 445.336364 
L 87.965014 445.336364 
" clip-path="url(#pc76fd469e1)" style="fill: none; stroke: #2f4f4f; stroke-width: 3; stroke-linecap: square"/>
   </g>
   <g id="line2d_7">
    <path d="M 33.076798 28.063636 
L 33.076798 36.941779 
L 21.730961 36.941779 
L 21.730961 45.819923 
L 45.580673 45.819923 
L 45.580673 54.698066 
L 45.580673 54.698066 
L 45.580673 63.576209 
L 45.580673 63.576209 
L 45.580673 72.454352 
L 45.580673 72.454352 
L 45.580673 81.332495 
L 45.580673 81.332495 
L 45.580673 90.210638 
L 45.580673 90.210638 
L 45.580673 99.088781 
L 45.580673 99.088781 
L 45.580673 107.966925 
L 45.580673 107.966925 
L 45.580673 116.845068 
L 45.580673 116.845068 
L 45.580673 125.723211 
L 45.580673 125.723211 
L 45.580673 134.601354 
L 45.580673 134.601354 
L 45.580673 143.479497 
L 45.580673 143.479497 
L 45.580673 152.35764 
L 45.580673 152.35764 
L 45.580673 161.235783 
L 45.580673 161.235783 
L 45.580673 170.113926 
L 214.634704 170.113926 
L 214.634704 178.99207 
L 214.634704 178.99207 
L 214.634704 187.870213 
L 214.634704 187.870213 
L 214.634704 196.748356 
L 214.634704 196.748356 
L 214.634704 205.626499 
L 214.634704 205.626499 
L 214.634704 214.504642 
L 214.634704 214.504642 
L 214.634704 223.382785 
L 214.634704 223.382785 
L 214.634704 232.260928 
L 214.634704 232.260928 
L 214.634704 241.139072 
L 214.634704 241.139072 
L 214.634704 250.017215 
L 214.634704 250.017215 
L 214.634704 258.895358 
L 214.634704 258.895358 
L 214.634704 267.773501 
L 214.634704 267.773501 
L 214.634704 276.651644 
L 214.634704 276.651644 
L 214.634704 285.529787 
L 214.634704 285.529787 
L 214.634704 294.40793 
L 214.634704 294.40793 
L 214.634704 303.286074 
L 214.634704 303.286074 
L 214.634704 312.164217 
L 214.634704 312.164217 
L 214.634704 321.04236 
L 214.634704 321.04236 
L 214.634704 329.920503 
L 214.634704 329.920503 
L 214.634704 338.798646 
L 214.634704 338.798646 
L 214.634704 347.676789 
L 214.634704 347.676789 
L 214.634704 356.554932 
L 214.634704 356.554932 
L 214.634704 365.433075 
L 214.634704 365.433075 
L 214.634704 374.311219 
L 214.634704 374.311219 
L 214.634704 383.189362 
L 214.634704 383.189362 
L 214.634704 392.067505 
L 214.634704 392.067505 
L 214.634704 400.945648 
L 214.634704 400.945648 
L 214.634704 409.823791 
L 214.634704 409.823791 
L 214.634704 418.701934 
L 78.600249 418.701934 
L 78.600249 427.580077 
L 78.600249 427.580077 
L 78.600249 436.458221 
L 78.600249 436.458221 
L 78.600249 445.336364 
L 78.600249 445.336364 
" clip-path="url(#pc76fd469e1)" style="fill: none; stroke: #2f4f4f; stroke-opacity: 0.8; stroke-width: 3; stroke-linecap: square"/>
   </g>
   <g id="line2d_8">
    <path d="M 26.386501 28.063636 
L 26.386501 36.941779 
L 28.045751 36.941779 
L 28.045751 45.819923 
L 24.818347 45.819923 
L 24.818347 54.698066 
L 29.44527 54.698066 
L 29.44527 63.576209 
L 32.449285 63.576209 
L 32.449285 72.454352 
L 35.593141 72.454352 
L 35.593141 81.332495 
L 40.192928 81.332495 
L 40.192928 90.210638 
L 46.432111 90.210638 
L 46.432111 99.088781 
L 54.010587 99.088781 
L 54.010587 107.966925 
L 62.457504 107.966925 
L 62.457504 116.845068 
L 71.259001 116.845068 
L 71.259001 125.723211 
L 79.929796 125.723211 
L 79.929796 134.601354 
L 88.062808 134.601354 
L 88.062808 143.479497 
L 95.359959 143.479497 
L 95.359959 152.35764 
L 101.642644 152.35764 
L 101.642644 161.235783 
L 106.843852 161.235783 
L 106.843852 170.113926 
L 110.987556 170.113926 
L 110.987556 178.99207 
L 114.162451 178.99207 
L 114.162451 187.870213 
L 116.496 187.870213 
L 116.496 196.748356 
L 118.132761 196.748356 
L 118.132761 205.626499 
L 119.218453 205.626499 
L 119.218453 214.504642 
L 119.8896 214.504642 
L 119.8896 223.382785 
L 120.267823 223.382785 
L 120.267823 232.260928 
L 120.457384 232.260928 
L 120.457384 241.139072 
L 120.544566 241.139072 
L 120.544566 250.017215 
L 120.598249 250.017215 
L 120.598249 258.895358 
L 120.670696 258.895358 
L 120.670696 267.773501 
L 120.798246 267.773501 
L 120.798246 276.651644 
L 121.00174 276.651644 
L 121.00174 285.529787 
L 121.286826 285.529787 
L 121.286826 294.40793 
L 121.64391 294.40793 
L 121.64391 303.286074 
L 122.048441 303.286074 
L 122.048441 312.164217 
L 122.701286 312.164217 
L 122.701286 321.04236 
L 129.514963 321.04236 
L 129.514963 329.920503 
L 136.057936 329.920503 
L 136.057936 338.798646 
L 142.096331 338.798646 
L 142.096331 347.676789 
L 147.352282 347.676789 
L 147.352282 356.554932 
L 151.518958 356.554932 
L 151.518958 365.433075 
L 154.28883 365.433075 
L 154.28883 374.311219 
L 155.394917 374.311219 
L 155.394917 383.189362 
L 154.659272 383.189362 
L 154.659272 392.067505 
L 152.037273 392.067505 
L 152.037273 400.945648 
L 147.64293 400.945648 
L 147.64293 409.823791 
L 141.744093 409.823791 
L 141.744093 418.701934 
L 134.726753 418.701934 
L 134.726753 427.580077 
L 127.0397 427.580077 
L 127.0397 436.458221 
L 119.137339 436.458221 
L 119.137339 445.336364 
L 94.134877 445.336364 
" clip-path="url(#pc76fd469e1)" style="fill: none; stroke: #2f4f4f; stroke-opacity: 0.6; stroke-width: 3; stroke-linecap: square"/>
   </g>
   <g id="patch_3">
    <path d="M 7.2 476.2 
L 277.2 476.2 
" style="fill: none; stroke: #000000; stroke-width: 2; stroke-linejoin: miter; stroke-linecap: square"/>
   </g>
  </g>
 </g>
 <defs>
  <clipPath id="pc76fd469e1">
   <rect x="7.2" y="7.2" width="270" height="459"/>
  </clipPath>
 </defs>
</svg>
