<?xml version="1.0" encoding="utf-8" standalone="no"?>
<!DOCTYPE svg PUBLIC "-//W3C//DTD SVG 1.1//EN"
  "http://www.w3.org/Graphics/SVG/1.1/DTD/svg11.dtd">
<svg xmlns:xlink="http://www.w3.org/1999/xlink" width="401.034375pt" height="544.35625pt" viewBox="0 0 401.034375 544.35625" xmlns="http://www.w3.org/2000/svg" version="1.1">
 <metadata>
  <rdf:RDF xmlns:dc="http://purl.org/dc/elements/1.1/" xmlns:cc="http://creativecommons.org/ns#" xmlns:rdf="http://www.w3.org/1999/02/22-rdf-syntax-ns#">
   <cc:Work>
    <dc:type rdf:resource="http://purl.org/dc/dcmitype/StillImage"/>
    <dc:date>2024-07-31T19:18:06.279148</dc:date>
    <dc:format>image/svg+xml</dc:format>
    <dc:creator>
     <cc:Agent>
      <dc:title>Matplotlib v3.8.0, https://matplotlib.org/</dc:title>
     </cc:Agent>
    </dc:creator>
   </cc:Work>
  </rdf:RDF>
 </metadata>
 <defs>
  <style type="text/css">*{stroke-linejoin: round; stroke-linecap: butt}</style>
 </defs>
 <g id="figure_1">
  <g id="patch_1">
   <path d="M 0 544.35625 
L 401.034375 544.35625 
L 401.034375 0 
L 0 0 
z
" style="fill: #ffffff"/>
  </g>
  <g id="axes_1">
   <g id="patch_2">
    <path d="M 123.834375 466.2 
L 393.834375 466.2 
L 393.834375 7.2 
L 123.834375 7.2 
z
" style="fill: #ffffff"/>
   </g>
   <g id="matplotlib.axis_1">
    <g id="xtick_1">
     <g id="line2d_1">
      <defs>
       <path id="md6743729dc" d="M 0 0 
L 0 3.5 
" style="stroke: #000000; stroke-width: 1.5"/>
      </defs>
      <g>
       <use xlink:href="#md6743729dc" x="190.778986" y="476.2" style="stroke: #000000; stroke-width: 1.5"/>
      </g>
     </g>
     <g id="text_1">
      <!-- 100 -->
      <g transform="translate(171.691486 498.396875) scale(0.2 -0.2)">
       <defs>
        <path id="DejaVuSans-31" d="M 794 531 
L 1825 531 
L 1825 4091 
L 703 3866 
L 703 4441 
L 1819 4666 
L 2450 4666 
L 2450 531 
L 3481 531 
L 3481 0 
L 794 0 
L 794 531 
z
" transform="scale(0.015625)"/>
        <path id="DejaVuSans-30" d="M 2034 4250 
Q 1547 4250 1301 3770 
Q 1056 3291 1056 2328 
Q 1056 1369 1301 889 
Q 1547 409 2034 409 
Q 2525 409 2770 889 
Q 3016 1369 3016 2328 
Q 3016 3291 2770 3770 
Q 2525 4250 2034 4250 
z
M 2034 4750 
Q 2819 4750 3233 4129 
Q 3647 3509 3647 2328 
Q 3647 1150 3233 529 
Q 2819 -91 2034 -91 
Q 1250 -91 836 529 
Q 422 1150 422 2328 
Q 422 3509 836 4129 
Q 1250 4750 2034 4750 
z
" transform="scale(0.015625)"/>
       </defs>
       <use xlink:href="#DejaVuSans-31"/>
       <use xlink:href="#DejaVuSans-30" x="63.623047"/>
       <use xlink:href="#DejaVuSans-30" x="127.246094"/>
      </g>
     </g>
    </g>
    <g id="xtick_2">
     <g id="line2d_2">
      <g>
       <use xlink:href="#md6743729dc" x="264.626914" y="476.2" style="stroke: #000000; stroke-width: 1.5"/>
      </g>
     </g>
     <g id="text_2">
      <!-- 150 -->
      <g transform="translate(245.539414 498.396875) scale(0.2 -0.2)">
       <defs>
        <path id="DejaVuSans-35" d="M 691 4666 
L 3169 4666 
L 3169 4134 
L 1269 4134 
L 1269 2991 
Q 1406 3038 1543 3061 
Q 1681 3084 1819 3084 
Q 2600 3084 3056 2656 
Q 3513 2228 3513 1497 
Q 3513 744 3044 326 
Q 2575 -91 1722 -91 
Q 1428 -91 1123 -41 
Q 819 9 494 109 
L 494 744 
Q 775 591 1075 516 
Q 1375 441 1709 441 
Q 2250 441 2565 725 
Q 2881 1009 2881 1497 
Q 2881 1984 2565 2268 
Q 2250 2553 1709 2553 
Q 1456 2553 1204 2497 
Q 953 2441 691 2322 
L 691 4666 
z
" transform="scale(0.015625)"/>
       </defs>
       <use xlink:href="#DejaVuSans-31"/>
       <use xlink:href="#DejaVuSans-35" x="63.623047"/>
       <use xlink:href="#DejaVuSans-30" x="127.246094"/>
      </g>
     </g>
    </g>
    <g id="xtick_3">
     <g id="line2d_3">
      <g>
       <use xlink:href="#md6743729dc" x="338.474843" y="476.2" style="stroke: #000000; stroke-width: 1.5"/>
      </g>
     </g>
     <g id="text_3">
      <!-- 200 -->
      <g transform="translate(319.387343 498.396875) scale(0.2 -0.2)">
       <defs>
        <path id="DejaVuSans-32" d="M 1228 531 
L 3431 531 
L 3431 0 
L 469 0 
L 469 531 
Q 828 903 1448 1529 
Q 2069 2156 2228 2338 
Q 2531 2678 2651 2914 
Q 2772 3150 2772 3378 
Q 2772 3750 2511 3984 
Q 2250 4219 1831 4219 
Q 1534 4219 1204 4116 
Q 875 4013 500 3803 
L 500 4441 
Q 881 4594 1212 4672 
Q 1544 4750 1819 4750 
Q 2544 4750 2975 4387 
Q 3406 4025 3406 3419 
Q 3406 3131 3298 2873 
Q 3191 2616 2906 2266 
Q 2828 2175 2409 1742 
Q 1991 1309 1228 531 
z
" transform="scale(0.015625)"/>
       </defs>
       <use xlink:href="#DejaVuSans-32"/>
       <use xlink:href="#DejaVuSans-30" x="63.623047"/>
       <use xlink:href="#DejaVuSans-30" x="127.246094"/>
      </g>
     </g>
    </g>
    <g id="text_4">
     <!-- Apparent Resistivity [$\Omega m$] -->
     <g transform="translate(112.034375 532.75625) scale(0.2 -0.2)">
      <defs>
       <path id="DejaVuSans-Bold-41" d="M 3419 850 
L 1538 850 
L 1241 0 
L 31 0 
L 1759 4666 
L 3194 4666 
L 4922 0 
L 3713 0 
L 3419 850 
z
M 1838 1716 
L 3116 1716 
L 2478 3572 
L 1838 1716 
z
" transform="scale(0.015625)"/>
       <path id="DejaVuSans-Bold-70" d="M 1656 506 
L 1656 -1331 
L 538 -1331 
L 538 3500 
L 1656 3500 
L 1656 2988 
Q 1888 3294 2169 3439 
Q 2450 3584 2816 3584 
Q 3463 3584 3878 3070 
Q 4294 2556 4294 1747 
Q 4294 938 3878 423 
Q 3463 -91 2816 -91 
Q 2450 -91 2169 54 
Q 1888 200 1656 506 
z
M 2400 2772 
Q 2041 2772 1848 2508 
Q 1656 2244 1656 1747 
Q 1656 1250 1848 986 
Q 2041 722 2400 722 
Q 2759 722 2948 984 
Q 3138 1247 3138 1747 
Q 3138 2247 2948 2509 
Q 2759 2772 2400 2772 
z
" transform="scale(0.015625)"/>
       <path id="DejaVuSans-Bold-61" d="M 2106 1575 
Q 1756 1575 1579 1456 
Q 1403 1338 1403 1106 
Q 1403 894 1545 773 
Q 1688 653 1941 653 
Q 2256 653 2472 879 
Q 2688 1106 2688 1447 
L 2688 1575 
L 2106 1575 
z
M 3816 1997 
L 3816 0 
L 2688 0 
L 2688 519 
Q 2463 200 2181 54 
Q 1900 -91 1497 -91 
Q 953 -91 614 226 
Q 275 544 275 1050 
Q 275 1666 698 1953 
Q 1122 2241 2028 2241 
L 2688 2241 
L 2688 2328 
Q 2688 2594 2478 2717 
Q 2269 2841 1825 2841 
Q 1466 2841 1156 2769 
Q 847 2697 581 2553 
L 581 3406 
Q 941 3494 1303 3539 
Q 1666 3584 2028 3584 
Q 2975 3584 3395 3211 
Q 3816 2838 3816 1997 
z
" transform="scale(0.015625)"/>
       <path id="DejaVuSans-Bold-72" d="M 3138 2547 
Q 2991 2616 2845 2648 
Q 2700 2681 2553 2681 
Q 2122 2681 1889 2404 
Q 1656 2128 1656 1613 
L 1656 0 
L 538 0 
L 538 3500 
L 1656 3500 
L 1656 2925 
Q 1872 3269 2151 3426 
Q 2431 3584 2822 3584 
Q 2878 3584 2943 3579 
Q 3009 3575 3134 3559 
L 3138 2547 
z
" transform="scale(0.015625)"/>
       <path id="DejaVuSans-Bold-65" d="M 4031 1759 
L 4031 1441 
L 1416 1441 
Q 1456 1047 1700 850 
Q 1944 653 2381 653 
Q 2734 653 3104 758 
Q 3475 863 3866 1075 
L 3866 213 
Q 3469 63 3072 -14 
Q 2675 -91 2278 -91 
Q 1328 -91 801 392 
Q 275 875 275 1747 
Q 275 2603 792 3093 
Q 1309 3584 2216 3584 
Q 3041 3584 3536 3087 
Q 4031 2591 4031 1759 
z
M 2881 2131 
Q 2881 2450 2695 2645 
Q 2509 2841 2209 2841 
Q 1884 2841 1681 2658 
Q 1478 2475 1428 2131 
L 2881 2131 
z
" transform="scale(0.015625)"/>
       <path id="DejaVuSans-Bold-6e" d="M 4056 2131 
L 4056 0 
L 2931 0 
L 2931 347 
L 2931 1631 
Q 2931 2084 2911 2256 
Q 2891 2428 2841 2509 
Q 2775 2619 2662 2680 
Q 2550 2741 2406 2741 
Q 2056 2741 1856 2470 
Q 1656 2200 1656 1722 
L 1656 0 
L 538 0 
L 538 3500 
L 1656 3500 
L 1656 2988 
Q 1909 3294 2193 3439 
Q 2478 3584 2822 3584 
Q 3428 3584 3742 3212 
Q 4056 2841 4056 2131 
z
" transform="scale(0.015625)"/>
       <path id="DejaVuSans-Bold-74" d="M 1759 4494 
L 1759 3500 
L 2913 3500 
L 2913 2700 
L 1759 2700 
L 1759 1216 
Q 1759 972 1856 886 
Q 1953 800 2241 800 
L 2816 800 
L 2816 0 
L 1856 0 
Q 1194 0 917 276 
Q 641 553 641 1216 
L 641 2700 
L 84 2700 
L 84 3500 
L 641 3500 
L 641 4494 
L 1759 4494 
z
" transform="scale(0.015625)"/>
       <path id="DejaVuSans-Bold-20" transform="scale(0.015625)"/>
       <path id="DejaVuSans-Bold-52" d="M 2297 2597 
Q 2675 2597 2839 2737 
Q 3003 2878 3003 3200 
Q 3003 3519 2839 3656 
Q 2675 3794 2297 3794 
L 1791 3794 
L 1791 2597 
L 2297 2597 
z
M 1791 1766 
L 1791 0 
L 588 0 
L 588 4666 
L 2425 4666 
Q 3347 4666 3776 4356 
Q 4206 4047 4206 3378 
Q 4206 2916 3982 2619 
Q 3759 2322 3309 2181 
Q 3556 2125 3751 1926 
Q 3947 1728 4147 1325 
L 4800 0 
L 3519 0 
L 2950 1159 
Q 2778 1509 2601 1637 
Q 2425 1766 2131 1766 
L 1791 1766 
z
" transform="scale(0.015625)"/>
       <path id="DejaVuSans-Bold-73" d="M 3272 3391 
L 3272 2541 
Q 2913 2691 2578 2766 
Q 2244 2841 1947 2841 
Q 1628 2841 1473 2761 
Q 1319 2681 1319 2516 
Q 1319 2381 1436 2309 
Q 1553 2238 1856 2203 
L 2053 2175 
Q 2913 2066 3209 1816 
Q 3506 1566 3506 1031 
Q 3506 472 3093 190 
Q 2681 -91 1863 -91 
Q 1516 -91 1145 -36 
Q 775 19 384 128 
L 384 978 
Q 719 816 1070 734 
Q 1422 653 1784 653 
Q 2113 653 2278 743 
Q 2444 834 2444 1013 
Q 2444 1163 2330 1236 
Q 2216 1309 1875 1350 
L 1678 1375 
Q 931 1469 631 1722 
Q 331 1975 331 2491 
Q 331 3047 712 3315 
Q 1094 3584 1881 3584 
Q 2191 3584 2531 3537 
Q 2872 3491 3272 3391 
z
" transform="scale(0.015625)"/>
       <path id="DejaVuSans-Bold-69" d="M 538 3500 
L 1656 3500 
L 1656 0 
L 538 0 
L 538 3500 
z
M 538 4863 
L 1656 4863 
L 1656 3950 
L 538 3950 
L 538 4863 
z
" transform="scale(0.015625)"/>
       <path id="DejaVuSans-Bold-76" d="M 97 3500 
L 1216 3500 
L 2088 1081 
L 2956 3500 
L 4078 3500 
L 2700 0 
L 1472 0 
L 97 3500 
z
" transform="scale(0.015625)"/>
       <path id="DejaVuSans-Bold-79" d="M 78 3500 
L 1197 3500 
L 2138 1125 
L 2938 3500 
L 4056 3500 
L 2584 -331 
Q 2363 -916 2067 -1148 
Q 1772 -1381 1288 -1381 
L 641 -1381 
L 641 -647 
L 991 -647 
Q 1275 -647 1404 -556 
Q 1534 -466 1606 -231 
L 1638 -134 
L 78 3500 
z
" transform="scale(0.015625)"/>
       <path id="DejaVuSans-Bold-5b" d="M 550 4863 
L 2491 4863 
L 2491 4159 
L 1613 4159 
L 1613 -141 
L 2491 -141 
L 2491 -844 
L 550 -844 
L 550 4863 
z
" transform="scale(0.015625)"/>
       <path id="DejaVuSans-Bold-3a9" d="M 2719 4750 
Q 3841 4750 4480 4106 
Q 5119 3463 5119 2494 
Q 5119 1406 4306 909 
L 5266 909 
L 5266 0 
L 3125 0 
L 3125 975 
Q 3244 1041 3334 1131 
Q 3875 1678 3875 2466 
Q 3875 3066 3572 3472 
Q 3269 3878 2719 3878 
Q 2169 3878 1866 3472 
Q 1563 3066 1563 2466 
Q 1563 1678 2103 1131 
Q 2194 1041 2313 975 
L 2313 0 
L 172 0 
L 172 909 
L 1131 909 
Q 319 1406 319 2494 
Q 319 3463 958 4106 
Q 1597 4750 2719 4750 
z
" transform="scale(0.015625)"/>
       <path id="DejaVuSans-Bold-6d" d="M 3781 2919 
Q 3994 3244 4286 3414 
Q 4578 3584 4928 3584 
Q 5531 3584 5847 3212 
Q 6163 2841 6163 2131 
L 6163 0 
L 5038 0 
L 5038 1825 
Q 5041 1866 5042 1909 
Q 5044 1953 5044 2034 
Q 5044 2406 4934 2573 
Q 4825 2741 4581 2741 
Q 4263 2741 4089 2478 
Q 3916 2216 3909 1719 
L 3909 0 
L 2784 0 
L 2784 1825 
Q 2784 2406 2684 2573 
Q 2584 2741 2328 2741 
Q 2006 2741 1831 2477 
Q 1656 2213 1656 1722 
L 1656 0 
L 531 0 
L 531 3500 
L 1656 3500 
L 1656 2988 
Q 1863 3284 2130 3434 
Q 2397 3584 2719 3584 
Q 3081 3584 3359 3409 
Q 3638 3234 3781 2919 
z
" transform="scale(0.015625)"/>
       <path id="DejaVuSans-Bold-5d" d="M 2375 -844 
L 434 -844 
L 434 -141 
L 1313 -141 
L 1313 4159 
L 434 4159 
L 434 4863 
L 2375 4863 
L 2375 -844 
z
" transform="scale(0.015625)"/>
      </defs>
      <use xlink:href="#DejaVuSans-Bold-41" transform="translate(0 0.015625)"/>
      <use xlink:href="#DejaVuSans-Bold-70" transform="translate(77.392578 0.015625)"/>
      <use xlink:href="#DejaVuSans-Bold-70" transform="translate(148.974609 0.015625)"/>
      <use xlink:href="#DejaVuSans-Bold-61" transform="translate(220.556641 0.015625)"/>
      <use xlink:href="#DejaVuSans-Bold-72" transform="translate(288.037109 0.015625)"/>
      <use xlink:href="#DejaVuSans-Bold-65" transform="translate(337.353516 0.015625)"/>
      <use xlink:href="#DejaVuSans-Bold-6e" transform="translate(405.175781 0.015625)"/>
      <use xlink:href="#DejaVuSans-Bold-74" transform="translate(476.367188 0.015625)"/>
      <use xlink:href="#DejaVuSans-Bold-20" transform="translate(524.169922 0.015625)"/>
      <use xlink:href="#DejaVuSans-Bold-52" transform="translate(558.984375 0.015625)"/>
      <use xlink:href="#DejaVuSans-Bold-65" transform="translate(635.986328 0.015625)"/>
      <use xlink:href="#DejaVuSans-Bold-73" transform="translate(703.808594 0.015625)"/>
      <use xlink:href="#DejaVuSans-Bold-69" transform="translate(763.330078 0.015625)"/>
      <use xlink:href="#DejaVuSans-Bold-73" transform="translate(797.607422 0.015625)"/>
      <use xlink:href="#DejaVuSans-Bold-74" transform="translate(857.128906 0.015625)"/>
      <use xlink:href="#DejaVuSans-Bold-69" transform="translate(904.931641 0.015625)"/>
      <use xlink:href="#DejaVuSans-Bold-76" transform="translate(939.208984 0.015625)"/>
      <use xlink:href="#DejaVuSans-Bold-69" transform="translate(1004.394531 0.015625)"/>
      <use xlink:href="#DejaVuSans-Bold-74" transform="translate(1038.671875 0.015625)"/>
      <use xlink:href="#DejaVuSans-Bold-79" transform="translate(1086.474609 0.015625)"/>
      <use xlink:href="#DejaVuSans-Bold-20" transform="translate(1151.660156 0.015625)"/>
      <use xlink:href="#DejaVuSans-Bold-5b" transform="translate(1186.474609 0.015625)"/>
      <use xlink:href="#DejaVuSans-Bold-3a9" transform="translate(1232.177734 0.015625)"/>
      <use xlink:href="#DejaVuSans-Bold-6d" transform="translate(1317.1875 0.015625)"/>
      <use xlink:href="#DejaVuSans-Bold-5d" transform="translate(1421.386719 0.015625)"/>
     </g>
    </g>
   </g>
   <g id="line2d_4">
    <path d="M 136.107102 28.063636 
L 141.858157 47.030579 
L 146.878708 65.997521 
L 151.463572 84.964463 
L 156.058969 103.931405 
L 161.21512 122.898347 
L 167.574524 141.865289 
L 175.831489 160.832231 
L 186.630254 179.799174 
L 200.407642 198.766116 
L 217.238261 217.733058 
L 236.769152 236.7 
L 258.285036 255.666942 
L 280.846354 274.633884 
L 303.397231 293.600826 
L 324.806456 312.567769 
L 343.899018 331.534711 
L 359.552038 350.501653 
L 370.868995 369.468595 
L 377.380195 388.435537 
L 379.187992 407.402479 
L 376.985832 426.369421 
L 371.921667 445.336364 
" clip-path="url(#p1404cfef0e)" style="fill: none; stroke: #2f4f4f; stroke-width: 3; stroke-linecap: square"/>
   </g>
   <g id="line2d_5">
    <path d="M 140.444975 28.063636 
L 140.298496 47.030579 
L 142.927423 65.997521 
L 147.842454 84.964463 
L 154.384896 103.931405 
L 161.999996 122.898347 
L 170.413192 141.865289 
L 179.689507 160.832231 
L 190.191193 179.799174 
L 202.470329 198.766116 
L 217.107675 217.733058 
L 234.500023 236.7 
L 254.640097 255.666942 
L 276.977945 274.633884 
L 300.432201 293.600826 
L 323.535255 312.567769 
L 344.635561 331.534711 
L 362.105635 350.501653 
L 374.56254 369.468595 
L 381.110373 388.435537 
L 381.561648 407.402479 
L 376.550879 426.369421 
L 367.458521 445.336364 
" clip-path="url(#p1404cfef0e)" style="fill: none; stroke: #2f4f4f; stroke-opacity: 0.8; stroke-width: 3; stroke-linecap: square"/>
   </g>
   <g id="line2d_6">
    <path d="M 139.360827 28.063636 
L 141.232877 47.030579 
L 143.894701 65.997521 
L 147.700344 84.964463 
L 152.949746 103.931405 
L 159.866957 122.898347 
L 168.613471 141.865289 
L 179.294604 160.832231 
L 191.944643 179.799174 
L 206.503935 198.766116 
L 222.80585 217.733058 
L 240.579591 236.7 
L 259.461211 255.666942 
L 278.999665 274.633884 
L 298.64946 293.600826 
L 317.754499 312.567769 
L 335.544854 331.534711 
L 351.179523 350.501653 
L 363.858604 369.468595 
L 372.991384 388.435537 
L 378.361449 407.402479 
L 380.212151 426.369421 
L 379.204774 445.336364 
" clip-path="url(#p1404cfef0e)" style="fill: none; stroke: #2f4f4f; stroke-opacity: 0.6; stroke-width: 3; stroke-linecap: square"/>
   </g>
   <g id="line2d_7">
    <path d="M 142.039353 28.063636 
L 138.494652 47.030579 
L 140.562394 65.997521 
L 147.651795 84.964463 
L 156.513547 103.931405 
L 163.012165 122.898347 
L 173.055483 141.865289 
L 181.917234 160.832231 
L 190.778986 179.799174 
L 199.640737 198.766116 
L 211.456406 217.733058 
L 232.133826 236.7 
L 252.811246 255.666942 
L 276.442583 274.633884 
L 303.027837 293.600826 
L 329.613092 312.567769 
L 353.244429 331.534711 
L 365.060097 350.501653 
L 368.014014 369.468595 
L 376.875766 388.435537 
L 379.829683 407.402479 
L 373.921849 426.369421 
L 371.411019 445.336364 
" clip-path="url(#p1404cfef0e)" style="fill: none; stroke: #e40000; stroke-opacity: 0.8; stroke-width: 3; stroke-linecap: square"/>
    <defs>
     <path id="md873f0812f" d="M -4 4 
L 4 -4 
M -4 -4 
L 4 4 
" style="stroke: #e40000; stroke-opacity: 0.8"/>
    </defs>
    <g clip-path="url(#p1404cfef0e)">
     <use xlink:href="#md873f0812f" x="142.039353" y="28.063636" style="fill: #e40000; fill-opacity: 0.8; stroke: #e40000; stroke-opacity: 0.8"/>
     <use xlink:href="#md873f0812f" x="138.494652" y="47.030579" style="fill: #e40000; fill-opacity: 0.8; stroke: #e40000; stroke-opacity: 0.8"/>
     <use xlink:href="#md873f0812f" x="140.562394" y="65.997521" style="fill: #e40000; fill-opacity: 0.8; stroke: #e40000; stroke-opacity: 0.8"/>
     <use xlink:href="#md873f0812f" x="147.651795" y="84.964463" style="fill: #e40000; fill-opacity: 0.8; stroke: #e40000; stroke-opacity: 0.8"/>
     <use xlink:href="#md873f0812f" x="156.513547" y="103.931405" style="fill: #e40000; fill-opacity: 0.8; stroke: #e40000; stroke-opacity: 0.8"/>
     <use xlink:href="#md873f0812f" x="163.012165" y="122.898347" style="fill: #e40000; fill-opacity: 0.8; stroke: #e40000; stroke-opacity: 0.8"/>
     <use xlink:href="#md873f0812f" x="173.055483" y="141.865289" style="fill: #e40000; fill-opacity: 0.8; stroke: #e40000; stroke-opacity: 0.8"/>
     <use xlink:href="#md873f0812f" x="181.917234" y="160.832231" style="fill: #e40000; fill-opacity: 0.8; stroke: #e40000; stroke-opacity: 0.8"/>
     <use xlink:href="#md873f0812f" x="190.778986" y="179.799174" style="fill: #e40000; fill-opacity: 0.8; stroke: #e40000; stroke-opacity: 0.8"/>
     <use xlink:href="#md873f0812f" x="199.640737" y="198.766116" style="fill: #e40000; fill-opacity: 0.8; stroke: #e40000; stroke-opacity: 0.8"/>
     <use xlink:href="#md873f0812f" x="211.456406" y="217.733058" style="fill: #e40000; fill-opacity: 0.8; stroke: #e40000; stroke-opacity: 0.8"/>
     <use xlink:href="#md873f0812f" x="232.133826" y="236.7" style="fill: #e40000; fill-opacity: 0.8; stroke: #e40000; stroke-opacity: 0.8"/>
     <use xlink:href="#md873f0812f" x="252.811246" y="255.666942" style="fill: #e40000; fill-opacity: 0.8; stroke: #e40000; stroke-opacity: 0.8"/>
     <use xlink:href="#md873f0812f" x="276.442583" y="274.633884" style="fill: #e40000; fill-opacity: 0.8; stroke: #e40000; stroke-opacity: 0.8"/>
     <use xlink:href="#md873f0812f" x="303.027837" y="293.600826" style="fill: #e40000; fill-opacity: 0.8; stroke: #e40000; stroke-opacity: 0.8"/>
     <use xlink:href="#md873f0812f" x="329.613092" y="312.567769" style="fill: #e40000; fill-opacity: 0.8; stroke: #e40000; stroke-opacity: 0.8"/>
     <use xlink:href="#md873f0812f" x="353.244429" y="331.534711" style="fill: #e40000; fill-opacity: 0.8; stroke: #e40000; stroke-opacity: 0.8"/>
     <use xlink:href="#md873f0812f" x="365.060097" y="350.501653" style="fill: #e40000; fill-opacity: 0.8; stroke: #e40000; stroke-opacity: 0.8"/>
     <use xlink:href="#md873f0812f" x="368.014014" y="369.468595" style="fill: #e40000; fill-opacity: 0.8; stroke: #e40000; stroke-opacity: 0.8"/>
     <use xlink:href="#md873f0812f" x="376.875766" y="388.435537" style="fill: #e40000; fill-opacity: 0.8; stroke: #e40000; stroke-opacity: 0.8"/>
     <use xlink:href="#md873f0812f" x="379.829683" y="407.402479" style="fill: #e40000; fill-opacity: 0.8; stroke: #e40000; stroke-opacity: 0.8"/>
     <use xlink:href="#md873f0812f" x="373.921849" y="426.369421" style="fill: #e40000; fill-opacity: 0.8; stroke: #e40000; stroke-opacity: 0.8"/>
     <use xlink:href="#md873f0812f" x="371.411019" y="445.336364" style="fill: #e40000; fill-opacity: 0.8; stroke: #e40000; stroke-opacity: 0.8"/>
    </g>
   </g>
   <g id="patch_3">
    <path d="M 123.834375 476.2 
L 393.834375 476.2 
" style="fill: none; stroke: #000000; stroke-width: 2; stroke-linejoin: miter; stroke-linecap: square"/>
   </g>
   <g id="legend_1">
    <g id="line2d_8">
     <path d="M 15.2 33.396875 
L 35.2 33.396875 
L 55.2 33.396875 
" style="fill: none; stroke: #2f4f4f; stroke-width: 3; stroke-linecap: square"/>
    </g>
    <g id="text_5">
     <!-- 4-Layer Inversion (Response) -->
     <g transform="translate(71.2 40.396875) scale(0.2 -0.2)">
      <defs>
       <path id="DejaVuSans-34" d="M 2419 4116 
L 825 1625 
L 2419 1625 
L 2419 4116 
z
M 2253 4666 
L 3047 4666 
L 3047 1625 
L 3713 1625 
L 3713 1100 
L 3047 1100 
L 3047 0 
L 2419 0 
L 2419 1100 
L 313 1100 
L 313 1709 
L 2253 4666 
z
" transform="scale(0.015625)"/>
       <path id="DejaVuSans-2d" d="M 313 2009 
L 1997 2009 
L 1997 1497 
L 313 1497 
L 313 2009 
z
" transform="scale(0.015625)"/>
       <path id="DejaVuSans-4c" d="M 628 4666 
L 1259 4666 
L 1259 531 
L 3531 531 
L 3531 0 
L 628 0 
L 628 4666 
z
" transform="scale(0.015625)"/>
       <path id="DejaVuSans-61" d="M 2194 1759 
Q 1497 1759 1228 1600 
Q 959 1441 959 1056 
Q 959 750 1161 570 
Q 1363 391 1709 391 
Q 2188 391 2477 730 
Q 2766 1069 2766 1631 
L 2766 1759 
L 2194 1759 
z
M 3341 1997 
L 3341 0 
L 2766 0 
L 2766 531 
Q 2569 213 2275 61 
Q 1981 -91 1556 -91 
Q 1019 -91 701 211 
Q 384 513 384 1019 
Q 384 1609 779 1909 
Q 1175 2209 1959 2209 
L 2766 2209 
L 2766 2266 
Q 2766 2663 2505 2880 
Q 2244 3097 1772 3097 
Q 1472 3097 1187 3025 
Q 903 2953 641 2809 
L 641 3341 
Q 956 3463 1253 3523 
Q 1550 3584 1831 3584 
Q 2591 3584 2966 3190 
Q 3341 2797 3341 1997 
z
" transform="scale(0.015625)"/>
       <path id="DejaVuSans-79" d="M 2059 -325 
Q 1816 -950 1584 -1140 
Q 1353 -1331 966 -1331 
L 506 -1331 
L 506 -850 
L 844 -850 
Q 1081 -850 1212 -737 
Q 1344 -625 1503 -206 
L 1606 56 
L 191 3500 
L 800 3500 
L 1894 763 
L 2988 3500 
L 3597 3500 
L 2059 -325 
z
" transform="scale(0.015625)"/>
       <path id="DejaVuSans-65" d="M 3597 1894 
L 3597 1613 
L 953 1613 
Q 991 1019 1311 708 
Q 1631 397 2203 397 
Q 2534 397 2845 478 
Q 3156 559 3463 722 
L 3463 178 
Q 3153 47 2828 -22 
Q 2503 -91 2169 -91 
Q 1331 -91 842 396 
Q 353 884 353 1716 
Q 353 2575 817 3079 
Q 1281 3584 2069 3584 
Q 2775 3584 3186 3129 
Q 3597 2675 3597 1894 
z
M 3022 2063 
Q 3016 2534 2758 2815 
Q 2500 3097 2075 3097 
Q 1594 3097 1305 2825 
Q 1016 2553 972 2059 
L 3022 2063 
z
" transform="scale(0.015625)"/>
       <path id="DejaVuSans-72" d="M 2631 2963 
Q 2534 3019 2420 3045 
Q 2306 3072 2169 3072 
Q 1681 3072 1420 2755 
Q 1159 2438 1159 1844 
L 1159 0 
L 581 0 
L 581 3500 
L 1159 3500 
L 1159 2956 
Q 1341 3275 1631 3429 
Q 1922 3584 2338 3584 
Q 2397 3584 2469 3576 
Q 2541 3569 2628 3553 
L 2631 2963 
z
" transform="scale(0.015625)"/>
       <path id="DejaVuSans-20" transform="scale(0.015625)"/>
       <path id="DejaVuSans-49" d="M 628 4666 
L 1259 4666 
L 1259 0 
L 628 0 
L 628 4666 
z
" transform="scale(0.015625)"/>
       <path id="DejaVuSans-6e" d="M 3513 2113 
L 3513 0 
L 2938 0 
L 2938 2094 
Q 2938 2591 2744 2837 
Q 2550 3084 2163 3084 
Q 1697 3084 1428 2787 
Q 1159 2491 1159 1978 
L 1159 0 
L 581 0 
L 581 3500 
L 1159 3500 
L 1159 2956 
Q 1366 3272 1645 3428 
Q 1925 3584 2291 3584 
Q 2894 3584 3203 3211 
Q 3513 2838 3513 2113 
z
" transform="scale(0.015625)"/>
       <path id="DejaVuSans-76" d="M 191 3500 
L 800 3500 
L 1894 563 
L 2988 3500 
L 3597 3500 
L 2284 0 
L 1503 0 
L 191 3500 
z
" transform="scale(0.015625)"/>
       <path id="DejaVuSans-73" d="M 2834 3397 
L 2834 2853 
Q 2591 2978 2328 3040 
Q 2066 3103 1784 3103 
Q 1356 3103 1142 2972 
Q 928 2841 928 2578 
Q 928 2378 1081 2264 
Q 1234 2150 1697 2047 
L 1894 2003 
Q 2506 1872 2764 1633 
Q 3022 1394 3022 966 
Q 3022 478 2636 193 
Q 2250 -91 1575 -91 
Q 1294 -91 989 -36 
Q 684 19 347 128 
L 347 722 
Q 666 556 975 473 
Q 1284 391 1588 391 
Q 1994 391 2212 530 
Q 2431 669 2431 922 
Q 2431 1156 2273 1281 
Q 2116 1406 1581 1522 
L 1381 1569 
Q 847 1681 609 1914 
Q 372 2147 372 2553 
Q 372 3047 722 3315 
Q 1072 3584 1716 3584 
Q 2034 3584 2315 3537 
Q 2597 3491 2834 3397 
z
" transform="scale(0.015625)"/>
       <path id="DejaVuSans-69" d="M 603 3500 
L 1178 3500 
L 1178 0 
L 603 0 
L 603 3500 
z
M 603 4863 
L 1178 4863 
L 1178 4134 
L 603 4134 
L 603 4863 
z
" transform="scale(0.015625)"/>
       <path id="DejaVuSans-6f" d="M 1959 3097 
Q 1497 3097 1228 2736 
Q 959 2375 959 1747 
Q 959 1119 1226 758 
Q 1494 397 1959 397 
Q 2419 397 2687 759 
Q 2956 1122 2956 1747 
Q 2956 2369 2687 2733 
Q 2419 3097 1959 3097 
z
M 1959 3584 
Q 2709 3584 3137 3096 
Q 3566 2609 3566 1747 
Q 3566 888 3137 398 
Q 2709 -91 1959 -91 
Q 1206 -91 779 398 
Q 353 888 353 1747 
Q 353 2609 779 3096 
Q 1206 3584 1959 3584 
z
" transform="scale(0.015625)"/>
       <path id="DejaVuSans-28" d="M 1984 4856 
Q 1566 4138 1362 3434 
Q 1159 2731 1159 2009 
Q 1159 1288 1364 580 
Q 1569 -128 1984 -844 
L 1484 -844 
Q 1016 -109 783 600 
Q 550 1309 550 2009 
Q 550 2706 781 3412 
Q 1013 4119 1484 4856 
L 1984 4856 
z
" transform="scale(0.015625)"/>
       <path id="DejaVuSans-52" d="M 2841 2188 
Q 3044 2119 3236 1894 
Q 3428 1669 3622 1275 
L 4263 0 
L 3584 0 
L 2988 1197 
Q 2756 1666 2539 1819 
Q 2322 1972 1947 1972 
L 1259 1972 
L 1259 0 
L 628 0 
L 628 4666 
L 2053 4666 
Q 2853 4666 3247 4331 
Q 3641 3997 3641 3322 
Q 3641 2881 3436 2590 
Q 3231 2300 2841 2188 
z
M 1259 4147 
L 1259 2491 
L 2053 2491 
Q 2509 2491 2742 2702 
Q 2975 2913 2975 3322 
Q 2975 3731 2742 3939 
Q 2509 4147 2053 4147 
L 1259 4147 
z
" transform="scale(0.015625)"/>
       <path id="DejaVuSans-70" d="M 1159 525 
L 1159 -1331 
L 581 -1331 
L 581 3500 
L 1159 3500 
L 1159 2969 
Q 1341 3281 1617 3432 
Q 1894 3584 2278 3584 
Q 2916 3584 3314 3078 
Q 3713 2572 3713 1747 
Q 3713 922 3314 415 
Q 2916 -91 2278 -91 
Q 1894 -91 1617 61 
Q 1341 213 1159 525 
z
M 3116 1747 
Q 3116 2381 2855 2742 
Q 2594 3103 2138 3103 
Q 1681 3103 1420 2742 
Q 1159 2381 1159 1747 
Q 1159 1113 1420 752 
Q 1681 391 2138 391 
Q 2594 391 2855 752 
Q 3116 1113 3116 1747 
z
" transform="scale(0.015625)"/>
       <path id="DejaVuSans-29" d="M 513 4856 
L 1013 4856 
Q 1481 4119 1714 3412 
Q 1947 2706 1947 2009 
Q 1947 1309 1714 600 
Q 1481 -109 1013 -844 
L 513 -844 
Q 928 -128 1133 580 
Q 1338 1288 1338 2009 
Q 1338 2731 1133 3434 
Q 928 4138 513 4856 
z
" transform="scale(0.015625)"/>
      </defs>
      <use xlink:href="#DejaVuSans-34"/>
      <use xlink:href="#DejaVuSans-2d" x="63.623047"/>
      <use xlink:href="#DejaVuSans-4c" x="99.707031"/>
      <use xlink:href="#DejaVuSans-61" x="155.419922"/>
      <use xlink:href="#DejaVuSans-79" x="216.699219"/>
      <use xlink:href="#DejaVuSans-65" x="275.878906"/>
      <use xlink:href="#DejaVuSans-72" x="337.402344"/>
      <use xlink:href="#DejaVuSans-20" x="378.515625"/>
      <use xlink:href="#DejaVuSans-49" x="410.302734"/>
      <use xlink:href="#DejaVuSans-6e" x="439.794922"/>
      <use xlink:href="#DejaVuSans-76" x="503.173828"/>
      <use xlink:href="#DejaVuSans-65" x="562.353516"/>
      <use xlink:href="#DejaVuSans-72" x="623.876953"/>
      <use xlink:href="#DejaVuSans-73" x="664.990234"/>
      <use xlink:href="#DejaVuSans-69" x="717.089844"/>
      <use xlink:href="#DejaVuSans-6f" x="744.873047"/>
      <use xlink:href="#DejaVuSans-6e" x="806.054688"/>
      <use xlink:href="#DejaVuSans-20" x="869.433594"/>
      <use xlink:href="#DejaVuSans-28" x="901.220703"/>
      <use xlink:href="#DejaVuSans-52" x="940.234375"/>
      <use xlink:href="#DejaVuSans-65" x="1005.216797"/>
      <use xlink:href="#DejaVuSans-73" x="1066.740234"/>
      <use xlink:href="#DejaVuSans-70" x="1118.839844"/>
      <use xlink:href="#DejaVuSans-6f" x="1182.316406"/>
      <use xlink:href="#DejaVuSans-6e" x="1243.498047"/>
      <use xlink:href="#DejaVuSans-73" x="1306.876953"/>
      <use xlink:href="#DejaVuSans-65" x="1358.976562"/>
      <use xlink:href="#DejaVuSans-29" x="1420.5"/>
     </g>
    </g>
    <g id="line2d_9">
     <path d="M 15.2 62.753125 
L 35.2 62.753125 
L 55.2 62.753125 
" style="fill: none; stroke: #2f4f4f; stroke-opacity: 0.8; stroke-width: 3; stroke-linecap: square"/>
    </g>
    <g id="text_6">
     <!-- 5-Layer Inversion (Response) -->
     <g transform="translate(71.2 69.753125) scale(0.2 -0.2)">
      <use xlink:href="#DejaVuSans-35"/>
      <use xlink:href="#DejaVuSans-2d" x="63.623047"/>
      <use xlink:href="#DejaVuSans-4c" x="99.707031"/>
      <use xlink:href="#DejaVuSans-61" x="155.419922"/>
      <use xlink:href="#DejaVuSans-79" x="216.699219"/>
      <use xlink:href="#DejaVuSans-65" x="275.878906"/>
      <use xlink:href="#DejaVuSans-72" x="337.402344"/>
      <use xlink:href="#DejaVuSans-20" x="378.515625"/>
      <use xlink:href="#DejaVuSans-49" x="410.302734"/>
      <use xlink:href="#DejaVuSans-6e" x="439.794922"/>
      <use xlink:href="#DejaVuSans-76" x="503.173828"/>
      <use xlink:href="#DejaVuSans-65" x="562.353516"/>
      <use xlink:href="#DejaVuSans-72" x="623.876953"/>
      <use xlink:href="#DejaVuSans-73" x="664.990234"/>
      <use xlink:href="#DejaVuSans-69" x="717.089844"/>
      <use xlink:href="#DejaVuSans-6f" x="744.873047"/>
      <use xlink:href="#DejaVuSans-6e" x="806.054688"/>
      <use xlink:href="#DejaVuSans-20" x="869.433594"/>
      <use xlink:href="#DejaVuSans-28" x="901.220703"/>
      <use xlink:href="#DejaVuSans-52" x="940.234375"/>
      <use xlink:href="#DejaVuSans-65" x="1005.216797"/>
      <use xlink:href="#DejaVuSans-73" x="1066.740234"/>
      <use xlink:href="#DejaVuSans-70" x="1118.839844"/>
      <use xlink:href="#DejaVuSans-6f" x="1182.316406"/>
      <use xlink:href="#DejaVuSans-6e" x="1243.498047"/>
      <use xlink:href="#DejaVuSans-73" x="1306.876953"/>
      <use xlink:href="#DejaVuSans-65" x="1358.976562"/>
      <use xlink:href="#DejaVuSans-29" x="1420.5"/>
     </g>
    </g>
    <g id="line2d_10">
     <path d="M 15.2 92.109375 
L 35.2 92.109375 
L 55.2 92.109375 
" style="fill: none; stroke: #2f4f4f; stroke-opacity: 0.6; stroke-width: 3; stroke-linecap: square"/>
    </g>
    <g id="text_7">
     <!-- 48-Layer Inversion (Response) -->
     <g transform="translate(71.2 99.109375) scale(0.2 -0.2)">
      <defs>
       <path id="DejaVuSans-38" d="M 2034 2216 
Q 1584 2216 1326 1975 
Q 1069 1734 1069 1313 
Q 1069 891 1326 650 
Q 1584 409 2034 409 
Q 2484 409 2743 651 
Q 3003 894 3003 1313 
Q 3003 1734 2745 1975 
Q 2488 2216 2034 2216 
z
M 1403 2484 
Q 997 2584 770 2862 
Q 544 3141 544 3541 
Q 544 4100 942 4425 
Q 1341 4750 2034 4750 
Q 2731 4750 3128 4425 
Q 3525 4100 3525 3541 
Q 3525 3141 3298 2862 
Q 3072 2584 2669 2484 
Q 3125 2378 3379 2068 
Q 3634 1759 3634 1313 
Q 3634 634 3220 271 
Q 2806 -91 2034 -91 
Q 1263 -91 848 271 
Q 434 634 434 1313 
Q 434 1759 690 2068 
Q 947 2378 1403 2484 
z
M 1172 3481 
Q 1172 3119 1398 2916 
Q 1625 2713 2034 2713 
Q 2441 2713 2670 2916 
Q 2900 3119 2900 3481 
Q 2900 3844 2670 4047 
Q 2441 4250 2034 4250 
Q 1625 4250 1398 4047 
Q 1172 3844 1172 3481 
z
" transform="scale(0.015625)"/>
      </defs>
      <use xlink:href="#DejaVuSans-34"/>
      <use xlink:href="#DejaVuSans-38" x="63.623047"/>
      <use xlink:href="#DejaVuSans-2d" x="127.246094"/>
      <use xlink:href="#DejaVuSans-4c" x="163.330078"/>
      <use xlink:href="#DejaVuSans-61" x="219.042969"/>
      <use xlink:href="#DejaVuSans-79" x="280.322266"/>
      <use xlink:href="#DejaVuSans-65" x="339.501953"/>
      <use xlink:href="#DejaVuSans-72" x="401.025391"/>
      <use xlink:href="#DejaVuSans-20" x="442.138672"/>
      <use xlink:href="#DejaVuSans-49" x="473.925781"/>
      <use xlink:href="#DejaVuSans-6e" x="503.417969"/>
      <use xlink:href="#DejaVuSans-76" x="566.796875"/>
      <use xlink:href="#DejaVuSans-65" x="625.976562"/>
      <use xlink:href="#DejaVuSans-72" x="687.5"/>
      <use xlink:href="#DejaVuSans-73" x="728.613281"/>
      <use xlink:href="#DejaVuSans-69" x="780.712891"/>
      <use xlink:href="#DejaVuSans-6f" x="808.496094"/>
      <use xlink:href="#DejaVuSans-6e" x="869.677734"/>
      <use xlink:href="#DejaVuSans-20" x="933.056641"/>
      <use xlink:href="#DejaVuSans-28" x="964.84375"/>
      <use xlink:href="#DejaVuSans-52" x="1003.857422"/>
      <use xlink:href="#DejaVuSans-65" x="1068.839844"/>
      <use xlink:href="#DejaVuSans-73" x="1130.363281"/>
      <use xlink:href="#DejaVuSans-70" x="1182.462891"/>
      <use xlink:href="#DejaVuSans-6f" x="1245.939453"/>
      <use xlink:href="#DejaVuSans-6e" x="1307.121094"/>
      <use xlink:href="#DejaVuSans-73" x="1370.5"/>
      <use xlink:href="#DejaVuSans-65" x="1422.599609"/>
      <use xlink:href="#DejaVuSans-29" x="1484.123047"/>
     </g>
    </g>
   </g>
  </g>
 </g>
 <defs>
  <clipPath id="p1404cfef0e">
   <rect x="123.834375" y="7.2" width="270" height="459"/>
  </clipPath>
 </defs>
</svg>
